<?xml version="1.0" encoding="UTF-8" standalone="no"?>
<!DOCTYPE svg PUBLIC "-//W3C//DTD SVG 1.1//EN"
 "http://www.w3.org/Graphics/SVG/1.1/DTD/svg11.dtd">
<!-- Generated by graphviz version 2.40.1 (20161225.0304)
 -->
<!-- Title: fr_curl_init Pages: 1 -->
<!--zoomable 260 -->
<svg id="main" version="1.1" xmlns="http://www.w3.org/2000/svg" xmlns:xlink="http://www.w3.org/1999/xlink" xml:space="preserve" onload="init(evt)">
<style type="text/css"><![CDATA[
.edge:hover path { stroke: red; }
.edge:hover polygon { stroke: red; fill: red; }
]]></style>
<script type="text/javascript"><![CDATA[
var edges = document.getElementsByTagName('g');
if (edges && edges.length) {
  for (var i=0;i<edges.length;i++) {
    if (edges[i].id.substr(0,4)=='edge') {
      edges[i].setAttribute('class','edge');
    }
  }
}
]]></script>
        <defs>
                <circle id="rim" cx="0" cy="0" r="7"/>
                <circle id="rim2" cx="0" cy="0" r="3.5"/>
                <g id="zoomPlus">
                        <use xlink:href="#rim" fill="#404040">
                                <set attributeName="fill" to="#808080" begin="zoomplus.mouseover" end="zoomplus.mouseout"/>
                        </use>
                        <path d="M-4,0h8M0,-4v8" fill="none" stroke="white" stroke-width="1.5" pointer-events="none"/>
                </g>
                <g id="zoomMin">
                        <use xlink:href="#rim" fill="#404040">
                                <set attributeName="fill" to="#808080" begin="zoomminus.mouseover" end="zoomminus.mouseout"/>
                        </use>
                        <path d="M-4,0h8" fill="none" stroke="white" stroke-width="1.5" pointer-events="none"/>
                </g>
                <g id="dirArrow">
                        <path fill="none" stroke="white" stroke-width="1.5" d="M0,-3.0v7 M-2.5,-0.5L0,-3.0L2.5,-0.5"/>
                </g>
               <g id="resetDef">
                       <use xlink:href="#rim2" fill="#404040">
                               <set attributeName="fill" to="#808080" begin="reset.mouseover" end="reset.mouseout"/>
                       </use>
               </g>
        </defs>

<script type="text/javascript">
var viewWidth = 948;
var viewHeight = 260;
var sectionId = 'dynsection-4';
</script>
<script xlink:href="svgpan.js"/>
<svg id="graph" class="graph">
<g id="viewport">
<title>fr_curl_init</title>
<!-- Node5 -->
<g id="node1" class="node">
<title>Node5</title>
<polygon fill="#bfbfbf" stroke="#000000" points="0,-42.2552 0,-61.2552 62,-61.2552 62,-42.2552 0,-42.2552"/>
<text text-anchor="middle" x="31" y="-49.2552" font-family="Helvetica,sans-Serif" font-size="10.00" fill="#000000">fr_curl_init</text>
</g>
<!-- Node6 -->
<g id="node2" class="node">
<title>Node6</title>
<g id="a_node2"><a xlink:href="dict_8h.html#a10a10d51e32b7c32cd3226eb3a20c5e3" target="_top" xlink:title="Process a dict_autoload element to load a protocol. ">
<polygon fill="none" stroke="#000000" points="98,-61.2552 98,-80.2552 184,-80.2552 184,-61.2552 98,-61.2552"/>
<text text-anchor="middle" x="141" y="-68.2552" font-family="Helvetica,sans-Serif" font-size="10.00" fill="#000000">fr_dict_autoload</text>
</a>
</g>
</g>
<!-- Node5&#45;&gt;Node6 -->
<g id="edge1" class="edge">
<title>Node5&#45;&gt;Node6</title>
<path fill="none" stroke="#191970" d="M62.2274,-57.149C70.2573,-58.536 79.1244,-60.0676 87.9257,-61.5878"/>
<polygon fill="#191970" stroke="#191970" points="87.3367,-65.0378 97.7866,-63.291 88.5282,-58.14 87.3367,-65.0378"/>
</g>
<!-- Node188 -->
<g id="node14" class="node">
<title>Node188</title>
<g id="a_node14"><a xlink:href="dict_8h.html#af02d9b5797d2d60942a51ed08952afd2" target="_top" xlink:title="Decrement the reference count on a previously loaded dictionary. ">
<polygon fill="none" stroke="#ff0000" points="99,-23.2552 99,-42.2552 183,-42.2552 183,-23.2552 99,-23.2552"/>
<text text-anchor="middle" x="141" y="-30.2552" font-family="Helvetica,sans-Serif" font-size="10.00" fill="#000000">fr_dict_autofree</text>
</a>
</g>
</g>
<!-- Node5&#45;&gt;Node188 -->
<g id="edge22" class="edge">
<title>Node5&#45;&gt;Node188</title>
<path fill="none" stroke="#191970" d="M62.2274,-46.3614C70.4419,-44.9425 79.5326,-43.3723 88.5326,-41.8177"/>
<polygon fill="#191970" stroke="#191970" points="89.3456,-45.2292 98.6039,-40.0781 88.1541,-38.3314 89.3456,-45.2292"/>
</g>
<!-- Node7 -->
<g id="node3" class="node">
<title>Node7</title>
<g id="a_node3"><a xlink:href="strerror_8c.html#ae701765650b8aea79a3037bc4921d7f8" target="_top" xlink:title="Log to thread local error buffer. ">
<polygon fill="none" stroke="#000000" points="387,-61.2552 387,-80.2552 473,-80.2552 473,-61.2552 387,-61.2552"/>
<text text-anchor="middle" x="430" y="-68.2552" font-family="Helvetica,sans-Serif" font-size="10.00" fill="#000000">fr_strerror_printf</text>
</a>
</g>
</g>
<!-- Node6&#45;&gt;Node7 -->
<g id="edge2" class="edge">
<title>Node6&#45;&gt;Node7</title>
<path fill="none" stroke="#191970" d="M172.9751,-80.2615C187.2285,-84.0258 204.3108,-87.895 220,-89.7552 277.8173,-96.6102 293.1827,-96.6102 351,-89.7552 363.2572,-88.3019 376.3647,-85.6224 388.3092,-82.7247"/>
<polygon fill="#191970" stroke="#191970" points="389.1917,-86.1118 398.0249,-80.2615 387.4714,-79.3265 389.1917,-86.1118"/>
</g>
<!-- Node545 -->
<g id="node12" class="node">
<title>Node545</title>
<g id="a_node12"><a xlink:href="dict_8h.html#ad922c3b43868cfa7051c93ac4100356e" target="_top" xlink:title="(Re&#45;)Initialize the special internal dictionary ">
<polygon fill="none" stroke="#ff0000" points="221.5,-61.2552 221.5,-80.2552 349.5,-80.2552 349.5,-61.2552 221.5,-61.2552"/>
<text text-anchor="middle" x="285.5" y="-68.2552" font-family="Helvetica,sans-Serif" font-size="10.00" fill="#000000">fr_dict_internal_afrom_file</text>
</a>
</g>
</g>
<!-- Node6&#45;&gt;Node545 -->
<g id="edge18" class="edge">
<title>Node6&#45;&gt;Node545</title>
<path fill="none" stroke="#191970" d="M184.3548,-70.7552C192.9017,-70.7552 202.0946,-70.7552 211.3294,-70.7552"/>
<polygon fill="#191970" stroke="#191970" points="211.3379,-74.2553 221.3379,-70.7552 211.3379,-67.2553 211.3379,-74.2553"/>
</g>
<!-- Node546 -->
<g id="node13" class="node">
<title>Node546</title>
<g id="a_node13"><a xlink:href="dict_8h.html#a43b6813c34c672a0f1330af386e2064c" target="_top" xlink:title="(Re)&#45;initialize a protocol dictionary ">
<polygon fill="none" stroke="#ff0000" points="220,-23.2552 220,-42.2552 351,-42.2552 351,-23.2552 220,-23.2552"/>
<text text-anchor="middle" x="285.5" y="-30.2552" font-family="Helvetica,sans-Serif" font-size="10.00" fill="#000000">fr_dict_protocol_afrom_file</text>
</a>
</g>
</g>
<!-- Node6&#45;&gt;Node546 -->
<g id="edge20" class="edge">
<title>Node6&#45;&gt;Node546</title>
<path fill="none" stroke="#191970" d="M177.4635,-61.1662C196.2741,-56.2194 219.4146,-50.134 239.4472,-44.8659"/>
<polygon fill="#191970" stroke="#191970" points="240.5177,-48.2035 249.2988,-42.2752 238.7374,-41.4337 240.5177,-48.2035"/>
</g>
<!-- Node8 -->
<g id="node4" class="node">
<title>Node8</title>
<g id="a_node4"><a xlink:href="acutest_8h.html#aecf9a9be8105efb1454cd8c1ef6cb1c5" target="_top" xlink:title="va_start">
<polygon fill="none" stroke="#000000" points="888,-232.2552 888,-251.2552 940,-251.2552 940,-232.2552 888,-232.2552"/>
<text text-anchor="middle" x="914" y="-239.2552" font-family="Helvetica,sans-Serif" font-size="10.00" fill="#000000">va_start</text>
</a>
</g>
</g>
<!-- Node7&#45;&gt;Node8 -->
<g id="edge3" class="edge">
<title>Node7&#45;&gt;Node8</title>
<path fill="none" stroke="#191970" d="M439.5886,-80.5078C467.1326,-107.8095 550.0372,-185.0714 636,-216.7552 718.2697,-247.0778 823.1194,-247.0258 877.533,-244.3884"/>
<polygon fill="#191970" stroke="#191970" points="877.9263,-247.8723 887.7216,-243.8347 877.5463,-240.8826 877.9263,-247.8723"/>
</g>
<!-- Node9 -->
<g id="node5" class="node">
<title>Node9</title>
<g id="a_node5"><a xlink:href="strerror_8c.html#a193b1e0b3712e3bbee338812c06af482" target="_top" xlink:title="fr_strerror_vprintf">
<polygon fill="none" stroke="#000000" points="509,-90.2552 509,-109.2552 600,-109.2552 600,-90.2552 509,-90.2552"/>
<text text-anchor="middle" x="554.5" y="-97.2552" font-family="Helvetica,sans-Serif" font-size="10.00" fill="#000000">fr_strerror_vprintf</text>
</a>
</g>
</g>
<!-- Node7&#45;&gt;Node9 -->
<g id="edge4" class="edge">
<title>Node7&#45;&gt;Node9</title>
<path fill="none" stroke="#191970" d="M471.111,-80.3312C481.5228,-82.7565 492.8298,-85.3902 503.6598,-87.9129"/>
<polygon fill="#191970" stroke="#191970" points="502.8989,-91.3293 513.4322,-90.1892 504.4869,-84.5118 502.8989,-91.3293"/>
</g>
<!-- Node12 -->
<g id="node8" class="node">
<title>Node12</title>
<g id="a_node8"><a xlink:href="acutest_8h.html#a36af1f79dd6adf0809c21e76535034d5" target="_top" xlink:title="va_end">
<polygon fill="none" stroke="#000000" points="890,-52.2552 890,-71.2552 938,-71.2552 938,-52.2552 890,-52.2552"/>
<text text-anchor="middle" x="914" y="-59.2552" font-family="Helvetica,sans-Serif" font-size="10.00" fill="#000000">va_end</text>
</a>
</g>
</g>
<!-- Node7&#45;&gt;Node12 -->
<g id="edge17" class="edge">
<title>Node7&#45;&gt;Node12</title>
<path fill="none" stroke="#191970" d="M449.0962,-61.1448C464.8634,-53.492 487.9837,-42.9123 509,-35.7552 603.3055,-3.6395 632.0643,6.9352 731,-4.7552 785.9187,-11.2445 799.678,-15.8504 852,-33.7552 863.4643,-37.6783 875.6974,-42.954 886.2418,-47.868"/>
<polygon fill="#191970" stroke="#191970" points="884.8479,-51.0809 895.3803,-52.2301 887.8634,-44.7637 884.8479,-51.0809"/>
</g>
<!-- Node10 -->
<g id="node6" class="node">
<title>Node10</title>
<g id="a_node6"><a xlink:href="strerror_8c.html#a42c2cc9f76fb9dac723a1903c181e1c7" target="_top" xlink:title="Initialise thread local storage. ">
<polygon fill="none" stroke="#ff0000" points="645,-166.2552 645,-185.2552 722,-185.2552 722,-166.2552 645,-166.2552"/>
<text text-anchor="middle" x="683.5" y="-173.2552" font-family="Helvetica,sans-Serif" font-size="10.00" fill="#000000">fr_strerror_init</text>
</a>
</g>
</g>
<!-- Node9&#45;&gt;Node10 -->
<g id="edge5" class="edge">
<title>Node9&#45;&gt;Node10</title>
<path fill="none" stroke="#191970" d="M568.6606,-109.403C584.7104,-120.1927 611.792,-137.9625 636,-151.7552 641.7951,-155.057 648.0989,-158.405 654.1637,-161.5106"/>
<polygon fill="#191970" stroke="#191970" points="652.8834,-164.7844 663.3899,-166.15 656.0282,-158.5306 652.8834,-164.7844"/>
</g>
<!-- Node11 -->
<g id="node7" class="node">
<title>Node11</title>
<g id="a_node7"><a xlink:href="strerror_8c.html#a2c8e65d6d4b73fb705cc023f60acb099" target="_top" xlink:title="Print the current error to stderr with a prefix. ">
<polygon fill="none" stroke="#ff0000" points="783,-194.2552 783,-213.2552 836,-213.2552 836,-194.2552 783,-194.2552"/>
<text text-anchor="middle" x="809.5" y="-201.2552" font-family="Helvetica,sans-Serif" font-size="10.00" fill="#000000">fr_perror</text>
</a>
</g>
</g>
<!-- Node9&#45;&gt;Node11 -->
<g id="edge11" class="edge">
<title>Node9&#45;&gt;Node11</title>
<path fill="none" stroke="#191970" d="M559.3692,-109.5586C570.028,-129.795 597.5795,-175.8735 636,-194.7552 679.2391,-216.0049 736.0667,-214.2408 772.6917,-209.9091"/>
<polygon fill="#191970" stroke="#191970" points="773.4535,-213.3393 782.9146,-208.5709 772.5449,-206.3985 773.4535,-213.3393"/>
</g>
<!-- Node9&#45;&gt;Node12 -->
<g id="edge15" class="edge">
<title>Node9&#45;&gt;Node12</title>
<path fill="none" stroke="#191970" d="M600.0309,-94.9425C673.0526,-87.2239 814.7333,-72.2479 879.8103,-65.3691"/>
<polygon fill="#191970" stroke="#191970" points="880.3649,-68.8301 889.9416,-64.2982 879.629,-61.8689 880.3649,-68.8301"/>
</g>
<!-- Node18 -->
<g id="node9" class="node">
<title>Node18</title>
<g id="a_node9"><a xlink:href="strerror_8c.html#a9d878c1ddb1b385cdaf6523fff68529c" target="_top" xlink:title="Reset cursor state. ">
<polygon fill="none" stroke="#000000" points="767,-147.2552 767,-166.2552 852,-166.2552 852,-147.2552 767,-147.2552"/>
<text text-anchor="middle" x="809.5" y="-154.2552" font-family="Helvetica,sans-Serif" font-size="10.00" fill="#000000">fr_strerror_clear</text>
</a>
</g>
</g>
<!-- Node9&#45;&gt;Node18 -->
<g id="edge10" class="edge">
<title>Node9&#45;&gt;Node18</title>
<path fill="none" stroke="#191970" d="M597.1813,-109.2957C641.035,-119.0983 709.3894,-134.3775 756.6378,-144.9389"/>
<polygon fill="#191970" stroke="#191970" points="756.1568,-148.4177 766.6795,-147.1835 757.6839,-141.5863 756.1568,-148.4177"/>
</g>
<!-- Node19 -->
<g id="node10" class="node">
<title>Node19</title>
<g id="a_node10"><a xlink:href="print_8c.html#a27ae94b5a4c77de49aa2f387765a4d58" target="_top" xlink:title="Special version of vasprintf which implements custom format specifiers. ">
<polygon fill="none" stroke="#ff0000" points="651,-14.2552 651,-33.2552 716,-33.2552 716,-14.2552 651,-14.2552"/>
<text text-anchor="middle" x="683.5" y="-21.2552" font-family="Helvetica,sans-Serif" font-size="10.00" fill="#000000">fr_vasprintf</text>
</a>
</g>
</g>
<!-- Node9&#45;&gt;Node19 -->
<g id="edge12" class="edge">
<title>Node9&#45;&gt;Node19</title>
<path fill="none" stroke="#191970" d="M566.3587,-90.1434C581.7398,-77.9941 609.7203,-56.9556 636,-42.7552 639.5041,-40.8617 643.2381,-39.0486 647.0139,-37.3458"/>
<polygon fill="#191970" stroke="#191970" points="648.5498,-40.4959 656.3787,-33.3573 645.8069,-34.0557 648.5498,-40.4959"/>
</g>
<!-- Node171 -->
<g id="node11" class="node">
<title>Node171</title>
<g id="a_node11"><a xlink:href="cursor_8c.html#a5d942382660657c3b4cb6e9cb2b12b2c" target="_top" xlink:title="Insert a single item at the start of the list. ">
<polygon fill="none" stroke="#000000" points="636,-52.2552 636,-71.2552 731,-71.2552 731,-52.2552 636,-52.2552"/>
<text text-anchor="middle" x="683.5" y="-59.2552" font-family="Helvetica,sans-Serif" font-size="10.00" fill="#000000">fr_cursor_prepend</text>
</a>
</g>
</g>
<!-- Node9&#45;&gt;Node171 -->
<g id="edge16" class="edge">
<title>Node9&#45;&gt;Node171</title>
<path fill="none" stroke="#191970" d="M587.0521,-90.1662C603.3993,-85.3507 623.4092,-79.4563 640.9571,-74.2872"/>
<polygon fill="#191970" stroke="#191970" points="642.3548,-77.5242 650.9583,-71.3411 640.3768,-70.8095 642.3548,-77.5242"/>
</g>
<!-- Node10&#45;&gt;Node11 -->
<g id="edge6" class="edge">
<title>Node10&#45;&gt;Node11</title>
<path fill="none" stroke="#191970" d="M722.3323,-184.3846C738.466,-187.9699 757.0923,-192.109 772.9745,-195.6384"/>
<polygon fill="#191970" stroke="#191970" points="772.4403,-199.105 782.9614,-197.8577 773.9588,-192.2717 772.4403,-199.105"/>
</g>
<!-- Node10&#45;&gt;Node18 -->
<g id="edge9" class="edge">
<title>Node10&#45;&gt;Node18</title>
<path fill="none" stroke="#191970" d="M722.3323,-169.8995C733.1819,-168.2635 745.1587,-166.4574 756.6701,-164.7216"/>
<polygon fill="#191970" stroke="#191970" points="757.2602,-168.1723 766.6265,-163.2202 756.2164,-161.2505 757.2602,-168.1723"/>
</g>
<!-- Node11&#45;&gt;Node8 -->
<g id="edge7" class="edge">
<title>Node11&#45;&gt;Node8</title>
<path fill="none" stroke="#191970" d="M835.8698,-213.3442C848.6171,-217.9796 864.114,-223.6148 877.9347,-228.6405"/>
<polygon fill="#191970" stroke="#191970" points="877.0446,-232.041 887.6387,-232.1692 879.4369,-225.4625 877.0446,-232.041"/>
</g>
<!-- Node11&#45;&gt;Node12 -->
<g id="edge8" class="edge">
<title>Node11&#45;&gt;Node12</title>
<path fill="none" stroke="#191970" d="M828.3576,-194.0606C836.3322,-189.3121 845.3039,-183.0419 852,-175.7552 878.4253,-146.9988 897.4915,-104.9156 907.0484,-80.7391"/>
<polygon fill="#191970" stroke="#191970" points="910.3613,-81.8743 910.6594,-71.2836 903.822,-79.3768 910.3613,-81.8743"/>
</g>
<!-- Node19&#45;&gt;Node7 -->
<g id="edge14" class="edge">
<title>Node19&#45;&gt;Node7</title>
<path fill="none" stroke="#191970" d="M650.7893,-29.8199C608.3387,-37.6904 533.7246,-51.5242 483.1049,-60.9093"/>
<polygon fill="#191970" stroke="#191970" points="482.1972,-57.5179 473.0028,-62.7823 483.4733,-64.4006 482.1972,-57.5179"/>
</g>
<!-- Node19&#45;&gt;Node12 -->
<g id="edge13" class="edge">
<title>Node19&#45;&gt;Node12</title>
<path fill="none" stroke="#191970" d="M716.0361,-29.1191C759.3483,-36.2595 835.6015,-48.8305 879.7588,-56.1102"/>
<polygon fill="#191970" stroke="#191970" points="879.2904,-59.5802 889.7266,-57.7535 880.4291,-52.6734 879.2904,-59.5802"/>
</g>
<!-- Node545&#45;&gt;Node7 -->
<g id="edge19" class="edge">
<title>Node545&#45;&gt;Node7</title>
<path fill="none" stroke="#191970" d="M349.7213,-70.7552C358.7146,-70.7552 367.8759,-70.7552 376.6385,-70.7552"/>
<polygon fill="#191970" stroke="#191970" points="376.708,-74.2553 386.708,-70.7552 376.7079,-67.2553 376.708,-74.2553"/>
</g>
<!-- Node546&#45;&gt;Node7 -->
<g id="edge21" class="edge">
<title>Node546&#45;&gt;Node7</title>
<path fill="none" stroke="#191970" d="M321.9635,-42.3442C340.7741,-47.2909 363.9146,-53.3763 383.9472,-58.6444"/>
<polygon fill="#191970" stroke="#191970" points="383.2374,-62.0767 393.7988,-61.2351 385.0177,-55.3069 383.2374,-62.0767"/>
</g>
</g>
</svg>
        <g id="navigator" transform="translate(0 0)" fill="#404254">
                <rect fill="#f2f5e9" fill-opacity="0.5" stroke="#606060" stroke-width=".5" x="0" y="0" width="60" height="60"/>
                <use id="zoomplus" xlink:href="#zoomPlus" x="17" y="9" onmousedown="handleZoom(evt,'in')"/>
                <use id="zoomminus" xlink:href="#zoomMin" x="42" y="9" onmousedown="handleZoom(evt,'out')"/>
                <use id="reset" xlink:href="#resetDef" x="30" y="36" onmousedown="handleReset()"/>
                <g id="arrowUp" xlink:href="#dirArrow" transform="translate(30 24)" onmousedown="handlePan(0,-1)">
                  <use xlink:href="#rim" fill="#404040">
                        <set attributeName="fill" to="#808080" begin="arrowUp.mouseover" end="arrowUp.mouseout"/>
                  </use>
                  <path fill="none" stroke="white" stroke-width="1.5" d="M0,-3.0v7 M-2.5,-0.5L0,-3.0L2.5,-0.5"/>
                </g>
                <g id="arrowRight" xlink:href="#dirArrow" transform="rotate(90) translate(36 -43)" onmousedown="handlePan(1,0)">
                  <use xlink:href="#rim" fill="#404040">
                        <set attributeName="fill" to="#808080" begin="arrowRight.mouseover" end="arrowRight.mouseout"/>
                  </use>
                  <path fill="none" stroke="white" stroke-width="1.5" d="M0,-3.0v7 M-2.5,-0.5L0,-3.0L2.5,-0.5"/>
                </g>
                <g id="arrowDown" xlink:href="#dirArrow" transform="rotate(180) translate(-30 -48)" onmousedown="handlePan(0,1)">
                  <use xlink:href="#rim" fill="#404040">
                        <set attributeName="fill" to="#808080" begin="arrowDown.mouseover" end="arrowDown.mouseout"/>
                  </use>
                  <path fill="none" stroke="white" stroke-width="1.5" d="M0,-3.0v7 M-2.5,-0.5L0,-3.0L2.5,-0.5"/>
                </g>
                <g id="arrowLeft" xlink:href="#dirArrow" transform="rotate(270) translate(-36 17)" onmousedown="handlePan(-1,0)">
                  <use xlink:href="#rim" fill="#404040">
                        <set attributeName="fill" to="#808080" begin="arrowLeft.mouseover" end="arrowLeft.mouseout"/>
                  </use>
                  <path fill="none" stroke="white" stroke-width="1.5" d="M0,-3.0v7 M-2.5,-0.5L0,-3.0L2.5,-0.5"/>
                </g>
        </g>
        <svg viewBox="0 0 15 15" width="100%" height="30px" preserveAspectRatio="xMaxYMin meet">
         <g id="arrow_out" transform="scale(0.3 0.3)">
          <a xlink:href="curl_2base_8h_a2aba09433f1498fe318579f7309d27b6_cgraph_org.svg" target="_base">
           <rect id="button" ry="5" rx="5" y="6" x="6" height="38" width="38"
                fill="#f2f5e9" fill-opacity="0.5" stroke="#606060" stroke-width="1.0"/>
           <path id="arrow"
             d="M 11.500037,31.436501 C 11.940474,20.09759 22.043105,11.32322 32.158766,21.979434 L 37.068811,17.246167 C 37.068811,17.246167 37.088388,32 37.088388,32 L 22.160133,31.978069 C 22.160133,31.978069 26.997745,27.140456 26.997745,27.140456 C 18.528582,18.264221 13.291696,25.230495 11.500037,31.436501 z"
             style="fill:#404040;"/>
          </a>
         </g>
        </svg>
</svg>
