<?xml version="1.0" encoding="UTF-8" standalone="no"?>
<!DOCTYPE svg PUBLIC "-//W3C//DTD SVG 1.1//EN"
 "http://www.w3.org/Graphics/SVG/1.1/DTD/svg11.dtd">
<!-- Generated by graphviz version 2.40.1 (20161225.0304)
 -->
<!-- Title: _fr_dbuff_in_memcpy_partial_dbuff Pages: 1 -->
<!--zoomable 107 -->
<svg id="main" version="1.1" xmlns="http://www.w3.org/2000/svg" xmlns:xlink="http://www.w3.org/1999/xlink" xml:space="preserve" onload="init(evt)">
<style type="text/css"><![CDATA[
.edge:hover path { stroke: red; }
.edge:hover polygon { stroke: red; fill: red; }
]]></style>
<script type="text/javascript"><![CDATA[
var edges = document.getElementsByTagName('g');
if (edges && edges.length) {
  for (var i=0;i<edges.length;i++) {
    if (edges[i].id.substr(0,4)=='edge') {
      edges[i].setAttribute('class','edge');
    }
  }
}
]]></script>
        <defs>
                <circle id="rim" cx="0" cy="0" r="7"/>
                <circle id="rim2" cx="0" cy="0" r="3.5"/>
                <g id="zoomPlus">
                        <use xlink:href="#rim" fill="#404040">
                                <set attributeName="fill" to="#808080" begin="zoomplus.mouseover" end="zoomplus.mouseout"/>
                        </use>
                        <path d="M-4,0h8M0,-4v8" fill="none" stroke="white" stroke-width="1.5" pointer-events="none"/>
                </g>
                <g id="zoomMin">
                        <use xlink:href="#rim" fill="#404040">
                                <set attributeName="fill" to="#808080" begin="zoomminus.mouseover" end="zoomminus.mouseout"/>
                        </use>
                        <path d="M-4,0h8" fill="none" stroke="white" stroke-width="1.5" pointer-events="none"/>
                </g>
                <g id="dirArrow">
                        <path fill="none" stroke="white" stroke-width="1.5" d="M0,-3.0v7 M-2.5,-0.5L0,-3.0L2.5,-0.5"/>
                </g>
               <g id="resetDef">
                       <use xlink:href="#rim2" fill="#404040">
                               <set attributeName="fill" to="#808080" begin="reset.mouseover" end="reset.mouseout"/>
                       </use>
               </g>
        </defs>

<script type="text/javascript">
var viewWidth = 565;
var viewHeight = 107;
var sectionId = 'dynsection-7';
</script>
<script xlink:href="svgpan.js"/>
<svg id="graph" class="graph">
<g id="viewport">
<title>_fr_dbuff_in_memcpy_partial_dbuff</title>
<!-- Node18 -->
<g id="node1" class="node">
<title>Node18</title>
<polygon fill="#bfbfbf" stroke="#000000" points="0,-53 0,-83 110,-83 110,-53 0,-53"/>
<text text-anchor="start" x="8" y="-71" font-family="Helvetica,sans-Serif" font-size="10.00" fill="#000000">_fr_dbuff_in_memcpy</text>
<text text-anchor="middle" x="55" y="-60" font-family="Helvetica,sans-Serif" font-size="10.00" fill="#000000">_partial_dbuff</text>
</g>
<!-- Node19 -->
<g id="node2" class="node">
<title>Node19</title>
<g id="a_node2"><a xlink:href="dbuff_8h.html#a9cb9d7cf300663f61f5ae4680625ce01" target="_top" xlink:title="Internal function &#45; do not call directly. ">
<polygon fill="none" stroke="#000000" points="292,-79.5 292,-98.5 410,-98.5 410,-79.5 292,-79.5"/>
<text text-anchor="middle" x="351" y="-86.5" font-family="Helvetica,sans-Serif" font-size="10.00" fill="#000000">_fr_dbuff_extend_lowat</text>
</a>
</g>
</g>
<!-- Node18&#45;&gt;Node19 -->
<g id="edge1" class="edge">
<title>Node18&#45;&gt;Node19</title>
<path fill="none" stroke="#191970" d="M110.3281,-71.9253C158.8016,-75.3643 229.468,-80.3778 281.6964,-84.0832"/>
<polygon fill="#191970" stroke="#191970" points="281.6615,-87.5894 291.8842,-84.806 282.157,-80.607 281.6615,-87.5894"/>
</g>
<!-- Node20 -->
<g id="node3" class="node">
<title>Node20</title>
<g id="a_node3"><a xlink:href="dbuff_8h.html#ab48c22c8cfc910a3af16e4adee44397a" target="_top" xlink:title="Internal function &#45; do not call directly. ">
<polygon fill="none" stroke="#000000" points="146,-31 146,-61 256,-61 256,-31 146,-31"/>
<text text-anchor="start" x="154" y="-49" font-family="Helvetica,sans-Serif" font-size="10.00" fill="#000000">_fr_dbuff_in_memcpy</text>
<text text-anchor="middle" x="201" y="-38" font-family="Helvetica,sans-Serif" font-size="10.00" fill="#000000">_partial</text>
</a>
</g>
</g>
<!-- Node18&#45;&gt;Node20 -->
<g id="edge2" class="edge">
<title>Node18&#45;&gt;Node20</title>
<path fill="none" stroke="#191970" d="M110.1963,-59.6827C118.5541,-58.4234 127.2434,-57.114 135.7888,-55.8263"/>
<polygon fill="#191970" stroke="#191970" points="136.3588,-59.2801 145.7256,-54.329 135.3157,-52.3582 136.3588,-59.2801"/>
</g>
<!-- Node20&#45;&gt;Node19 -->
<g id="edge3" class="edge">
<title>Node20&#45;&gt;Node19</title>
<path fill="none" stroke="#191970" d="M253.4627,-61.0393C271.2597,-66.1411 290.9233,-71.778 307.9047,-76.646"/>
<polygon fill="#191970" stroke="#191970" points="306.9814,-80.0222 317.5587,-79.4135 308.9104,-73.2933 306.9814,-80.0222"/>
</g>
<!-- Node21 -->
<g id="node4" class="node">
<title>Node21</title>
<g id="a_node4"><a xlink:href="dbuff_8h.html#a4dd29b196cb00597a2bf6468f7754231" target="_top" xlink:title="Set a new position for &#39;p&#39; in an dbuff or marker. ">
<polygon fill="none" stroke="#000000" points="314,-38.5 314,-57.5 388,-57.5 388,-38.5 314,-38.5"/>
<text text-anchor="middle" x="351" y="-45.5" font-family="Helvetica,sans-Serif" font-size="10.00" fill="#000000">_fr_dbuff_set</text>
</a>
</g>
</g>
<!-- Node20&#45;&gt;Node21 -->
<g id="edge4" class="edge">
<title>Node20&#45;&gt;Node21</title>
<path fill="none" stroke="#191970" d="M256.0027,-46.7334C271.6279,-46.9417 288.5024,-47.1667 303.6326,-47.3684"/>
<polygon fill="#191970" stroke="#191970" points="303.7461,-50.8702 313.7919,-47.5039 303.8395,-43.8708 303.7461,-50.8702"/>
</g>
<!-- Node23 -->
<g id="node6" class="node">
<title>Node23</title>
<g id="a_node6"><a xlink:href="dbuff_8h.html#ab3fa8c3c1c9de5e6097e8ed37359a6d7" target="_top" xlink:title="Internal copy function to switch between memcpy and memmove &#45; do not call directly. ">
<polygon fill="none" stroke="#000000" points="303.5,-.5 303.5,-19.5 398.5,-19.5 398.5,-.5 303.5,-.5"/>
<text text-anchor="middle" x="351" y="-7.5" font-family="Helvetica,sans-Serif" font-size="10.00" fill="#000000">_fr_dbuff_safecpy</text>
</a>
</g>
</g>
<!-- Node20&#45;&gt;Node23 -->
<g id="edge6" class="edge">
<title>Node20&#45;&gt;Node23</title>
<path fill="none" stroke="#191970" d="M256.0027,-32.7993C270.8127,-29.245 286.745,-25.4212 301.2506,-21.9399"/>
<polygon fill="#191970" stroke="#191970" points="302.1266,-25.3291 311.0336,-19.5919 300.4929,-18.5224 302.1266,-25.3291"/>
</g>
<!-- Node22 -->
<g id="node5" class="node">
<title>Node22</title>
<g id="a_node5"><a xlink:href="dbuff_8h.html#af800cc54415d9d26f6ab935ee769aaca" target="_top" xlink:title="Update the position of p in a list of dbuffs. ">
<polygon fill="none" stroke="#000000" points="446,-38.5 446,-57.5 557,-57.5 557,-38.5 446,-38.5"/>
<text text-anchor="middle" x="501.5" y="-45.5" font-family="Helvetica,sans-Serif" font-size="10.00" fill="#000000">_fr_dbuff_set_recurse</text>
</a>
</g>
</g>
<!-- Node21&#45;&gt;Node22 -->
<g id="edge5" class="edge">
<title>Node21&#45;&gt;Node22</title>
<path fill="none" stroke="#191970" d="M388.2023,-48C402.6192,-48 419.5646,-48 435.894,-48"/>
<polygon fill="#191970" stroke="#191970" points="435.9537,-51.5001 445.9537,-48 435.9537,-44.5001 435.9537,-51.5001"/>
</g>
</g>
</svg>
        <g id="navigator" transform="translate(0 0)" fill="#404254">
                <rect fill="#f2f5e9" fill-opacity="0.5" stroke="#606060" stroke-width=".5" x="0" y="0" width="60" height="60"/>
                <use id="zoomplus" xlink:href="#zoomPlus" x="17" y="9" onmousedown="handleZoom(evt,'in')"/>
                <use id="zoomminus" xlink:href="#zoomMin" x="42" y="9" onmousedown="handleZoom(evt,'out')"/>
                <use id="reset" xlink:href="#resetDef" x="30" y="36" onmousedown="handleReset()"/>
                <g id="arrowUp" xlink:href="#dirArrow" transform="translate(30 24)" onmousedown="handlePan(0,-1)">
                  <use xlink:href="#rim" fill="#404040">
                        <set attributeName="fill" to="#808080" begin="arrowUp.mouseover" end="arrowUp.mouseout"/>
                  </use>
                  <path fill="none" stroke="white" stroke-width="1.5" d="M0,-3.0v7 M-2.5,-0.5L0,-3.0L2.5,-0.5"/>
                </g>
                <g id="arrowRight" xlink:href="#dirArrow" transform="rotate(90) translate(36 -43)" onmousedown="handlePan(1,0)">
                  <use xlink:href="#rim" fill="#404040">
                        <set attributeName="fill" to="#808080" begin="arrowRight.mouseover" end="arrowRight.mouseout"/>
                  </use>
                  <path fill="none" stroke="white" stroke-width="1.5" d="M0,-3.0v7 M-2.5,-0.5L0,-3.0L2.5,-0.5"/>
                </g>
                <g id="arrowDown" xlink:href="#dirArrow" transform="rotate(180) translate(-30 -48)" onmousedown="handlePan(0,1)">
                  <use xlink:href="#rim" fill="#404040">
                        <set attributeName="fill" to="#808080" begin="arrowDown.mouseover" end="arrowDown.mouseout"/>
                  </use>
                  <path fill="none" stroke="white" stroke-width="1.5" d="M0,-3.0v7 M-2.5,-0.5L0,-3.0L2.5,-0.5"/>
                </g>
                <g id="arrowLeft" xlink:href="#dirArrow" transform="rotate(270) translate(-36 17)" onmousedown="handlePan(-1,0)">
                  <use xlink:href="#rim" fill="#404040">
                        <set attributeName="fill" to="#808080" begin="arrowLeft.mouseover" end="arrowLeft.mouseout"/>
                  </use>
                  <path fill="none" stroke="white" stroke-width="1.5" d="M0,-3.0v7 M-2.5,-0.5L0,-3.0L2.5,-0.5"/>
                </g>
        </g>
        <svg viewBox="0 0 15 15" width="100%" height="30px" preserveAspectRatio="xMaxYMin meet">
         <g id="arrow_out" transform="scale(0.3 0.3)">
          <a xlink:href="dbuff_8h_aa851a702dc8b94d7ca2c9a490a439665_cgraph_org.svg" target="_base">
           <rect id="button" ry="5" rx="5" y="6" x="6" height="38" width="38"
                fill="#f2f5e9" fill-opacity="0.5" stroke="#606060" stroke-width="1.0"/>
           <path id="arrow"
             d="M 11.500037,31.436501 C 11.940474,20.09759 22.043105,11.32322 32.158766,21.979434 L 37.068811,17.246167 C 37.068811,17.246167 37.088388,32 37.088388,32 L 22.160133,31.978069 C 22.160133,31.978069 26.997745,27.140456 26.997745,27.140456 C 18.528582,18.264221 13.291696,25.230495 11.500037,31.436501 z"
             style="fill:#404040;"/>
          </a>
         </g>
        </svg>
</svg>
