<?xml version="1.0" encoding="UTF-8" standalone="no"?>
<!DOCTYPE svg PUBLIC "-//W3C//DTD SVG 1.1//EN"
 "http://www.w3.org/Graphics/SVG/1.1/DTD/svg11.dtd">
<!-- Generated by graphviz version 2.40.1 (20161225.0304)
 -->
<!-- Title: _dl_module_free Pages: 1 -->
<!--zoomable 116 -->
<svg id="main" version="1.1" xmlns="http://www.w3.org/2000/svg" xmlns:xlink="http://www.w3.org/1999/xlink" xml:space="preserve" onload="init(evt)">
<style type="text/css"><![CDATA[
.edge:hover path { stroke: red; }
.edge:hover polygon { stroke: red; fill: red; }
]]></style>
<script type="text/javascript"><![CDATA[
var edges = document.getElementsByTagName('g');
if (edges && edges.length) {
  for (var i=0;i<edges.length;i++) {
    if (edges[i].id.substr(0,4)=='edge') {
      edges[i].setAttribute('class','edge');
    }
  }
}
]]></script>
        <defs>
                <circle id="rim" cx="0" cy="0" r="7"/>
                <circle id="rim2" cx="0" cy="0" r="3.5"/>
                <g id="zoomPlus">
                        <use xlink:href="#rim" fill="#404040">
                                <set attributeName="fill" to="#808080" begin="zoomplus.mouseover" end="zoomplus.mouseout"/>
                        </use>
                        <path d="M-4,0h8M0,-4v8" fill="none" stroke="white" stroke-width="1.5" pointer-events="none"/>
                </g>
                <g id="zoomMin">
                        <use xlink:href="#rim" fill="#404040">
                                <set attributeName="fill" to="#808080" begin="zoomminus.mouseover" end="zoomminus.mouseout"/>
                        </use>
                        <path d="M-4,0h8" fill="none" stroke="white" stroke-width="1.5" pointer-events="none"/>
                </g>
                <g id="dirArrow">
                        <path fill="none" stroke="white" stroke-width="1.5" d="M0,-3.0v7 M-2.5,-0.5L0,-3.0L2.5,-0.5"/>
                </g>
               <g id="resetDef">
                       <use xlink:href="#rim2" fill="#404040">
                               <set attributeName="fill" to="#808080" begin="reset.mouseover" end="reset.mouseout"/>
                       </use>
               </g>
        </defs>

<script type="text/javascript">
var viewWidth = 640;
var viewHeight = 116;
var sectionId = 'dynsection-3';
</script>
<script xlink:href="svgpan.js"/>
<svg id="graph" class="graph">
<g id="viewport">
<title>_dl_module_free</title>
<!-- Node1 -->
<g id="node1" class="node">
<title>Node1</title>
<polygon fill="#bfbfbf" stroke="#000000" points="0,-28 0,-47 88,-47 88,-28 0,-28"/>
<text text-anchor="middle" x="44" y="-35" font-family="Helvetica,sans-Serif" font-size="10.00" fill="#000000">_dl_module_free</text>
</g>
<!-- Node2 -->
<g id="node2" class="node">
<title>Node2</title>
<g id="a_node2"><a xlink:href="rbtree_8c.html#a590147ec2ecdd6434a58eeff49e201a4" target="_top" xlink:title="Delete a node from the tree, based on given data, which MUST have come from rbtree_finddata(). ">
<polygon fill="none" stroke="#000000" points="124,-50 124,-69 226,-69 226,-50 124,-50"/>
<text text-anchor="middle" x="175" y="-57" font-family="Helvetica,sans-Serif" font-size="10.00" fill="#000000">rbtree_deletebydata</text>
</a>
</g>
</g>
<!-- Node1&#45;&gt;Node2 -->
<g id="edge1" class="edge">
<title>Node1&#45;&gt;Node2</title>
<path fill="none" stroke="#191970" d="M88.3506,-44.9482C96.5666,-46.328 105.2799,-47.7913 113.8915,-49.2375"/>
<polygon fill="#191970" stroke="#191970" points="113.4766,-52.7168 123.9182,-50.9214 114.636,-45.8134 113.4766,-52.7168"/>
</g>
<!-- Node10 -->
<g id="node8" class="node">
<title>Node10</title>
<g id="a_node8"><a xlink:href="dl_8c.html#ab38470b4b0b536d1e4ec4cee55ff2f2d" target="_top" xlink:title="&quot;free&quot; a dl handle, possibly actually freeing it, and unloading the library ">
<polygon fill="none" stroke="#000000" points="152,-9 152,-28 198,-28 198,-9 152,-9"/>
<text text-anchor="middle" x="175" y="-16" font-family="Helvetica,sans-Serif" font-size="10.00" fill="#000000">dl_free</text>
</a>
</g>
</g>
<!-- Node1&#45;&gt;Node10 -->
<g id="edge7" class="edge">
<title>Node1&#45;&gt;Node10</title>
<path fill="none" stroke="#191970" d="M88.3506,-31.0675C105.7649,-28.5417 125.4135,-25.6919 141.5924,-23.3454"/>
<polygon fill="#191970" stroke="#191970" points="142.2707,-26.7837 151.6648,-21.8845 141.2659,-19.8562 142.2707,-26.7837"/>
</g>
<!-- Node3 -->
<g id="node3" class="node">
<title>Node3</title>
<g id="a_node3"><a xlink:href="rbtree_8c.html#a42e213e269dd59ffb2e993bbd25e4336" target="_top" xlink:title="rbtree_find">
<polygon fill="none" stroke="#000000" points="281.5,-88 281.5,-107 343.5,-107 343.5,-88 281.5,-88"/>
<text text-anchor="middle" x="312.5" y="-95" font-family="Helvetica,sans-Serif" font-size="10.00" fill="#000000">rbtree_find</text>
</a>
</g>
</g>
<!-- Node2&#45;&gt;Node3 -->
<g id="edge2" class="edge">
<title>Node2&#45;&gt;Node3</title>
<path fill="none" stroke="#191970" d="M209.6971,-69.089C228.3955,-74.2566 251.5899,-80.6667 271.2125,-86.0896"/>
<polygon fill="#191970" stroke="#191970" points="270.5345,-89.5334 281.1055,-88.8237 272.3992,-82.7863 270.5345,-89.5334"/>
</g>
<!-- Node4 -->
<g id="node4" class="node">
<title>Node4</title>
<g id="a_node4"><a xlink:href="rbtree_8c.html#a78c07808d0a90337099b2967a774cb74" target="_top" xlink:title="rbtree_delete">
<polygon fill="none" stroke="#000000" points="276,-50 276,-69 349,-69 349,-50 276,-50"/>
<text text-anchor="middle" x="312.5" y="-57" font-family="Helvetica,sans-Serif" font-size="10.00" fill="#000000">rbtree_delete</text>
</a>
</g>
</g>
<!-- Node2&#45;&gt;Node4 -->
<g id="edge3" class="edge">
<title>Node2&#45;&gt;Node4</title>
<path fill="none" stroke="#191970" d="M226.1999,-59.5C239.0846,-59.5 252.8508,-59.5 265.5176,-59.5"/>
<polygon fill="#191970" stroke="#191970" points="265.8557,-63.0001 275.8557,-59.5 265.8557,-56.0001 265.8557,-63.0001"/>
</g>
<!-- Node5 -->
<g id="node5" class="node">
<title>Node5</title>
<g id="a_node5"><a xlink:href="rbtree_8c.html#abbf4f6305953449df974e13b55baa1ba" target="_top" xlink:title="Delete an element (z) from the tree. ">
<polygon fill="none" stroke="#000000" points="399,-50 399,-69 509,-69 509,-50 399,-50"/>
<text text-anchor="middle" x="454" y="-57" font-family="Helvetica,sans-Serif" font-size="10.00" fill="#000000">rbtree_delete_internal</text>
</a>
</g>
</g>
<!-- Node4&#45;&gt;Node5 -->
<g id="edge4" class="edge">
<title>Node4&#45;&gt;Node5</title>
<path fill="none" stroke="#191970" d="M349.3081,-59.5C361.3799,-59.5 375.1795,-59.5 388.7111,-59.5"/>
<polygon fill="#191970" stroke="#191970" points="388.9736,-63.0001 398.9735,-59.5 388.9735,-56.0001 388.9736,-63.0001"/>
</g>
<!-- Node6 -->
<g id="node6" class="node">
<title>Node6</title>
<g id="a_node6"><a xlink:href="rbtree_8c.html#afd9a91b95838a37b587f388299138de9" target="_top" xlink:title="rbtree_free_data">
<polygon fill="none" stroke="#000000" points="545,-69 545,-88 632,-88 632,-69 545,-69"/>
<text text-anchor="middle" x="588.5" y="-76" font-family="Helvetica,sans-Serif" font-size="10.00" fill="#000000">rbtree_free_data</text>
</a>
</g>
</g>
<!-- Node5&#45;&gt;Node6 -->
<g id="edge5" class="edge">
<title>Node5&#45;&gt;Node6</title>
<path fill="none" stroke="#191970" d="M509.0944,-67.2828C517.5529,-68.4777 526.2768,-69.7101 534.7066,-70.9009"/>
<polygon fill="#191970" stroke="#191970" points="534.4143,-74.3943 544.8056,-72.3276 535.3935,-67.4631 534.4143,-74.3943"/>
</g>
<!-- Node7 -->
<g id="node7" class="node">
<title>Node7</title>
<g id="a_node7"><a xlink:href="rbtree_8c.html#af51789095c4c57a970c41f5ab07c044c" target="_top" xlink:title="Maintain RED&#45;BLACK tree balance after deleting node x. ">
<polygon fill="none" stroke="#ff0000" points="554,-31 554,-50 623,-50 623,-31 554,-31"/>
<text text-anchor="middle" x="588.5" y="-38" font-family="Helvetica,sans-Serif" font-size="10.00" fill="#000000">delete_fixup</text>
</a>
</g>
</g>
<!-- Node5&#45;&gt;Node7 -->
<g id="edge6" class="edge">
<title>Node5&#45;&gt;Node7</title>
<path fill="none" stroke="#191970" d="M509.0944,-51.7172C520.6475,-50.0851 532.6957,-48.3831 543.8133,-46.8126"/>
<polygon fill="#191970" stroke="#191970" points="544.3087,-50.2775 553.7208,-45.413 543.3295,-43.3463 544.3087,-50.2775"/>
</g>
<!-- Node11 -->
<g id="node9" class="node">
<title>Node11</title>
<g id="a_node9"><a xlink:href="talloc_8c.html#acd906ed444eee3d5ec85f4f31a034c7e" target="_top" xlink:title="Decrease the reference count on a ptr. ">
<polygon fill="none" stroke="#000000" points="262,-.5 262,-30.5 363,-30.5 363,-.5 262,-.5"/>
<text text-anchor="start" x="270" y="-18.5" font-family="Helvetica,sans-Serif" font-size="10.00" fill="#000000">talloc_decrease_ref</text>
<text text-anchor="middle" x="312.5" y="-7.5" font-family="Helvetica,sans-Serif" font-size="10.00" fill="#000000">_count</text>
</a>
</g>
</g>
<!-- Node10&#45;&gt;Node11 -->
<g id="edge8" class="edge">
<title>Node10&#45;&gt;Node11</title>
<path fill="none" stroke="#191970" d="M198.0144,-17.9979C212.7897,-17.6755 232.723,-17.2406 251.815,-16.824"/>
<polygon fill="#191970" stroke="#191970" points="252.0713,-20.3194 261.9925,-16.602 251.9185,-13.321 252.0713,-20.3194"/>
</g>
</g>
</svg>
        <g id="navigator" transform="translate(0 0)" fill="#404254">
                <rect fill="#f2f5e9" fill-opacity="0.5" stroke="#606060" stroke-width=".5" x="0" y="0" width="60" height="60"/>
                <use id="zoomplus" xlink:href="#zoomPlus" x="17" y="9" onmousedown="handleZoom(evt,'in')"/>
                <use id="zoomminus" xlink:href="#zoomMin" x="42" y="9" onmousedown="handleZoom(evt,'out')"/>
                <use id="reset" xlink:href="#resetDef" x="30" y="36" onmousedown="handleReset()"/>
                <g id="arrowUp" xlink:href="#dirArrow" transform="translate(30 24)" onmousedown="handlePan(0,-1)">
                  <use xlink:href="#rim" fill="#404040">
                        <set attributeName="fill" to="#808080" begin="arrowUp.mouseover" end="arrowUp.mouseout"/>
                  </use>
                  <path fill="none" stroke="white" stroke-width="1.5" d="M0,-3.0v7 M-2.5,-0.5L0,-3.0L2.5,-0.5"/>
                </g>
                <g id="arrowRight" xlink:href="#dirArrow" transform="rotate(90) translate(36 -43)" onmousedown="handlePan(1,0)">
                  <use xlink:href="#rim" fill="#404040">
                        <set attributeName="fill" to="#808080" begin="arrowRight.mouseover" end="arrowRight.mouseout"/>
                  </use>
                  <path fill="none" stroke="white" stroke-width="1.5" d="M0,-3.0v7 M-2.5,-0.5L0,-3.0L2.5,-0.5"/>
                </g>
                <g id="arrowDown" xlink:href="#dirArrow" transform="rotate(180) translate(-30 -48)" onmousedown="handlePan(0,1)">
                  <use xlink:href="#rim" fill="#404040">
                        <set attributeName="fill" to="#808080" begin="arrowDown.mouseover" end="arrowDown.mouseout"/>
                  </use>
                  <path fill="none" stroke="white" stroke-width="1.5" d="M0,-3.0v7 M-2.5,-0.5L0,-3.0L2.5,-0.5"/>
                </g>
                <g id="arrowLeft" xlink:href="#dirArrow" transform="rotate(270) translate(-36 17)" onmousedown="handlePan(-1,0)">
                  <use xlink:href="#rim" fill="#404040">
                        <set attributeName="fill" to="#808080" begin="arrowLeft.mouseover" end="arrowLeft.mouseout"/>
                  </use>
                  <path fill="none" stroke="white" stroke-width="1.5" d="M0,-3.0v7 M-2.5,-0.5L0,-3.0L2.5,-0.5"/>
                </g>
        </g>
        <svg viewBox="0 0 15 15" width="100%" height="30px" preserveAspectRatio="xMaxYMin meet">
         <g id="arrow_out" transform="scale(0.3 0.3)">
          <a xlink:href="dl__module_8c_a5138c7966f429f014e22765daa7c4376_cgraph_org.svg" target="_base">
           <rect id="button" ry="5" rx="5" y="6" x="6" height="38" width="38"
                fill="#f2f5e9" fill-opacity="0.5" stroke="#606060" stroke-width="1.0"/>
           <path id="arrow"
             d="M 11.500037,31.436501 C 11.940474,20.09759 22.043105,11.32322 32.158766,21.979434 L 37.068811,17.246167 C 37.068811,17.246167 37.088388,32 37.088388,32 L 22.160133,31.978069 C 22.160133,31.978069 26.997745,27.140456 26.997745,27.140456 C 18.528582,18.264221 13.291696,25.230495 11.500037,31.436501 z"
             style="fill:#404040;"/>
          </a>
         </g>
        </svg>
</svg>
