<?xml version="1.0" encoding="UTF-8" standalone="no"?>
<!DOCTYPE svg PUBLIC "-//W3C//DTD SVG 1.1//EN"
 "http://www.w3.org/Graphics/SVG/1.1/DTD/svg11.dtd">
<!-- Generated by graphviz version 2.40.1 (20161225.0304)
 -->
<!-- Title: cipher_rsa_encrypt_xlat Pages: 1 -->
<svg width="1115pt" height="466pt"
 viewBox="0.00 0.00 1115.00 466.11" xmlns="http://www.w3.org/2000/svg" xmlns:xlink="http://www.w3.org/1999/xlink">
<g id="graph0" class="graph" transform="scale(1 1) rotate(0) translate(4 462.1085)">
<title>cipher_rsa_encrypt_xlat</title>
<!-- Node4840 -->
<g id="node1" class="node">
<title>Node4840</title>
<polygon fill="#bfbfbf" stroke="#000000" points="0,-202.5 0,-221.5 120,-221.5 120,-202.5 0,-202.5"/>
<text text-anchor="middle" x="60" y="-209.5" font-family="Helvetica,sans-Serif" font-size="10.00" fill="#000000">cipher_rsa_encrypt_xlat</text>
</g>
<!-- Node4841 -->
<g id="node2" class="node">
<title>Node4841</title>
<g id="a_node2"><a xlink:href="value_8c.html#a8cedcf0cd0b56390ead0b791c4b4d67f" target="_top" xlink:title="Concatenate a list of value boxes. ">
<polygon fill="none" stroke="#000000" points="160,-202.5 160,-221.5 285,-221.5 285,-202.5 160,-202.5"/>
<text text-anchor="middle" x="222.5" y="-209.5" font-family="Helvetica,sans-Serif" font-size="10.00" fill="#000000">fr_value_box_list_concat</text>
</a>
</g>
</g>
<!-- Node4840&#45;&gt;Node4841 -->
<g id="edge1" class="edge">
<title>Node4840&#45;&gt;Node4841</title>
<path fill="none" stroke="#191970" d="M120.0473,-212C129.7099,-212 139.8027,-212 149.7251,-212"/>
<polygon fill="#191970" stroke="#191970" points="149.9783,-215.5001 159.9783,-212 149.9783,-208.5001 149.9783,-215.5001"/>
</g>
<!-- Node5468 -->
<g id="node19" class="node">
<title>Node5468</title>
<g id="a_node19"><a xlink:href="value_8h.html#a3ddbdc59834faa51219a356e2b112a17" target="_top" xlink:title="Allocate a value box for later use with a value assignment function. ">
<polygon fill="none" stroke="#000000" points="163.5,-164.5 163.5,-183.5 281.5,-183.5 281.5,-164.5 163.5,-164.5"/>
<text text-anchor="middle" x="222.5" y="-171.5" font-family="Helvetica,sans-Serif" font-size="10.00" fill="#000000">fr_value_box_alloc_null</text>
</a>
</g>
</g>
<!-- Node4840&#45;&gt;Node5468 -->
<g id="edge31" class="edge">
<title>Node4840&#45;&gt;Node5468</title>
<path fill="none" stroke="#191970" d="M101.0056,-202.411C122.5458,-197.3739 149.1347,-191.1562 171.9414,-185.8229"/>
<polygon fill="#191970" stroke="#191970" points="172.8489,-189.2052 181.7893,-183.5201 171.255,-182.3891 172.8489,-189.2052"/>
</g>
<!-- Node4876 -->
<g id="node21" class="node">
<title>Node4876</title>
<g id="a_node21"><a xlink:href="value_8c.html#a30dd21fe8527e786010b4187e95fbd6d" target="_top" xlink:title="Pre&#45;allocate an octets buffer for filling by the caller. ">
<polygon fill="none" stroke="#ff0000" points="160,-363.5 160,-382.5 285,-382.5 285,-363.5 160,-363.5"/>
<text text-anchor="middle" x="222.5" y="-370.5" font-family="Helvetica,sans-Serif" font-size="10.00" fill="#000000">fr_value_box_mem_alloc</text>
</a>
</g>
</g>
<!-- Node4840&#45;&gt;Node4876 -->
<g id="edge33" class="edge">
<title>Node4840&#45;&gt;Node4876</title>
<path fill="none" stroke="#191970" d="M66.7408,-221.566C81.4775,-242.0988 118.2737,-291.339 156,-326 168.9419,-337.8904 184.9956,-349.3157 198.0873,-357.9238"/>
<polygon fill="#191970" stroke="#191970" points="196.2997,-360.9355 206.6029,-363.4042 200.088,-355.0491 196.2997,-360.9355"/>
</g>
<!-- Node5469 -->
<g id="node22" class="node">
<title>Node5469</title>
<g id="a_node22"><a xlink:href="value_8c.html#a4146efb12089bfb8ddc5b5548eef5a96" target="_top" xlink:title="Change the length of a buffer already allocated to a value box. ">
<polygon fill="none" stroke="#000000" points="156,-297.5 156,-316.5 289,-316.5 289,-297.5 156,-297.5"/>
<text text-anchor="middle" x="222.5" y="-304.5" font-family="Helvetica,sans-Serif" font-size="10.00" fill="#000000">fr_value_box_mem_realloc</text>
</a>
</g>
</g>
<!-- Node4840&#45;&gt;Node5469 -->
<g id="edge35" class="edge">
<title>Node4840&#45;&gt;Node5469</title>
<path fill="none" stroke="#191970" d="M76.4756,-221.6319C104.9446,-238.2753 163.5211,-272.52 197.1905,-292.2037"/>
<polygon fill="#191970" stroke="#191970" points="195.5813,-295.3171 205.9808,-297.3426 199.1142,-289.274 195.5813,-295.3171"/>
</g>
<!-- Node5012 -->
<g id="node23" class="node">
<title>Node5012</title>
<g id="a_node23"><a xlink:href="cursor_8c.html#a6e72682a046a3eeac734da6639f1817c" target="_top" xlink:title="Insert a single item at the end of the list. ">
<polygon fill="none" stroke="#ff0000" points="176.5,-126.5 176.5,-145.5 268.5,-145.5 268.5,-126.5 176.5,-126.5"/>
<text text-anchor="middle" x="222.5" y="-133.5" font-family="Helvetica,sans-Serif" font-size="10.00" fill="#000000">fr_cursor_append</text>
</a>
</g>
</g>
<!-- Node4840&#45;&gt;Node5012 -->
<g id="edge37" class="edge">
<title>Node4840&#45;&gt;Node5012</title>
<path fill="none" stroke="#191970" d="M73.7061,-202.3118C91.8097,-189.8866 125.0292,-168.3526 156,-155 161.4389,-152.6551 167.2509,-150.5084 173.0902,-148.5706"/>
<polygon fill="#191970" stroke="#191970" points="174.3824,-151.8337 182.882,-145.5086 172.2932,-145.1528 174.3824,-151.8337"/>
</g>
<!-- Node4842 -->
<g id="node3" class="node">
<title>Node4842</title>
<g id="a_node3"><a xlink:href="strerror_8c.html#ae701765650b8aea79a3037bc4921d7f8" target="_top" xlink:title="Log to thread local error buffer. ">
<polygon fill="none" stroke="#000000" points="497,-228.5 497,-247.5 583,-247.5 583,-228.5 497,-228.5"/>
<text text-anchor="middle" x="540" y="-235.5" font-family="Helvetica,sans-Serif" font-size="10.00" fill="#000000">fr_strerror_printf</text>
</a>
</g>
</g>
<!-- Node4841&#45;&gt;Node4842 -->
<g id="edge2" class="edge">
<title>Node4841&#45;&gt;Node4842</title>
<path fill="none" stroke="#191970" d="M255.9193,-202.4116C302.6321,-190.5584 389.7281,-174.1248 461,-193 482.5559,-198.7087 504.3791,-211.8209 519.6099,-222.4269"/>
<polygon fill="#191970" stroke="#191970" points="517.6058,-225.2968 527.764,-228.307 521.7001,-219.619 517.6058,-225.2968"/>
</g>
<!-- Node4857 -->
<g id="node11" class="node">
<title>Node4857</title>
<g id="a_node11"><a xlink:href="value_8c.html#a3a0550d465b81917f8b0c69a3373163e" target="_top" xlink:title="Convert one type of fr_value_box_t to another. ">
<polygon fill="none" stroke="#ff0000" points="877,-152.5 877,-171.5 973,-171.5 973,-152.5 877,-152.5"/>
<text text-anchor="middle" x="925" y="-159.5" font-family="Helvetica,sans-Serif" font-size="10.00" fill="#000000">fr_value_box_cast</text>
</a>
</g>
</g>
<!-- Node4841&#45;&gt;Node4857 -->
<g id="edge22" class="edge">
<title>Node4841&#45;&gt;Node4857</title>
<path fill="none" stroke="#191970" d="M274.3451,-202.3514C279.673,-199.9022 284.699,-196.8365 289,-193 320.228,-165.1446 291.3258,-130.8427 325,-106 402.2267,-49.0271 444.0319,-86 540,-86 540,-86 540,-86 664.5,-86 752.0255,-86 849.711,-126.0272 896.7125,-147.9843"/>
<polygon fill="#191970" stroke="#191970" points="895.4166,-151.2436 905.9509,-152.3745 898.4211,-144.9211 895.4166,-151.2436"/>
</g>
<!-- Node4858 -->
<g id="node12" class="node">
<title>Node4858</title>
<g id="a_node12"><a xlink:href="value_8c.html#a4fadbcd199d20611112e21b7f0da11c4" target="_top" xlink:title="Copy value data verbatim duplicating any buffers. ">
<polygon fill="none" stroke="#ff0000" points="1009,-114.5 1009,-133.5 1107,-133.5 1107,-114.5 1009,-114.5"/>
<text text-anchor="middle" x="1058" y="-121.5" font-family="Helvetica,sans-Serif" font-size="10.00" fill="#000000">fr_value_box_copy</text>
</a>
</g>
</g>
<!-- Node4841&#45;&gt;Node4858 -->
<g id="edge23" class="edge">
<title>Node4841&#45;&gt;Node4858</title>
<path fill="none" stroke="#191970" d="M275.412,-202.4701C280.4177,-199.9933 285.0776,-196.8886 289,-193 329.1476,-153.1977 281.5869,-107.2126 325,-71 398.7973,-9.4426 443.8992,-48 540,-48 540,-48 540,-48 793.5,-48 882.4504,-48 981.9128,-88.1949 1029.5535,-110.1219"/>
<polygon fill="#191970" stroke="#191970" points="1028.1008,-113.3063 1038.6417,-114.3745 1031.0677,-106.9661 1028.1008,-113.3063"/>
</g>
<!-- Node4864 -->
<g id="node14" class="node">
<title>Node4864</title>
<g id="a_node14"><a xlink:href="cursor_8c.html#af6c2090d1e00319075d6def5aa2666fd" target="_top" xlink:title="Advanced the cursor to the next item. ">
<polygon fill="none" stroke="#ff0000" points="353.5,-278.5 353.5,-297.5 432.5,-297.5 432.5,-278.5 353.5,-278.5"/>
<text text-anchor="middle" x="393" y="-285.5" font-family="Helvetica,sans-Serif" font-size="10.00" fill="#000000">fr_cursor_next</text>
</a>
</g>
</g>
<!-- Node4841&#45;&gt;Node4864 -->
<g id="edge24" class="edge">
<title>Node4841&#45;&gt;Node4864</title>
<path fill="none" stroke="#191970" d="M237.2261,-221.6522C256.655,-234.0386 292.2311,-255.5306 325,-269 330.8777,-271.416 337.1636,-273.6326 343.4513,-275.6316"/>
<polygon fill="#191970" stroke="#191970" points="342.6905,-279.0578 353.275,-278.5911 344.7097,-272.3553 342.6905,-279.0578"/>
</g>
<!-- Node5352 -->
<g id="node15" class="node">
<title>Node5352</title>
<g id="a_node15"><a xlink:href="cursor_8h.html#ae89f379d1f6985ee4335586e0acd0df6" target="_top" xlink:title="talloc_free the current item ">
<polygon fill="none" stroke="#ff0000" points="342.5,-240.5 342.5,-259.5 443.5,-259.5 443.5,-240.5 342.5,-240.5"/>
<text text-anchor="middle" x="393" y="-247.5" font-family="Helvetica,sans-Serif" font-size="10.00" fill="#000000">fr_cursor_free_item</text>
</a>
</g>
</g>
<!-- Node4841&#45;&gt;Node5352 -->
<g id="edge25" class="edge">
<title>Node4841&#45;&gt;Node5352</title>
<path fill="none" stroke="#191970" d="M265.5243,-221.589C288.2264,-226.6487 316.2732,-232.8996 340.274,-238.2488"/>
<polygon fill="#191970" stroke="#191970" points="339.7631,-241.7207 350.285,-240.4799 341.2859,-234.8883 339.7631,-241.7207"/>
</g>
<!-- Node5223 -->
<g id="node16" class="node">
<title>Node5223</title>
<g id="a_node16"><a xlink:href="cursor_8c.html#a92733b72ea218ecff0bc7808fae613b7" target="_top" xlink:title="Return the item the cursor current points to. ">
<polygon fill="none" stroke="#000000" points="348,-202.5 348,-221.5 438,-221.5 438,-202.5 348,-202.5"/>
<text text-anchor="middle" x="393" y="-209.5" font-family="Helvetica,sans-Serif" font-size="10.00" fill="#000000">fr_cursor_current</text>
</a>
</g>
</g>
<!-- Node4841&#45;&gt;Node5223 -->
<g id="edge26" class="edge">
<title>Node4841&#45;&gt;Node5223</title>
<path fill="none" stroke="#191970" d="M285.0198,-212C302.2562,-212 320.83,-212 337.6311,-212"/>
<polygon fill="#191970" stroke="#191970" points="337.8354,-215.5001 347.8353,-212 337.8353,-208.5001 337.8354,-215.5001"/>
</g>
<!-- Node4866 -->
<g id="node17" class="node">
<title>Node4866</title>
<g id="a_node17"><a xlink:href="value_8c.html#a0adc72b7a30d3064ab65ed9059f0e8c8" target="_top" xlink:title="Append bytes from a buffer to an existing fr_value_box_t. ">
<polygon fill="none" stroke="#000000" points="343.5,-115 343.5,-145 442.5,-145 442.5,-115 343.5,-115"/>
<text text-anchor="start" x="351.5" y="-133" font-family="Helvetica,sans-Serif" font-size="10.00" fill="#000000">fr_value_box_bstrn</text>
<text text-anchor="middle" x="393" y="-122" font-family="Helvetica,sans-Serif" font-size="10.00" fill="#000000">_append</text>
</a>
</g>
</g>
<!-- Node4841&#45;&gt;Node4866 -->
<g id="edge27" class="edge">
<title>Node4841&#45;&gt;Node4866</title>
<path fill="none" stroke="#191970" d="M266.9415,-202.4167C274.5496,-199.9115 282.189,-196.8109 289,-193 307.9417,-182.4017 306.8293,-171.8717 325,-160 330.8062,-156.2066 337.172,-152.6836 343.6063,-149.4847"/>
<polygon fill="#191970" stroke="#191970" points="345.4778,-152.4716 353.0253,-145.0361 342.4883,-146.142 345.4778,-152.4716"/>
</g>
<!-- Node4875 -->
<g id="node18" class="node">
<title>Node4875</title>
<g id="a_node18"><a xlink:href="value_8c.html#a6162c72ecf7a8f7c5c162192074df556" target="_top" xlink:title="Append data to an existing fr_value_box_t. ">
<polygon fill="none" stroke="#000000" points="325,-316.5 325,-335.5 461,-335.5 461,-316.5 325,-316.5"/>
<text text-anchor="middle" x="393" y="-323.5" font-family="Helvetica,sans-Serif" font-size="10.00" fill="#000000">fr_value_box_mem_append</text>
</a>
</g>
</g>
<!-- Node4841&#45;&gt;Node4875 -->
<g id="edge29" class="edge">
<title>Node4841&#45;&gt;Node4875</title>
<path fill="none" stroke="#191970" d="M230.1522,-221.6773C245.8492,-240.8733 283.7071,-283.905 325,-307 328.9583,-309.2139 333.1929,-311.1847 337.5412,-312.9365"/>
<polygon fill="#191970" stroke="#191970" points="336.5848,-316.3126 347.179,-316.4309 338.9709,-309.7318 336.5848,-316.3126"/>
</g>
<!-- Node4843 -->
<g id="node4" class="node">
<title>Node4843</title>
<g id="a_node4"><a xlink:href="acutest_8h.html#aecf9a9be8105efb1454cd8c1ef6cb1c5" target="_top" xlink:title="va_start">
<polygon fill="none" stroke="#000000" points="1032,-436.5 1032,-455.5 1084,-455.5 1084,-436.5 1032,-436.5"/>
<text text-anchor="middle" x="1058" y="-443.5" font-family="Helvetica,sans-Serif" font-size="10.00" fill="#000000">va_start</text>
</a>
</g>
</g>
<!-- Node4842&#45;&gt;Node4843 -->
<g id="edge3" class="edge">
<title>Node4842&#45;&gt;Node4843</title>
<path fill="none" stroke="#191970" d="M545.9227,-247.5661C567.5117,-281.3628 645.9862,-395.0964 746,-432 840.5354,-466.8822 962.2385,-458.4972 1021.845,-451.2815"/>
<polygon fill="#191970" stroke="#191970" points="1022.4122,-454.7376 1031.8907,-450.004 1021.5291,-447.7936 1022.4122,-454.7376"/>
</g>
<!-- Node4844 -->
<g id="node5" class="node">
<title>Node4844</title>
<g id="a_node5"><a xlink:href="strerror_8c.html#a193b1e0b3712e3bbee338812c06af482" target="_top" xlink:title="fr_strerror_vprintf">
<polygon fill="none" stroke="#000000" points="619,-304.5 619,-323.5 710,-323.5 710,-304.5 619,-304.5"/>
<text text-anchor="middle" x="664.5" y="-311.5" font-family="Helvetica,sans-Serif" font-size="10.00" fill="#000000">fr_strerror_vprintf</text>
</a>
</g>
</g>
<!-- Node4842&#45;&gt;Node4844 -->
<g id="edge4" class="edge">
<title>Node4842&#45;&gt;Node4844</title>
<path fill="none" stroke="#191970" d="M555.768,-247.6255C577.0968,-260.6454 615.34,-283.9907 640.3149,-299.2364"/>
<polygon fill="#191970" stroke="#191970" points="638.501,-302.2297 648.86,-304.4527 642.1483,-296.2549 638.501,-302.2297"/>
</g>
<!-- Node4847 -->
<g id="node8" class="node">
<title>Node4847</title>
<g id="a_node8"><a xlink:href="acutest_8h.html#a36af1f79dd6adf0809c21e76535034d5" target="_top" xlink:title="va_end">
<polygon fill="none" stroke="#000000" points="1034,-247.5 1034,-266.5 1082,-266.5 1082,-247.5 1034,-247.5"/>
<text text-anchor="middle" x="1058" y="-254.5" font-family="Helvetica,sans-Serif" font-size="10.00" fill="#000000">va_end</text>
</a>
</g>
</g>
<!-- Node4842&#45;&gt;Node4847 -->
<g id="edge21" class="edge">
<title>Node4842&#45;&gt;Node4847</title>
<path fill="none" stroke="#191970" d="M583.3232,-232.8363C624.9543,-228.151 689.672,-221.5922 746,-219 788.1776,-217.059 798.9091,-215.6728 841,-219 900.2197,-223.6812 914.5298,-229.5062 973,-240 989.7289,-243.0024 1008.2405,-246.6643 1023.7061,-249.8195"/>
<polygon fill="#191970" stroke="#191970" points="1023.367,-253.3229 1033.867,-251.9086 1024.7768,-246.4663 1023.367,-253.3229"/>
</g>
<!-- Node4845 -->
<g id="node6" class="node">
<title>Node4845</title>
<g id="a_node6"><a xlink:href="strerror_8c.html#a42c2cc9f76fb9dac723a1903c181e1c7" target="_top" xlink:title="Initialise thread local storage. ">
<polygon fill="none" stroke="#ff0000" points="755,-380.5 755,-399.5 832,-399.5 832,-380.5 755,-380.5"/>
<text text-anchor="middle" x="793.5" y="-387.5" font-family="Helvetica,sans-Serif" font-size="10.00" fill="#000000">fr_strerror_init</text>
</a>
</g>
</g>
<!-- Node4844&#45;&gt;Node4845 -->
<g id="edge5" class="edge">
<title>Node4844&#45;&gt;Node4845</title>
<path fill="none" stroke="#191970" d="M678.6606,-323.6479C694.7104,-334.4376 721.792,-352.2074 746,-366 751.7951,-369.3018 758.0989,-372.6498 764.1637,-375.7555"/>
<polygon fill="#191970" stroke="#191970" points="762.8834,-379.0293 773.3899,-380.3948 766.0282,-372.7754 762.8834,-379.0293"/>
</g>
<!-- Node4846 -->
<g id="node7" class="node">
<title>Node4846</title>
<g id="a_node7"><a xlink:href="strerror_8c.html#a2c8e65d6d4b73fb705cc023f60acb099" target="_top" xlink:title="Print the current error to stderr with a prefix. ">
<polygon fill="none" stroke="#ff0000" points="898.5,-408.5 898.5,-427.5 951.5,-427.5 951.5,-408.5 898.5,-408.5"/>
<text text-anchor="middle" x="925" y="-415.5" font-family="Helvetica,sans-Serif" font-size="10.00" fill="#000000">fr_perror</text>
</a>
</g>
</g>
<!-- Node4844&#45;&gt;Node4846 -->
<g id="edge11" class="edge">
<title>Node4844&#45;&gt;Node4846</title>
<path fill="none" stroke="#191970" d="M669.2059,-323.5019C679.7417,-343.5852 707.3694,-390.0532 746,-409 791.0705,-431.1053 850.4248,-428.9233 888.1595,-424.2867"/>
<polygon fill="#191970" stroke="#191970" points="888.7573,-427.7378 898.1994,-422.932 887.8212,-420.8007 888.7573,-427.7378"/>
</g>
<!-- Node4844&#45;&gt;Node4847 -->
<g id="edge19" class="edge">
<title>Node4844&#45;&gt;Node4847</title>
<path fill="none" stroke="#191970" d="M701.653,-304.4483C715.5049,-301.1226 731.4074,-297.5819 746,-295 846.4093,-277.2346 966.475,-265.1573 1023.9985,-259.9301"/>
<polygon fill="#191970" stroke="#191970" points="1024.3454,-263.4131 1033.9928,-259.0339 1023.7201,-256.4411 1024.3454,-263.4131"/>
</g>
<!-- Node4853 -->
<g id="node9" class="node">
<title>Node4853</title>
<g id="a_node9"><a xlink:href="strerror_8c.html#a9d878c1ddb1b385cdaf6523fff68529c" target="_top" xlink:title="Reset cursor state. ">
<polygon fill="none" stroke="#000000" points="882.5,-351.5 882.5,-370.5 967.5,-370.5 967.5,-351.5 882.5,-351.5"/>
<text text-anchor="middle" x="925" y="-358.5" font-family="Helvetica,sans-Serif" font-size="10.00" fill="#000000">fr_strerror_clear</text>
</a>
</g>
</g>
<!-- Node4844&#45;&gt;Node4853 -->
<g id="edge10" class="edge">
<title>Node4844&#45;&gt;Node4853</title>
<path fill="none" stroke="#191970" d="M702.9308,-323.5747C716.4939,-326.7902 731.8812,-330.2539 746,-333 788.1525,-341.1987 836.2538,-348.6161 871.9706,-353.7537"/>
<polygon fill="#191970" stroke="#191970" points="871.7742,-357.261 882.1681,-355.2071 872.762,-350.331 871.7742,-357.261"/>
</g>
<!-- Node4854 -->
<g id="node10" class="node">
<title>Node4854</title>
<g id="a_node10"><a xlink:href="print_8c.html#a27ae94b5a4c77de49aa2f387765a4d58" target="_top" xlink:title="Special version of vasprintf which implements custom format specifiers. ">
<polygon fill="none" stroke="#ff0000" points="761,-228.5 761,-247.5 826,-247.5 826,-228.5 761,-228.5"/>
<text text-anchor="middle" x="793.5" y="-235.5" font-family="Helvetica,sans-Serif" font-size="10.00" fill="#000000">fr_vasprintf</text>
</a>
</g>
</g>
<!-- Node4844&#45;&gt;Node4854 -->
<g id="edge12" class="edge">
<title>Node4844&#45;&gt;Node4854</title>
<path fill="none" stroke="#191970" d="M678.6606,-304.3521C694.7104,-293.5624 721.792,-275.7926 746,-262 751.7951,-258.6982 758.0989,-255.3502 764.1637,-252.2445"/>
<polygon fill="#191970" stroke="#191970" points="766.0282,-255.2246 773.3899,-247.6052 762.8834,-248.9707 766.0282,-255.2246"/>
</g>
<!-- Node5006 -->
<g id="node13" class="node">
<title>Node5006</title>
<g id="a_node13"><a xlink:href="cursor_8c.html#a5d942382660657c3b4cb6e9cb2b12b2c" target="_top" xlink:title="Insert a single item at the start of the list. ">
<polygon fill="none" stroke="#000000" points="746,-304.5 746,-323.5 841,-323.5 841,-304.5 746,-304.5"/>
<text text-anchor="middle" x="793.5" y="-311.5" font-family="Helvetica,sans-Serif" font-size="10.00" fill="#000000">fr_cursor_prepend</text>
</a>
</g>
</g>
<!-- Node4844&#45;&gt;Node5006 -->
<g id="edge20" class="edge">
<title>Node4844&#45;&gt;Node5006</title>
<path fill="none" stroke="#191970" d="M710.3438,-314C718.4784,-314 727.0463,-314 735.4656,-314"/>
<polygon fill="#191970" stroke="#191970" points="735.6227,-317.5001 745.6227,-314 735.6227,-310.5001 735.6227,-317.5001"/>
</g>
<!-- Node4845&#45;&gt;Node4846 -->
<g id="edge6" class="edge">
<title>Node4845&#45;&gt;Node4846</title>
<path fill="none" stroke="#191970" d="M832.2431,-398.2495C849.9757,-402.0253 870.8805,-406.4765 888.3511,-410.1964"/>
<polygon fill="#191970" stroke="#191970" points="887.6812,-413.6322 898.1908,-412.2916 889.139,-406.7857 887.6812,-413.6322"/>
</g>
<!-- Node4845&#45;&gt;Node4853 -->
<g id="edge9" class="edge">
<title>Node4845&#45;&gt;Node4853</title>
<path fill="none" stroke="#191970" d="M832.2431,-381.4559C844.8004,-378.6866 858.9483,-375.5665 872.3411,-372.613"/>
<polygon fill="#191970" stroke="#191970" points="873.385,-375.967 882.3965,-370.3954 871.8774,-369.1312 873.385,-375.967"/>
</g>
<!-- Node4846&#45;&gt;Node4843 -->
<g id="edge7" class="edge">
<title>Node4846&#45;&gt;Node4843</title>
<path fill="none" stroke="#191970" d="M951.5949,-423.5989C971.751,-427.8423 999.6688,-433.7197 1021.8507,-438.3896"/>
<polygon fill="#191970" stroke="#191970" points="1021.3979,-441.8709 1031.9045,-440.5062 1022.84,-435.0211 1021.3979,-441.8709"/>
</g>
<!-- Node4846&#45;&gt;Node4847 -->
<g id="edge8" class="edge">
<title>Node4846&#45;&gt;Node4847</title>
<path fill="none" stroke="#191970" d="M939.3676,-408.3521C949.4237,-401.2047 962.8253,-390.8578 973,-380 1004.3378,-346.558 1032.8814,-300.7368 1047.5783,-275.52"/>
<polygon fill="#191970" stroke="#191970" points="1050.7302,-277.0594 1052.6732,-266.6442 1044.6593,-273.5745 1050.7302,-277.0594"/>
</g>
<!-- Node4854&#45;&gt;Node4842 -->
<g id="edge14" class="edge">
<title>Node4854&#45;&gt;Node4842</title>
<path fill="none" stroke="#191970" d="M760.7893,-238C718.3387,-238 643.7246,-238 593.1049,-238"/>
<polygon fill="#191970" stroke="#191970" points="593.0029,-234.5001 583.0028,-238 593.0028,-241.5001 593.0029,-234.5001"/>
</g>
<!-- Node4854&#45;&gt;Node4847 -->
<g id="edge13" class="edge">
<title>Node4854&#45;&gt;Node4847</title>
<path fill="none" stroke="#191970" d="M826.1982,-240.3488C876.5233,-243.9639 972.4979,-250.8581 1023.7459,-254.5394"/>
<polygon fill="#191970" stroke="#191970" points="1023.7451,-258.0483 1033.9702,-255.2739 1024.2467,-251.0663 1023.7451,-258.0483"/>
</g>
<!-- Node4854&#45;&gt;Node4857 -->
<g id="edge15" class="edge">
<title>Node4854&#45;&gt;Node4857</title>
<path fill="none" stroke="#191970" d="M810.1546,-228.3745C832.7814,-215.2975 873.4306,-191.8043 899.8014,-176.5634"/>
<polygon fill="#191970" stroke="#191970" points="901.574,-179.5815 908.4807,-171.5473 898.0713,-173.5209 901.574,-179.5815"/>
</g>
<!-- Node4857&#45;&gt;Node4842 -->
<g id="edge16" class="edge">
<title>Node4857&#45;&gt;Node4842</title>
<path fill="none" stroke="#191970" d="M876.8609,-158.5064C815.2932,-155.6573 706.2081,-156.1091 619,-186 596.2773,-193.7883 573.7269,-209.6558 558.5719,-221.8258"/>
<polygon fill="#191970" stroke="#191970" points="556.0191,-219.396 550.558,-228.4749 560.4888,-224.7831 556.0191,-219.396"/>
</g>
<!-- Node4857&#45;&gt;Node4858 -->
<g id="edge17" class="edge">
<title>Node4857&#45;&gt;Node4858</title>
<path fill="none" stroke="#191970" d="M958.5615,-152.411C975.573,-147.5506 996.4319,-141.5909 1014.6446,-136.3873"/>
<polygon fill="#191970" stroke="#191970" points="1015.7955,-139.6986 1024.4492,-133.5859 1013.8724,-132.9679 1015.7955,-139.6986"/>
</g>
<!-- Node4858&#45;&gt;Node4842 -->
<g id="edge18" class="edge">
<title>Node4858&#45;&gt;Node4842</title>
<path fill="none" stroke="#191970" d="M1008.8835,-117.7691C924.7779,-109.2956 749.6286,-101.3546 619,-161 590.5529,-173.989 566.2558,-201.7332 552.3875,-220.1263"/>
<polygon fill="#191970" stroke="#191970" points="549.4951,-218.1527 546.4446,-228.2989 555.1566,-222.2695 549.4951,-218.1527"/>
</g>
<!-- Node4866&#45;&gt;Node4842 -->
<g id="edge28" class="edge">
<title>Node4866&#45;&gt;Node4842</title>
<path fill="none" stroke="#191970" d="M433.8382,-145.1327C443.1141,-149.3438 452.6777,-154.3398 461,-160 486.3788,-177.2607 510.7521,-203.2285 525.5509,-220.3924"/>
<polygon fill="#191970" stroke="#191970" points="523.2467,-223.0888 532.3716,-228.4727 528.5958,-218.5735 523.2467,-223.0888"/>
</g>
<!-- Node4875&#45;&gt;Node4842 -->
<g id="edge30" class="edge">
<title>Node4875&#45;&gt;Node4842</title>
<path fill="none" stroke="#191970" d="M438.008,-316.4905C445.914,-313.9695 453.8817,-310.8445 461,-307 486.1055,-293.4409 510.0736,-270.6312 524.8917,-254.9741"/>
<polygon fill="#191970" stroke="#191970" points="527.5555,-257.2485 531.7641,-247.5254 522.4107,-252.5017 527.5555,-257.2485"/>
</g>
<!-- Node5100 -->
<g id="node20" class="node">
<title>Node5100</title>
<g id="a_node20"><a xlink:href="value_8h.html#a2d08d82275a28efe9ad91300db05c236" target="_top" xlink:title="Allocate a value box of a specific type. ">
<polygon fill="none" stroke="#ff0000" points="344,-.5 344,-19.5 442,-19.5 442,-.5 344,-.5"/>
<text text-anchor="middle" x="393" y="-7.5" font-family="Helvetica,sans-Serif" font-size="10.00" fill="#000000">fr_value_box_alloc</text>
</a>
</g>
</g>
<!-- Node5468&#45;&gt;Node5100 -->
<g id="edge32" class="edge">
<title>Node5468&#45;&gt;Node5100</title>
<path fill="none" stroke="#191970" d="M275.4032,-164.4612C280.4106,-161.986 285.0733,-158.8842 289,-155 328.8892,-115.5425 286.3324,-74.6555 325,-34 328.6803,-30.1305 333.0222,-26.8841 337.7029,-24.1607"/>
<polygon fill="#191970" stroke="#191970" points="339.6267,-27.1138 347.0369,-19.5416 336.5219,-20.84 339.6267,-27.1138"/>
</g>
<!-- Node4876&#45;&gt;Node4842 -->
<g id="edge34" class="edge">
<title>Node4876&#45;&gt;Node4842</title>
<path fill="none" stroke="#191970" d="M261.8833,-382.5691C311.8378,-392.431 398.9371,-401.8312 461,-366 502.4923,-342.045 525.0878,-286.6822 534.5609,-257.2338"/>
<polygon fill="#191970" stroke="#191970" points="537.9105,-258.2486 537.4679,-247.663 531.2126,-256.2141 537.9105,-258.2486"/>
</g>
<!-- Node5469&#45;&gt;Node4842 -->
<g id="edge36" class="edge">
<title>Node5469&#45;&gt;Node4842</title>
<path fill="none" stroke="#191970" d="M240.0706,-316.6093C281.1253,-337.6657 385.576,-383.0671 461,-345 497.4171,-326.62 521.1933,-282.653 532.433,-257.1658"/>
<polygon fill="#191970" stroke="#191970" points="535.7216,-258.374 536.365,-247.7987 529.2672,-255.6645 535.7216,-258.374"/>
</g>
</g>
</svg>
