<?xml version="1.0" encoding="UTF-8" standalone="no"?>
<!DOCTYPE svg PUBLIC "-//W3C//DTD SVG 1.1//EN"
 "http://www.w3.org/Graphics/SVG/1.1/DTD/svg11.dtd">
<!-- Generated by graphviz version 2.40.1 (20161225.0304)
 -->
<!-- Title: /home/runner/work/freeradius&#45;server/freeradius&#45;server/src/lib/eap_aka_sim/attrs.h Pages: 1 -->
<svg width="659pt" height="117pt"
 viewBox="0.00 0.00 659.00 117.00" xmlns="http://www.w3.org/2000/svg" xmlns:xlink="http://www.w3.org/1999/xlink">
<g id="graph0" class="graph" transform="scale(1 1) rotate(0) translate(4 113)">
<title>/home/runner/work/freeradius&#45;server/freeradius&#45;server/src/lib/eap_aka_sim/attrs.h</title>
<!-- Node0 -->
<g id="node1" class="node">
<title>Node0</title>
<polygon fill="#bfbfbf" stroke="#000000" points="230,-67.5 230,-108.5 373,-108.5 373,-67.5 230,-67.5"/>
<text text-anchor="start" x="238" y="-96.5" font-family="Helvetica,sans-Serif" font-size="10.00" fill="#000000">/home/runner/work/freeradius</text>
<text text-anchor="start" x="238" y="-85.5" font-family="Helvetica,sans-Serif" font-size="10.00" fill="#000000">&#45;server/freeradius&#45;server</text>
<text text-anchor="middle" x="301.5" y="-74.5" font-family="Helvetica,sans-Serif" font-size="10.00" fill="#000000">/src/lib/eap_aka_sim/attrs.h</text>
</g>
<!-- Node1 -->
<g id="node2" class="node">
<title>Node1</title>
<polygon fill="none" stroke="#bfbfbf" points="0,-.5 0,-30.5 101,-30.5 101,-.5 0,-.5"/>
<text text-anchor="start" x="8" y="-18.5" font-family="Helvetica,sans-Serif" font-size="10.00" fill="#000000">freeradius&#45;devel/util</text>
<text text-anchor="middle" x="50.5" y="-7.5" font-family="Helvetica,sans-Serif" font-size="10.00" fill="#000000">/debug.h</text>
</g>
<!-- Node0&#45;&gt;Node1 -->
<g id="edge1" class="edge">
<title>Node0&#45;&gt;Node1</title>
<path fill="none" stroke="#191970" d="M230.2449,-67.4183C192.6207,-56.5508 146.9422,-43.3568 111.0487,-32.9892"/>
<polygon fill="#191970" stroke="#191970" points="111.7777,-29.5567 101.1992,-30.1442 109.8352,-36.2818 111.7777,-29.5567"/>
</g>
<!-- Node2 -->
<g id="node3" class="node">
<title>Node2</title>
<polygon fill="none" stroke="#bfbfbf" points="119,-.5 119,-30.5 220,-30.5 220,-.5 119,-.5"/>
<text text-anchor="start" x="127" y="-18.5" font-family="Helvetica,sans-Serif" font-size="10.00" fill="#000000">freeradius&#45;devel/util</text>
<text text-anchor="middle" x="169.5" y="-7.5" font-family="Helvetica,sans-Serif" font-size="10.00" fill="#000000">/dict.h</text>
</g>
<!-- Node0&#45;&gt;Node2 -->
<g id="edge2" class="edge">
<title>Node0&#45;&gt;Node2</title>
<path fill="none" stroke="#191970" d="M264.0272,-67.4183C245.8533,-57.4365 224.106,-45.4919 206.0549,-35.5775"/>
<polygon fill="#191970" stroke="#191970" points="207.4407,-32.3455 196.9908,-30.5991 204.0708,-38.481 207.4407,-32.3455"/>
</g>
<!-- Node3 -->
<g id="node4" class="node">
<title>Node3</title>
<polygon fill="none" stroke="#bfbfbf" points="238.5,-.5 238.5,-30.5 364.5,-30.5 364.5,-.5 238.5,-.5"/>
<text text-anchor="start" x="246.5" y="-18.5" font-family="Helvetica,sans-Serif" font-size="10.00" fill="#000000">freeradius&#45;devel/protocol</text>
<text text-anchor="middle" x="301.5" y="-7.5" font-family="Helvetica,sans-Serif" font-size="10.00" fill="#000000">/eap/aka&#45;sim/dictionary.h</text>
</g>
<!-- Node0&#45;&gt;Node3 -->
<g id="edge3" class="edge">
<title>Node0&#45;&gt;Node3</title>
<path fill="none" stroke="#191970" d="M301.5,-67.4183C301.5,-59.0849 301.5,-49.3834 301.5,-40.6373"/>
<polygon fill="#191970" stroke="#191970" points="305.0001,-40.5991 301.5,-30.5991 298.0001,-40.5991 305.0001,-40.5991"/>
</g>
<!-- Node4 -->
<g id="node5" class="node">
<title>Node4</title>
<polygon fill="none" stroke="#bfbfbf" points="383,-.5 383,-30.5 506,-30.5 506,-.5 383,-.5"/>
<text text-anchor="start" x="391" y="-18.5" font-family="Helvetica,sans-Serif" font-size="10.00" fill="#000000">freeradius&#45;devel/protocol</text>
<text text-anchor="middle" x="444.5" y="-7.5" font-family="Helvetica,sans-Serif" font-size="10.00" fill="#000000">/eap/aka&#45;sim/rfc4187.h</text>
</g>
<!-- Node0&#45;&gt;Node4 -->
<g id="edge4" class="edge">
<title>Node0&#45;&gt;Node4</title>
<path fill="none" stroke="#191970" d="M342.0956,-67.4183C362.0549,-57.2991 385.9927,-45.1628 405.7039,-35.1694"/>
<polygon fill="#191970" stroke="#191970" points="407.3818,-38.2428 414.7183,-30.5991 404.2164,-31.9994 407.3818,-38.2428"/>
</g>
<!-- Node5 -->
<g id="node6" class="node">
<title>Node5</title>
<polygon fill="none" stroke="#bfbfbf" points="524,-.5 524,-30.5 651,-30.5 651,-.5 524,-.5"/>
<text text-anchor="start" x="532" y="-18.5" font-family="Helvetica,sans-Serif" font-size="10.00" fill="#000000">freeradius&#45;devel/protocol</text>
<text text-anchor="middle" x="587.5" y="-7.5" font-family="Helvetica,sans-Serif" font-size="10.00" fill="#000000">/eap/aka&#45;sim/freeradius.h</text>
</g>
<!-- Node0&#45;&gt;Node5 -->
<g id="edge5" class="edge">
<title>Node0&#45;&gt;Node5</title>
<path fill="none" stroke="#191970" d="M373.3007,-69.7988C417.7581,-58.529 474.542,-44.1345 518.4727,-32.9982"/>
<polygon fill="#191970" stroke="#191970" points="519.3754,-36.3801 528.2087,-30.5301 517.6553,-29.5948 519.3754,-36.3801"/>
</g>
</g>
</svg>
