<?xml version="1.0" encoding="UTF-8" standalone="no"?>
<!DOCTYPE svg PUBLIC "-//W3C//DTD SVG 1.1//EN"
 "http://www.w3.org/Graphics/SVG/1.1/DTD/svg11.dtd">
<!-- Generated by graphviz version 2.40.1 (20161225.0304)
 -->
<!-- Title: fr_message_alloc_reserve Pages: 1 -->
<!--zoomable 467 -->
<svg id="main" version="1.1" xmlns="http://www.w3.org/2000/svg" xmlns:xlink="http://www.w3.org/1999/xlink" xml:space="preserve" onload="init(evt)">
<style type="text/css"><![CDATA[
.edge:hover path { stroke: red; }
.edge:hover polygon { stroke: red; fill: red; }
]]></style>
<script type="text/javascript"><![CDATA[
var edges = document.getElementsByTagName('g');
if (edges && edges.length) {
  for (var i=0;i<edges.length;i++) {
    if (edges[i].id.substr(0,4)=='edge') {
      edges[i].setAttribute('class','edge');
    }
  }
}
]]></script>
        <defs>
                <circle id="rim" cx="0" cy="0" r="7"/>
                <circle id="rim2" cx="0" cy="0" r="3.5"/>
                <g id="zoomPlus">
                        <use xlink:href="#rim" fill="#404040">
                                <set attributeName="fill" to="#808080" begin="zoomplus.mouseover" end="zoomplus.mouseout"/>
                        </use>
                        <path d="M-4,0h8M0,-4v8" fill="none" stroke="white" stroke-width="1.5" pointer-events="none"/>
                </g>
                <g id="zoomMin">
                        <use xlink:href="#rim" fill="#404040">
                                <set attributeName="fill" to="#808080" begin="zoomminus.mouseover" end="zoomminus.mouseout"/>
                        </use>
                        <path d="M-4,0h8" fill="none" stroke="white" stroke-width="1.5" pointer-events="none"/>
                </g>
                <g id="dirArrow">
                        <path fill="none" stroke="white" stroke-width="1.5" d="M0,-3.0v7 M-2.5,-0.5L0,-3.0L2.5,-0.5"/>
                </g>
               <g id="resetDef">
                       <use xlink:href="#rim2" fill="#404040">
                               <set attributeName="fill" to="#808080" begin="reset.mouseover" end="reset.mouseout"/>
                       </use>
               </g>
        </defs>

<script type="text/javascript">
var viewWidth = 1326;
var viewHeight = 467;
var sectionId = 'dynsection-4';
</script>
<script xlink:href="svgpan.js"/>
<svg id="graph" class="graph">
<g id="viewport">
<title>fr_message_alloc_reserve</title>
<!-- Node1280 -->
<g id="node1" class="node">
<title>Node1280</title>
<polygon fill="#bfbfbf" stroke="#000000" points="0,-199.5 0,-218.5 131,-218.5 131,-199.5 0,-199.5"/>
<text text-anchor="middle" x="65.5" y="-206.5" font-family="Helvetica,sans-Serif" font-size="10.00" fill="#000000">fr_message_alloc_reserve</text>
</g>
<!-- Node1281 -->
<g id="node2" class="node">
<title>Node1281</title>
<g id="a_node2"><a xlink:href="ring__buffer_8c.html#afe34757eeacef130cc6c6b7ee810f815" target="_top" xlink:title="Mark data as allocated. ">
<polygon fill="none" stroke="#000000" points="627.5,-370.5 627.5,-389.5 726.5,-389.5 726.5,-370.5 627.5,-370.5"/>
<text text-anchor="middle" x="677" y="-377.5" font-family="Helvetica,sans-Serif" font-size="10.00" fill="#000000">fr_ring_buffer_alloc</text>
</a>
</g>
</g>
<!-- Node1280&#45;&gt;Node1281 -->
<g id="edge1" class="edge">
<title>Node1280&#45;&gt;Node1281</title>
<path fill="none" stroke="#191970" d="M75.9693,-218.7001C93.5549,-234.544 130.6773,-266.0996 167,-285 294.7952,-351.4979 332.7433,-363.2709 475,-386 522.4291,-393.578 576.8974,-391.3354 617.3131,-387.6084"/>
<polygon fill="#191970" stroke="#191970" points="617.661,-391.0912 627.2727,-386.634 616.9793,-384.1244 617.661,-391.0912"/>
</g>
<!-- Node1444 -->
<g id="node12" class="node">
<title>Node1444</title>
<g id="a_node12"><a xlink:href="strerror_8c.html#a2f2232a184a763c76b3d87d5bea7a868" target="_top" xlink:title="Add a message to an existing stack of messages. ">
<polygon fill="none" stroke="#ff0000" points="476,-66.5 476,-85.5 588,-85.5 588,-66.5 476,-66.5"/>
<text text-anchor="middle" x="532" y="-73.5" font-family="Helvetica,sans-Serif" font-size="10.00" fill="#000000">fr_strerror_printf_push</text>
</a>
</g>
</g>
<!-- Node1280&#45;&gt;Node1444 -->
<g id="edge18" class="edge">
<title>Node1280&#45;&gt;Node1444</title>
<path fill="none" stroke="#191970" d="M84.1727,-199.4935C104.2319,-189.5748 137.2449,-174.0904 167,-164 270.913,-128.7615 395.9855,-101.8165 469.4618,-87.4943"/>
<polygon fill="#191970" stroke="#191970" points="470.3257,-90.8921 479.4796,-85.5576 468.997,-84.0194 470.3257,-90.8921"/>
</g>
<!-- Node1908 -->
<g id="node13" class="node">
<title>Node1908</title>
<g id="a_node13"><a xlink:href="message_8c.html#a645a2c7627bc7bb65a417ef13a1d2fe1" target="_top" xlink:title="Reserve a message. ">
<polygon fill="none" stroke="#000000" points="167,-256.5 167,-275.5 272,-275.5 272,-256.5 167,-256.5"/>
<text text-anchor="middle" x="219.5" y="-263.5" font-family="Helvetica,sans-Serif" font-size="10.00" fill="#000000">fr_message_reserve</text>
</a>
</g>
</g>
<!-- Node1280&#45;&gt;Node1908 -->
<g id="edge21" class="edge">
<title>Node1280&#45;&gt;Node1908</title>
<path fill="none" stroke="#191970" d="M91.2761,-218.5405C116.7054,-227.9527 155.7759,-242.4138 184.1067,-252.8999"/>
<polygon fill="#191970" stroke="#191970" points="183.0466,-256.2395 193.6398,-256.4284 185.4765,-249.6748 183.0466,-256.2395"/>
</g>
<!-- Node1909 -->
<g id="node14" class="node">
<title>Node1909</title>
<g id="a_node14"><a xlink:href="message_8c.html#a0418cdb93e0854c61c4b51776b5c5285" target="_top" xlink:title="Allocate a fr_message_t, WITHOUT a ring buffer. ">
<polygon fill="none" stroke="#000000" points="308,-256.5 308,-275.5 439,-275.5 439,-256.5 308,-256.5"/>
<text text-anchor="middle" x="373.5" y="-263.5" font-family="Helvetica,sans-Serif" font-size="10.00" fill="#000000">fr_message_get_message</text>
</a>
</g>
</g>
<!-- Node1280&#45;&gt;Node1909 -->
<g id="edge46" class="edge">
<title>Node1280&#45;&gt;Node1909</title>
<path fill="none" stroke="#191970" d="M117.7024,-218.5605C159.4562,-226.2185 219.4936,-237.2545 272,-247 285.2034,-249.4506 299.3702,-252.0938 312.8061,-254.6071"/>
<polygon fill="#191970" stroke="#191970" points="312.4368,-258.0987 322.9101,-256.4984 313.7248,-251.2182 312.4368,-258.0987"/>
</g>
<!-- Node1918 -->
<g id="node21" class="node">
<title>Node1918</title>
<g id="a_node21"><a xlink:href="message_8c.html#a60f6babe0166892566e6bc708dd9eed3" target="_top" xlink:title="Get a ring buffer for a message. ">
<polygon fill="none" stroke="#000000" points="320,-175 320,-205 427,-205 427,-175 320,-175"/>
<text text-anchor="start" x="328" y="-193" font-family="Helvetica,sans-Serif" font-size="10.00" fill="#000000">fr_message_get_ring</text>
<text text-anchor="middle" x="373.5" y="-182" font-family="Helvetica,sans-Serif" font-size="10.00" fill="#000000">_buffer</text>
</a>
</g>
</g>
<!-- Node1280&#45;&gt;Node1918 -->
<g id="edge48" class="edge">
<title>Node1280&#45;&gt;Node1918</title>
<path fill="none" stroke="#191970" d="M131.1959,-204.9473C183.8664,-201.6982 257.3513,-197.165 309.5536,-193.9447"/>
<polygon fill="#191970" stroke="#191970" points="309.9323,-197.4281 319.6978,-193.319 309.5012,-190.4414 309.9323,-197.4281"/>
</g>
<!-- Node1919 -->
<g id="node22" class="node">
<title>Node1919</title>
<g id="a_node22"><a xlink:href="ring__buffer_8c.html#a8834a2b2c4f7fcbc362590bdf82e7bf8" target="_top" xlink:title="Reserve room in the ring buffer. ">
<polygon fill="none" stroke="#000000" points="476.5,-104.5 476.5,-123.5 587.5,-123.5 587.5,-104.5 476.5,-104.5"/>
<text text-anchor="middle" x="532" y="-111.5" font-family="Helvetica,sans-Serif" font-size="10.00" fill="#000000">fr_ring_buffer_reserve</text>
</a>
</g>
</g>
<!-- Node1280&#45;&gt;Node1919 -->
<g id="edge47" class="edge">
<title>Node1280&#45;&gt;Node1919</title>
<path fill="none" stroke="#191970" d="M112.3657,-199.4561C198.6388,-181.8871 382.2624,-144.4932 475.3586,-125.5347"/>
<polygon fill="#191970" stroke="#191970" points="476.065,-128.9628 485.1655,-123.5376 474.6681,-122.1035 476.065,-128.9628"/>
</g>
<!-- Node1282 -->
<g id="node3" class="node">
<title>Node1282</title>
<g id="a_node3"><a xlink:href="strerror_8c.html#ae701765650b8aea79a3037bc4921d7f8" target="_top" xlink:title="Log to thread local error buffer. ">
<polygon fill="none" stroke="#000000" points="765,-294.5 765,-313.5 851,-313.5 851,-294.5 765,-294.5"/>
<text text-anchor="middle" x="808" y="-301.5" font-family="Helvetica,sans-Serif" font-size="10.00" fill="#000000">fr_strerror_printf</text>
</a>
</g>
</g>
<!-- Node1281&#45;&gt;Node1282 -->
<g id="edge2" class="edge">
<title>Node1281&#45;&gt;Node1282</title>
<path fill="none" stroke="#191970" d="M699.6328,-370.441C708.8924,-366.3032 719.6139,-361.2166 729,-356 749.0357,-344.8645 770.7122,-330.4104 786.2818,-319.5685"/>
<polygon fill="#191970" stroke="#191970" points="788.5213,-322.2724 794.6848,-313.6548 784.4926,-316.5479 788.5213,-322.2724"/>
</g>
<!-- Node1283 -->
<g id="node4" class="node">
<title>Node1283</title>
<g id="a_node4"><a xlink:href="acutest_8h.html#aecf9a9be8105efb1454cd8c1ef6cb1c5" target="_top" xlink:title="va_start">
<polygon fill="none" stroke="#000000" points="1266,-28.5 1266,-47.5 1318,-47.5 1318,-28.5 1266,-28.5"/>
<text text-anchor="middle" x="1292" y="-35.5" font-family="Helvetica,sans-Serif" font-size="10.00" fill="#000000">va_start</text>
</a>
</g>
</g>
<!-- Node1282&#45;&gt;Node1283 -->
<g id="edge3" class="edge">
<title>Node1282&#45;&gt;Node1283</title>
<path fill="none" stroke="#191970" d="M814.7312,-294.4602C827.5956,-276.5813 857.0663,-237.2877 887,-209 982.9191,-118.3555 1017.9195,-97.601 1145,-62 1182.0861,-51.6105 1225.7765,-45.1865 1255.8334,-41.6304"/>
<polygon fill="#191970" stroke="#191970" points="1256.3225,-45.0975 1265.8632,-40.4904 1255.5318,-38.1423 1256.3225,-45.0975"/>
</g>
<!-- Node1284 -->
<g id="node5" class="node">
<title>Node1284</title>
<g id="a_node5"><a xlink:href="strerror_8c.html#a193b1e0b3712e3bbee338812c06af482" target="_top" xlink:title="fr_strerror_vprintf">
<polygon fill="none" stroke="#000000" points="887,-218.5 887,-237.5 978,-237.5 978,-218.5 887,-218.5"/>
<text text-anchor="middle" x="932.5" y="-225.5" font-family="Helvetica,sans-Serif" font-size="10.00" fill="#000000">fr_strerror_vprintf</text>
</a>
</g>
</g>
<!-- Node1282&#45;&gt;Node1284 -->
<g id="edge4" class="edge">
<title>Node1282&#45;&gt;Node1284</title>
<path fill="none" stroke="#191970" d="M823.768,-294.3745C845.0968,-281.3546 883.34,-258.0093 908.3149,-242.7636"/>
<polygon fill="#191970" stroke="#191970" points="910.1483,-245.7451 916.86,-237.5473 906.501,-239.7703 910.1483,-245.7451"/>
</g>
<!-- Node1287 -->
<g id="node8" class="node">
<title>Node1287</title>
<g id="a_node8"><a xlink:href="acutest_8h.html#a36af1f79dd6adf0809c21e76535034d5" target="_top" xlink:title="va_end">
<polygon fill="none" stroke="#000000" points="1268,-256.5 1268,-275.5 1316,-275.5 1316,-256.5 1268,-256.5"/>
<text text-anchor="middle" x="1292" y="-263.5" font-family="Helvetica,sans-Serif" font-size="10.00" fill="#000000">va_end</text>
</a>
</g>
</g>
<!-- Node1282&#45;&gt;Node1287 -->
<g id="edge17" class="edge">
<title>Node1282&#45;&gt;Node1287</title>
<path fill="none" stroke="#191970" d="M851.311,-312.7691C862.8626,-314.8078 875.367,-316.7461 887,-318 1038.7751,-334.3593 1086.3266,-351.5873 1230,-300 1243.3592,-295.2032 1257.2986,-287.8036 1268.5688,-281.1308"/>
<polygon fill="#191970" stroke="#191970" points="1270.631,-283.9724 1277.3367,-275.7698 1266.9793,-278.0003 1270.631,-283.9724"/>
</g>
<!-- Node1285 -->
<g id="node6" class="node">
<title>Node1285</title>
<g id="a_node6"><a xlink:href="strerror_8c.html#a42c2cc9f76fb9dac723a1903c181e1c7" target="_top" xlink:title="Initialise thread local storage. ">
<polygon fill="none" stroke="#ff0000" points="1023,-142.5 1023,-161.5 1100,-161.5 1100,-142.5 1023,-142.5"/>
<text text-anchor="middle" x="1061.5" y="-149.5" font-family="Helvetica,sans-Serif" font-size="10.00" fill="#000000">fr_strerror_init</text>
</a>
</g>
</g>
<!-- Node1284&#45;&gt;Node1285 -->
<g id="edge5" class="edge">
<title>Node1284&#45;&gt;Node1285</title>
<path fill="none" stroke="#191970" d="M946.6606,-218.3521C962.7104,-207.5624 989.792,-189.7926 1014,-176 1019.7951,-172.6982 1026.0989,-169.3502 1032.1637,-166.2445"/>
<polygon fill="#191970" stroke="#191970" points="1034.0282,-169.2246 1041.3899,-161.6052 1030.8834,-162.9707 1034.0282,-169.2246"/>
</g>
<!-- Node1286 -->
<g id="node7" class="node">
<title>Node1286</title>
<g id="a_node7"><a xlink:href="strerror_8c.html#a2c8e65d6d4b73fb705cc023f60acb099" target="_top" xlink:title="Print the current error to stderr with a prefix. ">
<polygon fill="none" stroke="#ff0000" points="1161,-123.5 1161,-142.5 1214,-142.5 1214,-123.5 1161,-123.5"/>
<text text-anchor="middle" x="1187.5" y="-130.5" font-family="Helvetica,sans-Serif" font-size="10.00" fill="#000000">fr_perror</text>
</a>
</g>
</g>
<!-- Node1284&#45;&gt;Node1286 -->
<g id="edge11" class="edge">
<title>Node1284&#45;&gt;Node1286</title>
<path fill="none" stroke="#191970" d="M937.1345,-218.3477C947.5316,-197.9724 974.9057,-150.9706 1014,-133 1057.5919,-112.962 1114.1026,-117.8584 1150.582,-124.4187"/>
<polygon fill="#191970" stroke="#191970" points="1150.2851,-127.9261 1160.7676,-126.3877 1151.6137,-121.0533 1150.2851,-127.9261"/>
</g>
<!-- Node1284&#45;&gt;Node1287 -->
<g id="edge15" class="edge">
<title>Node1284&#45;&gt;Node1287</title>
<path fill="none" stroke="#191970" d="M967.9653,-237.5761C982.1786,-241.0698 998.7694,-244.7193 1014,-247 1101.0571,-260.0362 1204.8088,-264.1396 1257.5382,-265.4228"/>
<polygon fill="#191970" stroke="#191970" points="1257.6119,-268.9252 1267.6877,-265.6498 1257.7685,-261.9269 1257.6119,-268.9252"/>
</g>
<!-- Node1293 -->
<g id="node9" class="node">
<title>Node1293</title>
<g id="a_node9"><a xlink:href="strerror_8c.html#a9d878c1ddb1b385cdaf6523fff68529c" target="_top" xlink:title="Reset cursor state. ">
<polygon fill="none" stroke="#000000" points="1145,-171.5 1145,-190.5 1230,-190.5 1230,-171.5 1145,-171.5"/>
<text text-anchor="middle" x="1187.5" y="-178.5" font-family="Helvetica,sans-Serif" font-size="10.00" fill="#000000">fr_strerror_clear</text>
</a>
</g>
</g>
<!-- Node1284&#45;&gt;Node1293 -->
<g id="edge10" class="edge">
<title>Node1284&#45;&gt;Node1293</title>
<path fill="none" stroke="#191970" d="M970.9383,-218.4638C984.5021,-215.2516 999.8878,-211.7803 1014,-209 1054.2871,-201.063 1100.1644,-193.7329 1134.6209,-188.5651"/>
<polygon fill="#191970" stroke="#191970" points="1135.5523,-191.9651 1144.9288,-187.0324 1134.5228,-185.0413 1135.5523,-191.9651"/>
</g>
<!-- Node1294 -->
<g id="node10" class="node">
<title>Node1294</title>
<g id="a_node10"><a xlink:href="print_8c.html#a27ae94b5a4c77de49aa2f387765a4d58" target="_top" xlink:title="Special version of vasprintf which implements custom format specifiers. ">
<polygon fill="none" stroke="#ff0000" points="1029,-294.5 1029,-313.5 1094,-313.5 1094,-294.5 1029,-294.5"/>
<text text-anchor="middle" x="1061.5" y="-301.5" font-family="Helvetica,sans-Serif" font-size="10.00" fill="#000000">fr_vasprintf</text>
</a>
</g>
</g>
<!-- Node1284&#45;&gt;Node1294 -->
<g id="edge12" class="edge">
<title>Node1284&#45;&gt;Node1294</title>
<path fill="none" stroke="#191970" d="M946.6606,-237.6479C962.7104,-248.4376 989.792,-266.2074 1014,-280 1019.7951,-283.3018 1026.0989,-286.6498 1032.1637,-289.7555"/>
<polygon fill="#191970" stroke="#191970" points="1030.8834,-293.0293 1041.3899,-294.3948 1034.0282,-286.7754 1030.8834,-293.0293"/>
</g>
<!-- Node1446 -->
<g id="node11" class="node">
<title>Node1446</title>
<g id="a_node11"><a xlink:href="cursor_8c.html#a5d942382660657c3b4cb6e9cb2b12b2c" target="_top" xlink:title="Insert a single item at the start of the list. ">
<polygon fill="none" stroke="#000000" points="1014,-218.5 1014,-237.5 1109,-237.5 1109,-218.5 1014,-218.5"/>
<text text-anchor="middle" x="1061.5" y="-225.5" font-family="Helvetica,sans-Serif" font-size="10.00" fill="#000000">fr_cursor_prepend</text>
</a>
</g>
</g>
<!-- Node1284&#45;&gt;Node1446 -->
<g id="edge16" class="edge">
<title>Node1284&#45;&gt;Node1446</title>
<path fill="none" stroke="#191970" d="M978.3438,-228C986.4784,-228 995.0463,-228 1003.4656,-228"/>
<polygon fill="#191970" stroke="#191970" points="1003.6227,-231.5001 1013.6227,-228 1003.6227,-224.5001 1003.6227,-231.5001"/>
</g>
<!-- Node1285&#45;&gt;Node1286 -->
<g id="edge6" class="edge">
<title>Node1285&#45;&gt;Node1286</title>
<path fill="none" stroke="#191970" d="M1100.3323,-146.1443C1116.466,-143.7115 1135.0923,-140.9028 1150.9745,-138.5078"/>
<polygon fill="#191970" stroke="#191970" points="1151.5951,-141.9539 1160.9614,-137.0018 1150.5513,-135.0321 1151.5951,-141.9539"/>
</g>
<!-- Node1285&#45;&gt;Node1293 -->
<g id="edge9" class="edge">
<title>Node1285&#45;&gt;Node1293</title>
<path fill="none" stroke="#191970" d="M1100.3323,-160.9376C1111.6304,-163.538 1124.1509,-166.4196 1136.0953,-169.1688"/>
<polygon fill="#191970" stroke="#191970" points="1135.4235,-172.6056 1145.9538,-171.4378 1136.9936,-165.7839 1135.4235,-172.6056"/>
</g>
<!-- Node1286&#45;&gt;Node1283 -->
<g id="edge7" class="edge">
<title>Node1286&#45;&gt;Node1283</title>
<path fill="none" stroke="#191970" d="M1198.2897,-123.1911C1216.1385,-106.965 1252.0021,-74.3617 1273.8181,-54.529"/>
<polygon fill="#191970" stroke="#191970" points="1276.3795,-56.9306 1281.4246,-47.614 1271.6708,-51.751 1276.3795,-56.9306"/>
</g>
<!-- Node1286&#45;&gt;Node1287 -->
<g id="edge8" class="edge">
<title>Node1286&#45;&gt;Node1287</title>
<path fill="none" stroke="#191970" d="M1204.9396,-142.5026C1213.1844,-147.561 1222.7783,-154.3223 1230,-162 1254.3688,-187.9077 1273.6095,-225.0009 1283.8553,-247.1756"/>
<polygon fill="#191970" stroke="#191970" points="1280.7448,-248.7932 1288.031,-256.4849 1287.1317,-245.9282 1280.7448,-248.7932"/>
</g>
<!-- Node1294&#45;&gt;Node1282 -->
<g id="edge14" class="edge">
<title>Node1294&#45;&gt;Node1282</title>
<path fill="none" stroke="#191970" d="M1028.7893,-304C986.3387,-304 911.7246,-304 861.1049,-304"/>
<polygon fill="#191970" stroke="#191970" points="861.0029,-300.5001 851.0028,-304 861.0028,-307.5001 861.0029,-300.5001"/>
</g>
<!-- Node1294&#45;&gt;Node1287 -->
<g id="edge13" class="edge">
<title>Node1294&#45;&gt;Node1287</title>
<path fill="none" stroke="#191970" d="M1094.2437,-300.1301C1128.2886,-295.9209 1183.0651,-288.6271 1230,-280 1239.1471,-278.3187 1248.9914,-276.227 1258.0824,-274.1773"/>
<polygon fill="#191970" stroke="#191970" points="1258.9895,-277.5601 1267.949,-271.9052 1257.4186,-270.7387 1258.9895,-277.5601"/>
</g>
<!-- Node1444&#45;&gt;Node1283 -->
<g id="edge19" class="edge">
<title>Node1444&#45;&gt;Node1283</title>
<path fill="none" stroke="#191970" d="M552.246,-66.3745C597.1805,-45.924 709.0968,0 808,0 808,0 808,0 1061.5,0 1131.1092,0 1210.987,-17.0803 1256.0767,-28.3384"/>
<polygon fill="#191970" stroke="#191970" points="1255.4046,-31.7789 1265.9589,-30.8525 1257.1305,-24.995 1255.4046,-31.7789"/>
</g>
<!-- Node1444&#45;&gt;Node1287 -->
<g id="edge20" class="edge">
<title>Node1444&#45;&gt;Node1287</title>
<path fill="none" stroke="#191970" d="M588.0327,-76C643.7951,-76 731.8125,-76 808,-76 808,-76 808,-76 1061.5,-76 1138.2697,-76 1171.4149,-64.3879 1230,-114 1270.6612,-148.4335 1284.9996,-213.6409 1289.7761,-246.3091"/>
<polygon fill="#191970" stroke="#191970" points="1286.3288,-246.9409 1291.0944,-256.4035 1293.2699,-246.0344 1286.3288,-246.9409"/>
</g>
<!-- Node1908&#45;&gt;Node1282 -->
<g id="edge22" class="edge">
<title>Node1908&#45;&gt;Node1282</title>
<path fill="none" stroke="#191970" d="M230.7022,-275.7246C264.617,-304.4779 370.2888,-389.0714 475,-421 583.0216,-453.938 629.9892,-482.318 729,-428 769.6801,-405.6827 792.4204,-352.5386 802.1872,-323.5983"/>
<polygon fill="#191970" stroke="#191970" points="805.6059,-324.397 805.3055,-313.8065 798.936,-322.2729 805.6059,-324.397"/>
</g>
<!-- Node1908&#45;&gt;Node1909 -->
<g id="edge23" class="edge">
<title>Node1908&#45;&gt;Node1909</title>
<path fill="none" stroke="#191970" d="M272.0673,-266C280.3342,-266 289.0202,-266 297.6862,-266"/>
<polygon fill="#191970" stroke="#191970" points="297.8238,-269.5001 307.8237,-266 297.8237,-262.5001 297.8238,-269.5001"/>
</g>
<!-- Node1908&#45;&gt;Node1918 -->
<g id="edge38" class="edge">
<title>Node1908&#45;&gt;Node1918</title>
<path fill="none" stroke="#191970" d="M239.0042,-256.3745C262.769,-244.6464 303.5101,-224.5405 333.9402,-209.523"/>
<polygon fill="#191970" stroke="#191970" points="335.6043,-212.6048 343.0228,-205.0407 332.5064,-206.3276 335.6043,-212.6048"/>
</g>
<!-- Node1909&#45;&gt;Node1281 -->
<g id="edge24" class="edge">
<title>Node1909&#45;&gt;Node1281</title>
<path fill="none" stroke="#191970" d="M380.2801,-275.7015C394.9096,-295.7452 431.6443,-341.4793 475,-361 519.7104,-381.1306 575.5239,-384.9866 617.1459,-384.3148"/>
<polygon fill="#191970" stroke="#191970" points="617.4989,-387.807 627.4066,-384.0536 617.3207,-380.8093 617.4989,-387.807"/>
</g>
<!-- Node1909&#45;&gt;Node1282 -->
<g id="edge33" class="edge">
<title>Node1909&#45;&gt;Node1282</title>
<path fill="none" stroke="#191970" d="M378.2432,-275.6752C390.4633,-299.4047 425.5643,-360.4146 475,-386 575.3885,-437.956 626.6601,-446.9981 729,-399 762.4962,-383.29 786.717,-345.6263 798.956,-322.722"/>
<polygon fill="#191970" stroke="#191970" points="802.1618,-324.14 803.5936,-313.6424 795.9279,-320.9559 802.1618,-324.14"/>
</g>
<!-- Node1909&#45;&gt;Node1444 -->
<g id="edge37" class="edge">
<title>Node1909&#45;&gt;Node1444</title>
<path fill="none" stroke="#191970" d="M391.3133,-256.3617C406.1266,-247.474 426.706,-232.957 439,-215 470.4559,-169.0547 436.228,-134.9647 475,-95 476.4164,-93.5401 477.9477,-92.1923 479.5682,-90.9481"/>
<polygon fill="#191970" stroke="#191970" points="481.6317,-93.7872 488.2952,-85.5501 477.9494,-87.834 481.6317,-93.7872"/>
</g>
<!-- Node1910 -->
<g id="node15" class="node">
<title>Node1910</title>
<g id="a_node15"><a xlink:href="message_8c.html#a36b2781aed5d62264f2e482ffa778464" target="_top" xlink:title="Garbage collect &quot;done&quot; messages. ">
<polygon fill="none" stroke="#000000" points="490.5,-218.5 490.5,-237.5 573.5,-237.5 573.5,-218.5 490.5,-218.5"/>
<text text-anchor="middle" x="532" y="-225.5" font-family="Helvetica,sans-Serif" font-size="10.00" fill="#000000">fr_message_gc</text>
</a>
</g>
</g>
<!-- Node1909&#45;&gt;Node1910 -->
<g id="edge25" class="edge">
<title>Node1909&#45;&gt;Node1910</title>
<path fill="none" stroke="#191970" d="M413.4962,-256.411C434.412,-251.3965 460.2081,-245.2119 482.3864,-239.8947"/>
<polygon fill="#191970" stroke="#191970" points="483.383,-243.2551 492.2914,-237.5201 481.7509,-236.448 483.383,-243.2551"/>
</g>
<!-- Node1915 -->
<g id="node18" class="node">
<title>Node1915</title>
<g id="a_node18"><a xlink:href="ring__buffer_8c.html#aeda03b2b446562da1c5f0b2164e8c21a" target="_top" xlink:title="Get the size of the ring buffer. ">
<polygon fill="none" stroke="#000000" points="628.5,-218.5 628.5,-237.5 725.5,-237.5 725.5,-218.5 628.5,-218.5"/>
<text text-anchor="middle" x="677" y="-225.5" font-family="Helvetica,sans-Serif" font-size="10.00" fill="#000000">fr_ring_buffer_size</text>
</a>
</g>
</g>
<!-- Node1909&#45;&gt;Node1915 -->
<g id="edge36" class="edge">
<title>Node1909&#45;&gt;Node1915</title>
<path fill="none" stroke="#191970" d="M439.2976,-262.3342C482.1042,-259.4242 539.0535,-254.5636 589,-247 601.6816,-245.0796 615.2755,-242.438 627.8936,-239.7349"/>
<polygon fill="#191970" stroke="#191970" points="628.7513,-243.13 637.7678,-237.5665 627.2498,-236.293 628.7513,-243.13"/>
</g>
<!-- Node1916 -->
<g id="node19" class="node">
<title>Node1916</title>
<g id="a_node19"><a xlink:href="message_8c.html#a189bcaac58671f1732fd0604a0cf96c1" target="_top" xlink:title="Allocate a message from a message ring. ">
<polygon fill="none" stroke="#000000" points="475,-332.5 475,-351.5 589,-351.5 589,-332.5 475,-332.5"/>
<text text-anchor="middle" x="532" y="-339.5" font-family="Helvetica,sans-Serif" font-size="10.00" fill="#000000">fr_message_ring_alloc</text>
</a>
</g>
</g>
<!-- Node1909&#45;&gt;Node1916 -->
<g id="edge29" class="edge">
<title>Node1909&#45;&gt;Node1916</title>
<path fill="none" stroke="#191970" d="M388.5076,-275.6271C407.9156,-287.7926 443.0287,-308.8481 475,-323 479.8244,-325.1355 484.9674,-327.1688 490.1148,-329.0569"/>
<polygon fill="#191970" stroke="#191970" points="489.3415,-332.4946 499.9364,-332.4978 491.656,-325.8882 489.3415,-332.4946"/>
</g>
<!-- Node1917 -->
<g id="node20" class="node">
<title>Node1917</title>
<g id="a_node20"><a xlink:href="ring__buffer_8c.html#a591806571da212855676ba71c75c790c" target="_top" xlink:title="Create a ring buffer. ">
<polygon fill="none" stroke="#000000" points="479,-294.5 479,-313.5 585,-313.5 585,-294.5 479,-294.5"/>
<text text-anchor="middle" x="532" y="-301.5" font-family="Helvetica,sans-Serif" font-size="10.00" fill="#000000">fr_ring_buffer_create</text>
</a>
</g>
</g>
<!-- Node1909&#45;&gt;Node1917 -->
<g id="edge34" class="edge">
<title>Node1909&#45;&gt;Node1917</title>
<path fill="none" stroke="#191970" d="M413.4962,-275.589C434.412,-280.6035 460.2081,-286.7881 482.3864,-292.1053"/>
<polygon fill="#191970" stroke="#191970" points="481.7509,-295.552 492.2914,-294.4799 483.383,-288.7449 481.7509,-295.552"/>
</g>
<!-- Node1911 -->
<g id="node16" class="node">
<title>Node1911</title>
<g id="a_node16"><a xlink:href="message_8c.html#ac0c83157e3b8f42b8a6f8cdaca139657" target="_top" xlink:title="Clean up messages in a message ring. ">
<polygon fill="none" stroke="#ff0000" points="625,-294.5 625,-313.5 729,-313.5 729,-294.5 625,-294.5"/>
<text text-anchor="middle" x="677" y="-301.5" font-family="Helvetica,sans-Serif" font-size="10.00" fill="#000000">fr_message_ring_gc</text>
</a>
</g>
</g>
<!-- Node1910&#45;&gt;Node1911 -->
<g id="edge26" class="edge">
<title>Node1910&#45;&gt;Node1911</title>
<path fill="none" stroke="#191970" d="M550.3644,-237.6255C575.423,-250.7597 620.5283,-274.401 649.5945,-289.6358"/>
<polygon fill="#191970" stroke="#191970" points="648.3028,-292.9103 658.7848,-294.4527 651.5525,-286.7103 648.3028,-292.9103"/>
</g>
<!-- Node1914 -->
<g id="node17" class="node">
<title>Node1914</title>
<g id="a_node17"><a xlink:href="ring__buffer_8c.html#acdecd6b0ab63bb0a57dcfc59f45d02a8" target="_top" xlink:title="Get the amount of data used in a ring buffer. ">
<polygon fill="none" stroke="#000000" points="627,-180.5 627,-199.5 727,-199.5 727,-180.5 627,-180.5"/>
<text text-anchor="middle" x="677" y="-187.5" font-family="Helvetica,sans-Serif" font-size="10.00" fill="#000000">fr_ring_buffer_used</text>
</a>
</g>
</g>
<!-- Node1910&#45;&gt;Node1914 -->
<g id="edge27" class="edge">
<title>Node1910&#45;&gt;Node1914</title>
<path fill="none" stroke="#191970" d="M568.5896,-218.411C587.4654,-213.4642 610.6859,-207.3789 630.7879,-202.1108"/>
<polygon fill="#191970" stroke="#191970" points="631.8875,-205.4409 640.6735,-199.5201 630.1129,-198.6695 631.8875,-205.4409"/>
</g>
<!-- Node1910&#45;&gt;Node1915 -->
<g id="edge28" class="edge">
<title>Node1910&#45;&gt;Node1915</title>
<path fill="none" stroke="#191970" d="M573.5512,-228C587.4221,-228 603.1538,-228 618.0877,-228"/>
<polygon fill="#191970" stroke="#191970" points="618.2664,-231.5001 628.2664,-228 618.2664,-224.5001 618.2664,-231.5001"/>
</g>
<!-- Node1916&#45;&gt;Node1281 -->
<g id="edge32" class="edge">
<title>Node1916&#45;&gt;Node1281</title>
<path fill="none" stroke="#191970" d="M568.5896,-351.589C587.4654,-356.5358 610.6859,-362.6211 630.7879,-367.8892"/>
<polygon fill="#191970" stroke="#191970" points="630.1129,-371.3305 640.6735,-370.4799 631.8875,-364.5591 630.1129,-371.3305"/>
</g>
<!-- Node1916&#45;&gt;Node1282 -->
<g id="edge31" class="edge">
<title>Node1916&#45;&gt;Node1282</title>
<path fill="none" stroke="#191970" d="M589.1733,-338.6076C628.6431,-335.7479 682.2356,-330.8392 729,-323 740.0776,-321.143 751.9069,-318.6031 762.9485,-315.9848"/>
<polygon fill="#191970" stroke="#191970" points="763.9379,-319.3461 772.8232,-313.5754 762.2785,-312.5456 763.9379,-319.3461"/>
</g>
<!-- Node1916&#45;&gt;Node1911 -->
<g id="edge30" class="edge">
<title>Node1916&#45;&gt;Node1911</title>
<path fill="none" stroke="#191970" d="M568.5896,-332.411C587.4654,-327.4642 610.6859,-321.3789 630.7879,-316.1108"/>
<polygon fill="#191970" stroke="#191970" points="631.8875,-319.4409 640.6735,-313.5201 630.1129,-312.6695 631.8875,-319.4409"/>
</g>
<!-- Node1917&#45;&gt;Node1282 -->
<g id="edge35" class="edge">
<title>Node1917&#45;&gt;Node1282</title>
<path fill="none" stroke="#191970" d="M569.7426,-294.4904C586.5406,-290.7254 606.6368,-286.8566 625,-285 670.9878,-280.3503 683.0993,-279.5579 729,-285 741.2572,-286.4533 754.3647,-289.1327 766.3092,-292.0305"/>
<polygon fill="#191970" stroke="#191970" points="765.4714,-295.4287 776.0249,-294.4937 767.1917,-288.6434 765.4714,-295.4287"/>
</g>
<!-- Node1918&#45;&gt;Node1282 -->
<g id="edge42" class="edge">
<title>Node1918&#45;&gt;Node1282</title>
<path fill="none" stroke="#191970" d="M412.6695,-174.9981C481.705,-151.2124 627.3412,-113.1437 729,-171 772.0315,-195.4902 794.0555,-253.6836 803.0122,-284.3361"/>
<polygon fill="#191970" stroke="#191970" points="799.716,-285.5509 805.7355,-294.2697 806.4669,-283.7001 799.716,-285.5509"/>
</g>
<!-- Node1918&#45;&gt;Node1444 -->
<g id="edge45" class="edge">
<title>Node1918&#45;&gt;Node1444</title>
<path fill="none" stroke="#191970" d="M386.0452,-174.687C403.8239,-153.9031 438.2935,-116.8556 475,-95 478.431,-92.9571 482.1105,-91.1003 485.8874,-89.4197"/>
<polygon fill="#191970" stroke="#191970" points="487.4178,-92.5768 495.3905,-85.5992 484.8067,-86.082 487.4178,-92.5768"/>
</g>
<!-- Node1918&#45;&gt;Node1910 -->
<g id="edge41" class="edge">
<title>Node1918&#45;&gt;Node1910</title>
<path fill="none" stroke="#191970" d="M427.1609,-202.8651C444.8785,-207.1128 464.5075,-211.8188 481.9446,-215.9993"/>
<polygon fill="#191970" stroke="#191970" points="481.3865,-219.4647 491.927,-218.3926 483.0185,-212.6575 481.3865,-219.4647"/>
</g>
<!-- Node1918&#45;&gt;Node1915 -->
<g id="edge44" class="edge">
<title>Node1918&#45;&gt;Node1915</title>
<path fill="none" stroke="#191970" d="M427.3007,-192.876C471.03,-195.6615 534.226,-200.7053 589,-209 601.6816,-210.9204 615.2755,-213.562 627.8936,-216.2651"/>
<polygon fill="#191970" stroke="#191970" points="627.2498,-219.707 637.7678,-218.4335 628.7513,-212.87 627.2498,-219.707"/>
</g>
<!-- Node1918&#45;&gt;Node1917 -->
<g id="edge43" class="edge">
<title>Node1918&#45;&gt;Node1917</title>
<path fill="none" stroke="#191970" d="M394.5476,-205.1383C424.7451,-226.8577 480.0698,-266.6496 510.5104,-288.5437"/>
<polygon fill="#191970" stroke="#191970" points="508.5875,-291.472 518.7495,-294.4696 512.6748,-285.7892 508.5875,-291.472"/>
</g>
<!-- Node1918&#45;&gt;Node1919 -->
<g id="edge39" class="edge">
<title>Node1918&#45;&gt;Node1919</title>
<path fill="none" stroke="#191970" d="M401.6573,-174.856C421.8735,-164.1603 449.8738,-149.706 475,-138 482.6806,-134.4217 491.0423,-130.769 498.9353,-127.4276"/>
<polygon fill="#191970" stroke="#191970" points="500.377,-130.6185 508.2534,-123.5324 497.6772,-124.1601 500.377,-130.6185"/>
</g>
<!-- Node1919&#45;&gt;Node1282 -->
<g id="edge40" class="edge">
<title>Node1919&#45;&gt;Node1282</title>
<path fill="none" stroke="#191970" d="M587.6846,-107.1844C630.2392,-104.9638 688.314,-108.7124 729,-138 778.5523,-173.6699 798.161,-248.7232 804.9076,-284.3836"/>
<polygon fill="#191970" stroke="#191970" points="801.5018,-285.2275 806.6677,-294.4776 808.3978,-284.0249 801.5018,-285.2275"/>
</g>
</g>
</svg>
        <g id="navigator" transform="translate(0 0)" fill="#404254">
                <rect fill="#f2f5e9" fill-opacity="0.5" stroke="#606060" stroke-width=".5" x="0" y="0" width="60" height="60"/>
                <use id="zoomplus" xlink:href="#zoomPlus" x="17" y="9" onmousedown="handleZoom(evt,'in')"/>
                <use id="zoomminus" xlink:href="#zoomMin" x="42" y="9" onmousedown="handleZoom(evt,'out')"/>
                <use id="reset" xlink:href="#resetDef" x="30" y="36" onmousedown="handleReset()"/>
                <g id="arrowUp" xlink:href="#dirArrow" transform="translate(30 24)" onmousedown="handlePan(0,-1)">
                  <use xlink:href="#rim" fill="#404040">
                        <set attributeName="fill" to="#808080" begin="arrowUp.mouseover" end="arrowUp.mouseout"/>
                  </use>
                  <path fill="none" stroke="white" stroke-width="1.5" d="M0,-3.0v7 M-2.5,-0.5L0,-3.0L2.5,-0.5"/>
                </g>
                <g id="arrowRight" xlink:href="#dirArrow" transform="rotate(90) translate(36 -43)" onmousedown="handlePan(1,0)">
                  <use xlink:href="#rim" fill="#404040">
                        <set attributeName="fill" to="#808080" begin="arrowRight.mouseover" end="arrowRight.mouseout"/>
                  </use>
                  <path fill="none" stroke="white" stroke-width="1.5" d="M0,-3.0v7 M-2.5,-0.5L0,-3.0L2.5,-0.5"/>
                </g>
                <g id="arrowDown" xlink:href="#dirArrow" transform="rotate(180) translate(-30 -48)" onmousedown="handlePan(0,1)">
                  <use xlink:href="#rim" fill="#404040">
                        <set attributeName="fill" to="#808080" begin="arrowDown.mouseover" end="arrowDown.mouseout"/>
                  </use>
                  <path fill="none" stroke="white" stroke-width="1.5" d="M0,-3.0v7 M-2.5,-0.5L0,-3.0L2.5,-0.5"/>
                </g>
                <g id="arrowLeft" xlink:href="#dirArrow" transform="rotate(270) translate(-36 17)" onmousedown="handlePan(-1,0)">
                  <use xlink:href="#rim" fill="#404040">
                        <set attributeName="fill" to="#808080" begin="arrowLeft.mouseover" end="arrowLeft.mouseout"/>
                  </use>
                  <path fill="none" stroke="white" stroke-width="1.5" d="M0,-3.0v7 M-2.5,-0.5L0,-3.0L2.5,-0.5"/>
                </g>
        </g>
        <svg viewBox="0 0 15 15" width="100%" height="30px" preserveAspectRatio="xMaxYMin meet">
         <g id="arrow_out" transform="scale(0.3 0.3)">
          <a xlink:href="message_8c_aeee3e9ba6cd5c0b87e7ac67c6e06719a_cgraph_org.svg" target="_base">
           <rect id="button" ry="5" rx="5" y="6" x="6" height="38" width="38"
                fill="#f2f5e9" fill-opacity="0.5" stroke="#606060" stroke-width="1.0"/>
           <path id="arrow"
             d="M 11.500037,31.436501 C 11.940474,20.09759 22.043105,11.32322 32.158766,21.979434 L 37.068811,17.246167 C 37.068811,17.246167 37.088388,32 37.088388,32 L 22.160133,31.978069 C 22.160133,31.978069 26.997745,27.140456 26.997745,27.140456 C 18.528582,18.264221 13.291696,25.230495 11.500037,31.436501 z"
             style="fill:#404040;"/>
          </a>
         </g>
        </svg>
</svg>
