<?xml version="1.0" encoding="UTF-8" standalone="no"?>
<!DOCTYPE svg PUBLIC "-//W3C//DTD SVG 1.1//EN"
 "http://www.w3.org/Graphics/SVG/1.1/DTD/svg11.dtd">
<!-- Generated by graphviz version 2.40.1 (20161225.0304)
 -->
<!-- Title: client_socket Pages: 1 -->
<svg width="977pt" height="408pt"
 viewBox="0.00 0.00 977.00 408.00" xmlns="http://www.w3.org/2000/svg" xmlns:xlink="http://www.w3.org/1999/xlink">
<g id="graph0" class="graph" transform="scale(1 1) rotate(0) translate(4 404)">
<title>client_socket</title>
<!-- Node748 -->
<g id="node1" class="node">
<title>Node748</title>
<polygon fill="#bfbfbf" stroke="#000000" points="0,-323.5 0,-342.5 74,-342.5 74,-323.5 0,-323.5"/>
<text text-anchor="middle" x="37" y="-330.5" font-family="Helvetica,sans-Serif" font-size="10.00" fill="#000000">client_socket</text>
</g>
<!-- Node749 -->
<g id="node2" class="node">
<title>Node749</title>
<g id="a_node2"><a xlink:href="strlcpy_8c.html#a59f9599e77ee687b1daaa179f8b9a2f3" target="_top" xlink:title="strlcpy">
<polygon fill="none" stroke="#000000" points="433,-380.5 433,-399.5 479,-399.5 479,-380.5 433,-380.5"/>
<text text-anchor="middle" x="456" y="-387.5" font-family="Helvetica,sans-Serif" font-size="10.00" fill="#000000">strlcpy</text>
</a>
</g>
</g>
<!-- Node748&#45;&gt;Node749 -->
<g id="edge1" class="edge">
<title>Node748&#45;&gt;Node749</title>
<path fill="none" stroke="#191970" d="M63.0213,-342.5827C76.8086,-347.3054 94.1316,-352.6844 110,-356 223.0998,-379.6314 360.5199,-386.9325 422.6502,-389.1122"/>
<polygon fill="#191970" stroke="#191970" points="422.5483,-392.6106 432.658,-389.4412 422.7784,-385.6144 422.5483,-392.6106"/>
</g>
<!-- Node750 -->
<g id="node3" class="node">
<title>Node750</title>
<g id="a_node3"><a xlink:href="inet_8c.html#a4214d38cc4c6b08827c1ffa9b9456b4c" target="_top" xlink:title="Wrappers for IPv4/IPv6 host to IP address lookup. ">
<polygon fill="none" stroke="#000000" points="128,-190.5 128,-209.5 196,-209.5 196,-190.5 128,-190.5"/>
<text text-anchor="middle" x="162" y="-197.5" font-family="Helvetica,sans-Serif" font-size="10.00" fill="#000000">fr_inet_hton</text>
</a>
</g>
</g>
<!-- Node748&#45;&gt;Node750 -->
<g id="edge2" class="edge">
<title>Node748&#45;&gt;Node750</title>
<path fill="none" stroke="#191970" d="M45.9897,-323.435C66.8791,-301.2086 118.9435,-245.8121 145.6435,-217.4033"/>
<polygon fill="#191970" stroke="#191970" points="148.4564,-219.521 152.7545,-209.8372 143.3556,-214.7271 148.4564,-219.521"/>
</g>
<!-- Node825 -->
<g id="node24" class="node">
<title>Node825</title>
<g id="a_node24"><a xlink:href="syserror_8c.html#a18747f9d648d0aeecc4a8b27ac0435aa" target="_top" xlink:title="Guaranteed to be thread&#45;safe version of strerror. ">
<polygon fill="none" stroke="#ff0000" points="280.5,-342.5 280.5,-361.5 343.5,-361.5 343.5,-342.5 280.5,-342.5"/>
<text text-anchor="middle" x="312" y="-349.5" font-family="Helvetica,sans-Serif" font-size="10.00" fill="#000000">fr_syserror</text>
</a>
</g>
</g>
<!-- Node748&#45;&gt;Node825 -->
<g id="edge32" class="edge">
<title>Node748&#45;&gt;Node825</title>
<path fill="none" stroke="#191970" d="M74.0877,-335.5624C125.0798,-339.0855 216.583,-345.4076 270.0255,-349.0999"/>
<polygon fill="#191970" stroke="#191970" points="269.9658,-352.6041 280.1833,-349.8018 270.4483,-345.6207 269.9658,-352.6041"/>
</g>
<!-- Node1132 -->
<g id="node25" class="node">
<title>Node1132</title>
<g id="a_node25"><a xlink:href="socket_8c.html#af9431bac87dba0fce4119b6cdabaa54d" target="_top" xlink:title="Establish a connected TCP socket. ">
<polygon fill="none" stroke="#ff0000" points="110,-304.5 110,-323.5 214,-323.5 214,-304.5 110,-304.5"/>
<text text-anchor="middle" x="162" y="-311.5" font-family="Helvetica,sans-Serif" font-size="10.00" fill="#000000">fr_socket_client_tcp</text>
</a>
</g>
</g>
<!-- Node748&#45;&gt;Node1132 -->
<g id="edge35" class="edge">
<title>Node748&#45;&gt;Node1132</title>
<path fill="none" stroke="#191970" d="M74.1657,-327.3508C82.3226,-326.111 91.1725,-324.7658 100.0088,-323.4227"/>
<polygon fill="#191970" stroke="#191970" points="100.5815,-326.8759 109.9419,-321.9128 99.5295,-319.9554 100.5815,-326.8759"/>
</g>
<!-- Node751 -->
<g id="node4" class="node">
<title>Node751</title>
<g id="a_node4"><a xlink:href="missing_8c.html#a24a9bd0a8c41fbeec0de754395d6a15b" target="_top" xlink:title="inet_pton">
<polygon fill="none" stroke="#000000" points="284,-48.5 284,-67.5 340,-67.5 340,-48.5 284,-48.5"/>
<text text-anchor="middle" x="312" y="-55.5" font-family="Helvetica,sans-Serif" font-size="10.00" fill="#000000">inet_pton</text>
</a>
</g>
</g>
<!-- Node750&#45;&gt;Node751 -->
<g id="edge3" class="edge">
<title>Node750&#45;&gt;Node751</title>
<path fill="none" stroke="#191970" d="M169.3311,-190.313C183.6363,-171.7593 216.7876,-130.4405 250,-101 261.5608,-90.7521 275.6284,-80.8203 287.4395,-73.0882"/>
<polygon fill="#191970" stroke="#191970" points="289.4196,-75.9764 295.9527,-67.6355 285.6441,-70.0818 289.4196,-75.9764"/>
</g>
<!-- Node753 -->
<g id="node6" class="node">
<title>Node753</title>
<g id="a_node6"><a xlink:href="strerror_8c.html#ae701765650b8aea79a3037bc4921d7f8" target="_top" xlink:title="Log to thread local error buffer. ">
<polygon fill="none" stroke="#000000" points="413,-266.5 413,-285.5 499,-285.5 499,-266.5 413,-266.5"/>
<text text-anchor="middle" x="456" y="-273.5" font-family="Helvetica,sans-Serif" font-size="10.00" fill="#000000">fr_strerror_printf</text>
</a>
</g>
</g>
<!-- Node750&#45;&gt;Node753 -->
<g id="edge5" class="edge">
<title>Node750&#45;&gt;Node753</title>
<path fill="none" stroke="#191970" d="M196.0127,-208.7924C248.5948,-222.385 349.7452,-248.5328 409.1909,-263.8997"/>
<polygon fill="#191970" stroke="#191970" points="408.5139,-267.3397 419.0717,-266.4539 410.2659,-260.5625 408.5139,-267.3397"/>
</g>
<!-- Node1367 -->
<g id="node15" class="node">
<title>Node1367</title>
<g id="a_node15"><a xlink:href="getaddrinfo_8c.html#a3936b3fb84f0d8eb86bae6bc16dc53d7" target="_top" xlink:title="getaddrinfo">
<polygon fill="none" stroke="#000000" points="279.5,-152.5 279.5,-171.5 344.5,-171.5 344.5,-152.5 279.5,-152.5"/>
<text text-anchor="middle" x="312" y="-159.5" font-family="Helvetica,sans-Serif" font-size="10.00" fill="#000000">getaddrinfo</text>
</a>
</g>
</g>
<!-- Node750&#45;&gt;Node1367 -->
<g id="edge21" class="edge">
<title>Node750&#45;&gt;Node1367</title>
<path fill="none" stroke="#191970" d="M196.0373,-191.3772C217.7978,-185.8646 246.1946,-178.6707 269.4408,-172.7817"/>
<polygon fill="#191970" stroke="#191970" points="270.5501,-176.1113 279.3843,-170.2626 268.831,-169.3256 270.5501,-176.1113"/>
</g>
<!-- Node1372 -->
<g id="node21" class="node">
<title>Node1372</title>
<g id="a_node21"><a xlink:href="getaddrinfo_8c.html#a5996eed1e393834ce228347f23443db9" target="_top" xlink:title="freeaddrinfo">
<polygon fill="none" stroke="#000000" points="422,-76.5 422,-95.5 490,-95.5 490,-76.5 422,-76.5"/>
<text text-anchor="middle" x="456" y="-83.5" font-family="Helvetica,sans-Serif" font-size="10.00" fill="#000000">freeaddrinfo</text>
</a>
</g>
</g>
<!-- Node750&#45;&gt;Node1372 -->
<g id="edge29" class="edge">
<title>Node750&#45;&gt;Node1372</title>
<path fill="none" stroke="#191970" d="M174.1283,-190.4135C190.4909,-177.8992 220.9446,-156.0577 250,-143 303.3131,-119.0407 369.0071,-102.9862 411.6635,-94.1795"/>
<polygon fill="#191970" stroke="#191970" points="412.6154,-97.558 421.7252,-92.1486 411.2303,-90.6964 412.6154,-97.558"/>
</g>
<!-- Node1373 -->
<g id="node22" class="node">
<title>Node1373</title>
<g id="a_node22"><a xlink:href="getaddrinfo_8c.html#a66b77c75f66e947388c74a8b89c83d41" target="_top" xlink:title="gai_strerror">
<polygon fill="none" stroke="#000000" points="279.5,-266.5 279.5,-285.5 344.5,-285.5 344.5,-266.5 279.5,-266.5"/>
<text text-anchor="middle" x="312" y="-273.5" font-family="Helvetica,sans-Serif" font-size="10.00" fill="#000000">gai_strerror</text>
</a>
</g>
</g>
<!-- Node750&#45;&gt;Node1373 -->
<g id="edge28" class="edge">
<title>Node750&#45;&gt;Node1373</title>
<path fill="none" stroke="#191970" d="M176.5371,-209.5979C193.6593,-220.6622 223.1749,-238.9916 250,-252 257.9124,-255.837 266.6066,-259.5158 274.9165,-262.7908"/>
<polygon fill="#191970" stroke="#191970" points="273.8348,-266.1245 284.425,-266.4351 276.34,-259.5881 273.8348,-266.1245"/>
</g>
<!-- Node1144 -->
<g id="node23" class="node">
<title>Node1144</title>
<g id="a_node23"><a xlink:href="inet_8c.html#a54d4d911c16d1cd8023694973224e725" target="_top" xlink:title="Convert sockaddr to our internal ip address representation. ">
<polygon fill="none" stroke="#000000" points="250,-190.5 250,-209.5 374,-209.5 374,-190.5 250,-190.5"/>
<text text-anchor="middle" x="312" y="-197.5" font-family="Helvetica,sans-Serif" font-size="10.00" fill="#000000">fr_ipaddr_from_sockaddr</text>
</a>
</g>
</g>
<!-- Node750&#45;&gt;Node1144 -->
<g id="edge30" class="edge">
<title>Node750&#45;&gt;Node1144</title>
<path fill="none" stroke="#191970" d="M196.0373,-200C208.9598,-200 224.2227,-200 239.3574,-200"/>
<polygon fill="#191970" stroke="#191970" points="239.7845,-203.5001 249.7845,-200 239.7845,-196.5001 239.7845,-203.5001"/>
</g>
<!-- Node752 -->
<g id="node5" class="node">
<title>Node752</title>
<g id="a_node5"><a xlink:href="missing_8c.html#aeafaf8add9d530f29ec8f8ef06170ddf" target="_top" xlink:title="inet_pton4">
<polygon fill="none" stroke="#000000" points="425,-38.5 425,-57.5 487,-57.5 487,-38.5 425,-38.5"/>
<text text-anchor="middle" x="456" y="-45.5" font-family="Helvetica,sans-Serif" font-size="10.00" fill="#000000">inet_pton4</text>
</a>
</g>
</g>
<!-- Node751&#45;&gt;Node752 -->
<g id="edge4" class="edge">
<title>Node751&#45;&gt;Node752</title>
<path fill="none" stroke="#191970" d="M340.1065,-56.0482C361.3533,-54.5727 390.8465,-52.5246 414.7625,-50.8637"/>
<polygon fill="#191970" stroke="#191970" points="415.2353,-54.3394 424.9688,-50.1549 414.7503,-47.3562 415.2353,-54.3394"/>
</g>
<!-- Node754 -->
<g id="node7" class="node">
<title>Node754</title>
<g id="a_node7"><a xlink:href="acutest_8h.html#aecf9a9be8105efb1454cd8c1ef6cb1c5" target="_top" xlink:title="va_start">
<polygon fill="none" stroke="#000000" points="917,-266.5 917,-285.5 969,-285.5 969,-266.5 917,-266.5"/>
<text text-anchor="middle" x="943" y="-273.5" font-family="Helvetica,sans-Serif" font-size="10.00" fill="#000000">va_start</text>
</a>
</g>
</g>
<!-- Node753&#45;&gt;Node754 -->
<g id="edge6" class="edge">
<title>Node753&#45;&gt;Node754</title>
<path fill="none" stroke="#191970" d="M499.2622,-284.4662C511.7204,-286.6103 525.3599,-288.6778 538,-290 636.1561,-300.2676 661.4403,-300.1028 760,-295 810.9529,-292.362 869.5666,-285.6189 906.4443,-280.9205"/>
<polygon fill="#191970" stroke="#191970" points="907.2326,-284.3479 916.7014,-279.5949 906.3353,-277.4056 907.2326,-284.3479"/>
</g>
<!-- Node755 -->
<g id="node8" class="node">
<title>Node755</title>
<g id="a_node8"><a xlink:href="strerror_8c.html#a193b1e0b3712e3bbee338812c06af482" target="_top" xlink:title="fr_strerror_vprintf">
<polygon fill="none" stroke="#000000" points="538,-190.5 538,-209.5 629,-209.5 629,-190.5 538,-190.5"/>
<text text-anchor="middle" x="583.5" y="-197.5" font-family="Helvetica,sans-Serif" font-size="10.00" fill="#000000">fr_strerror_vprintf</text>
</a>
</g>
</g>
<!-- Node753&#45;&gt;Node755 -->
<g id="edge7" class="edge">
<title>Node753&#45;&gt;Node755</title>
<path fill="none" stroke="#191970" d="M482.2519,-266.3158C488.8326,-263.5755 495.7855,-260.4031 502,-257 524.1061,-244.8945 547.4999,-228.0622 563.5258,-215.8291"/>
<polygon fill="#191970" stroke="#191970" points="565.8517,-218.4548 571.6161,-209.5654 561.5663,-212.9198 565.8517,-218.4548"/>
</g>
<!-- Node758 -->
<g id="node11" class="node">
<title>Node758</title>
<g id="a_node11"><a xlink:href="acutest_8h.html#a36af1f79dd6adf0809c21e76535034d5" target="_top" xlink:title="va_end">
<polygon fill="none" stroke="#000000" points="919,-171.5 919,-190.5 967,-190.5 967,-171.5 919,-171.5"/>
<text text-anchor="middle" x="943" y="-178.5" font-family="Helvetica,sans-Serif" font-size="10.00" fill="#000000">va_end</text>
</a>
</g>
</g>
<!-- Node753&#45;&gt;Node758 -->
<g id="edge20" class="edge">
<title>Node753&#45;&gt;Node758</title>
<path fill="none" stroke="#191970" d="M488.0489,-266.398C493.1129,-263.9024 497.9919,-260.8099 502,-257 529.0896,-231.2495 513.4351,-209.1692 538,-181 582.3177,-130.1796 600.4489,-117.4914 665,-98 756.9028,-70.2497 795.2992,-53.7384 881,-97 907.8538,-110.5558 925.9467,-141.8385 935.3519,-162.1668"/>
<polygon fill="#191970" stroke="#191970" points="932.17,-163.6264 939.3753,-171.3938 938.5865,-160.8284 932.17,-163.6264"/>
</g>
<!-- Node756 -->
<g id="node9" class="node">
<title>Node756</title>
<g id="a_node9"><a xlink:href="strerror_8c.html#a42c2cc9f76fb9dac723a1903c181e1c7" target="_top" xlink:title="Initialise thread local storage. ">
<polygon fill="none" stroke="#ff0000" points="674,-152.5 674,-171.5 751,-171.5 751,-152.5 674,-152.5"/>
<text text-anchor="middle" x="712.5" y="-159.5" font-family="Helvetica,sans-Serif" font-size="10.00" fill="#000000">fr_strerror_init</text>
</a>
</g>
</g>
<!-- Node755&#45;&gt;Node756 -->
<g id="edge8" class="edge">
<title>Node755&#45;&gt;Node756</title>
<path fill="none" stroke="#191970" d="M616.0521,-190.411C632.3993,-185.5956 652.4092,-179.7012 669.9571,-174.532"/>
<polygon fill="#191970" stroke="#191970" points="671.3548,-177.7691 679.9583,-171.5859 669.3768,-171.0543 671.3548,-177.7691"/>
</g>
<!-- Node757 -->
<g id="node10" class="node">
<title>Node757</title>
<g id="a_node10"><a xlink:href="strerror_8c.html#a2c8e65d6d4b73fb705cc023f60acb099" target="_top" xlink:title="Print the current error to stderr with a prefix. ">
<polygon fill="none" stroke="#ff0000" points="812,-228.5 812,-247.5 865,-247.5 865,-228.5 812,-228.5"/>
<text text-anchor="middle" x="838.5" y="-235.5" font-family="Helvetica,sans-Serif" font-size="10.00" fill="#000000">fr_perror</text>
</a>
</g>
</g>
<!-- Node755&#45;&gt;Node757 -->
<g id="edge14" class="edge">
<title>Node755&#45;&gt;Node757</title>
<path fill="none" stroke="#191970" d="M620.2295,-209.5498C634.1744,-212.9147 650.2488,-216.4822 665,-219 711.83,-226.9932 766.3741,-232.3222 801.6194,-235.2522"/>
<polygon fill="#191970" stroke="#191970" points="801.6583,-238.7667 811.9081,-236.0848 802.223,-231.7895 801.6583,-238.7667"/>
</g>
<!-- Node755&#45;&gt;Node758 -->
<g id="edge18" class="edge">
<title>Node755&#45;&gt;Node758</title>
<path fill="none" stroke="#191970" d="M590.7542,-190.3846C603.6235,-174.1973 632.2037,-142.0006 665,-129 754.2679,-93.6139 791.5319,-89.1232 881,-124 901.1152,-131.8414 918.6523,-149.5999 929.8933,-163.2268"/>
<polygon fill="#191970" stroke="#191970" points="927.4093,-165.731 936.335,-171.4392 932.9171,-161.4108 927.4093,-165.731"/>
</g>
<!-- Node764 -->
<g id="node12" class="node">
<title>Node764</title>
<g id="a_node12"><a xlink:href="strerror_8c.html#a9d878c1ddb1b385cdaf6523fff68529c" target="_top" xlink:title="Reset cursor state. ">
<polygon fill="none" stroke="#000000" points="796,-133.5 796,-152.5 881,-152.5 881,-133.5 796,-133.5"/>
<text text-anchor="middle" x="838.5" y="-140.5" font-family="Helvetica,sans-Serif" font-size="10.00" fill="#000000">fr_strerror_clear</text>
</a>
</g>
</g>
<!-- Node755&#45;&gt;Node764 -->
<g id="edge13" class="edge">
<title>Node755&#45;&gt;Node764</title>
<path fill="none" stroke="#191970" d="M592.9461,-190.3807C607.1067,-176.7242 635.3563,-152.3377 665,-143 704.0923,-130.6861 750.6437,-131.4623 785.681,-134.8922"/>
<polygon fill="#191970" stroke="#191970" points="785.3837,-138.3803 795.7019,-135.9754 786.1361,-131.4209 785.3837,-138.3803"/>
</g>
<!-- Node765 -->
<g id="node13" class="node">
<title>Node765</title>
<g id="a_node13"><a xlink:href="print_8c.html#a27ae94b5a4c77de49aa2f387765a4d58" target="_top" xlink:title="Special version of vasprintf which implements custom format specifiers. ">
<polygon fill="none" stroke="#ff0000" points="680,-266.5 680,-285.5 745,-285.5 745,-266.5 680,-266.5"/>
<text text-anchor="middle" x="712.5" y="-273.5" font-family="Helvetica,sans-Serif" font-size="10.00" fill="#000000">fr_vasprintf</text>
</a>
</g>
</g>
<!-- Node755&#45;&gt;Node765 -->
<g id="edge15" class="edge">
<title>Node755&#45;&gt;Node765</title>
<path fill="none" stroke="#191970" d="M597.6606,-209.6479C613.7104,-220.4376 640.792,-238.2074 665,-252 670.7951,-255.3018 677.0989,-258.6498 683.1637,-261.7555"/>
<polygon fill="#191970" stroke="#191970" points="681.8834,-265.0293 692.3899,-266.3948 685.0282,-258.7754 681.8834,-265.0293"/>
</g>
<!-- Node905 -->
<g id="node14" class="node">
<title>Node905</title>
<g id="a_node14"><a xlink:href="cursor_8c.html#a5d942382660657c3b4cb6e9cb2b12b2c" target="_top" xlink:title="Insert a single item at the start of the list. ">
<polygon fill="none" stroke="#000000" points="665,-190.5 665,-209.5 760,-209.5 760,-190.5 665,-190.5"/>
<text text-anchor="middle" x="712.5" y="-197.5" font-family="Helvetica,sans-Serif" font-size="10.00" fill="#000000">fr_cursor_prepend</text>
</a>
</g>
</g>
<!-- Node755&#45;&gt;Node905 -->
<g id="edge19" class="edge">
<title>Node755&#45;&gt;Node905</title>
<path fill="none" stroke="#191970" d="M629.3438,-200C637.4784,-200 646.0463,-200 654.4656,-200"/>
<polygon fill="#191970" stroke="#191970" points="654.6227,-203.5001 664.6227,-200 654.6227,-196.5001 654.6227,-203.5001"/>
</g>
<!-- Node756&#45;&gt;Node757 -->
<g id="edge9" class="edge">
<title>Node756&#45;&gt;Node757</title>
<path fill="none" stroke="#191970" d="M739.6642,-171.5236C746.4584,-174.267 753.6235,-177.481 760,-181 781.3251,-192.7685 803.6079,-209.4308 818.961,-221.7021"/>
<polygon fill="#191970" stroke="#191970" points="817.1725,-224.7588 827.1403,-228.3497 821.5875,-219.3266 817.1725,-224.7588"/>
</g>
<!-- Node756&#45;&gt;Node764 -->
<g id="edge12" class="edge">
<title>Node756&#45;&gt;Node764</title>
<path fill="none" stroke="#191970" d="M751.3323,-156.1443C762.1819,-154.5083 774.1587,-152.7023 785.6701,-150.9664"/>
<polygon fill="#191970" stroke="#191970" points="786.2602,-154.4171 795.6265,-149.4651 785.2164,-147.4953 786.2602,-154.4171"/>
</g>
<!-- Node757&#45;&gt;Node754 -->
<g id="edge10" class="edge">
<title>Node757&#45;&gt;Node754</title>
<path fill="none" stroke="#191970" d="M864.8698,-247.589C877.6171,-252.2244 893.114,-257.8596 906.9347,-262.8853"/>
<polygon fill="#191970" stroke="#191970" points="906.0446,-266.2858 916.6387,-266.4141 908.4369,-259.7073 906.0446,-266.2858"/>
</g>
<!-- Node757&#45;&gt;Node758 -->
<g id="edge11" class="edge">
<title>Node757&#45;&gt;Node758</title>
<path fill="none" stroke="#191970" d="M856.227,-228.3307C872.7655,-219.3097 897.6567,-205.7327 916.5447,-195.4302"/>
<polygon fill="#191970" stroke="#191970" points="918.4318,-198.3877 925.5348,-190.5265 915.0798,-192.2424 918.4318,-198.3877"/>
</g>
<!-- Node765&#45;&gt;Node753 -->
<g id="edge17" class="edge">
<title>Node765&#45;&gt;Node753</title>
<path fill="none" stroke="#191970" d="M679.7092,-276C636.7349,-276 560.81,-276 509.4649,-276"/>
<polygon fill="#191970" stroke="#191970" points="509.2217,-272.5001 499.2217,-276 509.2216,-279.5001 509.2217,-272.5001"/>
</g>
<!-- Node765&#45;&gt;Node758 -->
<g id="edge16" class="edge">
<title>Node765&#45;&gt;Node758</title>
<path fill="none" stroke="#191970" d="M745.0727,-279.3224C780.6859,-281.4307 838.3581,-280.2618 881,-257 904.8381,-243.9959 923.0357,-217.7023 933.37,-199.7219"/>
<polygon fill="#191970" stroke="#191970" points="936.5625,-201.1787 938.2882,-190.7253 930.4203,-197.8209 936.5625,-201.1787"/>
</g>
<!-- Node839 -->
<g id="node16" class="node">
<title>Node839</title>
<g id="a_node16"><a xlink:href="acutest_8h.html#a8e9dc24bf3e8d87394046aef2654847f" target="_top" xlink:title="if">
<polygon fill="none" stroke="#000000" points="441.5,-190.5 441.5,-209.5 470.5,-209.5 470.5,-190.5 441.5,-190.5"/>
<text text-anchor="middle" x="456" y="-197.5" font-family="Helvetica,sans-Serif" font-size="10.00" fill="#000000">if</text>
</a>
</g>
</g>
<!-- Node1367&#45;&gt;Node839 -->
<g id="edge22" class="edge">
<title>Node1367&#45;&gt;Node839</title>
<path fill="none" stroke="#191970" d="M344.6758,-170.6228C371.1317,-177.6042 407.8056,-187.282 431.7138,-193.5912"/>
<polygon fill="#191970" stroke="#191970" points="430.8526,-196.9836 441.4147,-196.1511 432.6387,-190.2153 430.8526,-196.9836"/>
</g>
<!-- Node1368 -->
<g id="node17" class="node">
<title>Node1368</title>
<g id="a_node17"><a xlink:href="getaddrinfo_8c.html#ad0fe397cc7aa03194f4e096ae06fa7ca" target="_top" xlink:title="alloc_ai">
<polygon fill="none" stroke="#000000" points="431,-152.5 431,-171.5 481,-171.5 481,-152.5 431,-152.5"/>
<text text-anchor="middle" x="456" y="-159.5" font-family="Helvetica,sans-Serif" font-size="10.00" fill="#000000">alloc_ai</text>
</a>
</g>
</g>
<!-- Node1367&#45;&gt;Node1368 -->
<g id="edge23" class="edge">
<title>Node1367&#45;&gt;Node1368</title>
<path fill="none" stroke="#191970" d="M344.6758,-162C367.2712,-162 397.32,-162 420.5034,-162"/>
<polygon fill="#191970" stroke="#191970" points="420.6208,-165.5001 430.6207,-162 420.6207,-158.5001 420.6208,-165.5001"/>
</g>
<!-- Node1369 -->
<g id="node18" class="node">
<title>Node1369</title>
<g id="a_node18"><a xlink:href="missing_8c.html#ad5e6965177d13fe66dfa1e2e5ec07d61" target="_top" xlink:title="inet_aton">
<polygon fill="none" stroke="#000000" points="428,-114.5 428,-133.5 484,-133.5 484,-114.5 428,-114.5"/>
<text text-anchor="middle" x="456" y="-121.5" font-family="Helvetica,sans-Serif" font-size="10.00" fill="#000000">inet_aton</text>
</a>
</g>
</g>
<!-- Node1367&#45;&gt;Node1369 -->
<g id="edge24" class="edge">
<title>Node1367&#45;&gt;Node1369</title>
<path fill="none" stroke="#191970" d="M344.6758,-153.3772C366.5055,-147.6166 395.2922,-140.0201 418.1237,-133.9951"/>
<polygon fill="#191970" stroke="#191970" points="419.0506,-137.3704 427.8266,-131.4347 417.2645,-130.6021 419.0506,-137.3704"/>
</g>
<!-- Node1370 -->
<g id="node19" class="node">
<title>Node1370</title>
<g id="a_node19"><a xlink:href="getaddrinfo_8c.html#a746109d7b7f397cd336d6c1d8e50aec6" target="_top" xlink:title="gethostbyname_r">
<polygon fill="none" stroke="#000000" points="410,-228.5 410,-247.5 502,-247.5 502,-228.5 410,-228.5"/>
<text text-anchor="middle" x="456" y="-235.5" font-family="Helvetica,sans-Serif" font-size="10.00" fill="#000000">gethostbyname_r</text>
</a>
</g>
</g>
<!-- Node1367&#45;&gt;Node1370 -->
<g id="edge25" class="edge">
<title>Node1367&#45;&gt;Node1370</title>
<path fill="none" stroke="#191970" d="M344.5747,-168.5905C354.4854,-171.4681 365.101,-175.4839 374,-181 393.7738,-193.2569 390.8261,-205.8244 410,-219 412.5525,-220.754 415.2921,-222.3893 418.1162,-223.9048"/>
<polygon fill="#191970" stroke="#191970" points="416.7719,-227.1422 427.2993,-228.3357 419.8139,-220.8377 416.7719,-227.1422"/>
</g>
<!-- Node1367&#45;&gt;Node1372 -->
<g id="edge27" class="edge">
<title>Node1367&#45;&gt;Node1372</title>
<path fill="none" stroke="#191970" d="M331.2651,-152.3693C343.6437,-146.0293 359.9734,-137.3805 374,-129 390.5076,-119.1371 393.0317,-114.0474 410,-105 413.5025,-103.1325 417.2292,-101.3234 420.9868,-99.6119"/>
<polygon fill="#191970" stroke="#191970" points="422.4994,-102.771 430.2811,-95.5809 419.7141,-96.3489 422.4994,-102.771"/>
</g>
<!-- Node1371 -->
<g id="node20" class="node">
<title>Node1371</title>
<g id="a_node20"><a xlink:href="getaddrinfo_8c.html#a53d79a3d3bca8858a69c7018f907b1e7" target="_top" xlink:title="copy_hostent">
<polygon fill="none" stroke="#000000" points="546,-.5 546,-19.5 621,-19.5 621,-.5 546,-.5"/>
<text text-anchor="middle" x="583.5" y="-7.5" font-family="Helvetica,sans-Serif" font-size="10.00" fill="#000000">copy_hostent</text>
</a>
</g>
</g>
<!-- Node1370&#45;&gt;Node1371 -->
<g id="edge26" class="edge">
<title>Node1370&#45;&gt;Node1371</title>
<path fill="none" stroke="#191970" d="M490.2917,-228.4452C494.7303,-225.9756 498.8269,-222.879 502,-219 555.0373,-154.1653 488.0567,-101.247 538,-34 540.5759,-30.5316 543.803,-27.5171 547.3432,-24.9087"/>
<polygon fill="#191970" stroke="#191970" points="549.3557,-27.7792 556.0128,-19.537 545.6688,-21.8287 549.3557,-27.7792"/>
</g>
<!-- Node1144&#45;&gt;Node753 -->
<g id="edge31" class="edge">
<title>Node1144&#45;&gt;Node753</title>
<path fill="none" stroke="#191970" d="M343.3513,-209.5568C353.5143,-213.319 364.5864,-218.1552 374,-224 392.4398,-235.4492 391.6893,-245.3453 410,-257 412.9316,-258.866 416.0775,-260.6146 419.2979,-262.2367"/>
<polygon fill="#191970" stroke="#191970" points="417.9091,-265.4505 428.4552,-266.4654 420.8438,-259.0954 417.9091,-265.4505"/>
</g>
<!-- Node825&#45;&gt;Node749 -->
<g id="edge34" class="edge">
<title>Node825&#45;&gt;Node749</title>
<path fill="none" stroke="#191970" d="M343.6014,-360.3393C367.2174,-366.5713 399.4068,-375.0657 423.2864,-381.3672"/>
<polygon fill="#191970" stroke="#191970" points="422.4004,-384.7532 432.9625,-383.9207 424.1865,-377.9849 422.4004,-384.7532"/>
</g>
<!-- Node825&#45;&gt;Node757 -->
<g id="edge33" class="edge">
<title>Node825&#45;&gt;Node757</title>
<path fill="none" stroke="#191970" d="M343.7374,-353.2498C418.9503,-355.1047 612.7619,-353.3475 760,-295 783.5159,-285.6811 806.4579,-267.6781 821.4057,-254.3878"/>
<polygon fill="#191970" stroke="#191970" points="823.8328,-256.9109 828.8404,-247.5742 819.1033,-251.7503 823.8328,-256.9109"/>
</g>
<!-- Node1132&#45;&gt;Node753 -->
<g id="edge36" class="edge">
<title>Node1132&#45;&gt;Node753</title>
<path fill="none" stroke="#191970" d="M214.0877,-311.3457C257.1553,-308.6692 319.8129,-303.6633 374,-295 385.7187,-293.1264 398.2545,-290.5295 409.9095,-287.8567"/>
<polygon fill="#191970" stroke="#191970" points="410.953,-291.2067 419.8825,-285.5046 409.3461,-284.3936 410.953,-291.2067"/>
</g>
<!-- Node1132&#45;&gt;Node825 -->
<g id="edge37" class="edge">
<title>Node1132&#45;&gt;Node825</title>
<path fill="none" stroke="#191970" d="M199.8513,-323.589C221.3765,-329.042 248.3634,-335.8787 270.4698,-341.479"/>
<polygon fill="#191970" stroke="#191970" points="269.6929,-344.8927 280.2462,-343.9557 271.4119,-338.107 269.6929,-344.8927"/>
</g>
</g>
</svg>
