<?xml version="1.0" encoding="UTF-8" standalone="no"?>
<!DOCTYPE svg PUBLIC "-//W3C//DTD SVG 1.1//EN"
 "http://www.w3.org/Graphics/SVG/1.1/DTD/svg11.dtd">
<!-- Generated by graphviz version 2.40.1 (20161225.0304)
 -->
<!-- Title: fr_pair_make Pages: 1 -->
<svg width="841pt" height="562pt"
 viewBox="0.00 0.00 841.00 562.42" xmlns="http://www.w3.org/2000/svg" xmlns:xlink="http://www.w3.org/1999/xlink">
<g id="graph0" class="graph" transform="scale(1 1) rotate(0) translate(4 558.4234)">
<title>fr_pair_make</title>
<!-- Node2512 -->
<g id="node1" class="node">
<title>Node2512</title>
<polygon fill="#bfbfbf" stroke="#000000" points="0,-171.5 0,-190.5 73,-190.5 73,-171.5 0,-171.5"/>
<text text-anchor="middle" x="36.5" y="-178.5" font-family="Helvetica,sans-Serif" font-size="10.00" fill="#000000">fr_pair_make</text>
</g>
<!-- Node2513 -->
<g id="node2" class="node">
<title>Node2513</title>
<g id="a_node2"><a xlink:href="dict_8h.html#a9b41584ef21da4b8c62d809233f8fcaf" target="_top" xlink:title="Locate a qualified fr_dict_attr_t by its name and a dictionary qualifier. ">
<polygon fill="none" stroke="#000000" points="218,-388.5 218,-407.5 367,-407.5 367,-388.5 218,-388.5"/>
<text text-anchor="middle" x="292.5" y="-395.5" font-family="Helvetica,sans-Serif" font-size="10.00" fill="#000000">fr_dict_attr_by_qualified_name</text>
</a>
</g>
</g>
<!-- Node2512&#45;&gt;Node2513 -->
<g id="edge1" class="edge">
<title>Node2512&#45;&gt;Node2513</title>
<path fill="none" stroke="#191970" d="M38.4423,-190.8403C44.2554,-217.8043 63.9779,-293.6759 109,-336 136.8819,-362.211 176.2364,-377.3705 211.3539,-386.1245"/>
<polygon fill="#191970" stroke="#191970" points="210.5974,-389.542 221.1334,-388.4275 212.202,-382.7284 210.5974,-389.542"/>
</g>
<!-- Node2517 -->
<g id="node6" class="node">
<title>Node2517</title>
<g id="a_node6"><a xlink:href="strerror_8c.html#ae701765650b8aea79a3037bc4921d7f8" target="_top" xlink:title="Log to thread local error buffer. ">
<polygon fill="none" stroke="#ff0000" points="731,-274.5 731,-293.5 817,-293.5 817,-274.5 731,-274.5"/>
<text text-anchor="middle" x="774" y="-281.5" font-family="Helvetica,sans-Serif" font-size="10.00" fill="#000000">fr_strerror_printf</text>
</a>
</g>
</g>
<!-- Node2512&#45;&gt;Node2517 -->
<g id="edge21" class="edge">
<title>Node2512&#45;&gt;Node2517</title>
<path fill="none" stroke="#191970" d="M39.2304,-171.3855C46.4584,-147.6979 68.3764,-86.1272 109,-54 175.681,-1.2653 207.4864,0 292.5,0 292.5,0 292.5,0 463,0 620.5721,0 733.2406,-201.2541 764.9439,-264.9276"/>
<polygon fill="#191970" stroke="#191970" points="761.9491,-266.7715 769.4797,-274.2241 768.2402,-263.702 761.9491,-266.7715"/>
</g>
<!-- Node2885 -->
<g id="node12" class="node">
<title>Node2885</title>
<g id="a_node12"><a xlink:href="pair__legacy_8c.html#aef4b803056679df01b49d62f204ef4c5" target="_top" xlink:title="Create a valuepair from an ASCII attribute and value. ">
<polygon fill="none" stroke="#ff0000" points="234,-274.5 234,-293.5 351,-293.5 351,-274.5 234,-274.5"/>
<text text-anchor="middle" x="292.5" y="-281.5" font-family="Helvetica,sans-Serif" font-size="10.00" fill="#000000">fr_pair_make_unknown</text>
</a>
</g>
</g>
<!-- Node2512&#45;&gt;Node2885 -->
<g id="edge16" class="edge">
<title>Node2512&#45;&gt;Node2885</title>
<path fill="none" stroke="#191970" d="M44.2868,-190.6777C56.4781,-205.1302 81.5353,-232.1333 109,-246 144.4197,-263.8831 187.7392,-273.3515 223.3922,-278.3641"/>
<polygon fill="#191970" stroke="#191970" points="223.3402,-281.8874 233.7114,-279.7221 224.2535,-274.9472 223.3402,-281.8874"/>
</g>
<!-- Node2887 -->
<g id="node13" class="node">
<title>Node2887</title>
<g id="a_node13"><a xlink:href="pair_8c.html#ab9e25c74bb9ef78b83670677679cfcdc" target="_top" xlink:title="Convert string value to native attribute value. ">
<polygon fill="none" stroke="#ff0000" points="406.5,-198.5 406.5,-217.5 519.5,-217.5 519.5,-198.5 406.5,-198.5"/>
<text text-anchor="middle" x="463" y="-205.5" font-family="Helvetica,sans-Serif" font-size="10.00" fill="#000000">fr_pair_value_from_str</text>
</a>
</g>
</g>
<!-- Node2512&#45;&gt;Node2887 -->
<g id="edge40" class="edge">
<title>Node2512&#45;&gt;Node2887</title>
<path fill="none" stroke="#191970" d="M43.5245,-171.2735C55.4333,-155.3669 81.033,-123.6007 109,-104 204.4464,-37.1063 264.8403,-.8913 367,-57 418.5956,-85.3376 446.4072,-154.4571 457.3756,-188.4585"/>
<polygon fill="#191970" stroke="#191970" points="454.075,-189.6337 460.3537,-198.1677 460.7673,-187.581 454.075,-189.6337"/>
</g>
<!-- Node2889 -->
<g id="node14" class="node">
<title>Node2889</title>
<g id="a_node14"><a xlink:href="pair_8c.html#a7869a79cbea0f296a61340c95a0644ed" target="_top" xlink:title="Add a VP to the end of the list. ">
<polygon fill="none" stroke="#000000" points="260,-312.5 260,-331.5 325,-331.5 325,-312.5 260,-312.5"/>
<text text-anchor="middle" x="292.5" y="-319.5" font-family="Helvetica,sans-Serif" font-size="10.00" fill="#000000">fr_pair_add</text>
</a>
</g>
</g>
<!-- Node2512&#45;&gt;Node2889 -->
<g id="edge20" class="edge">
<title>Node2512&#45;&gt;Node2889</title>
<path fill="none" stroke="#191970" d="M41.4138,-190.7359C51.4436,-209.5985 76.1305,-251.1827 109,-273 151.7465,-301.3732 210.3185,-313.3575 249.6874,-318.3937"/>
<polygon fill="#191970" stroke="#191970" points="249.4148,-321.8857 259.7566,-319.5841 250.2367,-314.9342 249.4148,-321.8857"/>
</g>
<!-- Node2880 -->
<g id="node15" class="node">
<title>Node2880</title>
<g id="a_node15"><a xlink:href="pair_8c.html#a2897183dcbc65ef1b54619bd293fd735" target="_top" xlink:title="Dynamically allocate a new attribute and fill in the da field. ">
<polygon fill="none" stroke="#ff0000" points="248,-350.5 248,-369.5 337,-369.5 337,-350.5 248,-350.5"/>
<text text-anchor="middle" x="292.5" y="-357.5" font-family="Helvetica,sans-Serif" font-size="10.00" fill="#000000">fr_pair_afrom_da</text>
</a>
</g>
</g>
<!-- Node2512&#45;&gt;Node2880 -->
<g id="edge22" class="edge">
<title>Node2512&#45;&gt;Node2880</title>
<path fill="none" stroke="#191970" d="M39.672,-190.7917C47.6004,-213.7561 70.4586,-271.5113 109,-303 145.7165,-332.9978 198.2247,-347.2561 237.6726,-354.0053"/>
<polygon fill="#191970" stroke="#191970" points="237.2311,-357.4791 247.6584,-355.6025 238.3367,-350.5669 237.2311,-357.4791"/>
</g>
<!-- Node2890 -->
<g id="node16" class="node">
<title>Node2890</title>
<g id="a_node16"><a xlink:href="pair_8c.html#aa310aed6f1b0c48333278b8aaff5d205" target="_top" xlink:title="Free/zero out value (or children) of a given VP. ">
<polygon fill="none" stroke="#ff0000" points="243.5,-142.5 243.5,-161.5 341.5,-161.5 341.5,-142.5 243.5,-142.5"/>
<text text-anchor="middle" x="292.5" y="-149.5" font-family="Helvetica,sans-Serif" font-size="10.00" fill="#000000">fr_pair_value_clear</text>
</a>
</g>
</g>
<!-- Node2512&#45;&gt;Node2890 -->
<g id="edge24" class="edge">
<title>Node2512&#45;&gt;Node2890</title>
<path fill="none" stroke="#191970" d="M73.1786,-176.845C114.8693,-172.1222 183.5297,-164.3443 232.9295,-158.7482"/>
<polygon fill="#191970" stroke="#191970" points="233.6195,-162.1925 243.1619,-157.5891 232.8315,-155.237 233.6195,-162.1925"/>
</g>
<!-- Node2679 -->
<g id="node17" class="node">
<title>Node2679</title>
<g id="a_node17"><a xlink:href="strerror_8c.html#a2f2232a184a763c76b3d87d5bea7a868" target="_top" xlink:title="Add a message to an existing stack of messages. ">
<polygon fill="none" stroke="#ff0000" points="236.5,-104.5 236.5,-123.5 348.5,-123.5 348.5,-104.5 236.5,-104.5"/>
<text text-anchor="middle" x="292.5" y="-111.5" font-family="Helvetica,sans-Serif" font-size="10.00" fill="#000000">fr_strerror_printf_push</text>
</a>
</g>
</g>
<!-- Node2512&#45;&gt;Node2679 -->
<g id="edge26" class="edge">
<title>Node2512&#45;&gt;Node2679</title>
<path fill="none" stroke="#191970" d="M70.7645,-171.4136C82.8366,-168.0717 96.5091,-164.3269 109,-161 154.8946,-148.776 207.4077,-135.386 244.4652,-126.0359"/>
<polygon fill="#191970" stroke="#191970" points="245.6474,-129.3475 254.4891,-123.5102 243.937,-122.5597 245.6474,-129.3475"/>
</g>
<!-- Node2884 -->
<g id="node18" class="node">
<title>Node2884</title>
<g id="a_node18"><a xlink:href="pair__legacy_8c.html#adb5f7eea621e460b15273d711790fd94" target="_top" xlink:title="Create a fr_pair_t from ASCII strings. ">
<polygon fill="none" stroke="#000000" points="109,-199.5 109,-218.5 182,-218.5 182,-199.5 109,-199.5"/>
<text text-anchor="middle" x="145.5" y="-206.5" font-family="Helvetica,sans-Serif" font-size="10.00" fill="#000000">fr_pair_make</text>
</a>
</g>
</g>
<!-- Node2512&#45;&gt;Node2884 -->
<g id="edge27" class="edge">
<title>Node2512&#45;&gt;Node2884</title>
<path fill="none" stroke="#191970" d="M73.0986,-190.4015C81.3668,-192.5254 90.2534,-194.8082 98.8716,-197.0221"/>
<polygon fill="#191970" stroke="#191970" points="98.256,-200.4775 108.8124,-199.5757 99.9977,-193.6976 98.256,-200.4775"/>
</g>
<!-- Node2891 -->
<g id="node19" class="node">
<title>Node2891</title>
<g id="a_node19"><a xlink:href="pair__legacy_8c.html#abd956acfbb07907f6955606e151f488f" target="_top" xlink:title="Mark a valuepair for xlat expansion. ">
<polygon fill="none" stroke="#ff0000" points="246.5,-66.5 246.5,-85.5 338.5,-85.5 338.5,-66.5 246.5,-66.5"/>
<text text-anchor="middle" x="292.5" y="-73.5" font-family="Helvetica,sans-Serif" font-size="10.00" fill="#000000">fr_pair_mark_xlat</text>
</a>
</g>
</g>
<!-- Node2512&#45;&gt;Node2891 -->
<g id="edge39" class="edge">
<title>Node2512&#45;&gt;Node2891</title>
<path fill="none" stroke="#191970" d="M51.7114,-171.3398C66.1484,-162.377 88.6101,-148.9595 109,-139 155.942,-116.0711 168.3554,-111.2694 218,-95 225.4025,-92.5741 233.3016,-90.2668 241.0862,-88.1502"/>
<polygon fill="#191970" stroke="#191970" points="242.0635,-91.5122 250.8394,-85.5765 240.2774,-84.7439 242.0635,-91.5122"/>
</g>
<!-- Node2514 -->
<g id="node3" class="node">
<title>Node2514</title>
<g id="a_node3"><a xlink:href="dict__util_8c.html#a1e43e9729099648fdc9c3527c7be84b2" target="_top" xlink:title="Locate a qualified fr_dict_attr_t by its name and a dictionary qualifier. ">
<polygon fill="none" stroke="#000000" points="403,-452 403,-482 523,-482 523,-452 403,-452"/>
<text text-anchor="start" x="411" y="-470" font-family="Helvetica,sans-Serif" font-size="10.00" fill="#000000">fr_dict_attr_by_qualified</text>
<text text-anchor="middle" x="463" y="-459" font-family="Helvetica,sans-Serif" font-size="10.00" fill="#000000">_name_substr</text>
</a>
</g>
</g>
<!-- Node2513&#45;&gt;Node2514 -->
<g id="edge2" class="edge">
<title>Node2513&#45;&gt;Node2514</title>
<path fill="none" stroke="#191970" d="M316.2073,-407.5942C342.0243,-418.0421 383.9652,-435.0152 416.4191,-448.1491"/>
<polygon fill="#191970" stroke="#191970" points="415.1452,-451.4093 425.7279,-451.9163 417.7712,-444.9205 415.1452,-451.4093"/>
</g>
<!-- Node2513&#45;&gt;Node2517 -->
<g id="edge15" class="edge">
<title>Node2513&#45;&gt;Node2517</title>
<path fill="none" stroke="#191970" d="M364.045,-388.4528C442.405,-376.9987 571.275,-355.2178 679,-323 701.5872,-316.2447 726.1874,-306.0625 744.6943,-297.7959"/>
<polygon fill="#191970" stroke="#191970" points="746.3763,-300.8762 754.0352,-293.5555 743.4828,-294.5022 746.3763,-300.8762"/>
</g>
<!-- Node2515 -->
<g id="node4" class="node">
<title>Node2515</title>
<g id="a_node4"><a xlink:href="dict__util_8c.html#a21f160869a72054b34a2ac7bc41aea8d" target="_top" xlink:title="dict_by_protocol_substr">
<polygon fill="none" stroke="#000000" points="559,-438.5 559,-457.5 679,-457.5 679,-438.5 559,-438.5"/>
<text text-anchor="middle" x="619" y="-445.5" font-family="Helvetica,sans-Serif" font-size="10.00" fill="#000000">dict_by_protocol_substr</text>
</a>
</g>
</g>
<!-- Node2514&#45;&gt;Node2515 -->
<g id="edge3" class="edge">
<title>Node2514&#45;&gt;Node2515</title>
<path fill="none" stroke="#191970" d="M523.3137,-459.6541C531.6947,-458.6333 540.3632,-457.5776 548.9041,-456.5373"/>
<polygon fill="#191970" stroke="#191970" points="549.3433,-460.0098 558.8467,-455.3264 548.4969,-453.0611 549.3433,-460.0098"/>
</g>
<!-- Node2866 -->
<g id="node8" class="node">
<title>Node2866</title>
<g id="a_node8"><a xlink:href="sbuff_8c.html#af0b81120a5a607197c0e0645b7e1ec40" target="_top" xlink:title="Return true if the current char matches, and if it does, advance. ">
<polygon fill="none" stroke="#000000" points="565,-514.5 565,-533.5 673,-533.5 673,-514.5 565,-514.5"/>
<text text-anchor="middle" x="619" y="-521.5" font-family="Helvetica,sans-Serif" font-size="10.00" fill="#000000">fr_sbuff_next_if_char</text>
</a>
</g>
</g>
<!-- Node2514&#45;&gt;Node2866 -->
<g id="edge7" class="edge">
<title>Node2514&#45;&gt;Node2866</title>
<path fill="none" stroke="#191970" d="M499.2411,-482.0417C517.1188,-489.2831 539.0721,-497.9106 559,-505 565.0126,-507.139 571.4048,-509.291 577.6904,-511.3387"/>
<polygon fill="#191970" stroke="#191970" points="576.819,-514.7347 587.4101,-514.4538 578.9555,-508.0687 576.819,-514.7347"/>
</g>
<!-- Node2867 -->
<g id="node9" class="node">
<title>Node2867</title>
<g id="a_node9"><a xlink:href="dict__util_8c.html#a06671af8896a639a502e43a9af85e63b" target="_top" xlink:title="Look up a dictionary attribute by a name embedded in another string. ">
<polygon fill="none" stroke="#ff0000" points="565,-389 565,-419 673,-419 673,-389 565,-389"/>
<text text-anchor="start" x="573" y="-407" font-family="Helvetica,sans-Serif" font-size="10.00" fill="#000000">fr_dict_attr_by_name</text>
<text text-anchor="middle" x="619" y="-396" font-family="Helvetica,sans-Serif" font-size="10.00" fill="#000000">_substr</text>
</a>
</g>
</g>
<!-- Node2514&#45;&gt;Node2867 -->
<g id="edge8" class="edge">
<title>Node2514&#45;&gt;Node2867</title>
<path fill="none" stroke="#191970" d="M500.3659,-451.9099C521.8979,-443.2143 549.1615,-432.204 572.1216,-422.9316"/>
<polygon fill="#191970" stroke="#191970" points="573.7072,-426.066 581.669,-419.076 571.0859,-419.5753 573.7072,-426.066"/>
</g>
<!-- Node2692 -->
<g id="node10" class="node">
<title>Node2692</title>
<g id="a_node10"><a xlink:href="hash_8c.html#a09f5aeea7aa8426d06fbffb1cca93c82" target="_top" xlink:title="Initialise an iterator. ">
<polygon fill="none" stroke="#000000" points="563,-476.5 563,-495.5 675,-495.5 675,-476.5 563,-476.5"/>
<text text-anchor="middle" x="619" y="-483.5" font-family="Helvetica,sans-Serif" font-size="10.00" fill="#000000">fr_hash_table_iter_init</text>
</a>
</g>
</g>
<!-- Node2514&#45;&gt;Node2692 -->
<g id="edge12" class="edge">
<title>Node2514&#45;&gt;Node2692</title>
<path fill="none" stroke="#191970" d="M523.3137,-474.3459C532.9861,-475.5239 543.0416,-476.7487 552.8417,-477.9423"/>
<polygon fill="#191970" stroke="#191970" points="552.5854,-481.4368 562.9352,-479.1716 553.4318,-474.4882 552.5854,-481.4368"/>
</g>
<!-- Node2693 -->
<g id="node11" class="node">
<title>Node2693</title>
<g id="a_node11"><a xlink:href="hash_8c.html#a12a9adc49859b6c4f808bae4dee298d8" target="_top" xlink:title="Iterate over entries in a hash table. ">
<polygon fill="none" stroke="#ff0000" points="715,-519.5 715,-538.5 833,-538.5 833,-519.5 715,-519.5"/>
<text text-anchor="middle" x="774" y="-526.5" font-family="Helvetica,sans-Serif" font-size="10.00" fill="#000000">fr_hash_table_iter_next</text>
</a>
</g>
</g>
<!-- Node2514&#45;&gt;Node2693 -->
<g id="edge14" class="edge">
<title>Node2514&#45;&gt;Node2693</title>
<path fill="none" stroke="#191970" d="M476.071,-482.2974C493.0023,-500.8079 524.4678,-530.9856 559,-543 616.6845,-563.0695 688.249,-551.8423 732.521,-541.0771"/>
<polygon fill="#191970" stroke="#191970" points="733.5174,-544.4353 742.3504,-538.5848 731.7969,-537.65 733.5174,-544.4353"/>
</g>
<!-- Node2516 -->
<g id="node5" class="node">
<title>Node2516</title>
<g id="a_node5"><a xlink:href="sbuff_8c.html#afa687d02bada24e380251c7a10a49f12" target="_top" xlink:title="Copy as many allowed characters as possible from a sbuff to a sbuff. ">
<polygon fill="none" stroke="#000000" points="718.5,-386 718.5,-416 829.5,-416 829.5,-386 718.5,-386"/>
<text text-anchor="start" x="726.5" y="-404" font-family="Helvetica,sans-Serif" font-size="10.00" fill="#000000">fr_sbuff_out_bstrncpy</text>
<text text-anchor="middle" x="774" y="-393" font-family="Helvetica,sans-Serif" font-size="10.00" fill="#000000">_allowed</text>
</a>
</g>
</g>
<!-- Node2515&#45;&gt;Node2516 -->
<g id="edge4" class="edge">
<title>Node2515&#45;&gt;Node2516</title>
<path fill="none" stroke="#191970" d="M650.3666,-438.4888C668.8602,-432.8811 692.8643,-425.6024 714.7954,-418.9524"/>
<polygon fill="#191970" stroke="#191970" points="715.8168,-422.3001 724.3708,-416.0488 713.7855,-415.6013 715.8168,-422.3001"/>
</g>
<!-- Node2515&#45;&gt;Node2517 -->
<g id="edge5" class="edge">
<title>Node2515&#45;&gt;Node2517</title>
<path fill="none" stroke="#191970" d="M659.9056,-438.4707C666.684,-435.7742 673.3386,-432.3458 679,-428 684.8861,-423.4817 738.604,-339.6414 762.5596,-302.0146"/>
<polygon fill="#191970" stroke="#191970" points="765.5485,-303.8369 767.9616,-293.5206 759.6418,-300.0804 765.5485,-303.8369"/>
</g>
<!-- Node2564 -->
<g id="node7" class="node">
<title>Node2564</title>
<g id="a_node7"><a xlink:href="hash_8c.html#a5142bb7ae36b65a809eb834314974942" target="_top" xlink:title="Find data from a template. ">
<polygon fill="none" stroke="#ff0000" points="726,-435 726,-465 822,-465 822,-435 726,-435"/>
<text text-anchor="start" x="734" y="-453" font-family="Helvetica,sans-Serif" font-size="10.00" fill="#000000">fr_hash_table_find</text>
<text text-anchor="middle" x="774" y="-442" font-family="Helvetica,sans-Serif" font-size="10.00" fill="#000000">_by_data</text>
</a>
</g>
</g>
<!-- Node2515&#45;&gt;Node2564 -->
<g id="edge6" class="edge">
<title>Node2515&#45;&gt;Node2564</title>
<path fill="none" stroke="#191970" d="M679.3709,-448.779C691.2049,-448.9317 703.5997,-449.0916 715.3755,-449.2436"/>
<polygon fill="#191970" stroke="#191970" points="715.4906,-452.7452 725.5349,-449.3746 715.5809,-445.7458 715.4906,-452.7452"/>
</g>
<!-- Node2867&#45;&gt;Node2516 -->
<g id="edge9" class="edge">
<title>Node2867&#45;&gt;Node2516</title>
<path fill="none" stroke="#191970" d="M673.2115,-402.9507C684.4875,-402.7325 696.4886,-402.5002 708.1313,-402.2749"/>
<polygon fill="#191970" stroke="#191970" points="708.313,-405.7721 718.2433,-402.0792 708.1774,-398.7734 708.313,-405.7721"/>
</g>
<!-- Node2867&#45;&gt;Node2517 -->
<g id="edge10" class="edge">
<title>Node2867&#45;&gt;Node2517</title>
<path fill="none" stroke="#191970" d="M653.635,-388.8553C662.211,-384.5257 671.178,-379.4787 679,-374 710.0995,-352.217 741.0815,-320.5182 758.8452,-301.134"/>
<polygon fill="#191970" stroke="#191970" points="761.5041,-303.4119 765.6107,-293.6453 756.3099,-298.7193 761.5041,-303.4119"/>
</g>
<!-- Node2867&#45;&gt;Node2564 -->
<g id="edge11" class="edge">
<title>Node2867&#45;&gt;Node2564</title>
<path fill="none" stroke="#191970" d="M669.7528,-419.0621C684.5276,-423.4469 700.7807,-428.2704 715.9674,-432.7774"/>
<polygon fill="#191970" stroke="#191970" points="715.1844,-436.1959 725.7669,-435.6857 717.176,-429.4851 715.1844,-436.1959"/>
</g>
<!-- Node2692&#45;&gt;Node2693 -->
<g id="edge13" class="edge">
<title>Node2692&#45;&gt;Node2693</title>
<path fill="none" stroke="#191970" d="M653.3995,-495.5431C675.9752,-501.806 705.7055,-510.0538 729.9982,-516.7931"/>
<polygon fill="#191970" stroke="#191970" points="729.1249,-520.1829 739.6966,-519.4836 730.9962,-513.4377 729.1249,-520.1829"/>
</g>
<!-- Node2885&#45;&gt;Node2517 -->
<g id="edge17" class="edge">
<title>Node2885&#45;&gt;Node2517</title>
<path fill="none" stroke="#191970" d="M351.06,-284C445.4183,-284 629.6967,-284 720.632,-284"/>
<polygon fill="#191970" stroke="#191970" points="720.7194,-287.5001 730.7194,-284 720.7193,-280.5001 720.7194,-287.5001"/>
</g>
<!-- Node2885&#45;&gt;Node2887 -->
<g id="edge18" class="edge">
<title>Node2885&#45;&gt;Node2887</title>
<path fill="none" stroke="#191970" d="M314.0939,-274.3745C343.9438,-261.069 397.9847,-236.9804 432.1026,-221.7724"/>
<polygon fill="#191970" stroke="#191970" points="433.8727,-224.8155 441.5814,-217.5473 431.0227,-218.4219 433.8727,-224.8155"/>
</g>
<!-- Node2887&#45;&gt;Node2517 -->
<g id="edge19" class="edge">
<title>Node2887&#45;&gt;Node2517</title>
<path fill="none" stroke="#191970" d="M519.7277,-208.3183C564.0302,-209.9821 626.6476,-215.4757 679,-232 705.8113,-240.4626 733.7134,-256.7805 752.2846,-268.8897"/>
<polygon fill="#191970" stroke="#191970" points="750.3454,-271.8034 760.6061,-274.4433 754.2312,-265.9809 750.3454,-271.8034"/>
</g>
<!-- Node2880&#45;&gt;Node2517 -->
<g id="edge23" class="edge">
<title>Node2880&#45;&gt;Node2517</title>
<path fill="none" stroke="#191970" d="M337.366,-352.9184C426.454,-338.8567 625.2874,-307.4728 720.7923,-292.3983"/>
<polygon fill="#191970" stroke="#191970" points="721.4783,-295.8335 730.8103,-290.8171 720.3868,-288.9191 721.4783,-295.8335"/>
</g>
<!-- Node2890&#45;&gt;Node2890 -->
<g id="edge25" class="edge">
<title>Node2890&#45;&gt;Node2890</title>
<path fill="none" stroke="#191970" d="M269.9972,-161.7571C259.0498,-170.5653 266.5508,-180 292.5,-180 309.5292,-180 318.6133,-175.9368 319.7525,-170.6539"/>
<polygon fill="#191970" stroke="#191970" points="322.7999,-168.9303 315.0028,-161.7571 316.6248,-172.227 322.7999,-168.9303"/>
</g>
<!-- Node2884&#45;&gt;Node2513 -->
<g id="edge28" class="edge">
<title>Node2884&#45;&gt;Node2513</title>
<path fill="none" stroke="#191970" d="M146.6684,-218.8273C150.678,-248.022 166.6006,-334.9372 218,-379 219.9508,-380.6723 222.0294,-382.2006 224.2057,-383.597"/>
<polygon fill="#191970" stroke="#191970" points="222.5573,-386.6845 233.0196,-388.3552 225.8827,-380.5248 222.5573,-386.6845"/>
</g>
<!-- Node2884&#45;&gt;Node2517 -->
<g id="edge31" class="edge">
<title>Node2884&#45;&gt;Node2517</title>
<path fill="none" stroke="#191970" d="M182.2823,-216.7051C193.6955,-218.9335 206.3387,-221.2374 218,-223 401.8462,-250.7885 621.7171,-271.1332 720.8762,-279.6237"/>
<polygon fill="#191970" stroke="#191970" points="720.6825,-283.1198 730.9433,-280.4804 721.2761,-276.145 720.6825,-283.1198"/>
</g>
<!-- Node2884&#45;&gt;Node2885 -->
<g id="edge29" class="edge">
<title>Node2884&#45;&gt;Node2885</title>
<path fill="none" stroke="#191970" d="M157.1082,-218.848C170.8686,-230.1079 194.8607,-248.4681 218,-260 226.6654,-264.3186 236.2782,-268.0923 245.6398,-271.29"/>
<polygon fill="#191970" stroke="#191970" points="244.6623,-274.6525 255.2544,-274.4125 246.8246,-267.9948 244.6623,-274.6525"/>
</g>
<!-- Node2884&#45;&gt;Node2887 -->
<g id="edge38" class="edge">
<title>Node2884&#45;&gt;Node2887</title>
<path fill="none" stroke="#191970" d="M182.2315,-208.8843C234.4479,-208.7198 331.0144,-208.4157 396.1305,-208.2106"/>
<polygon fill="#191970" stroke="#191970" points="396.3107,-211.7102 406.2996,-208.1786 396.2886,-204.7102 396.3107,-211.7102"/>
</g>
<!-- Node2884&#45;&gt;Node2889 -->
<g id="edge30" class="edge">
<title>Node2884&#45;&gt;Node2889</title>
<path fill="none" stroke="#191970" d="M150.1681,-218.7063C159.9327,-237.9356 184.4227,-280.9165 218,-303 227.4776,-309.2334 238.8729,-313.422 249.8681,-316.2366"/>
<polygon fill="#191970" stroke="#191970" points="249.2641,-319.6879 259.7868,-318.4544 250.7915,-312.8566 249.2641,-319.6879"/>
</g>
<!-- Node2884&#45;&gt;Node2880 -->
<g id="edge32" class="edge">
<title>Node2884&#45;&gt;Node2880</title>
<path fill="none" stroke="#191970" d="M147.9408,-218.7208C154.6269,-243.2761 175.6285,-308.1748 218,-341 223.8762,-345.5523 230.7211,-349.0231 237.8353,-351.6675"/>
<polygon fill="#191970" stroke="#191970" points="237.0472,-355.0896 247.6377,-354.7854 239.169,-348.4189 237.0472,-355.0896"/>
</g>
<!-- Node2884&#45;&gt;Node2890 -->
<g id="edge33" class="edge">
<title>Node2884&#45;&gt;Node2890</title>
<path fill="none" stroke="#191970" d="M170.1045,-199.4595C194.2719,-190.0884 231.347,-175.7124 258.3606,-165.2377"/>
<polygon fill="#191970" stroke="#191970" points="259.757,-168.4503 267.8152,-161.5716 257.2262,-161.9237 259.757,-168.4503"/>
</g>
<!-- Node2884&#45;&gt;Node2679 -->
<g id="edge34" class="edge">
<title>Node2884&#45;&gt;Node2679</title>
<path fill="none" stroke="#191970" d="M151.8652,-199.4261C163.1804,-183.1838 188.4097,-150.3111 218,-133 221.8632,-130.7399 225.9925,-128.7459 230.252,-126.9871"/>
<polygon fill="#191970" stroke="#191970" points="231.5547,-130.2373 239.7318,-123.5003 229.1383,-123.6675 231.5547,-130.2373"/>
</g>
<!-- Node2884&#45;&gt;Node2884 -->
<g id="edge35" class="edge">
<title>Node2884&#45;&gt;Node2884</title>
<path fill="none" stroke="#191970" d="M128.8541,-218.7571C120.756,-227.5653 126.3047,-237 145.5,-237 157.4971,-237 164.1634,-233.3146 165.499,-228.4"/>
<polygon fill="#191970" stroke="#191970" points="168.7362,-227.0528 162.1459,-218.7571 162.1245,-229.3519 168.7362,-227.0528"/>
</g>
<!-- Node2884&#45;&gt;Node2891 -->
<g id="edge36" class="edge">
<title>Node2884&#45;&gt;Node2891</title>
<path fill="none" stroke="#191970" d="M148.815,-199.3055C156.902,-177.1635 179.8236,-122.6617 218,-95 223.5919,-90.9482 229.9662,-87.7581 236.5784,-85.2469"/>
<polygon fill="#191970" stroke="#191970" points="237.9629,-88.4763 246.3727,-82.0322 235.7798,-81.8254 237.9629,-88.4763"/>
</g>
<!-- Node2891&#45;&gt;Node2517 -->
<g id="edge37" class="edge">
<title>Node2891&#45;&gt;Node2517</title>
<path fill="none" stroke="#191970" d="M337.6343,-85.5229C412.1743,-102.4827 564.1747,-142.3356 679,-207 708.9981,-223.8936 739.1114,-250.2818 757.1568,-267.3571"/>
<polygon fill="#191970" stroke="#191970" points="754.9235,-270.0654 764.555,-274.4796 759.7784,-265.0226 754.9235,-270.0654"/>
</g>
</g>
</svg>
