<?xml version="1.0" encoding="UTF-8" standalone="no"?>
<!DOCTYPE svg PUBLIC "-//W3C//DTD SVG 1.1//EN"
 "http://www.w3.org/Graphics/SVG/1.1/DTD/svg11.dtd">
<!-- Generated by graphviz version 2.40.1 (20161225.0304)
 -->
<!-- Title: fr_radius_packet_verify Pages: 1 -->
<!--zoomable 337 -->
<svg id="main" version="1.1" xmlns="http://www.w3.org/2000/svg" xmlns:xlink="http://www.w3.org/1999/xlink" xml:space="preserve" onload="init(evt)">
<style type="text/css"><![CDATA[
.edge:hover path { stroke: red; }
.edge:hover polygon { stroke: red; fill: red; }
]]></style>
<script type="text/javascript"><![CDATA[
var edges = document.getElementsByTagName('g');
if (edges && edges.length) {
  for (var i=0;i<edges.length;i++) {
    if (edges[i].id.substr(0,4)=='edge') {
      edges[i].setAttribute('class','edge');
    }
  }
}
]]></script>
        <defs>
                <circle id="rim" cx="0" cy="0" r="7"/>
                <circle id="rim2" cx="0" cy="0" r="3.5"/>
                <g id="zoomPlus">
                        <use xlink:href="#rim" fill="#404040">
                                <set attributeName="fill" to="#808080" begin="zoomplus.mouseover" end="zoomplus.mouseout"/>
                        </use>
                        <path d="M-4,0h8M0,-4v8" fill="none" stroke="white" stroke-width="1.5" pointer-events="none"/>
                </g>
                <g id="zoomMin">
                        <use xlink:href="#rim" fill="#404040">
                                <set attributeName="fill" to="#808080" begin="zoomminus.mouseover" end="zoomminus.mouseout"/>
                        </use>
                        <path d="M-4,0h8" fill="none" stroke="white" stroke-width="1.5" pointer-events="none"/>
                </g>
                <g id="dirArrow">
                        <path fill="none" stroke="white" stroke-width="1.5" d="M0,-3.0v7 M-2.5,-0.5L0,-3.0L2.5,-0.5"/>
                </g>
               <g id="resetDef">
                       <use xlink:href="#rim2" fill="#404040">
                               <set attributeName="fill" to="#808080" begin="reset.mouseover" end="reset.mouseout"/>
                       </use>
               </g>
        </defs>

<script type="text/javascript">
var viewWidth = 1024;
var viewHeight = 337;
var sectionId = 'dynsection-8';
</script>
<script xlink:href="svgpan.js"/>
<svg id="graph" class="graph">
<g id="viewport">
<title>fr_radius_packet_verify</title>
<!-- Node4383 -->
<g id="node1" class="node">
<title>Node4383</title>
<polygon fill="#bfbfbf" stroke="#000000" points="0,-64.311 0,-83.311 118,-83.311 118,-64.311 0,-64.311"/>
<text text-anchor="middle" x="59" y="-71.311" font-family="Helvetica,sans-Serif" font-size="10.00" fill="#000000">fr_radius_packet_verify</text>
</g>
<!-- Node4384 -->
<g id="node2" class="node">
<title>Node4384</title>
<g id="a_node2"><a xlink:href="protocols_2radius_2base_8c.html#ac41c13ebe3417ceb6e1fbf9ab6b1b288" target="_top" xlink:title="Verify a request / response packet. ">
<polygon fill="none" stroke="#000000" points="154,-159.311 154,-178.311 237,-178.311 237,-159.311 154,-159.311"/>
<text text-anchor="middle" x="195.5" y="-166.311" font-family="Helvetica,sans-Serif" font-size="10.00" fill="#000000">fr_radius_verify</text>
</a>
</g>
</g>
<!-- Node4383&#45;&gt;Node4384 -->
<g id="edge1" class="edge">
<title>Node4383&#45;&gt;Node4384</title>
<path fill="none" stroke="#191970" d="M72.8395,-83.4429C96.4469,-99.8729 144.7002,-133.4559 173.142,-153.2505"/>
<polygon fill="#191970" stroke="#191970" points="171.4166,-156.3139 181.6238,-159.1536 175.4154,-150.5684 171.4166,-156.3139"/>
</g>
<!-- Node4547 -->
<g id="node13" class="node">
<title>Node4547</title>
<g id="a_node13"><a xlink:href="strerror_8c.html#a2f2232a184a763c76b3d87d5bea7a868" target="_top" xlink:title="Add a message to an existing stack of messages. ">
<polygon fill="none" stroke="#ff0000" points="437,-64.311 437,-83.311 549,-83.311 549,-64.311 437,-64.311"/>
<text text-anchor="middle" x="493" y="-71.311" font-family="Helvetica,sans-Serif" font-size="10.00" fill="#000000">fr_strerror_printf_push</text>
</a>
</g>
</g>
<!-- Node4383&#45;&gt;Node4547 -->
<g id="edge25" class="edge">
<title>Node4383&#45;&gt;Node4547</title>
<path fill="none" stroke="#191970" d="M118.4358,-73.811C198.9985,-73.811 342.4248,-73.811 426.4888,-73.811"/>
<polygon fill="#191970" stroke="#191970" points="426.6888,-77.3111 436.6888,-73.811 426.6888,-70.3111 426.6888,-77.3111"/>
</g>
<!-- Node4724 -->
<g id="node16" class="node">
<title>Node4724</title>
<g id="a_node16"><a xlink:href="missing_8c.html#aa30bf1e64a9330be8a9863b70881ee06" target="_top" xlink:title="inet_ntop">
<polygon fill="none" stroke="#ff0000" points="167.5,-26.311 167.5,-45.311 223.5,-45.311 223.5,-26.311 167.5,-26.311"/>
<text text-anchor="middle" x="195.5" y="-33.311" font-family="Helvetica,sans-Serif" font-size="10.00" fill="#000000">inet_ntop</text>
</a>
</g>
</g>
<!-- Node4383&#45;&gt;Node4724 -->
<g id="edge26" class="edge">
<title>Node4383&#45;&gt;Node4724</title>
<path fill="none" stroke="#191970" d="M93.4447,-64.222C113.0382,-58.7674 137.6046,-51.9284 157.7246,-46.3272"/>
<polygon fill="#191970" stroke="#191970" points="158.8012,-49.6607 167.4962,-43.6069 156.9239,-42.9171 158.8012,-49.6607"/>
</g>
<!-- Node4385 -->
<g id="node3" class="node">
<title>Node4385</title>
<g id="a_node3"><a xlink:href="strerror_8c.html#ae701765650b8aea79a3037bc4921d7f8" target="_top" xlink:title="Log to thread local error buffer. ">
<polygon fill="none" stroke="#000000" points="450,-216.311 450,-235.311 536,-235.311 536,-216.311 450,-216.311"/>
<text text-anchor="middle" x="493" y="-223.311" font-family="Helvetica,sans-Serif" font-size="10.00" fill="#000000">fr_strerror_printf</text>
</a>
</g>
</g>
<!-- Node4384&#45;&gt;Node4385 -->
<g id="edge2" class="edge">
<title>Node4384&#45;&gt;Node4385</title>
<path fill="none" stroke="#191970" d="M210.8472,-178.467C226.0129,-187.4832 250.1876,-200.4726 273,-206.811 328.3429,-222.188 394.2637,-226.0739 439.4234,-226.6522"/>
<polygon fill="#191970" stroke="#191970" points="439.5569,-230.1532 449.5838,-226.731 439.6112,-223.1535 439.5569,-230.1532"/>
</g>
<!-- Node4979 -->
<g id="node12" class="node">
<title>Node4979</title>
<g id="a_node12"><a xlink:href="protocols_2radius_2base_8c.html#ac9593081313e907a61f8b286e04511d2" target="_top" xlink:title="Sign a previously encoded packet. ">
<polygon fill="none" stroke="#ff0000" points="298.5,-178.311 298.5,-197.311 375.5,-197.311 375.5,-178.311 298.5,-178.311"/>
<text text-anchor="middle" x="337" y="-185.311" font-family="Helvetica,sans-Serif" font-size="10.00" fill="#000000">fr_radius_sign</text>
</a>
</g>
</g>
<!-- Node4384&#45;&gt;Node4979 -->
<g id="edge18" class="edge">
<title>Node4384&#45;&gt;Node4979</title>
<path fill="none" stroke="#191970" d="M237.1893,-174.4089C253.1217,-176.5482 271.4338,-179.0071 287.9875,-181.2298"/>
<polygon fill="#191970" stroke="#191970" points="287.6534,-184.7163 298.0302,-182.5783 288.585,-177.7786 287.6534,-184.7163"/>
</g>
<!-- Node4384&#45;&gt;Node4547 -->
<g id="edge20" class="edge">
<title>Node4384&#45;&gt;Node4547</title>
<path fill="none" stroke="#191970" d="M237.2805,-165.6553C279.698,-161.4087 346.6823,-151.8017 401,-130.811 427.4166,-120.6025 454.6187,-102.6556 472.5239,-89.6215"/>
<polygon fill="#191970" stroke="#191970" points="475.0559,-92.0999 480.9863,-83.3203 470.8752,-86.4854 475.0559,-92.0999"/>
</g>
<!-- Node5007 -->
<g id="node14" class="node">
<title>Node5007</title>
<g id="a_node14"><a xlink:href="misc_8c.html#aec3461f919647c423076e8c88bdbadb7" target="_top" xlink:title="Do a comparison of two authentication digests by comparing the FULL data. ">
<polygon fill="none" stroke="#000000" points="298,-102.311 298,-121.311 376,-121.311 376,-102.311 298,-102.311"/>
<text text-anchor="middle" x="337" y="-109.311" font-family="Helvetica,sans-Serif" font-size="10.00" fill="#000000">fr_digest_cmp</text>
</a>
</g>
</g>
<!-- Node4384&#45;&gt;Node5007 -->
<g id="edge23" class="edge">
<title>Node4384&#45;&gt;Node5007</title>
<path fill="none" stroke="#191970" d="M217.1085,-159.3099C232.596,-152.5739 253.9921,-143.4176 273,-135.811 282.0617,-132.1847 291.907,-128.4111 301.0971,-124.9593"/>
<polygon fill="#191970" stroke="#191970" points="302.597,-128.1354 310.744,-121.3621 300.1513,-121.5766 302.597,-128.1354"/>
</g>
<!-- Node5008 -->
<g id="node15" class="node">
<title>Node5008</title>
<g id="a_node15"><a xlink:href="protocols_2radius_2base_8c.html#a9270427fcdb7e0c4e6b030fadccb41cc" target="_top" xlink:title="fr_radius_next_encodable">
<polygon fill="none" stroke="#000000" points="273,-254.311 273,-273.311 401,-273.311 401,-254.311 273,-254.311"/>
<text text-anchor="middle" x="337" y="-261.311" font-family="Helvetica,sans-Serif" font-size="10.00" fill="#000000">fr_radius_next_encodable</text>
</a>
</g>
</g>
<!-- Node4384&#45;&gt;Node5008 -->
<g id="edge24" class="edge">
<title>Node4384&#45;&gt;Node5008</title>
<path fill="none" stroke="#191970" d="M203.6511,-178.3345C216.8645,-193.2573 244.3798,-222.2554 273,-239.811 279.7567,-243.9556 287.3447,-247.5712 294.8701,-250.6519"/>
<polygon fill="#191970" stroke="#191970" points="293.7113,-253.956 304.3016,-254.2674 296.217,-247.4198 293.7113,-253.956"/>
</g>
<!-- Node4386 -->
<g id="node4" class="node">
<title>Node4386</title>
<g id="a_node4"><a xlink:href="acutest_8h.html#aecf9a9be8105efb1454cd8c1ef6cb1c5" target="_top" xlink:title="va_start">
<polygon fill="none" stroke="#000000" points="964,-26.311 964,-45.311 1016,-45.311 1016,-26.311 964,-26.311"/>
<text text-anchor="middle" x="990" y="-33.311" font-family="Helvetica,sans-Serif" font-size="10.00" fill="#000000">va_start</text>
</a>
</g>
</g>
<!-- Node4385&#45;&gt;Node4386 -->
<g id="edge3" class="edge">
<title>Node4385&#45;&gt;Node4386</title>
<path fill="none" stroke="#191970" d="M508.297,-216.1938C555.7803,-186.8732 705.7116,-98.2716 843,-59.811 880.0861,-49.4215 923.7765,-42.9975 953.8334,-39.4415"/>
<polygon fill="#191970" stroke="#191970" points="954.3225,-42.9085 963.8632,-38.3014 953.5318,-35.9533 954.3225,-42.9085"/>
</g>
<!-- Node4387 -->
<g id="node5" class="node">
<title>Node4387</title>
<g id="a_node5"><a xlink:href="strerror_8c.html#a193b1e0b3712e3bbee338812c06af482" target="_top" xlink:title="fr_strerror_vprintf">
<polygon fill="none" stroke="#000000" points="585,-216.311 585,-235.311 676,-235.311 676,-216.311 585,-216.311"/>
<text text-anchor="middle" x="630.5" y="-223.311" font-family="Helvetica,sans-Serif" font-size="10.00" fill="#000000">fr_strerror_vprintf</text>
</a>
</g>
</g>
<!-- Node4385&#45;&gt;Node4387 -->
<g id="edge4" class="edge">
<title>Node4385&#45;&gt;Node4387</title>
<path fill="none" stroke="#191970" d="M536.1286,-225.811C548.3091,-225.811 561.7416,-225.811 574.5585,-225.811"/>
<polygon fill="#191970" stroke="#191970" points="574.6697,-229.3111 584.6697,-225.811 574.6697,-222.3111 574.6697,-229.3111"/>
</g>
<!-- Node4390 -->
<g id="node8" class="node">
<title>Node4390</title>
<g id="a_node8"><a xlink:href="acutest_8h.html#a36af1f79dd6adf0809c21e76535034d5" target="_top" xlink:title="va_end">
<polygon fill="none" stroke="#000000" points="966,-254.311 966,-273.311 1014,-273.311 1014,-254.311 966,-254.311"/>
<text text-anchor="middle" x="990" y="-261.311" font-family="Helvetica,sans-Serif" font-size="10.00" fill="#000000">va_end</text>
</a>
</g>
</g>
<!-- Node4385&#45;&gt;Node4390 -->
<g id="edge17" class="edge">
<title>Node4385&#45;&gt;Node4390</title>
<path fill="none" stroke="#191970" d="M507.4891,-235.4002C525.2145,-246.8346 556.4003,-266.0042 585,-278.811 639.2593,-303.1081 653.3055,-311.3574 712,-320.811 807.3143,-336.1628 837.137,-330.4363 928,-297.811 941.3592,-293.0142 955.2986,-285.6146 966.5688,-278.9418"/>
<polygon fill="#191970" stroke="#191970" points="968.631,-281.7834 975.3367,-273.5808 964.9793,-275.8113 968.631,-281.7834"/>
</g>
<!-- Node4388 -->
<g id="node6" class="node">
<title>Node4388</title>
<g id="a_node6"><a xlink:href="strerror_8c.html#a42c2cc9f76fb9dac723a1903c181e1c7" target="_top" xlink:title="Initialise thread local storage. ">
<polygon fill="none" stroke="#ff0000" points="721,-140.311 721,-159.311 798,-159.311 798,-140.311 721,-140.311"/>
<text text-anchor="middle" x="759.5" y="-147.311" font-family="Helvetica,sans-Serif" font-size="10.00" fill="#000000">fr_strerror_init</text>
</a>
</g>
</g>
<!-- Node4387&#45;&gt;Node4388 -->
<g id="edge5" class="edge">
<title>Node4387&#45;&gt;Node4388</title>
<path fill="none" stroke="#191970" d="M642.3587,-216.1993C657.7398,-204.0499 685.7203,-183.0114 712,-168.811 715.5041,-166.9176 719.2381,-165.1044 723.0139,-163.4016"/>
<polygon fill="#191970" stroke="#191970" points="724.5498,-166.5518 732.3787,-159.4131 721.8069,-160.1115 724.5498,-166.5518"/>
</g>
<!-- Node4389 -->
<g id="node7" class="node">
<title>Node4389</title>
<g id="a_node7"><a xlink:href="strerror_8c.html#a2c8e65d6d4b73fb705cc023f60acb099" target="_top" xlink:title="Print the current error to stderr with a prefix. ">
<polygon fill="none" stroke="#ff0000" points="859,-121.311 859,-140.311 912,-140.311 912,-121.311 859,-121.311"/>
<text text-anchor="middle" x="885.5" y="-128.311" font-family="Helvetica,sans-Serif" font-size="10.00" fill="#000000">fr_perror</text>
</a>
</g>
</g>
<!-- Node4387&#45;&gt;Node4389 -->
<g id="edge11" class="edge">
<title>Node4387&#45;&gt;Node4389</title>
<path fill="none" stroke="#191970" d="M635.1345,-216.1587C645.5316,-195.7835 672.9057,-148.7816 712,-130.811 755.5919,-110.773 812.1026,-115.6694 848.582,-122.2297"/>
<polygon fill="#191970" stroke="#191970" points="848.2851,-125.7371 858.7676,-124.1988 849.6137,-118.8643 848.2851,-125.7371"/>
</g>
<!-- Node4387&#45;&gt;Node4390 -->
<g id="edge15" class="edge">
<title>Node4387&#45;&gt;Node4390</title>
<path fill="none" stroke="#191970" d="M676.0309,-230.6237C749.0526,-238.3423 890.7333,-253.3183 955.8103,-260.1971"/>
<polygon fill="#191970" stroke="#191970" points="955.629,-263.6973 965.9416,-261.268 956.3649,-256.7361 955.629,-263.6973"/>
</g>
<!-- Node4396 -->
<g id="node9" class="node">
<title>Node4396</title>
<g id="a_node9"><a xlink:href="strerror_8c.html#a9d878c1ddb1b385cdaf6523fff68529c" target="_top" xlink:title="Reset cursor state. ">
<polygon fill="none" stroke="#000000" points="843,-188.311 843,-207.311 928,-207.311 928,-188.311 843,-188.311"/>
<text text-anchor="middle" x="885.5" y="-195.311" font-family="Helvetica,sans-Serif" font-size="10.00" fill="#000000">fr_strerror_clear</text>
</a>
</g>
</g>
<!-- Node4387&#45;&gt;Node4396 -->
<g id="edge10" class="edge">
<title>Node4387&#45;&gt;Node4396</title>
<path fill="none" stroke="#191970" d="M676.222,-220.9768C711.8602,-217.1875 762.5854,-211.7476 807,-206.811 815.3294,-205.8852 824.154,-204.8887 832.7631,-203.908"/>
<polygon fill="#191970" stroke="#191970" points="833.1899,-207.3821 842.7278,-202.7692 832.395,-200.4274 833.1899,-207.3821"/>
</g>
<!-- Node4397 -->
<g id="node10" class="node">
<title>Node4397</title>
<g id="a_node10"><a xlink:href="print_8c.html#a27ae94b5a4c77de49aa2f387765a4d58" target="_top" xlink:title="Special version of vasprintf which implements custom format specifiers. ">
<polygon fill="none" stroke="#ff0000" points="727,-292.311 727,-311.311 792,-311.311 792,-292.311 727,-292.311"/>
<text text-anchor="middle" x="759.5" y="-299.311" font-family="Helvetica,sans-Serif" font-size="10.00" fill="#000000">fr_vasprintf</text>
</a>
</g>
</g>
<!-- Node4387&#45;&gt;Node4397 -->
<g id="edge12" class="edge">
<title>Node4387&#45;&gt;Node4397</title>
<path fill="none" stroke="#191970" d="M644.6606,-235.4589C660.7104,-246.2486 687.792,-264.0184 712,-277.811 717.7951,-281.1128 724.0989,-284.4608 730.1637,-287.5665"/>
<polygon fill="#191970" stroke="#191970" points="728.8834,-290.8403 739.3899,-292.2058 732.0282,-284.5864 728.8834,-290.8403"/>
</g>
<!-- Node4549 -->
<g id="node11" class="node">
<title>Node4549</title>
<g id="a_node11"><a xlink:href="cursor_8c.html#a5d942382660657c3b4cb6e9cb2b12b2c" target="_top" xlink:title="Insert a single item at the start of the list. ">
<polygon fill="none" stroke="#000000" points="712,-178.311 712,-197.311 807,-197.311 807,-178.311 712,-178.311"/>
<text text-anchor="middle" x="759.5" y="-185.311" font-family="Helvetica,sans-Serif" font-size="10.00" fill="#000000">fr_cursor_prepend</text>
</a>
</g>
</g>
<!-- Node4387&#45;&gt;Node4549 -->
<g id="edge16" class="edge">
<title>Node4387&#45;&gt;Node4549</title>
<path fill="none" stroke="#191970" d="M663.0521,-216.222C679.3993,-211.4066 699.4092,-205.5122 716.9571,-200.343"/>
<polygon fill="#191970" stroke="#191970" points="718.3548,-203.5801 726.9583,-197.3969 716.3768,-196.8653 718.3548,-203.5801"/>
</g>
<!-- Node4388&#45;&gt;Node4389 -->
<g id="edge6" class="edge">
<title>Node4388&#45;&gt;Node4389</title>
<path fill="none" stroke="#191970" d="M798.3323,-143.9554C814.466,-141.5225 833.0923,-138.7138 848.9745,-136.3188"/>
<polygon fill="#191970" stroke="#191970" points="849.5951,-139.7649 858.9614,-134.8129 848.5513,-132.8431 849.5951,-139.7649"/>
</g>
<!-- Node4388&#45;&gt;Node4396 -->
<g id="edge9" class="edge">
<title>Node4388&#45;&gt;Node4396</title>
<path fill="none" stroke="#191970" d="M784.6951,-159.4092C803.6665,-166.6363 829.8957,-176.6284 850.8433,-184.6084"/>
<polygon fill="#191970" stroke="#191970" points="849.7576,-187.9402 860.3485,-188.2295 852.2496,-181.3988 849.7576,-187.9402"/>
</g>
<!-- Node4389&#45;&gt;Node4386 -->
<g id="edge7" class="edge">
<title>Node4389&#45;&gt;Node4386</title>
<path fill="none" stroke="#191970" d="M896.2897,-121.0022C914.1385,-104.776 950.0021,-72.1727 971.8181,-52.34"/>
<polygon fill="#191970" stroke="#191970" points="974.3795,-54.7416 979.4246,-45.425 969.6708,-49.562 974.3795,-54.7416"/>
</g>
<!-- Node4389&#45;&gt;Node4390 -->
<g id="edge8" class="edge">
<title>Node4389&#45;&gt;Node4390</title>
<path fill="none" stroke="#191970" d="M894.57,-140.5038C903.3714,-150.0358 916.977,-165.1084 928,-178.811 945.9676,-201.1464 965.2061,-228.0412 977.4048,-245.5112"/>
<polygon fill="#191970" stroke="#191970" points="974.8284,-247.9378 983.4048,-254.1584 980.5796,-243.9472 974.8284,-247.9378"/>
</g>
<!-- Node4397&#45;&gt;Node4385 -->
<g id="edge14" class="edge">
<title>Node4397&#45;&gt;Node4385</title>
<path fill="none" stroke="#191970" d="M726.7802,-292.48C678.8847,-278.8213 589.6076,-253.3614 536.317,-238.1641"/>
<polygon fill="#191970" stroke="#191970" points="537.059,-234.7362 526.4826,-235.3595 535.1393,-241.4678 537.059,-234.7362"/>
</g>
<!-- Node4397&#45;&gt;Node4390 -->
<g id="edge13" class="edge">
<title>Node4397&#45;&gt;Node4390</title>
<path fill="none" stroke="#191970" d="M792.2437,-297.9411C826.2886,-293.7319 881.0651,-286.4382 928,-277.811 937.1471,-276.1297 946.9914,-274.038 956.0824,-271.9883"/>
<polygon fill="#191970" stroke="#191970" points="956.9895,-275.3711 965.949,-269.7163 955.4186,-268.5497 956.9895,-275.3711"/>
</g>
<!-- Node4979&#45;&gt;Node4385 -->
<g id="edge19" class="edge">
<title>Node4979&#45;&gt;Node4385</title>
<path fill="none" stroke="#191970" d="M375.5618,-197.2043C396.2181,-202.2359 421.882,-208.4874 443.9453,-213.8618"/>
<polygon fill="#191970" stroke="#191970" points="443.254,-217.2957 453.7982,-216.2619 444.9107,-210.4945 443.254,-217.2957"/>
</g>
<!-- Node4547&#45;&gt;Node4386 -->
<g id="edge21" class="edge">
<title>Node4547&#45;&gt;Node4386</title>
<path fill="none" stroke="#191970" d="M505.189,-64.1571C521.9979,-51.5233 553.7716,-30.0257 585,-21.811 732.4289,16.9706 776.4944,-4.9182 928,-21.811 936.4985,-22.7586 945.533,-24.4153 954.0003,-26.265"/>
<polygon fill="#191970" stroke="#191970" points="953.4403,-29.7281 963.973,-28.5823 955.0247,-22.9097 953.4403,-29.7281"/>
</g>
<!-- Node4547&#45;&gt;Node4390 -->
<g id="edge22" class="edge">
<title>Node4547&#45;&gt;Node4390</title>
<path fill="none" stroke="#191970" d="M535.3811,-64.25C619.3908,-47.8952 809.1696,-24.1982 928,-111.811 971.0911,-143.5818 984.3264,-210.5713 988.3193,-243.9857"/>
<polygon fill="#191970" stroke="#191970" points="984.8745,-244.7027 989.38,-254.2918 991.8377,-243.986 984.8745,-244.7027"/>
</g>
</g>
</svg>
        <g id="navigator" transform="translate(0 0)" fill="#404254">
                <rect fill="#f2f5e9" fill-opacity="0.5" stroke="#606060" stroke-width=".5" x="0" y="0" width="60" height="60"/>
                <use id="zoomplus" xlink:href="#zoomPlus" x="17" y="9" onmousedown="handleZoom(evt,'in')"/>
                <use id="zoomminus" xlink:href="#zoomMin" x="42" y="9" onmousedown="handleZoom(evt,'out')"/>
                <use id="reset" xlink:href="#resetDef" x="30" y="36" onmousedown="handleReset()"/>
                <g id="arrowUp" xlink:href="#dirArrow" transform="translate(30 24)" onmousedown="handlePan(0,-1)">
                  <use xlink:href="#rim" fill="#404040">
                        <set attributeName="fill" to="#808080" begin="arrowUp.mouseover" end="arrowUp.mouseout"/>
                  </use>
                  <path fill="none" stroke="white" stroke-width="1.5" d="M0,-3.0v7 M-2.5,-0.5L0,-3.0L2.5,-0.5"/>
                </g>
                <g id="arrowRight" xlink:href="#dirArrow" transform="rotate(90) translate(36 -43)" onmousedown="handlePan(1,0)">
                  <use xlink:href="#rim" fill="#404040">
                        <set attributeName="fill" to="#808080" begin="arrowRight.mouseover" end="arrowRight.mouseout"/>
                  </use>
                  <path fill="none" stroke="white" stroke-width="1.5" d="M0,-3.0v7 M-2.5,-0.5L0,-3.0L2.5,-0.5"/>
                </g>
                <g id="arrowDown" xlink:href="#dirArrow" transform="rotate(180) translate(-30 -48)" onmousedown="handlePan(0,1)">
                  <use xlink:href="#rim" fill="#404040">
                        <set attributeName="fill" to="#808080" begin="arrowDown.mouseover" end="arrowDown.mouseout"/>
                  </use>
                  <path fill="none" stroke="white" stroke-width="1.5" d="M0,-3.0v7 M-2.5,-0.5L0,-3.0L2.5,-0.5"/>
                </g>
                <g id="arrowLeft" xlink:href="#dirArrow" transform="rotate(270) translate(-36 17)" onmousedown="handlePan(-1,0)">
                  <use xlink:href="#rim" fill="#404040">
                        <set attributeName="fill" to="#808080" begin="arrowLeft.mouseover" end="arrowLeft.mouseout"/>
                  </use>
                  <path fill="none" stroke="white" stroke-width="1.5" d="M0,-3.0v7 M-2.5,-0.5L0,-3.0L2.5,-0.5"/>
                </g>
        </g>
        <svg viewBox="0 0 15 15" width="100%" height="30px" preserveAspectRatio="xMaxYMin meet">
         <g id="arrow_out" transform="scale(0.3 0.3)">
          <a xlink:href="protocols_2radius_2packet_8c_a62ee6ec159c0fd1fb1f83fed3590a2bc_cgraph_org.svg" target="_base">
           <rect id="button" ry="5" rx="5" y="6" x="6" height="38" width="38"
                fill="#f2f5e9" fill-opacity="0.5" stroke="#606060" stroke-width="1.0"/>
           <path id="arrow"
             d="M 11.500037,31.436501 C 11.940474,20.09759 22.043105,11.32322 32.158766,21.979434 L 37.068811,17.246167 C 37.068811,17.246167 37.088388,32 37.088388,32 L 22.160133,31.978069 C 22.160133,31.978069 26.997745,27.140456 26.997745,27.140456 C 18.528582,18.264221 13.291696,25.230495 11.500037,31.436501 z"
             style="fill:#404040;"/>
          </a>
         </g>
        </svg>
</svg>
