<?xml version="1.0" encoding="UTF-8" standalone="no"?>
<!DOCTYPE svg PUBLIC "-//W3C//DTD SVG 1.1//EN"
 "http://www.w3.org/Graphics/SVG/1.1/DTD/svg11.dtd">
<!-- Generated by graphviz version 2.40.1 (20161225.0304)
 -->
<!-- Title: fr_dhcpv4_encode_option Pages: 1 -->
<svg width="935pt" height="780pt"
 viewBox="0.00 0.00 935.00 779.54" xmlns="http://www.w3.org/2000/svg" xmlns:xlink="http://www.w3.org/1999/xlink">
<g id="graph0" class="graph" transform="scale(1 1) rotate(0) translate(4 775.5449)">
<title>fr_dhcpv4_encode_option</title>
<!-- Node3153 -->
<g id="node1" class="node">
<title>Node3153</title>
<polygon fill="#bfbfbf" stroke="#000000" points="0,-591.0449 0,-610.0449 128,-610.0449 128,-591.0449 0,-591.0449"/>
<text text-anchor="middle" x="64" y="-598.0449" font-family="Helvetica,sans-Serif" font-size="10.00" fill="#000000">fr_dhcpv4_encode_option</text>
</g>
<!-- Node3154 -->
<g id="node2" class="node">
<title>Node3154</title>
<g id="a_node2"><a xlink:href="cursor_8c.html#a92733b72ea218ecff0bc7808fae613b7" target="_top" xlink:title="Return the item the cursor current points to. ">
<polygon fill="none" stroke="#000000" points="685,-648.0449 685,-667.0449 775,-667.0449 775,-648.0449 685,-648.0449"/>
<text text-anchor="middle" x="730" y="-655.0449" font-family="Helvetica,sans-Serif" font-size="10.00" fill="#000000">fr_cursor_current</text>
</a>
</g>
</g>
<!-- Node3153&#45;&gt;Node3154 -->
<g id="edge1" class="edge">
<title>Node3153&#45;&gt;Node3154</title>
<path fill="none" stroke="#191970" d="M70.9247,-610.3022C85.8012,-630.6285 122.821,-677.9105 164,-705.5449 230.9563,-750.4779 252.3643,-771.5449 333,-771.5449 333,-771.5449 333,-771.5449 457.5,-771.5449 537.6496,-771.5449 561.5298,-768.7798 634,-734.5449 665.6625,-719.5875 696.1322,-692.2207 713.9582,-674.4651"/>
<polygon fill="#191970" stroke="#191970" points="716.7148,-676.6529 721.2177,-667.0626 711.717,-671.7517 716.7148,-676.6529"/>
</g>
<!-- Node3155 -->
<g id="node3" class="node">
<title>Node3155</title>
<g id="a_node3"><a xlink:href="strerror_8c.html#ae701765650b8aea79a3037bc4921d7f8" target="_top" xlink:title="Log to thread local error buffer. ">
<polygon fill="none" stroke="#000000" points="290,-249.0449 290,-268.0449 376,-268.0449 376,-249.0449 290,-249.0449"/>
<text text-anchor="middle" x="333" y="-256.0449" font-family="Helvetica,sans-Serif" font-size="10.00" fill="#000000">fr_strerror_printf</text>
</a>
</g>
</g>
<!-- Node3153&#45;&gt;Node3155 -->
<g id="edge2" class="edge">
<title>Node3153&#45;&gt;Node3155</title>
<path fill="none" stroke="#191970" d="M71.4754,-591.0409C108.2743,-544.2556 270.3617,-338.1817 319.0941,-276.2245"/>
<polygon fill="#191970" stroke="#191970" points="322.002,-278.1889 325.4333,-268.165 316.5,-273.8612 322.002,-278.1889"/>
</g>
<!-- Node3177 -->
<g id="node20" class="node">
<title>Node3177</title>
<g id="a_node20"><a xlink:href="cursor_8c.html#af6c2090d1e00319075d6def5aa2666fd" target="_top" xlink:title="Advanced the cursor to the next item. ">
<polygon fill="none" stroke="#ff0000" points="690.5,-591.0449 690.5,-610.0449 769.5,-610.0449 769.5,-591.0449 690.5,-591.0449"/>
<text text-anchor="middle" x="730" y="-598.0449" font-family="Helvetica,sans-Serif" font-size="10.00" fill="#000000">fr_cursor_next</text>
</a>
</g>
</g>
<!-- Node3153&#45;&gt;Node3177 -->
<g id="edge30" class="edge">
<title>Node3153&#45;&gt;Node3177</title>
<path fill="none" stroke="#191970" d="M90.7115,-591.0044C138.6033,-574.7779 242.5359,-543.5449 333,-543.5449 333,-543.5449 333,-543.5449 457.5,-543.5449 536.3977,-543.5449 558.5434,-539.4984 634,-562.5449 651.3026,-567.8296 653.3095,-574.5639 670,-581.5449 675.3599,-583.7867 681.0816,-585.9169 686.7837,-587.8852"/>
<polygon fill="#191970" stroke="#191970" points="685.7007,-591.2134 696.2941,-591.0359 687.9021,-584.5686 685.7007,-591.2134"/>
</g>
<!-- Node3375 -->
<g id="node21" class="node">
<title>Node3375</title>
<g id="a_node21"><a xlink:href="proto_8c.html#a1097e0481003e69568734523603d298a" target="_top" xlink:title="Build a complete DA stack from the da back to the root. ">
<polygon fill="none" stroke="#ff0000" points="670,-553.0449 670,-572.0449 790,-572.0449 790,-553.0449 670,-553.0449"/>
<text text-anchor="middle" x="730" y="-560.0449" font-family="Helvetica,sans-Serif" font-size="10.00" fill="#000000">fr_proto_da_stack_build</text>
</a>
</g>
</g>
<!-- Node3153&#45;&gt;Node3375 -->
<g id="edge31" class="edge">
<title>Node3153&#45;&gt;Node3375</title>
<path fill="none" stroke="#191970" d="M79.001,-590.8472C98.067,-578.9036 132.3179,-558.7083 164,-546.5449 236.1549,-518.843 255.7101,-505.5449 333,-505.5449 333,-505.5449 333,-505.5449 457.5,-505.5449 543.3665,-505.5449 641.2898,-532.9957 693.1831,-549.7973"/>
<polygon fill="#191970" stroke="#191970" points="692.3378,-553.2037 702.9308,-553.0044 694.5255,-546.5544 692.3378,-553.2037"/>
</g>
<!-- Node3780 -->
<g id="node22" class="node">
<title>Node3780</title>
<g id="a_node22"><a xlink:href="protocols_2dhcpv4_2encode_8c.html#aa358e177086e368c144d6541f42558a9" target="_top" xlink:title="encode_vsio_hdr">
<polygon fill="none" stroke="#000000" points="164,-591.0449 164,-610.0449 254,-610.0449 254,-591.0449 164,-591.0449"/>
<text text-anchor="middle" x="209" y="-598.0449" font-family="Helvetica,sans-Serif" font-size="10.00" fill="#000000">encode_vsio_hdr</text>
</a>
</g>
</g>
<!-- Node3153&#45;&gt;Node3780 -->
<g id="edge32" class="edge">
<title>Node3153&#45;&gt;Node3780</title>
<path fill="none" stroke="#191970" d="M128.0212,-600.5449C136.5431,-600.5449 145.2235,-600.5449 153.5825,-600.5449"/>
<polygon fill="#191970" stroke="#191970" points="153.5873,-604.045 163.5872,-600.5449 153.5872,-597.045 153.5873,-604.045"/>
</g>
<!-- Node3781 -->
<g id="node23" class="node">
<title>Node3781</title>
<g id="a_node23"><a xlink:href="protocols_2dhcpv4_2encode_8c.html#a3dc18ab3a7d954e47f83d9f3fc0721f2" target="_top" xlink:title="Write out a TLV header (and any sub TLVs or values) ">
<polygon fill="none" stroke="#000000" points="291.5,-696.0449 291.5,-715.0449 374.5,-715.0449 374.5,-696.0449 291.5,-696.0449"/>
<text text-anchor="middle" x="333" y="-703.0449" font-family="Helvetica,sans-Serif" font-size="10.00" fill="#000000">encode_tlv_hdr</text>
</a>
</g>
</g>
<!-- Node3153&#45;&gt;Node3781 -->
<g id="edge46" class="edge">
<title>Node3153&#45;&gt;Node3781</title>
<path fill="none" stroke="#191970" d="M72.5006,-610.262C88.4686,-627.7993 124.8796,-664.4983 164,-681.5449 201.0539,-697.691 246.5956,-703.445 281.0632,-705.2972"/>
<polygon fill="#191970" stroke="#191970" points="281.2378,-708.8082 291.3828,-705.7539 281.5474,-701.8151 281.2378,-708.8082"/>
</g>
<!-- Node3782 -->
<g id="node24" class="node">
<title>Node3782</title>
<g id="a_node24"><a xlink:href="protocols_2dhcpv4_2encode_8c.html#a3d522d36c7f40b2f73e0f46998c22334" target="_top" xlink:title="Write out an RFC option header and option data. ">
<polygon fill="none" stroke="#000000" points="416,-648.0449 416,-667.0449 499,-667.0449 499,-648.0449 416,-648.0449"/>
<text text-anchor="middle" x="457.5" y="-655.0449" font-family="Helvetica,sans-Serif" font-size="10.00" fill="#000000">encode_rfc_hdr</text>
</a>
</g>
</g>
<!-- Node3153&#45;&gt;Node3782 -->
<g id="edge47" class="edge">
<title>Node3153&#45;&gt;Node3782</title>
<path fill="none" stroke="#191970" d="M113.8346,-610.0867C129.849,-613.1334 147.6695,-616.503 164,-619.5449 219.9628,-629.9689 233.5921,-634.8871 290,-642.5449 328.5057,-647.7723 372.2483,-651.6188 405.3742,-654.1072"/>
<polygon fill="#191970" stroke="#191970" points="405.5069,-657.6262 415.7362,-654.8674 406.0192,-650.645 405.5069,-657.6262"/>
</g>
<!-- Node3156 -->
<g id="node4" class="node">
<title>Node3156</title>
<g id="a_node4"><a xlink:href="acutest_8h.html#aecf9a9be8105efb1454cd8c1ef6cb1c5" target="_top" xlink:title="va_start">
<polygon fill="none" stroke="#000000" points="850.5,-21.0449 850.5,-40.0449 902.5,-40.0449 902.5,-21.0449 850.5,-21.0449"/>
<text text-anchor="middle" x="876.5" y="-28.0449" font-family="Helvetica,sans-Serif" font-size="10.00" fill="#000000">va_start</text>
</a>
</g>
</g>
<!-- Node3155&#45;&gt;Node3156 -->
<g id="edge3" class="edge">
<title>Node3155&#45;&gt;Node3156</title>
<path fill="none" stroke="#191970" d="M334.6276,-248.988C340.0909,-219.7229 360.4171,-130.3114 412,-80.5449 530.6315,33.9093 753.6634,-1.8529 840.5582,-21.4559"/>
<polygon fill="#191970" stroke="#191970" points="839.9317,-24.9034 850.4641,-23.7552 841.5145,-18.0847 839.9317,-24.9034"/>
</g>
<!-- Node3157 -->
<g id="node5" class="node">
<title>Node3157</title>
<g id="a_node5"><a xlink:href="strerror_8c.html#a193b1e0b3712e3bbee338812c06af482" target="_top" xlink:title="fr_strerror_vprintf">
<polygon fill="none" stroke="#000000" points="412,-173.0449 412,-192.0449 503,-192.0449 503,-173.0449 412,-173.0449"/>
<text text-anchor="middle" x="457.5" y="-180.0449" font-family="Helvetica,sans-Serif" font-size="10.00" fill="#000000">fr_strerror_vprintf</text>
</a>
</g>
</g>
<!-- Node3155&#45;&gt;Node3157 -->
<g id="edge4" class="edge">
<title>Node3155&#45;&gt;Node3157</title>
<path fill="none" stroke="#191970" d="M348.768,-248.9194C370.0968,-235.8994 408.34,-212.5542 433.3149,-197.3085"/>
<polygon fill="#191970" stroke="#191970" points="435.1483,-200.29 441.86,-192.0922 431.501,-194.3152 435.1483,-200.29"/>
</g>
<!-- Node3160 -->
<g id="node8" class="node">
<title>Node3160</title>
<g id="a_node8"><a xlink:href="acutest_8h.html#a36af1f79dd6adf0809c21e76535034d5" target="_top" xlink:title="va_end">
<polygon fill="none" stroke="#000000" points="852.5,-97.0449 852.5,-116.0449 900.5,-116.0449 900.5,-97.0449 852.5,-97.0449"/>
<text text-anchor="middle" x="876.5" y="-104.0449" font-family="Helvetica,sans-Serif" font-size="10.00" fill="#000000">va_end</text>
</a>
</g>
</g>
<!-- Node3155&#45;&gt;Node3160 -->
<g id="edge29" class="edge">
<title>Node3155&#45;&gt;Node3160</title>
<path fill="none" stroke="#191970" d="M339.3222,-248.757C361.6509,-215.2042 440.7768,-104.6986 539,-64.5449 642.4446,-22.2567 682.9543,-17.4467 790,-49.5449 816.4056,-57.4627 842.2011,-76.3338 858.6505,-90.2029"/>
<polygon fill="#191970" stroke="#191970" points="856.5154,-92.9848 866.3543,-96.9151 861.1139,-87.707 856.5154,-92.9848"/>
</g>
<!-- Node3158 -->
<g id="node6" class="node">
<title>Node3158</title>
<g id="a_node6"><a xlink:href="strerror_8c.html#a42c2cc9f76fb9dac723a1903c181e1c7" target="_top" xlink:title="Initialise thread local storage. ">
<polygon fill="none" stroke="#000000" points="548,-135.0449 548,-154.0449 625,-154.0449 625,-135.0449 548,-135.0449"/>
<text text-anchor="middle" x="586.5" y="-142.0449" font-family="Helvetica,sans-Serif" font-size="10.00" fill="#000000">fr_strerror_init</text>
</a>
</g>
</g>
<!-- Node3157&#45;&gt;Node3158 -->
<g id="edge5" class="edge">
<title>Node3157&#45;&gt;Node3158</title>
<path fill="none" stroke="#191970" d="M490.0521,-172.9559C506.3993,-168.1405 526.4092,-162.246 543.9571,-157.0769"/>
<polygon fill="#191970" stroke="#191970" points="545.3548,-160.3139 553.9583,-154.1308 543.3768,-153.5992 545.3548,-160.3139"/>
</g>
<!-- Node3159 -->
<g id="node7" class="node">
<title>Node3159</title>
<g id="a_node7"><a xlink:href="strerror_8c.html#a2c8e65d6d4b73fb705cc023f60acb099" target="_top" xlink:title="Print the current error to stderr with a prefix. ">
<polygon fill="none" stroke="#ff0000" points="703.5,-59.0449 703.5,-78.0449 756.5,-78.0449 756.5,-59.0449 703.5,-59.0449"/>
<text text-anchor="middle" x="730" y="-66.0449" font-family="Helvetica,sans-Serif" font-size="10.00" fill="#000000">fr_perror</text>
</a>
</g>
</g>
<!-- Node3157&#45;&gt;Node3159 -->
<g id="edge12" class="edge">
<title>Node3157&#45;&gt;Node3159</title>
<path fill="none" stroke="#191970" d="M462.9665,-172.883C474.3367,-153.8094 502.5394,-111.5248 539,-92.5449 587.8467,-67.1173 652.9421,-64.4798 693.1324,-65.829"/>
<polygon fill="#191970" stroke="#191970" points="693.1375,-69.3325 703.2808,-66.2728 693.4433,-62.3392 693.1375,-69.3325"/>
</g>
<!-- Node3157&#45;&gt;Node3160 -->
<g id="edge27" class="edge">
<title>Node3157&#45;&gt;Node3160</title>
<path fill="none" stroke="#191970" d="M467.4989,-172.6949C481.8999,-159.229 509.9568,-135.5993 539,-125.5449 644.6354,-88.9751 779.9225,-96.3069 842.2526,-102.4552"/>
<polygon fill="#191970" stroke="#191970" points="842.0095,-105.9487 852.3178,-103.5017 842.7334,-98.9862 842.0095,-105.9487"/>
</g>
<!-- Node3166 -->
<g id="node10" class="node">
<title>Node3166</title>
<g id="a_node10"><a xlink:href="strerror_8c.html#a9d878c1ddb1b385cdaf6523fff68529c" target="_top" xlink:title="Reset cursor state. ">
<polygon fill="none" stroke="#000000" points="834,-211.0449 834,-230.0449 919,-230.0449 919,-211.0449 834,-211.0449"/>
<text text-anchor="middle" x="876.5" y="-218.0449" font-family="Helvetica,sans-Serif" font-size="10.00" fill="#000000">fr_strerror_clear</text>
</a>
</g>
</g>
<!-- Node3157&#45;&gt;Node3166 -->
<g id="edge11" class="edge">
<title>Node3157&#45;&gt;Node3166</title>
<path fill="none" stroke="#191970" d="M492.55,-192.1159C506.8497,-195.6532 523.6121,-199.335 539,-201.5449 638.9424,-215.8979 756.9856,-219.5404 823.6605,-220.3858"/>
<polygon fill="#191970" stroke="#191970" points="823.8717,-223.8883 833.9097,-220.4987 823.9489,-216.8887 823.8717,-223.8883"/>
</g>
<!-- Node3167 -->
<g id="node11" class="node">
<title>Node3167</title>
<g id="a_node11"><a xlink:href="print_8c.html#a27ae94b5a4c77de49aa2f387765a4d58" target="_top" xlink:title="Special version of vasprintf which implements custom format specifiers. ">
<polygon fill="none" stroke="#000000" points="554,-344.0449 554,-363.0449 619,-363.0449 619,-344.0449 554,-344.0449"/>
<text text-anchor="middle" x="586.5" y="-351.0449" font-family="Helvetica,sans-Serif" font-size="10.00" fill="#000000">fr_vasprintf</text>
</a>
</g>
</g>
<!-- Node3157&#45;&gt;Node3167 -->
<g id="edge13" class="edge">
<title>Node3157&#45;&gt;Node3167</title>
<path fill="none" stroke="#191970" d="M464.8052,-192.2285C485.7368,-219.975 546.1552,-300.0646 573.1706,-335.8757"/>
<polygon fill="#191970" stroke="#191970" points="570.4584,-338.0921 579.2749,-343.9674 576.0466,-333.8764 570.4584,-338.0921"/>
</g>
<!-- Node3319 -->
<g id="node19" class="node">
<title>Node3319</title>
<g id="a_node19"><a xlink:href="cursor_8c.html#a5d942382660657c3b4cb6e9cb2b12b2c" target="_top" xlink:title="Insert a single item at the start of the list. ">
<polygon fill="none" stroke="#000000" points="539,-173.0449 539,-192.0449 634,-192.0449 634,-173.0449 539,-173.0449"/>
<text text-anchor="middle" x="586.5" y="-180.0449" font-family="Helvetica,sans-Serif" font-size="10.00" fill="#000000">fr_cursor_prepend</text>
</a>
</g>
</g>
<!-- Node3157&#45;&gt;Node3319 -->
<g id="edge28" class="edge">
<title>Node3157&#45;&gt;Node3319</title>
<path fill="none" stroke="#191970" d="M503.3438,-182.5449C511.4784,-182.5449 520.0463,-182.5449 528.4656,-182.5449"/>
<polygon fill="#191970" stroke="#191970" points="528.6227,-186.045 538.6227,-182.5449 528.6227,-179.045 528.6227,-186.045"/>
</g>
<!-- Node3158&#45;&gt;Node3159 -->
<g id="edge6" class="edge">
<title>Node3158&#45;&gt;Node3159</title>
<path fill="none" stroke="#191970" d="M604.6744,-134.9194C629.4738,-121.7852 674.1125,-98.1439 702.878,-82.9091"/>
<polygon fill="#191970" stroke="#191970" points="704.7742,-85.8655 711.9732,-78.0922 701.4979,-79.6795 704.7742,-85.8655"/>
</g>
<!-- Node3165 -->
<g id="node9" class="node">
<title>Node3165</title>
<g id="a_node9"><a xlink:href="strerror_8c.html#afe66becac3be1b0b82b90889d27fcf99" target="_top" xlink:title="_fr_logging_free">
<polygon fill="none" stroke="#000000" points="687,-135.0449 687,-154.0449 773,-154.0449 773,-135.0449 687,-135.0449"/>
<text text-anchor="middle" x="730" y="-142.0449" font-family="Helvetica,sans-Serif" font-size="10.00" fill="#000000">_fr_logging_free</text>
</a>
</g>
</g>
<!-- Node3158&#45;&gt;Node3165 -->
<g id="edge9" class="edge">
<title>Node3158&#45;&gt;Node3165</title>
<path fill="none" stroke="#191970" d="M625.3332,-144.5449C641.0741,-144.5449 659.5137,-144.5449 676.4933,-144.5449"/>
<polygon fill="#191970" stroke="#191970" points="676.8397,-148.045 686.8396,-144.5449 676.8396,-141.045 676.8397,-148.045"/>
</g>
<!-- Node3158&#45;&gt;Node3166 -->
<g id="edge10" class="edge">
<title>Node3158&#45;&gt;Node3166</title>
<path fill="none" stroke="#191970" d="M622.9351,-154.0934C675.4592,-167.8583 772.4532,-193.2775 830.0547,-208.373"/>
<polygon fill="#191970" stroke="#191970" points="829.4252,-211.8262 839.9859,-210.9757 831.1999,-205.0549 829.4252,-211.8262"/>
</g>
<!-- Node3159&#45;&gt;Node3156 -->
<g id="edge7" class="edge">
<title>Node3159&#45;&gt;Node3156</title>
<path fill="none" stroke="#191970" d="M756.53,-61.6634C779.9693,-55.5836 814.3626,-46.6624 840.3211,-39.9292"/>
<polygon fill="#191970" stroke="#191970" points="841.3664,-43.2739 850.1673,-37.3752 839.6089,-36.4982 841.3664,-43.2739"/>
</g>
<!-- Node3159&#45;&gt;Node3160 -->
<g id="edge8" class="edge">
<title>Node3159&#45;&gt;Node3160</title>
<path fill="none" stroke="#191970" d="M756.53,-75.4264C780.5517,-81.6573 816.0783,-90.8724 842.24,-97.6583"/>
<polygon fill="#191970" stroke="#191970" points="841.556,-101.0967 852.1145,-100.2196 843.3136,-94.3209 841.556,-101.0967"/>
</g>
<!-- Node3167&#45;&gt;Node3155 -->
<g id="edge17" class="edge">
<title>Node3167&#45;&gt;Node3155</title>
<path fill="none" stroke="#191970" d="M561.1069,-344.0287C515.5688,-326.9632 419.9482,-291.129 368.1465,-271.7162"/>
<polygon fill="#191970" stroke="#191970" points="369.2943,-268.4087 358.702,-268.1768 366.8378,-274.9635 369.2943,-268.4087"/>
</g>
<!-- Node3167&#45;&gt;Node3160 -->
<g id="edge15" class="edge">
<title>Node3167&#45;&gt;Node3160</title>
<path fill="none" stroke="#191970" d="M605.7883,-343.9647C622.5335,-335.8423 647.5505,-324.1717 670,-315.5449 722.2206,-295.4778 747.8511,-314.33 790,-277.5449 818.1595,-252.9689 809.2238,-234.944 826,-201.5449 839.4935,-174.6811 855.9809,-144.0463 866.3642,-125.0001"/>
<polygon fill="#191970" stroke="#191970" points="869.4616,-126.6309 871.1895,-116.1779 863.3201,-123.2718 869.4616,-126.6309"/>
</g>
<!-- Node3168 -->
<g id="node12" class="node">
<title>Node3168</title>
<g id="a_node12"><a xlink:href="value_8h.html#a878e0abfce7189a1784cdf15bc9fc3a3" target="_top" xlink:title="fr_value_box_aprint">
<polygon fill="none" stroke="#000000" points="826,-458.0449 826,-477.0449 927,-477.0449 927,-458.0449 826,-458.0449"/>
<text text-anchor="middle" x="876.5" y="-465.0449" font-family="Helvetica,sans-Serif" font-size="10.00" fill="#000000">fr_value_box_aprint</text>
</a>
</g>
</g>
<!-- Node3167&#45;&gt;Node3168 -->
<g id="edge14" class="edge">
<title>Node3167&#45;&gt;Node3168</title>
<path fill="none" stroke="#191970" d="M593.8437,-363.0561C607.1127,-379.5078 636.8063,-413.091 670,-429.5449 715.5605,-452.129 772.7842,-461.3837 815.4319,-465.1298"/>
<polygon fill="#191970" stroke="#191970" points="815.4219,-468.6401 825.6691,-465.9485 815.98,-461.6624 815.4219,-468.6401"/>
</g>
<!-- Node3169 -->
<g id="node13" class="node">
<title>Node3169</title>
<g id="a_node13"><a xlink:href="talloc_8c.html#a3536feb85c89aa239851ef0830b72e64" target="_top" xlink:title="Call talloc_strdup, setting the type on the new chunk correctly. ">
<polygon fill="none" stroke="#000000" points="826,-505.0449 826,-524.0449 927,-524.0449 927,-505.0449 826,-505.0449"/>
<text text-anchor="middle" x="876.5" y="-512.0449" font-family="Helvetica,sans-Serif" font-size="10.00" fill="#000000">talloc_typed_strdup</text>
</a>
</g>
</g>
<!-- Node3167&#45;&gt;Node3169 -->
<g id="edge16" class="edge">
<title>Node3167&#45;&gt;Node3169</title>
<path fill="none" stroke="#191970" d="M588.4173,-363.2719C594.512,-391.2692 616.2962,-472.1733 670,-505.5449 716.0911,-534.186 779.7844,-532.1305 824.2017,-525.65"/>
<polygon fill="#191970" stroke="#191970" points="824.8822,-529.086 834.213,-524.0675 823.7892,-522.1718 824.8822,-529.086"/>
</g>
<!-- Node3170 -->
<g id="node14" class="node">
<title>Node3170</title>
<g id="a_node14"><a xlink:href="value_8c.html#a3a0550d465b81917f8b0c69a3373163e" target="_top" xlink:title="Convert one type of fr_value_box_t to another. ">
<polygon fill="none" stroke="#ff0000" points="682,-249.0449 682,-268.0449 778,-268.0449 778,-249.0449 682,-249.0449"/>
<text text-anchor="middle" x="730" y="-256.0449" font-family="Helvetica,sans-Serif" font-size="10.00" fill="#000000">fr_value_box_cast</text>
</a>
</g>
</g>
<!-- Node3167&#45;&gt;Node3170 -->
<g id="edge18" class="edge">
<title>Node3167&#45;&gt;Node3170</title>
<path fill="none" stroke="#191970" d="M595.963,-343.6596C610.6503,-328.7688 640.3419,-300.4273 670,-282.5449 676.5393,-278.602 683.8426,-275.0592 691.0414,-271.9825"/>
<polygon fill="#191970" stroke="#191970" points="692.7468,-275.0687 700.7116,-268.0821 690.1283,-268.5769 692.7468,-275.0687"/>
</g>
<!-- Node3270 -->
<g id="node15" class="node">
<title>Node3270</title>
<g id="a_node15"><a xlink:href="strerror_8c.html#a83ee876ee41b1ae672dc4dcda4f02a2e" target="_top" xlink:title="Get the last library error. ">
<polygon fill="none" stroke="#ff0000" points="700.5,-401.0449 700.5,-420.0449 759.5,-420.0449 759.5,-401.0449 700.5,-401.0449"/>
<text text-anchor="middle" x="730" y="-408.0449" font-family="Helvetica,sans-Serif" font-size="10.00" fill="#000000">fr_strerror</text>
</a>
</g>
</g>
<!-- Node3167&#45;&gt;Node3270 -->
<g id="edge20" class="edge">
<title>Node3167&#45;&gt;Node3270</title>
<path fill="none" stroke="#191970" d="M605.7883,-363.1251C622.5335,-371.2474 647.5505,-382.9181 670,-391.5449 676.5786,-394.0729 683.651,-396.5331 690.5508,-398.7993"/>
<polygon fill="#191970" stroke="#191970" points="689.8677,-402.2553 700.4586,-401.9659 691.9988,-395.5876 689.8677,-402.2553"/>
</g>
<!-- Node3180 -->
<g id="node16" class="node">
<title>Node3180</title>
<g id="a_node16"><a xlink:href="value_8c.html#ad5da2574fed047b3ae861999d06c38ac" target="_top" xlink:title="Clear/free any existing value and metadata. ">
<polygon fill="none" stroke="#ff0000" points="681,-363.0449 681,-382.0449 779,-382.0449 779,-363.0449 681,-363.0449"/>
<text text-anchor="middle" x="730" y="-370.0449" font-family="Helvetica,sans-Serif" font-size="10.00" fill="#000000">fr_value_box_clear</text>
</a>
</g>
</g>
<!-- Node3167&#45;&gt;Node3180 -->
<g id="edge22" class="edge">
<title>Node3167&#45;&gt;Node3180</title>
<path fill="none" stroke="#191970" d="M619.0624,-357.8563C634.3391,-359.879 653.0349,-362.3544 670.6934,-364.6924"/>
<polygon fill="#191970" stroke="#191970" points="670.564,-368.2058 680.9369,-366.0487 671.4828,-361.2663 670.564,-368.2058"/>
</g>
<!-- Node3778 -->
<g id="node17" class="node">
<title>Node3778</title>
<g id="a_node17"><a xlink:href="value_8c.html#a1064a346792dc1e5ecf05d04b4c1af55" target="_top" xlink:title="Concatenate the string representations of a list of value boxes together. ">
<polygon fill="none" stroke="#ff0000" points="670.5,-477.0449 670.5,-496.0449 789.5,-496.0449 789.5,-477.0449 670.5,-477.0449"/>
<text text-anchor="middle" x="730" y="-484.0449" font-family="Helvetica,sans-Serif" font-size="10.00" fill="#000000">fr_value_box_list_aprint</text>
</a>
</g>
</g>
<!-- Node3167&#45;&gt;Node3778 -->
<g id="edge23" class="edge">
<title>Node3167&#45;&gt;Node3778</title>
<path fill="none" stroke="#191970" d="M591.4536,-363.0868C602.7118,-383.916 632.2013,-433.8815 670,-462.5449 675.2212,-466.5042 681.1831,-469.9062 687.276,-472.799"/>
<polygon fill="#191970" stroke="#191970" points="686.3018,-476.1902 696.8706,-476.9326 689.0715,-469.7615 686.3018,-476.1902"/>
</g>
<!-- Node3653 -->
<g id="node18" class="node">
<title>Node3653</title>
<g id="a_node18"><a xlink:href="util_2pair_8h.html#acfe6934363fefdc67e14fc08a205952b" target="_top" xlink:title="fr_pair_aprint">
<polygon fill="none" stroke="#000000" points="693.5,-325.0449 693.5,-344.0449 766.5,-344.0449 766.5,-325.0449 693.5,-325.0449"/>
<text text-anchor="middle" x="730" y="-332.0449" font-family="Helvetica,sans-Serif" font-size="10.00" fill="#000000">fr_pair_aprint</text>
</a>
</g>
</g>
<!-- Node3167&#45;&gt;Node3653 -->
<g id="edge26" class="edge">
<title>Node3167&#45;&gt;Node3653</title>
<path fill="none" stroke="#191970" d="M619.0624,-349.2335C638.0364,-346.7213 662.2846,-343.5107 683.269,-340.7323"/>
<polygon fill="#191970" stroke="#191970" points="683.8168,-344.1904 693.2708,-339.408 682.8979,-337.2509 683.8168,-344.1904"/>
</g>
<!-- Node3170&#45;&gt;Node3155 -->
<g id="edge19" class="edge">
<title>Node3170&#45;&gt;Node3155</title>
<path fill="none" stroke="#191970" d="M681.884,-258.5449C607.224,-258.5449 463.9996,-258.5449 386.2991,-258.5449"/>
<polygon fill="#191970" stroke="#191970" points="386.2417,-255.045 376.2417,-258.5449 386.2417,-262.045 386.2417,-255.045"/>
</g>
<!-- Node3270&#45;&gt;Node3166 -->
<g id="edge21" class="edge">
<title>Node3270&#45;&gt;Node3166</title>
<path fill="none" stroke="#191970" d="M759.7966,-406.0271C770.2589,-403.2463 781.5088,-398.7637 790,-391.5449 838.2605,-350.5164 862.5815,-275.9304 871.8776,-240.3965"/>
<polygon fill="#191970" stroke="#191970" points="875.3656,-240.8725 874.3791,-230.3237 868.572,-239.1853 875.3656,-240.8725"/>
</g>
<!-- Node3778&#45;&gt;Node3168 -->
<g id="edge24" class="edge">
<title>Node3778&#45;&gt;Node3168</title>
<path fill="none" stroke="#191970" d="M789.5872,-478.8169C798.2417,-477.6944 807.16,-476.5378 815.8355,-475.4126"/>
<polygon fill="#191970" stroke="#191970" points="816.4111,-478.8674 825.8779,-474.1102 815.5107,-471.9255 816.4111,-478.8674"/>
</g>
<!-- Node3778&#45;&gt;Node3169 -->
<g id="edge25" class="edge">
<title>Node3778&#45;&gt;Node3169</title>
<path fill="none" stroke="#191970" d="M780.0072,-496.1026C791.7932,-498.3552 804.4748,-500.779 816.6457,-503.1052"/>
<polygon fill="#191970" stroke="#191970" points="816.2388,-506.5907 826.7181,-505.0303 817.553,-499.7151 816.2388,-506.5907"/>
</g>
<!-- Node3780&#45;&gt;Node3154 -->
<g id="edge45" class="edge">
<title>Node3780&#45;&gt;Node3154</title>
<path fill="none" stroke="#191970" d="M254.0329,-604.6161C287.6569,-607.7151 334.7261,-612.178 376,-616.5449 481.6314,-627.721 604.7986,-642.3473 674.4708,-650.7693"/>
<polygon fill="#191970" stroke="#191970" points="674.4199,-654.2886 684.7681,-652.0159 675.2612,-647.3393 674.4199,-654.2886"/>
</g>
<!-- Node3780&#45;&gt;Node3155 -->
<g id="edge33" class="edge">
<title>Node3780&#45;&gt;Node3155</title>
<path fill="none" stroke="#191970" d="M212.4459,-591.0409C229.2699,-544.6391 302.9048,-341.5493 326.027,-277.7769"/>
<polygon fill="#191970" stroke="#191970" points="329.3937,-278.7592 329.512,-268.165 322.8129,-276.3732 329.3937,-278.7592"/>
</g>
<!-- Node3780&#45;&gt;Node3781 -->
<g id="edge34" class="edge">
<title>Node3780&#45;&gt;Node3781</title>
<path fill="none" stroke="#191970" d="M220.4434,-610.2348C241.759,-628.2843 287.7432,-667.2226 313.8595,-689.3372"/>
<polygon fill="#191970" stroke="#191970" points="311.691,-692.0872 321.5843,-695.8784 316.2145,-686.7451 311.691,-692.0872"/>
</g>
<!-- Node3780&#45;&gt;Node3782 -->
<g id="edge44" class="edge">
<title>Node3780&#45;&gt;Node3782</title>
<path fill="none" stroke="#191970" d="M250.5933,-610.0854C293.3292,-619.888 359.9412,-635.1672 405.9853,-645.7286"/>
<polygon fill="#191970" stroke="#191970" points="405.2416,-649.1489 415.771,-647.9732 406.8066,-642.3261 405.2416,-649.1489"/>
</g>
<!-- Node3781&#45;&gt;Node3154 -->
<g id="edge35" class="edge">
<title>Node3781&#45;&gt;Node3154</title>
<path fill="none" stroke="#191970" d="M374.809,-714.4029C433.7938,-725.205 544.2607,-739.1787 634,-714.5449 663.0451,-706.5719 692.2002,-687.2768 710.6304,-673.3421"/>
<polygon fill="#191970" stroke="#191970" points="712.7931,-676.094 718.5368,-667.1912 708.4948,-670.5691 712.7931,-676.094"/>
</g>
<!-- Node3781&#45;&gt;Node3782 -->
<g id="edge36" class="edge">
<title>Node3781&#45;&gt;Node3782</title>
<path fill="none" stroke="#191970" d="M357.8952,-695.9467C376.6407,-688.7196 402.5576,-678.7275 423.2558,-670.7475"/>
<polygon fill="#191970" stroke="#191970" points="424.5765,-673.9895 432.6479,-667.1264 422.0583,-667.4581 424.5765,-673.9895"/>
</g>
<!-- Node3784 -->
<g id="node26" class="node">
<title>Node3784</title>
<g id="a_node26"><a xlink:href="protocols_2dhcpv4_2encode_8c.html#a5bfb30caa7f5d5918a8629c2035fb4d5" target="_top" xlink:title="Extend an encoded option in&#45;place. ">
<polygon fill="none" stroke="#000000" points="548,-686.0449 548,-705.0449 625,-705.0449 625,-686.0449 548,-686.0449"/>
<text text-anchor="middle" x="586.5" y="-693.0449" font-family="Helvetica,sans-Serif" font-size="10.00" fill="#000000">extend_option</text>
</a>
</g>
</g>
<!-- Node3781&#45;&gt;Node3784 -->
<g id="edge43" class="edge">
<title>Node3781&#45;&gt;Node3784</title>
<path fill="none" stroke="#191970" d="M374.5765,-703.9048C419.3311,-702.1393 490.4542,-699.3337 537.7953,-697.4662"/>
<polygon fill="#191970" stroke="#191970" points="537.9582,-700.9626 547.8124,-697.071 537.6822,-693.968 537.9582,-700.9626"/>
</g>
<!-- Node3782&#45;&gt;Node3154 -->
<g id="edge37" class="edge">
<title>Node3782&#45;&gt;Node3154</title>
<path fill="none" stroke="#191970" d="M499.1835,-657.5449C546.1477,-657.5449 622.691,-657.5449 674.6407,-657.5449"/>
<polygon fill="#191970" stroke="#191970" points="674.6867,-661.045 684.6867,-657.5449 674.6867,-654.045 674.6867,-661.045"/>
</g>
<!-- Node3783 -->
<g id="node25" class="node">
<title>Node3783</title>
<g id="a_node25"><a xlink:href="protocols_2dhcpv4_2encode_8c.html#a162425f248d39ccfbcc958c3ed614501" target="_top" xlink:title="Write DHCP option value into buffer. ">
<polygon fill="none" stroke="#ff0000" points="548,-572.0449 548,-591.0449 625,-591.0449 625,-572.0449 548,-572.0449"/>
<text text-anchor="middle" x="586.5" y="-579.0449" font-family="Helvetica,sans-Serif" font-size="10.00" fill="#000000">encode_value</text>
</a>
</g>
</g>
<!-- Node3782&#45;&gt;Node3783 -->
<g id="edge38" class="edge">
<title>Node3782&#45;&gt;Node3783</title>
<path fill="none" stroke="#191970" d="M473.8379,-647.9194C495.9377,-634.8994 535.5631,-611.5542 561.4408,-596.3085"/>
<polygon fill="#191970" stroke="#191970" points="563.4554,-599.1838 570.2947,-591.0922 559.9022,-593.1527 563.4554,-599.1838"/>
</g>
<!-- Node3782&#45;&gt;Node3784 -->
<g id="edge42" class="edge">
<title>Node3782&#45;&gt;Node3784</title>
<path fill="none" stroke="#191970" d="M490.0521,-667.1339C506.3993,-671.9493 526.4092,-677.8437 543.9571,-683.0129"/>
<polygon fill="#191970" stroke="#191970" points="543.3768,-686.4906 553.9583,-685.959 545.3548,-679.7758 543.3768,-686.4906"/>
</g>
<!-- Node3783&#45;&gt;Node3154 -->
<g id="edge39" class="edge">
<title>Node3783&#45;&gt;Node3154</title>
<path fill="none" stroke="#191970" d="M605.977,-591.2287C614.5936,-595.5532 624.8315,-600.7467 634,-605.5449 657.8133,-618.0071 684.6992,-632.6173 703.948,-643.1727"/>
<polygon fill="#191970" stroke="#191970" points="702.2873,-646.2537 712.737,-648.0015 705.658,-640.1186 702.2873,-646.2537"/>
</g>
<!-- Node3783&#45;&gt;Node3177 -->
<g id="edge40" class="edge">
<title>Node3783&#45;&gt;Node3177</title>
<path fill="none" stroke="#191970" d="M625.3332,-586.6866C642.2728,-588.9294 662.3377,-591.5861 680.3451,-593.9704"/>
<polygon fill="#191970" stroke="#191970" points="680.0137,-597.457 690.3866,-595.2999 680.9325,-590.5175 680.0137,-597.457"/>
</g>
<!-- Node3783&#45;&gt;Node3375 -->
<g id="edge41" class="edge">
<title>Node3783&#45;&gt;Node3375</title>
<path fill="none" stroke="#191970" d="M625.3332,-576.4032C636.0329,-574.9865 647.9796,-573.4047 659.867,-571.8308"/>
<polygon fill="#191970" stroke="#191970" points="660.3558,-575.2967 669.8098,-570.5143 659.4369,-568.3573 660.3558,-575.2967"/>
</g>
</g>
</svg>
