<?xml version="1.0" encoding="UTF-8" standalone="no"?>
<!DOCTYPE svg PUBLIC "-//W3C//DTD SVG 1.1//EN"
 "http://www.w3.org/Graphics/SVG/1.1/DTD/svg11.dtd">
<!-- Generated by graphviz version 2.40.1 (20161225.0304)
 -->
<!-- Title: fr_ring_buffer_reserve_split Pages: 1 -->
<!--zoomable 522 -->
<svg id="main" version="1.1" xmlns="http://www.w3.org/2000/svg" xmlns:xlink="http://www.w3.org/1999/xlink" xml:space="preserve" onload="init(evt)">
<style type="text/css"><![CDATA[
.edge:hover path { stroke: red; }
.edge:hover polygon { stroke: red; fill: red; }
]]></style>
<script type="text/javascript"><![CDATA[
var edges = document.getElementsByTagName('g');
if (edges && edges.length) {
  for (var i=0;i<edges.length;i++) {
    if (edges[i].id.substr(0,4)=='edge') {
      edges[i].setAttribute('class','edge');
    }
  }
}
]]></script>
        <defs>
                <circle id="rim" cx="0" cy="0" r="7"/>
                <circle id="rim2" cx="0" cy="0" r="3.5"/>
                <g id="zoomPlus">
                        <use xlink:href="#rim" fill="#404040">
                                <set attributeName="fill" to="#808080" begin="zoomplus.mouseover" end="zoomplus.mouseout"/>
                        </use>
                        <path d="M-4,0h8M0,-4v8" fill="none" stroke="white" stroke-width="1.5" pointer-events="none"/>
                </g>
                <g id="zoomMin">
                        <use xlink:href="#rim" fill="#404040">
                                <set attributeName="fill" to="#808080" begin="zoomminus.mouseover" end="zoomminus.mouseout"/>
                        </use>
                        <path d="M-4,0h8" fill="none" stroke="white" stroke-width="1.5" pointer-events="none"/>
                </g>
                <g id="dirArrow">
                        <path fill="none" stroke="white" stroke-width="1.5" d="M0,-3.0v7 M-2.5,-0.5L0,-3.0L2.5,-0.5"/>
                </g>
               <g id="resetDef">
                       <use xlink:href="#rim2" fill="#404040">
                               <set attributeName="fill" to="#808080" begin="reset.mouseover" end="reset.mouseout"/>
                       </use>
               </g>
        </defs>

<script type="text/javascript">
var viewWidth = 938;
var viewHeight = 522;
var sectionId = 'dynsection-5';
</script>
<script xlink:href="svgpan.js"/>
<svg id="graph" class="graph">
<g id="viewport">
<title>fr_ring_buffer_reserve_split</title>
<!-- Node2510 -->
<g id="node1" class="node">
<title>Node2510</title>
<polygon fill="#bfbfbf" stroke="#000000" points="0,-356 0,-386 111,-386 111,-356 0,-356"/>
<text text-anchor="start" x="8" y="-374" font-family="Helvetica,sans-Serif" font-size="10.00" fill="#000000">fr_ring_buffer_reserve</text>
<text text-anchor="middle" x="55.5" y="-363" font-family="Helvetica,sans-Serif" font-size="10.00" fill="#000000">_split</text>
</g>
<!-- Node2511 -->
<g id="node2" class="node">
<title>Node2511</title>
<g id="a_node2"><a xlink:href="strerror_8c.html#ae701765650b8aea79a3037bc4921d7f8" target="_top" xlink:title="Log to thread local error buffer. ">
<polygon fill="none" stroke="#000000" points="294,-361.5 294,-380.5 380,-380.5 380,-361.5 294,-361.5"/>
<text text-anchor="middle" x="337" y="-368.5" font-family="Helvetica,sans-Serif" font-size="10.00" fill="#000000">fr_strerror_printf</text>
</a>
</g>
</g>
<!-- Node2510&#45;&gt;Node2511 -->
<g id="edge1" class="edge">
<title>Node2510&#45;&gt;Node2511</title>
<path fill="none" stroke="#191970" d="M111.1153,-371C161.2279,-371 234.4036,-371 283.7676,-371"/>
<polygon fill="#191970" stroke="#191970" points="283.923,-374.5001 293.923,-371 283.923,-367.5001 283.923,-374.5001"/>
</g>
<!-- Node3137 -->
<g id="node19" class="node">
<title>Node3137</title>
<g id="a_node19"><a xlink:href="ring__buffer_8c.html#a8834a2b2c4f7fcbc362590bdf82e7bf8" target="_top" xlink:title="Reserve room in the ring buffer. ">
<polygon fill="none" stroke="#000000" points="147,-342.5 147,-361.5 258,-361.5 258,-342.5 147,-342.5"/>
<text text-anchor="middle" x="202.5" y="-349.5" font-family="Helvetica,sans-Serif" font-size="10.00" fill="#000000">fr_ring_buffer_reserve</text>
</a>
</g>
</g>
<!-- Node2510&#45;&gt;Node3137 -->
<g id="edge29" class="edge">
<title>Node2510&#45;&gt;Node3137</title>
<path fill="none" stroke="#191970" d="M111.0744,-363.8169C119.4894,-362.7293 128.2383,-361.5985 136.8421,-360.4864"/>
<polygon fill="#191970" stroke="#191970" points="137.3782,-363.9463 146.847,-359.1932 136.4808,-357.0041 137.3782,-363.9463"/>
</g>
<!-- Node2512 -->
<g id="node3" class="node">
<title>Node2512</title>
<g id="a_node3"><a xlink:href="acutest_8h.html#aecf9a9be8105efb1454cd8c1ef6cb1c5" target="_top" xlink:title="va_start">
<polygon fill="none" stroke="#000000" points="853.5,-494.5 853.5,-513.5 905.5,-513.5 905.5,-494.5 853.5,-494.5"/>
<text text-anchor="middle" x="879.5" y="-501.5" font-family="Helvetica,sans-Serif" font-size="10.00" fill="#000000">va_start</text>
</a>
</g>
</g>
<!-- Node2511&#45;&gt;Node2512 -->
<g id="edge2" class="edge">
<title>Node2511&#45;&gt;Node2512</title>
<path fill="none" stroke="#191970" d="M343.9751,-380.6287C356.5713,-397.3763 384.7278,-431.9902 416,-452 466.441,-484.2751 484.4121,-484.613 543,-497 650.2745,-519.6807 781.0785,-512.873 843.2832,-507.6204"/>
<polygon fill="#191970" stroke="#191970" points="843.7187,-511.0957 853.3724,-506.7305 843.1036,-504.1228 843.7187,-511.0957"/>
</g>
<!-- Node2513 -->
<g id="node4" class="node">
<title>Node2513</title>
<g id="a_node4"><a xlink:href="strerror_8c.html#a193b1e0b3712e3bbee338812c06af482" target="_top" xlink:title="fr_strerror_vprintf">
<polygon fill="none" stroke="#000000" points="416,-361.5 416,-380.5 507,-380.5 507,-361.5 416,-361.5"/>
<text text-anchor="middle" x="461.5" y="-368.5" font-family="Helvetica,sans-Serif" font-size="10.00" fill="#000000">fr_strerror_vprintf</text>
</a>
</g>
</g>
<!-- Node2511&#45;&gt;Node2513 -->
<g id="edge3" class="edge">
<title>Node2511&#45;&gt;Node2513</title>
<path fill="none" stroke="#191970" d="M380.1947,-371C388.3832,-371 397.0586,-371 405.5745,-371"/>
<polygon fill="#191970" stroke="#191970" points="405.8395,-374.5001 415.8395,-371 405.8394,-367.5001 405.8395,-374.5001"/>
</g>
<!-- Node2516 -->
<g id="node7" class="node">
<title>Node2516</title>
<g id="a_node7"><a xlink:href="acutest_8h.html#a36af1f79dd6adf0809c21e76535034d5" target="_top" xlink:title="va_end">
<polygon fill="none" stroke="#000000" points="855.5,-418.5 855.5,-437.5 903.5,-437.5 903.5,-418.5 855.5,-418.5"/>
<text text-anchor="middle" x="879.5" y="-425.5" font-family="Helvetica,sans-Serif" font-size="10.00" fill="#000000">va_end</text>
</a>
</g>
</g>
<!-- Node2511&#45;&gt;Node2516 -->
<g id="edge28" class="edge">
<title>Node2511&#45;&gt;Node2516</title>
<path fill="none" stroke="#191970" d="M352.2788,-380.7328C385.4831,-401.35 467.3331,-449.3074 543,-471 649.9759,-501.6685 686.4039,-516.9634 793,-485 819.4056,-477.0821 845.2011,-458.2111 861.6505,-444.342"/>
<polygon fill="#191970" stroke="#191970" points="864.1139,-446.8379 869.3543,-437.6298 859.5154,-441.5601 864.1139,-446.8379"/>
</g>
<!-- Node2514 -->
<g id="node5" class="node">
<title>Node2514</title>
<g id="a_node5"><a xlink:href="strerror_8c.html#a42c2cc9f76fb9dac723a1903c181e1c7" target="_top" xlink:title="Initialise thread local storage. ">
<polygon fill="none" stroke="#000000" points="552,-418.5 552,-437.5 629,-437.5 629,-418.5 552,-418.5"/>
<text text-anchor="middle" x="590.5" y="-425.5" font-family="Helvetica,sans-Serif" font-size="10.00" fill="#000000">fr_strerror_init</text>
</a>
</g>
</g>
<!-- Node2513&#45;&gt;Node2514 -->
<g id="edge4" class="edge">
<title>Node2513&#45;&gt;Node2514</title>
<path fill="none" stroke="#191970" d="M483.0917,-380.5405C504.0208,-389.7883 535.9809,-403.9102 559.6007,-414.3468"/>
<polygon fill="#191970" stroke="#191970" points="558.2764,-417.5881 568.8379,-418.4284 561.1056,-411.1853 558.2764,-417.5881"/>
</g>
<!-- Node2515 -->
<g id="node6" class="node">
<title>Node2515</title>
<g id="a_node6"><a xlink:href="strerror_8c.html#a2c8e65d6d4b73fb705cc023f60acb099" target="_top" xlink:title="Print the current error to stderr with a prefix. ">
<polygon fill="none" stroke="#ff0000" points="707,-456.5 707,-475.5 760,-475.5 760,-456.5 707,-456.5"/>
<text text-anchor="middle" x="733.5" y="-463.5" font-family="Helvetica,sans-Serif" font-size="10.00" fill="#000000">fr_perror</text>
</a>
</g>
</g>
<!-- Node2513&#45;&gt;Node2515 -->
<g id="edge11" class="edge">
<title>Node2513&#45;&gt;Node2515</title>
<path fill="none" stroke="#191970" d="M468.2802,-380.528C480.8384,-397.3218 509.5106,-431.8452 543,-447 592.7565,-469.516 657.1227,-470.9554 696.8449,-469.0985"/>
<polygon fill="#191970" stroke="#191970" points="697.0877,-472.5904 706.8754,-468.5344 696.6946,-465.6015 697.0877,-472.5904"/>
</g>
<!-- Node2513&#45;&gt;Node2516 -->
<g id="edge26" class="edge">
<title>Node2513&#45;&gt;Node2516</title>
<path fill="none" stroke="#191970" d="M507.014,-374.7351C571.0921,-380.3299 691.4327,-392.0693 793,-409 810.4173,-411.9034 829.6156,-416.0255 845.4917,-419.6887"/>
<polygon fill="#191970" stroke="#191970" points="844.8576,-423.1349 855.3928,-422.0121 846.4569,-416.32 844.8576,-423.1349"/>
</g>
<!-- Node2522 -->
<g id="node9" class="node">
<title>Node2522</title>
<g id="a_node9"><a xlink:href="strerror_8c.html#a9d878c1ddb1b385cdaf6523fff68529c" target="_top" xlink:title="Reset cursor state. ">
<polygon fill="none" stroke="#000000" points="837,-304.5 837,-323.5 922,-323.5 922,-304.5 837,-304.5"/>
<text text-anchor="middle" x="879.5" y="-311.5" font-family="Helvetica,sans-Serif" font-size="10.00" fill="#000000">fr_strerror_clear</text>
</a>
</g>
</g>
<!-- Node2513&#45;&gt;Node2522 -->
<g id="edge10" class="edge">
<title>Node2513&#45;&gt;Node2522</title>
<path fill="none" stroke="#191970" d="M477.3671,-361.3746C493.3178,-352.2461 518.9268,-339.0533 543,-333 640.765,-308.4165 759.3441,-308.3163 826.4441,-310.8798"/>
<polygon fill="#191970" stroke="#191970" points="826.6228,-314.3902 836.7602,-311.3107 826.915,-307.3963 826.6228,-314.3902"/>
</g>
<!-- Node2523 -->
<g id="node10" class="node">
<title>Node2523</title>
<g id="a_node10"><a xlink:href="print_8c.html#a27ae94b5a4c77de49aa2f387765a4d58" target="_top" xlink:title="Special version of vasprintf which implements custom format specifiers. ">
<polygon fill="none" stroke="#000000" points="558,-171.5 558,-190.5 623,-190.5 623,-171.5 558,-171.5"/>
<text text-anchor="middle" x="590.5" y="-178.5" font-family="Helvetica,sans-Serif" font-size="10.00" fill="#000000">fr_vasprintf</text>
</a>
</g>
</g>
<!-- Node2513&#45;&gt;Node2523 -->
<g id="edge12" class="edge">
<title>Node2513&#45;&gt;Node2523</title>
<path fill="none" stroke="#191970" d="M468.0745,-361.3167C488.5135,-331.2127 551.1786,-238.9153 578.0513,-199.3353"/>
<polygon fill="#191970" stroke="#191970" points="581.0625,-201.131 583.7841,-190.8917 575.2712,-197.199 581.0625,-201.131"/>
</g>
<!-- Node2675 -->
<g id="node18" class="node">
<title>Node2675</title>
<g id="a_node18"><a xlink:href="cursor_8c.html#a5d942382660657c3b4cb6e9cb2b12b2c" target="_top" xlink:title="Insert a single item at the start of the list. ">
<polygon fill="none" stroke="#000000" points="543,-342.5 543,-361.5 638,-361.5 638,-342.5 543,-342.5"/>
<text text-anchor="middle" x="590.5" y="-349.5" font-family="Helvetica,sans-Serif" font-size="10.00" fill="#000000">fr_cursor_prepend</text>
</a>
</g>
</g>
<!-- Node2513&#45;&gt;Node2675 -->
<g id="edge27" class="edge">
<title>Node2513&#45;&gt;Node2675</title>
<path fill="none" stroke="#191970" d="M507.3438,-364.2478C515.4784,-363.0497 524.0463,-361.7878 532.4656,-360.5477"/>
<polygon fill="#191970" stroke="#191970" points="533.2395,-363.9716 542.6227,-359.0517 532.2194,-357.0463 533.2395,-363.9716"/>
</g>
<!-- Node2514&#45;&gt;Node2515 -->
<g id="edge5" class="edge">
<title>Node2514&#45;&gt;Node2515</title>
<path fill="none" stroke="#191970" d="M626.5849,-437.589C648.156,-443.3212 675.4806,-450.5823 697.1062,-456.3289"/>
<polygon fill="#191970" stroke="#191970" points="696.3431,-459.7475 706.9066,-458.9332 698.1409,-452.9823 696.3431,-459.7475"/>
</g>
<!-- Node2521 -->
<g id="node8" class="node">
<title>Node2521</title>
<g id="a_node8"><a xlink:href="strerror_8c.html#afe66becac3be1b0b82b90889d27fcf99" target="_top" xlink:title="_fr_logging_free">
<polygon fill="none" stroke="#000000" points="690.5,-418.5 690.5,-437.5 776.5,-437.5 776.5,-418.5 690.5,-418.5"/>
<text text-anchor="middle" x="733.5" y="-425.5" font-family="Helvetica,sans-Serif" font-size="10.00" fill="#000000">_fr_logging_free</text>
</a>
</g>
</g>
<!-- Node2514&#45;&gt;Node2521 -->
<g id="edge8" class="edge">
<title>Node2514&#45;&gt;Node2521</title>
<path fill="none" stroke="#191970" d="M629.1979,-428C644.884,-428 663.2593,-428 680.1797,-428"/>
<polygon fill="#191970" stroke="#191970" points="680.4901,-431.5001 690.49,-428 680.49,-424.5001 680.4901,-431.5001"/>
</g>
<!-- Node2514&#45;&gt;Node2522 -->
<g id="edge9" class="edge">
<title>Node2514&#45;&gt;Node2522</title>
<path fill="none" stroke="#191970" d="M614.6429,-418.4765C666.0678,-398.1913 786.5271,-350.6744 845.61,-327.3684"/>
<polygon fill="#191970" stroke="#191970" points="847.2045,-330.5019 855.2226,-323.5766 844.6358,-323.9902 847.2045,-330.5019"/>
</g>
<!-- Node2515&#45;&gt;Node2512 -->
<g id="edge6" class="edge">
<title>Node2515&#45;&gt;Node2512</title>
<path fill="none" stroke="#191970" d="M760.2787,-472.9698C783.68,-479.0606 817.8467,-487.9532 843.6111,-494.6591"/>
<polygon fill="#191970" stroke="#191970" points="842.8231,-498.0705 853.3823,-497.2023 844.5864,-491.2962 842.8231,-498.0705"/>
</g>
<!-- Node2515&#45;&gt;Node2516 -->
<g id="edge7" class="edge">
<title>Node2515&#45;&gt;Node2516</title>
<path fill="none" stroke="#191970" d="M760.2787,-459.0302C784.2614,-452.7881 819.551,-443.6032 845.5156,-436.8452"/>
<polygon fill="#191970" stroke="#191970" points="846.5183,-440.201 855.3143,-434.2949 844.7551,-433.4267 846.5183,-440.201"/>
</g>
<!-- Node2523&#45;&gt;Node2511 -->
<g id="edge16" class="edge">
<title>Node2523&#45;&gt;Node2511</title>
<path fill="none" stroke="#191970" d="M577.6064,-190.6638C536.6202,-221.3833 409.0381,-317.007 358.2096,-355.1033"/>
<polygon fill="#191970" stroke="#191970" points="355.8224,-352.5185 349.9196,-361.3167 360.0207,-358.1198 355.8224,-352.5185"/>
</g>
<!-- Node2523&#45;&gt;Node2516 -->
<g id="edge14" class="edge">
<title>Node2523&#45;&gt;Node2516</title>
<path fill="none" stroke="#191970" d="M600.1272,-190.5947C615.2707,-205.4914 645.8389,-234.7797 674,-257 724.2261,-296.6305 744.1257,-296.714 793,-338 820.2776,-361.0424 848.2745,-391.7056 864.7653,-410.6348"/>
<polygon fill="#191970" stroke="#191970" points="862.3092,-413.1462 871.4885,-418.4367 867.6119,-408.5766 862.3092,-413.1462"/>
</g>
<!-- Node2524 -->
<g id="node11" class="node">
<title>Node2524</title>
<g id="a_node11"><a xlink:href="value_8h.html#a878e0abfce7189a1784cdf15bc9fc3a3" target="_top" xlink:title="fr_value_box_aprint">
<polygon fill="none" stroke="#000000" points="829,-114.5 829,-133.5 930,-133.5 930,-114.5 829,-114.5"/>
<text text-anchor="middle" x="879.5" y="-121.5" font-family="Helvetica,sans-Serif" font-size="10.00" fill="#000000">fr_value_box_aprint</text>
</a>
</g>
</g>
<!-- Node2523&#45;&gt;Node2524 -->
<g id="edge13" class="edge">
<title>Node2523&#45;&gt;Node2524</title>
<path fill="none" stroke="#191970" d="M607.1485,-171.3977C623.5721,-162.4213 649.6786,-149.4606 674,-143 721.5653,-130.3651 777.2501,-125.8189 818.6473,-124.3188"/>
<polygon fill="#191970" stroke="#191970" points="818.9648,-127.8107 828.8505,-124 818.7461,-120.8141 818.9648,-127.8107"/>
</g>
<!-- Node2525 -->
<g id="node12" class="node">
<title>Node2525</title>
<g id="a_node12"><a xlink:href="talloc_8c.html#a3536feb85c89aa239851ef0830b72e64" target="_top" xlink:title="Call talloc_strdup, setting the type on the new chunk correctly. ">
<polygon fill="none" stroke="#000000" points="829,-57.5 829,-76.5 930,-76.5 930,-57.5 829,-57.5"/>
<text text-anchor="middle" x="879.5" y="-64.5" font-family="Helvetica,sans-Serif" font-size="10.00" fill="#000000">talloc_typed_strdup</text>
</a>
</g>
</g>
<!-- Node2523&#45;&gt;Node2525 -->
<g id="edge15" class="edge">
<title>Node2523&#45;&gt;Node2525</title>
<path fill="none" stroke="#191970" d="M594.0436,-171.2607C603.1038,-148.0094 629.5829,-89.5238 674,-67 723.6369,-41.8293 789.0853,-47.3342 832.645,-55.4764"/>
<polygon fill="#191970" stroke="#191970" points="832.1894,-58.9543 842.6799,-57.4711 833.5542,-52.0886 832.1894,-58.9543"/>
</g>
<!-- Node2526 -->
<g id="node13" class="node">
<title>Node2526</title>
<g id="a_node13"><a xlink:href="value_8c.html#a3a0550d465b81917f8b0c69a3373163e" target="_top" xlink:title="Convert one type of fr_value_box_t to another. ">
<polygon fill="none" stroke="#ff0000" points="685.5,-.5 685.5,-19.5 781.5,-19.5 781.5,-.5 685.5,-.5"/>
<text text-anchor="middle" x="733.5" y="-7.5" font-family="Helvetica,sans-Serif" font-size="10.00" fill="#000000">fr_value_box_cast</text>
</a>
</g>
</g>
<!-- Node2523&#45;&gt;Node2526 -->
<g id="edge17" class="edge">
<title>Node2523&#45;&gt;Node2526</title>
<path fill="none" stroke="#191970" d="M594.9771,-171.2808C608.6878,-141.8536 650.5856,-54.4867 674,-34 678.511,-30.0531 683.7546,-26.705 689.2235,-23.8784"/>
<polygon fill="#191970" stroke="#191970" points="690.9202,-26.9508 698.5503,-19.6002 688.0017,-20.5882 690.9202,-26.9508"/>
</g>
<!-- Node2626 -->
<g id="node14" class="node">
<title>Node2626</title>
<g id="a_node14"><a xlink:href="strerror_8c.html#a83ee876ee41b1ae672dc4dcda4f02a2e" target="_top" xlink:title="Get the last library error. ">
<polygon fill="none" stroke="#ff0000" points="704,-152.5 704,-171.5 763,-171.5 763,-152.5 704,-152.5"/>
<text text-anchor="middle" x="733.5" y="-159.5" font-family="Helvetica,sans-Serif" font-size="10.00" fill="#000000">fr_strerror</text>
</a>
</g>
</g>
<!-- Node2523&#45;&gt;Node2626 -->
<g id="edge19" class="edge">
<title>Node2523&#45;&gt;Node2626</title>
<path fill="none" stroke="#191970" d="M623.3071,-176.641C644.2353,-173.8603 671.4926,-170.2388 693.6614,-167.2932"/>
<polygon fill="#191970" stroke="#191970" points="694.314,-170.7374 703.7658,-165.9507 693.3919,-163.7984 694.314,-170.7374"/>
</g>
<!-- Node2536 -->
<g id="node15" class="node">
<title>Node2536</title>
<g id="a_node15"><a xlink:href="value_8c.html#ad5da2574fed047b3ae861999d06c38ac" target="_top" xlink:title="Clear/free any existing value and metadata. ">
<polygon fill="none" stroke="#ff0000" points="684.5,-228.5 684.5,-247.5 782.5,-247.5 782.5,-228.5 684.5,-228.5"/>
<text text-anchor="middle" x="733.5" y="-235.5" font-family="Helvetica,sans-Serif" font-size="10.00" fill="#000000">fr_value_box_clear</text>
</a>
</g>
</g>
<!-- Node2523&#45;&gt;Node2536 -->
<g id="edge21" class="edge">
<title>Node2523&#45;&gt;Node2536</title>
<path fill="none" stroke="#191970" d="M609.7936,-190.5665C626.542,-198.6803 651.561,-210.3461 674,-219 679.5741,-221.1497 685.5047,-223.2541 691.3803,-225.2332"/>
<polygon fill="#191970" stroke="#191970" points="690.5511,-228.6445 701.1438,-228.4313 692.7301,-221.9923 690.5511,-228.6445"/>
</g>
<!-- Node3135 -->
<g id="node16" class="node">
<title>Node3135</title>
<g id="a_node16"><a xlink:href="value_8c.html#a1064a346792dc1e5ecf05d04b4c1af55" target="_top" xlink:title="Concatenate the string representations of a list of value boxes together. ">
<polygon fill="none" stroke="#ff0000" points="674,-76.5 674,-95.5 793,-95.5 793,-76.5 674,-76.5"/>
<text text-anchor="middle" x="733.5" y="-83.5" font-family="Helvetica,sans-Serif" font-size="10.00" fill="#000000">fr_value_box_list_aprint</text>
</a>
</g>
</g>
<!-- Node2523&#45;&gt;Node3135 -->
<g id="edge22" class="edge">
<title>Node2523&#45;&gt;Node3135</title>
<path fill="none" stroke="#191970" d="M599.9695,-171.1255C614.6653,-156.2488 644.3678,-127.9253 674,-110 680.4867,-106.076 687.73,-102.5421 694.869,-99.4682"/>
<polygon fill="#191970" stroke="#191970" points="696.514,-102.5777 704.4587,-95.5683 693.8769,-96.0934 696.514,-102.5777"/>
</g>
<!-- Node3010 -->
<g id="node17" class="node">
<title>Node3010</title>
<g id="a_node17"><a xlink:href="util_2pair_8h.html#acfe6934363fefdc67e14fc08a205952b" target="_top" xlink:title="fr_pair_aprint">
<polygon fill="none" stroke="#000000" points="697,-190.5 697,-209.5 770,-209.5 770,-190.5 697,-190.5"/>
<text text-anchor="middle" x="733.5" y="-197.5" font-family="Helvetica,sans-Serif" font-size="10.00" fill="#000000">fr_pair_aprint</text>
</a>
</g>
</g>
<!-- Node2523&#45;&gt;Node3010 -->
<g id="edge25" class="edge">
<title>Node2523&#45;&gt;Node3010</title>
<path fill="none" stroke="#191970" d="M623.3071,-185.359C642.0708,-187.8521 665.922,-191.0211 686.6322,-193.7728"/>
<polygon fill="#191970" stroke="#191970" points="686.4466,-197.2788 696.8205,-195.1265 687.3686,-190.3398 686.4466,-197.2788"/>
</g>
<!-- Node2526&#45;&gt;Node2511 -->
<g id="edge18" class="edge">
<title>Node2526&#45;&gt;Node2511</title>
<path fill="none" stroke="#191970" d="M715.7718,-19.6193C664.3087,-48.2075 512.4423,-137.3399 416,-244 385.0975,-278.1765 359.0792,-325.9917 346.0214,-352.1182"/>
<polygon fill="#191970" stroke="#191970" points="342.7827,-350.7735 341.5254,-361.2935 349.0686,-353.8537 342.7827,-350.7735"/>
</g>
<!-- Node2626&#45;&gt;Node2522 -->
<g id="edge20" class="edge">
<title>Node2626&#45;&gt;Node2522</title>
<path fill="none" stroke="#191970" d="M763.2511,-167.2411C773.4131,-170.0857 784.3781,-174.4235 793,-181 832.9853,-211.4996 859.934,-266.1451 872.1029,-294.9813"/>
<polygon fill="#191970" stroke="#191970" points="868.9024,-296.4024 875.9143,-304.345 875.3859,-293.7633 868.9024,-296.4024"/>
</g>
<!-- Node3135&#45;&gt;Node2524 -->
<g id="edge23" class="edge">
<title>Node3135&#45;&gt;Node2524</title>
<path fill="none" stroke="#191970" d="M770.342,-95.589C789.3479,-100.5358 812.7286,-106.6211 832.9692,-111.8892"/>
<polygon fill="#191970" stroke="#191970" points="832.3638,-115.3482 842.923,-114.4799 834.127,-108.5739 832.3638,-115.3482"/>
</g>
<!-- Node3135&#45;&gt;Node2525 -->
<g id="edge24" class="edge">
<title>Node3135&#45;&gt;Node2525</title>
<path fill="none" stroke="#191970" d="M793.305,-78.2172C801.703,-77.1243 810.3419,-76 818.7571,-74.9049"/>
<polygon fill="#191970" stroke="#191970" points="819.4149,-78.3489 828.8796,-73.5876 818.5115,-71.4074 819.4149,-78.3489"/>
</g>
<!-- Node3137&#45;&gt;Node2511 -->
<g id="edge30" class="edge">
<title>Node3137&#45;&gt;Node2511</title>
<path fill="none" stroke="#191970" d="M258.3716,-359.8926C266.7868,-361.0814 275.4468,-362.3048 283.8037,-363.4853"/>
<polygon fill="#191970" stroke="#191970" points="283.4189,-366.9656 293.8102,-364.8988 284.3981,-360.0344 283.4189,-366.9656"/>
</g>
</g>
</svg>
        <g id="navigator" transform="translate(0 0)" fill="#404254">
                <rect fill="#f2f5e9" fill-opacity="0.5" stroke="#606060" stroke-width=".5" x="0" y="0" width="60" height="60"/>
                <use id="zoomplus" xlink:href="#zoomPlus" x="17" y="9" onmousedown="handleZoom(evt,'in')"/>
                <use id="zoomminus" xlink:href="#zoomMin" x="42" y="9" onmousedown="handleZoom(evt,'out')"/>
                <use id="reset" xlink:href="#resetDef" x="30" y="36" onmousedown="handleReset()"/>
                <g id="arrowUp" xlink:href="#dirArrow" transform="translate(30 24)" onmousedown="handlePan(0,-1)">
                  <use xlink:href="#rim" fill="#404040">
                        <set attributeName="fill" to="#808080" begin="arrowUp.mouseover" end="arrowUp.mouseout"/>
                  </use>
                  <path fill="none" stroke="white" stroke-width="1.5" d="M0,-3.0v7 M-2.5,-0.5L0,-3.0L2.5,-0.5"/>
                </g>
                <g id="arrowRight" xlink:href="#dirArrow" transform="rotate(90) translate(36 -43)" onmousedown="handlePan(1,0)">
                  <use xlink:href="#rim" fill="#404040">
                        <set attributeName="fill" to="#808080" begin="arrowRight.mouseover" end="arrowRight.mouseout"/>
                  </use>
                  <path fill="none" stroke="white" stroke-width="1.5" d="M0,-3.0v7 M-2.5,-0.5L0,-3.0L2.5,-0.5"/>
                </g>
                <g id="arrowDown" xlink:href="#dirArrow" transform="rotate(180) translate(-30 -48)" onmousedown="handlePan(0,1)">
                  <use xlink:href="#rim" fill="#404040">
                        <set attributeName="fill" to="#808080" begin="arrowDown.mouseover" end="arrowDown.mouseout"/>
                  </use>
                  <path fill="none" stroke="white" stroke-width="1.5" d="M0,-3.0v7 M-2.5,-0.5L0,-3.0L2.5,-0.5"/>
                </g>
                <g id="arrowLeft" xlink:href="#dirArrow" transform="rotate(270) translate(-36 17)" onmousedown="handlePan(-1,0)">
                  <use xlink:href="#rim" fill="#404040">
                        <set attributeName="fill" to="#808080" begin="arrowLeft.mouseover" end="arrowLeft.mouseout"/>
                  </use>
                  <path fill="none" stroke="white" stroke-width="1.5" d="M0,-3.0v7 M-2.5,-0.5L0,-3.0L2.5,-0.5"/>
                </g>
        </g>
        <svg viewBox="0 0 15 15" width="100%" height="30px" preserveAspectRatio="xMaxYMin meet">
         <g id="arrow_out" transform="scale(0.3 0.3)">
          <a xlink:href="ring__buffer_8h_af2de037247f8723f02e442a826c543bf_cgraph_org.svg" target="_base">
           <rect id="button" ry="5" rx="5" y="6" x="6" height="38" width="38"
                fill="#f2f5e9" fill-opacity="0.5" stroke="#606060" stroke-width="1.0"/>
           <path id="arrow"
             d="M 11.500037,31.436501 C 11.940474,20.09759 22.043105,11.32322 32.158766,21.979434 L 37.068811,17.246167 C 37.068811,17.246167 37.088388,32 37.088388,32 L 22.160133,31.978069 C 22.160133,31.978069 26.997745,27.140456 26.997745,27.140456 C 18.528582,18.264221 13.291696,25.230495 11.500037,31.436501 z"
             style="fill:#404040;"/>
          </a>
         </g>
        </svg>
</svg>
