<?xml version="1.0" encoding="UTF-8" standalone="no"?>
<!DOCTYPE svg PUBLIC "-//W3C//DTD SVG 1.1//EN"
 "http://www.w3.org/Graphics/SVG/1.1/DTD/svg11.dtd">
<!-- Generated by graphviz version 2.40.1 (20161225.0304)
 -->
<!-- Title: header_source Pages: 1 -->
<!--zoomable 352 -->
<svg id="main" version="1.1" xmlns="http://www.w3.org/2000/svg" xmlns:xlink="http://www.w3.org/1999/xlink" xml:space="preserve" onload="init(evt)">
<style type="text/css"><![CDATA[
.edge:hover path { stroke: red; }
.edge:hover polygon { stroke: red; fill: red; }
]]></style>
<script type="text/javascript"><![CDATA[
var edges = document.getElementsByTagName('g');
if (edges && edges.length) {
  for (var i=0;i<edges.length;i++) {
    if (edges[i].id.substr(0,4)=='edge') {
      edges[i].setAttribute('class','edge');
    }
  }
}
]]></script>
        <defs>
                <circle id="rim" cx="0" cy="0" r="7"/>
                <circle id="rim2" cx="0" cy="0" r="3.5"/>
                <g id="zoomPlus">
                        <use xlink:href="#rim" fill="#404040">
                                <set attributeName="fill" to="#808080" begin="zoomplus.mouseover" end="zoomplus.mouseout"/>
                        </use>
                        <path d="M-4,0h8M0,-4v8" fill="none" stroke="white" stroke-width="1.5" pointer-events="none"/>
                </g>
                <g id="zoomMin">
                        <use xlink:href="#rim" fill="#404040">
                                <set attributeName="fill" to="#808080" begin="zoomminus.mouseover" end="zoomminus.mouseout"/>
                        </use>
                        <path d="M-4,0h8" fill="none" stroke="white" stroke-width="1.5" pointer-events="none"/>
                </g>
                <g id="dirArrow">
                        <path fill="none" stroke="white" stroke-width="1.5" d="M0,-3.0v7 M-2.5,-0.5L0,-3.0L2.5,-0.5"/>
                </g>
               <g id="resetDef">
                       <use xlink:href="#rim2" fill="#404040">
                               <set attributeName="fill" to="#808080" begin="reset.mouseover" end="reset.mouseout"/>
                       </use>
               </g>
        </defs>

<script type="text/javascript">
var viewWidth = 755;
var viewHeight = 352;
var sectionId = 'dynsection-10';
</script>
<script xlink:href="svgpan.js"/>
<svg id="graph" class="graph">
<g id="viewport">
<title>header_source</title>
<!-- Node2061 -->
<g id="node1" class="node">
<title>Node2061</title>
<polygon fill="#bfbfbf" stroke="#000000" points="0,-171.5 0,-190.5 80,-190.5 80,-171.5 0,-171.5"/>
<text text-anchor="middle" x="40" y="-178.5" font-family="Helvetica,sans-Serif" font-size="10.00" fill="#000000">header_source</text>
</g>
<!-- Node2062 -->
<g id="node2" class="node">
<title>Node2062</title>
<g id="a_node2"><a xlink:href="sbuff_8c.html#ac051ec89fc03ae149129f2b838a992a7" target="_top" xlink:title="Copy bytes into the sbuff up to the first 0. ">
<polygon fill="none" stroke="#000000" points="555,-209.5 555,-228.5 660,-228.5 660,-209.5 555,-209.5"/>
<text text-anchor="middle" x="607.5" y="-216.5" font-family="Helvetica,sans-Serif" font-size="10.00" fill="#000000">fr_sbuff_in_bstrncpy</text>
</a>
</g>
</g>
<!-- Node2061&#45;&gt;Node2062 -->
<g id="edge1" class="edge">
<title>Node2061&#45;&gt;Node2062</title>
<path fill="none" stroke="#191970" d="M80.2109,-179.9599C118.4886,-179.2159 177.6997,-178.7049 229,-181 358.2766,-186.7836 390.4063,-192.5248 519,-207 527.3058,-207.9349 536.0378,-209.0082 544.6482,-210.1201"/>
<polygon fill="#191970" stroke="#191970" points="544.2965,-213.6039 554.6674,-211.4372 545.2089,-206.6636 544.2965,-213.6039"/>
</g>
<!-- Node2064 -->
<g id="node4" class="node">
<title>Node2064</title>
<g id="a_node4"><a xlink:href="sbuff_8c.html#a1201babbdbbaa4ead018b4dc46a2c510" target="_top" xlink:title="Copy bytes into the sbuff up to the first 0. ">
<polygon fill="none" stroke="#000000" points="560,-323.5 560,-342.5 655,-342.5 655,-323.5 560,-323.5"/>
<text text-anchor="middle" x="607.5" y="-330.5" font-family="Helvetica,sans-Serif" font-size="10.00" fill="#000000">fr_sbuff_in_strcpy</text>
</a>
</g>
</g>
<!-- Node2061&#45;&gt;Node2064 -->
<g id="edge3" class="edge">
<title>Node2061&#45;&gt;Node2064</title>
<path fill="none" stroke="#191970" d="M50.0911,-190.6329C64.0016,-203.5033 90.2775,-226.3803 116,-241 241.0065,-312.049 281.4105,-321.485 424,-340 465.7237,-345.4178 513.1955,-343.3893 549.4005,-340.1521"/>
<polygon fill="#191970" stroke="#191970" points="550.1532,-343.5964 559.7764,-339.1641 549.4896,-336.6279 550.1532,-343.5964"/>
</g>
<!-- Node2065 -->
<g id="node5" class="node">
<title>Node2065</title>
<g id="a_node5"><a xlink:href="rlm__smtp_8c.html#ac7879499d9883e290111a696f74a5a52" target="_top" xlink:title="generate_from_header">
<polygon fill="none" stroke="#000000" points="116,-190.5 116,-209.5 229,-209.5 229,-190.5 116,-190.5"/>
<text text-anchor="middle" x="172.5" y="-197.5" font-family="Helvetica,sans-Serif" font-size="10.00" fill="#000000">generate_from_header</text>
</a>
</g>
</g>
<!-- Node2061&#45;&gt;Node2065 -->
<g id="edge5" class="edge">
<title>Node2061&#45;&gt;Node2065</title>
<path fill="none" stroke="#191970" d="M80.1139,-186.7522C88.3044,-187.9267 97.1296,-189.1922 105.9616,-190.4586"/>
<polygon fill="#191970" stroke="#191970" points="105.5071,-193.9292 115.9027,-191.8842 106.5008,-187.0001 105.5071,-193.9292"/>
</g>
<!-- Node2066 -->
<g id="node6" class="node">
<title>Node2066</title>
<g id="a_node6"><a xlink:href="rlm__smtp_8c.html#aacf4b905ca5c082a03dc8c0fd72ffb14" target="_top" xlink:title="tmpl_arr_to_header">
<polygon fill="none" stroke="#000000" points="276.5,-228.5 276.5,-247.5 376.5,-247.5 376.5,-228.5 276.5,-228.5"/>
<text text-anchor="middle" x="326.5" y="-235.5" font-family="Helvetica,sans-Serif" font-size="10.00" fill="#000000">tmpl_arr_to_header</text>
</a>
</g>
</g>
<!-- Node2061&#45;&gt;Node2066 -->
<g id="edge17" class="edge">
<title>Node2061&#45;&gt;Node2066</title>
<path fill="none" stroke="#191970" d="M55.0284,-190.642C69.8844,-199.6478 93.5795,-212.6297 116,-219 165.2381,-232.9899 223.3192,-237.3749 265.9856,-238.4687"/>
<polygon fill="#191970" stroke="#191970" points="266.1427,-241.9725 276.2115,-238.6756 266.2844,-234.9739 266.1427,-241.9725"/>
</g>
<!-- Node2732 -->
<g id="node11" class="node">
<title>Node2732</title>
<g id="a_node11"><a xlink:href="rlm__smtp_8c.html#af506f8817babd68826b40f9015e15948" target="_top" xlink:title="da_to_slist">
<polygon fill="none" stroke="#000000" points="140.5,-114.5 140.5,-133.5 204.5,-133.5 204.5,-114.5 140.5,-114.5"/>
<text text-anchor="middle" x="172.5" y="-121.5" font-family="Helvetica,sans-Serif" font-size="10.00" fill="#000000">da_to_slist</text>
</a>
</g>
</g>
<!-- Node2061&#45;&gt;Node2732 -->
<g id="edge18" class="edge">
<title>Node2061&#45;&gt;Node2732</title>
<path fill="none" stroke="#191970" d="M61.9302,-171.4228C77.1006,-164.8111 97.7603,-155.8337 116,-148 123.9364,-144.5914 132.5106,-140.9356 140.5232,-137.5307"/>
<polygon fill="#191970" stroke="#191970" points="142.0997,-140.6639 149.9378,-133.5354 139.3651,-134.2201 142.0997,-140.6639"/>
</g>
<!-- Node2733 -->
<g id="node13" class="node">
<title>Node2733</title>
<g id="a_node13"><a xlink:href="time_8c.html#a39d967ee9159d7bc5c2084a81e8affed" target="_top" xlink:title="Copy a time string (local timezone) to an sbuff. ">
<polygon fill="none" stroke="#000000" points="117.5,-38.5 117.5,-57.5 227.5,-57.5 227.5,-38.5 117.5,-38.5"/>
<text text-anchor="middle" x="172.5" y="-45.5" font-family="Helvetica,sans-Serif" font-size="10.00" fill="#000000">fr_time_strftime_local</text>
</a>
</g>
</g>
<!-- Node2061&#45;&gt;Node2733 -->
<g id="edge21" class="edge">
<title>Node2061&#45;&gt;Node2733</title>
<path fill="none" stroke="#191970" d="M49.5291,-171.435C71.7669,-149.1132 127.3345,-93.336 155.525,-65.039"/>
<polygon fill="#191970" stroke="#191970" points="158.1216,-67.3918 162.6998,-57.8372 153.1625,-62.4514 158.1216,-67.3918"/>
</g>
<!-- Node2063 -->
<g id="node3" class="node">
<title>Node2063</title>
<g id="a_node3"><a xlink:href="sbuff_8c.html#ac0f47a905cd989f6c60d312fa5cc1839" target="_top" xlink:title="Copy function that allows overlapping memory ranges to be copied. ">
<polygon fill="none" stroke="#000000" points="696,-266.5 696,-285.5 747,-285.5 747,-266.5 696,-266.5"/>
<text text-anchor="middle" x="721.5" y="-273.5" font-family="Helvetica,sans-Serif" font-size="10.00" fill="#000000">safecpy</text>
</a>
</g>
</g>
<!-- Node2062&#45;&gt;Node2063 -->
<g id="edge2" class="edge">
<title>Node2062&#45;&gt;Node2063</title>
<path fill="none" stroke="#191970" d="M637.0991,-228.5055C644.6918,-231.2696 652.7569,-234.498 660,-238 673.5523,-244.5524 687.905,-253.306 699.3335,-260.7601"/>
<polygon fill="#191970" stroke="#191970" points="697.5361,-263.7681 707.8008,-266.3926 701.4132,-257.9398 697.5361,-263.7681"/>
</g>
<!-- Node2064&#45;&gt;Node2063 -->
<g id="edge4" class="edge">
<title>Node2064&#45;&gt;Node2063</title>
<path fill="none" stroke="#191970" d="M637.0991,-323.4945C644.6918,-320.7304 652.7569,-317.502 660,-314 673.5523,-307.4476 687.905,-298.694 699.3335,-291.2399"/>
<polygon fill="#191970" stroke="#191970" points="701.4132,-294.0602 707.8008,-285.6074 697.5361,-288.2319 701.4132,-294.0602"/>
</g>
<!-- Node2065&#45;&gt;Node2062 -->
<g id="edge16" class="edge">
<title>Node2065&#45;&gt;Node2062</title>
<path fill="none" stroke="#191970" d="M229.3687,-202.4839C310.7246,-206.0374 459.8276,-212.5499 544.4601,-216.2465"/>
<polygon fill="#191970" stroke="#191970" points="544.5606,-219.7542 554.7039,-216.694 544.8661,-212.7608 544.5606,-219.7542"/>
</g>
<!-- Node2065&#45;&gt;Node2064 -->
<g id="edge15" class="edge">
<title>Node2065&#45;&gt;Node2064</title>
<path fill="none" stroke="#191970" d="M186.4864,-209.6611C204.2365,-221.6747 236.0362,-242.3796 265,-257 333.0038,-291.3271 349.7264,-304.0797 424,-321 465.2223,-330.3909 512.9001,-333.2772 549.3236,-333.8755"/>
<polygon fill="#191970" stroke="#191970" points="549.7262,-337.38 559.7639,-333.9899 549.8029,-330.3805 549.7262,-337.38"/>
</g>
<!-- Node2065&#45;&gt;Node2066 -->
<g id="edge6" class="edge">
<title>Node2065&#45;&gt;Node2066</title>
<path fill="none" stroke="#191970" d="M211.3607,-209.589C231.5911,-214.5809 256.5207,-220.7324 278.0036,-226.0334"/>
<polygon fill="#191970" stroke="#191970" points="277.3714,-229.4823 287.9187,-228.4799 279.0485,-222.6861 277.3714,-229.4823"/>
</g>
<!-- Node2066&#45;&gt;Node2062 -->
<g id="edge14" class="edge">
<title>Node2066&#45;&gt;Node2062</title>
<path fill="none" stroke="#191970" d="M376.7372,-234.6032C423.7019,-231.4276 494.001,-226.6743 544.6601,-223.249"/>
<polygon fill="#191970" stroke="#191970" points="545.0956,-226.7276 554.8367,-222.5609 544.6233,-219.7435 545.0956,-226.7276"/>
</g>
<!-- Node2066&#45;&gt;Node2064 -->
<g id="edge7" class="edge">
<title>Node2066&#45;&gt;Node2064</title>
<path fill="none" stroke="#191970" d="M339.6753,-247.5962C357.7811,-260.3273 391.7841,-282.6299 424,-295 464.6706,-310.6164 513.0019,-320.2929 549.8512,-325.9707"/>
<polygon fill="#191970" stroke="#191970" points="549.5183,-329.4596 559.9242,-327.4677 550.5474,-322.5356 549.5183,-329.4596"/>
</g>
<!-- Node2067 -->
<g id="node7" class="node">
<title>Node2067</title>
<g id="a_node7"><a xlink:href="rlm__smtp_8c.html#a6372f0f345c0e3a71de1ffd1aa0d13ed" target="_top" xlink:title="tmpl_attr_to_sbuff">
<polygon fill="none" stroke="#000000" points="424,-266.5 424,-285.5 519,-285.5 519,-266.5 424,-266.5"/>
<text text-anchor="middle" x="471.5" y="-273.5" font-family="Helvetica,sans-Serif" font-size="10.00" fill="#000000">tmpl_attr_to_sbuff</text>
</a>
</g>
</g>
<!-- Node2066&#45;&gt;Node2067 -->
<g id="edge8" class="edge">
<title>Node2066&#45;&gt;Node2067</title>
<path fill="none" stroke="#191970" d="M363.0896,-247.589C381.9654,-252.5358 405.1859,-258.6211 425.2879,-263.8892"/>
<polygon fill="#191970" stroke="#191970" points="424.6129,-267.3305 435.1735,-266.4799 426.3875,-260.5591 424.6129,-267.3305"/>
</g>
<!-- Node2067&#45;&gt;Node2062 -->
<g id="edge10" class="edge">
<title>Node2067&#45;&gt;Node2062</title>
<path fill="none" stroke="#191970" d="M491.2138,-266.4897C508.0124,-258.5161 532.8776,-247.0202 555,-238 559.8679,-236.0152 565.0295,-234.0186 570.142,-232.1043"/>
<polygon fill="#191970" stroke="#191970" points="571.6421,-235.282 579.8226,-228.5492 569.229,-228.7111 571.6421,-235.282"/>
</g>
<!-- Node2067&#45;&gt;Node2064 -->
<g id="edge12" class="edge">
<title>Node2067&#45;&gt;Node2064</title>
<path fill="none" stroke="#191970" d="M491.2138,-285.5103C508.0124,-293.4839 532.8776,-304.9798 555,-314 559.8679,-315.9848 565.0295,-317.9814 570.142,-319.8957"/>
<polygon fill="#191970" stroke="#191970" points="569.229,-323.2889 579.8226,-323.4508 571.6421,-316.718 569.229,-323.2889"/>
</g>
<!-- Node2068 -->
<g id="node8" class="node">
<title>Node2068</title>
<g id="a_node8"><a xlink:href="server_2tmpl_8h.html#ac2f6e005035a53f3459f57aad185a9a5" target="_top" xlink:title="Initialise a fr_cursor_t to the fr_pair_t specified by a tmpl_t. ">
<polygon fill="none" stroke="#ff0000" points="564.5,-285.5 564.5,-304.5 650.5,-304.5 650.5,-285.5 564.5,-285.5"/>
<text text-anchor="middle" x="607.5" y="-292.5" font-family="Helvetica,sans-Serif" font-size="10.00" fill="#000000">tmpl_cursor_init</text>
</a>
</g>
</g>
<!-- Node2067&#45;&gt;Node2068 -->
<g id="edge9" class="edge">
<title>Node2067&#45;&gt;Node2068</title>
<path fill="none" stroke="#191970" d="M519.0662,-282.6453C530.4411,-284.2344 542.6569,-285.941 554.269,-287.5633"/>
<polygon fill="#191970" stroke="#191970" points="553.8938,-291.0448 564.2819,-288.9622 554.8624,-284.1121 553.8938,-291.0448"/>
</g>
<!-- Node2094 -->
<g id="node9" class="node">
<title>Node2094</title>
<g id="a_node9"><a xlink:href="cursor_8c.html#af6c2090d1e00319075d6def5aa2666fd" target="_top" xlink:title="Advanced the cursor to the next item. ">
<polygon fill="none" stroke="#ff0000" points="568,-133.5 568,-152.5 647,-152.5 647,-133.5 568,-133.5"/>
<text text-anchor="middle" x="607.5" y="-140.5" font-family="Helvetica,sans-Serif" font-size="10.00" fill="#000000">fr_cursor_next</text>
</a>
</g>
</g>
<!-- Node2067&#45;&gt;Node2094 -->
<g id="edge11" class="edge">
<title>Node2067&#45;&gt;Node2094</title>
<path fill="none" stroke="#191970" d="M481.2808,-266.435C504.106,-244.1132 561.1414,-188.336 590.0766,-160.039"/>
<polygon fill="#191970" stroke="#191970" points="592.7385,-162.3313 597.4409,-152.8372 587.8443,-157.3267 592.7385,-162.3313"/>
</g>
<!-- Node2730 -->
<g id="node10" class="node">
<title>Node2730</title>
<g id="a_node10"><a xlink:href="server_2tmpl_8h.html#a919ffe04ec8c4a88896e4f874e8a779c" target="_top" xlink:title="Clear any temporary state allocations. ">
<polygon fill="none" stroke="#ff0000" points="560.5,-247.5 560.5,-266.5 654.5,-266.5 654.5,-247.5 560.5,-247.5"/>
<text text-anchor="middle" x="607.5" y="-254.5" font-family="Helvetica,sans-Serif" font-size="10.00" fill="#000000">tmpl_cursor_clear</text>
</a>
</g>
</g>
<!-- Node2067&#45;&gt;Node2730 -->
<g id="edge13" class="edge">
<title>Node2067&#45;&gt;Node2730</title>
<path fill="none" stroke="#191970" d="M519.0662,-269.3547C529.0623,-267.9582 539.7079,-266.471 550.0224,-265.03"/>
<polygon fill="#191970" stroke="#191970" points="550.7708,-268.4595 560.1903,-263.6094 549.8022,-261.5268 550.7708,-268.4595"/>
</g>
<!-- Node2732&#45;&gt;Node2094 -->
<g id="edge20" class="edge">
<title>Node2732&#45;&gt;Node2094</title>
<path fill="none" stroke="#191970" d="M204.7859,-115.6945C222.441,-111.5777 244.7753,-107.0557 265,-105 369.9441,-94.3333 492.799,-116.3855 559.1114,-131.1469"/>
<polygon fill="#191970" stroke="#191970" points="558.7308,-134.6494 569.2572,-133.4473 560.2787,-127.8227 558.7308,-134.6494"/>
</g>
<!-- Node2576 -->
<g id="node12" class="node">
<title>Node2576</title>
<g id="a_node12"><a xlink:href="util_2pair_8h.html#a078d7dfa9ea0f6beae478c6c913aa4e2" target="_top" xlink:title="Initialise a cursor that will return only attributes matching the specified fr_dict_attr_t. ">
<polygon fill="none" stroke="#ff0000" points="265,-114.5 265,-133.5 388,-133.5 388,-114.5 265,-114.5"/>
<text text-anchor="middle" x="326.5" y="-121.5" font-family="Helvetica,sans-Serif" font-size="10.00" fill="#000000">fr_cursor_iter_by_da_init</text>
</a>
</g>
</g>
<!-- Node2732&#45;&gt;Node2576 -->
<g id="edge19" class="edge">
<title>Node2732&#45;&gt;Node2576</title>
<path fill="none" stroke="#191970" d="M204.7834,-124C219.308,-124 237.081,-124 254.5103,-124"/>
<polygon fill="#191970" stroke="#191970" points="254.7055,-127.5001 264.7055,-124 254.7055,-120.5001 254.7055,-127.5001"/>
</g>
<!-- Node2734 -->
<g id="node14" class="node">
<title>Node2734</title>
<g id="a_node14"><a xlink:href="time_8c.html#a4e9719ac42b2661f240ade74c9511085" target="_top" xlink:title="Convert an fr_time_t (internal time) to number of sec since the unix epoch (wallclock time) ...">
<polygon fill="none" stroke="#000000" points="286,-.5 286,-19.5 367,-19.5 367,-.5 286,-.5"/>
<text text-anchor="middle" x="326.5" y="-7.5" font-family="Helvetica,sans-Serif" font-size="10.00" fill="#000000">fr_time_to_sec</text>
</a>
</g>
</g>
<!-- Node2733&#45;&gt;Node2734 -->
<g id="edge22" class="edge">
<title>Node2733&#45;&gt;Node2734</title>
<path fill="none" stroke="#191970" d="M211.3607,-38.411C231.5911,-33.4191 256.5207,-27.2676 278.0036,-21.9666"/>
<polygon fill="#191970" stroke="#191970" points="279.0485,-25.3139 287.9187,-19.5201 277.3714,-18.5177 279.0485,-25.3139"/>
</g>
<!-- Node2735 -->
<g id="node15" class="node">
<title>Node2735</title>
<g id="a_node15"><a xlink:href="missing_8c.html#ac33448d8aaa3fd362ccc7eab18b248a6" target="_top" xlink:title="localtime_r">
<polygon fill="none" stroke="#000000" points="294.5,-38.5 294.5,-57.5 358.5,-57.5 358.5,-38.5 294.5,-38.5"/>
<text text-anchor="middle" x="326.5" y="-45.5" font-family="Helvetica,sans-Serif" font-size="10.00" fill="#000000">localtime_r</text>
</a>
</g>
</g>
<!-- Node2733&#45;&gt;Node2735 -->
<g id="edge23" class="edge">
<title>Node2733&#45;&gt;Node2735</title>
<path fill="none" stroke="#191970" d="M227.6626,-48C246.1024,-48 266.3637,-48 283.7152,-48"/>
<polygon fill="#191970" stroke="#191970" points="284.1007,-51.5001 294.1007,-48 284.1006,-44.5001 284.1007,-51.5001"/>
</g>
</g>
</svg>
        <g id="navigator" transform="translate(0 0)" fill="#404254">
                <rect fill="#f2f5e9" fill-opacity="0.5" stroke="#606060" stroke-width=".5" x="0" y="0" width="60" height="60"/>
                <use id="zoomplus" xlink:href="#zoomPlus" x="17" y="9" onmousedown="handleZoom(evt,'in')"/>
                <use id="zoomminus" xlink:href="#zoomMin" x="42" y="9" onmousedown="handleZoom(evt,'out')"/>
                <use id="reset" xlink:href="#resetDef" x="30" y="36" onmousedown="handleReset()"/>
                <g id="arrowUp" xlink:href="#dirArrow" transform="translate(30 24)" onmousedown="handlePan(0,-1)">
                  <use xlink:href="#rim" fill="#404040">
                        <set attributeName="fill" to="#808080" begin="arrowUp.mouseover" end="arrowUp.mouseout"/>
                  </use>
                  <path fill="none" stroke="white" stroke-width="1.5" d="M0,-3.0v7 M-2.5,-0.5L0,-3.0L2.5,-0.5"/>
                </g>
                <g id="arrowRight" xlink:href="#dirArrow" transform="rotate(90) translate(36 -43)" onmousedown="handlePan(1,0)">
                  <use xlink:href="#rim" fill="#404040">
                        <set attributeName="fill" to="#808080" begin="arrowRight.mouseover" end="arrowRight.mouseout"/>
                  </use>
                  <path fill="none" stroke="white" stroke-width="1.5" d="M0,-3.0v7 M-2.5,-0.5L0,-3.0L2.5,-0.5"/>
                </g>
                <g id="arrowDown" xlink:href="#dirArrow" transform="rotate(180) translate(-30 -48)" onmousedown="handlePan(0,1)">
                  <use xlink:href="#rim" fill="#404040">
                        <set attributeName="fill" to="#808080" begin="arrowDown.mouseover" end="arrowDown.mouseout"/>
                  </use>
                  <path fill="none" stroke="white" stroke-width="1.5" d="M0,-3.0v7 M-2.5,-0.5L0,-3.0L2.5,-0.5"/>
                </g>
                <g id="arrowLeft" xlink:href="#dirArrow" transform="rotate(270) translate(-36 17)" onmousedown="handlePan(-1,0)">
                  <use xlink:href="#rim" fill="#404040">
                        <set attributeName="fill" to="#808080" begin="arrowLeft.mouseover" end="arrowLeft.mouseout"/>
                  </use>
                  <path fill="none" stroke="white" stroke-width="1.5" d="M0,-3.0v7 M-2.5,-0.5L0,-3.0L2.5,-0.5"/>
                </g>
        </g>
        <svg viewBox="0 0 15 15" width="100%" height="30px" preserveAspectRatio="xMaxYMin meet">
         <g id="arrow_out" transform="scale(0.3 0.3)">
          <a xlink:href="rlm__smtp_8c_a3820b33d2648ebc0642b0ac20bf1956e_cgraph_org.svg" target="_base">
           <rect id="button" ry="5" rx="5" y="6" x="6" height="38" width="38"
                fill="#f2f5e9" fill-opacity="0.5" stroke="#606060" stroke-width="1.0"/>
           <path id="arrow"
             d="M 11.500037,31.436501 C 11.940474,20.09759 22.043105,11.32322 32.158766,21.979434 L 37.068811,17.246167 C 37.068811,17.246167 37.088388,32 37.088388,32 L 22.160133,31.978069 C 22.160133,31.978069 26.997745,27.140456 26.997745,27.140456 C 18.528582,18.264221 13.291696,25.230495 11.500037,31.436501 z"
             style="fill:#404040;"/>
          </a>
         </g>
        </svg>
</svg>
