<?xml version="1.0" encoding="UTF-8" standalone="no"?>
<!DOCTYPE svg PUBLIC "-//W3C//DTD SVG 1.1//EN"
 "http://www.w3.org/Graphics/SVG/1.1/DTD/svg11.dtd">
<!-- Generated by graphviz version 2.40.1 (20161225.0304)
 -->
<!-- Title: /home/runner/work/freeradius&#45;server/freeradius&#45;server/src/modules/rlm_sigtran/sigtran.h Pages: 1 -->
<!--zoomable 139 -->
<svg id="main" version="1.1" xmlns="http://www.w3.org/2000/svg" xmlns:xlink="http://www.w3.org/1999/xlink" xml:space="preserve" onload="init(evt)">
<style type="text/css"><![CDATA[
.edge:hover path { stroke: red; }
.edge:hover polygon { stroke: red; fill: red; }
]]></style>
<script type="text/javascript"><![CDATA[
var edges = document.getElementsByTagName('g');
if (edges && edges.length) {
  for (var i=0;i<edges.length;i++) {
    if (edges[i].id.substr(0,4)=='edge') {
      edges[i].setAttribute('class','edge');
    }
  }
}
]]></script>
        <defs>
                <circle id="rim" cx="0" cy="0" r="7"/>
                <circle id="rim2" cx="0" cy="0" r="3.5"/>
                <g id="zoomPlus">
                        <use xlink:href="#rim" fill="#404040">
                                <set attributeName="fill" to="#808080" begin="zoomplus.mouseover" end="zoomplus.mouseout"/>
                        </use>
                        <path d="M-4,0h8M0,-4v8" fill="none" stroke="white" stroke-width="1.5" pointer-events="none"/>
                </g>
                <g id="zoomMin">
                        <use xlink:href="#rim" fill="#404040">
                                <set attributeName="fill" to="#808080" begin="zoomminus.mouseover" end="zoomminus.mouseout"/>
                        </use>
                        <path d="M-4,0h8" fill="none" stroke="white" stroke-width="1.5" pointer-events="none"/>
                </g>
                <g id="dirArrow">
                        <path fill="none" stroke="white" stroke-width="1.5" d="M0,-3.0v7 M-2.5,-0.5L0,-3.0L2.5,-0.5"/>
                </g>
               <g id="resetDef">
                       <use xlink:href="#rim2" fill="#404040">
                               <set attributeName="fill" to="#808080" begin="reset.mouseover" end="reset.mouseout"/>
                       </use>
               </g>
        </defs>

<script type="text/javascript">
var viewWidth = 1027;
var viewHeight = 139;
var sectionId = 'dynsection-1';
</script>
<script xlink:href="svgpan.js"/>
<svg id="graph" class="graph">
<g id="viewport">
<title>/home/runner/work/freeradius&#45;server/freeradius&#45;server/src/modules/rlm_sigtran/sigtran.h</title>
<!-- Node5 -->
<g id="node1" class="node">
<title>Node5</title>
<polygon fill="#bfbfbf" stroke="#000000" points="427,-89.5 427,-130.5 591,-130.5 591,-89.5 427,-89.5"/>
<text text-anchor="start" x="435" y="-118.5" font-family="Helvetica,sans-Serif" font-size="10.00" fill="#000000">/home/runner/work/freeradius</text>
<text text-anchor="start" x="435" y="-107.5" font-family="Helvetica,sans-Serif" font-size="10.00" fill="#000000">&#45;server/freeradius&#45;server</text>
<text text-anchor="middle" x="509" y="-96.5" font-family="Helvetica,sans-Serif" font-size="10.00" fill="#000000">/src/modules/rlm_sigtran/sigtran.h</text>
</g>
<!-- Node6 -->
<g id="node2" class="node">
<title>Node6</title>
<g id="a_node2"><a xlink:href="src_2modules_2rlm__sigtran_2client_8c.html" target="_top" xlink:title="Talk to the event loop. ">
<polygon fill="none" stroke="#000000" points="0,-6 0,-47 158,-47 158,-6 0,-6"/>
<text text-anchor="start" x="8" y="-35" font-family="Helvetica,sans-Serif" font-size="10.00" fill="#000000">/home/runner/work/freeradius</text>
<text text-anchor="start" x="8" y="-24" font-family="Helvetica,sans-Serif" font-size="10.00" fill="#000000">&#45;server/freeradius&#45;server</text>
<text text-anchor="middle" x="79" y="-13" font-family="Helvetica,sans-Serif" font-size="10.00" fill="#000000">/src/modules/rlm_sigtran/client.c</text>
</a>
</g>
</g>
<!-- Node5&#45;&gt;Node6 -->
<g id="edge1" class="edge">
<title>Node5&#45;&gt;Node6</title>
<path fill="none" stroke="#191970" d="M416.9361,-98.041C347.5033,-88.2165 250.1674,-72.7226 166,-53 158.621,-51.2709 150.9505,-49.2586 143.3573,-47.13"/>
<polygon fill="#191970" stroke="#191970" points="416.5836,-101.5258 426.9729,-99.4492 417.5562,-94.5937 416.5836,-101.5258"/>
</g>
<!-- Node7 -->
<g id="node3" class="node">
<title>Node7</title>
<g id="a_node3"><a xlink:href="modules_2rlm__sigtran_2event_8c.html" target="_top" xlink:title="separate eventing thread to run libosmocore&#39;s event loop ">
<polygon fill="none" stroke="#000000" points="175.5,-6 175.5,-47 334.5,-47 334.5,-6 175.5,-6"/>
<text text-anchor="start" x="183.5" y="-35" font-family="Helvetica,sans-Serif" font-size="10.00" fill="#000000">/home/runner/work/freeradius</text>
<text text-anchor="start" x="183.5" y="-24" font-family="Helvetica,sans-Serif" font-size="10.00" fill="#000000">&#45;server/freeradius&#45;server</text>
<text text-anchor="middle" x="255" y="-13" font-family="Helvetica,sans-Serif" font-size="10.00" fill="#000000">/src/modules/rlm_sigtran/event.c</text>
</a>
</g>
</g>
<!-- Node5&#45;&gt;Node7 -->
<g id="edge2" class="edge">
<title>Node5&#45;&gt;Node7</title>
<path fill="none" stroke="#191970" d="M436.6742,-86.2236C399.1258,-73.8799 353.6966,-58.9455 317.6598,-47.0988"/>
<polygon fill="#191970" stroke="#191970" points="435.9464,-89.6686 446.5393,-89.4667 438.1325,-83.0187 435.9464,-89.6686"/>
</g>
<!-- Node8 -->
<g id="node4" class="node">
<title>Node8</title>
<g id="a_node4"><a xlink:href="modules_2rlm__sigtran_2log_8c.html" target="_top" xlink:title="Interface libosmo with FreeRADIUS logging. ">
<polygon fill="none" stroke="#000000" points="353,-6 353,-47 501,-47 501,-6 353,-6"/>
<text text-anchor="start" x="361" y="-35" font-family="Helvetica,sans-Serif" font-size="10.00" fill="#000000">/home/runner/work/freeradius</text>
<text text-anchor="start" x="361" y="-24" font-family="Helvetica,sans-Serif" font-size="10.00" fill="#000000">&#45;server/freeradius&#45;server</text>
<text text-anchor="middle" x="427" y="-13" font-family="Helvetica,sans-Serif" font-size="10.00" fill="#000000">/src/modules/rlm_sigtran/log.c</text>
</a>
</g>
</g>
<!-- Node5&#45;&gt;Node8 -->
<g id="edge3" class="edge">
<title>Node5&#45;&gt;Node8</title>
<path fill="none" stroke="#191970" d="M481.6267,-82.126C470.4185,-70.7127 457.6772,-57.7384 447.3207,-47.1924"/>
<polygon fill="#191970" stroke="#191970" points="479.2264,-84.677 488.7303,-89.3595 484.2208,-79.7723 479.2264,-84.677"/>
</g>
<!-- Node9 -->
<g id="node5" class="node">
<title>Node9</title>
<g id="a_node5"><a xlink:href="rlm__sigtran_8c.html" target="_top" xlink:title="Implement a SCTP/M3UA/SCCP/TCAP/MAP stack. ">
<polygon fill="none" stroke="#000000" points="519.5,-.5 519.5,-52.5 662.5,-52.5 662.5,-.5 519.5,-.5"/>
<text text-anchor="start" x="527.5" y="-40.5" font-family="Helvetica,sans-Serif" font-size="10.00" fill="#000000">/home/runner/work/freeradius</text>
<text text-anchor="start" x="527.5" y="-29.5" font-family="Helvetica,sans-Serif" font-size="10.00" fill="#000000">&#45;server/freeradius&#45;server</text>
<text text-anchor="start" x="527.5" y="-18.5" font-family="Helvetica,sans-Serif" font-size="10.00" fill="#000000">/src/modules/rlm_sigtran/rlm</text>
<text text-anchor="middle" x="591" y="-7.5" font-family="Helvetica,sans-Serif" font-size="10.00" fill="#000000">_sigtran.c</text>
</a>
</g>
</g>
<!-- Node5&#45;&gt;Node9 -->
<g id="edge4" class="edge">
<title>Node5&#45;&gt;Node9</title>
<path fill="none" stroke="#191970" d="M536.4841,-82.0132C545.8146,-72.512 556.1967,-61.94 565.3762,-52.5925"/>
<polygon fill="#191970" stroke="#191970" points="533.7792,-79.7723 529.2697,-89.3595 538.7736,-84.677 533.7792,-79.7723"/>
</g>
<!-- Node10 -->
<g id="node6" class="node">
<title>Node10</title>
<g id="a_node6"><a xlink:href="sccp_8c.html" target="_top" xlink:title="Implement SCCP/TCAP glue layer. ">
<polygon fill="none" stroke="#000000" points="681,-6 681,-47 837,-47 837,-6 681,-6"/>
<text text-anchor="start" x="689" y="-35" font-family="Helvetica,sans-Serif" font-size="10.00" fill="#000000">/home/runner/work/freeradius</text>
<text text-anchor="start" x="689" y="-24" font-family="Helvetica,sans-Serif" font-size="10.00" fill="#000000">&#45;server/freeradius&#45;server</text>
<text text-anchor="middle" x="759" y="-13" font-family="Helvetica,sans-Serif" font-size="10.00" fill="#000000">/src/modules/rlm_sigtran/sccp.c</text>
</a>
</g>
</g>
<!-- Node5&#45;&gt;Node10 -->
<g id="edge5" class="edge">
<title>Node5&#45;&gt;Node10</title>
<path fill="none" stroke="#191970" d="M580.1868,-86.2236C617.1439,-73.8799 661.8577,-58.9455 697.3269,-47.0988"/>
<polygon fill="#191970" stroke="#191970" points="578.8532,-82.9789 570.4771,-89.4667 581.0708,-89.6184 578.8532,-82.9789"/>
</g>
<!-- Node11 -->
<g id="node7" class="node">
<title>Node11</title>
<g id="a_node7"><a xlink:href="sigtran_8c.html" target="_top" xlink:title="Miscellaneous functions. ">
<polygon fill="none" stroke="#000000" points="855,-6 855,-47 1019,-47 1019,-6 855,-6"/>
<text text-anchor="start" x="863" y="-35" font-family="Helvetica,sans-Serif" font-size="10.00" fill="#000000">/home/runner/work/freeradius</text>
<text text-anchor="start" x="863" y="-24" font-family="Helvetica,sans-Serif" font-size="10.00" fill="#000000">&#45;server/freeradius&#45;server</text>
<text text-anchor="middle" x="937" y="-13" font-family="Helvetica,sans-Serif" font-size="10.00" fill="#000000">/src/modules/rlm_sigtran/sigtran.c</text>
</a>
</g>
</g>
<!-- Node5&#45;&gt;Node11 -->
<g id="edge6" class="edge">
<title>Node5&#45;&gt;Node11</title>
<path fill="none" stroke="#191970" d="M601.5037,-97.3049C669.5351,-87.2543 764.032,-71.8004 846,-53 853.6984,-51.2343 861.7092,-49.199 869.6445,-47.0575"/>
<polygon fill="#191970" stroke="#191970" points="600.6274,-93.8958 591.241,-98.8097 601.6431,-100.8218 600.6274,-93.8958"/>
</g>
</g>
</svg>
        <g id="navigator" transform="translate(0 0)" fill="#404254">
                <rect fill="#f2f5e9" fill-opacity="0.5" stroke="#606060" stroke-width=".5" x="0" y="0" width="60" height="60"/>
                <use id="zoomplus" xlink:href="#zoomPlus" x="17" y="9" onmousedown="handleZoom(evt,'in')"/>
                <use id="zoomminus" xlink:href="#zoomMin" x="42" y="9" onmousedown="handleZoom(evt,'out')"/>
                <use id="reset" xlink:href="#resetDef" x="30" y="36" onmousedown="handleReset()"/>
                <g id="arrowUp" xlink:href="#dirArrow" transform="translate(30 24)" onmousedown="handlePan(0,-1)">
                  <use xlink:href="#rim" fill="#404040">
                        <set attributeName="fill" to="#808080" begin="arrowUp.mouseover" end="arrowUp.mouseout"/>
                  </use>
                  <path fill="none" stroke="white" stroke-width="1.5" d="M0,-3.0v7 M-2.5,-0.5L0,-3.0L2.5,-0.5"/>
                </g>
                <g id="arrowRight" xlink:href="#dirArrow" transform="rotate(90) translate(36 -43)" onmousedown="handlePan(1,0)">
                  <use xlink:href="#rim" fill="#404040">
                        <set attributeName="fill" to="#808080" begin="arrowRight.mouseover" end="arrowRight.mouseout"/>
                  </use>
                  <path fill="none" stroke="white" stroke-width="1.5" d="M0,-3.0v7 M-2.5,-0.5L0,-3.0L2.5,-0.5"/>
                </g>
                <g id="arrowDown" xlink:href="#dirArrow" transform="rotate(180) translate(-30 -48)" onmousedown="handlePan(0,1)">
                  <use xlink:href="#rim" fill="#404040">
                        <set attributeName="fill" to="#808080" begin="arrowDown.mouseover" end="arrowDown.mouseout"/>
                  </use>
                  <path fill="none" stroke="white" stroke-width="1.5" d="M0,-3.0v7 M-2.5,-0.5L0,-3.0L2.5,-0.5"/>
                </g>
                <g id="arrowLeft" xlink:href="#dirArrow" transform="rotate(270) translate(-36 17)" onmousedown="handlePan(-1,0)">
                  <use xlink:href="#rim" fill="#404040">
                        <set attributeName="fill" to="#808080" begin="arrowLeft.mouseover" end="arrowLeft.mouseout"/>
                  </use>
                  <path fill="none" stroke="white" stroke-width="1.5" d="M0,-3.0v7 M-2.5,-0.5L0,-3.0L2.5,-0.5"/>
                </g>
        </g>
        <svg viewBox="0 0 15 15" width="100%" height="30px" preserveAspectRatio="xMaxYMin meet">
         <g id="arrow_out" transform="scale(0.3 0.3)">
          <a xlink:href="sigtran_8h__dep__incl_org.svg" target="_base">
           <rect id="button" ry="5" rx="5" y="6" x="6" height="38" width="38"
                fill="#f2f5e9" fill-opacity="0.5" stroke="#606060" stroke-width="1.0"/>
           <path id="arrow"
             d="M 11.500037,31.436501 C 11.940474,20.09759 22.043105,11.32322 32.158766,21.979434 L 37.068811,17.246167 C 37.068811,17.246167 37.088388,32 37.088388,32 L 22.160133,31.978069 C 22.160133,31.978069 26.997745,27.140456 26.997745,27.140456 C 18.528582,18.264221 13.291696,25.230495 11.500037,31.436501 z"
             style="fill:#404040;"/>
          </a>
         </g>
        </svg>
</svg>
