<?xml version="1.0" encoding="UTF-8" standalone="no"?>
<!DOCTYPE svg PUBLIC "-//W3C//DTD SVG 1.1//EN"
 "http://www.w3.org/Graphics/SVG/1.1/DTD/svg11.dtd">
<!-- Generated by graphviz version 2.40.1 (20161225.0304)
 -->
<!-- Title: unlang_module_yield_to_subrequest Pages: 1 -->
<svg width="914pt" height="732pt"
 viewBox="0.00 0.00 914.00 732.00" xmlns="http://www.w3.org/2000/svg" xmlns:xlink="http://www.w3.org/1999/xlink">
<g id="graph0" class="graph" transform="scale(1 1) rotate(0) translate(4 728)">
<title>unlang_module_yield_to_subrequest</title>
<!-- Node2839 -->
<g id="node1" class="node">
<title>Node2839</title>
<polygon fill="#bfbfbf" stroke="#000000" points="0,-516 0,-546 107,-546 107,-516 0,-516"/>
<text text-anchor="start" x="8" y="-534" font-family="Helvetica,sans-Serif" font-size="10.00" fill="#000000">unlang_module_yield</text>
<text text-anchor="middle" x="53.5" y="-523" font-family="Helvetica,sans-Serif" font-size="10.00" fill="#000000">_to_subrequest</text>
</g>
<!-- Node2840 -->
<g id="node2" class="node">
<title>Node2840</title>
<g id="a_node2"><a xlink:href="src_2lib_2unlang_2module_8c.html#aa828488a36bd5c78545c095a8e04096e" target="_top" xlink:title="Yield a request back to the interpreter from within a module. ">
<polygon fill="none" stroke="#000000" points="152,-540.5 152,-559.5 259,-559.5 259,-540.5 152,-540.5"/>
<text text-anchor="middle" x="205.5" y="-547.5" font-family="Helvetica,sans-Serif" font-size="10.00" fill="#000000">unlang_module_yield</text>
</a>
</g>
</g>
<!-- Node2839&#45;&gt;Node2840 -->
<g id="edge1" class="edge">
<title>Node2839&#45;&gt;Node2840</title>
<path fill="none" stroke="#191970" d="M107.0895,-537.6987C118.3278,-539.1035 130.284,-540.598 141.8483,-542.0435"/>
<polygon fill="#191970" stroke="#191970" points="141.5252,-545.5303 151.8821,-543.2978 142.3935,-538.5844 141.5252,-545.5303"/>
</g>
<!-- Node2847 -->
<g id="node9" class="node">
<title>Node2847</title>
<g id="a_node9"><a xlink:href="subrequest_8c.html#acd1679462f7f1ebb82181a282c6240b1" target="_top" xlink:title="Push a pre&#45;existing child back onto the stack as a subrequest. ">
<polygon fill="none" stroke="#000000" points="143,-483.5 143,-502.5 268,-502.5 268,-483.5 143,-483.5"/>
<text text-anchor="middle" x="205.5" y="-490.5" font-family="Helvetica,sans-Serif" font-size="10.00" fill="#000000">unlang_subrequest_push</text>
</a>
</g>
</g>
<!-- Node2839&#45;&gt;Node2847 -->
<g id="edge9" class="edge">
<title>Node2839&#45;&gt;Node2847</title>
<path fill="none" stroke="#191970" d="M107.0895,-517.6026C123.3559,-513.536 141.1265,-509.0934 157.0357,-505.1161"/>
<polygon fill="#191970" stroke="#191970" points="158.3344,-508.3992 167.1869,-502.5783 156.6366,-501.6082 158.3344,-508.3992"/>
</g>
<!-- Node2841 -->
<g id="node3" class="node">
<title>Node2841</title>
<g id="a_node3"><a xlink:href="src_2lib_2unlang_2module_8c.html#a7e539fb86ff1ad93cd142a7443f0fa61" target="_top" xlink:title="Wrapper to call a module&#39;s resumption function. ">
<polygon fill="none" stroke="#000000" points="306,-606.5 306,-625.5 425,-625.5 425,-606.5 306,-606.5"/>
<text text-anchor="middle" x="365.5" y="-613.5" font-family="Helvetica,sans-Serif" font-size="10.00" fill="#000000">unlang_module_resume</text>
</a>
</g>
</g>
<!-- Node2840&#45;&gt;Node2841 -->
<g id="edge2" class="edge">
<title>Node2840&#45;&gt;Node2841</title>
<path fill="none" stroke="#191970" d="M228.7654,-559.597C256.2161,-570.9204 302.0283,-589.8179 332.9809,-602.5859"/>
<polygon fill="#191970" stroke="#191970" points="331.8871,-605.9207 342.4661,-606.4985 334.5564,-599.4496 331.8871,-605.9207"/>
</g>
<!-- Node2845 -->
<g id="node7" class="node">
<title>Node2845</title>
<g id="a_node7"><a xlink:href="unlang__priv_8h.html#aea944f0a695d8ca1840e87b53bca4bad" target="_top" xlink:title="repeatable_set">
<polygon fill="none" stroke="#000000" points="492,-540.5 492,-559.5 572,-559.5 572,-540.5 492,-540.5"/>
<text text-anchor="middle" x="532" y="-547.5" font-family="Helvetica,sans-Serif" font-size="10.00" fill="#000000">repeatable_set</text>
</a>
</g>
</g>
<!-- Node2840&#45;&gt;Node2845 -->
<g id="edge8" class="edge">
<title>Node2840&#45;&gt;Node2845</title>
<path fill="none" stroke="#191970" d="M259.0492,-550C320.787,-550 421.4837,-550 481.7788,-550"/>
<polygon fill="#191970" stroke="#191970" points="481.8222,-553.5001 491.8222,-550 481.8222,-546.5001 481.8222,-553.5001"/>
</g>
<!-- Node2842 -->
<g id="node4" class="node">
<title>Node2842</title>
<g id="a_node4"><a xlink:href="module__priv_8h.html#a192551b6e95b085d7f3d825431574ed0" target="_top" xlink:title="unlang_generic_to_module">
<polygon fill="none" stroke="#000000" points="466,-704.5 466,-723.5 598,-723.5 598,-704.5 466,-704.5"/>
<text text-anchor="middle" x="532" y="-711.5" font-family="Helvetica,sans-Serif" font-size="10.00" fill="#000000">unlang_generic_to_module</text>
</a>
</g>
</g>
<!-- Node2841&#45;&gt;Node2842 -->
<g id="edge3" class="edge">
<title>Node2841&#45;&gt;Node2842</title>
<path fill="none" stroke="#191970" d="M374.5144,-625.5329C390.6882,-642.0865 426.3796,-676.1748 463,-695 467.5117,-697.3193 472.3393,-699.3821 477.2674,-701.2112"/>
<polygon fill="#191970" stroke="#191970" points="476.2171,-704.5507 486.8114,-704.4466 478.4645,-697.9213 476.2171,-704.5507"/>
</g>
<!-- Node2843 -->
<g id="node5" class="node">
<title>Node2843</title>
<g id="a_node5"><a xlink:href="src_2lib_2unlang_2module_8c.html#a90c3fdc6174caae2812982ce4ff078c8" target="_top" xlink:title="safe_lock">
<polygon fill="none" stroke="#000000" points="502.5,-666.5 502.5,-685.5 561.5,-685.5 561.5,-666.5 502.5,-666.5"/>
<text text-anchor="middle" x="532" y="-673.5" font-family="Helvetica,sans-Serif" font-size="10.00" fill="#000000">safe_lock</text>
</a>
</g>
</g>
<!-- Node2841&#45;&gt;Node2843 -->
<g id="edge4" class="edge">
<title>Node2841&#45;&gt;Node2843</title>
<path fill="none" stroke="#191970" d="M386.118,-625.5896C405.6471,-634.4516 435.9312,-647.6258 463,-657 472.4111,-660.2591 482.6934,-663.3401 492.3787,-666.0349"/>
<polygon fill="#191970" stroke="#191970" points="491.6268,-669.4573 502.1941,-668.6946 493.4576,-662.7009 491.6268,-669.4573"/>
</g>
<!-- Node2844 -->
<g id="node6" class="node">
<title>Node2844</title>
<g id="a_node6"><a xlink:href="src_2lib_2unlang_2module_8c.html#ab46c0326fe151b89c713241460595761" target="_top" xlink:title="safe_unlock">
<polygon fill="none" stroke="#000000" points="497.5,-628.5 497.5,-647.5 566.5,-647.5 566.5,-628.5 497.5,-628.5"/>
<text text-anchor="middle" x="532" y="-635.5" font-family="Helvetica,sans-Serif" font-size="10.00" fill="#000000">safe_unlock</text>
</a>
</g>
</g>
<!-- Node2841&#45;&gt;Node2844 -->
<g id="edge5" class="edge">
<title>Node2841&#45;&gt;Node2844</title>
<path fill="none" stroke="#191970" d="M425.14,-623.8804C445.705,-626.5977 468.3654,-629.5918 487.5068,-632.121"/>
<polygon fill="#191970" stroke="#191970" points="487.0814,-635.5951 497.4537,-633.4353 487.9984,-628.6555 487.0814,-635.5951"/>
</g>
<!-- Node2841&#45;&gt;Node2845 -->
<g id="edge6" class="edge">
<title>Node2841&#45;&gt;Node2845</title>
<path fill="none" stroke="#191970" d="M383.4552,-606.4702C402.7391,-596.488 434.4638,-580.7893 463,-570 470.1383,-567.3011 477.8061,-564.7498 485.3424,-562.4297"/>
<polygon fill="#191970" stroke="#191970" points="486.5325,-565.7273 495.1185,-559.5199 484.5356,-559.0182 486.5325,-565.7273"/>
</g>
<!-- Node2846 -->
<g id="node8" class="node">
<title>Node2846</title>
<g id="a_node8"><a xlink:href="src_2lib_2unlang_2module_8c.html#a785cafdb7d6144e87f0875e3d394d872" target="_top" xlink:title="Return UNLANG_CALCULATE_RESULT only for async async calls. ">
<polygon fill="none" stroke="#000000" points="472.5,-579 472.5,-609 591.5,-609 591.5,-579 472.5,-579"/>
<text text-anchor="start" x="480.5" y="-597" font-family="Helvetica,sans-Serif" font-size="10.00" fill="#000000">unlang_module_resume</text>
<text text-anchor="middle" x="532" y="-586" font-family="Helvetica,sans-Serif" font-size="10.00" fill="#000000">_final</text>
</a>
</g>
</g>
<!-- Node2841&#45;&gt;Node2846 -->
<g id="edge7" class="edge">
<title>Node2841&#45;&gt;Node2846</title>
<path fill="none" stroke="#191970" d="M425.14,-608.1196C437.1685,-606.5303 449.9137,-604.8462 462.2524,-603.2159"/>
<polygon fill="#191970" stroke="#191970" points="463.0414,-606.6422 472.4967,-601.8623 462.1243,-599.7025 463.0414,-606.6422"/>
</g>
<!-- Node2848 -->
<g id="node10" class="node">
<title>Node2848</title>
<g id="a_node10"><a xlink:href="interpret_8c.html#a06f6fba9b6f8a9831a34c445ff1ecb9f" target="_top" xlink:title="Push a new frame onto the stack. ">
<polygon fill="none" stroke="#000000" points="309.5,-483.5 309.5,-502.5 421.5,-502.5 421.5,-483.5 309.5,-483.5"/>
<text text-anchor="middle" x="365.5" y="-490.5" font-family="Helvetica,sans-Serif" font-size="10.00" fill="#000000">unlang_interpret_push</text>
</a>
</g>
</g>
<!-- Node2847&#45;&gt;Node2848 -->
<g id="edge10" class="edge">
<title>Node2847&#45;&gt;Node2848</title>
<path fill="none" stroke="#191970" d="M268.277,-493C278.4545,-493 289.0225,-493 299.2789,-493"/>
<polygon fill="#191970" stroke="#191970" points="299.4055,-496.5001 309.4054,-493 299.4054,-489.5001 299.4055,-496.5001"/>
</g>
<!-- Node2851 -->
<g id="node13" class="node">
<title>Node2851</title>
<g id="a_node13"><a xlink:href="subrequest_8c.html#a24bc2d461a1834c4b3d0cd235dc52ec4" target="_top" xlink:title="unlang_subrequest_start">
<polygon fill="none" stroke="#000000" points="304,-389.5 304,-408.5 427,-408.5 427,-389.5 304,-389.5"/>
<text text-anchor="middle" x="365.5" y="-396.5" font-family="Helvetica,sans-Serif" font-size="10.00" fill="#000000">unlang_subrequest_start</text>
</a>
</g>
</g>
<!-- Node2847&#45;&gt;Node2851 -->
<g id="edge13" class="edge">
<title>Node2847&#45;&gt;Node2851</title>
<path fill="none" stroke="#191970" d="M221.7222,-483.4695C249.7531,-467.0013 307.4285,-433.117 340.5799,-413.6406"/>
<polygon fill="#191970" stroke="#191970" points="342.3857,-416.639 349.2349,-408.5557 338.8398,-410.6035 342.3857,-416.639"/>
</g>
<!-- Node2849 -->
<g id="node11" class="node">
<title>Node2849</title>
<g id="a_node11"><a xlink:href="unlang__priv_8h.html#aa4c8f320f83d5d13551043fd92198e87" target="_top" xlink:title="top_frame_set">
<polygon fill="none" stroke="#000000" points="492.5,-502.5 492.5,-521.5 571.5,-521.5 571.5,-502.5 492.5,-502.5"/>
<text text-anchor="middle" x="532" y="-509.5" font-family="Helvetica,sans-Serif" font-size="10.00" fill="#000000">top_frame_set</text>
</a>
</g>
</g>
<!-- Node2848&#45;&gt;Node2849 -->
<g id="edge11" class="edge">
<title>Node2848&#45;&gt;Node2849</title>
<path fill="none" stroke="#191970" d="M421.8693,-499.4325C441.4618,-501.6683 463.2794,-504.158 482.2937,-506.3278"/>
<polygon fill="#191970" stroke="#191970" points="481.9124,-509.8069 492.2447,-507.4634 482.7061,-502.8521 481.9124,-509.8069"/>
</g>
<!-- Node2850 -->
<g id="node12" class="node">
<title>Node2850</title>
<g id="a_node12"><a xlink:href="interpret_8c.html#a42aa39726319d6ee4ff8119d4aa42ec8" target="_top" xlink:title="frame_state_init">
<polygon fill="none" stroke="#000000" points="489,-464.5 489,-483.5 575,-483.5 575,-464.5 489,-464.5"/>
<text text-anchor="middle" x="532" y="-471.5" font-family="Helvetica,sans-Serif" font-size="10.00" fill="#000000">frame_state_init</text>
</a>
</g>
</g>
<!-- Node2848&#45;&gt;Node2850 -->
<g id="edge12" class="edge">
<title>Node2848&#45;&gt;Node2850</title>
<path fill="none" stroke="#191970" d="M421.8693,-486.5675C440.2512,-484.4698 460.5918,-482.1487 478.7382,-480.0779"/>
<polygon fill="#191970" stroke="#191970" points="479.3127,-483.5352 488.8514,-478.9239 478.519,-476.5803 479.3127,-483.5352"/>
</g>
<!-- Node2852 -->
<g id="node14" class="node">
<title>Node2852</title>
<g id="a_node14"><a xlink:href="server_2state_8c.html#ad5737972855a44f06fd3f96ea70ead54" target="_top" xlink:title="Restore subrequest data from a parent request. ">
<polygon fill="none" stroke="#000000" points="483,-415 483,-445 581,-445 581,-415 483,-415"/>
<text text-anchor="start" x="491" y="-433" font-family="Helvetica,sans-Serif" font-size="10.00" fill="#000000">fr_state_restore_to</text>
<text text-anchor="middle" x="532" y="-422" font-family="Helvetica,sans-Serif" font-size="10.00" fill="#000000">_child</text>
</a>
</g>
</g>
<!-- Node2851&#45;&gt;Node2852 -->
<g id="edge14" class="edge">
<title>Node2851&#45;&gt;Node2852</title>
<path fill="none" stroke="#191970" d="M416.8141,-408.554C434.5506,-411.8563 454.5666,-415.583 472.878,-418.9923"/>
<polygon fill="#191970" stroke="#191970" points="472.3785,-422.4594 482.8503,-420.849 473.6599,-415.5776 472.3785,-422.4594"/>
</g>
<!-- Node3346 -->
<g id="node18" class="node">
<title>Node3346</title>
<g id="a_node18"><a xlink:href="lib_2server_2log_8c.html#a6e8a116514560c39703face844973ee6" target="_top" xlink:title="Print a list of fr_pair_ts. ">
<polygon fill="none" stroke="#ff0000" points="479,-358.5 479,-377.5 585,-377.5 585,-358.5 479,-358.5"/>
<text text-anchor="middle" x="532" y="-365.5" font-family="Helvetica,sans-Serif" font-size="10.00" fill="#000000">log_request_pair_list</text>
</a>
</g>
</g>
<!-- Node2851&#45;&gt;Node3346 -->
<g id="edge21" class="edge">
<title>Node2851&#45;&gt;Node3346</title>
<path fill="none" stroke="#191970" d="M416.8141,-389.446C433.8272,-386.2784 452.9378,-382.7203 470.6294,-379.4264"/>
<polygon fill="#191970" stroke="#191970" points="471.665,-382.7938 480.8554,-377.5224 470.3836,-375.912 471.665,-382.7938"/>
</g>
<!-- Node3490 -->
<g id="node19" class="node">
<title>Node3490</title>
<g id="a_node19"><a xlink:href="subrequest_8c.html#a1ed0545b2bc4e7d6556818b987a59984" target="_top" xlink:title="Process a subrequest until it either detaches, or is done. ">
<polygon fill="none" stroke="#000000" points="463,-221.5 463,-240.5 601,-240.5 601,-221.5 463,-221.5"/>
<text text-anchor="middle" x="532" y="-228.5" font-family="Helvetica,sans-Serif" font-size="10.00" fill="#000000">unlang_subrequest_process</text>
</a>
</g>
</g>
<!-- Node2851&#45;&gt;Node3490 -->
<g id="edge23" class="edge">
<title>Node2851&#45;&gt;Node3490</title>
<path fill="none" stroke="#191970" d="M374.9288,-389.4862C402.0462,-362.1246 480.5111,-282.9528 515.1852,-247.9663"/>
<polygon fill="#191970" stroke="#191970" points="517.7065,-250.3944 522.2599,-240.8279 512.7346,-245.4669 517.7065,-250.3944"/>
</g>
<!-- Node2853 -->
<g id="node15" class="node">
<title>Node2853</title>
<g id="a_node15"><a xlink:href="request__data_8c.html#a39eabb687ff5862a727bdd3bca0546db" target="_top" xlink:title="Restore subrequest data from a parent request. ">
<polygon fill="none" stroke="#ff0000" points="653.5,-487 653.5,-517 761.5,-517 761.5,-487 653.5,-487"/>
<text text-anchor="start" x="661.5" y="-505" font-family="Helvetica,sans-Serif" font-size="10.00" fill="#000000">request_data_restore</text>
<text text-anchor="middle" x="707.5" y="-494" font-family="Helvetica,sans-Serif" font-size="10.00" fill="#000000">_to_child</text>
</a>
</g>
</g>
<!-- Node2852&#45;&gt;Node2853 -->
<g id="edge15" class="edge">
<title>Node2852&#45;&gt;Node2853</title>
<path fill="none" stroke="#191970" d="M575.6716,-445.123C584.1296,-448.2486 592.8835,-451.6219 601,-455 617.3359,-461.799 620.8562,-464.7567 637,-472 645.024,-475.6002 653.6059,-479.3418 661.9223,-482.9117"/>
<polygon fill="#191970" stroke="#191970" points="660.5838,-486.1458 671.155,-486.8526 663.3318,-479.7078 660.5838,-486.1458"/>
</g>
<!-- Node2854 -->
<g id="node16" class="node">
<title>Node2854</title>
<g id="a_node16"><a xlink:href="request__data_8c.html#a2dfaa4524c75719f7d11d05607e976a9" target="_top" xlink:title="Get opaque data from a request. ">
<polygon fill="none" stroke="#ff0000" points="814,-448.5 814,-467.5 906,-467.5 906,-448.5 814,-448.5"/>
<text text-anchor="middle" x="860" y="-455.5" font-family="Helvetica,sans-Serif" font-size="10.00" fill="#000000">request_data_get</text>
</a>
</g>
</g>
<!-- Node2852&#45;&gt;Node2854 -->
<g id="edge17" class="edge">
<title>Node2852&#45;&gt;Node2854</title>
<path fill="none" stroke="#191970" d="M581.1438,-434.2175C598.761,-435.7281 618.7704,-437.4421 637,-439 693.7484,-443.8496 758.6217,-449.3748 803.7103,-453.212"/>
<polygon fill="#191970" stroke="#191970" points="803.6127,-456.7162 813.8735,-454.0768 804.2063,-449.7415 803.6127,-456.7162"/>
</g>
<!-- Node2863 -->
<g id="node17" class="node">
<title>Node2863</title>
<g id="a_node17"><a xlink:href="server_2state_8c.html#a1e5d0d2d1a726b22a4e736d665dc9704" target="_top" xlink:title="Store subrequest&#39;s session&#45;state list and persistable request data in its parent. ...">
<polygon fill="none" stroke="#ff0000" points="646.5,-392.5 646.5,-411.5 768.5,-411.5 768.5,-392.5 646.5,-392.5"/>
<text text-anchor="middle" x="707.5" y="-399.5" font-family="Helvetica,sans-Serif" font-size="10.00" fill="#000000">fr_state_store_in_parent</text>
</a>
</g>
</g>
<!-- Node2852&#45;&gt;Node2863 -->
<g id="edge18" class="edge">
<title>Node2852&#45;&gt;Node2863</title>
<path fill="none" stroke="#191970" d="M581.3536,-422.1259C598.8851,-419.3289 618.9636,-416.1255 637.8689,-413.1092"/>
<polygon fill="#191970" stroke="#191970" points="638.6032,-416.5364 647.9268,-411.5045 637.5003,-409.6239 638.6032,-416.5364"/>
</g>
<!-- Node2853&#45;&gt;Node2854 -->
<g id="edge16" class="edge">
<title>Node2853&#45;&gt;Node2854</title>
<path fill="none" stroke="#191970" d="M759.5553,-486.9808C778.1646,-481.6115 798.9189,-475.6234 816.7091,-470.4905"/>
<polygon fill="#191970" stroke="#191970" points="818.1647,-473.7133 826.8025,-467.5783 816.2242,-466.9877 818.1647,-473.7133"/>
</g>
<!-- Node2863&#45;&gt;Node2854 -->
<g id="edge20" class="edge">
<title>Node2863&#45;&gt;Node2854</title>
<path fill="none" stroke="#191970" d="M733.7157,-411.6267C758.7448,-420.8178 796.6515,-434.7376 824.4039,-444.9287"/>
<polygon fill="#191970" stroke="#191970" points="823.5328,-448.3372 834.1264,-448.4989 825.9458,-441.7663 823.5328,-448.3372"/>
</g>
<!-- Node2863&#45;&gt;Node2863 -->
<g id="edge19" class="edge">
<title>Node2863&#45;&gt;Node2863</title>
<path fill="none" stroke="#191970" d="M684.0724,-411.7571C672.6752,-420.5653 680.4844,-430 707.5,-430 725.229,-430 734.6865,-425.9368 735.8725,-420.6539"/>
<polygon fill="#191970" stroke="#191970" points="738.8449,-418.7974 730.9276,-411.7571 732.7265,-422.1981 738.8449,-418.7974"/>
</g>
<!-- Node3346&#45;&gt;Node3346 -->
<g id="edge22" class="edge">
<title>Node3346&#45;&gt;Node3346</title>
<path fill="none" stroke="#191970" d="M506.4146,-377.7571C493.9676,-386.5653 502.4961,-396 532,-396 551.8229,-396 562.1772,-391.741 563.0629,-386.2746"/>
<polygon fill="#191970" stroke="#191970" points="565.9382,-384.2749 557.5854,-377.7571 560.0505,-388.0611 565.9382,-384.2749"/>
</g>
<!-- Node3490&#45;&gt;Node2863 -->
<g id="edge26" class="edge">
<title>Node3490&#45;&gt;Node2863</title>
<path fill="none" stroke="#191970" d="M537.5303,-240.7572C554.9371,-271.1557 609.0962,-363.299 637,-383 639.8299,-384.998 642.8591,-386.786 646.0126,-388.386"/>
<polygon fill="#191970" stroke="#191970" points="644.6047,-391.5903 655.1673,-392.4156 647.4248,-385.1835 644.6047,-391.5903"/>
</g>
<!-- Node3491 -->
<g id="node20" class="node">
<title>Node3491</title>
<g id="a_node20"><a xlink:href="unlang__priv_8h.html#aac8f5c5ad9dc7c337553f920e1a181d4" target="_top" xlink:title="unlang_generic_to_group">
<polygon fill="none" stroke="#000000" points="645,-354.5 645,-373.5 770,-373.5 770,-354.5 645,-354.5"/>
<text text-anchor="middle" x="707.5" y="-361.5" font-family="Helvetica,sans-Serif" font-size="10.00" fill="#000000">unlang_generic_to_group</text>
</a>
</g>
</g>
<!-- Node3490&#45;&gt;Node3491 -->
<g id="edge24" class="edge">
<title>Node3490&#45;&gt;Node3491</title>
<path fill="none" stroke="#191970" d="M538.0524,-240.6433C552.3964,-262.6775 590.7473,-316.9683 637,-345 640.5978,-347.1805 644.4476,-349.1149 648.4236,-350.8304"/>
<polygon fill="#191970" stroke="#191970" points="647.2804,-354.1405 657.8707,-354.4489 649.7842,-347.6036 647.2804,-354.1405"/>
</g>
<!-- Node3492 -->
<g id="node21" class="node">
<title>Node3492</title>
<g id="a_node21"><a xlink:href="interpret_8c.html#a0976ada1dcd117438d14d61f5f6a7c9f" target="_top" xlink:title="unlang_interpret">
<polygon fill="none" stroke="#ff0000" points="664.5,-316.5 664.5,-335.5 750.5,-335.5 750.5,-316.5 664.5,-316.5"/>
<text text-anchor="middle" x="707.5" y="-323.5" font-family="Helvetica,sans-Serif" font-size="10.00" fill="#000000">unlang_interpret</text>
</a>
</g>
</g>
<!-- Node3490&#45;&gt;Node3492 -->
<g id="edge25" class="edge">
<title>Node3490&#45;&gt;Node3492</title>
<path fill="none" stroke="#191970" d="M542.4934,-240.6404C560.4974,-256.6852 599.0152,-288.8901 637,-307 642.6318,-309.685 648.704,-312.04 654.8391,-314.0924"/>
<polygon fill="#191970" stroke="#191970" points="653.8899,-317.4623 664.4776,-317.0727 655.9578,-310.7747 653.8899,-317.4623"/>
</g>
<!-- Node3719 -->
<g id="node22" class="node">
<title>Node3719</title>
<g id="a_node22"><a xlink:href="subrequest__priv_8h.html#ab39886547fa206886631af99db7178ce" target="_top" xlink:title="Cast a group structure to the subrequest keyword extension. ">
<polygon fill="none" stroke="#000000" points="637,-278.5 637,-297.5 778,-297.5 778,-278.5 637,-278.5"/>
<text text-anchor="middle" x="707.5" y="-285.5" font-family="Helvetica,sans-Serif" font-size="10.00" fill="#000000">unlang_group_to_subrequest</text>
</a>
</g>
</g>
<!-- Node3490&#45;&gt;Node3719 -->
<g id="edge27" class="edge">
<title>Node3490&#45;&gt;Node3719</title>
<path fill="none" stroke="#191970" d="M556.8328,-240.6549C577.983,-248.7167 609.2649,-260.2609 637,-269 644.3137,-271.3045 652.1074,-273.5808 659.746,-275.7135"/>
<polygon fill="#191970" stroke="#191970" points="659.0755,-279.1587 669.6449,-278.4249 660.9247,-272.4074 659.0755,-279.1587"/>
</g>
<!-- Node3720 -->
<g id="node23" class="node">
<title>Node3720</title>
<g id="a_node23"><a xlink:href="server_2tmpl_8h.html#a54e32477409c5f07625d89acdbcb65b7" target="_top" xlink:title="Determines points where the reference list extends beyond the current pair tree. ">
<polygon fill="none" stroke="#ff0000" points="660.5,-240.5 660.5,-259.5 754.5,-259.5 754.5,-240.5 660.5,-240.5"/>
<text text-anchor="middle" x="707.5" y="-247.5" font-family="Helvetica,sans-Serif" font-size="10.00" fill="#000000">tmpl_extents_find</text>
</a>
</g>
</g>
<!-- Node3490&#45;&gt;Node3720 -->
<g id="edge28" class="edge">
<title>Node3490&#45;&gt;Node3720</title>
<path fill="none" stroke="#191970" d="M601.1103,-238.482C617.3982,-240.2454 634.5842,-242.106 650.2812,-243.8054"/>
<polygon fill="#191970" stroke="#191970" points="650.0383,-247.2994 660.357,-244.8962 650.7918,-240.3401 650.0383,-247.2994"/>
</g>
<!-- Node2856 -->
<g id="node24" class="node">
<title>Node2856</title>
<g id="a_node24"><a xlink:href="dlist_8h.html#a90c9ea299e869c463ab8109410112a97" target="_top" xlink:title="Return the HEAD item of a list or NULL if the list is empty. ">
<polygon fill="none" stroke="#000000" points="824,-202.5 824,-221.5 896,-221.5 896,-202.5 824,-202.5"/>
<text text-anchor="middle" x="860" y="-209.5" font-family="Helvetica,sans-Serif" font-size="10.00" fill="#000000">fr_dlist_head</text>
</a>
</g>
</g>
<!-- Node3490&#45;&gt;Node2856 -->
<g id="edge33" class="edge">
<title>Node3490&#45;&gt;Node2856</title>
<path fill="none" stroke="#191970" d="M601.1596,-226.9938C665.0787,-223.2912 758.283,-217.8921 813.6682,-214.6839"/>
<polygon fill="#191970" stroke="#191970" points="814.1067,-218.1644 823.8875,-214.0919 813.7018,-211.1761 814.1067,-218.1644"/>
</g>
<!-- Node3721 -->
<g id="node25" class="node">
<title>Node3721</title>
<g id="a_node25"><a xlink:href="server_2tmpl_8h.html#a75d8ce641a755aff44ed72e806f7b597" target="_top" xlink:title="Allocate interior pairs. ">
<polygon fill="none" stroke="#ff0000" points="658.5,-153 658.5,-183 756.5,-183 756.5,-153 658.5,-153"/>
<text text-anchor="start" x="666.5" y="-171" font-family="Helvetica,sans-Serif" font-size="10.00" fill="#000000">tmpl_extents_build</text>
<text text-anchor="middle" x="707.5" y="-160" font-family="Helvetica,sans-Serif" font-size="10.00" fill="#000000">_to_leaf</text>
</a>
</g>
</g>
<!-- Node3490&#45;&gt;Node3721 -->
<g id="edge30" class="edge">
<title>Node3490&#45;&gt;Node3721</title>
<path fill="none" stroke="#191970" d="M558.6547,-221.4317C584.3771,-212.198 624.004,-197.9729 655.9048,-186.5213"/>
<polygon fill="#191970" stroke="#191970" points="657.3037,-189.7379 665.5331,-183.065 654.9386,-183.1496 657.3037,-189.7379"/>
</g>
<!-- Node2971 -->
<g id="node26" class="node">
<title>Node2971</title>
<g id="a_node26"><a xlink:href="dlist_8h.html#a5d1da49f23b091e8df75b7a0256a61b3" target="_top" xlink:title="Free all items in a doubly linked list (with talloc) ">
<polygon fill="none" stroke="#ff0000" points="659.5,-114.5 659.5,-133.5 755.5,-133.5 755.5,-114.5 659.5,-114.5"/>
<text text-anchor="middle" x="707.5" y="-121.5" font-family="Helvetica,sans-Serif" font-size="10.00" fill="#000000">fr_dlist_talloc_free</text>
</a>
</g>
</g>
<!-- Node3490&#45;&gt;Node2971 -->
<g id="edge32" class="edge">
<title>Node3490&#45;&gt;Node2971</title>
<path fill="none" stroke="#191970" d="M540.8633,-221.3733C557.8231,-203.5162 596.7711,-165.1574 637,-144 642.1938,-141.2684 647.8046,-138.872 653.5137,-136.7784"/>
<polygon fill="#191970" stroke="#191970" points="654.7949,-140.0403 663.1579,-133.5356 652.5639,-133.4053 654.7949,-140.0403"/>
</g>
<!-- Node3722 -->
<g id="node27" class="node">
<title>Node3722</title>
<g id="a_node27"><a xlink:href="pair_8c.html#a2a3d33934f2f0f91120dfe3f381b500e" target="_top" xlink:title="Duplicate a list of pairs. ">
<polygon fill="none" stroke="#ff0000" points="663.5,-76.5 663.5,-95.5 751.5,-95.5 751.5,-76.5 663.5,-76.5"/>
<text text-anchor="middle" x="707.5" y="-83.5" font-family="Helvetica,sans-Serif" font-size="10.00" fill="#000000">fr_pair_list_copy</text>
</a>
</g>
</g>
<!-- Node3490&#45;&gt;Node3722 -->
<g id="edge34" class="edge">
<title>Node3490&#45;&gt;Node3722</title>
<path fill="none" stroke="#191970" d="M537.1821,-221.3937C550.4519,-197.7389 588.0842,-136.3296 637,-105 642.0604,-101.7589 647.6642,-99.0667 653.4366,-96.8311"/>
<polygon fill="#191970" stroke="#191970" points="654.9108,-100.0263 663.2442,-93.4837 652.6497,-93.4015 654.9108,-100.0263"/>
</g>
<!-- Node3724 -->
<g id="node28" class="node">
<title>Node3724</title>
<g id="a_node28"><a xlink:href="dlist_8h.html#a3721bb84203422e397f8029e393c6d89" target="_top" xlink:title="Free the first item in the list. ">
<polygon fill="none" stroke="#ff0000" points="646.5,-38.5 646.5,-57.5 768.5,-57.5 768.5,-38.5 646.5,-38.5"/>
<text text-anchor="middle" x="707.5" y="-45.5" font-family="Helvetica,sans-Serif" font-size="10.00" fill="#000000">fr_dlist_talloc_free_head</text>
</a>
</g>
</g>
<!-- Node3490&#45;&gt;Node3724 -->
<g id="edge35" class="edge">
<title>Node3490&#45;&gt;Node3724</title>
<path fill="none" stroke="#191970" d="M535.2584,-221.4871C545.4392,-193.2322 579.4557,-109.1577 637,-67 639.6587,-65.0522 642.5045,-63.3041 645.4721,-61.7351"/>
<polygon fill="#191970" stroke="#191970" points="647.0236,-64.8745 654.6745,-57.5455 644.1231,-58.5037 647.0236,-64.8745"/>
</g>
<!-- Node3725 -->
<g id="node29" class="node">
<title>Node3725</title>
<g id="a_node29"><a xlink:href="subrequest_8c.html#ab2207dac3f5c8f0dfa9e69e0c5ab6298" target="_top" xlink:title="Free a child request, detaching it from its parent and freeing allocated memory. ">
<polygon fill="none" stroke="#ff0000" points="647.5,-.5 647.5,-19.5 767.5,-19.5 767.5,-.5 647.5,-.5"/>
<text text-anchor="middle" x="707.5" y="-7.5" font-family="Helvetica,sans-Serif" font-size="10.00" fill="#000000">unlang_subrequest_free</text>
</a>
</g>
</g>
<!-- Node3490&#45;&gt;Node3725 -->
<g id="edge36" class="edge">
<title>Node3490&#45;&gt;Node3725</title>
<path fill="none" stroke="#191970" d="M534.1216,-221.2139C541.7292,-188.5371 570.7822,-82.2572 637,-29 639.2688,-27.1752 641.6981,-25.525 644.2406,-24.0326"/>
<polygon fill="#191970" stroke="#191970" points="645.8635,-27.1344 653.2537,-19.5426 642.7422,-20.8688 645.8635,-27.1344"/>
</g>
<!-- Node3720&#45;&gt;Node2856 -->
<g id="edge29" class="edge">
<title>Node3720&#45;&gt;Node2856</title>
<path fill="none" stroke="#191970" d="M745.9822,-240.411C766.6249,-235.2672 792.2085,-228.8923 813.9076,-223.4853"/>
<polygon fill="#191970" stroke="#191970" points="815.0328,-226.812 823.8898,-220.9979 813.3402,-220.0197 815.0328,-226.812"/>
</g>
<!-- Node3721&#45;&gt;Node2856 -->
<g id="edge31" class="edge">
<title>Node3721&#45;&gt;Node2856</title>
<path fill="none" stroke="#191970" d="M756.5914,-182.1641C776.0764,-187.786 798.283,-194.1931 817.11,-199.6252"/>
<polygon fill="#191970" stroke="#191970" points="816.3197,-203.0399 826.898,-202.4493 818.2602,-196.3142 816.3197,-203.0399"/>
</g>
</g>
</svg>
