<?xml version="1.0" encoding="UTF-8" standalone="no"?>
<!DOCTYPE svg PUBLIC "-//W3C//DTD SVG 1.1//EN"
 "http://www.w3.org/Graphics/SVG/1.1/DTD/svg11.dtd">
<!-- Generated by graphviz version 2.40.1 (20161225.0304)
 -->
<!-- Title: _module_instance_free Pages: 1 -->
<svg width="860pt" height="218pt"
 viewBox="0.00 0.00 860.00 218.00" xmlns="http://www.w3.org/2000/svg" xmlns:xlink="http://www.w3.org/1999/xlink">
<g id="graph0" class="graph" transform="scale(1 1) rotate(0) translate(4 214)">
<title>_module_instance_free</title>
<!-- Node0 -->
<g id="node1" class="node">
<title>Node0</title>
<polygon fill="#bfbfbf" stroke="#000000" points="0,-130.5 0,-149.5 117,-149.5 117,-130.5 0,-130.5"/>
<text text-anchor="middle" x="58.5" y="-137.5" font-family="Helvetica,sans-Serif" font-size="10.00" fill="#000000">_module_instance_free</text>
</g>
<!-- Node1 -->
<g id="node2" class="node">
<title>Node1</title>
<g id="a_node2"><a xlink:href="rbtree_8c.html#a590147ec2ecdd6434a58eeff49e201a4" target="_top" xlink:title="Delete a node from the tree, based on given data, which MUST have come from rbtree_finddata(). ">
<polygon fill="none" stroke="#000000" points="318.5,-190.5 318.5,-209.5 420.5,-209.5 420.5,-190.5 318.5,-190.5"/>
<text text-anchor="middle" x="369.5" y="-197.5" font-family="Helvetica,sans-Serif" font-size="10.00" fill="#000000">rbtree_deletebydata</text>
</a>
</g>
</g>
<!-- Node0&#45;&gt;Node1 -->
<g id="edge1" class="edge">
<title>Node0&#45;&gt;Node1</title>
<path fill="none" stroke="#191970" d="M76.0079,-149.6426C94.5344,-159.3497 124.9177,-173.8759 153,-181 204.2955,-194.0129 264.37,-198.4701 308.2068,-199.8405"/>
<polygon fill="#191970" stroke="#191970" points="308.3339,-203.345 318.4238,-200.1133 308.5209,-196.3475 308.3339,-203.345"/>
</g>
<!-- Node9 -->
<g id="node8" class="node">
<title>Node9</title>
<g id="a_node8"><a xlink:href="xlat_8h.html#a8a733f13790efdab80e73984551e5458" target="_top" xlink:title="Unregister an xlat function. ">
<polygon fill="none" stroke="#000000" points="171.5,-152.5 171.5,-171.5 251.5,-171.5 251.5,-152.5 171.5,-152.5"/>
<text text-anchor="middle" x="211.5" y="-159.5" font-family="Helvetica,sans-Serif" font-size="10.00" fill="#000000">xlat_unregister</text>
</a>
</g>
</g>
<!-- Node0&#45;&gt;Node9 -->
<g id="edge7" class="edge">
<title>Node0&#45;&gt;Node9</title>
<path fill="none" stroke="#191970" d="M117.2162,-148.4429C131.728,-150.5295 147.1436,-152.7461 161.2135,-154.7693"/>
<polygon fill="#191970" stroke="#191970" points="160.7921,-158.2446 171.1885,-156.2036 161.7885,-151.3159 160.7921,-158.2446"/>
</g>
<!-- Node11 -->
<g id="node10" class="node">
<title>Node11</title>
<g id="a_node10"><a xlink:href="paircmp_8c.html#afd908e3eeb7581dadac4d617f0e04d81" target="_top" xlink:title="Unregister comparison function for a module. ">
<polygon fill="none" stroke="#000000" points="162,-103 162,-133 261,-133 261,-103 162,-103"/>
<text text-anchor="start" x="170" y="-121" font-family="Helvetica,sans-Serif" font-size="10.00" fill="#000000">paircmp_unregister</text>
<text text-anchor="middle" x="211.5" y="-110" font-family="Helvetica,sans-Serif" font-size="10.00" fill="#000000">_instance</text>
</a>
</g>
</g>
<!-- Node0&#45;&gt;Node11 -->
<g id="edge10" class="edge">
<title>Node0&#45;&gt;Node11</title>
<path fill="none" stroke="#191970" d="M117.2162,-131.5571C128.4427,-129.9429 140.2101,-128.2508 151.477,-126.6308"/>
<polygon fill="#191970" stroke="#191970" points="152.2534,-130.0552 161.6535,-125.1675 151.2571,-123.1265 152.2534,-130.0552"/>
</g>
<!-- Node12 -->
<g id="node11" class="node">
<title>Node12</title>
<g id="a_node11"><a xlink:href="xlat_8h.html#ac037fbb5b727eb86e4e72636a3205ecb" target="_top" xlink:title="xlat_unregister_module">
<polygon fill="none" stroke="#000000" points="153,-64.5 153,-83.5 270,-83.5 270,-64.5 153,-64.5"/>
<text text-anchor="middle" x="211.5" y="-71.5" font-family="Helvetica,sans-Serif" font-size="10.00" fill="#000000">xlat_unregister_module</text>
</a>
</g>
</g>
<!-- Node0&#45;&gt;Node12 -->
<g id="edge11" class="edge">
<title>Node0&#45;&gt;Node12</title>
<path fill="none" stroke="#191970" d="M76.6627,-130.3253C95.467,-120.508 125.8423,-105.2019 153,-94 158.9256,-91.5558 165.27,-89.1637 171.5154,-86.9322"/>
<polygon fill="#191970" stroke="#191970" points="172.8781,-90.164 181.1736,-83.5736 170.5788,-83.5523 172.8781,-90.164"/>
</g>
<!-- Node2 -->
<g id="node3" class="node">
<title>Node2</title>
<g id="a_node3"><a xlink:href="rbtree_8c.html#a42e213e269dd59ffb2e993bbd25e4336" target="_top" xlink:title="rbtree_find">
<polygon fill="none" stroke="#000000" points="495,-152.5 495,-171.5 557,-171.5 557,-152.5 495,-152.5"/>
<text text-anchor="middle" x="526" y="-159.5" font-family="Helvetica,sans-Serif" font-size="10.00" fill="#000000">rbtree_find</text>
</a>
</g>
</g>
<!-- Node1&#45;&gt;Node2 -->
<g id="edge2" class="edge">
<title>Node1&#45;&gt;Node2</title>
<path fill="none" stroke="#191970" d="M408.9916,-190.411C432.1817,-184.7802 461.4478,-177.674 484.9094,-171.9773"/>
<polygon fill="#191970" stroke="#191970" points="486.0135,-175.311 494.9052,-169.5502 484.3617,-168.5086 486.0135,-175.311"/>
</g>
<!-- Node3 -->
<g id="node4" class="node">
<title>Node3</title>
<g id="a_node4"><a xlink:href="rbtree_8c.html#a78c07808d0a90337099b2967a774cb74" target="_top" xlink:title="rbtree_delete">
<polygon fill="none" stroke="#000000" points="489.5,-190.5 489.5,-209.5 562.5,-209.5 562.5,-190.5 489.5,-190.5"/>
<text text-anchor="middle" x="526" y="-197.5" font-family="Helvetica,sans-Serif" font-size="10.00" fill="#000000">rbtree_delete</text>
</a>
</g>
</g>
<!-- Node1&#45;&gt;Node3 -->
<g id="edge3" class="edge">
<title>Node1&#45;&gt;Node3</title>
<path fill="none" stroke="#191970" d="M420.744,-200C439.4608,-200 460.5273,-200 478.8688,-200"/>
<polygon fill="#191970" stroke="#191970" points="479.0294,-203.5001 489.0294,-200 479.0294,-196.5001 479.0294,-203.5001"/>
</g>
<!-- Node4 -->
<g id="node5" class="node">
<title>Node4</title>
<g id="a_node5"><a xlink:href="rbtree_8c.html#abbf4f6305953449df974e13b55baa1ba" target="_top" xlink:title="Delete an element (z) from the tree. ">
<polygon fill="none" stroke="#000000" points="619,-95.5 619,-114.5 729,-114.5 729,-95.5 619,-95.5"/>
<text text-anchor="middle" x="674" y="-102.5" font-family="Helvetica,sans-Serif" font-size="10.00" fill="#000000">rbtree_delete_internal</text>
</a>
</g>
</g>
<!-- Node3&#45;&gt;Node4 -->
<g id="edge4" class="edge">
<title>Node3&#45;&gt;Node4</title>
<path fill="none" stroke="#191970" d="M561.5438,-190.4401C568.8574,-187.848 576.3498,-184.7093 583,-181 611.8888,-164.8868 640.3679,-139.0546 657.5676,-122.0552"/>
<polygon fill="#191970" stroke="#191970" points="660.5022,-124.0665 665.0574,-114.5009 655.5312,-119.138 660.5022,-124.0665"/>
</g>
<!-- Node5 -->
<g id="node6" class="node">
<title>Node5</title>
<g id="a_node6"><a xlink:href="rbtree_8c.html#afd9a91b95838a37b587f388299138de9" target="_top" xlink:title="rbtree_free_data">
<polygon fill="none" stroke="#000000" points="765,-114.5 765,-133.5 852,-133.5 852,-114.5 765,-114.5"/>
<text text-anchor="middle" x="808.5" y="-121.5" font-family="Helvetica,sans-Serif" font-size="10.00" fill="#000000">rbtree_free_data</text>
</a>
</g>
</g>
<!-- Node4&#45;&gt;Node5 -->
<g id="edge5" class="edge">
<title>Node4&#45;&gt;Node5</title>
<path fill="none" stroke="#191970" d="M729.0944,-112.7828C737.5529,-113.9777 746.2768,-115.2101 754.7066,-116.4009"/>
<polygon fill="#191970" stroke="#191970" points="754.4143,-119.8943 764.8056,-117.8276 755.3935,-112.9631 754.4143,-119.8943"/>
</g>
<!-- Node6 -->
<g id="node7" class="node">
<title>Node6</title>
<g id="a_node7"><a xlink:href="rbtree_8c.html#af51789095c4c57a970c41f5ab07c044c" target="_top" xlink:title="Maintain RED&#45;BLACK tree balance after deleting node x. ">
<polygon fill="none" stroke="#ff0000" points="774,-76.5 774,-95.5 843,-95.5 843,-76.5 774,-76.5"/>
<text text-anchor="middle" x="808.5" y="-83.5" font-family="Helvetica,sans-Serif" font-size="10.00" fill="#000000">delete_fixup</text>
</a>
</g>
</g>
<!-- Node4&#45;&gt;Node6 -->
<g id="edge6" class="edge">
<title>Node4&#45;&gt;Node6</title>
<path fill="none" stroke="#191970" d="M729.0944,-97.2172C740.6475,-95.5851 752.6957,-93.8831 763.8133,-92.3126"/>
<polygon fill="#191970" stroke="#191970" points="764.3087,-95.7775 773.7208,-90.913 763.3295,-88.8463 764.3087,-95.7775"/>
</g>
<!-- Node10 -->
<g id="node9" class="node">
<title>Node10</title>
<g id="a_node9"><a xlink:href="rbtree_8c.html#ac6772a18f3e04b23f71ad7994c7587ed" target="_top" xlink:title="Find an element in the tree, returning the data, not the node. ">
<polygon fill="none" stroke="#000000" points="329,-152.5 329,-171.5 410,-171.5 410,-152.5 329,-152.5"/>
<text text-anchor="middle" x="369.5" y="-159.5" font-family="Helvetica,sans-Serif" font-size="10.00" fill="#000000">rbtree_finddata</text>
</a>
</g>
</g>
<!-- Node9&#45;&gt;Node10 -->
<g id="edge8" class="edge">
<title>Node9&#45;&gt;Node10</title>
<path fill="none" stroke="#191970" d="M251.7789,-162C272.1425,-162 297.0663,-162 318.7293,-162"/>
<polygon fill="#191970" stroke="#191970" points="318.7453,-165.5001 328.7453,-162 318.7453,-158.5001 318.7453,-165.5001"/>
</g>
<!-- Node10&#45;&gt;Node2 -->
<g id="edge9" class="edge">
<title>Node10&#45;&gt;Node2</title>
<path fill="none" stroke="#191970" d="M410.21,-162C433.1432,-162 461.7143,-162 484.7372,-162"/>
<polygon fill="#191970" stroke="#191970" points="484.8848,-165.5001 494.8847,-162 484.8847,-158.5001 484.8848,-165.5001"/>
</g>
<!-- Node13 -->
<g id="node12" class="node">
<title>Node13</title>
<g id="a_node12"><a xlink:href="rbtree_8c.html#a3152a4d0a82814f872f93d5ce1a5186c" target="_top" xlink:title="rbtree_walk">
<polygon fill="none" stroke="#000000" points="336,-70.5 336,-89.5 403,-89.5 403,-70.5 336,-70.5"/>
<text text-anchor="middle" x="369.5" y="-77.5" font-family="Helvetica,sans-Serif" font-size="10.00" fill="#000000">rbtree_walk</text>
</a>
</g>
</g>
<!-- Node12&#45;&gt;Node13 -->
<g id="edge12" class="edge">
<title>Node12&#45;&gt;Node13</title>
<path fill="none" stroke="#191970" d="M270.3334,-76.2342C288.6431,-76.9295 308.5017,-77.6836 325.6048,-78.3331"/>
<polygon fill="#191970" stroke="#191970" points="325.7337,-81.8404 335.8593,-78.7225 325.9994,-74.8455 325.7337,-81.8404"/>
</g>
<!-- Node18 -->
<g id="node17" class="node">
<title>Node18</title>
<g id="a_node17"><a xlink:href="xlat__builtin_8c.html#a91c56dfc21655c89c1356483e1341a8f" target="_top" xlink:title="_xlat_unregister_callback">
<polygon fill="none" stroke="#000000" points="306,-32.5 306,-51.5 433,-51.5 433,-32.5 306,-32.5"/>
<text text-anchor="middle" x="369.5" y="-39.5" font-family="Helvetica,sans-Serif" font-size="10.00" fill="#000000">_xlat_unregister_callback</text>
</a>
</g>
</g>
<!-- Node12&#45;&gt;Node18 -->
<g id="edge18" class="edge">
<title>Node12&#45;&gt;Node18</title>
<path fill="none" stroke="#191970" d="M258.4774,-64.4856C275.3585,-61.0666 294.5879,-57.1721 312.2455,-53.5958"/>
<polygon fill="#191970" stroke="#191970" points="313.3245,-56.9485 322.4308,-51.533 311.935,-50.0878 313.3245,-56.9485"/>
</g>
<!-- Node14 -->
<g id="node13" class="node">
<title>Node14</title>
<g id="a_node13"><a xlink:href="rbtree_8c.html#a53c88bd1822067994ece42365515c79c" target="_top" xlink:title="Walk the tree, Pre&#45;order. ">
<polygon fill="none" stroke="#000000" points="471.5,-114.5 471.5,-133.5 580.5,-133.5 580.5,-114.5 471.5,-114.5"/>
<text text-anchor="middle" x="526" y="-121.5" font-family="Helvetica,sans-Serif" font-size="10.00" fill="#000000">walk_node_pre_order</text>
</a>
</g>
</g>
<!-- Node13&#45;&gt;Node14 -->
<g id="edge13" class="edge">
<title>Node13&#45;&gt;Node14</title>
<path fill="none" stroke="#191970" d="M403.0732,-89.4391C426.2256,-95.9484 457.2253,-104.664 482.3016,-111.7142"/>
<polygon fill="#191970" stroke="#191970" points="481.3683,-115.0874 491.9423,-114.4247 483.2629,-108.3487 481.3683,-115.0874"/>
</g>
<!-- Node15 -->
<g id="node14" class="node">
<title>Node15</title>
<g id="a_node14"><a xlink:href="rbtree_8c.html#a0b811b62adbe2fb22bf70cc36ad57671" target="_top" xlink:title="rbtree_in_order ">
<polygon fill="none" stroke="#000000" points="474.5,-76.5 474.5,-95.5 577.5,-95.5 577.5,-76.5 474.5,-76.5"/>
<text text-anchor="middle" x="526" y="-83.5" font-family="Helvetica,sans-Serif" font-size="10.00" fill="#000000">walk_node_in_order</text>
</a>
</g>
</g>
<!-- Node13&#45;&gt;Node15 -->
<g id="edge14" class="edge">
<title>Node13&#45;&gt;Node15</title>
<path fill="none" stroke="#191970" d="M403.0732,-81.2872C420.9027,-81.9707 443.386,-82.8327 464.234,-83.632"/>
<polygon fill="#191970" stroke="#191970" points="464.1828,-87.1325 474.3096,-84.0183 464.4511,-80.1376 464.1828,-87.1325"/>
</g>
<!-- Node16 -->
<g id="node15" class="node">
<title>Node16</title>
<g id="a_node15"><a xlink:href="rbtree_8c.html#af49802c2feef6ee7d874a06df2ad61d8" target="_top" xlink:title="rbtree_post_order ">
<polygon fill="none" stroke="#000000" points="469,-38.5 469,-57.5 583,-57.5 583,-38.5 469,-38.5"/>
<text text-anchor="middle" x="526" y="-45.5" font-family="Helvetica,sans-Serif" font-size="10.00" fill="#000000">walk_node_post_order</text>
</a>
</g>
</g>
<!-- Node13&#45;&gt;Node16 -->
<g id="edge15" class="edge">
<title>Node13&#45;&gt;Node16</title>
<path fill="none" stroke="#191970" d="M403.0732,-73.1352C422.3888,-69.1857 447.1665,-64.1193 469.4096,-59.5712"/>
<polygon fill="#191970" stroke="#191970" points="470.3262,-62.9563 479.4223,-57.5239 468.9238,-56.0982 470.3262,-62.9563"/>
</g>
<!-- Node17 -->
<g id="node16" class="node">
<title>Node17</title>
<g id="a_node16"><a xlink:href="rbtree_8c.html#a6bb9d93ba4f73f34a3122669e0e1e17c" target="_top" xlink:title="rbtree_delete_order ">
<polygon fill="none" stroke="#000000" points="478.5,-.5 478.5,-19.5 573.5,-19.5 573.5,-.5 478.5,-.5"/>
<text text-anchor="middle" x="526" y="-7.5" font-family="Helvetica,sans-Serif" font-size="10.00" fill="#000000">walk_delete_order</text>
</a>
</g>
</g>
<!-- Node13&#45;&gt;Node17 -->
<g id="edge16" class="edge">
<title>Node13&#45;&gt;Node17</title>
<path fill="none" stroke="#191970" d="M403.2352,-72.8515C413.1869,-69.975 423.8543,-66.1 433,-61 451.6968,-50.574 450.4672,-39.7147 469,-29 472.6574,-26.8855 476.5841,-24.9645 480.6035,-23.2287"/>
<polygon fill="#191970" stroke="#191970" points="482.0393,-26.4251 490.0669,-19.5108 479.4796,-19.9099 482.0393,-26.4251"/>
</g>
<!-- Node17&#45;&gt;Node4 -->
<g id="edge17" class="edge">
<title>Node17&#45;&gt;Node4</title>
<path fill="none" stroke="#191970" d="M561.5438,-19.5599C568.8574,-22.152 576.3498,-25.2907 583,-29 611.8888,-45.1132 640.3679,-70.9454 657.5676,-87.9448"/>
<polygon fill="#191970" stroke="#191970" points="655.5312,-90.862 665.0574,-95.4991 660.5022,-85.9335 655.5312,-90.862"/>
</g>
</g>
</svg>
