<?xml version="1.0" encoding="UTF-8" standalone="no"?>
<!DOCTYPE svg PUBLIC "-//W3C//DTD SVG 1.1//EN"
 "http://www.w3.org/Graphics/SVG/1.1/DTD/svg11.dtd">
<!-- Generated by graphviz version 2.40.1 (20161225.0304)
 -->
<!-- Title: fr_proto_stack_t Pages: 1 -->
<svg width="144pt" height="320pt"
 viewBox="0.00 0.00 143.50 320.00" xmlns="http://www.w3.org/2000/svg" xmlns:xlink="http://www.w3.org/1999/xlink">
<g id="graph0" class="graph" transform="scale(1 1) rotate(0) translate(4 316)">
<title>fr_proto_stack_t</title>
<!-- Node38 -->
<g id="node1" class="node">
<title>Node38</title>
<polygon fill="#bfbfbf" stroke="#000000" points="15,-.5 15,-19.5 102,-19.5 102,-.5 15,-.5"/>
<text text-anchor="middle" x="58.5" y="-7.5" font-family="Helvetica,sans-Serif" font-size="10.00" fill="#000000">fr_proto_stack_t</text>
</g>
<!-- Node39 -->
<g id="node2" class="node">
<title>Node39</title>
<g id="a_node2"><a xlink:href="io_2proto_8h.html#structfr__proto__stack__frame__t" target="_top" xlink:title="A protocol transcoder stack frame. ">
<polygon fill="none" stroke="#000000" points="0,-67.5 0,-86.5 117,-86.5 117,-67.5 0,-67.5"/>
<text text-anchor="middle" x="58.5" y="-74.5" font-family="Helvetica,sans-Serif" font-size="10.00" fill="#000000">fr_proto_stack_frame_t</text>
</a>
</g>
</g>
<!-- Node39&#45;&gt;Node38 -->
<g id="edge1" class="edge">
<title>Node39&#45;&gt;Node38</title>
<path fill="none" stroke="#9a32cd" stroke-dasharray="5,2" d="M58.5,-57.1079C58.5,-44.714 58.5,-29.3263 58.5,-19.5817"/>
<polygon fill="#9a32cd" stroke="#9a32cd" points="55.0001,-57.4005 58.5,-67.4005 62.0001,-57.4006 55.0001,-57.4005"/>
<text text-anchor="middle" x="72.5" y="-41" font-family="Helvetica,sans-Serif" font-size="10.00" fill="#000000"> frame</text>
</g>
<!-- Node40 -->
<g id="node3" class="node">
<title>Node40</title>
<g id="a_node3"><a xlink:href="io_2proto_8h.html#structfr__proto__lib__t" target="_top" xlink:title="The public structure exported by protocol encoding/decoding libraries. ">
<polygon fill="none" stroke="#000000" points="22,-134.5 22,-153.5 95,-153.5 95,-134.5 22,-134.5"/>
<text text-anchor="middle" x="58.5" y="-141.5" font-family="Helvetica,sans-Serif" font-size="10.00" fill="#000000">fr_proto_lib_t</text>
</a>
</g>
</g>
<!-- Node40&#45;&gt;Node39 -->
<g id="edge2" class="edge">
<title>Node40&#45;&gt;Node39</title>
<path fill="none" stroke="#9a32cd" stroke-dasharray="5,2" d="M58.5,-124.1079C58.5,-111.714 58.5,-96.3263 58.5,-86.5817"/>
<polygon fill="#9a32cd" stroke="#9a32cd" points="55.0001,-124.4005 58.5,-134.4005 62.0001,-124.4006 55.0001,-124.4005"/>
<text text-anchor="middle" x="71" y="-108" font-family="Helvetica,sans-Serif" font-size="10.00" fill="#000000"> proto</text>
</g>
<!-- Node41 -->
<g id="node4" class="node">
<title>Node41</title>
<g id="a_node4"><a xlink:href="value_8h.html#structvalue__box__s" target="_top" xlink:title="Union containing all data types supported by the server. ">
<polygon fill="none" stroke="#000000" points="23,-212.5 23,-231.5 94,-231.5 94,-212.5 23,-212.5"/>
<text text-anchor="middle" x="58.5" y="-219.5" font-family="Helvetica,sans-Serif" font-size="10.00" fill="#000000">value_box_s</text>
</a>
</g>
</g>
<!-- Node41&#45;&gt;Node40 -->
<g id="edge3" class="edge">
<title>Node41&#45;&gt;Node40</title>
<path fill="none" stroke="#9a32cd" stroke-dasharray="5,2" d="M58.5,-202.2866C58.5,-186.7395 58.5,-165.7276 58.5,-153.6426"/>
<polygon fill="#9a32cd" stroke="#9a32cd" points="55.0001,-202.4356 58.5,-212.4357 62.0001,-202.4357 55.0001,-202.4356"/>
<text text-anchor="middle" x="83" y="-186" font-family="Helvetica,sans-Serif" font-size="10.00" fill="#000000"> set_option</text>
<text text-anchor="middle" x="83" y="-175" font-family="Helvetica,sans-Serif" font-size="10.00" fill="#000000">get_option</text>
</g>
<!-- Node41&#45;&gt;Node41 -->
<g id="edge4" class="edge">
<title>Node41&#45;&gt;Node41</title>
<path fill="none" stroke="#9a32cd" stroke-dasharray="5,2" d="M104.2805,-226.9469C108.9895,-225.9732 112,-224.3242 112,-222 112,-218.2813 104.2932,-216.2911 94.2532,-216.0297"/>
<polygon fill="#9a32cd" stroke="#9a32cd" points="103.8461,-223.473 94.2532,-227.9703 104.5569,-230.4368 103.8461,-223.473"/>
<text text-anchor="middle" x="123" y="-219.5" font-family="Helvetica,sans-Serif" font-size="10.00" fill="#000000"> next</text>
</g>
<!-- Node42 -->
<g id="node5" class="node">
<title>Node42</title>
<g id="a_node5"><a xlink:href="dict_8h.html#structdict__attr__s" target="_top" xlink:title="Dictionary attribute. ">
<polygon fill="none" stroke="#ff0000" points="27.5,-286 27.5,-305 89.5,-305 89.5,-286 27.5,-286"/>
<text text-anchor="middle" x="58.5" y="-293" font-family="Helvetica,sans-Serif" font-size="10.00" fill="#000000">dict_attr_s</text>
</a>
</g>
</g>
<!-- Node42&#45;&gt;Node41 -->
<g id="edge5" class="edge">
<title>Node42&#45;&gt;Node41</title>
<path fill="none" stroke="#9a32cd" stroke-dasharray="5,2" d="M58.5,-275.6616C58.5,-261.481 58.5,-243.004 58.5,-231.8458"/>
<polygon fill="#9a32cd" stroke="#9a32cd" points="55.0001,-275.8911 58.5,-285.8912 62.0001,-275.8912 55.0001,-275.8911"/>
<text text-anchor="middle" x="75" y="-253" font-family="Helvetica,sans-Serif" font-size="10.00" fill="#000000"> enumv</text>
</g>
<!-- Node42&#45;&gt;Node42 -->
<g id="edge6" class="edge">
<title>Node42&#45;&gt;Node42</title>
<path fill="none" stroke="#9a32cd" stroke-dasharray="5,2" d="M99.6528,-301.8897C104.4088,-300.7061 107.5,-298.5762 107.5,-295.5 107.5,-290.5781 99.5865,-288.0787 89.602,-288.0018"/>
<polygon fill="#9a32cd" stroke="#9a32cd" points="99.158,-298.4229 89.602,-302.9982 99.9254,-305.3807 99.158,-298.4229"/>
<text text-anchor="middle" x="121.5" y="-304" font-family="Helvetica,sans-Serif" font-size="10.00" fill="#000000"> next</text>
<text text-anchor="middle" x="121.5" y="-293" font-family="Helvetica,sans-Serif" font-size="10.00" fill="#000000">fixup</text>
<text text-anchor="middle" x="121.5" y="-282" font-family="Helvetica,sans-Serif" font-size="10.00" fill="#000000">parent</text>
</g>
</g>
</svg>
