<?xml version="1.0" encoding="UTF-8" standalone="no"?>
<!DOCTYPE svg PUBLIC "-//W3C//DTD SVG 1.1//EN"
 "http://www.w3.org/Graphics/SVG/1.1/DTD/svg11.dtd">
<!-- Generated by graphviz version 2.40.1 (20161225.0304)
 -->
<!-- Title: rlm_isc_dhcp_tokenizer_t Pages: 1 -->
<svg width="647pt" height="288pt"
 viewBox="0.00 0.00 647.00 288.00" xmlns="http://www.w3.org/2000/svg" xmlns:xlink="http://www.w3.org/1999/xlink">
<g id="graph0" class="graph" transform="scale(1 1) rotate(0) translate(4 284)">
<title>rlm_isc_dhcp_tokenizer_t</title>
<!-- Node118 -->
<g id="node1" class="node">
<title>Node118</title>
<polygon fill="#bfbfbf" stroke="#000000" points="0,-254 0,-273 128,-273 128,-254 0,-254"/>
<text text-anchor="middle" x="64" y="-261" font-family="Helvetica,sans-Serif" font-size="10.00" fill="#000000">rlm_isc_dhcp_tokenizer_t</text>
</g>
<!-- Node137 -->
<g id="node8" class="node">
<title>Node137</title>
<g id="a_node8"><a xlink:href="rlm__isc__dhcp_8c.html#structrlm__isc__dhcp__cmd__t" target="_top" xlink:title="Describes the commands that we accept, including it&#39;s syntax (i.e. ">
<polygon fill="none" stroke="#000000" points="24.5,-169.5 24.5,-188.5 131.5,-188.5 131.5,-169.5 24.5,-169.5"/>
<text text-anchor="middle" x="78" y="-176.5" font-family="Helvetica,sans-Serif" font-size="10.00" fill="#000000">rlm_isc_dhcp_cmd_t</text>
</a>
</g>
</g>
<!-- Node118&#45;&gt;Node137 -->
<g id="edge13" class="edge">
<title>Node118&#45;&gt;Node137</title>
<path fill="none" stroke="#9a32cd" stroke-dasharray="5,2" d="M67.2934,-243.6221C70.1656,-226.2864 74.2078,-201.8886 76.4128,-188.5802"/>
<polygon fill="#9a32cd" stroke="#9a32cd" points="63.7877,-243.3692 65.606,-253.8068 70.6935,-244.5134 63.7877,-243.3692"/>
<text text-anchor="middle" x="88" y="-215.5" font-family="Helvetica,sans-Serif" font-size="10.00" fill="#000000"> parse</text>
</g>
<!-- Node119 -->
<g id="node2" class="node">
<title>Node119</title>
<g id="a_node2"><a xlink:href="rlm__isc__dhcp_8c.html#structrlm__isc__dhcp__t" target="_top" xlink:title="rlm_isc_dhcp_t">
<polygon fill="none" stroke="#000000" points="125.5,-.5 125.5,-19.5 208.5,-19.5 208.5,-.5 125.5,-.5"/>
<text text-anchor="middle" x="167" y="-7.5" font-family="Helvetica,sans-Serif" font-size="10.00" fill="#000000">rlm_isc_dhcp_t</text>
</a>
</g>
</g>
<!-- Node119&#45;&gt;Node118 -->
<g id="edge1" class="edge">
<title>Node119&#45;&gt;Node118</title>
<path fill="none" stroke="#9a32cd" stroke-dasharray="5,2" d="M143.5609,-25.396C107.7906,-50.4755 40.995,-103.9432 15,-169 2.1084,-201.2633 34.5774,-237.1044 52.7361,-253.8685"/>
<polygon fill="#9a32cd" stroke="#9a32cd" points="145.6796,-28.187 151.9429,-19.6418 141.7177,-22.416 145.6796,-28.187"/>
<text text-anchor="middle" x="45.5" y="-137.5" font-family="Helvetica,sans-Serif" font-size="10.00" fill="#000000"> inst</text>
</g>
<!-- Node119&#45;&gt;Node137 -->
<g id="edge12" class="edge">
<title>Node119&#45;&gt;Node137</title>
<path fill="none" stroke="#9a32cd" stroke-dasharray="5,2" d="M157.0578,-28.879C138.0753,-64.9244 97.2916,-142.3677 83.04,-169.4296"/>
<polygon fill="#9a32cd" stroke="#9a32cd" points="160.2307,-30.3653 161.7936,-19.8864 154.0371,-27.1036 160.2307,-30.3653"/>
<text text-anchor="middle" x="149.5" y="-86.5" font-family="Helvetica,sans-Serif" font-size="10.00" fill="#000000"> apply</text>
</g>
<!-- Node120 -->
<g id="node3" class="node">
<title>Node120</title>
<g id="a_node3"><a xlink:href="hash_8c.html#structfr__hash__table__s" target="_top" xlink:title="fr_hash_table_s">
<polygon fill="none" stroke="#000000" points="513,-169.5 513,-188.5 599,-188.5 599,-169.5 513,-169.5"/>
<text text-anchor="middle" x="556" y="-176.5" font-family="Helvetica,sans-Serif" font-size="10.00" fill="#000000">fr_hash_table_s</text>
</a>
</g>
</g>
<!-- Node120&#45;&gt;Node119 -->
<g id="edge2" class="edge">
<title>Node120&#45;&gt;Node119</title>
<path fill="none" stroke="#9a32cd" stroke-dasharray="5,2" d="M552.3314,-159.3158C549.4778,-149.0313 544.513,-136.9638 536,-129 442.3591,-41.3994 283.7502,-18.2774 208.7171,-12.1802"/>
<polygon fill="#9a32cd" stroke="#9a32cd" points="548.94,-160.1854 554.601,-169.1411 555.7604,-158.6099 548.94,-160.1854"/>
<text text-anchor="middle" x="550" y="-92" font-family="Helvetica,sans-Serif" font-size="10.00" fill="#000000"> hosts_by_ether</text>
<text text-anchor="middle" x="550" y="-81" font-family="Helvetica,sans-Serif" font-size="10.00" fill="#000000">hosts_by_uid</text>
</g>
<!-- Node122 -->
<g id="node5" class="node">
<title>Node122</title>
<g id="a_node5"><a xlink:href="rlm__isc__dhcp_8c.html#structrlm__isc__dhcp__info__s" target="_top" xlink:title="Holds information about the thing we parsed. ">
<polygon fill="none" stroke="#000000" points="184,-79.5 184,-98.5 290,-98.5 290,-79.5 184,-79.5"/>
<text text-anchor="middle" x="237" y="-86.5" font-family="Helvetica,sans-Serif" font-size="10.00" fill="#000000">rlm_isc_dhcp_info_s</text>
</a>
</g>
</g>
<!-- Node120&#45;&gt;Node122 -->
<g id="edge6" class="edge">
<title>Node120&#45;&gt;Node122</title>
<path fill="none" stroke="#9a32cd" stroke-dasharray="5,2" d="M512.8421,-166.4533C497.9073,-161.8794 481.1258,-156.4791 466,-151 442.0205,-142.3137 437.3005,-136.743 413,-129 372.2468,-116.0146 324.9153,-105.5047 289.607,-98.5222"/>
<polygon fill="#9a32cd" stroke="#9a32cd" points="512.2583,-169.9333 522.8434,-169.4787 514.2851,-163.2331 512.2583,-169.9333"/>
<text text-anchor="middle" x="501" y="-143" font-family="Helvetica,sans-Serif" font-size="10.00" fill="#000000"> hosts_by_ether</text>
<text text-anchor="middle" x="501" y="-132" font-family="Helvetica,sans-Serif" font-size="10.00" fill="#000000">hosts_by_uid</text>
</g>
<!-- Node121 -->
<g id="node4" class="node">
<title>Node121</title>
<g id="a_node4"><a xlink:href="hash_8c.html#structfr__hash__entry__s" target="_top" xlink:title="fr_hash_entry_s">
<polygon fill="none" stroke="#000000" points="513,-254 513,-273 599,-273 599,-254 513,-254"/>
<text text-anchor="middle" x="556" y="-261" font-family="Helvetica,sans-Serif" font-size="10.00" fill="#000000">fr_hash_entry_s</text>
</a>
</g>
</g>
<!-- Node121&#45;&gt;Node120 -->
<g id="edge3" class="edge">
<title>Node121&#45;&gt;Node120</title>
<path fill="none" stroke="#9a32cd" stroke-dasharray="5,2" d="M556,-243.6221C556,-226.2864 556,-201.8886 556,-188.5802"/>
<polygon fill="#9a32cd" stroke="#9a32cd" points="552.5001,-243.8067 556,-253.8068 559.5001,-243.8068 552.5001,-243.8067"/>
<text text-anchor="middle" x="573.5" y="-221" font-family="Helvetica,sans-Serif" font-size="10.00" fill="#000000"> null</text>
<text text-anchor="middle" x="573.5" y="-210" font-family="Helvetica,sans-Serif" font-size="10.00" fill="#000000">buckets</text>
</g>
<!-- Node121&#45;&gt;Node121 -->
<g id="edge4" class="edge">
<title>Node121&#45;&gt;Node121</title>
<path fill="none" stroke="#9a32cd" stroke-dasharray="5,2" d="M609.2545,-270.0194C614.0135,-268.6541 617,-266.481 617,-263.5 617,-258.7305 609.3545,-256.029 599.0361,-255.3955"/>
<polygon fill="#9a32cd" stroke="#9a32cd" points="608.3814,-266.6129 599.0361,-271.6045 609.4545,-273.5301 608.3814,-266.6129"/>
<text text-anchor="middle" x="628" y="-261" font-family="Helvetica,sans-Serif" font-size="10.00" fill="#000000"> next</text>
</g>
<!-- Node122&#45;&gt;Node119 -->
<g id="edge5" class="edge">
<title>Node122&#45;&gt;Node119</title>
<path fill="none" stroke="#9a32cd" stroke-dasharray="5,2" d="M221.6943,-71.7264C207.5801,-55.7975 187.1309,-32.7192 175.6536,-19.7662"/>
<polygon fill="#9a32cd" stroke="#9a32cd" points="219.1651,-74.1497 228.4166,-79.313 224.4043,-69.5073 219.1651,-74.1497"/>
<text text-anchor="middle" x="212.5" y="-41" font-family="Helvetica,sans-Serif" font-size="10.00" fill="#000000"> head</text>
</g>
<!-- Node122&#45;&gt;Node122 -->
<g id="edge19" class="edge">
<title>Node122&#45;&gt;Node122</title>
<path fill="none" stroke="#9a32cd" stroke-dasharray="5,2" d="M300.4305,-95.1307C305.122,-93.756 308,-91.7124 308,-89 308,-84.6602 300.6323,-82.0325 290.2572,-81.1171"/>
<polygon fill="#9a32cd" stroke="#9a32cd" points="299.518,-91.7363 290.2572,-96.8829 300.7062,-98.6347 299.518,-91.7363"/>
<text text-anchor="middle" x="322" y="-103" font-family="Helvetica,sans-Serif" font-size="10.00" fill="#000000"> next</text>
<text text-anchor="middle" x="322" y="-92" font-family="Helvetica,sans-Serif" font-size="10.00" fill="#000000">last</text>
<text text-anchor="middle" x="322" y="-81" font-family="Helvetica,sans-Serif" font-size="10.00" fill="#000000">child</text>
<text text-anchor="middle" x="322" y="-70" font-family="Helvetica,sans-Serif" font-size="10.00" fill="#000000">parent</text>
</g>
<!-- Node123 -->
<g id="node6" class="node">
<title>Node123</title>
<g id="a_node6"><a xlink:href="value_8h.html#structvalue__box__s" target="_top" xlink:title="Union containing all data types supported by the server. ">
<polygon fill="none" stroke="#000000" points="278.5,-169.5 278.5,-188.5 349.5,-188.5 349.5,-169.5 278.5,-169.5"/>
<text text-anchor="middle" x="314" y="-176.5" font-family="Helvetica,sans-Serif" font-size="10.00" fill="#000000">value_box_s</text>
</a>
</g>
</g>
<!-- Node123&#45;&gt;Node122 -->
<g id="edge7" class="edge">
<title>Node123&#45;&gt;Node122</title>
<path fill="none" stroke="#9a32cd" stroke-dasharray="5,2" d="M299.0753,-161.5556C282.9958,-142.7613 257.9956,-113.5404 245.1811,-98.5623"/>
<polygon fill="#9a32cd" stroke="#9a32cd" points="296.5992,-164.0452 305.7597,-169.3684 301.9182,-159.4945 296.5992,-164.0452"/>
<text text-anchor="middle" x="301" y="-137.5" font-family="Helvetica,sans-Serif" font-size="10.00" fill="#000000"> argv</text>
</g>
<!-- Node123&#45;&gt;Node123 -->
<g id="edge8" class="edge">
<title>Node123&#45;&gt;Node123</title>
<path fill="none" stroke="#9a32cd" stroke-dasharray="5,2" d="M359.7805,-184.8745C364.4895,-183.7182 367.5,-181.76 367.5,-179 367.5,-174.584 359.7932,-172.2207 349.7532,-171.9102"/>
<polygon fill="#9a32cd" stroke="#9a32cd" points="359.2594,-181.4119 349.7532,-186.0898 360.1017,-188.3611 359.2594,-181.4119"/>
<text text-anchor="middle" x="378.5" y="-176.5" font-family="Helvetica,sans-Serif" font-size="10.00" fill="#000000"> next</text>
</g>
<!-- Node124 -->
<g id="node7" class="node">
<title>Node124</title>
<g id="a_node7"><a xlink:href="dict_8h.html#structdict__attr__s" target="_top" xlink:title="Dictionary attribute. ">
<polygon fill="none" stroke="#ff0000" points="184,-254 184,-273 246,-273 246,-254 184,-254"/>
<text text-anchor="middle" x="215" y="-261" font-family="Helvetica,sans-Serif" font-size="10.00" fill="#000000">dict_attr_s</text>
</a>
</g>
</g>
<!-- Node124&#45;&gt;Node123 -->
<g id="edge9" class="edge">
<title>Node124&#45;&gt;Node123</title>
<path fill="none" stroke="#9a32cd" stroke-dasharray="5,2" d="M234.0711,-247.2222C254.4496,-229.8283 286.0701,-202.8392 302.7759,-188.5802"/>
<polygon fill="#9a32cd" stroke="#9a32cd" points="231.6904,-244.6525 226.3566,-253.8068 236.2349,-249.9768 231.6904,-244.6525"/>
<text text-anchor="middle" x="296.5" y="-215.5" font-family="Helvetica,sans-Serif" font-size="10.00" fill="#000000"> enumv</text>
</g>
<!-- Node124&#45;&gt;Node124 -->
<g id="edge10" class="edge">
<title>Node124&#45;&gt;Node124</title>
<path fill="none" stroke="#9a32cd" stroke-dasharray="5,2" d="M256.1528,-270.5286C260.9088,-269.2267 264,-266.8838 264,-263.5 264,-258.0859 256.0865,-255.3366 246.102,-255.252"/>
<polygon fill="#9a32cd" stroke="#9a32cd" points="255.6077,-267.069 246.102,-271.748 256.4508,-274.0181 255.6077,-267.069"/>
<text text-anchor="middle" x="278" y="-272" font-family="Helvetica,sans-Serif" font-size="10.00" fill="#000000"> next</text>
<text text-anchor="middle" x="278" y="-261" font-family="Helvetica,sans-Serif" font-size="10.00" fill="#000000">fixup</text>
<text text-anchor="middle" x="278" y="-250" font-family="Helvetica,sans-Serif" font-size="10.00" fill="#000000">parent</text>
</g>
<!-- Node138 -->
<g id="node9" class="node">
<title>Node138</title>
<g id="a_node9"><a xlink:href="util_2pair_8h.html#structvalue__pair__s" target="_top" xlink:title="Stores an attribute, a value and various bits of other data. ">
<polygon fill="none" stroke="#000000" points="149.5,-169.5 149.5,-188.5 220.5,-188.5 220.5,-169.5 149.5,-169.5"/>
<text text-anchor="middle" x="185" y="-176.5" font-family="Helvetica,sans-Serif" font-size="10.00" fill="#000000">value_pair_s</text>
</a>
</g>
</g>
<!-- Node124&#45;&gt;Node138 -->
<g id="edge16" class="edge">
<title>Node124&#45;&gt;Node138</title>
<path fill="none" stroke="#9a32cd" stroke-dasharray="5,2" d="M208.1179,-244.1154C201.9534,-226.7521 193.1711,-202.0153 188.4012,-188.5802"/>
<polygon fill="#9a32cd" stroke="#9a32cd" points="204.9146,-245.5541 211.5586,-253.8068 211.5112,-243.212 204.9146,-245.5541"/>
<text text-anchor="middle" x="210" y="-215.5" font-family="Helvetica,sans-Serif" font-size="10.00" fill="#000000"> da</text>
</g>
<!-- Node137&#45;&gt;Node122 -->
<g id="edge11" class="edge">
<title>Node137&#45;&gt;Node122</title>
<path fill="none" stroke="#9a32cd" stroke-dasharray="5,2" d="M104.0239,-164.2695C136.844,-145.6921 192.3342,-114.2825 220.1066,-98.5623"/>
<polygon fill="#9a32cd" stroke="#9a32cd" points="101.9943,-161.3965 95.0158,-169.3684 105.4425,-167.4883 101.9943,-161.3965"/>
<text text-anchor="middle" x="174" y="-137.5" font-family="Helvetica,sans-Serif" font-size="10.00" fill="#000000"> cmd</text>
</g>
<!-- Node138&#45;&gt;Node122 -->
<g id="edge14" class="edge">
<title>Node138&#45;&gt;Node122</title>
<path fill="none" stroke="#9a32cd" stroke-dasharray="5,2" d="M195.6718,-160.5296C206.5436,-141.7129 222.977,-113.2705 231.4751,-98.5623"/>
<polygon fill="#9a32cd" stroke="#9a32cd" points="192.5372,-158.9588 190.5649,-169.3684 198.5983,-162.4607 192.5372,-158.9588"/>
<text text-anchor="middle" x="230.5" y="-137.5" font-family="Helvetica,sans-Serif" font-size="10.00" fill="#000000"> options</text>
</g>
<!-- Node138&#45;&gt;Node138 -->
<g id="edge15" class="edge">
<title>Node138&#45;&gt;Node138</title>
<path fill="none" stroke="#9a32cd" stroke-dasharray="5,2" d="M230.7805,-184.8745C235.4895,-183.7182 238.5,-181.76 238.5,-179 238.5,-174.584 230.7932,-172.2207 220.7532,-171.9102"/>
<polygon fill="#9a32cd" stroke="#9a32cd" points="230.2594,-181.4119 220.7532,-186.0898 231.1017,-188.3611 230.2594,-181.4119"/>
<text text-anchor="middle" x="249.5" y="-176.5" font-family="Helvetica,sans-Serif" font-size="10.00" fill="#000000"> next</text>
</g>
<!-- Node139 -->
<g id="node10" class="node">
<title>Node139</title>
<g id="a_node10"><a xlink:href="trie_8c.html#structfr__trie__s" target="_top" xlink:title="fr_trie_s">
<polygon fill="none" stroke="#000000" points="408,-169.5 408,-188.5 460,-188.5 460,-169.5 408,-169.5"/>
<text text-anchor="middle" x="434" y="-176.5" font-family="Helvetica,sans-Serif" font-size="10.00" fill="#000000">fr_trie_s</text>
</a>
</g>
</g>
<!-- Node139&#45;&gt;Node122 -->
<g id="edge17" class="edge">
<title>Node139&#45;&gt;Node122</title>
<path fill="none" stroke="#9a32cd" stroke-dasharray="5,2" d="M403.5698,-165.0979C363.1659,-146.6392 292.8575,-114.5187 257.9309,-98.5623"/>
<polygon fill="#9a32cd" stroke="#9a32cd" points="402.3674,-168.3965 412.9175,-169.3684 405.2762,-162.0294 402.3674,-168.3965"/>
<text text-anchor="middle" x="390" y="-137.5" font-family="Helvetica,sans-Serif" font-size="10.00" fill="#000000"> subnets</text>
</g>
<!-- Node139&#45;&gt;Node139 -->
<g id="edge18" class="edge">
<title>Node139&#45;&gt;Node139</title>
<path fill="none" stroke="#9a32cd" stroke-dasharray="5,2" d="M470.4746,-185.191C475.0156,-184.0939 478,-182.0302 478,-179 478,-174.0273 469.9631,-171.6576 460.1994,-171.8907"/>
<polygon fill="#9a32cd" stroke="#9a32cd" points="469.8481,-181.733 460.1994,-186.1093 470.4713,-188.7052 469.8481,-181.733"/>
<text text-anchor="middle" x="486.5" y="-176.5" font-family="Helvetica,sans-Serif" font-size="10.00" fill="#000000"> trie</text>
</g>
</g>
</svg>
