<?xml version="1.0" encoding="UTF-8" standalone="no"?>
<!DOCTYPE svg PUBLIC "-//W3C//DTD SVG 1.1//EN"
 "http://www.w3.org/Graphics/SVG/1.1/DTD/svg11.dtd">
<!-- Generated by graphviz version 2.40.1 (20161225.0304)
 -->
<!-- Title: module_instance_s Pages: 1 -->
<!--zoomable 580 -->
<svg id="main" version="1.1" xmlns="http://www.w3.org/2000/svg" xmlns:xlink="http://www.w3.org/1999/xlink" xml:space="preserve" onload="init(evt)">
<style type="text/css"><![CDATA[
.edge:hover path { stroke: red; }
.edge:hover polygon { stroke: red; fill: red; }
]]></style>
<script type="text/javascript"><![CDATA[
var edges = document.getElementsByTagName('g');
if (edges && edges.length) {
  for (var i=0;i<edges.length;i++) {
    if (edges[i].id.substr(0,4)=='edge') {
      edges[i].setAttribute('class','edge');
    }
  }
}
]]></script>
        <defs>
                <circle id="rim" cx="0" cy="0" r="7"/>
                <circle id="rim2" cx="0" cy="0" r="3.5"/>
                <g id="zoomPlus">
                        <use xlink:href="#rim" fill="#404040">
                                <set attributeName="fill" to="#808080" begin="zoomplus.mouseover" end="zoomplus.mouseout"/>
                        </use>
                        <path d="M-4,0h8M0,-4v8" fill="none" stroke="white" stroke-width="1.5" pointer-events="none"/>
                </g>
                <g id="zoomMin">
                        <use xlink:href="#rim" fill="#404040">
                                <set attributeName="fill" to="#808080" begin="zoomminus.mouseover" end="zoomminus.mouseout"/>
                        </use>
                        <path d="M-4,0h8" fill="none" stroke="white" stroke-width="1.5" pointer-events="none"/>
                </g>
                <g id="dirArrow">
                        <path fill="none" stroke="white" stroke-width="1.5" d="M0,-3.0v7 M-2.5,-0.5L0,-3.0L2.5,-0.5"/>
                </g>
               <g id="resetDef">
                       <use xlink:href="#rim2" fill="#404040">
                               <set attributeName="fill" to="#808080" begin="reset.mouseover" end="reset.mouseout"/>
                       </use>
               </g>
        </defs>

<script type="text/javascript">
var viewWidth = 1061;
var viewHeight = 580;
var sectionId = 'dynsection-1';
</script>
<script xlink:href="svgpan.js"/>
<svg id="graph" class="graph">
<g id="viewport">
<title>module_instance_s</title>
<!-- Node3 -->
<g id="node1" class="node">
<title>Node3</title>
<polygon fill="#bfbfbf" stroke="#000000" points="952,-127.5 952,-146.5 1053,-146.5 1053,-127.5 952,-127.5"/>
<text text-anchor="middle" x="1002.5" y="-134.5" font-family="Helvetica,sans-Serif" font-size="10.00" fill="#000000">module_instance_s</text>
</g>
<!-- Node4 -->
<g id="node2" class="node">
<title>Node4</title>
<g id="a_node2"><a xlink:href="server_2module_8h.html#structmodule__s" target="_top" xlink:title="Struct exported by a rlm_* module. ">
<polygon fill="none" stroke="#000000" points="795,-165.5 795,-184.5 854,-184.5 854,-165.5 795,-165.5"/>
<text text-anchor="middle" x="824.5" y="-172.5" font-family="Helvetica,sans-Serif" font-size="10.00" fill="#000000">module_s</text>
</a>
</g>
</g>
<!-- Node4&#45;&gt;Node3 -->
<g id="edge1" class="edge">
<title>Node4&#45;&gt;Node3</title>
<path fill="none" stroke="#9a32cd" stroke-dasharray="5,2" d="M864.4389,-166.4737C892.1888,-160.5496 929.1942,-152.6496 957.9079,-146.5197"/>
<polygon fill="#9a32cd" stroke="#9a32cd" points="863.3421,-163.1289 854.2932,-168.6397 864.8036,-169.9747 863.3421,-163.1289"/>
<text text-anchor="middle" x="916.5" y="-161" font-family="Helvetica,sans-Serif" font-size="10.00" fill="#000000"> module</text>
</g>
<!-- Node5 -->
<g id="node3" class="node">
<title>Node5</title>
<g id="a_node3"><a xlink:href="dict__priv_8h.html#structfr__dict" target="_top" xlink:title="Vendors and attribute names. ">
<polygon fill="none" stroke="#000000" points="574.5,-325.5 574.5,-344.5 618.5,-344.5 618.5,-325.5 574.5,-325.5"/>
<text text-anchor="middle" x="596.5" y="-332.5" font-family="Helvetica,sans-Serif" font-size="10.00" fill="#000000">fr_dict</text>
</a>
</g>
</g>
<!-- Node5&#45;&gt;Node4 -->
<g id="edge2" class="edge">
<title>Node5&#45;&gt;Node4</title>
<path fill="none" stroke="#9a32cd" stroke-dasharray="5,2" d="M616.657,-318.5267C630.7177,-306.2565 649.1843,-288.492 662,-270 673.1046,-253.977 665.8134,-243.3712 680,-230 696.9943,-213.9825 757.6424,-194.3302 794.7514,-183.3838"/>
<polygon fill="#9a32cd" stroke="#9a32cd" points="614.3064,-315.9313 608.9635,-325.0803 618.8456,-321.2601 614.3064,-315.9313"/>
<text text-anchor="middle" x="715" y="-233" font-family="Helvetica,sans-Serif" font-size="10.00" fill="#000000"> dict</text>
</g>
<!-- Node5&#45;&gt;Node5 -->
<g id="edge13" class="edge">
<title>Node5&#45;&gt;Node5</title>
<path fill="none" stroke="#9a32cd" stroke-dasharray="5,2" d="M574.5507,-354.0292C575.748,-359.128 583.0644,-363 596.5,-363 617.4727,-363 623.5351,-353.5653 614.6872,-344.7571"/>
<polygon fill="#9a32cd" stroke="#9a32cd" points="577.7962,-355.3393 578.3128,-344.7571 571.3098,-352.7074 577.7962,-355.3393"/>
<text text-anchor="middle" x="596.5" y="-366" font-family="Helvetica,sans-Serif" font-size="10.00" fill="#000000"> attr_valid</text>
</g>
<!-- Node10 -->
<g id="node8" class="node">
<title>Node10</title>
<g id="a_node8"><a xlink:href="dict__priv_8h.html#structfr__dict__gctx__s" target="_top" xlink:title="fr_dict_gctx_s">
<polygon fill="none" stroke="#000000" points="785.5,-494.5 785.5,-513.5 863.5,-513.5 863.5,-494.5 785.5,-494.5"/>
<text text-anchor="middle" x="824.5" y="-501.5" font-family="Helvetica,sans-Serif" font-size="10.00" fill="#000000">fr_dict_gctx_s</text>
</a>
</g>
</g>
<!-- Node5&#45;&gt;Node10 -->
<g id="edge10" class="edge">
<title>Node5&#45;&gt;Node10</title>
<path fill="none" stroke="#9a32cd" stroke-dasharray="5,2" d="M617.2687,-351.3063C631.7804,-363.7425 650.5391,-382.0809 662,-402 676.9495,-427.9823 658.5982,-446.0112 680,-467 694.8373,-481.551 747.8687,-492.4 785.3702,-498.4694"/>
<polygon fill="#9a32cd" stroke="#9a32cd" points="619.2338,-348.389 609.3025,-344.6987 614.7649,-353.7768 619.2338,-348.389"/>
<text text-anchor="middle" x="715" y="-494" font-family="Helvetica,sans-Serif" font-size="10.00" fill="#000000"> internal</text>
</g>
<!-- Node17 -->
<g id="node11" class="node">
<title>Node17</title>
<g id="a_node11"><a xlink:href="dict_8h.html#structdict__attr__s" target="_top" xlink:title="Dictionary attribute. ">
<polygon fill="none" stroke="#000000" points="793.5,-275.5 793.5,-294.5 855.5,-294.5 855.5,-275.5 793.5,-275.5"/>
<text text-anchor="middle" x="824.5" y="-282.5" font-family="Helvetica,sans-Serif" font-size="10.00" fill="#000000">dict_attr_s</text>
</a>
</g>
</g>
<!-- Node5&#45;&gt;Node17 -->
<g id="edge16" class="edge">
<title>Node5&#45;&gt;Node17</title>
<path fill="none" stroke="#9a32cd" stroke-dasharray="5,2" d="M616.7524,-319.4009C632.8949,-307.9874 656.5984,-293.4207 680,-287 717.9862,-276.5777 763.7284,-278.1868 793.4263,-280.99"/>
<polygon fill="#9a32cd" stroke="#9a32cd" points="614.6238,-316.6214 608.6122,-325.3455 618.7521,-322.2744 614.6238,-316.6214"/>
<text text-anchor="middle" x="715" y="-290" font-family="Helvetica,sans-Serif" font-size="10.00" fill="#000000"> dict</text>
</g>
<!-- Node19 -->
<g id="node14" class="node">
<title>Node19</title>
<g id="a_node14"><a xlink:href="dict_8h.html#structfr__dict__protocol__t" target="_top" xlink:title="Protocol&#45;specific callbacks in libfreeradius&#45;PROTOCOL. ">
<polygon fill="none" stroke="#000000" points="778.5,-388.5 778.5,-407.5 870.5,-407.5 870.5,-388.5 778.5,-388.5"/>
<text text-anchor="middle" x="824.5" y="-395.5" font-family="Helvetica,sans-Serif" font-size="10.00" fill="#000000">fr_dict_protocol_t</text>
</a>
</g>
</g>
<!-- Node5&#45;&gt;Node19 -->
<g id="edge22" class="edge">
<title>Node5&#45;&gt;Node19</title>
<path fill="none" stroke="#9a32cd" stroke-dasharray="5,2" d="M621.035,-349.5321C637.2485,-358.5013 659.2597,-369.4987 680,-376 712.0837,-386.0571 749.6655,-391.597 778.4591,-394.6016"/>
<polygon fill="#9a32cd" stroke="#9a32cd" points="622.6383,-346.4178 612.2121,-344.5349 619.1884,-352.5087 622.6383,-346.4178"/>
<text text-anchor="middle" x="715" y="-393" font-family="Helvetica,sans-Serif" font-size="10.00" fill="#000000"> attr_valid</text>
</g>
<!-- Node6 -->
<g id="node4" class="node">
<title>Node6</title>
<g id="a_node4"><a xlink:href="table_8h.html#structfr__table__num__ordered__t" target="_top" xlink:title="An element in an arbitrarily ordered array of name to num mappings. ">
<polygon fill="none" stroke="#000000" points="287,-311.5 287,-330.5 406,-330.5 406,-311.5 287,-311.5"/>
<text text-anchor="middle" x="346.5" y="-318.5" font-family="Helvetica,sans-Serif" font-size="10.00" fill="#000000">fr_table_num_ordered_t</text>
</a>
</g>
</g>
<!-- Node6&#45;&gt;Node5 -->
<g id="edge3" class="edge">
<title>Node6&#45;&gt;Node5</title>
<path fill="none" stroke="#9a32cd" stroke-dasharray="5,2" d="M416.6173,-318.421C446.3843,-317.9939 481.4337,-318.3721 513,-321 533.9469,-322.7439 557.5465,-326.9079 574.2991,-330.2442"/>
<polygon fill="#9a32cd" stroke="#9a32cd" points="416.2595,-314.9267 406.3231,-318.6032 416.3835,-321.9256 416.2595,-314.9267"/>
<text text-anchor="middle" x="468.5" y="-324" font-family="Helvetica,sans-Serif" font-size="10.00" fill="#000000"> subtype_table</text>
</g>
<!-- Node6&#45;&gt;Node19 -->
<g id="edge21" class="edge">
<title>Node6&#45;&gt;Node19</title>
<path fill="none" stroke="#9a32cd" stroke-dasharray="5,2" d="M356.1365,-339.51C368.5341,-361.0701 392.3053,-395.5722 424,-410 551.0977,-467.8563 725.1431,-427.5939 794.3482,-407.5201"/>
<polygon fill="#9a32cd" stroke="#9a32cd" points="359.1398,-337.7079 351.253,-330.6333 353.0066,-341.082 359.1398,-337.7079"/>
<text text-anchor="middle" x="596.5" y="-442" font-family="Helvetica,sans-Serif" font-size="10.00" fill="#000000"> subtype_table</text>
</g>
<!-- Node7 -->
<g id="node5" class="node">
<title>Node7</title>
<g id="a_node5"><a xlink:href="table_8h.html#structfr__table__elem__t" target="_top" xlink:title="fr_table_elem_t">
<polygon fill="none" stroke="#000000" points="131.5,-309.5 131.5,-328.5 214.5,-328.5 214.5,-309.5 131.5,-309.5"/>
<text text-anchor="middle" x="173" y="-316.5" font-family="Helvetica,sans-Serif" font-size="10.00" fill="#000000">fr_table_elem_t</text>
</a>
</g>
</g>
<!-- Node7&#45;&gt;Node6 -->
<g id="edge4" class="edge">
<title>Node7&#45;&gt;Node6</title>
<path fill="none" stroke="#9a32cd" stroke-dasharray="5,2" d="M224.7879,-319.597C244.3271,-319.8222 266.708,-320.0802 286.905,-320.313"/>
<polygon fill="#9a32cd" stroke="#9a32cd" points="224.5973,-316.0946 214.5576,-319.479 224.5165,-323.0942 224.5973,-316.0946"/>
<text text-anchor="middle" x="251.5" y="-323" font-family="Helvetica,sans-Serif" font-size="10.00" fill="#000000"> name</text>
</g>
<!-- Node8 -->
<g id="node6" class="node">
<title>Node8</title>
<g id="a_node6"><a xlink:href="hash_8c.html#structfr__hash__table__s" target="_top" xlink:title="fr_hash_table_s">
<polygon fill="none" stroke="#000000" points="303.5,-447.5 303.5,-466.5 389.5,-466.5 389.5,-447.5 303.5,-447.5"/>
<text text-anchor="middle" x="346.5" y="-454.5" font-family="Helvetica,sans-Serif" font-size="10.00" fill="#000000">fr_hash_table_s</text>
</a>
</g>
</g>
<!-- Node8&#45;&gt;Node5 -->
<g id="edge5" class="edge">
<title>Node8&#45;&gt;Node5</title>
<path fill="none" stroke="#9a32cd" stroke-dasharray="5,2" d="M375.3525,-442.92C426.8174,-417.8051 533.1564,-365.9117 576.974,-344.5287"/>
<polygon fill="#9a32cd" stroke="#9a32cd" points="373.5691,-439.8957 366.1171,-447.4269 376.6391,-446.1866 373.5691,-439.8957"/>
<text text-anchor="middle" x="468.5" y="-464" font-family="Helvetica,sans-Serif" font-size="10.00" fill="#000000"> attributes_by_name</text>
<text text-anchor="middle" x="468.5" y="-453" font-family="Helvetica,sans-Serif" font-size="10.00" fill="#000000">autoref</text>
<text text-anchor="middle" x="468.5" y="-442" font-family="Helvetica,sans-Serif" font-size="10.00" fill="#000000">vendors_by_num</text>
<text text-anchor="middle" x="468.5" y="-431" font-family="Helvetica,sans-Serif" font-size="10.00" fill="#000000">attributes_combo</text>
<text text-anchor="middle" x="468.5" y="-420" font-family="Helvetica,sans-Serif" font-size="10.00" fill="#000000">vendors_by_name</text>
</g>
<!-- Node8&#45;&gt;Node10 -->
<g id="edge9" class="edge">
<title>Node8&#45;&gt;Node10</title>
<path fill="none" stroke="#9a32cd" stroke-dasharray="5,2" d="M399.8504,-466.543C465.5099,-477.7816 580.534,-495.8267 680,-503 715.5318,-505.5625 756.105,-505.5899 785.1945,-505.1061"/>
<polygon fill="#9a32cd" stroke="#9a32cd" points="400.1957,-463.051 389.7463,-464.8005 399.006,-469.9491 400.1957,-463.051"/>
<text text-anchor="middle" x="596.5" y="-515" font-family="Helvetica,sans-Serif" font-size="10.00" fill="#000000"> protocol_by_num</text>
<text text-anchor="middle" x="596.5" y="-504" font-family="Helvetica,sans-Serif" font-size="10.00" fill="#000000">protocol_by_name</text>
</g>
<!-- Node9 -->
<g id="node7" class="node">
<title>Node9</title>
<g id="a_node7"><a xlink:href="hash_8c.html#structfr__hash__entry__s" target="_top" xlink:title="fr_hash_entry_s">
<polygon fill="none" stroke="#000000" points="130,-447.5 130,-466.5 216,-466.5 216,-447.5 130,-447.5"/>
<text text-anchor="middle" x="173" y="-454.5" font-family="Helvetica,sans-Serif" font-size="10.00" fill="#000000">fr_hash_entry_s</text>
</a>
</g>
</g>
<!-- Node9&#45;&gt;Node8 -->
<g id="edge6" class="edge">
<title>Node9&#45;&gt;Node8</title>
<path fill="none" stroke="#9a32cd" stroke-dasharray="5,2" d="M226.6233,-457C251.3002,-457 280.1856,-457 303.4182,-457"/>
<polygon fill="#9a32cd" stroke="#9a32cd" points="226.3339,-453.5001 216.3338,-457 226.3338,-460.5001 226.3339,-453.5001"/>
<text text-anchor="middle" x="251.5" y="-471" font-family="Helvetica,sans-Serif" font-size="10.00" fill="#000000"> null</text>
<text text-anchor="middle" x="251.5" y="-460" font-family="Helvetica,sans-Serif" font-size="10.00" fill="#000000">buckets</text>
</g>
<!-- Node9&#45;&gt;Node9 -->
<g id="edge7" class="edge">
<title>Node9&#45;&gt;Node9</title>
<path fill="none" stroke="#9a32cd" stroke-dasharray="5,2" d="M159.0041,-476.7663C160.1034,-481.4965 164.7687,-485 173,-485 186.5078,-485 190.4124,-475.5653 184.7138,-466.7571"/>
<polygon fill="#9a32cd" stroke="#9a32cd" points="162.4756,-477.2849 161.2862,-466.7571 155.6508,-475.7288 162.4756,-477.2849"/>
<text text-anchor="middle" x="173" y="-488" font-family="Helvetica,sans-Serif" font-size="10.00" fill="#000000"> next</text>
</g>
<!-- Node10&#45;&gt;Node5 -->
<g id="edge8" class="edge">
<title>Node10&#45;&gt;Node5</title>
<path fill="none" stroke="#9a32cd" stroke-dasharray="5,2" d="M800.7546,-488.7505C771.7106,-469.8678 721.3123,-436.3519 680,-405 653.027,-384.5302 622.9504,-358.4627 607.2976,-344.6333"/>
<polygon fill="#9a32cd" stroke="#9a32cd" points="799.0993,-491.8483 809.3956,-494.3458 802.904,-485.9725 799.0993,-491.8483"/>
<text text-anchor="middle" x="715" y="-455" font-family="Helvetica,sans-Serif" font-size="10.00" fill="#000000"> gctx</text>
</g>
<!-- Node11 -->
<g id="node9" class="node">
<title>Node11</title>
<g id="a_node9"><a xlink:href="dl_8c.html#structdl__loader__s" target="_top" xlink:title="A dynamic loader. ">
<polygon fill="none" stroke="#ff0000" points="140,-347.5 140,-366.5 206,-366.5 206,-347.5 140,-347.5"/>
<text text-anchor="middle" x="173" y="-354.5" font-family="Helvetica,sans-Serif" font-size="10.00" fill="#000000">dl_loader_s</text>
</a>
</g>
</g>
<!-- Node11&#45;&gt;Node10 -->
<g id="edge11" class="edge">
<title>Node11&#45;&gt;Node10</title>
<path fill="none" stroke="#9a32cd" stroke-dasharray="5,2" d="M183.564,-375.5185C192.6468,-391.7525 205.8482,-416.1116 216,-438 225.0632,-457.5412 217.0984,-469.6458 234,-483 406.0471,-618.9369 702.4618,-542.5102 795.6156,-513.5807"/>
<polygon fill="#9a32cd" stroke="#9a32cd" points="186.4683,-373.5435 178.505,-366.5553 180.3723,-376.9843 186.4683,-373.5435"/>
<text text-anchor="middle" x="468.5" y="-564" font-family="Helvetica,sans-Serif" font-size="10.00" fill="#000000"> dict_loader</text>
</g>
<!-- Node13 -->
<g id="node13" class="node">
<title>Node13</title>
<g id="a_node13"><a xlink:href="dl_8h.html#structdl__s" target="_top" xlink:title="Module handle. ">
<polygon fill="none" stroke="#000000" points="329,-273.5 329,-292.5 364,-292.5 364,-273.5 329,-273.5"/>
<text text-anchor="middle" x="346.5" y="-280.5" font-family="Helvetica,sans-Serif" font-size="10.00" fill="#000000">dl_s</text>
</a>
</g>
</g>
<!-- Node11&#45;&gt;Node13 -->
<g id="edge19" class="edge">
<title>Node11&#45;&gt;Node13</title>
<path fill="none" stroke="#9a32cd" stroke-dasharray="5,2" d="M210.6673,-342.2851C212.5559,-340.9632 214.3503,-339.5368 216,-338 228.5107,-326.3455 220.2269,-314.1315 234,-304 262.1685,-283.2793 304.7792,-281.1238 328.66,-281.8001"/>
<polygon fill="#9a32cd" stroke="#9a32cd" points="208.7769,-339.3365 201.9398,-347.43 212.3318,-345.3667 208.7769,-339.3365"/>
<text text-anchor="middle" x="251.5" y="-307" font-family="Helvetica,sans-Serif" font-size="10.00" fill="#000000"> loader</text>
</g>
<!-- Node15 -->
<g id="node10" class="node">
<title>Node15</title>
<g id="a_node10"><a xlink:href="rbmonkey_8c.html#structrbtree__s" target="_top" xlink:title="rbtree_s">
<polygon fill="none" stroke="#ff0000" points="5.5,-247.5 5.5,-266.5 57.5,-266.5 57.5,-247.5 5.5,-247.5"/>
<text text-anchor="middle" x="31.5" y="-254.5" font-family="Helvetica,sans-Serif" font-size="10.00" fill="#000000">rbtree_s</text>
</a>
</g>
</g>
<!-- Node15&#45;&gt;Node11 -->
<g id="edge12" class="edge">
<title>Node15&#45;&gt;Node11</title>
<path fill="none" stroke="#9a32cd" stroke-dasharray="5,2" d="M48.9249,-273.8426C67.7835,-291.4446 99.294,-319.0835 130,-338 135.698,-341.5103 142.1575,-344.7212 148.3061,-347.4643"/>
<polygon fill="#9a32cd" stroke="#9a32cd" points="51.0967,-271.0791 41.4274,-266.7484 46.2856,-276.1638 51.0967,-271.0791"/>
<text text-anchor="middle" x="96.5" y="-327" font-family="Helvetica,sans-Serif" font-size="10.00" fill="#000000"> tree</text>
</g>
<!-- Node24 -->
<g id="node19" class="node">
<title>Node24</title>
<g id="a_node19"><a xlink:href="cf__priv_8h.html#structcf__item" target="_top" xlink:title="Common header for all CONF_* types. ">
<polygon fill="none" stroke="#000000" points="148.5,-189.5 148.5,-208.5 197.5,-208.5 197.5,-189.5 148.5,-189.5"/>
<text text-anchor="middle" x="173" y="-196.5" font-family="Helvetica,sans-Serif" font-size="10.00" fill="#000000">cf_item</text>
</a>
</g>
</g>
<!-- Node15&#45;&gt;Node24 -->
<g id="edge32" class="edge">
<title>Node15&#45;&gt;Node24</title>
<path fill="none" stroke="#9a32cd" stroke-dasharray="5,2" d="M64.3476,-243.536C90.4575,-232.8337 126.3392,-218.126 149.5994,-208.5917"/>
<polygon fill="#9a32cd" stroke="#9a32cd" points="62.7913,-240.3912 54.8658,-247.4225 65.4462,-246.8682 62.7913,-240.3912"/>
<text text-anchor="middle" x="96.5" y="-250" font-family="Helvetica,sans-Serif" font-size="10.00" fill="#000000"> ident1</text>
<text text-anchor="middle" x="96.5" y="-239" font-family="Helvetica,sans-Serif" font-size="10.00" fill="#000000">ident2</text>
</g>
<!-- Node17&#45;&gt;Node5 -->
<g id="edge14" class="edge">
<title>Node17&#45;&gt;Node5</title>
<path fill="none" stroke="#9a32cd" stroke-dasharray="5,2" d="M783.6709,-293.9537C735.444,-304.5298 656.9598,-321.7413 618.7767,-330.1148"/>
<polygon fill="#9a32cd" stroke="#9a32cd" points="784.4593,-297.3641 793.4774,-291.8032 782.9598,-290.5266 784.4593,-297.3641"/>
<text text-anchor="middle" x="715" y="-329" font-family="Helvetica,sans-Serif" font-size="10.00" fill="#000000"> root</text>
<text text-anchor="middle" x="715" y="-318" font-family="Helvetica,sans-Serif" font-size="10.00" fill="#000000">fixups</text>
</g>
<!-- Node17&#45;&gt;Node17 -->
<g id="edge17" class="edge">
<title>Node17&#45;&gt;Node17</title>
<path fill="none" stroke="#9a32cd" stroke-dasharray="5,2" d="M807.4638,-304.4C808.6015,-309.3146 814.2803,-313 824.5,-313 840.8516,-313 845.5782,-303.5653 838.6799,-294.7571"/>
<polygon fill="#9a32cd" stroke="#9a32cd" points="810.8358,-305.3393 810.3201,-294.7571 804.1241,-303.3512 810.8358,-305.3393"/>
<text text-anchor="middle" x="824.5" y="-338" font-family="Helvetica,sans-Serif" font-size="10.00" fill="#000000"> next</text>
<text text-anchor="middle" x="824.5" y="-327" font-family="Helvetica,sans-Serif" font-size="10.00" fill="#000000">fixup</text>
<text text-anchor="middle" x="824.5" y="-316" font-family="Helvetica,sans-Serif" font-size="10.00" fill="#000000">parent</text>
</g>
<!-- Node18 -->
<g id="node12" class="node">
<title>Node18</title>
<g id="a_node12"><a xlink:href="dict_8h.html#structfr__dict__attr__flags__t" target="_top" xlink:title="Values of the encryption flags. ">
<polygon fill="none" stroke="#000000" points="547.5,-241.5 547.5,-260.5 645.5,-260.5 645.5,-241.5 547.5,-241.5"/>
<text text-anchor="middle" x="596.5" y="-248.5" font-family="Helvetica,sans-Serif" font-size="10.00" fill="#000000">fr_dict_attr_flags_t</text>
</a>
</g>
</g>
<!-- Node18&#45;&gt;Node17 -->
<g id="edge15" class="edge">
<title>Node18&#45;&gt;Node17</title>
<path fill="none" stroke="#9a32cd" stroke-dasharray="5,2" d="M656.0717,-245.7717C684.7642,-244.6733 719.4855,-245.4403 750,-252 771.1601,-256.5488 793.6382,-267.4477 808.3006,-275.4816"/>
<polygon fill="#9a32cd" stroke="#9a32cd" points="655.6176,-242.2891 645.7925,-246.2535 655.9454,-249.2814 655.6176,-242.2891"/>
<text text-anchor="middle" x="715" y="-255" font-family="Helvetica,sans-Serif" font-size="10.00" fill="#000000"> flags</text>
</g>
<!-- Node13&#45;&gt;Node5 -->
<g id="edge18" class="edge">
<title>Node13&#45;&gt;Node5</title>
<path fill="none" stroke="#9a32cd" stroke-dasharray="5,2" d="M374.6266,-284.265C408.0399,-286.2504 465.2665,-291.1792 513,-303 535.0013,-308.4485 559.0663,-318.0905 575.685,-325.3706"/>
<polygon fill="#9a32cd" stroke="#9a32cd" points="374.4321,-280.7492 364.2562,-283.6988 374.0505,-287.7388 374.4321,-280.7492"/>
<text text-anchor="middle" x="468.5" y="-306" font-family="Helvetica,sans-Serif" font-size="10.00" fill="#000000"> dl</text>
</g>
<!-- Node26 -->
<g id="node21" class="node">
<title>Node26</title>
<g id="a_node21"><a xlink:href="dl__module_8h.html#structdl__module__s" target="_top" xlink:title="dl_module_s">
<polygon fill="none" stroke="#000000" points="561,-19.5 561,-38.5 632,-38.5 632,-19.5 561,-19.5"/>
<text text-anchor="middle" x="596.5" y="-26.5" font-family="Helvetica,sans-Serif" font-size="10.00" fill="#000000">dl_module_s</text>
</a>
</g>
</g>
<!-- Node13&#45;&gt;Node26 -->
<g id="edge36" class="edge">
<title>Node13&#45;&gt;Node26</title>
<path fill="none" stroke="#9a32cd" stroke-dasharray="5,2" d="M361.7294,-265.2877C375.0487,-249.0071 394.0772,-223.7182 406,-199 418.4658,-173.156 406.7041,-159.8946 424,-137 462.2305,-86.3943 531.6569,-53.6579 569.7362,-38.6117"/>
<polygon fill="#9a32cd" stroke="#9a32cd" points="358.7237,-263.4265 354.9986,-273.3449 364.0958,-267.9144 358.7237,-263.4265"/>
<text text-anchor="middle" x="468.5" y="-140" font-family="Helvetica,sans-Serif" font-size="10.00" fill="#000000"> dl</text>
</g>
<!-- Node19&#45;&gt;Node5 -->
<g id="edge20" class="edge">
<title>Node19&#45;&gt;Node5</title>
<path fill="none" stroke="#9a32cd" stroke-dasharray="5,2" d="M796.5931,-383.8545C782.8453,-377.3507 765.8525,-369.9906 750,-365 704.4154,-350.6493 648.9569,-341.8511 618.7469,-337.7537"/>
<polygon fill="#9a32cd" stroke="#9a32cd" points="795.4416,-387.1855 805.9674,-388.3927 798.4918,-380.885 795.4416,-387.1855"/>
<text text-anchor="middle" x="715" y="-368" font-family="Helvetica,sans-Serif" font-size="10.00" fill="#000000"> proto</text>
</g>
<!-- Node20 -->
<g id="node15" class="node">
<title>Node20</title>
<g id="a_node15"><a xlink:href="server_2module_8h.html#structmodule__ctx__s" target="_top" xlink:title="Temporary structure to hold arguments for module calls. ">
<polygon fill="none" stroke="#000000" points="308,-170.5 308,-189.5 385,-189.5 385,-170.5 308,-170.5"/>
<text text-anchor="middle" x="346.5" y="-177.5" font-family="Helvetica,sans-Serif" font-size="10.00" fill="#000000">module_ctx_s</text>
</a>
</g>
</g>
<!-- Node20&#45;&gt;Node4 -->
<g id="edge23" class="edge">
<title>Node20&#45;&gt;Node4</title>
<path fill="none" stroke="#9a32cd" stroke-dasharray="5,2" d="M395.2209,-179.4904C493.9348,-178.4578 714.9485,-176.1459 794.9105,-175.3095"/>
<polygon fill="#9a32cd" stroke="#9a32cd" points="395.1747,-175.9906 385.2119,-179.5951 395.2479,-182.9902 395.1747,-175.9906"/>
<text text-anchor="middle" x="596.5" y="-180" font-family="Helvetica,sans-Serif" font-size="10.00" fill="#000000"> methods</text>
</g>
<!-- Node21 -->
<g id="node16" class="node">
<title>Node21</title>
<g id="a_node16"><a xlink:href="server_2module_8h.html#structmodule__method__names__s" target="_top" xlink:title="Named methods exported by a module. ">
<polygon fill="none" stroke="#000000" points="531,-133.5 531,-152.5 662,-152.5 662,-133.5 531,-133.5"/>
<text text-anchor="middle" x="596.5" y="-140.5" font-family="Helvetica,sans-Serif" font-size="10.00" fill="#000000">module_method_names_s</text>
</a>
</g>
</g>
<!-- Node20&#45;&gt;Node21 -->
<g id="edge25" class="edge">
<title>Node20&#45;&gt;Node21</title>
<path fill="none" stroke="#9a32cd" stroke-dasharray="5,2" d="M394.8524,-169.3772C404.4821,-167.4426 414.5412,-165.5494 424,-164 459.1312,-158.2452 498.5258,-153.3339 530.7893,-149.7111"/>
<polygon fill="#9a32cd" stroke="#9a32cd" points="394.1082,-165.9569 385.0157,-171.3955 395.5152,-172.814 394.1082,-165.9569"/>
<text text-anchor="middle" x="468.5" y="-167" font-family="Helvetica,sans-Serif" font-size="10.00" fill="#000000"> method</text>
</g>
<!-- Node21&#45;&gt;Node4 -->
<g id="edge24" class="edge">
<title>Node21&#45;&gt;Node4</title>
<path fill="none" stroke="#9a32cd" stroke-dasharray="5,2" d="M672.1621,-149.2534C697.0322,-151.7438 724.7663,-154.9872 750,-159 764.8939,-161.3685 781.2965,-164.8004 794.9106,-167.879"/>
<polygon fill="#9a32cd" stroke="#9a32cd" points="672.3524,-145.7554 662.0596,-148.2669 671.6721,-152.7223 672.3524,-145.7554"/>
<text text-anchor="middle" x="715" y="-162" font-family="Helvetica,sans-Serif" font-size="10.00" fill="#000000"> method_names</text>
</g>
<!-- Node22 -->
<g id="node17" class="node">
<title>Node22</title>
<g id="a_node17"><a xlink:href="dl__module_8h.html#structdl__module__instance__s" target="_top" xlink:title="dl_module_instance_s">
<polygon fill="none" stroke="#000000" points="768,-94.5 768,-113.5 881,-113.5 881,-94.5 768,-94.5"/>
<text text-anchor="middle" x="824.5" y="-101.5" font-family="Helvetica,sans-Serif" font-size="10.00" fill="#000000">dl_module_instance_s</text>
</a>
</g>
</g>
<!-- Node22&#45;&gt;Node3 -->
<g id="edge26" class="edge">
<title>Node22&#45;&gt;Node3</title>
<path fill="none" stroke="#9a32cd" stroke-dasharray="5,2" d="M885.9787,-115.3977C907.4357,-119.3757 931.2597,-123.7925 951.7454,-127.5904"/>
<polygon fill="#9a32cd" stroke="#9a32cd" points="886.4555,-111.9266 875.985,-113.545 885.1794,-118.8093 886.4555,-111.9266"/>
<text text-anchor="middle" x="916.5" y="-127" font-family="Helvetica,sans-Serif" font-size="10.00" fill="#000000"> dl_inst</text>
</g>
<!-- Node22&#45;&gt;Node22 -->
<g id="edge38" class="edge">
<title>Node22&#45;&gt;Node22</title>
<path fill="none" stroke="#9a32cd" stroke-dasharray="5,2" d="M807.4638,-123.4C808.6015,-128.3146 814.2803,-132 824.5,-132 840.8516,-132 845.5782,-122.5653 838.6799,-113.7571"/>
<polygon fill="#9a32cd" stroke="#9a32cd" points="810.8358,-124.3393 810.3201,-113.7571 804.1241,-122.3512 810.8358,-124.3393"/>
<text text-anchor="middle" x="824.5" y="-135" font-family="Helvetica,sans-Serif" font-size="10.00" fill="#000000"> parent</text>
</g>
<!-- Node23 -->
<g id="node18" class="node">
<title>Node23</title>
<g id="a_node18"><a xlink:href="cf__priv_8h.html#structcf__section" target="_top" xlink:title="A section grouping multiple CONF_PAIR. ">
<polygon fill="none" stroke="#000000" points="315.5,-94.5 315.5,-113.5 377.5,-113.5 377.5,-94.5 315.5,-94.5"/>
<text text-anchor="middle" x="346.5" y="-101.5" font-family="Helvetica,sans-Serif" font-size="10.00" fill="#000000">cf_section</text>
</a>
</g>
</g>
<!-- Node23&#45;&gt;Node22 -->
<g id="edge27" class="edge">
<title>Node23&#45;&gt;Node22</title>
<path fill="none" stroke="#9a32cd" stroke-dasharray="5,2" d="M387.9901,-104C473.6742,-104 670.2904,-104 767.6867,-104"/>
<polygon fill="#9a32cd" stroke="#9a32cd" points="387.8629,-100.5001 377.8629,-104 387.8629,-107.5001 387.8629,-100.5001"/>
<text text-anchor="middle" x="596.5" y="-107" font-family="Helvetica,sans-Serif" font-size="10.00" fill="#000000"> conf</text>
</g>
<!-- Node23&#45;&gt;Node23 -->
<g id="edge28" class="edge">
<title>Node23&#45;&gt;Node23</title>
<path fill="none" stroke="#9a32cd" stroke-dasharray="5,2" d="M329.0934,-123.4C330.2559,-128.3146 336.0581,-132 346.5,-132 363.207,-132 368.0364,-122.5653 360.9881,-113.7571"/>
<polygon fill="#9a32cd" stroke="#9a32cd" points="332.465,-124.3422 332.0119,-113.7571 325.7651,-122.3144 332.465,-124.3422"/>
<text text-anchor="middle" x="346.5" y="-135" font-family="Helvetica,sans-Serif" font-size="10.00" fill="#000000"> template</text>
</g>
<!-- Node23&#45;&gt;Node26 -->
<g id="edge34" class="edge">
<title>Node23&#45;&gt;Node26</title>
<path fill="none" stroke="#9a32cd" stroke-dasharray="5,2" d="M362.6576,-87.2861C377.257,-73.3514 400.0705,-54.3251 424,-45 468.8381,-27.527 525.0114,-25.6452 560.836,-26.6911"/>
<polygon fill="#9a32cd" stroke="#9a32cd" points="360.0976,-84.8951 355.437,-94.4098 365.0138,-89.8782 360.0976,-84.8951"/>
<text text-anchor="middle" x="468.5" y="-48" font-family="Helvetica,sans-Serif" font-size="10.00" fill="#000000"> conf</text>
</g>
<!-- Node24&#45;&gt;Node23 -->
<g id="edge29" class="edge">
<title>Node24&#45;&gt;Node23</title>
<path fill="none" stroke="#9a32cd" stroke-dasharray="5,2" d="M199.5336,-184.4715C235.4843,-164.7867 298.6662,-130.1914 329.1205,-113.5162"/>
<polygon fill="#9a32cd" stroke="#9a32cd" points="197.6812,-181.4954 190.5909,-189.3681 201.0431,-187.6353 197.6812,-181.4954"/>
<text text-anchor="middle" x="251.5" y="-168" font-family="Helvetica,sans-Serif" font-size="10.00" fill="#000000"> item</text>
</g>
<!-- Node24&#45;&gt;Node24 -->
<g id="edge31" class="edge">
<title>Node24&#45;&gt;Node24</title>
<path fill="none" stroke="#9a32cd" stroke-dasharray="5,2" d="M159.0041,-218.7663C160.1034,-223.4965 164.7687,-227 173,-227 186.5078,-227 190.4124,-217.5653 184.7138,-208.7571"/>
<polygon fill="#9a32cd" stroke="#9a32cd" points="162.4756,-219.2849 161.2862,-208.7571 155.6508,-217.7288 162.4756,-219.2849"/>
<text text-anchor="middle" x="173" y="-252" font-family="Helvetica,sans-Serif" font-size="10.00" fill="#000000"> next</text>
<text text-anchor="middle" x="173" y="-241" font-family="Helvetica,sans-Serif" font-size="10.00" fill="#000000">child</text>
<text text-anchor="middle" x="173" y="-230" font-family="Helvetica,sans-Serif" font-size="10.00" fill="#000000">parent</text>
</g>
<!-- Node25 -->
<g id="node20" class="node">
<title>Node25</title>
<g id="a_node20"><a xlink:href="cursor_8h.html#structfr__cursor__t" target="_top" xlink:title="fr_cursor_t">
<polygon fill="none" stroke="#000000" points="0,-189.5 0,-208.5 63,-208.5 63,-189.5 0,-189.5"/>
<text text-anchor="middle" x="31.5" y="-196.5" font-family="Helvetica,sans-Serif" font-size="10.00" fill="#000000">fr_cursor_t</text>
</a>
</g>
</g>
<!-- Node25&#45;&gt;Node24 -->
<g id="edge30" class="edge">
<title>Node25&#45;&gt;Node24</title>
<path fill="none" stroke="#9a32cd" stroke-dasharray="5,2" d="M73.3374,-199C97.7561,-199 127.7245,-199 148.3854,-199"/>
<polygon fill="#9a32cd" stroke="#9a32cd" points="73.2554,-195.5001 63.2554,-199 73.2553,-202.5001 73.2554,-195.5001"/>
<text text-anchor="middle" x="96.5" y="-202" font-family="Helvetica,sans-Serif" font-size="10.00" fill="#000000"> cursor</text>
</g>
<!-- Node26&#45;&gt;Node22 -->
<g id="edge33" class="edge">
<title>Node26&#45;&gt;Node22</title>
<path fill="none" stroke="#9a32cd" stroke-dasharray="5,2" d="M635.5332,-41.6089C666.5758,-51.6621 711.1008,-66.1382 750,-79 765.2847,-84.0538 782.3074,-89.7602 796.2183,-94.4439"/>
<polygon fill="#9a32cd" stroke="#9a32cd" points="636.5442,-38.2575 625.9524,-38.508 634.3886,-44.9173 636.5442,-38.2575"/>
<text text-anchor="middle" x="715" y="-82" font-family="Helvetica,sans-Serif" font-size="10.00" fill="#000000"> module</text>
</g>
<!-- Node26&#45;&gt;Node26 -->
<g id="edge35" class="edge">
<title>Node26&#45;&gt;Node26</title>
<path fill="none" stroke="#9a32cd" stroke-dasharray="5,2" d="M574.5507,-48.0292C575.748,-53.128 583.0644,-57 596.5,-57 617.4727,-57 623.5351,-47.5653 614.6872,-38.7571"/>
<polygon fill="#9a32cd" stroke="#9a32cd" points="577.7962,-49.3393 578.3128,-38.7571 571.3098,-46.7074 577.7962,-49.3393"/>
<text text-anchor="middle" x="596.5" y="-60" font-family="Helvetica,sans-Serif" font-size="10.00" fill="#000000"> parent</text>
</g>
<!-- Node27 -->
<g id="node22" class="node">
<title>Node27</title>
<g id="a_node22"><a xlink:href="dl__module_8h.html#structdl__module__common__t" target="_top" xlink:title="Fields common to all types of loadable modules. ">
<polygon fill="none" stroke="#000000" points="290.5,-.5 290.5,-19.5 402.5,-19.5 402.5,-.5 290.5,-.5"/>
<text text-anchor="middle" x="346.5" y="-7.5" font-family="Helvetica,sans-Serif" font-size="10.00" fill="#000000">dl_module_common_t</text>
</a>
</g>
</g>
<!-- Node27&#45;&gt;Node26 -->
<g id="edge37" class="edge">
<title>Node27&#45;&gt;Node26</title>
<path fill="none" stroke="#9a32cd" stroke-dasharray="5,2" d="M412.6754,-7.2744C443.2883,-6.8132 480.0842,-7.3925 513,-11 528.7731,-12.7287 545.9482,-16.1569 560.5977,-19.5619"/>
<polygon fill="#9a32cd" stroke="#9a32cd" points="412.4765,-3.7775 402.5451,-7.4679 412.6102,-10.7762 412.4765,-3.7775"/>
<text text-anchor="middle" x="468.5" y="-14" font-family="Helvetica,sans-Serif" font-size="10.00" fill="#000000"> common</text>
</g>
</g>
</svg>
        <g id="navigator" transform="translate(0 0)" fill="#404254">
                <rect fill="#f2f5e9" fill-opacity="0.5" stroke="#606060" stroke-width=".5" x="0" y="0" width="60" height="60"/>
                <use id="zoomplus" xlink:href="#zoomPlus" x="17" y="9" onmousedown="handleZoom(evt,'in')"/>
                <use id="zoomminus" xlink:href="#zoomMin" x="42" y="9" onmousedown="handleZoom(evt,'out')"/>
                <use id="reset" xlink:href="#resetDef" x="30" y="36" onmousedown="handleReset()"/>
                <g id="arrowUp" xlink:href="#dirArrow" transform="translate(30 24)" onmousedown="handlePan(0,-1)">
                  <use xlink:href="#rim" fill="#404040">
                        <set attributeName="fill" to="#808080" begin="arrowUp.mouseover" end="arrowUp.mouseout"/>
                  </use>
                  <path fill="none" stroke="white" stroke-width="1.5" d="M0,-3.0v7 M-2.5,-0.5L0,-3.0L2.5,-0.5"/>
                </g>
                <g id="arrowRight" xlink:href="#dirArrow" transform="rotate(90) translate(36 -43)" onmousedown="handlePan(1,0)">
                  <use xlink:href="#rim" fill="#404040">
                        <set attributeName="fill" to="#808080" begin="arrowRight.mouseover" end="arrowRight.mouseout"/>
                  </use>
                  <path fill="none" stroke="white" stroke-width="1.5" d="M0,-3.0v7 M-2.5,-0.5L0,-3.0L2.5,-0.5"/>
                </g>
                <g id="arrowDown" xlink:href="#dirArrow" transform="rotate(180) translate(-30 -48)" onmousedown="handlePan(0,1)">
                  <use xlink:href="#rim" fill="#404040">
                        <set attributeName="fill" to="#808080" begin="arrowDown.mouseover" end="arrowDown.mouseout"/>
                  </use>
                  <path fill="none" stroke="white" stroke-width="1.5" d="M0,-3.0v7 M-2.5,-0.5L0,-3.0L2.5,-0.5"/>
                </g>
                <g id="arrowLeft" xlink:href="#dirArrow" transform="rotate(270) translate(-36 17)" onmousedown="handlePan(-1,0)">
                  <use xlink:href="#rim" fill="#404040">
                        <set attributeName="fill" to="#808080" begin="arrowLeft.mouseover" end="arrowLeft.mouseout"/>
                  </use>
                  <path fill="none" stroke="white" stroke-width="1.5" d="M0,-3.0v7 M-2.5,-0.5L0,-3.0L2.5,-0.5"/>
                </g>
        </g>
        <svg viewBox="0 0 15 15" width="100%" height="30px" preserveAspectRatio="xMaxYMin meet">
         <g id="arrow_out" transform="scale(0.3 0.3)">
          <a xlink:href="structmodule__instance__s__coll__graph_org.svg" target="_base">
           <rect id="button" ry="5" rx="5" y="6" x="6" height="38" width="38"
                fill="#f2f5e9" fill-opacity="0.5" stroke="#606060" stroke-width="1.0"/>
           <path id="arrow"
             d="M 11.500037,31.436501 C 11.940474,20.09759 22.043105,11.32322 32.158766,21.979434 L 37.068811,17.246167 C 37.068811,17.246167 37.088388,32 37.088388,32 L 22.160133,31.978069 C 22.160133,31.978069 26.997745,27.140456 26.997745,27.140456 C 18.528582,18.264221 13.291696,25.230495 11.500037,31.436501 z"
             style="fill:#404040;"/>
          </a>
         </g>
        </svg>
</svg>
