<?xml version="1.0" encoding="UTF-8" standalone="no"?>
<!DOCTYPE svg PUBLIC "-//W3C//DTD SVG 1.1//EN"
 "http://www.w3.org/Graphics/SVG/1.1/DTD/svg11.dtd">
<!-- Generated by graphviz version 2.40.1 (20161225.0304)
 -->
<!-- Title: test_proto_request_t Pages: 1 -->
<!--zoomable 508 -->
<svg id="main" version="1.1" xmlns="http://www.w3.org/2000/svg" xmlns:xlink="http://www.w3.org/1999/xlink" xml:space="preserve" onload="init(evt)">
<style type="text/css"><![CDATA[
.edge:hover path { stroke: red; }
.edge:hover polygon { stroke: red; fill: red; }
]]></style>
<script type="text/javascript"><![CDATA[
var edges = document.getElementsByTagName('g');
if (edges && edges.length) {
  for (var i=0;i<edges.length;i++) {
    if (edges[i].id.substr(0,4)=='edge') {
      edges[i].setAttribute('class','edge');
    }
  }
}
]]></script>
        <defs>
                <circle id="rim" cx="0" cy="0" r="7"/>
                <circle id="rim2" cx="0" cy="0" r="3.5"/>
                <g id="zoomPlus">
                        <use xlink:href="#rim" fill="#404040">
                                <set attributeName="fill" to="#808080" begin="zoomplus.mouseover" end="zoomplus.mouseout"/>
                        </use>
                        <path d="M-4,0h8M0,-4v8" fill="none" stroke="white" stroke-width="1.5" pointer-events="none"/>
                </g>
                <g id="zoomMin">
                        <use xlink:href="#rim" fill="#404040">
                                <set attributeName="fill" to="#808080" begin="zoomminus.mouseover" end="zoomminus.mouseout"/>
                        </use>
                        <path d="M-4,0h8" fill="none" stroke="white" stroke-width="1.5" pointer-events="none"/>
                </g>
                <g id="dirArrow">
                        <path fill="none" stroke="white" stroke-width="1.5" d="M0,-3.0v7 M-2.5,-0.5L0,-3.0L2.5,-0.5"/>
                </g>
               <g id="resetDef">
                       <use xlink:href="#rim2" fill="#404040">
                               <set attributeName="fill" to="#808080" begin="reset.mouseover" end="reset.mouseout"/>
                       </use>
               </g>
        </defs>

<script type="text/javascript">
var viewWidth = 783;
var viewHeight = 508;
var sectionId = 'dynsection-1';
</script>
<script xlink:href="svgpan.js"/>
<svg id="graph" class="graph">
<g id="viewport">
<title>test_proto_request_t</title>
<!-- Node1 -->
<g id="node1" class="node">
<title>Node1</title>
<polygon fill="#bfbfbf" stroke="#000000" points="0,-140 0,-159 106,-159 106,-140 0,-140"/>
<text text-anchor="middle" x="53" y="-147" font-family="Helvetica,sans-Serif" font-size="10.00" fill="#000000">test_proto_request_t</text>
</g>
<!-- Node2 -->
<g id="node2" class="node">
<title>Node2</title>
<g id="a_node2"><a xlink:href="trunk_8c.html#structfr__trunk__request__s" target="_top" xlink:title="Wraps a normal request. ">
<polygon fill="none" stroke="#000000" points="116,-234.5 116,-253.5 214,-253.5 214,-234.5 116,-234.5"/>
<text text-anchor="middle" x="165" y="-241.5" font-family="Helvetica,sans-Serif" font-size="10.00" fill="#000000">fr_trunk_request_s</text>
</a>
</g>
</g>
<!-- Node2&#45;&gt;Node1 -->
<g id="edge1" class="edge">
<title>Node2&#45;&gt;Node1</title>
<path fill="none" stroke="#9a32cd" stroke-dasharray="5,2" d="M124.1485,-230.4784C115.6649,-226.5877 107.1433,-221.7901 100,-216 80.2309,-199.976 65.026,-173.6092 57.7405,-159.3661"/>
<polygon fill="#9a32cd" stroke="#9a32cd" points="123.0615,-233.8187 133.635,-234.4902 125.788,-227.3715 123.0615,-233.8187"/>
<text text-anchor="middle" x="110" y="-197" font-family="Helvetica,sans-Serif" font-size="10.00" fill="#000000"> treq</text>
</g>
<!-- Node6 -->
<g id="node6" class="node">
<title>Node6</title>
<g id="a_node6"><a xlink:href="trunk_8c.html#structfr__trunk__connection__s" target="_top" xlink:title="Associates request queues with a connection. ">
<polygon fill="none" stroke="#000000" points="309.5,-67.5 309.5,-86.5 422.5,-86.5 422.5,-67.5 309.5,-67.5"/>
<text text-anchor="middle" x="366" y="-74.5" font-family="Helvetica,sans-Serif" font-size="10.00" fill="#000000">fr_trunk_connection_s</text>
</a>
</g>
</g>
<!-- Node2&#45;&gt;Node6 -->
<g id="edge18" class="edge">
<title>Node2&#45;&gt;Node6</title>
<path fill="none" stroke="#9a32cd" stroke-dasharray="5,2" d="M165.2609,-224.1744C166.5909,-200.1772 172.2122,-159.7857 194,-134 210.4457,-114.5366 274.955,-96.8808 320.1117,-86.539"/>
<polygon fill="#9a32cd" stroke="#9a32cd" points="161.7614,-224.1013 164.9047,-234.2191 168.757,-224.3494 161.7614,-224.1013"/>
<text text-anchor="middle" x="226" y="-152.5" font-family="Helvetica,sans-Serif" font-size="10.00" fill="#000000"> cancel_partial</text>
<text text-anchor="middle" x="226" y="-141.5" font-family="Helvetica,sans-Serif" font-size="10.00" fill="#000000">partial</text>
</g>
<!-- Node3 -->
<g id="node3" class="node">
<title>Node3</title>
<g id="a_node3"><a xlink:href="dlist_8h.html#structfr__dlist__head__t" target="_top" xlink:title="Head of a doubly linked list. ">
<polygon fill="none" stroke="#000000" points="208,-411.5 208,-430.5 288,-430.5 288,-411.5 208,-411.5"/>
<text text-anchor="middle" x="248" y="-418.5" font-family="Helvetica,sans-Serif" font-size="10.00" fill="#000000">fr_dlist_head_t</text>
</a>
</g>
</g>
<!-- Node3&#45;&gt;Node2 -->
<g id="edge2" class="edge">
<title>Node3&#45;&gt;Node2</title>
<path fill="none" stroke="#9a32cd" stroke-dasharray="5,2" d="M229.3645,-403.9581C226.2896,-400.541 223.3454,-396.8197 221,-393 191.214,-344.4893 201.1086,-324.4567 179,-272 176.3826,-265.7898 173.0162,-259.0264 170.2404,-253.7027"/>
<polygon fill="#9a32cd" stroke="#9a32cd" points="227.0525,-406.5992 236.556,-411.2826 232.0474,-401.6949 227.0525,-406.5992"/>
<text text-anchor="middle" x="229" y="-330" font-family="Helvetica,sans-Serif" font-size="10.00" fill="#000000"> log</text>
</g>
<!-- Node3&#45;&gt;Node6 -->
<g id="edge8" class="edge">
<title>Node3&#45;&gt;Node6</title>
<path fill="none" stroke="#9a32cd" stroke-dasharray="5,2" d="M246.8289,-401.2353C244.1318,-351.6762 238.6841,-223.2173 252,-183 265.4138,-142.487 275.3306,-132.4581 308,-105 317.1588,-97.3022 328.7939,-91.1477 339.2352,-86.5913"/>
<polygon fill="#9a32cd" stroke="#9a32cd" points="243.3391,-401.5152 247.399,-411.3012 250.3279,-401.1193 243.3391,-401.5152"/>
<text text-anchor="middle" x="280" y="-208" font-family="Helvetica,sans-Serif" font-size="10.00" fill="#000000"> cancel_sent</text>
<text text-anchor="middle" x="280" y="-197" font-family="Helvetica,sans-Serif" font-size="10.00" fill="#000000">sent</text>
<text text-anchor="middle" x="280" y="-186" font-family="Helvetica,sans-Serif" font-size="10.00" fill="#000000">cancel</text>
</g>
<!-- Node9 -->
<g id="node9" class="node">
<title>Node9</title>
<g id="a_node9"><a xlink:href="trunk_8c.html#structfr__trunk__s" target="_top" xlink:title="Main trunk management handle. ">
<polygon fill="none" stroke="#ff0000" points="437,-234.5 437,-253.5 497,-253.5 497,-234.5 437,-234.5"/>
<text text-anchor="middle" x="467" y="-241.5" font-family="Helvetica,sans-Serif" font-size="10.00" fill="#000000">fr_trunk_s</text>
</a>
</g>
</g>
<!-- Node3&#45;&gt;Node9 -->
<g id="edge12" class="edge">
<title>Node3&#45;&gt;Node9</title>
<path fill="none" stroke="#9a32cd" stroke-dasharray="5,2" d="M260.6877,-403.0267C283.3333,-372.159 333.6535,-308.8448 390,-272 404.2862,-262.6583 422.098,-255.9221 436.9912,-251.4014"/>
<polygon fill="#9a32cd" stroke="#9a32cd" points="257.8292,-401.0067 254.8112,-411.1626 263.5038,-405.1053 257.8292,-401.0067"/>
<text text-anchor="middle" x="426.5" y="-385" font-family="Helvetica,sans-Serif" font-size="10.00" fill="#000000"> draining_to_free</text>
<text text-anchor="middle" x="426.5" y="-374" font-family="Helvetica,sans-Serif" font-size="10.00" fill="#000000">connecting</text>
<text text-anchor="middle" x="426.5" y="-363" font-family="Helvetica,sans-Serif" font-size="10.00" fill="#000000">free_requests</text>
<text text-anchor="middle" x="426.5" y="-352" font-family="Helvetica,sans-Serif" font-size="10.00" fill="#000000">closed</text>
<text text-anchor="middle" x="426.5" y="-341" font-family="Helvetica,sans-Serif" font-size="10.00" fill="#000000">inactive_draining</text>
<text text-anchor="middle" x="426.5" y="-330" font-family="Helvetica,sans-Serif" font-size="10.00" fill="#000000">inactive</text>
<text text-anchor="middle" x="426.5" y="-319" font-family="Helvetica,sans-Serif" font-size="10.00" fill="#000000">failed</text>
<text text-anchor="middle" x="426.5" y="-308" font-family="Helvetica,sans-Serif" font-size="10.00" fill="#000000">draining</text>
<text text-anchor="middle" x="426.5" y="-297" font-family="Helvetica,sans-Serif" font-size="10.00" fill="#000000">full</text>
<text text-anchor="middle" x="426.5" y="-286" font-family="Helvetica,sans-Serif" font-size="10.00" fill="#000000">to_free</text>
<text text-anchor="middle" x="426.5" y="-275" font-family="Helvetica,sans-Serif" font-size="10.00" fill="#000000">...</text>
</g>
<!-- Node21 -->
<g id="node11" class="node">
<title>Node21</title>
<g id="a_node11"><a xlink:href="request_8h.html#structrequest__s" target="_top" xlink:title="request_s">
<polygon fill="none" stroke="#ff0000" points="650.5,-234.5 650.5,-253.5 709.5,-253.5 709.5,-234.5 650.5,-234.5"/>
<text text-anchor="middle" x="680" y="-241.5" font-family="Helvetica,sans-Serif" font-size="10.00" fill="#000000">request_s</text>
</a>
</g>
</g>
<!-- Node3&#45;&gt;Node21 -->
<g id="edge22" class="edge">
<title>Node3&#45;&gt;Node21</title>
<path fill="none" stroke="#9a32cd" stroke-dasharray="5,2" d="M298.144,-418.2585C388.8777,-413.0966 571.9934,-401.6746 583,-393 627.485,-357.9403 585.7918,-314.7042 623,-272 630.2428,-263.6874 640.5247,-257.5965 650.3662,-253.2601"/>
<polygon fill="#9a32cd" stroke="#9a32cd" points="297.8669,-414.7684 288.0803,-418.8269 298.2617,-421.7573 297.8669,-414.7684"/>
<text text-anchor="middle" x="634" y="-330" font-family="Helvetica,sans-Serif" font-size="10.00" fill="#000000"> data</text>
</g>
<!-- Node4 -->
<g id="node4" class="node">
<title>Node4</title>
<g id="a_node4"><a xlink:href="dlist_8h.html#structfr__dlist__s" target="_top" xlink:title="Entry in a doubly linked list. ">
<polygon fill="none" stroke="#000000" points="288,-479.5 288,-498.5 344,-498.5 344,-479.5 288,-479.5"/>
<text text-anchor="middle" x="316" y="-486.5" font-family="Helvetica,sans-Serif" font-size="10.00" fill="#000000">fr_dlist_s</text>
</a>
</g>
</g>
<!-- Node4&#45;&gt;Node2 -->
<g id="edge5" class="edge">
<title>Node4&#45;&gt;Node2</title>
<path fill="none" stroke="#9a32cd" stroke-dasharray="5,2" d="M277.9476,-484.7207C244.5686,-478.7652 197.7591,-464.5948 174,-431 134.2126,-374.7416 154.151,-283.4182 162.1801,-253.6878"/>
<polygon fill="#9a32cd" stroke="#9a32cd" points="277.4049,-488.1783 287.835,-486.3176 278.521,-481.2679 277.4049,-488.1783"/>
<text text-anchor="middle" x="186.5" y="-418.5" font-family="Helvetica,sans-Serif" font-size="10.00" fill="#000000"> entry</text>
</g>
<!-- Node4&#45;&gt;Node3 -->
<g id="edge3" class="edge">
<title>Node4&#45;&gt;Node3</title>
<path fill="none" stroke="#9a32cd" stroke-dasharray="5,2" d="M292.8261,-473.5037C287.3802,-469.4021 281.7767,-464.7767 277,-460 267.9313,-450.9313 259.408,-438.8826 253.9796,-430.5898"/>
<polygon fill="#9a32cd" stroke="#9a32cd" points="290.951,-476.4662 301.1128,-479.4641 295.0385,-470.7835 290.951,-476.4662"/>
<text text-anchor="middle" x="289.5" y="-452" font-family="Helvetica,sans-Serif" font-size="10.00" fill="#000000"> entry</text>
</g>
<!-- Node4&#45;&gt;Node4 -->
<g id="edge4" class="edge">
<title>Node4&#45;&gt;Node4</title>
<path fill="none" stroke="#9a32cd" stroke-dasharray="5,2" d="M354.5533,-494.4491C359.0634,-493.4467 362,-491.6303 362,-489 362,-484.6836 354.0919,-482.5591 344.2994,-482.6266"/>
<polygon fill="#9a32cd" stroke="#9a32cd" points="353.9447,-490.9897 344.2994,-495.3734 354.5733,-497.9614 353.9447,-490.9897"/>
<text text-anchor="middle" x="373" y="-492" font-family="Helvetica,sans-Serif" font-size="10.00" fill="#000000"> prev</text>
<text text-anchor="middle" x="373" y="-481" font-family="Helvetica,sans-Serif" font-size="10.00" fill="#000000">next</text>
</g>
<!-- Node4&#45;&gt;Node6 -->
<g id="edge17" class="edge">
<title>Node4&#45;&gt;Node6</title>
<path fill="none" stroke="#9a32cd" stroke-dasharray="5,2" d="M314.5129,-469.1946C311.6707,-426.1171 306.8501,-320.8011 320,-234 328.6788,-176.712 352.7362,-111.0302 362.1514,-86.7107"/>
<polygon fill="#9a32cd" stroke="#9a32cd" points="311.0231,-469.4633 315.2133,-479.1944 318.006,-468.9742 311.0231,-469.4633"/>
<text text-anchor="middle" x="332.5" y="-241.5" font-family="Helvetica,sans-Serif" font-size="10.00" fill="#000000"> entry</text>
</g>
<!-- Node56 -->
<g id="node10" class="node">
<title>Node56</title>
<g id="a_node10"><a xlink:href="lib_2util_2event_8c.html#structfr__event__timer" target="_top" xlink:title="A timer event. ">
<polygon fill="none" stroke="#ff0000" points="534.5,-411.5 534.5,-430.5 613.5,-430.5 613.5,-411.5 534.5,-411.5"/>
<text text-anchor="middle" x="574" y="-418.5" font-family="Helvetica,sans-Serif" font-size="10.00" fill="#000000">fr_event_timer</text>
</a>
</g>
</g>
<!-- Node4&#45;&gt;Node56 -->
<g id="edge15" class="edge">
<title>Node4&#45;&gt;Node56</title>
<path fill="none" stroke="#9a32cd" stroke-dasharray="5,2" d="M354.0708,-478.9658C403.489,-465.9409 489.1291,-443.3691 537.6758,-430.5738"/>
<polygon fill="#9a32cd" stroke="#9a32cd" points="352.8794,-475.6602 344.1017,-481.5934 354.6635,-482.4291 352.8794,-475.6602"/>
<text text-anchor="middle" x="472.5" y="-452" font-family="Helvetica,sans-Serif" font-size="10.00" fill="#000000"> entry</text>
</g>
<!-- Node4&#45;&gt;Node21 -->
<g id="edge25" class="edge">
<title>Node4&#45;&gt;Node21</title>
<path fill="none" stroke="#9a32cd" stroke-dasharray="5,2" d="M354.1116,-487.1388C451.5413,-481.4267 704.9422,-460.2386 746,-393 774.0263,-347.1026 775.6864,-316.8416 746,-272 737.8923,-259.7533 723.2364,-252.8475 709.7914,-248.961"/>
<polygon fill="#9a32cd" stroke="#9a32cd" points="353.8876,-483.6457 344.1004,-487.703 354.2816,-490.6346 353.8876,-483.6457"/>
<text text-anchor="middle" x="751.5" y="-418.5" font-family="Helvetica,sans-Serif" font-size="10.00" fill="#000000"> free_entry</text>
</g>
<!-- Node5 -->
<g id="node5" class="node">
<title>Node5</title>
<g id="a_node5"><a xlink:href="trunk_8h.html#structfr__trunk__request__pub__s" target="_top" xlink:title="Public fields for the trunk request. ">
<polygon fill="none" stroke="#000000" points="498.5,-.5 498.5,-19.5 617.5,-19.5 617.5,-.5 498.5,-.5"/>
<text text-anchor="middle" x="558" y="-7.5" font-family="Helvetica,sans-Serif" font-size="10.00" fill="#000000">fr_trunk_request_pub_s</text>
</a>
</g>
</g>
<!-- Node5&#45;&gt;Node2 -->
<g id="edge6" class="edge">
<title>Node5&#45;&gt;Node2</title>
<path fill="none" stroke="#9a32cd" stroke-dasharray="5,2" d="M488.4771,-15.3229C412.5211,-23.9862 289.9602,-46.5603 202,-105 169.5498,-126.5595 166.6672,-144.3213 162,-183 159.8152,-201.106 161.9205,-222.4184 163.5373,-234.4553"/>
<polygon fill="#9a32cd" stroke="#9a32cd" points="488.8574,-18.8023 498.4187,-14.2382 488.098,-11.8436 488.8574,-18.8023"/>
<text text-anchor="middle" x="211.5" y="-108" font-family="Helvetica,sans-Serif" font-size="10.00" fill="#000000"> pub</text>
</g>
<!-- Node6&#45;&gt;Node5 -->
<g id="edge7" class="edge">
<title>Node6&#45;&gt;Node5</title>
<path fill="none" stroke="#9a32cd" stroke-dasharray="5,2" d="M403.0171,-64.0826C440.3324,-51.0611 497.0606,-31.2653 530.5421,-19.5817"/>
<polygon fill="#9a32cd" stroke="#9a32cd" points="401.7974,-60.8011 393.5089,-67.4005 404.1038,-67.4103 401.7974,-60.8011"/>
<text text-anchor="middle" x="487" y="-41" font-family="Helvetica,sans-Serif" font-size="10.00" fill="#000000"> tconn</text>
</g>
<!-- Node7 -->
<g id="node7" class="node">
<title>Node7</title>
<g id="a_node7"><a xlink:href="heap_8c.html#structfr__heap__s" target="_top" xlink:title="fr_heap_s">
<polygon fill="none" stroke="#000000" points="437.5,-411.5 437.5,-430.5 496.5,-430.5 496.5,-411.5 437.5,-411.5"/>
<text text-anchor="middle" x="467" y="-418.5" font-family="Helvetica,sans-Serif" font-size="10.00" fill="#000000">fr_heap_s</text>
</a>
</g>
</g>
<!-- Node7&#45;&gt;Node6 -->
<g id="edge9" class="edge">
<title>Node7&#45;&gt;Node6</title>
<path fill="none" stroke="#9a32cd" stroke-dasharray="5,2" d="M427.3739,-416.5661C397.9395,-412.3606 361.3408,-404.8879 352,-393 332.6609,-368.3873 358.8746,-136.9607 364.8401,-86.6306"/>
<polygon fill="#9a32cd" stroke="#9a32cd" points="427.0526,-420.0543 437.43,-417.9192 427.9861,-413.1168 427.0526,-420.0543"/>
<text text-anchor="middle" x="373.5" y="-197" font-family="Helvetica,sans-Serif" font-size="10.00" fill="#000000"> pending</text>
</g>
<!-- Node7&#45;&gt;Node9 -->
<g id="edge13" class="edge">
<title>Node7&#45;&gt;Node9</title>
<path fill="none" stroke="#9a32cd" stroke-dasharray="5,2" d="M467,-401.2171C467,-363.2545 467,-281.4758 467,-253.5633"/>
<polygon fill="#9a32cd" stroke="#9a32cd" points="463.5001,-401.4837 467,-411.4837 470.5001,-401.4837 463.5001,-401.4837"/>
<text text-anchor="middle" x="484" y="-335.5" font-family="Helvetica,sans-Serif" font-size="10.00" fill="#000000"> active</text>
<text text-anchor="middle" x="484" y="-324.5" font-family="Helvetica,sans-Serif" font-size="10.00" fill="#000000">backlog</text>
</g>
<!-- Node7&#45;&gt;Node21 -->
<g id="edge23" class="edge">
<title>Node7&#45;&gt;Node21</title>
<path fill="none" stroke="#9a32cd" stroke-dasharray="5,2" d="M506.6407,-414.1549C513.1069,-413.0747 519.737,-411.9889 526,-411 553.2864,-406.6916 629.3648,-412.4312 649,-393 668.3465,-373.8545 660.4696,-298.1559 668,-272 669.8144,-265.698 672.6865,-258.9317 675.166,-253.6295"/>
<polygon fill="#9a32cd" stroke="#9a32cd" points="505.9693,-410.7186 496.6907,-415.8331 507.1336,-417.6211 505.9693,-410.7186"/>
<text text-anchor="middle" x="686.5" y="-330" font-family="Helvetica,sans-Serif" font-size="10.00" fill="#000000"> backlog</text>
</g>
<!-- Node8 -->
<g id="node8" class="node">
<title>Node8</title>
<g id="a_node8"><a xlink:href="trunk_8h.html#structfr__trunk__connection__pub__s" target="_top" xlink:title="Public fields for the trunk connection. ">
<polygon fill="none" stroke="#ff0000" points="400,-134.5 400,-164.5 502,-164.5 502,-134.5 400,-134.5"/>
<text text-anchor="start" x="408" y="-152.5" font-family="Helvetica,sans-Serif" font-size="10.00" fill="#000000">fr_trunk_connection</text>
<text text-anchor="middle" x="451" y="-141.5" font-family="Helvetica,sans-Serif" font-size="10.00" fill="#000000">_pub_s</text>
</a>
</g>
</g>
<!-- Node8&#45;&gt;Node6 -->
<g id="edge10" class="edge">
<title>Node8&#45;&gt;Node6</title>
<path fill="none" stroke="#9a32cd" stroke-dasharray="5,2" d="M425.4735,-127.7274C409.5629,-114.1566 389.8546,-97.3466 377.6018,-86.8957"/>
<polygon fill="#9a32cd" stroke="#9a32cd" points="423.5083,-130.6514 433.3879,-134.478 428.0509,-125.3255 423.5083,-130.6514"/>
<text text-anchor="middle" x="420.5" y="-108" font-family="Helvetica,sans-Serif" font-size="10.00" fill="#000000"> pub</text>
</g>
<!-- Node9&#45;&gt;Node5 -->
<g id="edge20" class="edge">
<title>Node9&#45;&gt;Node5</title>
<path fill="none" stroke="#9a32cd" stroke-dasharray="5,2" d="M507.2701,-242.1819C547.1339,-239.4375 604.16,-232.6423 618,-216 668.9702,-154.7095 592.7971,-51.938 566.4309,-19.8658"/>
<polygon fill="#9a32cd" stroke="#9a32cd" points="507.05,-238.6887 497.2897,-242.8103 507.4899,-245.6749 507.05,-238.6887"/>
<text text-anchor="middle" x="636.5" y="-108" font-family="Helvetica,sans-Serif" font-size="10.00" fill="#000000"> trunk</text>
</g>
<!-- Node9&#45;&gt;Node8 -->
<g id="edge11" class="edge">
<title>Node9&#45;&gt;Node8</title>
<path fill="none" stroke="#9a32cd" stroke-dasharray="5,2" d="M463.6781,-224.3801C460.6713,-206.621 456.3052,-180.8339 453.561,-164.6257"/>
<polygon fill="#9a32cd" stroke="#9a32cd" points="460.2276,-224.9674 465.348,-234.2428 467.1294,-223.7988 460.2276,-224.9674"/>
<text text-anchor="middle" x="473.5" y="-197" font-family="Helvetica,sans-Serif" font-size="10.00" fill="#000000"> trunk</text>
</g>
<!-- Node56&#45;&gt;Node6 -->
<g id="edge19" class="edge">
<title>Node56&#45;&gt;Node6</title>
<path fill="none" stroke="#9a32cd" stroke-dasharray="5,2" d="M577.8479,-401.4428C582.7982,-372.6613 589.5775,-317.397 579,-272 563.4841,-205.4086 561.3194,-180.2938 511,-134 484.0273,-109.1851 444.9852,-94.6703 414.2069,-86.5039"/>
<polygon fill="#9a32cd" stroke="#9a32cd" points="574.3796,-400.9522 576.0182,-411.4195 581.2648,-402.215 574.3796,-400.9522"/>
<text text-anchor="middle" x="590.5" y="-197" font-family="Helvetica,sans-Serif" font-size="10.00" fill="#000000"> lifetime_ev</text>
</g>
<!-- Node56&#45;&gt;Node9 -->
<g id="edge14" class="edge">
<title>Node56&#45;&gt;Node9</title>
<path fill="none" stroke="#9a32cd" stroke-dasharray="5,2" d="M539.3681,-406.3691C533.8755,-402.7124 528.772,-398.2864 525,-393 493.2051,-348.4397 530.2356,-318.8966 502,-272 497.5046,-264.5335 490.2434,-258.2408 483.497,-253.524"/>
<polygon fill="#9a32cd" stroke="#9a32cd" points="537.7801,-409.4944 548.1843,-411.4953 541.2987,-403.443 537.7801,-409.4944"/>
<text text-anchor="middle" x="552" y="-330" font-family="Helvetica,sans-Serif" font-size="10.00" fill="#000000"> manage_ev</text>
</g>
<!-- Node56&#45;&gt;Node56 -->
<g id="edge16" class="edge">
<title>Node56&#45;&gt;Node56</title>
<path fill="none" stroke="#9a32cd" stroke-dasharray="5,2" d="M623.7074,-425.8464C628.4783,-424.8616 631.5,-423.2461 631.5,-421 631.5,-417.4063 623.7644,-415.4269 613.5057,-415.0619"/>
<polygon fill="#9a32cd" stroke="#9a32cd" points="623.0765,-422.3939 613.5057,-426.9381 623.8214,-429.3541 623.0765,-422.3939"/>
<text text-anchor="middle" x="647" y="-418.5" font-family="Helvetica,sans-Serif" font-size="10.00" fill="#000000"> parent</text>
</g>
<!-- Node56&#45;&gt;Node21 -->
<g id="edge26" class="edge">
<title>Node56&#45;&gt;Node21</title>
<path fill="none" stroke="#9a32cd" stroke-dasharray="5,2" d="M623.887,-417.1516C657.7491,-413.3827 698.2511,-406.2071 709,-393 742.9464,-351.2904 730.0148,-321.5018 709,-272 705.8823,-264.6561 699.7905,-258.3004 693.9917,-253.509"/>
<polygon fill="#9a32cd" stroke="#9a32cd" points="623.2173,-413.7022 613.6316,-418.2148 623.9392,-420.6649 623.2173,-413.7022"/>
<text text-anchor="middle" x="736" y="-330" font-family="Helvetica,sans-Serif" font-size="10.00" fill="#000000"> ev</text>
</g>
<!-- Node21&#45;&gt;Node5 -->
<g id="edge21" class="edge">
<title>Node21&#45;&gt;Node5</title>
<path fill="none" stroke="#9a32cd" stroke-dasharray="5,2" d="M679.2068,-224.3751C677.4285,-196.5735 671.6662,-144.6902 653,-105 636.6041,-70.1371 626.2654,-64.1785 598,-38 590.6614,-31.2032 581.5895,-24.7232 573.9414,-19.7121"/>
<polygon fill="#9a32cd" stroke="#9a32cd" points="675.7137,-224.5996 679.7383,-234.4002 682.7039,-224.2289 675.7137,-224.5996"/>
<text text-anchor="middle" x="675" y="-108" font-family="Helvetica,sans-Serif" font-size="10.00" fill="#000000"> request</text>
</g>
<!-- Node21&#45;&gt;Node21 -->
<g id="edge24" class="edge">
<title>Node21&#45;&gt;Node21</title>
<path fill="none" stroke="#9a32cd" stroke-dasharray="5,2" d="M719.6722,-251.0898C724.4076,-249.8008 727.5,-247.4375 727.5,-244 727.5,-238.5 719.5833,-235.75 709.6875,-235.75"/>
<polygon fill="#9a32cd" stroke="#9a32cd" points="719.2167,-247.6191 709.6875,-252.25 720.0247,-254.5724 719.2167,-247.6191"/>
<text text-anchor="middle" x="743" y="-241.5" font-family="Helvetica,sans-Serif" font-size="10.00" fill="#000000"> parent</text>
</g>
</g>
</svg>
        <g id="navigator" transform="translate(0 0)" fill="#404254">
                <rect fill="#f2f5e9" fill-opacity="0.5" stroke="#606060" stroke-width=".5" x="0" y="0" width="60" height="60"/>
                <use id="zoomplus" xlink:href="#zoomPlus" x="17" y="9" onmousedown="handleZoom(evt,'in')"/>
                <use id="zoomminus" xlink:href="#zoomMin" x="42" y="9" onmousedown="handleZoom(evt,'out')"/>
                <use id="reset" xlink:href="#resetDef" x="30" y="36" onmousedown="handleReset()"/>
                <g id="arrowUp" xlink:href="#dirArrow" transform="translate(30 24)" onmousedown="handlePan(0,-1)">
                  <use xlink:href="#rim" fill="#404040">
                        <set attributeName="fill" to="#808080" begin="arrowUp.mouseover" end="arrowUp.mouseout"/>
                  </use>
                  <path fill="none" stroke="white" stroke-width="1.5" d="M0,-3.0v7 M-2.5,-0.5L0,-3.0L2.5,-0.5"/>
                </g>
                <g id="arrowRight" xlink:href="#dirArrow" transform="rotate(90) translate(36 -43)" onmousedown="handlePan(1,0)">
                  <use xlink:href="#rim" fill="#404040">
                        <set attributeName="fill" to="#808080" begin="arrowRight.mouseover" end="arrowRight.mouseout"/>
                  </use>
                  <path fill="none" stroke="white" stroke-width="1.5" d="M0,-3.0v7 M-2.5,-0.5L0,-3.0L2.5,-0.5"/>
                </g>
                <g id="arrowDown" xlink:href="#dirArrow" transform="rotate(180) translate(-30 -48)" onmousedown="handlePan(0,1)">
                  <use xlink:href="#rim" fill="#404040">
                        <set attributeName="fill" to="#808080" begin="arrowDown.mouseover" end="arrowDown.mouseout"/>
                  </use>
                  <path fill="none" stroke="white" stroke-width="1.5" d="M0,-3.0v7 M-2.5,-0.5L0,-3.0L2.5,-0.5"/>
                </g>
                <g id="arrowLeft" xlink:href="#dirArrow" transform="rotate(270) translate(-36 17)" onmousedown="handlePan(-1,0)">
                  <use xlink:href="#rim" fill="#404040">
                        <set attributeName="fill" to="#808080" begin="arrowLeft.mouseover" end="arrowLeft.mouseout"/>
                  </use>
                  <path fill="none" stroke="white" stroke-width="1.5" d="M0,-3.0v7 M-2.5,-0.5L0,-3.0L2.5,-0.5"/>
                </g>
        </g>
        <svg viewBox="0 0 15 15" width="100%" height="30px" preserveAspectRatio="xMaxYMin meet">
         <g id="arrow_out" transform="scale(0.3 0.3)">
          <a xlink:href="structtest__proto__request__t__coll__graph_org.svg" target="_base">
           <rect id="button" ry="5" rx="5" y="6" x="6" height="38" width="38"
                fill="#f2f5e9" fill-opacity="0.5" stroke="#606060" stroke-width="1.0"/>
           <path id="arrow"
             d="M 11.500037,31.436501 C 11.940474,20.09759 22.043105,11.32322 32.158766,21.979434 L 37.068811,17.246167 C 37.068811,17.246167 37.088388,32 37.088388,32 L 22.160133,31.978069 C 22.160133,31.978069 26.997745,27.140456 26.997745,27.140456 C 18.528582,18.264221 13.291696,25.230495 11.500037,31.436501 z"
             style="fill:#404040;"/>
          </a>
         </g>
        </svg>
</svg>
