<?xml version="1.0" encoding="UTF-8" standalone="no"?>
<!DOCTYPE svg PUBLIC "-//W3C//DTD SVG 1.1//EN"
 "http://www.w3.org/Graphics/SVG/1.1/DTD/svg11.dtd">
<!-- Generated by graphviz version 2.40.1 (20161225.0304)
 -->
<!-- Title: rs_update Pages: 1 -->
<svg width="451pt" height="488pt"
 viewBox="0.00 0.00 451.00 488.00" xmlns="http://www.w3.org/2000/svg" xmlns:xlink="http://www.w3.org/1999/xlink">
<g id="graph0" class="graph" transform="scale(1 1) rotate(0) translate(4 484)">
<title>rs_update</title>
<!-- Node85 -->
<g id="node1" class="node">
<title>Node85</title>
<polygon fill="#bfbfbf" stroke="#000000" points="7.5,-157.5 7.5,-176.5 66.5,-176.5 66.5,-157.5 7.5,-157.5"/>
<text text-anchor="middle" x="37" y="-164.5" font-family="Helvetica,sans-Serif" font-size="10.00" fill="#000000">rs_update</text>
</g>
<!-- Node85&#45;&gt;Node85 -->
<g id="edge20" class="edge">
<title>Node85&#45;&gt;Node85</title>
<path fill="none" stroke="#9a32cd" stroke-dasharray="5,2" d="M76.6722,-173.4453C81.4076,-172.2734 84.5,-170.125 84.5,-167 84.5,-162 76.5833,-159.5 66.6875,-159.5"/>
<polygon fill="#9a32cd" stroke="#9a32cd" points="76.2645,-169.9688 66.6875,-174.5 76.9999,-176.9301 76.2645,-169.9688"/>
<text text-anchor="middle" x="97" y="-170" font-family="Helvetica,sans-Serif" font-size="10.00" fill="#000000"> body</text>
<text text-anchor="middle" x="97" y="-159" font-family="Helvetica,sans-Serif" font-size="10.00" fill="#000000">head</text>
</g>
<!-- Node86 -->
<g id="node2" class="node">
<title>Node86</title>
<g id="a_node2"><a xlink:href="radsniff_8h.html#structrs__stats__t" target="_top" xlink:title="One set of statistics. ">
<polygon fill="none" stroke="#000000" points="5,-280.5 5,-299.5 65,-299.5 65,-280.5 5,-280.5"/>
<text text-anchor="middle" x="35" y="-287.5" font-family="Helvetica,sans-Serif" font-size="10.00" fill="#000000">rs_stats_t</text>
</a>
</g>
</g>
<!-- Node86&#45;&gt;Node85 -->
<g id="edge1" class="edge">
<title>Node86&#45;&gt;Node85</title>
<path fill="none" stroke="#9a32cd" stroke-dasharray="5,2" d="M35.3215,-270.2305C35.7569,-243.4497 36.5173,-196.686 36.8438,-176.6068"/>
<polygon fill="#9a32cd" stroke="#9a32cd" points="31.8201,-270.2928 35.1569,-280.3484 38.8192,-270.4067 31.8201,-270.2928"/>
<text text-anchor="middle" x="49.5" y="-226.5" font-family="Helvetica,sans-Serif" font-size="10.00" fill="#000000"> stats</text>
</g>
<!-- Node87 -->
<g id="node3" class="node">
<title>Node87</title>
<g id="a_node3"><a xlink:href="radsniff_8h.html#structrs__latency__t" target="_top" xlink:title="Stats for a single interval. ">
<polygon fill="none" stroke="#000000" points="0,-380.5 0,-399.5 70,-399.5 70,-380.5 0,-380.5"/>
<text text-anchor="middle" x="35" y="-387.5" font-family="Helvetica,sans-Serif" font-size="10.00" fill="#000000">rs_latency_t</text>
</a>
</g>
</g>
<!-- Node87&#45;&gt;Node86 -->
<g id="edge2" class="edge">
<title>Node87&#45;&gt;Node86</title>
<path fill="none" stroke="#9a32cd" stroke-dasharray="5,2" d="M35,-370.2332C35,-348.9448 35,-315.9485 35,-299.7063"/>
<polygon fill="#9a32cd" stroke="#9a32cd" points="31.5001,-370.4115 35,-380.4116 38.5001,-370.4116 31.5001,-370.4115"/>
<text text-anchor="middle" x="58" y="-337.5" font-family="Helvetica,sans-Serif" font-size="10.00" fill="#000000"> exchange</text>
</g>
<!-- Node88 -->
<g id="node4" class="node">
<title>Node88</title>
<g id="a_node4"><a xlink:href="lib_2util_2event_8c.html#structfr__event__list" target="_top" xlink:title="Stores all information relating to an event list. ">
<polygon fill="none" stroke="#000000" points="182,-280.5 182,-299.5 252,-299.5 252,-280.5 182,-280.5"/>
<text text-anchor="middle" x="217" y="-287.5" font-family="Helvetica,sans-Serif" font-size="10.00" fill="#000000">fr_event_list</text>
</a>
</g>
</g>
<!-- Node88&#45;&gt;Node85 -->
<g id="edge3" class="edge">
<title>Node88&#45;&gt;Node85</title>
<path fill="none" stroke="#9a32cd" stroke-dasharray="5,2" d="M171.7385,-281.6801C146.9452,-276.4656 119.2274,-269.3559 109,-262 80.578,-241.5581 88.0525,-223.1913 66,-196 60.4386,-189.1427 53.4609,-182.1244 47.7437,-176.71"/>
<polygon fill="#9a32cd" stroke="#9a32cd" points="171.269,-285.1563 181.7664,-283.7232 172.6665,-278.2972 171.269,-285.1563"/>
<text text-anchor="middle" x="117" y="-226.5" font-family="Helvetica,sans-Serif" font-size="10.00" fill="#000000"> list</text>
</g>
<!-- Node92 -->
<g id="node8" class="node">
<title>Node92</title>
<g id="a_node8"><a xlink:href="lib_2util_2event_8c.html#structfr__event__fd" target="_top" xlink:title="A file descriptor/filter event. ">
<polygon fill="none" stroke="#000000" points="144.5,-.5 144.5,-19.5 209.5,-19.5 209.5,-.5 144.5,-.5"/>
<text text-anchor="middle" x="177" y="-7.5" font-family="Helvetica,sans-Serif" font-size="10.00" fill="#000000">fr_event_fd</text>
</a>
</g>
</g>
<!-- Node88&#45;&gt;Node92 -->
<g id="edge9" class="edge">
<title>Node88&#45;&gt;Node92</title>
<path fill="none" stroke="#9a32cd" stroke-dasharray="5,2" d="M204.0514,-272.1472C189.5354,-250.9294 166.8697,-213.8683 158,-178 143.4143,-119.0168 164.839,-45.5781 173.5751,-19.6258"/>
<polygon fill="#9a32cd" stroke="#9a32cd" points="201.2815,-274.2934 209.8892,-280.4708 207.0125,-270.2739 201.2815,-274.2934"/>
<text text-anchor="middle" x="165.5" y="-130" font-family="Helvetica,sans-Serif" font-size="10.00" fill="#000000"> error</text>
<text text-anchor="middle" x="165.5" y="-119" font-family="Helvetica,sans-Serif" font-size="10.00" fill="#000000">el</text>
</g>
<!-- Node95 -->
<g id="node11" class="node">
<title>Node95</title>
<g id="a_node11"><a xlink:href="event_8h.html#structfr__event__io__func__t" target="_top" xlink:title="Callbacks for the FR_EVENT_FILTER_IO filter. ">
<polygon fill="none" stroke="#000000" points="167.5,-157.5 167.5,-176.5 264.5,-176.5 264.5,-157.5 167.5,-157.5"/>
<text text-anchor="middle" x="216" y="-164.5" font-family="Helvetica,sans-Serif" font-size="10.00" fill="#000000">fr_event_io_func_t</text>
</a>
</g>
</g>
<!-- Node88&#45;&gt;Node95 -->
<g id="edge14" class="edge">
<title>Node88&#45;&gt;Node95</title>
<path fill="none" stroke="#9a32cd" stroke-dasharray="5,2" d="M216.8393,-270.2305C216.6215,-243.4497 216.2413,-196.686 216.0781,-176.6068"/>
<polygon fill="#9a32cd" stroke="#9a32cd" points="213.3403,-270.3772 216.9215,-280.3484 220.34,-270.3202 213.3403,-270.3772"/>
<text text-anchor="middle" x="228" y="-232" font-family="Helvetica,sans-Serif" font-size="10.00" fill="#000000"> read</text>
<text text-anchor="middle" x="228" y="-221" font-family="Helvetica,sans-Serif" font-size="10.00" fill="#000000">write</text>
</g>
<!-- Node96 -->
<g id="node12" class="node">
<title>Node96</title>
<g id="a_node12"><a xlink:href="event_8h.html#structfr__event__vnode__func__t" target="_top" xlink:title="Callbacks for the FR_EVENT_FILTER_VNODE filter. ">
<polygon fill="none" stroke="#000000" points="283,-157.5 283,-176.5 399,-176.5 399,-157.5 283,-157.5"/>
<text text-anchor="middle" x="341" y="-164.5" font-family="Helvetica,sans-Serif" font-size="10.00" fill="#000000">fr_event_vnode_func_t</text>
</a>
</g>
</g>
<!-- Node88&#45;&gt;Node96 -->
<g id="edge16" class="edge">
<title>Node88&#45;&gt;Node96</title>
<path fill="none" stroke="#9a32cd" stroke-dasharray="5,2" d="M234.1168,-273.0212C260.527,-246.824 310.3497,-197.4031 331.3151,-176.6068"/>
<polygon fill="#9a32cd" stroke="#9a32cd" points="231.3649,-270.8211 226.7301,-280.3484 236.2946,-275.7909 231.3649,-270.8211"/>
<text text-anchor="middle" x="329" y="-254" font-family="Helvetica,sans-Serif" font-size="10.00" fill="#000000"> rename</text>
<text text-anchor="middle" x="329" y="-243" font-family="Helvetica,sans-Serif" font-size="10.00" fill="#000000">attrib</text>
<text text-anchor="middle" x="329" y="-232" font-family="Helvetica,sans-Serif" font-size="10.00" fill="#000000">write</text>
<text text-anchor="middle" x="329" y="-221" font-family="Helvetica,sans-Serif" font-size="10.00" fill="#000000">link</text>
<text text-anchor="middle" x="329" y="-210" font-family="Helvetica,sans-Serif" font-size="10.00" fill="#000000">extend</text>
<text text-anchor="middle" x="329" y="-199" font-family="Helvetica,sans-Serif" font-size="10.00" fill="#000000">delete</text>
</g>
<!-- Node89 -->
<g id="node5" class="node">
<title>Node89</title>
<g id="a_node5"><a xlink:href="dlist_8h.html#structfr__dlist__head__t" target="_top" xlink:title="Head of a doubly linked list. ">
<polygon fill="none" stroke="#000000" points="88,-380.5 88,-399.5 168,-399.5 168,-380.5 88,-380.5"/>
<text text-anchor="middle" x="128" y="-387.5" font-family="Helvetica,sans-Serif" font-size="10.00" fill="#000000">fr_dlist_head_t</text>
</a>
</g>
</g>
<!-- Node89&#45;&gt;Node88 -->
<g id="edge4" class="edge">
<title>Node89&#45;&gt;Node88</title>
<path fill="none" stroke="#9a32cd" stroke-dasharray="5,2" d="M127.8619,-370.0468C128.7891,-354.1842 132.5196,-332.3483 145,-318 154.4182,-307.1721 168.5416,-300.5042 181.7917,-296.4103"/>
<polygon fill="#9a32cd" stroke="#9a32cd" points="124.3553,-370.2624 127.5973,-380.349 131.353,-370.4423 124.3553,-370.2624"/>
<text text-anchor="middle" x="179.5" y="-354" font-family="Helvetica,sans-Serif" font-size="10.00" fill="#000000"> post_callbacks</text>
<text text-anchor="middle" x="179.5" y="-343" font-family="Helvetica,sans-Serif" font-size="10.00" fill="#000000">ev_to_add</text>
<text text-anchor="middle" x="179.5" y="-332" font-family="Helvetica,sans-Serif" font-size="10.00" fill="#000000">user_callbacks</text>
<text text-anchor="middle" x="179.5" y="-321" font-family="Helvetica,sans-Serif" font-size="10.00" fill="#000000">pre_callbacks</text>
</g>
<!-- Node90 -->
<g id="node6" class="node">
<title>Node90</title>
<g id="a_node6"><a xlink:href="dlist_8h.html#structfr__dlist__s" target="_top" xlink:title="Entry in a doubly linked list. ">
<polygon fill="none" stroke="#000000" points="100,-454 100,-473 156,-473 156,-454 100,-454"/>
<text text-anchor="middle" x="128" y="-461" font-family="Helvetica,sans-Serif" font-size="10.00" fill="#000000">fr_dlist_s</text>
</a>
</g>
</g>
<!-- Node90&#45;&gt;Node89 -->
<g id="edge5" class="edge">
<title>Node90&#45;&gt;Node89</title>
<path fill="none" stroke="#9a32cd" stroke-dasharray="5,2" d="M128,-443.6616C128,-429.481 128,-411.004 128,-399.8458"/>
<polygon fill="#9a32cd" stroke="#9a32cd" points="124.5001,-443.8911 128,-453.8912 131.5001,-443.8912 124.5001,-443.8911"/>
<text text-anchor="middle" x="140.5" y="-421" font-family="Helvetica,sans-Serif" font-size="10.00" fill="#000000"> entry</text>
</g>
<!-- Node90&#45;&gt;Node90 -->
<g id="edge6" class="edge">
<title>Node90&#45;&gt;Node90</title>
<path fill="none" stroke="#9a32cd" stroke-dasharray="5,2" d="M166.5533,-469.9107C171.0634,-468.7314 174,-466.5945 174,-463.5 174,-458.4219 166.0919,-455.9225 156.2994,-456.0018"/>
<polygon fill="#9a32cd" stroke="#9a32cd" points="165.8745,-466.463 156.2994,-470.9982 166.6128,-473.4239 165.8745,-466.463"/>
<text text-anchor="middle" x="185" y="-466.5" font-family="Helvetica,sans-Serif" font-size="10.00" fill="#000000"> prev</text>
<text text-anchor="middle" x="185" y="-455.5" font-family="Helvetica,sans-Serif" font-size="10.00" fill="#000000">next</text>
</g>
<!-- Node91 -->
<g id="node7" class="node">
<title>Node91</title>
<g id="a_node7"><a xlink:href="heap_8c.html#structfr__heap__s" target="_top" xlink:title="fr_heap_s">
<polygon fill="none" stroke="#000000" points="188.5,-380.5 188.5,-399.5 247.5,-399.5 247.5,-380.5 188.5,-380.5"/>
<text text-anchor="middle" x="218" y="-387.5" font-family="Helvetica,sans-Serif" font-size="10.00" fill="#000000">fr_heap_s</text>
</a>
</g>
</g>
<!-- Node91&#45;&gt;Node88 -->
<g id="edge7" class="edge">
<title>Node91&#45;&gt;Node88</title>
<path fill="none" stroke="#9a32cd" stroke-dasharray="5,2" d="M217.8023,-370.2332C217.5894,-348.9448 217.2595,-315.9485 217.0971,-299.7063"/>
<polygon fill="#9a32cd" stroke="#9a32cd" points="214.3042,-370.4471 217.9041,-380.4116 221.3038,-370.377 214.3042,-370.4471"/>
<text text-anchor="middle" x="232" y="-337.5" font-family="Helvetica,sans-Serif" font-size="10.00" fill="#000000"> times</text>
</g>
<!-- Node92&#45;&gt;Node88 -->
<g id="edge8" class="edge">
<title>Node92&#45;&gt;Node88</title>
<path fill="none" stroke="#9a32cd" stroke-dasharray="5,2" d="M219.2668,-22.2225C274.6291,-40.8141 369.2051,-82.0941 408,-156 432.8614,-203.3619 395.4387,-232.2269 351,-262 335.1057,-272.6489 286.2033,-280.9781 252.0974,-285.6935"/>
<polygon fill="#9a32cd" stroke="#9a32cd" points="220.3317,-18.8884 209.7393,-19.1169 218.1623,-25.5438 220.3317,-18.8884"/>
<text text-anchor="middle" x="419.5" y="-124.5" font-family="Helvetica,sans-Serif" font-size="10.00" fill="#000000"> fd_to_free</text>
</g>
<!-- Node92&#45;&gt;Node92 -->
<g id="edge10" class="edge">
<title>Node92&#45;&gt;Node92</title>
<path fill="none" stroke="#9a32cd" stroke-dasharray="5,2" d="M219.6447,-16.016C224.4145,-14.8813 227.5,-12.876 227.5,-10 227.5,-5.3984 219.6012,-3.0258 209.5425,-2.882"/>
<polygon fill="#9a32cd" stroke="#9a32cd" points="219.1039,-12.5541 209.5425,-17.118 219.8631,-19.5128 219.1039,-12.5541"/>
<text text-anchor="middle" x="238.5" y="-7.5" font-family="Helvetica,sans-Serif" font-size="10.00" fill="#000000"> next</text>
</g>
<!-- Node93 -->
<g id="node9" class="node">
<title>Node93</title>
<g id="a_node9"><a xlink:href="lib_2util_2event_8c.html#structfr__event__func__map__t" target="_top" xlink:title="fr_event_func_map_t">
<polygon fill="none" stroke="#000000" points="3,-78.5 3,-97.5 111,-97.5 111,-78.5 3,-78.5"/>
<text text-anchor="middle" x="57" y="-85.5" font-family="Helvetica,sans-Serif" font-size="10.00" fill="#000000">fr_event_func_map_t</text>
</a>
</g>
</g>
<!-- Node93&#45;&gt;Node92 -->
<g id="edge11" class="edge">
<title>Node93&#45;&gt;Node92</title>
<path fill="none" stroke="#9a32cd" stroke-dasharray="5,2" d="M69.9868,-70.1281C78.408,-59.5923 90.1738,-46.6696 103,-38 115.5183,-29.5385 130.9414,-23.179 144.4618,-18.6772"/>
<polygon fill="#9a32cd" stroke="#9a32cd" points="67.0519,-68.204 63.7498,-78.2711 72.6091,-72.4605 67.0519,-68.204"/>
<text text-anchor="middle" x="114" y="-46.5" font-family="Helvetica,sans-Serif" font-size="10.00" fill="#000000"> map</text>
</g>
<!-- Node94 -->
<g id="node10" class="node">
<title>Node94</title>
<g id="a_node10"><a xlink:href="event_8h.html#unionfr__event__funcs__t" target="_top" xlink:title="Union of all filter functions. ">
<polygon fill="none" stroke="#000000" points="171.5,-78.5 171.5,-97.5 260.5,-97.5 260.5,-78.5 171.5,-78.5"/>
<text text-anchor="middle" x="216" y="-85.5" font-family="Helvetica,sans-Serif" font-size="10.00" fill="#000000">fr_event_funcs_t</text>
</a>
</g>
</g>
<!-- Node94&#45;&gt;Node92 -->
<g id="edge12" class="edge">
<title>Node94&#45;&gt;Node92</title>
<path fill="none" stroke="#9a32cd" stroke-dasharray="5,2" d="M206.593,-69.186C198.7794,-53.5589 187.9811,-31.9623 181.8213,-19.6426"/>
<polygon fill="#9a32cd" stroke="#9a32cd" points="203.6151,-71.0567 211.2178,-78.4357 209.8761,-67.9261 203.6151,-71.0567"/>
<text text-anchor="middle" x="217.5" y="-52" font-family="Helvetica,sans-Serif" font-size="10.00" fill="#000000"> stored</text>
<text text-anchor="middle" x="217.5" y="-41" font-family="Helvetica,sans-Serif" font-size="10.00" fill="#000000">active</text>
</g>
<!-- Node95&#45;&gt;Node94 -->
<g id="edge13" class="edge">
<title>Node95&#45;&gt;Node94</title>
<path fill="none" stroke="#9a32cd" stroke-dasharray="5,2" d="M216,-147.0339C216,-131.2875 216,-110.0062 216,-97.7662"/>
<polygon fill="#9a32cd" stroke="#9a32cd" points="212.5001,-147.313 216,-157.313 219.5001,-147.3131 212.5001,-147.313"/>
<text text-anchor="middle" x="221.5" y="-124.5" font-family="Helvetica,sans-Serif" font-size="10.00" fill="#000000"> io</text>
</g>
<!-- Node96&#45;&gt;Node94 -->
<g id="edge15" class="edge">
<title>Node96&#45;&gt;Node94</title>
<path fill="none" stroke="#9a32cd" stroke-dasharray="5,2" d="M317.0123,-151.8398C291.6423,-135.8059 252.3981,-111.0036 231.0624,-97.5194"/>
<polygon fill="#9a32cd" stroke="#9a32cd" points="315.3494,-154.9292 325.6725,-157.313 319.0891,-149.0119 315.3494,-154.9292"/>
<text text-anchor="middle" x="308" y="-124.5" font-family="Helvetica,sans-Serif" font-size="10.00" fill="#000000"> vnode</text>
</g>
<!-- Node97 -->
<g id="node13" class="node">
<title>Node97</title>
<g id="a_node13"><a xlink:href="rbmonkey_8c.html#structrbtree__s" target="_top" xlink:title="rbtree_s">
<polygon fill="none" stroke="#000000" points="266,-380.5 266,-399.5 318,-399.5 318,-380.5 266,-380.5"/>
<text text-anchor="middle" x="292" y="-387.5" font-family="Helvetica,sans-Serif" font-size="10.00" fill="#000000">rbtree_s</text>
</a>
</g>
</g>
<!-- Node97&#45;&gt;Node88 -->
<g id="edge17" class="edge">
<title>Node97&#45;&gt;Node88</title>
<path fill="none" stroke="#9a32cd" stroke-dasharray="5,2" d="M283.2088,-371.0941C275.6264,-355.8772 263.747,-334.3998 250,-318 244.3045,-311.2054 236.8482,-304.7256 230.4645,-299.714"/>
<polygon fill="#9a32cd" stroke="#9a32cd" points="280.2441,-373.0038 287.7419,-380.4894 286.5486,-369.9619 280.2441,-373.0038"/>
<text text-anchor="middle" x="287.5" y="-337.5" font-family="Helvetica,sans-Serif" font-size="10.00" fill="#000000"> fds</text>
</g>
<!-- Node98 -->
<g id="node14" class="node">
<title>Node98</title>
<g id="a_node14"><a xlink:href="rbmonkey_8c.html#structrbnode__s" target="_top" xlink:title="rbnode_s">
<polygon fill="none" stroke="#000000" points="264,-454 264,-473 320,-473 320,-454 264,-454"/>
<text text-anchor="middle" x="292" y="-461" font-family="Helvetica,sans-Serif" font-size="10.00" fill="#000000">rbnode_s</text>
</a>
</g>
</g>
<!-- Node98&#45;&gt;Node97 -->
<g id="edge18" class="edge">
<title>Node98&#45;&gt;Node97</title>
<path fill="none" stroke="#9a32cd" stroke-dasharray="5,2" d="M292,-443.6616C292,-429.481 292,-411.004 292,-399.8458"/>
<polygon fill="#9a32cd" stroke="#9a32cd" points="288.5001,-443.8911 292,-453.8912 295.5001,-443.8912 288.5001,-443.8911"/>
<text text-anchor="middle" x="302" y="-421" font-family="Helvetica,sans-Serif" font-size="10.00" fill="#000000"> root</text>
</g>
<!-- Node98&#45;&gt;Node98 -->
<g id="edge19" class="edge">
<title>Node98&#45;&gt;Node98</title>
<path fill="none" stroke="#9a32cd" stroke-dasharray="5,2" d="M330.5533,-469.9107C335.0634,-468.7314 338,-466.5945 338,-463.5 338,-458.4219 330.0919,-455.9225 320.2994,-456.0018"/>
<polygon fill="#9a32cd" stroke="#9a32cd" points="329.8745,-466.463 320.2994,-470.9982 330.6128,-473.4239 329.8745,-466.463"/>
<text text-anchor="middle" x="352" y="-472" font-family="Helvetica,sans-Serif" font-size="10.00" fill="#000000"> right</text>
<text text-anchor="middle" x="352" y="-461" font-family="Helvetica,sans-Serif" font-size="10.00" fill="#000000">left</text>
<text text-anchor="middle" x="352" y="-450" font-family="Helvetica,sans-Serif" font-size="10.00" fill="#000000">parent</text>
</g>
</g>
</svg>
