<?xml version="1.0" encoding="UTF-8" standalone="no"?>
<!DOCTYPE svg PUBLIC "-//W3C//DTD SVG 1.1//EN"
 "http://www.w3.org/Graphics/SVG/1.1/DTD/svg11.dtd">
<!-- Generated by graphviz version 2.40.1 (20161225.0304)
 -->
<!-- Title: fr_cmd_s Pages: 1 -->
<svg width="370pt" height="266pt"
 viewBox="0.00 0.00 370.00 266.00" xmlns="http://www.w3.org/2000/svg" xmlns:xlink="http://www.w3.org/1999/xlink">
<g id="graph0" class="graph" transform="scale(1 1) rotate(0) translate(4 262)">
<title>fr_cmd_s</title>
<!-- Node3 -->
<g id="node1" class="node">
<title>Node3</title>
<polygon fill="#bfbfbf" stroke="#000000" points="253,-79.5 253,-98.5 310,-98.5 310,-79.5 253,-79.5"/>
<text text-anchor="middle" x="281.5" y="-86.5" font-family="Helvetica,sans-Serif" font-size="10.00" fill="#000000">fr_cmd_s</text>
</g>
<!-- Node3&#45;&gt;Node3 -->
<g id="edge1" class="edge">
<title>Node3&#45;&gt;Node3</title>
<path fill="none" stroke="#9a32cd" stroke-dasharray="5,2" d="M320.1186,-95.4995C324.8773,-94.3403 328,-92.1738 328,-89 328,-83.9219 320.0059,-81.4225 310.107,-81.5018"/>
<polygon fill="#9a32cd" stroke="#9a32cd" points="319.7102,-92.0228 310.107,-96.4982 320.405,-98.9882 319.7102,-92.0228"/>
<text text-anchor="middle" x="339" y="-92" font-family="Helvetica,sans-Serif" font-size="10.00" fill="#000000"> next</text>
<text text-anchor="middle" x="339" y="-81" font-family="Helvetica,sans-Serif" font-size="10.00" fill="#000000">child</text>
</g>
<!-- Node4 -->
<g id="node2" class="node">
<title>Node4</title>
<g id="a_node2"><a xlink:href="command_8h.html#structfr__cmd__info__t" target="_top" xlink:title="fr_cmd_info_t">
<polygon fill="none" stroke="#000000" points="198.5,-.5 198.5,-19.5 274.5,-19.5 274.5,-.5 198.5,-.5"/>
<text text-anchor="middle" x="236.5" y="-7.5" font-family="Helvetica,sans-Serif" font-size="10.00" fill="#000000">fr_cmd_info_t</text>
</a>
</g>
</g>
<!-- Node3&#45;&gt;Node4 -->
<g id="edge3" class="edge">
<title>Node3&#45;&gt;Node4</title>
<path fill="none" stroke="#9a32cd" stroke-dasharray="5,2" d="M246.7114,-74.0859C241.4175,-70.2746 236.6709,-65.6205 233.5,-60 226.4068,-47.4272 229.774,-30.1362 233.0183,-19.5324"/>
<polygon fill="#9a32cd" stroke="#9a32cd" points="244.9834,-77.1322 255.3329,-79.3992 248.656,-71.173 244.9834,-77.1322"/>
<text text-anchor="middle" x="244.5" y="-46.5" font-family="Helvetica,sans-Serif" font-size="10.00" fill="#000000"> cmd</text>
</g>
<!-- Node4&#45;&gt;Node3 -->
<g id="edge2" class="edge">
<title>Node4&#45;&gt;Node3</title>
<path fill="none" stroke="#9a32cd" stroke-dasharray="5,2" d="M252.0446,-27.4083C254.7071,-30.7987 257.3153,-34.4162 259.5,-38 267.7317,-51.503 274.4453,-68.6357 278.2076,-79.2059"/>
<polygon fill="#9a32cd" stroke="#9a32cd" points="254.6195,-25.0312 245.5243,-19.5972 249.2457,-29.517 254.6195,-25.0312"/>
<text text-anchor="middle" x="297" y="-52" font-family="Helvetica,sans-Serif" font-size="10.00" fill="#000000"> func</text>
<text text-anchor="middle" x="297" y="-41" font-family="Helvetica,sans-Serif" font-size="10.00" fill="#000000">tab_expand</text>
</g>
<!-- Node5 -->
<g id="node3" class="node">
<title>Node5</title>
<g id="a_node3"><a xlink:href="value_8h.html#structvalue__box__s" target="_top" xlink:title="Union containing all data types supported by the server. ">
<polygon fill="none" stroke="#000000" points="0,-79.5 0,-98.5 71,-98.5 71,-79.5 0,-79.5"/>
<text text-anchor="middle" x="35.5" y="-86.5" font-family="Helvetica,sans-Serif" font-size="10.00" fill="#000000">value_box_s</text>
</a>
</g>
</g>
<!-- Node5&#45;&gt;Node4 -->
<g id="edge4" class="edge">
<title>Node5&#45;&gt;Node4</title>
<path fill="none" stroke="#9a32cd" stroke-dasharray="5,2" d="M69.1762,-75.7641C109.6086,-59.8727 176.4284,-33.6102 212.1687,-19.563"/>
<polygon fill="#9a32cd" stroke="#9a32cd" points="67.7719,-72.5553 59.7453,-79.4708 70.3326,-79.0702 67.7719,-72.5553"/>
<text text-anchor="middle" x="170" y="-46.5" font-family="Helvetica,sans-Serif" font-size="10.00" fill="#000000"> box</text>
</g>
<!-- Node5&#45;&gt;Node5 -->
<g id="edge5" class="edge">
<title>Node5&#45;&gt;Node5</title>
<path fill="none" stroke="#9a32cd" stroke-dasharray="5,2" d="M81.2805,-95.1836C85.9895,-93.9665 89,-91.9053 89,-89 89,-84.3516 81.2932,-81.8639 71.2532,-81.5371"/>
<polygon fill="#9a32cd" stroke="#9a32cd" points="80.7298,-91.7254 71.2532,-96.4629 81.6158,-98.6691 80.7298,-91.7254"/>
<text text-anchor="middle" x="100" y="-86.5" font-family="Helvetica,sans-Serif" font-size="10.00" fill="#000000"> next</text>
</g>
<!-- Node6 -->
<g id="node4" class="node">
<title>Node6</title>
<g id="a_node4"><a xlink:href="dict_8h.html#structdict__attr__s" target="_top" xlink:title="Dictionary attribute. ">
<polygon fill="none" stroke="#000000" points="70.5,-165 70.5,-184 132.5,-184 132.5,-165 70.5,-165"/>
<text text-anchor="middle" x="101.5" y="-172" font-family="Helvetica,sans-Serif" font-size="10.00" fill="#000000">dict_attr_s</text>
</a>
</g>
</g>
<!-- Node6&#45;&gt;Node5 -->
<g id="edge6" class="edge">
<title>Node6&#45;&gt;Node5</title>
<path fill="none" stroke="#9a32cd" stroke-dasharray="5,2" d="M76.5388,-159.0167C69.3681,-153.6677 62.0074,-147.1898 56.5,-140 46.8342,-127.3814 40.8738,-109.6835 37.8776,-98.7993"/>
<polygon fill="#9a32cd" stroke="#9a32cd" points="74.5451,-161.8933 84.7468,-164.7524 78.5547,-156.1554 74.5451,-161.8933"/>
<text text-anchor="middle" x="73" y="-126.5" font-family="Helvetica,sans-Serif" font-size="10.00" fill="#000000"> enumv</text>
</g>
<!-- Node6&#45;&gt;Node6 -->
<g id="edge11" class="edge">
<title>Node6&#45;&gt;Node6</title>
<path fill="none" stroke="#9a32cd" stroke-dasharray="5,2" d="M142.6528,-180.8897C147.4088,-179.7061 150.5,-177.5762 150.5,-174.5 150.5,-169.5781 142.5865,-167.0787 132.602,-167.0018"/>
<polygon fill="#9a32cd" stroke="#9a32cd" points="142.158,-177.4229 132.602,-181.9982 142.9254,-184.3807 142.158,-177.4229"/>
<text text-anchor="middle" x="164.5" y="-183" font-family="Helvetica,sans-Serif" font-size="10.00" fill="#000000"> next</text>
<text text-anchor="middle" x="164.5" y="-172" font-family="Helvetica,sans-Serif" font-size="10.00" fill="#000000">fixup</text>
<text text-anchor="middle" x="164.5" y="-161" font-family="Helvetica,sans-Serif" font-size="10.00" fill="#000000">parent</text>
</g>
<!-- Node8 -->
<g id="node6" class="node">
<title>Node8</title>
<g id="a_node6"><a xlink:href="dict__priv_8h.html#structfr__dict" target="_top" xlink:title="Vendors and attribute names. ">
<polygon fill="none" stroke="#ff0000" points="129.5,-79.5 129.5,-98.5 173.5,-98.5 173.5,-79.5 129.5,-79.5"/>
<text text-anchor="middle" x="151.5" y="-86.5" font-family="Helvetica,sans-Serif" font-size="10.00" fill="#000000">fr_dict</text>
</a>
</g>
</g>
<!-- Node6&#45;&gt;Node8 -->
<g id="edge10" class="edge">
<title>Node6&#45;&gt;Node8</title>
<path fill="none" stroke="#9a32cd" stroke-dasharray="5,2" d="M95.3225,-154.9866C92.8688,-143.4593 91.9716,-129.014 98.5,-118 102.0833,-111.9547 116.4366,-104.2925 129.3033,-98.3624"/>
<polygon fill="#9a32cd" stroke="#9a32cd" points="92.0147,-156.1679 97.9604,-164.9371 98.781,-154.3741 92.0147,-156.1679"/>
<text text-anchor="middle" x="112" y="-132" font-family="Helvetica,sans-Serif" font-size="10.00" fill="#000000"> root</text>
<text text-anchor="middle" x="112" y="-121" font-family="Helvetica,sans-Serif" font-size="10.00" fill="#000000">fixups</text>
</g>
<!-- Node7 -->
<g id="node5" class="node">
<title>Node7</title>
<g id="a_node5"><a xlink:href="dict_8h.html#structfr__dict__attr__flags__t" target="_top" xlink:title="Values of the encryption flags. ">
<polygon fill="none" stroke="#000000" points="52.5,-238.5 52.5,-257.5 150.5,-257.5 150.5,-238.5 52.5,-238.5"/>
<text text-anchor="middle" x="101.5" y="-245.5" font-family="Helvetica,sans-Serif" font-size="10.00" fill="#000000">fr_dict_attr_flags_t</text>
</a>
</g>
</g>
<!-- Node7&#45;&gt;Node6 -->
<g id="edge7" class="edge">
<title>Node7&#45;&gt;Node6</title>
<path fill="none" stroke="#9a32cd" stroke-dasharray="5,2" d="M101.5,-228.1616C101.5,-213.981 101.5,-195.504 101.5,-184.3458"/>
<polygon fill="#9a32cd" stroke="#9a32cd" points="98.0001,-228.3911 101.5,-238.3912 105.0001,-228.3912 98.0001,-228.3911"/>
<text text-anchor="middle" x="114" y="-212" font-family="Helvetica,sans-Serif" font-size="10.00" fill="#000000"> flags</text>
</g>
<!-- Node8&#45;&gt;Node6 -->
<g id="edge8" class="edge">
<title>Node8&#45;&gt;Node6</title>
<path fill="none" stroke="#9a32cd" stroke-dasharray="5,2" d="M144.5871,-108.4003C140.7406,-118.1911 135.5159,-130.066 129.5,-140 124.0656,-148.9738 116.5029,-158.1498 110.607,-164.7804"/>
<polygon fill="#9a32cd" stroke="#9a32cd" points="147.9588,-109.377 148.1922,-98.7847 141.4043,-106.9195 147.9588,-109.377"/>
<text text-anchor="middle" x="150" y="-126.5" font-family="Helvetica,sans-Serif" font-size="10.00" fill="#000000"> dict</text>
</g>
<!-- Node8&#45;&gt;Node8 -->
<g id="edge9" class="edge">
<title>Node8&#45;&gt;Node8</title>
<path fill="none" stroke="#9a32cd" stroke-dasharray="5,2" d="M183.9045,-95.7128C188.4533,-94.6177 191.5,-92.3801 191.5,-89 191.5,-83.4531 183.2952,-80.983 173.7124,-81.5897"/>
<polygon fill="#9a32cd" stroke="#9a32cd" points="183.45,-92.2356 173.7124,-96.4103 183.928,-99.2193 183.45,-92.2356"/>
<text text-anchor="middle" x="213" y="-86.5" font-family="Helvetica,sans-Serif" font-size="10.00" fill="#000000"> attr_valid</text>
</g>
<!-- Node21 -->
<g id="node7" class="node">
<title>Node21</title>
<g id="a_node7"><a xlink:href="command_8c.html#structfr__cmd__argv__s" target="_top" xlink:title="fr_cmd_argv_s">
<polygon fill="none" stroke="#000000" points="241,-165 241,-184 322,-184 322,-165 241,-165"/>
<text text-anchor="middle" x="281.5" y="-172" font-family="Helvetica,sans-Serif" font-size="10.00" fill="#000000">fr_cmd_argv_s</text>
</a>
</g>
</g>
<!-- Node21&#45;&gt;Node3 -->
<g id="edge12" class="edge">
<title>Node21&#45;&gt;Node3</title>
<path fill="none" stroke="#9a32cd" stroke-dasharray="5,2" d="M281.5,-154.3868C281.5,-136.846 281.5,-112.1594 281.5,-98.6936"/>
<polygon fill="#9a32cd" stroke="#9a32cd" points="278.0001,-154.692 281.5,-164.6921 285.0001,-154.6921 278.0001,-154.692"/>
<text text-anchor="middle" x="310" y="-126.5" font-family="Helvetica,sans-Serif" font-size="10.00" fill="#000000"> syntax_argv</text>
</g>
<!-- Node21&#45;&gt;Node21 -->
<g id="edge13" class="edge">
<title>Node21&#45;&gt;Node21</title>
<path fill="none" stroke="#9a32cd" stroke-dasharray="5,2" d="M332.3235,-180.4931C337.0317,-179.2565 340,-177.2588 340,-174.5 340,-170.0859 332.4013,-167.6203 322.235,-167.103"/>
<polygon fill="#9a32cd" stroke="#9a32cd" points="331.6571,-177.052 322.235,-181.897 332.622,-183.9852 331.6571,-177.052"/>
<text text-anchor="middle" x="351" y="-177.5" font-family="Helvetica,sans-Serif" font-size="10.00" fill="#000000"> next</text>
<text text-anchor="middle" x="351" y="-166.5" font-family="Helvetica,sans-Serif" font-size="10.00" fill="#000000">child</text>
</g>
</g>
</svg>
