<?xml version="1.0" encoding="UTF-8" standalone="no"?>
<!DOCTYPE svg PUBLIC "-//W3C//DTD SVG 1.1//EN"
 "http://www.w3.org/Graphics/SVG/1.1/DTD/svg11.dtd">
<!-- Generated by graphviz version 2.40.1 (20161225.0304)
 -->
<!-- Title: talloc_typed_asprintf Pages: 1 -->
<svg width="203pt" height="66pt"
 viewBox="0.00 0.00 203.00 66.00" xmlns="http://www.w3.org/2000/svg" xmlns:xlink="http://www.w3.org/1999/xlink">
<g id="graph0" class="graph" transform="scale(1 1) rotate(0) translate(4 62)">
<title>talloc_typed_asprintf</title>
<!-- Node3155 -->
<g id="node1" class="node">
<title>Node3155</title>
<polygon fill="#bfbfbf" stroke="#000000" points="0,-19.5 0,-38.5 107,-38.5 107,-19.5 0,-19.5"/>
<text text-anchor="middle" x="53.5" y="-26.5" font-family="Helvetica,sans-Serif" font-size="10.00" fill="#000000">talloc_typed_asprintf</text>
</g>
<!-- Node3156 -->
<g id="node2" class="node">
<title>Node3156</title>
<g id="a_node2"><a xlink:href="acutest_8h.html#aecf9a9be8105efb1454cd8c1ef6cb1c5" target="_top" xlink:title="va_start">
<polygon fill="none" stroke="#000000" points="143,-38.5 143,-57.5 195,-57.5 195,-38.5 143,-38.5"/>
<text text-anchor="middle" x="169" y="-45.5" font-family="Helvetica,sans-Serif" font-size="10.00" fill="#000000">va_start</text>
</a>
</g>
</g>
<!-- Node3155&#45;&gt;Node3156 -->
<g id="edge1" class="edge">
<title>Node3155&#45;&gt;Node3156</title>
<path fill="none" stroke="#191970" d="M107.1924,-37.8325C115.8909,-39.2634 124.7128,-40.7147 132.8634,-42.0554"/>
<polygon fill="#191970" stroke="#191970" points="132.3332,-45.5152 142.7687,-43.6849 133.4695,-38.608 132.3332,-45.5152"/>
</g>
<!-- Node3157 -->
<g id="node3" class="node">
<title>Node3157</title>
<g id="a_node3"><a xlink:href="acutest_8h.html#a36af1f79dd6adf0809c21e76535034d5" target="_top" xlink:title="va_end">
<polygon fill="none" stroke="#000000" points="145,-.5 145,-19.5 193,-19.5 193,-.5 145,-.5"/>
<text text-anchor="middle" x="169" y="-7.5" font-family="Helvetica,sans-Serif" font-size="10.00" fill="#000000">va_end</text>
</a>
</g>
</g>
<!-- Node3155&#45;&gt;Node3157 -->
<g id="edge2" class="edge">
<title>Node3155&#45;&gt;Node3157</title>
<path fill="none" stroke="#191970" d="M107.1924,-20.1675C116.5739,-18.6242 126.0989,-17.0573 134.7705,-15.6308"/>
<polygon fill="#191970" stroke="#191970" points="135.5585,-19.0483 144.8577,-13.9715 134.4222,-12.1412 135.5585,-19.0483"/>
</g>
</g>
</svg>
