<?xml version="1.0" encoding="UTF-8" standalone="no"?>
<!DOCTYPE svg PUBLIC "-//W3C//DTD SVG 1.1//EN"
 "http://www.w3.org/Graphics/SVG/1.1/DTD/svg11.dtd">
<!-- Generated by graphviz version 2.40.1 (20161225.0304)
 -->
<!-- Title: /home/runner/work/freeradius&#45;server/freeradius&#45;server/src/lib/eap/tls.c Pages: 1 -->
<svg width="1522pt" height="173pt"
 viewBox="0.00 0.00 1521.50 173.00" xmlns="http://www.w3.org/2000/svg" xmlns:xlink="http://www.w3.org/1999/xlink">
<g id="graph0" class="graph" transform="scale(1 1) rotate(0) translate(4 169)">
<title>/home/runner/work/freeradius&#45;server/freeradius&#45;server/src/lib/eap/tls.c</title>
<!-- Node0 -->
<g id="node1" class="node">
<title>Node0</title>
<polygon fill="#bfbfbf" stroke="#000000" points="626.5,-123.5 626.5,-164.5 769.5,-164.5 769.5,-123.5 626.5,-123.5"/>
<text text-anchor="start" x="634.5" y="-152.5" font-family="Helvetica,sans-Serif" font-size="10.00" fill="#000000">/home/runner/work/freeradius</text>
<text text-anchor="start" x="634.5" y="-141.5" font-family="Helvetica,sans-Serif" font-size="10.00" fill="#000000">&#45;server/freeradius&#45;server</text>
<text text-anchor="middle" x="698" y="-130.5" font-family="Helvetica,sans-Serif" font-size="10.00" fill="#000000">/src/lib/eap/tls.c</text>
</g>
<!-- Node1 -->
<g id="node2" class="node">
<title>Node1</title>
<g id="a_node2"><a xlink:href="tls_8h.html" target="_top" xlink:title="Generic EAP over TLS API. ">
<polygon fill="none" stroke="#000000" points="651.5,-67.5 651.5,-86.5 686.5,-86.5 686.5,-67.5 651.5,-67.5"/>
<text text-anchor="middle" x="669" y="-74.5" font-family="Helvetica,sans-Serif" font-size="10.00" fill="#000000">tls.h</text>
</a>
</g>
</g>
<!-- Node0&#45;&gt;Node1 -->
<g id="edge1" class="edge">
<title>Node0&#45;&gt;Node1</title>
<path fill="none" stroke="#191970" d="M688.9832,-123.168C685.2478,-114.5381 680.9431,-104.5928 677.2879,-96.1479"/>
<polygon fill="#191970" stroke="#191970" points="680.4177,-94.5674 673.2333,-86.7805 673.9936,-97.348 680.4177,-94.5674"/>
</g>
<!-- Node19 -->
<g id="node20" class="node">
<title>Node19</title>
<g id="a_node20"><a xlink:href="lib_2eap_2attrs_8h.html" target="_top" xlink:title="EAP dictionary attributes. ">
<polygon fill="none" stroke="#000000" points="1073,-67.5 1073,-86.5 1117,-86.5 1117,-67.5 1073,-67.5"/>
<text text-anchor="middle" x="1095" y="-74.5" font-family="Helvetica,sans-Serif" font-size="10.00" fill="#000000">attrs.h</text>
</a>
</g>
</g>
<!-- Node0&#45;&gt;Node19 -->
<g id="edge19" class="edge">
<title>Node0&#45;&gt;Node19</title>
<path fill="none" stroke="#191970" d="M769.8937,-131.8668C856.7078,-117.2156 998.9728,-93.2061 1062.5424,-82.4777"/>
<polygon fill="#191970" stroke="#191970" points="1063.481,-85.8689 1072.7591,-80.7535 1062.316,-78.9665 1063.481,-85.8689"/>
</g>
<!-- Node2 -->
<g id="node3" class="node">
<title>Node2</title>
<polygon fill="none" stroke="#bfbfbf" points="0,-6 0,-25 46,-25 46,-6 0,-6"/>
<text text-anchor="middle" x="23" y="-13" font-family="Helvetica,sans-Serif" font-size="10.00" fill="#000000">stdio.h</text>
</g>
<!-- Node1&#45;&gt;Node2 -->
<g id="edge2" class="edge">
<title>Node1&#45;&gt;Node2</title>
<path fill="none" stroke="#191970" d="M651.368,-76.5693C563.4499,-74.2868 172.0284,-62.4988 55,-31 53.0776,-30.4826 51.1318,-29.8495 49.1988,-29.1382"/>
<polygon fill="#191970" stroke="#191970" points="50.38,-25.8363 39.8106,-25.1022 47.6153,-32.2672 50.38,-25.8363"/>
</g>
<!-- Node3 -->
<g id="node4" class="node">
<title>Node3</title>
<polygon fill="none" stroke="#bfbfbf" points="64,-6 64,-25 112,-25 112,-6 64,-6"/>
<text text-anchor="middle" x="88" y="-13" font-family="Helvetica,sans-Serif" font-size="10.00" fill="#000000">stdlib.h</text>
</g>
<!-- Node1&#45;&gt;Node3 -->
<g id="edge3" class="edge">
<title>Node1&#45;&gt;Node3</title>
<path fill="none" stroke="#191970" d="M651.4035,-76.361C569.4459,-73.2572 224.7581,-58.7607 121,-31 119.028,-30.4724 117.0292,-29.8317 115.0416,-29.1149"/>
<polygon fill="#191970" stroke="#191970" points="115.9488,-25.7003 105.3729,-25.0663 113.245,-32.1571 115.9488,-25.7003"/>
</g>
<!-- Node4 -->
<g id="node5" class="node">
<title>Node4</title>
<polygon fill="none" stroke="#bfbfbf" points="130.5,-6 130.5,-25 179.5,-25 179.5,-6 130.5,-6"/>
<text text-anchor="middle" x="155" y="-13" font-family="Helvetica,sans-Serif" font-size="10.00" fill="#000000">string.h</text>
</g>
<!-- Node1&#45;&gt;Node4 -->
<g id="edge4" class="edge">
<title>Node1&#45;&gt;Node4</title>
<path fill="none" stroke="#191970" d="M651.3256,-76.1222C575.5755,-72.2355 278.114,-55.6711 188,-31 186.0311,-30.461 184.0346,-29.8118 182.0487,-29.0887"/>
<polygon fill="#191970" stroke="#191970" points="182.9588,-25.6747 172.3838,-25.026 180.2461,-32.1277 182.9588,-25.6747"/>
</g>
<!-- Node5 -->
<g id="node6" class="node">
<title>Node5</title>
<polygon fill="none" stroke="#bfbfbf" points="197.5,-6 197.5,-25 244.5,-25 244.5,-6 197.5,-6"/>
<text text-anchor="middle" x="221" y="-13" font-family="Helvetica,sans-Serif" font-size="10.00" fill="#000000">errno.h</text>
</g>
<!-- Node1&#45;&gt;Node5 -->
<g id="edge5" class="edge">
<title>Node1&#45;&gt;Node5</title>
<path fill="none" stroke="#191970" d="M651.241,-75.8103C582.0734,-71.0567 330.748,-52.6339 254,-31 252.0809,-30.4591 250.1345,-29.8165 248.1965,-29.1057"/>
<polygon fill="#191970" stroke="#191970" points="249.3175,-25.7804 238.7423,-25.1352 246.607,-32.2343 249.3175,-25.7804"/>
</g>
<!-- Node6 -->
<g id="node7" class="node">
<title>Node6</title>
<polygon fill="none" stroke="#bfbfbf" points="263,-6 263,-25 331,-25 331,-6 263,-6"/>
<text text-anchor="middle" x="297" y="-13" font-family="Helvetica,sans-Serif" font-size="10.00" fill="#000000">sys/types.h</text>
</g>
<!-- Node1&#45;&gt;Node6 -->
<g id="edge6" class="edge">
<title>Node1&#45;&gt;Node6</title>
<path fill="none" stroke="#191970" d="M651.2797,-75.8183C601.5557,-72.2264 456.7328,-59.8688 340,-31 336.8416,-30.2189 333.5919,-29.2904 330.3612,-28.2818"/>
<polygon fill="#191970" stroke="#191970" points="331.4303,-24.9488 320.8363,-25.0828 329.2016,-31.5846 331.4303,-24.9488"/>
</g>
<!-- Node7 -->
<g id="node8" class="node">
<title>Node7</title>
<polygon fill="none" stroke="#bfbfbf" points="349.5,-6 349.5,-25 422.5,-25 422.5,-6 349.5,-6"/>
<text text-anchor="middle" x="386" y="-13" font-family="Helvetica,sans-Serif" font-size="10.00" fill="#000000">sys/socket.h</text>
</g>
<!-- Node1&#45;&gt;Node7 -->
<g id="edge7" class="edge">
<title>Node1&#45;&gt;Node7</title>
<path fill="none" stroke="#191970" d="M651.4891,-74.4811C611.8371,-68.5898 512.3107,-52.7454 431,-31 427.9841,-30.1935 424.8783,-29.2874 421.7748,-28.3287"/>
<polygon fill="#191970" stroke="#191970" points="422.5748,-24.9085 411.9826,-25.145 420.4103,-31.5655 422.5748,-24.9085"/>
</g>
<!-- Node8 -->
<g id="node9" class="node">
<title>Node8</title>
<polygon fill="none" stroke="#bfbfbf" points="440.5,-6 440.5,-25 505.5,-25 505.5,-6 440.5,-6"/>
<text text-anchor="middle" x="473" y="-13" font-family="Helvetica,sans-Serif" font-size="10.00" fill="#000000">netinet/in.h</text>
</g>
<!-- Node1&#45;&gt;Node8 -->
<g id="edge8" class="edge">
<title>Node1&#45;&gt;Node8</title>
<path fill="none" stroke="#191970" d="M651.2016,-72.1737C622.2428,-64.2193 563.2111,-47.5798 514,-31 511.7487,-30.2415 509.4367,-29.4375 507.1124,-28.6104"/>
<polygon fill="#191970" stroke="#191970" points="508.2052,-25.2834 497.6114,-25.1372 505.8018,-31.8579 508.2052,-25.2834"/>
</g>
<!-- Node9 -->
<g id="node10" class="node">
<title>Node9</title>
<polygon fill="none" stroke="#bfbfbf" points="523.5,-6 523.5,-25 594.5,-25 594.5,-6 523.5,-6"/>
<text text-anchor="middle" x="559" y="-13" font-family="Helvetica,sans-Serif" font-size="10.00" fill="#000000">netinet/tcp.h</text>
</g>
<!-- Node1&#45;&gt;Node9 -->
<g id="edge9" class="edge">
<title>Node1&#45;&gt;Node9</title>
<path fill="none" stroke="#191970" d="M651.8125,-67.3906C633.8918,-57.3713 605.5905,-41.5483 584.9477,-30.0071"/>
<polygon fill="#191970" stroke="#191970" points="586.5033,-26.867 576.0668,-25.0419 583.0872,-32.9769 586.5033,-26.867"/>
</g>
<!-- Node10 -->
<g id="node11" class="node">
<title>Node10</title>
<polygon fill="none" stroke="#bfbfbf" points="612.5,-6 612.5,-25 661.5,-25 661.5,-6 612.5,-6"/>
<text text-anchor="middle" x="637" y="-13" font-family="Helvetica,sans-Serif" font-size="10.00" fill="#000000">netdb.h</text>
</g>
<!-- Node1&#45;&gt;Node10 -->
<g id="edge10" class="edge">
<title>Node1&#45;&gt;Node10</title>
<path fill="none" stroke="#191970" d="M664,-67.3906C659.4242,-58.5965 652.5219,-45.3312 646.8417,-34.4145"/>
<polygon fill="#191970" stroke="#191970" points="649.7912,-32.5003 642.0705,-25.2449 643.5815,-35.7314 649.7912,-32.5003"/>
</g>
<!-- Node11 -->
<g id="node12" class="node">
<title>Node11</title>
<polygon fill="none" stroke="#bfbfbf" points="680,-6 680,-25 724,-25 724,-6 680,-6"/>
<text text-anchor="middle" x="702" y="-13" font-family="Helvetica,sans-Serif" font-size="10.00" fill="#000000">fcntl.h</text>
</g>
<!-- Node1&#45;&gt;Node11 -->
<g id="edge11" class="edge">
<title>Node1&#45;&gt;Node11</title>
<path fill="none" stroke="#191970" d="M674.1563,-67.3906C678.9232,-58.5068 686.1385,-45.0601 692.0297,-34.0811"/>
<polygon fill="#191970" stroke="#191970" points="695.1269,-35.7114 696.7711,-25.2449 688.9588,-32.4016 695.1269,-35.7114"/>
</g>
<!-- Node12 -->
<g id="node13" class="node">
<title>Node12</title>
<g id="a_node13"><a xlink:href="signal_8h.html" target="_top" xlink:title="Signals that can be sent to a request. ">
<polygon fill="none" stroke="#000000" points="742,-6 742,-25 792,-25 792,-6 742,-6"/>
<text text-anchor="middle" x="767" y="-13" font-family="Helvetica,sans-Serif" font-size="10.00" fill="#000000">signal.h</text>
</a>
</g>
</g>
<!-- Node1&#45;&gt;Node12 -->
<g id="edge12" class="edge">
<title>Node1&#45;&gt;Node12</title>
<path fill="none" stroke="#191970" d="M684.3125,-67.3906C700.0624,-57.5067 724.8123,-41.9749 743.1337,-30.4773"/>
<polygon fill="#191970" stroke="#191970" points="745.1852,-33.3221 751.795,-25.0419 741.4643,-27.3929 745.1852,-33.3221"/>
</g>
<!-- Node13 -->
<g id="node14" class="node">
<title>Node13</title>
<polygon fill="none" stroke="#bfbfbf" points="810.5,-6 810.5,-25 859.5,-25 859.5,-6 810.5,-6"/>
<text text-anchor="middle" x="835" y="-13" font-family="Helvetica,sans-Serif" font-size="10.00" fill="#000000">ctype.h</text>
</g>
<!-- Node1&#45;&gt;Node13 -->
<g id="edge13" class="edge">
<title>Node1&#45;&gt;Node13</title>
<path fill="none" stroke="#191970" d="M686.6997,-71.4086C712.2112,-63.2197 760.6832,-47.1746 801,-31 802.3923,-30.4414 803.8105,-29.8573 805.2386,-29.2568"/>
<polygon fill="#191970" stroke="#191970" points="806.8724,-32.3625 814.6361,-25.1531 804.0711,-25.9475 806.8724,-32.3625"/>
</g>
<!-- Node14 -->
<g id="node15" class="node">
<title>Node14</title>
<polygon fill="none" stroke="#bfbfbf" points="878,-6 878,-25 940,-25 940,-6 878,-6"/>
<text text-anchor="middle" x="909" y="-13" font-family="Helvetica,sans-Serif" font-size="10.00" fill="#000000">sys/time.h</text>
</g>
<!-- Node1&#45;&gt;Node14 -->
<g id="edge14" class="edge">
<title>Node1&#45;&gt;Node14</title>
<path fill="none" stroke="#191970" d="M686.5086,-73.775C721.4158,-67.1655 801.9964,-51.006 868,-31 870.5739,-30.2198 873.2186,-29.3596 875.8655,-28.4564"/>
<polygon fill="#191970" stroke="#191970" points="877.1043,-31.7305 885.3379,-25.0628 874.7434,-25.1406 877.1043,-31.7305"/>
</g>
<!-- Node15 -->
<g id="node16" class="node">
<title>Node15</title>
<polygon fill="none" stroke="#bfbfbf" points="958,-6 958,-25 1020,-25 1020,-6 958,-6"/>
<text text-anchor="middle" x="989" y="-13" font-family="Helvetica,sans-Serif" font-size="10.00" fill="#000000">arpa/inet.h</text>
</g>
<!-- Node1&#45;&gt;Node15 -->
<g id="edge15" class="edge">
<title>Node1&#45;&gt;Node15</title>
<path fill="none" stroke="#191970" d="M686.6355,-75.3824C731.2199,-71.019 851.8076,-57.5076 949,-31 951.7618,-30.2468 954.596,-29.3703 957.4186,-28.4246"/>
<polygon fill="#191970" stroke="#191970" points="958.6308,-31.7081 966.8485,-25.0208 956.2542,-25.1239 958.6308,-31.7081"/>
</g>
<!-- Node16 -->
<g id="node17" class="node">
<title>Node16</title>
<polygon fill="none" stroke="#bfbfbf" points="1038,-.5 1038,-30.5 1154,-30.5 1154,-.5 1038,-.5"/>
<text text-anchor="start" x="1046" y="-18.5" font-family="Helvetica,sans-Serif" font-size="10.00" fill="#000000">freeradius&#45;devel/server</text>
<text text-anchor="middle" x="1096" y="-7.5" font-family="Helvetica,sans-Serif" font-size="10.00" fill="#000000">/base.h</text>
</g>
<!-- Node1&#45;&gt;Node16 -->
<g id="edge16" class="edge">
<title>Node1&#45;&gt;Node16</title>
<path fill="none" stroke="#191970" d="M686.7017,-75.373C737.9069,-70.5341 890.7325,-55.1579 1027.7163,-31.1209"/>
<polygon fill="#191970" stroke="#191970" points="1028.7349,-34.4949 1037.9688,-29.3001 1027.5108,-27.6027 1028.7349,-34.4949"/>
</g>
<!-- Node17 -->
<g id="node18" class="node">
<title>Node17</title>
<polygon fill="none" stroke="#bfbfbf" points="1172.5,-.5 1172.5,-30.5 1271.5,-30.5 1271.5,-.5 1172.5,-.5"/>
<text text-anchor="start" x="1180.5" y="-18.5" font-family="Helvetica,sans-Serif" font-size="10.00" fill="#000000">freeradius&#45;devel/tls</text>
<text text-anchor="middle" x="1222" y="-7.5" font-family="Helvetica,sans-Serif" font-size="10.00" fill="#000000">/base.h</text>
</g>
<!-- Node1&#45;&gt;Node17 -->
<g id="edge17" class="edge">
<title>Node1&#45;&gt;Node17</title>
<path fill="none" stroke="#191970" d="M686.6405,-76.4034C749.8245,-74.0495 970.7827,-63.9491 1162.2733,-30.931"/>
<polygon fill="#191970" stroke="#191970" points="1162.987,-34.3594 1172.2339,-29.1879 1161.7803,-27.4642 1162.987,-34.3594"/>
</g>
<!-- Node18 -->
<g id="node19" class="node">
<title>Node18</title>
<polygon fill="none" stroke="#bfbfbf" points="1290,-.5 1290,-30.5 1394,-30.5 1394,-.5 1290,-.5"/>
<text text-anchor="start" x="1298" y="-18.5" font-family="Helvetica,sans-Serif" font-size="10.00" fill="#000000">freeradius&#45;devel/eap</text>
<text text-anchor="middle" x="1342" y="-7.5" font-family="Helvetica,sans-Serif" font-size="10.00" fill="#000000">/base.h</text>
</g>
<!-- Node1&#45;&gt;Node18 -->
<g id="edge18" class="edge">
<title>Node1&#45;&gt;Node18</title>
<path fill="none" stroke="#191970" d="M686.6584,-76.792C759.0553,-75.7075 1040.2443,-69.2299 1279.9392,-30.986"/>
<polygon fill="#191970" stroke="#191970" points="1280.5695,-34.4297 1289.8821,-29.3773 1279.4514,-27.5195 1280.5695,-34.4297"/>
</g>
<!-- Node20 -->
<g id="node21" class="node">
<title>Node20</title>
<polygon fill="none" stroke="#bfbfbf" points="1412.5,-.5 1412.5,-30.5 1513.5,-30.5 1513.5,-.5 1412.5,-.5"/>
<text text-anchor="start" x="1420.5" y="-18.5" font-family="Helvetica,sans-Serif" font-size="10.00" fill="#000000">freeradius&#45;devel/util</text>
<text text-anchor="middle" x="1463" y="-7.5" font-family="Helvetica,sans-Serif" font-size="10.00" fill="#000000">/dict.h</text>
</g>
<!-- Node19&#45;&gt;Node20 -->
<g id="edge20" class="edge">
<title>Node19&#45;&gt;Node20</title>
<path fill="none" stroke="#191970" d="M1117.1735,-74.4959C1166.5708,-68.7466 1289.5407,-53.4897 1402.4983,-30.9699"/>
<polygon fill="#191970" stroke="#191970" points="1403.2374,-34.3914 1412.3475,-28.9824 1401.8527,-27.5297 1403.2374,-34.3914"/>
</g>
</g>
</svg>
