<?xml version="1.0" encoding="UTF-8" standalone="no"?>
<!DOCTYPE svg PUBLIC "-//W3C//DTD SVG 1.1//EN"
 "http://www.w3.org/Graphics/SVG/1.1/DTD/svg11.dtd">
<!-- Generated by graphviz version 2.40.1 (20161225.0304)
 -->
<!-- Title: tmpl_attr_copy Pages: 1 -->
<svg width="694pt" height="408pt"
 viewBox="0.00 0.00 694.00 408.00" xmlns="http://www.w3.org/2000/svg" xmlns:xlink="http://www.w3.org/1999/xlink">
<g id="graph0" class="graph" transform="scale(1 1) rotate(0) translate(4 404)">
<title>tmpl_attr_copy</title>
<!-- Node8983 -->
<g id="node1" class="node">
<title>Node8983</title>
<polygon fill="#bfbfbf" stroke="#000000" points="0,-266.5 0,-285.5 81,-285.5 81,-266.5 0,-266.5"/>
<text text-anchor="middle" x="40.5" y="-273.5" font-family="Helvetica,sans-Serif" font-size="10.00" fill="#000000">tmpl_attr_copy</text>
</g>
<!-- Node8984 -->
<g id="node2" class="node">
<title>Node8984</title>
<g id="a_node2"><a xlink:href="dlist_8h.html#ad852b167828d7848ed99ee9cae167218" target="_top" xlink:title="Return the number of elements in the dlist. ">
<polygon fill="none" stroke="#000000" points="287,-380.5 287,-399.5 402,-399.5 402,-380.5 287,-380.5"/>
<text text-anchor="middle" x="344.5" y="-387.5" font-family="Helvetica,sans-Serif" font-size="10.00" fill="#000000">fr_dlist_num_elements</text>
</a>
</g>
</g>
<!-- Node8983&#45;&gt;Node8984 -->
<g id="edge1" class="edge">
<title>Node8983&#45;&gt;Node8984</title>
<path fill="none" stroke="#191970" d="M44.946,-285.6949C54.7151,-305.726 80.1549,-351.4376 117,-371 165.9195,-396.9731 229.2227,-400.2514 276.6285,-397.8727"/>
<polygon fill="#191970" stroke="#191970" points="277.022,-401.3555 286.795,-397.2644 276.6038,-394.368 277.022,-401.3555"/>
</g>
<!-- Node8985 -->
<g id="node3" class="node">
<title>Node8985</title>
<g id="a_node3"><a xlink:href="dlist_8h.html#abf551fd5df10bb1ae5dbabd9e84c4220" target="_top" xlink:title="Free all items in a doubly linked list from the tail backwards. ">
<polygon fill="none" stroke="#000000" points="117,-266.5 117,-285.5 251,-285.5 251,-266.5 117,-266.5"/>
<text text-anchor="middle" x="184" y="-273.5" font-family="Helvetica,sans-Serif" font-size="10.00" fill="#000000">fr_dlist_talloc_reverse_free</text>
</a>
</g>
</g>
<!-- Node8983&#45;&gt;Node8985 -->
<g id="edge2" class="edge">
<title>Node8983&#45;&gt;Node8985</title>
<path fill="none" stroke="#191970" d="M81.2375,-276C89.2181,-276 97.8325,-276 106.5599,-276"/>
<polygon fill="#191970" stroke="#191970" points="106.8258,-279.5001 116.8258,-276 106.8257,-272.5001 106.8258,-279.5001"/>
</g>
<!-- Node8990 -->
<g id="node8" class="node">
<title>Node8990</title>
<g id="a_node8"><a xlink:href="dlist_8h.html#a40536da1ca43d3e72807a3bf8a9b7841" target="_top" xlink:title="Get the next item in a list. ">
<polygon fill="none" stroke="#000000" points="149,-228.5 149,-247.5 219,-247.5 219,-228.5 149,-228.5"/>
<text text-anchor="middle" x="184" y="-235.5" font-family="Helvetica,sans-Serif" font-size="10.00" fill="#000000">fr_dlist_next</text>
</a>
</g>
</g>
<!-- Node8983&#45;&gt;Node8990 -->
<g id="edge7" class="edge">
<title>Node8983&#45;&gt;Node8990</title>
<path fill="none" stroke="#191970" d="M76.7111,-266.411C95.6047,-261.4078 118.8967,-255.2399 138.9455,-249.9308"/>
<polygon fill="#191970" stroke="#191970" points="140.0218,-253.2665 148.7926,-247.3232 138.2298,-246.4998 140.0218,-253.2665"/>
</g>
<!-- Node8992 -->
<g id="node10" class="node">
<title>Node8992</title>
<g id="a_node10"><a xlink:href="tmpl__tokenize_8c.html#a93278adfe0137f0dc75f3d31be974684" target="_top" xlink:title="Allocate a new attribute reference and add it to the end of the attribute reference list...">
<polygon fill="none" stroke="#000000" points="146,-304.5 146,-323.5 222,-323.5 222,-304.5 146,-304.5"/>
<text text-anchor="middle" x="184" y="-311.5" font-family="Helvetica,sans-Serif" font-size="10.00" fill="#000000">tmpl_attr_add</text>
</a>
</g>
</g>
<!-- Node8983&#45;&gt;Node8992 -->
<g id="edge9" class="edge">
<title>Node8983&#45;&gt;Node8992</title>
<path fill="none" stroke="#191970" d="M76.7111,-285.589C95.3206,-290.5169 118.1972,-296.5749 138.0389,-301.8291"/>
<polygon fill="#191970" stroke="#191970" points="137.2377,-305.2375 147.8005,-304.4141 139.0296,-298.4708 137.2377,-305.2375"/>
</g>
<!-- Node8994 -->
<g id="node12" class="node">
<title>Node8994</title>
<g id="a_node12"><a xlink:href="dict_8h.html#af5e7c4344dae37b2ae61c1b78c0cc1bc" target="_top" xlink:title="Copy a known or unknown attribute to produce an unknown attribute with the specified name...">
<polygon fill="none" stroke="#000000" points="124.5,-190.5 124.5,-209.5 243.5,-209.5 243.5,-190.5 124.5,-190.5"/>
<text text-anchor="middle" x="184" y="-197.5" font-family="Helvetica,sans-Serif" font-size="10.00" fill="#000000">fr_dict_unknown_acopy</text>
</a>
</g>
</g>
<!-- Node8983&#45;&gt;Node8994 -->
<g id="edge13" class="edge">
<title>Node8983&#45;&gt;Node8994</title>
<path fill="none" stroke="#191970" d="M51.0636,-266.1267C65.1023,-253.5014 91.1556,-231.7513 117,-219 121.6251,-216.718 126.5691,-214.669 131.5972,-212.8387"/>
<polygon fill="#191970" stroke="#191970" points="132.9389,-216.0805 141.3088,-209.5846 130.7149,-209.4432 132.9389,-216.0805"/>
</g>
<!-- Node9615 -->
<g id="node24" class="node">
<title>Node9615</title>
<g id="a_node24"><a xlink:href="talloc_8c.html#a138f6f827642983031220a425178e71d" target="_top" xlink:title="Binary safe strdup function. ">
<polygon fill="none" stroke="#000000" points="145.5,-152.5 145.5,-171.5 222.5,-171.5 222.5,-152.5 145.5,-152.5"/>
<text text-anchor="middle" x="184" y="-159.5" font-family="Helvetica,sans-Serif" font-size="10.00" fill="#000000">talloc_bstrdup</text>
</a>
</g>
</g>
<!-- Node8983&#45;&gt;Node9615 -->
<g id="edge28" class="edge">
<title>Node8983&#45;&gt;Node9615</title>
<path fill="none" stroke="#191970" d="M45.595,-266.2703C56.2028,-246.9802 82.5644,-203.7877 117,-181 122.6905,-177.2343 129.1283,-174.2056 135.7073,-171.7718"/>
<polygon fill="#191970" stroke="#191970" points="136.9567,-175.0458 145.3768,-168.6153 134.7844,-168.3914 136.9567,-175.0458"/>
</g>
<!-- Node9616 -->
<g id="node25" class="node">
<title>Node9616</title>
<g id="a_node25"><a xlink:href="tmpl__tokenize_8c.html#aa3efdc09f404512460dbf93bd5ce1279" target="_top" xlink:title="Allocate a new request reference and add it to the end of the attribute reference list...">
<polygon fill="none" stroke="#000000" points="138,-342.5 138,-361.5 230,-361.5 230,-342.5 138,-342.5"/>
<text text-anchor="middle" x="184" y="-349.5" font-family="Helvetica,sans-Serif" font-size="10.00" fill="#000000">tmpl_req_ref_add</text>
</a>
</g>
</g>
<!-- Node8983&#45;&gt;Node9616 -->
<g id="edge29" class="edge">
<title>Node8983&#45;&gt;Node9616</title>
<path fill="none" stroke="#191970" d="M51.0636,-285.8733C65.1023,-298.4986 91.1556,-320.2487 117,-333 121.6251,-335.282 126.5691,-337.331 131.5972,-339.1613"/>
<polygon fill="#191970" stroke="#191970" points="130.7149,-342.5568 141.3088,-342.4154 132.9389,-335.9195 130.7149,-342.5568"/>
</g>
<!-- Node8986 -->
<g id="node4" class="node">
<title>Node8986</title>
<g id="a_node4"><a xlink:href="dlist_8h.html#a728a6246588e70e075b074b3635d2663" target="_top" xlink:title="Return the TAIL item of a list or NULL if the list is empty. ">
<polygon fill="none" stroke="#000000" points="312.5,-304.5 312.5,-323.5 376.5,-323.5 376.5,-304.5 312.5,-304.5"/>
<text text-anchor="middle" x="344.5" y="-311.5" font-family="Helvetica,sans-Serif" font-size="10.00" fill="#000000">fr_dlist_tail</text>
</a>
</g>
</g>
<!-- Node8985&#45;&gt;Node8986 -->
<g id="edge3" class="edge">
<title>Node8985&#45;&gt;Node8986</title>
<path fill="none" stroke="#191970" d="M224.5009,-285.589C248.3092,-291.2258 278.362,-298.3412 302.4362,-304.041"/>
<polygon fill="#191970" stroke="#191970" points="301.8146,-307.4905 312.352,-306.3886 303.4274,-300.6788 301.8146,-307.4905"/>
</g>
<!-- Node8987 -->
<g id="node5" class="node">
<title>Node8987</title>
<g id="a_node5"><a xlink:href="dlist_8h.html#abc40bcac47679893e9ad3dbacf1b78ce" target="_top" xlink:title="Remove an item from the list. ">
<polygon fill="none" stroke="#000000" points="303,-266.5 303,-285.5 386,-285.5 386,-266.5 303,-266.5"/>
<text text-anchor="middle" x="344.5" y="-273.5" font-family="Helvetica,sans-Serif" font-size="10.00" fill="#000000">fr_dlist_remove</text>
</a>
</g>
</g>
<!-- Node8985&#45;&gt;Node8987 -->
<g id="edge4" class="edge">
<title>Node8985&#45;&gt;Node8987</title>
<path fill="none" stroke="#191970" d="M251.1365,-276C264.9638,-276 279.325,-276 292.5177,-276"/>
<polygon fill="#191970" stroke="#191970" points="292.8149,-279.5001 302.8149,-276 292.8148,-272.5001 292.8149,-279.5001"/>
</g>
<!-- Node8988 -->
<g id="node6" class="node">
<title>Node8988</title>
<g id="a_node6"><a xlink:href="dlist_8h.html#a744cb8537f617b6718254070a02f13a0" target="_top" xlink:title="Check whether a list has any items. ">
<polygon fill="none" stroke="#000000" points="457,-266.5 457,-285.5 535,-285.5 535,-266.5 457,-266.5"/>
<text text-anchor="middle" x="496" y="-273.5" font-family="Helvetica,sans-Serif" font-size="10.00" fill="#000000">fr_dlist_empty</text>
</a>
</g>
</g>
<!-- Node8987&#45;&gt;Node8988 -->
<g id="edge5" class="edge">
<title>Node8987&#45;&gt;Node8988</title>
<path fill="none" stroke="#191970" d="M386.2991,-276C405.0079,-276 427.2005,-276 446.7134,-276"/>
<polygon fill="#191970" stroke="#191970" points="446.9389,-279.5001 456.9388,-276 446.9388,-272.5001 446.9389,-279.5001"/>
</g>
<!-- Node8989 -->
<g id="node7" class="node">
<title>Node8989</title>
<g id="a_node7"><a xlink:href="dlist_8h.html#a50878590aabca4bc6fc4d1f6df0e724f" target="_top" xlink:title="Check if a list entry is part of a list. ">
<polygon fill="none" stroke="#000000" points="444,-304.5 444,-323.5 548,-323.5 548,-304.5 444,-304.5"/>
<text text-anchor="middle" x="496" y="-311.5" font-family="Helvetica,sans-Serif" font-size="10.00" fill="#000000">fr_dlist_entry_in_list</text>
</a>
</g>
</g>
<!-- Node8987&#45;&gt;Node8989 -->
<g id="edge6" class="edge">
<title>Node8987&#45;&gt;Node8989</title>
<path fill="none" stroke="#191970" d="M382.7298,-285.589C402.6319,-290.5809 427.1567,-296.7324 448.2909,-302.0334"/>
<polygon fill="#191970" stroke="#191970" points="447.494,-305.4418 458.0451,-304.4799 449.1971,-298.6521 447.494,-305.4418"/>
</g>
<!-- Node8991 -->
<g id="node9" class="node">
<title>Node8991</title>
<g id="a_node9"><a xlink:href="dlist_8h.html#a90c9ea299e869c463ab8109410112a97" target="_top" xlink:title="Return the HEAD item of a list or NULL if the list is empty. ">
<polygon fill="none" stroke="#000000" points="308.5,-228.5 308.5,-247.5 380.5,-247.5 380.5,-228.5 308.5,-228.5"/>
<text text-anchor="middle" x="344.5" y="-235.5" font-family="Helvetica,sans-Serif" font-size="10.00" fill="#000000">fr_dlist_head</text>
</a>
</g>
</g>
<!-- Node8990&#45;&gt;Node8991 -->
<g id="edge8" class="edge">
<title>Node8990&#45;&gt;Node8991</title>
<path fill="none" stroke="#191970" d="M219.2224,-238C242.4178,-238 273.0337,-238 298.1929,-238"/>
<polygon fill="#191970" stroke="#191970" points="298.2477,-241.5001 308.2477,-238 298.2476,-234.5001 298.2477,-241.5001"/>
</g>
<!-- Node8992&#45;&gt;Node8984 -->
<g id="edge10" class="edge">
<title>Node8992&#45;&gt;Node8984</title>
<path fill="none" stroke="#191970" d="M222.3273,-321.0826C232.1118,-323.8867 242.3119,-327.7403 251,-333 270.9016,-345.0482 267.3608,-358.5285 287,-371 290.159,-373.0061 293.5512,-374.8216 297.0505,-376.4608"/>
<polygon fill="#191970" stroke="#191970" points="295.901,-379.7737 306.4775,-380.3977 298.5987,-373.3143 295.901,-379.7737"/>
</g>
<!-- Node8992&#45;&gt;Node8986 -->
<g id="edge11" class="edge">
<title>Node8992&#45;&gt;Node8986</title>
<path fill="none" stroke="#191970" d="M222.0363,-314C246.1265,-314 277.3116,-314 302.1831,-314"/>
<polygon fill="#191970" stroke="#191970" points="302.4167,-317.5001 312.4167,-314 302.4167,-310.5001 302.4167,-317.5001"/>
</g>
<!-- Node8993 -->
<g id="node11" class="node">
<title>Node8993</title>
<g id="a_node11"><a xlink:href="dlist_8h.html#ae4fb05ae0fb121f4255153332d3dc477" target="_top" xlink:title="Insert an item into the tail of a list. ">
<polygon fill="none" stroke="#000000" points="298,-342.5 298,-361.5 391,-361.5 391,-342.5 298,-342.5"/>
<text text-anchor="middle" x="344.5" y="-349.5" font-family="Helvetica,sans-Serif" font-size="10.00" fill="#000000">fr_dlist_insert_tail</text>
</a>
</g>
</g>
<!-- Node8992&#45;&gt;Node8993 -->
<g id="edge12" class="edge">
<title>Node8992&#45;&gt;Node8993</title>
<path fill="none" stroke="#191970" d="M222.0363,-323.0055C243.6931,-328.133 271.084,-334.618 294.4669,-340.1542"/>
<polygon fill="#191970" stroke="#191970" points="293.6769,-343.5638 304.2143,-342.462 295.2897,-336.7521 293.6769,-343.5638"/>
</g>
<!-- Node8995 -->
<g id="node13" class="node">
<title>Node8995</title>
<g id="a_node13"><a xlink:href="dict__priv_8h.html#a4166602674502233a29f38b5cfecd15f" target="_top" xlink:title="Allocate a partially completed attribute. ">
<polygon fill="none" stroke="#000000" points="295.5,-190.5 295.5,-209.5 393.5,-209.5 393.5,-190.5 295.5,-190.5"/>
<text text-anchor="middle" x="344.5" y="-197.5" font-family="Helvetica,sans-Serif" font-size="10.00" fill="#000000">dict_attr_alloc_null</text>
</a>
</g>
</g>
<!-- Node8994&#45;&gt;Node8995 -->
<g id="edge14" class="edge">
<title>Node8994&#45;&gt;Node8995</title>
<path fill="none" stroke="#191970" d="M243.7643,-200C257.3295,-200 271.7317,-200 285.2744,-200"/>
<polygon fill="#191970" stroke="#191970" points="285.4351,-203.5001 295.435,-200 285.435,-196.5001 285.4351,-203.5001"/>
</g>
<!-- Node8996 -->
<g id="node14" class="node">
<title>Node8996</title>
<g id="a_node14"><a xlink:href="dict__priv_8h.html#a0fdc97e0a12a818ad9b28c9b24aa164e" target="_top" xlink:title="Initialise fields in a dictionary attribute structure. ">
<polygon fill="none" stroke="#000000" points="309.5,-152.5 309.5,-171.5 379.5,-171.5 379.5,-152.5 309.5,-152.5"/>
<text text-anchor="middle" x="344.5" y="-159.5" font-family="Helvetica,sans-Serif" font-size="10.00" fill="#000000">dict_attr_init</text>
</a>
</g>
</g>
<!-- Node8994&#45;&gt;Node8996 -->
<g id="edge15" class="edge">
<title>Node8994&#45;&gt;Node8996</title>
<path fill="none" stroke="#191970" d="M224.5009,-190.411C247.4153,-184.9858 276.1143,-178.191 299.7001,-172.6068"/>
<polygon fill="#191970" stroke="#191970" points="300.5389,-176.0051 309.4635,-170.2952 298.9262,-169.1934 300.5389,-176.0051"/>
</g>
<!-- Node9273 -->
<g id="node23" class="node">
<title>Node9273</title>
<g id="a_node23"><a xlink:href="dict__ext__priv_8h.html#a7b7fd09119facd0a7f678240ccac9e5b" target="_top" xlink:title="Copy all attribute extensions from one attribute to another. ">
<polygon fill="none" stroke="#ff0000" points="288.5,-114.5 288.5,-133.5 400.5,-133.5 400.5,-114.5 288.5,-114.5"/>
<text text-anchor="middle" x="344.5" y="-121.5" font-family="Helvetica,sans-Serif" font-size="10.00" fill="#000000">dict_attr_ext_copy_all</text>
</a>
</g>
</g>
<!-- Node8994&#45;&gt;Node9273 -->
<g id="edge27" class="edge">
<title>Node8994&#45;&gt;Node9273</title>
<path fill="none" stroke="#191970" d="M230.066,-190.4918C237.351,-187.9983 244.5874,-184.8821 251,-181 270.9016,-168.9518 267.3608,-155.4715 287,-143 290.159,-140.9939 293.5512,-139.1784 297.0505,-137.5392"/>
<polygon fill="#191970" stroke="#191970" points="298.5987,-140.6857 306.4775,-133.6023 295.901,-134.2263 298.5987,-140.6857"/>
</g>
<!-- Node8997 -->
<g id="node15" class="node">
<title>Node8997</title>
<g id="a_node15"><a xlink:href="dict__util_8c.html#ae9cceb081a5c1139762368ce042b05dd" target="_top" xlink:title="Cache the vendor pointer for an attribute. ">
<polygon fill="none" stroke="#000000" points="443.5,-152.5 443.5,-171.5 548.5,-171.5 548.5,-152.5 443.5,-152.5"/>
<text text-anchor="middle" x="496" y="-159.5" font-family="Helvetica,sans-Serif" font-size="10.00" fill="#000000">dict_attr_vendor_set</text>
</a>
</g>
</g>
<!-- Node8996&#45;&gt;Node8997 -->
<g id="edge16" class="edge">
<title>Node8996&#45;&gt;Node8997</title>
<path fill="none" stroke="#191970" d="M379.6379,-162C395.5687,-162 414.9018,-162 433.1966,-162"/>
<polygon fill="#191970" stroke="#191970" points="433.2254,-165.5001 443.2253,-162 433.2253,-158.5001 433.2254,-165.5001"/>
</g>
<!-- Node9200 -->
<g id="node17" class="node">
<title>Node9200</title>
<g id="a_node17"><a xlink:href="dict__ext__priv_8h.html#a9c50ccc298dda3b2170ee6caf740c9d3" target="_top" xlink:title="Copy a single attribute extension from one attribute to another. ">
<polygon fill="none" stroke="#ff0000" points="447.5,-114.5 447.5,-133.5 544.5,-133.5 544.5,-114.5 447.5,-114.5"/>
<text text-anchor="middle" x="496" y="-121.5" font-family="Helvetica,sans-Serif" font-size="10.00" fill="#000000">dict_attr_ext_copy</text>
</a>
</g>
</g>
<!-- Node8996&#45;&gt;Node9200 -->
<g id="edge18" class="edge">
<title>Node8996&#45;&gt;Node9200</title>
<path fill="none" stroke="#191970" d="M379.6379,-153.1865C399.9529,-148.091 425.8007,-141.6078 447.9726,-136.0465"/>
<polygon fill="#191970" stroke="#191970" points="449.02,-139.3923 457.868,-133.5645 447.3169,-132.6026 449.02,-139.3923"/>
</g>
<!-- Node9205 -->
<g id="node18" class="node">
<title>Node9205</title>
<g id="a_node18"><a xlink:href="dict__util_8c.html#a485f68f0cac0fa16e18d62bd7691bbc8" target="_top" xlink:title="Initialise an attribute&#39;s da stack from its parent. ">
<polygon fill="none" stroke="#ff0000" points="438,-76.5 438,-95.5 554,-95.5 554,-76.5 438,-76.5"/>
<text text-anchor="middle" x="496" y="-83.5" font-family="Helvetica,sans-Serif" font-size="10.00" fill="#000000">dict_attr_da_stack_set</text>
</a>
</g>
</g>
<!-- Node8996&#45;&gt;Node9205 -->
<g id="edge19" class="edge">
<title>Node8996&#45;&gt;Node9205</title>
<path fill="none" stroke="#191970" d="M379.8016,-153.3823C387.4469,-150.6981 395.2548,-147.2834 402,-143 421.6392,-130.5285 418.3448,-117.4462 438,-105 441.1864,-102.9823 444.608,-101.1584 448.1377,-99.5133"/>
<polygon fill="#191970" stroke="#191970" points="449.7524,-102.6327 457.6466,-95.5664 447.0688,-96.1675 449.7524,-102.6327"/>
</g>
<!-- Node9207 -->
<g id="node19" class="node">
<title>Node9207</title>
<g id="a_node19"><a xlink:href="dict__util_8c.html#a6b93daa336ad9d4bcfc49315df6a8fc9" target="_top" xlink:title="Set a reference for a grouping attribute. ">
<polygon fill="none" stroke="#000000" points="453,-.5 453,-19.5 539,-19.5 539,-.5 453,-.5"/>
<text text-anchor="middle" x="496" y="-7.5" font-family="Helvetica,sans-Serif" font-size="10.00" fill="#000000">dict_attr_ref_init</text>
</a>
</g>
</g>
<!-- Node8996&#45;&gt;Node9207 -->
<g id="edge20" class="edge">
<title>Node8996&#45;&gt;Node9207</title>
<path fill="none" stroke="#191970" d="M379.6884,-156.1038C387.8688,-153.2909 395.9445,-149.1363 402,-143 439.3207,-105.181 400.6307,-66.771 438,-29 439.8258,-27.1546 441.8334,-25.4883 443.9712,-23.9839"/>
<polygon fill="#191970" stroke="#191970" points="445.8205,-26.9581 452.7535,-18.9466 442.3377,-20.886 445.8205,-26.9581"/>
</g>
<!-- Node9208 -->
<g id="node20" class="node">
<title>Node9208</title>
<g id="a_node20"><a xlink:href="dict__util_8c.html#a904b0d65ba5afe4664e607aa86a2300e" target="_top" xlink:title="Add a child/nesting extension to an attribute. ">
<polygon fill="none" stroke="#000000" points="441.5,-228.5 441.5,-247.5 550.5,-247.5 550.5,-228.5 441.5,-228.5"/>
<text text-anchor="middle" x="496" y="-235.5" font-family="Helvetica,sans-Serif" font-size="10.00" fill="#000000">dict_attr_children_init</text>
</a>
</g>
</g>
<!-- Node8996&#45;&gt;Node9208 -->
<g id="edge22" class="edge">
<title>Node8996&#45;&gt;Node9208</title>
<path fill="none" stroke="#191970" d="M379.8016,-170.6177C387.4469,-173.3019 395.2548,-176.7166 402,-181 421.6392,-193.4715 418.3448,-206.5538 438,-219 441.1864,-221.0177 444.608,-222.8416 448.1377,-224.4867"/>
<polygon fill="#191970" stroke="#191970" points="447.0688,-227.8325 457.6466,-228.4336 449.7524,-221.3673 447.0688,-227.8325"/>
</g>
<!-- Node9209 -->
<g id="node21" class="node">
<title>Node9209</title>
<g id="a_node21"><a xlink:href="dict__util_8c.html#a9c972082027336370f305f77b6f83176" target="_top" xlink:title="Cache the vendor pointer for an attribute. ">
<polygon fill="none" stroke="#000000" points="444,-190.5 444,-209.5 548,-209.5 548,-190.5 444,-190.5"/>
<text text-anchor="middle" x="496" y="-197.5" font-family="Helvetica,sans-Serif" font-size="10.00" fill="#000000">dict_attr_enumv_init</text>
</a>
</g>
</g>
<!-- Node8996&#45;&gt;Node9209 -->
<g id="edge24" class="edge">
<title>Node8996&#45;&gt;Node9209</title>
<path fill="none" stroke="#191970" d="M379.6379,-170.8135C399.9529,-175.909 425.8007,-182.3922 447.9726,-187.9535"/>
<polygon fill="#191970" stroke="#191970" points="447.3169,-191.3974 457.868,-190.4355 449.02,-184.6077 447.3169,-191.3974"/>
</g>
<!-- Node9210 -->
<g id="node22" class="node">
<title>Node9210</title>
<g id="a_node22"><a xlink:href="dict__util_8c.html#ae5964793c972dfa482c1086ed37f344c" target="_top" xlink:title="Set a dictionary attribute&#39;s name. ">
<polygon fill="none" stroke="#ff0000" points="446,-38.5 446,-57.5 546,-57.5 546,-38.5 446,-38.5"/>
<text text-anchor="middle" x="496" y="-45.5" font-family="Helvetica,sans-Serif" font-size="10.00" fill="#000000">dict_attr_name_set</text>
</a>
</g>
</g>
<!-- Node8996&#45;&gt;Node9210 -->
<g id="edge26" class="edge">
<title>Node8996&#45;&gt;Node9210</title>
<path fill="none" stroke="#191970" d="M379.7274,-155.3046C387.7191,-152.514 395.6977,-148.5698 402,-143 430.0058,-118.249 409.9624,-91.715 438,-67 439.9126,-65.314 441.9782,-63.7771 444.1509,-62.3762"/>
<polygon fill="#191970" stroke="#191970" points="445.8282,-65.4482 452.9663,-57.6188 442.5038,-59.288 445.8282,-65.4482"/>
</g>
<!-- Node8998 -->
<g id="node16" class="node">
<title>Node8998</title>
<g id="a_node16"><a xlink:href="dict__ext__priv_8h.html#a493cb03b182e5b965f7a457a8b6c756c" target="_top" xlink:title="Allocate an attribute extension. ">
<polygon fill="none" stroke="#ff0000" points="590,-171.5 590,-190.5 686,-190.5 686,-171.5 590,-171.5"/>
<text text-anchor="middle" x="638" y="-178.5" font-family="Helvetica,sans-Serif" font-size="10.00" fill="#000000">dict_attr_ext_alloc</text>
</a>
</g>
</g>
<!-- Node8997&#45;&gt;Node8998 -->
<g id="edge17" class="edge">
<title>Node8997&#45;&gt;Node8998</title>
<path fill="none" stroke="#191970" d="M548.8756,-169.0749C558.9293,-170.4201 569.5026,-171.8349 579.7133,-173.2011"/>
<polygon fill="#191970" stroke="#191970" points="579.3946,-176.6895 589.7705,-174.5468 580.323,-169.7514 579.3946,-176.6895"/>
</g>
<!-- Node9207&#45;&gt;Node8998 -->
<g id="edge21" class="edge">
<title>Node9207&#45;&gt;Node8998</title>
<path fill="none" stroke="#191970" d="M538.2188,-19.6138C543.8902,-22.072 549.3467,-25.1497 554,-29 597.4098,-64.9192 622.2042,-129.3942 632.4291,-161.5944"/>
<polygon fill="#191970" stroke="#191970" points="629.0883,-162.6384 635.344,-171.1893 635.786,-160.6036 629.0883,-162.6384"/>
</g>
<!-- Node9208&#45;&gt;Node8998 -->
<g id="edge23" class="edge">
<title>Node9208&#45;&gt;Node8998</title>
<path fill="none" stroke="#191970" d="M527.2233,-228.4579C535.9568,-225.6037 545.4077,-222.3396 554,-219 572.6556,-211.7491 593.1282,-202.5151 609.1916,-194.9654"/>
<polygon fill="#191970" stroke="#191970" points="611.0345,-197.965 618.5678,-190.5151 608.033,-191.6412 611.0345,-197.965"/>
</g>
<!-- Node9209&#45;&gt;Node8998 -->
<g id="edge25" class="edge">
<title>Node9209&#45;&gt;Node8998</title>
<path fill="none" stroke="#191970" d="M548.0692,-193.033C558.3864,-191.6525 569.279,-190.1951 579.7853,-188.7893"/>
<polygon fill="#191970" stroke="#191970" points="580.2611,-192.2569 589.7085,-187.4615 579.3327,-185.3187 580.2611,-192.2569"/>
</g>
<!-- Node9616&#45;&gt;Node8984 -->
<g id="edge30" class="edge">
<title>Node9616&#45;&gt;Node8984</title>
<path fill="none" stroke="#191970" d="M224.5009,-361.589C245.6806,-366.6035 271.8022,-372.7881 294.2604,-378.1053"/>
<polygon fill="#191970" stroke="#191970" points="293.7529,-381.5818 304.2903,-380.4799 295.3657,-374.7701 293.7529,-381.5818"/>
</g>
<!-- Node9616&#45;&gt;Node8986 -->
<g id="edge31" class="edge">
<title>Node9616&#45;&gt;Node8986</title>
<path fill="none" stroke="#191970" d="M224.5009,-342.411C248.3092,-336.7742 278.362,-329.6588 302.4362,-323.959"/>
<polygon fill="#191970" stroke="#191970" points="303.4274,-327.3212 312.352,-321.6114 301.8146,-320.5095 303.4274,-327.3212"/>
</g>
<!-- Node9616&#45;&gt;Node8993 -->
<g id="edge32" class="edge">
<title>Node9616&#45;&gt;Node8993</title>
<path fill="none" stroke="#191970" d="M230.4233,-352C248.3117,-352 268.9451,-352 287.7039,-352"/>
<polygon fill="#191970" stroke="#191970" points="287.9033,-355.5001 297.9033,-352 287.9032,-348.5001 287.9033,-355.5001"/>
</g>
</g>
</svg>
