<?xml version="1.0" encoding="UTF-8" standalone="no"?>
<!DOCTYPE svg PUBLIC "-//W3C//DTD SVG 1.1//EN"
 "http://www.w3.org/Graphics/SVG/1.1/DTD/svg11.dtd">
<!-- Generated by graphviz version 2.40.1 (20161225.0304)
 -->
<!-- Title: trunk_connection_auto_full Pages: 1 -->
<!--zoomable 145 -->
<svg id="main" version="1.1" xmlns="http://www.w3.org/2000/svg" xmlns:xlink="http://www.w3.org/1999/xlink" xml:space="preserve" onload="init(evt)">
<style type="text/css"><![CDATA[
.edge:hover path { stroke: red; }
.edge:hover polygon { stroke: red; fill: red; }
]]></style>
<script type="text/javascript"><![CDATA[
var edges = document.getElementsByTagName('g');
if (edges && edges.length) {
  for (var i=0;i<edges.length;i++) {
    if (edges[i].id.substr(0,4)=='edge') {
      edges[i].setAttribute('class','edge');
    }
  }
}
]]></script>
        <defs>
                <circle id="rim" cx="0" cy="0" r="7"/>
                <circle id="rim2" cx="0" cy="0" r="3.5"/>
                <g id="zoomPlus">
                        <use xlink:href="#rim" fill="#404040">
                                <set attributeName="fill" to="#808080" begin="zoomplus.mouseover" end="zoomplus.mouseout"/>
                        </use>
                        <path d="M-4,0h8M0,-4v8" fill="none" stroke="white" stroke-width="1.5" pointer-events="none"/>
                </g>
                <g id="zoomMin">
                        <use xlink:href="#rim" fill="#404040">
                                <set attributeName="fill" to="#808080" begin="zoomminus.mouseover" end="zoomminus.mouseout"/>
                        </use>
                        <path d="M-4,0h8" fill="none" stroke="white" stroke-width="1.5" pointer-events="none"/>
                </g>
                <g id="dirArrow">
                        <path fill="none" stroke="white" stroke-width="1.5" d="M0,-3.0v7 M-2.5,-0.5L0,-3.0L2.5,-0.5"/>
                </g>
               <g id="resetDef">
                       <use xlink:href="#rim2" fill="#404040">
                               <set attributeName="fill" to="#808080" begin="reset.mouseover" end="reset.mouseout"/>
                       </use>
               </g>
        </defs>

<script type="text/javascript">
var viewWidth = 719;
var viewHeight = 145;
var sectionId = 'dynsection-50';
</script>
<script xlink:href="svgpan.js"/>
<svg id="graph" class="graph">
<g id="viewport">
<title>trunk_connection_auto_full</title>
<!-- Node18966 -->
<g id="node1" class="node">
<title>Node18966</title>
<polygon fill="#bfbfbf" stroke="#000000" points="0,-58.5 0,-77.5 133,-77.5 133,-58.5 0,-58.5"/>
<text text-anchor="middle" x="66.5" y="-65.5" font-family="Helvetica,sans-Serif" font-size="10.00" fill="#000000">trunk_connection_auto_full</text>
</g>
<!-- Node18967 -->
<g id="node2" class="node">
<title>Node18967</title>
<g id="a_node2"><a xlink:href="trunk_8c.html#a4a0a08064485793b003756b197ca6622" target="_top" xlink:title="Return the count number of requests associated with a trunk connection. ">
<polygon fill="none" stroke="#000000" points="179,-75 179,-105 295,-105 295,-75 179,-75"/>
<text text-anchor="start" x="187" y="-93" font-family="Helvetica,sans-Serif" font-size="10.00" fill="#000000">fr_trunk_request_count</text>
<text text-anchor="middle" x="237" y="-82" font-family="Helvetica,sans-Serif" font-size="10.00" fill="#000000">_by_connection</text>
</a>
</g>
</g>
<!-- Node18966&#45;&gt;Node18967 -->
<g id="edge1" class="edge">
<title>Node18966&#45;&gt;Node18967</title>
<path fill="none" stroke="#191970" d="M133.3968,-76.6318C145.0141,-78.1308 157.1087,-79.6914 168.7613,-81.195"/>
<polygon fill="#191970" stroke="#191970" points="168.4989,-84.6901 178.8646,-82.4987 169.3948,-77.7476 168.4989,-84.6901"/>
</g>
<!-- Node18970 -->
<g id="node5" class="node">
<title>Node18970</title>
<g id="a_node5"><a xlink:href="trunk_8c.html#ab6fc19d1e914bf05a27300a5875151a5" target="_top" xlink:title="Transition a connection to the full state. ">
<polygon fill="none" stroke="#000000" points="169,-36.5 169,-55.5 305,-55.5 305,-36.5 169,-36.5"/>
<text text-anchor="middle" x="237" y="-43.5" font-family="Helvetica,sans-Serif" font-size="10.00" fill="#000000">trunk_connection_enter_full</text>
</a>
</g>
</g>
<!-- Node18966&#45;&gt;Node18970 -->
<g id="edge4" class="edge">
<title>Node18966&#45;&gt;Node18970</title>
<path fill="none" stroke="#191970" d="M133.3968,-59.3682C141.7786,-58.2866 150.409,-57.173 158.9426,-56.0719"/>
<polygon fill="#191970" stroke="#191970" points="159.4253,-59.5388 168.8951,-54.7877 158.5294,-52.5963 159.4253,-59.5388"/>
</g>
<!-- Node18968 -->
<g id="node3" class="node">
<title>Node18968</title>
<g id="a_node3"><a xlink:href="heap_8c.html#a3090137dd1e54a14bf4fc24f373c7627" target="_top" xlink:title="fr_heap_num_elements">
<polygon fill="none" stroke="#000000" points="346,-117.5 346,-136.5 464,-136.5 464,-117.5 346,-117.5"/>
<text text-anchor="middle" x="405" y="-124.5" font-family="Helvetica,sans-Serif" font-size="10.00" fill="#000000">fr_heap_num_elements</text>
</a>
</g>
</g>
<!-- Node18967&#45;&gt;Node18968 -->
<g id="edge2" class="edge">
<title>Node18967&#45;&gt;Node18968</title>
<path fill="none" stroke="#191970" d="M295.2868,-102.837C313.593,-106.8687 333.7024,-111.2975 351.6487,-115.25"/>
<polygon fill="#191970" stroke="#191970" points="351.1334,-118.7203 361.6522,-117.4532 352.6391,-111.8842 351.1334,-118.7203"/>
</g>
<!-- Node18969 -->
<g id="node4" class="node">
<title>Node18969</title>
<g id="a_node4"><a xlink:href="dlist_8h.html#ad852b167828d7848ed99ee9cae167218" target="_top" xlink:title="Return the number of elements in the dlist. ">
<polygon fill="none" stroke="#000000" points="347.5,-79.5 347.5,-98.5 462.5,-98.5 462.5,-79.5 347.5,-79.5"/>
<text text-anchor="middle" x="405" y="-86.5" font-family="Helvetica,sans-Serif" font-size="10.00" fill="#000000">fr_dlist_num_elements</text>
</a>
</g>
</g>
<!-- Node18967&#45;&gt;Node18969 -->
<g id="edge3" class="edge">
<title>Node18967&#45;&gt;Node18969</title>
<path fill="none" stroke="#191970" d="M295.2868,-89.6531C308.8611,-89.5723 323.427,-89.4856 337.3672,-89.4026"/>
<polygon fill="#191970" stroke="#191970" points="337.4051,-92.9025 347.3841,-89.343 337.3634,-85.9026 337.4051,-92.9025"/>
</g>
<!-- Node18971 -->
<g id="node6" class="node">
<title>Node18971</title>
<g id="a_node6"><a xlink:href="trunk_8c.html#af55aeabd0743377eb3f519244d2f10d6" target="_top" xlink:title="Remove a trunk connection from whichever list it&#39;s currently in. ">
<polygon fill="none" stroke="#000000" points="341,-38.5 341,-57.5 469,-57.5 469,-38.5 341,-38.5"/>
<text text-anchor="middle" x="405" y="-45.5" font-family="Helvetica,sans-Serif" font-size="10.00" fill="#000000">trunk_connection_remove</text>
</a>
</g>
</g>
<!-- Node18970&#45;&gt;Node18971 -->
<g id="edge5" class="edge">
<title>Node18970&#45;&gt;Node18971</title>
<path fill="none" stroke="#191970" d="M305.332,-46.8135C313.6633,-46.9127 322.2079,-47.0144 330.6219,-47.1145"/>
<polygon fill="#191970" stroke="#191970" points="330.7563,-50.6163 340.7973,-47.2357 330.8397,-43.6168 330.7563,-50.6163"/>
</g>
<!-- Node19600 -->
<g id="node12" class="node">
<title>Node19600</title>
<g id="a_node12"><a xlink:href="dlist_8h.html#aca8eed7f7758b61446174a5a4d54e7b4" target="_top" xlink:title="Insert an item into the head of a list. ">
<polygon fill="none" stroke="#000000" points="354.5,-.5 354.5,-19.5 455.5,-19.5 455.5,-.5 354.5,-.5"/>
<text text-anchor="middle" x="405" y="-7.5" font-family="Helvetica,sans-Serif" font-size="10.00" fill="#000000">fr_dlist_insert_head</text>
</a>
</g>
</g>
<!-- Node18970&#45;&gt;Node19600 -->
<g id="edge11" class="edge">
<title>Node18970&#45;&gt;Node19600</title>
<path fill="none" stroke="#191970" d="M281.5798,-36.4472C302.7387,-31.9131 328.2131,-26.4543 350.5097,-21.6765"/>
<polygon fill="#191970" stroke="#191970" points="351.4589,-25.0526 360.5036,-19.5349 349.9922,-18.208 351.4589,-25.0526"/>
</g>
<!-- Node18972 -->
<g id="node7" class="node">
<title>Node18972</title>
<g id="a_node7"><a xlink:href="heap_8c.html#a2071e6c3699b74317dc7968e377fdced" target="_top" xlink:title="Remove a node from the heap. ">
<polygon fill="none" stroke="#000000" points="505,-76.5 505,-95.5 589,-95.5 589,-76.5 505,-76.5"/>
<text text-anchor="middle" x="547" y="-83.5" font-family="Helvetica,sans-Serif" font-size="10.00" fill="#000000">fr_heap_extract</text>
</a>
</g>
</g>
<!-- Node18971&#45;&gt;Node18972 -->
<g id="edge6" class="edge">
<title>Node18971&#45;&gt;Node18972</title>
<path fill="none" stroke="#191970" d="M440.8326,-57.589C459.1634,-62.4944 481.6784,-68.5196 501.2501,-73.7571"/>
<polygon fill="#191970" stroke="#191970" points="500.614,-77.2099 511.1789,-76.4141 502.4236,-70.4479 500.614,-77.2099"/>
</g>
<!-- Node19088 -->
<g id="node10" class="node">
<title>Node19088</title>
<g id="a_node10"><a xlink:href="strerror_8c.html#a83ee876ee41b1ae672dc4dcda4f02a2e" target="_top" xlink:title="Get the last library error. ">
<polygon fill="none" stroke="#ff0000" points="517.5,-38.5 517.5,-57.5 576.5,-57.5 576.5,-38.5 517.5,-38.5"/>
<text text-anchor="middle" x="547" y="-45.5" font-family="Helvetica,sans-Serif" font-size="10.00" fill="#000000">fr_strerror</text>
</a>
</g>
</g>
<!-- Node18971&#45;&gt;Node19088 -->
<g id="edge9" class="edge">
<title>Node18971&#45;&gt;Node19088</title>
<path fill="none" stroke="#191970" d="M469.3524,-48C482.1621,-48 495.2629,-48 506.9674,-48"/>
<polygon fill="#191970" stroke="#191970" points="507.2754,-51.5001 517.2754,-48 507.2754,-44.5001 507.2754,-51.5001"/>
</g>
<!-- Node19075 -->
<g id="node11" class="node">
<title>Node19075</title>
<g id="a_node11"><a xlink:href="dlist_8h.html#abc40bcac47679893e9ad3dbacf1b78ce" target="_top" xlink:title="Remove an item from the list. ">
<polygon fill="none" stroke="#ff0000" points="505.5,-.5 505.5,-19.5 588.5,-19.5 588.5,-.5 505.5,-.5"/>
<text text-anchor="middle" x="547" y="-7.5" font-family="Helvetica,sans-Serif" font-size="10.00" fill="#000000">fr_dlist_remove</text>
</a>
</g>
</g>
<!-- Node18971&#45;&gt;Node19075 -->
<g id="edge10" class="edge">
<title>Node18971&#45;&gt;Node19075</title>
<path fill="none" stroke="#191970" d="M440.8326,-38.411C459.1634,-33.5056 481.6784,-27.4804 501.2501,-22.2429"/>
<polygon fill="#191970" stroke="#191970" points="502.4236,-25.5521 511.1789,-19.5859 500.614,-18.7901 502.4236,-25.5521"/>
</g>
<!-- Node18973 -->
<g id="node8" class="node">
<title>Node18973</title>
<g id="a_node8"><a xlink:href="strerror_8c.html#ae701765650b8aea79a3037bc4921d7f8" target="_top" xlink:title="Log to thread local error buffer. ">
<polygon fill="none" stroke="#ff0000" points="625,-95.5 625,-114.5 711,-114.5 711,-95.5 625,-95.5"/>
<text text-anchor="middle" x="668" y="-102.5" font-family="Helvetica,sans-Serif" font-size="10.00" fill="#000000">fr_strerror_printf</text>
</a>
</g>
</g>
<!-- Node18972&#45;&gt;Node18973 -->
<g id="edge7" class="edge">
<title>Node18972&#45;&gt;Node18973</title>
<path fill="none" stroke="#191970" d="M589.3199,-92.6453C597.4596,-93.9234 606.0833,-95.2775 614.5223,-96.6027"/>
<polygon fill="#191970" stroke="#191970" points="614.2574,-100.1039 624.6793,-98.1976 615.3433,-93.1886 614.2574,-100.1039"/>
</g>
<!-- Node19599 -->
<g id="node9" class="node">
<title>Node19599</title>
<g id="a_node9"><a xlink:href="heap_8c.html#ae3fc67f3c57bcaa3cf2d56ee4f8552fa" target="_top" xlink:title="fr_heap_bubble">
<polygon fill="none" stroke="#000000" points="626.5,-57.5 626.5,-76.5 709.5,-76.5 709.5,-57.5 626.5,-57.5"/>
<text text-anchor="middle" x="668" y="-64.5" font-family="Helvetica,sans-Serif" font-size="10.00" fill="#000000">fr_heap_bubble</text>
</a>
</g>
</g>
<!-- Node18972&#45;&gt;Node19599 -->
<g id="edge8" class="edge">
<title>Node18972&#45;&gt;Node19599</title>
<path fill="none" stroke="#191970" d="M589.3199,-79.3547C598.0346,-77.9863 607.3041,-76.5308 616.3077,-75.117"/>
<polygon fill="#191970" stroke="#191970" points="616.9803,-78.5543 626.3163,-73.5454 615.8944,-71.6391 616.9803,-78.5543"/>
</g>
</g>
</svg>
        <g id="navigator" transform="translate(0 0)" fill="#404254">
                <rect fill="#f2f5e9" fill-opacity="0.5" stroke="#606060" stroke-width=".5" x="0" y="0" width="60" height="60"/>
                <use id="zoomplus" xlink:href="#zoomPlus" x="17" y="9" onmousedown="handleZoom(evt,'in')"/>
                <use id="zoomminus" xlink:href="#zoomMin" x="42" y="9" onmousedown="handleZoom(evt,'out')"/>
                <use id="reset" xlink:href="#resetDef" x="30" y="36" onmousedown="handleReset()"/>
                <g id="arrowUp" xlink:href="#dirArrow" transform="translate(30 24)" onmousedown="handlePan(0,-1)">
                  <use xlink:href="#rim" fill="#404040">
                        <set attributeName="fill" to="#808080" begin="arrowUp.mouseover" end="arrowUp.mouseout"/>
                  </use>
                  <path fill="none" stroke="white" stroke-width="1.5" d="M0,-3.0v7 M-2.5,-0.5L0,-3.0L2.5,-0.5"/>
                </g>
                <g id="arrowRight" xlink:href="#dirArrow" transform="rotate(90) translate(36 -43)" onmousedown="handlePan(1,0)">
                  <use xlink:href="#rim" fill="#404040">
                        <set attributeName="fill" to="#808080" begin="arrowRight.mouseover" end="arrowRight.mouseout"/>
                  </use>
                  <path fill="none" stroke="white" stroke-width="1.5" d="M0,-3.0v7 M-2.5,-0.5L0,-3.0L2.5,-0.5"/>
                </g>
                <g id="arrowDown" xlink:href="#dirArrow" transform="rotate(180) translate(-30 -48)" onmousedown="handlePan(0,1)">
                  <use xlink:href="#rim" fill="#404040">
                        <set attributeName="fill" to="#808080" begin="arrowDown.mouseover" end="arrowDown.mouseout"/>
                  </use>
                  <path fill="none" stroke="white" stroke-width="1.5" d="M0,-3.0v7 M-2.5,-0.5L0,-3.0L2.5,-0.5"/>
                </g>
                <g id="arrowLeft" xlink:href="#dirArrow" transform="rotate(270) translate(-36 17)" onmousedown="handlePan(-1,0)">
                  <use xlink:href="#rim" fill="#404040">
                        <set attributeName="fill" to="#808080" begin="arrowLeft.mouseover" end="arrowLeft.mouseout"/>
                  </use>
                  <path fill="none" stroke="white" stroke-width="1.5" d="M0,-3.0v7 M-2.5,-0.5L0,-3.0L2.5,-0.5"/>
                </g>
        </g>
        <svg viewBox="0 0 15 15" width="100%" height="30px" preserveAspectRatio="xMaxYMin meet">
         <g id="arrow_out" transform="scale(0.3 0.3)">
          <a xlink:href="trunk_8c_a760b35001666e51adba8ade225653c61_cgraph_org.svg" target="_base">
           <rect id="button" ry="5" rx="5" y="6" x="6" height="38" width="38"
                fill="#f2f5e9" fill-opacity="0.5" stroke="#606060" stroke-width="1.0"/>
           <path id="arrow"
             d="M 11.500037,31.436501 C 11.940474,20.09759 22.043105,11.32322 32.158766,21.979434 L 37.068811,17.246167 C 37.068811,17.246167 37.088388,32 37.088388,32 L 22.160133,31.978069 C 22.160133,31.978069 26.997745,27.140456 26.997745,27.140456 C 18.528582,18.264221 13.291696,25.230495 11.500037,31.436501 z"
             style="fill:#404040;"/>
          </a>
         </g>
        </svg>
</svg>
