<?xml version="1.0" encoding="UTF-8" standalone="no"?>
<!DOCTYPE svg PUBLIC "-//W3C//DTD SVG 1.1//EN"
 "http://www.w3.org/Graphics/SVG/1.1/DTD/svg11.dtd">
<!-- Generated by graphviz version 2.40.1 (20161225.0304)
 -->
<!-- Title: fr_worker_post_event Pages: 1 -->
<svg width="1160pt" height="505pt"
 viewBox="0.00 0.00 1160.00 504.50" xmlns="http://www.w3.org/2000/svg" xmlns:xlink="http://www.w3.org/1999/xlink">
<g id="graph0" class="graph" transform="scale(1 1) rotate(0) translate(4 500.5)">
<title>fr_worker_post_event</title>
<!-- Node2705 -->
<g id="node1" class="node">
<title>Node2705</title>
<polygon fill="#bfbfbf" stroke="#000000" points="0,-114.5 0,-133.5 110,-133.5 110,-114.5 0,-114.5"/>
<text text-anchor="middle" x="55" y="-121.5" font-family="Helvetica,sans-Serif" font-size="10.00" fill="#000000">fr_worker_post_event</text>
</g>
<!-- Node2706 -->
<g id="node2" class="node">
<title>Node2706</title>
<g id="a_node2"><a xlink:href="worker_8c.html#a1c41db86e6a1350fb533d384d760daf5" target="_top" xlink:title="Run a request. ">
<polygon fill="none" stroke="#000000" points="146,-114.5 146,-133.5 248,-133.5 248,-114.5 146,-114.5"/>
<text text-anchor="middle" x="197" y="-121.5" font-family="Helvetica,sans-Serif" font-size="10.00" fill="#000000">worker_run_request</text>
</a>
</g>
</g>
<!-- Node2705&#45;&gt;Node2706 -->
<g id="edge1" class="edge">
<title>Node2705&#45;&gt;Node2706</title>
<path fill="none" stroke="#191970" d="M110.3075,-124C118.612,-124 127.218,-124 135.6396,-124"/>
<polygon fill="#191970" stroke="#191970" points="135.7881,-127.5001 145.788,-124 135.788,-120.5001 135.7881,-127.5001"/>
</g>
<!-- Node2707 -->
<g id="node3" class="node">
<title>Node2707</title>
<g id="a_node3"><a xlink:href="heap_8c.html#a537b78e2aadcea01e56702a1064d1e8e" target="_top" xlink:title="fr_heap_pop">
<polygon fill="none" stroke="#000000" points="305,-152.5 305,-171.5 375,-171.5 375,-152.5 305,-152.5"/>
<text text-anchor="middle" x="340" y="-159.5" font-family="Helvetica,sans-Serif" font-size="10.00" fill="#000000">fr_heap_pop</text>
</a>
</g>
</g>
<!-- Node2706&#45;&gt;Node2707 -->
<g id="edge2" class="edge">
<title>Node2706&#45;&gt;Node2707</title>
<path fill="none" stroke="#191970" d="M233.0849,-133.589C251.9127,-138.5922 275.1236,-144.7601 295.1025,-150.0692"/>
<polygon fill="#191970" stroke="#191970" points="294.3518,-153.4911 304.9153,-152.6768 296.1496,-146.7259 294.3518,-153.4911"/>
</g>
<!-- Node3336 -->
<g id="node7" class="node">
<title>Node3336</title>
<g id="a_node7"><a xlink:href="time__tracking_8h.html#ae24bc0d3566b90243e9b17a2b475be66" target="_top" xlink:title="Track that a request resumed. ">
<polygon fill="none" stroke="#000000" points="432,-76.5 432,-95.5 556,-95.5 556,-76.5 432,-76.5"/>
<text text-anchor="middle" x="494" y="-83.5" font-family="Helvetica,sans-Serif" font-size="10.00" fill="#000000">fr_time_tracking_resume</text>
</a>
</g>
</g>
<!-- Node2706&#45;&gt;Node3336 -->
<g id="edge6" class="edge">
<title>Node2706&#45;&gt;Node3336</title>
<path fill="none" stroke="#191970" d="M235.7837,-114.4447C250.7702,-111.0385 268.1083,-107.4444 284,-105 329.5296,-97.9967 381.0392,-93.2875 421.649,-90.3093"/>
<polygon fill="#191970" stroke="#191970" points="422.0034,-93.793 431.7285,-89.5891 421.5044,-86.8108 422.0034,-93.793"/>
</g>
<!-- Node3337 -->
<g id="node8" class="node">
<title>Node3337</title>
<g id="a_node8"><a xlink:href="channel_8c.html#ae2b701a71af44fbaf316ece2700b0bfe" target="_top" xlink:title="Check if a channel is active. ">
<polygon fill="none" stroke="#000000" points="447.5,-190.5 447.5,-209.5 540.5,-209.5 540.5,-190.5 447.5,-190.5"/>
<text text-anchor="middle" x="494" y="-197.5" font-family="Helvetica,sans-Serif" font-size="10.00" fill="#000000">fr_channel_active</text>
</a>
</g>
</g>
<!-- Node2706&#45;&gt;Node3337 -->
<g id="edge7" class="edge">
<title>Node2706&#45;&gt;Node3337</title>
<path fill="none" stroke="#191970" d="M207.8545,-133.7061C223.4421,-147.0012 253.6461,-170.4292 284,-181 333.7679,-198.3318 393.9703,-202.1791 437.1339,-202.227"/>
<polygon fill="#191970" stroke="#191970" points="437.1923,-205.7268 447.1723,-202.1702 437.1526,-198.7269 437.1923,-205.7268"/>
</g>
<!-- Node3338 -->
<g id="node9" class="node">
<title>Node3338</title>
<g id="a_node9"><a xlink:href="worker_8c.html#a2341ebb8fe35b4468abbc0816c13009e" target="_top" xlink:title="Signal the unlang interpreter that it needs to stop running the request. ">
<polygon fill="none" stroke="#000000" points="286.5,-114.5 286.5,-133.5 393.5,-133.5 393.5,-114.5 286.5,-114.5"/>
<text text-anchor="middle" x="340" y="-121.5" font-family="Helvetica,sans-Serif" font-size="10.00" fill="#000000">worker_stop_request</text>
</a>
</g>
</g>
<!-- Node2706&#45;&gt;Node3338 -->
<g id="edge8" class="edge">
<title>Node2706&#45;&gt;Node3338</title>
<path fill="none" stroke="#191970" d="M248.2224,-124C257.2859,-124 266.8232,-124 276.1829,-124"/>
<polygon fill="#191970" stroke="#191970" points="276.2387,-127.5001 286.2387,-124 276.2386,-120.5001 276.2387,-127.5001"/>
</g>
<!-- Node3021 -->
<g id="node12" class="node">
<title>Node3021</title>
<g id="a_node12"><a xlink:href="rbtree_8c.html#a590147ec2ecdd6434a58eeff49e201a4" target="_top" xlink:title="Delete a node from the tree, based on given data, which MUST have come from rbtree_finddata(). ">
<polygon fill="none" stroke="#ff0000" points="443,-38.5 443,-57.5 545,-57.5 545,-38.5 443,-38.5"/>
<text text-anchor="middle" x="494" y="-45.5" font-family="Helvetica,sans-Serif" font-size="10.00" fill="#000000">rbtree_deletebydata</text>
</a>
</g>
</g>
<!-- Node2706&#45;&gt;Node3021 -->
<g id="edge15" class="edge">
<title>Node2706&#45;&gt;Node3021</title>
<path fill="none" stroke="#191970" d="M216.9657,-114.3648C234.3308,-106.3203 260.3499,-95.0647 284,-88 333.1143,-73.3287 390.357,-62.8453 432.6624,-56.3013"/>
<polygon fill="#191970" stroke="#191970" points="433.447,-59.7224 442.8093,-54.7628 432.3976,-52.8015 433.447,-59.7224"/>
</g>
<!-- Node3343 -->
<g id="node13" class="node">
<title>Node3343</title>
<g id="a_node13"><a xlink:href="time__tracking_8h.html#a2e6bec4eb6f0501e295bf94d5a508890" target="_top" xlink:title="Transition to the yielded state, recording the time we just spent running. ">
<polygon fill="none" stroke="#000000" points="284,-.5 284,-19.5 396,-19.5 396,-.5 284,-.5"/>
<text text-anchor="middle" x="340" y="-7.5" font-family="Helvetica,sans-Serif" font-size="10.00" fill="#000000">fr_time_tracking_yield</text>
</a>
</g>
</g>
<!-- Node2706&#45;&gt;Node3343 -->
<g id="edge14" class="edge">
<title>Node2706&#45;&gt;Node3343</title>
<path fill="none" stroke="#191970" d="M204.1528,-114.3783C217.8866,-96.4672 249.6481,-57.6843 284,-34 289.6754,-30.0871 296.0904,-26.611 302.5007,-23.6029"/>
<polygon fill="#191970" stroke="#191970" points="304.0432,-26.7485 311.8025,-19.5343 301.238,-20.3351 304.0432,-26.7485"/>
</g>
<!-- Node3344 -->
<g id="node14" class="node">
<title>Node3344</title>
<g id="a_node14"><a xlink:href="worker_8c.html#a9a6f5ecd71f625ee95a9a34706b653fa" target="_top" xlink:title="Send a response packet to the network side. ">
<polygon fill="none" stroke="#000000" points="291,-304.5 291,-323.5 389,-323.5 389,-304.5 291,-304.5"/>
<text text-anchor="middle" x="340" y="-311.5" font-family="Helvetica,sans-Serif" font-size="10.00" fill="#000000">worker_send_reply</text>
</a>
</g>
</g>
<!-- Node2706&#45;&gt;Node3344 -->
<g id="edge16" class="edge">
<title>Node2706&#45;&gt;Node3344</title>
<path fill="none" stroke="#191970" d="M204.288,-133.6833C226.9452,-163.7873 296.4111,-256.0847 326.2003,-295.6647"/>
<polygon fill="#191970" stroke="#191970" points="323.7453,-298.2231 332.5552,-304.1083 329.3382,-294.0137 323.7453,-298.2231"/>
</g>
<!-- Node2708 -->
<g id="node4" class="node">
<title>Node2708</title>
<g id="a_node4"><a xlink:href="heap_8c.html#a2071e6c3699b74317dc7968e377fdced" target="_top" xlink:title="Remove a node from the heap. ">
<polygon fill="none" stroke="#000000" points="452,-152.5 452,-171.5 536,-171.5 536,-152.5 452,-152.5"/>
<text text-anchor="middle" x="494" y="-159.5" font-family="Helvetica,sans-Serif" font-size="10.00" fill="#000000">fr_heap_extract</text>
</a>
</g>
</g>
<!-- Node2707&#45;&gt;Node2708 -->
<g id="edge3" class="edge">
<title>Node2707&#45;&gt;Node2708</title>
<path fill="none" stroke="#191970" d="M375.3307,-162C395.0324,-162 419.9423,-162 441.8473,-162"/>
<polygon fill="#191970" stroke="#191970" points="441.996,-165.5001 451.9959,-162 441.9959,-158.5001 441.996,-165.5001"/>
</g>
<!-- Node2709 -->
<g id="node5" class="node">
<title>Node2709</title>
<g id="a_node5"><a xlink:href="strerror_8c.html#ae701765650b8aea79a3037bc4921d7f8" target="_top" xlink:title="Log to thread local error buffer. ">
<polygon fill="none" stroke="#ff0000" points="1066,-337.5 1066,-356.5 1152,-356.5 1152,-337.5 1066,-337.5"/>
<text text-anchor="middle" x="1109" y="-344.5" font-family="Helvetica,sans-Serif" font-size="10.00" fill="#000000">fr_strerror_printf</text>
</a>
</g>
</g>
<!-- Node2708&#45;&gt;Node2709 -->
<g id="edge4" class="edge">
<title>Node2708&#45;&gt;Node2709</title>
<path fill="none" stroke="#191970" d="M536.1162,-157.6638C632.9347,-149.9447 874.9171,-143.7193 1030,-253 1059.316,-273.6578 1084.2185,-307.7599 1097.8477,-328.7146"/>
<polygon fill="#191970" stroke="#191970" points="1094.9883,-330.7414 1103.2919,-337.3217 1100.9042,-326.9994 1094.9883,-330.7414"/>
</g>
<!-- Node3335 -->
<g id="node6" class="node">
<title>Node3335</title>
<g id="a_node6"><a xlink:href="heap_8c.html#ae3fc67f3c57bcaa3cf2d56ee4f8552fa" target="_top" xlink:title="fr_heap_bubble">
<polygon fill="none" stroke="#000000" points="612,-90.5 612,-109.5 695,-109.5 695,-90.5 612,-90.5"/>
<text text-anchor="middle" x="653.5" y="-97.5" font-family="Helvetica,sans-Serif" font-size="10.00" fill="#000000">fr_heap_bubble</text>
</a>
</g>
</g>
<!-- Node2708&#45;&gt;Node3335 -->
<g id="edge5" class="edge">
<title>Node2708&#45;&gt;Node3335</title>
<path fill="none" stroke="#191970" d="M529.1653,-152.4813C538.0391,-149.7378 547.4669,-146.5225 556,-143 572.7229,-136.0968 575.5466,-131.5229 592,-124 600.2549,-120.2257 609.288,-116.4897 617.8278,-113.1296"/>
<polygon fill="#191970" stroke="#191970" points="619.1243,-116.381 627.1922,-109.5137 616.6028,-109.8509 619.1243,-116.381"/>
</g>
<!-- Node3338&#45;&gt;Node2708 -->
<g id="edge12" class="edge">
<title>Node3338&#45;&gt;Node2708</title>
<path fill="none" stroke="#191970" d="M378.8607,-133.589C399.0911,-138.5809 424.0207,-144.7324 445.5036,-150.0334"/>
<polygon fill="#191970" stroke="#191970" points="444.8714,-153.4823 455.4187,-152.4799 446.5485,-146.6861 444.8714,-153.4823"/>
</g>
<!-- Node3338&#45;&gt;Node3336 -->
<g id="edge9" class="edge">
<title>Node3338&#45;&gt;Node3336</title>
<path fill="none" stroke="#191970" d="M378.8607,-114.411C399.0911,-109.4191 424.0207,-103.2676 445.5036,-97.9666"/>
<polygon fill="#191970" stroke="#191970" points="446.5485,-101.3139 455.4187,-95.5201 444.8714,-94.5177 446.5485,-101.3139"/>
</g>
<!-- Node3339 -->
<g id="node10" class="node">
<title>Node3339</title>
<g id="a_node10"><a xlink:href="interpret_8c.html#a60e1746baf9018e3dd27916d149f56bc" target="_top" xlink:title="Send a signal (usually stop) to a request. ">
<polygon fill="none" stroke="#000000" points="436,-114.5 436,-133.5 552,-133.5 552,-114.5 436,-114.5"/>
<text text-anchor="middle" x="494" y="-121.5" font-family="Helvetica,sans-Serif" font-size="10.00" fill="#000000">unlang_interpret_signal</text>
</a>
</g>
</g>
<!-- Node3338&#45;&gt;Node3339 -->
<g id="edge10" class="edge">
<title>Node3338&#45;&gt;Node3339</title>
<path fill="none" stroke="#191970" d="M393.8617,-124C404.1814,-124 415.1122,-124 425.8131,-124"/>
<polygon fill="#191970" stroke="#191970" points="425.9747,-127.5001 435.9747,-124 425.9746,-120.5001 425.9747,-127.5001"/>
</g>
<!-- Node3338&#45;&gt;Node3021 -->
<g id="edge13" class="edge">
<title>Node3338&#45;&gt;Node3021</title>
<path fill="none" stroke="#191970" d="M353.1071,-114.3605C370.4261,-101.9879 402.2288,-80.5107 432,-67 436.9977,-64.732 442.3403,-62.6387 447.7153,-60.7359"/>
<polygon fill="#191970" stroke="#191970" points="448.9786,-64.0042 457.3575,-57.5201 446.7638,-57.3638 448.9786,-64.0042"/>
</g>
<!-- Node3340 -->
<g id="node11" class="node">
<title>Node3340</title>
<g id="a_node11"><a xlink:href="interpret_8c.html#ae1966cefdb1e20c3446033c5e8c3eb82" target="_top" xlink:title="Send a signal (usually stop) to a request. ">
<polygon fill="none" stroke="#ff0000" points="617.5,-52.5 617.5,-71.5 689.5,-71.5 689.5,-52.5 617.5,-52.5"/>
<text text-anchor="middle" x="653.5" y="-59.5" font-family="Helvetica,sans-Serif" font-size="10.00" fill="#000000">frame_signal</text>
</a>
</g>
</g>
<!-- Node3339&#45;&gt;Node3340 -->
<g id="edge11" class="edge">
<title>Node3339&#45;&gt;Node3340</title>
<path fill="none" stroke="#191970" d="M531.3847,-114.4654C539.6635,-111.8286 548.2687,-108.6651 556,-105 573.376,-96.7627 574.6334,-89.2571 592,-81 596.9831,-78.6307 602.3318,-76.4686 607.7196,-74.5219"/>
<polygon fill="#191970" stroke="#191970" points="609.0376,-77.771 617.3895,-71.2521 606.7953,-71.1398 609.0376,-77.771"/>
</g>
<!-- Node3344&#45;&gt;Node2708 -->
<g id="edge41" class="edge">
<title>Node3344&#45;&gt;Node2708</title>
<path fill="none" stroke="#191970" d="M343.9679,-304.3133C354.4952,-279.8248 385.5441,-214.9788 432,-181 435.2301,-178.6375 438.7585,-176.5647 442.4402,-174.7468"/>
<polygon fill="#191970" stroke="#191970" points="444.0069,-177.8835 451.8249,-170.733 441.2541,-171.4474 444.0069,-177.8835"/>
</g>
<!-- Node3344&#45;&gt;Node3337 -->
<g id="edge18" class="edge">
<title>Node3344&#45;&gt;Node3337</title>
<path fill="none" stroke="#191970" d="M350.6499,-304.3597C367.392,-289.4019 401.1471,-260.0332 432,-238 443.4779,-229.8032 456.7455,-221.5237 468.0549,-214.7946"/>
<polygon fill="#191970" stroke="#191970" points="470.1557,-217.6201 477.0118,-209.5428 466.615,-211.5816 470.1557,-217.6201"/>
</g>
<!-- Node3345 -->
<g id="node15" class="node">
<title>Node3345</title>
<g id="a_node15"><a xlink:href="time__tracking_8h.html#a44aac8be327feb7204638a1fa9673e76" target="_top" xlink:title="End time tracking for this entity. ">
<polygon fill="none" stroke="#000000" points="440.5,-304.5 440.5,-323.5 547.5,-323.5 547.5,-304.5 440.5,-304.5"/>
<text text-anchor="middle" x="494" y="-311.5" font-family="Helvetica,sans-Serif" font-size="10.00" fill="#000000">fr_time_tracking_end</text>
</a>
</g>
</g>
<!-- Node3344&#45;&gt;Node3345 -->
<g id="edge17" class="edge">
<title>Node3344&#45;&gt;Node3345</title>
<path fill="none" stroke="#191970" d="M389.15,-314C402.1269,-314 416.3235,-314 429.9615,-314"/>
<polygon fill="#191970" stroke="#191970" points="430.2523,-317.5001 440.2523,-314 430.2523,-310.5001 430.2523,-317.5001"/>
</g>
<!-- Node3346 -->
<g id="node16" class="node">
<title>Node3346</title>
<g id="a_node16"><a xlink:href="channel_8c.html#a4bec6d26a28be0a0db37fca0bbf1962a" target="_top" xlink:title="Get responder&#45;specific data from a channel. ">
<polygon fill="none" stroke="#000000" points="439,-466 439,-496 549,-496 549,-466 439,-466"/>
<text text-anchor="start" x="447" y="-484" font-family="Helvetica,sans-Serif" font-size="10.00" fill="#000000">fr_channel_responder</text>
<text text-anchor="middle" x="494" y="-473" font-family="Helvetica,sans-Serif" font-size="10.00" fill="#000000">_uctx_get</text>
</a>
</g>
</g>
<!-- Node3344&#45;&gt;Node3346 -->
<g id="edge19" class="edge">
<title>Node3344&#45;&gt;Node3346</title>
<path fill="none" stroke="#191970" d="M343.815,-323.7288C354.1916,-349.0131 385.3149,-417.5008 432,-456 434.0371,-457.6799 436.2017,-459.2586 438.4551,-460.7409"/>
<polygon fill="#191970" stroke="#191970" points="437.0988,-464.0003 447.5051,-465.9902 440.611,-457.9452 437.0988,-464.0003"/>
</g>
<!-- Node3347 -->
<g id="node17" class="node">
<title>Node3347</title>
<g id="a_node17"><a xlink:href="message_8c.html#a645a2c7627bc7bb65a417ef13a1d2fe1" target="_top" xlink:title="Reserve a message. ">
<polygon fill="none" stroke="#000000" points="601,-432.5 601,-451.5 706,-451.5 706,-432.5 601,-432.5"/>
<text text-anchor="middle" x="653.5" y="-439.5" font-family="Helvetica,sans-Serif" font-size="10.00" fill="#000000">fr_message_reserve</text>
</a>
</g>
</g>
<!-- Node3344&#45;&gt;Node3347 -->
<g id="edge20" class="edge">
<title>Node3344&#45;&gt;Node3347</title>
<path fill="none" stroke="#191970" d="M350.8036,-323.71C367.2163,-337.984 399.9257,-364.6006 432,-380 447.824,-387.5974 546.4002,-414.006 606.5908,-429.8018"/>
<polygon fill="#191970" stroke="#191970" points="606.0677,-433.2828 616.6282,-432.4309 607.8414,-426.5112 606.0677,-433.2828"/>
</g>
<!-- Node3360 -->
<g id="node22" class="node">
<title>Node3360</title>
<g id="a_node22"><a xlink:href="message_8c.html#aeb55366110e2a76f5c5d2ae4dbb9ec85" target="_top" xlink:title="Allocate packet data for a message. ">
<polygon fill="none" stroke="#000000" points="447.5,-351.5 447.5,-370.5 540.5,-370.5 540.5,-351.5 447.5,-351.5"/>
<text text-anchor="middle" x="494" y="-358.5" font-family="Helvetica,sans-Serif" font-size="10.00" fill="#000000">fr_message_alloc</text>
</a>
</g>
</g>
<!-- Node3344&#45;&gt;Node3360 -->
<g id="edge30" class="edge">
<title>Node3344&#45;&gt;Node3360</title>
<path fill="none" stroke="#191970" d="M371.1642,-323.5112C394.6739,-330.6862 427.1465,-340.5966 452.7997,-348.4259"/>
<polygon fill="#191970" stroke="#191970" points="452.0321,-351.8509 462.6182,-351.4224 454.0754,-345.1558 452.0321,-351.8509"/>
</g>
<!-- Node3361 -->
<g id="node23" class="node">
<title>Node3361</title>
<g id="a_node23"><a xlink:href="time_8c.html#a07e18217af252cb062891100dc491215" target="_top" xlink:title="fr_time_elapsed_update">
<polygon fill="none" stroke="#000000" points="434,-427.5 434,-446.5 554,-446.5 554,-427.5 434,-427.5"/>
<text text-anchor="middle" x="494" y="-434.5" font-family="Helvetica,sans-Serif" font-size="10.00" fill="#000000">fr_time_elapsed_update</text>
</a>
</g>
</g>
<!-- Node3344&#45;&gt;Node3361 -->
<g id="edge34" class="edge">
<title>Node3344&#45;&gt;Node3361</title>
<path fill="none" stroke="#191970" d="M346.5189,-323.5134C360.2273,-342.8731 393.9328,-387.1974 432,-413 438.0431,-417.0961 444.8847,-420.6332 451.7614,-423.6375"/>
<polygon fill="#191970" stroke="#191970" points="450.5059,-426.905 461.0888,-427.4064 453.1284,-420.4148 450.5059,-426.905"/>
</g>
<!-- Node3362 -->
<g id="node24" class="node">
<title>Node3362</title>
<g id="a_node24"><a xlink:href="channel_8c.html#ad874204162992943c6ed4e7b4c668ec9" target="_top" xlink:title="Send a reply message into the channel. ">
<polygon fill="none" stroke="#000000" points="437,-247.5 437,-266.5 551,-266.5 551,-247.5 437,-247.5"/>
<text text-anchor="middle" x="494" y="-254.5" font-family="Helvetica,sans-Serif" font-size="10.00" fill="#000000">fr_channel_send_reply</text>
</a>
</g>
</g>
<!-- Node3344&#45;&gt;Node3362 -->
<g id="edge35" class="edge">
<title>Node3344&#45;&gt;Node3362</title>
<path fill="none" stroke="#191970" d="M365.7761,-304.4595C391.2054,-295.0473 430.2759,-280.5862 458.6067,-270.1001"/>
<polygon fill="#191970" stroke="#191970" points="459.9765,-273.3252 468.1398,-266.5716 457.5466,-266.7605 459.9765,-273.3252"/>
</g>
<!-- Node3347&#45;&gt;Node2709 -->
<g id="edge21" class="edge">
<title>Node3347&#45;&gt;Node2709</title>
<path fill="none" stroke="#191970" d="M676.6542,-451.5933C696.1089,-459.1066 724.8474,-468.9425 751,-473 873.9865,-492.0811 923.0139,-512.5905 1030,-449 1063.5263,-429.0726 1087.9935,-389.0643 1100.2146,-365.5114"/>
<polygon fill="#191970" stroke="#191970" points="1103.3623,-367.0421 1104.6932,-356.5312 1097.0981,-363.918 1103.3623,-367.0421"/>
</g>
<!-- Node3348 -->
<g id="node18" class="node">
<title>Node3348</title>
<g id="a_node18"><a xlink:href="message_8c.html#a0418cdb93e0854c61c4b51776b5c5285" target="_top" xlink:title="Allocate a fr_message_t, WITHOUT a ring buffer. ">
<polygon fill="none" stroke="#ff0000" points="751,-356.5 751,-375.5 882,-375.5 882,-356.5 751,-356.5"/>
<text text-anchor="middle" x="816.5" y="-363.5" font-family="Helvetica,sans-Serif" font-size="10.00" fill="#000000">fr_message_get_message</text>
</a>
</g>
</g>
<!-- Node3347&#45;&gt;Node3348 -->
<g id="edge22" class="edge">
<title>Node3347&#45;&gt;Node3348</title>
<path fill="none" stroke="#191970" d="M674.1441,-432.3745C702.5584,-419.1261 753.9015,-395.187 786.5407,-379.9687"/>
<polygon fill="#191970" stroke="#191970" points="788.4394,-382.9453 796.0236,-375.5473 785.4812,-376.601 788.4394,-382.9453"/>
</g>
<!-- Node3358 -->
<g id="node21" class="node">
<title>Node3358</title>
<g id="a_node21"><a xlink:href="message_8c.html#a60f6babe0166892566e6bc708dd9eed3" target="_top" xlink:title="Get a ring buffer for a message. ">
<polygon fill="none" stroke="#ff0000" points="763,-433 763,-463 870,-463 870,-433 763,-433"/>
<text text-anchor="start" x="771" y="-451" font-family="Helvetica,sans-Serif" font-size="10.00" fill="#000000">fr_message_get_ring</text>
<text text-anchor="middle" x="816.5" y="-440" font-family="Helvetica,sans-Serif" font-size="10.00" fill="#000000">_buffer</text>
</a>
</g>
</g>
<!-- Node3347&#45;&gt;Node3358 -->
<g id="edge27" class="edge">
<title>Node3347&#45;&gt;Node3358</title>
<path fill="none" stroke="#191970" d="M706.4214,-443.948C721.0741,-444.4874 737.1378,-445.0787 752.3551,-445.6388"/>
<polygon fill="#191970" stroke="#191970" points="752.6052,-449.1503 762.7272,-446.0206 752.8627,-442.1551 752.6052,-449.1503"/>
</g>
<!-- Node3348&#45;&gt;Node2709 -->
<g id="edge25" class="edge">
<title>Node3348&#45;&gt;Node2709</title>
<path fill="none" stroke="#191970" d="M882.1427,-361.736C934.5069,-358.3346 1006.9206,-353.6308 1055.7293,-350.4603"/>
<polygon fill="#191970" stroke="#191970" points="1056.0185,-353.949 1065.7706,-349.8081 1055.5647,-346.9637 1056.0185,-353.949"/>
</g>
<!-- Node3349 -->
<g id="node19" class="node">
<title>Node3349</title>
<g id="a_node19"><a xlink:href="ring__buffer_8c.html#afe34757eeacef130cc6c6b7ee810f815" target="_top" xlink:title="Mark data as allocated. ">
<polygon fill="none" stroke="#000000" points="924.5,-318.5 924.5,-337.5 1023.5,-337.5 1023.5,-318.5 924.5,-318.5"/>
<text text-anchor="middle" x="974" y="-325.5" font-family="Helvetica,sans-Serif" font-size="10.00" fill="#000000">fr_ring_buffer_alloc</text>
</a>
</g>
</g>
<!-- Node3348&#45;&gt;Node3349 -->
<g id="edge23" class="edge">
<title>Node3348&#45;&gt;Node3349</title>
<path fill="none" stroke="#191970" d="M856.2439,-356.411C877.0277,-351.3965 902.6611,-345.2119 924.6995,-339.8947"/>
<polygon fill="#191970" stroke="#191970" points="925.6417,-343.2679 934.5419,-337.5201 923.9999,-336.4632 925.6417,-343.2679"/>
</g>
<!-- Node2871 -->
<g id="node20" class="node">
<title>Node2871</title>
<g id="a_node20"><a xlink:href="strerror_8c.html#a2f2232a184a763c76b3d87d5bea7a868" target="_top" xlink:title="Add a message to an existing stack of messages. ">
<polygon fill="none" stroke="#ff0000" points="918,-394.5 918,-413.5 1030,-413.5 1030,-394.5 918,-394.5"/>
<text text-anchor="middle" x="974" y="-401.5" font-family="Helvetica,sans-Serif" font-size="10.00" fill="#000000">fr_strerror_printf_push</text>
</a>
</g>
</g>
<!-- Node3348&#45;&gt;Node2871 -->
<g id="edge26" class="edge">
<title>Node3348&#45;&gt;Node2871</title>
<path fill="none" stroke="#191970" d="M856.2439,-375.589C877.0277,-380.6035 902.6611,-386.7881 924.6995,-392.1053"/>
<polygon fill="#191970" stroke="#191970" points="923.9999,-395.5368 934.5419,-394.4799 925.6417,-388.7321 923.9999,-395.5368"/>
</g>
<!-- Node3349&#45;&gt;Node2709 -->
<g id="edge24" class="edge">
<title>Node3349&#45;&gt;Node2709</title>
<path fill="none" stroke="#191970" d="M1023.5024,-334.967C1033.9954,-336.4438 1045.1143,-338.0087 1055.7399,-339.5041"/>
<polygon fill="#191970" stroke="#191970" points="1055.3495,-342.9836 1065.7397,-340.9115 1056.3251,-336.0519 1055.3495,-342.9836"/>
</g>
<!-- Node3358&#45;&gt;Node2709 -->
<g id="edge28" class="edge">
<title>Node3358&#45;&gt;Node2709</title>
<path fill="none" stroke="#191970" d="M870.4145,-450.9925C915.2149,-451.3532 979.5529,-446.83 1030,-423 1057.95,-409.7971 1082.2343,-382.7546 1096.2534,-364.7485"/>
<polygon fill="#191970" stroke="#191970" points="1099.0669,-366.8306 1102.282,-356.7353 1093.4732,-362.6222 1099.0669,-366.8306"/>
</g>
<!-- Node3358&#45;&gt;Node2871 -->
<g id="edge29" class="edge">
<title>Node3358&#45;&gt;Node2871</title>
<path fill="none" stroke="#191970" d="M870.2621,-432.9808C889.7509,-427.5362 911.5177,-421.4554 930.0606,-416.2751"/>
<polygon fill="#191970" stroke="#191970" points="931.0246,-419.6399 939.7141,-413.5783 929.1411,-412.8981 931.0246,-419.6399"/>
</g>
<!-- Node3360&#45;&gt;Node3347 -->
<g id="edge31" class="edge">
<title>Node3360&#45;&gt;Node3347</title>
<path fill="none" stroke="#191970" d="M525.3513,-370.5568C535.5143,-374.319 546.5864,-379.1552 556,-385 574.4398,-396.4492 573.5758,-406.5256 592,-418 598.421,-421.9989 605.6189,-425.5311 612.7664,-428.5715"/>
<polygon fill="#191970" stroke="#191970" points="611.8186,-431.9613 622.4039,-432.4101 614.4088,-425.4582 611.8186,-431.9613"/>
</g>
<!-- Node3360&#45;&gt;Node3349 -->
<g id="edge32" class="edge">
<title>Node3360&#45;&gt;Node3349</title>
<path fill="none" stroke="#191970" d="M540.5727,-358.1849C585.3039,-355.4491 654.7819,-351.116 715,-347 783.3151,-342.3305 861.7303,-336.5143 914.2173,-332.5554"/>
<polygon fill="#191970" stroke="#191970" points="914.6505,-336.0327 924.3584,-331.7892 914.1231,-329.0526 914.6505,-336.0327"/>
</g>
<!-- Node3360&#45;&gt;Node2871 -->
<g id="edge33" class="edge">
<title>Node3360&#45;&gt;Node2871</title>
<path fill="none" stroke="#191970" d="M540.8861,-365.4937C592.3964,-370.4036 677.5761,-378.4438 751,-385 803.6005,-389.6968 863.2048,-394.7619 907.5498,-398.4804"/>
<polygon fill="#191970" stroke="#191970" points="907.367,-401.9772 917.6243,-399.324 907.9512,-395.0016 907.367,-401.9772"/>
</g>
<!-- Node3362&#45;&gt;Node2709 -->
<g id="edge37" class="edge">
<title>Node3362&#45;&gt;Node2709</title>
<path fill="none" stroke="#191970" d="M509.9028,-247.4815C522.4891,-239.8933 540.4713,-228.9299 556,-219 572.2005,-208.6405 573.5955,-200.5724 592,-195 644.321,-179.1585 661.1552,-185.5564 715,-195 860.3199,-220.4871 1020.6322,-299.827 1082.5722,-332.6066"/>
<polygon fill="#191970" stroke="#191970" points="1081.1811,-335.8314 1091.6512,-337.4524 1084.4771,-329.656 1081.1811,-335.8314"/>
</g>
<!-- Node3363 -->
<g id="node25" class="node">
<title>Node3363</title>
<g id="a_node25"><a xlink:href="atomic__queue_8c.html#aab0232b8a01f6c4776c82a7a0e14eb45" target="_top" xlink:title="Push a pointer into the atomic queue. ">
<polygon fill="none" stroke="#ff0000" points="596,-318.5 596,-337.5 711,-337.5 711,-318.5 596,-318.5"/>
<text text-anchor="middle" x="653.5" y="-325.5" font-family="Helvetica,sans-Serif" font-size="10.00" fill="#000000">fr_atomic_queue_push</text>
</a>
</g>
</g>
<!-- Node3362&#45;&gt;Node3363 -->
<g id="edge36" class="edge">
<title>Node3362&#45;&gt;Node3363</title>
<path fill="none" stroke="#191970" d="M509.847,-266.6083C528.8597,-277.8503 561.9402,-296.5122 592,-309 597.4212,-311.2521 603.2071,-313.38 608.9798,-315.3398"/>
<polygon fill="#191970" stroke="#191970" points="608.0234,-318.7092 618.6156,-318.4716 610.1872,-312.052 608.0234,-318.7092"/>
</g>
<!-- Node3365 -->
<g id="node26" class="node">
<title>Node3365</title>
<g id="a_node26"><a xlink:href="atomic__queue_8c.html#a9a6785b6d18984242ba725ab7c5515ba" target="_top" xlink:title="fr_atomic_queue_size">
<polygon fill="none" stroke="#000000" points="597.5,-280.5 597.5,-299.5 709.5,-299.5 709.5,-280.5 597.5,-280.5"/>
<text text-anchor="middle" x="653.5" y="-287.5" font-family="Helvetica,sans-Serif" font-size="10.00" fill="#000000">fr_atomic_queue_size</text>
</a>
</g>
</g>
<!-- Node3362&#45;&gt;Node3365 -->
<g id="edge38" class="edge">
<title>Node3362&#45;&gt;Node3365</title>
<path fill="none" stroke="#191970" d="M540.134,-266.545C558.0713,-270.2561 578.7858,-274.5419 597.5616,-278.4265"/>
<polygon fill="#191970" stroke="#191970" points="596.9679,-281.8778 607.4697,-280.4765 598.3862,-275.0229 596.9679,-281.8778"/>
</g>
<!-- Node3366 -->
<g id="node27" class="node">
<title>Node3366</title>
<g id="a_node27"><a xlink:href="channel_8c.html#abe8e5c8e9563abb5bf61b9c7024e7930" target="_top" xlink:title="Receive a request message from the channel. ">
<polygon fill="none" stroke="#ff0000" points="592,-242.5 592,-261.5 715,-261.5 715,-242.5 592,-242.5"/>
<text text-anchor="middle" x="653.5" y="-249.5" font-family="Helvetica,sans-Serif" font-size="10.00" fill="#000000">fr_channel_recv_request</text>
</a>
</g>
</g>
<!-- Node3362&#45;&gt;Node3366 -->
<g id="edge39" class="edge">
<title>Node3362&#45;&gt;Node3366</title>
<path fill="none" stroke="#191970" d="M551.1326,-255.209C561.0548,-254.898 571.4861,-254.571 581.7394,-254.2495"/>
<polygon fill="#191970" stroke="#191970" points="582.0226,-257.7425 591.908,-253.9308 581.8032,-250.7459 582.0226,-257.7425"/>
</g>
<!-- Node3368 -->
<g id="node28" class="node">
<title>Node3368</title>
<g id="a_node28"><a xlink:href="channel_8c.html#a6aa2b1dcbfe62563d864652de2dbd34e" target="_top" xlink:title="Send a message via a kq user signal. ">
<polygon fill="none" stroke="#ff0000" points="596,-204.5 596,-223.5 711,-223.5 711,-204.5 596,-204.5"/>
<text text-anchor="middle" x="653.5" y="-211.5" font-family="Helvetica,sans-Serif" font-size="10.00" fill="#000000">fr_channel_data_ready</text>
</a>
</g>
</g>
<!-- Node3362&#45;&gt;Node3368 -->
<g id="edge40" class="edge">
<title>Node3362&#45;&gt;Node3368</title>
<path fill="none" stroke="#191970" d="M529.3982,-247.4569C552.6294,-241.194 583.2228,-232.9462 608.2208,-226.2069"/>
<polygon fill="#191970" stroke="#191970" points="609.4565,-229.4988 618.2007,-223.5164 607.6344,-222.7401 609.4565,-229.4988"/>
</g>
</g>
</svg>
