<?xml version="1.0" encoding="UTF-8" standalone="no"?>
<!DOCTYPE svg PUBLIC "-//W3C//DTD SVG 1.1//EN"
 "http://www.w3.org/Graphics/SVG/1.1/DTD/svg11.dtd">
<!-- Generated by graphviz version 2.40.1 (20161225.0304)
 -->
<!-- Title: xlat_change_case Pages: 1 -->
<svg width="1082pt" height="542pt"
 viewBox="0.00 0.00 1082.00 542.11" xmlns="http://www.w3.org/2000/svg" xmlns:xlink="http://www.w3.org/1999/xlink">
<g id="graph0" class="graph" transform="scale(1 1) rotate(0) translate(4 538.1085)">
<title>xlat_change_case</title>
<!-- Node1301 -->
<g id="node1" class="node">
<title>Node1301</title>
<polygon fill="#bfbfbf" stroke="#000000" points="0,-57.5 0,-76.5 95,-76.5 95,-57.5 0,-57.5"/>
<text text-anchor="middle" x="47.5" y="-64.5" font-family="Helvetica,sans-Serif" font-size="10.00" fill="#000000">xlat_change_case</text>
</g>
<!-- Node1302 -->
<g id="node2" class="node">
<title>Node1302</title>
<g id="a_node2"><a xlink:href="value_8c.html#a8cedcf0cd0b56390ead0b791c4b4d67f" target="_top" xlink:title="Concatenate a list of value boxes. ">
<polygon fill="none" stroke="#000000" points="131,-266.5 131,-285.5 256,-285.5 256,-266.5 131,-266.5"/>
<text text-anchor="middle" x="193.5" y="-273.5" font-family="Helvetica,sans-Serif" font-size="10.00" fill="#000000">fr_value_box_list_concat</text>
</a>
</g>
</g>
<!-- Node1301&#45;&gt;Node1302 -->
<g id="edge1" class="edge">
<title>Node1301&#45;&gt;Node1302</title>
<path fill="none" stroke="#191970" d="M54.1527,-76.5234C76.8123,-108.9607 151.2237,-215.4812 181.0103,-258.1209"/>
<polygon fill="#191970" stroke="#191970" points="178.2122,-260.2272 186.8082,-266.4207 183.9507,-256.2184 178.2122,-260.2272"/>
</g>
<!-- Node1561 -->
<g id="node19" class="node">
<title>Node1561</title>
<g id="a_node19"><a xlink:href="value_8h.html#a2d08d82275a28efe9ad91300db05c236" target="_top" xlink:title="Allocate a value box of a specific type. ">
<polygon fill="none" stroke="#000000" points="144.5,-38.5 144.5,-57.5 242.5,-57.5 242.5,-38.5 144.5,-38.5"/>
<text text-anchor="middle" x="193.5" y="-45.5" font-family="Helvetica,sans-Serif" font-size="10.00" fill="#000000">fr_value_box_alloc</text>
</a>
</g>
</g>
<!-- Node1301&#45;&gt;Node1561 -->
<g id="edge31" class="edge">
<title>Node1301&#45;&gt;Node1561</title>
<path fill="none" stroke="#191970" d="M95.3059,-60.7787C107.7083,-59.1647 121.2166,-57.4067 134.1343,-55.7257"/>
<polygon fill="#191970" stroke="#191970" points="134.8703,-59.1595 144.335,-54.3982 133.9669,-52.218 134.8703,-59.1595"/>
</g>
<!-- Node1929 -->
<g id="node21" class="node">
<title>Node1929</title>
<g id="a_node21"><a xlink:href="value_8c.html#ac65d2cafaad39fbe6ee69261e0a09176" target="_top" xlink:title="Alloc and assign an empty 0 terminated string to a fr_value_box_t. ">
<polygon fill="none" stroke="#000000" points="134,-76.5 134,-95.5 253,-95.5 253,-76.5 134,-76.5"/>
<text text-anchor="middle" x="193.5" y="-83.5" font-family="Helvetica,sans-Serif" font-size="10.00" fill="#000000">fr_value_box_bstr_alloc</text>
</a>
</g>
</g>
<!-- Node1301&#45;&gt;Node1929 -->
<g id="edge33" class="edge">
<title>Node1301&#45;&gt;Node1929</title>
<path fill="none" stroke="#191970" d="M95.3059,-73.2213C104.4409,-74.4101 114.1758,-75.677 123.8328,-76.9337"/>
<polygon fill="#191970" stroke="#191970" points="123.4717,-80.4162 133.8398,-78.236 124.3751,-73.4747 123.4717,-80.4162"/>
</g>
<!-- Node1473 -->
<g id="node22" class="node">
<title>Node1473</title>
<g id="a_node22"><a xlink:href="cursor_8c.html#a6e72682a046a3eeac734da6639f1817c" target="_top" xlink:title="Insert a single item at the end of the list. ">
<polygon fill="none" stroke="#ff0000" points="147.5,-.5 147.5,-19.5 239.5,-19.5 239.5,-.5 147.5,-.5"/>
<text text-anchor="middle" x="193.5" y="-7.5" font-family="Helvetica,sans-Serif" font-size="10.00" fill="#000000">fr_cursor_append</text>
</a>
</g>
</g>
<!-- Node1301&#45;&gt;Node1473 -->
<g id="edge36" class="edge">
<title>Node1301&#45;&gt;Node1473</title>
<path fill="none" stroke="#191970" d="M66.7633,-57.3542C83.4929,-49.1909 108.5011,-37.4969 131,-29 136.9182,-26.7649 143.2247,-24.6018 149.4693,-22.5854"/>
<polygon fill="#191970" stroke="#191970" points="150.6697,-25.8771 159.1665,-19.5482 148.5775,-19.1971 150.6697,-25.8771"/>
</g>
<!-- Node1303 -->
<g id="node3" class="node">
<title>Node1303</title>
<g id="a_node3"><a xlink:href="strerror_8c.html#ae701765650b8aea79a3037bc4921d7f8" target="_top" xlink:title="Log to thread local error buffer. ">
<polygon fill="none" stroke="#000000" points="464,-285.5 464,-304.5 550,-304.5 550,-285.5 464,-285.5"/>
<text text-anchor="middle" x="507" y="-292.5" font-family="Helvetica,sans-Serif" font-size="10.00" fill="#000000">fr_strerror_printf</text>
</a>
</g>
</g>
<!-- Node1302&#45;&gt;Node1303 -->
<g id="edge2" class="edge">
<title>Node1302&#45;&gt;Node1303</title>
<path fill="none" stroke="#191970" d="M196.5574,-285.8577C205.7089,-313.4243 235.7918,-391.2322 292,-421 345.4159,-449.289 375.1118,-450.2639 428,-421 469.2663,-398.1667 491.864,-343.7679 501.4246,-314.4747"/>
<polygon fill="#191970" stroke="#191970" points="504.8688,-315.1821 504.4622,-304.5951 498.1779,-313.1249 504.8688,-315.1821"/>
</g>
<!-- Node1318 -->
<g id="node11" class="node">
<title>Node1318</title>
<g id="a_node11"><a xlink:href="value_8c.html#a3a0550d465b81917f8b0c69a3373163e" target="_top" xlink:title="Convert one type of fr_value_box_t to another. ">
<polygon fill="none" stroke="#ff0000" points="844,-209.5 844,-228.5 940,-228.5 940,-209.5 844,-209.5"/>
<text text-anchor="middle" x="892" y="-216.5" font-family="Helvetica,sans-Serif" font-size="10.00" fill="#000000">fr_value_box_cast</text>
</a>
</g>
</g>
<!-- Node1302&#45;&gt;Node1318 -->
<g id="edge22" class="edge">
<title>Node1302&#45;&gt;Node1318</title>
<path fill="none" stroke="#191970" d="M206.0219,-266.3039C223.9464,-253.0207 258.4692,-229.6068 292,-219 383.4611,-190.0682 411.072,-200 507,-200 507,-200 507,-200 631.5,-200 701.0067,-200 780.6696,-206.8116 833.4079,-212.2779"/>
<polygon fill="#191970" stroke="#191970" points="833.2737,-215.7831 843.5856,-213.3508 834.0077,-208.8217 833.2737,-215.7831"/>
</g>
<!-- Node1319 -->
<g id="node12" class="node">
<title>Node1319</title>
<g id="a_node12"><a xlink:href="value_8c.html#a4fadbcd199d20611112e21b7f0da11c4" target="_top" xlink:title="Copy value data verbatim duplicating any buffers. ">
<polygon fill="none" stroke="#ff0000" points="976,-152.5 976,-171.5 1074,-171.5 1074,-152.5 976,-152.5"/>
<text text-anchor="middle" x="1025" y="-159.5" font-family="Helvetica,sans-Serif" font-size="10.00" fill="#000000">fr_value_box_copy</text>
</a>
</g>
</g>
<!-- Node1302&#45;&gt;Node1319 -->
<g id="edge23" class="edge">
<title>Node1302&#45;&gt;Node1319</title>
<path fill="none" stroke="#191970" d="M202.6441,-266.2669C219.0414,-249.3351 255.1851,-214.3276 292,-194 379.973,-145.4251 406.5074,-124 507,-124 507,-124 507,-124 760.5,-124 835.4623,-124 921.1717,-139.1395 974.1956,-150.3065"/>
<polygon fill="#191970" stroke="#191970" points="973.5176,-153.7406 984.0287,-152.411 974.9826,-146.8956 973.5176,-153.7406"/>
</g>
<!-- Node1325 -->
<g id="node14" class="node">
<title>Node1325</title>
<g id="a_node14"><a xlink:href="cursor_8c.html#af6c2090d1e00319075d6def5aa2666fd" target="_top" xlink:title="Advanced the cursor to the next item. ">
<polygon fill="none" stroke="#ff0000" points="320.5,-228.5 320.5,-247.5 399.5,-247.5 399.5,-228.5 320.5,-228.5"/>
<text text-anchor="middle" x="360" y="-235.5" font-family="Helvetica,sans-Serif" font-size="10.00" fill="#000000">fr_cursor_next</text>
</a>
</g>
</g>
<!-- Node1302&#45;&gt;Node1325 -->
<g id="edge24" class="edge">
<title>Node1302&#45;&gt;Node1325</title>
<path fill="none" stroke="#191970" d="M235.515,-266.411C258.2745,-261.2166 286.5349,-254.7668 310.3739,-249.3261"/>
<polygon fill="#191970" stroke="#191970" points="311.3205,-252.7001 320.291,-247.0627 309.7629,-245.8756 311.3205,-252.7001"/>
</g>
<!-- Node1813 -->
<g id="node15" class="node">
<title>Node1813</title>
<g id="a_node15"><a xlink:href="cursor_8h.html#ae89f379d1f6985ee4335586e0acd0df6" target="_top" xlink:title="talloc_free the current item ">
<polygon fill="none" stroke="#ff0000" points="309.5,-342.5 309.5,-361.5 410.5,-361.5 410.5,-342.5 309.5,-342.5"/>
<text text-anchor="middle" x="360" y="-349.5" font-family="Helvetica,sans-Serif" font-size="10.00" fill="#000000">fr_cursor_free_item</text>
</a>
</g>
</g>
<!-- Node1302&#45;&gt;Node1813 -->
<g id="edge25" class="edge">
<title>Node1302&#45;&gt;Node1813</title>
<path fill="none" stroke="#191970" d="M207.5917,-285.6918C226.1979,-298.1209 260.316,-319.6591 292,-333 297.7086,-335.4037 303.813,-337.5987 309.9345,-339.5738"/>
<polygon fill="#191970" stroke="#191970" points="308.9276,-342.9258 319.5137,-342.4949 310.9694,-336.2302 308.9276,-342.9258"/>
</g>
<!-- Node1684 -->
<g id="node16" class="node">
<title>Node1684</title>
<g id="a_node16"><a xlink:href="cursor_8c.html#a92733b72ea218ecff0bc7808fae613b7" target="_top" xlink:title="Return the item the cursor current points to. ">
<polygon fill="none" stroke="#000000" points="315,-304.5 315,-323.5 405,-323.5 405,-304.5 315,-304.5"/>
<text text-anchor="middle" x="360" y="-311.5" font-family="Helvetica,sans-Serif" font-size="10.00" fill="#000000">fr_cursor_current</text>
</a>
</g>
</g>
<!-- Node1302&#45;&gt;Node1684 -->
<g id="edge26" class="edge">
<title>Node1302&#45;&gt;Node1684</title>
<path fill="none" stroke="#191970" d="M235.515,-285.589C257.6844,-290.6487 285.0732,-296.8996 308.511,-302.2488"/>
<polygon fill="#191970" stroke="#191970" points="307.759,-305.6671 318.2871,-304.4799 309.3166,-298.8425 307.759,-305.6671"/>
</g>
<!-- Node1327 -->
<g id="node17" class="node">
<title>Node1327</title>
<g id="a_node17"><a xlink:href="value_8c.html#a0adc72b7a30d3064ab65ed9059f0e8c8" target="_top" xlink:title="Append bytes from a buffer to an existing fr_value_box_t. ">
<polygon fill="none" stroke="#000000" points="310.5,-381 310.5,-411 409.5,-411 409.5,-381 310.5,-381"/>
<text text-anchor="start" x="318.5" y="-399" font-family="Helvetica,sans-Serif" font-size="10.00" fill="#000000">fr_value_box_bstrn</text>
<text text-anchor="middle" x="360" y="-388" font-family="Helvetica,sans-Serif" font-size="10.00" fill="#000000">_append</text>
</a>
</g>
</g>
<!-- Node1302&#45;&gt;Node1327 -->
<g id="edge27" class="edge">
<title>Node1302&#45;&gt;Node1327</title>
<path fill="none" stroke="#191970" d="M201.1616,-285.7108C216.5159,-304.5881 252.9445,-346.5245 292,-371 295.1708,-372.9871 298.523,-374.85 301.9715,-376.5907"/>
<polygon fill="#191970" stroke="#191970" points="300.7236,-379.8703 311.2669,-380.9144 303.676,-373.5233 300.7236,-379.8703"/>
</g>
<!-- Node1336 -->
<g id="node18" class="node">
<title>Node1336</title>
<g id="a_node18"><a xlink:href="value_8c.html#a6162c72ecf7a8f7c5c162192074df556" target="_top" xlink:title="Append data to an existing fr_value_box_t. ">
<polygon fill="none" stroke="#000000" points="292,-266.5 292,-285.5 428,-285.5 428,-266.5 292,-266.5"/>
<text text-anchor="middle" x="360" y="-273.5" font-family="Helvetica,sans-Serif" font-size="10.00" fill="#000000">fr_value_box_mem_append</text>
</a>
</g>
</g>
<!-- Node1302&#45;&gt;Node1336 -->
<g id="edge29" class="edge">
<title>Node1302&#45;&gt;Node1336</title>
<path fill="none" stroke="#191970" d="M256.4465,-276C264.6957,-276 273.2282,-276 281.6923,-276"/>
<polygon fill="#191970" stroke="#191970" points="281.9591,-279.5001 291.9591,-276 281.9591,-272.5001 281.9591,-279.5001"/>
</g>
<!-- Node1304 -->
<g id="node4" class="node">
<title>Node1304</title>
<g id="a_node4"><a xlink:href="acutest_8h.html#aecf9a9be8105efb1454cd8c1ef6cb1c5" target="_top" xlink:title="va_start">
<polygon fill="none" stroke="#000000" points="999,-512.5 999,-531.5 1051,-531.5 1051,-512.5 999,-512.5"/>
<text text-anchor="middle" x="1025" y="-519.5" font-family="Helvetica,sans-Serif" font-size="10.00" fill="#000000">va_start</text>
</a>
</g>
</g>
<!-- Node1303&#45;&gt;Node1304 -->
<g id="edge3" class="edge">
<title>Node1303&#45;&gt;Node1304</title>
<path fill="none" stroke="#191970" d="M512.0419,-304.618C531.6906,-340.8473 607.3028,-468.9993 713,-508 807.5354,-542.8822 929.2385,-534.4972 988.845,-527.2815"/>
<polygon fill="#191970" stroke="#191970" points="989.4122,-530.7376 998.8907,-526.004 988.5291,-523.7936 989.4122,-530.7376"/>
</g>
<!-- Node1305 -->
<g id="node5" class="node">
<title>Node1305</title>
<g id="a_node5"><a xlink:href="strerror_8c.html#a193b1e0b3712e3bbee338812c06af482" target="_top" xlink:title="fr_strerror_vprintf">
<polygon fill="none" stroke="#000000" points="586,-380.5 586,-399.5 677,-399.5 677,-380.5 586,-380.5"/>
<text text-anchor="middle" x="631.5" y="-387.5" font-family="Helvetica,sans-Serif" font-size="10.00" fill="#000000">fr_strerror_vprintf</text>
</a>
</g>
</g>
<!-- Node1303&#45;&gt;Node1305 -->
<g id="edge4" class="edge">
<title>Node1303&#45;&gt;Node1305</title>
<path fill="none" stroke="#191970" d="M519.8548,-304.8089C541.4006,-321.2494 584.9801,-354.5029 610.8599,-374.2505"/>
<polygon fill="#191970" stroke="#191970" points="608.8275,-377.1022 618.9006,-380.386 613.0738,-371.5373 608.8275,-377.1022"/>
</g>
<!-- Node1308 -->
<g id="node8" class="node">
<title>Node1308</title>
<g id="a_node8"><a xlink:href="acutest_8h.html#a36af1f79dd6adf0809c21e76535034d5" target="_top" xlink:title="va_end">
<polygon fill="none" stroke="#000000" points="1001,-342.5 1001,-361.5 1049,-361.5 1049,-342.5 1001,-342.5"/>
<text text-anchor="middle" x="1025" y="-349.5" font-family="Helvetica,sans-Serif" font-size="10.00" fill="#000000">va_end</text>
</a>
</g>
</g>
<!-- Node1303&#45;&gt;Node1308 -->
<g id="edge21" class="edge">
<title>Node1303&#45;&gt;Node1308</title>
<path fill="none" stroke="#191970" d="M550.2734,-299.7617C651.0824,-310.8546 899.8993,-338.2341 990.9317,-348.2512"/>
<polygon fill="#191970" stroke="#191970" points="990.6608,-351.7424 1000.9836,-349.3573 991.4265,-344.7844 990.6608,-351.7424"/>
</g>
<!-- Node1306 -->
<g id="node6" class="node">
<title>Node1306</title>
<g id="a_node6"><a xlink:href="strerror_8c.html#a42c2cc9f76fb9dac723a1903c181e1c7" target="_top" xlink:title="Initialise thread local storage. ">
<polygon fill="none" stroke="#ff0000" points="722,-456.5 722,-475.5 799,-475.5 799,-456.5 722,-456.5"/>
<text text-anchor="middle" x="760.5" y="-463.5" font-family="Helvetica,sans-Serif" font-size="10.00" fill="#000000">fr_strerror_init</text>
</a>
</g>
</g>
<!-- Node1305&#45;&gt;Node1306 -->
<g id="edge5" class="edge">
<title>Node1305&#45;&gt;Node1306</title>
<path fill="none" stroke="#191970" d="M645.6606,-399.6479C661.7104,-410.4376 688.792,-428.2074 713,-442 718.7951,-445.3018 725.0989,-448.6498 731.1637,-451.7555"/>
<polygon fill="#191970" stroke="#191970" points="729.8834,-455.0293 740.3899,-456.3948 733.0282,-448.7754 729.8834,-455.0293"/>
</g>
<!-- Node1307 -->
<g id="node7" class="node">
<title>Node1307</title>
<g id="a_node7"><a xlink:href="strerror_8c.html#a2c8e65d6d4b73fb705cc023f60acb099" target="_top" xlink:title="Print the current error to stderr with a prefix. ">
<polygon fill="none" stroke="#ff0000" points="865.5,-484.5 865.5,-503.5 918.5,-503.5 918.5,-484.5 865.5,-484.5"/>
<text text-anchor="middle" x="892" y="-491.5" font-family="Helvetica,sans-Serif" font-size="10.00" fill="#000000">fr_perror</text>
</a>
</g>
</g>
<!-- Node1305&#45;&gt;Node1307 -->
<g id="edge11" class="edge">
<title>Node1305&#45;&gt;Node1307</title>
<path fill="none" stroke="#191970" d="M636.2059,-399.5019C646.7417,-419.5852 674.3694,-466.0532 713,-485 758.0705,-507.1053 817.4248,-504.9233 855.1595,-500.2867"/>
<polygon fill="#191970" stroke="#191970" points="855.7573,-503.7378 865.1994,-498.932 854.8212,-496.8007 855.7573,-503.7378"/>
</g>
<!-- Node1305&#45;&gt;Node1308 -->
<g id="edge19" class="edge">
<title>Node1305&#45;&gt;Node1308</title>
<path fill="none" stroke="#191970" d="M677.0239,-385.6038C756.6895,-377.9105 919.6509,-362.1735 990.6557,-355.3166"/>
<polygon fill="#191970" stroke="#191970" points="991.2228,-358.7782 1000.84,-354.3331 990.5499,-351.8106 991.2228,-358.7782"/>
</g>
<!-- Node1314 -->
<g id="node9" class="node">
<title>Node1314</title>
<g id="a_node9"><a xlink:href="strerror_8c.html#a9d878c1ddb1b385cdaf6523fff68529c" target="_top" xlink:title="Reset cursor state. ">
<polygon fill="none" stroke="#000000" points="849.5,-427.5 849.5,-446.5 934.5,-446.5 934.5,-427.5 849.5,-427.5"/>
<text text-anchor="middle" x="892" y="-434.5" font-family="Helvetica,sans-Serif" font-size="10.00" fill="#000000">fr_strerror_clear</text>
</a>
</g>
</g>
<!-- Node1305&#45;&gt;Node1314 -->
<g id="edge10" class="edge">
<title>Node1305&#45;&gt;Node1314</title>
<path fill="none" stroke="#191970" d="M677.1737,-398.2406C722.443,-406.4081 791.726,-418.9083 839.3008,-427.4919"/>
<polygon fill="#191970" stroke="#191970" points="838.9419,-430.9836 849.4045,-429.3148 840.1849,-424.0948 838.9419,-430.9836"/>
</g>
<!-- Node1315 -->
<g id="node10" class="node">
<title>Node1315</title>
<g id="a_node10"><a xlink:href="print_8c.html#a27ae94b5a4c77de49aa2f387765a4d58" target="_top" xlink:title="Special version of vasprintf which implements custom format specifiers. ">
<polygon fill="none" stroke="#ff0000" points="728,-266.5 728,-285.5 793,-285.5 793,-266.5 728,-266.5"/>
<text text-anchor="middle" x="760.5" y="-273.5" font-family="Helvetica,sans-Serif" font-size="10.00" fill="#000000">fr_vasprintf</text>
</a>
</g>
</g>
<!-- Node1305&#45;&gt;Node1315 -->
<g id="edge12" class="edge">
<title>Node1305&#45;&gt;Node1315</title>
<path fill="none" stroke="#191970" d="M642.4985,-380.2804C664.5853,-360.7618 714.5481,-316.6087 741.8424,-292.4881"/>
<polygon fill="#191970" stroke="#191970" points="744.3538,-294.9396 749.5294,-285.695 739.7184,-289.6943 744.3538,-294.9396"/>
</g>
<!-- Node1467 -->
<g id="node13" class="node">
<title>Node1467</title>
<g id="a_node13"><a xlink:href="cursor_8c.html#a5d942382660657c3b4cb6e9cb2b12b2c" target="_top" xlink:title="Insert a single item at the start of the list. ">
<polygon fill="none" stroke="#000000" points="713,-342.5 713,-361.5 808,-361.5 808,-342.5 713,-342.5"/>
<text text-anchor="middle" x="760.5" y="-349.5" font-family="Helvetica,sans-Serif" font-size="10.00" fill="#000000">fr_cursor_prepend</text>
</a>
</g>
</g>
<!-- Node1305&#45;&gt;Node1467 -->
<g id="edge20" class="edge">
<title>Node1305&#45;&gt;Node1467</title>
<path fill="none" stroke="#191970" d="M664.0521,-380.411C680.3993,-375.5956 700.4092,-369.7012 717.9571,-364.532"/>
<polygon fill="#191970" stroke="#191970" points="719.3548,-367.7691 727.9583,-361.5859 717.3768,-361.0543 719.3548,-367.7691"/>
</g>
<!-- Node1306&#45;&gt;Node1307 -->
<g id="edge6" class="edge">
<title>Node1306&#45;&gt;Node1307</title>
<path fill="none" stroke="#191970" d="M799.2431,-474.2495C816.9757,-478.0253 837.8805,-482.4765 855.3511,-486.1964"/>
<polygon fill="#191970" stroke="#191970" points="854.6812,-489.6322 865.1908,-488.2916 856.139,-482.7857 854.6812,-489.6322"/>
</g>
<!-- Node1306&#45;&gt;Node1314 -->
<g id="edge9" class="edge">
<title>Node1306&#45;&gt;Node1314</title>
<path fill="none" stroke="#191970" d="M799.2431,-457.4559C811.8004,-454.6866 825.9483,-451.5665 839.3411,-448.613"/>
<polygon fill="#191970" stroke="#191970" points="840.385,-451.967 849.3965,-446.3954 838.8774,-445.1312 840.385,-451.967"/>
</g>
<!-- Node1307&#45;&gt;Node1304 -->
<g id="edge7" class="edge">
<title>Node1307&#45;&gt;Node1304</title>
<path fill="none" stroke="#191970" d="M918.5949,-499.5989C938.751,-503.8423 966.6688,-509.7197 988.8507,-514.3896"/>
<polygon fill="#191970" stroke="#191970" points="988.3979,-517.8709 998.9045,-516.5062 989.84,-511.0211 988.3979,-517.8709"/>
</g>
<!-- Node1307&#45;&gt;Node1308 -->
<g id="edge8" class="edge">
<title>Node1307&#45;&gt;Node1308</title>
<path fill="none" stroke="#191970" d="M905.68,-484.4041C915.6529,-477.1224 929.2451,-466.5887 940,-456 968.207,-428.2287 996.3797,-391.5599 1012.1615,-370.0038"/>
<polygon fill="#191970" stroke="#191970" points="1015.1002,-371.913 1018.1304,-361.7607 1009.4306,-367.8074 1015.1002,-371.913"/>
</g>
<!-- Node1315&#45;&gt;Node1303 -->
<g id="edge14" class="edge">
<title>Node1315&#45;&gt;Node1303</title>
<path fill="none" stroke="#191970" d="M727.7893,-278.4517C685.3387,-281.6334 610.7246,-287.2258 560.1049,-291.0198"/>
<polygon fill="#191970" stroke="#191970" points="559.7132,-287.5392 550.0028,-291.7769 560.2365,-294.5196 559.7132,-287.5392"/>
</g>
<!-- Node1315&#45;&gt;Node1308 -->
<g id="edge13" class="edge">
<title>Node1315&#45;&gt;Node1308</title>
<path fill="none" stroke="#191970" d="M793.2195,-276.3419C829.9411,-277.6371 890.8134,-282.5471 940,-300 963.7979,-308.4442 988.0921,-324.1649 1004.5795,-336.1187"/>
<polygon fill="#191970" stroke="#191970" points="1002.7723,-339.1368 1012.8833,-342.3021 1006.9531,-333.5224 1002.7723,-339.1368"/>
</g>
<!-- Node1315&#45;&gt;Node1318 -->
<g id="edge15" class="edge">
<title>Node1315&#45;&gt;Node1318</title>
<path fill="none" stroke="#191970" d="M782.5101,-266.4595C803.8448,-257.2117 836.4243,-243.0898 860.5018,-232.6532"/>
<polygon fill="#191970" stroke="#191970" points="862.1349,-235.7601 869.918,-228.5716 859.3509,-229.3375 862.1349,-235.7601"/>
</g>
<!-- Node1318&#45;&gt;Node1303 -->
<g id="edge16" class="edge">
<title>Node1318&#45;&gt;Node1303</title>
<path fill="none" stroke="#191970" d="M843.9713,-227.9301C783.6601,-239.22 677.0479,-259.4284 586,-278 577.6019,-279.713 568.713,-281.5766 560.0457,-283.4213"/>
<polygon fill="#191970" stroke="#191970" points="559.0616,-280.0526 550.0156,-285.5681 560.5267,-286.8976 559.0616,-280.0526"/>
</g>
<!-- Node1318&#45;&gt;Node1319 -->
<g id="edge17" class="edge">
<title>Node1318&#45;&gt;Node1319</title>
<path fill="none" stroke="#191970" d="M914.2612,-209.4595C935.9352,-200.1706 969.0835,-185.9642 993.4667,-175.5143"/>
<polygon fill="#191970" stroke="#191970" points="994.8534,-178.7279 1002.6662,-171.5716 992.096,-172.2939 994.8534,-178.7279"/>
</g>
<!-- Node1319&#45;&gt;Node1303 -->
<g id="edge18" class="edge">
<title>Node1319&#45;&gt;Node1303</title>
<path fill="none" stroke="#191970" d="M975.843,-168.4205C893.5029,-180.0758 723.2275,-208.0504 586,-256 567.3461,-262.518 547.401,-272.3893 532.2183,-280.5696"/>
<polygon fill="#191970" stroke="#191970" points="530.5108,-277.5142 523.4344,-285.3993 533.8835,-283.6481 530.5108,-277.5142"/>
</g>
<!-- Node1327&#45;&gt;Node1303 -->
<g id="edge28" class="edge">
<title>Node1327&#45;&gt;Node1303</title>
<path fill="none" stroke="#191970" d="M408.7288,-380.9075C415.4165,-378.0348 422.0291,-374.7366 428,-371 453.5531,-355.0088 477.7278,-329.7123 492.4479,-312.7466"/>
<polygon fill="#191970" stroke="#191970" points="495.4479,-314.62 499.2409,-304.7274 490.1066,-310.0955 495.4479,-314.62"/>
</g>
<!-- Node1336&#45;&gt;Node1303 -->
<g id="edge30" class="edge">
<title>Node1336&#45;&gt;Node1303</title>
<path fill="none" stroke="#191970" d="M428.3358,-284.8325C436.7707,-285.9227 445.2967,-287.0247 453.4666,-288.0807"/>
<polygon fill="#191970" stroke="#191970" points="453.2249,-291.5785 463.591,-289.3893 454.1222,-284.6363 453.2249,-291.5785"/>
</g>
<!-- Node1324 -->
<g id="node20" class="node">
<title>Node1324</title>
<g id="a_node20"><a xlink:href="value_8h.html#ab2f9fbd42c467414fa4e5c3793fb3572" target="_top" xlink:title="Initialise a fr_value_box_t. ">
<polygon fill="none" stroke="#000000" points="315,-38.5 315,-57.5 405,-57.5 405,-38.5 315,-38.5"/>
<text text-anchor="middle" x="360" y="-45.5" font-family="Helvetica,sans-Serif" font-size="10.00" fill="#000000">fr_value_box_init</text>
</a>
</g>
</g>
<!-- Node1561&#45;&gt;Node1324 -->
<g id="edge32" class="edge">
<title>Node1561&#45;&gt;Node1324</title>
<path fill="none" stroke="#191970" d="M242.555,-48C262.0779,-48 284.6375,-48 304.7347,-48"/>
<polygon fill="#191970" stroke="#191970" points="304.9907,-51.5001 314.9907,-48 304.9907,-44.5001 304.9907,-51.5001"/>
</g>
<!-- Node1929&#45;&gt;Node1303 -->
<g id="edge34" class="edge">
<title>Node1929&#45;&gt;Node1303</title>
<path fill="none" stroke="#191970" d="M214.3125,-95.6056C256.5766,-115.5729 354.6607,-164.2832 428,-219 451.9011,-236.832 476.1392,-261.3065 491.3479,-277.612"/>
<polygon fill="#191970" stroke="#191970" points="489.0845,-280.3216 498.4285,-285.3157 494.2383,-275.5846 489.0845,-280.3216"/>
</g>
<!-- Node1929&#45;&gt;Node1324 -->
<g id="edge35" class="edge">
<title>Node1929&#45;&gt;Node1324</title>
<path fill="none" stroke="#191970" d="M235.515,-76.411C257.6844,-71.3513 285.0732,-65.1004 308.511,-59.7512"/>
<polygon fill="#191970" stroke="#191970" points="309.3166,-63.1575 318.2871,-57.5201 307.759,-56.3329 309.3166,-63.1575"/>
</g>
</g>
</svg>
