<?xml version="1.0" encoding="UTF-8" standalone="no"?>
<!DOCTYPE svg PUBLIC "-//W3C//DTD SVG 1.1//EN"
 "http://www.w3.org/Graphics/SVG/1.1/DTD/svg11.dtd">
<!-- Generated by graphviz version 2.40.1 (20161225.0304)
 -->
<!-- Title: fr_aka_sim_crypto_keys_init_kdf_0_reauth Pages: 1 -->
<!--zoomable 39 -->
<svg id="main" version="1.1" xmlns="http://www.w3.org/2000/svg" xmlns:xlink="http://www.w3.org/1999/xlink" xml:space="preserve" onload="init(evt)">
<style type="text/css"><![CDATA[
.edge:hover path { stroke: red; }
.edge:hover polygon { stroke: red; fill: red; }
]]></style>
<script type="text/javascript"><![CDATA[
var edges = document.getElementsByTagName('g');
if (edges && edges.length) {
  for (var i=0;i<edges.length;i++) {
    if (edges[i].id.substr(0,4)=='edge') {
      edges[i].setAttribute('class','edge');
    }
  }
}
]]></script>
        <defs>
                <circle id="rim" cx="0" cy="0" r="7"/>
                <circle id="rim2" cx="0" cy="0" r="3.5"/>
                <g id="zoomPlus">
                        <use xlink:href="#rim" fill="#404040">
                                <set attributeName="fill" to="#808080" begin="zoomplus.mouseover" end="zoomplus.mouseout"/>
                        </use>
                        <path d="M-4,0h8M0,-4v8" fill="none" stroke="white" stroke-width="1.5" pointer-events="none"/>
                </g>
                <g id="zoomMin">
                        <use xlink:href="#rim" fill="#404040">
                                <set attributeName="fill" to="#808080" begin="zoomminus.mouseover" end="zoomminus.mouseout"/>
                        </use>
                        <path d="M-4,0h8" fill="none" stroke="white" stroke-width="1.5" pointer-events="none"/>
                </g>
                <g id="dirArrow">
                        <path fill="none" stroke="white" stroke-width="1.5" d="M0,-3.0v7 M-2.5,-0.5L0,-3.0L2.5,-0.5"/>
                </g>
               <g id="resetDef">
                       <use xlink:href="#rim2" fill="#404040">
                               <set attributeName="fill" to="#808080" begin="reset.mouseover" end="reset.mouseout"/>
                       </use>
               </g>
        </defs>

<script type="text/javascript">
var viewWidth = 797;
var viewHeight = 39;
var sectionId = 'dynsection-13';
</script>
<script xlink:href="svgpan.js"/>
<svg id="graph" class="graph">
<g id="viewport">
<title>fr_aka_sim_crypto_keys_init_kdf_0_reauth</title>
<!-- Node487 -->
<g id="node1" class="node">
<title>Node487</title>
<polygon fill="#bfbfbf" stroke="#000000" points="0,-.5 0,-30.5 123,-30.5 123,-.5 0,-.5"/>
<text text-anchor="start" x="8" y="-18.5" font-family="Helvetica,sans-Serif" font-size="10.00" fill="#000000">fr_aka_sim_crypto_keys</text>
<text text-anchor="middle" x="61.5" y="-7.5" font-family="Helvetica,sans-Serif" font-size="10.00" fill="#000000">_init_kdf_0_reauth</text>
</g>
<!-- Node488 -->
<g id="node2" class="node">
<title>Node488</title>
<g id="a_node2"><a xlink:href="vector_8c.html#aedfdee78c1f6731f4deb67faa63ffce3" target="_top" xlink:title="Populate a fr_aka_sim_keys_t structure from attributes in the session&#45;state list. ...">
<polygon fill="none" stroke="#000000" points="159,-.5 159,-30.5 314,-30.5 314,-.5 159,-.5"/>
<text text-anchor="start" x="167" y="-18.5" font-family="Helvetica,sans-Serif" font-size="10.00" fill="#000000">fr_aka_sim_vector_gsm</text>
<text text-anchor="middle" x="236.5" y="-7.5" font-family="Helvetica,sans-Serif" font-size="10.00" fill="#000000">_umts_kdf_0_reauth_from_attrs</text>
</a>
</g>
</g>
<!-- Node487&#45;&gt;Node488 -->
<g id="edge1" class="edge">
<title>Node487&#45;&gt;Node488</title>
<path fill="none" stroke="#191970" d="M133.3251,-15.5C141.7259,-15.5 150.3261,-15.5 158.802,-15.5"/>
<polygon fill="#191970" stroke="#191970" points="133.1985,-12.0001 123.1985,-15.5 133.1984,-19.0001 133.1985,-12.0001"/>
</g>
<!-- Node489 -->
<g id="node3" class="node">
<title>Node489</title>
<g id="a_node3"><a xlink:href="state__machine_8c.html#a107ab4de5294de02963f21f31c42db19" target="_top" xlink:title="Send a EAP&#45;Request/(AKA|SIM)&#45;Reauthenticate message to the supplicant. ">
<polygon fill="none" stroke="#000000" points="350,-.5 350,-30.5 478,-30.5 478,-.5 350,-.5"/>
<text text-anchor="start" x="358" y="-18.5" font-family="Helvetica,sans-Serif" font-size="10.00" fill="#000000">common_reauthentication</text>
<text text-anchor="middle" x="414" y="-7.5" font-family="Helvetica,sans-Serif" font-size="10.00" fill="#000000">_request_compose</text>
</a>
</g>
</g>
<!-- Node488&#45;&gt;Node489 -->
<g id="edge2" class="edge">
<title>Node488&#45;&gt;Node489</title>
<path fill="none" stroke="#191970" d="M324.2161,-15.5C332.8588,-15.5 341.5147,-15.5 349.8557,-15.5"/>
<polygon fill="#191970" stroke="#191970" points="324.0959,-12.0001 314.0959,-15.5 324.0958,-19.0001 324.0959,-12.0001"/>
</g>
<!-- Node490 -->
<g id="node4" class="node">
<title>Node490</title>
<g id="a_node4"><a xlink:href="state__machine_8c.html#a137494b7a7a20309534e9c190c5a4bac" target="_top" xlink:title="Resume after &#39;send Reauthentication&#45;Request { ... ">
<polygon fill="none" stroke="#000000" points="514,-.5 514,-30.5 642,-30.5 642,-.5 514,-.5"/>
<text text-anchor="start" x="522" y="-18.5" font-family="Helvetica,sans-Serif" font-size="10.00" fill="#000000">common_reauthentication</text>
<text text-anchor="middle" x="578" y="-7.5" font-family="Helvetica,sans-Serif" font-size="10.00" fill="#000000">_send_resume</text>
</a>
</g>
</g>
<!-- Node489&#45;&gt;Node490 -->
<g id="edge3" class="edge">
<title>Node489&#45;&gt;Node490</title>
<path fill="none" stroke="#191970" d="M488.5641,-15.5C497.0037,-15.5 505.5492,-15.5 513.8391,-15.5"/>
<polygon fill="#191970" stroke="#191970" points="488.3465,-12.0001 478.3464,-15.5 488.3464,-19.0001 488.3465,-12.0001"/>
</g>
<!-- Node491 -->
<g id="node5" class="node">
<title>Node491</title>
<g id="a_node5"><a xlink:href="state__machine_8c.html#a2e55934578a6521d5aaf68d97a1af05f" target="_top" xlink:title="Resume after &#39;load session { ... ">
<polygon fill="none" stroke="#ff0000" points="678,-6 678,-25 789,-25 789,-6 678,-6"/>
<text text-anchor="middle" x="733.5" y="-13" font-family="Helvetica,sans-Serif" font-size="10.00" fill="#000000">session_load_resume</text>
</a>
</g>
</g>
<!-- Node490&#45;&gt;Node491 -->
<g id="edge4" class="edge">
<title>Node490&#45;&gt;Node491</title>
<path fill="none" stroke="#191970" d="M652.2472,-15.5C660.8969,-15.5 669.6045,-15.5 677.9407,-15.5"/>
<polygon fill="#191970" stroke="#191970" points="652.1456,-12.0001 642.1456,-15.5 652.1455,-19.0001 652.1456,-12.0001"/>
</g>
</g>
</svg>
        <g id="navigator" transform="translate(0 0)" fill="#404254">
                <rect fill="#f2f5e9" fill-opacity="0.5" stroke="#606060" stroke-width=".5" x="0" y="0" width="60" height="60"/>
                <use id="zoomplus" xlink:href="#zoomPlus" x="17" y="9" onmousedown="handleZoom(evt,'in')"/>
                <use id="zoomminus" xlink:href="#zoomMin" x="42" y="9" onmousedown="handleZoom(evt,'out')"/>
                <use id="reset" xlink:href="#resetDef" x="30" y="36" onmousedown="handleReset()"/>
                <g id="arrowUp" xlink:href="#dirArrow" transform="translate(30 24)" onmousedown="handlePan(0,-1)">
                  <use xlink:href="#rim" fill="#404040">
                        <set attributeName="fill" to="#808080" begin="arrowUp.mouseover" end="arrowUp.mouseout"/>
                  </use>
                  <path fill="none" stroke="white" stroke-width="1.5" d="M0,-3.0v7 M-2.5,-0.5L0,-3.0L2.5,-0.5"/>
                </g>
                <g id="arrowRight" xlink:href="#dirArrow" transform="rotate(90) translate(36 -43)" onmousedown="handlePan(1,0)">
                  <use xlink:href="#rim" fill="#404040">
                        <set attributeName="fill" to="#808080" begin="arrowRight.mouseover" end="arrowRight.mouseout"/>
                  </use>
                  <path fill="none" stroke="white" stroke-width="1.5" d="M0,-3.0v7 M-2.5,-0.5L0,-3.0L2.5,-0.5"/>
                </g>
                <g id="arrowDown" xlink:href="#dirArrow" transform="rotate(180) translate(-30 -48)" onmousedown="handlePan(0,1)">
                  <use xlink:href="#rim" fill="#404040">
                        <set attributeName="fill" to="#808080" begin="arrowDown.mouseover" end="arrowDown.mouseout"/>
                  </use>
                  <path fill="none" stroke="white" stroke-width="1.5" d="M0,-3.0v7 M-2.5,-0.5L0,-3.0L2.5,-0.5"/>
                </g>
                <g id="arrowLeft" xlink:href="#dirArrow" transform="rotate(270) translate(-36 17)" onmousedown="handlePan(-1,0)">
                  <use xlink:href="#rim" fill="#404040">
                        <set attributeName="fill" to="#808080" begin="arrowLeft.mouseover" end="arrowLeft.mouseout"/>
                  </use>
                  <path fill="none" stroke="white" stroke-width="1.5" d="M0,-3.0v7 M-2.5,-0.5L0,-3.0L2.5,-0.5"/>
                </g>
        </g>
        <svg viewBox="0 0 15 15" width="100%" height="30px" preserveAspectRatio="xMaxYMin meet">
         <g id="arrow_out" transform="scale(0.3 0.3)">
          <a xlink:href="aka__sim_2crypto_8c_aa458c00bafb1980ff3346389b2d21090_icgraph_org.svg" target="_base">
           <rect id="button" ry="5" rx="5" y="6" x="6" height="38" width="38"
                fill="#f2f5e9" fill-opacity="0.5" stroke="#606060" stroke-width="1.0"/>
           <path id="arrow"
             d="M 11.500037,31.436501 C 11.940474,20.09759 22.043105,11.32322 32.158766,21.979434 L 37.068811,17.246167 C 37.068811,17.246167 37.088388,32 37.088388,32 L 22.160133,31.978069 C 22.160133,31.978069 26.997745,27.140456 26.997745,27.140456 C 18.528582,18.264221 13.291696,25.230495 11.500037,31.436501 z"
             style="fill:#404040;"/>
          </a>
         </g>
        </svg>
</svg>
