<?xml version="1.0" encoding="UTF-8" standalone="no"?>
<!DOCTYPE svg PUBLIC "-//W3C//DTD SVG 1.1//EN"
 "http://www.w3.org/Graphics/SVG/1.1/DTD/svg11.dtd">
<!-- Generated by graphviz version 2.40.1 (20161225.0304)
 -->
<!-- Title: _ldap_bind_io_error Pages: 1 -->
<svg width="967pt" height="224pt"
 viewBox="0.00 0.00 967.00 223.50" xmlns="http://www.w3.org/2000/svg" xmlns:xlink="http://www.w3.org/1999/xlink">
<g id="graph0" class="graph" transform="scale(1 1) rotate(0) translate(4 219.5)">
<title>_ldap_bind_io_error</title>
<!-- Node175 -->
<g id="node1" class="node">
<title>Node175</title>
<polygon fill="#bfbfbf" stroke="#000000" points="0,-57.5 0,-76.5 101,-76.5 101,-57.5 0,-57.5"/>
<text text-anchor="middle" x="50.5" y="-64.5" font-family="Helvetica,sans-Serif" font-size="10.00" fill="#000000">_ldap_bind_io_error</text>
</g>
<!-- Node176 -->
<g id="node2" class="node">
<title>Node176</title>
<g id="a_node2"><a xlink:href="bind_8c.html#aef1a138118b3a64c253c8e4049a51e98" target="_top" xlink:title="Send a bind request to a aserver. ">
<polygon fill="none" stroke="#000000" points="137,-19.5 137,-38.5 239,-38.5 239,-19.5 137,-19.5"/>
<text text-anchor="middle" x="188" y="-26.5" font-family="Helvetica,sans-Serif" font-size="10.00" fill="#000000">_ldap_bind_io_write</text>
</a>
</g>
</g>
<!-- Node175&#45;&gt;Node176 -->
<g id="edge1" class="edge">
<title>Node175&#45;&gt;Node176</title>
<path fill="none" stroke="#191970" d="M95.0729,-54.6817C113.9645,-49.4607 135.6472,-43.4684 153.314,-38.5859"/>
<polygon fill="#191970" stroke="#191970" points="93.9034,-51.3736 85.1971,-57.411 95.7681,-58.1207 93.9034,-51.3736"/>
</g>
<!-- Node177 -->
<g id="node3" class="node">
<title>Node177</title>
<g id="a_node3"><a xlink:href="bind_8c.html#a53d2be0b764a0b47ac75980bb780c1fb" target="_top" xlink:title="Install I/O handlers for the bind operation. ">
<polygon fill="none" stroke="#000000" points="275,-95.5 275,-114.5 376,-114.5 376,-95.5 275,-95.5"/>
<text text-anchor="middle" x="325.5" y="-102.5" font-family="Helvetica,sans-Serif" font-size="10.00" fill="#000000">fr_ldap_bind_async</text>
</a>
</g>
</g>
<!-- Node175&#45;&gt;Node177 -->
<g id="edge19" class="edge">
<title>Node175&#45;&gt;Node177</title>
<path fill="none" stroke="#191970" d="M111.2618,-77.1001C119.8947,-78.4576 128.6673,-79.7956 137,-81 183.5271,-87.7252 236.6629,-94.3997 274.6338,-98.9962"/>
<polygon fill="#191970" stroke="#191970" points="111.6522,-73.6183 101.2266,-75.5044 110.5528,-80.5314 111.6522,-73.6183"/>
</g>
<!-- Node176&#45;&gt;Node177 -->
<g id="edge2" class="edge">
<title>Node176&#45;&gt;Node177</title>
<path fill="none" stroke="#191970" d="M214.5136,-43.6548C242.147,-58.9285 284.643,-82.4172 308.2269,-95.4527"/>
<polygon fill="#191970" stroke="#191970" points="215.8597,-40.3998 205.4145,-38.6255 212.4734,-46.5262 215.8597,-40.3998"/>
</g>
<!-- Node178 -->
<g id="node4" class="node">
<title>Node178</title>
<g id="a_node4"><a xlink:href="ldap_2base_8h.html#a09b17dbd44c20ca295df56d5987d9da6" target="_top" xlink:title="Inline function to copy pointers from a berval to a valuebox. ">
<polygon fill="none" stroke="#000000" points="691,-185 691,-215 810,-215 810,-185 691,-185"/>
<text text-anchor="start" x="699" y="-203" font-family="Helvetica,sans-Serif" font-size="10.00" fill="#000000">fr_ldap_berval_to_value</text>
<text text-anchor="middle" x="750.5" y="-192" font-family="Helvetica,sans-Serif" font-size="10.00" fill="#000000">_shallow</text>
</a>
</g>
</g>
<!-- Node177&#45;&gt;Node178 -->
<g id="edge3" class="edge">
<title>Node177&#45;&gt;Node178</title>
<path fill="none" stroke="#191970" d="M348.9027,-119.9268C387.7794,-143.7406 468.9391,-189.3403 545,-206 593.2891,-216.5768 649.4773,-213.953 690.8834,-209.3162"/>
<polygon fill="#191970" stroke="#191970" points="350.7347,-116.9445 340.3922,-114.6456 347.0437,-122.8924 350.7347,-116.9445"/>
</g>
<!-- Node182 -->
<g id="node6" class="node">
<title>Node182</title>
<g id="a_node6"><a xlink:href="ldap_2state_8c.html#a9d006baa948940f49f3591bbb83e04c8" target="_top" xlink:title="Move between LDAP connection states. ">
<polygon fill="none" stroke="#000000" points="412,-95.5 412,-114.5 509,-114.5 509,-95.5 412,-95.5"/>
<text text-anchor="middle" x="460.5" y="-102.5" font-family="Helvetica,sans-Serif" font-size="10.00" fill="#000000">fr_ldap_state_next</text>
</a>
</g>
</g>
<!-- Node177&#45;&gt;Node182 -->
<g id="edge5" class="edge">
<title>Node177&#45;&gt;Node182</title>
<path fill="none" stroke="#191970" d="M386.4178,-105C394.9203,-105 403.5634,-105 411.8007,-105"/>
<polygon fill="#191970" stroke="#191970" points="386.1531,-101.5001 376.1531,-105 386.1531,-108.5001 386.1531,-101.5001"/>
</g>
<!-- Node179 -->
<g id="node5" class="node">
<title>Node179</title>
<g id="a_node5"><a xlink:href="sync_8c.html#a1f0346c509a0282581842cc8ebd2ef0e" target="_top" xlink:title="Handle a LDAP_RES_SEARCH_ENTRY (SearchResultEntry) or LDAP_RES_SEARCH_REFRENCE (SearchResultReference...">
<polygon fill="none" stroke="#ff0000" points="846,-185 846,-215 959,-215 959,-185 846,-185"/>
<text text-anchor="start" x="854" y="-203" font-family="Helvetica,sans-Serif" font-size="10.00" fill="#000000">sync_search_entry_or</text>
<text text-anchor="middle" x="902.5" y="-192" font-family="Helvetica,sans-Serif" font-size="10.00" fill="#000000">_reference</text>
</a>
</g>
</g>
<!-- Node178&#45;&gt;Node179 -->
<g id="edge4" class="edge">
<title>Node178&#45;&gt;Node179</title>
<path fill="none" stroke="#191970" d="M820.3424,-200C828.7724,-200 837.3042,-200 845.5191,-200"/>
<polygon fill="#191970" stroke="#191970" points="820.1382,-196.5001 810.1382,-200 820.1381,-203.5001 820.1382,-196.5001"/>
</g>
<!-- Node182&#45;&gt;Node178 -->
<g id="edge6" class="edge">
<title>Node182&#45;&gt;Node178</title>
<path fill="none" stroke="#191970" d="M474.1084,-122.6058C489.2437,-140.73 515.4835,-168.0889 545,-181 591.1208,-201.1741 648.516,-204.927 690.9179,-204.2069"/>
<polygon fill="#191970" stroke="#191970" points="476.6111,-120.1341 467.6047,-114.5541 471.1656,-124.5326 476.6111,-120.1341"/>
</g>
<!-- Node183 -->
<g id="node7" class="node">
<title>Node183</title>
<g id="a_node7"><a xlink:href="bind_8c.html#aadbb6b77649a0d2fd82f15e5105e5b2c" target="_top" xlink:title="Parse a bind response from a server. ">
<polygon fill="none" stroke="#000000" points="700.5,-.5 700.5,-19.5 800.5,-19.5 800.5,-.5 700.5,-.5"/>
<text text-anchor="middle" x="750.5" y="-7.5" font-family="Helvetica,sans-Serif" font-size="10.00" fill="#000000">_ldap_bind_io_read</text>
</a>
</g>
</g>
<!-- Node182&#45;&gt;Node183 -->
<g id="edge7" class="edge">
<title>Node182&#45;&gt;Node183</title>
<path fill="none" stroke="#191970" d="M474.1084,-87.3942C489.2437,-69.27 515.4835,-41.9111 545,-29 594.5676,-7.3182 657.1576,-4.6038 700.1623,-6.0246"/>
<polygon fill="#191970" stroke="#191970" points="471.1656,-85.4674 467.6047,-95.4459 476.6111,-89.8659 471.1656,-85.4674"/>
</g>
<!-- Node184 -->
<g id="node8" class="node">
<title>Node184</title>
<g id="a_node8"><a xlink:href="ldap_2connection_8c.html#a8203ec84b054741130b784256e106405" target="_top" xlink:title="(Re&#45;)Initialises the libldap side of the connection handle ">
<polygon fill="none" stroke="#ff0000" points="545,-152.5 545,-171.5 655,-171.5 655,-152.5 545,-152.5"/>
<text text-anchor="middle" x="600" y="-159.5" font-family="Helvetica,sans-Serif" font-size="10.00" fill="#000000">_ldap_connection_init</text>
</a>
</g>
</g>
<!-- Node182&#45;&gt;Node184 -->
<g id="edge9" class="edge">
<title>Node182&#45;&gt;Node184</title>
<path fill="none" stroke="#191970" d="M493.1501,-118.3409C518.7351,-128.795 553.7139,-143.0874 576.5747,-152.4284"/>
<polygon fill="#191970" stroke="#191970" points="494.4301,-115.0831 483.8492,-114.5405 491.7823,-121.563 494.4301,-115.0831"/>
</g>
<!-- Node186 -->
<g id="node9" class="node">
<title>Node186</title>
<g id="a_node9"><a xlink:href="sasl_8c.html#a04a2c9db49bbbf963383919d5aea19f8" target="_top" xlink:title="Progress an interactive SASL bind. ">
<polygon fill="none" stroke="#ff0000" points="701,-46 701,-76 800,-76 800,-46 701,-46"/>
<text text-anchor="start" x="709" y="-64" font-family="Helvetica,sans-Serif" font-size="10.00" fill="#000000">_ldap_sasl_bind_io</text>
<text text-anchor="middle" x="750.5" y="-53" font-family="Helvetica,sans-Serif" font-size="10.00" fill="#000000">_write</text>
</a>
</g>
</g>
<!-- Node182&#45;&gt;Node186 -->
<g id="edge10" class="edge">
<title>Node182&#45;&gt;Node186</title>
<path fill="none" stroke="#191970" d="M519.0394,-96.1182C572.4188,-88.0192 650.4246,-76.1839 700.8301,-68.5361"/>
<polygon fill="#191970" stroke="#191970" points="518.4013,-92.6748 509.0395,-97.6354 519.4514,-99.5956 518.4013,-92.6748"/>
</g>
<!-- Node189 -->
<g id="node10" class="node">
<title>Node189</title>
<g id="a_node10"><a xlink:href="start__tls_8c.html#a56cff46efa77496108617ef35340ef17" target="_top" xlink:title="Event handler for the response to the StartTLS extended operation. ">
<polygon fill="none" stroke="#ff0000" points="692,-101.5 692,-120.5 809,-120.5 809,-101.5 692,-101.5"/>
<text text-anchor="middle" x="750.5" y="-108.5" font-family="Helvetica,sans-Serif" font-size="10.00" fill="#000000">_ldap_start_tls_io_read</text>
</a>
</g>
</g>
<!-- Node182&#45;&gt;Node189 -->
<g id="edge11" class="edge">
<title>Node182&#45;&gt;Node189</title>
<path fill="none" stroke="#191970" d="M519.106,-106.2125C569.3832,-107.2528 641.4717,-108.7442 691.7814,-109.7851"/>
<polygon fill="#191970" stroke="#191970" points="519.1098,-102.712 509.0395,-106.0043 518.9649,-109.7105 519.1098,-102.712"/>
</g>
<!-- Node192 -->
<g id="node11" class="node">
<title>Node192</title>
<g id="a_node11"><a xlink:href="ldap_2state_8c.html#a6b345a63145e6626bce5a69d8b2a09bf" target="_top" xlink:title="Signal that there&#39;s been an error on the connection. ">
<polygon fill="none" stroke="#ff0000" points="551,-38.5 551,-57.5 649,-57.5 649,-38.5 551,-38.5"/>
<text text-anchor="middle" x="600" y="-45.5" font-family="Helvetica,sans-Serif" font-size="10.00" fill="#000000">fr_ldap_state_error</text>
</a>
</g>
</g>
<!-- Node182&#45;&gt;Node192 -->
<g id="edge12" class="edge">
<title>Node182&#45;&gt;Node192</title>
<path fill="none" stroke="#191970" d="M493.1501,-91.6591C518.7351,-81.205 553.7139,-66.9126 576.5747,-57.5716"/>
<polygon fill="#191970" stroke="#191970" points="491.7823,-88.437 483.8492,-95.4595 494.4301,-94.9169 491.7823,-88.437"/>
</g>
<!-- Node183&#45;&gt;Node176 -->
<g id="edge8" class="edge">
<title>Node183&#45;&gt;Node176</title>
<path fill="none" stroke="#191970" d="M690.3394,-4.9173C678.6266,-4.1181 666.4359,-3.4186 655,-3 503.6597,2.5391 324.9737,-13.7916 239.1071,-23.0668"/>
<polygon fill="#191970" stroke="#191970" points="690.2547,-8.4201 700.4784,-5.6408 690.7529,-1.4379 690.2547,-8.4201"/>
</g>
<!-- Node192&#45;&gt;Node175 -->
<g id="edge14" class="edge">
<title>Node192&#45;&gt;Node175</title>
<path fill="none" stroke="#191970" d="M540.8639,-51.459C530.2569,-52.0196 519.3024,-52.5597 509,-53 360.8099,-59.3327 185.5579,-63.8612 101.0602,-65.8588"/>
<polygon fill="#191970" stroke="#191970" points="541.0975,-54.9515 550.8944,-50.9177 540.7203,-47.9617 541.0975,-54.9515"/>
</g>
<!-- Node192&#45;&gt;Node176 -->
<g id="edge16" class="edge">
<title>Node192&#45;&gt;Node176</title>
<path fill="none" stroke="#191970" d="M540.8715,-45.2732C459.9394,-41.5409 315.9898,-34.9024 239.3471,-31.3679"/>
<polygon fill="#191970" stroke="#191970" points="540.7491,-48.7712 550.8998,-45.7357 541.0717,-41.7786 540.7491,-48.7712"/>
</g>
<!-- Node192&#45;&gt;Node178 -->
<g id="edge13" class="edge">
<title>Node192&#45;&gt;Node178</title>
<path fill="none" stroke="#191970" d="M616.5068,-64.6713C645.9712,-94.4294 707.1809,-156.2492 735.5128,-184.8634"/>
<polygon fill="#191970" stroke="#191970" points="618.9375,-62.1518 609.4144,-57.5083 613.9633,-67.0769 618.9375,-62.1518"/>
</g>
<!-- Node192&#45;&gt;Node183 -->
<g id="edge15" class="edge">
<title>Node192&#45;&gt;Node183</title>
<path fill="none" stroke="#191970" d="M647.6847,-35.96C668.7103,-30.6512 693.0674,-24.5012 712.7956,-19.5201"/>
<polygon fill="#191970" stroke="#191970" points="646.8164,-32.5693 637.9775,-38.411 648.5301,-39.3563 646.8164,-32.5693"/>
</g>
<!-- Node192&#45;&gt;Node186 -->
<g id="edge17" class="edge">
<title>Node192&#45;&gt;Node186</title>
<path fill="none" stroke="#191970" d="M659.5662,-53.1453C673.2441,-54.3267 687.6456,-55.5707 700.8525,-56.7115"/>
<polygon fill="#191970" stroke="#191970" points="659.5435,-49.6303 649.2793,-52.2567 658.941,-56.6044 659.5435,-49.6303"/>
</g>
<!-- Node192&#45;&gt;Node189 -->
<g id="edge18" class="edge">
<title>Node192&#45;&gt;Node189</title>
<path fill="none" stroke="#191970" d="M632.4164,-61.5697C661.031,-73.5479 702.0348,-90.7123 727.4272,-101.3416"/>
<polygon fill="#191970" stroke="#191970" points="633.4336,-58.2012 622.8577,-57.5683 630.7306,-64.6583 633.4336,-58.2012"/>
</g>
</g>
</svg>
