<?xml version="1.0" encoding="UTF-8" standalone="no"?>
<!DOCTYPE svg PUBLIC "-//W3C//DTD SVG 1.1//EN"
 "http://www.w3.org/Graphics/SVG/1.1/DTD/svg11.dtd">
<!-- Generated by graphviz version 2.40.1 (20161225.0304)
 -->
<!-- Title: link_clear_all Pages: 1 -->
<!--zoomable 332 -->
<svg id="main" version="1.1" xmlns="http://www.w3.org/2000/svg" xmlns:xlink="http://www.w3.org/1999/xlink" xml:space="preserve" onload="init(evt)">
<style type="text/css"><![CDATA[
.edge:hover path { stroke: red; }
.edge:hover polygon { stroke: red; fill: red; }
]]></style>
<script type="text/javascript"><![CDATA[
var edges = document.getElementsByTagName('g');
if (edges && edges.length) {
  for (var i=0;i<edges.length;i++) {
    if (edges[i].id.substr(0,4)=='edge') {
      edges[i].setAttribute('class','edge');
    }
  }
}
]]></script>
        <defs>
                <circle id="rim" cx="0" cy="0" r="7"/>
                <circle id="rim2" cx="0" cy="0" r="3.5"/>
                <g id="zoomPlus">
                        <use xlink:href="#rim" fill="#404040">
                                <set attributeName="fill" to="#808080" begin="zoomplus.mouseover" end="zoomplus.mouseout"/>
                        </use>
                        <path d="M-4,0h8M0,-4v8" fill="none" stroke="white" stroke-width="1.5" pointer-events="none"/>
                </g>
                <g id="zoomMin">
                        <use xlink:href="#rim" fill="#404040">
                                <set attributeName="fill" to="#808080" begin="zoomminus.mouseover" end="zoomminus.mouseout"/>
                        </use>
                        <path d="M-4,0h8" fill="none" stroke="white" stroke-width="1.5" pointer-events="none"/>
                </g>
                <g id="dirArrow">
                        <path fill="none" stroke="white" stroke-width="1.5" d="M0,-3.0v7 M-2.5,-0.5L0,-3.0L2.5,-0.5"/>
                </g>
               <g id="resetDef">
                       <use xlink:href="#rim2" fill="#404040">
                               <set attributeName="fill" to="#808080" begin="reset.mouseover" end="reset.mouseout"/>
                       </use>
               </g>
        </defs>

<script type="text/javascript">
var viewWidth = 694;
var viewHeight = 332;
var sectionId = 'dynsection-6';
</script>
<script xlink:href="svgpan.js"/>
<svg id="graph" class="graph">
<g id="viewport">
<title>link_clear_all</title>
<!-- Node11 -->
<g id="node1" class="node">
<title>Node11</title>
<polygon fill="#bfbfbf" stroke="#000000" points="0,-209.5 0,-228.5 73,-228.5 73,-209.5 0,-209.5"/>
<text text-anchor="middle" x="36.5" y="-216.5" font-family="Helvetica,sans-Serif" font-size="10.00" fill="#000000">link_clear_all</text>
</g>
<!-- Node12 -->
<g id="node2" class="node">
<title>Node12</title>
<g id="a_node2"><a xlink:href="sccp__state_8c.html#aa521e59b99a06ecbfb7a5447019edbaf" target="_top" xlink:title="app_clear_connections">
<polygon fill="none" stroke="#000000" points="109,-209.5 109,-228.5 225,-228.5 225,-209.5 109,-209.5"/>
<text text-anchor="middle" x="167" y="-216.5" font-family="Helvetica,sans-Serif" font-size="10.00" fill="#000000">app_clear_connections</text>
</a>
</g>
</g>
<!-- Node11&#45;&gt;Node12 -->
<g id="edge1" class="edge">
<title>Node11&#45;&gt;Node12</title>
<path fill="none" stroke="#191970" d="M83.315,-219C91.5145,-219 100.1372,-219 108.6041,-219"/>
<polygon fill="#191970" stroke="#191970" points="83.1988,-215.5001 73.1988,-219 83.1988,-222.5001 83.1988,-215.5001"/>
</g>
<!-- Node13 -->
<g id="node3" class="node">
<title>Node13</title>
<g id="a_node3"><a xlink:href="sccp__state_8c.html#a959d0a05cb52d759cc5cd8f981b9f358" target="_top" xlink:title="app_forward_sccp">
<polygon fill="none" stroke="#000000" points="261.5,-294.5 261.5,-313.5 357.5,-313.5 357.5,-294.5 261.5,-294.5"/>
<text text-anchor="middle" x="309.5" y="-301.5" font-family="Helvetica,sans-Serif" font-size="10.00" fill="#000000">app_forward_sccp</text>
</a>
</g>
</g>
<!-- Node12&#45;&gt;Node13 -->
<g id="edge2" class="edge">
<title>Node12&#45;&gt;Node13</title>
<path fill="none" stroke="#191970" d="M191.1674,-233.8506C210.1029,-245.4387 237.1453,-261.8837 261,-276 271.5428,-282.2388 283.4566,-289.1193 292.8378,-294.4984"/>
<polygon fill="#191970" stroke="#191970" points="192.9277,-230.8245 182.5726,-228.5836 189.2701,-236.7929 192.9277,-230.8245"/>
</g>
<!-- Node22 -->
<g id="node6" class="node">
<title>Node22</title>
<g id="a_node6"><a xlink:href="sccp__state_8c.html#ae6b1699eb3a4f667986336d2df0c8b5d" target="_top" xlink:title="bsc_reset_timeout">
<polygon fill="none" stroke="#000000" points="261,-247.5 261,-266.5 358,-266.5 358,-247.5 261,-247.5"/>
<text text-anchor="middle" x="309.5" y="-254.5" font-family="Helvetica,sans-Serif" font-size="10.00" fill="#000000">bsc_reset_timeout</text>
</a>
</g>
</g>
<!-- Node12&#45;&gt;Node22 -->
<g id="edge5" class="edge">
<title>Node12&#45;&gt;Node22</title>
<path fill="none" stroke="#191970" d="M212.6531,-231.1742C232.3577,-236.4287 255.0747,-242.4866 273.5527,-247.4141"/>
<polygon fill="#191970" stroke="#191970" points="213.523,-227.7839 202.9588,-228.589 211.7193,-234.5475 213.523,-227.7839"/>
</g>
<!-- Node42 -->
<g id="node9" class="node">
<title>Node42</title>
<g id="a_node9"><a xlink:href="ss7__application_8c.html#a2299cc91950b99ef217990f142dcd7a5" target="_top" xlink:title="mtp_linkset_down">
<polygon fill="none" stroke="#000000" points="262,-190.5 262,-209.5 357,-209.5 357,-190.5 262,-190.5"/>
<text text-anchor="middle" x="309.5" y="-197.5" font-family="Helvetica,sans-Serif" font-size="10.00" fill="#000000">mtp_linkset_down</text>
</a>
</g>
</g>
<!-- Node12&#45;&gt;Node42 -->
<g id="edge8" class="edge">
<title>Node12&#45;&gt;Node42</title>
<path fill="none" stroke="#191970" d="M235.419,-209.8775C244.3676,-208.6843 253.3758,-207.4832 261.8778,-206.3496"/>
<polygon fill="#191970" stroke="#191970" points="234.821,-206.4261 225.3714,-211.2172 235.7462,-213.3647 234.821,-206.4261"/>
</g>
<!-- Node91 -->
<g id="node15" class="node">
<title>Node91</title>
<g id="a_node15"><a xlink:href="ss7__application_8c.html#aa989446b87f4408fa6726244a5586ada" target="_top" xlink:title="mtp_linkset_up">
<polygon fill="none" stroke="#000000" points="268,-95.5 268,-114.5 351,-114.5 351,-95.5 268,-95.5"/>
<text text-anchor="middle" x="309.5" y="-102.5" font-family="Helvetica,sans-Serif" font-size="10.00" fill="#000000">mtp_linkset_up</text>
</a>
</g>
</g>
<!-- Node12&#45;&gt;Node91 -->
<g id="edge14" class="edge">
<title>Node12&#45;&gt;Node91</title>
<path fill="none" stroke="#191970" d="M187.2594,-202.7925C217.3436,-178.7251 272.9038,-134.2769 297.3813,-114.695"/>
<polygon fill="#191970" stroke="#191970" points="184.7717,-200.3004 179.1495,-209.2804 189.1446,-205.7665 184.7717,-200.3004"/>
</g>
<!-- Node14 -->
<g id="node4" class="node">
<title>Node14</title>
<g id="a_node4"><a xlink:href="ss7__application_8c.html#a2f4469309879467a13fc557a891f401e" target="_top" xlink:title="mtp_link_set_forward_sccp">
<polygon fill="none" stroke="#000000" points="394,-299.5 394,-318.5 530,-318.5 530,-299.5 394,-299.5"/>
<text text-anchor="middle" x="462" y="-306.5" font-family="Helvetica,sans-Serif" font-size="10.00" fill="#000000">mtp_link_set_forward_sccp</text>
</a>
</g>
</g>
<!-- Node13&#45;&gt;Node14 -->
<g id="edge3" class="edge">
<title>Node13&#45;&gt;Node14</title>
<path fill="none" stroke="#191970" d="M367.8792,-305.9141C376.3327,-306.1912 385.0968,-306.4786 393.7232,-306.7614"/>
<polygon fill="#191970" stroke="#191970" points="367.8613,-302.4117 357.752,-305.582 367.6319,-309.4079 367.8613,-302.4117"/>
</g>
<!-- Node15 -->
<g id="node5" class="node">
<title>Node15</title>
<g id="a_node5"><a xlink:href="mtp__layer3_8c.html#a2531aef762d1ffb8f73195eef3f9b137" target="_top" xlink:title="Allocate a new link set. ">
<polygon fill="none" stroke="#ff0000" points="577,-304.5 577,-323.5 675,-323.5 675,-304.5 577,-304.5"/>
<text text-anchor="middle" x="626" y="-311.5" font-family="Helvetica,sans-Serif" font-size="10.00" fill="#000000">mtp_link_set_alloc</text>
</a>
</g>
</g>
<!-- Node14&#45;&gt;Node15 -->
<g id="edge4" class="edge">
<title>Node14&#45;&gt;Node15</title>
<path fill="none" stroke="#191970" d="M540.4811,-311.3927C552.8683,-311.7704 565.3628,-312.1513 576.8311,-312.5009"/>
<polygon fill="#191970" stroke="#191970" points="540.2281,-307.8835 530.126,-311.077 540.0147,-314.8802 540.2281,-307.8835"/>
</g>
<!-- Node23 -->
<g id="node7" class="node">
<title>Node23</title>
<g id="a_node7"><a xlink:href="sccp__state_8c.html#a741375061953a996b6284ab3e22fb965" target="_top" xlink:title="release_bsc_resources">
<polygon fill="none" stroke="#000000" points="403.5,-247.5 403.5,-266.5 520.5,-266.5 520.5,-247.5 403.5,-247.5"/>
<text text-anchor="middle" x="462" y="-254.5" font-family="Helvetica,sans-Serif" font-size="10.00" fill="#000000">release_bsc_resources</text>
</a>
</g>
</g>
<!-- Node22&#45;&gt;Node23 -->
<g id="edge6" class="edge">
<title>Node22&#45;&gt;Node23</title>
<path fill="none" stroke="#191970" d="M368.5017,-257C379.9526,-257 391.9513,-257 403.3897,-257"/>
<polygon fill="#191970" stroke="#191970" points="368.1713,-253.5001 358.1712,-257 368.1712,-260.5001 368.1713,-253.5001"/>
</g>
<!-- Node24 -->
<g id="node8" class="node">
<title>Node24</title>
<g id="a_node8"><a xlink:href="msc__conn_8c.html#a8d8995c981962369b372a3e93f012148" target="_top" xlink:title="msc_close_connection">
<polygon fill="none" stroke="#ff0000" points="568,-266.5 568,-285.5 684,-285.5 684,-266.5 568,-266.5"/>
<text text-anchor="middle" x="626" y="-273.5" font-family="Helvetica,sans-Serif" font-size="10.00" fill="#000000">msc_close_connection</text>
</a>
</g>
</g>
<!-- Node23&#45;&gt;Node24 -->
<g id="edge7" class="edge">
<title>Node23&#45;&gt;Node24</title>
<path fill="none" stroke="#191970" d="M530.9623,-264.9895C543.2688,-266.4153 555.9774,-267.8876 567.9408,-269.2736"/>
<polygon fill="#191970" stroke="#191970" points="531.0809,-261.4799 520.7445,-263.8058 530.2753,-268.4334 531.0809,-261.4799"/>
</g>
<!-- Node43 -->
<g id="node10" class="node">
<title>Node43</title>
<g id="a_node10"><a xlink:href="links_8c.html#a17c3f7e14178d2cb97d0efa615055dde" target="_top" xlink:title="mtp_link_down">
<polygon fill="none" stroke="#000000" points="421,-190.5 421,-209.5 503,-209.5 503,-190.5 421,-190.5"/>
<text text-anchor="middle" x="462" y="-197.5" font-family="Helvetica,sans-Serif" font-size="10.00" fill="#000000">mtp_link_down</text>
</a>
</g>
</g>
<!-- Node42&#45;&gt;Node43 -->
<g id="edge9" class="edge">
<title>Node42&#45;&gt;Node43</title>
<path fill="none" stroke="#191970" d="M367.5741,-200C385.2927,-200 404.4018,-200 420.7635,-200"/>
<polygon fill="#191970" stroke="#191970" points="367.3336,-196.5001 357.3335,-200 367.3335,-203.5001 367.3336,-196.5001"/>
</g>
<!-- Node44 -->
<g id="node11" class="node">
<title>Node44</title>
<g id="a_node11"><a xlink:href="link__udp_8c.html#aab40684685da6e77cfb4384917b1f6fa" target="_top" xlink:title="snmp_mtp_callback">
<polygon fill="none" stroke="#ff0000" points="574,-228.5 574,-247.5 678,-247.5 678,-228.5 574,-228.5"/>
<text text-anchor="middle" x="626" y="-235.5" font-family="Helvetica,sans-Serif" font-size="10.00" fill="#000000">snmp_mtp_callback</text>
</a>
</g>
</g>
<!-- Node43&#45;&gt;Node44 -->
<g id="edge10" class="edge">
<title>Node43&#45;&gt;Node44</title>
<path fill="none" stroke="#191970" d="M513.341,-211.8961C536.3929,-217.2374 563.2211,-223.4537 584.9135,-228.4799"/>
<polygon fill="#191970" stroke="#191970" points="513.9161,-208.4367 503.3841,-209.589 512.336,-215.256 513.9161,-208.4367"/>
</g>
<!-- Node57 -->
<g id="node12" class="node">
<title>Node57</title>
<g id="a_node12"><a xlink:href="sctp__m2ua_8c.html#a0e318e3c1e341e77b501cd0b38cdfd4c" target="_top" xlink:title="link_down">
<polygon fill="none" stroke="#ff0000" points="596,-190.5 596,-209.5 656,-209.5 656,-190.5 596,-190.5"/>
<text text-anchor="middle" x="626" y="-197.5" font-family="Helvetica,sans-Serif" font-size="10.00" fill="#000000">link_down</text>
</a>
</g>
</g>
<!-- Node43&#45;&gt;Node57 -->
<g id="edge11" class="edge">
<title>Node43&#45;&gt;Node57</title>
<path fill="none" stroke="#191970" d="M513.4683,-200C540.5189,-200 572.7407,-200 595.7586,-200"/>
<polygon fill="#191970" stroke="#191970" points="513.3842,-196.5001 503.3841,-200 513.3841,-203.5001 513.3842,-196.5001"/>
</g>
<!-- Node65 -->
<g id="node13" class="node">
<title>Node65</title>
<g id="a_node13"><a xlink:href="sctp__m3ua__client_8c.html#afa690a4544fc1d79b818671633d701e2" target="_top" xlink:title="fail_link">
<polygon fill="none" stroke="#ff0000" points="601,-152.5 601,-171.5 651,-171.5 651,-152.5 601,-152.5"/>
<text text-anchor="middle" x="626" y="-159.5" font-family="Helvetica,sans-Serif" font-size="10.00" fill="#000000">fail_link</text>
</a>
</g>
</g>
<!-- Node43&#45;&gt;Node65 -->
<g id="edge12" class="edge">
<title>Node43&#45;&gt;Node65</title>
<path fill="none" stroke="#191970" d="M513.4223,-188.0851C542.5962,-181.3253 577.7971,-173.169 600.9804,-167.7972"/>
<polygon fill="#191970" stroke="#191970" points="512.336,-184.744 503.3841,-190.411 513.9161,-191.5633 512.336,-184.744"/>
</g>
<!-- Node89 -->
<g id="node14" class="node">
<title>Node89</title>
<g id="a_node14"><a xlink:href="ss7__application_8c.html#a8f53b3e41ae7a32b9608dc89b3c84405" target="_top" xlink:title="shutdown_set">
<polygon fill="none" stroke="#ff0000" points="587.5,-114.5 587.5,-133.5 664.5,-133.5 664.5,-114.5 587.5,-114.5"/>
<text text-anchor="middle" x="626" y="-121.5" font-family="Helvetica,sans-Serif" font-size="10.00" fill="#000000">shutdown_set</text>
</a>
</g>
</g>
<!-- Node43&#45;&gt;Node89 -->
<g id="edge13" class="edge">
<title>Node43&#45;&gt;Node89</title>
<path fill="none" stroke="#191970" d="M486.1099,-185.0259C506.7679,-172.6293 537.5978,-155.1431 566,-143 574.2383,-139.4778 583.355,-136.2626 591.9421,-133.5191"/>
<polygon fill="#191970" stroke="#191970" points="484.1112,-182.1447 477.3794,-190.326 487.7438,-188.1284 484.1112,-182.1447"/>
</g>
<!-- Node92 -->
<g id="node16" class="node">
<title>Node92</title>
<g id="a_node16"><a xlink:href="links_8c.html#a93ebe4563bdd78575a5b1052fca30a42" target="_top" xlink:title="mtp_link_up">
<polygon fill="none" stroke="#000000" points="427.5,-57.5 427.5,-76.5 496.5,-76.5 496.5,-57.5 427.5,-57.5"/>
<text text-anchor="middle" x="462" y="-64.5" font-family="Helvetica,sans-Serif" font-size="10.00" fill="#000000">mtp_link_up</text>
</a>
</g>
</g>
<!-- Node91&#45;&gt;Node92 -->
<g id="edge15" class="edge">
<title>Node91&#45;&gt;Node92</title>
<path fill="none" stroke="#191970" d="M357.748,-92.9775C380.3823,-87.3375 406.8395,-80.7449 427.4371,-75.6124"/>
<polygon fill="#191970" stroke="#191970" points="356.8392,-89.5969 347.9822,-95.411 358.5318,-96.3892 356.8392,-89.5969"/>
</g>
<!-- Node93 -->
<g id="node17" class="node">
<title>Node93</title>
<g id="a_node17"><a xlink:href="link__udp_8c.html#a901819a7a396ca1a35e34d150bbe8576" target="_top" xlink:title="udp_read_cb">
<polygon fill="none" stroke="#ff0000" points="590,-76.5 590,-95.5 662,-95.5 662,-76.5 590,-76.5"/>
<text text-anchor="middle" x="626" y="-83.5" font-family="Helvetica,sans-Serif" font-size="10.00" fill="#000000">udp_read_cb</text>
</a>
</g>
</g>
<!-- Node92&#45;&gt;Node93 -->
<g id="edge16" class="edge">
<title>Node92&#45;&gt;Node93</title>
<path fill="none" stroke="#191970" d="M506.804,-72.1907C532.9066,-75.2148 565.3898,-78.9781 589.8509,-81.812"/>
<polygon fill="#191970" stroke="#191970" points="507.1166,-68.7036 496.7802,-71.0294 506.3109,-75.6571 507.1166,-68.7036"/>
</g>
<!-- Node95 -->
<g id="node18" class="node">
<title>Node95</title>
<g id="a_node18"><a xlink:href="sctp__m2ua_8c.html#ae9c9bbb012937cbf88eb28a14476bde1" target="_top" xlink:title="m2ua_handle_state_req">
<polygon fill="none" stroke="#ff0000" points="566,-38.5 566,-57.5 686,-57.5 686,-38.5 566,-38.5"/>
<text text-anchor="middle" x="626" y="-45.5" font-family="Helvetica,sans-Serif" font-size="10.00" fill="#000000">m2ua_handle_state_req</text>
</a>
</g>
</g>
<!-- Node92&#45;&gt;Node95 -->
<g id="edge17" class="edge">
<title>Node92&#45;&gt;Node95</title>
<path fill="none" stroke="#191970" d="M506.8076,-61.8089C524.9841,-59.7031 546.2541,-57.2389 565.7547,-54.9796"/>
<polygon fill="#191970" stroke="#191970" points="506.3109,-58.3429 496.7802,-62.9706 507.1166,-65.2964 506.3109,-58.3429"/>
</g>
<!-- Node85 -->
<g id="node19" class="node">
<title>Node85</title>
<g id="a_node19"><a xlink:href="sctp__m3ua__client_8c.html#a547847fe1bfbf51888a13fcc19fe6af0" target="_top" xlink:title="m3ua_handle_asptm">
<polygon fill="none" stroke="#ff0000" points="572.5,-.5 572.5,-19.5 679.5,-19.5 679.5,-.5 572.5,-.5"/>
<text text-anchor="middle" x="626" y="-7.5" font-family="Helvetica,sans-Serif" font-size="10.00" fill="#000000">m3ua_handle_asptm</text>
</a>
</g>
</g>
<!-- Node92&#45;&gt;Node85 -->
<g id="edge18" class="edge">
<title>Node92&#45;&gt;Node85</title>
<path fill="none" stroke="#191970" d="M496.5105,-53.9619C516.6911,-46.4452 542.7016,-36.9411 566,-29 575.4114,-25.7922 585.7134,-22.4641 595.0836,-19.5066"/>
<polygon fill="#191970" stroke="#191970" points="495.2504,-50.6963 487.1093,-57.4768 497.7018,-57.2531 495.2504,-50.6963"/>
</g>
</g>
</svg>
        <g id="navigator" transform="translate(0 0)" fill="#404254">
                <rect fill="#f2f5e9" fill-opacity="0.5" stroke="#606060" stroke-width=".5" x="0" y="0" width="60" height="60"/>
                <use id="zoomplus" xlink:href="#zoomPlus" x="17" y="9" onmousedown="handleZoom(evt,'in')"/>
                <use id="zoomminus" xlink:href="#zoomMin" x="42" y="9" onmousedown="handleZoom(evt,'out')"/>
                <use id="reset" xlink:href="#resetDef" x="30" y="36" onmousedown="handleReset()"/>
                <g id="arrowUp" xlink:href="#dirArrow" transform="translate(30 24)" onmousedown="handlePan(0,-1)">
                  <use xlink:href="#rim" fill="#404040">
                        <set attributeName="fill" to="#808080" begin="arrowUp.mouseover" end="arrowUp.mouseout"/>
                  </use>
                  <path fill="none" stroke="white" stroke-width="1.5" d="M0,-3.0v7 M-2.5,-0.5L0,-3.0L2.5,-0.5"/>
                </g>
                <g id="arrowRight" xlink:href="#dirArrow" transform="rotate(90) translate(36 -43)" onmousedown="handlePan(1,0)">
                  <use xlink:href="#rim" fill="#404040">
                        <set attributeName="fill" to="#808080" begin="arrowRight.mouseover" end="arrowRight.mouseout"/>
                  </use>
                  <path fill="none" stroke="white" stroke-width="1.5" d="M0,-3.0v7 M-2.5,-0.5L0,-3.0L2.5,-0.5"/>
                </g>
                <g id="arrowDown" xlink:href="#dirArrow" transform="rotate(180) translate(-30 -48)" onmousedown="handlePan(0,1)">
                  <use xlink:href="#rim" fill="#404040">
                        <set attributeName="fill" to="#808080" begin="arrowDown.mouseover" end="arrowDown.mouseout"/>
                  </use>
                  <path fill="none" stroke="white" stroke-width="1.5" d="M0,-3.0v7 M-2.5,-0.5L0,-3.0L2.5,-0.5"/>
                </g>
                <g id="arrowLeft" xlink:href="#dirArrow" transform="rotate(270) translate(-36 17)" onmousedown="handlePan(-1,0)">
                  <use xlink:href="#rim" fill="#404040">
                        <set attributeName="fill" to="#808080" begin="arrowLeft.mouseover" end="arrowLeft.mouseout"/>
                  </use>
                  <path fill="none" stroke="white" stroke-width="1.5" d="M0,-3.0v7 M-2.5,-0.5L0,-3.0L2.5,-0.5"/>
                </g>
        </g>
        <svg viewBox="0 0 15 15" width="100%" height="30px" preserveAspectRatio="xMaxYMin meet">
         <g id="arrow_out" transform="scale(0.3 0.3)">
          <a xlink:href="bsc__data_8h_a82f9277c91f3fcd0816369344569056f_icgraph_org.svg" target="_base">
           <rect id="button" ry="5" rx="5" y="6" x="6" height="38" width="38"
                fill="#f2f5e9" fill-opacity="0.5" stroke="#606060" stroke-width="1.0"/>
           <path id="arrow"
             d="M 11.500037,31.436501 C 11.940474,20.09759 22.043105,11.32322 32.158766,21.979434 L 37.068811,17.246167 C 37.068811,17.246167 37.088388,32 37.088388,32 L 22.160133,31.978069 C 22.160133,31.978069 26.997745,27.140456 26.997745,27.140456 C 18.528582,18.264221 13.291696,25.230495 11.500037,31.436501 z"
             style="fill:#404040;"/>
          </a>
         </g>
        </svg>
</svg>
