<?xml version="1.0" encoding="UTF-8" standalone="no"?>
<!DOCTYPE svg PUBLIC "-//W3C//DTD SVG 1.1//EN"
 "http://www.w3.org/Graphics/SVG/1.1/DTD/svg11.dtd">
<!-- Generated by graphviz version 2.40.1 (20161225.0304)
 -->
<!-- Title: bss_patch_filter_msg Pages: 1 -->
<!--zoomable 85 -->
<svg id="main" version="1.1" xmlns="http://www.w3.org/2000/svg" xmlns:xlink="http://www.w3.org/1999/xlink" xml:space="preserve" onload="init(evt)">
<style type="text/css"><![CDATA[
.edge:hover path { stroke: red; }
.edge:hover polygon { stroke: red; fill: red; }
]]></style>
<script type="text/javascript"><![CDATA[
var edges = document.getElementsByTagName('g');
if (edges && edges.length) {
  for (var i=0;i<edges.length;i++) {
    if (edges[i].id.substr(0,4)=='edge') {
      edges[i].setAttribute('class','edge');
    }
  }
}
]]></script>
        <defs>
                <circle id="rim" cx="0" cy="0" r="7"/>
                <circle id="rim2" cx="0" cy="0" r="3.5"/>
                <g id="zoomPlus">
                        <use xlink:href="#rim" fill="#404040">
                                <set attributeName="fill" to="#808080" begin="zoomplus.mouseover" end="zoomplus.mouseout"/>
                        </use>
                        <path d="M-4,0h8M0,-4v8" fill="none" stroke="white" stroke-width="1.5" pointer-events="none"/>
                </g>
                <g id="zoomMin">
                        <use xlink:href="#rim" fill="#404040">
                                <set attributeName="fill" to="#808080" begin="zoomminus.mouseover" end="zoomminus.mouseout"/>
                        </use>
                        <path d="M-4,0h8" fill="none" stroke="white" stroke-width="1.5" pointer-events="none"/>
                </g>
                <g id="dirArrow">
                        <path fill="none" stroke="white" stroke-width="1.5" d="M0,-3.0v7 M-2.5,-0.5L0,-3.0L2.5,-0.5"/>
                </g>
               <g id="resetDef">
                       <use xlink:href="#rim2" fill="#404040">
                               <set attributeName="fill" to="#808080" begin="reset.mouseover" end="reset.mouseout"/>
                       </use>
               </g>
        </defs>

<script type="text/javascript">
var viewWidth = 705;
var viewHeight = 85;
var sectionId = 'dynsection-3';
</script>
<script xlink:href="svgpan.js"/>
<svg id="graph" class="graph">
<g id="viewport">
<title>bss_patch_filter_msg</title>
<!-- Node6 -->
<g id="node1" class="node">
<title>Node6</title>
<polygon fill="#bfbfbf" stroke="#000000" points="0,-19.5 0,-38.5 110,-38.5 110,-19.5 0,-19.5"/>
<text text-anchor="middle" x="55" y="-26.5" font-family="Helvetica,sans-Serif" font-size="10.00" fill="#000000">bss_patch_filter_msg</text>
</g>
<!-- Node7 -->
<g id="node2" class="node">
<title>Node7</title>
<g id="a_node2"><a xlink:href="sccp__state_8c.html#a959d0a05cb52d759cc5cd8f981b9f358" target="_top" xlink:title="app_forward_sccp">
<polygon fill="none" stroke="#000000" points="150,-38.5 150,-57.5 246,-57.5 246,-38.5 150,-38.5"/>
<text text-anchor="middle" x="198" y="-45.5" font-family="Helvetica,sans-Serif" font-size="10.00" fill="#000000">app_forward_sccp</text>
</a>
</g>
</g>
<!-- Node6&#45;&gt;Node7 -->
<g id="edge1" class="edge">
<title>Node6&#45;&gt;Node7</title>
<path fill="none" stroke="#191970" d="M120.4979,-37.7025C130.3799,-39.0155 140.4159,-40.349 149.8437,-41.6016"/>
<polygon fill="#191970" stroke="#191970" points="120.6614,-34.1936 110.2875,-36.3459 119.7394,-41.1326 120.6614,-34.1936"/>
</g>
<!-- Node16 -->
<g id="node7" class="node">
<title>Node16</title>
<g id="a_node7"><a xlink:href="sccp__state_8c.html#a8fcaf2ca92d164419907aeab10d258cf" target="_top" xlink:title="msc_dispatch_sccp">
<polygon fill="none" stroke="#000000" points="146,-.5 146,-19.5 250,-19.5 250,-.5 146,-.5"/>
<text text-anchor="middle" x="198" y="-7.5" font-family="Helvetica,sans-Serif" font-size="10.00" fill="#000000">msc_dispatch_sccp</text>
</a>
</g>
</g>
<!-- Node6&#45;&gt;Node16 -->
<g id="edge6" class="edge">
<title>Node6&#45;&gt;Node16</title>
<path fill="none" stroke="#191970" d="M120.216,-20.3349C128.7456,-19.2016 137.3955,-18.0524 145.6749,-16.9523"/>
<polygon fill="#191970" stroke="#191970" points="119.7394,-16.8674 110.2875,-21.6541 120.6614,-23.8064 119.7394,-16.8674"/>
</g>
<!-- Node8 -->
<g id="node3" class="node">
<title>Node8</title>
<g id="a_node3"><a xlink:href="ss7__application_8c.html#a2f4469309879467a13fc557a891f401e" target="_top" xlink:title="mtp_link_set_forward_sccp">
<polygon fill="none" stroke="#000000" points="286,-38.5 286,-57.5 422,-57.5 422,-38.5 286,-38.5"/>
<text text-anchor="middle" x="354" y="-45.5" font-family="Helvetica,sans-Serif" font-size="10.00" fill="#000000">mtp_link_set_forward_sccp</text>
</a>
</g>
</g>
<!-- Node7&#45;&gt;Node8 -->
<g id="edge2" class="edge">
<title>Node7&#45;&gt;Node8</title>
<path fill="none" stroke="#191970" d="M256.2928,-48C265.888,-48 275.909,-48 285.7215,-48"/>
<polygon fill="#191970" stroke="#191970" points="256.0781,-44.5001 246.0781,-48 256.078,-51.5001 256.0781,-44.5001"/>
</g>
<!-- Node9 -->
<g id="node4" class="node">
<title>Node9</title>
<g id="a_node4"><a xlink:href="mtp__layer3_8c.html#a2531aef762d1ffb8f73195eef3f9b137" target="_top" xlink:title="Allocate a new link set. ">
<polygon fill="none" stroke="#000000" points="469,-38.5 469,-57.5 567,-57.5 567,-38.5 469,-38.5"/>
<text text-anchor="middle" x="518" y="-45.5" font-family="Helvetica,sans-Serif" font-size="10.00" fill="#000000">mtp_link_set_alloc</text>
</a>
</g>
</g>
<!-- Node8&#45;&gt;Node9 -->
<g id="edge3" class="edge">
<title>Node8&#45;&gt;Node9</title>
<path fill="none" stroke="#191970" d="M432.4811,-48C444.8683,-48 457.3628,-48 468.8311,-48"/>
<polygon fill="#191970" stroke="#191970" points="432.126,-44.5001 422.126,-48 432.126,-51.5001 432.126,-44.5001"/>
</g>
<!-- Node10 -->
<g id="node5" class="node">
<title>Node10</title>
<g id="a_node5"><a xlink:href="modules_2rlm__sigtran_2event_8c.html#a4465df356c53709d8de682730c85dd06" target="_top" xlink:title="Bring up SCTP/M3UA/MTP3/SCCP. ">
<polygon fill="none" stroke="#ff0000" points="617,-57.5 617,-76.5 694,-76.5 694,-57.5 617,-57.5"/>
<text text-anchor="middle" x="655.5" y="-64.5" font-family="Helvetica,sans-Serif" font-size="10.00" fill="#000000">event_link_up</text>
</a>
</g>
</g>
<!-- Node9&#45;&gt;Node10 -->
<g id="edge4" class="edge">
<title>Node9&#45;&gt;Node10</title>
<path fill="none" stroke="#191970" d="M577.3709,-56.204C590.7718,-58.0557 604.6571,-59.9744 616.9385,-61.6715"/>
<polygon fill="#191970" stroke="#191970" points="577.6373,-52.7076 567.2523,-54.8058 576.679,-59.6417 577.6373,-52.7076"/>
</g>
<!-- Node15 -->
<g id="node6" class="node">
<title>Node15</title>
<g id="a_node6"><a xlink:href="links_8c.html#aac3e90f41af67dcf5392f01356bbcac2" target="_top" xlink:title="link_set_create">
<polygon fill="none" stroke="#000000" points="614,-19.5 614,-38.5 697,-38.5 697,-19.5 614,-19.5"/>
<text text-anchor="middle" x="655.5" y="-26.5" font-family="Helvetica,sans-Serif" font-size="10.00" fill="#000000">link_set_create</text>
</a>
</g>
</g>
<!-- Node9&#45;&gt;Node15 -->
<g id="edge5" class="edge">
<title>Node9&#45;&gt;Node15</title>
<path fill="none" stroke="#191970" d="M577.4304,-39.7878C589.7022,-38.0921 602.3776,-36.3406 613.8534,-34.7548"/>
<polygon fill="#191970" stroke="#191970" points="576.679,-36.3583 567.2523,-41.1942 577.6373,-43.2924 576.679,-36.3583"/>
</g>
<!-- Node17 -->
<g id="node8" class="node">
<title>Node17</title>
<g id="a_node8"><a xlink:href="msc__conn_8c.html#a8b64887b6ad40f6b4cd2b8ff60348a2c" target="_top" xlink:title="ipaccess_a_fd_cb">
<polygon fill="none" stroke="#000000" points="306.5,-.5 306.5,-19.5 401.5,-19.5 401.5,-.5 306.5,-.5"/>
<text text-anchor="middle" x="354" y="-7.5" font-family="Helvetica,sans-Serif" font-size="10.00" fill="#000000">ipaccess_a_fd_cb</text>
</a>
</g>
</g>
<!-- Node16&#45;&gt;Node17 -->
<g id="edge7" class="edge">
<title>Node16&#45;&gt;Node17</title>
<path fill="none" stroke="#191970" d="M260.7759,-10C276.0225,-10 292.0766,-10 306.484,-10"/>
<polygon fill="#191970" stroke="#191970" points="260.3797,-6.5001 250.3797,-10 260.3797,-13.5001 260.3797,-6.5001"/>
</g>
<!-- Node18 -->
<g id="node9" class="node">
<title>Node18</title>
<g id="a_node9"><a xlink:href="msc__conn_8c.html#aa9ec23c6a129a7e95e917ea995cb255c" target="_top" xlink:title="msc_connection_create">
<polygon fill="none" stroke="#000000" points="458,-.5 458,-19.5 578,-19.5 578,-.5 458,-.5"/>
<text text-anchor="middle" x="518" y="-7.5" font-family="Helvetica,sans-Serif" font-size="10.00" fill="#000000">msc_connection_create</text>
</a>
</g>
</g>
<!-- Node17&#45;&gt;Node18 -->
<g id="edge8" class="edge">
<title>Node17&#45;&gt;Node18</title>
<path fill="none" stroke="#191970" d="M411.9538,-10C426.8159,-10 442.8342,-10 457.8065,-10"/>
<polygon fill="#191970" stroke="#191970" points="411.8765,-6.5001 401.8765,-10 411.8764,-13.5001 411.8765,-6.5001"/>
</g>
</g>
</svg>
        <g id="navigator" transform="translate(0 0)" fill="#404254">
                <rect fill="#f2f5e9" fill-opacity="0.5" stroke="#606060" stroke-width=".5" x="0" y="0" width="60" height="60"/>
                <use id="zoomplus" xlink:href="#zoomPlus" x="17" y="9" onmousedown="handleZoom(evt,'in')"/>
                <use id="zoomminus" xlink:href="#zoomMin" x="42" y="9" onmousedown="handleZoom(evt,'out')"/>
                <use id="reset" xlink:href="#resetDef" x="30" y="36" onmousedown="handleReset()"/>
                <g id="arrowUp" xlink:href="#dirArrow" transform="translate(30 24)" onmousedown="handlePan(0,-1)">
                  <use xlink:href="#rim" fill="#404040">
                        <set attributeName="fill" to="#808080" begin="arrowUp.mouseover" end="arrowUp.mouseout"/>
                  </use>
                  <path fill="none" stroke="white" stroke-width="1.5" d="M0,-3.0v7 M-2.5,-0.5L0,-3.0L2.5,-0.5"/>
                </g>
                <g id="arrowRight" xlink:href="#dirArrow" transform="rotate(90) translate(36 -43)" onmousedown="handlePan(1,0)">
                  <use xlink:href="#rim" fill="#404040">
                        <set attributeName="fill" to="#808080" begin="arrowRight.mouseover" end="arrowRight.mouseout"/>
                  </use>
                  <path fill="none" stroke="white" stroke-width="1.5" d="M0,-3.0v7 M-2.5,-0.5L0,-3.0L2.5,-0.5"/>
                </g>
                <g id="arrowDown" xlink:href="#dirArrow" transform="rotate(180) translate(-30 -48)" onmousedown="handlePan(0,1)">
                  <use xlink:href="#rim" fill="#404040">
                        <set attributeName="fill" to="#808080" begin="arrowDown.mouseover" end="arrowDown.mouseout"/>
                  </use>
                  <path fill="none" stroke="white" stroke-width="1.5" d="M0,-3.0v7 M-2.5,-0.5L0,-3.0L2.5,-0.5"/>
                </g>
                <g id="arrowLeft" xlink:href="#dirArrow" transform="rotate(270) translate(-36 17)" onmousedown="handlePan(-1,0)">
                  <use xlink:href="#rim" fill="#404040">
                        <set attributeName="fill" to="#808080" begin="arrowLeft.mouseover" end="arrowLeft.mouseout"/>
                  </use>
                  <path fill="none" stroke="white" stroke-width="1.5" d="M0,-3.0v7 M-2.5,-0.5L0,-3.0L2.5,-0.5"/>
                </g>
        </g>
        <svg viewBox="0 0 15 15" width="100%" height="30px" preserveAspectRatio="xMaxYMin meet">
         <g id="arrow_out" transform="scale(0.3 0.3)">
          <a xlink:href="bss__patch_8h_aec6e0ae2fa6c4e45bd44c07045a841e1_icgraph_org.svg" target="_base">
           <rect id="button" ry="5" rx="5" y="6" x="6" height="38" width="38"
                fill="#f2f5e9" fill-opacity="0.5" stroke="#606060" stroke-width="1.0"/>
           <path id="arrow"
             d="M 11.500037,31.436501 C 11.940474,20.09759 22.043105,11.32322 32.158766,21.979434 L 37.068811,17.246167 C 37.068811,17.246167 37.088388,32 37.088388,32 L 22.160133,31.978069 C 22.160133,31.978069 26.997745,27.140456 26.997745,27.140456 C 18.528582,18.264221 13.291696,25.230495 11.500037,31.436501 z"
             style="fill:#404040;"/>
          </a>
         </g>
        </svg>
</svg>
