<?xml version="1.0" encoding="UTF-8" standalone="no"?>
<!DOCTYPE svg PUBLIC "-//W3C//DTD SVG 1.1//EN"
 "http://www.w3.org/Graphics/SVG/1.1/DTD/svg11.dtd">
<!-- Generated by graphviz version 2.40.1 (20161225.0304)
 -->
<!-- Title: cf_section_dup Pages: 1 -->
<!--zoomable 598 -->
<svg id="main" version="1.1" xmlns="http://www.w3.org/2000/svg" xmlns:xlink="http://www.w3.org/1999/xlink" xml:space="preserve" onload="init(evt)">
<style type="text/css"><![CDATA[
.edge:hover path { stroke: red; }
.edge:hover polygon { stroke: red; fill: red; }
]]></style>
<script type="text/javascript"><![CDATA[
var edges = document.getElementsByTagName('g');
if (edges && edges.length) {
  for (var i=0;i<edges.length;i++) {
    if (edges[i].id.substr(0,4)=='edge') {
      edges[i].setAttribute('class','edge');
    }
  }
}
]]></script>
        <defs>
                <circle id="rim" cx="0" cy="0" r="7"/>
                <circle id="rim2" cx="0" cy="0" r="3.5"/>
                <g id="zoomPlus">
                        <use xlink:href="#rim" fill="#404040">
                                <set attributeName="fill" to="#808080" begin="zoomplus.mouseover" end="zoomplus.mouseout"/>
                        </use>
                        <path d="M-4,0h8M0,-4v8" fill="none" stroke="white" stroke-width="1.5" pointer-events="none"/>
                </g>
                <g id="zoomMin">
                        <use xlink:href="#rim" fill="#404040">
                                <set attributeName="fill" to="#808080" begin="zoomminus.mouseover" end="zoomminus.mouseout"/>
                        </use>
                        <path d="M-4,0h8" fill="none" stroke="white" stroke-width="1.5" pointer-events="none"/>
                </g>
                <g id="dirArrow">
                        <path fill="none" stroke="white" stroke-width="1.5" d="M0,-3.0v7 M-2.5,-0.5L0,-3.0L2.5,-0.5"/>
                </g>
               <g id="resetDef">
                       <use xlink:href="#rim2" fill="#404040">
                               <set attributeName="fill" to="#808080" begin="reset.mouseover" end="reset.mouseout"/>
                       </use>
               </g>
        </defs>

<script type="text/javascript">
var viewWidth = 1121;
var viewHeight = 598;
var sectionId = 'dynsection-51';
</script>
<script xlink:href="svgpan.js"/>
<svg id="graph" class="graph">
<g id="viewport">
<title>cf_section_dup</title>
<!-- Node3260 -->
<g id="node1" class="node">
<title>Node3260</title>
<polygon fill="#bfbfbf" stroke="#000000" points="0,-114.5 0,-133.5 83,-133.5 83,-114.5 0,-114.5"/>
<text text-anchor="middle" x="41.5" y="-121.5" font-family="Helvetica,sans-Serif" font-size="10.00" fill="#000000">cf_section_dup</text>
</g>
<!-- Node3260&#45;&gt;Node3260 -->
<g id="edge57" class="edge">
<title>Node3260&#45;&gt;Node3260</title>
<path fill="none" stroke="#191970" d="M14.2475,-142.6539C15.3867,-147.9368 24.4708,-152 41.5,-152 67.4492,-152 74.9502,-142.5653 64.0028,-133.7571"/>
<polygon fill="#191970" stroke="#191970" points="17.3752,-144.227 18.9972,-133.7571 11.2001,-140.9303 17.3752,-144.227"/>
</g>
<!-- Node3261 -->
<g id="node2" class="node">
<title>Node3261</title>
<g id="a_node2"><a xlink:href="cluster_8c.html#a2c73b18c41ba2a09719df3a9b7d66c2e" target="_top" xlink:title="Establish a connection to a cluster node. ">
<polygon fill="none" stroke="#000000" points="295,-456.5 295,-475.5 407,-475.5 407,-456.5 295,-456.5"/>
<text text-anchor="middle" x="351" y="-463.5" font-family="Helvetica,sans-Serif" font-size="10.00" fill="#000000">cluster_node_connect</text>
</a>
</g>
</g>
<!-- Node3260&#45;&gt;Node3261 -->
<g id="edge1" class="edge">
<title>Node3260&#45;&gt;Node3261</title>
<path fill="none" stroke="#191970" d="M55.2106,-141.5442C70.4287,-160.8408 95.8963,-192.6152 119,-219 202.3276,-314.1616 309.3292,-423.6998 341.4658,-456.3454"/>
<polygon fill="#191970" stroke="#191970" points="57.9153,-139.3214 48.9851,-133.6204 52.411,-143.646 57.9153,-139.3214"/>
</g>
<!-- Node3298 -->
<g id="node16" class="node">
<title>Node3298</title>
<g id="a_node16"><a xlink:href="cf__file_8h.html#a2e0adb33a3577a7f52565dc268a9d85a" target="_top" xlink:title="cf_expand_variables">
<polygon fill="none" stroke="#000000" points="136,-190.5 136,-209.5 242,-209.5 242,-190.5 136,-190.5"/>
<text text-anchor="middle" x="189" y="-197.5" font-family="Helvetica,sans-Serif" font-size="10.00" fill="#000000">cf_expand_variables</text>
</a>
</g>
</g>
<!-- Node3260&#45;&gt;Node3298 -->
<g id="edge21" class="edge">
<title>Node3260&#45;&gt;Node3298</title>
<path fill="none" stroke="#191970" d="M60.1339,-140.8007C75.0849,-153.4806 97.1205,-170.4419 119,-181 126.8254,-184.7762 135.5177,-187.897 144.0411,-190.4415"/>
<polygon fill="#191970" stroke="#191970" points="62.0485,-137.8276 52.2043,-133.9105 57.4571,-143.1116 62.0485,-137.8276"/>
</g>
<!-- Node3368 -->
<g id="node39" class="node">
<title>Node3368</title>
<g id="a_node39"><a xlink:href="cf__file_8c.html#a0a2c8a5b64d46fdbb01e4284925f5cbc" target="_top" xlink:title="cf_template_merge">
<polygon fill="none" stroke="#000000" points="139,-152.5 139,-171.5 239,-171.5 239,-152.5 139,-152.5"/>
<text text-anchor="middle" x="189" y="-159.5" font-family="Helvetica,sans-Serif" font-size="10.00" fill="#000000">cf_template_merge</text>
</a>
</g>
</g>
<!-- Node3260&#45;&gt;Node3368 -->
<g id="edge55" class="edge">
<title>Node3260&#45;&gt;Node3368</title>
<path fill="none" stroke="#191970" d="M88.5141,-136.1121C109.0566,-141.4044 132.7998,-147.5213 152.0472,-152.4799"/>
<polygon fill="#191970" stroke="#191970" points="89.2775,-132.6946 78.7205,-133.589 87.5311,-139.4732 89.2775,-132.6946"/>
</g>
<!-- Node3369 -->
<g id="node40" class="node">
<title>Node3369</title>
<g id="a_node40"><a xlink:href="proto__detail_8c.html#a9609ab2a4bc7986ec4f346b365737a42" target="_top" xlink:title="Bootstrap the application. ">
<polygon fill="none" stroke="#000000" points="148.5,-114.5 148.5,-133.5 229.5,-133.5 229.5,-114.5 148.5,-114.5"/>
<text text-anchor="middle" x="189" y="-121.5" font-family="Helvetica,sans-Serif" font-size="10.00" fill="#000000">mod_bootstrap</text>
</a>
</g>
</g>
<!-- Node3260&#45;&gt;Node3369 -->
<g id="edge58" class="edge">
<title>Node3260&#45;&gt;Node3369</title>
<path fill="none" stroke="#191970" d="M93.4285,-124C111.4272,-124 131.3316,-124 148.2954,-124"/>
<polygon fill="#191970" stroke="#191970" points="93.3731,-120.5001 83.373,-124 93.373,-127.5001 93.3731,-120.5001"/>
</g>
<!-- Node3337 -->
<g id="node41" class="node">
<title>Node3337</title>
<g id="a_node41"><a xlink:href="mod_8h.html#a73e0ca7d9f8ac3c934b4538a8adc9b63" target="_top" xlink:title="Load client entries from Couchbase client documents on startup. ">
<polygon fill="none" stroke="#ff0000" points="119,-76.5 119,-95.5 259,-95.5 259,-76.5 119,-76.5"/>
<text text-anchor="middle" x="189" y="-83.5" font-family="Helvetica,sans-Serif" font-size="10.00" fill="#000000">mod_load_client_documents</text>
</a>
</g>
</g>
<!-- Node3260&#45;&gt;Node3337 -->
<g id="edge59" class="edge">
<title>Node3260&#45;&gt;Node3337</title>
<path fill="none" stroke="#191970" d="M88.5141,-111.8879C109.0566,-106.5956 132.7998,-100.4787 152.0472,-95.5201"/>
<polygon fill="#191970" stroke="#191970" points="87.5311,-108.5268 78.7205,-114.411 89.2775,-115.3054 87.5311,-108.5268"/>
</g>
<!-- Node3339 -->
<g id="node42" class="node">
<title>Node3339</title>
<g id="a_node42"><a xlink:href="clients_8c.html#af171e960fd913f486e424091ff5ead04" target="_top" xlink:title="Load clients from LDAP on server start. ">
<polygon fill="none" stroke="#000000" points="136.5,-38.5 136.5,-57.5 241.5,-57.5 241.5,-38.5 136.5,-38.5"/>
<text text-anchor="middle" x="189" y="-45.5" font-family="Helvetica,sans-Serif" font-size="10.00" fill="#000000">rlm_ldap_client_load</text>
</a>
</g>
</g>
<!-- Node3260&#45;&gt;Node3339 -->
<g id="edge60" class="edge">
<title>Node3260&#45;&gt;Node3339</title>
<path fill="none" stroke="#191970" d="M60.1339,-107.1993C75.0849,-94.5194 97.1205,-77.5581 119,-67 126.8254,-63.2238 135.5177,-60.103 144.0411,-57.5585"/>
<polygon fill="#191970" stroke="#191970" points="57.4571,-104.8884 52.2043,-114.0895 62.0485,-110.1724 57.4571,-104.8884"/>
</g>
<!-- Node3359 -->
<g id="node43" class="node">
<title>Node3359</title>
<g id="a_node43"><a xlink:href="rlm__rest_8c.html#a8a1e995764f49a98cc464b528f73edbb" target="_top" xlink:title="Create a thread specific multihandle. ">
<polygon fill="none" stroke="#000000" points="130,-.5 130,-19.5 248,-19.5 248,-.5 130,-.5"/>
<text text-anchor="middle" x="189" y="-7.5" font-family="Helvetica,sans-Serif" font-size="10.00" fill="#000000">mod_thread_instantiate</text>
</a>
</g>
</g>
<!-- Node3260&#45;&gt;Node3359 -->
<g id="edge61" class="edge">
<title>Node3260&#45;&gt;Node3359</title>
<path fill="none" stroke="#191970" d="M51.7913,-105.3669C64.6884,-83.7562 88.8098,-48.5978 119,-29 125.0205,-25.0919 131.8303,-21.9821 138.7794,-19.509"/>
<polygon fill="#191970" stroke="#191970" points="48.6389,-103.8272 46.6739,-114.2382 54.7024,-107.3249 48.6389,-103.8272"/>
</g>
<!-- Node3262 -->
<g id="node3" class="node">
<title>Node3262</title>
<g id="a_node3"><a xlink:href="cluster_8c.html#ab434868c42486ab9876b2043c26439f2" target="_top" xlink:title="Apply a cluster map received from a cluster node. ">
<polygon fill="none" stroke="#000000" points="469.5,-494.5 469.5,-513.5 567.5,-513.5 567.5,-494.5 469.5,-494.5"/>
<text text-anchor="middle" x="518.5" y="-501.5" font-family="Helvetica,sans-Serif" font-size="10.00" fill="#000000">cluster_map_apply</text>
</a>
</g>
</g>
<!-- Node3261&#45;&gt;Node3262 -->
<g id="edge2" class="edge">
<title>Node3261&#45;&gt;Node3262</title>
<path fill="none" stroke="#191970" d="M403.1201,-477.8243C426.7347,-483.1816 454.282,-489.4311 476.5366,-494.4799"/>
<polygon fill="#191970" stroke="#191970" points="403.7939,-474.3883 393.2673,-475.589 402.2451,-481.2148 403.7939,-474.3883"/>
</g>
<!-- Node3292 -->
<g id="node9" class="node">
<title>Node3292</title>
<g id="a_node9"><a xlink:href="cluster_8h.html#a8f4e4285d679ffb64c8ef619b182b86a" target="_top" xlink:title="Allocate and initialise a new cluster structure. ">
<polygon fill="none" stroke="#000000" points="633.5,-396.5 633.5,-415.5 742.5,-415.5 742.5,-396.5 633.5,-396.5"/>
<text text-anchor="middle" x="688" y="-403.5" font-family="Helvetica,sans-Serif" font-size="10.00" fill="#000000">fr_redis_cluster_alloc</text>
</a>
</g>
</g>
<!-- Node3261&#45;&gt;Node3292 -->
<g id="edge20" class="edge">
<title>Node3261&#45;&gt;Node3292</title>
<path fill="none" stroke="#191970" d="M414.3052,-454.729C477.8793,-443.4102 574.7513,-426.163 634.573,-415.5122"/>
<polygon fill="#191970" stroke="#191970" points="413.6303,-451.2941 404.3987,-456.4928 414.8574,-458.1857 413.6303,-451.2941"/>
</g>
<!-- Node3295 -->
<g id="node13" class="node">
<title>Node3295</title>
<g id="a_node13"><a xlink:href="cluster_8c.html#a4030e10e7438e81a42623a42beb18e42" target="_top" xlink:title="Retrieve or associate a node with the server indicated in the redirect. ">
<polygon fill="none" stroke="#000000" points="646.5,-562.5 646.5,-581.5 729.5,-581.5 729.5,-562.5 646.5,-562.5"/>
<text text-anchor="middle" x="688" y="-569.5" font-family="Helvetica,sans-Serif" font-size="10.00" fill="#000000">cluster_redirect</text>
</a>
</g>
</g>
<!-- Node3261&#45;&gt;Node3295 -->
<g id="edge13" class="edge">
<title>Node3261&#45;&gt;Node3295</title>
<path fill="none" stroke="#191970" d="M371.8189,-481.9335C389.7504,-494.8889 416.8071,-512.6584 443,-523 511.3868,-550.0009 596.6198,-562.7278 646.4109,-568.2456"/>
<polygon fill="#191970" stroke="#191970" points="373.4501,-478.7872 363.3266,-475.6623 369.2918,-484.4183 373.4501,-478.7872"/>
</g>
<!-- Node3296 -->
<g id="node14" class="node">
<title>Node3296</title>
<g id="a_node14"><a xlink:href="cluster_8h.html#a9b5a2a604f3debf26f9ec7a937cbaf14" target="_top" xlink:title="Get the pool associated with a node in the cluster. ">
<polygon fill="none" stroke="#000000" points="634.5,-451 634.5,-481 741.5,-481 741.5,-451 634.5,-451"/>
<text text-anchor="start" x="642.5" y="-469" font-family="Helvetica,sans-Serif" font-size="10.00" fill="#000000">fr_redis_cluster_pool</text>
<text text-anchor="middle" x="688" y="-458" font-family="Helvetica,sans-Serif" font-size="10.00" fill="#000000">_by_node_addr</text>
</a>
</g>
</g>
<!-- Node3261&#45;&gt;Node3296 -->
<g id="edge15" class="edge">
<title>Node3261&#45;&gt;Node3296</title>
<path fill="none" stroke="#191970" d="M417.3325,-466C480.8392,-466 575.451,-466 634.3471,-466"/>
<polygon fill="#191970" stroke="#191970" points="417.027,-462.5001 407.027,-466 417.027,-469.5001 417.027,-462.5001"/>
</g>
<!-- Node3263 -->
<g id="node4" class="node">
<title>Node3263</title>
<g id="a_node4"><a xlink:href="cluster_8h.html#ab17f60095577fae39f1d708d92536594" target="_top" xlink:title="Perform a runtime remap of the cluster. ">
<polygon fill="none" stroke="#000000" points="630,-516.5 630,-535.5 746,-535.5 746,-516.5 630,-516.5"/>
<text text-anchor="middle" x="688" y="-523.5" font-family="Helvetica,sans-Serif" font-size="10.00" fill="#000000">fr_redis_cluster_remap</text>
</a>
</g>
</g>
<!-- Node3262&#45;&gt;Node3263 -->
<g id="edge3" class="edge">
<title>Node3262&#45;&gt;Node3263</title>
<path fill="none" stroke="#191970" d="M577.8043,-511.6973C594.6619,-513.8853 613,-516.2655 629.7919,-518.445"/>
<polygon fill="#191970" stroke="#191970" points="577.8938,-508.1796 567.5264,-510.3633 576.9927,-515.1214 577.8938,-508.1796"/>
</g>
<!-- Node3262&#45;&gt;Node3292 -->
<g id="edge9" class="edge">
<title>Node3262&#45;&gt;Node3292</title>
<path fill="none" stroke="#191970" d="M543.7806,-489.3835C578.925,-469.064 641.576,-432.841 671.3718,-415.614"/>
<polygon fill="#191970" stroke="#191970" points="541.9663,-486.3895 535.061,-494.4249 545.4701,-492.4496 541.9663,-486.3895"/>
</g>
<!-- Node3264 -->
<g id="node5" class="node">
<title>Node3264</title>
<g id="a_node5"><a xlink:href="cluster_8h.html#ac292207b4d5816986eb8e4457791b491" target="_top" xlink:title="Resolve a key to a pool, and reserve a connection in that pool. ">
<polygon fill="none" stroke="#ff0000" points="785,-532.5 785,-551.5 913,-551.5 913,-532.5 785,-532.5"/>
<text text-anchor="middle" x="849" y="-539.5" font-family="Helvetica,sans-Serif" font-size="10.00" fill="#000000">fr_redis_cluster_state_init</text>
</a>
</g>
</g>
<!-- Node3263&#45;&gt;Node3264 -->
<g id="edge4" class="edge">
<title>Node3263&#45;&gt;Node3264</title>
<path fill="none" stroke="#191970" d="M756.3159,-532.7892C765.8154,-533.7332 775.5466,-534.7003 784.9638,-535.6362"/>
<polygon fill="#191970" stroke="#191970" points="756.4218,-529.2825 746.1247,-531.7764 755.7295,-536.2482 756.4218,-529.2825"/>
</g>
<!-- Node3290 -->
<g id="node7" class="node">
<title>Node3290</title>
<g id="a_node7"><a xlink:href="cluster_8h.html#a02e48068a3e77ab228e414708b5543ee" target="_top" xlink:title="Get the next connection to attempt a command against. ">
<polygon fill="none" stroke="#ff0000" points="782,-570.5 782,-589.5 916,-589.5 916,-570.5 782,-570.5"/>
<text text-anchor="middle" x="849" y="-577.5" font-family="Helvetica,sans-Serif" font-size="10.00" fill="#000000">fr_redis_cluster_state_next</text>
</a>
</g>
</g>
<!-- Node3263&#45;&gt;Node3290 -->
<g id="edge6" class="edge">
<title>Node3263&#45;&gt;Node3290</title>
<path fill="none" stroke="#191970" d="M721.556,-539.2387C739.3888,-546.0847 761.7525,-554.3714 782,-561 792.1117,-564.3103 803.1885,-567.5899 813.3722,-570.4688"/>
<polygon fill="#191970" stroke="#191970" points="722.7465,-535.9465 712.1572,-535.6032 720.2211,-542.4752 722.7465,-535.9465"/>
</g>
<!-- Node3291 -->
<g id="node8" class="node">
<title>Node3291</title>
<g id="a_node8"><a xlink:href="group__xlat__functions.html#ga31886fd2b638245eda5da4425cb1fe1a" target="_top" xlink:title="Force a redis cluster remap. ">
<polygon fill="none" stroke="#ff0000" points="803.5,-494.5 803.5,-513.5 894.5,-513.5 894.5,-494.5 803.5,-494.5"/>
<text text-anchor="middle" x="849" y="-501.5" font-family="Helvetica,sans-Serif" font-size="10.00" fill="#000000">redis_remap_xlat</text>
</a>
</g>
</g>
<!-- Node3263&#45;&gt;Node3291 -->
<g id="edge8" class="edge">
<title>Node3263&#45;&gt;Node3291</title>
<path fill="none" stroke="#191970" d="M756.4177,-516.651C772.2613,-514.486 788.7439,-512.2337 803.3348,-510.24"/>
<polygon fill="#191970" stroke="#191970" points="755.5587,-513.2358 746.1247,-518.0575 756.5065,-520.1713 755.5587,-513.2358"/>
</g>
<!-- Node3268 -->
<g id="node6" class="node">
<title>Node3268</title>
<g id="a_node6"><a xlink:href="group__xlat__functions.html#gad6a230afc88f97f3191f5b1efa47e905" target="_top" xlink:title="Xlat to make calls to redis. ">
<polygon fill="none" stroke="#ff0000" points="966,-532.5 966,-551.5 1025,-551.5 1025,-532.5 966,-532.5"/>
<text text-anchor="middle" x="995.5" y="-539.5" font-family="Helvetica,sans-Serif" font-size="10.00" fill="#000000">redis_xlat</text>
</a>
</g>
</g>
<!-- Node3264&#45;&gt;Node3268 -->
<g id="edge5" class="edge">
<title>Node3264&#45;&gt;Node3268</title>
<path fill="none" stroke="#191970" d="M923.5988,-542C938.564,-542 953.4541,-542 965.7694,-542"/>
<polygon fill="#191970" stroke="#191970" points="923.2571,-538.5001 913.257,-542 923.257,-545.5001 923.2571,-538.5001"/>
</g>
<!-- Node3290&#45;&gt;Node3268 -->
<g id="edge7" class="edge">
<title>Node3290&#45;&gt;Node3268</title>
<path fill="none" stroke="#191970" d="M895.8732,-567.8418C918.8558,-561.8804 945.8366,-554.882 965.9197,-549.6727"/>
<polygon fill="#191970" stroke="#191970" points="894.769,-564.5123 885.9681,-570.411 896.5266,-571.288 894.769,-564.5123"/>
</g>
<!-- Node3293 -->
<g id="node10" class="node">
<title>Node3293</title>
<g id="a_node10"><a xlink:href="rlm__cache__redis_8c.html#a3c32864d8c9d017bf4625d54f415b2db" target="_top" xlink:title="Create a new rlm_cache_redis instance. ">
<polygon fill="none" stroke="#000000" points="806,-380.5 806,-399.5 892,-399.5 892,-380.5 806,-380.5"/>
<text text-anchor="middle" x="849" y="-387.5" font-family="Helvetica,sans-Serif" font-size="10.00" fill="#000000">mod_instantiate</text>
</a>
</g>
</g>
<!-- Node3292&#45;&gt;Node3293 -->
<g id="edge10" class="edge">
<title>Node3292&#45;&gt;Node3293</title>
<path fill="none" stroke="#191970" d="M752.6286,-399.5773C770.575,-397.7938 789.6172,-395.9014 805.9938,-394.2739"/>
<polygon fill="#191970" stroke="#191970" points="752.1121,-396.1113 742.5073,-400.5831 752.8044,-403.077 752.1121,-396.1113"/>
</g>
<!-- Node3294 -->
<g id="node11" class="node">
<title>Node3294</title>
<g id="a_node11"><a xlink:href="rlm__redis__ippool__tool_8c.html#a9b10f4ca60bfe0214a04105f59fcde64" target="_top" xlink:title="Driver initialization function. ">
<polygon fill="none" stroke="#000000" points="819.5,-342.5 819.5,-361.5 878.5,-361.5 878.5,-342.5 819.5,-342.5"/>
<text text-anchor="middle" x="849" y="-349.5" font-family="Helvetica,sans-Serif" font-size="10.00" fill="#000000">driver_init</text>
</a>
</g>
</g>
<!-- Node3292&#45;&gt;Node3294 -->
<g id="edge11" class="edge">
<title>Node3292&#45;&gt;Node3294</title>
<path fill="none" stroke="#191970" d="M721.556,-392.7613C739.3888,-385.9153 761.7525,-377.6286 782,-371 794.18,-367.0125 807.7604,-363.0697 819.4933,-359.8181"/>
<polygon fill="#191970" stroke="#191970" points="720.2211,-389.5248 712.1572,-396.3968 722.7465,-396.0535 720.2211,-389.5248"/>
</g>
<!-- Node3281 -->
<g id="node12" class="node">
<title>Node3281</title>
<g id="a_node12"><a xlink:href="rlm__redis__ippool__tool_8c.html#a0ddf1224851353fc92bfbff6f499fa97" target="_top" xlink:title="main">
<polygon fill="none" stroke="#000000" points="976.5,-380.5 976.5,-399.5 1014.5,-399.5 1014.5,-380.5 976.5,-380.5"/>
<text text-anchor="middle" x="995.5" y="-387.5" font-family="Helvetica,sans-Serif" font-size="10.00" fill="#000000">main</text>
</a>
</g>
</g>
<!-- Node3294&#45;&gt;Node3281 -->
<g id="edge12" class="edge">
<title>Node3294&#45;&gt;Node3281</title>
<path fill="none" stroke="#191970" d="M888.6682,-362.2894C917.0411,-369.6489 953.9928,-379.2336 976.1687,-384.9857"/>
<polygon fill="#191970" stroke="#191970" points="889.2049,-358.8128 878.6465,-359.6899 887.4473,-365.5886 889.2049,-358.8128"/>
</g>
<!-- Node3295&#45;&gt;Node3290 -->
<g id="edge14" class="edge">
<title>Node3295&#45;&gt;Node3290</title>
<path fill="none" stroke="#191970" d="M740.22,-574.5948C753.466,-575.253 767.8823,-575.9693 781.7581,-576.6588"/>
<polygon fill="#191970" stroke="#191970" points="740.042,-571.0817 729.8806,-574.081 739.6945,-578.0731 740.042,-571.0817"/>
</g>
<!-- Node3296&#45;&gt;Node3268 -->
<g id="edge17" class="edge">
<title>Node3296&#45;&gt;Node3268</title>
<path fill="none" stroke="#191970" d="M751.8065,-462.3611C798.6374,-461.803 863.0386,-465.5122 916,-485 944.3702,-495.4392 971.7231,-518.9186 985.7576,-532.2572"/>
<polygon fill="#191970" stroke="#191970" points="751.7258,-458.8619 741.7931,-462.5484 751.8568,-465.8607 751.7258,-458.8619"/>
</g>
<!-- Node3296&#45;&gt;Node3291 -->
<g id="edge16" class="edge">
<title>Node3296&#45;&gt;Node3291</title>
<path fill="none" stroke="#191970" d="M751.5192,-480.9921C770.7504,-485.5312 791.3363,-490.3899 808.6115,-494.4673"/>
<polygon fill="#191970" stroke="#191970" points="752.1473,-477.5443 741.6107,-478.6534 750.5392,-484.3571 752.1473,-477.5443"/>
</g>
<!-- Node3297 -->
<g id="node15" class="node">
<title>Node3297</title>
<g id="a_node15"><a xlink:href="rlm__redis__ippool__tool_8c.html#a732d1903f8c1de87f3632b567032b1e1" target="_top" xlink:title="Return the pools available across the cluster. ">
<polygon fill="none" stroke="#000000" points="805,-418.5 805,-437.5 893,-437.5 893,-418.5 805,-418.5"/>
<text text-anchor="middle" x="849" y="-425.5" font-family="Helvetica,sans-Serif" font-size="10.00" fill="#000000">driver_get_pools</text>
</a>
</g>
</g>
<!-- Node3296&#45;&gt;Node3297 -->
<g id="edge18" class="edge">
<title>Node3296&#45;&gt;Node3297</title>
<path fill="none" stroke="#191970" d="M751.5192,-451.0079C770.7504,-446.4688 791.3363,-441.6101 808.6115,-437.5327"/>
<polygon fill="#191970" stroke="#191970" points="750.5392,-447.6429 741.6107,-453.3466 752.1473,-454.4557 750.5392,-447.6429"/>
</g>
<!-- Node3297&#45;&gt;Node3281 -->
<g id="edge19" class="edge">
<title>Node3297&#45;&gt;Node3281</title>
<path fill="none" stroke="#191970" d="M895.7504,-415.8736C923.094,-408.7811 956.1316,-400.2116 976.4791,-394.9337"/>
<polygon fill="#191970" stroke="#191970" points="894.769,-412.5123 885.9681,-418.411 896.5266,-419.288 894.769,-412.5123"/>
</g>
<!-- Node3299 -->
<g id="node17" class="node">
<title>Node3299</title>
<g id="a_node17"><a xlink:href="cf__file_8h.html#a808ab05527ebb9f646dc9eaeb96df857" target="_top" xlink:title="cf_section_pass2">
<polygon fill="none" stroke="#000000" points="641.5,-190.5 641.5,-209.5 734.5,-209.5 734.5,-190.5 641.5,-190.5"/>
<text text-anchor="middle" x="688" y="-197.5" font-family="Helvetica,sans-Serif" font-size="10.00" fill="#000000">cf_section_pass2</text>
</a>
</g>
</g>
<!-- Node3298&#45;&gt;Node3299 -->
<g id="edge22" class="edge">
<title>Node3298&#45;&gt;Node3299</title>
<path fill="none" stroke="#191970" d="M252.5352,-200C354.2434,-200 551.2938,-200 641.2165,-200"/>
<polygon fill="#191970" stroke="#191970" points="252.4018,-196.5001 242.4017,-200 252.4017,-203.5001 252.4018,-196.5001"/>
</g>
<!-- Node3308 -->
<g id="node24" class="node">
<title>Node3308</title>
<g id="a_node24"><a xlink:href="cf__file_8c.html#aa3ac47adeff4b62f42ca5ac700404a18" target="_top" xlink:title="cf_get_token">
<polygon fill="none" stroke="#000000" points="314.5,-228.5 314.5,-247.5 387.5,-247.5 387.5,-228.5 314.5,-228.5"/>
<text text-anchor="middle" x="351" y="-235.5" font-family="Helvetica,sans-Serif" font-size="10.00" fill="#000000">cf_get_token</text>
</a>
</g>
</g>
<!-- Node3298&#45;&gt;Node3308 -->
<g id="edge34" class="edge">
<title>Node3298&#45;&gt;Node3308</title>
<path fill="none" stroke="#191970" d="M239.9304,-211.9466C264.0457,-217.6033 292.3051,-224.2321 314.284,-229.3876"/>
<polygon fill="#191970" stroke="#191970" points="240.4145,-208.4653 229.8794,-209.589 238.8159,-215.2803 240.4145,-208.4653"/>
</g>
<!-- Node3313 -->
<g id="node29" class="node">
<title>Node3313</title>
<g id="a_node29"><a xlink:href="cf__file_8c.html#ae2d03b9bbb2a39b3623cecb95e4ad990" target="_top" xlink:title="process_include">
<polygon fill="none" stroke="#000000" points="307.5,-152.5 307.5,-171.5 394.5,-171.5 394.5,-152.5 307.5,-152.5"/>
<text text-anchor="middle" x="351" y="-159.5" font-family="Helvetica,sans-Serif" font-size="10.00" fill="#000000">process_include</text>
</a>
</g>
</g>
<!-- Node3298&#45;&gt;Node3313 -->
<g id="edge40" class="edge">
<title>Node3298&#45;&gt;Node3313</title>
<path fill="none" stroke="#191970" d="M239.7148,-188.1039C262.4856,-182.7626 288.9867,-176.5463 310.4145,-171.5201"/>
<polygon fill="#191970" stroke="#191970" points="238.8159,-184.7197 229.8794,-190.411 240.4145,-191.5347 238.8159,-184.7197"/>
</g>
<!-- Node3314 -->
<g id="node30" class="node">
<title>Node3314</title>
<g id="a_node30"><a xlink:href="cf__file_8c.html#a3a7c1ab5a2d01a8b68fa8920710fd4f0" target="_top" xlink:title="add_pair">
<polygon fill="none" stroke="#000000" points="324.5,-76.5 324.5,-95.5 377.5,-95.5 377.5,-76.5 324.5,-76.5"/>
<text text-anchor="middle" x="351" y="-83.5" font-family="Helvetica,sans-Serif" font-size="10.00" fill="#000000">add_pair</text>
</a>
</g>
</g>
<!-- Node3298&#45;&gt;Node3314 -->
<g id="edge42" class="edge">
<title>Node3298&#45;&gt;Node3314</title>
<path fill="none" stroke="#191970" d="M251.3277,-186.3852C254.0371,-184.7841 256.6142,-182.9962 259,-181 287.665,-157.0155 267.0929,-129.8622 295,-105 303.1256,-97.7609 314.1233,-93.2592 324.2215,-90.4691"/>
<polygon fill="#191970" stroke="#191970" points="249.6833,-183.2942 242.2971,-190.8899 252.8079,-189.5581 249.6833,-183.2942"/>
</g>
<!-- Node3315 -->
<g id="node31" class="node">
<title>Node3315</title>
<g id="a_node31"><a xlink:href="cf__parse_8c.html#ad32ae9a17b12c9f736562c2c328736cf" target="_top" xlink:title="Allocate a pair using the dflt value and quotation. ">
<polygon fill="none" stroke="#000000" points="311,-285.5 311,-304.5 391,-304.5 391,-285.5 311,-285.5"/>
<text text-anchor="middle" x="351" y="-292.5" font-family="Helvetica,sans-Serif" font-size="10.00" fill="#000000">cf_pair_default</text>
</a>
</g>
</g>
<!-- Node3298&#45;&gt;Node3315 -->
<g id="edge44" class="edge">
<title>Node3298&#45;&gt;Node3315</title>
<path fill="none" stroke="#191970" d="M214.1803,-214.7662C247.7207,-234.435 306.1196,-268.6812 334.5316,-285.3426"/>
<polygon fill="#191970" stroke="#191970" points="215.8216,-211.6714 205.4249,-209.6319 212.2806,-217.7097 215.8216,-211.6714"/>
</g>
<!-- Node3364 -->
<g id="node35" class="node">
<title>Node3364</title>
<g id="a_node35"><a xlink:href="cf__util_8h.html#a5247826127a17b6ec93bac30c5c3ebd2" target="_top" xlink:title="Allocate a CONF_SECTION. ">
<polygon fill="none" stroke="#000000" points="305,-114.5 305,-133.5 397,-133.5 397,-114.5 305,-114.5"/>
<text text-anchor="middle" x="351" y="-121.5" font-family="Helvetica,sans-Serif" font-size="10.00" fill="#000000">_cf_section_alloc</text>
</a>
</g>
</g>
<!-- Node3298&#45;&gt;Node3364 -->
<g id="edge51" class="edge">
<title>Node3298&#45;&gt;Node3364</title>
<path fill="none" stroke="#191970" d="M247.4222,-186.8339C251.4492,-185.1162 255.352,-183.1804 259,-181 278.9693,-169.0642 275.4106,-155.5495 295,-143 300.8784,-139.2341 307.5851,-136.1283 314.2653,-133.5975"/>
<polygon fill="#191970" stroke="#191970" points="245.9717,-183.6406 237.862,-190.4586 248.4534,-190.186 245.9717,-183.6406"/>
</g>
<!-- Node3365 -->
<g id="node36" class="node">
<title>Node3365</title>
<g id="a_node36"><a xlink:href="cond__tokenize_8c.html#a131f84f04bbd42f351b6054d5acd04c6" target="_top" xlink:title="Tokenize a conditional check. ">
<polygon fill="none" stroke="#000000" points="305.5,-342.5 305.5,-361.5 396.5,-361.5 396.5,-342.5 305.5,-342.5"/>
<text text-anchor="middle" x="351" y="-349.5" font-family="Helvetica,sans-Serif" font-size="10.00" fill="#000000">fr_cond_tokenize</text>
</a>
</g>
</g>
<!-- Node3298&#45;&gt;Node3365 -->
<g id="edge52" class="edge">
<title>Node3298&#45;&gt;Node3365</title>
<path fill="none" stroke="#191970" d="M203.1497,-217.5397C222.5125,-240.969 258.985,-283.1084 295,-314 307.4853,-324.7092 323.0628,-335.0699 334.6165,-342.2605"/>
<polygon fill="#191970" stroke="#191970" points="205.6445,-215.0617 196.6031,-209.5387 200.227,-219.4946 205.6445,-215.0617"/>
</g>
<!-- Node3299&#45;&gt;Node3299 -->
<g id="edge26" class="edge">
<title>Node3299&#45;&gt;Node3299</title>
<path fill="none" stroke="#191970" d="M658.0599,-218.2746C658.9135,-223.741 668.8936,-228 688,-228 716.4375,-228 724.6577,-218.5653 712.6606,-209.7571"/>
<polygon fill="#191970" stroke="#191970" points="661.0458,-220.1007 663.3394,-209.7571 655.096,-216.4128 661.0458,-220.1007"/>
</g>
<!-- Node3300 -->
<g id="node18" class="node">
<title>Node3300</title>
<g id="a_node18"><a xlink:href="modules_2proto__control_2radmin_8c.html#a3c04138a5bfe5d72780bb7e82a18e627" target="_top" xlink:title="main">
<polygon fill="none" stroke="#000000" points="976.5,-119.5 976.5,-138.5 1014.5,-138.5 1014.5,-119.5 976.5,-119.5"/>
<text text-anchor="middle" x="995.5" y="-126.5" font-family="Helvetica,sans-Serif" font-size="10.00" fill="#000000">main</text>
</a>
</g>
</g>
<!-- Node3299&#45;&gt;Node3300 -->
<g id="edge23" class="edge">
<title>Node3299&#45;&gt;Node3300</title>
<path fill="none" stroke="#191970" d="M735.8623,-186.4867C739.392,-184.8416 742.8136,-183.0177 746,-181 765.6552,-168.5538 760.9411,-152.8871 782,-143 847.7352,-112.1375 937.5822,-120.2479 976.3776,-125.8051"/>
<polygon fill="#191970" stroke="#191970" points="734.2476,-183.3673 726.3534,-190.4336 736.9312,-189.8325 734.2476,-183.3673"/>
</g>
<!-- Node3301 -->
<g id="node19" class="node">
<title>Node3301</title>
<g id="a_node19"><a xlink:href="unit__test__map_8c.html#a532850eab873db856c6eabcb305aa0b7" target="_top" xlink:title="process_file">
<polygon fill="none" stroke="#000000" points="961,-223.5 961,-242.5 1030,-242.5 1030,-223.5 961,-223.5"/>
<text text-anchor="middle" x="995.5" y="-230.5" font-family="Helvetica,sans-Serif" font-size="10.00" fill="#000000">process_file</text>
</a>
</g>
</g>
<!-- Node3299&#45;&gt;Node3301 -->
<g id="edge24" class="edge">
<title>Node3299&#45;&gt;Node3301</title>
<path fill="none" stroke="#191970" d="M744.9093,-206.1073C808.1643,-212.8957 908.3032,-223.6423 960.791,-229.2751"/>
<polygon fill="#191970" stroke="#191970" points="745.019,-202.5991 734.7026,-205.012 744.272,-209.5591 745.019,-202.5991"/>
</g>
<!-- Node3303 -->
<g id="node21" class="node">
<title>Node3303</title>
<g id="a_node21"><a xlink:href="cf__file_8h.html#a0a6a70dff33117e7aeb8bd828f82ef10" target="_top" xlink:title="cf_file_read">
<polygon fill="none" stroke="#000000" points="815.5,-152.5 815.5,-171.5 882.5,-171.5 882.5,-152.5 815.5,-152.5"/>
<text text-anchor="middle" x="849" y="-159.5" font-family="Helvetica,sans-Serif" font-size="10.00" fill="#000000">cf_file_read</text>
</a>
</g>
</g>
<!-- Node3299&#45;&gt;Node3303 -->
<g id="edge27" class="edge">
<title>Node3299&#45;&gt;Node3303</title>
<path fill="none" stroke="#191970" d="M738.6902,-188.0358C763.7285,-182.1262 793.2471,-175.1591 815.4451,-169.9198"/>
<polygon fill="#191970" stroke="#191970" points="737.5557,-184.7074 728.6271,-190.411 739.1637,-191.5202 737.5557,-184.7074"/>
</g>
<!-- Node3304 -->
<g id="node22" class="node">
<title>Node3304</title>
<g id="a_node22"><a xlink:href="client_8h.html#a2ef2ad3efe46e8200f153bcfae70034e" target="_top" xlink:title="Read a single client from a file. ">
<polygon fill="none" stroke="#ff0000" points="963.5,-176.5 963.5,-195.5 1027.5,-195.5 1027.5,-176.5 963.5,-176.5"/>
<text text-anchor="middle" x="995.5" y="-183.5" font-family="Helvetica,sans-Serif" font-size="10.00" fill="#000000">client_read</text>
</a>
</g>
</g>
<!-- Node3299&#45;&gt;Node3304 -->
<g id="edge32" class="edge">
<title>Node3299&#45;&gt;Node3304</title>
<path fill="none" stroke="#191970" d="M745.0807,-197.4012C809.429,-194.4715 911.7885,-189.8113 963.4443,-187.4594"/>
<polygon fill="#191970" stroke="#191970" points="744.5331,-193.9224 734.7026,-197.8737 744.8515,-200.9152 744.5331,-193.9224"/>
</g>
<!-- Node3306 -->
<g id="node23" class="node">
<title>Node3306</title>
<g id="a_node23"><a xlink:href="main__config_8h.html#aa757a9e40c7f3156ec9315e8b0309d42" target="_top" xlink:title="main_config_init">
<polygon fill="none" stroke="#ff0000" points="952,-266.5 952,-285.5 1039,-285.5 1039,-266.5 952,-266.5"/>
<text text-anchor="middle" x="995.5" y="-273.5" font-family="Helvetica,sans-Serif" font-size="10.00" fill="#000000">main_config_init</text>
</a>
</g>
</g>
<!-- Node3299&#45;&gt;Node3306 -->
<g id="edge33" class="edge">
<title>Node3299&#45;&gt;Node3306</title>
<path fill="none" stroke="#191970" d="M723.0731,-213.1037C740.6101,-219.3566 762.2546,-226.627 782,-232 840.0622,-247.7996 908.3595,-260.9464 951.78,-268.641"/>
<polygon fill="#191970" stroke="#191970" points="723.8619,-209.6673 713.2676,-209.5617 721.4837,-216.251 723.8619,-209.6673"/>
</g>
<!-- Node3302 -->
<g id="node20" class="node">
<title>Node3302</title>
<g id="a_node20"><a xlink:href="unit__test__map_8c.html#a0ddf1224851353fc92bfbff6f499fa97" target="_top" xlink:title="main">
<polygon fill="none" stroke="#000000" points="1075,-223.5 1075,-242.5 1113,-242.5 1113,-223.5 1075,-223.5"/>
<text text-anchor="middle" x="1094" y="-230.5" font-family="Helvetica,sans-Serif" font-size="10.00" fill="#000000">main</text>
</a>
</g>
</g>
<!-- Node3301&#45;&gt;Node3302 -->
<g id="edge25" class="edge">
<title>Node3301&#45;&gt;Node3302</title>
<path fill="none" stroke="#191970" d="M1040.258,-233C1052.3792,-233 1064.8663,-233 1074.7497,-233"/>
<polygon fill="#191970" stroke="#191970" points="1040.2275,-229.5001 1030.2274,-233 1040.2274,-236.5001 1040.2275,-229.5001"/>
</g>
<!-- Node3303&#45;&gt;Node3300 -->
<g id="edge28" class="edge">
<title>Node3303&#45;&gt;Node3300</title>
<path fill="none" stroke="#191970" d="M892.5347,-152.1936C920.4264,-145.9108 955.2395,-138.0689 976.3994,-133.3025"/>
<polygon fill="#191970" stroke="#191970" points="891.5965,-148.8171 882.6101,-154.4291 893.1348,-155.646 891.5965,-148.8171"/>
</g>
<!-- Node3303&#45;&gt;Node3301 -->
<g id="edge29" class="edge">
<title>Node3303&#45;&gt;Node3301</title>
<path fill="none" stroke="#191970" d="M877.9366,-176.0239C906.807,-190.0157 950.3911,-211.1384 975.5875,-223.3496"/>
<polygon fill="#191970" stroke="#191970" points="879.283,-172.7871 868.7576,-171.5754 876.2301,-179.0863 879.283,-172.7871"/>
</g>
<!-- Node3303&#45;&gt;Node3304 -->
<g id="edge30" class="edge">
<title>Node3303&#45;&gt;Node3304</title>
<path fill="none" stroke="#191970" d="M892.6692,-169.154C915.3449,-172.8688 942.5663,-177.3283 963.3039,-180.7256"/>
<polygon fill="#191970" stroke="#191970" points="893.0444,-165.6689 882.6101,-167.5061 891.9126,-172.5768 893.0444,-165.6689"/>
</g>
<!-- Node3303&#45;&gt;Node3306 -->
<g id="edge31" class="edge">
<title>Node3303&#45;&gt;Node3306</title>
<path fill="none" stroke="#191970" d="M865.9175,-178.8216C885.5886,-197.8809 919.523,-229.2454 952,-252 959.4878,-257.2462 968.2328,-262.2627 975.91,-266.3402"/>
<polygon fill="#191970" stroke="#191970" points="868.235,-176.1925 858.6401,-171.6992 863.3388,-181.1952 868.235,-176.1925"/>
</g>
<!-- Node3309 -->
<g id="node25" class="node">
<title>Node3309</title>
<g id="a_node25"><a xlink:href="cf__file_8c.html#a295a06ac0cf4123b869317d945fcb1c2" target="_top" xlink:title="process_map">
<polygon fill="none" stroke="#000000" points="481,-228.5 481,-247.5 556,-247.5 556,-228.5 481,-228.5"/>
<text text-anchor="middle" x="518.5" y="-235.5" font-family="Helvetica,sans-Serif" font-size="10.00" fill="#000000">process_map</text>
</a>
</g>
</g>
<!-- Node3308&#45;&gt;Node3309 -->
<g id="edge35" class="edge">
<title>Node3308&#45;&gt;Node3309</title>
<path fill="none" stroke="#191970" d="M397.859,-238C424.1049,-238 456.3919,-238 480.9578,-238"/>
<polygon fill="#191970" stroke="#191970" points="397.7586,-234.5001 387.7586,-238 397.7586,-241.5001 397.7586,-234.5001"/>
</g>
<!-- Node3310 -->
<g id="node26" class="node">
<title>Node3310</title>
<g id="a_node26"><a xlink:href="cf__file_8c.html#a616f2d71d162eab5bf3a685650aa53bf" target="_top" xlink:title="process_subrequest">
<polygon fill="none" stroke="#000000" points="466.5,-266.5 466.5,-285.5 570.5,-285.5 570.5,-266.5 466.5,-266.5"/>
<text text-anchor="middle" x="518.5" y="-273.5" font-family="Helvetica,sans-Serif" font-size="10.00" fill="#000000">process_subrequest</text>
</a>
</g>
</g>
<!-- Node3308&#45;&gt;Node3310 -->
<g id="edge36" class="edge">
<title>Node3308&#45;&gt;Node3310</title>
<path fill="none" stroke="#191970" d="M397.643,-248.5817C422.3758,-254.1927 452.5203,-261.0315 476.5164,-266.4754"/>
<polygon fill="#191970" stroke="#191970" points="398.2852,-245.1385 387.7586,-246.3393 396.7364,-251.965 398.2852,-245.1385"/>
</g>
<!-- Node3311 -->
<g id="node27" class="node">
<title>Node3311</title>
<g id="a_node27"><a xlink:href="cf__file_8c.html#a0a9b075b5e1700e0b7d1fbc735576887" target="_top" xlink:title="parse_input">
<polygon fill="none" stroke="#000000" points="485,-95.5 485,-114.5 552,-114.5 552,-95.5 485,-95.5"/>
<text text-anchor="middle" x="518.5" y="-102.5" font-family="Helvetica,sans-Serif" font-size="10.00" fill="#000000">parse_input</text>
</a>
</g>
</g>
<!-- Node3308&#45;&gt;Node3311 -->
<g id="edge37" class="edge">
<title>Node3308&#45;&gt;Node3311</title>
<path fill="none" stroke="#191970" d="M371.1299,-222.0163C406.1806,-194.1849 477.4167,-137.6214 506.111,-114.8372"/>
<polygon fill="#191970" stroke="#191970" points="368.7012,-219.4755 363.0462,-228.435 373.0541,-224.9575 368.7012,-219.4755"/>
</g>
<!-- Node3312 -->
<g id="node28" class="node">
<title>Node3312</title>
<g id="a_node28"><a xlink:href="cf__file_8c.html#a9e168bdf46f4076c8a3dafad559ea3e7" target="_top" xlink:title="cf_file_include">
<polygon fill="none" stroke="#000000" points="648.5,-152.5 648.5,-171.5 727.5,-171.5 727.5,-152.5 648.5,-152.5"/>
<text text-anchor="middle" x="688" y="-159.5" font-family="Helvetica,sans-Serif" font-size="10.00" fill="#000000">cf_file_include</text>
</a>
</g>
</g>
<!-- Node3311&#45;&gt;Node3312 -->
<g id="edge38" class="edge">
<title>Node3311&#45;&gt;Node3312</title>
<path fill="none" stroke="#191970" d="M556.539,-117.7919C587.7564,-128.2898 631.2704,-142.9228 659.537,-152.4284"/>
<polygon fill="#191970" stroke="#191970" points="557.4645,-114.4106 546.8705,-114.5405 555.2333,-121.0455 557.4645,-114.4106"/>
</g>
<!-- Node3312&#45;&gt;Node3303 -->
<g id="edge39" class="edge">
<title>Node3312&#45;&gt;Node3303</title>
<path fill="none" stroke="#191970" d="M737.9047,-162C763.0799,-162 792.9452,-162 815.3671,-162"/>
<polygon fill="#191970" stroke="#191970" points="737.7978,-158.5001 727.7978,-162 737.7977,-165.5001 737.7978,-158.5001"/>
</g>
<!-- Node3313&#45;&gt;Node3312 -->
<g id="edge41" class="edge">
<title>Node3313&#45;&gt;Node3312</title>
<path fill="none" stroke="#191970" d="M404.7786,-162C472.6666,-162 587.8641,-162 648.298,-162"/>
<polygon fill="#191970" stroke="#191970" points="404.7114,-158.5001 394.7114,-162 404.7113,-165.5001 404.7114,-158.5001"/>
</g>
<!-- Node3314&#45;&gt;Node3311 -->
<g id="edge43" class="edge">
<title>Node3314&#45;&gt;Node3311</title>
<path fill="none" stroke="#191970" d="M387.6644,-90.1589C416.625,-93.444 456.7132,-97.9914 484.8596,-101.1841"/>
<polygon fill="#191970" stroke="#191970" points="387.8717,-86.6601 377.5409,-89.0106 387.0826,-93.6155 387.8717,-86.6601"/>
</g>
<!-- Node3316 -->
<g id="node32" class="node">
<title>Node3316</title>
<g id="a_node32"><a xlink:href="cf__parse_8c.html#ac9259fd0c3c16ded200a89e0a83b87bd" target="_top" xlink:title="Parses a CONF_PAIR into a C data type, with a default value. ">
<polygon fill="none" stroke="#000000" points="462.5,-304.5 462.5,-323.5 574.5,-323.5 574.5,-304.5 462.5,-304.5"/>
<text text-anchor="middle" x="518.5" y="-311.5" font-family="Helvetica,sans-Serif" font-size="10.00" fill="#000000">cf_pair_parse_internal</text>
</a>
</g>
</g>
<!-- Node3315&#45;&gt;Node3316 -->
<g id="edge45" class="edge">
<title>Node3315&#45;&gt;Node3316</title>
<path fill="none" stroke="#191970" d="M401.1854,-300.6927C420.4167,-302.8741 442.4774,-305.3765 462.2407,-307.6184"/>
<polygon fill="#191970" stroke="#191970" points="401.4512,-297.2005 391.1204,-299.551 400.6622,-304.1559 401.4512,-297.2005"/>
</g>
<!-- Node3317 -->
<g id="node33" class="node">
<title>Node3317</title>
<g id="a_node33"><a xlink:href="cf__parse_8h.html#a24f6d2c0d778b7ad6e446ce50353f866" target="_top" xlink:title="Parses a CONF_PAIR into a C data type, with a default value. ">
<polygon fill="none" stroke="#ff0000" points="650.5,-304.5 650.5,-323.5 725.5,-323.5 725.5,-304.5 650.5,-304.5"/>
<text text-anchor="middle" x="688" y="-311.5" font-family="Helvetica,sans-Serif" font-size="10.00" fill="#000000">cf_pair_parse</text>
</a>
</g>
</g>
<!-- Node3316&#45;&gt;Node3317 -->
<g id="edge46" class="edge">
<title>Node3316&#45;&gt;Node3317</title>
<path fill="none" stroke="#191970" d="M585.0114,-314C607.2497,-314 631.2468,-314 650.4778,-314"/>
<polygon fill="#191970" stroke="#191970" points="584.9411,-310.5001 574.941,-314 584.941,-317.5001 584.9411,-310.5001"/>
</g>
<!-- Node3325 -->
<g id="node34" class="node">
<title>Node3325</title>
<g id="a_node34"><a xlink:href="cf__parse_8h.html#a0e34ce636eb083a72c6415c4cdc0d5d2" target="_top" xlink:title="Parse a configuration section into user&#45;supplied variables. ">
<polygon fill="none" stroke="#ff0000" points="642.5,-342.5 642.5,-361.5 733.5,-361.5 733.5,-342.5 642.5,-342.5"/>
<text text-anchor="middle" x="688" y="-349.5" font-family="Helvetica,sans-Serif" font-size="10.00" fill="#000000">cf_section_parse</text>
</a>
</g>
</g>
<!-- Node3316&#45;&gt;Node3325 -->
<g id="edge47" class="edge">
<title>Node3316&#45;&gt;Node3325</title>
<path fill="none" stroke="#191970" d="M571.2425,-325.8243C595.139,-331.1816 623.0152,-337.4311 645.5356,-342.4799"/>
<polygon fill="#191970" stroke="#191970" points="571.7955,-322.3614 561.272,-323.589 570.2641,-329.1919 571.7955,-322.3614"/>
</g>
<!-- Node3325&#45;&gt;Node3293 -->
<g id="edge49" class="edge">
<title>Node3325&#45;&gt;Node3293</title>
<path fill="none" stroke="#191970" d="M738.4018,-363.8961C761.032,-369.2374 787.3695,-375.4537 808.665,-380.4799"/>
<polygon fill="#191970" stroke="#191970" points="739.1637,-360.4798 728.6271,-361.589 737.5557,-367.2926 739.1637,-360.4798"/>
</g>
<!-- Node3325&#45;&gt;Node3294 -->
<g id="edge50" class="edge">
<title>Node3325&#45;&gt;Node3294</title>
<path fill="none" stroke="#191970" d="M743.9676,-352C769.3645,-352 798.3633,-352 819.4467,-352"/>
<polygon fill="#191970" stroke="#191970" points="743.7055,-348.5001 733.7055,-352 743.7055,-355.5001 743.7055,-348.5001"/>
</g>
<!-- Node3325&#45;&gt;Node3306 -->
<g id="edge48" class="edge">
<title>Node3325&#45;&gt;Node3306</title>
<path fill="none" stroke="#191970" d="M736.4002,-340.0377C797.3391,-324.9764 900.8107,-299.4029 956.7824,-285.5692"/>
<polygon fill="#191970" stroke="#191970" points="735.5018,-336.6543 726.6337,-342.4515 737.1814,-343.4498 735.5018,-336.6543"/>
</g>
<!-- Node3366 -->
<g id="node37" class="node">
<title>Node3366</title>
<g id="a_node37"><a xlink:href="unit__test__attribute_8c.html#a979b7f6383e6129deccb39d463819c6e" target="_top" xlink:title="Parse and reprint a condition. ">
<polygon fill="none" stroke="#000000" points="443,-342.5 443,-361.5 594,-361.5 594,-342.5 443,-342.5"/>
<text text-anchor="middle" x="518.5" y="-349.5" font-family="Helvetica,sans-Serif" font-size="10.00" fill="#000000">command_condition_normalise</text>
</a>
</g>
</g>
<!-- Node3365&#45;&gt;Node3366 -->
<g id="edge53" class="edge">
<title>Node3365&#45;&gt;Node3366</title>
<path fill="none" stroke="#191970" d="M407.0591,-352C418.5334,-352 430.789,-352 442.8204,-352"/>
<polygon fill="#191970" stroke="#191970" points="406.7701,-348.5001 396.7701,-352 406.7701,-355.5001 406.7701,-348.5001"/>
</g>
<!-- Node3367 -->
<g id="node38" class="node">
<title>Node3367</title>
<g id="a_node38"><a xlink:href="cf__file_8c.html#aef48df0ff8dbcbddc1fc8a7c04670e9d" target="_top" xlink:title="process_if">
<polygon fill="none" stroke="#000000" points="487.5,-380.5 487.5,-399.5 549.5,-399.5 549.5,-380.5 487.5,-380.5"/>
<text text-anchor="middle" x="518.5" y="-387.5" font-family="Helvetica,sans-Serif" font-size="10.00" fill="#000000">process_if</text>
</a>
</g>
</g>
<!-- Node3365&#45;&gt;Node3367 -->
<g id="edge54" class="edge">
<title>Node3365&#45;&gt;Node3367</title>
<path fill="none" stroke="#191970" d="M403.1683,-363.8352C430.775,-370.0982 463.7457,-377.5781 487.3504,-382.9332"/>
<polygon fill="#191970" stroke="#191970" points="403.7939,-360.3883 393.2673,-361.589 402.2451,-367.2148 403.7939,-360.3883"/>
</g>
<!-- Node3368&#45;&gt;Node3311 -->
<g id="edge56" class="edge">
<title>Node3368&#45;&gt;Node3311</title>
<path fill="none" stroke="#191970" d="M248.3007,-150.0703C252.1238,-148.0657 255.7405,-145.7273 259,-143 287.665,-119.0155 263.4172,-86.9866 295,-67 362.6815,-24.169 463.9898,-73.4448 502.6956,-95.457"/>
<polygon fill="#191970" stroke="#191970" points="246.7945,-146.9096 239.0767,-154.1681 249.6364,-153.3067 246.7945,-146.9096"/>
</g>
</g>
</svg>
        <g id="navigator" transform="translate(0 0)" fill="#404254">
                <rect fill="#f2f5e9" fill-opacity="0.5" stroke="#606060" stroke-width=".5" x="0" y="0" width="60" height="60"/>
                <use id="zoomplus" xlink:href="#zoomPlus" x="17" y="9" onmousedown="handleZoom(evt,'in')"/>
                <use id="zoomminus" xlink:href="#zoomMin" x="42" y="9" onmousedown="handleZoom(evt,'out')"/>
                <use id="reset" xlink:href="#resetDef" x="30" y="36" onmousedown="handleReset()"/>
                <g id="arrowUp" xlink:href="#dirArrow" transform="translate(30 24)" onmousedown="handlePan(0,-1)">
                  <use xlink:href="#rim" fill="#404040">
                        <set attributeName="fill" to="#808080" begin="arrowUp.mouseover" end="arrowUp.mouseout"/>
                  </use>
                  <path fill="none" stroke="white" stroke-width="1.5" d="M0,-3.0v7 M-2.5,-0.5L0,-3.0L2.5,-0.5"/>
                </g>
                <g id="arrowRight" xlink:href="#dirArrow" transform="rotate(90) translate(36 -43)" onmousedown="handlePan(1,0)">
                  <use xlink:href="#rim" fill="#404040">
                        <set attributeName="fill" to="#808080" begin="arrowRight.mouseover" end="arrowRight.mouseout"/>
                  </use>
                  <path fill="none" stroke="white" stroke-width="1.5" d="M0,-3.0v7 M-2.5,-0.5L0,-3.0L2.5,-0.5"/>
                </g>
                <g id="arrowDown" xlink:href="#dirArrow" transform="rotate(180) translate(-30 -48)" onmousedown="handlePan(0,1)">
                  <use xlink:href="#rim" fill="#404040">
                        <set attributeName="fill" to="#808080" begin="arrowDown.mouseover" end="arrowDown.mouseout"/>
                  </use>
                  <path fill="none" stroke="white" stroke-width="1.5" d="M0,-3.0v7 M-2.5,-0.5L0,-3.0L2.5,-0.5"/>
                </g>
                <g id="arrowLeft" xlink:href="#dirArrow" transform="rotate(270) translate(-36 17)" onmousedown="handlePan(-1,0)">
                  <use xlink:href="#rim" fill="#404040">
                        <set attributeName="fill" to="#808080" begin="arrowLeft.mouseover" end="arrowLeft.mouseout"/>
                  </use>
                  <path fill="none" stroke="white" stroke-width="1.5" d="M0,-3.0v7 M-2.5,-0.5L0,-3.0L2.5,-0.5"/>
                </g>
        </g>
        <svg viewBox="0 0 15 15" width="100%" height="30px" preserveAspectRatio="xMaxYMin meet">
         <g id="arrow_out" transform="scale(0.3 0.3)">
          <a xlink:href="cf__util_8h_ad1fd0da46ca6a5dc369aae2d6734558c_icgraph_org.svg" target="_base">
           <rect id="button" ry="5" rx="5" y="6" x="6" height="38" width="38"
                fill="#f2f5e9" fill-opacity="0.5" stroke="#606060" stroke-width="1.0"/>
           <path id="arrow"
             d="M 11.500037,31.436501 C 11.940474,20.09759 22.043105,11.32322 32.158766,21.979434 L 37.068811,17.246167 C 37.068811,17.246167 37.088388,32 37.088388,32 L 22.160133,31.978069 C 22.160133,31.978069 26.997745,27.140456 26.997745,27.140456 C 18.528582,18.264221 13.291696,25.230495 11.500037,31.436501 z"
             style="fill:#404040;"/>
          </a>
         </g>
        </svg>
</svg>
