<?xml version="1.0" encoding="UTF-8" standalone="no"?>
<!DOCTYPE svg PUBLIC "-//W3C//DTD SVG 1.1//EN"
 "http://www.w3.org/Graphics/SVG/1.1/DTD/svg11.dtd">
<!-- Generated by graphviz version 2.40.1 (20161225.0304)
 -->
<!-- Title: cf_pair_parse Pages: 1 -->
<!--zoomable 180 -->
<svg id="main" version="1.1" xmlns="http://www.w3.org/2000/svg" xmlns:xlink="http://www.w3.org/1999/xlink" xml:space="preserve" onload="init(evt)">
<style type="text/css"><![CDATA[
.edge:hover path { stroke: red; }
.edge:hover polygon { stroke: red; fill: red; }
]]></style>
<script type="text/javascript"><![CDATA[
var edges = document.getElementsByTagName('g');
if (edges && edges.length) {
  for (var i=0;i<edges.length;i++) {
    if (edges[i].id.substr(0,4)=='edge') {
      edges[i].setAttribute('class','edge');
    }
  }
}
]]></script>
        <defs>
                <circle id="rim" cx="0" cy="0" r="7"/>
                <circle id="rim2" cx="0" cy="0" r="3.5"/>
                <g id="zoomPlus">
                        <use xlink:href="#rim" fill="#404040">
                                <set attributeName="fill" to="#808080" begin="zoomplus.mouseover" end="zoomplus.mouseout"/>
                        </use>
                        <path d="M-4,0h8M0,-4v8" fill="none" stroke="white" stroke-width="1.5" pointer-events="none"/>
                </g>
                <g id="zoomMin">
                        <use xlink:href="#rim" fill="#404040">
                                <set attributeName="fill" to="#808080" begin="zoomminus.mouseover" end="zoomminus.mouseout"/>
                        </use>
                        <path d="M-4,0h8" fill="none" stroke="white" stroke-width="1.5" pointer-events="none"/>
                </g>
                <g id="dirArrow">
                        <path fill="none" stroke="white" stroke-width="1.5" d="M0,-3.0v7 M-2.5,-0.5L0,-3.0L2.5,-0.5"/>
                </g>
               <g id="resetDef">
                       <use xlink:href="#rim2" fill="#404040">
                               <set attributeName="fill" to="#808080" begin="reset.mouseover" end="reset.mouseout"/>
                       </use>
               </g>
        </defs>

<script type="text/javascript">
var viewWidth = 598;
var viewHeight = 180;
var sectionId = 'dynsection-7';
</script>
<script xlink:href="svgpan.js"/>
<svg id="graph" class="graph">
<g id="viewport">
<title>cf_pair_parse</title>
<!-- Node373 -->
<g id="node1" class="node">
<title>Node373</title>
<polygon fill="#bfbfbf" stroke="#000000" points="0,-76.5 0,-95.5 75,-95.5 75,-76.5 0,-76.5"/>
<text text-anchor="middle" x="37.5" y="-83.5" font-family="Helvetica,sans-Serif" font-size="10.00" fill="#000000">cf_pair_parse</text>
</g>
<!-- Node374 -->
<g id="node2" class="node">
<title>Node374</title>
<g id="a_node2"><a xlink:href="modules_2proto__control_2radmin_8c.html#af3445418b067265c45f5c7bb883623a4" target="_top" xlink:title="check_server">
<polygon fill="none" stroke="#000000" points="120.5,-152.5 120.5,-171.5 195.5,-171.5 195.5,-152.5 120.5,-152.5"/>
<text text-anchor="middle" x="158" y="-159.5" font-family="Helvetica,sans-Serif" font-size="10.00" fill="#000000">check_server</text>
</a>
</g>
</g>
<!-- Node373&#45;&gt;Node374 -->
<g id="edge1" class="edge">
<title>Node373&#45;&gt;Node374</title>
<path fill="none" stroke="#191970" d="M58.0942,-101.7749C72.5403,-112.5373 92.5025,-126.8131 111,-138 119.467,-143.1206 129.1549,-148.1922 137.5267,-152.3448"/>
<polygon fill="#191970" stroke="#191970" points="59.9689,-98.8052 49.8747,-95.5867 55.7586,-104.3975 59.9689,-98.8052"/>
</g>
<!-- Node376 -->
<g id="node4" class="node">
<title>Node376</title>
<g id="a_node4"><a xlink:href="proto__bfd_8c.html#a220279a6e5c6f56bea26d3a6f2a418a6" target="_top" xlink:title="bfd_parse_secret">
<polygon fill="none" stroke="#000000" points="112,-76.5 112,-95.5 204,-95.5 204,-76.5 112,-76.5"/>
<text text-anchor="middle" x="158" y="-83.5" font-family="Helvetica,sans-Serif" font-size="10.00" fill="#000000">bfd_parse_secret</text>
</a>
</g>
</g>
<!-- Node373&#45;&gt;Node376 -->
<g id="edge3" class="edge">
<title>Node373&#45;&gt;Node376</title>
<path fill="none" stroke="#191970" d="M85.3406,-86C94.0791,-86 103.1816,-86 111.8692,-86"/>
<polygon fill="#191970" stroke="#191970" points="85.2964,-82.5001 75.2963,-86 85.2963,-89.5001 85.2964,-82.5001"/>
</g>
<!-- Node377 -->
<g id="node5" class="node">
<title>Node377</title>
<g id="a_node5"><a xlink:href="proto__bfd_8c.html#aba876ceaf4687276a8965d2b2ab5fd43" target="_top" xlink:title="bfd_new_session">
<polygon fill="none" stroke="#000000" points="242,-76.5 242,-95.5 334,-95.5 334,-76.5 242,-76.5"/>
<text text-anchor="middle" x="288" y="-83.5" font-family="Helvetica,sans-Serif" font-size="10.00" fill="#000000">bfd_new_session</text>
</a>
</g>
</g>
<!-- Node373&#45;&gt;Node377 -->
<g id="edge8" class="edge">
<title>Node373&#45;&gt;Node377</title>
<path fill="none" stroke="#191970" d="M76.909,-98.1412C87.8413,-100.972 99.7885,-103.5743 111,-105 152.444,-110.2701 163.4864,-109.6909 205,-105 221.4517,-103.141 239.3948,-99.2719 254.3755,-95.5074"/>
<polygon fill="#191970" stroke="#191970" points="77.7727,-94.749 67.2048,-95.5044 75.9372,-101.5041 77.7727,-94.749"/>
</g>
<!-- Node380 -->
<g id="node8" class="node">
<title>Node380</title>
<g id="a_node8"><a xlink:href="proto__bfd_8c.html#a6d79880a617781393595d0f3ae604af0" target="_top" xlink:title="bfd_socket_parse">
<polygon fill="none" stroke="#000000" points="241,-38.5 241,-57.5 335,-57.5 335,-38.5 241,-38.5"/>
<text text-anchor="middle" x="288" y="-45.5" font-family="Helvetica,sans-Serif" font-size="10.00" fill="#000000">bfd_socket_parse</text>
</a>
</g>
</g>
<!-- Node373&#45;&gt;Node380 -->
<g id="edge12" class="edge">
<title>Node373&#45;&gt;Node380</title>
<path fill="none" stroke="#191970" d="M80.0184,-73.8854C90.1115,-71.3226 100.8857,-68.84 111,-67 154.6336,-59.0623 204.9655,-54.0534 240.776,-51.1841"/>
<polygon fill="#191970" stroke="#191970" points="78.9903,-70.5365 70.2021,-76.4541 80.7624,-77.3085 78.9903,-70.5365"/>
</g>
<!-- Node381 -->
<g id="node9" class="node">
<title>Node381</title>
<g id="a_node9"><a xlink:href="proto__bfd_8c.html#a1d2a57854329e4a699e7792d29655107" target="_top" xlink:title="bfd_parse_ip_port">
<polygon fill="none" stroke="#000000" points="111,-.5 111,-19.5 205,-19.5 205,-.5 111,-.5"/>
<text text-anchor="middle" x="158" y="-7.5" font-family="Helvetica,sans-Serif" font-size="10.00" fill="#000000">bfd_parse_ip_port</text>
</a>
</g>
</g>
<!-- Node373&#45;&gt;Node381 -->
<g id="edge9" class="edge">
<title>Node373&#45;&gt;Node381</title>
<path fill="none" stroke="#191970" d="M58.0942,-70.2251C72.5403,-59.4627 92.5025,-45.1869 111,-34 119.467,-28.8794 129.1549,-23.8078 137.5267,-19.6552"/>
<polygon fill="#191970" stroke="#191970" points="55.7586,-67.6025 49.8747,-76.4133 59.9689,-73.1948 55.7586,-67.6025"/>
</g>
<!-- Node375 -->
<g id="node3" class="node">
<title>Node375</title>
<g id="a_node3"><a xlink:href="modules_2proto__control_2radmin_8c.html#a3c04138a5bfe5d72780bb7e82a18e627" target="_top" xlink:title="main">
<polygon fill="none" stroke="#000000" points="269,-152.5 269,-171.5 307,-171.5 307,-152.5 269,-152.5"/>
<text text-anchor="middle" x="288" y="-159.5" font-family="Helvetica,sans-Serif" font-size="10.00" fill="#000000">main</text>
</a>
</g>
</g>
<!-- Node374&#45;&gt;Node375 -->
<g id="edge2" class="edge">
<title>Node374&#45;&gt;Node375</title>
<path fill="none" stroke="#191970" d="M205.7421,-162C227.6228,-162 252.3162,-162 268.8879,-162"/>
<polygon fill="#191970" stroke="#191970" points="205.6014,-158.5001 195.6014,-162 205.6014,-165.5001 205.6014,-158.5001"/>
</g>
<!-- Node376&#45;&gt;Node377 -->
<g id="edge4" class="edge">
<title>Node376&#45;&gt;Node377</title>
<path fill="none" stroke="#191970" d="M214.4357,-86C223.6252,-86 233.0472,-86 241.9496,-86"/>
<polygon fill="#191970" stroke="#191970" points="214.1992,-82.5001 204.1992,-86 214.1991,-89.5001 214.1992,-82.5001"/>
</g>
<!-- Node376&#45;&gt;Node380 -->
<g id="edge7" class="edge">
<title>Node376&#45;&gt;Node380</title>
<path fill="none" stroke="#191970" d="M200.8839,-73.4647C218.5689,-68.2952 238.7337,-62.4009 255.206,-57.5859"/>
<polygon fill="#191970" stroke="#191970" points="199.4208,-70.2458 190.8045,-76.411 201.3848,-76.9647 199.4208,-70.2458"/>
</g>
<!-- Node378 -->
<g id="node6" class="node">
<title>Node378</title>
<g id="a_node6"><a xlink:href="proto__bfd_8c.html#afea3770cdbfe74aa93668305900831fa" target="_top" xlink:title="bfd_init_sessions">
<polygon fill="none" stroke="#000000" points="371,-38.5 371,-57.5 463,-57.5 463,-38.5 371,-38.5"/>
<text text-anchor="middle" x="417" y="-45.5" font-family="Helvetica,sans-Serif" font-size="10.00" fill="#000000">bfd_init_sessions</text>
</a>
</g>
</g>
<!-- Node377&#45;&gt;Node378 -->
<g id="edge5" class="edge">
<title>Node377&#45;&gt;Node378</title>
<path fill="none" stroke="#191970" d="M330.554,-73.4647C348.103,-68.2952 368.1127,-62.4009 384.4583,-57.5859"/>
<polygon fill="#191970" stroke="#191970" points="329.1556,-70.2279 320.5521,-76.411 331.1336,-76.9426 329.1556,-70.2279"/>
</g>
<!-- Node379 -->
<g id="node7" class="node">
<title>Node379</title>
<g id="a_node7"><a xlink:href="proto__bfd_8c.html#ae8fb5e4edcd940664ccbc3ddd0f422d4" target="_top" xlink:title="bfd_socket_open">
<polygon fill="none" stroke="#000000" points="499,-38.5 499,-57.5 590,-57.5 590,-38.5 499,-38.5"/>
<text text-anchor="middle" x="544.5" y="-45.5" font-family="Helvetica,sans-Serif" font-size="10.00" fill="#000000">bfd_socket_open</text>
</a>
</g>
</g>
<!-- Node378&#45;&gt;Node379 -->
<g id="edge6" class="edge">
<title>Node378&#45;&gt;Node379</title>
<path fill="none" stroke="#191970" d="M473.0669,-48C481.7247,-48 490.5744,-48 498.9646,-48"/>
<polygon fill="#191970" stroke="#191970" points="473.0305,-44.5001 463.0304,-48 473.0304,-51.5001 473.0305,-44.5001"/>
</g>
<!-- Node381&#45;&gt;Node378 -->
<g id="edge10" class="edge">
<title>Node381&#45;&gt;Node378</title>
<path fill="none" stroke="#191970" d="M215.1489,-14.3715C249.9381,-17.4693 295.1985,-22.2779 335,-29 349.8415,-31.5066 366.0144,-35.0719 380.0448,-38.4382"/>
<polygon fill="#191970" stroke="#191970" points="215.4334,-10.8831 205.1679,-13.5039 214.8272,-17.8568 215.4334,-10.8831"/>
</g>
<!-- Node381&#45;&gt;Node380 -->
<g id="edge11" class="edge">
<title>Node381&#45;&gt;Node380</title>
<path fill="none" stroke="#191970" d="M200.8839,-22.5353C218.5689,-27.7048 238.7337,-33.5991 255.206,-38.4141"/>
<polygon fill="#191970" stroke="#191970" points="201.3848,-19.0353 190.8045,-19.589 199.4208,-25.7542 201.3848,-19.0353"/>
</g>
</g>
</svg>
        <g id="navigator" transform="translate(0 0)" fill="#404254">
                <rect fill="#f2f5e9" fill-opacity="0.5" stroke="#606060" stroke-width=".5" x="0" y="0" width="60" height="60"/>
                <use id="zoomplus" xlink:href="#zoomPlus" x="17" y="9" onmousedown="handleZoom(evt,'in')"/>
                <use id="zoomminus" xlink:href="#zoomMin" x="42" y="9" onmousedown="handleZoom(evt,'out')"/>
                <use id="reset" xlink:href="#resetDef" x="30" y="36" onmousedown="handleReset()"/>
                <g id="arrowUp" xlink:href="#dirArrow" transform="translate(30 24)" onmousedown="handlePan(0,-1)">
                  <use xlink:href="#rim" fill="#404040">
                        <set attributeName="fill" to="#808080" begin="arrowUp.mouseover" end="arrowUp.mouseout"/>
                  </use>
                  <path fill="none" stroke="white" stroke-width="1.5" d="M0,-3.0v7 M-2.5,-0.5L0,-3.0L2.5,-0.5"/>
                </g>
                <g id="arrowRight" xlink:href="#dirArrow" transform="rotate(90) translate(36 -43)" onmousedown="handlePan(1,0)">
                  <use xlink:href="#rim" fill="#404040">
                        <set attributeName="fill" to="#808080" begin="arrowRight.mouseover" end="arrowRight.mouseout"/>
                  </use>
                  <path fill="none" stroke="white" stroke-width="1.5" d="M0,-3.0v7 M-2.5,-0.5L0,-3.0L2.5,-0.5"/>
                </g>
                <g id="arrowDown" xlink:href="#dirArrow" transform="rotate(180) translate(-30 -48)" onmousedown="handlePan(0,1)">
                  <use xlink:href="#rim" fill="#404040">
                        <set attributeName="fill" to="#808080" begin="arrowDown.mouseover" end="arrowDown.mouseout"/>
                  </use>
                  <path fill="none" stroke="white" stroke-width="1.5" d="M0,-3.0v7 M-2.5,-0.5L0,-3.0L2.5,-0.5"/>
                </g>
                <g id="arrowLeft" xlink:href="#dirArrow" transform="rotate(270) translate(-36 17)" onmousedown="handlePan(-1,0)">
                  <use xlink:href="#rim" fill="#404040">
                        <set attributeName="fill" to="#808080" begin="arrowLeft.mouseover" end="arrowLeft.mouseout"/>
                  </use>
                  <path fill="none" stroke="white" stroke-width="1.5" d="M0,-3.0v7 M-2.5,-0.5L0,-3.0L2.5,-0.5"/>
                </g>
        </g>
        <svg viewBox="0 0 15 15" width="100%" height="30px" preserveAspectRatio="xMaxYMin meet">
         <g id="arrow_out" transform="scale(0.3 0.3)">
          <a xlink:href="cf__parse_8h_a24f6d2c0d778b7ad6e446ce50353f866_icgraph_org.svg" target="_base">
           <rect id="button" ry="5" rx="5" y="6" x="6" height="38" width="38"
                fill="#f2f5e9" fill-opacity="0.5" stroke="#606060" stroke-width="1.0"/>
           <path id="arrow"
             d="M 11.500037,31.436501 C 11.940474,20.09759 22.043105,11.32322 32.158766,21.979434 L 37.068811,17.246167 C 37.068811,17.246167 37.088388,32 37.088388,32 L 22.160133,31.978069 C 22.160133,31.978069 26.997745,27.140456 26.997745,27.140456 C 18.528582,18.264221 13.291696,25.230495 11.500037,31.436501 z"
             style="fill:#404040;"/>
          </a>
         </g>
        </svg>
</svg>
