<?xml version="1.0" encoding="UTF-8" standalone="no"?>
<!DOCTYPE svg PUBLIC "-//W3C//DTD SVG 1.1//EN"
 "http://www.w3.org/Graphics/SVG/1.1/DTD/svg11.dtd">
<!-- Generated by graphviz version 2.40.1 (20161225.0304)
 -->
<!-- Title: _cf_log_perr Pages: 1 -->
<!--zoomable 702 -->
<svg id="main" version="1.1" xmlns="http://www.w3.org/2000/svg" xmlns:xlink="http://www.w3.org/1999/xlink" xml:space="preserve" onload="init(evt)">
<style type="text/css"><![CDATA[
.edge:hover path { stroke: red; }
.edge:hover polygon { stroke: red; fill: red; }
]]></style>
<script type="text/javascript"><![CDATA[
var edges = document.getElementsByTagName('g');
if (edges && edges.length) {
  for (var i=0;i<edges.length;i++) {
    if (edges[i].id.substr(0,4)=='edge') {
      edges[i].setAttribute('class','edge');
    }
  }
}
]]></script>
        <defs>
                <circle id="rim" cx="0" cy="0" r="7"/>
                <circle id="rim2" cx="0" cy="0" r="3.5"/>
                <g id="zoomPlus">
                        <use xlink:href="#rim" fill="#404040">
                                <set attributeName="fill" to="#808080" begin="zoomplus.mouseover" end="zoomplus.mouseout"/>
                        </use>
                        <path d="M-4,0h8M0,-4v8" fill="none" stroke="white" stroke-width="1.5" pointer-events="none"/>
                </g>
                <g id="zoomMin">
                        <use xlink:href="#rim" fill="#404040">
                                <set attributeName="fill" to="#808080" begin="zoomminus.mouseover" end="zoomminus.mouseout"/>
                        </use>
                        <path d="M-4,0h8" fill="none" stroke="white" stroke-width="1.5" pointer-events="none"/>
                </g>
                <g id="dirArrow">
                        <path fill="none" stroke="white" stroke-width="1.5" d="M0,-3.0v7 M-2.5,-0.5L0,-3.0L2.5,-0.5"/>
                </g>
               <g id="resetDef">
                       <use xlink:href="#rim2" fill="#404040">
                               <set attributeName="fill" to="#808080" begin="reset.mouseover" end="reset.mouseout"/>
                       </use>
               </g>
        </defs>

<script type="text/javascript">
var viewWidth = 1038;
var viewHeight = 702;
var sectionId = 'dynsection-15';
</script>
<script xlink:href="svgpan.js"/>
<svg id="graph" class="graph">
<g id="viewport">
<title>_cf_log_perr</title>
<!-- Node695 -->
<g id="node1" class="node">
<title>Node695</title>
<polygon fill="#bfbfbf" stroke="#000000" points="0,-145 0,-164 70,-164 70,-145 0,-145"/>
<text text-anchor="middle" x="35" y="-152" font-family="Helvetica,sans-Serif" font-size="10.00" fill="#000000">_cf_log_perr</text>
</g>
<!-- Node696 -->
<g id="node2" class="node">
<title>Node696</title>
<g id="a_node2"><a xlink:href="acutest_8h.html#aecf9a9be8105efb1454cd8c1ef6cb1c5" target="_top" xlink:title="va_start">
<polygon fill="none" stroke="#000000" points="818.5,-608 818.5,-627 870.5,-627 870.5,-608 818.5,-608"/>
<text text-anchor="middle" x="844.5" y="-615" font-family="Helvetica,sans-Serif" font-size="10.00" fill="#000000">va_start</text>
</a>
</g>
</g>
<!-- Node695&#45;&gt;Node696 -->
<g id="edge1" class="edge">
<title>Node695&#45;&gt;Node696</title>
<path fill="none" stroke="#191970" d="M35.8499,-164.0704C39.4973,-201.7958 55.9826,-343.1942 106,-446.5 166.7108,-571.8921 159.6839,-693.5 299,-693.5 299,-693.5 299,-693.5 572.5,-693.5 663.7828,-693.5 766.1517,-653.3051 815.2045,-631.3781"/>
<polygon fill="#191970" stroke="#191970" points="816.9066,-634.4491 824.5626,-627.1255 814.0105,-628.0763 816.9066,-634.4491"/>
</g>
<!-- Node697 -->
<g id="node3" class="node">
<title>Node697</title>
<g id="a_node3"><a xlink:href="lib_2util_2log_8c.html#a8ed2b7814dc328667424f22ab66463ce" target="_top" xlink:title="Drain any outstanding messages from the fr_strerror buffers. ">
<polygon fill="none" stroke="#000000" points="121.5,-227 121.5,-246 197.5,-246 197.5,-227 121.5,-227"/>
<text text-anchor="middle" x="159.5" y="-234" font-family="Helvetica,sans-Serif" font-size="10.00" fill="#000000">fr_vlog_perror</text>
</a>
</g>
</g>
<!-- Node695&#45;&gt;Node697 -->
<g id="edge2" class="edge">
<title>Node695&#45;&gt;Node697</title>
<path fill="none" stroke="#191970" d="M49.7707,-164.2285C71.1111,-178.284 110.7801,-204.4114 136.1211,-221.1019"/>
<polygon fill="#191970" stroke="#191970" points="134.472,-224.2066 144.7485,-226.7842 138.3224,-218.3607 134.472,-224.2066"/>
</g>
<!-- Node698 -->
<g id="node4" class="node">
<title>Node698</title>
<g id="a_node4"><a xlink:href="lib_2util_2log_8c.html#a22867302627d754d8432843e79582205" target="_top" xlink:title="talloc ctx to use when composing log messages ">
<polygon fill="none" stroke="#000000" points="531.5,-570 531.5,-589 613.5,-589 613.5,-570 531.5,-570"/>
<text text-anchor="middle" x="572.5" y="-577" font-family="Helvetica,sans-Serif" font-size="10.00" fill="#000000">fr_log_pool_init</text>
</a>
</g>
</g>
<!-- Node695&#45;&gt;Node698 -->
<g id="edge39" class="edge">
<title>Node695&#45;&gt;Node698</title>
<path fill="none" stroke="#191970" d="M36.1602,-164.3727C40.4364,-197.5371 57.6577,-307.0373 106,-381.5 152.1252,-452.5477 176.65,-463.4456 249,-507.5 304.4085,-541.2386 321.9305,-545.3133 385,-560.5 430.2131,-571.387 483.0205,-576.0418 521.0512,-578.0287"/>
<polygon fill="#191970" stroke="#191970" points="521.2117,-581.5402 531.3673,-578.5213 521.5457,-574.5482 521.2117,-581.5402"/>
</g>
<!-- Node700 -->
<g id="node6" class="node">
<title>Node700</title>
<g id="a_node6"><a xlink:href="acutest_8h.html#a36af1f79dd6adf0809c21e76535034d5" target="_top" xlink:title="va_end">
<polygon fill="none" stroke="#000000" points="820.5,-399 820.5,-418 868.5,-418 868.5,-399 820.5,-399"/>
<text text-anchor="middle" x="844.5" y="-406" font-family="Helvetica,sans-Serif" font-size="10.00" fill="#000000">va_end</text>
</a>
</g>
</g>
<!-- Node695&#45;&gt;Node700 -->
<g id="edge38" class="edge">
<title>Node695&#45;&gt;Node700</title>
<path fill="none" stroke="#191970" d="M70.2999,-146.7507C165.1424,-127.7533 431.3329,-86.5452 624,-174.5 689.8574,-204.5647 710.0462,-216.8018 751,-276.5 780.8175,-319.9648 749.9292,-352.0296 787,-389.5 793.3244,-395.8925 801.8413,-400.1344 810.3797,-402.9491"/>
<polygon fill="#191970" stroke="#191970" points="809.7148,-406.3954 820.2828,-405.6412 811.5511,-399.6405 809.7148,-406.3954"/>
</g>
<!-- Node844 -->
<g id="node24" class="node">
<title>Node844</title>
<g id="a_node24"><a xlink:href="cf__util_8c.html#ab69bd02efe7235f0077772152cfe085c" target="_top" xlink:title="truncate_filename">
<polygon fill="none" stroke="#000000" points="112.5,-88 112.5,-107 206.5,-107 206.5,-88 112.5,-88"/>
<text text-anchor="middle" x="159.5" y="-95" font-family="Helvetica,sans-Serif" font-size="10.00" fill="#000000">truncate_filename</text>
</a>
</g>
</g>
<!-- Node695&#45;&gt;Node844 -->
<g id="edge40" class="edge">
<title>Node695&#45;&gt;Node844</title>
<path fill="none" stroke="#191970" d="M55.4725,-144.8963C69.6383,-138.2728 88.937,-129.2921 106,-121.5 113.4225,-118.1104 121.442,-114.4905 128.9568,-111.1168"/>
<polygon fill="#191970" stroke="#191970" points="130.4273,-114.2933 138.1228,-107.0111 127.5658,-107.9049 130.4273,-114.2933"/>
</g>
<!-- Node845 -->
<g id="node25" class="node">
<title>Node845</title>
<g id="a_node25"><a xlink:href="print_8c.html#a7e147976f86ad6186e417290ba6d379b" target="_top" xlink:title="Special version of asprintf which implements custom format specifiers. ">
<polygon fill="none" stroke="#000000" points="405,-532 405,-551 465,-551 465,-532 405,-532"/>
<text text-anchor="middle" x="435" y="-539" font-family="Helvetica,sans-Serif" font-size="10.00" fill="#000000">fr_asprintf</text>
</a>
</g>
</g>
<!-- Node695&#45;&gt;Node845 -->
<g id="edge41" class="edge">
<title>Node695&#45;&gt;Node845</title>
<path fill="none" stroke="#191970" d="M39.0179,-164.2349C56.9648,-206.5852 133.9899,-376.7656 249,-468.5 292.6264,-503.2973 354.8702,-523.1878 395.1067,-533.1655"/>
<polygon fill="#191970" stroke="#191970" points="394.2977,-536.5707 404.8375,-535.4917 395.9253,-529.7625 394.2977,-536.5707"/>
</g>
<!-- Node846 -->
<g id="node26" class="node">
<title>Node846</title>
<g id="a_node26"><a xlink:href="talloc_8c.html#a138f6f827642983031220a425178e71d" target="_top" xlink:title="Binary safe strdup function. ">
<polygon fill="none" stroke="#000000" points="121,-50 121,-69 198,-69 198,-50 121,-50"/>
<text text-anchor="middle" x="159.5" y="-57" font-family="Helvetica,sans-Serif" font-size="10.00" fill="#000000">talloc_bstrdup</text>
</a>
</g>
</g>
<!-- Node695&#45;&gt;Node846 -->
<g id="edge45" class="edge">
<title>Node695&#45;&gt;Node846</title>
<path fill="none" stroke="#191970" d="M41.5392,-144.9476C52.8937,-129.0323 77.7624,-97.0134 106,-78.5 109.0653,-76.4903 112.369,-74.6635 115.7771,-73.009"/>
<polygon fill="#191970" stroke="#191970" points="117.1731,-76.2186 124.9506,-69.0241 114.3841,-69.7982 117.1731,-76.2186"/>
</g>
<!-- Node847 -->
<g id="node27" class="node">
<title>Node847</title>
<g id="a_node27"><a xlink:href="talloc_8c.html#a4b718db59b9274ab26ef88c4499279fe" target="_top" xlink:title="Concatenate to + from. ">
<polygon fill="none" stroke="#000000" points="106,-.5 106,-30.5 213,-30.5 213,-.5 106,-.5"/>
<text text-anchor="start" x="114" y="-18.5" font-family="Helvetica,sans-Serif" font-size="10.00" fill="#000000">talloc_buffer_append</text>
<text text-anchor="middle" x="159.5" y="-7.5" font-family="Helvetica,sans-Serif" font-size="10.00" fill="#000000">_buffer</text>
</a>
</g>
</g>
<!-- Node695&#45;&gt;Node847 -->
<g id="edge46" class="edge">
<title>Node695&#45;&gt;Node847</title>
<path fill="none" stroke="#191970" d="M38.6973,-144.9629C47.4005,-123.6162 71.1097,-71.4397 106,-40.5 107.7139,-38.9801 109.5362,-37.5352 111.4349,-36.1635"/>
<polygon fill="#191970" stroke="#191970" points="113.594,-38.9381 120.1497,-30.615 109.8345,-33.0333 113.594,-38.9381"/>
</g>
<!-- Node697&#45;&gt;Node698 -->
<g id="edge3" class="edge">
<title>Node697&#45;&gt;Node698</title>
<path fill="none" stroke="#191970" d="M161.431,-246.3191C168.0059,-277.2682 192.3364,-373.8974 249,-427.5 331.139,-505.2018 384.7111,-470.2837 485,-522.5 508.6903,-534.8346 534.0915,-551.8492 551.389,-564.0727"/>
<polygon fill="#191970" stroke="#191970" points="549.4743,-567.0063 559.6439,-569.9779 553.547,-561.313 549.4743,-567.0063"/>
</g>
<!-- Node697&#45;&gt;Node700 -->
<g id="edge28" class="edge">
<title>Node697&#45;&gt;Node700</title>
<path fill="none" stroke="#191970" d="M197.7432,-238.4753C321.9548,-245.2189 708.5092,-268.9037 751,-304.5 782.449,-330.8462 756.8325,-361.6957 787,-389.5 793.5567,-395.5431 802.0801,-399.6674 810.5474,-402.4811"/>
<polygon fill="#191970" stroke="#191970" points="809.7672,-405.8972 820.3403,-405.2186 811.6517,-399.1556 809.7672,-405.8972"/>
</g>
<!-- Node706 -->
<g id="node11" class="node">
<title>Node706</title>
<g id="a_node11"><a xlink:href="sbuff_8c.html#a1201babbdbbaa4ead018b4dc46a2c510" target="_top" xlink:title="Copy bytes into the sbuff up to the first 0. ">
<polygon fill="none" stroke="#000000" points="251.5,-162 251.5,-181 346.5,-181 346.5,-162 251.5,-162"/>
<text text-anchor="middle" x="299" y="-169" font-family="Helvetica,sans-Serif" font-size="10.00" fill="#000000">fr_sbuff_in_strcpy</text>
</a>
</g>
</g>
<!-- Node697&#45;&gt;Node706 -->
<g id="edge11" class="edge">
<title>Node697&#45;&gt;Node706</title>
<path fill="none" stroke="#191970" d="M180.0837,-226.909C203.5737,-215.9638 242.2008,-197.9656 269.0308,-185.4642"/>
<polygon fill="#191970" stroke="#191970" points="270.7458,-188.5264 278.3318,-181.1303 267.7893,-182.1814 270.7458,-188.5264"/>
</g>
<!-- Node708 -->
<g id="node13" class="node">
<title>Node708</title>
<g id="a_node13"><a xlink:href="strerror_8c.html#a996086d391b19bd9eac3844732711129" target="_top" xlink:title="Pop the last library error. ">
<polygon fill="none" stroke="#000000" points="804.5,-361 804.5,-380 884.5,-380 884.5,-361 804.5,-361"/>
<text text-anchor="middle" x="844.5" y="-368" font-family="Helvetica,sans-Serif" font-size="10.00" fill="#000000">fr_strerror_pop</text>
</a>
</g>
</g>
<!-- Node697&#45;&gt;Node708 -->
<g id="edge13" class="edge">
<title>Node697&#45;&gt;Node708</title>
<path fill="none" stroke="#191970" d="M166.3189,-226.896C179.7791,-208.7872 211.7148,-169.8586 249,-152.5 324.4652,-117.3662 351.7571,-130.5 435,-130.5 435,-130.5 435,-130.5 572.5,-130.5 661.9551,-130.5 685.0791,-163.0297 751,-223.5 792.0721,-261.176 822.4612,-320.7786 836.2659,-351.2201"/>
<polygon fill="#191970" stroke="#191970" points="833.2057,-352.9543 840.4475,-360.6877 839.6089,-350.1261 833.2057,-352.9543"/>
</g>
<!-- Node709 -->
<g id="node14" class="node">
<title>Node709</title>
<g id="a_node14"><a xlink:href="sbuff_8c.html#afec43d53233f21490e3911782c3b65d2" target="_top" xlink:title="Print using a fmt string to an sbuff. ">
<polygon fill="none" stroke="#000000" points="249,-285 249,-304 349,-304 349,-285 249,-285"/>
<text text-anchor="middle" x="299" y="-292" font-family="Helvetica,sans-Serif" font-size="10.00" fill="#000000">fr_sbuff_in_vsprintf</text>
</a>
</g>
</g>
<!-- Node697&#45;&gt;Node709 -->
<g id="edge16" class="edge">
<title>Node697&#45;&gt;Node709</title>
<path fill="none" stroke="#191970" d="M182.5356,-246.0775C205.4547,-255.6066 240.8278,-270.3137 266.5783,-281.02"/>
<polygon fill="#191970" stroke="#191970" points="265.3528,-284.3009 275.9302,-284.9083 268.0402,-277.8373 265.3528,-284.3009"/>
</g>
<!-- Node839 -->
<g id="node19" class="node">
<title>Node839</title>
<g id="a_node19"><a xlink:href="sbuff_8c.html#ad945cb18e697a2aa45dcf7a8a8d2b6d2" target="_top" xlink:title="Copy bytes into the sbuff up to the first 0. ">
<polygon fill="none" stroke="#000000" points="385,-197.5 385,-227.5 485,-227.5 485,-197.5 385,-197.5"/>
<text text-anchor="start" x="393" y="-215.5" font-family="Helvetica,sans-Serif" font-size="10.00" fill="#000000">fr_sbuff_in_bstrcpy</text>
<text text-anchor="middle" x="435" y="-204.5" font-family="Helvetica,sans-Serif" font-size="10.00" fill="#000000">_buffer</text>
</a>
</g>
</g>
<!-- Node697&#45;&gt;Node839 -->
<g id="edge29" class="edge">
<title>Node697&#45;&gt;Node839</title>
<path fill="none" stroke="#191970" d="M197.5178,-233.1881C243.2802,-229.2015 320.6938,-222.4577 374.6504,-217.7573"/>
<polygon fill="#191970" stroke="#191970" points="375.1172,-221.23 384.7756,-216.8753 374.5096,-214.2564 375.1172,-221.23"/>
</g>
<!-- Node840 -->
<g id="node20" class="node">
<title>Node840</title>
<g id="a_node20"><a xlink:href="lib_2util_2log_8c.html#a62c7f0f8ad8a391b16dc27c44b69af7e" target="_top" xlink:title="Send a server log message to its destination. ">
<polygon fill="none" stroke="#000000" points="278.5,-399 278.5,-418 319.5,-418 319.5,-399 278.5,-399"/>
<text text-anchor="middle" x="299" y="-406" font-family="Helvetica,sans-Serif" font-size="10.00" fill="#000000">fr_log</text>
</a>
</g>
</g>
<!-- Node697&#45;&gt;Node840 -->
<g id="edge30" class="edge">
<title>Node697&#45;&gt;Node840</title>
<path fill="none" stroke="#191970" d="M167.3998,-246.2403C190.0351,-274.149 255.3713,-354.7069 284.5857,-390.7275"/>
<polygon fill="#191970" stroke="#191970" points="282.1693,-393.3046 291.1868,-398.8665 287.606,-388.8952 282.1693,-393.3046"/>
</g>
<!-- Node699 -->
<g id="node5" class="node">
<title>Node699</title>
<g id="a_node5"><a xlink:href="strerror_8c.html#a2c8e65d6d4b73fb705cc023f60acb099" target="_top" xlink:title="Print the current error to stderr with a prefix. ">
<polygon fill="none" stroke="#000000" points="679,-570 679,-589 732,-589 732,-570 679,-570"/>
<text text-anchor="middle" x="705.5" y="-577" font-family="Helvetica,sans-Serif" font-size="10.00" fill="#000000">fr_perror</text>
</a>
</g>
</g>
<!-- Node698&#45;&gt;Node699 -->
<g id="edge4" class="edge">
<title>Node698&#45;&gt;Node699</title>
<path fill="none" stroke="#191970" d="M613.853,-579.5C631.4083,-579.5 651.7056,-579.5 668.7296,-579.5"/>
<polygon fill="#191970" stroke="#191970" points="668.8528,-583.0001 678.8528,-579.5 668.8527,-576.0001 668.8528,-583.0001"/>
</g>
<!-- Node705 -->
<g id="node10" class="node">
<title>Node705</title>
<g id="a_node10"><a xlink:href="lib_2util_2log_8c.html#a60361fa4563387fffe1b348c1b3d5351" target="_top" xlink:title="Cleanup the memory pool used by vlog_request. ">
<polygon fill="none" stroke="#000000" points="660,-532 660,-551 751,-551 751,-532 660,-532"/>
<text text-anchor="middle" x="705.5" y="-539" font-family="Helvetica,sans-Serif" font-size="10.00" fill="#000000">_fr_log_pool_free</text>
</a>
</g>
</g>
<!-- Node698&#45;&gt;Node705 -->
<g id="edge10" class="edge">
<title>Node698&#45;&gt;Node705</title>
<path fill="none" stroke="#191970" d="M606.0615,-569.911C623.073,-565.0506 643.9319,-559.0909 662.1446,-553.8873"/>
<polygon fill="#191970" stroke="#191970" points="663.2955,-557.1986 671.9492,-551.0859 661.3724,-550.4679 663.2955,-557.1986"/>
</g>
<!-- Node699&#45;&gt;Node696 -->
<g id="edge5" class="edge">
<title>Node699&#45;&gt;Node696</title>
<path fill="none" stroke="#191970" d="M732.3006,-586.8268C753.9757,-592.7523 784.6973,-601.1511 808.5148,-607.6623"/>
<polygon fill="#191970" stroke="#191970" points="807.684,-611.0636 818.2531,-610.3246 809.53,-604.3113 807.684,-611.0636"/>
</g>
<!-- Node699&#45;&gt;Node700 -->
<g id="edge6" class="edge">
<title>Node699&#45;&gt;Node700</title>
<path fill="none" stroke="#191970" d="M732.1509,-573.0103C739.1057,-570.1798 746.034,-566.1645 751,-560.5 791.3696,-514.452 744.9005,-471.972 787,-427.5 793.3017,-420.8432 801.9805,-416.5168 810.6863,-413.7057"/>
<polygon fill="#191970" stroke="#191970" points="811.6313,-417.0761 820.4017,-411.1321 809.8388,-410.3095 811.6313,-417.0761"/>
</g>
<!-- Node701 -->
<g id="node7" class="node">
<title>Node701</title>
<g id="a_node7"><a xlink:href="strerror_8c.html#a4bdc99630960307e43639975cd3c5f0d" target="_top" xlink:title="Pop the last library error with marker information. ">
<polygon fill="none" stroke="#000000" points="787,-437 787,-456 902,-456 902,-437 787,-437"/>
<text text-anchor="middle" x="844.5" y="-444" font-family="Helvetica,sans-Serif" font-size="10.00" fill="#000000">fr_strerror_marker_pop</text>
</a>
</g>
</g>
<!-- Node699&#45;&gt;Node701 -->
<g id="edge7" class="edge">
<title>Node699&#45;&gt;Node701</title>
<path fill="none" stroke="#191970" d="M732.1809,-570.907C738.6764,-568.1458 745.3685,-564.6905 751,-560.5 787.258,-533.5199 817.9782,-489.5282 833.5521,-464.8246"/>
<polygon fill="#191970" stroke="#191970" points="836.6669,-466.4415 838.931,-456.0914 830.7066,-462.7705 836.6669,-466.4415"/>
</g>
<!-- Node702 -->
<g id="node8" class="node">
<title>Node702</title>
<g id="a_node8"><a xlink:href="cursor_8c.html#ac0e33de2a6f1cb5e82c4d4e4255c2b95" target="_top" xlink:title="Rewind cursor to the start of the list. ">
<polygon fill="none" stroke="#ff0000" points="943.5,-380 943.5,-399 1024.5,-399 1024.5,-380 943.5,-380"/>
<text text-anchor="middle" x="984" y="-387" font-family="Helvetica,sans-Serif" font-size="10.00" fill="#000000">fr_cursor_head</text>
</a>
</g>
</g>
<!-- Node701&#45;&gt;Node702 -->
<g id="edge8" class="edge">
<title>Node701&#45;&gt;Node702</title>
<path fill="none" stroke="#191970" d="M875.4702,-436.989C884.1286,-434.1351 893.4941,-430.8634 902,-427.5 920.2458,-420.2854 940.2318,-411.0522 955.9044,-403.4939"/>
<polygon fill="#191970" stroke="#191970" points="957.5947,-406.5637 965.0514,-399.0372 954.5286,-400.2709 957.5947,-406.5637"/>
</g>
<!-- Node704 -->
<g id="node9" class="node">
<title>Node704</title>
<g id="a_node9"><a xlink:href="cursor_8c.html#a6194bc92357e84dc8720ffd5ccaaeb42" target="_top" xlink:title="Remove the current item. ">
<polygon fill="none" stroke="#ff0000" points="938,-427 938,-446 1030,-446 1030,-427 938,-427"/>
<text text-anchor="middle" x="984" y="-434" font-family="Helvetica,sans-Serif" font-size="10.00" fill="#000000">fr_cursor_remove</text>
</a>
</g>
</g>
<!-- Node701&#45;&gt;Node704 -->
<g id="edge9" class="edge">
<title>Node701&#45;&gt;Node704</title>
<path fill="none" stroke="#191970" d="M902.0454,-442.3749C910.4759,-441.7705 919.1519,-441.1486 927.5599,-440.5459"/>
<polygon fill="#191970" stroke="#191970" points="927.9243,-444.0288 937.6485,-439.8227 927.4238,-437.0468 927.9243,-444.0288"/>
</g>
<!-- Node707 -->
<g id="node12" class="node">
<title>Node707</title>
<g id="a_node12"><a xlink:href="sbuff_8c.html#ac0f47a905cd989f6c60d312fa5cc1839" target="_top" xlink:title="Copy function that allows overlapping memory ranges to be copied. ">
<polygon fill="none" stroke="#000000" points="547,-184 547,-203 598,-203 598,-184 547,-184"/>
<text text-anchor="middle" x="572.5" y="-191" font-family="Helvetica,sans-Serif" font-size="10.00" fill="#000000">safecpy</text>
</a>
</g>
</g>
<!-- Node706&#45;&gt;Node707 -->
<g id="edge12" class="edge">
<title>Node706&#45;&gt;Node707</title>
<path fill="none" stroke="#191970" d="M346.6401,-175.3321C400.8219,-179.6904 488.0605,-186.7078 536.7368,-190.6232"/>
<polygon fill="#191970" stroke="#191970" points="536.5521,-194.1196 546.8005,-191.4328 537.1134,-187.1421 536.5521,-194.1196"/>
</g>
<!-- Node708&#45;&gt;Node702 -->
<g id="edge14" class="edge">
<title>Node708&#45;&gt;Node702</title>
<path fill="none" stroke="#191970" d="M884.8492,-375.9956C899.8992,-378.0454 917.1846,-380.3997 933.0639,-382.5625"/>
<polygon fill="#191970" stroke="#191970" points="932.8773,-386.0693 943.2582,-383.9509 933.8221,-379.1333 932.8773,-386.0693"/>
</g>
<!-- Node708&#45;&gt;Node704 -->
<g id="edge15" class="edge">
<title>Node708&#45;&gt;Node704</title>
<path fill="none" stroke="#191970" d="M877.1701,-380.0308C885.3988,-382.7741 894.1275,-385.9862 902,-389.5 913.2538,-394.5229 939.5327,-409.8329 959.3299,-421.6285"/>
<polygon fill="#191970" stroke="#191970" points="957.7843,-424.7824 968.1626,-426.9135 961.3785,-418.7756 957.7843,-424.7824"/>
</g>
<!-- Node709&#45;&gt;Node700 -->
<g id="edge25" class="edge">
<title>Node709&#45;&gt;Node700</title>
<path fill="none" stroke="#191970" d="M349.0588,-286.5455C413.8069,-278.0447 529.4928,-268.9694 624,-294.5 704.9488,-316.3679 710.5542,-355.0477 787,-389.5 794.4808,-392.8714 802.7447,-395.9532 810.6188,-398.6084"/>
<polygon fill="#191970" stroke="#191970" points="809.7043,-401.991 820.296,-401.7334 811.8555,-395.3297 809.7043,-401.991"/>
</g>
<!-- Node710 -->
<g id="node15" class="node">
<title>Node710</title>
<g id="a_node15"><a xlink:href="sbuff_8c.html#a4825194a19f363dae20c629e73ae50f8" target="_top" xlink:title="sbuff_scratch_init">
<polygon fill="none" stroke="#000000" points="388,-323 388,-342 482,-342 482,-323 388,-323"/>
<text text-anchor="middle" x="435" y="-330" font-family="Helvetica,sans-Serif" font-size="10.00" fill="#000000">sbuff_scratch_init</text>
</a>
</g>
</g>
<!-- Node709&#45;&gt;Node710 -->
<g id="edge17" class="edge">
<title>Node709&#45;&gt;Node710</title>
<path fill="none" stroke="#191970" d="M333.3185,-304.089C350.7943,-308.9719 372.2407,-314.9643 390.9251,-320.185"/>
<polygon fill="#191970" stroke="#191970" points="390.1194,-323.5938 400.6924,-322.9141 392.0032,-316.8521 390.1194,-323.5938"/>
</g>
<!-- Node716 -->
<g id="node18" class="node">
<title>Node716</title>
<g id="a_node18"><a xlink:href="print_8c.html#a27ae94b5a4c77de49aa2f387765a4d58" target="_top" xlink:title="Special version of vasprintf which implements custom format specifiers. ">
<polygon fill="none" stroke="#ff0000" points="540,-494 540,-513 605,-513 605,-494 540,-494"/>
<text text-anchor="middle" x="572.5" y="-501" font-family="Helvetica,sans-Serif" font-size="10.00" fill="#000000">fr_vasprintf</text>
</a>
</g>
</g>
<!-- Node709&#45;&gt;Node716 -->
<g id="edge22" class="edge">
<title>Node709&#45;&gt;Node716</title>
<path fill="none" stroke="#191970" d="M303.9325,-304.1634C320.2673,-336.0246 372.2821,-436.3095 385,-446.5 407.433,-464.475 481.9457,-483.5553 530.0103,-494.45"/>
<polygon fill="#191970" stroke="#191970" points="529.3143,-497.8807 539.8371,-496.6472 530.8418,-491.0494 529.3143,-497.8807"/>
</g>
<!-- Node709&#45;&gt;Node839 -->
<g id="edge26" class="edge">
<title>Node709&#45;&gt;Node839</title>
<path fill="none" stroke="#191970" d="M314.8671,-284.9331C335.8933,-272.2555 373.5388,-249.5575 401.1003,-232.9395"/>
<polygon fill="#191970" stroke="#191970" points="403.2655,-235.721 410.0221,-227.5602 399.6511,-229.7264 403.2655,-235.721"/>
</g>
<!-- Node711 -->
<g id="node16" class="node">
<title>Node711</title>
<g id="a_node16"><a xlink:href="strerror_8c.html#ae701765650b8aea79a3037bc4921d7f8" target="_top" xlink:title="Log to thread local error buffer. ">
<polygon fill="none" stroke="#ff0000" points="662.5,-418 662.5,-437 748.5,-437 748.5,-418 662.5,-418"/>
<text text-anchor="middle" x="705.5" y="-425" font-family="Helvetica,sans-Serif" font-size="10.00" fill="#000000">fr_strerror_printf</text>
</a>
</g>
</g>
<!-- Node710&#45;&gt;Node711 -->
<g id="edge18" class="edge">
<title>Node710&#45;&gt;Node711</title>
<path fill="none" stroke="#191970" d="M462.1751,-342.0439C510.9853,-359.1862 613.5351,-395.2018 668.6312,-414.5516"/>
<polygon fill="#191970" stroke="#191970" points="667.7482,-417.951 678.343,-417.9624 670.0677,-411.3465 667.7482,-417.951"/>
</g>
<!-- Node838 -->
<g id="node17" class="node">
<title>Node838</title>
<g id="a_node17"><a xlink:href="sbuff_8c.html#a4040bdbdb825a3bab883001a114f15a4" target="_top" xlink:title="Free the scratch buffer used for printf. ">
<polygon fill="none" stroke="#000000" points="521,-304 521,-323 624,-323 624,-304 521,-304"/>
<text text-anchor="middle" x="572.5" y="-311" font-family="Helvetica,sans-Serif" font-size="10.00" fill="#000000">_sbuff_scratch_free</text>
</a>
</g>
</g>
<!-- Node710&#45;&gt;Node838 -->
<g id="edge21" class="edge">
<title>Node710&#45;&gt;Node838</title>
<path fill="none" stroke="#191970" d="M482.3197,-325.9613C491.5446,-324.6866 501.3414,-323.3328 510.9487,-322.0053"/>
<polygon fill="#191970" stroke="#191970" points="511.4332,-325.4717 520.8599,-320.6357 510.4749,-318.5376 511.4332,-325.4717"/>
</g>
<!-- Node711&#45;&gt;Node696 -->
<g id="edge19" class="edge">
<title>Node711&#45;&gt;Node696</title>
<path fill="none" stroke="#191970" d="M712.5841,-437.1833C734.6075,-467.2873 802.1304,-559.5847 831.0863,-599.1647"/>
<polygon fill="#191970" stroke="#191970" points="828.5342,-601.6041 837.2635,-607.6083 834.1838,-597.4709 828.5342,-601.6041"/>
</g>
<!-- Node711&#45;&gt;Node700 -->
<g id="edge20" class="edge">
<title>Node711&#45;&gt;Node700</title>
<path fill="none" stroke="#191970" d="M748.7185,-421.5924C768.5302,-418.8844 791.6832,-415.7196 810.2625,-413.1799"/>
<polygon fill="#191970" stroke="#191970" points="810.9038,-416.6249 820.3377,-411.8028 809.9558,-409.6894 810.9038,-416.6249"/>
</g>
<!-- Node716&#45;&gt;Node700 -->
<g id="edge23" class="edge">
<title>Node716&#45;&gt;Node700</title>
<path fill="none" stroke="#191970" d="M605.0383,-494.9775C641.2972,-485.0536 701.3556,-467.3349 751,-446.5 767.6821,-439.4988 770.3533,-434.5849 787,-427.5 794.5501,-424.2867 802.841,-421.2666 810.7192,-418.6208"/>
<polygon fill="#191970" stroke="#191970" points="811.959,-421.8982 820.3908,-415.483 809.7988,-415.2398 811.959,-421.8982"/>
</g>
<!-- Node716&#45;&gt;Node711 -->
<g id="edge24" class="edge">
<title>Node716&#45;&gt;Node711</title>
<path fill="none" stroke="#191970" d="M604.4491,-493.9131C611.1361,-491.309 617.9793,-488.1722 624,-484.5 642.5302,-473.1977 642.2552,-463.9993 660,-451.5 664.7459,-448.1571 670.0151,-444.9645 675.2358,-442.0614"/>
<polygon fill="#191970" stroke="#191970" points="677.2577,-444.9512 684.4575,-437.1786 673.9821,-438.7649 677.2577,-444.9512"/>
</g>
<!-- Node839&#45;&gt;Node707 -->
<g id="edge27" class="edge">
<title>Node839&#45;&gt;Node707</title>
<path fill="none" stroke="#191970" d="M485.0296,-205.5868C501.9994,-203.2419 520.6164,-200.6694 536.2969,-198.5026"/>
<polygon fill="#191970" stroke="#191970" points="537.2004,-201.9111 546.6272,-197.0751 536.2422,-194.977 537.2004,-201.9111"/>
</g>
<!-- Node840&#45;&gt;Node696 -->
<g id="edge31" class="edge">
<title>Node840&#45;&gt;Node696</title>
<path fill="none" stroke="#191970" d="M302.0328,-418.0334C310.7913,-444.1779 338.5058,-517.891 385,-560.5 433.9741,-605.3818 456.9354,-604.9339 521,-622.5 619.7929,-649.5884 649.1287,-648.2735 751,-637.5 770.002,-635.4904 790.8196,-631.2444 807.9783,-627.1795"/>
<polygon fill="#191970" stroke="#191970" points="809.2583,-630.4696 818.1401,-624.6935 807.5948,-623.6701 809.2583,-630.4696"/>
</g>
<!-- Node840&#45;&gt;Node700 -->
<g id="edge37" class="edge">
<title>Node840&#45;&gt;Node700</title>
<path fill="none" stroke="#191970" d="M319.7181,-408.5C402.1393,-408.5 707.2706,-408.5 810.279,-408.5"/>
<polygon fill="#191970" stroke="#191970" points="810.4369,-412.0001 820.4369,-408.5 810.4369,-405.0001 810.4369,-412.0001"/>
</g>
<!-- Node841 -->
<g id="node21" class="node">
<title>Node841</title>
<g id="a_node21"><a xlink:href="lib_2util_2log_8c.html#a787775b366183a1316a677709b14c7dc" target="_top" xlink:title="Send a server log message to its destination. ">
<polygon fill="none" stroke="#000000" points="412,-418 412,-437 458,-437 458,-418 412,-418"/>
<text text-anchor="middle" x="435" y="-425" font-family="Helvetica,sans-Serif" font-size="10.00" fill="#000000">fr_vlog</text>
</a>
</g>
</g>
<!-- Node840&#45;&gt;Node841 -->
<g id="edge32" class="edge">
<title>Node840&#45;&gt;Node841</title>
<path fill="none" stroke="#191970" d="M319.6555,-411.3857C341.4689,-414.4332 376.186,-419.2833 401.8395,-422.8673"/>
<polygon fill="#191970" stroke="#191970" points="401.4812,-426.3511 411.8693,-424.2685 402.4498,-419.4185 401.4812,-426.3511"/>
</g>
<!-- Node841&#45;&gt;Node698 -->
<g id="edge33" class="edge">
<title>Node841&#45;&gt;Node698</title>
<path fill="none" stroke="#191970" d="M443.6012,-437.0083C466.2688,-462.0662 527.8889,-530.1845 556.944,-562.3035"/>
<polygon fill="#191970" stroke="#191970" points="554.5979,-564.9273 563.902,-569.9953 559.7891,-560.2314 554.5979,-564.9273"/>
</g>
<!-- Node841&#45;&gt;Node716 -->
<g id="edge35" class="edge">
<title>Node841&#45;&gt;Node716</title>
<path fill="none" stroke="#191970" d="M458.1764,-436.9015C466.8983,-440.8764 476.7055,-445.8893 485,-451.5 502.9783,-463.6611 502.4698,-473.1977 521,-484.5 524.1985,-486.4509 527.6291,-488.2506 531.1451,-489.8997"/>
<polygon fill="#191970" stroke="#191970" points="529.9796,-493.2076 540.5509,-493.9131 532.7269,-486.7693 529.9796,-493.2076"/>
</g>
<!-- Node842 -->
<g id="node22" class="node">
<title>Node842</title>
<g id="a_node22"><a xlink:href="missing_8c.html#a193959a40169beb14eeca194a55d361d" target="_top" xlink:title="gmtime_r">
<polygon fill="none" stroke="#000000" points="544,-456 544,-475 601,-475 601,-456 544,-456"/>
<text text-anchor="middle" x="572.5" y="-463" font-family="Helvetica,sans-Serif" font-size="10.00" fill="#000000">gmtime_r</text>
</a>
</g>
</g>
<!-- Node841&#45;&gt;Node842 -->
<g id="edge34" class="edge">
<title>Node841&#45;&gt;Node842</title>
<path fill="none" stroke="#191970" d="M458.0144,-433.8603C478.7099,-439.5798 509.5248,-448.0959 533.9732,-454.8526"/>
<polygon fill="#191970" stroke="#191970" points="533.1018,-458.2429 543.6729,-457.5332 534.9665,-451.4958 533.1018,-458.2429"/>
</g>
<!-- Node843 -->
<g id="node23" class="node">
<title>Node843</title>
<g id="a_node23"><a xlink:href="print_8c.html#a69fbdf99ae311e5900c854a2247c51b8" target="_top" xlink:title="Checks for utf&#45;8, taken from http://www.w3.org/International/questions/qa&#45;forms&#45;utf&#45;8. ">
<polygon fill="none" stroke="#000000" points="538.5,-418 538.5,-437 606.5,-437 606.5,-418 538.5,-418"/>
<text text-anchor="middle" x="572.5" y="-425" font-family="Helvetica,sans-Serif" font-size="10.00" fill="#000000">fr_utf8_char</text>
</a>
</g>
</g>
<!-- Node841&#45;&gt;Node843 -->
<g id="edge36" class="edge">
<title>Node841&#45;&gt;Node843</title>
<path fill="none" stroke="#191970" d="M458.0144,-427.5C477.1274,-427.5 504.8715,-427.5 528.2606,-427.5"/>
<polygon fill="#191970" stroke="#191970" points="528.316,-431.0001 538.3159,-427.5 528.3159,-424.0001 528.316,-431.0001"/>
</g>
<!-- Node845&#45;&gt;Node696 -->
<g id="edge42" class="edge">
<title>Node845&#45;&gt;Node696</title>
<path fill="none" stroke="#191970" d="M445.4058,-551.1143C460.6574,-564.5286 490.5848,-588.3535 521,-598.5 620.6847,-631.7547 747.1218,-626.597 808.2046,-621.3771"/>
<polygon fill="#191970" stroke="#191970" points="808.8376,-624.8341 818.4803,-620.4445 808.2049,-617.8628 808.8376,-624.8341"/>
</g>
<!-- Node845&#45;&gt;Node700 -->
<g id="edge44" class="edge">
<title>Node845&#45;&gt;Node700</title>
<path fill="none" stroke="#191970" d="M465.3535,-543.1739C525.904,-544.934 663.3978,-540.8425 751,-475.5 772.3753,-459.5561 765.3465,-443.064 787,-427.5 793.9797,-422.4832 802.3659,-418.7328 810.5484,-415.9518"/>
<polygon fill="#191970" stroke="#191970" points="811.7475,-419.2462 820.32,-413.0202 809.7359,-412.5415 811.7475,-419.2462"/>
</g>
<!-- Node845&#45;&gt;Node716 -->
<g id="edge43" class="edge">
<title>Node845&#45;&gt;Node716</title>
<path fill="none" stroke="#191970" d="M465.175,-533.1607C484.2837,-527.8798 509.2708,-520.9743 530.3268,-515.1551"/>
<polygon fill="#191970" stroke="#191970" points="531.2897,-518.5203 539.9961,-512.4829 529.425,-511.7732 531.2897,-518.5203"/>
</g>
</g>
</svg>
        <g id="navigator" transform="translate(0 0)" fill="#404254">
                <rect fill="#f2f5e9" fill-opacity="0.5" stroke="#606060" stroke-width=".5" x="0" y="0" width="60" height="60"/>
                <use id="zoomplus" xlink:href="#zoomPlus" x="17" y="9" onmousedown="handleZoom(evt,'in')"/>
                <use id="zoomminus" xlink:href="#zoomMin" x="42" y="9" onmousedown="handleZoom(evt,'out')"/>
                <use id="reset" xlink:href="#resetDef" x="30" y="36" onmousedown="handleReset()"/>
                <g id="arrowUp" xlink:href="#dirArrow" transform="translate(30 24)" onmousedown="handlePan(0,-1)">
                  <use xlink:href="#rim" fill="#404040">
                        <set attributeName="fill" to="#808080" begin="arrowUp.mouseover" end="arrowUp.mouseout"/>
                  </use>
                  <path fill="none" stroke="white" stroke-width="1.5" d="M0,-3.0v7 M-2.5,-0.5L0,-3.0L2.5,-0.5"/>
                </g>
                <g id="arrowRight" xlink:href="#dirArrow" transform="rotate(90) translate(36 -43)" onmousedown="handlePan(1,0)">
                  <use xlink:href="#rim" fill="#404040">
                        <set attributeName="fill" to="#808080" begin="arrowRight.mouseover" end="arrowRight.mouseout"/>
                  </use>
                  <path fill="none" stroke="white" stroke-width="1.5" d="M0,-3.0v7 M-2.5,-0.5L0,-3.0L2.5,-0.5"/>
                </g>
                <g id="arrowDown" xlink:href="#dirArrow" transform="rotate(180) translate(-30 -48)" onmousedown="handlePan(0,1)">
                  <use xlink:href="#rim" fill="#404040">
                        <set attributeName="fill" to="#808080" begin="arrowDown.mouseover" end="arrowDown.mouseout"/>
                  </use>
                  <path fill="none" stroke="white" stroke-width="1.5" d="M0,-3.0v7 M-2.5,-0.5L0,-3.0L2.5,-0.5"/>
                </g>
                <g id="arrowLeft" xlink:href="#dirArrow" transform="rotate(270) translate(-36 17)" onmousedown="handlePan(-1,0)">
                  <use xlink:href="#rim" fill="#404040">
                        <set attributeName="fill" to="#808080" begin="arrowLeft.mouseover" end="arrowLeft.mouseout"/>
                  </use>
                  <path fill="none" stroke="white" stroke-width="1.5" d="M0,-3.0v7 M-2.5,-0.5L0,-3.0L2.5,-0.5"/>
                </g>
        </g>
        <svg viewBox="0 0 15 15" width="100%" height="30px" preserveAspectRatio="xMaxYMin meet">
         <g id="arrow_out" transform="scale(0.3 0.3)">
          <a xlink:href="cf__util_8h_a5c4ddcf0d6a3bf4ef95d315a2d7b4039_cgraph_org.svg" target="_base">
           <rect id="button" ry="5" rx="5" y="6" x="6" height="38" width="38"
                fill="#f2f5e9" fill-opacity="0.5" stroke="#606060" stroke-width="1.0"/>
           <path id="arrow"
             d="M 11.500037,31.436501 C 11.940474,20.09759 22.043105,11.32322 32.158766,21.979434 L 37.068811,17.246167 C 37.068811,17.246167 37.088388,32 37.088388,32 L 22.160133,31.978069 C 22.160133,31.978069 26.997745,27.140456 26.997745,27.140456 C 18.528582,18.264221 13.291696,25.230495 11.500037,31.436501 z"
             style="fill:#404040;"/>
          </a>
         </g>
        </svg>
</svg>
