<?xml version="1.0" encoding="UTF-8" standalone="no"?>
<!DOCTYPE svg PUBLIC "-//W3C//DTD SVG 1.1//EN"
 "http://www.w3.org/Graphics/SVG/1.1/DTD/svg11.dtd">
<!-- Generated by graphviz version 2.40.1 (20161225.0304)
 -->
<!-- Title: _cf_data_find_next Pages: 1 -->
<!--zoomable 85 -->
<svg id="main" version="1.1" xmlns="http://www.w3.org/2000/svg" xmlns:xlink="http://www.w3.org/1999/xlink" xml:space="preserve" onload="init(evt)">
<style type="text/css"><![CDATA[
.edge:hover path { stroke: red; }
.edge:hover polygon { stroke: red; fill: red; }
]]></style>
<script type="text/javascript"><![CDATA[
var edges = document.getElementsByTagName('g');
if (edges && edges.length) {
  for (var i=0;i<edges.length;i++) {
    if (edges[i].id.substr(0,4)=='edge') {
      edges[i].setAttribute('class','edge');
    }
  }
}
]]></script>
        <defs>
                <circle id="rim" cx="0" cy="0" r="7"/>
                <circle id="rim2" cx="0" cy="0" r="3.5"/>
                <g id="zoomPlus">
                        <use xlink:href="#rim" fill="#404040">
                                <set attributeName="fill" to="#808080" begin="zoomplus.mouseover" end="zoomplus.mouseout"/>
                        </use>
                        <path d="M-4,0h8M0,-4v8" fill="none" stroke="white" stroke-width="1.5" pointer-events="none"/>
                </g>
                <g id="zoomMin">
                        <use xlink:href="#rim" fill="#404040">
                                <set attributeName="fill" to="#808080" begin="zoomminus.mouseover" end="zoomminus.mouseout"/>
                        </use>
                        <path d="M-4,0h8" fill="none" stroke="white" stroke-width="1.5" pointer-events="none"/>
                </g>
                <g id="dirArrow">
                        <path fill="none" stroke="white" stroke-width="1.5" d="M0,-3.0v7 M-2.5,-0.5L0,-3.0L2.5,-0.5"/>
                </g>
               <g id="resetDef">
                       <use xlink:href="#rim2" fill="#404040">
                               <set attributeName="fill" to="#808080" begin="reset.mouseover" end="reset.mouseout"/>
                       </use>
               </g>
        </defs>

<script type="text/javascript">
var viewWidth = 667;
var viewHeight = 85;
var sectionId = 'dynsection-8';
</script>
<script xlink:href="svgpan.js"/>
<svg id="graph" class="graph">
<g id="viewport">
<title>_cf_data_find_next</title>
<!-- Node60 -->
<g id="node1" class="node">
<title>Node60</title>
<polygon fill="#bfbfbf" stroke="#000000" points="0,-38.5 0,-57.5 99,-57.5 99,-38.5 0,-38.5"/>
<text text-anchor="middle" x="49.5" y="-45.5" font-family="Helvetica,sans-Serif" font-size="10.00" fill="#000000">_cf_data_find_next</text>
</g>
<!-- Node61 -->
<g id="node2" class="node">
<title>Node61</title>
<g id="a_node2"><a xlink:href="virtual__servers_8h.html#a45cfa616c5b6cce8d8bf36f0c0f7d10b" target="_top" xlink:title="virtual_server_get\l_process_by_name">
<polygon fill="none" stroke="#000000" points="135,-33 135,-63 236,-63 236,-33 135,-33"/>
<text text-anchor="start" x="143" y="-51" font-family="Helvetica,sans-Serif" font-size="10.00" fill="#000000">virtual_server_get</text>
<text text-anchor="middle" x="185.5" y="-40" font-family="Helvetica,sans-Serif" font-size="10.00" fill="#000000">_process_by_name</text>
</a>
</g>
</g>
<!-- Node60&#45;&gt;Node61 -->
<g id="edge1" class="edge">
<title>Node60&#45;&gt;Node61</title>
<path fill="none" stroke="#191970" d="M109.5143,-48C117.9277,-48 126.5064,-48 134.7257,-48"/>
<polygon fill="#191970" stroke="#191970" points="109.3692,-44.5001 99.3691,-48 109.3691,-51.5001 109.3692,-44.5001"/>
</g>
<!-- Node62 -->
<g id="node3" class="node">
<title>Node62</title>
<g id="a_node3"><a xlink:href="unit__test__module_8c.html#a91c8e06c3a0ffa0b9c8e968efea994bc" target="_top" xlink:title="request_run">
<polygon fill="none" stroke="#000000" points="294.5,-57.5 294.5,-76.5 362.5,-76.5 362.5,-57.5 294.5,-57.5"/>
<text text-anchor="middle" x="328.5" y="-64.5" font-family="Helvetica,sans-Serif" font-size="10.00" fill="#000000">request_run</text>
</a>
</g>
</g>
<!-- Node61&#45;&gt;Node62 -->
<g id="edge2" class="edge">
<title>Node61&#45;&gt;Node62</title>
<path fill="none" stroke="#191970" d="M246.4158,-56.0937C262.8412,-58.2761 280.0287,-60.5598 294.4069,-62.4702"/>
<polygon fill="#191970" stroke="#191970" points="246.693,-52.5999 236.3191,-54.7522 245.771,-59.5389 246.693,-52.5999"/>
</g>
<!-- Node64 -->
<g id="node5" class="node">
<title>Node64</title>
<g id="a_node5"><a xlink:href="call_8c.html#a92568bf8b8795615bfed590d95ab15d2" target="_top" xlink:title="unlang_call_frame_init">
<polygon fill="none" stroke="#000000" points="272,-19.5 272,-38.5 385,-38.5 385,-19.5 272,-19.5"/>
<text text-anchor="middle" x="328.5" y="-26.5" font-family="Helvetica,sans-Serif" font-size="10.00" fill="#000000">unlang_call_frame_init</text>
</a>
</g>
</g>
<!-- Node61&#45;&gt;Node64 -->
<g id="edge4" class="edge">
<title>Node61&#45;&gt;Node64</title>
<path fill="none" stroke="#191970" d="M246.3655,-39.913C254.7078,-38.8046 263.2477,-37.6699 271.5171,-36.5712"/>
<polygon fill="#191970" stroke="#191970" points="245.771,-36.4611 236.3191,-41.2478 246.693,-43.4001 245.771,-36.4611"/>
</g>
<!-- Node63 -->
<g id="node4" class="node">
<title>Node63</title>
<g id="a_node4"><a xlink:href="unit__test__module_8c.html#a0ddf1224851353fc92bfbff6f499fa97" target="_top" xlink:title="main">
<polygon fill="none" stroke="#000000" points="443.5,-57.5 443.5,-76.5 481.5,-76.5 481.5,-57.5 443.5,-57.5"/>
<text text-anchor="middle" x="462.5" y="-64.5" font-family="Helvetica,sans-Serif" font-size="10.00" fill="#000000">main</text>
</a>
</g>
</g>
<!-- Node62&#45;&gt;Node63 -->
<g id="edge3" class="edge">
<title>Node62&#45;&gt;Node63</title>
<path fill="none" stroke="#191970" d="M372.9331,-67C396.8175,-67 425.034,-67 443.3222,-67"/>
<polygon fill="#191970" stroke="#191970" points="372.6606,-63.5001 362.6606,-67 372.6605,-70.5001 372.6606,-63.5001"/>
</g>
<!-- Node65 -->
<g id="node6" class="node">
<title>Node65</title>
<g id="a_node6"><a xlink:href="unlang__priv_8h.html#a49588eeff94b32b52512db36db55b59b" target="_top" xlink:title="unlang_call_init">
<polygon fill="none" stroke="#000000" points="421,-19.5 421,-38.5 504,-38.5 504,-19.5 421,-19.5"/>
<text text-anchor="middle" x="462.5" y="-26.5" font-family="Helvetica,sans-Serif" font-size="10.00" fill="#000000">unlang_call_init</text>
</a>
</g>
</g>
<!-- Node64&#45;&gt;Node65 -->
<g id="edge5" class="edge">
<title>Node64&#45;&gt;Node65</title>
<path fill="none" stroke="#191970" d="M395.388,-29C403.9874,-29 412.5893,-29 420.627,-29"/>
<polygon fill="#191970" stroke="#191970" points="395.3281,-25.5001 385.3281,-29 395.328,-32.5001 395.3281,-25.5001"/>
</g>
<!-- Node66 -->
<g id="node7" class="node">
<title>Node66</title>
<g id="a_node7"><a xlink:href="unlang_2base_8h.html#aad13fe29457de363df11f5dda2fbde89" target="_top" xlink:title="Initialize the unlang compiler / interpreter. ">
<polygon fill="none" stroke="#ff0000" points="568,-38.5 568,-57.5 631,-57.5 631,-38.5 568,-38.5"/>
<text text-anchor="middle" x="599.5" y="-45.5" font-family="Helvetica,sans-Serif" font-size="10.00" fill="#000000">unlang_init</text>
</a>
</g>
</g>
<!-- Node65&#45;&gt;Node66 -->
<g id="edge6" class="edge">
<title>Node65&#45;&gt;Node66</title>
<path fill="none" stroke="#191970" d="M514.4308,-36.2021C532.4285,-38.6981 552.0497,-41.4193 567.9082,-43.6187"/>
<polygon fill="#191970" stroke="#191970" points="514.735,-32.7108 504.3489,-34.8039 513.7733,-39.6445 514.735,-32.7108"/>
</g>
<!-- Node68 -->
<g id="node8" class="node">
<title>Node68</title>
<g id="a_node8"><a xlink:href="unlang__priv_8h.html#a5fd8144991b05a0cde9a3f8b9447c82c" target="_top" xlink:title="unlang_tmpl_to_generic">
<polygon fill="none" stroke="#ff0000" points="540,-.5 540,-19.5 659,-19.5 659,-.5 540,-.5"/>
<text text-anchor="middle" x="599.5" y="-7.5" font-family="Helvetica,sans-Serif" font-size="10.00" fill="#000000">unlang_tmpl_to_generic</text>
</a>
</g>
</g>
<!-- Node65&#45;&gt;Node68 -->
<g id="edge7" class="edge">
<title>Node65&#45;&gt;Node68</title>
<path fill="none" stroke="#191970" d="M514.2841,-21.8183C522.6008,-20.6649 531.2676,-19.4629 539.7523,-18.2862"/>
<polygon fill="#191970" stroke="#191970" points="513.7733,-18.3555 504.3489,-23.1961 514.735,-25.2892 513.7733,-18.3555"/>
</g>
</g>
</svg>
        <g id="navigator" transform="translate(0 0)" fill="#404254">
                <rect fill="#f2f5e9" fill-opacity="0.5" stroke="#606060" stroke-width=".5" x="0" y="0" width="60" height="60"/>
                <use id="zoomplus" xlink:href="#zoomPlus" x="17" y="9" onmousedown="handleZoom(evt,'in')"/>
                <use id="zoomminus" xlink:href="#zoomMin" x="42" y="9" onmousedown="handleZoom(evt,'out')"/>
                <use id="reset" xlink:href="#resetDef" x="30" y="36" onmousedown="handleReset()"/>
                <g id="arrowUp" xlink:href="#dirArrow" transform="translate(30 24)" onmousedown="handlePan(0,-1)">
                  <use xlink:href="#rim" fill="#404040">
                        <set attributeName="fill" to="#808080" begin="arrowUp.mouseover" end="arrowUp.mouseout"/>
                  </use>
                  <path fill="none" stroke="white" stroke-width="1.5" d="M0,-3.0v7 M-2.5,-0.5L0,-3.0L2.5,-0.5"/>
                </g>
                <g id="arrowRight" xlink:href="#dirArrow" transform="rotate(90) translate(36 -43)" onmousedown="handlePan(1,0)">
                  <use xlink:href="#rim" fill="#404040">
                        <set attributeName="fill" to="#808080" begin="arrowRight.mouseover" end="arrowRight.mouseout"/>
                  </use>
                  <path fill="none" stroke="white" stroke-width="1.5" d="M0,-3.0v7 M-2.5,-0.5L0,-3.0L2.5,-0.5"/>
                </g>
                <g id="arrowDown" xlink:href="#dirArrow" transform="rotate(180) translate(-30 -48)" onmousedown="handlePan(0,1)">
                  <use xlink:href="#rim" fill="#404040">
                        <set attributeName="fill" to="#808080" begin="arrowDown.mouseover" end="arrowDown.mouseout"/>
                  </use>
                  <path fill="none" stroke="white" stroke-width="1.5" d="M0,-3.0v7 M-2.5,-0.5L0,-3.0L2.5,-0.5"/>
                </g>
                <g id="arrowLeft" xlink:href="#dirArrow" transform="rotate(270) translate(-36 17)" onmousedown="handlePan(-1,0)">
                  <use xlink:href="#rim" fill="#404040">
                        <set attributeName="fill" to="#808080" begin="arrowLeft.mouseover" end="arrowLeft.mouseout"/>
                  </use>
                  <path fill="none" stroke="white" stroke-width="1.5" d="M0,-3.0v7 M-2.5,-0.5L0,-3.0L2.5,-0.5"/>
                </g>
        </g>
        <svg viewBox="0 0 15 15" width="100%" height="30px" preserveAspectRatio="xMaxYMin meet">
         <g id="arrow_out" transform="scale(0.3 0.3)">
          <a xlink:href="cf__util_8h_a80780739da645e32388e85d6df5d6fe4_icgraph_org.svg" target="_base">
           <rect id="button" ry="5" rx="5" y="6" x="6" height="38" width="38"
                fill="#f2f5e9" fill-opacity="0.5" stroke="#606060" stroke-width="1.0"/>
           <path id="arrow"
             d="M 11.500037,31.436501 C 11.940474,20.09759 22.043105,11.32322 32.158766,21.979434 L 37.068811,17.246167 C 37.068811,17.246167 37.088388,32 37.088388,32 L 22.160133,31.978069 C 22.160133,31.978069 26.997745,27.140456 26.997745,27.140456 C 18.528582,18.264221 13.291696,25.230495 11.500037,31.436501 z"
             style="fill:#404040;"/>
          </a>
         </g>
        </svg>
</svg>
