<?xml version="1.0" encoding="UTF-8" standalone="no"?>
<!DOCTYPE svg PUBLIC "-//W3C//DTD SVG 1.1//EN"
 "http://www.w3.org/Graphics/SVG/1.1/DTD/svg11.dtd">
<!-- Generated by graphviz version 2.40.1 (20161225.0304)
 -->
<!-- Title: cf_section_parse Pages: 1 -->
<svg width="870pt" height="938pt"
 viewBox="0.00 0.00 870.00 938.00" xmlns="http://www.w3.org/2000/svg" xmlns:xlink="http://www.w3.org/1999/xlink">
<g id="graph0" class="graph" transform="scale(1 1) rotate(0) translate(4 934)">
<title>cf_section_parse</title>
<!-- Node721 -->
<g id="node1" class="node">
<title>Node721</title>
<polygon fill="#bfbfbf" stroke="#000000" points="0,-449.5 0,-468.5 91,-468.5 91,-449.5 0,-449.5"/>
<text text-anchor="middle" x="45.5" y="-456.5" font-family="Helvetica,sans-Serif" font-size="10.00" fill="#000000">cf_section_parse</text>
</g>
<!-- Node722 -->
<g id="node2" class="node">
<title>Node722</title>
<g id="a_node2"><a xlink:href="radwho_8c.html#a3c04138a5bfe5d72780bb7e82a18e627" target="_top" xlink:title="main">
<polygon fill="none" stroke="#000000" points="170.5,-784.5 170.5,-803.5 208.5,-803.5 208.5,-784.5 170.5,-784.5"/>
<text text-anchor="middle" x="189.5" y="-791.5" font-family="Helvetica,sans-Serif" font-size="10.00" fill="#000000">main</text>
</a>
</g>
</g>
<!-- Node721&#45;&gt;Node722 -->
<g id="edge1" class="edge">
<title>Node721&#45;&gt;Node722</title>
<path fill="none" stroke="#191970" d="M48.0652,-478.8629C56.4941,-541.1973 85.2099,-731.3857 127,-775 138.2201,-786.7099 156.4069,-791.2661 170.2764,-793.0069"/>
<polygon fill="#191970" stroke="#191970" points="51.512,-478.2295 46.7289,-468.7758 44.5726,-479.1489 51.512,-478.2295"/>
</g>
<!-- Node723 -->
<g id="node3" class="node">
<title>Node723</title>
<g id="a_node3"><a xlink:href="cf__parse_8c.html#a6ba54800a78f6f03791f0fa27632a158" target="_top" xlink:title="Parse a subsection. ">
<polygon fill="none" stroke="#000000" points="136,-746.5 136,-765.5 243,-765.5 243,-746.5 136,-746.5"/>
<text text-anchor="middle" x="189.5" y="-753.5" font-family="Helvetica,sans-Serif" font-size="10.00" fill="#000000">cf_subsection_parse</text>
</a>
</g>
</g>
<!-- Node721&#45;&gt;Node723 -->
<g id="edge2" class="edge">
<title>Node721&#45;&gt;Node723</title>
<path fill="none" stroke="#191970" d="M49.5414,-478.6746C60.1815,-534.5983 90.6662,-691.303 127,-728 137.2933,-738.3962 153.083,-743.1395 166.216,-746.4387"/>
<polygon fill="#191970" stroke="#191970" points="52.9365,-477.7932 47.6294,-468.6235 46.0599,-479.1014 52.9365,-477.7932"/>
</g>
<!-- Node724 -->
<g id="node4" class="node">
<title>Node724</title>
<g id="a_node4"><a xlink:href="client_8h.html#ac0cee507d112a71911836e1813a26c43" target="_top" xlink:title="Allocate a new client from a config section. ">
<polygon fill="none" stroke="#000000" points="146.5,-708.5 146.5,-727.5 232.5,-727.5 232.5,-708.5 146.5,-708.5"/>
<text text-anchor="middle" x="189.5" y="-715.5" font-family="Helvetica,sans-Serif" font-size="10.00" fill="#000000">client_afrom_cs</text>
</a>
</g>
</g>
<!-- Node721&#45;&gt;Node724 -->
<g id="edge4" class="edge">
<title>Node721&#45;&gt;Node724</title>
<path fill="none" stroke="#191970" d="M50.7912,-478.6434C61.3288,-515.5731 87.3872,-596.9446 127,-656 141.2185,-677.1971 163.4833,-697.1229 177.2458,-708.4155"/>
<polygon fill="#191970" stroke="#191970" points="54.0727,-477.3798 48.0214,-468.6832 47.3286,-479.2553 54.0727,-477.3798"/>
</g>
<!-- Node728 -->
<g id="node8" class="node">
<title>Node728</title>
<g id="a_node8"><a xlink:href="main__config_8h.html#aa757a9e40c7f3156ec9315e8b0309d42" target="_top" xlink:title="main_config_init">
<polygon fill="none" stroke="#000000" points="483.5,-613.5 483.5,-632.5 570.5,-632.5 570.5,-613.5 483.5,-613.5"/>
<text text-anchor="middle" x="527" y="-620.5" font-family="Helvetica,sans-Serif" font-size="10.00" fill="#000000">main_config_init</text>
</a>
</g>
</g>
<!-- Node721&#45;&gt;Node728 -->
<g id="edge36" class="edge">
<title>Node721&#45;&gt;Node728</title>
<path fill="none" stroke="#191970" d="M55.8629,-477.5234C69.4089,-500.1177 95.1962,-538.0108 127,-560 237.1567,-636.1625 404.8674,-633.8597 483.4767,-627.6954"/>
<polygon fill="#191970" stroke="#191970" points="58.726,-475.4843 50.6736,-468.5989 52.6747,-479.003 58.726,-475.4843"/>
</g>
<!-- Node740 -->
<g id="node20" class="node">
<title>Node740</title>
<g id="a_node20"><a xlink:href="dl__module_8h.html#aa1bd4828b535a4b5b1c526ebf81875c5" target="_top" xlink:title="Load a module and parse its CONF_SECTION in one operation. ">
<polygon fill="none" stroke="#000000" points="138,-449.5 138,-468.5 241,-468.5 241,-449.5 138,-449.5"/>
<text text-anchor="middle" x="189.5" y="-456.5" font-family="Helvetica,sans-Serif" font-size="10.00" fill="#000000">dl_module_instance</text>
</a>
</g>
</g>
<!-- Node721&#45;&gt;Node740 -->
<g id="edge20" class="edge">
<title>Node721&#45;&gt;Node740</title>
<path fill="none" stroke="#191970" d="M101.0695,-459C113.2056,-459 125.9996,-459 137.9702,-459"/>
<polygon fill="#191970" stroke="#191970" points="101.0625,-455.5001 91.0625,-459 101.0625,-462.5001 101.0625,-455.5001"/>
</g>
<!-- Node753 -->
<g id="node33" class="node">
<title>Node753</title>
<g id="a_node33"><a xlink:href="group__xlat__functions.html#gab5cc1284985bffdfb210a923ab9ac655" target="_top" xlink:title="xlat to get config values ">
<polygon fill="none" stroke="#000000" points="157.5,-531.5 157.5,-550.5 221.5,-550.5 221.5,-531.5 157.5,-531.5"/>
<text text-anchor="middle" x="189.5" y="-538.5" font-family="Helvetica,sans-Serif" font-size="10.00" fill="#000000">xlat_config</text>
</a>
</g>
</g>
<!-- Node721&#45;&gt;Node753 -->
<g id="edge34" class="edge">
<title>Node721&#45;&gt;Node753</title>
<path fill="none" stroke="#191970" d="M71.1606,-473.6123C100.5446,-490.3448 147.8325,-517.2727 172.8066,-531.494"/>
<polygon fill="#191970" stroke="#191970" points="72.7223,-470.4739 62.3005,-468.5669 69.2584,-476.5568 72.7223,-470.4739"/>
</g>
<!-- Node754 -->
<g id="node34" class="node">
<title>Node754</title>
<g id="a_node34"><a xlink:href="pool_8h.html#ad534d61895e650a46ed2078e0dc6714a" target="_top" xlink:title="Create a new connection pool. ">
<polygon fill="none" stroke="#000000" points="157.5,-190.5 157.5,-209.5 221.5,-209.5 221.5,-190.5 157.5,-190.5"/>
<text text-anchor="middle" x="189.5" y="-197.5" font-family="Helvetica,sans-Serif" font-size="10.00" fill="#000000">fr_pool_init</text>
</a>
</g>
</g>
<!-- Node721&#45;&gt;Node754 -->
<g id="edge37" class="edge">
<title>Node721&#45;&gt;Node754</title>
<path fill="none" stroke="#191970" d="M55.828,-440.3326C71.2829,-412.4076 101.3548,-358.1055 127,-312 148.1065,-274.0542 173.322,-228.9323 184.1404,-209.5834"/>
<polygon fill="#191970" stroke="#191970" points="52.6102,-438.919 50.8307,-449.3634 58.735,-442.3083 52.6102,-438.919"/>
</g>
<!-- Node787 -->
<g id="node39" class="node">
<title>Node787</title>
<g id="a_node39"><a xlink:href="rlm__cache__redis_8c.html#a3c32864d8c9d017bf4625d54f415b2db" target="_top" xlink:title="Create a new rlm_cache_redis instance. ">
<polygon fill="none" stroke="#000000" points="776,-209.5 776,-228.5 862,-228.5 862,-209.5 776,-209.5"/>
<text text-anchor="middle" x="819" y="-216.5" font-family="Helvetica,sans-Serif" font-size="10.00" fill="#000000">mod_instantiate</text>
</a>
</g>
</g>
<!-- Node721&#45;&gt;Node787 -->
<g id="edge53" class="edge">
<title>Node721&#45;&gt;Node787</title>
<path fill="none" stroke="#191970" d="M65.906,-443.4625C114.0985,-408.367 239.8913,-326 359,-326 359,-326 359,-326 527,-326 639.5709,-326 762.4678,-255.0233 804.1986,-228.6843"/>
<polygon fill="#191970" stroke="#191970" points="63.7889,-440.675 57.8295,-449.435 67.951,-446.3033 63.7889,-440.675"/>
</g>
<!-- Node788 -->
<g id="node40" class="node">
<title>Node788</title>
<g id="a_node40"><a xlink:href="rlm__redis__ippool__tool_8c.html#a9b10f4ca60bfe0214a04105f59fcde64" target="_top" xlink:title="Driver initialization function. ">
<polygon fill="none" stroke="#ff0000" points="789.5,-133.5 789.5,-152.5 848.5,-152.5 848.5,-133.5 789.5,-133.5"/>
<text text-anchor="middle" x="819" y="-140.5" font-family="Helvetica,sans-Serif" font-size="10.00" fill="#000000">driver_init</text>
</a>
</g>
</g>
<!-- Node721&#45;&gt;Node788 -->
<g id="edge56" class="edge">
<title>Node721&#45;&gt;Node788</title>
<path fill="none" stroke="#191970" d="M49.1195,-439.2101C59.8138,-382.5402 92.6733,-221.1419 127,-181 178.4257,-120.8624 210.7888,-122.308 288,-105 475.3596,-63.0006 708.3266,-114.1939 789.4886,-134.9833"/>
<polygon fill="#191970" stroke="#191970" points="45.6198,-438.886 47.2316,-449.3575 52.5017,-440.1665 45.6198,-438.886"/>
</g>
<!-- Node796 -->
<g id="node47" class="node">
<title>Node796</title>
<g id="a_node47"><a xlink:href="virtual__servers_8c.html#ad3f24b700499c7e64da158669acbdf9c" target="_top" xlink:title="Callback to validate the server section. ">
<polygon fill="none" stroke="#000000" points="153,-76.5 153,-95.5 226,-95.5 226,-76.5 153,-76.5"/>
<text text-anchor="middle" x="189.5" y="-83.5" font-family="Helvetica,sans-Serif" font-size="10.00" fill="#000000">server_parse</text>
</a>
</g>
</g>
<!-- Node721&#45;&gt;Node796 -->
<g id="edge51" class="edge">
<title>Node721&#45;&gt;Node796</title>
<path fill="none" stroke="#191970" d="M47.7112,-438.972C55.4176,-372.4848 83.04,-160.4477 127,-110 133.7197,-102.2886 143.2049,-97.0428 152.7602,-93.4788"/>
<polygon fill="#191970" stroke="#191970" points="44.1883,-438.9767 46.5393,-449.3074 51.1438,-439.7654 44.1883,-438.9767"/>
</g>
<!-- Node797 -->
<g id="node48" class="node">
<title>Node797</title>
<g id="a_node48"><a xlink:href="proto__ldap__sync_8c.html#a8d3763cec30fc43e1b0b6c48ea872966" target="_top" xlink:title="Parse socket configuration. ">
<polygon fill="none" stroke="#000000" points="127,-38.5 127,-57.5 252,-57.5 252,-38.5 127,-38.5"/>
<text text-anchor="middle" x="189.5" y="-45.5" font-family="Helvetica,sans-Serif" font-size="10.00" fill="#000000">proto_ldap_socket_parse</text>
</a>
</g>
</g>
<!-- Node721&#45;&gt;Node797 -->
<g id="edge52" class="edge">
<title>Node721&#45;&gt;Node797</title>
<path fill="none" stroke="#191970" d="M47.024,-438.7532C52.8554,-366.5153 76.0341,-122.7799 127,-67 130.5189,-63.1487 134.7912,-60.068 139.4325,-57.6053"/>
<polygon fill="#191970" stroke="#191970" points="43.5004,-438.9186 46.2096,-449.1612 50.4791,-439.4647 43.5004,-438.9186"/>
</g>
<!-- Node798 -->
<g id="node49" class="node">
<title>Node798</title>
<g id="a_node49"><a xlink:href="rlm__ldap_8c.html#ab8ce302197d1065a5f1efcac21e97783" target="_top" xlink:title="Parse an accounting sub section. ">
<polygon fill="none" stroke="#000000" points="140.5,-.5 140.5,-19.5 238.5,-19.5 238.5,-.5 140.5,-.5"/>
<text text-anchor="middle" x="189.5" y="-7.5" font-family="Helvetica,sans-Serif" font-size="10.00" fill="#000000">parse_sub_section</text>
</a>
</g>
</g>
<!-- Node721&#45;&gt;Node798 -->
<g id="edge54" class="edge">
<title>Node721&#45;&gt;Node798</title>
<path fill="none" stroke="#191970" d="M46.587,-439.2828C51.159,-363.3667 71.2409,-91.1194 127,-29 130.712,-24.8645 135.2928,-21.6161 140.2738,-19.0666"/>
<polygon fill="#191970" stroke="#191970" points="43.0871,-439.1813 46.0028,-449.367 50.0754,-439.5862 43.0871,-439.1813"/>
</g>
<!-- Node723&#45;&gt;Node721 -->
<g id="edge3" class="edge">
<title>Node723&#45;&gt;Node721</title>
<path fill="none" stroke="#191970" d="M127.75,-746.7383C127.4969,-746.4954 127.2469,-746.2493 127,-746 86.3937,-704.9878 53.093,-514.085 46.6338,-468.5172"/>
<polygon fill="#191970" stroke="#191970" points="125.7658,-749.6266 135.8421,-752.9006 130.0068,-744.0575 125.7658,-749.6266"/>
</g>
<!-- Node725 -->
<g id="node5" class="node">
<title>Node725</title>
<g id="a_node5"><a xlink:href="unit__test__module_8c.html#a76c3cc6b848d95b610d0bf8353933f47" target="_top" xlink:title="client_alloc">
<polygon fill="none" stroke="#000000" points="326.5,-910.5 326.5,-929.5 391.5,-929.5 391.5,-910.5 326.5,-910.5"/>
<text text-anchor="middle" x="359" y="-917.5" font-family="Helvetica,sans-Serif" font-size="10.00" fill="#000000">client_alloc</text>
</a>
</g>
</g>
<!-- Node724&#45;&gt;Node725 -->
<g id="edge5" class="edge">
<title>Node724&#45;&gt;Node725</title>
<path fill="none" stroke="#191970" d="M241.8416,-728.9387C245.5968,-731.1556 249.0562,-733.8138 252,-737 302.6414,-791.8109 236.4438,-847.0487 288,-901 297.8736,-911.3322 312.6976,-916.2605 326.2506,-918.5356"/>
<polygon fill="#191970" stroke="#191970" points="243.176,-725.697 232.6461,-724.526 240.1475,-732.0079 243.176,-725.697"/>
</g>
<!-- Node727 -->
<g id="node7" class="node">
<title>Node727</title>
<g id="a_node7"><a xlink:href="src_2lib_2server_2client_8c.html#a169200332022062d98a8521fc281dd43" target="_top" xlink:title="client_list_parse_section">
<polygon fill="none" stroke="#000000" points="297,-670.5 297,-689.5 421,-689.5 421,-670.5 297,-670.5"/>
<text text-anchor="middle" x="359" y="-677.5" font-family="Helvetica,sans-Serif" font-size="10.00" fill="#000000">client_list_parse_section</text>
</a>
</g>
</g>
<!-- Node724&#45;&gt;Node727 -->
<g id="edge7" class="edge">
<title>Node724&#45;&gt;Node727</title>
<path fill="none" stroke="#191970" d="M242.2425,-706.1757C266.139,-700.8184 294.0152,-694.5689 316.5356,-689.5201"/>
<polygon fill="#191970" stroke="#191970" points="241.2641,-702.8081 232.272,-708.411 242.7955,-709.6386 241.2641,-702.8081"/>
</g>
<!-- Node731 -->
<g id="node11" class="node">
<title>Node731</title>
<g id="a_node11"><a xlink:href="client_8h.html#a6ff2181427e30365c8bffaa7bcd13e69" target="_top" xlink:title="Create a new client, consuming all attributes in the control list of the request. ...">
<polygon fill="none" stroke="#000000" points="305.5,-834.5 305.5,-853.5 412.5,-853.5 412.5,-834.5 305.5,-834.5"/>
<text text-anchor="middle" x="359" y="-841.5" font-family="Helvetica,sans-Serif" font-size="10.00" fill="#000000">client_afrom_request</text>
</a>
</g>
</g>
<!-- Node724&#45;&gt;Node731 -->
<g id="edge11" class="edge">
<title>Node724&#45;&gt;Node731</title>
<path fill="none" stroke="#191970" d="M241.9242,-729.8714C245.5586,-731.8866 248.9738,-734.2435 252,-737 283.2399,-765.4561 256.2859,-797.0734 288,-825 293.0755,-829.4694 299.0927,-832.9025 305.444,-835.537"/>
<polygon fill="#191970" stroke="#191970" points="243.081,-726.5504 232.5351,-725.5331 240.1448,-732.9048 243.081,-726.5504"/>
</g>
<!-- Node733 -->
<g id="node13" class="node">
<title>Node733</title>
<g id="a_node13"><a xlink:href="client_8h.html#a2ef2ad3efe46e8200f153bcfae70034e" target="_top" xlink:title="Read a single client from a file. ">
<polygon fill="none" stroke="#000000" points="327,-796.5 327,-815.5 391,-815.5 391,-796.5 327,-796.5"/>
<text text-anchor="middle" x="359" y="-803.5" font-family="Helvetica,sans-Serif" font-size="10.00" fill="#000000">client_read</text>
</a>
</g>
</g>
<!-- Node724&#45;&gt;Node733 -->
<g id="edge13" class="edge">
<title>Node724&#45;&gt;Node733</title>
<path fill="none" stroke="#191970" d="M242.0764,-731.1046C245.5647,-732.836 248.9129,-734.7916 252,-737 274.2713,-752.9316 265.4638,-771.4453 288,-787 299.4467,-794.9006 314.0174,-799.5179 326.9766,-802.2155"/>
<polygon fill="#191970" stroke="#191970" points="243.1681,-727.7641 232.599,-727.0263 240.4011,-734.1941 243.1681,-727.7641"/>
</g>
<!-- Node735 -->
<g id="node15" class="node">
<title>Node735</title>
<g id="a_node15"><a xlink:href="proto__ldap__sync_8c.html#a94c0681adc5bd09eb59b9751894307b5" target="_top" xlink:title="Allocate a fake client representing the LDAP connection. ">
<polygon fill="none" stroke="#000000" points="302,-747 302,-777 416,-777 416,-747 302,-747"/>
<text text-anchor="start" x="310" y="-765" font-family="Helvetica,sans-Serif" font-size="10.00" fill="#000000">proto_ldap_fake_client</text>
<text text-anchor="middle" x="359" y="-754" font-family="Helvetica,sans-Serif" font-size="10.00" fill="#000000">_alloc</text>
</a>
</g>
</g>
<!-- Node724&#45;&gt;Node735 -->
<g id="edge15" class="edge">
<title>Node724&#45;&gt;Node735</title>
<path fill="none" stroke="#191970" d="M235.9602,-730.0605C256.3513,-735.3537 280.4867,-741.619 301.9565,-747.1922"/>
<polygon fill="#191970" stroke="#191970" points="236.8376,-726.6723 226.279,-727.5473 235.0787,-733.4477 236.8376,-726.6723"/>
</g>
<!-- Node737 -->
<g id="node17" class="node">
<title>Node737</title>
<g id="a_node17"><a xlink:href="mod_8h.html#a73e0ca7d9f8ac3c934b4538a8adc9b63" target="_top" xlink:title="Load client entries from Couchbase client documents on startup. ">
<polygon fill="none" stroke="#000000" points="289,-708.5 289,-727.5 429,-727.5 429,-708.5 289,-708.5"/>
<text text-anchor="middle" x="359" y="-715.5" font-family="Helvetica,sans-Serif" font-size="10.00" fill="#000000">mod_load_client_documents</text>
</a>
</g>
</g>
<!-- Node724&#45;&gt;Node737 -->
<g id="edge17" class="edge">
<title>Node724&#45;&gt;Node737</title>
<path fill="none" stroke="#191970" d="M243.0224,-718C257.5713,-718 273.5476,-718 288.8669,-718"/>
<polygon fill="#191970" stroke="#191970" points="242.7106,-714.5001 232.7106,-718 242.7105,-721.5001 242.7106,-714.5001"/>
</g>
<!-- Node739 -->
<g id="node19" class="node">
<title>Node739</title>
<g id="a_node19"><a xlink:href="clients_8c.html#af171e960fd913f486e424091ff5ead04" target="_top" xlink:title="Load clients from LDAP on server start. ">
<polygon fill="none" stroke="#000000" points="306.5,-872.5 306.5,-891.5 411.5,-891.5 411.5,-872.5 306.5,-872.5"/>
<text text-anchor="middle" x="359" y="-879.5" font-family="Helvetica,sans-Serif" font-size="10.00" fill="#000000">rlm_ldap_client_load</text>
</a>
</g>
</g>
<!-- Node724&#45;&gt;Node739 -->
<g id="edge19" class="edge">
<title>Node724&#45;&gt;Node739</title>
<path fill="none" stroke="#191970" d="M241.7971,-729.2369C245.5343,-731.3904 249.0033,-733.9524 252,-737 292.8347,-778.5275 246.4726,-822.1653 288,-863 293.1861,-868.0995 299.5826,-871.8701 306.3934,-874.6508"/>
<polygon fill="#191970" stroke="#191970" points="243.2216,-726.0389 232.6862,-724.9176 240.2229,-732.3641 243.2216,-726.0389"/>
</g>
<!-- Node726 -->
<g id="node6" class="node">
<title>Node726</title>
<g id="a_node6"><a xlink:href="unit__test__module_8c.html#a0ddf1224851353fc92bfbff6f499fa97" target="_top" xlink:title="main">
<polygon fill="none" stroke="#000000" points="508,-910.5 508,-929.5 546,-929.5 546,-910.5 508,-910.5"/>
<text text-anchor="middle" x="527" y="-917.5" font-family="Helvetica,sans-Serif" font-size="10.00" fill="#000000">main</text>
</a>
</g>
</g>
<!-- Node725&#45;&gt;Node726 -->
<g id="edge6" class="edge">
<title>Node725&#45;&gt;Node726</title>
<path fill="none" stroke="#191970" d="M401.9703,-920C436.1279,-920 482.2839,-920 507.8854,-920"/>
<polygon fill="#191970" stroke="#191970" points="401.7909,-916.5001 391.7909,-920 401.7909,-923.5001 401.7909,-916.5001"/>
</g>
<!-- Node727&#45;&gt;Node728 -->
<g id="edge8" class="edge">
<title>Node727&#45;&gt;Node728</title>
<path fill="none" stroke="#191970" d="M396.8536,-667.2197C407.5704,-663.5973 419.2449,-659.6472 430,-656 453.2473,-648.1165 479.6182,-639.1429 498.9896,-632.5454"/>
<polygon fill="#191970" stroke="#191970" points="395.688,-663.919 387.3347,-670.4362 397.9289,-670.5507 395.688,-663.919"/>
</g>
<!-- Node730 -->
<g id="node10" class="node">
<title>Node730</title>
<g id="a_node10"><a xlink:href="proto__dhcpv4__udp_8c.html#ab753523f0291415581707a027a115b73" target="_top" xlink:title="mod_bootstrap">
<polygon fill="none" stroke="#000000" points="486.5,-670.5 486.5,-689.5 567.5,-689.5 567.5,-670.5 486.5,-670.5"/>
<text text-anchor="middle" x="527" y="-677.5" font-family="Helvetica,sans-Serif" font-size="10.00" fill="#000000">mod_bootstrap</text>
</a>
</g>
</g>
<!-- Node727&#45;&gt;Node730 -->
<g id="edge10" class="edge">
<title>Node727&#45;&gt;Node730</title>
<path fill="none" stroke="#191970" d="M431.1576,-680C450.0378,-680 469.7324,-680 486.3227,-680"/>
<polygon fill="#191970" stroke="#191970" points="431.0797,-676.5001 421.0797,-680 431.0796,-683.5001 431.0797,-676.5001"/>
</g>
<!-- Node729 -->
<g id="node9" class="node">
<title>Node729</title>
<g id="a_node9"><a xlink:href="radiusd_8c.html#a0ddf1224851353fc92bfbff6f499fa97" target="_top" xlink:title="Entry point for the daemon. ">
<polygon fill="none" stroke="#000000" points="800,-523.5 800,-542.5 838,-542.5 838,-523.5 800,-523.5"/>
<text text-anchor="middle" x="819" y="-530.5" font-family="Helvetica,sans-Serif" font-size="10.00" fill="#000000">main</text>
</a>
</g>
</g>
<!-- Node728&#45;&gt;Node729 -->
<g id="edge9" class="edge">
<title>Node728&#45;&gt;Node729</title>
<path fill="none" stroke="#191970" d="M567.7196,-610.4494C631.6547,-590.7434 753.1201,-553.3054 799.9379,-538.8753"/>
<polygon fill="#191970" stroke="#191970" points="566.4981,-607.1634 557.9727,-613.4536 568.56,-613.8528 566.4981,-607.1634"/>
</g>
<!-- Node732 -->
<g id="node12" class="node">
<title>Node732</title>
<g id="a_node12"><a xlink:href="proto__dhcpv4_8c.html#a73de03e9d89143b1337647cdefb8edaf" target="_top" xlink:title="mod_encode">
<polygon fill="none" stroke="#000000" points="491,-834.5 491,-853.5 563,-853.5 563,-834.5 491,-834.5"/>
<text text-anchor="middle" x="527" y="-841.5" font-family="Helvetica,sans-Serif" font-size="10.00" fill="#000000">mod_encode</text>
</a>
</g>
</g>
<!-- Node731&#45;&gt;Node732 -->
<g id="edge12" class="edge">
<title>Node731&#45;&gt;Node732</title>
<path fill="none" stroke="#191970" d="M422.6878,-844C445.7465,-844 470.9775,-844 490.8485,-844"/>
<polygon fill="#191970" stroke="#191970" points="422.6182,-840.5001 412.6182,-844 422.6181,-847.5001 422.6182,-840.5001"/>
</g>
<!-- Node734 -->
<g id="node14" class="node">
<title>Node734</title>
<g id="a_node14"><a xlink:href="rlm__client_8c.html#aed020b8107dd3d8d25837c97d945b5d0" target="_top" xlink:title="mod_authorize">
<polygon fill="none" stroke="#000000" points="487,-796.5 487,-815.5 567,-815.5 567,-796.5 487,-796.5"/>
<text text-anchor="middle" x="527" y="-803.5" font-family="Helvetica,sans-Serif" font-size="10.00" fill="#000000">mod_authorize</text>
</a>
</g>
</g>
<!-- Node733&#45;&gt;Node734 -->
<g id="edge14" class="edge">
<title>Node733&#45;&gt;Node734</title>
<path fill="none" stroke="#191970" d="M401.4323,-806C427.6943,-806 461.2039,-806 486.9999,-806"/>
<polygon fill="#191970" stroke="#191970" points="401.3921,-802.5001 391.3921,-806 401.3921,-809.5001 401.3921,-802.5001"/>
</g>
<!-- Node736 -->
<g id="node16" class="node">
<title>Node736</title>
<g id="a_node16"><a xlink:href="proto__ldap__sync_8c.html#afe52539dfd80cb71fb50ef23094b92a8" target="_top" xlink:title="Open a handle to the LDAP directory. ">
<polygon fill="none" stroke="#000000" points="466,-752.5 466,-771.5 588,-771.5 588,-752.5 466,-752.5"/>
<text text-anchor="middle" x="527" y="-759.5" font-family="Helvetica,sans-Serif" font-size="10.00" fill="#000000">proto_ldap_socket_open</text>
</a>
</g>
</g>
<!-- Node735&#45;&gt;Node736 -->
<g id="edge16" class="edge">
<title>Node735&#45;&gt;Node736</title>
<path fill="none" stroke="#191970" d="M426.6182,-762C439.6028,-762 453.1308,-762 465.8952,-762"/>
<polygon fill="#191970" stroke="#191970" points="426.3462,-758.5001 416.3462,-762 426.3462,-765.5001 426.3462,-758.5001"/>
</g>
<!-- Node738 -->
<g id="node18" class="node">
<title>Node738</title>
<g id="a_node18"><a xlink:href="rlm__couchbase_8c.html#a3c32864d8c9d017bf4625d54f415b2db" target="_top" xlink:title="Initialize the rlm_couchbase module. ">
<polygon fill="none" stroke="#000000" points="484,-708.5 484,-727.5 570,-727.5 570,-708.5 484,-708.5"/>
<text text-anchor="middle" x="527" y="-715.5" font-family="Helvetica,sans-Serif" font-size="10.00" fill="#000000">mod_instantiate</text>
</a>
</g>
</g>
<!-- Node737&#45;&gt;Node738 -->
<g id="edge18" class="edge">
<title>Node737&#45;&gt;Node738</title>
<path fill="none" stroke="#191970" d="M439.3254,-718C454.6905,-718 470.2198,-718 483.8518,-718"/>
<polygon fill="#191970" stroke="#191970" points="439.2737,-714.5001 429.2737,-718 439.2737,-721.5001 439.2737,-714.5001"/>
</g>
<!-- Node741 -->
<g id="node21" class="node">
<title>Node741</title>
<g id="a_node21"><a xlink:href="master_8c.html#a78974fe08a590cc694792695a41e1d63" target="_top" xlink:title="Create a new connection. ">
<polygon fill="none" stroke="#000000" points="302.5,-430.5 302.5,-449.5 415.5,-449.5 415.5,-430.5 302.5,-430.5"/>
<text text-anchor="middle" x="359" y="-437.5" font-family="Helvetica,sans-Serif" font-size="10.00" fill="#000000">fr_io_connection_alloc</text>
</a>
</g>
</g>
<!-- Node740&#45;&gt;Node741 -->
<g id="edge21" class="edge">
<title>Node740&#45;&gt;Node741</title>
<path fill="none" stroke="#191970" d="M251.4299,-452.058C268.0394,-450.1962 285.9125,-448.1927 302.2275,-446.3639"/>
<polygon fill="#191970" stroke="#191970" points="250.8244,-448.6039 241.2766,-453.1961 251.6043,-455.5603 250.8244,-448.6039"/>
</g>
<!-- Node744 -->
<g id="node24" class="node">
<title>Node744</title>
<g id="a_node24"><a xlink:href="master_8c.html#ab753523f0291415581707a027a115b73" target="_top" xlink:title="mod_bootstrap">
<polygon fill="none" stroke="#000000" points="318.5,-468.5 318.5,-487.5 399.5,-487.5 399.5,-468.5 318.5,-468.5"/>
<text text-anchor="middle" x="359" y="-475.5" font-family="Helvetica,sans-Serif" font-size="10.00" fill="#000000">mod_bootstrap</text>
</a>
</g>
</g>
<!-- Node740&#45;&gt;Node744 -->
<g id="edge24" class="edge">
<title>Node740&#45;&gt;Node744</title>
<path fill="none" stroke="#191970" d="M251.3397,-465.9319C273.6458,-468.4323 298.2412,-471.1893 318.286,-473.4362"/>
<polygon fill="#191970" stroke="#191970" points="251.6043,-462.4397 241.2766,-464.8039 250.8244,-469.3961 251.6043,-462.4397"/>
</g>
<!-- Node745 -->
<g id="node25" class="node">
<title>Node745</title>
<g id="a_node25"><a xlink:href="server_2module_8h.html#aef81a1ae07b59ec483a5f06a7d6f2dff" target="_top" xlink:title="Bootstrap a module. ">
<polygon fill="none" stroke="#000000" points="312,-354.5 312,-373.5 406,-373.5 406,-354.5 312,-354.5"/>
<text text-anchor="middle" x="359" y="-361.5" font-family="Helvetica,sans-Serif" font-size="10.00" fill="#000000">module_bootstrap</text>
</a>
</g>
</g>
<!-- Node740&#45;&gt;Node745 -->
<g id="edge25" class="edge">
<title>Node740&#45;&gt;Node745</title>
<path fill="none" stroke="#191970" d="M206.595,-442.3438C225.1789,-425.1175 256.4627,-398.5985 288,-383 295.6632,-379.2098 304.1784,-376.102 312.5748,-373.5792"/>
<polygon fill="#191970" stroke="#191970" points="204.0825,-439.9025 199.2194,-449.3154 208.891,-444.9897 204.0825,-439.9025"/>
</g>
<!-- Node749 -->
<g id="node29" class="node">
<title>Node749</title>
<g id="a_node29"><a xlink:href="virtual__servers_8c.html#a694832e671ab4169538cb29558541f7f" target="_top" xlink:title="dl_open a proto_* module ">
<polygon fill="none" stroke="#000000" points="324.5,-392.5 324.5,-411.5 393.5,-411.5 393.5,-392.5 324.5,-392.5"/>
<text text-anchor="middle" x="359" y="-399.5" font-family="Helvetica,sans-Serif" font-size="10.00" fill="#000000">listen_parse</text>
</a>
</g>
</g>
<!-- Node740&#45;&gt;Node749 -->
<g id="edge30" class="edge">
<title>Node740&#45;&gt;Node749</title>
<path fill="none" stroke="#191970" d="M221.7577,-445.5542C240.8414,-437.8521 265.5898,-428.2983 288,-421 299.7689,-417.1672 312.8127,-413.5112 324.4755,-410.4481"/>
<polygon fill="#191970" stroke="#191970" points="220.2778,-442.3777 212.3369,-449.3914 222.9184,-448.8606 220.2778,-442.3777"/>
</g>
<!-- Node750 -->
<g id="node30" class="node">
<title>Node750</title>
<g id="a_node30"><a xlink:href="virtual__servers_8h.html#a5c3e66738f36881383a7429036f0f6b8" target="_top" xlink:title="fr_app_process_type\l_parse">
<polygon fill="none" stroke="#000000" points="305.5,-507 305.5,-537 412.5,-537 412.5,-507 305.5,-507"/>
<text text-anchor="start" x="313.5" y="-525" font-family="Helvetica,sans-Serif" font-size="10.00" fill="#000000">fr_app_process_type</text>
<text text-anchor="middle" x="359" y="-514" font-family="Helvetica,sans-Serif" font-size="10.00" fill="#000000">_parse</text>
</a>
</g>
</g>
<!-- Node740&#45;&gt;Node750 -->
<g id="edge31" class="edge">
<title>Node740&#45;&gt;Node750</title>
<path fill="none" stroke="#191970" d="M223.1275,-472.2568C242.1203,-479.6728 266.3269,-489.0057 288,-497 296.8277,-500.2562 306.3061,-503.6583 315.3708,-506.8667"/>
<polygon fill="#191970" stroke="#191970" points="224.2996,-468.957 213.7118,-468.5706 221.7477,-475.4753 224.2996,-468.957"/>
</g>
<!-- Node752 -->
<g id="node32" class="node">
<title>Node752</title>
<g id="a_node32"><a xlink:href="proto__control_8c.html#af0a3c13fa86e905734c8bd825cec090b" target="_top" xlink:title="Wrapper around dl_instance. ">
<polygon fill="none" stroke="#000000" points="317,-556.5 317,-575.5 401,-575.5 401,-556.5 317,-556.5"/>
<text text-anchor="middle" x="359" y="-563.5" font-family="Helvetica,sans-Serif" font-size="10.00" fill="#000000">transport_parse</text>
</a>
</g>
</g>
<!-- Node740&#45;&gt;Node752 -->
<g id="edge33" class="edge">
<title>Node740&#45;&gt;Node752</title>
<path fill="none" stroke="#191970" d="M206.355,-475.8239C229.4319,-498.5392 270.0428,-537.2988 288,-547 296.869,-551.7914 307.0255,-555.4349 316.8303,-558.1828"/>
<polygon fill="#191970" stroke="#191970" points="208.5585,-473.0804 198.9895,-468.5323 203.6337,-478.055 208.5585,-473.0804"/>
</g>
<!-- Node742 -->
<g id="node22" class="node">
<title>Node742</title>
<g id="a_node22"><a xlink:href="master_8c.html#a476d24efc125b68342506847dd091356" target="_top" xlink:title="Implement 99% of the read routines. ">
<polygon fill="none" stroke="#000000" points="497.5,-430.5 497.5,-449.5 556.5,-449.5 556.5,-430.5 497.5,-430.5"/>
<text text-anchor="middle" x="527" y="-437.5" font-family="Helvetica,sans-Serif" font-size="10.00" fill="#000000">mod_read</text>
</a>
</g>
</g>
<!-- Node741&#45;&gt;Node742 -->
<g id="edge22" class="edge">
<title>Node741&#45;&gt;Node742</title>
<path fill="none" stroke="#191970" d="M425.9312,-440C450.5948,-440 477.3081,-440 497.0739,-440"/>
<polygon fill="#191970" stroke="#191970" points="425.8772,-436.5001 415.8771,-440 425.8771,-443.5001 425.8772,-436.5001"/>
</g>
<!-- Node743 -->
<g id="node23" class="node">
<title>Node743</title>
<g id="a_node23"><a xlink:href="master_8c.html#ad8f9c4ad92dff4465dac6c5a99cee2b7" target="_top" xlink:title="mod_write">
<polygon fill="none" stroke="#000000" points="496,-468.5 496,-487.5 558,-487.5 558,-468.5 496,-468.5"/>
<text text-anchor="middle" x="527" y="-475.5" font-family="Helvetica,sans-Serif" font-size="10.00" fill="#000000">mod_write</text>
</a>
</g>
</g>
<!-- Node741&#45;&gt;Node743 -->
<g id="edge23" class="edge">
<title>Node741&#45;&gt;Node743</title>
<path fill="none" stroke="#191970" d="M411.324,-451.8352C439.0131,-458.0982 472.0823,-465.5781 495.7574,-470.9332"/>
<polygon fill="#191970" stroke="#191970" points="411.9193,-448.3815 401.3935,-449.589 410.3749,-455.209 411.9193,-448.3815"/>
</g>
<!-- Node746 -->
<g id="node26" class="node">
<title>Node746</title>
<g id="a_node26"><a xlink:href="server_2module_8h.html#ac1bf5d14e3657bad818536fed02f07bc" target="_top" xlink:title="Bootstrap modules and virtual modules. ">
<polygon fill="none" stroke="#000000" points="477.5,-354.5 477.5,-373.5 576.5,-373.5 576.5,-354.5 477.5,-354.5"/>
<text text-anchor="middle" x="527" y="-361.5" font-family="Helvetica,sans-Serif" font-size="10.00" fill="#000000">modules_bootstrap</text>
</a>
</g>
</g>
<!-- Node745&#45;&gt;Node746 -->
<g id="edge26" class="edge">
<title>Node745&#45;&gt;Node746</title>
<path fill="none" stroke="#191970" d="M416.397,-364C436.2486,-364 458.3106,-364 477.4757,-364"/>
<polygon fill="#191970" stroke="#191970" points="416.2445,-360.5001 406.2444,-364 416.2444,-367.5001 416.2445,-360.5001"/>
</g>
<!-- Node748 -->
<g id="node28" class="node">
<title>Node748</title>
<g id="a_node28"><a xlink:href="rlm__cache_8c.html#a9609ab2a4bc7986ec4f346b365737a42" target="_top" xlink:title="Register module xlats. ">
<polygon fill="none" stroke="#000000" points="486.5,-392.5 486.5,-411.5 567.5,-411.5 567.5,-392.5 486.5,-392.5"/>
<text text-anchor="middle" x="527" y="-399.5" font-family="Helvetica,sans-Serif" font-size="10.00" fill="#000000">mod_bootstrap</text>
</a>
</g>
</g>
<!-- Node745&#45;&gt;Node748 -->
<g id="edge29" class="edge">
<title>Node745&#45;&gt;Node748</title>
<path fill="none" stroke="#191970" d="M411.4688,-375.8679C435.6258,-381.332 463.8528,-387.7167 486.3587,-392.8073"/>
<polygon fill="#191970" stroke="#191970" points="411.9193,-372.3815 401.3935,-373.589 410.3749,-379.209 411.9193,-372.3815"/>
</g>
<!-- Node747 -->
<g id="node27" class="node">
<title>Node747</title>
<g id="a_node27"><a xlink:href="server_2base_8h.html#af0f3978236fa9f6607b8cbb891d9bcc6" target="_top" xlink:title="Initialize src/lib/server/. ">
<polygon fill="none" stroke="#000000" points="651,-474.5 651,-493.5 713,-493.5 713,-474.5 651,-474.5"/>
<text text-anchor="middle" x="682" y="-481.5" font-family="Helvetica,sans-Serif" font-size="10.00" fill="#000000">server_init</text>
</a>
</g>
</g>
<!-- Node746&#45;&gt;Node747 -->
<g id="edge27" class="edge">
<title>Node746&#45;&gt;Node747</title>
<path fill="none" stroke="#191970" d="M577.3738,-377.3313C581.0762,-379.0172 584.6627,-380.9002 588,-383 627.9408,-408.1308 662.075,-454.3938 675.6872,-474.3832"/>
<polygon fill="#191970" stroke="#191970" points="578.5909,-374.048 568.0085,-373.5352 575.9614,-380.5354 578.5909,-374.048"/>
</g>
<!-- Node747&#45;&gt;Node729 -->
<g id="edge28" class="edge">
<title>Node747&#45;&gt;Node729</title>
<path fill="none" stroke="#191970" d="M718.3296,-496.9938C744.5021,-506.3548 778.7813,-518.6152 799.8291,-526.1432"/>
<polygon fill="#191970" stroke="#191970" points="719.3348,-493.6362 708.7402,-493.564 716.9773,-500.2274 719.3348,-493.6362"/>
</g>
<!-- Node751 -->
<g id="node31" class="node">
<title>Node751</title>
<g id="a_node31"><a xlink:href="proto__detail_8c.html#aeed444a89837d61e432d768434ee46be" target="_top" xlink:title="Wrapper around dl_instance which translates the packet&#45;type into a submodule name. ">
<polygon fill="none" stroke="#000000" points="494.5,-512.5 494.5,-531.5 559.5,-531.5 559.5,-512.5 494.5,-512.5"/>
<text text-anchor="middle" x="527" y="-519.5" font-family="Helvetica,sans-Serif" font-size="10.00" fill="#000000">type_parse</text>
</a>
</g>
</g>
<!-- Node750&#45;&gt;Node751 -->
<g id="edge32" class="edge">
<title>Node750&#45;&gt;Node751</title>
<path fill="none" stroke="#191970" d="M422.9001,-522C447.2953,-522 474.0932,-522 494.39,-522"/>
<polygon fill="#191970" stroke="#191970" points="422.6182,-518.5001 412.6182,-522 422.6181,-525.5001 422.6182,-518.5001"/>
</g>
<!-- Node753&#45;&gt;Node728 -->
<g id="edge35" class="edge">
<title>Node753&#45;&gt;Node728</title>
<path fill="none" stroke="#191970" d="M216.2392,-555.2519C235.6484,-565.0182 262.8123,-577.5141 288,-585 354.4508,-604.7496 434.5278,-614.8267 483.0611,-619.4954"/>
<polygon fill="#191970" stroke="#191970" points="217.6082,-552.0207 207.1127,-550.573 214.4146,-558.2498 217.6082,-552.0207"/>
</g>
<!-- Node755 -->
<g id="node35" class="node">
<title>Node755</title>
<g id="a_node35"><a xlink:href="cluster_8c.html#a2c73b18c41ba2a09719df3a9b7d66c2e" target="_top" xlink:title="Establish a connection to a cluster node. ">
<polygon fill="none" stroke="#000000" points="303,-228.5 303,-247.5 415,-247.5 415,-228.5 303,-228.5"/>
<text text-anchor="middle" x="359" y="-235.5" font-family="Helvetica,sans-Serif" font-size="10.00" fill="#000000">cluster_node_connect</text>
</a>
</g>
</g>
<!-- Node754&#45;&gt;Node755 -->
<g id="edge38" class="edge">
<title>Node754&#45;&gt;Node755</title>
<path fill="none" stroke="#191970" d="M231.6812,-209.4566C257.5773,-215.2622 290.6359,-222.6735 316.5765,-228.4891"/>
<polygon fill="#191970" stroke="#191970" points="232.3041,-206.0094 221.7806,-207.237 230.7727,-212.8398 232.3041,-206.0094"/>
</g>
<!-- Node792 -->
<g id="node43" class="node">
<title>Node792</title>
<g id="a_node43"><a xlink:href="server_2module_8h.html#a78ab49b290182824aa6d8020bb2ee1f6" target="_top" xlink:title="Initialise a module specific connection pool. ">
<polygon fill="none" stroke="#000000" points="288,-114.5 288,-133.5 430,-133.5 430,-114.5 288,-114.5"/>
<text text-anchor="middle" x="359" y="-121.5" font-family="Helvetica,sans-Serif" font-size="10.00" fill="#000000">module_connection_pool_init</text>
</a>
</g>
</g>
<!-- Node754&#45;&gt;Node792 -->
<g id="edge47" class="edge">
<title>Node754&#45;&gt;Node792</title>
<path fill="none" stroke="#191970" d="M211.6812,-184.8843C231.0944,-172.2218 260.4274,-154.4319 288,-143 296.8404,-139.3347 306.5948,-136.1862 315.969,-133.5664"/>
<polygon fill="#191970" stroke="#191970" points="209.6544,-182.0286 203.2505,-190.469 213.5202,-187.8643 209.6544,-182.0286"/>
</g>
<!-- Node794 -->
<g id="node45" class="node">
<title>Node794</title>
<g id="a_node45"><a xlink:href="pool_8h.html#ad5bd3866642e6398e3725dd12fef0d59" target="_top" xlink:title="Allocate a new pool using an existing one as a template. ">
<polygon fill="none" stroke="#000000" points="323,-190.5 323,-209.5 395,-209.5 395,-190.5 323,-190.5"/>
<text text-anchor="middle" x="359" y="-197.5" font-family="Helvetica,sans-Serif" font-size="10.00" fill="#000000">fr_pool_copy</text>
</a>
</g>
</g>
<!-- Node754&#45;&gt;Node794 -->
<g id="edge49" class="edge">
<title>Node754&#45;&gt;Node794</title>
<path fill="none" stroke="#191970" d="M232.05,-200C259.9914,-200 296.1494,-200 322.7258,-200"/>
<polygon fill="#191970" stroke="#191970" points="231.7807,-196.5001 221.7806,-200 231.7806,-203.5001 231.7807,-196.5001"/>
</g>
<!-- Node795 -->
<g id="node46" class="node">
<title>Node795</title>
<g id="a_node46"><a xlink:href="rlm__rest_8c.html#a8a1e995764f49a98cc464b528f73edbb" target="_top" xlink:title="Create a thread specific multihandle. ">
<polygon fill="none" stroke="#000000" points="300,-152.5 300,-171.5 418,-171.5 418,-152.5 300,-152.5"/>
<text text-anchor="middle" x="359" y="-159.5" font-family="Helvetica,sans-Serif" font-size="10.00" fill="#000000">mod_thread_instantiate</text>
</a>
</g>
</g>
<!-- Node754&#45;&gt;Node795 -->
<g id="edge50" class="edge">
<title>Node754&#45;&gt;Node795</title>
<path fill="none" stroke="#191970" d="M231.6812,-190.5434C257.5773,-184.7378 290.6359,-177.3265 316.5765,-171.5109"/>
<polygon fill="#191970" stroke="#191970" points="230.7727,-187.1602 221.7806,-192.763 232.3041,-193.9906 230.7727,-187.1602"/>
</g>
<!-- Node756 -->
<g id="node36" class="node">
<title>Node756</title>
<g id="a_node36"><a xlink:href="cluster_8c.html#ab434868c42486ab9876b2043c26439f2" target="_top" xlink:title="Apply a cluster map received from a cluster node. ">
<polygon fill="none" stroke="#000000" points="478,-228.5 478,-247.5 576,-247.5 576,-228.5 478,-228.5"/>
<text text-anchor="middle" x="527" y="-235.5" font-family="Helvetica,sans-Serif" font-size="10.00" fill="#000000">cluster_map_apply</text>
</a>
</g>
</g>
<!-- Node755&#45;&gt;Node756 -->
<g id="edge39" class="edge">
<title>Node755&#45;&gt;Node756</title>
<path fill="none" stroke="#191970" d="M425.5248,-238C442.9528,-238 461.4308,-238 477.7756,-238"/>
<polygon fill="#191970" stroke="#191970" points="425.409,-234.5001 415.4089,-238 425.4089,-241.5001 425.409,-234.5001"/>
</g>
<!-- Node786 -->
<g id="node38" class="node">
<title>Node786</title>
<g id="a_node38"><a xlink:href="cluster_8h.html#a8f4e4285d679ffb64c8ef619b182b86a" target="_top" xlink:title="Allocate and initialise a new cluster structure. ">
<polygon fill="none" stroke="#000000" points="627.5,-171.5 627.5,-190.5 736.5,-190.5 736.5,-171.5 627.5,-171.5"/>
<text text-anchor="middle" x="682" y="-178.5" font-family="Helvetica,sans-Serif" font-size="10.00" fill="#000000">fr_redis_cluster_alloc</text>
</a>
</g>
</g>
<!-- Node755&#45;&gt;Node786 -->
<g id="edge46" class="edge">
<title>Node755&#45;&gt;Node786</title>
<path fill="none" stroke="#191970" d="M418.4601,-224.7979C422.4726,-223.09 426.3612,-221.1662 430,-219 449.9905,-207.0999 444.6287,-190.1925 466,-181 522.151,-156.8477 594.3659,-163.4518 639.4242,-171.4376"/>
<polygon fill="#191970" stroke="#191970" points="417.046,-221.5908 408.9322,-228.4037 419.5237,-228.1376 417.046,-221.5908"/>
</g>
<!-- Node789 -->
<g id="node41" class="node">
<title>Node789</title>
<g id="a_node41"><a xlink:href="cluster_8c.html#a4030e10e7438e81a42623a42beb18e42" target="_top" xlink:title="Retrieve or associate a node with the server indicated in the redirect. ">
<polygon fill="none" stroke="#ff0000" points="485.5,-190.5 485.5,-209.5 568.5,-209.5 568.5,-190.5 485.5,-190.5"/>
<text text-anchor="middle" x="527" y="-197.5" font-family="Helvetica,sans-Serif" font-size="10.00" fill="#000000">cluster_redirect</text>
</a>
</g>
</g>
<!-- Node755&#45;&gt;Node789 -->
<g id="edge44" class="edge">
<title>Node755&#45;&gt;Node789</title>
<path fill="none" stroke="#191970" d="M411.3529,-226.1583C435.2267,-220.7583 463.095,-214.4547 485.4921,-209.3887"/>
<polygon fill="#191970" stroke="#191970" points="410.3749,-222.791 401.3935,-228.411 411.9193,-229.6185 410.3749,-222.791"/>
</g>
<!-- Node790 -->
<g id="node42" class="node">
<title>Node790</title>
<g id="a_node42"><a xlink:href="cluster_8h.html#a9b5a2a604f3debf26f9ec7a937cbaf14" target="_top" xlink:title="Get the pool associated with a node in the cluster. ">
<polygon fill="none" stroke="#ff0000" points="473.5,-267 473.5,-297 580.5,-297 580.5,-267 473.5,-267"/>
<text text-anchor="start" x="481.5" y="-285" font-family="Helvetica,sans-Serif" font-size="10.00" fill="#000000">fr_redis_cluster_pool</text>
<text text-anchor="middle" x="527" y="-274" font-family="Helvetica,sans-Serif" font-size="10.00" fill="#000000">_by_node_addr</text>
</a>
</g>
</g>
<!-- Node755&#45;&gt;Node790 -->
<g id="edge45" class="edge">
<title>Node755&#45;&gt;Node790</title>
<path fill="none" stroke="#191970" d="M405.156,-250.0885C426.277,-255.6202 451.4337,-262.2088 473.3891,-267.959"/>
<polygon fill="#191970" stroke="#191970" points="406.014,-246.6952 395.4535,-247.5473 404.2404,-253.4668 406.014,-246.6952"/>
</g>
<!-- Node757 -->
<g id="node37" class="node">
<title>Node757</title>
<g id="a_node37"><a xlink:href="cluster_8h.html#ab17f60095577fae39f1d708d92536594" target="_top" xlink:title="Perform a runtime remap of the cluster. ">
<polygon fill="none" stroke="#ff0000" points="624,-228.5 624,-247.5 740,-247.5 740,-228.5 624,-228.5"/>
<text text-anchor="middle" x="682" y="-235.5" font-family="Helvetica,sans-Serif" font-size="10.00" fill="#000000">fr_redis_cluster_remap</text>
</a>
</g>
</g>
<!-- Node756&#45;&gt;Node757 -->
<g id="edge40" class="edge">
<title>Node756&#45;&gt;Node757</title>
<path fill="none" stroke="#191970" d="M586.2087,-238C598.5291,-238 611.5035,-238 623.7876,-238"/>
<polygon fill="#191970" stroke="#191970" points="586.043,-234.5001 576.043,-238 586.0429,-241.5001 586.043,-234.5001"/>
</g>
<!-- Node756&#45;&gt;Node786 -->
<g id="edge41" class="edge">
<title>Node756&#45;&gt;Node786</title>
<path fill="none" stroke="#191970" d="M569.2346,-225.341C575.5526,-223.3041 581.9676,-221.1547 588,-219 612.8652,-210.1186 640.8638,-198.5988 659.7871,-190.5817"/>
<polygon fill="#191970" stroke="#191970" points="567.9343,-222.0813 559.4551,-228.4339 570.0451,-228.7555 567.9343,-222.0813"/>
</g>
<!-- Node786&#45;&gt;Node787 -->
<g id="edge42" class="edge">
<title>Node786&#45;&gt;Node787</title>
<path fill="none" stroke="#191970" d="M726.4108,-193.3183C745.2337,-198.5393 766.8376,-204.5316 784.4402,-209.4141"/>
<polygon fill="#191970" stroke="#191970" points="727.1426,-189.8892 716.5709,-190.589 725.2716,-196.6346 727.1426,-189.8892"/>
</g>
<!-- Node786&#45;&gt;Node788 -->
<g id="edge43" class="edge">
<title>Node786&#45;&gt;Node788</title>
<path fill="none" stroke="#191970" d="M726.3453,-168.6999C746.8781,-163.0046 770.7317,-156.3883 789.0935,-151.2952"/>
<polygon fill="#191970" stroke="#191970" points="725.2716,-165.3654 716.5709,-171.411 727.1426,-172.1108 725.2716,-165.3654"/>
</g>
<!-- Node793 -->
<g id="node44" class="node">
<title>Node793</title>
<g id="a_node44"><a xlink:href="rlm__cache__memcached_8c.html#a3c32864d8c9d017bf4625d54f415b2db" target="_top" xlink:title="Create a new rlm_cache_memcached instance. ">
<polygon fill="none" stroke="#000000" points="484,-114.5 484,-133.5 570,-133.5 570,-114.5 484,-114.5"/>
<text text-anchor="middle" x="527" y="-121.5" font-family="Helvetica,sans-Serif" font-size="10.00" fill="#000000">mod_instantiate</text>
</a>
</g>
</g>
<!-- Node792&#45;&gt;Node793 -->
<g id="edge48" class="edge">
<title>Node792&#45;&gt;Node793</title>
<path fill="none" stroke="#191970" d="M440.5725,-124C455.5446,-124 470.6195,-124 483.8927,-124"/>
<polygon fill="#191970" stroke="#191970" points="440.2472,-120.5001 430.2471,-124 440.2471,-127.5001 440.2472,-120.5001"/>
</g>
<!-- Node799 -->
<g id="node50" class="node">
<title>Node799</title>
<g id="a_node50"><a xlink:href="rlm__ldap_8c.html#a3c32864d8c9d017bf4625d54f415b2db" target="_top" xlink:title="Instantiate the module. ">
<polygon fill="none" stroke="#000000" points="316,-.5 316,-19.5 402,-19.5 402,-.5 316,-.5"/>
<text text-anchor="middle" x="359" y="-7.5" font-family="Helvetica,sans-Serif" font-size="10.00" fill="#000000">mod_instantiate</text>
</a>
</g>
</g>
<!-- Node798&#45;&gt;Node799 -->
<g id="edge55" class="edge">
<title>Node798&#45;&gt;Node799</title>
<path fill="none" stroke="#191970" d="M248.7971,-10C270.8735,-10 295.4898,-10 315.8477,-10"/>
<polygon fill="#191970" stroke="#191970" points="248.5265,-6.5001 238.5264,-10 248.5264,-13.5001 248.5265,-6.5001"/>
</g>
</g>
</svg>
