<?xml version="1.0" encoding="UTF-8" standalone="no"?>
<!DOCTYPE svg PUBLIC "-//W3C//DTD SVG 1.1//EN"
 "http://www.w3.org/Graphics/SVG/1.1/DTD/svg11.dtd">
<!-- Generated by graphviz version 2.40.1 (20161225.0304)
 -->
<!-- Title: fr_channel_signal_responder_close Pages: 1 -->
<!--zoomable 230 -->
<svg id="main" version="1.1" xmlns="http://www.w3.org/2000/svg" xmlns:xlink="http://www.w3.org/1999/xlink" xml:space="preserve" onload="init(evt)">
<style type="text/css"><![CDATA[
.edge:hover path { stroke: red; }
.edge:hover polygon { stroke: red; fill: red; }
]]></style>
<script type="text/javascript"><![CDATA[
var edges = document.getElementsByTagName('g');
if (edges && edges.length) {
  for (var i=0;i<edges.length;i++) {
    if (edges[i].id.substr(0,4)=='edge') {
      edges[i].setAttribute('class','edge');
    }
  }
}
]]></script>
        <defs>
                <circle id="rim" cx="0" cy="0" r="7"/>
                <circle id="rim2" cx="0" cy="0" r="3.5"/>
                <g id="zoomPlus">
                        <use xlink:href="#rim" fill="#404040">
                                <set attributeName="fill" to="#808080" begin="zoomplus.mouseover" end="zoomplus.mouseout"/>
                        </use>
                        <path d="M-4,0h8M0,-4v8" fill="none" stroke="white" stroke-width="1.5" pointer-events="none"/>
                </g>
                <g id="zoomMin">
                        <use xlink:href="#rim" fill="#404040">
                                <set attributeName="fill" to="#808080" begin="zoomminus.mouseover" end="zoomminus.mouseout"/>
                        </use>
                        <path d="M-4,0h8" fill="none" stroke="white" stroke-width="1.5" pointer-events="none"/>
                </g>
                <g id="dirArrow">
                        <path fill="none" stroke="white" stroke-width="1.5" d="M0,-3.0v7 M-2.5,-0.5L0,-3.0L2.5,-0.5"/>
                </g>
               <g id="resetDef">
                       <use xlink:href="#rim2" fill="#404040">
                               <set attributeName="fill" to="#808080" begin="reset.mouseover" end="reset.mouseout"/>
                       </use>
               </g>
        </defs>

<script type="text/javascript">
var viewWidth = 898;
var viewHeight = 230;
var sectionId = 'dynsection-28';
</script>
<script xlink:href="svgpan.js"/>
<svg id="graph" class="graph">
<g id="viewport">
<title>fr_channel_signal_responder_close</title>
<!-- Node1444 -->
<g id="node1" class="node">
<title>Node1444</title>
<polygon fill="#bfbfbf" stroke="#000000" points="0,-33 0,-63 140,-63 140,-33 0,-33"/>
<text text-anchor="start" x="8" y="-51" font-family="Helvetica,sans-Serif" font-size="10.00" fill="#000000">fr_channel_signal_responder</text>
<text text-anchor="middle" x="70" y="-40" font-family="Helvetica,sans-Serif" font-size="10.00" fill="#000000">_close</text>
</g>
<!-- Node1445 -->
<g id="node2" class="node">
<title>Node1445</title>
<g id="a_node2"><a xlink:href="network_8h.html#a2a8e169f82d1cf5a477957c86d6508fe" target="_top" xlink:title="Stop a network thread in an orderly way. ">
<polygon fill="none" stroke="#000000" points="176,-95.5 176,-114.5 276,-114.5 276,-95.5 176,-95.5"/>
<text text-anchor="middle" x="226" y="-102.5" font-family="Helvetica,sans-Serif" font-size="10.00" fill="#000000">fr_network_destroy</text>
</a>
</g>
</g>
<!-- Node1444&#45;&gt;Node1445 -->
<g id="edge1" class="edge">
<title>Node1444&#45;&gt;Node1445</title>
<path fill="none" stroke="#191970" d="M120.8426,-66.5771C147.1337,-76.1835 178.1285,-87.5085 199.6264,-95.3635"/>
<polygon fill="#191970" stroke="#191970" points="121.9894,-63.2699 111.3956,-63.1253 119.587,-69.8447 121.9894,-63.2699"/>
</g>
<!-- Node1452 -->
<g id="node9" class="node">
<title>Node1452</title>
<g id="a_node9"><a xlink:href="channel__test_8c.html#aaf1f6a9c54ffd71463cb57cdf1cd48a9" target="_top" xlink:title="channel_master">
<polygon fill="none" stroke="#000000" points="183,-38.5 183,-57.5 269,-57.5 269,-38.5 183,-38.5"/>
<text text-anchor="middle" x="226" y="-45.5" font-family="Helvetica,sans-Serif" font-size="10.00" fill="#000000">channel_master</text>
</a>
</g>
</g>
<!-- Node1444&#45;&gt;Node1452 -->
<g id="edge12" class="edge">
<title>Node1444&#45;&gt;Node1452</title>
<path fill="none" stroke="#191970" d="M150.5108,-48C161.7002,-48 172.8206,-48 182.9497,-48"/>
<polygon fill="#191970" stroke="#191970" points="150.2419,-44.5001 140.2419,-48 150.2419,-51.5001 150.2419,-44.5001"/>
</g>
<!-- Node1454 -->
<g id="node11" class="node">
<title>Node1454</title>
<g id="a_node11"><a xlink:href="worker__test_8c.html#aa67c99493e37ceb71569a452a5452d86" target="_top" xlink:title="master_process">
<polygon fill="none" stroke="#000000" points="183,-.5 183,-19.5 269,-19.5 269,-.5 183,-.5"/>
<text text-anchor="middle" x="226" y="-7.5" font-family="Helvetica,sans-Serif" font-size="10.00" fill="#000000">master_process</text>
</a>
</g>
</g>
<!-- Node1444&#45;&gt;Node1454 -->
<g id="edge14" class="edge">
<title>Node1444&#45;&gt;Node1454</title>
<path fill="none" stroke="#191970" d="M141.763,-30.5193C157.256,-26.7453 173.0792,-22.891 186.7668,-19.5568"/>
<polygon fill="#191970" stroke="#191970" points="140.5429,-27.2141 131.6553,-32.9814 142.1996,-34.0152 140.5429,-27.2141"/>
</g>
<!-- Node1446 -->
<g id="node3" class="node">
<title>Node1446</title>
<g id="a_node3"><a xlink:href="network_8c.html#a860e2e4ce1d0b60bbd0d7cd852e0bfc6" target="_top" xlink:title="Read handler for signal pipe. ">
<polygon fill="none" stroke="#000000" points="312,-152.5 312,-171.5 407,-171.5 407,-152.5 312,-152.5"/>
<text text-anchor="middle" x="359.5" y="-159.5" font-family="Helvetica,sans-Serif" font-size="10.00" fill="#000000">_signal_pipe_read</text>
</a>
</g>
</g>
<!-- Node1445&#45;&gt;Node1446 -->
<g id="edge2" class="edge">
<title>Node1445&#45;&gt;Node1446</title>
<path fill="none" stroke="#191970" d="M257.5699,-118.4793C282.0251,-128.9208 315.3011,-143.1285 337.0822,-152.4284"/>
<polygon fill="#191970" stroke="#191970" points="258.9161,-115.2484 248.3449,-114.5405 256.1673,-121.6862 258.9161,-115.2484"/>
</g>
<!-- Node1449 -->
<g id="node6" class="node">
<title>Node1449</title>
<g id="a_node6"><a xlink:href="schedule_8h.html#ab3af94cba38534d44480a8cc9bb0422c" target="_top" xlink:title="Create a scheduler and spawn the child threads. ">
<polygon fill="none" stroke="#000000" points="717,-114.5 717,-133.5 816,-133.5 816,-114.5 717,-114.5"/>
<text text-anchor="middle" x="766.5" y="-121.5" font-family="Helvetica,sans-Serif" font-size="10.00" fill="#000000">fr_schedule_create</text>
</a>
</g>
</g>
<!-- Node1445&#45;&gt;Node1449 -->
<g id="edge8" class="edge">
<title>Node1445&#45;&gt;Node1449</title>
<path fill="none" stroke="#191970" d="M286.1053,-108.7041C294.7917,-109.1785 303.6237,-109.6276 312,-110 459.0846,-116.5398 633.0814,-120.9812 716.7156,-122.9107"/>
<polygon fill="#191970" stroke="#191970" points="286.1912,-105.2035 276.0111,-108.1388 285.7997,-112.1926 286.1912,-105.2035"/>
</g>
<!-- Node1451 -->
<g id="node8" class="node">
<title>Node1451</title>
<g id="a_node8"><a xlink:href="schedule_8h.html#ae56165cc291c3c39a2da39593ed50809" target="_top" xlink:title="Destroy a scheduler, and tell its child threads to exit. ">
<polygon fill="none" stroke="#000000" points="575.5,-76.5 575.5,-95.5 679.5,-95.5 679.5,-76.5 575.5,-76.5"/>
<text text-anchor="middle" x="627.5" y="-83.5" font-family="Helvetica,sans-Serif" font-size="10.00" fill="#000000">fr_schedule_destroy</text>
</a>
</g>
</g>
<!-- Node1445&#45;&gt;Node1451 -->
<g id="edge9" class="edge">
<title>Node1445&#45;&gt;Node1451</title>
<path fill="none" stroke="#191970" d="M286.258,-102.1484C364.7931,-98.432 500.8555,-91.9931 575.2369,-88.4732"/>
<polygon fill="#191970" stroke="#191970" points="285.8618,-98.6632 276.0385,-102.6321 286.1927,-105.6554 285.8618,-98.6632"/>
</g>
<!-- Node1447 -->
<g id="node4" class="node">
<title>Node1447</title>
<g id="a_node4"><a xlink:href="network_8h.html#a2a19bee40a8ba8b1bd6823444a18e067" target="_top" xlink:title="Create a network. ">
<polygon fill="none" stroke="#000000" points="443,-152.5 443,-171.5 538,-171.5 538,-152.5 443,-152.5"/>
<text text-anchor="middle" x="490.5" y="-159.5" font-family="Helvetica,sans-Serif" font-size="10.00" fill="#000000">fr_network_create</text>
</a>
</g>
</g>
<!-- Node1446&#45;&gt;Node1447 -->
<g id="edge3" class="edge">
<title>Node1446&#45;&gt;Node1447</title>
<path fill="none" stroke="#191970" d="M417.3507,-162C425.8031,-162 434.4278,-162 442.6514,-162"/>
<polygon fill="#191970" stroke="#191970" points="417.1646,-158.5001 407.1646,-162 417.1645,-165.5001 417.1646,-158.5001"/>
</g>
<!-- Node1448 -->
<g id="node5" class="node">
<title>Node1448</title>
<g id="a_node5"><a xlink:href="schedule_8c.html#ab04866d2458f55a7a949e10e59b5f28c" target="_top" xlink:title="Initialize and run the network thread. ">
<polygon fill="none" stroke="#000000" points="574,-191 574,-221 681,-221 681,-191 574,-191"/>
<text text-anchor="start" x="582" y="-209" font-family="Helvetica,sans-Serif" font-size="10.00" fill="#000000">fr_schedule_network</text>
<text text-anchor="middle" x="627.5" y="-198" font-family="Helvetica,sans-Serif" font-size="10.00" fill="#000000">_thread</text>
</a>
</g>
</g>
<!-- Node1447&#45;&gt;Node1448 -->
<g id="edge4" class="edge">
<title>Node1447&#45;&gt;Node1448</title>
<path fill="none" stroke="#191970" d="M530.1789,-174.7436C545.9376,-179.8048 564.1852,-185.6653 580.5919,-190.9346"/>
<polygon fill="#191970" stroke="#191970" points="530.8182,-171.2729 520.227,-171.5473 528.6777,-177.9376 530.8182,-171.2729"/>
</g>
<!-- Node1447&#45;&gt;Node1449 -->
<g id="edge7" class="edge">
<title>Node1447&#45;&gt;Node1449</title>
<path fill="none" stroke="#191970" d="M548.628,-155.242C586.3961,-150.7117 636.672,-144.4193 681,-138 692.6112,-136.3185 705.0842,-134.362 716.8158,-132.4542"/>
<polygon fill="#191970" stroke="#191970" points="547.8373,-151.8115 538.3225,-156.4717 548.6668,-158.7622 547.8373,-151.8115"/>
</g>
<!-- Node1448&#45;&gt;Node1449 -->
<g id="edge5" class="edge">
<title>Node1448&#45;&gt;Node1449</title>
<path fill="none" stroke="#191970" d="M663.7516,-185.9003C669.5402,-182.6252 675.4487,-179.2432 681,-176 705.7517,-161.5395 734.1154,-144.1176 751.1526,-133.559"/>
<polygon fill="#191970" stroke="#191970" points="661.8222,-182.9698 654.8228,-190.9233 665.2544,-189.0707 661.8222,-182.9698"/>
</g>
<!-- Node1450 -->
<g id="node7" class="node">
<title>Node1450</title>
<g id="a_node7"><a xlink:href="radiusd_8c.html#a0ddf1224851353fc92bfbff6f499fa97" target="_top" xlink:title="Entry point for the daemon. ">
<polygon fill="none" stroke="#000000" points="852,-95.5 852,-114.5 890,-114.5 890,-95.5 852,-95.5"/>
<text text-anchor="middle" x="871" y="-102.5" font-family="Helvetica,sans-Serif" font-size="10.00" fill="#000000">main</text>
</a>
</g>
</g>
<!-- Node1449&#45;&gt;Node1450 -->
<g id="edge6" class="edge">
<title>Node1449&#45;&gt;Node1450</title>
<path fill="none" stroke="#191970" d="M826.3404,-113.1199C835.5271,-111.4496 844.394,-109.8375 851.7722,-108.496"/>
<polygon fill="#191970" stroke="#191970" points="825.5142,-109.7127 816.3016,-114.9452 826.7664,-116.5998 825.5142,-109.7127"/>
</g>
<!-- Node1451&#45;&gt;Node1449 -->
<g id="edge11" class="edge">
<title>Node1451&#45;&gt;Node1449</title>
<path fill="none" stroke="#191970" d="M672.2953,-98.2462C691.4547,-103.484 713.4938,-109.5091 731.4357,-114.4141"/>
<polygon fill="#191970" stroke="#191970" points="673.1446,-94.85 662.5756,-95.589 671.2986,-101.6022 673.1446,-94.85"/>
</g>
<!-- Node1451&#45;&gt;Node1450 -->
<g id="edge10" class="edge">
<title>Node1451&#45;&gt;Node1450</title>
<path fill="none" stroke="#191970" d="M689.8198,-90.8627C743.3612,-95.0405 817.2204,-100.8036 851.7515,-103.4981"/>
<polygon fill="#191970" stroke="#191970" points="689.9789,-87.3646 679.7369,-90.076 689.4343,-94.3434 689.9789,-87.3646"/>
</g>
<!-- Node1453 -->
<g id="node10" class="node">
<title>Node1453</title>
<g id="a_node10"><a xlink:href="channel__test_8c.html#a0ddf1224851353fc92bfbff6f499fa97" target="_top" xlink:title="main">
<polygon fill="none" stroke="#000000" points="340.5,-38.5 340.5,-57.5 378.5,-57.5 378.5,-38.5 340.5,-38.5"/>
<text text-anchor="middle" x="359.5" y="-45.5" font-family="Helvetica,sans-Serif" font-size="10.00" fill="#000000">main</text>
</a>
</g>
</g>
<!-- Node1452&#45;&gt;Node1453 -->
<g id="edge13" class="edge">
<title>Node1452&#45;&gt;Node1453</title>
<path fill="none" stroke="#191970" d="M279.3688,-48C300.8535,-48 324.2669,-48 340.2049,-48"/>
<polygon fill="#191970" stroke="#191970" points="279.3437,-44.5001 269.3436,-48 279.3436,-51.5001 279.3437,-44.5001"/>
</g>
<!-- Node1455 -->
<g id="node12" class="node">
<title>Node1455</title>
<g id="a_node12"><a xlink:href="worker__test_8c.html#a0ddf1224851353fc92bfbff6f499fa97" target="_top" xlink:title="main">
<polygon fill="none" stroke="#000000" points="340.5,-.5 340.5,-19.5 378.5,-19.5 378.5,-.5 340.5,-.5"/>
<text text-anchor="middle" x="359.5" y="-7.5" font-family="Helvetica,sans-Serif" font-size="10.00" fill="#000000">main</text>
</a>
</g>
</g>
<!-- Node1454&#45;&gt;Node1455 -->
<g id="edge15" class="edge">
<title>Node1454&#45;&gt;Node1455</title>
<path fill="none" stroke="#191970" d="M279.3688,-10C300.8535,-10 324.2669,-10 340.2049,-10"/>
<polygon fill="#191970" stroke="#191970" points="279.3437,-6.5001 269.3436,-10 279.3436,-13.5001 279.3437,-6.5001"/>
</g>
</g>
</svg>
        <g id="navigator" transform="translate(0 0)" fill="#404254">
                <rect fill="#f2f5e9" fill-opacity="0.5" stroke="#606060" stroke-width=".5" x="0" y="0" width="60" height="60"/>
                <use id="zoomplus" xlink:href="#zoomPlus" x="17" y="9" onmousedown="handleZoom(evt,'in')"/>
                <use id="zoomminus" xlink:href="#zoomMin" x="42" y="9" onmousedown="handleZoom(evt,'out')"/>
                <use id="reset" xlink:href="#resetDef" x="30" y="36" onmousedown="handleReset()"/>
                <g id="arrowUp" xlink:href="#dirArrow" transform="translate(30 24)" onmousedown="handlePan(0,-1)">
                  <use xlink:href="#rim" fill="#404040">
                        <set attributeName="fill" to="#808080" begin="arrowUp.mouseover" end="arrowUp.mouseout"/>
                  </use>
                  <path fill="none" stroke="white" stroke-width="1.5" d="M0,-3.0v7 M-2.5,-0.5L0,-3.0L2.5,-0.5"/>
                </g>
                <g id="arrowRight" xlink:href="#dirArrow" transform="rotate(90) translate(36 -43)" onmousedown="handlePan(1,0)">
                  <use xlink:href="#rim" fill="#404040">
                        <set attributeName="fill" to="#808080" begin="arrowRight.mouseover" end="arrowRight.mouseout"/>
                  </use>
                  <path fill="none" stroke="white" stroke-width="1.5" d="M0,-3.0v7 M-2.5,-0.5L0,-3.0L2.5,-0.5"/>
                </g>
                <g id="arrowDown" xlink:href="#dirArrow" transform="rotate(180) translate(-30 -48)" onmousedown="handlePan(0,1)">
                  <use xlink:href="#rim" fill="#404040">
                        <set attributeName="fill" to="#808080" begin="arrowDown.mouseover" end="arrowDown.mouseout"/>
                  </use>
                  <path fill="none" stroke="white" stroke-width="1.5" d="M0,-3.0v7 M-2.5,-0.5L0,-3.0L2.5,-0.5"/>
                </g>
                <g id="arrowLeft" xlink:href="#dirArrow" transform="rotate(270) translate(-36 17)" onmousedown="handlePan(-1,0)">
                  <use xlink:href="#rim" fill="#404040">
                        <set attributeName="fill" to="#808080" begin="arrowLeft.mouseover" end="arrowLeft.mouseout"/>
                  </use>
                  <path fill="none" stroke="white" stroke-width="1.5" d="M0,-3.0v7 M-2.5,-0.5L0,-3.0L2.5,-0.5"/>
                </g>
        </g>
        <svg viewBox="0 0 15 15" width="100%" height="30px" preserveAspectRatio="xMaxYMin meet">
         <g id="arrow_out" transform="scale(0.3 0.3)">
          <a xlink:href="channel_8h_a52e1218f0e57b211155bf1248967eee4_icgraph_org.svg" target="_base">
           <rect id="button" ry="5" rx="5" y="6" x="6" height="38" width="38"
                fill="#f2f5e9" fill-opacity="0.5" stroke="#606060" stroke-width="1.0"/>
           <path id="arrow"
             d="M 11.500037,31.436501 C 11.940474,20.09759 22.043105,11.32322 32.158766,21.979434 L 37.068811,17.246167 C 37.068811,17.246167 37.088388,32 37.088388,32 L 22.160133,31.978069 C 22.160133,31.978069 26.997745,27.140456 26.997745,27.140456 C 18.528582,18.264221 13.291696,25.230495 11.500037,31.436501 z"
             style="fill:#404040;"/>
          </a>
         </g>
        </svg>
</svg>
