<?xml version="1.0" encoding="UTF-8" standalone="no"?>
<!DOCTYPE svg PUBLIC "-//W3C//DTD SVG 1.1//EN"
 "http://www.w3.org/Graphics/SVG/1.1/DTD/svg11.dtd">
<!-- Generated by graphviz version 2.40.1 (20161225.0304)
 -->
<!-- Title: fr_command_alloc Pages: 1 -->
<svg width="635pt" height="85pt"
 viewBox="0.00 0.00 635.00 85.00" xmlns="http://www.w3.org/2000/svg" xmlns:xlink="http://www.w3.org/1999/xlink">
<g id="graph0" class="graph" transform="scale(1 1) rotate(0) translate(4 81)">
<title>fr_command_alloc</title>
<!-- Node603 -->
<g id="node1" class="node">
<title>Node603</title>
<polygon fill="#bfbfbf" stroke="#000000" points="0,-38.5 0,-57.5 96,-57.5 96,-38.5 0,-38.5"/>
<text text-anchor="middle" x="48" y="-45.5" font-family="Helvetica,sans-Serif" font-size="10.00" fill="#000000">fr_command_alloc</text>
</g>
<!-- Node604 -->
<g id="node2" class="node">
<title>Node604</title>
<g id="a_node2"><a xlink:href="command_8h.html#a6bf6ecd4578527c17f1aacb8fb427f38" target="_top" xlink:title="Add one command to the global command tree. ">
<polygon fill="none" stroke="#000000" points="132,-38.5 132,-57.5 224,-57.5 224,-38.5 132,-38.5"/>
<text text-anchor="middle" x="178" y="-45.5" font-family="Helvetica,sans-Serif" font-size="10.00" fill="#000000">fr_command_add</text>
</a>
</g>
</g>
<!-- Node603&#45;&gt;Node604 -->
<g id="edge1" class="edge">
<title>Node603&#45;&gt;Node604</title>
<path fill="none" stroke="#191970" d="M106.0746,-48C114.7209,-48 123.5325,-48 131.8881,-48"/>
<polygon fill="#191970" stroke="#191970" points="106.0379,-44.5001 96.0379,-48 106.0378,-51.5001 106.0379,-44.5001"/>
</g>
<!-- Node605 -->
<g id="node3" class="node">
<title>Node605</title>
<g id="a_node3"><a xlink:href="unit__test__attribute_8c.html#ae6067967dae3ff5100ff5a6213cf7136" target="_top" xlink:title="command_radmin_add">
<polygon fill="none" stroke="#000000" points="261.5,-57.5 261.5,-76.5 376.5,-76.5 376.5,-57.5 261.5,-57.5"/>
<text text-anchor="middle" x="319" y="-64.5" font-family="Helvetica,sans-Serif" font-size="10.00" fill="#000000">command_radmin_add</text>
</a>
</g>
</g>
<!-- Node604&#45;&gt;Node605 -->
<g id="edge2" class="edge">
<title>Node604&#45;&gt;Node605</title>
<path fill="none" stroke="#191970" d="M234.1227,-55.5626C243.09,-56.771 252.3815,-58.023 261.383,-59.236"/>
<polygon fill="#191970" stroke="#191970" points="234.5465,-52.0882 224.1687,-54.2213 233.6117,-59.0255 234.5465,-52.0882"/>
</g>
<!-- Node606 -->
<g id="node4" class="node">
<title>Node606</title>
<g id="a_node4"><a xlink:href="command_8h.html#a4a7775228dd76a01a36caa06c141a03b" target="_top" xlink:title="Add multiple commands to the global command tree. ">
<polygon fill="none" stroke="#000000" points="260,-19.5 260,-38.5 378,-38.5 378,-19.5 260,-19.5"/>
<text text-anchor="middle" x="319" y="-26.5" font-family="Helvetica,sans-Serif" font-size="10.00" fill="#000000">fr_command_add_multi</text>
</a>
</g>
</g>
<!-- Node604&#45;&gt;Node606 -->
<g id="edge3" class="edge">
<title>Node604&#45;&gt;Node606</title>
<path fill="none" stroke="#191970" d="M234.2673,-40.4179C242.6894,-39.283 251.3942,-38.11 259.8736,-36.9674"/>
<polygon fill="#191970" stroke="#191970" points="233.6117,-36.9745 224.1687,-41.7787 234.5465,-43.9118 233.6117,-36.9745"/>
</g>
<!-- Node607 -->
<g id="node5" class="node">
<title>Node607</title>
<g id="a_node5"><a xlink:href="bin_2radmin_8c.html#ac107210f8fc4ab1a8289a15d0bd467cf" target="_top" xlink:title="fr_radmin_register">
<polygon fill="none" stroke="#000000" points="414,-38.5 414,-57.5 509,-57.5 509,-38.5 414,-38.5"/>
<text text-anchor="middle" x="461.5" y="-45.5" font-family="Helvetica,sans-Serif" font-size="10.00" fill="#000000">fr_radmin_register</text>
</a>
</g>
</g>
<!-- Node606&#45;&gt;Node607 -->
<g id="edge4" class="edge">
<title>Node606&#45;&gt;Node607</title>
<path fill="none" stroke="#191970" d="M388.3392,-38.2452C397.0219,-39.4029 405.7424,-40.5657 413.9846,-41.6646"/>
<polygon fill="#191970" stroke="#191970" points="388.5697,-34.7451 378.1949,-36.8926 387.6445,-41.6837 388.5697,-34.7451"/>
</g>
<!-- Node610 -->
<g id="node7" class="node">
<title>Node610</title>
<g id="a_node7"><a xlink:href="modules_2proto__control_2radmin_8c.html#a3c04138a5bfe5d72780bb7e82a18e627" target="_top" xlink:title="main">
<polygon fill="none" stroke="#000000" points="442.5,-.5 442.5,-19.5 480.5,-19.5 480.5,-.5 442.5,-.5"/>
<text text-anchor="middle" x="461.5" y="-7.5" font-family="Helvetica,sans-Serif" font-size="10.00" fill="#000000">main</text>
</a>
</g>
</g>
<!-- Node606&#45;&gt;Node610 -->
<g id="edge6" class="edge">
<title>Node606&#45;&gt;Node610</title>
<path fill="none" stroke="#191970" d="M388.2194,-19.7707C408.0922,-17.121 428.1758,-14.4432 442.2795,-12.5627"/>
<polygon fill="#191970" stroke="#191970" points="387.6445,-16.3163 378.1949,-21.1074 388.5697,-23.2549 387.6445,-16.3163"/>
</g>
<!-- Node608 -->
<g id="node6" class="node">
<title>Node608</title>
<g id="a_node6"><a xlink:href="radmin_8h.html#a6ae54e42b09c4c94126031d3db1b1e46" target="_top" xlink:title="fr_radmin_start">
<polygon fill="none" stroke="#ff0000" points="545,-38.5 545,-57.5 627,-57.5 627,-38.5 545,-38.5"/>
<text text-anchor="middle" x="586" y="-45.5" font-family="Helvetica,sans-Serif" font-size="10.00" fill="#000000">fr_radmin_start</text>
</a>
</g>
</g>
<!-- Node607&#45;&gt;Node608 -->
<g id="edge5" class="edge">
<title>Node607&#45;&gt;Node608</title>
<path fill="none" stroke="#191970" d="M519.5253,-48C528.003,-48 536.5857,-48 544.6406,-48"/>
<polygon fill="#191970" stroke="#191970" points="519.2789,-44.5001 509.2789,-48 519.2789,-51.5001 519.2789,-44.5001"/>
</g>
</g>
</svg>
