<?xml version="1.0" encoding="UTF-8" standalone="no"?>
<!DOCTYPE svg PUBLIC "-//W3C//DTD SVG 1.1//EN"
 "http://www.w3.org/Graphics/SVG/1.1/DTD/svg11.dtd">
<!-- Generated by graphviz version 2.40.1 (20161225.0304)
 -->
<!-- Title: split_alternation Pages: 1 -->
<svg width="765pt" height="522pt"
 viewBox="0.00 0.00 765.00 522.00" xmlns="http://www.w3.org/2000/svg" xmlns:xlink="http://www.w3.org/1999/xlink">
<g id="graph0" class="graph" transform="scale(1 1) rotate(0) translate(4 518)">
<title>split_alternation</title>
<!-- Node2256 -->
<g id="node1" class="node">
<title>Node2256</title>
<polygon fill="#bfbfbf" stroke="#000000" points="0,-361.5 0,-380.5 85,-380.5 85,-361.5 0,-361.5"/>
<text text-anchor="middle" x="42.5" y="-368.5" font-family="Helvetica,sans-Serif" font-size="10.00" fill="#000000">split_alternation</text>
</g>
<!-- Node2257 -->
<g id="node2" class="node">
<title>Node2257</title>
<g id="a_node2"><a xlink:href="strerror_8c.html#ae701765650b8aea79a3037bc4921d7f8" target="_top" xlink:title="Log to thread local error buffer. ">
<polygon fill="none" stroke="#000000" points="121,-361.5 121,-380.5 207,-380.5 207,-361.5 121,-361.5"/>
<text text-anchor="middle" x="164" y="-368.5" font-family="Helvetica,sans-Serif" font-size="10.00" fill="#000000">fr_strerror_printf</text>
</a>
</g>
</g>
<!-- Node2256&#45;&gt;Node2257 -->
<g id="edge1" class="edge">
<title>Node2256&#45;&gt;Node2257</title>
<path fill="none" stroke="#191970" d="M85.3364,-371C93.4965,-371 102.1302,-371 110.5725,-371"/>
<polygon fill="#191970" stroke="#191970" points="110.7306,-374.5001 120.7306,-371 110.7305,-367.5001 110.7306,-374.5001"/>
</g>
<!-- Node2258 -->
<g id="node3" class="node">
<title>Node2258</title>
<g id="a_node3"><a xlink:href="acutest_8h.html#aecf9a9be8105efb1454cd8c1ef6cb1c5" target="_top" xlink:title="va_start">
<polygon fill="none" stroke="#000000" points="680.5,-494.5 680.5,-513.5 732.5,-513.5 732.5,-494.5 680.5,-494.5"/>
<text text-anchor="middle" x="706.5" y="-501.5" font-family="Helvetica,sans-Serif" font-size="10.00" fill="#000000">va_start</text>
</a>
</g>
</g>
<!-- Node2257&#45;&gt;Node2258 -->
<g id="edge2" class="edge">
<title>Node2257&#45;&gt;Node2258</title>
<path fill="none" stroke="#191970" d="M170.9751,-380.6287C183.5713,-397.3763 211.7278,-431.9902 243,-452 293.441,-484.2751 311.4121,-484.613 370,-497 477.2745,-519.6807 608.0785,-512.873 670.2832,-507.6204"/>
<polygon fill="#191970" stroke="#191970" points="670.7187,-511.0957 680.3724,-506.7305 670.1036,-504.1228 670.7187,-511.0957"/>
</g>
<!-- Node2259 -->
<g id="node4" class="node">
<title>Node2259</title>
<g id="a_node4"><a xlink:href="strerror_8c.html#a193b1e0b3712e3bbee338812c06af482" target="_top" xlink:title="fr_strerror_vprintf">
<polygon fill="none" stroke="#000000" points="243,-361.5 243,-380.5 334,-380.5 334,-361.5 243,-361.5"/>
<text text-anchor="middle" x="288.5" y="-368.5" font-family="Helvetica,sans-Serif" font-size="10.00" fill="#000000">fr_strerror_vprintf</text>
</a>
</g>
</g>
<!-- Node2257&#45;&gt;Node2259 -->
<g id="edge3" class="edge">
<title>Node2257&#45;&gt;Node2259</title>
<path fill="none" stroke="#191970" d="M207.1947,-371C215.3832,-371 224.0586,-371 232.5745,-371"/>
<polygon fill="#191970" stroke="#191970" points="232.8395,-374.5001 242.8395,-371 232.8394,-367.5001 232.8395,-374.5001"/>
</g>
<!-- Node2262 -->
<g id="node7" class="node">
<title>Node2262</title>
<g id="a_node7"><a xlink:href="acutest_8h.html#a36af1f79dd6adf0809c21e76535034d5" target="_top" xlink:title="va_end">
<polygon fill="none" stroke="#000000" points="682.5,-418.5 682.5,-437.5 730.5,-437.5 730.5,-418.5 682.5,-418.5"/>
<text text-anchor="middle" x="706.5" y="-425.5" font-family="Helvetica,sans-Serif" font-size="10.00" fill="#000000">va_end</text>
</a>
</g>
</g>
<!-- Node2257&#45;&gt;Node2262 -->
<g id="edge28" class="edge">
<title>Node2257&#45;&gt;Node2262</title>
<path fill="none" stroke="#191970" d="M179.2788,-380.7328C212.4831,-401.35 294.3331,-449.3074 370,-471 476.9759,-501.6685 513.4039,-516.9634 620,-485 646.4056,-477.0821 672.2011,-458.2111 688.6505,-444.342"/>
<polygon fill="#191970" stroke="#191970" points="691.1139,-446.8379 696.3543,-437.6298 686.5154,-441.5601 691.1139,-446.8379"/>
</g>
<!-- Node2260 -->
<g id="node5" class="node">
<title>Node2260</title>
<g id="a_node5"><a xlink:href="strerror_8c.html#a42c2cc9f76fb9dac723a1903c181e1c7" target="_top" xlink:title="Initialise thread local storage. ">
<polygon fill="none" stroke="#000000" points="379,-418.5 379,-437.5 456,-437.5 456,-418.5 379,-418.5"/>
<text text-anchor="middle" x="417.5" y="-425.5" font-family="Helvetica,sans-Serif" font-size="10.00" fill="#000000">fr_strerror_init</text>
</a>
</g>
</g>
<!-- Node2259&#45;&gt;Node2260 -->
<g id="edge4" class="edge">
<title>Node2259&#45;&gt;Node2260</title>
<path fill="none" stroke="#191970" d="M310.0917,-380.5405C331.0208,-389.7883 362.9809,-403.9102 386.6007,-414.3468"/>
<polygon fill="#191970" stroke="#191970" points="385.2764,-417.5881 395.8379,-418.4284 388.1056,-411.1853 385.2764,-417.5881"/>
</g>
<!-- Node2261 -->
<g id="node6" class="node">
<title>Node2261</title>
<g id="a_node6"><a xlink:href="strerror_8c.html#a2c8e65d6d4b73fb705cc023f60acb099" target="_top" xlink:title="Print the current error to stderr with a prefix. ">
<polygon fill="none" stroke="#ff0000" points="534,-456.5 534,-475.5 587,-475.5 587,-456.5 534,-456.5"/>
<text text-anchor="middle" x="560.5" y="-463.5" font-family="Helvetica,sans-Serif" font-size="10.00" fill="#000000">fr_perror</text>
</a>
</g>
</g>
<!-- Node2259&#45;&gt;Node2261 -->
<g id="edge11" class="edge">
<title>Node2259&#45;&gt;Node2261</title>
<path fill="none" stroke="#191970" d="M295.2802,-380.528C307.8384,-397.3218 336.5106,-431.8452 370,-447 419.7565,-469.516 484.1227,-470.9554 523.8449,-469.0985"/>
<polygon fill="#191970" stroke="#191970" points="524.0877,-472.5904 533.8754,-468.5344 523.6946,-465.6015 524.0877,-472.5904"/>
</g>
<!-- Node2259&#45;&gt;Node2262 -->
<g id="edge26" class="edge">
<title>Node2259&#45;&gt;Node2262</title>
<path fill="none" stroke="#191970" d="M334.014,-374.7351C398.0921,-380.3299 518.4327,-392.0693 620,-409 637.4173,-411.9034 656.6156,-416.0255 672.4917,-419.6887"/>
<polygon fill="#191970" stroke="#191970" points="671.8576,-423.1349 682.3928,-422.0121 673.4569,-416.32 671.8576,-423.1349"/>
</g>
<!-- Node2268 -->
<g id="node9" class="node">
<title>Node2268</title>
<g id="a_node9"><a xlink:href="strerror_8c.html#a9d878c1ddb1b385cdaf6523fff68529c" target="_top" xlink:title="Reset cursor state. ">
<polygon fill="none" stroke="#000000" points="664,-304.5 664,-323.5 749,-323.5 749,-304.5 664,-304.5"/>
<text text-anchor="middle" x="706.5" y="-311.5" font-family="Helvetica,sans-Serif" font-size="10.00" fill="#000000">fr_strerror_clear</text>
</a>
</g>
</g>
<!-- Node2259&#45;&gt;Node2268 -->
<g id="edge10" class="edge">
<title>Node2259&#45;&gt;Node2268</title>
<path fill="none" stroke="#191970" d="M304.3671,-361.3746C320.3178,-352.2461 345.9268,-339.0533 370,-333 467.765,-308.4165 586.3441,-308.3163 653.4441,-310.8798"/>
<polygon fill="#191970" stroke="#191970" points="653.6228,-314.3902 663.7602,-311.3107 653.915,-307.3963 653.6228,-314.3902"/>
</g>
<!-- Node2269 -->
<g id="node10" class="node">
<title>Node2269</title>
<g id="a_node10"><a xlink:href="print_8c.html#a27ae94b5a4c77de49aa2f387765a4d58" target="_top" xlink:title="Special version of vasprintf which implements custom format specifiers. ">
<polygon fill="none" stroke="#000000" points="385,-171.5 385,-190.5 450,-190.5 450,-171.5 385,-171.5"/>
<text text-anchor="middle" x="417.5" y="-178.5" font-family="Helvetica,sans-Serif" font-size="10.00" fill="#000000">fr_vasprintf</text>
</a>
</g>
</g>
<!-- Node2259&#45;&gt;Node2269 -->
<g id="edge12" class="edge">
<title>Node2259&#45;&gt;Node2269</title>
<path fill="none" stroke="#191970" d="M295.0745,-361.3167C315.5135,-331.2127 378.1786,-238.9153 405.0513,-199.3353"/>
<polygon fill="#191970" stroke="#191970" points="408.0625,-201.131 410.7841,-190.8917 402.2712,-197.199 408.0625,-201.131"/>
</g>
<!-- Node2390 -->
<g id="node18" class="node">
<title>Node2390</title>
<g id="a_node18"><a xlink:href="cursor_8c.html#a5d942382660657c3b4cb6e9cb2b12b2c" target="_top" xlink:title="Insert a single item at the start of the list. ">
<polygon fill="none" stroke="#000000" points="370,-342.5 370,-361.5 465,-361.5 465,-342.5 370,-342.5"/>
<text text-anchor="middle" x="417.5" y="-349.5" font-family="Helvetica,sans-Serif" font-size="10.00" fill="#000000">fr_cursor_prepend</text>
</a>
</g>
</g>
<!-- Node2259&#45;&gt;Node2390 -->
<g id="edge27" class="edge">
<title>Node2259&#45;&gt;Node2390</title>
<path fill="none" stroke="#191970" d="M334.3438,-364.2478C342.4784,-363.0497 351.0463,-361.7878 359.4656,-360.5477"/>
<polygon fill="#191970" stroke="#191970" points="360.2395,-363.9716 369.6227,-359.0517 359.2194,-357.0463 360.2395,-363.9716"/>
</g>
<!-- Node2260&#45;&gt;Node2261 -->
<g id="edge5" class="edge">
<title>Node2260&#45;&gt;Node2261</title>
<path fill="none" stroke="#191970" d="M453.5849,-437.589C475.156,-443.3212 502.4806,-450.5823 524.1062,-456.3289"/>
<polygon fill="#191970" stroke="#191970" points="523.3431,-459.7475 533.9066,-458.9332 525.1409,-452.9823 523.3431,-459.7475"/>
</g>
<!-- Node2267 -->
<g id="node8" class="node">
<title>Node2267</title>
<g id="a_node8"><a xlink:href="strerror_8c.html#afe66becac3be1b0b82b90889d27fcf99" target="_top" xlink:title="_fr_logging_free">
<polygon fill="none" stroke="#000000" points="517.5,-418.5 517.5,-437.5 603.5,-437.5 603.5,-418.5 517.5,-418.5"/>
<text text-anchor="middle" x="560.5" y="-425.5" font-family="Helvetica,sans-Serif" font-size="10.00" fill="#000000">_fr_logging_free</text>
</a>
</g>
</g>
<!-- Node2260&#45;&gt;Node2267 -->
<g id="edge8" class="edge">
<title>Node2260&#45;&gt;Node2267</title>
<path fill="none" stroke="#191970" d="M456.1979,-428C471.884,-428 490.2593,-428 507.1797,-428"/>
<polygon fill="#191970" stroke="#191970" points="507.4901,-431.5001 517.49,-428 507.49,-424.5001 507.4901,-431.5001"/>
</g>
<!-- Node2260&#45;&gt;Node2268 -->
<g id="edge9" class="edge">
<title>Node2260&#45;&gt;Node2268</title>
<path fill="none" stroke="#191970" d="M441.6429,-418.4765C493.0678,-398.1913 613.5271,-350.6744 672.61,-327.3684"/>
<polygon fill="#191970" stroke="#191970" points="674.2045,-330.5019 682.2226,-323.5766 671.6358,-323.9902 674.2045,-330.5019"/>
</g>
<!-- Node2261&#45;&gt;Node2258 -->
<g id="edge6" class="edge">
<title>Node2261&#45;&gt;Node2258</title>
<path fill="none" stroke="#191970" d="M587.2787,-472.9698C610.68,-479.0606 644.8467,-487.9532 670.6111,-494.6591"/>
<polygon fill="#191970" stroke="#191970" points="669.8231,-498.0705 680.3823,-497.2023 671.5864,-491.2962 669.8231,-498.0705"/>
</g>
<!-- Node2261&#45;&gt;Node2262 -->
<g id="edge7" class="edge">
<title>Node2261&#45;&gt;Node2262</title>
<path fill="none" stroke="#191970" d="M587.2787,-459.0302C611.2614,-452.7881 646.551,-443.6032 672.5156,-436.8452"/>
<polygon fill="#191970" stroke="#191970" points="673.5183,-440.201 682.3143,-434.2949 671.7551,-433.4267 673.5183,-440.201"/>
</g>
<!-- Node2269&#45;&gt;Node2257 -->
<g id="edge16" class="edge">
<title>Node2269&#45;&gt;Node2257</title>
<path fill="none" stroke="#191970" d="M404.6064,-190.6638C363.6202,-221.3833 236.0381,-317.007 185.2096,-355.1033"/>
<polygon fill="#191970" stroke="#191970" points="182.8224,-352.5185 176.9196,-361.3167 187.0207,-358.1198 182.8224,-352.5185"/>
</g>
<!-- Node2269&#45;&gt;Node2262 -->
<g id="edge14" class="edge">
<title>Node2269&#45;&gt;Node2262</title>
<path fill="none" stroke="#191970" d="M427.1272,-190.5947C442.2707,-205.4914 472.8389,-234.7797 501,-257 551.2261,-296.6305 571.1257,-296.714 620,-338 647.2776,-361.0424 675.2745,-391.7056 691.7653,-410.6348"/>
<polygon fill="#191970" stroke="#191970" points="689.3092,-413.1462 698.4885,-418.4367 694.6119,-408.5766 689.3092,-413.1462"/>
</g>
<!-- Node2270 -->
<g id="node11" class="node">
<title>Node2270</title>
<g id="a_node11"><a xlink:href="value_8h.html#a878e0abfce7189a1784cdf15bc9fc3a3" target="_top" xlink:title="fr_value_box_aprint">
<polygon fill="none" stroke="#000000" points="656,-114.5 656,-133.5 757,-133.5 757,-114.5 656,-114.5"/>
<text text-anchor="middle" x="706.5" y="-121.5" font-family="Helvetica,sans-Serif" font-size="10.00" fill="#000000">fr_value_box_aprint</text>
</a>
</g>
</g>
<!-- Node2269&#45;&gt;Node2270 -->
<g id="edge13" class="edge">
<title>Node2269&#45;&gt;Node2270</title>
<path fill="none" stroke="#191970" d="M434.1485,-171.3977C450.5721,-162.4213 476.6786,-149.4606 501,-143 548.5653,-130.3651 604.2501,-125.8189 645.6473,-124.3188"/>
<polygon fill="#191970" stroke="#191970" points="645.9648,-127.8107 655.8505,-124 645.7461,-120.8141 645.9648,-127.8107"/>
</g>
<!-- Node2271 -->
<g id="node12" class="node">
<title>Node2271</title>
<g id="a_node12"><a xlink:href="talloc_8c.html#a3536feb85c89aa239851ef0830b72e64" target="_top" xlink:title="Call talloc_strdup, setting the type on the new chunk correctly. ">
<polygon fill="none" stroke="#000000" points="656,-57.5 656,-76.5 757,-76.5 757,-57.5 656,-57.5"/>
<text text-anchor="middle" x="706.5" y="-64.5" font-family="Helvetica,sans-Serif" font-size="10.00" fill="#000000">talloc_typed_strdup</text>
</a>
</g>
</g>
<!-- Node2269&#45;&gt;Node2271 -->
<g id="edge15" class="edge">
<title>Node2269&#45;&gt;Node2271</title>
<path fill="none" stroke="#191970" d="M421.0436,-171.2607C430.1038,-148.0094 456.5829,-89.5238 501,-67 550.6369,-41.8293 616.0853,-47.3342 659.645,-55.4764"/>
<polygon fill="#191970" stroke="#191970" points="659.1894,-58.9543 669.6799,-57.4711 660.5542,-52.0886 659.1894,-58.9543"/>
</g>
<!-- Node2272 -->
<g id="node13" class="node">
<title>Node2272</title>
<g id="a_node13"><a xlink:href="value_8c.html#a3a0550d465b81917f8b0c69a3373163e" target="_top" xlink:title="Convert one type of fr_value_box_t to another. ">
<polygon fill="none" stroke="#ff0000" points="512.5,-.5 512.5,-19.5 608.5,-19.5 608.5,-.5 512.5,-.5"/>
<text text-anchor="middle" x="560.5" y="-7.5" font-family="Helvetica,sans-Serif" font-size="10.00" fill="#000000">fr_value_box_cast</text>
</a>
</g>
</g>
<!-- Node2269&#45;&gt;Node2272 -->
<g id="edge17" class="edge">
<title>Node2269&#45;&gt;Node2272</title>
<path fill="none" stroke="#191970" d="M421.9771,-171.2808C435.6878,-141.8536 477.5856,-54.4867 501,-34 505.511,-30.0531 510.7546,-26.705 516.2235,-23.8784"/>
<polygon fill="#191970" stroke="#191970" points="517.9202,-26.9508 525.5503,-19.6002 515.0017,-20.5882 517.9202,-26.9508"/>
</g>
<!-- Node2386 -->
<g id="node14" class="node">
<title>Node2386</title>
<g id="a_node14"><a xlink:href="strerror_8c.html#a83ee876ee41b1ae672dc4dcda4f02a2e" target="_top" xlink:title="Get the last library error. ">
<polygon fill="none" stroke="#ff0000" points="531,-152.5 531,-171.5 590,-171.5 590,-152.5 531,-152.5"/>
<text text-anchor="middle" x="560.5" y="-159.5" font-family="Helvetica,sans-Serif" font-size="10.00" fill="#000000">fr_strerror</text>
</a>
</g>
</g>
<!-- Node2269&#45;&gt;Node2386 -->
<g id="edge19" class="edge">
<title>Node2269&#45;&gt;Node2386</title>
<path fill="none" stroke="#191970" d="M450.3071,-176.641C471.2353,-173.8603 498.4926,-170.2388 520.6614,-167.2932"/>
<polygon fill="#191970" stroke="#191970" points="521.314,-170.7374 530.7658,-165.9507 520.3919,-163.7984 521.314,-170.7374"/>
</g>
<!-- Node2282 -->
<g id="node15" class="node">
<title>Node2282</title>
<g id="a_node15"><a xlink:href="value_8c.html#ad5da2574fed047b3ae861999d06c38ac" target="_top" xlink:title="Clear/free any existing value and metadata. ">
<polygon fill="none" stroke="#ff0000" points="511.5,-228.5 511.5,-247.5 609.5,-247.5 609.5,-228.5 511.5,-228.5"/>
<text text-anchor="middle" x="560.5" y="-235.5" font-family="Helvetica,sans-Serif" font-size="10.00" fill="#000000">fr_value_box_clear</text>
</a>
</g>
</g>
<!-- Node2269&#45;&gt;Node2282 -->
<g id="edge21" class="edge">
<title>Node2269&#45;&gt;Node2282</title>
<path fill="none" stroke="#191970" d="M436.7936,-190.5665C453.542,-198.6803 478.561,-210.3461 501,-219 506.5741,-221.1497 512.5047,-223.2541 518.3803,-225.2332"/>
<polygon fill="#191970" stroke="#191970" points="517.5511,-228.6445 528.1438,-228.4313 519.7301,-221.9923 517.5511,-228.6445"/>
</g>
<!-- Node2387 -->
<g id="node16" class="node">
<title>Node2387</title>
<g id="a_node16"><a xlink:href="value_8c.html#a1064a346792dc1e5ecf05d04b4c1af55" target="_top" xlink:title="Concatenate the string representations of a list of value boxes together. ">
<polygon fill="none" stroke="#ff0000" points="501,-76.5 501,-95.5 620,-95.5 620,-76.5 501,-76.5"/>
<text text-anchor="middle" x="560.5" y="-83.5" font-family="Helvetica,sans-Serif" font-size="10.00" fill="#000000">fr_value_box_list_aprint</text>
</a>
</g>
</g>
<!-- Node2269&#45;&gt;Node2387 -->
<g id="edge22" class="edge">
<title>Node2269&#45;&gt;Node2387</title>
<path fill="none" stroke="#191970" d="M426.9695,-171.1255C441.6653,-156.2488 471.3678,-127.9253 501,-110 507.4867,-106.076 514.73,-102.5421 521.869,-99.4682"/>
<polygon fill="#191970" stroke="#191970" points="523.514,-102.5777 531.4587,-95.5683 520.8769,-96.0934 523.514,-102.5777"/>
</g>
<!-- Node2389 -->
<g id="node17" class="node">
<title>Node2389</title>
<g id="a_node17"><a xlink:href="util_2pair_8h.html#acfe6934363fefdc67e14fc08a205952b" target="_top" xlink:title="fr_pair_aprint">
<polygon fill="none" stroke="#000000" points="524,-190.5 524,-209.5 597,-209.5 597,-190.5 524,-190.5"/>
<text text-anchor="middle" x="560.5" y="-197.5" font-family="Helvetica,sans-Serif" font-size="10.00" fill="#000000">fr_pair_aprint</text>
</a>
</g>
</g>
<!-- Node2269&#45;&gt;Node2389 -->
<g id="edge25" class="edge">
<title>Node2269&#45;&gt;Node2389</title>
<path fill="none" stroke="#191970" d="M450.3071,-185.359C469.0708,-187.8521 492.922,-191.0211 513.6322,-193.7728"/>
<polygon fill="#191970" stroke="#191970" points="513.4466,-197.2788 523.8205,-195.1265 514.3686,-190.3398 513.4466,-197.2788"/>
</g>
<!-- Node2272&#45;&gt;Node2257 -->
<g id="edge18" class="edge">
<title>Node2272&#45;&gt;Node2257</title>
<path fill="none" stroke="#191970" d="M542.7718,-19.6193C491.3087,-48.2075 339.4423,-137.3399 243,-244 212.0975,-278.1765 186.0792,-325.9917 173.0214,-352.1182"/>
<polygon fill="#191970" stroke="#191970" points="169.7827,-350.7735 168.5254,-361.2935 176.0686,-353.8537 169.7827,-350.7735"/>
</g>
<!-- Node2386&#45;&gt;Node2268 -->
<g id="edge20" class="edge">
<title>Node2386&#45;&gt;Node2268</title>
<path fill="none" stroke="#191970" d="M590.2511,-167.2411C600.4131,-170.0857 611.3781,-174.4235 620,-181 659.9853,-211.4996 686.934,-266.1451 699.1029,-294.9813"/>
<polygon fill="#191970" stroke="#191970" points="695.9024,-296.4024 702.9143,-304.345 702.3859,-293.7633 695.9024,-296.4024"/>
</g>
<!-- Node2387&#45;&gt;Node2270 -->
<g id="edge23" class="edge">
<title>Node2387&#45;&gt;Node2270</title>
<path fill="none" stroke="#191970" d="M597.342,-95.589C616.3479,-100.5358 639.7286,-106.6211 659.9692,-111.8892"/>
<polygon fill="#191970" stroke="#191970" points="659.3638,-115.3482 669.923,-114.4799 661.127,-108.5739 659.3638,-115.3482"/>
</g>
<!-- Node2387&#45;&gt;Node2271 -->
<g id="edge24" class="edge">
<title>Node2387&#45;&gt;Node2271</title>
<path fill="none" stroke="#191970" d="M620.305,-78.2172C628.703,-77.1243 637.3419,-76 645.7571,-74.9049"/>
<polygon fill="#191970" stroke="#191970" points="646.4149,-78.3489 655.8796,-73.5876 645.5115,-71.4074 646.4149,-78.3489"/>
</g>
</g>
</svg>
