<?xml version="1.0" encoding="UTF-8" standalone="no"?>
<!DOCTYPE svg PUBLIC "-//W3C//DTD SVG 1.1//EN"
 "http://www.w3.org/Graphics/SVG/1.1/DTD/svg11.dtd">
<!-- Generated by graphviz version 2.40.1 (20161225.0304)
 -->
<!-- Title: comp128v23 Pages: 1 -->
<svg width="621pt" height="169pt"
 viewBox="0.00 0.00 621.00 169.00" xmlns="http://www.w3.org/2000/svg" xmlns:xlink="http://www.w3.org/1999/xlink">
<g id="graph0" class="graph" transform="scale(1 1) rotate(0) translate(4 165)">
<title>comp128v23</title>
<!-- Node29 -->
<g id="node1" class="node">
<title>Node29</title>
<polygon fill="#bfbfbf" stroke="#000000" points="0,-85.5 0,-104.5 72,-104.5 72,-85.5 0,-85.5"/>
<text text-anchor="middle" x="36" y="-92.5" font-family="Helvetica,sans-Serif" font-size="10.00" fill="#000000">comp128v23</text>
</g>
<!-- Node30 -->
<g id="node2" class="node">
<title>Node30</title>
<g id="a_node2"><a xlink:href="comp128_8c.html#aa9ad473cf971e220b69a35299eaaf4de" target="_top" xlink:title="_comp128v23">
<polygon fill="none" stroke="#000000" points="216,-141.5 216,-160.5 293,-160.5 293,-141.5 216,-141.5"/>
<text text-anchor="middle" x="254.5" y="-148.5" font-family="Helvetica,sans-Serif" font-size="10.00" fill="#000000">_comp128v23</text>
</a>
</g>
</g>
<!-- Node29&#45;&gt;Node30 -->
<g id="edge1" class="edge">
<title>Node29&#45;&gt;Node30</title>
<path fill="none" stroke="#191970" d="M44.5537,-104.8805C56.9438,-118.3518 81.338,-141.8521 108,-151 139.3117,-161.7433 176.6529,-161.5625 205.799,-158.7885"/>
<polygon fill="#191970" stroke="#191970" points="206.1777,-162.2681 215.7432,-157.7129 205.4248,-155.3087 206.1777,-162.2681"/>
</g>
<!-- Node31 -->
<g id="node3" class="node">
<title>Node31</title>
<g id="a_node3"><a xlink:href="radclient_8c.html#a3c04138a5bfe5d72780bb7e82a18e627" target="_top" xlink:title="main">
<polygon fill="none" stroke="#000000" points="235.5,-85.5 235.5,-104.5 273.5,-104.5 273.5,-85.5 235.5,-85.5"/>
<text text-anchor="middle" x="254.5" y="-92.5" font-family="Helvetica,sans-Serif" font-size="10.00" fill="#000000">main</text>
</a>
</g>
</g>
<!-- Node29&#45;&gt;Node31 -->
<g id="edge2" class="edge">
<title>Node29&#45;&gt;Node31</title>
<path fill="none" stroke="#191970" d="M72.0808,-95C114.9389,-95 185.6006,-95 225.2245,-95"/>
<polygon fill="#191970" stroke="#191970" points="225.2951,-98.5001 235.2951,-95 225.2951,-91.5001 225.2951,-98.5001"/>
</g>
<!-- Node32 -->
<g id="node4" class="node">
<title>Node32</title>
<g id="a_node4"><a xlink:href="comp128_8c.html#a5d4168028ccd505946cb69b67abdd297" target="_top" xlink:title="Calculate comp128v2 or comp128v3 sres and kc from ki and rand. ">
<polygon fill="none" stroke="#000000" points="108,-104.5 108,-123.5 180,-123.5 180,-104.5 108,-104.5"/>
<text text-anchor="middle" x="144" y="-111.5" font-family="Helvetica,sans-Serif" font-size="10.00" fill="#000000">comp128v23</text>
</a>
</g>
</g>
<!-- Node29&#45;&gt;Node32 -->
<g id="edge3" class="edge">
<title>Node29&#45;&gt;Node32</title>
<path fill="none" stroke="#191970" d="M72.2629,-101.3796C80.4552,-102.8208 89.2602,-104.3699 97.7994,-105.8721"/>
<polygon fill="#191970" stroke="#191970" points="97.1938,-109.3192 107.649,-107.6049 98.4067,-102.4251 97.1938,-109.3192"/>
</g>
<!-- Node33 -->
<g id="node5" class="node">
<title>Node33</title>
<g id="a_node5"><a xlink:href="comp128_8c.html#a35fa4083227dc609086c80b66d05950d" target="_top" xlink:title="Calculate comp128v1 sres and kc from ki and rand. ">
<polygon fill="none" stroke="#000000" points="221,-38.5 221,-57.5 288,-57.5 288,-38.5 221,-38.5"/>
<text text-anchor="middle" x="254.5" y="-45.5" font-family="Helvetica,sans-Serif" font-size="10.00" fill="#000000">comp128v1</text>
</a>
</g>
</g>
<!-- Node29&#45;&gt;Node33 -->
<g id="edge12" class="edge">
<title>Node29&#45;&gt;Node33</title>
<path fill="none" stroke="#191970" d="M72.0808,-87.2389C110.1847,-79.0426 170.2658,-66.119 210.9727,-57.3629"/>
<polygon fill="#191970" stroke="#191970" points="211.8389,-60.7567 220.8793,-55.2319 210.3668,-53.9132 211.8389,-60.7567"/>
</g>
<!-- Node32&#45;&gt;Node30 -->
<g id="edge4" class="edge">
<title>Node32&#45;&gt;Node30</title>
<path fill="none" stroke="#191970" d="M172.4565,-123.5284C185.7573,-127.9821 201.7915,-133.351 216.1432,-138.1566"/>
<polygon fill="#191970" stroke="#191970" points="215.162,-141.5189 225.7559,-141.3753 217.3847,-134.8812 215.162,-141.5189"/>
</g>
<!-- Node32&#45;&gt;Node31 -->
<g id="edge5" class="edge">
<title>Node32&#45;&gt;Node31</title>
<path fill="none" stroke="#191970" d="M180.1818,-107.7787C194.8277,-105.2604 211.5112,-102.3917 225.3552,-100.0113"/>
<polygon fill="#191970" stroke="#191970" points="226.0454,-103.4441 235.3076,-98.3001 224.8591,-96.5453 226.0454,-103.4441"/>
</g>
<!-- Node32&#45;&gt;Node32 -->
<g id="edge6" class="edge">
<title>Node32&#45;&gt;Node32</title>
<path fill="none" stroke="#191970" d="M127.3541,-123.7571C119.256,-132.5653 124.8047,-142 144,-142 155.9971,-142 162.6634,-138.3146 163.999,-133.4"/>
<polygon fill="#191970" stroke="#191970" points="167.2362,-132.0528 160.6459,-123.7571 160.6245,-134.3519 167.2362,-132.0528"/>
</g>
<!-- Node32&#45;&gt;Node33 -->
<g id="edge7" class="edge">
<title>Node32&#45;&gt;Node33</title>
<path fill="none" stroke="#191970" d="M160.3047,-104.2615C178.608,-93.3292 208.5137,-75.4669 229.7138,-62.8045"/>
<polygon fill="#191970" stroke="#191970" points="231.6973,-65.6966 238.4877,-57.5639 228.1078,-59.6869 231.6973,-65.6966"/>
</g>
<!-- Node34 -->
<g id="node6" class="node">
<title>Node34</title>
<g id="a_node6"><a xlink:href="comp128_8c.html#a7f442d38026c015efd256e76a921990b" target="_top" xlink:title="_comp128_compression">
<polygon fill="none" stroke="#000000" points="331,-76.5 331,-95.5 453,-95.5 453,-76.5 331,-76.5"/>
<text text-anchor="middle" x="392" y="-83.5" font-family="Helvetica,sans-Serif" font-size="10.00" fill="#000000">_comp128_compression</text>
</a>
</g>
</g>
<!-- Node33&#45;&gt;Node34 -->
<g id="edge8" class="edge">
<title>Node33&#45;&gt;Node34</title>
<path fill="none" stroke="#191970" d="M288.1363,-57.2958C306.0101,-62.2355 328.2122,-68.3714 347.4956,-73.7006"/>
<polygon fill="#191970" stroke="#191970" points="346.7041,-77.113 357.2752,-76.4033 348.5688,-70.3659 346.7041,-77.113"/>
</g>
<!-- Node36 -->
<g id="node8" class="node">
<title>Node36</title>
<g id="a_node8"><a xlink:href="comp128_8c.html#a5e99217608aeb1dabc679eeb9d2b22fd" target="_top" xlink:title="_comp128_bitsfrombytes">
<polygon fill="none" stroke="#000000" points="329,-38.5 329,-57.5 455,-57.5 455,-38.5 329,-38.5"/>
<text text-anchor="middle" x="392" y="-45.5" font-family="Helvetica,sans-Serif" font-size="10.00" fill="#000000">_comp128_bitsfrombytes</text>
</a>
</g>
</g>
<!-- Node33&#45;&gt;Node36 -->
<g id="edge10" class="edge">
<title>Node33&#45;&gt;Node36</title>
<path fill="none" stroke="#191970" d="M288.1363,-48C297.475,-48 307.9954,-48 318.6637,-48"/>
<polygon fill="#191970" stroke="#191970" points="318.9037,-51.5001 328.9036,-48 318.9036,-44.5001 318.9037,-51.5001"/>
</g>
<!-- Node37 -->
<g id="node9" class="node">
<title>Node37</title>
<g id="a_node9"><a xlink:href="comp128_8c.html#a4c473f3b288df76d3bed9004d14ac1e5" target="_top" xlink:title="_comp128_permutation">
<polygon fill="none" stroke="#000000" points="333,-.5 333,-19.5 451,-19.5 451,-.5 333,-.5"/>
<text text-anchor="middle" x="392" y="-7.5" font-family="Helvetica,sans-Serif" font-size="10.00" fill="#000000">_comp128_permutation</text>
</a>
</g>
</g>
<!-- Node33&#45;&gt;Node37 -->
<g id="edge11" class="edge">
<title>Node33&#45;&gt;Node37</title>
<path fill="none" stroke="#191970" d="M288.1363,-38.7042C306.0101,-33.7645 328.2122,-27.6286 347.4956,-22.2994"/>
<polygon fill="#191970" stroke="#191970" points="348.5688,-25.6341 357.2752,-19.5967 346.7041,-18.887 348.5688,-25.6341"/>
</g>
<!-- Node35 -->
<g id="node7" class="node">
<title>Node35</title>
<g id="a_node7"><a xlink:href="comp128_8c.html#a0304701c01325fbee210e956ecfb5d8a" target="_top" xlink:title="_comp128_compression\l_round">
<polygon fill="none" stroke="#000000" points="491,-71 491,-101 613,-101 613,-71 491,-71"/>
<text text-anchor="start" x="499" y="-89" font-family="Helvetica,sans-Serif" font-size="10.00" fill="#000000">_comp128_compression</text>
<text text-anchor="middle" x="552" y="-78" font-family="Helvetica,sans-Serif" font-size="10.00" fill="#000000">_round</text>
</a>
</g>
</g>
<!-- Node34&#45;&gt;Node35 -->
<g id="edge9" class="edge">
<title>Node34&#45;&gt;Node35</title>
<path fill="none" stroke="#191970" d="M453.4026,-86C462.3027,-86 471.5279,-86 480.6037,-86"/>
<polygon fill="#191970" stroke="#191970" points="480.7618,-89.5001 490.7617,-86 480.7617,-82.5001 480.7618,-89.5001"/>
</g>
</g>
</svg>
