<?xml version="1.0" encoding="UTF-8" standalone="no"?>
<!DOCTYPE svg PUBLIC "-//W3C//DTD SVG 1.1//EN"
 "http://www.w3.org/Graphics/SVG/1.1/DTD/svg11.dtd">
<!-- Generated by graphviz version 2.40.1 (20161225.0304)
 -->
<!-- Title: validate_limited_subsection Pages: 1 -->
<svg width="452pt" height="116pt"
 viewBox="0.00 0.00 452.00 116.00" xmlns="http://www.w3.org/2000/svg" xmlns:xlink="http://www.w3.org/1999/xlink">
<g id="graph0" class="graph" transform="scale(1 1) rotate(0) translate(4 112)">
<title>validate_limited_subsection</title>
<!-- Node28936 -->
<g id="node1" class="node">
<title>Node28936</title>
<polygon fill="#bfbfbf" stroke="#000000" points="0,-44.5 0,-63.5 137,-63.5 137,-44.5 0,-44.5"/>
<text text-anchor="middle" x="68.5" y="-51.5" font-family="Helvetica,sans-Serif" font-size="10.00" fill="#000000">validate_limited_subsection</text>
</g>
<!-- Node28937 -->
<g id="node2" class="node">
<title>Node28937</title>
<g id="a_node2"><a xlink:href="compile_8c.html#ad55795ffa4c45845623d201a7d1c8bd9" target="_top" xlink:title="compile_redundant">
<polygon fill="none" stroke="#000000" points="180.5,-88.5 180.5,-107.5 278.5,-107.5 278.5,-88.5 180.5,-88.5"/>
<text text-anchor="middle" x="229.5" y="-95.5" font-family="Helvetica,sans-Serif" font-size="10.00" fill="#000000">compile_redundant</text>
</a>
</g>
</g>
<!-- Node28936&#45;&gt;Node28937 -->
<g id="edge1" class="edge">
<title>Node28936&#45;&gt;Node28937</title>
<path fill="none" stroke="#191970" d="M113.316,-66.2478C139.0195,-73.2724 170.8083,-81.96 194.6336,-88.4713"/>
<polygon fill="#191970" stroke="#191970" points="114.0036,-62.8075 103.4346,-63.5473 112.1581,-69.5599 114.0036,-62.8075"/>
</g>
<!-- Node28938 -->
<g id="node3" class="node">
<title>Node28938</title>
<g id="a_node3"><a xlink:href="compile_8c.html#aae68647b3b1590f35a598025b9b39f55" target="_top" xlink:title="compile_load_balance\l_subsection">
<polygon fill="none" stroke="#000000" points="173,-39 173,-69 286,-69 286,-39 173,-39"/>
<text text-anchor="start" x="181" y="-57" font-family="Helvetica,sans-Serif" font-size="10.00" fill="#000000">compile_load_balance</text>
<text text-anchor="middle" x="229.5" y="-46" font-family="Helvetica,sans-Serif" font-size="10.00" fill="#000000">_subsection</text>
</a>
</g>
</g>
<!-- Node28936&#45;&gt;Node28938 -->
<g id="edge2" class="edge">
<title>Node28936&#45;&gt;Node28938</title>
<path fill="none" stroke="#191970" d="M147.2556,-54C155.8127,-54 164.3961,-54 172.6188,-54"/>
<polygon fill="#191970" stroke="#191970" points="147.2455,-50.5001 137.2455,-54 147.2455,-57.5001 147.2455,-50.5001"/>
</g>
<!-- Node28941 -->
<g id="node6" class="node">
<title>Node28941</title>
<g id="a_node6"><a xlink:href="compile_8c.html#a5aa63c8fea501397c8703b00878ff0bf" target="_top" xlink:title="compile_parallel">
<polygon fill="none" stroke="#000000" points="186.5,-.5 186.5,-19.5 272.5,-19.5 272.5,-.5 186.5,-.5"/>
<text text-anchor="middle" x="229.5" y="-7.5" font-family="Helvetica,sans-Serif" font-size="10.00" fill="#000000">compile_parallel</text>
</a>
</g>
</g>
<!-- Node28936&#45;&gt;Node28941 -->
<g id="edge5" class="edge">
<title>Node28936&#45;&gt;Node28941</title>
<path fill="none" stroke="#191970" d="M113.316,-41.7522C139.0195,-34.7276 170.8083,-26.04 194.6336,-19.5287"/>
<polygon fill="#191970" stroke="#191970" points="112.1581,-38.4401 103.4346,-44.4527 114.0036,-45.1925 112.1581,-38.4401"/>
</g>
<!-- Node28939 -->
<g id="node4" class="node">
<title>Node28939</title>
<g id="a_node4"><a xlink:href="compile_8c.html#aa8e03e6c7a0d4d93078422e0988f4368" target="_top" xlink:title="compile_load_balance">
<polygon fill="none" stroke="#000000" points="326.5,-66.5 326.5,-85.5 439.5,-85.5 439.5,-66.5 326.5,-66.5"/>
<text text-anchor="middle" x="383" y="-73.5" font-family="Helvetica,sans-Serif" font-size="10.00" fill="#000000">compile_load_balance</text>
</a>
</g>
</g>
<!-- Node28938&#45;&gt;Node28939 -->
<g id="edge3" class="edge">
<title>Node28938&#45;&gt;Node28939</title>
<path fill="none" stroke="#191970" d="M296.1518,-63.5527C306.186,-64.9908 316.4547,-66.4626 326.2554,-67.8672"/>
<polygon fill="#191970" stroke="#191970" points="296.6171,-60.0837 286.2216,-62.1295 295.6239,-67.0129 296.6171,-60.0837"/>
</g>
<!-- Node28940 -->
<g id="node5" class="node">
<title>Node28940</title>
<g id="a_node5"><a xlink:href="compile_8c.html#ad253f49438090c159258353114dfdb9d" target="_top" xlink:title="compile_redundant_load\l_balance">
<polygon fill="none" stroke="#000000" points="322,-17 322,-47 444,-47 444,-17 322,-17"/>
<text text-anchor="start" x="330" y="-35" font-family="Helvetica,sans-Serif" font-size="10.00" fill="#000000">compile_redundant_load</text>
<text text-anchor="middle" x="383" y="-24" font-family="Helvetica,sans-Serif" font-size="10.00" fill="#000000">_balance</text>
</a>
</g>
</g>
<!-- Node28938&#45;&gt;Node28940 -->
<g id="edge4" class="edge">
<title>Node28938&#45;&gt;Node28940</title>
<path fill="none" stroke="#191970" d="M296.1518,-44.4473C304.6995,-43.2222 313.4172,-41.9728 321.871,-40.7612"/>
<polygon fill="#191970" stroke="#191970" points="295.6239,-40.9871 286.2216,-45.8705 296.6171,-47.9163 295.6239,-40.9871"/>
</g>
</g>
</svg>
