<?xml version="1.0" encoding="UTF-8" standalone="no"?>
<!DOCTYPE svg PUBLIC "-//W3C//DTD SVG 1.1//EN"
 "http://www.w3.org/Graphics/SVG/1.1/DTD/svg11.dtd">
<!-- Generated by graphviz version 2.40.1 (20161225.0304)
 -->
<!-- Title: _comp128_bitsfrombytes Pages: 1 -->
<svg width="795pt" height="62pt"
 viewBox="0.00 0.00 795.00 61.50" xmlns="http://www.w3.org/2000/svg" xmlns:xlink="http://www.w3.org/1999/xlink">
<g id="graph0" class="graph" transform="scale(1 1) rotate(0) translate(4 57.5)">
<title>_comp128_bitsfrombytes</title>
<!-- Node1 -->
<g id="node1" class="node">
<title>Node1</title>
<polygon fill="#bfbfbf" stroke="#000000" points="0,-28.5 0,-47.5 126,-47.5 126,-28.5 0,-28.5"/>
<text text-anchor="middle" x="63" y="-35.5" font-family="Helvetica,sans-Serif" font-size="10.00" fill="#000000">_comp128_bitsfrombytes</text>
</g>
<!-- Node2 -->
<g id="node2" class="node">
<title>Node2</title>
<g id="a_node2"><a xlink:href="comp128_8h.html#a35fa4083227dc609086c80b66d05950d" target="_top" xlink:title="Calculate comp128v1 sres and kc from ki and rand. ">
<polygon fill="none" stroke="#000000" points="162,-28.5 162,-47.5 229,-47.5 229,-28.5 162,-28.5"/>
<text text-anchor="middle" x="195.5" y="-35.5" font-family="Helvetica,sans-Serif" font-size="10.00" fill="#000000">comp128v1</text>
</a>
</g>
</g>
<!-- Node1&#45;&gt;Node2 -->
<g id="edge1" class="edge">
<title>Node1&#45;&gt;Node2</title>
<path fill="none" stroke="#191970" d="M136.2035,-38C145.0792,-38 153.7866,-38 161.6789,-38"/>
<polygon fill="#191970" stroke="#191970" points="136.1456,-34.5001 126.1455,-38 136.1455,-41.5001 136.1456,-34.5001"/>
</g>
<!-- Node3 -->
<g id="node3" class="node">
<title>Node3</title>
<g id="a_node3"><a xlink:href="vector_8c.html#ae726cc3a3569de8f5c957ca9c3aacd21" target="_top" xlink:title="vector_gsm_from_ki">
<polygon fill="none" stroke="#000000" points="373,-28.5 373,-47.5 478,-47.5 478,-28.5 373,-28.5"/>
<text text-anchor="middle" x="425.5" y="-35.5" font-family="Helvetica,sans-Serif" font-size="10.00" fill="#000000">vector_gsm_from_ki</text>
</a>
</g>
</g>
<!-- Node2&#45;&gt;Node3 -->
<g id="edge2" class="edge">
<title>Node2&#45;&gt;Node3</title>
<path fill="none" stroke="#191970" d="M239.4431,-44.5598C247.9055,-45.5766 256.7134,-46.4657 265,-47 296.9337,-49.0591 305.0411,-48.6209 337,-47 348.568,-46.4133 360.9539,-45.3979 372.6856,-44.2553"/>
<polygon fill="#191970" stroke="#191970" points="239.7133,-41.066 229.3506,-43.2716 238.8269,-48.0097 239.7133,-41.066"/>
</g>
<!-- Node25 -->
<g id="node6" class="node">
<title>Node25</title>
<g id="a_node6"><a xlink:href="comp128_8h.html#a5d4168028ccd505946cb69b67abdd297" target="_top" xlink:title="Calculate comp128v2 or comp128v3 sres and kc from ki and rand. ">
<polygon fill="none" stroke="#000000" points="265,-.5 265,-19.5 337,-19.5 337,-.5 265,-.5"/>
<text text-anchor="middle" x="301" y="-7.5" font-family="Helvetica,sans-Serif" font-size="10.00" fill="#000000">comp128v23</text>
</a>
</g>
</g>
<!-- Node2&#45;&gt;Node25 -->
<g id="edge5" class="edge">
<title>Node2&#45;&gt;Node25</title>
<path fill="none" stroke="#191970" d="M239.1096,-26.4259C247.7577,-24.1307 256.7438,-21.7457 265.0996,-19.5281"/>
<polygon fill="#191970" stroke="#191970" points="237.9385,-23.1155 229.1709,-29.0636 239.7342,-29.8812 237.9385,-23.1155"/>
</g>
<!-- Node4 -->
<g id="node4" class="node">
<title>Node4</title>
<g id="a_node4"><a xlink:href="vector_8c.html#a8228ce13a351899c989ef598c750b7d5" target="_top" xlink:title="Retrieve GSM triplets from sets of attributes. ">
<polygon fill="none" stroke="#000000" points="514,-23 514,-53 635,-53 635,-23 514,-23"/>
<text text-anchor="start" x="522" y="-41" font-family="Helvetica,sans-Serif" font-size="10.00" fill="#000000">fr_aka_sim_vector_gsm</text>
<text text-anchor="middle" x="574.5" y="-30" font-family="Helvetica,sans-Serif" font-size="10.00" fill="#000000">_from_attrs</text>
</a>
</g>
</g>
<!-- Node3&#45;&gt;Node4 -->
<g id="edge3" class="edge">
<title>Node3&#45;&gt;Node4</title>
<path fill="none" stroke="#191970" d="M488.2225,-38C496.6866,-38 505.3587,-38 513.7869,-38"/>
<polygon fill="#191970" stroke="#191970" points="488.0319,-34.5001 478.0318,-38 488.0318,-41.5001 488.0319,-34.5001"/>
</g>
<!-- Node5 -->
<g id="node5" class="node">
<title>Node5</title>
<g id="a_node5"><a xlink:href="state__machine_8c.html#a9da0659adc8c9ae907ff398401ac30d7" target="_top" xlink:title="Send a EAP&#45;Request/SIM&#45;Challenge message to the supplicant. ">
<polygon fill="none" stroke="#ff0000" points="671,-23 671,-53 787,-53 787,-23 671,-23"/>
<text text-anchor="start" x="679" y="-41" font-family="Helvetica,sans-Serif" font-size="10.00" fill="#000000">sim_challenge_request</text>
<text text-anchor="middle" x="729" y="-30" font-family="Helvetica,sans-Serif" font-size="10.00" fill="#000000">_compose</text>
</a>
</g>
</g>
<!-- Node4&#45;&gt;Node5 -->
<g id="edge4" class="edge">
<title>Node4&#45;&gt;Node5</title>
<path fill="none" stroke="#191970" d="M645.136,-38C653.7341,-38 662.4422,-38 670.8301,-38"/>
<polygon fill="#191970" stroke="#191970" points="645.1191,-34.5001 635.1191,-38 645.119,-41.5001 645.1191,-34.5001"/>
</g>
<!-- Node25&#45;&gt;Node3 -->
<g id="edge6" class="edge">
<title>Node25&#45;&gt;Node3</title>
<path fill="none" stroke="#191970" d="M347.0781,-20.3629C358.8288,-23.0057 371.4055,-25.8342 382.9698,-28.435"/>
<polygon fill="#191970" stroke="#191970" points="347.5349,-16.8783 337.0106,-18.0988 345.9989,-23.7077 347.5349,-16.8783"/>
</g>
<!-- Node25&#45;&gt;Node25 -->
<g id="edge7" class="edge">
<title>Node25&#45;&gt;Node25</title>
<path fill="none" stroke="#191970" d="M281.7417,-29.4C283.0278,-34.3146 289.4473,-38 301,-38 319.4844,-38 324.8275,-28.5653 317.0294,-19.7571"/>
<polygon fill="#191970" stroke="#191970" points="285.1142,-30.3509 284.9706,-19.7571 278.4765,-28.1283 285.1142,-30.3509"/>
</g>
</g>
</svg>
