<?xml version="1.0" encoding="UTF-8" standalone="no"?>
<!DOCTYPE svg PUBLIC "-//W3C//DTD SVG 1.1//EN"
 "http://www.w3.org/Graphics/SVG/1.1/DTD/svg11.dtd">
<!-- Generated by graphviz version 2.40.1 (20161225.0304)
 -->
<!-- Title: compile_action_pair Pages: 1 -->
<svg width="330pt" height="104pt"
 viewBox="0.00 0.00 330.00 104.00" xmlns="http://www.w3.org/2000/svg" xmlns:xlink="http://www.w3.org/1999/xlink">
<g id="graph0" class="graph" transform="scale(1 1) rotate(0) translate(4 100)">
<title>compile_action_pair</title>
<!-- Node1 -->
<g id="node1" class="node">
<title>Node1</title>
<polygon fill="#bfbfbf" stroke="#000000" points="0,-38.5 0,-57.5 103,-57.5 103,-38.5 0,-38.5"/>
<text text-anchor="middle" x="51.5" y="-45.5" font-family="Helvetica,sans-Serif" font-size="10.00" fill="#000000">compile_action_pair</text>
</g>
<!-- Node2 -->
<g id="node2" class="node">
<title>Node2</title>
<g id="a_node2"><a xlink:href="cf__util_8c.html#a187b41a9251efe3956a13189a0d08723" target="_top" xlink:title="Return the attr of a CONF_PAIR. ">
<polygon fill="none" stroke="#000000" points="143.5,-76.5 143.5,-95.5 208.5,-95.5 208.5,-76.5 143.5,-76.5"/>
<text text-anchor="middle" x="176" y="-83.5" font-family="Helvetica,sans-Serif" font-size="10.00" fill="#000000">cf_pair_attr</text>
</a>
</g>
</g>
<!-- Node1&#45;&gt;Node2 -->
<g id="edge1" class="edge">
<title>Node1&#45;&gt;Node2</title>
<path fill="none" stroke="#191970" d="M82.9166,-57.589C98.6935,-62.4044 118.0054,-68.2988 134.9412,-73.468"/>
<polygon fill="#191970" stroke="#191970" points="134.0073,-76.8423 144.5934,-76.4141 136.0508,-70.1472 134.0073,-76.8423"/>
</g>
<!-- Node3 -->
<g id="node3" class="node">
<title>Node3</title>
<g id="a_node3"><a xlink:href="cf__util_8c.html#a6009a34d7c2ce9c90082595491a17339" target="_top" xlink:title="Return the value of a CONF_PAIR. ">
<polygon fill="none" stroke="#000000" points="139,-38.5 139,-57.5 213,-57.5 213,-38.5 139,-38.5"/>
<text text-anchor="middle" x="176" y="-45.5" font-family="Helvetica,sans-Serif" font-size="10.00" fill="#000000">cf_pair_value</text>
</a>
</g>
</g>
<!-- Node1&#45;&gt;Node3 -->
<g id="edge2" class="edge">
<title>Node1&#45;&gt;Node3</title>
<path fill="none" stroke="#191970" d="M103.2176,-48C111.5792,-48 120.2019,-48 128.4584,-48"/>
<polygon fill="#191970" stroke="#191970" points="128.6736,-51.5001 138.6736,-48 128.6735,-44.5001 128.6736,-51.5001"/>
</g>
<!-- Node4 -->
<g id="node4" class="node">
<title>Node4</title>
<g id="a_node4"><a xlink:href="missing_8c.html#a8a09ab483b8e2cd3d33a40836360d4d7" target="_top" xlink:title="strcasecmp">
<polygon fill="none" stroke="#000000" points="142,-.5 142,-19.5 210,-19.5 210,-.5 142,-.5"/>
<text text-anchor="middle" x="176" y="-7.5" font-family="Helvetica,sans-Serif" font-size="10.00" fill="#000000">strcasecmp</text>
</a>
</g>
</g>
<!-- Node1&#45;&gt;Node4 -->
<g id="edge3" class="edge">
<title>Node1&#45;&gt;Node4</title>
<path fill="none" stroke="#191970" d="M82.9166,-38.411C98.6935,-33.5956 118.0054,-27.7012 134.9412,-22.532"/>
<polygon fill="#191970" stroke="#191970" points="136.0508,-25.8528 144.5934,-19.5859 134.0073,-19.1577 136.0508,-25.8528"/>
</g>
<!-- Node5 -->
<g id="node5" class="node">
<title>Node5</title>
<g id="a_node5"><a xlink:href="missing_8c.html#a3c28b90d7e1fc3e492c1fac0af04d21b" target="_top" xlink:title="strncasecmp">
<polygon fill="none" stroke="#000000" points="249,-.5 249,-19.5 322,-19.5 322,-.5 249,-.5"/>
<text text-anchor="middle" x="285.5" y="-7.5" font-family="Helvetica,sans-Serif" font-size="10.00" fill="#000000">strncasecmp</text>
</a>
</g>
</g>
<!-- Node4&#45;&gt;Node5 -->
<g id="edge4" class="edge">
<title>Node4&#45;&gt;Node5</title>
<path fill="none" stroke="#191970" d="M210.0462,-10C219.0828,-10 229.0019,-10 238.593,-10"/>
<polygon fill="#191970" stroke="#191970" points="238.8145,-13.5001 248.8144,-10 238.8144,-6.5001 238.8145,-13.5001"/>
</g>
</g>
</svg>
