<?xml version="1.0" encoding="UTF-8" standalone="no"?>
<!DOCTYPE svg PUBLIC "-//W3C//DTD SVG 1.1//EN"
 "http://www.w3.org/Graphics/SVG/1.1/DTD/svg11.dtd">
<!-- Generated by graphviz version 2.40.1 (20161225.0304)
 -->
<!-- Title: unlang_if Pages: 1 -->
<svg width="643pt" height="182pt"
 viewBox="0.00 0.00 643.00 181.50" xmlns="http://www.w3.org/2000/svg" xmlns:xlink="http://www.w3.org/1999/xlink">
<g id="graph0" class="graph" transform="scale(1 1) rotate(0) translate(4 177.5)">
<title>unlang_if</title>
<!-- Node1468 -->
<g id="node1" class="node">
<title>Node1468</title>
<polygon fill="#bfbfbf" stroke="#000000" points="0,-135 0,-154 56,-154 56,-135 0,-135"/>
<text text-anchor="middle" x="28" y="-142" font-family="Helvetica,sans-Serif" font-size="10.00" fill="#000000">unlang_if</text>
</g>
<!-- Node1469 -->
<g id="node2" class="node">
<title>Node1469</title>
<g id="a_node2"><a xlink:href="unlang__priv_8h.html#a4f01593ae92ed91382415d09ea90c904" target="_top" xlink:title="unlang_condition_init">
<polygon fill="none" stroke="#000000" points="92,-135 92,-154 199,-154 199,-135 92,-135"/>
<text text-anchor="middle" x="145.5" y="-142" font-family="Helvetica,sans-Serif" font-size="10.00" fill="#000000">unlang_condition_init</text>
</a>
</g>
</g>
<!-- Node1468&#45;&gt;Node1469 -->
<g id="edge1" class="edge">
<title>Node1468&#45;&gt;Node1469</title>
<path fill="none" stroke="#191970" d="M66.4136,-144.5C74.5314,-144.5 83.2401,-144.5 91.8045,-144.5"/>
<polygon fill="#191970" stroke="#191970" points="66.1442,-141.0001 56.1442,-144.5 66.1441,-148.0001 66.1442,-141.0001"/>
</g>
<!-- Node1470 -->
<g id="node3" class="node">
<title>Node1470</title>
<g id="a_node3"><a xlink:href="unlang_2base_8h.html#aad13fe29457de363df11f5dda2fbde89" target="_top" xlink:title="Initialize the unlang compiler / interpreter. ">
<polygon fill="none" stroke="#000000" points="263,-154 263,-173 326,-173 326,-154 263,-154"/>
<text text-anchor="middle" x="294.5" y="-161" font-family="Helvetica,sans-Serif" font-size="10.00" fill="#000000">unlang_init</text>
</a>
</g>
</g>
<!-- Node1469&#45;&gt;Node1470 -->
<g id="edge2" class="edge">
<title>Node1469&#45;&gt;Node1470</title>
<path fill="none" stroke="#191970" d="M209.446,-152.6542C227.9399,-155.0125 247.3194,-157.4837 262.9009,-159.4706"/>
<polygon fill="#191970" stroke="#191970" points="209.6548,-149.1526 199.2924,-151.3594 208.7693,-156.0963 209.6548,-149.1526"/>
</g>
<!-- Node1472 -->
<g id="node5" class="node">
<title>Node1472</title>
<g id="a_node5"><a xlink:href="unlang__priv_8h.html#a5fd8144991b05a0cde9a3f8b9447c82c" target="_top" xlink:title="unlang_tmpl_to_generic">
<polygon fill="none" stroke="#000000" points="235,-116 235,-135 354,-135 354,-116 235,-116"/>
<text text-anchor="middle" x="294.5" y="-123" font-family="Helvetica,sans-Serif" font-size="10.00" fill="#000000">unlang_tmpl_to_generic</text>
</a>
</g>
</g>
<!-- Node1469&#45;&gt;Node1472 -->
<g id="edge4" class="edge">
<title>Node1469&#45;&gt;Node1472</title>
<path fill="none" stroke="#191970" d="M209.2132,-136.3755C217.7637,-135.2852 226.5079,-134.1701 234.9823,-133.0895"/>
<polygon fill="#191970" stroke="#191970" points="208.7693,-132.9037 199.2924,-137.6406 209.6549,-139.8474 208.7693,-132.9037"/>
</g>
<!-- Node1471 -->
<g id="node4" class="node">
<title>Node1471</title>
<g id="a_node4"><a xlink:href="radiusd_8c.html#a0ddf1224851353fc92bfbff6f499fa97" target="_top" xlink:title="Entry point for the daemon. ">
<polygon fill="none" stroke="#000000" points="418.5,-154 418.5,-173 456.5,-173 456.5,-154 418.5,-154"/>
<text text-anchor="middle" x="437.5" y="-161" font-family="Helvetica,sans-Serif" font-size="10.00" fill="#000000">main</text>
</a>
</g>
</g>
<!-- Node1470&#45;&gt;Node1471 -->
<g id="edge3" class="edge">
<title>Node1470&#45;&gt;Node1471</title>
<path fill="none" stroke="#191970" d="M336.5799,-163.5C363.5687,-163.5 397.3315,-163.5 418.154,-163.5"/>
<polygon fill="#191970" stroke="#191970" points="336.2364,-160.0001 326.2363,-163.5 336.2363,-167.0001 336.2364,-160.0001"/>
</g>
<!-- Node1473 -->
<g id="node6" class="node">
<title>Node1473</title>
<g id="a_node6"><a xlink:href="compile_8c.html#a01f090f7da5123544bf98560e1670673" target="_top" xlink:title="compile_tmpl">
<polygon fill="none" stroke="#000000" points="400.5,-116 400.5,-135 474.5,-135 474.5,-116 400.5,-116"/>
<text text-anchor="middle" x="437.5" y="-123" font-family="Helvetica,sans-Serif" font-size="10.00" fill="#000000">compile_tmpl</text>
</a>
</g>
</g>
<!-- Node1472&#45;&gt;Node1473 -->
<g id="edge5" class="edge">
<title>Node1472&#45;&gt;Node1473</title>
<path fill="none" stroke="#191970" d="M364.6397,-125.5C376.9831,-125.5 389.3806,-125.5 400.36,-125.5"/>
<polygon fill="#191970" stroke="#191970" points="364.3163,-122.0001 354.3163,-125.5 364.3163,-129.0001 364.3163,-122.0001"/>
</g>
<!-- Node1511 -->
<g id="node8" class="node">
<title>Node1511</title>
<g id="a_node8"><a xlink:href="unlang_2tmpl_8h.html#a5c91dda2e98900942c07fa328f2fee69" target="_top" xlink:title="Push a tmpl onto the stack for evaluation. ">
<polygon fill="none" stroke="#000000" points="390,-69 390,-88 485,-88 485,-69 390,-69"/>
<text text-anchor="middle" x="437.5" y="-76" font-family="Helvetica,sans-Serif" font-size="10.00" fill="#000000">unlang_tmpl_push</text>
</a>
</g>
</g>
<!-- Node1472&#45;&gt;Node1511 -->
<g id="edge7" class="edge">
<title>Node1472&#45;&gt;Node1511</title>
<path fill="none" stroke="#191970" d="M333.1368,-112.8012C356.7348,-105.0452 386.4368,-95.283 408.114,-88.1583"/>
<polygon fill="#191970" stroke="#191970" points="331.8454,-109.5414 323.4382,-115.9888 334.0311,-116.1914 331.8454,-109.5414"/>
</g>
<!-- Node1474 -->
<g id="node7" class="node">
<title>Node1474</title>
<g id="a_node7"><a xlink:href="compile_8c.html#a09b110a507afe648d86b5b55ac9e3d8f" target="_top" xlink:title="compile_item">
<polygon fill="none" stroke="#ff0000" points="541,-126 541,-145 615,-145 615,-126 541,-126"/>
<text text-anchor="middle" x="578" y="-133" font-family="Helvetica,sans-Serif" font-size="10.00" fill="#000000">compile_item</text>
</a>
</g>
</g>
<!-- Node1473&#45;&gt;Node1474 -->
<g id="edge6" class="edge">
<title>Node1473&#45;&gt;Node1474</title>
<path fill="none" stroke="#191970" d="M484.875,-128.8719C503.0204,-130.1634 523.4514,-131.6175 540.5432,-132.834"/>
<polygon fill="#191970" stroke="#191970" points="485.0058,-125.3724 474.7825,-128.1536 484.5088,-132.3548 485.0058,-125.3724"/>
</g>
<!-- Node1512 -->
<g id="node9" class="node">
<title>Node1512</title>
<g id="a_node9"><a xlink:href="lib_2unlang_2map_8c.html#af742c9cd47f2f66ff0abcee92814c143" target="_top" xlink:title="Create a list of modifications to apply to one or more fr_pair_t lists. ">
<polygon fill="none" stroke="#ff0000" points="535,-88 535,-107 621,-107 621,-88 535,-88"/>
<text text-anchor="middle" x="578" y="-95" font-family="Helvetica,sans-Serif" font-size="10.00" fill="#000000">list_mod_create</text>
</a>
</g>
</g>
<!-- Node1511&#45;&gt;Node1512 -->
<g id="edge8" class="edge">
<title>Node1511&#45;&gt;Node1512</title>
<path fill="none" stroke="#191970" d="M495.0535,-86.283C508.3149,-88.0764 522.2006,-89.9542 534.7349,-91.6492"/>
<polygon fill="#191970" stroke="#191970" points="495.4458,-82.8043 485.0669,-84.9325 494.5076,-89.7412 495.4458,-82.8043"/>
</g>
<!-- Node1515 -->
<g id="node10" class="node">
<title>Node1515</title>
<g id="a_node10"><a xlink:href="lib_2unlang_2map_8c.html#ae2f1d63a1f0c479530fde5490a59e861" target="_top" xlink:title="unlang_map_state_init">
<polygon fill="none" stroke="#ff0000" points="521,-50 521,-69 635,-69 635,-50 521,-50"/>
<text text-anchor="middle" x="578" y="-57" font-family="Helvetica,sans-Serif" font-size="10.00" fill="#000000">unlang_map_state_init</text>
</a>
</g>
</g>
<!-- Node1511&#45;&gt;Node1515 -->
<g id="edge9" class="edge">
<title>Node1511&#45;&gt;Node1515</title>
<path fill="none" stroke="#191970" d="M495.2003,-70.6971C503.6373,-69.5562 512.324,-68.3815 520.752,-67.2417"/>
<polygon fill="#191970" stroke="#191970" points="494.5076,-67.2588 485.0669,-72.0675 495.4458,-74.1957 494.5076,-67.2588"/>
</g>
<!-- Node1516 -->
<g id="node11" class="node">
<title>Node1516</title>
<g id="a_node11"><a xlink:href="unlang_2module_8h.html#a706cd26e27a89994c616263fc00d21df" target="_top" xlink:title="Push a pre&#45;compiled tmpl and resumption state onto the stack for evaluation. ">
<polygon fill="none" stroke="#ff0000" points="524.5,-.5 524.5,-30.5 631.5,-30.5 631.5,-.5 524.5,-.5"/>
<text text-anchor="start" x="532.5" y="-18.5" font-family="Helvetica,sans-Serif" font-size="10.00" fill="#000000">unlang_module_yield</text>
<text text-anchor="middle" x="578" y="-7.5" font-family="Helvetica,sans-Serif" font-size="10.00" fill="#000000">_to_tmpl</text>
</a>
</g>
</g>
<!-- Node1511&#45;&gt;Node1516 -->
<g id="edge10" class="edge">
<title>Node1511&#45;&gt;Node1516</title>
<path fill="none" stroke="#191970" d="M467.7049,-64.6332C483.5501,-57.3895 503.298,-48.4096 521,-40.5 528.202,-37.282 535.9315,-33.8664 543.3021,-30.6276"/>
<polygon fill="#191970" stroke="#191970" points="466.0325,-61.5494 458.3966,-68.894 468.9461,-67.9143 466.0325,-61.5494"/>
</g>
</g>
</svg>
