<?xml version="1.0" encoding="UTF-8" standalone="no"?>
<!DOCTYPE svg PUBLIC "-//W3C//DTD SVG 1.1//EN"
 "http://www.w3.org/Graphics/SVG/1.1/DTD/svg11.dtd">
<!-- Generated by graphviz version 2.40.1 (20161225.0304)
 -->
<!-- Title: fr_connection_signal_shutdown Pages: 1 -->
<svg width="1223pt" height="485pt"
 viewBox="0.00 0.00 1223.00 485.48" xmlns="http://www.w3.org/2000/svg" xmlns:xlink="http://www.w3.org/1999/xlink">
<g id="graph0" class="graph" transform="scale(1 1) rotate(0) translate(4 481.4817)">
<title>fr_connection_signal_shutdown</title>
<!-- Node1079 -->
<g id="node1" class="node">
<title>Node1079</title>
<polygon fill="#bfbfbf" stroke="#000000" points="0,-120.5 0,-150.5 106,-150.5 106,-120.5 0,-120.5"/>
<text text-anchor="start" x="8" y="-138.5" font-family="Helvetica,sans-Serif" font-size="10.00" fill="#000000">fr_connection_signal</text>
<text text-anchor="middle" x="53" y="-127.5" font-family="Helvetica,sans-Serif" font-size="10.00" fill="#000000">_shutdown</text>
</g>
<!-- Node1080 -->
<g id="node2" class="node">
<title>Node1080</title>
<g id="a_node2"><a xlink:href="server_2connection_8c.html#ab6aa3b323c5ec05045b0cdcf7c99dbe8" target="_top" xlink:title="Process any deferred signals. ">
<polygon fill="none" stroke="#000000" points="149.5,-169.5 149.5,-199.5 253.5,-199.5 253.5,-169.5 149.5,-169.5"/>
<text text-anchor="start" x="157.5" y="-187.5" font-family="Helvetica,sans-Serif" font-size="10.00" fill="#000000">connection_deferred</text>
<text text-anchor="middle" x="201.5" y="-176.5" font-family="Helvetica,sans-Serif" font-size="10.00" fill="#000000">_signal_process</text>
</a>
</g>
</g>
<!-- Node1079&#45;&gt;Node1080 -->
<g id="edge1" class="edge">
<title>Node1079&#45;&gt;Node1080</title>
<path fill="none" stroke="#191970" d="M108.3362,-153.7591C123.999,-158.9273 140.8648,-164.4924 155.8845,-169.4484"/>
<polygon fill="#191970" stroke="#191970" points="109.3597,-150.4113 98.7666,-150.6014 107.1663,-157.0587 109.3597,-150.4113"/>
</g>
<!-- Node1141 -->
<g id="node21" class="node">
<title>Node1141</title>
<g id="a_node21"><a xlink:href="trunk_8c.html#ad121aefa7ec92e92c50dcfc320181c43" target="_top" xlink:title="Connection transitioned to the connected state. ">
<polygon fill="none" stroke="#ff0000" points="145.5,-120.5 145.5,-150.5 257.5,-150.5 257.5,-120.5 145.5,-120.5"/>
<text text-anchor="start" x="153.5" y="-138.5" font-family="Helvetica,sans-Serif" font-size="10.00" fill="#000000">_trunk_connection_on</text>
<text text-anchor="middle" x="201.5" y="-127.5" font-family="Helvetica,sans-Serif" font-size="10.00" fill="#000000">_connected</text>
</a>
</g>
</g>
<!-- Node1079&#45;&gt;Node1141 -->
<g id="edge31" class="edge">
<title>Node1079&#45;&gt;Node1141</title>
<path fill="none" stroke="#191970" d="M116.4985,-135.5C126.114,-135.5 135.9753,-135.5 145.4189,-135.5"/>
<polygon fill="#191970" stroke="#191970" points="116.1925,-132.0001 106.1925,-135.5 116.1924,-139.0001 116.1925,-132.0001"/>
</g>
<!-- Node1160 -->
<g id="node22" class="node">
<title>Node1160</title>
<g id="a_node22"><a xlink:href="trunk_8c.html#a0eea2108f3aaf7a16ae8b86404c927fc" target="_top" xlink:title="Close connections in a particular connection list if they have no requests associated with them...">
<polygon fill="none" stroke="#000000" points="142,-71.5 142,-101.5 261,-101.5 261,-71.5 142,-71.5"/>
<text text-anchor="start" x="150" y="-89.5" font-family="Helvetica,sans-Serif" font-size="10.00" fill="#000000">trunk_connection_close</text>
<text text-anchor="middle" x="201.5" y="-78.5" font-family="Helvetica,sans-Serif" font-size="10.00" fill="#000000">_if_empty</text>
</a>
</g>
</g>
<!-- Node1079&#45;&gt;Node1160 -->
<g id="edge32" class="edge">
<title>Node1079&#45;&gt;Node1160</title>
<path fill="none" stroke="#191970" d="M108.3362,-117.2409C123.999,-112.0727 140.8648,-106.5076 155.8845,-101.5516"/>
<polygon fill="#191970" stroke="#191970" points="107.1663,-113.9413 98.7666,-120.3986 109.3597,-120.5887 107.1663,-113.9413"/>
</g>
<!-- Node1081 -->
<g id="node3" class="node">
<title>Node1081</title>
<g id="a_node3"><a xlink:href="connection_8h.html#a4d82ac070ca65d717d16a833b1bf5032" target="_top" xlink:title="Resume processing of deferred signals. ">
<polygon fill="none" stroke="#000000" points="297,-169.5 297,-199.5 408,-199.5 408,-169.5 297,-169.5"/>
<text text-anchor="start" x="305" y="-187.5" font-family="Helvetica,sans-Serif" font-size="10.00" fill="#000000">fr_connection_signals</text>
<text text-anchor="middle" x="352.5" y="-176.5" font-family="Helvetica,sans-Serif" font-size="10.00" fill="#000000">_resume</text>
</a>
</g>
</g>
<!-- Node1080&#45;&gt;Node1081 -->
<g id="edge2" class="edge">
<title>Node1080&#45;&gt;Node1081</title>
<path fill="none" stroke="#191970" d="M264.1492,-184.5C274.9994,-184.5 286.2144,-184.5 296.8621,-184.5"/>
<polygon fill="#191970" stroke="#191970" points="263.8887,-181.0001 253.8887,-184.5 263.8887,-188.0001 263.8887,-181.0001"/>
</g>
<!-- Node1082 -->
<g id="node4" class="node">
<title>Node1082</title>
<g id="a_node4"><a xlink:href="trunk_8c.html#a44f207c0dae5e3f74d531c1548305ba4" target="_top" xlink:title="Enqueue a request which has never been assigned to a connection or was previously cancelled...">
<polygon fill="none" stroke="#000000" points="771,-318.5 771,-348.5 889,-348.5 889,-318.5 771,-318.5"/>
<text text-anchor="start" x="779" y="-336.5" font-family="Helvetica,sans-Serif" font-size="10.00" fill="#000000">trunk_request_enqueue</text>
<text text-anchor="middle" x="830" y="-325.5" font-family="Helvetica,sans-Serif" font-size="10.00" fill="#000000">_existing</text>
</a>
</g>
</g>
<!-- Node1081&#45;&gt;Node1082 -->
<g id="edge3" class="edge">
<title>Node1081&#45;&gt;Node1082</title>
<path fill="none" stroke="#191970" d="M361.5665,-209.3504C375.1017,-243.6746 403.4189,-305.9408 444,-346.5 500.3037,-402.7733 523.0065,-414.2814 600,-434.5 654.5935,-448.8363 678.1806,-462.831 727,-434.5 754.8925,-418.3133 740.1598,-394.2668 763,-371.5 772.1869,-362.3426 784.0311,-354.6692 795.1998,-348.6698"/>
<polygon fill="#191970" stroke="#191970" points="364.6943,-207.7318 357.8433,-199.65 358.1591,-210.2401 364.6943,-207.7318"/>
</g>
<!-- Node1083 -->
<g id="node5" class="node">
<title>Node1083</title>
<g id="a_node5"><a xlink:href="trunk_8c.html#ac2fe6b5bbb2452eda599a3fc16472d4d" target="_top" xlink:title="Remove requests in specified states from a connection, attempting to distribute them to new connectio...">
<polygon fill="none" stroke="#ff0000" points="933,-274.5 933,-304.5 1067,-304.5 1067,-274.5 933,-274.5"/>
<text text-anchor="start" x="941" y="-292.5" font-family="Helvetica,sans-Serif" font-size="10.00" fill="#000000">trunk_connection_requests</text>
<text text-anchor="middle" x="1000" y="-281.5" font-family="Helvetica,sans-Serif" font-size="10.00" fill="#000000">_requeue</text>
</a>
</g>
</g>
<!-- Node1081&#45;&gt;Node1083 -->
<g id="edge9" class="edge">
<title>Node1081&#45;&gt;Node1083</title>
<path fill="none" stroke="#191970" d="M398.4151,-165.8721C412.7728,-160.8865 428.8306,-156.1499 444,-153.5 642.3473,-118.8508 718.1086,-67.0873 897,-159.5 946.3751,-185.0064 979.8444,-245.9427 993.3273,-274.39"/>
<polygon fill="#191970" stroke="#191970" points="397.0021,-162.6608 388.7785,-169.3409 399.3729,-169.2471 397.0021,-162.6608"/>
</g>
<!-- Node1095 -->
<g id="node8" class="node">
<title>Node1095</title>
<g id="a_node8"><a xlink:href="trunk_8c.html#a8b49aca0aebe6b7a37e522a1ac715336" target="_top" xlink:title="Shift requests in the specified states onto new connections. ">
<polygon fill="none" stroke="#ff0000" points="763,-169.5 763,-199.5 897,-199.5 897,-169.5 763,-169.5"/>
<text text-anchor="start" x="771" y="-187.5" font-family="Helvetica,sans-Serif" font-size="10.00" fill="#000000">trunk_connection_requests</text>
<text text-anchor="middle" x="830" y="-176.5" font-family="Helvetica,sans-Serif" font-size="10.00" fill="#000000">_dequeue</text>
</a>
</g>
</g>
<!-- Node1081&#45;&gt;Node1095 -->
<g id="edge7" class="edge">
<title>Node1081&#45;&gt;Node1095</title>
<path fill="none" stroke="#191970" d="M418.4193,-172.728C493.3764,-161.0512 619.3234,-146.6194 727,-159.5 743.9919,-161.5326 762.2314,-165.3877 778.5695,-169.473"/>
<polygon fill="#191970" stroke="#191970" points="417.5147,-169.3277 408.1882,-174.3542 418.6136,-176.241 417.5147,-169.3277"/>
</g>
<!-- Node1123 -->
<g id="node9" class="node">
<title>Node1123</title>
<g id="a_node9"><a xlink:href="trunk_8h.html#a22df6123e7ec90e1fafbdab2ed388774" target="_top" xlink:title="Cancel a trunk request. ">
<polygon fill="none" stroke="#ff0000" points="771,-.5 771,-30.5 889,-30.5 889,-.5 771,-.5"/>
<text text-anchor="start" x="779" y="-18.5" font-family="Helvetica,sans-Serif" font-size="10.00" fill="#000000">fr_trunk_request_signal</text>
<text text-anchor="middle" x="830" y="-7.5" font-family="Helvetica,sans-Serif" font-size="10.00" fill="#000000">_cancel</text>
</a>
</g>
</g>
<!-- Node1081&#45;&gt;Node1123 -->
<g id="edge10" class="edge">
<title>Node1081&#45;&gt;Node1123</title>
<path fill="none" stroke="#191970" d="M369.2525,-160.8612C380.3157,-145.1996 395.0983,-124.1757 408,-105.5 424.1852,-82.0713 419.5011,-67.0144 444,-52.5 546.0829,7.979 690.5664,2.7192 770.6796,-6.4271"/>
<polygon fill="#191970" stroke="#191970" points="366.127,-159.2191 363.2107,-169.4047 371.8423,-163.2608 366.127,-159.2191"/>
</g>
<!-- Node1101 -->
<g id="node10" class="node">
<title>Node1101</title>
<g id="a_node10"><a xlink:href="trunk_8h.html#ac02777d6e72e7f5ee93cf25b18b8d9e6" target="_top" xlink:title="Enqueue a request that needs data written to the trunk. ">
<polygon fill="none" stroke="#ff0000" points="765.5,-381 765.5,-400 894.5,-400 894.5,-381 765.5,-381"/>
<text text-anchor="middle" x="830" y="-388" font-family="Helvetica,sans-Serif" font-size="10.00" fill="#000000">fr_trunk_request_enqueue</text>
</a>
</g>
</g>
<!-- Node1081&#45;&gt;Node1101 -->
<g id="edge11" class="edge">
<title>Node1081&#45;&gt;Node1101</title>
<path fill="none" stroke="#191970" d="M356.5479,-209.3831C364.9797,-253.4583 388.4693,-345.5775 444,-398.5 536.9434,-487.0781 603.7845,-492.59 727,-456.5 764.9102,-445.396 802.1051,-415.5866 819.6116,-400.1148"/>
<polygon fill="#191970" stroke="#191970" points="359.9859,-208.7257 354.7598,-199.5095 353.0979,-209.9732 359.9859,-208.7257"/>
</g>
<!-- Node1135 -->
<g id="node11" class="node">
<title>Node1135</title>
<g id="a_node11"><a xlink:href="trunk_8h.html#a72e34d33ea58c5c62d64d12c1620b819" target="_top" xlink:title="Re&#45;enqueue a request on the same connection. ">
<polygon fill="none" stroke="#ff0000" points="766.5,-219 766.5,-238 893.5,-238 893.5,-219 766.5,-219"/>
<text text-anchor="middle" x="830" y="-226" font-family="Helvetica,sans-Serif" font-size="10.00" fill="#000000">fr_trunk_request_requeue</text>
</a>
</g>
</g>
<!-- Node1081&#45;&gt;Node1135 -->
<g id="edge12" class="edge">
<title>Node1081&#45;&gt;Node1135</title>
<path fill="none" stroke="#191970" d="M418.0309,-191.0333C467.9091,-195.9627 538.2652,-202.8228 600,-208.5 656.0775,-213.6569 719.88,-219.1776 766.0369,-223.1094"/>
<polygon fill="#191970" stroke="#191970" points="418.3192,-187.5448 408.0231,-190.043 417.6298,-194.5108 418.3192,-187.5448"/>
</g>
<!-- Node1152 -->
<g id="node12" class="node">
<title>Node1152</title>
<g id="a_node12"><a xlink:href="trunk_8h.html#a9e426e665d3583a76e1e383ebd778e01" target="_top" xlink:title="Enqueue additional requests on a specific connection. ">
<polygon fill="none" stroke="#000000" points="765.5,-49.5 765.5,-79.5 894.5,-79.5 894.5,-49.5 765.5,-49.5"/>
<text text-anchor="start" x="773.5" y="-67.5" font-family="Helvetica,sans-Serif" font-size="10.00" fill="#000000">fr_trunk_request_enqueue</text>
<text text-anchor="middle" x="830" y="-56.5" font-family="Helvetica,sans-Serif" font-size="10.00" fill="#000000">_on_conn</text>
</a>
</g>
</g>
<!-- Node1081&#45;&gt;Node1152 -->
<g id="edge13" class="edge">
<title>Node1081&#45;&gt;Node1152</title>
<path fill="none" stroke="#191970" d="M367.4247,-160.5937C383.2825,-137.5733 410.6473,-104.0288 444,-88.5 548.2384,-39.9674 685.7475,-45.6264 765.3694,-54.6923"/>
<polygon fill="#191970" stroke="#191970" points="364.3637,-158.8756 361.7308,-169.138 370.1888,-162.7574 364.3637,-158.8756"/>
</g>
<!-- Node1154 -->
<g id="node15" class="node">
<title>Node1154</title>
<g id="a_node15"><a xlink:href="trunk_8c.html#aeaad50225e220cc98d1a1cf5a5941298" target="_top" xlink:title="Update the registrations for I/O events we&#39;re interested in. ">
<polygon fill="none" stroke="#000000" points="444,-306.5 444,-336.5 564,-336.5 564,-306.5 444,-306.5"/>
<text text-anchor="start" x="452" y="-324.5" font-family="Helvetica,sans-Serif" font-size="10.00" fill="#000000">trunk_connection_event</text>
<text text-anchor="middle" x="504" y="-313.5" font-family="Helvetica,sans-Serif" font-size="10.00" fill="#000000">_update</text>
</a>
</g>
</g>
<!-- Node1081&#45;&gt;Node1154 -->
<g id="edge16" class="edge">
<title>Node1081&#45;&gt;Node1154</title>
<path fill="none" stroke="#191970" d="M377.0392,-206.6906C407.9783,-234.6685 460.3522,-282.0297 487.1328,-306.2471"/>
<polygon fill="#191970" stroke="#191970" points="379.0567,-203.7961 369.292,-199.6848 374.3616,-208.9881 379.0567,-203.7961"/>
</g>
<!-- Node1082&#45;&gt;Node1083 -->
<g id="edge4" class="edge">
<title>Node1082&#45;&gt;Node1083</title>
<path fill="none" stroke="#191970" d="M897.9773,-315.9059C912.5398,-312.1368 927.7973,-308.1878 941.9442,-304.5262"/>
<polygon fill="#191970" stroke="#191970" points="896.8329,-312.5867 888.0289,-318.4808 898.5869,-319.3634 896.8329,-312.5867"/>
</g>
<!-- Node1136 -->
<g id="node7" class="node">
<title>Node1136</title>
<g id="a_node7"><a xlink:href="trunk_8c.html#a53fb27629f37ae75ba241d33cb7f33ca" target="_top" xlink:title="Drain the backlog of as many requests as possible. ">
<polygon fill="none" stroke="#ff0000" points="948,-324 948,-343 1052,-343 1052,-324 948,-324"/>
<text text-anchor="middle" x="1000" y="-331" font-family="Helvetica,sans-Serif" font-size="10.00" fill="#000000">trunk_backlog_drain</text>
</a>
</g>
</g>
<!-- Node1082&#45;&gt;Node1136 -->
<g id="edge6" class="edge">
<title>Node1082&#45;&gt;Node1136</title>
<path fill="none" stroke="#191970" d="M899.8866,-333.5C915.9582,-333.5 932.7745,-333.5 947.9368,-333.5"/>
<polygon fill="#191970" stroke="#191970" points="899.4578,-330.0001 889.4578,-333.5 899.4577,-337.0001 899.4578,-330.0001"/>
</g>
<!-- Node1150 -->
<g id="node6" class="node">
<title>Node1150</title>
<g id="a_node6"><a xlink:href="trunk_8c.html#a35dbfa78abd25abe57c4e65bf7c82a1e" target="_top" xlink:title="Connection failed after it was connected. ">
<polygon fill="none" stroke="#ff0000" points="1103,-362.5 1103,-392.5 1215,-392.5 1215,-362.5 1103,-362.5"/>
<text text-anchor="start" x="1111" y="-380.5" font-family="Helvetica,sans-Serif" font-size="10.00" fill="#000000">_trunk_connection_on</text>
<text text-anchor="middle" x="1159" y="-369.5" font-family="Helvetica,sans-Serif" font-size="10.00" fill="#000000">_closed</text>
</a>
</g>
</g>
<!-- Node1083&#45;&gt;Node1150 -->
<g id="edge5" class="edge">
<title>Node1083&#45;&gt;Node1150</title>
<path fill="none" stroke="#191970" d="M1054.4594,-308.528C1058.759,-310.4202 1062.9866,-312.4168 1067,-314.5 1093.6313,-328.3235 1121.7403,-348.5029 1139.7747,-362.2741"/>
<polygon fill="#191970" stroke="#191970" points="1055.5626,-305.1955 1044.9869,-304.5587 1052.8573,-311.6516 1055.5626,-305.1955"/>
</g>
<!-- Node1095&#45;&gt;Node1083 -->
<g id="edge8" class="edge">
<title>Node1095&#45;&gt;Node1083</title>
<path fill="none" stroke="#191970" d="M885.5389,-203.6961C889.4814,-205.5217 893.3405,-207.459 897,-209.5 930.2212,-228.0282 964.198,-256.6913 983.6315,-274.2078"/>
<polygon fill="#191970" stroke="#191970" points="886.8087,-200.4316 876.2432,-199.6431 884.011,-206.8482 886.8087,-200.4316"/>
</g>
<!-- Node1085 -->
<g id="node13" class="node">
<title>Node1085</title>
<g id="a_node13"><a xlink:href="rlm__radius__udp_8c.html#ac47feadd21e5ad8c65d2842d9f3b9976" target="_top" xlink:title="See if the connection is zombied. ">
<polygon fill="none" stroke="#ff0000" points="952,-36 952,-55 1048,-55 1048,-36 952,-36"/>
<text text-anchor="middle" x="1000" y="-43" font-family="Helvetica,sans-Serif" font-size="10.00" fill="#000000">check_for_zombie</text>
</a>
</g>
</g>
<!-- Node1152&#45;&gt;Node1085 -->
<g id="edge14" class="edge">
<title>Node1152&#45;&gt;Node1085</title>
<path fill="none" stroke="#191970" d="M905.0866,-56.108C920.9473,-54.3353 937.2747,-52.5105 951.8194,-50.8849"/>
<polygon fill="#191970" stroke="#191970" points="904.304,-52.6736 894.7547,-57.2627 905.0816,-59.6302 904.304,-52.6736"/>
</g>
<!-- Node1153 -->
<g id="node14" class="node">
<title>Node1153</title>
<g id="a_node14"><a xlink:href="rlm__radius__udp_8c.html#a8612871b975750cb049e327ffe9862f9" target="_top" xlink:title="Handle retries for a status check. ">
<polygon fill="none" stroke="#ff0000" points="950.5,-74 950.5,-93 1049.5,-93 1049.5,-74 950.5,-74"/>
<text text-anchor="middle" x="1000" y="-81" font-family="Helvetica,sans-Serif" font-size="10.00" fill="#000000">status_check_next</text>
</a>
</g>
</g>
<!-- Node1152&#45;&gt;Node1153 -->
<g id="edge15" class="edge">
<title>Node1152&#45;&gt;Node1153</title>
<path fill="none" stroke="#191970" d="M904.8286,-72.8632C920.2917,-74.5914 936.2104,-76.3706 950.4979,-77.9674"/>
<polygon fill="#191970" stroke="#191970" points="905.0816,-69.3698 894.7547,-71.7373 904.304,-76.3264 905.0816,-69.3698"/>
</g>
<!-- Node1154&#45;&gt;Node1150 -->
<g id="edge30" class="edge">
<title>Node1154&#45;&gt;Node1150</title>
<path fill="none" stroke="#191970" d="M516.2715,-345.8572C531.6123,-373.264 560.7097,-416.3244 600,-434.5 782.8298,-519.0764 1034.4277,-430.1191 1124.8898,-392.5556"/>
<polygon fill="#191970" stroke="#191970" points="519.2562,-344.0181 511.4248,-336.8823 513.0969,-347.3443 519.2562,-344.0181"/>
</g>
<!-- Node1093 -->
<g id="node16" class="node">
<title>Node1093</title>
<g id="a_node16"><a xlink:href="trunk_8c.html#a57c049e07e8913dafb84d76e548fa404" target="_top" xlink:title="Remove a request from all connection lists. ">
<polygon fill="none" stroke="#ff0000" points="607,-394.5 607,-424.5 720,-424.5 720,-394.5 607,-394.5"/>
<text text-anchor="start" x="615" y="-412.5" font-family="Helvetica,sans-Serif" font-size="10.00" fill="#000000">trunk_request_remove</text>
<text text-anchor="middle" x="663.5" y="-401.5" font-family="Helvetica,sans-Serif" font-size="10.00" fill="#000000">_from_conn</text>
</a>
</g>
</g>
<!-- Node1154&#45;&gt;Node1093 -->
<g id="edge17" class="edge">
<title>Node1154&#45;&gt;Node1093</title>
<path fill="none" stroke="#191970" d="M532.546,-342.4721C551.1611,-355.5764 576.3139,-372.2316 600,-384.5 606.8383,-388.0419 614.2978,-391.397 621.6221,-394.4316"/>
<polygon fill="#191970" stroke="#191970" points="534.4009,-339.4963 524.2255,-336.5448 530.3395,-345.1976 534.4009,-339.4963"/>
</g>
<!-- Node1155 -->
<g id="node17" class="node">
<title>Node1155</title>
<g id="a_node17"><a xlink:href="trunk_8c.html#adb084310620200de5d2f1cf1ef8f0ee7" target="_top" xlink:title="Transition a request to the pending state, adding it to the backlog of an active connection. ">
<polygon fill="none" stroke="#000000" points="612,-306.5 612,-336.5 715,-336.5 715,-306.5 612,-306.5"/>
<text text-anchor="start" x="620" y="-324.5" font-family="Helvetica,sans-Serif" font-size="10.00" fill="#000000">trunk_request_enter</text>
<text text-anchor="middle" x="663.5" y="-313.5" font-family="Helvetica,sans-Serif" font-size="10.00" fill="#000000">_pending</text>
</a>
</g>
</g>
<!-- Node1154&#45;&gt;Node1155 -->
<g id="edge18" class="edge">
<title>Node1154&#45;&gt;Node1155</title>
<path fill="none" stroke="#191970" d="M574.3553,-321.5C587.0096,-321.5 599.984,-321.5 611.9799,-321.5"/>
<polygon fill="#191970" stroke="#191970" points="574.3001,-318.0001 564.3001,-321.5 574.3001,-325.0001 574.3001,-318.0001"/>
</g>
<!-- Node1145 -->
<g id="node18" class="node">
<title>Node1145</title>
<g id="a_node18"><a xlink:href="trunk_8c.html#a25de4b8d6e90f9001b5bc02a0cef5980" target="_top" xlink:title="Transition a request to the sent state, indicating that it&#39;s been sent in its entirety. ">
<polygon fill="none" stroke="#ff0000" points="600,-356 600,-375 727,-375 727,-356 600,-356"/>
<text text-anchor="middle" x="663.5" y="-363" font-family="Helvetica,sans-Serif" font-size="10.00" fill="#000000">trunk_request_enter_sent</text>
</a>
</g>
</g>
<!-- Node1154&#45;&gt;Node1145 -->
<g id="edge24" class="edge">
<title>Node1154&#45;&gt;Node1145</title>
<path fill="none" stroke="#191970" d="M568.1513,-339.1969C588.8616,-344.9101 611.0326,-351.0262 628.7787,-355.9217"/>
<polygon fill="#191970" stroke="#191970" points="569.0155,-335.8046 558.4447,-336.5192 567.1539,-342.5526 569.0155,-335.8046"/>
</g>
<!-- Node1156 -->
<g id="node19" class="node">
<title>Node1156</title>
<g id="a_node19"><a xlink:href="trunk_8c.html#ac56a1d3856d033bf437fc866c1a1cf77" target="_top" xlink:title="Transition a request to the cancel state, placing it in a connection&#39;s cancellation list...">
<polygon fill="none" stroke="#000000" points="612,-169.5 612,-199.5 715,-199.5 715,-169.5 612,-169.5"/>
<text text-anchor="start" x="620" y="-187.5" font-family="Helvetica,sans-Serif" font-size="10.00" fill="#000000">trunk_request_enter</text>
<text text-anchor="middle" x="663.5" y="-176.5" font-family="Helvetica,sans-Serif" font-size="10.00" fill="#000000">_cancel</text>
</a>
</g>
</g>
<!-- Node1154&#45;&gt;Node1156 -->
<g id="edge25" class="edge">
<title>Node1154&#45;&gt;Node1156</title>
<path fill="none" stroke="#191970" d="M529.4204,-299.6655C561.938,-271.735 617.4274,-224.0733 645.7421,-199.7529"/>
<polygon fill="#191970" stroke="#191970" points="526.9841,-297.1443 521.6787,-306.3152 531.5451,-302.4544 526.9841,-297.1443"/>
</g>
<!-- Node1157 -->
<g id="node20" class="node">
<title>Node1157</title>
<g id="a_node20"><a xlink:href="trunk_8c.html#a99d11ac4bceeb1d2ccbc2efd9359b6b0" target="_top" xlink:title="Transition a request to the cancel_sent state, placing it in a connection&#39;s cancel_sent list...">
<polygon fill="none" stroke="#ff0000" points="612,-257.5 612,-287.5 715,-287.5 715,-257.5 612,-257.5"/>
<text text-anchor="start" x="620" y="-275.5" font-family="Helvetica,sans-Serif" font-size="10.00" fill="#000000">trunk_request_enter</text>
<text text-anchor="middle" x="663.5" y="-264.5" font-family="Helvetica,sans-Serif" font-size="10.00" fill="#000000">_cancel_sent</text>
</a>
</g>
</g>
<!-- Node1154&#45;&gt;Node1157 -->
<g id="edge29" class="edge">
<title>Node1154&#45;&gt;Node1157</title>
<path fill="none" stroke="#191970" d="M562.9594,-303.3871C579.9162,-298.1778 598.2211,-292.5543 614.5056,-287.5516"/>
<polygon fill="#191970" stroke="#191970" points="561.688,-300.1162 553.1567,-306.3986 563.7437,-306.8075 561.688,-300.1162"/>
</g>
<!-- Node1155&#45;&gt;Node1082 -->
<g id="edge19" class="edge">
<title>Node1155&#45;&gt;Node1082</title>
<path fill="none" stroke="#191970" d="M725.411,-325.9621C740.3238,-327.0369 756.2164,-328.1823 770.9926,-329.2472"/>
<polygon fill="#191970" stroke="#191970" points="725.4947,-322.4591 715.269,-325.2311 724.9915,-329.441 725.4947,-322.4591"/>
</g>
<!-- Node1155&#45;&gt;Node1083 -->
<g id="edge20" class="edge">
<title>Node1155&#45;&gt;Node1083</title>
<path fill="none" stroke="#191970" d="M725.3961,-313.6867C737.8388,-312.2142 750.8297,-310.747 763,-309.5 820.1997,-303.6392 885.2952,-298.2368 932.7726,-294.5281"/>
<polygon fill="#191970" stroke="#191970" points="724.6157,-310.2551 715.1032,-314.92 725.4486,-317.2053 724.6157,-310.2551"/>
</g>
<!-- Node1155&#45;&gt;Node1101 -->
<g id="edge21" class="edge">
<title>Node1155&#45;&gt;Node1101</title>
<path fill="none" stroke="#191970" d="M711.5363,-340.2433C716.7637,-342.3332 721.999,-344.4479 727,-346.5 755.0637,-358.0158 787.1726,-371.8356 807.9754,-380.8751"/>
<polygon fill="#191970" stroke="#191970" points="712.7737,-336.9688 702.1881,-336.5274 710.1879,-343.4738 712.7737,-336.9688"/>
</g>
<!-- Node1155&#45;&gt;Node1135 -->
<g id="edge22" class="edge">
<title>Node1155&#45;&gt;Node1135</title>
<path fill="none" stroke="#191970" d="M716.7909,-302.4004C720.2848,-300.8295 723.7163,-299.192 727,-297.5 745.1763,-288.1341 793.1089,-254.6626 816.616,-238.0264"/>
<polygon fill="#191970" stroke="#191970" points="715.2721,-299.2433 707.4552,-306.395 718.0258,-305.6789 715.2721,-299.2433"/>
</g>
<!-- Node1155&#45;&gt;Node1152 -->
<g id="edge23" class="edge">
<title>Node1155&#45;&gt;Node1152</title>
<path fill="none" stroke="#191970" d="M723.2871,-301.1813C724.5934,-300.0213 725.8353,-298.7954 727,-297.5 769.3792,-250.3642 736.3048,-216.9904 763,-159.5 777.2797,-128.7475 801.6718,-97.4445 816.754,-79.5576"/>
<polygon fill="#191970" stroke="#191970" points="721.1765,-298.3888 715.1904,-307.1305 725.3214,-304.0298 721.1765,-298.3888"/>
</g>
<!-- Node1156&#45;&gt;Node1095 -->
<g id="edge26" class="edge">
<title>Node1156&#45;&gt;Node1095</title>
<path fill="none" stroke="#191970" d="M725.3738,-184.5C737.619,-184.5 750.526,-184.5 762.9341,-184.5"/>
<polygon fill="#191970" stroke="#191970" points="725.269,-181.0001 715.269,-184.5 725.2689,-188.0001 725.269,-181.0001"/>
</g>
<!-- Node1156&#45;&gt;Node1123 -->
<g id="edge27" class="edge">
<title>Node1156&#45;&gt;Node1123</title>
<path fill="none" stroke="#191970" d="M674.1579,-160.378C689.4379,-128.4178 720.4869,-72.2689 763,-39.5 767.4037,-36.1056 772.3295,-33.163 777.4577,-30.6182"/>
<polygon fill="#191970" stroke="#191970" points="670.974,-158.9244 669.9269,-169.4674 677.3201,-161.8785 670.974,-158.9244"/>
</g>
<!-- Node1156&#45;&gt;Node1135 -->
<g id="edge28" class="edge">
<title>Node1156&#45;&gt;Node1135</title>
<path fill="none" stroke="#191970" d="M725.0206,-200.7577C748.1722,-206.8758 773.7347,-213.6311 793.8383,-218.9438"/>
<polygon fill="#191970" stroke="#191970" points="725.8313,-197.3519 715.269,-198.1807 724.0428,-204.1195 725.8313,-197.3519"/>
</g>
<!-- Node1098 -->
<g id="node23" class="node">
<title>Node1098</title>
<g id="a_node23"><a xlink:href="trunk_8c.html#a8fb6d1576f81b578b3090bfa8bb3c366" target="_top" xlink:title="Implements the algorithm we use to manage requests per connection levels. ">
<polygon fill="none" stroke="#ff0000" points="313.5,-77 313.5,-96 391.5,-96 391.5,-77 313.5,-77"/>
<text text-anchor="middle" x="352.5" y="-84" font-family="Helvetica,sans-Serif" font-size="10.00" fill="#000000">trunk_manage</text>
</a>
</g>
</g>
<!-- Node1160&#45;&gt;Node1098 -->
<g id="edge33" class="edge">
<title>Node1160&#45;&gt;Node1098</title>
<path fill="none" stroke="#191970" d="M271.5251,-86.5C285.8383,-86.5 300.4152,-86.5 313.1838,-86.5"/>
<polygon fill="#191970" stroke="#191970" points="271.1792,-83.0001 261.1792,-86.5 271.1792,-90.0001 271.1792,-83.0001"/>
</g>
</g>
</svg>
