<?xml version="1.0" encoding="UTF-8" standalone="no"?>
<!DOCTYPE svg PUBLIC "-//W3C//DTD SVG 1.1//EN"
 "http://www.w3.org/Graphics/SVG/1.1/DTD/svg11.dtd">
<!-- Generated by graphviz version 2.40.1 (20161225.0304)
 -->
<!-- Title: const_time_eq_bin Pages: 1 -->
<svg width="383pt" height="28pt"
 viewBox="0.00 0.00 383.00 28.00" xmlns="http://www.w3.org/2000/svg" xmlns:xlink="http://www.w3.org/1999/xlink">
<g id="graph0" class="graph" transform="scale(1 1) rotate(0) translate(4 24)">
<title>const_time_eq_bin</title>
<!-- Node10 -->
<g id="node1" class="node">
<title>Node10</title>
<polygon fill="#bfbfbf" stroke="#000000" points="0,-.5 0,-19.5 98,-19.5 98,-.5 0,-.5"/>
<text text-anchor="middle" x="49" y="-7.5" font-family="Helvetica,sans-Serif" font-size="10.00" fill="#000000">const_time_eq_bin</text>
</g>
<!-- Node11 -->
<g id="node2" class="node">
<title>Node11</title>
<g id="a_node2"><a xlink:href="const__time_8h.html#a77a2f3c6260bac2360a6c6a084113879" target="_top" xlink:title="const_time_is_zero">
<polygon fill="none" stroke="#000000" points="134,-.5 134,-19.5 235,-19.5 235,-.5 134,-.5"/>
<text text-anchor="middle" x="184.5" y="-7.5" font-family="Helvetica,sans-Serif" font-size="10.00" fill="#000000">const_time_is_zero</text>
</a>
</g>
</g>
<!-- Node10&#45;&gt;Node11 -->
<g id="edge1" class="edge">
<title>Node10&#45;&gt;Node11</title>
<path fill="none" stroke="#191970" d="M98.3019,-10C106.479,-10 115.0441,-10 123.4693,-10"/>
<polygon fill="#191970" stroke="#191970" points="123.6412,-13.5001 133.6412,-10 123.6412,-6.5001 123.6412,-13.5001"/>
</g>
<!-- Node12 -->
<g id="node3" class="node">
<title>Node12</title>
<g id="a_node3"><a xlink:href="const__time_8h.html#ac9a4461cb35e9c6350891feb8cad5f30" target="_top" xlink:title="const_time_fill_msb &#45; Fill all bits with MSB value ">
<polygon fill="none" stroke="#000000" points="271,-.5 271,-19.5 375,-19.5 375,-.5 271,-.5"/>
<text text-anchor="middle" x="323" y="-7.5" font-family="Helvetica,sans-Serif" font-size="10.00" fill="#000000">const_time_fill_msb</text>
</a>
</g>
</g>
<!-- Node11&#45;&gt;Node12 -->
<g id="edge2" class="edge">
<title>Node11&#45;&gt;Node12</title>
<path fill="none" stroke="#191970" d="M235.2858,-10C243.5188,-10 252.1274,-10 260.5979,-10"/>
<polygon fill="#191970" stroke="#191970" points="260.8272,-13.5001 270.8272,-10 260.8272,-6.5001 260.8272,-13.5001"/>
</g>
</g>
</svg>
