<?xml version="1.0" encoding="UTF-8" standalone="no"?>
<!DOCTYPE svg PUBLIC "-//W3C//DTD SVG 1.1//EN"
 "http://www.w3.org/Graphics/SVG/1.1/DTD/svg11.dtd">
<!-- Generated by graphviz version 2.40.1 (20161225.0304)
 -->
<!-- Title: const_time_is_zero Pages: 1 -->
<svg width="698pt" height="221pt"
 viewBox="0.00 0.00 698.00 220.60" xmlns="http://www.w3.org/2000/svg" xmlns:xlink="http://www.w3.org/1999/xlink">
<g id="graph0" class="graph" transform="scale(1 1) rotate(0) translate(4 216.5985)">
<title>const_time_is_zero</title>
<!-- Node33 -->
<g id="node1" class="node">
<title>Node33</title>
<polygon fill="#bfbfbf" stroke="#000000" points="0,-39.6832 0,-58.6832 101,-58.6832 101,-39.6832 0,-39.6832"/>
<text text-anchor="middle" x="50.5" y="-46.6832" font-family="Helvetica,sans-Serif" font-size="10.00" fill="#000000">const_time_is_zero</text>
</g>
<!-- Node34 -->
<g id="node2" class="node">
<title>Node34</title>
<g id="a_node2"><a xlink:href="const__time_8h.html#a89f54b85cdb1d081f1a84a26692ac667" target="_top" xlink:title="const_time_eq">
<polygon fill="none" stroke="#000000" points="146,-134.6832 146,-153.6832 226,-153.6832 226,-134.6832 146,-134.6832"/>
<text text-anchor="middle" x="186" y="-141.6832" font-family="Helvetica,sans-Serif" font-size="10.00" fill="#000000">const_time_eq</text>
</a>
</g>
</g>
<!-- Node33&#45;&gt;Node34 -->
<g id="edge1" class="edge">
<title>Node33&#45;&gt;Node34</title>
<path fill="none" stroke="#191970" d="M72.6504,-64.713C100.8635,-84.4933 148.7658,-118.078 172.2255,-134.5258"/>
<polygon fill="#191970" stroke="#191970" points="74.4355,-61.69 64.2381,-58.8151 70.417,-67.4216 74.4355,-61.69"/>
</g>
<!-- Node37 -->
<g id="node5" class="node">
<title>Node37</title>
<g id="a_node5"><a xlink:href="eap__pwd_8c.html#a5bfe87a40fca9c28f937d2f2cfcc2262" target="_top" xlink:title="is_quadratic_residue">
<polygon fill="none" stroke="#000000" points="405,-106.6832 405,-125.6832 511,-125.6832 511,-106.6832 405,-106.6832"/>
<text text-anchor="middle" x="458" y="-113.6832" font-family="Helvetica,sans-Serif" font-size="10.00" fill="#000000">is_quadratic_residue</text>
</a>
</g>
</g>
<!-- Node33&#45;&gt;Node37 -->
<g id="edge12" class="edge">
<title>Node33&#45;&gt;Node37</title>
<path fill="none" stroke="#191970" d="M111.1712,-59.1585C190.8033,-72.2514 329.3089,-95.0241 404.9559,-107.4618"/>
<polygon fill="#191970" stroke="#191970" points="111.7216,-55.7021 101.2862,-57.5333 110.5859,-62.6094 111.7216,-55.7021"/>
</g>
<!-- Node41 -->
<g id="node7" class="node">
<title>Node41</title>
<g id="a_node7"><a xlink:href="const__time_8h.html#ae609b561b1761862e11bb9256c799041" target="_top" xlink:title="const_time_eq_bin &#45; Constant time memory comparison ">
<polygon fill="none" stroke="#000000" points="137,-20.6832 137,-39.6832 235,-39.6832 235,-20.6832 137,-20.6832"/>
<text text-anchor="middle" x="186" y="-27.6832" font-family="Helvetica,sans-Serif" font-size="10.00" fill="#000000">const_time_eq_bin</text>
</a>
</g>
</g>
<!-- Node33&#45;&gt;Node41 -->
<g id="edge9" class="edge">
<title>Node33&#45;&gt;Node41</title>
<path fill="none" stroke="#191970" d="M111.51,-40.6282C119.9331,-39.4471 128.4965,-38.2464 136.6726,-37.0999"/>
<polygon fill="#191970" stroke="#191970" points="110.7578,-37.1994 101.3407,-42.0542 111.7299,-44.1316 110.7578,-37.1994"/>
</g>
<!-- Node42 -->
<g id="node8" class="node">
<title>Node42</title>
<g id="a_node8"><a xlink:href="const__time_8h.html#aab9f44a81fe678c816f4f7daf87c1237" target="_top" xlink:title="const_time_memcmp">
<polygon fill="none" stroke="#000000" points="403,-11.6832 403,-30.6832 513,-30.6832 513,-11.6832 403,-11.6832"/>
<text text-anchor="middle" x="458" y="-18.6832" font-family="Helvetica,sans-Serif" font-size="10.00" fill="#000000">const_time_memcmp</text>
</a>
</g>
</g>
<!-- Node33&#45;&gt;Node42 -->
<g id="edge10" class="edge">
<title>Node33&#45;&gt;Node42</title>
<path fill="none" stroke="#191970" d="M75.8361,-34.7094C92.5996,-25.9888 115.3955,-15.7194 137,-11.1832 228.8079,8.0937 338.5935,-2.2874 403.0699,-11.6691"/>
<polygon fill="#191970" stroke="#191970" points="73.8693,-31.7929 66.7178,-39.6099 77.1832,-37.9588 73.8693,-31.7929"/>
</g>
<!-- Node35 -->
<g id="node3" class="node">
<title>Node35</title>
<g id="a_node3"><a xlink:href="const__time_8h.html#a62462984fc273cea458736cbaa985e6b" target="_top" xlink:title="const_time_eq_u8">
<polygon fill="none" stroke="#000000" points="271,-134.6832 271,-153.6832 367,-153.6832 367,-134.6832 271,-134.6832"/>
<text text-anchor="middle" x="319" y="-141.6832" font-family="Helvetica,sans-Serif" font-size="10.00" fill="#000000">const_time_eq_u8</text>
</a>
</g>
</g>
<!-- Node34&#45;&gt;Node35 -->
<g id="edge2" class="edge">
<title>Node34&#45;&gt;Node35</title>
<path fill="none" stroke="#191970" d="M236.4235,-144.1832C247.7309,-144.1832 259.698,-144.1832 270.9076,-144.1832"/>
<polygon fill="#191970" stroke="#191970" points="236.2653,-140.6832 226.2653,-144.1832 236.2653,-147.6832 236.2653,-140.6832"/>
</g>
<!-- Node36 -->
<g id="node4" class="node">
<title>Node36</title>
<g id="a_node4"><a xlink:href="eap__pwd_8c.html#a46c40b17735bfa602aab379ba9f0071f" target="_top" xlink:title="legendre">
<polygon fill="none" stroke="#000000" points="292.5,-172.6832 292.5,-191.6832 345.5,-191.6832 345.5,-172.6832 292.5,-172.6832"/>
<text text-anchor="middle" x="319" y="-179.6832" font-family="Helvetica,sans-Serif" font-size="10.00" fill="#000000">legendre</text>
</a>
</g>
</g>
<!-- Node34&#45;&gt;Node36 -->
<g id="edge3" class="edge">
<title>Node34&#45;&gt;Node36</title>
<path fill="none" stroke="#191970" d="M229.3978,-156.5825C250.0765,-162.4907 274.1584,-169.3713 292.1455,-174.5104"/>
<polygon fill="#191970" stroke="#191970" points="230.1383,-153.1541 219.5615,-153.7722 228.2152,-159.8848 230.1383,-153.1541"/>
</g>
<!-- Node34&#45;&gt;Node37 -->
<g id="edge7" class="edge">
<title>Node34&#45;&gt;Node37</title>
<path fill="none" stroke="#191970" d="M231.9635,-132.3963C244.5421,-129.5856 258.2295,-126.9048 271,-125.1832 315.935,-119.1254 367.4256,-116.9972 404.9843,-116.3147"/>
<polygon fill="#191970" stroke="#191970" points="231.1078,-129.0017 222.152,-134.6624 232.6832,-135.8221 231.1078,-129.0017"/>
</g>
<!-- Node38 -->
<g id="node6" class="node">
<title>Node38</title>
<g id="a_node6"><a xlink:href="eap__pwd_8h.html#a2c10e1aa42efff6537f38920e62ffbb7" target="_top" xlink:title="compute_password_element">
<polygon fill="none" stroke="#ff0000" points="549,-125.6832 549,-144.6832 690,-144.6832 690,-125.6832 549,-125.6832"/>
<text text-anchor="middle" x="619.5" y="-132.6832" font-family="Helvetica,sans-Serif" font-size="10.00" fill="#000000">compute_password_element</text>
</a>
</g>
</g>
<!-- Node34&#45;&gt;Node38 -->
<g id="edge8" class="edge">
<title>Node34&#45;&gt;Node38</title>
<path fill="none" stroke="#191970" d="M203.4879,-160.5205C219.6177,-174.3865 244.9446,-193.2556 271,-201.1832 394.127,-238.6452 548.4926,-170.9485 601.0236,-144.8284"/>
<polygon fill="#191970" stroke="#191970" points="205.7363,-157.8362 195.9363,-153.81 201.0865,-163.0688 205.7363,-157.8362"/>
</g>
<!-- Node36&#45;&gt;Node37 -->
<g id="edge4" class="edge">
<title>Node36&#45;&gt;Node37</title>
<path fill="none" stroke="#191970" d="M354.072,-168.7718C358.4529,-166.9585 362.8494,-165.0708 367,-163.1832 393.2215,-151.258 422.6975,-135.6044 440.8086,-125.7166"/>
<polygon fill="#191970" stroke="#191970" points="352.5701,-165.6036 344.6081,-172.5934 355.1912,-172.0944 352.5701,-165.6036"/>
</g>
<!-- Node36&#45;&gt;Node38 -->
<g id="edge6" class="edge">
<title>Node36&#45;&gt;Node38</title>
<path fill="none" stroke="#191970" d="M355.7978,-176.4278C406.3045,-168.5282 497.751,-154.2254 558.5607,-144.7144"/>
<polygon fill="#191970" stroke="#191970" points="355.0064,-173.0089 345.6674,-178.0122 356.0881,-179.9248 355.0064,-173.0089"/>
</g>
<!-- Node37&#45;&gt;Node38 -->
<g id="edge5" class="edge">
<title>Node37&#45;&gt;Node38</title>
<path fill="none" stroke="#191970" d="M521.3831,-123.64C530.426,-124.7039 539.7739,-125.8036 548.9437,-126.8824"/>
<polygon fill="#191970" stroke="#191970" points="521.6692,-120.1496 511.3287,-122.4571 520.8513,-127.1016 521.6692,-120.1496"/>
</g>
<!-- Node42&#45;&gt;Node38 -->
<g id="edge11" class="edge">
<title>Node42&#45;&gt;Node38</title>
<path fill="none" stroke="#191970" d="M479.7741,-36.5531C513.5511,-60.3957 577.6065,-105.6112 605.7044,-125.4451"/>
<polygon fill="#191970" stroke="#191970" points="481.6797,-33.6141 471.4916,-30.7066 477.6429,-39.3329 481.6797,-33.6141"/>
</g>
</g>
</svg>
