<?xml version="1.0" encoding="UTF-8" standalone="no"?>
<!DOCTYPE svg PUBLIC "-//W3C//DTD SVG 1.1//EN"
 "http://www.w3.org/Graphics/SVG/1.1/DTD/svg11.dtd">
<!-- Generated by graphviz version 2.40.1 (20161225.0304)
 -->
<!-- Title: _fr_dbuff_out_uint64v Pages: 1 -->
<svg width="548pt" height="104pt"
 viewBox="0.00 0.00 548.00 104.00" xmlns="http://www.w3.org/2000/svg" xmlns:xlink="http://www.w3.org/1999/xlink">
<g id="graph0" class="graph" transform="scale(1 1) rotate(0) translate(4 100)">
<title>_fr_dbuff_out_uint64v</title>
<!-- Node696 -->
<g id="node1" class="node">
<title>Node696</title>
<polygon fill="#bfbfbf" stroke="#000000" points="0,-19.5 0,-38.5 110,-38.5 110,-19.5 0,-19.5"/>
<text text-anchor="middle" x="55" y="-26.5" font-family="Helvetica,sans-Serif" font-size="10.00" fill="#000000">_fr_dbuff_out_uint64v</text>
</g>
<!-- Node697 -->
<g id="node2" class="node">
<title>Node697</title>
<g id="a_node2"><a xlink:href="dbuff_8h.html#a8554c63b2979e6206faff5fd5cffd670" target="_top" xlink:title="Internal function &#45; do not call directly. ">
<polygon fill="none" stroke="#000000" points="146,-38.5 146,-57.5 262,-57.5 262,-38.5 146,-38.5"/>
<text text-anchor="middle" x="204" y="-45.5" font-family="Helvetica,sans-Serif" font-size="10.00" fill="#000000">_fr_dbuff_out_memcpy</text>
</a>
</g>
</g>
<!-- Node696&#45;&gt;Node697 -->
<g id="edge1" class="edge">
<title>Node696&#45;&gt;Node697</title>
<path fill="none" stroke="#191970" d="M110.0588,-36.0209C118.4601,-37.0922 127.2161,-38.2088 135.8572,-39.3107"/>
<polygon fill="#191970" stroke="#191970" points="135.5578,-42.8007 145.9202,-40.5939 136.4433,-35.857 135.5578,-42.8007"/>
</g>
<!-- Node701 -->
<g id="node6" class="node">
<title>Node701</title>
<g id="a_node6"><a xlink:href="net_8h.html#a9a464cd15e3781a3ff93c26066285528" target="_top" xlink:title="Read an unsigned 64bit integer from wire format (big endian) ">
<polygon fill="none" stroke="#000000" points="161,-.5 161,-19.5 247,-19.5 247,-.5 161,-.5"/>
<text text-anchor="middle" x="204" y="-7.5" font-family="Helvetica,sans-Serif" font-size="10.00" fill="#000000">fr_net_to_uint64</text>
</a>
</g>
</g>
<!-- Node696&#45;&gt;Node701 -->
<g id="edge5" class="edge">
<title>Node696&#45;&gt;Node701</title>
<path fill="none" stroke="#191970" d="M110.0588,-21.9791C123.2722,-20.2942 137.3628,-18.4974 150.504,-16.8216"/>
<polygon fill="#191970" stroke="#191970" points="151.3276,-20.245 160.8045,-15.5081 150.4421,-13.3013 151.3276,-20.245"/>
</g>
<!-- Node698 -->
<g id="node3" class="node">
<title>Node698</title>
<g id="a_node3"><a xlink:href="dbuff_8h.html#a4dd29b196cb00597a2bf6468f7754231" target="_top" xlink:title="Set a new position for &#39;p&#39; in an dbuff or marker. ">
<polygon fill="none" stroke="#000000" points="308.5,-76.5 308.5,-95.5 382.5,-95.5 382.5,-76.5 308.5,-76.5"/>
<text text-anchor="middle" x="345.5" y="-83.5" font-family="Helvetica,sans-Serif" font-size="10.00" fill="#000000">_fr_dbuff_set</text>
</a>
</g>
</g>
<!-- Node697&#45;&gt;Node698 -->
<g id="edge2" class="edge">
<title>Node697&#45;&gt;Node698</title>
<path fill="none" stroke="#191970" d="M239.7064,-57.589C257.9727,-62.4944 280.4084,-68.5196 299.9112,-73.7571"/>
<polygon fill="#191970" stroke="#191970" points="299.2394,-77.2006 309.805,-76.4141 301.055,-70.4401 299.2394,-77.2006"/>
</g>
<!-- Node700 -->
<g id="node5" class="node">
<title>Node700</title>
<g id="a_node5"><a xlink:href="dbuff_8h.html#ab3fa8c3c1c9de5e6097e8ed37359a6d7" target="_top" xlink:title="Internal copy function to switch between memcpy and memmove &#45; do not call directly. ">
<polygon fill="none" stroke="#000000" points="298,-38.5 298,-57.5 393,-57.5 393,-38.5 298,-38.5"/>
<text text-anchor="middle" x="345.5" y="-45.5" font-family="Helvetica,sans-Serif" font-size="10.00" fill="#000000">_fr_dbuff_safecpy</text>
</a>
</g>
</g>
<!-- Node697&#45;&gt;Node700 -->
<g id="edge4" class="edge">
<title>Node697&#45;&gt;Node700</title>
<path fill="none" stroke="#191970" d="M262.3704,-48C270.7053,-48 279.2768,-48 287.6025,-48"/>
<polygon fill="#191970" stroke="#191970" points="287.6038,-51.5001 297.6038,-48 287.6038,-44.5001 287.6038,-51.5001"/>
</g>
<!-- Node699 -->
<g id="node4" class="node">
<title>Node699</title>
<g id="a_node4"><a xlink:href="dbuff_8h.html#af800cc54415d9d26f6ab935ee769aaca" target="_top" xlink:title="Update the position of p in a list of dbuffs. ">
<polygon fill="none" stroke="#000000" points="429,-76.5 429,-95.5 540,-95.5 540,-76.5 429,-76.5"/>
<text text-anchor="middle" x="484.5" y="-83.5" font-family="Helvetica,sans-Serif" font-size="10.00" fill="#000000">_fr_dbuff_set_recurse</text>
</a>
</g>
</g>
<!-- Node698&#45;&gt;Node699 -->
<g id="edge3" class="edge">
<title>Node698&#45;&gt;Node699</title>
<path fill="none" stroke="#191970" d="M382.7494,-86C393.8068,-86 406.2635,-86 418.5706,-86"/>
<polygon fill="#191970" stroke="#191970" points="418.8393,-89.5001 428.8393,-86 418.8393,-82.5001 418.8393,-89.5001"/>
</g>
<!-- Node702 -->
<g id="node7" class="node">
<title>Node702</title>
<g id="a_node7"><a xlink:href="net_8h.html#a56dc3fdada059f4961924d23b1aef15a" target="_top" xlink:title="Read an unsigned 32bit integer from wire format (big endian) ">
<polygon fill="none" stroke="#000000" points="302.5,-.5 302.5,-19.5 388.5,-19.5 388.5,-.5 302.5,-.5"/>
<text text-anchor="middle" x="345.5" y="-7.5" font-family="Helvetica,sans-Serif" font-size="10.00" fill="#000000">fr_net_to_uint32</text>
</a>
</g>
</g>
<!-- Node701&#45;&gt;Node702 -->
<g id="edge6" class="edge">
<title>Node701&#45;&gt;Node702</title>
<path fill="none" stroke="#191970" d="M247.2235,-10C261.3551,-10 277.2226,-10 292.0171,-10"/>
<polygon fill="#191970" stroke="#191970" points="292.0536,-13.5001 302.0536,-10 292.0535,-6.5001 292.0536,-13.5001"/>
</g>
<!-- Node703 -->
<g id="node8" class="node">
<title>Node703</title>
<g id="a_node8"><a xlink:href="net_8h.html#a84cd6c761e97dced15b6b85deee3eb3e" target="_top" xlink:title="Read an unsigned 16bit integer from wire format (big endian) ">
<polygon fill="none" stroke="#000000" points="441.5,-.5 441.5,-19.5 527.5,-19.5 527.5,-.5 441.5,-.5"/>
<text text-anchor="middle" x="484.5" y="-7.5" font-family="Helvetica,sans-Serif" font-size="10.00" fill="#000000">fr_net_to_uint16</text>
</a>
</g>
</g>
<!-- Node702&#45;&gt;Node703 -->
<g id="edge7" class="edge">
<title>Node702&#45;&gt;Node703</title>
<path fill="none" stroke="#191970" d="M388.7185,-10C402.1857,-10 417.1969,-10 431.2659,-10"/>
<polygon fill="#191970" stroke="#191970" points="431.3082,-13.5001 441.3082,-10 431.3082,-6.5001 431.3082,-13.5001"/>
</g>
</g>
</svg>
