<?xml version="1.0" encoding="UTF-8" standalone="no"?>
<!DOCTYPE svg PUBLIC "-//W3C//DTD SVG 1.1//EN"
 "http://www.w3.org/Graphics/SVG/1.1/DTD/svg11.dtd">
<!-- Generated by graphviz version 2.40.1 (20161225.0304)
 -->
<!-- Title: fr_fault Pages: 1 -->
<!--zoomable 622 -->
<svg id="main" version="1.1" xmlns="http://www.w3.org/2000/svg" xmlns:xlink="http://www.w3.org/1999/xlink" xml:space="preserve" onload="init(evt)">
<style type="text/css"><![CDATA[
.edge:hover path { stroke: red; }
.edge:hover polygon { stroke: red; fill: red; }
]]></style>
<script type="text/javascript"><![CDATA[
var edges = document.getElementsByTagName('g');
if (edges && edges.length) {
  for (var i=0;i<edges.length;i++) {
    if (edges[i].id.substr(0,4)=='edge') {
      edges[i].setAttribute('class','edge');
    }
  }
}
]]></script>
        <defs>
                <circle id="rim" cx="0" cy="0" r="7"/>
                <circle id="rim2" cx="0" cy="0" r="3.5"/>
                <g id="zoomPlus">
                        <use xlink:href="#rim" fill="#404040">
                                <set attributeName="fill" to="#808080" begin="zoomplus.mouseover" end="zoomplus.mouseout"/>
                        </use>
                        <path d="M-4,0h8M0,-4v8" fill="none" stroke="white" stroke-width="1.5" pointer-events="none"/>
                </g>
                <g id="zoomMin">
                        <use xlink:href="#rim" fill="#404040">
                                <set attributeName="fill" to="#808080" begin="zoomminus.mouseover" end="zoomminus.mouseout"/>
                        </use>
                        <path d="M-4,0h8" fill="none" stroke="white" stroke-width="1.5" pointer-events="none"/>
                </g>
                <g id="dirArrow">
                        <path fill="none" stroke="white" stroke-width="1.5" d="M0,-3.0v7 M-2.5,-0.5L0,-3.0L2.5,-0.5"/>
                </g>
               <g id="resetDef">
                       <use xlink:href="#rim2" fill="#404040">
                               <set attributeName="fill" to="#808080" begin="reset.mouseover" end="reset.mouseout"/>
                       </use>
               </g>
        </defs>

<script type="text/javascript">
var viewWidth = 776;
var viewHeight = 622;
var sectionId = 'dynsection-14';
</script>
<script xlink:href="svgpan.js"/>
<svg id="graph" class="graph">
<g id="viewport">
<title>fr_fault</title>
<!-- Node2335 -->
<g id="node1" class="node">
<title>Node2335</title>
<polygon fill="#bfbfbf" stroke="#000000" points="0,-114.5 0,-133.5 47,-133.5 47,-114.5 0,-114.5"/>
<text text-anchor="middle" x="23.5" y="-121.5" font-family="Helvetica,sans-Serif" font-size="10.00" fill="#000000">fr_fault</text>
</g>
<!-- Node2336 -->
<g id="node2" class="node">
<title>Node2336</title>
<g id="a_node2"><a xlink:href="lib_2util_2debug_8c.html#a08f02aa0b667f7f0d3af12609467d303" target="_top" xlink:title="_panic_on_free">
<polygon fill="none" stroke="#000000" points="83.5,-228.5 83.5,-247.5 166.5,-247.5 166.5,-228.5 83.5,-228.5"/>
<text text-anchor="middle" x="125" y="-235.5" font-family="Helvetica,sans-Serif" font-size="10.00" fill="#000000">_panic_on_free</text>
</a>
</g>
</g>
<!-- Node2335&#45;&gt;Node2336 -->
<g id="edge1" class="edge">
<title>Node2335&#45;&gt;Node2336</title>
<path fill="none" stroke="#191970" d="M32.5971,-142.8648C42.7687,-162.478 60.769,-193.169 83,-214 89.0057,-219.6275 96.5682,-224.4635 103.6154,-228.2893"/>
<polygon fill="#191970" stroke="#191970" points="35.6253,-141.0956 28.0106,-133.729 29.3694,-144.2363 35.6253,-141.0956"/>
</g>
<!-- Node2338 -->
<g id="node4" class="node">
<title>Node2338</title>
<g id="a_node4"><a xlink:href="lib_2util_2debug_8c.html#ac453b0d5bbc662ead9bb53d00e553d8f" target="_top" xlink:title="Callback executed on fatal talloc error. ">
<polygon fill="none" stroke="#000000" points="85,-152.5 85,-171.5 165,-171.5 165,-152.5 85,-152.5"/>
<text text-anchor="middle" x="125" y="-159.5" font-family="Helvetica,sans-Serif" font-size="10.00" fill="#000000">_fr_talloc_fault</text>
</a>
</g>
</g>
<!-- Node2335&#45;&gt;Node2338 -->
<g id="edge3" class="edge">
<title>Node2335&#45;&gt;Node2338</title>
<path fill="none" stroke="#191970" d="M56.7311,-136.4412C70.6195,-141.6408 86.5032,-147.5874 99.4528,-152.4355"/>
<polygon fill="#191970" stroke="#191970" points="57.6336,-133.0419 47.0413,-132.8135 55.1793,-139.5975 57.6336,-133.0419"/>
</g>
<!-- Node2343 -->
<g id="node9" class="node">
<title>Node2343</title>
<g id="a_node9"><a xlink:href="debug_8h.html#a6aab44cf5798e6f4ef54ffbd62d6a126" target="_top" xlink:title="Registers signal handlers to execute panic_action on fatal signal. ">
<polygon fill="none" stroke="#000000" points="222,-143.5 222,-162.5 298,-162.5 298,-143.5 222,-143.5"/>
<text text-anchor="middle" x="260" y="-150.5" font-family="Helvetica,sans-Serif" font-size="10.00" fill="#000000">fr_fault_setup</text>
</a>
</g>
</g>
<!-- Node2335&#45;&gt;Node2343 -->
<g id="edge32" class="edge">
<title>Node2335&#45;&gt;Node2343</title>
<path fill="none" stroke="#191970" d="M57.11,-128.1213C100.603,-133.4545 176.1955,-142.7238 221.8133,-148.3175"/>
<polygon fill="#191970" stroke="#191970" points="57.3928,-124.6299 47.0412,-126.8867 56.5408,-131.5778 57.3928,-124.6299"/>
</g>
<!-- Node3782 -->
<g id="node23" class="node">
<title>Node3782</title>
<g id="a_node23"><a xlink:href="debug_8h.html#a07fea35f1f88cab508aa4f52761a7f7e" target="_top" xlink:title="A soft assertion which triggers the fault handler in debug builds. ">
<polygon fill="none" stroke="#000000" points="86,-38.5 86,-57.5 164,-57.5 164,-38.5 86,-38.5"/>
<text text-anchor="middle" x="125" y="-45.5" font-family="Helvetica,sans-Serif" font-size="10.00" fill="#000000">_fr_assert_fail</text>
</a>
</g>
</g>
<!-- Node2335&#45;&gt;Node3782 -->
<g id="edge33" class="edge">
<title>Node2335&#45;&gt;Node3782</title>
<path fill="none" stroke="#191970" d="M41.0647,-106.99C52.5223,-96.3227 68.0714,-82.6281 83,-72 90.3888,-66.7397 99.0184,-61.6462 106.5268,-57.5151"/>
<polygon fill="#191970" stroke="#191970" points="38.3711,-104.7202 33.5123,-114.1353 43.1819,-109.8052 38.3711,-104.7202"/>
</g>
<!-- Node3783 -->
<g id="node24" class="node">
<title>Node3783</title>
<g id="a_node24"><a xlink:href="debug_8h.html#ae4144b7d7f8b9d564a3cc7e50b4789b5" target="_top" xlink:title="A fatal assertion which triggers the fault handler in debug builds or exits. ">
<polygon fill="none" stroke="#000000" points="83,-.5 83,-19.5 167,-19.5 167,-.5 83,-.5"/>
<text text-anchor="middle" x="125" y="-7.5" font-family="Helvetica,sans-Serif" font-size="10.00" fill="#000000">_fr_assert_fatal</text>
</a>
</g>
</g>
<!-- Node2335&#45;&gt;Node3783 -->
<g id="edge34" class="edge">
<title>Node2335&#45;&gt;Node3783</title>
<path fill="none" stroke="#191970" d="M31.377,-104.8968C40.8841,-83.8731 58.6769,-50.2489 83,-29 87.219,-25.3143 92.2709,-22.2236 97.3849,-19.6781"/>
<polygon fill="#191970" stroke="#191970" points="28.0438,-103.7862 27.2763,-114.3532 34.4659,-106.5711 28.0438,-103.7862"/>
</g>
<!-- Node2337 -->
<g id="node3" class="node">
<title>Node2337</title>
<g id="a_node3"><a xlink:href="debug_8h.html#ac10df381e71462e8d9eb4d8416f9c93b" target="_top" xlink:title="Insert memory into the context of another talloc memory chunk which causes a panic when freed...">
<polygon fill="none" stroke="#000000" points="215.5,-228.5 215.5,-247.5 304.5,-247.5 304.5,-228.5 215.5,-228.5"/>
<text text-anchor="middle" x="260" y="-235.5" font-family="Helvetica,sans-Serif" font-size="10.00" fill="#000000">fr_panic_on_free</text>
</a>
</g>
</g>
<!-- Node2336&#45;&gt;Node2337 -->
<g id="edge2" class="edge">
<title>Node2336&#45;&gt;Node2337</title>
<path fill="none" stroke="#191970" d="M176.6597,-238C189.4583,-238 203.0621,-238 215.4862,-238"/>
<polygon fill="#191970" stroke="#191970" points="176.606,-234.5001 166.606,-238 176.606,-241.5001 176.606,-234.5001"/>
</g>
<!-- Node2339 -->
<g id="node5" class="node">
<title>Node2339</title>
<g id="a_node5"><a xlink:href="lib_2util_2debug_8c.html#a350831691679c1350f8cd2b6342f67d5" target="_top" xlink:title="Callback executed on fatal talloc error. ">
<polygon fill="none" stroke="#000000" points="203,-190.5 203,-209.5 317,-209.5 317,-190.5 203,-190.5"/>
<text text-anchor="middle" x="260" y="-197.5" font-family="Helvetica,sans-Serif" font-size="10.00" fill="#000000">_fr_talloc_fault_simple</text>
</a>
</g>
</g>
<!-- Node2338&#45;&gt;Node2339 -->
<g id="edge4" class="edge">
<title>Node2338&#45;&gt;Node2339</title>
<path fill="none" stroke="#191970" d="M168.7625,-174.3183C187.3106,-179.5393 208.5991,-185.5316 225.9447,-190.4141"/>
<polygon fill="#191970" stroke="#191970" points="169.6405,-170.9295 159.0662,-171.589 167.7438,-177.6677 169.6405,-170.9295"/>
</g>
<!-- Node2338&#45;&gt;Node2343 -->
<g id="edge9" class="edge">
<title>Node2338&#45;&gt;Node2343</title>
<path fill="none" stroke="#191970" d="M175.4774,-158.6348C190.7588,-157.6161 207.2856,-156.5143 221.6375,-155.5575"/>
<polygon fill="#191970" stroke="#191970" points="174.8839,-155.1665 165.1389,-159.3241 175.3496,-162.151 174.8839,-155.1665"/>
</g>
<!-- Node2339&#45;&gt;Node2335 -->
<g id="edge5" class="edge">
<title>Node2339&#45;&gt;Node2335</title>
<path fill="none" stroke="#191970" d="M192.5214,-202.8808C158.2924,-201.8799 116.9019,-196.7719 83,-181 59.9131,-170.2595 40.1656,-146.8978 30.2752,-133.6589"/>
<polygon fill="#191970" stroke="#191970" points="192.8369,-206.387 202.898,-203.0669 192.9624,-199.3881 192.8369,-206.387"/>
</g>
<!-- Node2340 -->
<g id="node6" class="node">
<title>Node2340</title>
<g id="a_node6"><a xlink:href="debug_8h.html#aa13aee7636788f61e3ccfe3c9b09e012" target="_top" xlink:title="Register talloc fault handlers. ">
<polygon fill="none" stroke="#000000" points="353,-556.5 353,-575.5 457,-575.5 457,-556.5 353,-556.5"/>
<text text-anchor="middle" x="405" y="-563.5" font-family="Helvetica,sans-Serif" font-size="10.00" fill="#000000">fr_talloc_fault_setup</text>
</a>
</g>
</g>
<!-- Node2339&#45;&gt;Node2340 -->
<g id="edge6" class="edge">
<title>Node2339&#45;&gt;Node2340</title>
<path fill="none" stroke="#191970" d="M312.6053,-214.944C314.1689,-216.1894 315.6421,-217.5386 317,-219 365.2277,-270.9034 397.3526,-505.5987 403.8029,-556.3174"/>
<polygon fill="#191970" stroke="#191970" points="314.4598,-211.9755 304.1484,-209.541 310.691,-217.8744 314.4598,-211.9755"/>
</g>
<!-- Node2341 -->
<g id="node7" class="node">
<title>Node2341</title>
<g id="a_node7"><a xlink:href="radiusd_8c.html#a0ddf1224851353fc92bfbff6f499fa97" target="_top" xlink:title="Entry point for the daemon. ">
<polygon fill="none" stroke="#000000" points="542.5,-594.5 542.5,-613.5 580.5,-613.5 580.5,-594.5 542.5,-594.5"/>
<text text-anchor="middle" x="561.5" y="-601.5" font-family="Helvetica,sans-Serif" font-size="10.00" fill="#000000">main</text>
</a>
</g>
</g>
<!-- Node2340&#45;&gt;Node2341 -->
<g id="edge7" class="edge">
<title>Node2340&#45;&gt;Node2341</title>
<path fill="none" stroke="#191970" d="M454.3501,-577.9828C484.2509,-585.243 520.7021,-594.0938 542.4567,-599.3761"/>
<polygon fill="#191970" stroke="#191970" points="455.0351,-574.5475 444.4916,-575.589 453.3833,-581.3498 455.0351,-574.5475"/>
</g>
<!-- Node2342 -->
<g id="node8" class="node">
<title>Node2342</title>
<g id="a_node8"><a xlink:href="trunk__tests_8c.html#ad4359b420b8d4149473d4ec7b55fd30b" target="_top" xlink:title="test_requeue_on_reconnect">
<polygon fill="none" stroke="#000000" points="493,-556.5 493,-575.5 630,-575.5 630,-556.5 493,-556.5"/>
<text text-anchor="middle" x="561.5" y="-563.5" font-family="Helvetica,sans-Serif" font-size="10.00" fill="#000000">test_requeue_on_reconnect</text>
</a>
</g>
</g>
<!-- Node2340&#45;&gt;Node2342 -->
<g id="edge8" class="edge">
<title>Node2340&#45;&gt;Node2342</title>
<path fill="none" stroke="#191970" d="M467.2435,-566C475.6776,-566 484.3709,-566 492.9084,-566"/>
<polygon fill="#191970" stroke="#191970" points="467.1123,-562.5001 457.1122,-566 467.1122,-569.5001 467.1123,-562.5001"/>
</g>
<!-- Node2344 -->
<g id="node10" class="node">
<title>Node2344</title>
<g id="a_node10"><a xlink:href="radclient_8c.html#a3c04138a5bfe5d72780bb7e82a18e627" target="_top" xlink:title="main">
<polygon fill="none" stroke="#000000" points="386,-218.5 386,-237.5 424,-237.5 424,-218.5 386,-218.5"/>
<text text-anchor="middle" x="405" y="-225.5" font-family="Helvetica,sans-Serif" font-size="10.00" fill="#000000">main</text>
</a>
</g>
</g>
<!-- Node2343&#45;&gt;Node2344 -->
<g id="edge10" class="edge">
<title>Node2343&#45;&gt;Node2344</title>
<path fill="none" stroke="#191970" d="M288.8661,-166.944C297.9061,-171.3739 307.8971,-176.335 317,-181 341.6625,-193.6389 369.8719,-208.8385 387.5607,-218.4609"/>
<polygon fill="#191970" stroke="#191970" points="290.3891,-163.7927 279.8669,-162.5545 287.3203,-170.0842 290.3891,-163.7927"/>
</g>
<!-- Node2345 -->
<g id="node11" class="node">
<title>Node2345</title>
<g id="a_node11"><a xlink:href="comp128_8h.html#a5d4168028ccd505946cb69b67abdd297" target="_top" xlink:title="Calculate comp128v2 or comp128v3 sres and kc from ki and rand. ">
<polygon fill="none" stroke="#ff0000" points="525.5,-500.5 525.5,-519.5 597.5,-519.5 597.5,-500.5 525.5,-500.5"/>
<text text-anchor="middle" x="561.5" y="-507.5" font-family="Helvetica,sans-Serif" font-size="10.00" fill="#000000">comp128v23</text>
</a>
</g>
</g>
<!-- Node2344&#45;&gt;Node2345 -->
<g id="edge11" class="edge">
<title>Node2344&#45;&gt;Node2345</title>
<path fill="none" stroke="#191970" d="M406.0666,-247.9802C409.6883,-295.7898 425.423,-417.8606 493,-486 501.6959,-494.7683 513.7724,-500.3404 525.3668,-503.8785"/>
<polygon fill="#191970" stroke="#191970" points="409.5421,-247.4902 405.3956,-237.7405 402.5571,-247.9481 409.5421,-247.4902"/>
</g>
<!-- Node2368 -->
<g id="node12" class="node">
<title>Node2368</title>
<g id="a_node12"><a xlink:href="event_8h.html#a95b6ed57fdb96da9e693d782a792f139" target="_top" xlink:title="Return whether the event loop has any active events. ">
<polygon fill="none" stroke="#000000" points="666,-434.5 666,-453.5 768,-453.5 768,-434.5 666,-434.5"/>
<text text-anchor="middle" x="717" y="-441.5" font-family="Helvetica,sans-Serif" font-size="10.00" fill="#000000">fr_event_list_empty</text>
</a>
</g>
</g>
<!-- Node2344&#45;&gt;Node2368 -->
<g id="edge13" class="edge">
<title>Node2344&#45;&gt;Node2368</title>
<path fill="none" stroke="#191970" d="M409.6896,-247.6632C422.1056,-297.8871 457.3319,-428.6511 493,-453 554.396,-494.9121 648.8686,-469.2736 692.8848,-453.552"/>
<polygon fill="#191970" stroke="#191970" points="413.038,-246.6202 407.2736,-237.7308 406.2363,-248.2747 413.038,-246.6202"/>
</g>
<!-- Node2369 -->
<g id="node13" class="node">
<title>Node2369</title>
<g id="a_node13"><a xlink:href="fifo_8h.html#a8ec8c40ef16cc9a67788e6bf4c5fb4f5" target="_top" xlink:title="Return the number of elements in the fifo queue. ">
<polygon fill="none" stroke="#ff0000" points="506.5,-350.5 506.5,-369.5 616.5,-369.5 616.5,-350.5 506.5,-350.5"/>
<text text-anchor="middle" x="561.5" y="-357.5" font-family="Helvetica,sans-Serif" font-size="10.00" fill="#000000">fr_fifo_num_elements</text>
</a>
</g>
</g>
<!-- Node2344&#45;&gt;Node2369 -->
<g id="edge14" class="edge">
<title>Node2344&#45;&gt;Node2369</title>
<path fill="none" stroke="#191970" d="M414.4154,-246.4575C428.2178,-271.6471 456.3336,-316.4575 493,-341 498.8459,-344.9129 505.4845,-348.0253 512.2729,-350.4997"/>
<polygon fill="#191970" stroke="#191970" points="417.4702,-244.7473 409.689,-237.5567 411.2878,-248.0302 417.4702,-244.7473"/>
</g>
<!-- Node2405 -->
<g id="node14" class="node">
<title>Node2405</title>
<g id="a_node14"><a xlink:href="hash_8h.html#a2719b2d3eda3e8506d7d662917438596" target="_top" xlink:title="Hash a C string, converting all chars to lowercase. ">
<polygon fill="none" stroke="#000000" points="509.5,-312.5 509.5,-331.5 613.5,-331.5 613.5,-312.5 509.5,-312.5"/>
<text text-anchor="middle" x="561.5" y="-319.5" font-family="Helvetica,sans-Serif" font-size="10.00" fill="#000000">fr_hash_case_string</text>
</a>
</g>
</g>
<!-- Node2344&#45;&gt;Node2405 -->
<g id="edge16" class="edge">
<title>Node2344&#45;&gt;Node2405</title>
<path fill="none" stroke="#191970" d="M420.6603,-245.1512C437.1108,-262.1804 464.5094,-287.8696 493,-303 500.1938,-306.8204 508.2313,-309.9338 516.1993,-312.4507"/>
<polygon fill="#191970" stroke="#191970" points="422.9162,-242.4421 413.5073,-237.5714 417.8251,-247.2464 422.9162,-242.4421"/>
</g>
<!-- Node2406 -->
<g id="node15" class="node">
<title>Node2406</title>
<g id="a_node15"><a xlink:href="hmac__md5_8c.html#ad2cdd3bcebcf92acb528af5d38e85d9e" target="_top" xlink:title="Calculate HMAC using internal MD5 implementation. ">
<polygon fill="none" stroke="#ff0000" points="523.5,-274.5 523.5,-293.5 599.5,-293.5 599.5,-274.5 523.5,-274.5"/>
<text text-anchor="middle" x="561.5" y="-281.5" font-family="Helvetica,sans-Serif" font-size="10.00" fill="#000000">fr_hmac_md5</text>
</a>
</g>
</g>
<!-- Node2344&#45;&gt;Node2406 -->
<g id="edge17" class="edge">
<title>Node2344&#45;&gt;Node2406</title>
<path fill="none" stroke="#191970" d="M433.6785,-241.1507C450.708,-248.6835 472.8456,-257.9998 493,-265 502.7929,-268.4013 513.5343,-271.6162 523.5474,-274.4008"/>
<polygon fill="#191970" stroke="#191970" points="434.853,-237.8419 424.2956,-236.9526 431.9941,-244.2315 434.853,-237.8419"/>
</g>
<!-- Node2803 -->
<g id="node16" class="node">
<title>Node2803</title>
<g id="a_node16"><a xlink:href="sha1_8h.html#a2bdb1a7038f0010ff52423c27a5eb55e" target="_top" xlink:title="Calculate HMAC using internal SHA1 implementation. ">
<polygon fill="none" stroke="#ff0000" points="522.5,-218.5 522.5,-237.5 600.5,-237.5 600.5,-218.5 522.5,-218.5"/>
<text text-anchor="middle" x="561.5" y="-225.5" font-family="Helvetica,sans-Serif" font-size="10.00" fill="#000000">fr_hmac_sha1</text>
</a>
</g>
</g>
<!-- Node2344&#45;&gt;Node2803 -->
<g id="edge18" class="edge">
<title>Node2344&#45;&gt;Node2803</title>
<path fill="none" stroke="#191970" d="M434.4405,-228C459.2899,-228 495.0724,-228 522.3365,-228"/>
<polygon fill="#191970" stroke="#191970" points="434.19,-224.5001 424.19,-228 434.1899,-231.5001 434.19,-224.5001"/>
</g>
<!-- Node2815 -->
<g id="node17" class="node">
<title>Node2815</title>
<g id="a_node17"><a xlink:href="rand_8h.html#a397c42de24ad86f9d3d899957e33e679" target="_top" xlink:title="fr_rand_init">
<polygon fill="none" stroke="#ff0000" points="529,-406.5 529,-425.5 594,-425.5 594,-406.5 529,-406.5"/>
<text text-anchor="middle" x="561.5" y="-413.5" font-family="Helvetica,sans-Serif" font-size="10.00" fill="#000000">fr_rand_init</text>
</a>
</g>
</g>
<!-- Node2344&#45;&gt;Node2815 -->
<g id="edge20" class="edge">
<title>Node2344&#45;&gt;Node2815</title>
<path fill="none" stroke="#191970" d="M409.7321,-247.7996C419.2367,-283.2065 444.0526,-357.3659 493,-397 503.1668,-405.2323 516.6584,-409.9048 528.9783,-412.5539"/>
<polygon fill="#191970" stroke="#191970" points="413.0344,-246.5843 407.1731,-237.7584 406.2512,-248.313 413.0344,-246.5843"/>
</g>
<!-- Node3060 -->
<g id="node18" class="node">
<title>Node3060</title>
<g id="a_node18"><a xlink:href="snprintf_8c.html#a8da10a1735da7051de5c298ca7448eee" target="_top" xlink:title="snprintf">
<polygon fill="none" stroke="#ff0000" points="537,-10.5 537,-29.5 586,-29.5 586,-10.5 537,-10.5"/>
<text text-anchor="middle" x="561.5" y="-17.5" font-family="Helvetica,sans-Serif" font-size="10.00" fill="#000000">snprintf</text>
</a>
</g>
</g>
<!-- Node2344&#45;&gt;Node3060 -->
<g id="edge23" class="edge">
<title>Node2344&#45;&gt;Node3060</title>
<path fill="none" stroke="#191970" d="M418.7238,-209.8788C430.1398,-194.1625 446.2103,-170.4689 457,-148 479.0848,-102.0095 456.0618,-74.1914 493,-39 504.7053,-27.8482 522.3681,-23.1343 536.8262,-21.1897"/>
<polygon fill="#191970" stroke="#191970" points="415.7459,-208.0192 412.6151,-218.1409 421.3746,-212.1808 415.7459,-208.0192"/>
</g>
<!-- Node3078 -->
<g id="node19" class="node">
<title>Node3078</title>
<g id="a_node19"><a xlink:href="trie_8h.html#aa11d3bbe61b4e23de7e0a529c10810be" target="_top" xlink:title="fr_trie_walk">
<polygon fill="none" stroke="#ff0000" points="683.5,-95.5 683.5,-114.5 750.5,-114.5 750.5,-95.5 683.5,-95.5"/>
<text text-anchor="middle" x="717" y="-102.5" font-family="Helvetica,sans-Serif" font-size="10.00" fill="#000000">fr_trie_walk</text>
</a>
</g>
</g>
<!-- Node2344&#45;&gt;Node3078 -->
<g id="edge27" class="edge">
<title>Node2344&#45;&gt;Node3078</title>
<path fill="none" stroke="#191970" d="M433.9239,-221.3534C490.5903,-208.2325 612.2678,-179.534 630,-171 661.0913,-156.0366 691.9473,-128.9908 707.188,-114.6052"/>
<polygon fill="#191970" stroke="#191970" points="433.0949,-217.9526 424.1393,-223.6137 434.6705,-224.773 433.0949,-217.9526"/>
</g>
<!-- Node3773 -->
<g id="node20" class="node">
<title>Node3773</title>
<g id="a_node20"><a xlink:href="udpfromto_8h.html#aa0e3ddd0d191087ba4b18d3eaacc63fa" target="_top" xlink:title="Send packet via a file descriptor, setting the src address and outbound interface. ">
<polygon fill="none" stroke="#ff0000" points="529,-124.5 529,-143.5 594,-143.5 594,-124.5 529,-124.5"/>
<text text-anchor="middle" x="561.5" y="-131.5" font-family="Helvetica,sans-Serif" font-size="10.00" fill="#000000">sendfromto</text>
</a>
</g>
</g>
<!-- Node2344&#45;&gt;Node3773 -->
<g id="edge28" class="edge">
<title>Node2344&#45;&gt;Node3773</title>
<path fill="none" stroke="#191970" d="M429.7421,-213.1389C462.2088,-193.6382 518.2606,-159.9713 545.5907,-143.5557"/>
<polygon fill="#191970" stroke="#191970" points="427.6377,-210.3201 420.8673,-218.4695 431.242,-216.3208 427.6377,-210.3201"/>
</g>
<!-- Node3777 -->
<g id="node21" class="node">
<title>Node3777</title>
<g id="a_node21"><a xlink:href="timestr_8c.html#a944f1c665be9eb7b98abd2f180ff6e3f" target="_top" xlink:title="timestr_match">
<polygon fill="none" stroke="#ff0000" points="522,-86.5 522,-105.5 601,-105.5 601,-86.5 522,-86.5"/>
<text text-anchor="middle" x="561.5" y="-93.5" font-family="Helvetica,sans-Serif" font-size="10.00" fill="#000000">timestr_match</text>
</a>
</g>
</g>
<!-- Node2344&#45;&gt;Node3777 -->
<g id="edge30" class="edge">
<title>Node2344&#45;&gt;Node3777</title>
<path fill="none" stroke="#191970" d="M417.117,-209.734C436.4098,-181.1538 473.8782,-127.7991 493,-115 501.615,-109.2336 511.9515,-105.2057 521.9523,-102.3964"/>
<polygon fill="#191970" stroke="#191970" points="413.9814,-208.1262 411.3238,-218.3823 419.7971,-212.022 413.9814,-208.1262"/>
</g>
<!-- Node3781 -->
<g id="node22" class="node">
<title>Node3781</title>
<g id="a_node22"><a xlink:href="rlm__passwd_8c.html#a4ffa1b9e22a6bb64bd03150655bc1fb5" target="_top" xlink:title="get_pw_nam">
<polygon fill="none" stroke="#ff0000" points="525.5,-48.5 525.5,-67.5 597.5,-67.5 597.5,-48.5 525.5,-48.5"/>
<text text-anchor="middle" x="561.5" y="-55.5" font-family="Helvetica,sans-Serif" font-size="10.00" fill="#000000">get_pw_nam</text>
</a>
</g>
</g>
<!-- Node2344&#45;&gt;Node3781 -->
<g id="edge31" class="edge">
<title>Node2344&#45;&gt;Node3781</title>
<path fill="none" stroke="#191970" d="M417.5181,-209.9637C428.4233,-193.9727 444.4159,-169.8356 457,-148 474.6662,-117.3462 465.6245,-99.4128 493,-77 502.1672,-69.4946 514.0918,-64.9464 525.4166,-62.1929"/>
<polygon fill="#191970" stroke="#191970" points="414.5283,-208.1347 411.7494,-218.3586 420.2975,-212.0991 414.5283,-208.1347"/>
</g>
<!-- Node2345&#45;&gt;Node2345 -->
<g id="edge12" class="edge">
<title>Node2345&#45;&gt;Node2345</title>
<path fill="none" stroke="#191970" d="M532.7542,-528.6539C533.9558,-533.9368 543.5377,-538 561.5,-538 588.8711,-538 596.7831,-528.5653 585.2359,-519.7571"/>
<polygon fill="#191970" stroke="#191970" points="535.9072,-530.1879 537.7641,-519.7571 529.8077,-526.7532 535.9072,-530.1879"/>
</g>
<!-- Node2369&#45;&gt;Node2369 -->
<g id="edge15" class="edge">
<title>Node2369&#45;&gt;Node2369</title>
<path fill="none" stroke="#191970" d="M532.7542,-378.6539C533.9558,-383.9368 543.5377,-388 561.5,-388 588.8711,-388 596.7831,-378.5653 585.2359,-369.7571"/>
<polygon fill="#191970" stroke="#191970" points="535.9072,-380.1879 537.7641,-369.7571 529.8077,-376.7532 535.9072,-380.1879"/>
</g>
<!-- Node2803&#45;&gt;Node2803 -->
<g id="edge19" class="edge">
<title>Node2803&#45;&gt;Node2803</title>
<path fill="none" stroke="#191970" d="M532.7542,-246.6539C533.9558,-251.9368 543.5377,-256 561.5,-256 588.8711,-256 596.7831,-246.5653 585.2359,-237.7571"/>
<polygon fill="#191970" stroke="#191970" points="535.9072,-248.1879 537.7641,-237.7571 529.8077,-244.7532 535.9072,-248.1879"/>
</g>
<!-- Node2815&#45;&gt;Node2368 -->
<g id="edge21" class="edge">
<title>Node2815&#45;&gt;Node2368</title>
<path fill="none" stroke="#191970" d="M604.0024,-423.6532C623.0854,-427.0893 645.762,-431.1726 665.7747,-434.7761"/>
<polygon fill="#191970" stroke="#191970" points="604.5599,-420.1973 594.0979,-421.8697 603.3193,-427.0865 604.5599,-420.1973"/>
</g>
<!-- Node2815&#45;&gt;Node2815 -->
<g id="edge22" class="edge">
<title>Node2815&#45;&gt;Node2815</title>
<path fill="none" stroke="#191970" d="M532.7542,-434.6539C533.9558,-439.9368 543.5377,-444 561.5,-444 588.8711,-444 596.7831,-434.5653 585.2359,-425.7571"/>
<polygon fill="#191970" stroke="#191970" points="535.9072,-436.1879 537.7641,-425.7571 529.8077,-432.7532 535.9072,-436.1879"/>
</g>
<!-- Node3060&#45;&gt;Node2335 -->
<g id="edge24" class="edge">
<title>Node3060&#45;&gt;Node2335</title>
<path fill="none" stroke="#191970" d="M526.7289,-26.7216C425.5336,-46.2835 132.9449,-102.8434 47.3114,-119.3971"/>
<polygon fill="#191970" stroke="#191970" points="527.5819,-30.1215 536.7358,-24.7871 526.2533,-23.2488 527.5819,-30.1215"/>
</g>
<!-- Node3060&#45;&gt;Node2343 -->
<g id="edge25" class="edge">
<title>Node3060&#45;&gt;Node2343</title>
<path fill="none" stroke="#191970" d="M527.022,-24.2209C515.3317,-26.9697 502.7718,-31.5079 493,-39 468.0174,-58.1542 482.0567,-80.9428 457,-100 410.0629,-135.6986 340.8481,-147.3805 298.1888,-151.1855"/>
<polygon fill="#191970" stroke="#191970" points="527.8564,-27.6236 536.9796,-22.2367 526.4884,-20.7585 527.8564,-27.6236"/>
</g>
<!-- Node3060&#45;&gt;Node3078 -->
<g id="edge26" class="edge">
<title>Node3060&#45;&gt;Node3078</title>
<path fill="none" stroke="#191970" d="M595.9881,-26.8544C607.1715,-29.781 619.4155,-33.7588 630,-39 660.9213,-54.3116 691.849,-81.2105 707.1453,-95.4821"/>
<polygon fill="#191970" stroke="#191970" points="596.6368,-23.4104 586.0937,-24.4562 594.9878,-30.2134 596.6368,-23.4104"/>
</g>
<!-- Node3773&#45;&gt;Node3773 -->
<g id="edge29" class="edge">
<title>Node3773&#45;&gt;Node3773</title>
<path fill="none" stroke="#191970" d="M532.7542,-152.6539C533.9558,-157.9368 543.5377,-162 561.5,-162 588.8711,-162 596.7831,-152.5653 585.2359,-143.7571"/>
<polygon fill="#191970" stroke="#191970" points="535.9072,-154.1879 537.7641,-143.7571 529.8077,-150.7532 535.9072,-154.1879"/>
</g>
</g>
</svg>
        <g id="navigator" transform="translate(0 0)" fill="#404254">
                <rect fill="#f2f5e9" fill-opacity="0.5" stroke="#606060" stroke-width=".5" x="0" y="0" width="60" height="60"/>
                <use id="zoomplus" xlink:href="#zoomPlus" x="17" y="9" onmousedown="handleZoom(evt,'in')"/>
                <use id="zoomminus" xlink:href="#zoomMin" x="42" y="9" onmousedown="handleZoom(evt,'out')"/>
                <use id="reset" xlink:href="#resetDef" x="30" y="36" onmousedown="handleReset()"/>
                <g id="arrowUp" xlink:href="#dirArrow" transform="translate(30 24)" onmousedown="handlePan(0,-1)">
                  <use xlink:href="#rim" fill="#404040">
                        <set attributeName="fill" to="#808080" begin="arrowUp.mouseover" end="arrowUp.mouseout"/>
                  </use>
                  <path fill="none" stroke="white" stroke-width="1.5" d="M0,-3.0v7 M-2.5,-0.5L0,-3.0L2.5,-0.5"/>
                </g>
                <g id="arrowRight" xlink:href="#dirArrow" transform="rotate(90) translate(36 -43)" onmousedown="handlePan(1,0)">
                  <use xlink:href="#rim" fill="#404040">
                        <set attributeName="fill" to="#808080" begin="arrowRight.mouseover" end="arrowRight.mouseout"/>
                  </use>
                  <path fill="none" stroke="white" stroke-width="1.5" d="M0,-3.0v7 M-2.5,-0.5L0,-3.0L2.5,-0.5"/>
                </g>
                <g id="arrowDown" xlink:href="#dirArrow" transform="rotate(180) translate(-30 -48)" onmousedown="handlePan(0,1)">
                  <use xlink:href="#rim" fill="#404040">
                        <set attributeName="fill" to="#808080" begin="arrowDown.mouseover" end="arrowDown.mouseout"/>
                  </use>
                  <path fill="none" stroke="white" stroke-width="1.5" d="M0,-3.0v7 M-2.5,-0.5L0,-3.0L2.5,-0.5"/>
                </g>
                <g id="arrowLeft" xlink:href="#dirArrow" transform="rotate(270) translate(-36 17)" onmousedown="handlePan(-1,0)">
                  <use xlink:href="#rim" fill="#404040">
                        <set attributeName="fill" to="#808080" begin="arrowLeft.mouseover" end="arrowLeft.mouseout"/>
                  </use>
                  <path fill="none" stroke="white" stroke-width="1.5" d="M0,-3.0v7 M-2.5,-0.5L0,-3.0L2.5,-0.5"/>
                </g>
        </g>
        <svg viewBox="0 0 15 15" width="100%" height="30px" preserveAspectRatio="xMaxYMin meet">
         <g id="arrow_out" transform="scale(0.3 0.3)">
          <a xlink:href="debug_8h_a93db28a7cf15835274559980303541b8_icgraph_org.svg" target="_base">
           <rect id="button" ry="5" rx="5" y="6" x="6" height="38" width="38"
                fill="#f2f5e9" fill-opacity="0.5" stroke="#606060" stroke-width="1.0"/>
           <path id="arrow"
             d="M 11.500037,31.436501 C 11.940474,20.09759 22.043105,11.32322 32.158766,21.979434 L 37.068811,17.246167 C 37.068811,17.246167 37.088388,32 37.088388,32 L 22.160133,31.978069 C 22.160133,31.978069 26.997745,27.140456 26.997745,27.140456 C 18.528582,18.264221 13.291696,25.230495 11.500037,31.436501 z"
             style="fill:#404040;"/>
          </a>
         </g>
        </svg>
</svg>
