<?xml version="1.0" encoding="UTF-8" standalone="no"?>
<!DOCTYPE svg PUBLIC "-//W3C//DTD SVG 1.1//EN"
 "http://www.w3.org/Graphics/SVG/1.1/DTD/svg11.dtd">
<!-- Generated by graphviz version 2.40.1 (20161225.0304)
 -->
<!-- Title: fr_set_dumpable_init Pages: 1 -->
<!--zoomable 636 -->
<svg id="main" version="1.1" xmlns="http://www.w3.org/2000/svg" xmlns:xlink="http://www.w3.org/1999/xlink" xml:space="preserve" onload="init(evt)">
<style type="text/css"><![CDATA[
.edge:hover path { stroke: red; }
.edge:hover polygon { stroke: red; fill: red; }
]]></style>
<script type="text/javascript"><![CDATA[
var edges = document.getElementsByTagName('g');
if (edges && edges.length) {
  for (var i=0;i<edges.length;i++) {
    if (edges[i].id.substr(0,4)=='edge') {
      edges[i].setAttribute('class','edge');
    }
  }
}
]]></script>
        <defs>
                <circle id="rim" cx="0" cy="0" r="7"/>
                <circle id="rim2" cx="0" cy="0" r="3.5"/>
                <g id="zoomPlus">
                        <use xlink:href="#rim" fill="#404040">
                                <set attributeName="fill" to="#808080" begin="zoomplus.mouseover" end="zoomplus.mouseout"/>
                        </use>
                        <path d="M-4,0h8M0,-4v8" fill="none" stroke="white" stroke-width="1.5" pointer-events="none"/>
                </g>
                <g id="zoomMin">
                        <use xlink:href="#rim" fill="#404040">
                                <set attributeName="fill" to="#808080" begin="zoomminus.mouseover" end="zoomminus.mouseout"/>
                        </use>
                        <path d="M-4,0h8" fill="none" stroke="white" stroke-width="1.5" pointer-events="none"/>
                </g>
                <g id="dirArrow">
                        <path fill="none" stroke="white" stroke-width="1.5" d="M0,-3.0v7 M-2.5,-0.5L0,-3.0L2.5,-0.5"/>
                </g>
               <g id="resetDef">
                       <use xlink:href="#rim2" fill="#404040">
                               <set attributeName="fill" to="#808080" begin="reset.mouseover" end="reset.mouseout"/>
                       </use>
               </g>
        </defs>

<script type="text/javascript">
var viewWidth = 787;
var viewHeight = 636;
var sectionId = 'dynsection-30';
</script>
<script xlink:href="svgpan.js"/>
<svg id="graph" class="graph">
<g id="viewport">
<title>fr_set_dumpable_init</title>
<!-- Node9415 -->
<g id="node1" class="node">
<title>Node9415</title>
<polygon fill="#bfbfbf" stroke="#000000" points="0,-493.5 0,-512.5 107,-512.5 107,-493.5 0,-493.5"/>
<text text-anchor="middle" x="53.5" y="-500.5" font-family="Helvetica,sans-Serif" font-size="10.00" fill="#000000">fr_set_dumpable_init</text>
</g>
<!-- Node9416 -->
<g id="node2" class="node">
<title>Node9416</title>
<g id="a_node2"><a xlink:href="strerror_8c.html#ae701765650b8aea79a3037bc4921d7f8" target="_top" xlink:title="Log to thread local error buffer. ">
<polygon fill="none" stroke="#000000" points="143,-427.5 143,-446.5 229,-446.5 229,-427.5 143,-427.5"/>
<text text-anchor="middle" x="186" y="-434.5" font-family="Helvetica,sans-Serif" font-size="10.00" fill="#000000">fr_strerror_printf</text>
</a>
</g>
</g>
<!-- Node9415&#45;&gt;Node9416 -->
<g id="edge1" class="edge">
<title>Node9415&#45;&gt;Node9416</title>
<path fill="none" stroke="#191970" d="M72.7666,-493.403C95.042,-482.3074 131.9174,-463.9393 157.5085,-451.192"/>
<polygon fill="#191970" stroke="#191970" points="159.3196,-454.2001 166.7101,-446.6085 156.1985,-447.9344 159.3196,-454.2001"/>
</g>
<!-- Node9500 -->
<g id="node19" class="node">
<title>Node9500</title>
<g id="a_node19"><a xlink:href="syserror_8c.html#a18747f9d648d0aeecc4a8b27ac0435aa" target="_top" xlink:title="Guaranteed to be thread&#45;safe version of strerror. ">
<polygon fill="none" stroke="#ff0000" points="279,-608.5 279,-627.5 342,-627.5 342,-608.5 279,-608.5"/>
<text text-anchor="middle" x="310.5" y="-615.5" font-family="Helvetica,sans-Serif" font-size="10.00" fill="#000000">fr_syserror</text>
</a>
</g>
</g>
<!-- Node9415&#45;&gt;Node9500 -->
<g id="edge29" class="edge">
<title>Node9415&#45;&gt;Node9500</title>
<path fill="none" stroke="#191970" d="M74.9696,-512.607C120.5114,-532.9857 226.9374,-580.6082 279.7084,-604.2217"/>
<polygon fill="#191970" stroke="#191970" points="278.3533,-607.4497 288.9107,-608.3394 281.2125,-601.0602 278.3533,-607.4497"/>
</g>
<!-- Node9417 -->
<g id="node3" class="node">
<title>Node9417</title>
<g id="a_node3"><a xlink:href="acutest_8h.html#aecf9a9be8105efb1454cd8c1ef6cb1c5" target="_top" xlink:title="va_start">
<polygon fill="none" stroke="#000000" points="702.5,-551.5 702.5,-570.5 754.5,-570.5 754.5,-551.5 702.5,-551.5"/>
<text text-anchor="middle" x="728.5" y="-558.5" font-family="Helvetica,sans-Serif" font-size="10.00" fill="#000000">va_start</text>
</a>
</g>
</g>
<!-- Node9416&#45;&gt;Node9417 -->
<g id="edge2" class="edge">
<title>Node9416&#45;&gt;Node9417</title>
<path fill="none" stroke="#191970" d="M204.7109,-446.5831C254.7115,-471.5859 396.2593,-538.4227 523,-561 581.4837,-571.4182 650.8245,-568.2841 692.1584,-564.8196"/>
<polygon fill="#191970" stroke="#191970" points="692.6407,-568.2906 702.2902,-563.9161 692.0189,-561.3183 692.6407,-568.2906"/>
</g>
<!-- Node9418 -->
<g id="node4" class="node">
<title>Node9418</title>
<g id="a_node4"><a xlink:href="strerror_8c.html#a193b1e0b3712e3bbee338812c06af482" target="_top" xlink:title="fr_strerror_vprintf">
<polygon fill="none" stroke="#000000" points="265,-380.5 265,-399.5 356,-399.5 356,-380.5 265,-380.5"/>
<text text-anchor="middle" x="310.5" y="-387.5" font-family="Helvetica,sans-Serif" font-size="10.00" fill="#000000">fr_strerror_vprintf</text>
</a>
</g>
</g>
<!-- Node9416&#45;&gt;Node9418 -->
<g id="edge3" class="edge">
<title>Node9416&#45;&gt;Node9418</title>
<path fill="none" stroke="#191970" d="M211.1944,-427.4888C229.635,-420.5274 254.8966,-410.9908 275.326,-403.2785"/>
<polygon fill="#191970" stroke="#191970" points="276.7963,-406.4646 284.9157,-399.6583 274.324,-399.9158 276.7963,-406.4646"/>
</g>
<!-- Node9421 -->
<g id="node7" class="node">
<title>Node9421</title>
<g id="a_node7"><a xlink:href="acutest_8h.html#a36af1f79dd6adf0809c21e76535034d5" target="_top" xlink:title="va_end">
<polygon fill="none" stroke="#000000" points="704.5,-475.5 704.5,-494.5 752.5,-494.5 752.5,-475.5 704.5,-475.5"/>
<text text-anchor="middle" x="728.5" y="-482.5" font-family="Helvetica,sans-Serif" font-size="10.00" fill="#000000">va_end</text>
</a>
</g>
</g>
<!-- Node9416&#45;&gt;Node9421 -->
<g id="edge28" class="edge">
<title>Node9416&#45;&gt;Node9421</title>
<path fill="none" stroke="#191970" d="M229.0225,-440.8066C333.5101,-450.0516 599.0368,-473.5452 694.0406,-481.9511"/>
<polygon fill="#191970" stroke="#191970" points="693.9764,-485.459 704.246,-482.854 694.5934,-478.4862 693.9764,-485.459"/>
</g>
<!-- Node9419 -->
<g id="node5" class="node">
<title>Node9419</title>
<g id="a_node5"><a xlink:href="strerror_8c.html#a42c2cc9f76fb9dac723a1903c181e1c7" target="_top" xlink:title="Initialise thread local storage. ">
<polygon fill="none" stroke="#000000" points="401,-342.5 401,-361.5 478,-361.5 478,-342.5 401,-342.5"/>
<text text-anchor="middle" x="439.5" y="-349.5" font-family="Helvetica,sans-Serif" font-size="10.00" fill="#000000">fr_strerror_init</text>
</a>
</g>
</g>
<!-- Node9418&#45;&gt;Node9419 -->
<g id="edge4" class="edge">
<title>Node9418&#45;&gt;Node9419</title>
<path fill="none" stroke="#191970" d="M343.0521,-380.411C359.3993,-375.5956 379.4092,-369.7012 396.9571,-364.532"/>
<polygon fill="#191970" stroke="#191970" points="398.3548,-367.7691 406.9583,-361.5859 396.3768,-361.0543 398.3548,-367.7691"/>
</g>
<!-- Node9420 -->
<g id="node6" class="node">
<title>Node9420</title>
<g id="a_node6"><a xlink:href="strerror_8c.html#a2c8e65d6d4b73fb705cc023f60acb099" target="_top" xlink:title="Print the current error to stderr with a prefix. ">
<polygon fill="none" stroke="#ff0000" points="556,-532.5 556,-551.5 609,-551.5 609,-532.5 556,-532.5"/>
<text text-anchor="middle" x="582.5" y="-539.5" font-family="Helvetica,sans-Serif" font-size="10.00" fill="#000000">fr_perror</text>
</a>
</g>
</g>
<!-- Node9418&#45;&gt;Node9420 -->
<g id="edge11" class="edge">
<title>Node9418&#45;&gt;Node9420</title>
<path fill="none" stroke="#191970" d="M324.7006,-399.5783C340.7863,-410.3055 367.9,-428.0196 392,-442 448.2047,-474.6043 515.9867,-509.0722 553.6604,-527.8165"/>
<polygon fill="#191970" stroke="#191970" points="552.4952,-531.1453 563.0091,-532.4523 555.605,-524.874 552.4952,-531.1453"/>
</g>
<!-- Node9418&#45;&gt;Node9421 -->
<g id="edge26" class="edge">
<title>Node9418&#45;&gt;Node9421</title>
<path fill="none" stroke="#191970" d="M351.1133,-399.5263C364.1649,-402.5722 378.689,-405.9453 392,-409 502.6396,-434.3905 633.9029,-463.8436 694.6044,-477.4258"/>
<polygon fill="#191970" stroke="#191970" points="693.8903,-480.8525 704.4132,-479.6199 695.4184,-474.0213 693.8903,-480.8525"/>
</g>
<!-- Node9427 -->
<g id="node9" class="node">
<title>Node9427</title>
<g id="a_node9"><a xlink:href="strerror_8c.html#a9d878c1ddb1b385cdaf6523fff68529c" target="_top" xlink:title="Reset cursor state. ">
<polygon fill="none" stroke="#000000" points="686,-304.5 686,-323.5 771,-323.5 771,-304.5 686,-304.5"/>
<text text-anchor="middle" x="728.5" y="-311.5" font-family="Helvetica,sans-Serif" font-size="10.00" fill="#000000">fr_strerror_clear</text>
</a>
</g>
</g>
<!-- Node9418&#45;&gt;Node9427 -->
<g id="edge10" class="edge">
<title>Node9418&#45;&gt;Node9427</title>
<path fill="none" stroke="#191970" d="M320.4991,-380.1507C334.9004,-366.6856 362.9577,-343.0568 392,-333 487.8492,-299.8091 608.1866,-302.8567 675.8974,-308.2839"/>
<polygon fill="#191970" stroke="#191970" points="675.6381,-311.7744 685.8987,-309.134 676.231,-304.7996 675.6381,-311.7744"/>
</g>
<!-- Node9428 -->
<g id="node10" class="node">
<title>Node9428</title>
<g id="a_node10"><a xlink:href="print_8c.html#a27ae94b5a4c77de49aa2f387765a4d58" target="_top" xlink:title="Special version of vasprintf which implements custom format specifiers. ">
<polygon fill="none" stroke="#000000" points="407,-171.5 407,-190.5 472,-190.5 472,-171.5 407,-171.5"/>
<text text-anchor="middle" x="439.5" y="-178.5" font-family="Helvetica,sans-Serif" font-size="10.00" fill="#000000">fr_vasprintf</text>
</a>
</g>
</g>
<!-- Node9418&#45;&gt;Node9428 -->
<g id="edge12" class="edge">
<title>Node9418&#45;&gt;Node9428</title>
<path fill="none" stroke="#191970" d="M316.3781,-380.4766C336.3572,-348.1073 401.8708,-241.9651 428.2985,-199.1481"/>
<polygon fill="#191970" stroke="#191970" points="431.3134,-200.9273 433.5874,-190.5793 425.3567,-197.2506 431.3134,-200.9273"/>
</g>
<!-- Node9549 -->
<g id="node18" class="node">
<title>Node9549</title>
<g id="a_node18"><a xlink:href="cursor_8c.html#a5d942382660657c3b4cb6e9cb2b12b2c" target="_top" xlink:title="Insert a single item at the start of the list. ">
<polygon fill="none" stroke="#000000" points="392,-380.5 392,-399.5 487,-399.5 487,-380.5 392,-380.5"/>
<text text-anchor="middle" x="439.5" y="-387.5" font-family="Helvetica,sans-Serif" font-size="10.00" fill="#000000">fr_cursor_prepend</text>
</a>
</g>
</g>
<!-- Node9418&#45;&gt;Node9549 -->
<g id="edge27" class="edge">
<title>Node9418&#45;&gt;Node9549</title>
<path fill="none" stroke="#191970" d="M356.3438,-390C364.4784,-390 373.0463,-390 381.4656,-390"/>
<polygon fill="#191970" stroke="#191970" points="381.6227,-393.5001 391.6227,-390 381.6227,-386.5001 381.6227,-393.5001"/>
</g>
<!-- Node9419&#45;&gt;Node9420 -->
<g id="edge5" class="edge">
<title>Node9419&#45;&gt;Node9420</title>
<path fill="none" stroke="#191970" d="M472.3728,-361.6991C477.6265,-364.1839 482.7302,-367.2476 487,-371 535.6304,-413.7371 564.7493,-487.4902 576.4802,-522.4851"/>
<polygon fill="#191970" stroke="#191970" points="573.2771,-523.956 579.6806,-532.3967 579.9385,-521.805 573.2771,-523.956"/>
</g>
<!-- Node9426 -->
<g id="node8" class="node">
<title>Node9426</title>
<g id="a_node8"><a xlink:href="strerror_8c.html#afe66becac3be1b0b82b90889d27fcf99" target="_top" xlink:title="_fr_logging_free">
<polygon fill="none" stroke="#000000" points="539.5,-380.5 539.5,-399.5 625.5,-399.5 625.5,-380.5 539.5,-380.5"/>
<text text-anchor="middle" x="582.5" y="-387.5" font-family="Helvetica,sans-Serif" font-size="10.00" fill="#000000">_fr_logging_free</text>
</a>
</g>
</g>
<!-- Node9419&#45;&gt;Node9426 -->
<g id="edge8" class="edge">
<title>Node9419&#45;&gt;Node9426</title>
<path fill="none" stroke="#191970" d="M475.5849,-361.589C494.1296,-366.5169 516.9265,-372.5749 536.699,-377.8291"/>
<polygon fill="#191970" stroke="#191970" points="535.8631,-381.2284 546.4266,-380.4141 537.6609,-374.4632 535.8631,-381.2284"/>
</g>
<!-- Node9419&#45;&gt;Node9427 -->
<g id="edge9" class="edge">
<title>Node9419&#45;&gt;Node9427</title>
<path fill="none" stroke="#191970" d="M478.0066,-347.9288C518.7908,-343.5015 585.0278,-335.9829 642,-328 652.9579,-326.4646 664.6717,-324.6715 675.8272,-322.8912"/>
<polygon fill="#191970" stroke="#191970" points="676.5638,-326.3176 685.8775,-321.2675 675.4473,-319.4072 676.5638,-326.3176"/>
</g>
<!-- Node9420&#45;&gt;Node9417 -->
<g id="edge6" class="edge">
<title>Node9420&#45;&gt;Node9417</title>
<path fill="none" stroke="#191970" d="M609.2787,-545.4849C632.5765,-548.5168 666.5445,-552.9373 692.2686,-556.285"/>
<polygon fill="#191970" stroke="#191970" points="692.0143,-559.7813 702.3823,-557.6011 692.9177,-552.8398 692.0143,-559.7813"/>
</g>
<!-- Node9420&#45;&gt;Node9421 -->
<g id="edge7" class="edge">
<title>Node9420&#45;&gt;Node9421</title>
<path fill="none" stroke="#191970" d="M606.9371,-532.4595C631.0847,-523.032 668.2071,-508.539 695.0766,-498.0488"/>
<polygon fill="#191970" stroke="#191970" points="696.4267,-501.2791 704.469,-494.382 693.8809,-494.7585 696.4267,-501.2791"/>
</g>
<!-- Node9428&#45;&gt;Node9416 -->
<g id="edge16" class="edge">
<title>Node9428&#45;&gt;Node9416</title>
<path fill="none" stroke="#191970" d="M429.8624,-190.7326C391.8078,-229.1625 251.6989,-370.6531 202.8962,-419.9371"/>
<polygon fill="#191970" stroke="#191970" points="200.1773,-417.7087 195.628,-427.2771 205.1513,-422.6341 200.1773,-417.7087"/>
</g>
<!-- Node9428&#45;&gt;Node9421 -->
<g id="edge14" class="edge">
<title>Node9428&#45;&gt;Node9421</title>
<path fill="none" stroke="#191970" d="M449.8605,-190.5305C488.6992,-226.2837 624.3365,-351.3876 642,-371 670.7875,-402.9637 700.2033,-443.839 716.2288,-466.9496"/>
<polygon fill="#191970" stroke="#191970" points="713.5035,-469.1636 722.0535,-475.4205 719.2716,-465.1974 713.5035,-469.1636"/>
</g>
<!-- Node9429 -->
<g id="node11" class="node">
<title>Node9429</title>
<g id="a_node11"><a xlink:href="value_8h.html#a878e0abfce7189a1784cdf15bc9fc3a3" target="_top" xlink:title="fr_value_box_aprint">
<polygon fill="none" stroke="#000000" points="678,-114.5 678,-133.5 779,-133.5 779,-114.5 678,-114.5"/>
<text text-anchor="middle" x="728.5" y="-121.5" font-family="Helvetica,sans-Serif" font-size="10.00" fill="#000000">fr_value_box_aprint</text>
</a>
</g>
</g>
<!-- Node9428&#45;&gt;Node9429 -->
<g id="edge13" class="edge">
<title>Node9428&#45;&gt;Node9429</title>
<path fill="none" stroke="#191970" d="M456.1485,-171.3977C472.5721,-162.4213 498.6786,-149.4606 523,-143 570.5653,-130.3651 626.2501,-125.8189 667.6473,-124.3188"/>
<polygon fill="#191970" stroke="#191970" points="667.9648,-127.8107 677.8505,-124 667.7461,-120.8141 667.9648,-127.8107"/>
</g>
<!-- Node9430 -->
<g id="node12" class="node">
<title>Node9430</title>
<g id="a_node12"><a xlink:href="talloc_8c.html#a3536feb85c89aa239851ef0830b72e64" target="_top" xlink:title="Call talloc_strdup, setting the type on the new chunk correctly. ">
<polygon fill="none" stroke="#000000" points="678,-57.5 678,-76.5 779,-76.5 779,-57.5 678,-57.5"/>
<text text-anchor="middle" x="728.5" y="-64.5" font-family="Helvetica,sans-Serif" font-size="10.00" fill="#000000">talloc_typed_strdup</text>
</a>
</g>
</g>
<!-- Node9428&#45;&gt;Node9430 -->
<g id="edge15" class="edge">
<title>Node9428&#45;&gt;Node9430</title>
<path fill="none" stroke="#191970" d="M443.0436,-171.2607C452.1038,-148.0094 478.5829,-89.5238 523,-67 572.6369,-41.8293 638.0853,-47.3342 681.645,-55.4764"/>
<polygon fill="#191970" stroke="#191970" points="681.1894,-58.9543 691.6799,-57.4711 682.5542,-52.0886 681.1894,-58.9543"/>
</g>
<!-- Node9431 -->
<g id="node13" class="node">
<title>Node9431</title>
<g id="a_node13"><a xlink:href="value_8c.html#a3a0550d465b81917f8b0c69a3373163e" target="_top" xlink:title="Convert one type of fr_value_box_t to another. ">
<polygon fill="none" stroke="#ff0000" points="534.5,-.5 534.5,-19.5 630.5,-19.5 630.5,-.5 534.5,-.5"/>
<text text-anchor="middle" x="582.5" y="-7.5" font-family="Helvetica,sans-Serif" font-size="10.00" fill="#000000">fr_value_box_cast</text>
</a>
</g>
</g>
<!-- Node9428&#45;&gt;Node9431 -->
<g id="edge17" class="edge">
<title>Node9428&#45;&gt;Node9431</title>
<path fill="none" stroke="#191970" d="M443.9771,-171.2808C457.6878,-141.8536 499.5856,-54.4867 523,-34 527.511,-30.0531 532.7546,-26.705 538.2235,-23.8784"/>
<polygon fill="#191970" stroke="#191970" points="539.9202,-26.9508 547.5503,-19.6002 537.0017,-20.5882 539.9202,-26.9508"/>
</g>
<!-- Node9545 -->
<g id="node14" class="node">
<title>Node9545</title>
<g id="a_node14"><a xlink:href="strerror_8c.html#a83ee876ee41b1ae672dc4dcda4f02a2e" target="_top" xlink:title="Get the last library error. ">
<polygon fill="none" stroke="#ff0000" points="553,-152.5 553,-171.5 612,-171.5 612,-152.5 553,-152.5"/>
<text text-anchor="middle" x="582.5" y="-159.5" font-family="Helvetica,sans-Serif" font-size="10.00" fill="#000000">fr_strerror</text>
</a>
</g>
</g>
<!-- Node9428&#45;&gt;Node9545 -->
<g id="edge19" class="edge">
<title>Node9428&#45;&gt;Node9545</title>
<path fill="none" stroke="#191970" d="M472.3071,-176.641C493.2353,-173.8603 520.4926,-170.2388 542.6614,-167.2932"/>
<polygon fill="#191970" stroke="#191970" points="543.314,-170.7374 552.7658,-165.9507 542.3919,-163.7984 543.314,-170.7374"/>
</g>
<!-- Node9441 -->
<g id="node15" class="node">
<title>Node9441</title>
<g id="a_node15"><a xlink:href="value_8c.html#ad5da2574fed047b3ae861999d06c38ac" target="_top" xlink:title="Clear/free any existing value and metadata. ">
<polygon fill="none" stroke="#ff0000" points="533.5,-228.5 533.5,-247.5 631.5,-247.5 631.5,-228.5 533.5,-228.5"/>
<text text-anchor="middle" x="582.5" y="-235.5" font-family="Helvetica,sans-Serif" font-size="10.00" fill="#000000">fr_value_box_clear</text>
</a>
</g>
</g>
<!-- Node9428&#45;&gt;Node9441 -->
<g id="edge21" class="edge">
<title>Node9428&#45;&gt;Node9441</title>
<path fill="none" stroke="#191970" d="M458.7936,-190.5665C475.542,-198.6803 500.561,-210.3461 523,-219 528.5741,-221.1497 534.5047,-223.2541 540.3803,-225.2332"/>
<polygon fill="#191970" stroke="#191970" points="539.5511,-228.6445 550.1438,-228.4313 541.7301,-221.9923 539.5511,-228.6445"/>
</g>
<!-- Node9546 -->
<g id="node16" class="node">
<title>Node9546</title>
<g id="a_node16"><a xlink:href="value_8c.html#a1064a346792dc1e5ecf05d04b4c1af55" target="_top" xlink:title="Concatenate the string representations of a list of value boxes together. ">
<polygon fill="none" stroke="#ff0000" points="523,-76.5 523,-95.5 642,-95.5 642,-76.5 523,-76.5"/>
<text text-anchor="middle" x="582.5" y="-83.5" font-family="Helvetica,sans-Serif" font-size="10.00" fill="#000000">fr_value_box_list_aprint</text>
</a>
</g>
</g>
<!-- Node9428&#45;&gt;Node9546 -->
<g id="edge22" class="edge">
<title>Node9428&#45;&gt;Node9546</title>
<path fill="none" stroke="#191970" d="M448.9695,-171.1255C463.6653,-156.2488 493.3678,-127.9253 523,-110 529.4867,-106.076 536.73,-102.5421 543.869,-99.4682"/>
<polygon fill="#191970" stroke="#191970" points="545.514,-102.5777 553.4587,-95.5683 542.8769,-96.0934 545.514,-102.5777"/>
</g>
<!-- Node9548 -->
<g id="node17" class="node">
<title>Node9548</title>
<g id="a_node17"><a xlink:href="util_2pair_8h.html#acfe6934363fefdc67e14fc08a205952b" target="_top" xlink:title="fr_pair_aprint">
<polygon fill="none" stroke="#000000" points="546,-190.5 546,-209.5 619,-209.5 619,-190.5 546,-190.5"/>
<text text-anchor="middle" x="582.5" y="-197.5" font-family="Helvetica,sans-Serif" font-size="10.00" fill="#000000">fr_pair_aprint</text>
</a>
</g>
</g>
<!-- Node9428&#45;&gt;Node9548 -->
<g id="edge25" class="edge">
<title>Node9428&#45;&gt;Node9548</title>
<path fill="none" stroke="#191970" d="M472.3071,-185.359C491.0708,-187.8521 514.922,-191.0211 535.6322,-193.7728"/>
<polygon fill="#191970" stroke="#191970" points="535.4466,-197.2788 545.8205,-195.1265 536.3686,-190.3398 535.4466,-197.2788"/>
</g>
<!-- Node9431&#45;&gt;Node9416 -->
<g id="edge18" class="edge">
<title>Node9431&#45;&gt;Node9416</title>
<path fill="none" stroke="#191970" d="M564.2657,-19.5993C552.2088,-26.2158 536.2441,-35.5 523,-45 399.8436,-133.3401 356.4409,-147.1281 265,-268 228.309,-316.5004 202.9403,-384.7749 192.0244,-417.7218"/>
<polygon fill="#191970" stroke="#191970" points="188.6218,-416.8695 188.8811,-427.4611 195.2834,-419.0195 188.6218,-416.8695"/>
</g>
<!-- Node9545&#45;&gt;Node9427 -->
<g id="edge20" class="edge">
<title>Node9545&#45;&gt;Node9427</title>
<path fill="none" stroke="#191970" d="M612.2511,-167.2411C622.4131,-170.0857 633.3781,-174.4235 642,-181 681.9853,-211.4996 708.934,-266.1451 721.1029,-294.9813"/>
<polygon fill="#191970" stroke="#191970" points="717.9024,-296.4024 724.9143,-304.345 724.3859,-293.7633 717.9024,-296.4024"/>
</g>
<!-- Node9546&#45;&gt;Node9429 -->
<g id="edge23" class="edge">
<title>Node9546&#45;&gt;Node9429</title>
<path fill="none" stroke="#191970" d="M619.342,-95.589C638.3479,-100.5358 661.7286,-106.6211 681.9692,-111.8892"/>
<polygon fill="#191970" stroke="#191970" points="681.3638,-115.3482 691.923,-114.4799 683.127,-108.5739 681.3638,-115.3482"/>
</g>
<!-- Node9546&#45;&gt;Node9430 -->
<g id="edge24" class="edge">
<title>Node9546&#45;&gt;Node9430</title>
<path fill="none" stroke="#191970" d="M642.305,-78.2172C650.703,-77.1243 659.3419,-76 667.7571,-74.9049"/>
<polygon fill="#191970" stroke="#191970" points="668.4149,-78.3489 677.8796,-73.5876 667.5115,-71.4074 668.4149,-78.3489"/>
</g>
<!-- Node9500&#45;&gt;Node9420 -->
<g id="edge30" class="edge">
<title>Node9500&#45;&gt;Node9420</title>
<path fill="none" stroke="#191970" d="M342.2342,-609.1331C393.0522,-594.9339 492.4105,-567.1721 546.0589,-552.1821"/>
<polygon fill="#191970" stroke="#191970" points="547.1476,-555.512 555.8368,-549.45 545.2638,-548.7702 547.1476,-555.512"/>
</g>
</g>
</svg>
        <g id="navigator" transform="translate(0 0)" fill="#404254">
                <rect fill="#f2f5e9" fill-opacity="0.5" stroke="#606060" stroke-width=".5" x="0" y="0" width="60" height="60"/>
                <use id="zoomplus" xlink:href="#zoomPlus" x="17" y="9" onmousedown="handleZoom(evt,'in')"/>
                <use id="zoomminus" xlink:href="#zoomMin" x="42" y="9" onmousedown="handleZoom(evt,'out')"/>
                <use id="reset" xlink:href="#resetDef" x="30" y="36" onmousedown="handleReset()"/>
                <g id="arrowUp" xlink:href="#dirArrow" transform="translate(30 24)" onmousedown="handlePan(0,-1)">
                  <use xlink:href="#rim" fill="#404040">
                        <set attributeName="fill" to="#808080" begin="arrowUp.mouseover" end="arrowUp.mouseout"/>
                  </use>
                  <path fill="none" stroke="white" stroke-width="1.5" d="M0,-3.0v7 M-2.5,-0.5L0,-3.0L2.5,-0.5"/>
                </g>
                <g id="arrowRight" xlink:href="#dirArrow" transform="rotate(90) translate(36 -43)" onmousedown="handlePan(1,0)">
                  <use xlink:href="#rim" fill="#404040">
                        <set attributeName="fill" to="#808080" begin="arrowRight.mouseover" end="arrowRight.mouseout"/>
                  </use>
                  <path fill="none" stroke="white" stroke-width="1.5" d="M0,-3.0v7 M-2.5,-0.5L0,-3.0L2.5,-0.5"/>
                </g>
                <g id="arrowDown" xlink:href="#dirArrow" transform="rotate(180) translate(-30 -48)" onmousedown="handlePan(0,1)">
                  <use xlink:href="#rim" fill="#404040">
                        <set attributeName="fill" to="#808080" begin="arrowDown.mouseover" end="arrowDown.mouseout"/>
                  </use>
                  <path fill="none" stroke="white" stroke-width="1.5" d="M0,-3.0v7 M-2.5,-0.5L0,-3.0L2.5,-0.5"/>
                </g>
                <g id="arrowLeft" xlink:href="#dirArrow" transform="rotate(270) translate(-36 17)" onmousedown="handlePan(-1,0)">
                  <use xlink:href="#rim" fill="#404040">
                        <set attributeName="fill" to="#808080" begin="arrowLeft.mouseover" end="arrowLeft.mouseout"/>
                  </use>
                  <path fill="none" stroke="white" stroke-width="1.5" d="M0,-3.0v7 M-2.5,-0.5L0,-3.0L2.5,-0.5"/>
                </g>
        </g>
        <svg viewBox="0 0 15 15" width="100%" height="30px" preserveAspectRatio="xMaxYMin meet">
         <g id="arrow_out" transform="scale(0.3 0.3)">
          <a xlink:href="debug_8h_abc83f94218f03fef477f954f009fbcf9_cgraph_org.svg" target="_base">
           <rect id="button" ry="5" rx="5" y="6" x="6" height="38" width="38"
                fill="#f2f5e9" fill-opacity="0.5" stroke="#606060" stroke-width="1.0"/>
           <path id="arrow"
             d="M 11.500037,31.436501 C 11.940474,20.09759 22.043105,11.32322 32.158766,21.979434 L 37.068811,17.246167 C 37.068811,17.246167 37.088388,32 37.088388,32 L 22.160133,31.978069 C 22.160133,31.978069 26.997745,27.140456 26.997745,27.140456 C 18.528582,18.264221 13.291696,25.230495 11.500037,31.436501 z"
             style="fill:#404040;"/>
          </a>
         </g>
        </svg>
</svg>
