<?xml version="1.0" encoding="UTF-8" standalone="no"?>
<!DOCTYPE svg PUBLIC "-//W3C//DTD SVG 1.1//EN"
 "http://www.w3.org/Graphics/SVG/1.1/DTD/svg11.dtd">
<!-- Generated by graphviz version 2.40.1 (20161225.0304)
 -->
<!-- Title: fr_dict_attr_by_name_substr Pages: 1 -->
<svg width="813pt" height="532pt"
 viewBox="0.00 0.00 813.00 531.95" xmlns="http://www.w3.org/2000/svg" xmlns:xlink="http://www.w3.org/1999/xlink">
<g id="graph0" class="graph" transform="scale(1 1) rotate(0) translate(4 527.9484)">
<title>fr_dict_attr_by_name_substr</title>
<!-- Node4692 -->
<g id="node1" class="node">
<title>Node4692</title>
<polygon fill="#bfbfbf" stroke="#000000" points="0,-334 0,-364 108,-364 108,-334 0,-334"/>
<text text-anchor="start" x="8" y="-352" font-family="Helvetica,sans-Serif" font-size="10.00" fill="#000000">fr_dict_attr_by_name</text>
<text text-anchor="middle" x="54" y="-341" font-family="Helvetica,sans-Serif" font-size="10.00" fill="#000000">_substr</text>
</g>
<!-- Node4693 -->
<g id="node2" class="node">
<title>Node4693</title>
<g id="a_node2"><a xlink:href="sbuff_8c.html#afa687d02bada24e380251c7a10a49f12" target="_top" xlink:title="Copy as many allowed characters as possible from a sbuff to a sbuff. ">
<polygon fill="none" stroke="#000000" points="144,-400 144,-430 255,-430 255,-400 144,-400"/>
<text text-anchor="start" x="152" y="-418" font-family="Helvetica,sans-Serif" font-size="10.00" fill="#000000">fr_sbuff_out_bstrncpy</text>
<text text-anchor="middle" x="199.5" y="-407" font-family="Helvetica,sans-Serif" font-size="10.00" fill="#000000">_allowed</text>
</a>
</g>
</g>
<!-- Node4692&#45;&gt;Node4693 -->
<g id="edge1" class="edge">
<title>Node4692&#45;&gt;Node4693</title>
<path fill="none" stroke="#191970" d="M86.8995,-364.0279C103.9343,-371.7988 125.0756,-381.4272 144,-390 148.1182,-391.8656 152.41,-393.8058 156.7022,-395.7436"/>
<polygon fill="#191970" stroke="#191970" points="155.4777,-399.0308 166.0324,-399.9521 158.3559,-392.6499 155.4777,-399.0308"/>
</g>
<!-- Node4694 -->
<g id="node3" class="node">
<title>Node4694</title>
<g id="a_node3"><a xlink:href="strerror_8c.html#ae701765650b8aea79a3037bc4921d7f8" target="_top" xlink:title="Log to thread local error buffer. ">
<polygon fill="none" stroke="#000000" points="156.5,-361.5 156.5,-380.5 242.5,-380.5 242.5,-361.5 156.5,-361.5"/>
<text text-anchor="middle" x="199.5" y="-368.5" font-family="Helvetica,sans-Serif" font-size="10.00" fill="#000000">fr_strerror_printf</text>
</a>
</g>
</g>
<!-- Node4692&#45;&gt;Node4694 -->
<g id="edge2" class="edge">
<title>Node4692&#45;&gt;Node4694</title>
<path fill="none" stroke="#191970" d="M108.1788,-357.192C120.5508,-359.0627 133.6906,-361.0494 146.0325,-362.9156"/>
<polygon fill="#191970" stroke="#191970" points="145.7667,-366.4151 156.1777,-364.4495 146.8133,-359.4938 145.7667,-366.4151"/>
</g>
<!-- Node4741 -->
<g id="node20" class="node">
<title>Node4741</title>
<g id="a_node20"><a xlink:href="hash_8c.html#a5142bb7ae36b65a809eb834314974942" target="_top" xlink:title="Find data from a template. ">
<polygon fill="none" stroke="#ff0000" points="151.5,-312 151.5,-342 247.5,-342 247.5,-312 151.5,-312"/>
<text text-anchor="start" x="159.5" y="-330" font-family="Helvetica,sans-Serif" font-size="10.00" fill="#000000">fr_hash_table_find</text>
<text text-anchor="middle" x="199.5" y="-319" font-family="Helvetica,sans-Serif" font-size="10.00" fill="#000000">_by_data</text>
</a>
</g>
</g>
<!-- Node4692&#45;&gt;Node4741 -->
<g id="edge30" class="edge">
<title>Node4692&#45;&gt;Node4741</title>
<path fill="none" stroke="#191970" d="M108.1788,-340.808C118.8326,-339.1971 130.0558,-337.5002 140.8485,-335.8683"/>
<polygon fill="#191970" stroke="#191970" points="141.6673,-339.2843 151.0317,-334.3285 140.6207,-332.363 141.6673,-339.2843"/>
</g>
<!-- Node4828 -->
<g id="node21" class="node">
<title>Node4828</title>
<g id="a_node21"><a xlink:href="dict__util_8c.html#a7c79c676c03022a0e7404ae0232bd902" target="_top" xlink:title="Return the root attribute of a dictionary. ">
<polygon fill="none" stroke="#000000" points="167,-273.5 167,-292.5 232,-292.5 232,-273.5 167,-273.5"/>
<text text-anchor="middle" x="199.5" y="-280.5" font-family="Helvetica,sans-Serif" font-size="10.00" fill="#000000">fr_dict_root</text>
</a>
</g>
</g>
<!-- Node4692&#45;&gt;Node4828 -->
<g id="edge31" class="edge">
<title>Node4692&#45;&gt;Node4828</title>
<path fill="none" stroke="#191970" d="M81.1401,-333.9901C98.7798,-324.5201 122.4274,-312.3553 144,-303 149.4778,-300.6245 155.3389,-298.2937 161.1246,-296.1105"/>
<polygon fill="#191970" stroke="#191970" points="162.5269,-299.3242 170.7094,-292.5938 160.1157,-292.7526 162.5269,-299.3242"/>
</g>
<!-- Node4695 -->
<g id="node4" class="node">
<title>Node4695</title>
<g id="a_node4"><a xlink:href="acutest_8h.html#aecf9a9be8105efb1454cd8c1ef6cb1c5" target="_top" xlink:title="va_start">
<polygon fill="none" stroke="#000000" points="728.5,-494.5 728.5,-513.5 780.5,-513.5 780.5,-494.5 728.5,-494.5"/>
<text text-anchor="middle" x="754.5" y="-501.5" font-family="Helvetica,sans-Serif" font-size="10.00" fill="#000000">va_start</text>
</a>
</g>
</g>
<!-- Node4694&#45;&gt;Node4695 -->
<g id="edge3" class="edge">
<title>Node4694&#45;&gt;Node4695</title>
<path fill="none" stroke="#191970" d="M236.8087,-380.6159C243.2733,-383.3169 249.6327,-386.7244 255,-391 278.1427,-409.4356 267.7438,-428.7078 291,-447 419.7698,-548.2841 634.0419,-525.187 718.6034,-510.9612"/>
<polygon fill="#191970" stroke="#191970" points="719.2416,-514.4028 728.4918,-509.2371 718.0392,-507.5069 719.2416,-514.4028"/>
</g>
<!-- Node4696 -->
<g id="node5" class="node">
<title>Node4696</title>
<g id="a_node5"><a xlink:href="strerror_8c.html#a193b1e0b3712e3bbee338812c06af482" target="_top" xlink:title="fr_strerror_vprintf">
<polygon fill="none" stroke="#000000" points="291,-361.5 291,-380.5 382,-380.5 382,-361.5 291,-361.5"/>
<text text-anchor="middle" x="336.5" y="-368.5" font-family="Helvetica,sans-Serif" font-size="10.00" fill="#000000">fr_strerror_vprintf</text>
</a>
</g>
</g>
<!-- Node4694&#45;&gt;Node4696 -->
<g id="edge4" class="edge">
<title>Node4694&#45;&gt;Node4696</title>
<path fill="none" stroke="#191970" d="M242.8477,-371C254.7289,-371 267.7826,-371 280.2734,-371"/>
<polygon fill="#191970" stroke="#191970" points="280.5952,-374.5001 290.5952,-371 280.5952,-367.5001 280.5952,-374.5001"/>
</g>
<!-- Node4699 -->
<g id="node8" class="node">
<title>Node4699</title>
<g id="a_node8"><a xlink:href="acutest_8h.html#a36af1f79dd6adf0809c21e76535034d5" target="_top" xlink:title="va_end">
<polygon fill="none" stroke="#000000" points="730.5,-399.5 730.5,-418.5 778.5,-418.5 778.5,-399.5 730.5,-399.5"/>
<text text-anchor="middle" x="754.5" y="-406.5" font-family="Helvetica,sans-Serif" font-size="10.00" fill="#000000">va_end</text>
</a>
</g>
</g>
<!-- Node4694&#45;&gt;Node4699 -->
<g id="edge29" class="edge">
<title>Node4694&#45;&gt;Node4699</title>
<path fill="none" stroke="#191970" d="M227.9678,-380.5784C236.7175,-383.7038 246.3251,-387.3214 255,-391 329.2955,-422.5051 340.4738,-448.5926 418,-471 474.2513,-487.2583 490.5292,-481.8845 549,-485 601.814,-487.8141 618.5096,-503.653 668,-485 698.8434,-473.3751 725.8396,-445.1965 741.1491,-426.6109"/>
<polygon fill="#191970" stroke="#191970" points="744.0292,-428.6123 747.5123,-418.6063 738.5497,-424.2563 744.0292,-428.6123"/>
</g>
<!-- Node4697 -->
<g id="node6" class="node">
<title>Node4697</title>
<g id="a_node6"><a xlink:href="strerror_8c.html#a42c2cc9f76fb9dac723a1903c181e1c7" target="_top" xlink:title="Initialise thread local storage. ">
<polygon fill="none" stroke="#000000" points="427,-418.5 427,-437.5 504,-437.5 504,-418.5 427,-418.5"/>
<text text-anchor="middle" x="465.5" y="-425.5" font-family="Helvetica,sans-Serif" font-size="10.00" fill="#000000">fr_strerror_init</text>
</a>
</g>
</g>
<!-- Node4696&#45;&gt;Node4697 -->
<g id="edge5" class="edge">
<title>Node4696&#45;&gt;Node4697</title>
<path fill="none" stroke="#191970" d="M358.0917,-380.5405C379.0208,-389.7883 410.9809,-403.9102 434.6007,-414.3468"/>
<polygon fill="#191970" stroke="#191970" points="433.2764,-417.5881 443.8379,-418.4284 436.1056,-411.1853 433.2764,-417.5881"/>
</g>
<!-- Node4698 -->
<g id="node7" class="node">
<title>Node4698</title>
<g id="a_node7"><a xlink:href="strerror_8c.html#a2c8e65d6d4b73fb705cc023f60acb099" target="_top" xlink:title="Print the current error to stderr with a prefix. ">
<polygon fill="none" stroke="#ff0000" points="582,-456.5 582,-475.5 635,-475.5 635,-456.5 582,-456.5"/>
<text text-anchor="middle" x="608.5" y="-463.5" font-family="Helvetica,sans-Serif" font-size="10.00" fill="#000000">fr_perror</text>
</a>
</g>
</g>
<!-- Node4696&#45;&gt;Node4698 -->
<g id="edge12" class="edge">
<title>Node4696&#45;&gt;Node4698</title>
<path fill="none" stroke="#191970" d="M343.2802,-380.528C355.8384,-397.3218 384.5106,-431.8452 418,-447 467.7565,-469.516 532.1227,-470.9554 571.8449,-469.0985"/>
<polygon fill="#191970" stroke="#191970" points="572.0877,-472.5904 581.8754,-468.5344 571.6946,-465.6015 572.0877,-472.5904"/>
</g>
<!-- Node4696&#45;&gt;Node4699 -->
<g id="edge27" class="edge">
<title>Node4696&#45;&gt;Node4699</title>
<path fill="none" stroke="#191970" d="M382.029,-375.139C466.3296,-382.8027 644.9656,-399.0423 720.0814,-405.871"/>
<polygon fill="#191970" stroke="#191970" points="720.1136,-409.3883 730.3894,-406.8081 720.7474,-402.4171 720.1136,-409.3883"/>
</g>
<!-- Node4705 -->
<g id="node10" class="node">
<title>Node4705</title>
<g id="a_node10"><a xlink:href="strerror_8c.html#a9d878c1ddb1b385cdaf6523fff68529c" target="_top" xlink:title="Reset cursor state. ">
<polygon fill="none" stroke="#000000" points="712,-304.5 712,-323.5 797,-323.5 797,-304.5 712,-304.5"/>
<text text-anchor="middle" x="754.5" y="-311.5" font-family="Helvetica,sans-Serif" font-size="10.00" fill="#000000">fr_strerror_clear</text>
</a>
</g>
</g>
<!-- Node4696&#45;&gt;Node4705 -->
<g id="edge11" class="edge">
<title>Node4696&#45;&gt;Node4705</title>
<path fill="none" stroke="#191970" d="M352.3671,-361.3746C368.3178,-352.2461 393.9268,-339.0533 418,-333 515.765,-308.4165 634.3441,-308.3163 701.4441,-310.8798"/>
<polygon fill="#191970" stroke="#191970" points="701.6228,-314.3902 711.7602,-311.3107 701.915,-307.3963 701.6228,-314.3902"/>
</g>
<!-- Node4706 -->
<g id="node11" class="node">
<title>Node4706</title>
<g id="a_node11"><a xlink:href="print_8c.html#a27ae94b5a4c77de49aa2f387765a4d58" target="_top" xlink:title="Special version of vasprintf which implements custom format specifiers. ">
<polygon fill="none" stroke="#000000" points="433,-171.5 433,-190.5 498,-190.5 498,-171.5 433,-171.5"/>
<text text-anchor="middle" x="465.5" y="-178.5" font-family="Helvetica,sans-Serif" font-size="10.00" fill="#000000">fr_vasprintf</text>
</a>
</g>
</g>
<!-- Node4696&#45;&gt;Node4706 -->
<g id="edge13" class="edge">
<title>Node4696&#45;&gt;Node4706</title>
<path fill="none" stroke="#191970" d="M343.0745,-361.3167C363.5135,-331.2127 426.1786,-238.9153 453.0513,-199.3353"/>
<polygon fill="#191970" stroke="#191970" points="456.0625,-201.131 458.7841,-190.8917 450.2712,-197.199 456.0625,-201.131"/>
</g>
<!-- Node4827 -->
<g id="node19" class="node">
<title>Node4827</title>
<g id="a_node19"><a xlink:href="cursor_8c.html#a5d942382660657c3b4cb6e9cb2b12b2c" target="_top" xlink:title="Insert a single item at the start of the list. ">
<polygon fill="none" stroke="#000000" points="418,-342.5 418,-361.5 513,-361.5 513,-342.5 418,-342.5"/>
<text text-anchor="middle" x="465.5" y="-349.5" font-family="Helvetica,sans-Serif" font-size="10.00" fill="#000000">fr_cursor_prepend</text>
</a>
</g>
</g>
<!-- Node4696&#45;&gt;Node4827 -->
<g id="edge28" class="edge">
<title>Node4696&#45;&gt;Node4827</title>
<path fill="none" stroke="#191970" d="M382.3438,-364.2478C390.4784,-363.0497 399.0463,-361.7878 407.4656,-360.5477"/>
<polygon fill="#191970" stroke="#191970" points="408.2395,-363.9716 417.6227,-359.0517 407.2194,-357.0463 408.2395,-363.9716"/>
</g>
<!-- Node4697&#45;&gt;Node4698 -->
<g id="edge6" class="edge">
<title>Node4697&#45;&gt;Node4698</title>
<path fill="none" stroke="#191970" d="M501.5849,-437.589C523.156,-443.3212 550.4806,-450.5823 572.1062,-456.3289"/>
<polygon fill="#191970" stroke="#191970" points="571.3431,-459.7475 581.9066,-458.9332 573.1409,-452.9823 571.3431,-459.7475"/>
</g>
<!-- Node4704 -->
<g id="node9" class="node">
<title>Node4704</title>
<g id="a_node9"><a xlink:href="strerror_8c.html#afe66becac3be1b0b82b90889d27fcf99" target="_top" xlink:title="_fr_logging_free">
<polygon fill="none" stroke="#000000" points="565.5,-418.5 565.5,-437.5 651.5,-437.5 651.5,-418.5 565.5,-418.5"/>
<text text-anchor="middle" x="608.5" y="-425.5" font-family="Helvetica,sans-Serif" font-size="10.00" fill="#000000">_fr_logging_free</text>
</a>
</g>
</g>
<!-- Node4697&#45;&gt;Node4704 -->
<g id="edge9" class="edge">
<title>Node4697&#45;&gt;Node4704</title>
<path fill="none" stroke="#191970" d="M504.1979,-428C519.884,-428 538.2593,-428 555.1797,-428"/>
<polygon fill="#191970" stroke="#191970" points="555.4901,-431.5001 565.49,-428 555.49,-424.5001 555.4901,-431.5001"/>
</g>
<!-- Node4697&#45;&gt;Node4705 -->
<g id="edge10" class="edge">
<title>Node4697&#45;&gt;Node4705</title>
<path fill="none" stroke="#191970" d="M489.6429,-418.4765C541.0678,-398.1913 661.5271,-350.6744 720.61,-327.3684"/>
<polygon fill="#191970" stroke="#191970" points="722.2045,-330.5019 730.2226,-323.5766 719.6358,-323.9902 722.2045,-330.5019"/>
</g>
<!-- Node4698&#45;&gt;Node4695 -->
<g id="edge7" class="edge">
<title>Node4698&#45;&gt;Node4695</title>
<path fill="none" stroke="#191970" d="M635.2787,-472.9698C658.68,-479.0606 692.8467,-487.9532 718.6111,-494.6591"/>
<polygon fill="#191970" stroke="#191970" points="717.8231,-498.0705 728.3823,-497.2023 719.5864,-491.2962 717.8231,-498.0705"/>
</g>
<!-- Node4698&#45;&gt;Node4699 -->
<g id="edge8" class="edge">
<title>Node4698&#45;&gt;Node4699</title>
<path fill="none" stroke="#191970" d="M635.0664,-458.1702C645.4268,-454.947 657.35,-451.0271 668,-447 687.3662,-439.6771 708.6644,-430.3371 725.2811,-422.7495"/>
<polygon fill="#191970" stroke="#191970" points="726.8568,-425.8772 734.4738,-418.513 723.9269,-419.5198 726.8568,-425.8772"/>
</g>
<!-- Node4706&#45;&gt;Node4694 -->
<g id="edge17" class="edge">
<title>Node4706&#45;&gt;Node4694</title>
<path fill="none" stroke="#191970" d="M456.3289,-190.5299C428.5498,-218.9041 341.8964,-303.8455 255,-352 251.2419,-354.0826 247.2152,-355.9948 243.1105,-357.7361"/>
<polygon fill="#191970" stroke="#191970" points="241.5273,-354.5967 233.481,-361.4892 244.0693,-361.1188 241.5273,-354.5967"/>
</g>
<!-- Node4706&#45;&gt;Node4699 -->
<g id="edge15" class="edge">
<title>Node4706&#45;&gt;Node4699</title>
<path fill="none" stroke="#191970" d="M475.1272,-190.5947C490.2707,-205.4914 520.8389,-234.7797 549,-257 599.2261,-296.6305 616.7777,-299.6658 668,-338 692.0612,-356.0071 718.627,-378.1759 735.8856,-392.9023"/>
<polygon fill="#191970" stroke="#191970" points="733.6892,-395.6296 743.5585,-399.483 738.2463,-390.3161 733.6892,-395.6296"/>
</g>
<!-- Node4707 -->
<g id="node12" class="node">
<title>Node4707</title>
<g id="a_node12"><a xlink:href="value_8h.html#a878e0abfce7189a1784cdf15bc9fc3a3" target="_top" xlink:title="fr_value_box_aprint">
<polygon fill="none" stroke="#000000" points="704,-95.5 704,-114.5 805,-114.5 805,-95.5 704,-95.5"/>
<text text-anchor="middle" x="754.5" y="-102.5" font-family="Helvetica,sans-Serif" font-size="10.00" fill="#000000">fr_value_box_aprint</text>
</a>
</g>
</g>
<!-- Node4706&#45;&gt;Node4707 -->
<g id="edge14" class="edge">
<title>Node4706&#45;&gt;Node4707</title>
<path fill="none" stroke="#191970" d="M483.2399,-171.3839C499.8088,-162.7794 525.4521,-150.4125 549,-143 596.6378,-128.0044 652.4599,-118.1485 693.8921,-112.2406"/>
<polygon fill="#191970" stroke="#191970" points="694.4114,-115.7022 703.8345,-110.8591 693.4479,-108.7688 694.4114,-115.7022"/>
</g>
<!-- Node4708 -->
<g id="node13" class="node">
<title>Node4708</title>
<g id="a_node13"><a xlink:href="talloc_8c.html#a3536feb85c89aa239851ef0830b72e64" target="_top" xlink:title="Call talloc_strdup, setting the type on the new chunk correctly. ">
<polygon fill="none" stroke="#000000" points="704,-57.5 704,-76.5 805,-76.5 805,-57.5 704,-57.5"/>
<text text-anchor="middle" x="754.5" y="-64.5" font-family="Helvetica,sans-Serif" font-size="10.00" fill="#000000">talloc_typed_strdup</text>
</a>
</g>
</g>
<!-- Node4706&#45;&gt;Node4708 -->
<g id="edge16" class="edge">
<title>Node4706&#45;&gt;Node4708</title>
<path fill="none" stroke="#191970" d="M469.0436,-171.2607C478.1038,-148.0094 504.5829,-89.5238 549,-67 598.6369,-41.8293 664.0853,-47.3342 707.645,-55.4764"/>
<polygon fill="#191970" stroke="#191970" points="707.1894,-58.9543 717.6799,-57.4711 708.5542,-52.0886 707.1894,-58.9543"/>
</g>
<!-- Node4709 -->
<g id="node14" class="node">
<title>Node4709</title>
<g id="a_node14"><a xlink:href="value_8c.html#a3a0550d465b81917f8b0c69a3373163e" target="_top" xlink:title="Convert one type of fr_value_box_t to another. ">
<polygon fill="none" stroke="#ff0000" points="560.5,-.5 560.5,-19.5 656.5,-19.5 656.5,-.5 560.5,-.5"/>
<text text-anchor="middle" x="608.5" y="-7.5" font-family="Helvetica,sans-Serif" font-size="10.00" fill="#000000">fr_value_box_cast</text>
</a>
</g>
</g>
<!-- Node4706&#45;&gt;Node4709 -->
<g id="edge18" class="edge">
<title>Node4706&#45;&gt;Node4709</title>
<path fill="none" stroke="#191970" d="M469.9771,-171.2808C483.6878,-141.8536 525.5856,-54.4867 549,-34 553.511,-30.0531 558.7546,-26.705 564.2235,-23.8784"/>
<polygon fill="#191970" stroke="#191970" points="565.9202,-26.9508 573.5503,-19.6002 563.0017,-20.5882 565.9202,-26.9508"/>
</g>
<!-- Node4823 -->
<g id="node15" class="node">
<title>Node4823</title>
<g id="a_node15"><a xlink:href="strerror_8c.html#a83ee876ee41b1ae672dc4dcda4f02a2e" target="_top" xlink:title="Get the last library error. ">
<polygon fill="none" stroke="#ff0000" points="579,-152.5 579,-171.5 638,-171.5 638,-152.5 579,-152.5"/>
<text text-anchor="middle" x="608.5" y="-159.5" font-family="Helvetica,sans-Serif" font-size="10.00" fill="#000000">fr_strerror</text>
</a>
</g>
</g>
<!-- Node4706&#45;&gt;Node4823 -->
<g id="edge20" class="edge">
<title>Node4706&#45;&gt;Node4823</title>
<path fill="none" stroke="#191970" d="M498.3071,-176.641C519.2353,-173.8603 546.4926,-170.2388 568.6614,-167.2932"/>
<polygon fill="#191970" stroke="#191970" points="569.314,-170.7374 578.7658,-165.9507 568.3919,-163.7984 569.314,-170.7374"/>
</g>
<!-- Node4719 -->
<g id="node16" class="node">
<title>Node4719</title>
<g id="a_node16"><a xlink:href="value_8c.html#ad5da2574fed047b3ae861999d06c38ac" target="_top" xlink:title="Clear/free any existing value and metadata. ">
<polygon fill="none" stroke="#ff0000" points="559.5,-228.5 559.5,-247.5 657.5,-247.5 657.5,-228.5 559.5,-228.5"/>
<text text-anchor="middle" x="608.5" y="-235.5" font-family="Helvetica,sans-Serif" font-size="10.00" fill="#000000">fr_value_box_clear</text>
</a>
</g>
</g>
<!-- Node4706&#45;&gt;Node4719 -->
<g id="edge22" class="edge">
<title>Node4706&#45;&gt;Node4719</title>
<path fill="none" stroke="#191970" d="M484.7936,-190.5665C501.542,-198.6803 526.561,-210.3461 549,-219 554.5741,-221.1497 560.5047,-223.2541 566.3803,-225.2332"/>
<polygon fill="#191970" stroke="#191970" points="565.5511,-228.6445 576.1438,-228.4313 567.7301,-221.9923 565.5511,-228.6445"/>
</g>
<!-- Node4824 -->
<g id="node17" class="node">
<title>Node4824</title>
<g id="a_node17"><a xlink:href="value_8c.html#a1064a346792dc1e5ecf05d04b4c1af55" target="_top" xlink:title="Concatenate the string representations of a list of value boxes together. ">
<polygon fill="none" stroke="#ff0000" points="549,-76.5 549,-95.5 668,-95.5 668,-76.5 549,-76.5"/>
<text text-anchor="middle" x="608.5" y="-83.5" font-family="Helvetica,sans-Serif" font-size="10.00" fill="#000000">fr_value_box_list_aprint</text>
</a>
</g>
</g>
<!-- Node4706&#45;&gt;Node4824 -->
<g id="edge23" class="edge">
<title>Node4706&#45;&gt;Node4824</title>
<path fill="none" stroke="#191970" d="M474.9695,-171.1255C489.6653,-156.2488 519.3678,-127.9253 549,-110 555.4867,-106.076 562.73,-102.5421 569.869,-99.4682"/>
<polygon fill="#191970" stroke="#191970" points="571.514,-102.5777 579.4587,-95.5683 568.8769,-96.0934 571.514,-102.5777"/>
</g>
<!-- Node4826 -->
<g id="node18" class="node">
<title>Node4826</title>
<g id="a_node18"><a xlink:href="util_2pair_8h.html#acfe6934363fefdc67e14fc08a205952b" target="_top" xlink:title="fr_pair_aprint">
<polygon fill="none" stroke="#000000" points="572,-190.5 572,-209.5 645,-209.5 645,-190.5 572,-190.5"/>
<text text-anchor="middle" x="608.5" y="-197.5" font-family="Helvetica,sans-Serif" font-size="10.00" fill="#000000">fr_pair_aprint</text>
</a>
</g>
</g>
<!-- Node4706&#45;&gt;Node4826 -->
<g id="edge26" class="edge">
<title>Node4706&#45;&gt;Node4826</title>
<path fill="none" stroke="#191970" d="M498.3071,-185.359C517.0708,-187.8521 540.922,-191.0211 561.6322,-193.7728"/>
<polygon fill="#191970" stroke="#191970" points="561.4466,-197.2788 571.8205,-195.1265 562.3686,-190.3398 561.4466,-197.2788"/>
</g>
<!-- Node4709&#45;&gt;Node4694 -->
<g id="edge19" class="edge">
<title>Node4709&#45;&gt;Node4694</title>
<path fill="none" stroke="#191970" d="M590.5935,-19.542C578.5335,-26.2058 562.438,-35.5662 549,-45 427.0684,-130.5993 378.0269,-138.0831 291,-259 265.1089,-294.9736 286.9532,-321.2846 255,-352 253.3595,-353.577 251.5825,-355.0234 249.7054,-356.3501"/>
<polygon fill="#191970" stroke="#191970" points="247.8391,-353.3865 240.9471,-361.4332 251.3529,-359.4407 247.8391,-353.3865"/>
</g>
<!-- Node4823&#45;&gt;Node4705 -->
<g id="edge21" class="edge">
<title>Node4823&#45;&gt;Node4705</title>
<path fill="none" stroke="#191970" d="M638.2511,-167.2411C648.4131,-170.0857 659.3781,-174.4235 668,-181 707.9853,-211.4996 734.934,-266.1451 747.1029,-294.9813"/>
<polygon fill="#191970" stroke="#191970" points="743.9024,-296.4024 750.9143,-304.345 750.3859,-293.7633 743.9024,-296.4024"/>
</g>
<!-- Node4824&#45;&gt;Node4707 -->
<g id="edge24" class="edge">
<title>Node4824&#45;&gt;Node4707</title>
<path fill="none" stroke="#191970" d="M668.305,-93.7828C676.703,-94.8757 685.3419,-96 693.7571,-97.0951"/>
<polygon fill="#191970" stroke="#191970" points="693.5115,-100.5926 703.8796,-98.4124 694.4149,-93.6511 693.5115,-100.5926"/>
</g>
<!-- Node4824&#45;&gt;Node4708 -->
<g id="edge25" class="edge">
<title>Node4824&#45;&gt;Node4708</title>
<path fill="none" stroke="#191970" d="M668.305,-78.2172C676.703,-77.1243 685.3419,-76 693.7571,-74.9049"/>
<polygon fill="#191970" stroke="#191970" points="694.4149,-78.3489 703.8796,-73.5876 693.5115,-71.4074 694.4149,-78.3489"/>
</g>
</g>
</svg>
