<?xml version="1.0" encoding="UTF-8" standalone="no"?>
<!DOCTYPE svg PUBLIC "-//W3C//DTD SVG 1.1//EN"
 "http://www.w3.org/Graphics/SVG/1.1/DTD/svg11.dtd">
<!-- Generated by graphviz version 2.40.1 (20161225.0304)
 -->
<!-- Title: fr_dict_str_to_argv Pages: 1 -->
<svg width="1175pt" height="703pt"
 viewBox="0.00 0.00 1175.00 702.66" xmlns="http://www.w3.org/2000/svg" xmlns:xlink="http://www.w3.org/1999/xlink">
<g id="graph0" class="graph" transform="scale(1 1) rotate(0) translate(4 698.6564)">
<title>fr_dict_str_to_argv</title>
<!-- Node37433 -->
<g id="node1" class="node">
<title>Node37433</title>
<polygon fill="#bfbfbf" stroke="#000000" points="0,-484.5 0,-503.5 98,-503.5 98,-484.5 0,-484.5"/>
<text text-anchor="middle" x="49" y="-491.5" font-family="Helvetica,sans-Serif" font-size="10.00" fill="#000000">fr_dict_str_to_argv</text>
</g>
<!-- Node37434 -->
<g id="node2" class="node">
<title>Node37434</title>
<g id="a_node2"><a xlink:href="unit__test__attribute_8c.html#a619c48d23d9f6c59e5347bbe3817d335" target="_top" xlink:title="command_radmin_tab">
<polygon fill="none" stroke="#000000" points="141.5,-560.5 141.5,-579.5 254.5,-579.5 254.5,-560.5 141.5,-560.5"/>
<text text-anchor="middle" x="198" y="-567.5" font-family="Helvetica,sans-Serif" font-size="10.00" fill="#000000">command_radmin_tab</text>
</a>
</g>
</g>
<!-- Node37433&#45;&gt;Node37434 -->
<g id="edge1" class="edge">
<title>Node37433&#45;&gt;Node37434</title>
<path fill="none" stroke="#191970" d="M69.0306,-509.9866C85.6277,-522.5858 110.2597,-539.8337 134,-551 141.8661,-554.6999 150.6164,-557.8626 159.0575,-560.4854"/>
<polygon fill="#191970" stroke="#191970" points="70.7435,-506.8865 60.6933,-503.5335 66.459,-512.4221 70.7435,-506.8865"/>
</g>
<!-- Node37435 -->
<g id="node3" class="node">
<title>Node37435</title>
<g id="a_node3"><a xlink:href="dict__tokenize_8c.html#a74698cc3d378776c6361c68feb9a1d44" target="_top" xlink:title="Parse a dictionary file. ">
<polygon fill="none" stroke="#000000" points="158,-446.5 158,-465.5 238,-465.5 238,-446.5 158,-446.5"/>
<text text-anchor="middle" x="198" y="-453.5" font-family="Helvetica,sans-Serif" font-size="10.00" fill="#000000">_dict_from_file</text>
</a>
</g>
</g>
<!-- Node37433&#45;&gt;Node37435 -->
<g id="edge2" class="edge">
<title>Node37433&#45;&gt;Node37435</title>
<path fill="none" stroke="#191970" d="M96.4922,-481.8879C117.2436,-476.5956 141.2282,-470.4787 160.6714,-465.5201"/>
<polygon fill="#191970" stroke="#191970" points="95.4239,-478.5482 86.599,-484.411 97.1538,-485.3311 95.4239,-478.5482"/>
</g>
<!-- Node38074 -->
<g id="node14" class="node">
<title>Node38074</title>
<g id="a_node14"><a xlink:href="trie_8h.html#aa11d3bbe61b4e23de7e0a529c10810be" target="_top" xlink:title="fr_trie_walk">
<polygon fill="none" stroke="#ff0000" points="925,-9.5 925,-28.5 992,-28.5 992,-9.5 925,-9.5"/>
<text text-anchor="middle" x="958.5" y="-16.5" font-family="Helvetica,sans-Serif" font-size="10.00" fill="#000000">fr_trie_walk</text>
</a>
</g>
</g>
<!-- Node37433&#45;&gt;Node38074 -->
<g id="edge31" class="edge">
<title>Node37433&#45;&gt;Node38074</title>
<path fill="none" stroke="#191970" d="M50.7589,-474.1591C60.1086,-381.9793 112.3168,0 335.5,0 335.5,0 335.5,0 641.5,0 744.8753,0 866.874,-10.1924 924.7609,-15.6469"/>
<polygon fill="#191970" stroke="#191970" points="47.2732,-473.8439 49.8034,-484.1322 54.2413,-474.5116 47.2732,-473.8439"/>
</g>
<!-- Node38338 -->
<g id="node20" class="node">
<title>Node38338</title>
<g id="a_node20"><a xlink:href="dict__tokenize_8c.html#ac4371f8c9e724effcbb97360bc44649c" target="_top" xlink:title="fr_dict_parse_str">
<polygon fill="none" stroke="#ff0000" points="758,-446.5 758,-465.5 847,-465.5 847,-446.5 758,-446.5"/>
<text text-anchor="middle" x="802.5" y="-453.5" font-family="Helvetica,sans-Serif" font-size="10.00" fill="#000000">fr_dict_parse_str</text>
</a>
</g>
</g>
<!-- Node37433&#45;&gt;Node38338 -->
<g id="edge30" class="edge">
<title>Node37433&#45;&gt;Node38338</title>
<path fill="none" stroke="#191970" d="M108.2465,-494C166.1824,-494 256.9051,-494 335.5,-494 335.5,-494 335.5,-494 474.5,-494 578.1778,-494 604.3216,-489.3611 707,-475 724.4115,-472.5647 743.4374,-468.9724 759.8924,-465.565"/>
<polygon fill="#191970" stroke="#191970" points="108.1752,-490.5001 98.1751,-494 108.1751,-497.5001 108.1752,-490.5001"/>
</g>
<!-- Node38876 -->
<g id="node22" class="node">
<title>Node38876</title>
<g id="a_node22"><a xlink:href="radius_8h.html#ad8187d99eac33069e8e57dbc53a9354d" target="_top" xlink:title="Encode a string to abinary. ">
<polygon fill="none" stroke="#000000" points="134,-522.5 134,-541.5 262,-541.5 262,-522.5 134,-522.5"/>
<text text-anchor="middle" x="198" y="-529.5" font-family="Helvetica,sans-Serif" font-size="10.00" fill="#000000">fr_radius_encode_abinary</text>
</a>
</g>
</g>
<!-- Node37433&#45;&gt;Node38876 -->
<g id="edge32" class="edge">
<title>Node37433&#45;&gt;Node38876</title>
<path fill="none" stroke="#191970" d="M96.4922,-506.1121C117.2436,-511.4044 141.2282,-517.5213 160.6714,-522.4799"/>
<polygon fill="#191970" stroke="#191970" points="97.1538,-502.6689 86.599,-503.589 95.4239,-509.4518 97.1538,-502.6689"/>
</g>
<!-- Node37436 -->
<g id="node4" class="node">
<title>Node37436</title>
<g id="a_node4"><a xlink:href="dict__tokenize_8c.html#a68539ee3162ef52bd4fa5b3b87dd3ece" target="_top" xlink:title="dict_from_file">
<polygon fill="none" stroke="#000000" points="298,-351.5 298,-370.5 373,-370.5 373,-351.5 298,-351.5"/>
<text text-anchor="middle" x="335.5" y="-358.5" font-family="Helvetica,sans-Serif" font-size="10.00" fill="#000000">dict_from_file</text>
</a>
</g>
</g>
<!-- Node37435&#45;&gt;Node37436 -->
<g id="edge3" class="edge">
<title>Node37435&#45;&gt;Node37436</title>
<path fill="none" stroke="#191970" d="M220.4774,-440.4702C249.1069,-420.6898 297.7162,-387.1051 321.5222,-370.6574"/>
<polygon fill="#191970" stroke="#191970" points="218.1787,-437.8042 211.9409,-446.3681 222.1578,-443.5633 218.1787,-437.8042"/>
</g>
<!-- Node37437 -->
<g id="node5" class="node">
<title>Node37437</title>
<g id="a_node5"><a xlink:href="dict__tokenize_8c.html#ae98f71191d8ea9adb33f28300f1bf240" target="_top" xlink:title="(Re&#45;)Initialize the special internal dictionary ">
<polygon fill="none" stroke="#000000" points="410.5,-180.5 410.5,-199.5 538.5,-199.5 538.5,-180.5 410.5,-180.5"/>
<text text-anchor="middle" x="474.5" y="-187.5" font-family="Helvetica,sans-Serif" font-size="10.00" fill="#000000">fr_dict_internal_afrom_file</text>
</a>
</g>
</g>
<!-- Node37436&#45;&gt;Node37437 -->
<g id="edge4" class="edge">
<title>Node37436&#45;&gt;Node37437</title>
<path fill="none" stroke="#191970" d="M349.9745,-343.1932C379.1761,-307.2689 444.2696,-227.1899 466.7148,-199.5774"/>
<polygon fill="#191970" stroke="#191970" points="346.9633,-341.3489 343.3715,-351.3163 352.3951,-345.7643 346.9633,-341.3489"/>
</g>
<!-- Node38872 -->
<g id="node15" class="node">
<title>Node38872</title>
<g id="a_node15"><a xlink:href="dict__tokenize_8c.html#a43b6813c34c672a0f1330af386e2064c" target="_top" xlink:title="(Re)&#45;initialize a protocol dictionary ">
<polygon fill="none" stroke="#000000" points="409,-351.5 409,-370.5 540,-370.5 540,-351.5 409,-351.5"/>
<text text-anchor="middle" x="474.5" y="-358.5" font-family="Helvetica,sans-Serif" font-size="10.00" fill="#000000">fr_dict_protocol_afrom_file</text>
</a>
</g>
</g>
<!-- Node37436&#45;&gt;Node38872 -->
<g id="edge15" class="edge">
<title>Node37436&#45;&gt;Node38872</title>
<path fill="none" stroke="#191970" d="M383.2466,-361C391.4669,-361 400.1388,-361 408.7342,-361"/>
<polygon fill="#191970" stroke="#191970" points="383.1154,-357.5001 373.1154,-361 383.1154,-364.5001 383.1154,-357.5001"/>
</g>
<!-- Node38875 -->
<g id="node21" class="node">
<title>Node38875</title>
<g id="a_node21"><a xlink:href="dict__tokenize_8c.html#abf2e642ba4561334cb21436f233a67e6" target="_top" xlink:title="Read supplementary attribute definitions into an existing dictionary. ">
<polygon fill="none" stroke="#000000" points="607.5,-28.5 607.5,-47.5 675.5,-47.5 675.5,-28.5 607.5,-28.5"/>
<text text-anchor="middle" x="641.5" y="-35.5" font-family="Helvetica,sans-Serif" font-size="10.00" fill="#000000">fr_dict_read</text>
</a>
</g>
</g>
<!-- Node37436&#45;&gt;Node38875 -->
<g id="edge27" class="edge">
<title>Node37436&#45;&gt;Node38875</title>
<path fill="none" stroke="#191970" d="M339.0584,-341.3607C346.5328,-304.5832 366.7784,-224.242 409,-171 464.8389,-100.5864 494.7178,-95.3308 576,-57 585.8525,-52.3538 597.0829,-48.5932 607.4283,-45.6817"/>
<polygon fill="#191970" stroke="#191970" points="335.5991,-340.8152 337.1385,-351.2976 342.472,-342.1431 335.5991,-340.8152"/>
</g>
<!-- Node37438 -->
<g id="node6" class="node">
<title>Node37438</title>
<g id="a_node6"><a xlink:href="fuzzer_8c.html#aa30889313cc057073351a87b2590b886" target="_top" xlink:title="LLVMFuzzerInitialize">
<polygon fill="none" stroke="#ff0000" points="587.5,-142.5 587.5,-161.5 695.5,-161.5 695.5,-142.5 587.5,-142.5"/>
<text text-anchor="middle" x="641.5" y="-149.5" font-family="Helvetica,sans-Serif" font-size="10.00" fill="#000000">LLVMFuzzerInitialize</text>
</a>
</g>
</g>
<!-- Node37437&#45;&gt;Node37438 -->
<g id="edge5" class="edge">
<title>Node37437&#45;&gt;Node37438</title>
<path fill="none" stroke="#191970" d="M526.4646,-178.1757C550.0086,-172.8184 577.4737,-166.5689 599.6619,-161.5201"/>
<polygon fill="#191970" stroke="#191970" points="525.6153,-174.7794 516.6412,-180.411 527.1685,-181.6049 525.6153,-174.7794"/>
</g>
<!-- Node37440 -->
<g id="node7" class="node">
<title>Node37440</title>
<g id="a_node7"><a xlink:href="radict_8c.html#a0ddf1224851353fc92bfbff6f499fa97" target="_top" xlink:title="main">
<polygon fill="none" stroke="#000000" points="783.5,-275.5 783.5,-294.5 821.5,-294.5 821.5,-275.5 783.5,-275.5"/>
<text text-anchor="middle" x="802.5" y="-282.5" font-family="Helvetica,sans-Serif" font-size="10.00" fill="#000000">main</text>
</a>
</g>
</g>
<!-- Node37437&#45;&gt;Node37440 -->
<g id="edge6" class="edge">
<title>Node37437&#45;&gt;Node37440</title>
<path fill="none" stroke="#191970" d="M496.2172,-205.1372C516.082,-218.2485 546.7442,-236.6855 576,-247 649.8916,-273.0513 743.7964,-281.4985 783.4559,-284.0178"/>
<polygon fill="#191970" stroke="#191970" points="498.1442,-202.2153 487.8937,-199.5361 494.2362,-208.0228 498.1442,-202.2153"/>
</g>
<!-- Node37441 -->
<g id="node8" class="node">
<title>Node37441</title>
<g id="a_node8"><a xlink:href="unit__test__attribute_8c.html#a7d65c206c39ad689c8a1c844ff3d586f" target="_top" xlink:title="command_ctx_alloc">
<polygon fill="none" stroke="#ff0000" points="589.5,-104.5 589.5,-123.5 693.5,-123.5 693.5,-104.5 589.5,-104.5"/>
<text text-anchor="middle" x="641.5" y="-111.5" font-family="Helvetica,sans-Serif" font-size="10.00" fill="#000000">command_ctx_alloc</text>
</a>
</g>
</g>
<!-- Node37437&#45;&gt;Node37441 -->
<g id="edge7" class="edge">
<title>Node37437&#45;&gt;Node37441</title>
<path fill="none" stroke="#191970" d="M497.5585,-175.0269C517.6438,-162.485 547.8768,-144.7912 576,-133 584.6263,-129.3832 594.1661,-126.1893 603.2342,-123.5017"/>
<polygon fill="#191970" stroke="#191970" points="495.6668,-172.082 489.0882,-180.3871 499.41,-177.9971 495.6668,-172.082"/>
</g>
<!-- Node37445 -->
<g id="node9" class="node">
<title>Node37445</title>
<g id="a_node9"><a xlink:href="main__config_8h.html#aa757a9e40c7f3156ec9315e8b0309d42" target="_top" xlink:title="main_config_init">
<polygon fill="none" stroke="#ff0000" points="598,-66.5 598,-85.5 685,-85.5 685,-66.5 598,-66.5"/>
<text text-anchor="middle" x="641.5" y="-73.5" font-family="Helvetica,sans-Serif" font-size="10.00" fill="#000000">main_config_init</text>
</a>
</g>
</g>
<!-- Node37437&#45;&gt;Node37445 -->
<g id="edge8" class="edge">
<title>Node37437&#45;&gt;Node37445</title>
<path fill="none" stroke="#191970" d="M488.6521,-172.4306C506.7412,-151.1027 540.0473,-115.4578 576,-95 582.6891,-91.1938 590.2041,-88.0955 597.6943,-85.591"/>
<polygon fill="#191970" stroke="#191970" points="485.7693,-170.4237 482.0748,-180.3536 491.1552,-174.895 485.7693,-170.4237"/>
</g>
<!-- Node37447 -->
<g id="node10" class="node">
<title>Node37447</title>
<g id="a_node10"><a xlink:href="dict_8h.html#ab4abf3bf9320fe063c8031c515daf937" target="_top" xlink:title="Return true if this attribute is parented directly off the dictionary root. ">
<polygon fill="none" stroke="#ff0000" points="911,-289 911,-319 1006,-319 1006,-289 911,-289"/>
<text text-anchor="start" x="919" y="-307" font-family="Helvetica,sans-Serif" font-size="10.00" fill="#000000">fr_dict_attr_is_top</text>
<text text-anchor="middle" x="958.5" y="-296" font-family="Helvetica,sans-Serif" font-size="10.00" fill="#000000">_level</text>
</a>
</g>
</g>
<!-- Node37437&#45;&gt;Node37447 -->
<g id="edge9" class="edge">
<title>Node37437&#45;&gt;Node37447</title>
<path fill="none" stroke="#191970" d="M548.5352,-187.6694C628.779,-187.7222 759.1356,-195.4268 862,-238 892.382,-250.5744 922.9554,-273.6641 941.3114,-288.9253"/>
<polygon fill="#191970" stroke="#191970" points="548.5086,-184.1694 538.5202,-187.7025 548.5318,-191.1693 548.5086,-184.1694"/>
</g>
<!-- Node38837 -->
<g id="node12" class="node">
<title>Node38837</title>
<g id="a_node12"><a xlink:href="dict__util_8c.html#a10a10d51e32b7c32cd3226eb3a20c5e3" target="_top" xlink:title="Process a dict_autoload element to load a protocol. ">
<polygon fill="none" stroke="#ff0000" points="598.5,-218.5 598.5,-237.5 684.5,-237.5 684.5,-218.5 598.5,-218.5"/>
<text text-anchor="middle" x="641.5" y="-225.5" font-family="Helvetica,sans-Serif" font-size="10.00" fill="#000000">fr_dict_autoload</text>
</a>
</g>
</g>
<!-- Node37437&#45;&gt;Node38837 -->
<g id="edge11" class="edge">
<title>Node37437&#45;&gt;Node38837</title>
<path fill="none" stroke="#191970" d="M526.4646,-201.8243C550.0086,-207.1816 577.4737,-213.4311 599.6619,-218.4799"/>
<polygon fill="#191970" stroke="#191970" points="527.1685,-198.3951 516.6412,-199.589 525.6153,-205.2206 527.1685,-198.3951"/>
</g>
<!-- Node37448 -->
<g id="node11" class="node">
<title>Node37448</title>
<g id="a_node11"><a xlink:href="radius_8h.html#af045dda20b01abc00b64ba01ae0dbc06" target="_top" xlink:title="Encode a data structure into a RADIUS attribute. ">
<polygon fill="none" stroke="#ff0000" points="1055,-579.5 1055,-598.5 1167,-598.5 1167,-579.5 1055,-579.5"/>
<text text-anchor="middle" x="1111" y="-586.5" font-family="Helvetica,sans-Serif" font-size="10.00" fill="#000000">fr_radius_encode_pair</text>
</a>
</g>
</g>
<!-- Node37447&#45;&gt;Node37448 -->
<g id="edge10" class="edge">
<title>Node37447&#45;&gt;Node37448</title>
<path fill="none" stroke="#191970" d="M971.558,-328.4034C1003.4952,-388.0894 1084.495,-539.4661 1105.8002,-579.2824"/>
<polygon fill="#191970" stroke="#191970" points="974.503,-326.4887 966.6991,-319.3228 968.331,-329.7912 974.503,-326.4887"/>
</g>
<!-- Node38837&#45;&gt;Node37447 -->
<g id="edge14" class="edge">
<title>Node38837&#45;&gt;Node37447</title>
<path fill="none" stroke="#191970" d="M694.8994,-234.0923C739.98,-239.9719 805.9519,-250.3133 862,-266 883.5007,-272.0176 906.8134,-281.1212 925.1382,-288.9094"/>
<polygon fill="#191970" stroke="#191970" points="695.122,-230.5925 684.7596,-232.7992 694.2364,-237.5362 695.122,-230.5925"/>
</g>
<!-- Node37457 -->
<g id="node13" class="node">
<title>Node37457</title>
<g id="a_node13"><a xlink:href="radclient_8c.html#a3c04138a5bfe5d72780bb7e82a18e627" target="_top" xlink:title="main">
<polygon fill="none" stroke="#ff0000" points="783.5,-28.5 783.5,-47.5 821.5,-47.5 821.5,-28.5 783.5,-28.5"/>
<text text-anchor="middle" x="802.5" y="-35.5" font-family="Helvetica,sans-Serif" font-size="10.00" fill="#000000">main</text>
</a>
</g>
</g>
<!-- Node38837&#45;&gt;Node37457 -->
<g id="edge12" class="edge">
<title>Node38837&#45;&gt;Node37457</title>
<path fill="none" stroke="#191970" d="M662.2775,-212.0042C675.7408,-201.1526 693.2617,-186.0852 707,-171 745.6634,-128.5462 782.7713,-70.2814 796.7059,-47.5899"/>
<polygon fill="#191970" stroke="#191970" points="659.7623,-209.5315 654.0967,-218.4842 664.1087,-215.0186 659.7623,-209.5315"/>
</g>
<!-- Node37457&#45;&gt;Node38074 -->
<g id="edge13" class="edge">
<title>Node37457&#45;&gt;Node38074</title>
<path fill="none" stroke="#191970" d="M831.804,-34.4309C858.2924,-31.2048 897.2687,-26.4577 924.9862,-23.0818"/>
<polygon fill="#191970" stroke="#191970" points="831.1321,-30.9868 821.6287,-35.6702 831.9785,-37.9355 831.1321,-30.9868"/>
</g>
<!-- Node38872&#45;&gt;Node37447 -->
<g id="edge20" class="edge">
<title>Node38872&#45;&gt;Node37447</title>
<path fill="none" stroke="#191970" d="M550.2071,-365.2435C595.7801,-366.7444 654.8821,-366.8321 707,-361 779.0784,-352.9343 860.6462,-332.251 910.8294,-318.1492"/>
<polygon fill="#191970" stroke="#191970" points="550.2273,-361.7421 540.108,-364.8807 549.9759,-368.7376 550.2273,-361.7421"/>
</g>
<!-- Node38872&#45;&gt;Node38837 -->
<g id="edge26" class="edge">
<title>Node38872&#45;&gt;Node38837</title>
<path fill="none" stroke="#191970" d="M494.5698,-345.0163C529.5159,-317.1849 600.5393,-260.6214 629.148,-237.8372"/>
<polygon fill="#191970" stroke="#191970" points="492.1522,-342.4673 486.5102,-351.435 496.5131,-347.943 492.1522,-342.4673"/>
</g>
<!-- Node38873 -->
<g id="node16" class="node">
<title>Node38873</title>
<g id="a_node16"><a xlink:href="radict_8c.html#ae75fa16fd5f94e4bae4c8a803eaeadd4" target="_top" xlink:title="load_dicts">
<polygon fill="none" stroke="#000000" points="611,-294.5 611,-313.5 672,-313.5 672,-294.5 611,-294.5"/>
<text text-anchor="middle" x="641.5" y="-301.5" font-family="Helvetica,sans-Serif" font-size="10.00" fill="#000000">load_dicts</text>
</a>
</g>
</g>
<!-- Node38872&#45;&gt;Node38873 -->
<g id="edge16" class="edge">
<title>Node38872&#45;&gt;Node38873</title>
<path fill="none" stroke="#191970" d="M507.9577,-347.744C527.6383,-340.1301 553.0831,-330.6015 576,-323 587.2382,-319.2723 599.691,-315.5577 610.6948,-312.4148"/>
<polygon fill="#191970" stroke="#191970" points="506.5646,-344.5304 498.5163,-351.4206 509.1047,-351.0533 506.5646,-344.5304"/>
</g>
<!-- Node38464 -->
<g id="node17" class="node">
<title>Node38464</title>
<g id="a_node17"><a xlink:href="unit__test__attribute_8c.html#acc22018369ad767262c331bc15a0b193" target="_top" xlink:title="Common dictionary load function. ">
<polygon fill="none" stroke="#ff0000" points="579,-332.5 579,-351.5 704,-351.5 704,-332.5 579,-332.5"/>
<text text-anchor="middle" x="641.5" y="-339.5" font-family="Helvetica,sans-Serif" font-size="10.00" fill="#000000">dictionary_load_common</text>
</a>
</g>
</g>
<!-- Node38872&#45;&gt;Node38464 -->
<g id="edge18" class="edge">
<title>Node38872&#45;&gt;Node38464</title>
<path fill="none" stroke="#191970" d="M550.0141,-352.4086C559.6719,-351.3098 569.4736,-350.1946 578.8959,-349.1226"/>
<polygon fill="#191970" stroke="#191970" points="549.5637,-348.9371 540.0235,-353.5452 550.3551,-355.8923 549.5637,-348.9371"/>
</g>
<!-- Node38874 -->
<g id="node18" class="node">
<title>Node38874</title>
<g id="a_node18"><a xlink:href="virtual__servers_8h.html#ab5ba64db725797aadde847fe3207786f" target="_top" xlink:title="Instantiate all the virtual servers. ">
<polygon fill="none" stroke="#ff0000" points="576,-408.5 576,-427.5 707,-427.5 707,-408.5 576,-408.5"/>
<text text-anchor="middle" x="641.5" y="-415.5" font-family="Helvetica,sans-Serif" font-size="10.00" fill="#000000">virtual_servers_instantiate</text>
</a>
</g>
</g>
<!-- Node38872&#45;&gt;Node38874 -->
<g id="edge19" class="edge">
<title>Node38872&#45;&gt;Node38874</title>
<path fill="none" stroke="#191970" d="M511.978,-373.7919C542.7349,-384.2898 585.6071,-398.9228 613.4568,-408.4284"/>
<polygon fill="#191970" stroke="#191970" points="513.0466,-370.4584 502.452,-370.5405 510.7854,-377.0832 513.0466,-370.4584"/>
</g>
<!-- Node38341 -->
<g id="node19" class="node">
<title>Node38341</title>
<g id="a_node19"><a xlink:href="dict__tokenize_8c.html#a91c209097239dfc02dd303a31e5508bd" target="_top" xlink:title="fr_dict_finalise">
<polygon fill="none" stroke="#000000" points="601.5,-446.5 601.5,-465.5 681.5,-465.5 681.5,-446.5 601.5,-446.5"/>
<text text-anchor="middle" x="641.5" y="-453.5" font-family="Helvetica,sans-Serif" font-size="10.00" fill="#000000">fr_dict_finalise</text>
</a>
</g>
</g>
<!-- Node38872&#45;&gt;Node38341 -->
<g id="edge21" class="edge">
<title>Node38872&#45;&gt;Node38341</title>
<path fill="none" stroke="#191970" d="M499.1905,-375.8853C511.7435,-383.7802 527.0434,-393.9145 540,-404 557.1277,-417.3324 557.0797,-426.3636 576,-437 583.7409,-441.3517 592.568,-444.7843 601.1805,-447.4629"/>
<polygon fill="#191970" stroke="#191970" points="500.9516,-372.8592 490.6081,-370.5651 497.2634,-378.8088 500.9516,-372.8592"/>
</g>
<!-- Node38873&#45;&gt;Node37440 -->
<g id="edge17" class="edge">
<title>Node38873&#45;&gt;Node37440</title>
<path fill="none" stroke="#191970" d="M682.2088,-299.1959C714.5075,-295.3842 758.2239,-290.2251 783.0834,-287.2914"/>
<polygon fill="#191970" stroke="#191970" points="681.6827,-295.7336 672.1618,-300.3815 682.5031,-302.6853 681.6827,-295.7336"/>
</g>
<!-- Node38341&#45;&gt;Node37435 -->
<g id="edge22" class="edge">
<title>Node38341&#45;&gt;Node37435</title>
<path fill="none" stroke="#191970" d="M591.3565,-456C502.5275,-456 319.2588,-456 238.1399,-456"/>
<polygon fill="#191970" stroke="#191970" points="591.4514,-459.5001 601.4514,-456 591.4513,-452.5001 591.4514,-459.5001"/>
</g>
<!-- Node38341&#45;&gt;Node37436 -->
<g id="edge23" class="edge">
<title>Node38341&#45;&gt;Node37436</title>
<path fill="none" stroke="#191970" d="M598.4615,-443.6736C590.9645,-441.4813 583.2487,-439.1963 576,-437 499.7289,-413.8902 410.3493,-385.2268 365.0498,-370.5868"/>
<polygon fill="#191970" stroke="#191970" points="597.5536,-447.0545 608.1332,-446.4869 599.5087,-440.3331 597.5536,-447.0545"/>
</g>
<!-- Node38341&#45;&gt;Node38338 -->
<g id="edge24" class="edge">
<title>Node38341&#45;&gt;Node38338</title>
<path fill="none" stroke="#191970" d="M691.8208,-456C713.0113,-456 737.4641,-456 757.9873,-456"/>
<polygon fill="#191970" stroke="#191970" points="691.7118,-452.5001 681.7118,-456 691.7118,-459.5001 691.7118,-452.5001"/>
</g>
<!-- Node38338&#45;&gt;Node37447 -->
<g id="edge25" class="edge">
<title>Node38338&#45;&gt;Node37447</title>
<path fill="none" stroke="#191970" d="M819.61,-439.3287C850.1512,-409.5706 913.5978,-347.7508 942.9651,-319.1366"/>
<polygon fill="#191970" stroke="#191970" points="816.9783,-437.0062 812.2585,-446.4917 821.8634,-442.0199 816.9783,-437.0062"/>
</g>
<!-- Node38875&#45;&gt;Node37447 -->
<g id="edge29" class="edge">
<title>Node38875&#45;&gt;Node37447</title>
<path fill="none" stroke="#191970" d="M685.6167,-48.3419C692.9397,-50.7475 700.3181,-53.6181 707,-57 784.4899,-96.2203 800.8575,-114.3193 862,-176 898.4417,-212.7625 932.8708,-263.6748 948.9744,-288.7688"/>
<polygon fill="#191970" stroke="#191970" points="686.3213,-44.8983 675.736,-45.3456 684.2899,-51.5971 686.3213,-44.8983"/>
</g>
<!-- Node38875&#45;&gt;Node37457 -->
<g id="edge28" class="edge">
<title>Node38875&#45;&gt;Node37457</title>
<path fill="none" stroke="#191970" d="M685.6833,-38C717.7662,-38 759.586,-38 783.4983,-38"/>
<polygon fill="#191970" stroke="#191970" points="685.644,-34.5001 675.644,-38 685.6439,-41.5001 685.644,-34.5001"/>
</g>
<!-- Node38877 -->
<g id="node23" class="node">
<title>Node38877</title>
<g id="a_node23"><a xlink:href="protocols_2radius_2encode_8c.html#aa91de6bbe02c21d71bf5252d9838d139" target="_top" xlink:title="Encodes the data portion of an attribute. ">
<polygon fill="none" stroke="#000000" points="436,-617.5 436,-636.5 513,-636.5 513,-617.5 436,-617.5"/>
<text text-anchor="middle" x="474.5" y="-624.5" font-family="Helvetica,sans-Serif" font-size="10.00" fill="#000000">encode_value</text>
</a>
</g>
</g>
<!-- Node38876&#45;&gt;Node38877 -->
<g id="edge33" class="edge">
<title>Node38876&#45;&gt;Node38877</title>
<path fill="none" stroke="#191970" d="M241.316,-544.5084C248.2532,-546.6125 255.3385,-548.8218 262,-551 330.1501,-573.2843 409.4547,-602.5451 449.1415,-617.4209"/>
<polygon fill="#191970" stroke="#191970" points="241.9085,-541.0323 231.3247,-541.5167 239.9005,-547.7381 241.9085,-541.0323"/>
</g>
<!-- Node38878 -->
<g id="node24" class="node">
<title>Node38878</title>
<g id="a_node24"><a xlink:href="protocols_2radius_2encode_8c.html#ae016fe0d7d252e56c47db14a2b8fa4c3" target="_top" xlink:title="Encode an &quot;extended&quot; attribute. ">
<polygon fill="none" stroke="#000000" points="902.5,-598.5 902.5,-617.5 1014.5,-617.5 1014.5,-598.5 902.5,-598.5"/>
<text text-anchor="middle" x="958.5" y="-605.5" font-family="Helvetica,sans-Serif" font-size="10.00" fill="#000000">encode_extended_hdr</text>
</a>
</g>
</g>
<!-- Node38877&#45;&gt;Node38878 -->
<g id="edge34" class="edge">
<title>Node38877&#45;&gt;Node38878</title>
<path fill="none" stroke="#191970" d="M501.9019,-613.0324C565.7217,-582.3595 728.9623,-514.6434 862,-551 895.7852,-560.2328 929.7681,-584.6619 946.9678,-598.353"/>
<polygon fill="#191970" stroke="#191970" points="500.3238,-609.908 492.8769,-617.4442 503.3981,-616.1968 500.3238,-609.908"/>
</g>
<!-- Node38879 -->
<g id="node25" class="node">
<title>Node38879</title>
<g id="a_node25"><a xlink:href="protocols_2radius_2encode_8c.html#a699a32afc90f0c8390a8cbd5c45990f1" target="_top" xlink:title="Encode an RFC format TLV. ">
<polygon fill="none" stroke="#000000" points="581.5,-598.5 581.5,-617.5 701.5,-617.5 701.5,-598.5 581.5,-598.5"/>
<text text-anchor="middle" x="641.5" y="-605.5" font-family="Helvetica,sans-Serif" font-size="10.00" fill="#000000">encode_rfc_hdr_internal</text>
</a>
</g>
</g>
<!-- Node38877&#45;&gt;Node38879 -->
<g id="edge36" class="edge">
<title>Node38877&#45;&gt;Node38879</title>
<path fill="none" stroke="#191970" d="M523.3073,-621.4471C541.4794,-619.3796 562.3177,-617.0088 581.3861,-614.8393"/>
<polygon fill="#191970" stroke="#191970" points="522.7731,-617.9852 513.2329,-622.5933 523.5645,-624.9403 522.7731,-617.9852"/>
</g>
<!-- Node38882 -->
<g id="node27" class="node">
<title>Node38882</title>
<g id="a_node27"><a xlink:href="protocols_2radius_2encode_8c.html#a3068ee91a1edad610ac3165277b29547" target="_top" xlink:title="Encode a VSA which is a TLV. ">
<polygon fill="none" stroke="#ff0000" points="898,-636.5 898,-655.5 1019,-655.5 1019,-636.5 898,-636.5"/>
<text text-anchor="middle" x="958.5" y="-643.5" font-family="Helvetica,sans-Serif" font-size="10.00" fill="#000000">encode_vendor_attr_hdr</text>
</a>
</g>
</g>
<!-- Node38877&#45;&gt;Node38882 -->
<g id="edge46" class="edge">
<title>Node38877&#45;&gt;Node38882</title>
<path fill="none" stroke="#191970" d="M521.1685,-638.9446C538.3141,-642.9697 557.9467,-647.1568 576,-650 701.736,-669.8024 735.315,-677.353 862,-665 881.0339,-663.144 901.8838,-659.2753 919.3175,-655.5102"/>
<polygon fill="#191970" stroke="#191970" points="521.9316,-635.5285 511.3916,-636.6048 520.3023,-642.3363 521.9316,-635.5285"/>
</g>
<!-- Node38884 -->
<g id="node28" class="node">
<title>Node38884</title>
<g id="a_node28"><a xlink:href="protocols_2radius_2encode_8c.html#ab2bdab8c27d45c00608848d01fbe6740" target="_top" xlink:title="Encode a WiMAX attribute. ">
<polygon fill="none" stroke="#ff0000" points="908,-674.5 908,-693.5 1009,-693.5 1009,-674.5 908,-674.5"/>
<text text-anchor="middle" x="958.5" y="-681.5" font-family="Helvetica,sans-Serif" font-size="10.00" fill="#000000">encode_wimax_hdr</text>
</a>
</g>
</g>
<!-- Node38877&#45;&gt;Node38884 -->
<g id="edge47" class="edge">
<title>Node38877&#45;&gt;Node38884</title>
<path fill="none" stroke="#191970" d="M499.4606,-641.4898C519.4484,-652.2961 548.581,-666.2995 576,-673 692.0011,-701.3477 833.6795,-695.3099 907.7866,-689.1984"/>
<polygon fill="#191970" stroke="#191970" points="501.1395,-638.4187 490.6954,-636.6379 497.7494,-644.5431 501.1395,-638.4187"/>
</g>
<!-- Node38878&#45;&gt;Node37448 -->
<g id="edge35" class="edge">
<title>Node38878&#45;&gt;Node37448</title>
<path fill="none" stroke="#191970" d="M1024.7827,-599.7418C1034.8178,-598.4916 1045.0872,-597.2121 1054.8795,-595.9921"/>
<polygon fill="#191970" stroke="#191970" points="1024.3426,-596.2695 1014.8521,-600.9791 1025.2081,-603.2158 1024.3426,-596.2695"/>
</g>
<!-- Node38880 -->
<g id="node26" class="node">
<title>Node38880</title>
<g id="a_node26"><a xlink:href="protocols_2radius_2encode_8c.html#a380e6f26f9bae8bf5737960b114d494f" target="_top" xlink:title="encode_tlv_hdr_internal">
<polygon fill="none" stroke="#ff0000" points="743,-636.5 743,-655.5 862,-655.5 862,-636.5 743,-636.5"/>
<text text-anchor="middle" x="802.5" y="-643.5" font-family="Helvetica,sans-Serif" font-size="10.00" fill="#000000">encode_tlv_hdr_internal</text>
</a>
</g>
</g>
<!-- Node38879&#45;&gt;Node38880 -->
<g id="edge37" class="edge">
<title>Node38879&#45;&gt;Node38880</title>
<path fill="none" stroke="#191970" d="M691.9018,-619.8961C714.532,-625.2374 740.8695,-631.4537 762.165,-636.4799"/>
<polygon fill="#191970" stroke="#191970" points="692.6637,-616.4798 682.1271,-617.589 691.0557,-623.2926 692.6637,-616.4798"/>
</g>
<!-- Node38879&#45;&gt;Node38882 -->
<g id="edge43" class="edge">
<title>Node38879&#45;&gt;Node38882</title>
<path fill="none" stroke="#191970" d="M711.7688,-612.104C755.1902,-615.123 811.9841,-619.9425 862,-627 879.5839,-629.4812 898.8072,-633.0822 915.4358,-636.4836"/>
<polygon fill="#191970" stroke="#191970" points="711.8082,-608.5987 701.5939,-611.4124 711.3335,-615.5826 711.8082,-608.5987"/>
</g>
<!-- Node38885 -->
<g id="node29" class="node">
<title>Node38885</title>
<g id="a_node29"><a xlink:href="protocols_2radius_2encode_8c.html#a3d7250c8c84799ac391ad0fb8e639124" target="_top" xlink:title="Encode an RFC standard attribute 1..255. ">
<polygon fill="none" stroke="#000000" points="761,-560.5 761,-579.5 844,-579.5 844,-560.5 761,-560.5"/>
<text text-anchor="middle" x="802.5" y="-567.5" font-family="Helvetica,sans-Serif" font-size="10.00" fill="#000000">encode_rfc_hdr</text>
</a>
</g>
</g>
<!-- Node38879&#45;&gt;Node38885 -->
<g id="edge44" class="edge">
<title>Node38879&#45;&gt;Node38885</title>
<path fill="none" stroke="#191970" d="M691.9018,-596.1039C714.532,-590.7626 740.8695,-584.5463 762.165,-579.5201"/>
<polygon fill="#191970" stroke="#191970" points="691.0557,-592.7074 682.1271,-598.411 692.6637,-599.5202 691.0557,-592.7074"/>
</g>
<!-- Node38880&#45;&gt;Node38877 -->
<g id="edge38" class="edge">
<title>Node38880&#45;&gt;Node38877</title>
<path fill="none" stroke="#191970" d="M732.9359,-641.9704C665.9402,-638.0895 567.0505,-632.3612 513.0903,-629.2354"/>
<polygon fill="#191970" stroke="#191970" points="732.8053,-645.4686 742.991,-642.5528 733.2102,-638.4803 732.8053,-645.4686"/>
</g>
<!-- Node38880&#45;&gt;Node38878 -->
<g id="edge39" class="edge">
<title>Node38880&#45;&gt;Node38878</title>
<path fill="none" stroke="#191970" d="M851.6317,-634.032C873.4927,-628.7069 898.8761,-622.5238 919.4177,-617.5201"/>
<polygon fill="#191970" stroke="#191970" points="850.7529,-630.6437 841.8654,-636.411 852.4097,-637.4448 850.7529,-630.6437"/>
</g>
<!-- Node38880&#45;&gt;Node38882 -->
<g id="edge40" class="edge">
<title>Node38880&#45;&gt;Node38882</title>
<path fill="none" stroke="#191970" d="M872.5419,-646C880.9557,-646 889.4943,-646 897.7606,-646"/>
<polygon fill="#191970" stroke="#191970" points="872.3676,-642.5001 862.3675,-646 872.3675,-649.5001 872.3676,-642.5001"/>
</g>
<!-- Node38880&#45;&gt;Node38884 -->
<g id="edge41" class="edge">
<title>Node38880&#45;&gt;Node38884</title>
<path fill="none" stroke="#191970" d="M851.6317,-657.968C873.4927,-663.2931 898.8761,-669.4762 919.4177,-674.4799"/>
<polygon fill="#191970" stroke="#191970" points="852.4097,-654.5552 841.8654,-655.589 850.7529,-661.3563 852.4097,-654.5552"/>
</g>
<!-- Node38884&#45;&gt;Node37448 -->
<g id="edge42" class="edge">
<title>Node38884&#45;&gt;Node37448</title>
<path fill="none" stroke="#191970" d="M1006.4327,-670.869C1010.7753,-669.1092 1015.0286,-667.1561 1019,-665 1053.0474,-646.5159 1086.4435,-614.4835 1101.9726,-598.5588"/>
<polygon fill="#191970" stroke="#191970" points="1005.019,-667.6603 996.858,-674.4166 1007.4511,-674.2242 1005.019,-667.6603"/>
</g>
<!-- Node38885&#45;&gt;Node37448 -->
<g id="edge45" class="edge">
<title>Node38885&#45;&gt;Node37448</title>
<path fill="none" stroke="#191970" d="M854.4298,-573.1983C909.993,-576.6203 997.8224,-582.0296 1054.929,-585.5467"/>
<polygon fill="#191970" stroke="#191970" points="854.302,-569.6839 844.1057,-572.5624 853.8716,-576.6706 854.302,-569.6839"/>
</g>
</g>
</svg>
