<?xml version="1.0" encoding="UTF-8" standalone="no"?>
<!DOCTYPE svg PUBLIC "-//W3C//DTD SVG 1.1//EN"
 "http://www.w3.org/Graphics/SVG/1.1/DTD/svg11.dtd">
<!-- Generated by graphviz version 2.40.1 (20161225.0304)
 -->
<!-- Title: fr_dict_protocol_afrom_file Pages: 1 -->
<!--zoomable 526 -->
<svg id="main" version="1.1" xmlns="http://www.w3.org/2000/svg" xmlns:xlink="http://www.w3.org/1999/xlink" xml:space="preserve" onload="init(evt)">
<style type="text/css"><![CDATA[
.edge:hover path { stroke: red; }
.edge:hover polygon { stroke: red; fill: red; }
]]></style>
<script type="text/javascript"><![CDATA[
var edges = document.getElementsByTagName('g');
if (edges && edges.length) {
  for (var i=0;i<edges.length;i++) {
    if (edges[i].id.substr(0,4)=='edge') {
      edges[i].setAttribute('class','edge');
    }
  }
}
]]></script>
        <defs>
                <circle id="rim" cx="0" cy="0" r="7"/>
                <circle id="rim2" cx="0" cy="0" r="3.5"/>
                <g id="zoomPlus">
                        <use xlink:href="#rim" fill="#404040">
                                <set attributeName="fill" to="#808080" begin="zoomplus.mouseover" end="zoomplus.mouseout"/>
                        </use>
                        <path d="M-4,0h8M0,-4v8" fill="none" stroke="white" stroke-width="1.5" pointer-events="none"/>
                </g>
                <g id="zoomMin">
                        <use xlink:href="#rim" fill="#404040">
                                <set attributeName="fill" to="#808080" begin="zoomminus.mouseover" end="zoomminus.mouseout"/>
                        </use>
                        <path d="M-4,0h8" fill="none" stroke="white" stroke-width="1.5" pointer-events="none"/>
                </g>
                <g id="dirArrow">
                        <path fill="none" stroke="white" stroke-width="1.5" d="M0,-3.0v7 M-2.5,-0.5L0,-3.0L2.5,-0.5"/>
                </g>
               <g id="resetDef">
                       <use xlink:href="#rim2" fill="#404040">
                               <set attributeName="fill" to="#808080" begin="reset.mouseover" end="reset.mouseout"/>
                       </use>
               </g>
        </defs>

<script type="text/javascript">
var viewWidth = 842;
var viewHeight = 526;
var sectionId = 'dynsection-23';
</script>
<script xlink:href="svgpan.js"/>
<svg id="graph" class="graph">
<g id="viewport">
<title>fr_dict_protocol_afrom_file</title>
<!-- Node11273 -->
<g id="node1" class="node">
<title>Node11273</title>
<polygon fill="#bfbfbf" stroke="#000000" points="0,-304.5 0,-323.5 131,-323.5 131,-304.5 0,-304.5"/>
<text text-anchor="middle" x="65.5" y="-311.5" font-family="Helvetica,sans-Serif" font-size="10.00" fill="#000000">fr_dict_protocol_afrom_file</text>
</g>
<!-- Node11274 -->
<g id="node2" class="node">
<title>Node11274</title>
<g id="a_node2"><a xlink:href="strerror_8c.html#ae701765650b8aea79a3037bc4921d7f8" target="_top" xlink:title="Log to thread local error buffer. ">
<polygon fill="none" stroke="#000000" points="182.5,-361.5 182.5,-380.5 268.5,-380.5 268.5,-361.5 182.5,-361.5"/>
<text text-anchor="middle" x="225.5" y="-368.5" font-family="Helvetica,sans-Serif" font-size="10.00" fill="#000000">fr_strerror_printf</text>
</a>
</g>
</g>
<!-- Node11273&#45;&gt;Node11274 -->
<g id="edge1" class="edge">
<title>Node11273&#45;&gt;Node11274</title>
<path fill="none" stroke="#191970" d="M90.0017,-323.5197C110.4912,-331.3969 140.5331,-342.7526 167,-352 173.0202,-354.1034 179.4151,-356.2594 185.6823,-358.329"/>
<polygon fill="#191970" stroke="#191970" points="184.7608,-361.71 195.3533,-361.4901 186.9356,-355.0564 184.7608,-361.71"/>
</g>
<!-- Node11576 -->
<g id="node19" class="node">
<title>Node11576</title>
<g id="a_node19"><a xlink:href="dict__priv_8h.html#a84c9cd59818c5cd505e2467fe60a9ae6" target="_top" xlink:title="Internal version of fr_dict_by_protocol_name. ">
<polygon fill="none" stroke="#ff0000" points="167,-323.5 167,-342.5 284,-342.5 284,-323.5 167,-323.5"/>
<text text-anchor="middle" x="225.5" y="-330.5" font-family="Helvetica,sans-Serif" font-size="10.00" fill="#000000">dict_by_protocol_name</text>
</a>
</g>
</g>
<!-- Node11273&#45;&gt;Node11576 -->
<g id="edge29" class="edge">
<title>Node11273&#45;&gt;Node11576</title>
<path fill="none" stroke="#191970" d="M131.0398,-321.7828C139.5998,-322.7993 148.3882,-323.843 156.9954,-324.8651"/>
<polygon fill="#191970" stroke="#191970" points="156.6487,-328.3484 166.9916,-326.0521 157.4742,-321.3972 156.6487,-328.3484"/>
</g>
<!-- Node11454 -->
<g id="node20" class="node">
<title>Node11454</title>
<g id="a_node20"><a xlink:href="dict_8h.html#affc6da9f3cf22c133eea08e494612f07" target="_top" xlink:title="fr_dict_global_dir">
<polygon fill="none" stroke="#000000" points="180.5,-285.5 180.5,-304.5 270.5,-304.5 270.5,-285.5 180.5,-285.5"/>
<text text-anchor="middle" x="225.5" y="-292.5" font-family="Helvetica,sans-Serif" font-size="10.00" fill="#000000">fr_dict_global_dir</text>
</a>
</g>
</g>
<!-- Node11273&#45;&gt;Node11454 -->
<g id="edge30" class="edge">
<title>Node11273&#45;&gt;Node11454</title>
<path fill="none" stroke="#191970" d="M131.0398,-306.2172C144.1144,-304.6645 157.722,-303.0486 170.4025,-301.5428"/>
<polygon fill="#191970" stroke="#191970" points="170.8279,-305.017 180.3453,-300.3621 170.0023,-298.0658 170.8279,-305.017"/>
</g>
<!-- Node11512 -->
<g id="node21" class="node">
<title>Node11512</title>
<g id="a_node21"><a xlink:href="dict__tokenize_8c.html#a68539ee3162ef52bd4fa5b3b87dd3ece" target="_top" xlink:title="dict_from_file">
<polygon fill="none" stroke="#ff0000" points="188,-247.5 188,-266.5 263,-266.5 263,-247.5 188,-247.5"/>
<text text-anchor="middle" x="225.5" y="-254.5" font-family="Helvetica,sans-Serif" font-size="10.00" fill="#000000">dict_from_file</text>
</a>
</g>
</g>
<!-- Node11273&#45;&gt;Node11512 -->
<g id="edge31" class="edge">
<title>Node11273&#45;&gt;Node11512</title>
<path fill="none" stroke="#191970" d="M90.0017,-304.4803C110.4912,-296.6031 140.5331,-285.2474 167,-276 173.0202,-273.8966 179.4151,-271.7406 185.6823,-269.671"/>
<polygon fill="#191970" stroke="#191970" points="186.9356,-272.9436 195.3533,-266.5099 184.7608,-266.29 186.9356,-272.9436"/>
</g>
<!-- Node11275 -->
<g id="node3" class="node">
<title>Node11275</title>
<g id="a_node3"><a xlink:href="acutest_8h.html#aecf9a9be8105efb1454cd8c1ef6cb1c5" target="_top" xlink:title="va_start">
<polygon fill="none" stroke="#000000" points="757.5,-494.5 757.5,-513.5 809.5,-513.5 809.5,-494.5 757.5,-494.5"/>
<text text-anchor="middle" x="783.5" y="-501.5" font-family="Helvetica,sans-Serif" font-size="10.00" fill="#000000">va_start</text>
</a>
</g>
</g>
<!-- Node11274&#45;&gt;Node11275 -->
<g id="edge2" class="edge">
<title>Node11274&#45;&gt;Node11275</title>
<path fill="none" stroke="#191970" d="M233.9402,-380.5695C249.4189,-397.5842 284.0699,-433.2565 320,-454 460.5104,-535.1209 665.1746,-519.856 747.3617,-509.415"/>
<polygon fill="#191970" stroke="#191970" points="747.9941,-512.8618 757.4475,-508.0783 747.0744,-505.9225 747.9941,-512.8618"/>
</g>
<!-- Node11276 -->
<g id="node4" class="node">
<title>Node11276</title>
<g id="a_node4"><a xlink:href="strerror_8c.html#a193b1e0b3712e3bbee338812c06af482" target="_top" xlink:title="fr_strerror_vprintf">
<polygon fill="none" stroke="#000000" points="320,-361.5 320,-380.5 411,-380.5 411,-361.5 320,-361.5"/>
<text text-anchor="middle" x="365.5" y="-368.5" font-family="Helvetica,sans-Serif" font-size="10.00" fill="#000000">fr_strerror_vprintf</text>
</a>
</g>
</g>
<!-- Node11274&#45;&gt;Node11276 -->
<g id="edge3" class="edge">
<title>Node11274&#45;&gt;Node11276</title>
<path fill="none" stroke="#191970" d="M268.647,-371C281.5796,-371 295.9536,-371 309.5843,-371"/>
<polygon fill="#191970" stroke="#191970" points="309.8268,-374.5001 319.8268,-371 309.8267,-367.5001 309.8268,-374.5001"/>
</g>
<!-- Node11279 -->
<g id="node7" class="node">
<title>Node11279</title>
<g id="a_node7"><a xlink:href="acutest_8h.html#a36af1f79dd6adf0809c21e76535034d5" target="_top" xlink:title="va_end">
<polygon fill="none" stroke="#000000" points="759.5,-418.5 759.5,-437.5 807.5,-437.5 807.5,-418.5 759.5,-418.5"/>
<text text-anchor="middle" x="783.5" y="-425.5" font-family="Helvetica,sans-Serif" font-size="10.00" fill="#000000">va_end</text>
</a>
</g>
</g>
<!-- Node11274&#45;&gt;Node11279 -->
<g id="edge28" class="edge">
<title>Node11274&#45;&gt;Node11279</title>
<path fill="none" stroke="#191970" d="M241.7715,-380.5454C277.5206,-401.0134 366.1779,-449.0429 447,-471 554.3926,-500.1756 590.4039,-516.9634 697,-485 723.4056,-477.0821 749.2011,-458.2111 765.6505,-444.342"/>
<polygon fill="#191970" stroke="#191970" points="768.1139,-446.8379 773.3543,-437.6298 763.5154,-441.5601 768.1139,-446.8379"/>
</g>
<!-- Node11277 -->
<g id="node5" class="node">
<title>Node11277</title>
<g id="a_node5"><a xlink:href="strerror_8c.html#a42c2cc9f76fb9dac723a1903c181e1c7" target="_top" xlink:title="Initialise thread local storage. ">
<polygon fill="none" stroke="#000000" points="456,-418.5 456,-437.5 533,-437.5 533,-418.5 456,-418.5"/>
<text text-anchor="middle" x="494.5" y="-425.5" font-family="Helvetica,sans-Serif" font-size="10.00" fill="#000000">fr_strerror_init</text>
</a>
</g>
</g>
<!-- Node11276&#45;&gt;Node11277 -->
<g id="edge4" class="edge">
<title>Node11276&#45;&gt;Node11277</title>
<path fill="none" stroke="#191970" d="M387.0917,-380.5405C408.0208,-389.7883 439.9809,-403.9102 463.6007,-414.3468"/>
<polygon fill="#191970" stroke="#191970" points="462.2764,-417.5881 472.8379,-418.4284 465.1056,-411.1853 462.2764,-417.5881"/>
</g>
<!-- Node11278 -->
<g id="node6" class="node">
<title>Node11278</title>
<g id="a_node6"><a xlink:href="strerror_8c.html#a2c8e65d6d4b73fb705cc023f60acb099" target="_top" xlink:title="Print the current error to stderr with a prefix. ">
<polygon fill="none" stroke="#ff0000" points="611,-456.5 611,-475.5 664,-475.5 664,-456.5 611,-456.5"/>
<text text-anchor="middle" x="637.5" y="-463.5" font-family="Helvetica,sans-Serif" font-size="10.00" fill="#000000">fr_perror</text>
</a>
</g>
</g>
<!-- Node11276&#45;&gt;Node11278 -->
<g id="edge11" class="edge">
<title>Node11276&#45;&gt;Node11278</title>
<path fill="none" stroke="#191970" d="M372.2802,-380.528C384.8384,-397.3218 413.5106,-431.8452 447,-447 496.7565,-469.516 561.1227,-470.9554 600.8449,-469.0985"/>
<polygon fill="#191970" stroke="#191970" points="601.0877,-472.5904 610.8754,-468.5344 600.6946,-465.6015 601.0877,-472.5904"/>
</g>
<!-- Node11276&#45;&gt;Node11279 -->
<g id="edge26" class="edge">
<title>Node11276&#45;&gt;Node11279</title>
<path fill="none" stroke="#191970" d="M411.014,-374.7351C475.0921,-380.3299 595.4327,-392.0693 697,-409 714.4173,-411.9034 733.6156,-416.0255 749.4917,-419.6887"/>
<polygon fill="#191970" stroke="#191970" points="748.8576,-423.1349 759.3928,-422.0121 750.4569,-416.32 748.8576,-423.1349"/>
</g>
<!-- Node11285 -->
<g id="node9" class="node">
<title>Node11285</title>
<g id="a_node9"><a xlink:href="strerror_8c.html#a9d878c1ddb1b385cdaf6523fff68529c" target="_top" xlink:title="Reset cursor state. ">
<polygon fill="none" stroke="#000000" points="741,-304.5 741,-323.5 826,-323.5 826,-304.5 741,-304.5"/>
<text text-anchor="middle" x="783.5" y="-311.5" font-family="Helvetica,sans-Serif" font-size="10.00" fill="#000000">fr_strerror_clear</text>
</a>
</g>
</g>
<!-- Node11276&#45;&gt;Node11285 -->
<g id="edge10" class="edge">
<title>Node11276&#45;&gt;Node11285</title>
<path fill="none" stroke="#191970" d="M381.3671,-361.3746C397.3178,-352.2461 422.9268,-339.0533 447,-333 544.765,-308.4165 663.3441,-308.3163 730.4441,-310.8798"/>
<polygon fill="#191970" stroke="#191970" points="730.6228,-314.3902 740.7602,-311.3107 730.915,-307.3963 730.6228,-314.3902"/>
</g>
<!-- Node11286 -->
<g id="node10" class="node">
<title>Node11286</title>
<g id="a_node10"><a xlink:href="print_8c.html#a27ae94b5a4c77de49aa2f387765a4d58" target="_top" xlink:title="Special version of vasprintf which implements custom format specifiers. ">
<polygon fill="none" stroke="#000000" points="462,-171.5 462,-190.5 527,-190.5 527,-171.5 462,-171.5"/>
<text text-anchor="middle" x="494.5" y="-178.5" font-family="Helvetica,sans-Serif" font-size="10.00" fill="#000000">fr_vasprintf</text>
</a>
</g>
</g>
<!-- Node11276&#45;&gt;Node11286 -->
<g id="edge12" class="edge">
<title>Node11276&#45;&gt;Node11286</title>
<path fill="none" stroke="#191970" d="M372.0745,-361.3167C392.5135,-331.2127 455.1786,-238.9153 482.0513,-199.3353"/>
<polygon fill="#191970" stroke="#191970" points="485.0625,-201.131 487.7841,-190.8917 479.2712,-197.199 485.0625,-201.131"/>
</g>
<!-- Node11438 -->
<g id="node18" class="node">
<title>Node11438</title>
<g id="a_node18"><a xlink:href="cursor_8c.html#a5d942382660657c3b4cb6e9cb2b12b2c" target="_top" xlink:title="Insert a single item at the start of the list. ">
<polygon fill="none" stroke="#000000" points="447,-342.5 447,-361.5 542,-361.5 542,-342.5 447,-342.5"/>
<text text-anchor="middle" x="494.5" y="-349.5" font-family="Helvetica,sans-Serif" font-size="10.00" fill="#000000">fr_cursor_prepend</text>
</a>
</g>
</g>
<!-- Node11276&#45;&gt;Node11438 -->
<g id="edge27" class="edge">
<title>Node11276&#45;&gt;Node11438</title>
<path fill="none" stroke="#191970" d="M411.3438,-364.2478C419.4784,-363.0497 428.0463,-361.7878 436.4656,-360.5477"/>
<polygon fill="#191970" stroke="#191970" points="437.2395,-363.9716 446.6227,-359.0517 436.2194,-357.0463 437.2395,-363.9716"/>
</g>
<!-- Node11277&#45;&gt;Node11278 -->
<g id="edge5" class="edge">
<title>Node11277&#45;&gt;Node11278</title>
<path fill="none" stroke="#191970" d="M530.5849,-437.589C552.156,-443.3212 579.4806,-450.5823 601.1062,-456.3289"/>
<polygon fill="#191970" stroke="#191970" points="600.3431,-459.7475 610.9066,-458.9332 602.1409,-452.9823 600.3431,-459.7475"/>
</g>
<!-- Node11284 -->
<g id="node8" class="node">
<title>Node11284</title>
<g id="a_node8"><a xlink:href="strerror_8c.html#afe66becac3be1b0b82b90889d27fcf99" target="_top" xlink:title="_fr_logging_free">
<polygon fill="none" stroke="#000000" points="594.5,-418.5 594.5,-437.5 680.5,-437.5 680.5,-418.5 594.5,-418.5"/>
<text text-anchor="middle" x="637.5" y="-425.5" font-family="Helvetica,sans-Serif" font-size="10.00" fill="#000000">_fr_logging_free</text>
</a>
</g>
</g>
<!-- Node11277&#45;&gt;Node11284 -->
<g id="edge8" class="edge">
<title>Node11277&#45;&gt;Node11284</title>
<path fill="none" stroke="#191970" d="M533.1979,-428C548.884,-428 567.2593,-428 584.1797,-428"/>
<polygon fill="#191970" stroke="#191970" points="584.4901,-431.5001 594.49,-428 584.49,-424.5001 584.4901,-431.5001"/>
</g>
<!-- Node11277&#45;&gt;Node11285 -->
<g id="edge9" class="edge">
<title>Node11277&#45;&gt;Node11285</title>
<path fill="none" stroke="#191970" d="M518.6429,-418.4765C570.0678,-398.1913 690.5271,-350.6744 749.61,-327.3684"/>
<polygon fill="#191970" stroke="#191970" points="751.2045,-330.5019 759.2226,-323.5766 748.6358,-323.9902 751.2045,-330.5019"/>
</g>
<!-- Node11278&#45;&gt;Node11275 -->
<g id="edge6" class="edge">
<title>Node11278&#45;&gt;Node11275</title>
<path fill="none" stroke="#191970" d="M664.2787,-472.9698C687.68,-479.0606 721.8467,-487.9532 747.6111,-494.6591"/>
<polygon fill="#191970" stroke="#191970" points="746.8231,-498.0705 757.3823,-497.2023 748.5864,-491.2962 746.8231,-498.0705"/>
</g>
<!-- Node11278&#45;&gt;Node11279 -->
<g id="edge7" class="edge">
<title>Node11278&#45;&gt;Node11279</title>
<path fill="none" stroke="#191970" d="M664.2787,-459.0302C688.2614,-452.7881 723.551,-443.6032 749.5156,-436.8452"/>
<polygon fill="#191970" stroke="#191970" points="750.5183,-440.201 759.3143,-434.2949 748.7551,-433.4267 750.5183,-440.201"/>
</g>
<!-- Node11286&#45;&gt;Node11274 -->
<g id="edge16" class="edge">
<title>Node11286&#45;&gt;Node11274</title>
<path fill="none" stroke="#191970" d="M485.364,-190.5936C457.6826,-219.146 371.274,-304.5334 284,-352 280.041,-354.1532 275.7975,-356.1129 271.4708,-357.8843"/>
<polygon fill="#191970" stroke="#191970" points="270.0744,-354.6699 261.9443,-361.4634 272.5364,-361.2227 270.0744,-354.6699"/>
</g>
<!-- Node11286&#45;&gt;Node11279 -->
<g id="edge14" class="edge">
<title>Node11286&#45;&gt;Node11279</title>
<path fill="none" stroke="#191970" d="M504.1272,-190.5947C519.2707,-205.4914 549.8389,-234.7797 578,-257 628.2261,-296.6305 648.1257,-296.714 697,-338 724.2776,-361.0424 752.2745,-391.7056 768.7653,-410.6348"/>
<polygon fill="#191970" stroke="#191970" points="766.3092,-413.1462 775.4885,-418.4367 771.6119,-408.5766 766.3092,-413.1462"/>
</g>
<!-- Node11287 -->
<g id="node11" class="node">
<title>Node11287</title>
<g id="a_node11"><a xlink:href="value_8h.html#a878e0abfce7189a1784cdf15bc9fc3a3" target="_top" xlink:title="fr_value_box_aprint">
<polygon fill="none" stroke="#000000" points="733,-114.5 733,-133.5 834,-133.5 834,-114.5 733,-114.5"/>
<text text-anchor="middle" x="783.5" y="-121.5" font-family="Helvetica,sans-Serif" font-size="10.00" fill="#000000">fr_value_box_aprint</text>
</a>
</g>
</g>
<!-- Node11286&#45;&gt;Node11287 -->
<g id="edge13" class="edge">
<title>Node11286&#45;&gt;Node11287</title>
<path fill="none" stroke="#191970" d="M511.1485,-171.3977C527.5721,-162.4213 553.6786,-149.4606 578,-143 625.5653,-130.3651 681.2501,-125.8189 722.6473,-124.3188"/>
<polygon fill="#191970" stroke="#191970" points="722.9648,-127.8107 732.8505,-124 722.7461,-120.8141 722.9648,-127.8107"/>
</g>
<!-- Node11288 -->
<g id="node12" class="node">
<title>Node11288</title>
<g id="a_node12"><a xlink:href="talloc_8c.html#a3536feb85c89aa239851ef0830b72e64" target="_top" xlink:title="Call talloc_strdup, setting the type on the new chunk correctly. ">
<polygon fill="none" stroke="#000000" points="733,-57.5 733,-76.5 834,-76.5 834,-57.5 733,-57.5"/>
<text text-anchor="middle" x="783.5" y="-64.5" font-family="Helvetica,sans-Serif" font-size="10.00" fill="#000000">talloc_typed_strdup</text>
</a>
</g>
</g>
<!-- Node11286&#45;&gt;Node11288 -->
<g id="edge15" class="edge">
<title>Node11286&#45;&gt;Node11288</title>
<path fill="none" stroke="#191970" d="M498.0436,-171.2607C507.1038,-148.0094 533.5829,-89.5238 578,-67 627.6369,-41.8293 693.0853,-47.3342 736.645,-55.4764"/>
<polygon fill="#191970" stroke="#191970" points="736.1894,-58.9543 746.6799,-57.4711 737.5542,-52.0886 736.1894,-58.9543"/>
</g>
<!-- Node11289 -->
<g id="node13" class="node">
<title>Node11289</title>
<g id="a_node13"><a xlink:href="value_8c.html#a3a0550d465b81917f8b0c69a3373163e" target="_top" xlink:title="Convert one type of fr_value_box_t to another. ">
<polygon fill="none" stroke="#ff0000" points="589.5,-.5 589.5,-19.5 685.5,-19.5 685.5,-.5 589.5,-.5"/>
<text text-anchor="middle" x="637.5" y="-7.5" font-family="Helvetica,sans-Serif" font-size="10.00" fill="#000000">fr_value_box_cast</text>
</a>
</g>
</g>
<!-- Node11286&#45;&gt;Node11289 -->
<g id="edge17" class="edge">
<title>Node11286&#45;&gt;Node11289</title>
<path fill="none" stroke="#191970" d="M498.9771,-171.2808C512.6878,-141.8536 554.5856,-54.4867 578,-34 582.511,-30.0531 587.7546,-26.705 593.2235,-23.8784"/>
<polygon fill="#191970" stroke="#191970" points="594.9202,-26.9508 602.5503,-19.6002 592.0017,-20.5882 594.9202,-26.9508"/>
</g>
<!-- Node11389 -->
<g id="node14" class="node">
<title>Node11389</title>
<g id="a_node14"><a xlink:href="strerror_8c.html#a83ee876ee41b1ae672dc4dcda4f02a2e" target="_top" xlink:title="Get the last library error. ">
<polygon fill="none" stroke="#ff0000" points="608,-152.5 608,-171.5 667,-171.5 667,-152.5 608,-152.5"/>
<text text-anchor="middle" x="637.5" y="-159.5" font-family="Helvetica,sans-Serif" font-size="10.00" fill="#000000">fr_strerror</text>
</a>
</g>
</g>
<!-- Node11286&#45;&gt;Node11389 -->
<g id="edge19" class="edge">
<title>Node11286&#45;&gt;Node11389</title>
<path fill="none" stroke="#191970" d="M527.3071,-176.641C548.2353,-173.8603 575.4926,-170.2388 597.6614,-167.2932"/>
<polygon fill="#191970" stroke="#191970" points="598.314,-170.7374 607.7658,-165.9507 597.3919,-163.7984 598.314,-170.7374"/>
</g>
<!-- Node11299 -->
<g id="node15" class="node">
<title>Node11299</title>
<g id="a_node15"><a xlink:href="value_8c.html#ad5da2574fed047b3ae861999d06c38ac" target="_top" xlink:title="Clear/free any existing value and metadata. ">
<polygon fill="none" stroke="#ff0000" points="588.5,-228.5 588.5,-247.5 686.5,-247.5 686.5,-228.5 588.5,-228.5"/>
<text text-anchor="middle" x="637.5" y="-235.5" font-family="Helvetica,sans-Serif" font-size="10.00" fill="#000000">fr_value_box_clear</text>
</a>
</g>
</g>
<!-- Node11286&#45;&gt;Node11299 -->
<g id="edge21" class="edge">
<title>Node11286&#45;&gt;Node11299</title>
<path fill="none" stroke="#191970" d="M513.7936,-190.5665C530.542,-198.6803 555.561,-210.3461 578,-219 583.5741,-221.1497 589.5047,-223.2541 595.3803,-225.2332"/>
<polygon fill="#191970" stroke="#191970" points="594.5511,-228.6445 605.1438,-228.4313 596.7301,-221.9923 594.5511,-228.6445"/>
</g>
<!-- Node11897 -->
<g id="node16" class="node">
<title>Node11897</title>
<g id="a_node16"><a xlink:href="value_8c.html#a1064a346792dc1e5ecf05d04b4c1af55" target="_top" xlink:title="Concatenate the string representations of a list of value boxes together. ">
<polygon fill="none" stroke="#ff0000" points="578,-76.5 578,-95.5 697,-95.5 697,-76.5 578,-76.5"/>
<text text-anchor="middle" x="637.5" y="-83.5" font-family="Helvetica,sans-Serif" font-size="10.00" fill="#000000">fr_value_box_list_aprint</text>
</a>
</g>
</g>
<!-- Node11286&#45;&gt;Node11897 -->
<g id="edge22" class="edge">
<title>Node11286&#45;&gt;Node11897</title>
<path fill="none" stroke="#191970" d="M503.9695,-171.1255C518.6653,-156.2488 548.3678,-127.9253 578,-110 584.4867,-106.076 591.73,-102.5421 598.869,-99.4682"/>
<polygon fill="#191970" stroke="#191970" points="600.514,-102.5777 608.4587,-95.5683 597.8769,-96.0934 600.514,-102.5777"/>
</g>
<!-- Node11772 -->
<g id="node17" class="node">
<title>Node11772</title>
<g id="a_node17"><a xlink:href="util_2pair_8h.html#acfe6934363fefdc67e14fc08a205952b" target="_top" xlink:title="fr_pair_aprint">
<polygon fill="none" stroke="#000000" points="601,-190.5 601,-209.5 674,-209.5 674,-190.5 601,-190.5"/>
<text text-anchor="middle" x="637.5" y="-197.5" font-family="Helvetica,sans-Serif" font-size="10.00" fill="#000000">fr_pair_aprint</text>
</a>
</g>
</g>
<!-- Node11286&#45;&gt;Node11772 -->
<g id="edge25" class="edge">
<title>Node11286&#45;&gt;Node11772</title>
<path fill="none" stroke="#191970" d="M527.3071,-185.359C546.0708,-187.8521 569.922,-191.0211 590.6322,-193.7728"/>
<polygon fill="#191970" stroke="#191970" points="590.4466,-197.2788 600.8205,-195.1265 591.3686,-190.3398 590.4466,-197.2788"/>
</g>
<!-- Node11289&#45;&gt;Node11274 -->
<g id="edge18" class="edge">
<title>Node11289&#45;&gt;Node11274</title>
<path fill="none" stroke="#191970" d="M619.5935,-19.542C607.5335,-26.2058 591.438,-35.5662 578,-45 456.0684,-130.5993 407.0269,-138.0831 320,-259 294.1089,-294.9736 316.1948,-321.5379 284,-352 282.0657,-353.8302 279.9531,-355.4842 277.7153,-356.9788"/>
<polygon fill="#191970" stroke="#191970" points="275.6617,-354.1131 268.576,-361.9899 279.0272,-360.2511 275.6617,-354.1131"/>
</g>
<!-- Node11389&#45;&gt;Node11285 -->
<g id="edge20" class="edge">
<title>Node11389&#45;&gt;Node11285</title>
<path fill="none" stroke="#191970" d="M667.2511,-167.2411C677.4131,-170.0857 688.3781,-174.4235 697,-181 736.9853,-211.4996 763.934,-266.1451 776.1029,-294.9813"/>
<polygon fill="#191970" stroke="#191970" points="772.9024,-296.4024 779.9143,-304.345 779.3859,-293.7633 772.9024,-296.4024"/>
</g>
<!-- Node11897&#45;&gt;Node11287 -->
<g id="edge23" class="edge">
<title>Node11897&#45;&gt;Node11287</title>
<path fill="none" stroke="#191970" d="M674.342,-95.589C693.3479,-100.5358 716.7286,-106.6211 736.9692,-111.8892"/>
<polygon fill="#191970" stroke="#191970" points="736.3638,-115.3482 746.923,-114.4799 738.127,-108.5739 736.3638,-115.3482"/>
</g>
<!-- Node11897&#45;&gt;Node11288 -->
<g id="edge24" class="edge">
<title>Node11897&#45;&gt;Node11288</title>
<path fill="none" stroke="#191970" d="M697.305,-78.2172C705.703,-77.1243 714.3419,-76 722.7571,-74.9049"/>
<polygon fill="#191970" stroke="#191970" points="723.4149,-78.3489 732.8796,-73.5876 722.5115,-71.4074 723.4149,-78.3489"/>
</g>
</g>
</svg>
        <g id="navigator" transform="translate(0 0)" fill="#404254">
                <rect fill="#f2f5e9" fill-opacity="0.5" stroke="#606060" stroke-width=".5" x="0" y="0" width="60" height="60"/>
                <use id="zoomplus" xlink:href="#zoomPlus" x="17" y="9" onmousedown="handleZoom(evt,'in')"/>
                <use id="zoomminus" xlink:href="#zoomMin" x="42" y="9" onmousedown="handleZoom(evt,'out')"/>
                <use id="reset" xlink:href="#resetDef" x="30" y="36" onmousedown="handleReset()"/>
                <g id="arrowUp" xlink:href="#dirArrow" transform="translate(30 24)" onmousedown="handlePan(0,-1)">
                  <use xlink:href="#rim" fill="#404040">
                        <set attributeName="fill" to="#808080" begin="arrowUp.mouseover" end="arrowUp.mouseout"/>
                  </use>
                  <path fill="none" stroke="white" stroke-width="1.5" d="M0,-3.0v7 M-2.5,-0.5L0,-3.0L2.5,-0.5"/>
                </g>
                <g id="arrowRight" xlink:href="#dirArrow" transform="rotate(90) translate(36 -43)" onmousedown="handlePan(1,0)">
                  <use xlink:href="#rim" fill="#404040">
                        <set attributeName="fill" to="#808080" begin="arrowRight.mouseover" end="arrowRight.mouseout"/>
                  </use>
                  <path fill="none" stroke="white" stroke-width="1.5" d="M0,-3.0v7 M-2.5,-0.5L0,-3.0L2.5,-0.5"/>
                </g>
                <g id="arrowDown" xlink:href="#dirArrow" transform="rotate(180) translate(-30 -48)" onmousedown="handlePan(0,1)">
                  <use xlink:href="#rim" fill="#404040">
                        <set attributeName="fill" to="#808080" begin="arrowDown.mouseover" end="arrowDown.mouseout"/>
                  </use>
                  <path fill="none" stroke="white" stroke-width="1.5" d="M0,-3.0v7 M-2.5,-0.5L0,-3.0L2.5,-0.5"/>
                </g>
                <g id="arrowLeft" xlink:href="#dirArrow" transform="rotate(270) translate(-36 17)" onmousedown="handlePan(-1,0)">
                  <use xlink:href="#rim" fill="#404040">
                        <set attributeName="fill" to="#808080" begin="arrowLeft.mouseover" end="arrowLeft.mouseout"/>
                  </use>
                  <path fill="none" stroke="white" stroke-width="1.5" d="M0,-3.0v7 M-2.5,-0.5L0,-3.0L2.5,-0.5"/>
                </g>
        </g>
        <svg viewBox="0 0 15 15" width="100%" height="30px" preserveAspectRatio="xMaxYMin meet">
         <g id="arrow_out" transform="scale(0.3 0.3)">
          <a xlink:href="dict__tokenize_8c_a43b6813c34c672a0f1330af386e2064c_cgraph_org.svg" target="_base">
           <rect id="button" ry="5" rx="5" y="6" x="6" height="38" width="38"
                fill="#f2f5e9" fill-opacity="0.5" stroke="#606060" stroke-width="1.0"/>
           <path id="arrow"
             d="M 11.500037,31.436501 C 11.940474,20.09759 22.043105,11.32322 32.158766,21.979434 L 37.068811,17.246167 C 37.068811,17.246167 37.088388,32 37.088388,32 L 22.160133,31.978069 C 22.160133,31.978069 26.997745,27.140456 26.997745,27.140456 C 18.528582,18.264221 13.291696,25.230495 11.500037,31.436501 z"
             style="fill:#404040;"/>
          </a>
         </g>
        </svg>
</svg>
