<?xml version="1.0" encoding="UTF-8" standalone="no"?>
<!DOCTYPE svg PUBLIC "-//W3C//DTD SVG 1.1//EN"
 "http://www.w3.org/Graphics/SVG/1.1/DTD/svg11.dtd">
<!-- Generated by graphviz version 2.40.1 (20161225.0304)
 -->
<!-- Title: fr_dict_attr_ext_enumv_copy Pages: 1 -->
<svg width="1061pt" height="275pt"
 viewBox="0.00 0.00 1061.00 275.00" xmlns="http://www.w3.org/2000/svg" xmlns:xlink="http://www.w3.org/1999/xlink">
<g id="graph0" class="graph" transform="scale(1 1) rotate(0) translate(4 271)">
<title>fr_dict_attr_ext_enumv_copy</title>
<!-- Node0 -->
<g id="node1" class="node">
<title>Node0</title>
<polygon fill="#bfbfbf" stroke="#000000" points="0,-57.5 0,-76.5 143,-76.5 143,-57.5 0,-57.5"/>
<text text-anchor="middle" x="71.5" y="-64.5" font-family="Helvetica,sans-Serif" font-size="10.00" fill="#000000">fr_dict_attr_ext_enumv_copy</text>
</g>
<!-- Node1 -->
<g id="node2" class="node">
<title>Node1</title>
<g id="a_node2"><a xlink:href="dict__ext__priv_8h.html#a493cb03b182e5b965f7a457a8b6c756c" target="_top" xlink:title="Allocate an attribute extension. ">
<polygon fill="none" stroke="#000000" points="196.5,-114.5 196.5,-133.5 292.5,-133.5 292.5,-114.5 196.5,-114.5"/>
<text text-anchor="middle" x="244.5" y="-121.5" font-family="Helvetica,sans-Serif" font-size="10.00" fill="#000000">dict_attr_ext_alloc</text>
</a>
</g>
</g>
<!-- Node0&#45;&gt;Node1 -->
<g id="edge1" class="edge">
<title>Node0&#45;&gt;Node1</title>
<path fill="none" stroke="#191970" d="M97.4251,-76.6351C119.111,-84.581 150.921,-95.9729 179,-105 185.8971,-107.2173 193.2391,-109.4602 200.4192,-111.5896"/>
<polygon fill="#191970" stroke="#191970" points="199.4724,-114.9593 210.053,-114.4101 201.4393,-108.2413 199.4724,-114.9593"/>
</g>
<!-- Node178 -->
<g id="node15" class="node">
<title>Node178</title>
<g id="a_node15"><a xlink:href="hash_8c.html#a09f5aeea7aa8426d06fbffb1cca93c82" target="_top" xlink:title="Initialise an iterator. ">
<polygon fill="none" stroke="#000000" points="188.5,-76.5 188.5,-95.5 300.5,-95.5 300.5,-76.5 188.5,-76.5"/>
<text text-anchor="middle" x="244.5" y="-83.5" font-family="Helvetica,sans-Serif" font-size="10.00" fill="#000000">fr_hash_table_iter_init</text>
</a>
</g>
</g>
<!-- Node0&#45;&gt;Node178 -->
<g id="edge22" class="edge">
<title>Node0&#45;&gt;Node178</title>
<path fill="none" stroke="#191970" d="M143.1145,-74.8652C154.7616,-76.1443 166.7799,-77.4643 178.2902,-78.7284"/>
<polygon fill="#191970" stroke="#191970" points="177.9301,-82.2098 188.2525,-79.8225 178.6944,-75.2517 177.9301,-82.2098"/>
</g>
<!-- Node179 -->
<g id="node16" class="node">
<title>Node179</title>
<g id="a_node16"><a xlink:href="hash_8c.html#a12a9adc49859b6c4f808bae4dee298d8" target="_top" xlink:title="Iterate over entries in a hash table. ">
<polygon fill="none" stroke="#ff0000" points="346,-38.5 346,-57.5 464,-57.5 464,-38.5 346,-38.5"/>
<text text-anchor="middle" x="405" y="-45.5" font-family="Helvetica,sans-Serif" font-size="10.00" fill="#000000">fr_hash_table_iter_next</text>
</a>
</g>
</g>
<!-- Node0&#45;&gt;Node179 -->
<g id="edge24" class="edge">
<title>Node0&#45;&gt;Node179</title>
<path fill="none" stroke="#191970" d="M143.0441,-62.924C199.9806,-59.6803 279.1876,-55.1677 335.5645,-51.9558"/>
<polygon fill="#191970" stroke="#191970" points="336.0304,-55.4351 345.8151,-51.3719 335.6322,-48.4464 336.0304,-55.4351"/>
</g>
<!-- Node297 -->
<g id="node17" class="node">
<title>Node297</title>
<g id="a_node17"><a xlink:href="dict__priv_8h.html#a3149047c36e900632f5eabef60bf5a4f" target="_top" xlink:title="dict_attr_enum_add_name">
<polygon fill="none" stroke="#ff0000" points="179,-.5 179,-19.5 310,-19.5 310,-.5 179,-.5"/>
<text text-anchor="middle" x="244.5" y="-7.5" font-family="Helvetica,sans-Serif" font-size="10.00" fill="#000000">dict_attr_enum_add_name</text>
</a>
</g>
</g>
<!-- Node0&#45;&gt;Node297 -->
<g id="edge25" class="edge">
<title>Node0&#45;&gt;Node297</title>
<path fill="none" stroke="#191970" d="M100.4563,-57.4595C129.2725,-47.9651 173.6817,-33.3332 205.5711,-22.8263"/>
<polygon fill="#191970" stroke="#191970" points="207.0467,-26.0252 215.4492,-19.5716 204.8562,-19.3768 207.0467,-26.0252"/>
</g>
<!-- Node2 -->
<g id="node3" class="node">
<title>Node2</title>
<g id="a_node3"><a xlink:href="dict_8h.html#aaa2207d88c02f0229de4dbe3ac122587" target="_top" xlink:title="fr_dict_is_read_only">
<polygon fill="none" stroke="#000000" points="353,-190.5 353,-209.5 457,-209.5 457,-190.5 353,-190.5"/>
<text text-anchor="middle" x="405" y="-197.5" font-family="Helvetica,sans-Serif" font-size="10.00" fill="#000000">fr_dict_is_read_only</text>
</a>
</g>
</g>
<!-- Node1&#45;&gt;Node2 -->
<g id="edge2" class="edge">
<title>Node1&#45;&gt;Node2</title>
<path fill="none" stroke="#191970" d="M262.2364,-133.6829C282.3152,-144.504 316.1235,-162.3018 346,-176 353.9473,-179.6438 362.6132,-183.326 370.7958,-186.6754"/>
<polygon fill="#191970" stroke="#191970" points="369.5243,-189.9365 380.1075,-190.4322 372.1434,-183.4449 369.5243,-189.9365"/>
</g>
<!-- Node3 -->
<g id="node4" class="node">
<title>Node3</title>
<g id="a_node4"><a xlink:href="strerror_8c.html#ae701765650b8aea79a3037bc4921d7f8" target="_top" xlink:title="Log to thread local error buffer. ">
<polygon fill="none" stroke="#000000" points="500,-76.5 500,-95.5 586,-95.5 586,-76.5 500,-76.5"/>
<text text-anchor="middle" x="543" y="-83.5" font-family="Helvetica,sans-Serif" font-size="10.00" fill="#000000">fr_strerror_printf</text>
</a>
</g>
</g>
<!-- Node1&#45;&gt;Node3 -->
<g id="edge3" class="edge">
<title>Node1&#45;&gt;Node3</title>
<path fill="none" stroke="#191970" d="M273.3715,-133.5219C316.1276,-146.0749 398.3026,-164.2268 464,-143 488.4419,-135.1028 511.6877,-116.5142 526.5541,-102.6992"/>
<polygon fill="#191970" stroke="#191970" points="529.1343,-105.0733 533.9054,-95.6135 524.2765,-100.0333 529.1343,-105.0733"/>
</g>
<!-- Node210 -->
<g id="node13" class="node">
<title>Node210</title>
<g id="a_node13"><a xlink:href="dict_8h.html#a7c79c676c03022a0e7404ae0232bd902" target="_top" xlink:title="Return the root attribute of a dictionary. ">
<polygon fill="none" stroke="#000000" points="372.5,-114.5 372.5,-133.5 437.5,-133.5 437.5,-114.5 372.5,-114.5"/>
<text text-anchor="middle" x="405" y="-121.5" font-family="Helvetica,sans-Serif" font-size="10.00" fill="#000000">fr_dict_root</text>
</a>
</g>
</g>
<!-- Node1&#45;&gt;Node210 -->
<g id="edge19" class="edge">
<title>Node1&#45;&gt;Node210</title>
<path fill="none" stroke="#191970" d="M292.6553,-124C314.7151,-124 340.6487,-124 362.0379,-124"/>
<polygon fill="#191970" stroke="#191970" points="362.1362,-127.5001 372.1362,-124 362.1361,-120.5001 362.1362,-127.5001"/>
</g>
<!-- Node213 -->
<g id="node14" class="node">
<title>Node213</title>
<g id="a_node14"><a xlink:href="ext_8c.html#a33a286199ebd60aa499fb2fcd1e823fb" target="_top" xlink:title="Add a variable length extension to a talloc chunk. ">
<polygon fill="none" stroke="#ff0000" points="360,-76.5 360,-95.5 450,-95.5 450,-76.5 360,-76.5"/>
<text text-anchor="middle" x="405" y="-83.5" font-family="Helvetica,sans-Serif" font-size="10.00" fill="#000000">fr_ext_alloc_size</text>
</a>
</g>
</g>
<!-- Node1&#45;&gt;Node213 -->
<g id="edge20" class="edge">
<title>Node1&#45;&gt;Node213</title>
<path fill="none" stroke="#191970" d="M285.0009,-114.411C306.1806,-109.3965 332.3022,-103.2119 354.7604,-97.8947"/>
<polygon fill="#191970" stroke="#191970" points="355.8657,-101.2299 364.7903,-95.5201 354.2529,-94.4182 355.8657,-101.2299"/>
</g>
<!-- Node4 -->
<g id="node5" class="node">
<title>Node4</title>
<g id="a_node5"><a xlink:href="acutest_8h.html#aecf9a9be8105efb1454cd8c1ef6cb1c5" target="_top" xlink:title="va_start">
<polygon fill="none" stroke="#000000" points="1001,-247.5 1001,-266.5 1053,-266.5 1053,-247.5 1001,-247.5"/>
<text text-anchor="middle" x="1027" y="-254.5" font-family="Helvetica,sans-Serif" font-size="10.00" fill="#000000">va_start</text>
</a>
</g>
</g>
<!-- Node3&#45;&gt;Node4 -->
<g id="edge4" class="edge">
<title>Node3&#45;&gt;Node4</title>
<path fill="none" stroke="#191970" d="M552.5886,-95.7527C580.1326,-123.0543 663.0372,-200.3162 749,-232 831.2697,-262.3226 936.1194,-262.2707 990.533,-259.6332"/>
<polygon fill="#191970" stroke="#191970" points="990.9263,-263.1171 1000.7216,-259.0795 990.5463,-256.1274 990.9263,-263.1171"/>
</g>
<!-- Node5 -->
<g id="node6" class="node">
<title>Node5</title>
<g id="a_node6"><a xlink:href="strerror_8c.html#a193b1e0b3712e3bbee338812c06af482" target="_top" xlink:title="fr_strerror_vprintf">
<polygon fill="none" stroke="#000000" points="622,-105.5 622,-124.5 713,-124.5 713,-105.5 622,-105.5"/>
<text text-anchor="middle" x="667.5" y="-112.5" font-family="Helvetica,sans-Serif" font-size="10.00" fill="#000000">fr_strerror_vprintf</text>
</a>
</g>
</g>
<!-- Node3&#45;&gt;Node5 -->
<g id="edge5" class="edge">
<title>Node3&#45;&gt;Node5</title>
<path fill="none" stroke="#191970" d="M584.111,-95.5761C594.5228,-98.0013 605.8298,-100.6351 616.6598,-103.1577"/>
<polygon fill="#191970" stroke="#191970" points="615.8989,-106.5741 626.4322,-105.434 617.4869,-99.7566 615.8989,-106.5741"/>
</g>
<!-- Node8 -->
<g id="node9" class="node">
<title>Node8</title>
<g id="a_node9"><a xlink:href="acutest_8h.html#a36af1f79dd6adf0809c21e76535034d5" target="_top" xlink:title="va_end">
<polygon fill="none" stroke="#000000" points="1003,-67.5 1003,-86.5 1051,-86.5 1051,-67.5 1003,-67.5"/>
<text text-anchor="middle" x="1027" y="-74.5" font-family="Helvetica,sans-Serif" font-size="10.00" fill="#000000">va_end</text>
</a>
</g>
</g>
<!-- Node3&#45;&gt;Node8 -->
<g id="edge18" class="edge">
<title>Node3&#45;&gt;Node8</title>
<path fill="none" stroke="#191970" d="M562.0962,-76.3896C577.8634,-68.7368 600.9837,-58.1571 622,-51 716.3055,-18.8843 745.0643,-8.3096 844,-20 898.9187,-26.4893 912.678,-31.0952 965,-49 976.4643,-52.9231 988.6974,-58.1988 999.2418,-63.1128"/>
<polygon fill="#191970" stroke="#191970" points="997.8479,-66.3257 1008.3803,-67.4749 1000.8634,-60.0085 997.8479,-66.3257"/>
</g>
<!-- Node6 -->
<g id="node7" class="node">
<title>Node6</title>
<g id="a_node7"><a xlink:href="strerror_8c.html#a42c2cc9f76fb9dac723a1903c181e1c7" target="_top" xlink:title="Initialise thread local storage. ">
<polygon fill="none" stroke="#ff0000" points="758,-181.5 758,-200.5 835,-200.5 835,-181.5 758,-181.5"/>
<text text-anchor="middle" x="796.5" y="-188.5" font-family="Helvetica,sans-Serif" font-size="10.00" fill="#000000">fr_strerror_init</text>
</a>
</g>
</g>
<!-- Node5&#45;&gt;Node6 -->
<g id="edge6" class="edge">
<title>Node5&#45;&gt;Node6</title>
<path fill="none" stroke="#191970" d="M681.6606,-124.6479C697.7104,-135.4376 724.792,-153.2074 749,-167 754.7951,-170.3018 761.0989,-173.6498 767.1637,-176.7555"/>
<polygon fill="#191970" stroke="#191970" points="765.8834,-180.0293 776.3899,-181.3948 769.0282,-173.7754 765.8834,-180.0293"/>
</g>
<!-- Node7 -->
<g id="node8" class="node">
<title>Node7</title>
<g id="a_node8"><a xlink:href="strerror_8c.html#a2c8e65d6d4b73fb705cc023f60acb099" target="_top" xlink:title="Print the current error to stderr with a prefix. ">
<polygon fill="none" stroke="#ff0000" points="896,-209.5 896,-228.5 949,-228.5 949,-209.5 896,-209.5"/>
<text text-anchor="middle" x="922.5" y="-216.5" font-family="Helvetica,sans-Serif" font-size="10.00" fill="#000000">fr_perror</text>
</a>
</g>
</g>
<!-- Node5&#45;&gt;Node7 -->
<g id="edge12" class="edge">
<title>Node5&#45;&gt;Node7</title>
<path fill="none" stroke="#191970" d="M672.3692,-124.8034C683.028,-145.0398 710.5795,-191.1184 749,-210 792.2391,-231.2497 849.0667,-229.4856 885.6917,-225.1539"/>
<polygon fill="#191970" stroke="#191970" points="886.4535,-228.5841 895.9146,-223.8157 885.5449,-221.6433 886.4535,-228.5841"/>
</g>
<!-- Node5&#45;&gt;Node8 -->
<g id="edge16" class="edge">
<title>Node5&#45;&gt;Node8</title>
<path fill="none" stroke="#191970" d="M713.0309,-110.1873C786.0526,-102.4687 927.7333,-87.4927 992.8103,-80.6139"/>
<polygon fill="#191970" stroke="#191970" points="993.3649,-84.0749 1002.9416,-79.543 992.629,-77.1137 993.3649,-84.0749"/>
</g>
<!-- Node14 -->
<g id="node10" class="node">
<title>Node14</title>
<g id="a_node10"><a xlink:href="strerror_8c.html#a9d878c1ddb1b385cdaf6523fff68529c" target="_top" xlink:title="Reset cursor state. ">
<polygon fill="none" stroke="#000000" points="880,-162.5 880,-181.5 965,-181.5 965,-162.5 880,-162.5"/>
<text text-anchor="middle" x="922.5" y="-169.5" font-family="Helvetica,sans-Serif" font-size="10.00" fill="#000000">fr_strerror_clear</text>
</a>
</g>
</g>
<!-- Node5&#45;&gt;Node14 -->
<g id="edge11" class="edge">
<title>Node5&#45;&gt;Node14</title>
<path fill="none" stroke="#191970" d="M710.1813,-124.5405C754.035,-134.3431 822.3894,-149.6223 869.6378,-160.1837"/>
<polygon fill="#191970" stroke="#191970" points="869.1568,-163.6625 879.6795,-162.4284 870.6839,-156.8311 869.1568,-163.6625"/>
</g>
<!-- Node15 -->
<g id="node11" class="node">
<title>Node15</title>
<g id="a_node11"><a xlink:href="print_8c.html#a27ae94b5a4c77de49aa2f387765a4d58" target="_top" xlink:title="Special version of vasprintf which implements custom format specifiers. ">
<polygon fill="none" stroke="#ff0000" points="764,-29.5 764,-48.5 829,-48.5 829,-29.5 764,-29.5"/>
<text text-anchor="middle" x="796.5" y="-36.5" font-family="Helvetica,sans-Serif" font-size="10.00" fill="#000000">fr_vasprintf</text>
</a>
</g>
</g>
<!-- Node5&#45;&gt;Node15 -->
<g id="edge13" class="edge">
<title>Node5&#45;&gt;Node15</title>
<path fill="none" stroke="#191970" d="M679.3587,-105.3883C694.7398,-93.2389 722.7203,-72.2004 749,-58 752.5041,-56.1065 756.2381,-54.2934 760.0139,-52.5906"/>
<polygon fill="#191970" stroke="#191970" points="761.5498,-55.7407 769.3787,-48.6021 758.8069,-49.3005 761.5498,-55.7407"/>
</g>
<!-- Node167 -->
<g id="node12" class="node">
<title>Node167</title>
<g id="a_node12"><a xlink:href="cursor_8c.html#a5d942382660657c3b4cb6e9cb2b12b2c" target="_top" xlink:title="Insert a single item at the start of the list. ">
<polygon fill="none" stroke="#000000" points="749,-67.5 749,-86.5 844,-86.5 844,-67.5 749,-67.5"/>
<text text-anchor="middle" x="796.5" y="-74.5" font-family="Helvetica,sans-Serif" font-size="10.00" fill="#000000">fr_cursor_prepend</text>
</a>
</g>
</g>
<!-- Node5&#45;&gt;Node167 -->
<g id="edge17" class="edge">
<title>Node5&#45;&gt;Node167</title>
<path fill="none" stroke="#191970" d="M700.0521,-105.411C716.3993,-100.5956 736.4092,-94.7012 753.9571,-89.532"/>
<polygon fill="#191970" stroke="#191970" points="755.3548,-92.7691 763.9583,-86.5859 753.3768,-86.0543 755.3548,-92.7691"/>
</g>
<!-- Node6&#45;&gt;Node7 -->
<g id="edge7" class="edge">
<title>Node6&#45;&gt;Node7</title>
<path fill="none" stroke="#191970" d="M835.3323,-199.6294C851.466,-203.2147 870.0923,-207.3538 885.9745,-210.8832"/>
<polygon fill="#191970" stroke="#191970" points="885.4403,-214.3498 895.9614,-213.1025 886.9588,-207.5165 885.4403,-214.3498"/>
</g>
<!-- Node6&#45;&gt;Node14 -->
<g id="edge10" class="edge">
<title>Node6&#45;&gt;Node14</title>
<path fill="none" stroke="#191970" d="M835.3323,-185.1443C846.1819,-183.5083 858.1587,-181.7023 869.6701,-179.9664"/>
<polygon fill="#191970" stroke="#191970" points="870.2602,-183.4171 879.6265,-178.4651 869.2164,-176.4953 870.2602,-183.4171"/>
</g>
<!-- Node7&#45;&gt;Node4 -->
<g id="edge8" class="edge">
<title>Node7&#45;&gt;Node4</title>
<path fill="none" stroke="#191970" d="M948.8698,-228.589C961.6171,-233.2244 977.114,-238.8596 990.9347,-243.8853"/>
<polygon fill="#191970" stroke="#191970" points="990.0446,-247.2858 1000.6387,-247.4141 992.4369,-240.7073 990.0446,-247.2858"/>
</g>
<!-- Node7&#45;&gt;Node8 -->
<g id="edge9" class="edge">
<title>Node7&#45;&gt;Node8</title>
<path fill="none" stroke="#191970" d="M941.3576,-209.3054C949.3322,-204.557 958.3039,-198.2867 965,-191 991.4253,-162.2437 1010.4915,-120.1604 1020.0484,-95.9839"/>
<polygon fill="#191970" stroke="#191970" points="1023.3613,-97.1191 1023.6594,-86.5284 1016.822,-94.6216 1023.3613,-97.1191"/>
</g>
<!-- Node15&#45;&gt;Node3 -->
<g id="edge15" class="edge">
<title>Node15&#45;&gt;Node3</title>
<path fill="none" stroke="#191970" d="M763.7893,-45.0647C721.3387,-52.9352 646.7246,-66.769 596.1049,-76.1541"/>
<polygon fill="#191970" stroke="#191970" points="595.1972,-72.7627 586.0028,-78.0271 596.4733,-79.6454 595.1972,-72.7627"/>
</g>
<!-- Node15&#45;&gt;Node8 -->
<g id="edge14" class="edge">
<title>Node15&#45;&gt;Node8</title>
<path fill="none" stroke="#191970" d="M829.0361,-44.3639C872.3483,-51.5043 948.6015,-64.0753 992.7588,-71.355"/>
<polygon fill="#191970" stroke="#191970" points="992.2904,-74.825 1002.7266,-72.9983 993.4291,-67.9182 992.2904,-74.825"/>
</g>
<!-- Node213&#45;&gt;Node3 -->
<g id="edge21" class="edge">
<title>Node213&#45;&gt;Node3</title>
<path fill="none" stroke="#191970" d="M450.1864,-86C462.7155,-86 476.4387,-86 489.3982,-86"/>
<polygon fill="#191970" stroke="#191970" points="489.5905,-89.5001 499.5904,-86 489.5904,-82.5001 489.5905,-89.5001"/>
</g>
<!-- Node178&#45;&gt;Node179 -->
<g id="edge23" class="edge">
<title>Node178&#45;&gt;Node179</title>
<path fill="none" stroke="#191970" d="M285.0009,-76.411C306.1806,-71.3965 332.3022,-65.2119 354.7604,-59.8947"/>
<polygon fill="#191970" stroke="#191970" points="355.8657,-63.2299 364.7903,-57.5201 354.2529,-56.4182 355.8657,-63.2299"/>
</g>
<!-- Node297&#45;&gt;Node3 -->
<g id="edge26" class="edge">
<title>Node297&#45;&gt;Node3</title>
<path fill="none" stroke="#191970" d="M310.3627,-6.6715C355.0343,-6.5632 414.698,-10.6851 464,-29 487.8108,-37.8453 510.8738,-55.9304 525.8711,-69.3695"/>
<polygon fill="#191970" stroke="#191970" points="523.6102,-72.0459 533.3268,-76.2695 528.3648,-66.9084 523.6102,-72.0459"/>
</g>
</g>
</svg>
