<?xml version="1.0" encoding="UTF-8" standalone="no"?>
<!DOCTYPE svg PUBLIC "-//W3C//DTD SVG 1.1//EN"
 "http://www.w3.org/Graphics/SVG/1.1/DTD/svg11.dtd">
<!-- Generated by graphviz version 2.40.1 (20161225.0304)
 -->
<!-- Title: fr_dl_dict_attr_autoload Pages: 1 -->
<svg width="882pt" height="534pt"
 viewBox="0.00 0.00 882.00 534.00" xmlns="http://www.w3.org/2000/svg" xmlns:xlink="http://www.w3.org/1999/xlink">
<g id="graph0" class="graph" transform="scale(1 1) rotate(0) translate(4 530)">
<title>fr_dl_dict_attr_autoload</title>
<!-- Node92796 -->
<g id="node1" class="node">
<title>Node92796</title>
<polygon fill="#bfbfbf" stroke="#000000" points="0,-310.5 0,-329.5 118,-329.5 118,-310.5 0,-310.5"/>
<text text-anchor="middle" x="59" y="-317.5" font-family="Helvetica,sans-Serif" font-size="10.00" fill="#000000">fr_dl_dict_attr_autoload</text>
</g>
<!-- Node92797 -->
<g id="node2" class="node">
<title>Node92797</title>
<g id="a_node2"><a xlink:href="dl__module_8h.html#aa826047e6ec8afd3f700a60b28941dee" target="_top" xlink:title="Initialise structures needed by the dynamic linker. ">
<polygon fill="none" stroke="#000000" points="154,-468.5 154,-487.5 264,-487.5 264,-468.5 154,-468.5"/>
<text text-anchor="middle" x="209" y="-475.5" font-family="Helvetica,sans-Serif" font-size="10.00" fill="#000000">dl_module_loader_init</text>
</a>
</g>
</g>
<!-- Node92796&#45;&gt;Node92797 -->
<g id="edge1" class="edge">
<title>Node92796&#45;&gt;Node92797</title>
<path fill="none" stroke="#191970" d="M75.572,-337.4559C107.1017,-370.6671 174.791,-441.9665 199.6204,-468.1201"/>
<polygon fill="#191970" stroke="#191970" points="77.8066,-334.7261 68.3832,-329.8836 72.73,-339.5457 77.8066,-334.7261"/>
</g>
<!-- Node92800 -->
<g id="node5" class="node">
<title>Node92800</title>
<g id="a_node5"><a xlink:href="dict_8h.html#ab4abf3bf9320fe063c8031c515daf937" target="_top" xlink:title="Return true if this attribute is parented directly off the dictionary root. ">
<polygon fill="none" stroke="#000000" points="161.5,-166 161.5,-196 256.5,-196 256.5,-166 161.5,-166"/>
<text text-anchor="start" x="169.5" y="-184" font-family="Helvetica,sans-Serif" font-size="10.00" fill="#000000">fr_dict_attr_is_top</text>
<text text-anchor="middle" x="209" y="-173" font-family="Helvetica,sans-Serif" font-size="10.00" fill="#000000">_level</text>
</a>
</g>
</g>
<!-- Node92796&#45;&gt;Node92800 -->
<g id="edge4" class="edge">
<title>Node92796&#45;&gt;Node92800</title>
<path fill="none" stroke="#191970" d="M76.7543,-303.5477C106.0152,-276.4326 163.9579,-222.7391 192.4261,-196.3585"/>
<polygon fill="#191970" stroke="#191970" points="74.2661,-301.0817 69.3101,-310.446 79.024,-306.2162 74.2661,-301.0817"/>
</g>
<!-- Node92798 -->
<g id="node3" class="node">
<title>Node92798</title>
<g id="a_node3"><a xlink:href="radiusd_8c.html#a0ddf1224851353fc92bfbff6f499fa97" target="_top" xlink:title="Entry point for the daemon. ">
<polygon fill="none" stroke="#000000" points="337,-506.5 337,-525.5 375,-525.5 375,-506.5 337,-506.5"/>
<text text-anchor="middle" x="356" y="-513.5" font-family="Helvetica,sans-Serif" font-size="10.00" fill="#000000">main</text>
</a>
</g>
</g>
<!-- Node92797&#45;&gt;Node92798 -->
<g id="edge2" class="edge">
<title>Node92797&#45;&gt;Node92798</title>
<path fill="none" stroke="#191970" d="M255.91,-490.1264C283.3468,-497.2189 316.4972,-505.7884 336.9142,-511.0663"/>
<polygon fill="#191970" stroke="#191970" points="256.652,-486.7032 246.0943,-487.589 254.9001,-493.4805 256.652,-486.7032"/>
</g>
<!-- Node92799 -->
<g id="node4" class="node">
<title>Node92799</title>
<g id="a_node4"><a xlink:href="main__config_8c.html#a8ec601c28cf18bfc497ee27afed43638" target="_top" xlink:title="lib_dir_parse">
<polygon fill="none" stroke="#000000" points="320.5,-468.5 320.5,-487.5 391.5,-487.5 391.5,-468.5 320.5,-468.5"/>
<text text-anchor="middle" x="356" y="-475.5" font-family="Helvetica,sans-Serif" font-size="10.00" fill="#000000">lib_dir_parse</text>
</a>
</g>
</g>
<!-- Node92797&#45;&gt;Node92799 -->
<g id="edge3" class="edge">
<title>Node92797&#45;&gt;Node92799</title>
<path fill="none" stroke="#191970" d="M274.3902,-478C290.1214,-478 306.3542,-478 320.1587,-478"/>
<polygon fill="#191970" stroke="#191970" points="274.1556,-474.5001 264.1556,-478 274.1556,-481.5001 274.1556,-474.5001"/>
</g>
<!-- Node92801 -->
<g id="node6" class="node">
<title>Node92801</title>
<g id="a_node6"><a xlink:href="radius_8h.html#af045dda20b01abc00b64ba01ae0dbc06" target="_top" xlink:title="Encode a data structure into a RADIUS attribute. ">
<polygon fill="none" stroke="#000000" points="300,-430.5 300,-449.5 412,-449.5 412,-430.5 300,-430.5"/>
<text text-anchor="middle" x="356" y="-437.5" font-family="Helvetica,sans-Serif" font-size="10.00" fill="#000000">fr_radius_encode_pair</text>
</a>
</g>
</g>
<!-- Node92800&#45;&gt;Node92801 -->
<g id="edge5" class="edge">
<title>Node92800&#45;&gt;Node92801</title>
<path fill="none" stroke="#191970" d="M222.6626,-205.0722C253.8867,-260.0861 329.3981,-393.13 350.4621,-430.2427"/>
<polygon fill="#191970" stroke="#191970" points="225.5187,-203.0137 217.5387,-196.0444 219.4309,-206.4689 225.5187,-203.0137"/>
</g>
<!-- Node93663 -->
<g id="node12" class="node">
<title>Node93663</title>
<g id="a_node12"><a xlink:href="ldap_2control_8c.html#a27ff26e238a6bb4e16f9bed408dd9528" target="_top" xlink:title="Clear and free any controls associated with a connection. ">
<polygon fill="none" stroke="#ff0000" points="302.5,-190.5 302.5,-209.5 409.5,-209.5 409.5,-190.5 302.5,-190.5"/>
<text text-anchor="middle" x="356" y="-197.5" font-family="Helvetica,sans-Serif" font-size="10.00" fill="#000000">fr_ldap_control_clear</text>
</a>
</g>
</g>
<!-- Node92800&#45;&gt;Node93663 -->
<g id="edge12" class="edge">
<title>Node92800&#45;&gt;Node93663</title>
<path fill="none" stroke="#191970" d="M266.8483,-188.477C278.5653,-189.9914 290.8388,-191.5778 302.4016,-193.0723"/>
<polygon fill="#191970" stroke="#191970" points="267.0929,-184.9796 256.7267,-187.1688 266.1955,-191.9218 267.0929,-184.9796"/>
</g>
<!-- Node93532 -->
<g id="node13" class="node">
<title>Node93532</title>
<g id="a_node13"><a xlink:href="client_8h.html#a6ff2181427e30365c8bffaa7bcd13e69" target="_top" xlink:title="Create a new client, consuming all attributes in the control list of the request. ...">
<polygon fill="none" stroke="#ff0000" points="302.5,-152.5 302.5,-171.5 409.5,-171.5 409.5,-152.5 302.5,-152.5"/>
<text text-anchor="middle" x="356" y="-159.5" font-family="Helvetica,sans-Serif" font-size="10.00" fill="#000000">client_afrom_request</text>
</a>
</g>
</g>
<!-- Node92800&#45;&gt;Node93532 -->
<g id="edge13" class="edge">
<title>Node92800&#45;&gt;Node93532</title>
<path fill="none" stroke="#191970" d="M266.8483,-173.523C278.5653,-172.0086 290.8388,-170.4222 302.4016,-168.9277"/>
<polygon fill="#191970" stroke="#191970" points="266.1955,-170.0782 256.7267,-174.8312 267.0929,-177.0204 266.1955,-170.0782"/>
</g>
<!-- Node94236 -->
<g id="node14" class="node">
<title>Node94236</title>
<g id="a_node14"><a xlink:href="util_2pair_8h.html#a6a5c8db5c62abedf6eecfa6a817d6745" target="_top" xlink:title="Find the pair with the matching attribute. ">
<polygon fill="none" stroke="#000000" points="304,-285.5 304,-304.5 408,-304.5 408,-285.5 304,-285.5"/>
<text text-anchor="middle" x="356" y="-292.5" font-family="Helvetica,sans-Serif" font-size="10.00" fill="#000000">fr_pair_find_by_num</text>
</a>
</g>
</g>
<!-- Node92800&#45;&gt;Node94236 -->
<g id="edge14" class="edge">
<title>Node92800&#45;&gt;Node94236</title>
<path fill="none" stroke="#191970" d="M233.7603,-202.8247C251.7579,-218.4027 276.9101,-239.5919 300,-257 313.5096,-267.1853 329.5397,-277.9355 340.9801,-285.3925"/>
<polygon fill="#191970" stroke="#191970" points="235.869,-200.0201 226.0277,-196.0959 231.2738,-205.3007 235.869,-200.0201"/>
</g>
<!-- Node94246 -->
<g id="node25" class="node">
<title>Node94246</title>
<g id="a_node25"><a xlink:href="pair__legacy_8h.html#a3b38f56ebceba8ee97895b75f12c5d5c" target="_top" xlink:title="Move pairs from source list to destination list respecting operator. ">
<polygon fill="none" stroke="#000000" points="310.5,-228.5 310.5,-247.5 401.5,-247.5 401.5,-228.5 310.5,-228.5"/>
<text text-anchor="middle" x="356" y="-235.5" font-family="Helvetica,sans-Serif" font-size="10.00" fill="#000000">fr_pair_list_move</text>
</a>
</g>
</g>
<!-- Node92800&#45;&gt;Node94246 -->
<g id="edge27" class="edge">
<title>Node92800&#45;&gt;Node94246</title>
<path fill="none" stroke="#191970" d="M253.2008,-200.172C267.993,-206.3965 284.6292,-213.1909 300,-219 308.5472,-222.2302 317.9199,-225.5109 326.511,-228.4165"/>
<polygon fill="#191970" stroke="#191970" points="254.3514,-196.8583 243.7783,-196.18 251.6206,-203.3037 254.3514,-196.8583"/>
</g>
<!-- Node93781 -->
<g id="node29" class="node">
<title>Node93781</title>
<g id="a_node29"><a xlink:href="rlm__attr__filter_8c.html#ac4b59dc1bedfaa783fe47b2a894ca60d" target="_top" xlink:title="attr_filter_getfile">
<polygon fill="none" stroke="#ff0000" points="313,-114.5 313,-133.5 399,-133.5 399,-114.5 313,-114.5"/>
<text text-anchor="middle" x="356" y="-121.5" font-family="Helvetica,sans-Serif" font-size="10.00" fill="#000000">attr_filter_getfile</text>
</a>
</g>
</g>
<!-- Node92800&#45;&gt;Node93781 -->
<g id="edge32" class="edge">
<title>Node92800&#45;&gt;Node93781</title>
<path fill="none" stroke="#191970" d="M253.2008,-161.828C267.993,-155.6035 284.6292,-148.8091 300,-143 308.5472,-139.7698 317.9199,-136.4891 326.511,-133.5835"/>
<polygon fill="#191970" stroke="#191970" points="251.6206,-158.6963 243.7783,-165.82 254.3514,-165.1417 251.6206,-158.6963"/>
</g>
<!-- Node93139 -->
<g id="node30" class="node">
<title>Node93139</title>
<g id="a_node30"><a xlink:href="rlm__cache_8c.html#a63fd5be2746409f3830c831aa6eeb487" target="_top" xlink:title="Do caching checks. ">
<polygon fill="none" stroke="#000000" points="317.5,-76.5 317.5,-95.5 394.5,-95.5 394.5,-76.5 317.5,-76.5"/>
<text text-anchor="middle" x="356" y="-83.5" font-family="Helvetica,sans-Serif" font-size="10.00" fill="#000000">mod_cache_it</text>
</a>
</g>
</g>
<!-- Node92800&#45;&gt;Node93139 -->
<g id="edge33" class="edge">
<title>Node92800&#45;&gt;Node93139</title>
<path fill="none" stroke="#191970" d="M230.8742,-158.7029C248.2992,-141.9945 274.0053,-119.5902 300,-105 306.6251,-101.2815 314.0992,-98.1252 321.378,-95.5168"/>
<polygon fill="#191970" stroke="#191970" points="228.1846,-156.4375 223.4795,-165.9303 233.0774,-161.4436 228.1846,-156.4375"/>
</g>
<!-- Node93739 -->
<g id="node31" class="node">
<title>Node93739</title>
<g id="a_node31"><a xlink:href="serialize_8h.html#a6972d9aaa905e0686b9f06fc11e7ae96" target="_top" xlink:title="Converts a serialized cache entry back into a structure. ">
<polygon fill="none" stroke="#ff0000" points="308.5,-38.5 308.5,-57.5 403.5,-57.5 403.5,-38.5 308.5,-38.5"/>
<text text-anchor="middle" x="356" y="-45.5" font-family="Helvetica,sans-Serif" font-size="10.00" fill="#000000">cache_deserialize</text>
</a>
</g>
</g>
<!-- Node92800&#45;&gt;Node93739 -->
<g id="edge34" class="edge">
<title>Node92800&#45;&gt;Node93739</title>
<path fill="none" stroke="#191970" d="M222.4236,-157.0182C237.9634,-131.3123 265.8505,-90.9752 300,-67 305.4616,-63.1656 311.76,-60.0534 318.1181,-57.5439"/>
<polygon fill="#191970" stroke="#191970" points="219.3284,-155.3768 217.2684,-165.7694 225.3597,-158.9298 219.3284,-155.3768"/>
</g>
<!-- Node93783 -->
<g id="node32" class="node">
<title>Node93783</title>
<g id="a_node32"><a xlink:href="rlm__files_8c.html#ac6b85e051f3599a4a2345c56c1cd7009" target="_top" xlink:title="getusersfile">
<polygon fill="none" stroke="#000000" points="322.5,-.5 322.5,-19.5 389.5,-19.5 389.5,-.5 322.5,-.5"/>
<text text-anchor="middle" x="356" y="-7.5" font-family="Helvetica,sans-Serif" font-size="10.00" fill="#000000">getusersfile</text>
</a>
</g>
</g>
<!-- Node92800&#45;&gt;Node93783 -->
<g id="edge35" class="edge">
<title>Node92800&#45;&gt;Node93783</title>
<path fill="none" stroke="#191970" d="M217.6095,-156.119C230.4426,-122.5798 257.7102,-63.1437 300,-29 306.4703,-23.776 314.4524,-19.9557 322.3419,-17.1738"/>
<polygon fill="#191970" stroke="#191970" points="214.2745,-155.0463 214.0895,-165.6396 220.8402,-157.4738 214.2745,-155.0463"/>
</g>
<!-- Node92802 -->
<g id="node7" class="node">
<title>Node92802</title>
<g id="a_node7"><a xlink:href="radius_8h.html#a3f5f24b3c1b659396d03a4490e28add3" target="_top" xlink:title="fr_radius_encode_dbuff">
<polygon fill="none" stroke="#000000" points="464,-506.5 464,-525.5 582,-525.5 582,-506.5 464,-506.5"/>
<text text-anchor="middle" x="523" y="-513.5" font-family="Helvetica,sans-Serif" font-size="10.00" fill="#000000">fr_radius_encode_dbuff</text>
</a>
</g>
</g>
<!-- Node92801&#45;&gt;Node92802 -->
<g id="edge6" class="edge">
<title>Node92801&#45;&gt;Node92802</title>
<path fill="none" stroke="#191970" d="M402.0581,-453.5442C405.5204,-455.185 408.8771,-456.9994 412,-459 431.5894,-471.5495 427.9304,-485.2337 448,-497 454.6049,-500.8723 461.9868,-503.9621 469.4721,-506.426"/>
<polygon fill="#191970" stroke="#191970" points="403.308,-450.2727 392.7347,-449.5975 400.5792,-456.7189 403.308,-450.2727"/>
</g>
<!-- Node94234 -->
<g id="node9" class="node">
<title>Node94234</title>
<g id="a_node9"><a xlink:href="chbind_8c.html#a7319f744642c66ab5bc6d8f1716e1668" target="_top" xlink:title="chbind_build_response">
<polygon fill="none" stroke="#000000" points="465,-468.5 465,-487.5 581,-487.5 581,-468.5 465,-468.5"/>
<text text-anchor="middle" x="523" y="-475.5" font-family="Helvetica,sans-Serif" font-size="10.00" fill="#000000">chbind_build_response</text>
</a>
</g>
</g>
<!-- Node92801&#45;&gt;Node94234 -->
<g id="edge8" class="edge">
<title>Node92801&#45;&gt;Node94234</title>
<path fill="none" stroke="#191970" d="M407.9646,-451.8243C431.5086,-457.1816 458.9737,-463.4311 481.1619,-468.4799"/>
<polygon fill="#191970" stroke="#191970" points="408.6685,-448.3951 398.1412,-449.589 407.1153,-455.2206 408.6685,-448.3951"/>
</g>
<!-- Node94235 -->
<g id="node11" class="node">
<title>Node94235</title>
<g id="a_node11"><a xlink:href="protocols_2radius_2encode_8c.html#ab9ed924d858ec4014c358e19d860ceec" target="_top" xlink:title="encode_tags">
<polygon fill="none" stroke="#000000" points="487,-430.5 487,-449.5 559,-449.5 559,-430.5 487,-430.5"/>
<text text-anchor="middle" x="523" y="-437.5" font-family="Helvetica,sans-Serif" font-size="10.00" fill="#000000">encode_tags</text>
</a>
</g>
</g>
<!-- Node92801&#45;&gt;Node94235 -->
<g id="edge10" class="edge">
<title>Node92801&#45;&gt;Node94235</title>
<path fill="none" stroke="#191970" d="M422.0945,-433.3821C444.2184,-433.0419 468.0484,-433.3589 486.9924,-434.3333"/>
<polygon fill="#191970" stroke="#191970" points="422.0003,-429.8832 412.0732,-433.5846 422.1419,-436.8817 422.0003,-429.8832"/>
</g>
<!-- Node92803 -->
<g id="node8" class="node">
<title>Node92803</title>
<g id="a_node8"><a xlink:href="radius_8h.html#a6bb7136f7594121eac299907792e94d2" target="_top" xlink:title="Encode VPS into a raw RADIUS packet. ">
<polygon fill="none" stroke="#ff0000" points="641.5,-506.5 641.5,-525.5 732.5,-525.5 732.5,-506.5 641.5,-506.5"/>
<text text-anchor="middle" x="687" y="-513.5" font-family="Helvetica,sans-Serif" font-size="10.00" fill="#000000">fr_radius_encode</text>
</a>
</g>
</g>
<!-- Node92802&#45;&gt;Node92803 -->
<g id="edge7" class="edge">
<title>Node92802&#45;&gt;Node92803</title>
<path fill="none" stroke="#191970" d="M592.3771,-516C608.8948,-516 626.1125,-516 641.2624,-516"/>
<polygon fill="#191970" stroke="#191970" points="592.2078,-512.5001 582.2078,-516 592.2077,-519.5001 592.2078,-512.5001"/>
</g>
<!-- Node92895 -->
<g id="node10" class="node">
<title>Node92895</title>
<g id="a_node10"><a xlink:href="chbind_8h.html#aad9f68ec81aaa3a71eb1935fea7a5a64" target="_top" xlink:title="chbind_process">
<polygon fill="none" stroke="#ff0000" points="644.5,-468.5 644.5,-487.5 729.5,-487.5 729.5,-468.5 644.5,-468.5"/>
<text text-anchor="middle" x="687" y="-475.5" font-family="Helvetica,sans-Serif" font-size="10.00" fill="#000000">chbind_process</text>
</a>
</g>
</g>
<!-- Node94234&#45;&gt;Node92895 -->
<g id="edge9" class="edge">
<title>Node94234&#45;&gt;Node92895</title>
<path fill="none" stroke="#191970" d="M591.426,-478C609.3707,-478 628.2075,-478 644.3691,-478"/>
<polygon fill="#191970" stroke="#191970" points="591.2821,-474.5001 581.282,-478 591.282,-481.5001 591.2821,-474.5001"/>
</g>
<!-- Node94235&#45;&gt;Node92801 -->
<g id="edge11" class="edge">
<title>Node94235&#45;&gt;Node92801</title>
<path fill="none" stroke="#191970" d="M476.868,-446.1093C456.8125,-446.8451 433.1335,-446.9472 412.0732,-446.4154"/>
<polygon fill="#191970" stroke="#191970" points="477.1548,-449.6002 486.9924,-445.6667 476.849,-442.6068 477.1548,-449.6002"/>
</g>
<!-- Node94237 -->
<g id="node15" class="node">
<title>Node94237</title>
<g id="a_node15"><a xlink:href="util_2pair_8h.html#a165413d9c815173e48a32243161143c5" target="_top" xlink:title="Initialise a cursor that will return only attributes descended from the specified fr_dict_attr_t...">
<polygon fill="none" stroke="#000000" points="448,-304.5 448,-323.5 598,-323.5 598,-304.5 448,-304.5"/>
<text text-anchor="middle" x="523" y="-311.5" font-family="Helvetica,sans-Serif" font-size="10.00" fill="#000000">fr_cursor_iter_by_ancestor_init</text>
</a>
</g>
</g>
<!-- Node94236&#45;&gt;Node94237 -->
<g id="edge15" class="edge">
<title>Node94236&#45;&gt;Node94237</title>
<path fill="none" stroke="#191970" d="M418.5723,-302.119C428.1289,-303.2063 438.0764,-304.338 447.8689,-305.4521"/>
<polygon fill="#191970" stroke="#191970" points="418.7132,-298.6125 408.3816,-300.9596 417.9219,-305.5677 418.7132,-298.6125"/>
</g>
<!-- Node94244 -->
<g id="node20" class="node">
<title>Node94244</title>
<g id="a_node20"><a xlink:href="auth_8h.html#aa6ec1b9627357ae76bacbf9c624d08c3" target="_top" xlink:title="rad_virtual_server">
<polygon fill="none" stroke="#000000" points="476,-392.5 476,-411.5 570,-411.5 570,-392.5 476,-392.5"/>
<text text-anchor="middle" x="523" y="-399.5" font-family="Helvetica,sans-Serif" font-size="10.00" fill="#000000">rad_virtual_server</text>
</a>
</g>
</g>
<!-- Node94236&#45;&gt;Node94244 -->
<g id="edge20" class="edge">
<title>Node94236&#45;&gt;Node94244</title>
<path fill="none" stroke="#191970" d="M379.7344,-310.2071C414.682,-332.5987 478.9774,-373.7939 508.0398,-392.4147"/>
<polygon fill="#191970" stroke="#191970" points="381.4229,-307.1321 371.1147,-304.6843 377.6465,-313.0261 381.4229,-307.1321"/>
</g>
<!-- Node93170 -->
<g id="node23" class="node">
<title>Node93170</title>
<g id="a_node23"><a xlink:href="paircmp_8h.html#a1ce534420254a0c196b7d45c3d7405cc" target="_top" xlink:title="Compare two pair lists except for the password information. ">
<polygon fill="none" stroke="#ff0000" points="497.5,-266.5 497.5,-285.5 548.5,-285.5 548.5,-266.5 497.5,-266.5"/>
<text text-anchor="middle" x="523" y="-273.5" font-family="Helvetica,sans-Serif" font-size="10.00" fill="#000000">paircmp</text>
</a>
</g>
</g>
<!-- Node94236&#45;&gt;Node93170 -->
<g id="edge25" class="edge">
<title>Node94236&#45;&gt;Node93170</title>
<path fill="none" stroke="#191970" d="M418.6678,-287.8701C445.9814,-284.7626 476.472,-281.2936 497.4019,-278.9124"/>
<polygon fill="#191970" stroke="#191970" points="417.9219,-284.4323 408.3816,-289.0404 418.7132,-291.3875 417.9219,-284.4323"/>
</g>
<!-- Node94238 -->
<g id="node16" class="node">
<title>Node94238</title>
<g id="a_node16"><a xlink:href="password_8h.html#ab632a24a65aecb85f631b203c997d967" target="_top" xlink:title="Find all password attributes in the control list of a request and normalise them. ...">
<polygon fill="none" stroke="#000000" points="634,-343 634,-373 740,-373 740,-343 634,-343"/>
<text text-anchor="start" x="642" y="-361" font-family="Helvetica,sans-Serif" font-size="10.00" fill="#000000">password_normalise</text>
<text text-anchor="middle" x="687" y="-350" font-family="Helvetica,sans-Serif" font-size="10.00" fill="#000000">_and_replace</text>
</a>
</g>
</g>
<!-- Node94237&#45;&gt;Node94238 -->
<g id="edge16" class="edge">
<title>Node94237&#45;&gt;Node94238</title>
<path fill="none" stroke="#191970" d="M568.4857,-326.2035C588.7105,-331.6297 612.6595,-338.055 633.7167,-343.7045"/>
<polygon fill="#191970" stroke="#191970" points="569.151,-322.7583 558.5856,-323.5473 567.337,-329.5192 569.151,-322.7583"/>
</g>
<!-- Node94239 -->
<g id="node17" class="node">
<title>Node94239</title>
<g id="a_node17"><a xlink:href="password_8h.html#a6b44d8c623dd818b6330481f829519b4" target="_top" xlink:title="Find a &quot;known good&quot; password in the control list of a request. ">
<polygon fill="none" stroke="#ff0000" points="647,-304.5 647,-323.5 727,-323.5 727,-304.5 647,-304.5"/>
<text text-anchor="middle" x="687" y="-311.5" font-family="Helvetica,sans-Serif" font-size="10.00" fill="#000000">password_find</text>
</a>
</g>
</g>
<!-- Node94237&#45;&gt;Node94239 -->
<g id="edge17" class="edge">
<title>Node94237&#45;&gt;Node94239</title>
<path fill="none" stroke="#191970" d="M608.4628,-314C621.7781,-314 634.9713,-314 646.6349,-314"/>
<polygon fill="#191970" stroke="#191970" points="608.2802,-310.5001 598.2801,-314 608.2801,-317.5001 608.2802,-310.5001"/>
</g>
<!-- Node94243 -->
<g id="node18" class="node">
<title>Node94243</title>
<g id="a_node18"><a xlink:href="stats_8h.html#a8855e6bc7b32c541771c3d2459da74d7" target="_top" xlink:title="fr_snmp_process">
<polygon fill="none" stroke="#000000" points="641,-266.5 641,-285.5 733,-285.5 733,-266.5 641,-266.5"/>
<text text-anchor="middle" x="687" y="-273.5" font-family="Helvetica,sans-Serif" font-size="10.00" fill="#000000">fr_snmp_process</text>
</a>
</g>
</g>
<!-- Node94237&#45;&gt;Node94243 -->
<g id="edge18" class="edge">
<title>Node94237&#45;&gt;Node94243</title>
<path fill="none" stroke="#191970" d="M574.341,-302.1039C597.3929,-296.7626 624.2211,-290.5463 645.9135,-285.5201"/>
<polygon fill="#191970" stroke="#191970" points="573.336,-298.744 564.3841,-304.411 574.9161,-305.5633 573.336,-298.744"/>
</g>
<!-- Node94007 -->
<g id="node19" class="node">
<title>Node94007</title>
<g id="a_node19"><a xlink:href="util_2pair_8h.html#a0e69efb827c473c92dfe3d696da17254" target="_top" xlink:title="Duplicate pairs in a list where the da is a descendant of parent_da. ">
<polygon fill="none" stroke="#ff0000" points="635,-217 635,-247 739,-247 739,-217 635,-217"/>
<text text-anchor="start" x="643" y="-235" font-family="Helvetica,sans-Serif" font-size="10.00" fill="#000000">fr_pair_list_copy_by</text>
<text text-anchor="middle" x="687" y="-224" font-family="Helvetica,sans-Serif" font-size="10.00" fill="#000000">_ancestor</text>
</a>
</g>
</g>
<!-- Node94237&#45;&gt;Node94007 -->
<g id="edge19" class="edge">
<title>Node94237&#45;&gt;Node94007</title>
<path fill="none" stroke="#191970" d="M586.2366,-300.8196C590.3237,-299.1088 594.2847,-297.1782 598,-295 618.0696,-283.2337 615.155,-270.6418 634,-257 639.027,-253.361 644.6676,-250.0367 650.3439,-247.0838"/>
<polygon fill="#191970" stroke="#191970" points="584.6833,-297.6629 576.5279,-304.426 587.1208,-304.2248 584.6833,-297.6629"/>
</g>
<!-- Node94244&#45;&gt;Node92895 -->
<g id="edge23" class="edge">
<title>Node94244&#45;&gt;Node92895</title>
<path fill="none" stroke="#191970" d="M580.1378,-413.2828C586.337,-415.4356 592.4152,-417.9849 598,-421 617.0995,-431.3112 615.8872,-442.0402 634,-454 642.5134,-459.6213 652.5589,-464.5428 661.6024,-468.4416"/>
<polygon fill="#191970" stroke="#191970" points="580.9392,-409.8662 570.3501,-410.2162 578.8463,-416.546 580.9392,-409.8662"/>
</g>
<!-- Node94245 -->
<g id="node21" class="node">
<title>Node94245</title>
<g id="a_node21"><a xlink:href="eap_2base_8h.html#a030557871e22033f0a2ba47e4b8017d2" target="_top" xlink:title="Run a subrequest through a virtual server, managing the eap_session_t of the child. ">
<polygon fill="none" stroke="#ff0000" points="639,-392.5 639,-411.5 735,-411.5 735,-392.5 639,-392.5"/>
<text text-anchor="middle" x="687" y="-399.5" font-family="Helvetica,sans-Serif" font-size="10.00" fill="#000000">eap_virtual_server</text>
</a>
</g>
</g>
<!-- Node94244&#45;&gt;Node94245 -->
<g id="edge21" class="edge">
<title>Node94244&#45;&gt;Node94245</title>
<path fill="none" stroke="#191970" d="M580.4925,-402C599.5445,-402 620.5403,-402 638.8181,-402"/>
<polygon fill="#191970" stroke="#191970" points="580.4356,-398.5001 570.4356,-402 580.4356,-405.5001 580.4356,-398.5001"/>
</g>
<!-- Node93771 -->
<g id="node22" class="node">
<title>Node93771</title>
<g id="a_node22"><a xlink:href="peap_8c.html#ac34e64db8670982e511cc76abab718f0" target="_top" xlink:title="eap_peap_process">
<polygon fill="none" stroke="#ff0000" points="776,-411.5 776,-430.5 874,-430.5 874,-411.5 776,-411.5"/>
<text text-anchor="middle" x="825" y="-418.5" font-family="Helvetica,sans-Serif" font-size="10.00" fill="#000000">eap_peap_process</text>
</a>
</g>
</g>
<!-- Node94244&#45;&gt;Node93771 -->
<g id="edge24" class="edge">
<title>Node94244&#45;&gt;Node93771</title>
<path fill="none" stroke="#191970" d="M578.3066,-413.3645C596.0162,-416.4928 615.761,-419.4503 634,-421 682.0742,-425.0848 737.2007,-424.5263 775.8336,-423.2831"/>
<polygon fill="#191970" stroke="#191970" points="578.6069,-409.8617 568.1414,-411.5122 577.352,-416.7483 578.6069,-409.8617"/>
</g>
<!-- Node94245&#45;&gt;Node93771 -->
<g id="edge22" class="edge">
<title>Node94245&#45;&gt;Node93771</title>
<path fill="none" stroke="#191970" d="M745.2307,-410.0173C755.3341,-411.4083 765.7533,-412.8429 775.593,-414.1976"/>
<polygon fill="#191970" stroke="#191970" points="745.6497,-406.542 735.2657,-408.6453 744.6948,-413.4766 745.6497,-406.542"/>
</g>
<!-- Node93184 -->
<g id="node24" class="node">
<title>Node93184</title>
<g id="a_node24"><a xlink:href="rlm__files_8c.html#a5513d7eff1d477de518134494cae3265" target="_top" xlink:title="file_common">
<polygon fill="none" stroke="#ff0000" points="651,-178.5 651,-197.5 723,-197.5 723,-178.5 651,-178.5"/>
<text text-anchor="middle" x="687" y="-185.5" font-family="Helvetica,sans-Serif" font-size="10.00" fill="#000000">file_common</text>
</a>
</g>
</g>
<!-- Node93170&#45;&gt;Node93184 -->
<g id="edge26" class="edge">
<title>Node93170&#45;&gt;Node93184</title>
<path fill="none" stroke="#191970" d="M558.3419,-269.164C571.5526,-265.4989 586.2002,-260.0275 598,-252 618.891,-237.7878 613.4792,-222.7416 634,-208 639.9107,-203.7539 646.8327,-200.2915 653.6876,-197.5144"/>
<polygon fill="#191970" stroke="#191970" points="557.429,-265.7846 548.5907,-271.6271 559.1433,-272.5714 557.429,-265.7846"/>
</g>
<!-- Node94246&#45;&gt;Node93184 -->
<g id="edge31" class="edge">
<title>Node94246&#45;&gt;Node93184</title>
<path fill="none" stroke="#191970" d="M411.7016,-237.6675C461.1251,-236.4187 535.0417,-232.2061 598,-219 610.3303,-216.4136 640.0328,-205.7208 661.7445,-197.6105"/>
<polygon fill="#191970" stroke="#191970" points="411.4602,-234.1719 401.5396,-237.8912 411.6143,-241.1702 411.4602,-234.1719"/>
</g>
<!-- Node93644 -->
<g id="node26" class="node">
<title>Node93644</title>
<g id="a_node26"><a xlink:href="map_8h.html#aa009f814e72685cac7c2f42a0dd95453" target="_top" xlink:title="Convert map_t to fr_pair_t (s) and add them to a request_t. ">
<polygon fill="none" stroke="#ff0000" points="480,-190.5 480,-209.5 566,-209.5 566,-190.5 480,-190.5"/>
<text text-anchor="middle" x="523" y="-197.5" font-family="Helvetica,sans-Serif" font-size="10.00" fill="#000000">map_to_request</text>
</a>
</g>
</g>
<!-- Node94246&#45;&gt;Node93644 -->
<g id="edge28" class="edge">
<title>Node94246&#45;&gt;Node93644</title>
<path fill="none" stroke="#191970" d="M407.9646,-226.1757C431.5086,-220.8184 458.9737,-214.5689 481.1619,-209.5201"/>
<polygon fill="#191970" stroke="#191970" points="407.1153,-222.7794 398.1412,-228.411 408.6685,-229.6049 407.1153,-222.7794"/>
</g>
<!-- Node93890 -->
<g id="node27" class="node">
<title>Node93890</title>
<g id="a_node27"><a xlink:href="group__xlat__functions.html#ga208990a1d204e297bfe05ee5b66252c0" target="_top" xlink:title="Decode DHCP option data. ">
<polygon fill="none" stroke="#ff0000" points="470,-152.5 470,-171.5 576,-171.5 576,-152.5 470,-152.5"/>
<text text-anchor="middle" x="523" y="-159.5" font-family="Helvetica,sans-Serif" font-size="10.00" fill="#000000">dhcpv4_decode_xlat</text>
</a>
</g>
</g>
<!-- Node94246&#45;&gt;Node93890 -->
<g id="edge29" class="edge">
<title>Node94246&#45;&gt;Node93890</title>
<path fill="none" stroke="#191970" d="M402.0581,-224.4558C405.5204,-222.815 408.8771,-221.0006 412,-219 431.5894,-206.4505 427.9304,-192.7663 448,-181 454.7208,-177.0598 462.246,-173.9297 469.8662,-171.4449"/>
<polygon fill="#191970" stroke="#191970" points="400.5792,-221.2811 392.7347,-228.4025 403.308,-227.7273 400.5792,-221.2811"/>
</g>
<!-- Node93785 -->
<g id="node28" class="node">
<title>Node93785</title>
<g id="a_node28"><a xlink:href="rlm__exec_8c.html#adaa462965af1b7a875cc117cafc04cfa" target="_top" xlink:title="mod_exec_wait_resume">
<polygon fill="none" stroke="#ff0000" points="462,-114.5 462,-133.5 584,-133.5 584,-114.5 462,-114.5"/>
<text text-anchor="middle" x="523" y="-121.5" font-family="Helvetica,sans-Serif" font-size="10.00" fill="#000000">mod_exec_wait_resume</text>
</a>
</g>
</g>
<!-- Node94246&#45;&gt;Node93785 -->
<g id="edge30" class="edge">
<title>Node94246&#45;&gt;Node93785</title>
<path fill="none" stroke="#191970" d="M405.8373,-223.668C408.0178,-222.2546 410.0884,-220.7031 412,-219 439.9071,-194.1378 419.133,-166.741 448,-143 452.6684,-139.1605 458.013,-136.0838 463.6519,-133.6203"/>
<polygon fill="#191970" stroke="#191970" points="404.112,-220.6221 396.9867,-228.463 407.4465,-226.7769 404.112,-220.6221"/>
</g>
</g>
</svg>
