<?xml version="1.0" encoding="UTF-8" standalone="no"?>
<!DOCTYPE svg PUBLIC "-//W3C//DTD SVG 1.1//EN"
 "http://www.w3.org/Graphics/SVG/1.1/DTD/svg11.dtd">
<!-- Generated by graphviz version 2.40.1 (20161225.0304)
 -->
<!-- Title: dict_by_attr_name Pages: 1 -->
<svg width="747pt" height="153pt"
 viewBox="0.00 0.00 747.00 153.00" xmlns="http://www.w3.org/2000/svg" xmlns:xlink="http://www.w3.org/1999/xlink">
<g id="graph0" class="graph" transform="scale(1 1) rotate(0) translate(4 149)">
<title>dict_by_attr_name</title>
<!-- Node20429 -->
<g id="node1" class="node">
<title>Node20429</title>
<polygon fill="#bfbfbf" stroke="#000000" points="0,-103.5 0,-122.5 97,-122.5 97,-103.5 0,-103.5"/>
<text text-anchor="middle" x="48.5" y="-110.5" font-family="Helvetica,sans-Serif" font-size="10.00" fill="#000000">dict_by_attr_name</text>
</g>
<!-- Node20430 -->
<g id="node2" class="node">
<title>Node20430</title>
<g id="a_node2"><a xlink:href="hash_8c.html#a9bd00627243facb3f3290ef0e0b11a77" target="_top" xlink:title="fr_hash_table_walk">
<polygon fill="none" stroke="#000000" points="133,-125.5 133,-144.5 234,-144.5 234,-125.5 133,-125.5"/>
<text text-anchor="middle" x="183.5" y="-132.5" font-family="Helvetica,sans-Serif" font-size="10.00" fill="#000000">fr_hash_table_walk</text>
</a>
</g>
</g>
<!-- Node20429&#45;&gt;Node20430 -->
<g id="edge1" class="edge">
<title>Node20429&#45;&gt;Node20430</title>
<path fill="none" stroke="#191970" d="M97.2381,-120.9425C105.4893,-122.2871 114.1467,-123.698 122.6615,-125.0856"/>
<polygon fill="#191970" stroke="#191970" points="122.1257,-128.5444 132.5585,-126.6984 123.2517,-121.6355 122.1257,-128.5444"/>
</g>
<!-- Node20433 -->
<g id="node5" class="node">
<title>Node20433</title>
<g id="a_node5"><a xlink:href="dict__util_8c.html#abecc48245375fdd8d91c52b7326d3a47" target="_top" xlink:title="Search for an attribute name in all dictionaries. ">
<polygon fill="none" stroke="#000000" points="138,-76 138,-106 229,-106 229,-76 138,-76"/>
<text text-anchor="start" x="146" y="-94" font-family="Helvetica,sans-Serif" font-size="10.00" fill="#000000">_dict_attr_find_in</text>
<text text-anchor="middle" x="183.5" y="-83" font-family="Helvetica,sans-Serif" font-size="10.00" fill="#000000">_dicts</text>
</a>
</g>
</g>
<!-- Node20429&#45;&gt;Node20433 -->
<g id="edge4" class="edge">
<title>Node20429&#45;&gt;Node20433</title>
<path fill="none" stroke="#191970" d="M97.2381,-105.0575C107.2075,-103.4329 117.77,-101.7116 127.9572,-100.0514"/>
<polygon fill="#191970" stroke="#191970" points="128.6765,-103.4805 137.9834,-98.4175 127.5506,-96.5716 128.6765,-103.4805"/>
</g>
<!-- Node20431 -->
<g id="node3" class="node">
<title>Node20431</title>
<g id="a_node3"><a xlink:href="hash_8c.html#acbf976b954e809a253d9cac2d6db1fd6" target="_top" xlink:title="fr_hash_table_fixup">
<polygon fill="none" stroke="#000000" points="545,-124.5 545,-143.5 646,-143.5 646,-124.5 545,-124.5"/>
<text text-anchor="middle" x="595.5" y="-131.5" font-family="Helvetica,sans-Serif" font-size="10.00" fill="#000000">fr_hash_table_fixup</text>
</a>
</g>
</g>
<!-- Node20430&#45;&gt;Node20431 -->
<g id="edge2" class="edge">
<title>Node20430&#45;&gt;Node20431</title>
<path fill="none" stroke="#191970" d="M234.0193,-134.8774C309.953,-134.6931 453.2708,-134.3452 534.7812,-134.1474"/>
<polygon fill="#191970" stroke="#191970" points="534.899,-137.6472 544.8904,-134.1228 534.8819,-130.6472 534.899,-137.6472"/>
</g>
<!-- Node20432 -->
<g id="node4" class="node">
<title>Node20432</title>
<g id="a_node4"><a xlink:href="hash_8c.html#a5da1fb71dc14beff3c8b670aa6231214" target="_top" xlink:title="parent_of">
<polygon fill="none" stroke="#000000" points="682,-124.5 682,-143.5 739,-143.5 739,-124.5 682,-124.5"/>
<text text-anchor="middle" x="710.5" y="-131.5" font-family="Helvetica,sans-Serif" font-size="10.00" fill="#000000">parent_of</text>
</a>
</g>
</g>
<!-- Node20431&#45;&gt;Node20432 -->
<g id="edge3" class="edge">
<title>Node20431&#45;&gt;Node20432</title>
<path fill="none" stroke="#191970" d="M646.2754,-134C654.7265,-134 663.374,-134 671.4742,-134"/>
<polygon fill="#191970" stroke="#191970" points="671.7449,-137.5001 681.7449,-134 671.7449,-130.5001 671.7449,-137.5001"/>
</g>
<!-- Node20434 -->
<g id="node6" class="node">
<title>Node20434</title>
<g id="a_node6"><a xlink:href="dict__ext__priv_8h.html#a5d44e0fb3b3f5da9fa75345b394398c7" target="_top" xlink:title="Return the namespace hash table associated with the attribute. ">
<polygon fill="none" stroke="#000000" points="270,-37.5 270,-56.5 377,-56.5 377,-37.5 270,-37.5"/>
<text text-anchor="middle" x="323.5" y="-44.5" font-family="Helvetica,sans-Serif" font-size="10.00" fill="#000000">dict_attr_namespace</text>
</a>
</g>
</g>
<!-- Node20433&#45;&gt;Node20434 -->
<g id="edge5" class="edge">
<title>Node20433&#45;&gt;Node20434</title>
<path fill="none" stroke="#191970" d="M229.3412,-76.5928C246.8068,-71.1036 266.5595,-64.8956 283.4467,-59.5882"/>
<polygon fill="#191970" stroke="#191970" points="284.5291,-62.9169 293.0196,-56.5796 282.4302,-56.2389 284.5291,-62.9169"/>
</g>
<!-- Node20437 -->
<g id="node9" class="node">
<title>Node20437</title>
<g id="a_node9"><a xlink:href="hash_8c.html#a5142bb7ae36b65a809eb834314974942" target="_top" xlink:title="Find data from a template. ">
<polygon fill="none" stroke="#000000" points="275.5,-76 275.5,-106 371.5,-106 371.5,-76 275.5,-76"/>
<text text-anchor="start" x="283.5" y="-94" font-family="Helvetica,sans-Serif" font-size="10.00" fill="#000000">fr_hash_table_find</text>
<text text-anchor="middle" x="323.5" y="-83" font-family="Helvetica,sans-Serif" font-size="10.00" fill="#000000">_by_data</text>
</a>
</g>
</g>
<!-- Node20433&#45;&gt;Node20437 -->
<g id="edge9" class="edge">
<title>Node20433&#45;&gt;Node20437</title>
<path fill="none" stroke="#191970" d="M229.3412,-91C240.6901,-91 253.0046,-91 264.8711,-91"/>
<polygon fill="#191970" stroke="#191970" points="265.1485,-94.5001 275.1484,-91 265.1484,-87.5001 265.1485,-94.5001"/>
</g>
<!-- Node20435 -->
<g id="node7" class="node">
<title>Node20435</title>
<g id="a_node7"><a xlink:href="dict__ext_8h.html#a7a15b65c006118453de17e8309debf4e" target="_top" xlink:title="Return the reference associated with a group type attribute. ">
<polygon fill="none" stroke="#000000" points="421,-.5 421,-19.5 501,-19.5 501,-.5 421,-.5"/>
<text text-anchor="middle" x="461" y="-7.5" font-family="Helvetica,sans-Serif" font-size="10.00" fill="#000000">fr_dict_attr_ref</text>
</a>
</g>
</g>
<!-- Node20434&#45;&gt;Node20435 -->
<g id="edge6" class="edge">
<title>Node20434&#45;&gt;Node20435</title>
<path fill="none" stroke="#191970" d="M358.9097,-37.4716C376.097,-32.8466 396.9524,-27.2346 415.3219,-22.2915"/>
<polygon fill="#191970" stroke="#191970" points="416.4854,-25.603 425.2324,-19.6247 414.6664,-18.8435 416.4854,-25.603"/>
</g>
<!-- Node20436 -->
<g id="node8" class="node">
<title>Node20436</title>
<g id="a_node8"><a xlink:href="dict__ext_8h.html#a34a6d539e648b685d19cf23c2d0e7d3f" target="_top" xlink:title="fr_dict_attr_ext">
<polygon fill="none" stroke="#000000" points="554.5,-6.5 554.5,-25.5 636.5,-25.5 636.5,-6.5 554.5,-6.5"/>
<text text-anchor="middle" x="595.5" y="-13.5" font-family="Helvetica,sans-Serif" font-size="10.00" fill="#000000">fr_dict_attr_ext</text>
</a>
</g>
</g>
<!-- Node20434&#45;&gt;Node20436 -->
<g id="edge8" class="edge">
<title>Node20434&#45;&gt;Node20436</title>
<path fill="none" stroke="#191970" d="M377.1574,-42.543C414.2435,-39.2789 464.6856,-34.4762 509,-29 520.4236,-27.5883 532.6656,-25.8729 544.2398,-24.1575"/>
<polygon fill="#191970" stroke="#191970" points="544.8344,-27.6075 554.2019,-22.6575 543.7922,-20.6855 544.8344,-27.6075"/>
</g>
<!-- Node20435&#45;&gt;Node20436 -->
<g id="edge7" class="edge">
<title>Node20435&#45;&gt;Node20436</title>
<path fill="none" stroke="#191970" d="M501.3544,-11.8002C514.8038,-12.4002 529.9714,-13.0768 544.1408,-13.7089"/>
<polygon fill="#191970" stroke="#191970" points="544.0969,-17.2103 554.243,-14.1595 544.4089,-10.2173 544.0969,-17.2103"/>
</g>
<!-- Node20438 -->
<g id="node10" class="node">
<title>Node20438</title>
<g id="a_node10"><a xlink:href="hash_8c.html#a2f0bab7c7a02a720f6d5a401ebb10e41" target="_top" xlink:title="fr_hash_table_find">
<polygon fill="none" stroke="#000000" points="413,-84.5 413,-103.5 509,-103.5 509,-84.5 413,-84.5"/>
<text text-anchor="middle" x="461" y="-91.5" font-family="Helvetica,sans-Serif" font-size="10.00" fill="#000000">fr_hash_table_find</text>
</a>
</g>
</g>
<!-- Node20437&#45;&gt;Node20438 -->
<g id="edge10" class="edge">
<title>Node20437&#45;&gt;Node20438</title>
<path fill="none" stroke="#191970" d="M371.5908,-92.0493C381.581,-92.2672 392.2128,-92.4992 402.5287,-92.7243"/>
<polygon fill="#191970" stroke="#191970" points="402.6299,-96.2272 412.7039,-92.9463 402.7827,-89.2289 402.6299,-96.2272"/>
</g>
<!-- Node20438&#45;&gt;Node20431 -->
<g id="edge12" class="edge">
<title>Node20438&#45;&gt;Node20431</title>
<path fill="none" stroke="#191970" d="M493.2161,-103.581C511.3494,-108.9738 534.1977,-115.7688 553.6975,-121.568"/>
<polygon fill="#191970" stroke="#191970" points="552.9639,-125.0013 563.5468,-124.4972 554.9594,-118.2917 552.9639,-125.0013"/>
</g>
<!-- Node20439 -->
<g id="node11" class="node">
<title>Node20439</title>
<g id="a_node11"><a xlink:href="hash_8c.html#a86514c71c450634ce16bc4d64b93c076" target="_top" xlink:title="reverse">
<polygon fill="none" stroke="#000000" points="571,-85.5 571,-104.5 620,-104.5 620,-85.5 571,-85.5"/>
<text text-anchor="middle" x="595.5" y="-92.5" font-family="Helvetica,sans-Serif" font-size="10.00" fill="#000000">reverse</text>
</a>
</g>
</g>
<!-- Node20438&#45;&gt;Node20439 -->
<g id="edge11" class="edge">
<title>Node20438&#45;&gt;Node20439</title>
<path fill="none" stroke="#191970" d="M509.1777,-94.3582C526.0811,-94.4839 544.7371,-94.6226 560.3677,-94.7388"/>
<polygon fill="#191970" stroke="#191970" points="560.6211,-98.2407 570.6469,-94.8152 560.6732,-91.2409 560.6211,-98.2407"/>
</g>
<!-- Node20440 -->
<g id="node12" class="node">
<title>Node20440</title>
<g id="a_node12"><a xlink:href="hash_8c.html#a26760591e3c340fd9d4020fb4eb32c58" target="_top" xlink:title="list_find">
<polygon fill="none" stroke="#000000" points="570.5,-47.5 570.5,-66.5 620.5,-66.5 620.5,-47.5 570.5,-47.5"/>
<text text-anchor="middle" x="595.5" y="-54.5" font-family="Helvetica,sans-Serif" font-size="10.00" fill="#000000">list_find</text>
</a>
</g>
</g>
<!-- Node20438&#45;&gt;Node20440 -->
<g id="edge13" class="edge">
<title>Node20438&#45;&gt;Node20440</title>
<path fill="none" stroke="#191970" d="M495.6371,-84.4716C515.6127,-78.9764 540.6535,-72.0879 560.6628,-66.5835"/>
<polygon fill="#191970" stroke="#191970" points="561.6114,-69.9526 570.3249,-63.9255 559.7547,-63.2033 561.6114,-69.9526"/>
</g>
</g>
</svg>
