<?xml version="1.0" encoding="UTF-8" standalone="no"?>
<!DOCTYPE svg PUBLIC "-//W3C//DTD SVG 1.1//EN"
 "http://www.w3.org/Graphics/SVG/1.1/DTD/svg11.dtd">
<!-- Generated by graphviz version 2.40.1 (20161225.0304)
 -->
<!-- Title: fr_dict_attr_cmp Pages: 1 -->
<!--zoomable 685 -->
<svg id="main" version="1.1" xmlns="http://www.w3.org/2000/svg" xmlns:xlink="http://www.w3.org/1999/xlink" xml:space="preserve" onload="init(evt)">
<style type="text/css"><![CDATA[
.edge:hover path { stroke: red; }
.edge:hover polygon { stroke: red; fill: red; }
]]></style>
<script type="text/javascript"><![CDATA[
var edges = document.getElementsByTagName('g');
if (edges && edges.length) {
  for (var i=0;i<edges.length;i++) {
    if (edges[i].id.substr(0,4)=='edge') {
      edges[i].setAttribute('class','edge');
    }
  }
}
]]></script>
        <defs>
                <circle id="rim" cx="0" cy="0" r="7"/>
                <circle id="rim2" cx="0" cy="0" r="3.5"/>
                <g id="zoomPlus">
                        <use xlink:href="#rim" fill="#404040">
                                <set attributeName="fill" to="#808080" begin="zoomplus.mouseover" end="zoomplus.mouseout"/>
                        </use>
                        <path d="M-4,0h8M0,-4v8" fill="none" stroke="white" stroke-width="1.5" pointer-events="none"/>
                </g>
                <g id="zoomMin">
                        <use xlink:href="#rim" fill="#404040">
                                <set attributeName="fill" to="#808080" begin="zoomminus.mouseover" end="zoomminus.mouseout"/>
                        </use>
                        <path d="M-4,0h8" fill="none" stroke="white" stroke-width="1.5" pointer-events="none"/>
                </g>
                <g id="dirArrow">
                        <path fill="none" stroke="white" stroke-width="1.5" d="M0,-3.0v7 M-2.5,-0.5L0,-3.0L2.5,-0.5"/>
                </g>
               <g id="resetDef">
                       <use xlink:href="#rim2" fill="#404040">
                               <set attributeName="fill" to="#808080" begin="reset.mouseover" end="reset.mouseout"/>
                       </use>
               </g>
        </defs>

<script type="text/javascript">
var viewWidth = 836;
var viewHeight = 685;
var sectionId = 'dynsection-28';
</script>
<script xlink:href="svgpan.js"/>
<svg id="graph" class="graph">
<g id="viewport">
<title>fr_dict_attr_cmp</title>
<!-- Node17520 -->
<g id="node1" class="node">
<title>Node17520</title>
<polygon fill="#bfbfbf" stroke="#000000" points="0,-246.5 0,-265.5 87,-265.5 87,-246.5 0,-246.5"/>
<text text-anchor="middle" x="43.5" y="-253.5" font-family="Helvetica,sans-Serif" font-size="10.00" fill="#000000">fr_dict_attr_cmp</text>
</g>
<!-- Node17521 -->
<g id="node2" class="node">
<title>Node17521</title>
<g id="a_node2"><a xlink:href="dict_8h.html#aad985185a59107f2fa3fb8dc43c2f75f" target="_top" xlink:title="fr_dict_print">
<polygon fill="none" stroke="#000000" points="153,-442.5 153,-461.5 221,-461.5 221,-442.5 153,-442.5"/>
<text text-anchor="middle" x="187" y="-449.5" font-family="Helvetica,sans-Serif" font-size="10.00" fill="#000000">fr_dict_print</text>
</a>
</g>
</g>
<!-- Node17520&#45;&gt;Node17521 -->
<g id="edge1" class="edge">
<title>Node17520&#45;&gt;Node17521</title>
<path fill="none" stroke="#191970" d="M46.5852,-265.5917C55.2165,-291.2764 81.7148,-362.7931 123,-409 133.0922,-420.2953 146.7668,-430.0065 158.885,-437.3271"/>
<polygon fill="#191970" stroke="#191970" points="157.352,-440.4832 167.7634,-442.4458 160.8483,-434.4189 157.352,-440.4832"/>
</g>
<!-- Node17663 -->
<g id="node12" class="node">
<title>Node17663</title>
<g id="a_node12"><a xlink:href="dict_8h.html#a4ed0e2dd07a0ef75f1fa32225ac4a762" target="_top" xlink:title="Find a common ancestor that two TLV type attributes share. ">
<polygon fill="none" stroke="#000000" points="134,-77 134,-107 240,-107 240,-77 134,-77"/>
<text text-anchor="start" x="142" y="-95" font-family="Helvetica,sans-Serif" font-size="10.00" fill="#000000">fr_dict_attr_common</text>
<text text-anchor="middle" x="187" y="-84" font-family="Helvetica,sans-Serif" font-size="10.00" fill="#000000">_parent</text>
</a>
</g>
</g>
<!-- Node17520&#45;&gt;Node17663 -->
<g id="edge12" class="edge">
<title>Node17520&#45;&gt;Node17663</title>
<path fill="none" stroke="#191970" d="M46.4511,-246.4451C54.5838,-221.6184 79.6383,-154.4089 123,-117 124.9362,-115.3296 126.997,-113.7636 129.1478,-112.2963"/>
<polygon fill="#191970" stroke="#191970" points="131.03,-115.2489 137.8175,-107.1137 127.4383,-109.2406 131.03,-115.2489"/>
</g>
<!-- Node17664 -->
<g id="node13" class="node">
<title>Node17664</title>
<g id="a_node13"><a xlink:href="dict_8h.html#a0373af1e9f64b5115de0e313cf6d9e90" target="_top" xlink:title="Process a single OID component. ">
<polygon fill="none" stroke="#000000" points="591,-328.5 591,-347.5 706,-347.5 706,-328.5 591,-328.5"/>
<text text-anchor="middle" x="648.5" y="-335.5" font-family="Helvetica,sans-Serif" font-size="10.00" fill="#000000">fr_dict_oid_component</text>
</a>
</g>
</g>
<!-- Node17520&#45;&gt;Node17664 -->
<g id="edge13" class="edge">
<title>Node17520&#45;&gt;Node17664</title>
<path fill="none" stroke="#191970" d="M52.0495,-265.9704C65.4321,-280.7496 92.9268,-307.9156 123,-319 278.642,-376.3667 478.0741,-361.8713 580.7282,-348.6248"/>
<polygon fill="#191970" stroke="#191970" points="581.203,-352.0925 590.6561,-347.3083 580.2827,-345.1533 581.203,-352.0925"/>
</g>
<!-- Node17665 -->
<g id="node14" class="node">
<title>Node17665</title>
<g id="a_node14"><a xlink:href="dict_8h.html#a43f24e42334fb60cda4b312c55ca2b51" target="_top" xlink:title="fr_dict_snprint_flags">
<polygon fill="none" stroke="#000000" points="291,-651.5 291,-670.5 395,-670.5 395,-651.5 291,-651.5"/>
<text text-anchor="middle" x="343" y="-658.5" font-family="Helvetica,sans-Serif" font-size="10.00" fill="#000000">fr_dict_snprint_flags</text>
</a>
</g>
</g>
<!-- Node17520&#45;&gt;Node17665 -->
<g id="edge15" class="edge">
<title>Node17520&#45;&gt;Node17665</title>
<path fill="none" stroke="#191970" d="M44.5337,-265.8368C48.6387,-300.9418 66.421,-422.1634 123,-501 173.7502,-571.7149 265.4536,-623.5383 312.8391,-647.0197"/>
<polygon fill="#191970" stroke="#191970" points="311.4507,-650.2365 321.9739,-651.4662 314.5144,-643.9425 311.4507,-650.2365"/>
</g>
<!-- Node17666 -->
<g id="node15" class="node">
<title>Node17666</title>
<g id="a_node15"><a xlink:href="dict_8h.html#a3b9db4fb2b3be1ca936586cad1aff8db" target="_top" xlink:title="Build the da_stack for the specified DA and encode the path in OID form. ">
<polygon fill="none" stroke="#000000" points="290.5,-480.5 290.5,-499.5 395.5,-499.5 395.5,-480.5 290.5,-480.5"/>
<text text-anchor="middle" x="343" y="-487.5" font-family="Helvetica,sans-Serif" font-size="10.00" fill="#000000">fr_dict_print_attr_oid</text>
</a>
</g>
</g>
<!-- Node17520&#45;&gt;Node17666 -->
<g id="edge17" class="edge">
<title>Node17520&#45;&gt;Node17666</title>
<path fill="none" stroke="#191970" d="M45.6494,-265.722C54.343,-304.1168 88.1082,-444.3987 123,-471 168.8246,-505.9363 236.6801,-506.3974 284.8985,-500.8232"/>
<polygon fill="#191970" stroke="#191970" points="285.3972,-504.2881 294.8748,-499.5524 284.5126,-497.3442 285.3972,-504.2881"/>
</g>
<!-- Node17669 -->
<g id="node18" class="node">
<title>Node17669</title>
<g id="a_node18"><a xlink:href="dict_8h.html#a405f5c6aef6d6d13f227cd5cfcef5e1a" target="_top" xlink:title="Get the leaf attribute of an OID string. ">
<polygon fill="none" stroke="#000000" points="294.5,-385.5 294.5,-404.5 391.5,-404.5 391.5,-385.5 294.5,-385.5"/>
<text text-anchor="middle" x="343" y="-392.5" font-family="Helvetica,sans-Serif" font-size="10.00" fill="#000000">fr_dict_attr_by_oid</text>
</a>
</g>
</g>
<!-- Node17520&#45;&gt;Node17669 -->
<g id="edge22" class="edge">
<title>Node17520&#45;&gt;Node17669</title>
<path fill="none" stroke="#191970" d="M48.5451,-265.7783C59.3061,-285.5717 86.5362,-330.3363 123,-352 172.1463,-381.1985 237.3252,-391.0465 283.9572,-394.1371"/>
<polygon fill="#191970" stroke="#191970" points="284.0195,-397.6464 294.2044,-394.7278 284.4224,-390.658 284.0195,-397.6464"/>
</g>
<!-- Node17673 -->
<g id="node22" class="node">
<title>Node17673</title>
<g id="a_node22"><a xlink:href="dict_8h.html#a7c79c676c03022a0e7404ae0232bd902" target="_top" xlink:title="Return the root attribute of a dictionary. ">
<polygon fill="none" stroke="#000000" points="154.5,-38.5 154.5,-57.5 219.5,-57.5 219.5,-38.5 154.5,-38.5"/>
<text text-anchor="middle" x="187" y="-45.5" font-family="Helvetica,sans-Serif" font-size="10.00" fill="#000000">fr_dict_root</text>
</a>
</g>
</g>
<!-- Node17520&#45;&gt;Node17673 -->
<g id="edge30" class="edge">
<title>Node17520&#45;&gt;Node17673</title>
<path fill="none" stroke="#191970" d="M44.6958,-246.0769C48.9937,-214.8378 66.5302,-117.5977 123,-67 129.1369,-61.5012 136.8012,-57.5912 144.6711,-54.8117"/>
<polygon fill="#191970" stroke="#191970" points="145.6975,-58.158 154.2838,-51.9511 143.7009,-51.4488 145.6975,-58.158"/>
</g>
<!-- Node17674 -->
<g id="node23" class="node">
<title>Node17674</title>
<g id="a_node23"><a xlink:href="dict_8h.html#aaa2207d88c02f0229de4dbe3ac122587" target="_top" xlink:title="fr_dict_is_read_only">
<polygon fill="none" stroke="#000000" points="135,-.5 135,-19.5 239,-19.5 239,-.5 135,-.5"/>
<text text-anchor="middle" x="187" y="-7.5" font-family="Helvetica,sans-Serif" font-size="10.00" fill="#000000">fr_dict_is_read_only</text>
</a>
</g>
</g>
<!-- Node17520&#45;&gt;Node17674 -->
<g id="edge31" class="edge">
<title>Node17520&#45;&gt;Node17674</title>
<path fill="none" stroke="#191970" d="M43.9056,-246.1522C45.8899,-211.1494 57.3996,-91.5071 123,-29 124.6363,-27.4409 126.3946,-26.0091 128.2469,-24.6942"/>
<polygon fill="#191970" stroke="#191970" points="130.0161,-27.7141 136.883,-19.6459 126.4835,-21.6709 130.0161,-27.7141"/>
</g>
<!-- Node17675 -->
<g id="node24" class="node">
<title>Node17675</title>
<g id="a_node24"><a xlink:href="dict_8h.html#ade64832083b50bb091b231256769a382" target="_top" xlink:title="Look up a protocol name embedded in another string. ">
<polygon fill="none" stroke="#000000" points="137.5,-241 137.5,-271 236.5,-271 236.5,-241 137.5,-241"/>
<text text-anchor="start" x="145.5" y="-259" font-family="Helvetica,sans-Serif" font-size="10.00" fill="#000000">fr_dict_by_protocol</text>
<text text-anchor="middle" x="187" y="-248" font-family="Helvetica,sans-Serif" font-size="10.00" fill="#000000">_substr</text>
</a>
</g>
</g>
<!-- Node17520&#45;&gt;Node17675 -->
<g id="edge32" class="edge">
<title>Node17520&#45;&gt;Node17675</title>
<path fill="none" stroke="#191970" d="M87.3345,-256C99.9452,-256 113.919,-256 127.3152,-256"/>
<polygon fill="#191970" stroke="#191970" points="127.4145,-259.5001 137.4145,-256 127.4145,-252.5001 127.4145,-259.5001"/>
</g>
<!-- Node17678 -->
<g id="node28" class="node">
<title>Node17678</title>
<g id="a_node28"><a xlink:href="dict_8h.html#a65ec47a80dc261ba4f8b3c18432602d7" target="_top" xlink:title="Lookup a protocol by its name. ">
<polygon fill="none" stroke="#000000" points="123,-164.5 123,-183.5 251,-183.5 251,-164.5 123,-164.5"/>
<text text-anchor="middle" x="187" y="-171.5" font-family="Helvetica,sans-Serif" font-size="10.00" fill="#000000">fr_dict_by_protocol_name</text>
</a>
</g>
</g>
<!-- Node17520&#45;&gt;Node17678 -->
<g id="edge37" class="edge">
<title>Node17520&#45;&gt;Node17678</title>
<path fill="none" stroke="#191970" d="M53.3975,-246.0446C67.6161,-232.2678 95.1865,-207.4572 123,-193 127.2743,-190.7782 131.8477,-188.7771 136.5104,-186.9835"/>
<polygon fill="#191970" stroke="#191970" points="137.8718,-190.2147 146.1393,-183.5891 135.5445,-183.6129 137.8718,-190.2147"/>
</g>
<!-- Node17680 -->
<g id="node30" class="node">
<title>Node17680</title>
<g id="a_node30"><a xlink:href="dict_8h.html#a659a02f30a9ad96928a17a1b1fcf70a2" target="_top" xlink:title="Lookup a protocol by its number. ">
<polygon fill="none" stroke="#000000" points="125.5,-202.5 125.5,-221.5 248.5,-221.5 248.5,-202.5 125.5,-202.5"/>
<text text-anchor="middle" x="187" y="-209.5" font-family="Helvetica,sans-Serif" font-size="10.00" fill="#000000">fr_dict_by_protocol_num</text>
</a>
</g>
</g>
<!-- Node17520&#45;&gt;Node17680 -->
<g id="edge40" class="edge">
<title>Node17520&#45;&gt;Node17680</title>
<path fill="none" stroke="#191970" d="M73.6653,-246.3886C88.5065,-241.6918 106.6729,-235.9904 123,-231 130.0108,-228.8572 137.464,-226.6134 144.7132,-224.4493"/>
<polygon fill="#191970" stroke="#191970" points="145.824,-227.7705 154.4111,-221.5647 143.8283,-221.061 145.824,-227.7705"/>
</g>
<!-- Node17682 -->
<g id="node32" class="node">
<title>Node17682</title>
<g id="a_node32"><a xlink:href="dict_8h.html#a97001d5c24711a12ca7c83db9b8b1d84" target="_top" xlink:title="Attempt to locate the protocol dictionary containing an attribute. ">
<polygon fill="none" stroke="#000000" points="149.5,-290.5 149.5,-309.5 224.5,-309.5 224.5,-290.5 149.5,-290.5"/>
<text text-anchor="middle" x="187" y="-297.5" font-family="Helvetica,sans-Serif" font-size="10.00" fill="#000000">fr_dict_by_da</text>
</a>
</g>
</g>
<!-- Node17520&#45;&gt;Node17682 -->
<g id="edge43" class="edge">
<title>Node17520&#45;&gt;Node17682</title>
<path fill="none" stroke="#191970" d="M74.6374,-265.5473C95.6044,-271.9763 123.4705,-280.5206 146.2061,-287.4918"/>
<polygon fill="#191970" stroke="#191970" points="145.3367,-290.886 155.9234,-290.4713 147.3888,-284.1935 145.3367,-290.886"/>
</g>
<!-- Node17685 -->
<g id="node35" class="node">
<title>Node17685</title>
<g id="a_node35"><a xlink:href="dict_8h.html#a7096d9ec79916901fb9e30fb9c3c4880" target="_top" xlink:title="Attempt to locate the protocol dictionary containing an attribute. ">
<polygon fill="none" stroke="#000000" points="133,-126.5 133,-145.5 241,-145.5 241,-126.5 133,-126.5"/>
<text text-anchor="middle" x="187" y="-133.5" font-family="Helvetica,sans-Serif" font-size="10.00" fill="#000000">fr_dict_by_attr_name</text>
</a>
</g>
</g>
<!-- Node17520&#45;&gt;Node17685 -->
<g id="edge47" class="edge">
<title>Node17520&#45;&gt;Node17685</title>
<path fill="none" stroke="#191970" d="M48.4255,-246.3124C59.1554,-226.189 86.6253,-179.6866 123,-155 125.9176,-153.0199 129.0455,-151.2421 132.2926,-149.6465"/>
<polygon fill="#191970" stroke="#191970" points="133.8749,-152.7762 141.6835,-145.6154 131.1137,-146.3438 133.8749,-152.7762"/>
</g>
<!-- Node17522 -->
<g id="node3" class="node">
<title>Node17522</title>
<g id="a_node3"><a xlink:href="dict_8h.html#acb57a42c06048eb44ba1fae87ead1757" target="_top" xlink:title="fr_dict_walk">
<polygon fill="none" stroke="#000000" points="308.5,-442.5 308.5,-461.5 377.5,-461.5 377.5,-442.5 308.5,-442.5"/>
<text text-anchor="middle" x="343" y="-449.5" font-family="Helvetica,sans-Serif" font-size="10.00" fill="#000000">fr_dict_walk</text>
</a>
</g>
</g>
<!-- Node17521&#45;&gt;Node17522 -->
<g id="edge2" class="edge">
<title>Node17521&#45;&gt;Node17522</title>
<path fill="none" stroke="#191970" d="M221.2349,-452C243.8367,-452 273.6873,-452 298.1758,-452"/>
<polygon fill="#191970" stroke="#191970" points="298.3059,-455.5001 308.3059,-452 298.3059,-448.5001 298.3059,-455.5001"/>
</g>
<!-- Node17659 -->
<g id="node8" class="node">
<title>Node17659</title>
<g id="a_node8"><a xlink:href="dict__print_8c.html#a49446fdba98a40fb636e34bbd5a02c15" target="_top" xlink:title="dict_print">
<polygon fill="none" stroke="#000000" points="315,-594.5 315,-613.5 371,-613.5 371,-594.5 315,-594.5"/>
<text text-anchor="middle" x="343" y="-601.5" font-family="Helvetica,sans-Serif" font-size="10.00" fill="#000000">dict_print</text>
</a>
</g>
</g>
<!-- Node17521&#45;&gt;Node17659 -->
<g id="edge7" class="edge">
<title>Node17521&#45;&gt;Node17659</title>
<path fill="none" stroke="#191970" d="M196.7585,-461.5083C222.5853,-486.6728 292.9825,-555.265 325.7698,-587.2116"/>
<polygon fill="#191970" stroke="#191970" points="323.6403,-590.0234 333.2452,-594.4953 328.5254,-585.0098 323.6403,-590.0234"/>
</g>
<!-- Node17523 -->
<g id="node4" class="node">
<title>Node17523</title>
<g id="a_node4"><a xlink:href="dict__util_8c.html#a3f46ee0fa75edb41be0b062d43957192" target="_top" xlink:title="dict_walk">
<polygon fill="none" stroke="#000000" points="466,-442.5 466,-461.5 524,-461.5 524,-442.5 466,-442.5"/>
<text text-anchor="middle" x="495" y="-449.5" font-family="Helvetica,sans-Serif" font-size="10.00" fill="#000000">dict_walk</text>
</a>
</g>
</g>
<!-- Node17522&#45;&gt;Node17523 -->
<g id="edge3" class="edge">
<title>Node17522&#45;&gt;Node17523</title>
<path fill="none" stroke="#191970" d="M377.8719,-452C401.0821,-452 431.6158,-452 455.6885,-452"/>
<polygon fill="#191970" stroke="#191970" points="455.9064,-455.5001 465.9064,-452 455.9064,-448.5001 455.9064,-455.5001"/>
</g>
<!-- Node17524 -->
<g id="node5" class="node">
<title>Node17524</title>
<g id="a_node5"><a xlink:href="dict__ext__priv_8h.html#ab9957ca8234bd279f920d24b700893d3" target="_top" xlink:title="dict_attr_children">
<polygon fill="none" stroke="#000000" points="603,-480.5 603,-499.5 694,-499.5 694,-480.5 603,-480.5"/>
<text text-anchor="middle" x="648.5" y="-487.5" font-family="Helvetica,sans-Serif" font-size="10.00" fill="#000000">dict_attr_children</text>
</a>
</g>
</g>
<!-- Node17523&#45;&gt;Node17524 -->
<g id="edge4" class="edge">
<title>Node17523&#45;&gt;Node17524</title>
<path fill="none" stroke="#191970" d="M524.2335,-459.237C545.6401,-464.5363 575.1773,-471.8484 600.0836,-478.0142"/>
<polygon fill="#191970" stroke="#191970" points="599.533,-481.4835 610.0811,-480.4891 601.2152,-474.6886 599.533,-481.4835"/>
</g>
<!-- Node17525 -->
<g id="node6" class="node">
<title>Node17525</title>
<g id="a_node6"><a xlink:href="dict__ext_8h.html#a34a6d539e648b685d19cf23c2d0e7d3f" target="_top" xlink:title="fr_dict_attr_ext">
<polygon fill="none" stroke="#000000" points="744,-537.5 744,-556.5 826,-556.5 826,-537.5 744,-537.5"/>
<text text-anchor="middle" x="785" y="-544.5" font-family="Helvetica,sans-Serif" font-size="10.00" fill="#000000">fr_dict_attr_ext</text>
</a>
</g>
</g>
<!-- Node17524&#45;&gt;Node17525 -->
<g id="edge5" class="edge">
<title>Node17524&#45;&gt;Node17525</title>
<path fill="none" stroke="#191970" d="M679.801,-499.5297C688.3759,-502.3599 697.616,-505.6149 706,-509 723.4808,-516.058 742.5405,-525.1823 757.5585,-532.721"/>
<polygon fill="#191970" stroke="#191970" points="756.2859,-536.0001 766.7867,-537.4083 759.456,-529.7591 756.2859,-536.0001"/>
</g>
<!-- Node17526 -->
<g id="node7" class="node">
<title>Node17526</title>
<g id="a_node7"><a xlink:href="strerror_8c.html#ae701765650b8aea79a3037bc4921d7f8" target="_top" xlink:title="Log to thread local error buffer. ">
<polygon fill="none" stroke="#ff0000" points="742,-366.5 742,-385.5 828,-385.5 828,-366.5 742,-366.5"/>
<text text-anchor="middle" x="785" y="-373.5" font-family="Helvetica,sans-Serif" font-size="10.00" fill="#000000">fr_strerror_printf</text>
</a>
</g>
</g>
<!-- Node17524&#45;&gt;Node17526 -->
<g id="edge6" class="edge">
<title>Node17524&#45;&gt;Node17526</title>
<path fill="none" stroke="#191970" d="M678.5142,-480.4578C687.7952,-476.7437 697.7414,-471.9321 706,-466 733.9884,-445.896 758.8512,-414.0966 772.903,-394.1741"/>
<polygon fill="#191970" stroke="#191970" points="775.9512,-395.9185 778.7352,-385.696 770.184,-391.9512 775.9512,-395.9185"/>
</g>
<!-- Node17660 -->
<g id="node9" class="node">
<title>Node17660</title>
<g id="a_node9"><a xlink:href="dict__print_8c.html#a43f24e42334fb60cda4b312c55ca2b51" target="_top" xlink:title="fr_dict_snprint_flags">
<polygon fill="none" stroke="#000000" points="443,-632.5 443,-651.5 547,-651.5 547,-632.5 443,-632.5"/>
<text text-anchor="middle" x="495" y="-639.5" font-family="Helvetica,sans-Serif" font-size="10.00" fill="#000000">fr_dict_snprint_flags</text>
</a>
</g>
</g>
<!-- Node17659&#45;&gt;Node17660 -->
<g id="edge8" class="edge">
<title>Node17659&#45;&gt;Node17660</title>
<path fill="none" stroke="#191970" d="M371.2338,-611.0585C392.4374,-616.3594 421.9829,-623.7457 446.889,-629.9723"/>
<polygon fill="#191970" stroke="#191970" points="446.335,-633.4414 456.8854,-632.4713 448.0328,-626.6504 446.335,-633.4414"/>
</g>
<!-- Node17662 -->
<g id="node11" class="node">
<title>Node17662</title>
<g id="a_node11"><a xlink:href="dict__ext_8h.html#affb00364829956930ef20d851f569aab" target="_top" xlink:title="Return the vendor number for an attribute. ">
<polygon fill="none" stroke="#000000" points="597.5,-595 597.5,-625 699.5,-625 699.5,-595 597.5,-595"/>
<text text-anchor="start" x="605.5" y="-613" font-family="Helvetica,sans-Serif" font-size="10.00" fill="#000000">fr_dict_vendor_num</text>
<text text-anchor="middle" x="648.5" y="-602" font-family="Helvetica,sans-Serif" font-size="10.00" fill="#000000">_by_da</text>
</a>
</g>
</g>
<!-- Node17659&#45;&gt;Node17662 -->
<g id="edge10" class="edge">
<title>Node17659&#45;&gt;Node17662</title>
<path fill="none" stroke="#191970" d="M371.1931,-604.5537C420.057,-605.5134 521.5392,-607.5065 587.2484,-608.797"/>
<polygon fill="#191970" stroke="#191970" points="587.4069,-612.3007 597.4737,-608.9978 587.5444,-605.3021 587.4069,-612.3007"/>
</g>
<!-- Node17661 -->
<g id="node10" class="node">
<title>Node17661</title>
<g id="a_node10"><a xlink:href="sbuff_8c.html#ac67eefe4e3548ef86012524572ce3c07" target="_top" xlink:title="Trim trailing characters from a string we&#39;re composing. ">
<polygon fill="none" stroke="#000000" points="606.5,-657.5 606.5,-676.5 690.5,-676.5 690.5,-657.5 606.5,-657.5"/>
<text text-anchor="middle" x="648.5" y="-664.5" font-family="Helvetica,sans-Serif" font-size="10.00" fill="#000000">fr_sbuff_in_trim</text>
</a>
</g>
</g>
<!-- Node17660&#45;&gt;Node17661 -->
<g id="edge9" class="edge">
<title>Node17660&#45;&gt;Node17661</title>
<path fill="none" stroke="#191970" d="M547.3967,-650.5337C563.2131,-653.1096 580.5688,-655.9363 596.3679,-658.5094"/>
<polygon fill="#191970" stroke="#191970" points="596.061,-662.0055 606.4936,-660.1586 597.1863,-655.0965 596.061,-662.0055"/>
</g>
<!-- Node17662&#45;&gt;Node17525 -->
<g id="edge11" class="edge">
<title>Node17662&#45;&gt;Node17525</title>
<path fill="none" stroke="#191970" d="M683.8688,-594.8753C691.2073,-591.6663 698.8735,-588.2618 706,-585 722.8012,-577.3102 741.4343,-568.3676 756.3831,-561.09"/>
<polygon fill="#191970" stroke="#191970" points="758.1698,-564.1125 765.6183,-556.5779 755.0968,-557.823 758.1698,-564.1125"/>
</g>
<!-- Node17664&#45;&gt;Node17526 -->
<g id="edge14" class="edge">
<title>Node17664&#45;&gt;Node17526</title>
<path fill="none" stroke="#191970" d="M682.9447,-347.589C700.4847,-352.4719 722.01,-358.4643 740.7631,-363.685"/>
<polygon fill="#191970" stroke="#191970" points="739.994,-367.1039 750.5663,-366.4141 741.8713,-360.3603 739.994,-367.1039"/>
</g>
<!-- Node17665&#45;&gt;Node17661 -->
<g id="edge16" class="edge">
<title>Node17665&#45;&gt;Node17661</title>
<path fill="none" stroke="#191970" d="M395.1702,-662.0246C451.3219,-663.1274 540.1167,-664.8714 596.2855,-665.9745"/>
<polygon fill="#191970" stroke="#191970" points="596.3117,-669.4756 606.3786,-666.1727 596.4492,-662.477 596.3117,-669.4756"/>
</g>
<!-- Node17666&#45;&gt;Node17526 -->
<g id="edge21" class="edge">
<title>Node17666&#45;&gt;Node17526</title>
<path fill="none" stroke="#191970" d="M395.5135,-489.4881C438.8312,-488.0706 501.6177,-483.7134 555,-471 625.2503,-454.2694 639.4192,-438.9645 706,-411 722.224,-404.1858 740.167,-396.2676 754.8472,-389.6879"/>
<polygon fill="#191970" stroke="#191970" points="756.2887,-392.8773 763.9721,-385.5824 753.4165,-386.4937 756.2887,-392.8773"/>
</g>
<!-- Node17667 -->
<g id="node16" class="node">
<title>Node17667</title>
<g id="a_node16"><a xlink:href="proto_8c.html#a1097e0481003e69568734523603d298a" target="_top" xlink:title="Build a complete DA stack from the da back to the root. ">
<polygon fill="none" stroke="#000000" points="435,-556.5 435,-575.5 555,-575.5 555,-556.5 435,-556.5"/>
<text text-anchor="middle" x="495" y="-563.5" font-family="Helvetica,sans-Serif" font-size="10.00" fill="#000000">fr_proto_da_stack_build</text>
</a>
</g>
</g>
<!-- Node17666&#45;&gt;Node17667 -->
<g id="edge18" class="edge">
<title>Node17666&#45;&gt;Node17667</title>
<path fill="none" stroke="#191970" d="M356.1265,-499.5969C373.4666,-511.9235 405.292,-533.3509 435,-547 439.7797,-549.196 444.8836,-551.238 450.0206,-553.1062"/>
<polygon fill="#191970" stroke="#191970" points="449.2691,-556.5485 459.8638,-556.4796 451.5386,-549.9266 449.2691,-556.5485"/>
</g>
<!-- Node17668 -->
<g id="node17" class="node">
<title>Node17668</title>
<g id="a_node17"><a xlink:href="dict__ext_8h.html#a44e5494b59c30e9797abde6532fa9788" target="_top" xlink:title="Return the cached da stack (if any) associated with an attribute. ">
<polygon fill="none" stroke="#000000" points="594.5,-556.5 594.5,-575.5 702.5,-575.5 702.5,-556.5 594.5,-556.5"/>
<text text-anchor="middle" x="648.5" y="-563.5" font-family="Helvetica,sans-Serif" font-size="10.00" fill="#000000">fr_dict_attr_da_stack</text>
</a>
</g>
</g>
<!-- Node17667&#45;&gt;Node17668 -->
<g id="edge19" class="edge">
<title>Node17667&#45;&gt;Node17668</title>
<path fill="none" stroke="#191970" d="M555.2267,-566C564.7257,-566 574.5791,-566 584.167,-566"/>
<polygon fill="#191970" stroke="#191970" points="584.4373,-569.5001 594.4373,-566 584.4373,-562.5001 584.4373,-569.5001"/>
</g>
<!-- Node17668&#45;&gt;Node17525 -->
<g id="edge20" class="edge">
<title>Node17668&#45;&gt;Node17525</title>
<path fill="none" stroke="#191970" d="M702.8406,-558.4361C713.1005,-557.008 723.7982,-555.5189 733.9525,-554.1055"/>
<polygon fill="#191970" stroke="#191970" points="734.4674,-557.5677 743.8893,-552.7224 733.5023,-550.6345 734.4674,-557.5677"/>
</g>
<!-- Node17669&#45;&gt;Node17526 -->
<g id="edge25" class="edge">
<title>Node17669&#45;&gt;Node17526</title>
<path fill="none" stroke="#191970" d="M391.5661,-392.9123C475.0712,-389.3227 645.2113,-382.009 731.8041,-378.2867"/>
<polygon fill="#191970" stroke="#191970" points="732.0982,-381.7774 741.9386,-377.8511 731.7975,-374.7838 732.0982,-381.7774"/>
</g>
<!-- Node17670 -->
<g id="node19" class="node">
<title>Node17670</title>
<g id="a_node19"><a xlink:href="dict__util_8c.html#a0373af1e9f64b5115de0e313cf6d9e90" target="_top" xlink:title="Process a single OID component. ">
<polygon fill="none" stroke="#000000" points="437.5,-404.5 437.5,-423.5 552.5,-423.5 552.5,-404.5 437.5,-404.5"/>
<text text-anchor="middle" x="495" y="-411.5" font-family="Helvetica,sans-Serif" font-size="10.00" fill="#000000">fr_dict_oid_component</text>
</a>
</g>
</g>
<!-- Node17669&#45;&gt;Node17670 -->
<g id="edge23" class="edge">
<title>Node17669&#45;&gt;Node17670</title>
<path fill="none" stroke="#191970" d="M391.5117,-401.064C402.915,-402.4894 415.2725,-404.0341 427.3457,-405.5432"/>
<polygon fill="#191970" stroke="#191970" points="427.0362,-409.0317 437.3931,-406.7991 427.9045,-402.0857 427.0362,-409.0317"/>
</g>
<!-- Node17671 -->
<g id="node20" class="node">
<title>Node17671</title>
<g id="a_node20"><a xlink:href="dict__util_8c.html#aa8fe667f7efcb013501821d4f1725da4" target="_top" xlink:title="Internal version of fr_dict_attr_child_by_num. ">
<polygon fill="none" stroke="#000000" points="436.5,-518.5 436.5,-537.5 553.5,-537.5 553.5,-518.5 436.5,-518.5"/>
<text text-anchor="middle" x="495" y="-525.5" font-family="Helvetica,sans-Serif" font-size="10.00" fill="#000000">dict_attr_child_by_num</text>
</a>
</g>
</g>
<!-- Node17669&#45;&gt;Node17671 -->
<g id="edge26" class="edge">
<title>Node17669&#45;&gt;Node17671</title>
<path fill="none" stroke="#191970" d="M359.3528,-404.7754C370.892,-411.983 386.4649,-422.3492 399,-433 416.7289,-448.0639 418.5609,-454.5382 435,-471 448.8582,-484.8774 464.9963,-500.1613 477.043,-511.4063"/>
<polygon fill="#191970" stroke="#191970" points="474.944,-514.2338 484.6511,-518.4792 479.7101,-509.107 474.944,-514.2338"/>
</g>
<!-- Node17670&#45;&gt;Node17526 -->
<g id="edge24" class="edge">
<title>Node17670&#45;&gt;Node17526</title>
<path fill="none" stroke="#191970" d="M552.8886,-408.3943C595.3552,-404.0442 654.374,-397.5031 706,-390 714.3222,-388.7905 723.113,-387.3728 731.6885,-385.9124"/>
<polygon fill="#191970" stroke="#191970" points="732.3619,-389.3479 741.6155,-384.1883 731.164,-382.4511 732.3619,-389.3479"/>
</g>
<!-- Node17671&#45;&gt;Node17524 -->
<g id="edge29" class="edge">
<title>Node17671&#45;&gt;Node17524</title>
<path fill="none" stroke="#191970" d="M533.7345,-518.411C553.8993,-513.4191 578.7479,-507.2676 600.1611,-501.9666"/>
<polygon fill="#191970" stroke="#191970" points="601.1781,-505.3206 610.044,-499.5201 599.4959,-498.5257 601.1781,-505.3206"/>
</g>
<!-- Node17672 -->
<g id="node21" class="node">
<title>Node17672</title>
<g id="a_node21"><a xlink:href="dict__ext_8h.html#a7a15b65c006118453de17e8309debf4e" target="_top" xlink:title="Return the reference associated with a group type attribute. ">
<polygon fill="none" stroke="#000000" points="608.5,-518.5 608.5,-537.5 688.5,-537.5 688.5,-518.5 608.5,-518.5"/>
<text text-anchor="middle" x="648.5" y="-525.5" font-family="Helvetica,sans-Serif" font-size="10.00" fill="#000000">fr_dict_attr_ref</text>
</a>
</g>
</g>
<!-- Node17671&#45;&gt;Node17672 -->
<g id="edge27" class="edge">
<title>Node17671&#45;&gt;Node17672</title>
<path fill="none" stroke="#191970" d="M553.9081,-528C568.4673,-528 583.9333,-528 598.0491,-528"/>
<polygon fill="#191970" stroke="#191970" points="598.0568,-531.5001 608.0568,-528 598.0567,-524.5001 598.0568,-531.5001"/>
</g>
<!-- Node17672&#45;&gt;Node17525 -->
<g id="edge28" class="edge">
<title>Node17672&#45;&gt;Node17525</title>
<path fill="none" stroke="#191970" d="M688.7162,-533.5979C702.7733,-535.5545 718.7507,-537.7785 733.5943,-539.8446"/>
<polygon fill="#191970" stroke="#191970" points="733.2648,-543.3324 743.6519,-541.2446 734.2299,-536.3993 733.2648,-543.3324"/>
</g>
<!-- Node17676 -->
<g id="node25" class="node">
<title>Node17676</title>
<g id="a_node25"><a xlink:href="dict__util_8c.html#a21f160869a72054b34a2ac7bc41aea8d" target="_top" xlink:title="dict_by_protocol_substr">
<polygon fill="none" stroke="#000000" points="435,-214.5 435,-233.5 555,-233.5 555,-214.5 435,-214.5"/>
<text text-anchor="middle" x="495" y="-221.5" font-family="Helvetica,sans-Serif" font-size="10.00" fill="#000000">dict_by_protocol_substr</text>
</a>
</g>
</g>
<!-- Node17675&#45;&gt;Node17676 -->
<g id="edge33" class="edge">
<title>Node17675&#45;&gt;Node17676</title>
<path fill="none" stroke="#191970" d="M236.8278,-250.8231C287.8221,-245.525 367.5047,-237.2463 424.8596,-231.2873"/>
<polygon fill="#191970" stroke="#191970" points="425.3533,-234.7549 434.9381,-230.2402 424.6299,-227.7924 425.3533,-234.7549"/>
</g>
<!-- Node17676&#45;&gt;Node17526 -->
<g id="edge35" class="edge">
<title>Node17676&#45;&gt;Node17526</title>
<path fill="none" stroke="#191970" d="M555.0095,-220.8798C599.9054,-221.3508 661.0481,-228.1911 706,-257 743.4159,-280.9792 767.1611,-329.7026 778.0397,-356.7749"/>
<polygon fill="#191970" stroke="#191970" points="774.8449,-358.2192 781.6936,-366.3029 781.3808,-355.7127 774.8449,-358.2192"/>
</g>
<!-- Node17677 -->
<g id="node26" class="node">
<title>Node17677</title>
<g id="a_node26"><a xlink:href="sbuff_8c.html#afa687d02bada24e380251c7a10a49f12" target="_top" xlink:title="Copy as many allowed characters as possible from a sbuff to a sbuff. ">
<polygon fill="none" stroke="#000000" points="593,-174 593,-204 704,-204 704,-174 593,-174"/>
<text text-anchor="start" x="601" y="-192" font-family="Helvetica,sans-Serif" font-size="10.00" fill="#000000">fr_sbuff_out_bstrncpy</text>
<text text-anchor="middle" x="648.5" y="-181" font-family="Helvetica,sans-Serif" font-size="10.00" fill="#000000">_allowed</text>
</a>
</g>
</g>
<!-- Node17676&#45;&gt;Node17677 -->
<g id="edge34" class="edge">
<title>Node17676&#45;&gt;Node17677</title>
<path fill="none" stroke="#191970" d="M536.9445,-214.4361C551.0709,-211.2151 567.1931,-207.539 582.7057,-204.002"/>
<polygon fill="#191970" stroke="#191970" points="583.8129,-207.3394 592.7845,-201.7039 582.2566,-200.5146 583.8129,-207.3394"/>
</g>
<!-- Node17572 -->
<g id="node27" class="node">
<title>Node17572</title>
<g id="a_node27"><a xlink:href="hash_8c.html#a5142bb7ae36b65a809eb834314974942" target="_top" xlink:title="Find data from a template. ">
<polygon fill="none" stroke="#ff0000" points="600.5,-125 600.5,-155 696.5,-155 696.5,-125 600.5,-125"/>
<text text-anchor="start" x="608.5" y="-143" font-family="Helvetica,sans-Serif" font-size="10.00" fill="#000000">fr_hash_table_find</text>
<text text-anchor="middle" x="648.5" y="-132" font-family="Helvetica,sans-Serif" font-size="10.00" fill="#000000">_by_data</text>
</a>
</g>
</g>
<!-- Node17676&#45;&gt;Node17572 -->
<g id="edge36" class="edge">
<title>Node17676&#45;&gt;Node17572</title>
<path fill="none" stroke="#191970" d="M525.7866,-214.424C535.5455,-210.6849 546.1021,-205.8672 555,-200 573.8903,-187.5438 572.203,-176.5966 591,-164 593.1623,-162.551 595.4261,-161.1623 597.7532,-159.8354"/>
<polygon fill="#191970" stroke="#191970" points="599.7177,-162.7582 606.9623,-155.0273 596.4779,-156.553 599.7177,-162.7582"/>
</g>
<!-- Node17679 -->
<g id="node29" class="node">
<title>Node17679</title>
<g id="a_node29"><a xlink:href="dict__util_8c.html#a84c9cd59818c5cd505e2467fe60a9ae6" target="_top" xlink:title="Internal version of fr_dict_by_protocol_name. ">
<polygon fill="none" stroke="#000000" points="436.5,-138.5 436.5,-157.5 553.5,-157.5 553.5,-138.5 436.5,-138.5"/>
<text text-anchor="middle" x="495" y="-145.5" font-family="Helvetica,sans-Serif" font-size="10.00" fill="#000000">dict_by_protocol_name</text>
</a>
</g>
</g>
<!-- Node17678&#45;&gt;Node17679 -->
<g id="edge38" class="edge">
<title>Node17678&#45;&gt;Node17679</title>
<path fill="none" stroke="#191970" d="M251.192,-168.5812C302.3467,-164.2629 373.8233,-158.2292 426.1596,-153.8112"/>
<polygon fill="#191970" stroke="#191970" points="426.6898,-157.279 436.36,-152.9501 426.101,-150.3038 426.6898,-157.279"/>
</g>
<!-- Node17679&#45;&gt;Node17572 -->
<g id="edge39" class="edge">
<title>Node17679&#45;&gt;Node17572</title>
<path fill="none" stroke="#191970" d="M553.9081,-144.9299C565.8094,-144.3096 578.3165,-143.6578 590.1969,-143.0386"/>
<polygon fill="#191970" stroke="#191970" points="590.6406,-146.5203 600.4448,-142.5045 590.2762,-139.5298 590.6406,-146.5203"/>
</g>
<!-- Node17681 -->
<g id="node31" class="node">
<title>Node17681</title>
<g id="a_node31"><a xlink:href="dict__util_8c.html#a65bf943d0cac81d51c229ccff7acd82a" target="_top" xlink:title="Internal version of fr_dict_by_protocol_num. ">
<polygon fill="none" stroke="#000000" points="287,-189.5 287,-208.5 399,-208.5 399,-189.5 287,-189.5"/>
<text text-anchor="middle" x="343" y="-196.5" font-family="Helvetica,sans-Serif" font-size="10.00" fill="#000000">dict_by_protocol_num</text>
</a>
</g>
</g>
<!-- Node17680&#45;&gt;Node17681 -->
<g id="edge41" class="edge">
<title>Node17680&#45;&gt;Node17681</title>
<path fill="none" stroke="#191970" d="M248.6553,-206.8621C257.9117,-206.0907 267.4897,-205.2925 276.8356,-204.5137"/>
<polygon fill="#191970" stroke="#191970" points="277.1847,-207.9968 286.8595,-203.6784 276.6034,-201.021 277.1847,-207.9968"/>
</g>
<!-- Node17681&#45;&gt;Node17572 -->
<g id="edge42" class="edge">
<title>Node17681&#45;&gt;Node17572</title>
<path fill="none" stroke="#191970" d="M399.1619,-192.5649C442.106,-187.1525 502.6391,-178.46 555,-167 566.7342,-164.4318 579.1619,-161.2077 590.9931,-157.8901"/>
<polygon fill="#191970" stroke="#191970" points="592.1119,-161.2105 600.7626,-155.0937 590.1855,-154.4808 592.1119,-161.2105"/>
</g>
<!-- Node17683 -->
<g id="node33" class="node">
<title>Node17683</title>
<g id="a_node33"><a xlink:href="dict__util_8c.html#a2b606768ac059e28803a544a755633b8" target="_top" xlink:title="Internal version of fr_dict_by_da. ">
<polygon fill="none" stroke="#000000" points="311,-290.5 311,-309.5 375,-309.5 375,-290.5 311,-290.5"/>
<text text-anchor="middle" x="343" y="-297.5" font-family="Helvetica,sans-Serif" font-size="10.00" fill="#000000">dict_by_da</text>
</a>
</g>
</g>
<!-- Node17682&#45;&gt;Node17683 -->
<g id="edge44" class="edge">
<title>Node17682&#45;&gt;Node17683</title>
<path fill="none" stroke="#191970" d="M224.7632,-300C247.6996,-300 277.0281,-300 300.7368,-300"/>
<polygon fill="#191970" stroke="#191970" points="300.8541,-303.5001 310.854,-300 300.854,-296.5001 300.8541,-303.5001"/>
</g>
<!-- Node17683&#45;&gt;Node17526 -->
<g id="edge46" class="edge">
<title>Node17683&#45;&gt;Node17526</title>
<path fill="none" stroke="#191970" d="M375.1087,-291.6945C392.6676,-287.5778 414.8812,-283.0558 435,-281 555.9928,-268.6366 595.7439,-267.6609 706,-319 728.768,-329.6016 751.7043,-347.0836 766.9525,-359.8964"/>
<polygon fill="#191970" stroke="#191970" points="764.7195,-362.5923 774.5828,-366.4609 769.2847,-357.2858 764.7195,-362.5923"/>
</g>
<!-- Node17684 -->
<g id="node34" class="node">
<title>Node17684</title>
<g id="a_node34"><a xlink:href="dict__util_8c.html#a7c79c676c03022a0e7404ae0232bd902" target="_top" xlink:title="Return the root attribute of a dictionary. ">
<polygon fill="none" stroke="#000000" points="462.5,-290.5 462.5,-309.5 527.5,-309.5 527.5,-290.5 462.5,-290.5"/>
<text text-anchor="middle" x="495" y="-297.5" font-family="Helvetica,sans-Serif" font-size="10.00" fill="#000000">fr_dict_root</text>
</a>
</g>
</g>
<!-- Node17683&#45;&gt;Node17684 -->
<g id="edge45" class="edge">
<title>Node17683&#45;&gt;Node17684</title>
<path fill="none" stroke="#191970" d="M375.2353,-300C397.6533,-300 427.7782,-300 452.206,-300"/>
<polygon fill="#191970" stroke="#191970" points="452.2872,-303.5001 462.2872,-300 452.2871,-296.5001 452.2872,-303.5001"/>
</g>
<!-- Node17686 -->
<g id="node36" class="node">
<title>Node17686</title>
<g id="a_node36"><a xlink:href="dict__util_8c.html#a829210cde694176d864a2144261c97d2" target="_top" xlink:title="Internal version of fr_dict_by_attr_name. ">
<polygon fill="none" stroke="#000000" points="294.5,-94.5 294.5,-113.5 391.5,-113.5 391.5,-94.5 294.5,-94.5"/>
<text text-anchor="middle" x="343" y="-101.5" font-family="Helvetica,sans-Serif" font-size="10.00" fill="#000000">dict_by_attr_name</text>
</a>
</g>
</g>
<!-- Node17685&#45;&gt;Node17686 -->
<g id="edge48" class="edge">
<title>Node17685&#45;&gt;Node17686</title>
<path fill="none" stroke="#191970" d="M233.3828,-126.4856C250.0502,-123.0666 269.0362,-119.1721 286.4702,-115.5958"/>
<polygon fill="#191970" stroke="#191970" points="287.4339,-118.9711 296.5266,-113.533 286.0272,-112.1139 287.4339,-118.9711"/>
</g>
<!-- Node17687 -->
<g id="node37" class="node">
<title>Node17687</title>
<g id="a_node37"><a xlink:href="hash_8c.html#a9bd00627243facb3f3290ef0e0b11a77" target="_top" xlink:title="fr_hash_table_walk">
<polygon fill="none" stroke="#000000" points="444.5,-50.5 444.5,-69.5 545.5,-69.5 545.5,-50.5 444.5,-50.5"/>
<text text-anchor="middle" x="495" y="-57.5" font-family="Helvetica,sans-Serif" font-size="10.00" fill="#000000">fr_hash_table_walk</text>
</a>
</g>
</g>
<!-- Node17686&#45;&gt;Node17687 -->
<g id="edge49" class="edge">
<title>Node17686&#45;&gt;Node17687</title>
<path fill="none" stroke="#191970" d="M375.9817,-94.4527C398.3899,-87.9661 428.2375,-79.326 452.4363,-72.3211"/>
<polygon fill="#191970" stroke="#191970" points="453.4502,-75.6713 462.0826,-69.5287 451.5038,-68.9474 453.4502,-75.6713"/>
</g>
<!-- Node17688 -->
<g id="node39" class="node">
<title>Node17688</title>
<g id="a_node39"><a xlink:href="dict__util_8c.html#abecc48245375fdd8d91c52b7326d3a47" target="_top" xlink:title="Search for an attribute name in all dictionaries. ">
<polygon fill="none" stroke="#000000" points="449.5,-89 449.5,-119 540.5,-119 540.5,-89 449.5,-89"/>
<text text-anchor="start" x="457.5" y="-107" font-family="Helvetica,sans-Serif" font-size="10.00" fill="#000000">_dict_attr_find_in</text>
<text text-anchor="middle" x="495" y="-96" font-family="Helvetica,sans-Serif" font-size="10.00" fill="#000000">_dicts</text>
</a>
</g>
</g>
<!-- Node17686&#45;&gt;Node17688 -->
<g id="edge51" class="edge">
<title>Node17686&#45;&gt;Node17688</title>
<path fill="none" stroke="#191970" d="M391.5117,-104C406.6923,-104 423.5641,-104 439.2048,-104"/>
<polygon fill="#191970" stroke="#191970" points="439.2751,-107.5001 449.275,-104 439.275,-100.5001 439.2751,-107.5001"/>
</g>
<!-- Node17575 -->
<g id="node38" class="node">
<title>Node17575</title>
<g id="a_node38"><a xlink:href="hash_8c.html#acbf976b954e809a253d9cac2d6db1fd6" target="_top" xlink:title="fr_hash_table_fixup">
<polygon fill="none" stroke="#ff0000" points="598,-50.5 598,-69.5 699,-69.5 699,-50.5 598,-50.5"/>
<text text-anchor="middle" x="648.5" y="-57.5" font-family="Helvetica,sans-Serif" font-size="10.00" fill="#000000">fr_hash_table_fixup</text>
</a>
</g>
</g>
<!-- Node17687&#45;&gt;Node17575 -->
<g id="edge50" class="edge">
<title>Node17687&#45;&gt;Node17575</title>
<path fill="none" stroke="#191970" d="M545.6871,-60C559.179,-60 573.8903,-60 587.8564,-60"/>
<polygon fill="#191970" stroke="#191970" points="587.8662,-63.5001 597.8662,-60 587.8661,-56.5001 587.8662,-63.5001"/>
</g>
<!-- Node17688&#45;&gt;Node17572 -->
<g id="edge52" class="edge">
<title>Node17688&#45;&gt;Node17572</title>
<path fill="none" stroke="#191970" d="M540.6395,-114.7037C556.2279,-118.3596 573.8773,-122.4989 590.3175,-126.3546"/>
<polygon fill="#191970" stroke="#191970" points="589.8334,-129.836 600.3684,-128.7118 591.4318,-123.0209 589.8334,-129.836"/>
</g>
</g>
</svg>
        <g id="navigator" transform="translate(0 0)" fill="#404254">
                <rect fill="#f2f5e9" fill-opacity="0.5" stroke="#606060" stroke-width=".5" x="0" y="0" width="60" height="60"/>
                <use id="zoomplus" xlink:href="#zoomPlus" x="17" y="9" onmousedown="handleZoom(evt,'in')"/>
                <use id="zoomminus" xlink:href="#zoomMin" x="42" y="9" onmousedown="handleZoom(evt,'out')"/>
                <use id="reset" xlink:href="#resetDef" x="30" y="36" onmousedown="handleReset()"/>
                <g id="arrowUp" xlink:href="#dirArrow" transform="translate(30 24)" onmousedown="handlePan(0,-1)">
                  <use xlink:href="#rim" fill="#404040">
                        <set attributeName="fill" to="#808080" begin="arrowUp.mouseover" end="arrowUp.mouseout"/>
                  </use>
                  <path fill="none" stroke="white" stroke-width="1.5" d="M0,-3.0v7 M-2.5,-0.5L0,-3.0L2.5,-0.5"/>
                </g>
                <g id="arrowRight" xlink:href="#dirArrow" transform="rotate(90) translate(36 -43)" onmousedown="handlePan(1,0)">
                  <use xlink:href="#rim" fill="#404040">
                        <set attributeName="fill" to="#808080" begin="arrowRight.mouseover" end="arrowRight.mouseout"/>
                  </use>
                  <path fill="none" stroke="white" stroke-width="1.5" d="M0,-3.0v7 M-2.5,-0.5L0,-3.0L2.5,-0.5"/>
                </g>
                <g id="arrowDown" xlink:href="#dirArrow" transform="rotate(180) translate(-30 -48)" onmousedown="handlePan(0,1)">
                  <use xlink:href="#rim" fill="#404040">
                        <set attributeName="fill" to="#808080" begin="arrowDown.mouseover" end="arrowDown.mouseout"/>
                  </use>
                  <path fill="none" stroke="white" stroke-width="1.5" d="M0,-3.0v7 M-2.5,-0.5L0,-3.0L2.5,-0.5"/>
                </g>
                <g id="arrowLeft" xlink:href="#dirArrow" transform="rotate(270) translate(-36 17)" onmousedown="handlePan(-1,0)">
                  <use xlink:href="#rim" fill="#404040">
                        <set attributeName="fill" to="#808080" begin="arrowLeft.mouseover" end="arrowLeft.mouseout"/>
                  </use>
                  <path fill="none" stroke="white" stroke-width="1.5" d="M0,-3.0v7 M-2.5,-0.5L0,-3.0L2.5,-0.5"/>
                </g>
        </g>
        <svg viewBox="0 0 15 15" width="100%" height="30px" preserveAspectRatio="xMaxYMin meet">
         <g id="arrow_out" transform="scale(0.3 0.3)">
          <a xlink:href="dict_8h_aff975c8193212aed6ced317d47d6ce6c_cgraph_org.svg" target="_base">
           <rect id="button" ry="5" rx="5" y="6" x="6" height="38" width="38"
                fill="#f2f5e9" fill-opacity="0.5" stroke="#606060" stroke-width="1.0"/>
           <path id="arrow"
             d="M 11.500037,31.436501 C 11.940474,20.09759 22.043105,11.32322 32.158766,21.979434 L 37.068811,17.246167 C 37.068811,17.246167 37.088388,32 37.088388,32 L 22.160133,31.978069 C 22.160133,31.978069 26.997745,27.140456 26.997745,27.140456 C 18.528582,18.264221 13.291696,25.230495 11.500037,31.436501 z"
             style="fill:#404040;"/>
          </a>
         </g>
        </svg>
</svg>
