<?xml version="1.0" encoding="UTF-8" standalone="no"?>
<!DOCTYPE svg PUBLIC "-//W3C//DTD SVG 1.1//EN"
 "http://www.w3.org/Graphics/SVG/1.1/DTD/svg11.dtd">
<!-- Generated by graphviz version 2.40.1 (20161225.0304)
 -->
<!-- Title: dict_attr_flags_valid Pages: 1 -->
<svg width="673pt" height="66pt"
 viewBox="0.00 0.00 673.00 66.00" xmlns="http://www.w3.org/2000/svg" xmlns:xlink="http://www.w3.org/1999/xlink">
<g id="graph0" class="graph" transform="scale(1 1) rotate(0) translate(4 62)">
<title>dict_attr_flags_valid</title>
<!-- Node17348 -->
<g id="node1" class="node">
<title>Node17348</title>
<polygon fill="#bfbfbf" stroke="#000000" points="0,-19.5 0,-38.5 104,-38.5 104,-19.5 0,-19.5"/>
<text text-anchor="middle" x="52" y="-26.5" font-family="Helvetica,sans-Serif" font-size="10.00" fill="#000000">dict_attr_flags_valid</text>
</g>
<!-- Node17349 -->
<g id="node2" class="node">
<title>Node17349</title>
<g id="a_node2"><a xlink:href="dict__tokenize_8c.html#aa016097881a6d116a334301ec72953e8" target="_top" xlink:title="dict_process_flag_field">
<polygon fill="none" stroke="#000000" points="140,-19.5 140,-38.5 256,-38.5 256,-19.5 140,-19.5"/>
<text text-anchor="middle" x="198" y="-26.5" font-family="Helvetica,sans-Serif" font-size="10.00" fill="#000000">dict_process_flag_field</text>
</a>
</g>
</g>
<!-- Node17348&#45;&gt;Node17349 -->
<g id="edge1" class="edge">
<title>Node17348&#45;&gt;Node17349</title>
<path fill="none" stroke="#191970" d="M114.4591,-29C122.8937,-29 131.5201,-29 139.875,-29"/>
<polygon fill="#191970" stroke="#191970" points="114.297,-25.5001 104.297,-29 114.2969,-32.5001 114.297,-25.5001"/>
</g>
<!-- Node17350 -->
<g id="node3" class="node">
<title>Node17350</title>
<g id="a_node3"><a xlink:href="dict__tokenize_8c.html#ad19cc3a38e3554018aefb1146dc924c7" target="_top" xlink:title="dict_read_process_attribute">
<polygon fill="none" stroke="#000000" points="292,-38.5 292,-57.5 429,-57.5 429,-38.5 292,-38.5"/>
<text text-anchor="middle" x="360.5" y="-45.5" font-family="Helvetica,sans-Serif" font-size="10.00" fill="#000000">dict_read_process_attribute</text>
</a>
</g>
</g>
<!-- Node17348&#45;&gt;Node17350 -->
<g id="edge8" class="edge">
<title>Node17348&#45;&gt;Node17350</title>
<path fill="none" stroke="#191970" d="M97.7147,-40.7979C111.234,-43.7621 126.1292,-46.5196 140,-48 190.6266,-53.4031 248.1647,-53.1921 291.7681,-51.7419"/>
<polygon fill="#191970" stroke="#191970" points="98.2125,-37.3216 87.6844,-38.5086 96.6549,-44.1461 98.2125,-37.3216"/>
</g>
<!-- Node18547 -->
<g id="node7" class="node">
<title>Node18547</title>
<g id="a_node7"><a xlink:href="dict__tokenize_8c.html#a4564892c9c74afd19dfb9b7c1b243095" target="_top" xlink:title="dict_read_process_member">
<polygon fill="none" stroke="#000000" points="292,-.5 292,-19.5 429,-19.5 429,-.5 292,-.5"/>
<text text-anchor="middle" x="360.5" y="-7.5" font-family="Helvetica,sans-Serif" font-size="10.00" fill="#000000">dict_read_process_member</text>
</a>
</g>
</g>
<!-- Node17348&#45;&gt;Node18547 -->
<g id="edge9" class="edge">
<title>Node17348&#45;&gt;Node18547</title>
<path fill="none" stroke="#191970" d="M97.7147,-17.2021C111.234,-14.2379 126.1292,-11.4804 140,-10 190.6266,-4.5969 248.1647,-4.8079 291.7681,-6.2581"/>
<polygon fill="#191970" stroke="#191970" points="96.6549,-13.8539 87.6844,-19.4914 98.2125,-20.6784 96.6549,-13.8539"/>
</g>
<!-- Node17349&#45;&gt;Node17350 -->
<g id="edge2" class="edge">
<title>Node17349&#45;&gt;Node17350</title>
<path fill="none" stroke="#191970" d="M266.3819,-36.9954C274.8213,-37.9822 283.4508,-38.9912 291.8936,-39.9783"/>
<polygon fill="#191970" stroke="#191970" points="266.5461,-33.4909 256.2072,-35.8058 265.7331,-40.4435 266.5461,-33.4909"/>
</g>
<!-- Node17349&#45;&gt;Node18547 -->
<g id="edge6" class="edge">
<title>Node17349&#45;&gt;Node18547</title>
<path fill="none" stroke="#191970" d="M266.3819,-21.0046C274.8213,-20.0178 283.4508,-19.0088 291.8936,-18.0217"/>
<polygon fill="#191970" stroke="#191970" points="265.7331,-17.5565 256.2072,-22.1942 266.5461,-24.5091 265.7331,-17.5565"/>
</g>
<!-- Node17351 -->
<g id="node4" class="node">
<title>Node17351</title>
<g id="a_node4"><a xlink:href="dict__tokenize_8c.html#a74698cc3d378776c6361c68feb9a1d44" target="_top" xlink:title="Parse a dictionary file. ">
<polygon fill="none" stroke="#000000" points="469.5,-.5 469.5,-19.5 549.5,-19.5 549.5,-.5 469.5,-.5"/>
<text text-anchor="middle" x="509.5" y="-7.5" font-family="Helvetica,sans-Serif" font-size="10.00" fill="#000000">_dict_from_file</text>
</a>
</g>
</g>
<!-- Node17350&#45;&gt;Node17351 -->
<g id="edge3" class="edge">
<title>Node17350&#45;&gt;Node17351</title>
<path fill="none" stroke="#191970" d="M407.9922,-35.8879C428.7436,-30.5956 452.7282,-24.4787 472.1714,-19.5201"/>
<polygon fill="#191970" stroke="#191970" points="406.9239,-32.5482 398.099,-38.411 408.6538,-39.3311 406.9239,-32.5482"/>
</g>
<!-- Node18263 -->
<g id="node6" class="node">
<title>Node18263</title>
<g id="a_node6"><a xlink:href="dict__tokenize_8c.html#ac4371f8c9e724effcbb97360bc44649c" target="_top" xlink:title="fr_dict_parse_str">
<polygon fill="none" stroke="#ff0000" points="465,-38.5 465,-57.5 554,-57.5 554,-38.5 465,-38.5"/>
<text text-anchor="middle" x="509.5" y="-45.5" font-family="Helvetica,sans-Serif" font-size="10.00" fill="#000000">fr_dict_parse_str</text>
</a>
</g>
</g>
<!-- Node17350&#45;&gt;Node18263 -->
<g id="edge5" class="edge">
<title>Node17350&#45;&gt;Node18263</title>
<path fill="none" stroke="#191970" d="M439.5143,-48C448.1818,-48 456.7675,-48 464.7998,-48"/>
<polygon fill="#191970" stroke="#191970" points="439.3301,-44.5001 429.3301,-48 439.33,-51.5001 439.3301,-44.5001"/>
</g>
<!-- Node17352 -->
<g id="node5" class="node">
<title>Node17352</title>
<g id="a_node5"><a xlink:href="dict__tokenize_8c.html#a68539ee3162ef52bd4fa5b3b87dd3ece" target="_top" xlink:title="dict_from_file">
<polygon fill="none" stroke="#ff0000" points="590,-.5 590,-19.5 665,-19.5 665,-.5 590,-.5"/>
<text text-anchor="middle" x="627.5" y="-7.5" font-family="Helvetica,sans-Serif" font-size="10.00" fill="#000000">dict_from_file</text>
</a>
</g>
</g>
<!-- Node17351&#45;&gt;Node17352 -->
<g id="edge4" class="edge">
<title>Node17351&#45;&gt;Node17352</title>
<path fill="none" stroke="#191970" d="M560.0152,-10C570.0003,-10 580.3166,-10 589.7876,-10"/>
<polygon fill="#191970" stroke="#191970" points="559.7789,-6.5001 549.7789,-10 559.7788,-13.5001 559.7789,-6.5001"/>
</g>
<!-- Node18547&#45;&gt;Node17351 -->
<g id="edge7" class="edge">
<title>Node18547&#45;&gt;Node17351</title>
<path fill="none" stroke="#191970" d="M439.6431,-10C449.9458,-10 460.1296,-10 469.4023,-10"/>
<polygon fill="#191970" stroke="#191970" points="439.3301,-6.5001 429.3301,-10 439.33,-13.5001 439.3301,-6.5001"/>
</g>
</g>
</svg>
