<?xml version="1.0" encoding="UTF-8" standalone="no"?>
<!DOCTYPE svg PUBLIC "-//W3C//DTD SVG 1.1//EN"
 "http://www.w3.org/Graphics/SVG/1.1/DTD/svg11.dtd">
<!-- Generated by graphviz version 2.40.1 (20161225.0304)
 -->
<!-- Title: fr_dict_attr_autoload Pages: 1 -->
<svg width="1114pt" height="722pt"
 viewBox="0.00 0.00 1114.00 721.94" xmlns="http://www.w3.org/2000/svg" xmlns:xlink="http://www.w3.org/1999/xlink">
<g id="graph0" class="graph" transform="scale(1 1) rotate(0) translate(4 717.9359)">
<title>fr_dict_attr_autoload</title>
<!-- Node76696 -->
<g id="node1" class="node">
<title>Node76696</title>
<polygon fill="#bfbfbf" stroke="#000000" points="0,-347.4359 0,-366.4359 105,-366.4359 105,-347.4359 0,-347.4359"/>
<text text-anchor="middle" x="52.5" y="-354.4359" font-family="Helvetica,sans-Serif" font-size="10.00" fill="#000000">fr_dict_attr_autoload</text>
</g>
<!-- Node76697 -->
<g id="node2" class="node">
<title>Node76697</title>
<g id="a_node2"><a xlink:href="strerror_8c.html#ae701765650b8aea79a3037bc4921d7f8" target="_top" xlink:title="Log to thread local error buffer. ">
<polygon fill="none" stroke="#000000" points="431,-390.4359 431,-409.4359 517,-409.4359 517,-390.4359 431,-390.4359"/>
<text text-anchor="middle" x="474" y="-397.4359" font-family="Helvetica,sans-Serif" font-size="10.00" fill="#000000">fr_strerror_printf</text>
</a>
</g>
</g>
<!-- Node76696&#45;&gt;Node76697 -->
<g id="edge1" class="edge">
<title>Node76696&#45;&gt;Node76697</title>
<path fill="none" stroke="#191970" d="M91.0611,-366.4378C106.502,-369.9213 124.5094,-373.5832 141,-375.9359 239.1777,-389.9429 354.8687,-395.9473 420.8084,-398.3894"/>
<polygon fill="#191970" stroke="#191970" points="420.8354,-401.8925 430.9539,-398.7515 421.0851,-394.897 420.8354,-401.8925"/>
</g>
<!-- Node76831 -->
<g id="node20" class="node">
<title>Node76831</title>
<g id="a_node20"><a xlink:href="strerror_8c.html#a2f2232a184a763c76b3d87d5bea7a868" target="_top" xlink:title="Add a message to an existing stack of messages. ">
<polygon fill="none" stroke="#000000" points="418,-124.4359 418,-143.4359 530,-143.4359 530,-124.4359 418,-124.4359"/>
<text text-anchor="middle" x="474" y="-131.4359" font-family="Helvetica,sans-Serif" font-size="10.00" fill="#000000">fr_strerror_printf_push</text>
</a>
</g>
</g>
<!-- Node76696&#45;&gt;Node76831 -->
<g id="edge30" class="edge">
<title>Node76696&#45;&gt;Node76831</title>
<path fill="none" stroke="#191970" d="M70.6113,-347.3539C137.084,-312.1856 367.8631,-190.089 447.0695,-148.1839"/>
<polygon fill="#191970" stroke="#191970" points="448.7538,-151.2525 455.9561,-143.4823 445.4802,-145.0651 448.7538,-151.2525"/>
</g>
<!-- Node76833 -->
<g id="node22" class="node">
<title>Node76833</title>
<g id="a_node22"><a xlink:href="dict__util_8c.html#aca721219acba5402a2b03d4234025b59" target="_top" xlink:title="Locate a fr_dict_attr_t by its name. ">
<polygon fill="none" stroke="#000000" points="141,-347.4359 141,-366.4359 249,-366.4359 249,-347.4359 141,-347.4359"/>
<text text-anchor="middle" x="195" y="-354.4359" font-family="Helvetica,sans-Serif" font-size="10.00" fill="#000000">fr_dict_attr_by_name</text>
</a>
</g>
</g>
<!-- Node76696&#45;&gt;Node76833 -->
<g id="edge40" class="edge">
<title>Node76696&#45;&gt;Node76833</title>
<path fill="none" stroke="#191970" d="M105.1569,-356.9359C113.3862,-356.9359 121.9713,-356.9359 130.4298,-356.9359"/>
<polygon fill="#191970" stroke="#191970" points="130.6521,-360.436 140.652,-356.9359 130.652,-353.436 130.6521,-360.436"/>
</g>
<!-- Node76698 -->
<g id="node3" class="node">
<title>Node76698</title>
<g id="a_node3"><a xlink:href="acutest_8h.html#aecf9a9be8105efb1454cd8c1ef6cb1c5" target="_top" xlink:title="va_start">
<polygon fill="none" stroke="#000000" points="1029.5,-86.4359 1029.5,-105.4359 1081.5,-105.4359 1081.5,-86.4359 1029.5,-86.4359"/>
<text text-anchor="middle" x="1055.5" y="-93.4359" font-family="Helvetica,sans-Serif" font-size="10.00" fill="#000000">va_start</text>
</a>
</g>
</g>
<!-- Node76697&#45;&gt;Node76698 -->
<g id="edge2" class="edge">
<title>Node76697&#45;&gt;Node76698</title>
<path fill="none" stroke="#191970" d="M517.0598,-390.7892C521.939,-388.2637 526.4306,-385.0429 530,-380.9359 586.3792,-316.0649 510.9609,-256.9477 566,-190.9359 679.966,-54.2496 926.5566,-75.829 1019.2743,-89.6324"/>
<polygon fill="#191970" stroke="#191970" points="1018.8742,-93.1121 1029.2922,-91.1842 1019.9458,-86.1946 1018.8742,-93.1121"/>
</g>
<!-- Node76699 -->
<g id="node4" class="node">
<title>Node76699</title>
<g id="a_node4"><a xlink:href="strerror_8c.html#a193b1e0b3712e3bbee338812c06af482" target="_top" xlink:title="fr_strerror_vprintf">
<polygon fill="none" stroke="#000000" points="579,-352.4359 579,-371.4359 670,-371.4359 670,-352.4359 579,-352.4359"/>
<text text-anchor="middle" x="624.5" y="-359.4359" font-family="Helvetica,sans-Serif" font-size="10.00" fill="#000000">fr_strerror_vprintf</text>
</a>
</g>
</g>
<!-- Node76697&#45;&gt;Node76699 -->
<g id="edge3" class="edge">
<title>Node76697&#45;&gt;Node76699</title>
<path fill="none" stroke="#191970" d="M511.9775,-390.3469C531.6587,-385.3776 555.8907,-379.2592 576.8206,-373.9746"/>
<polygon fill="#191970" stroke="#191970" points="577.9567,-377.2976 586.7956,-371.456 576.243,-370.5106 577.9567,-377.2976"/>
</g>
<!-- Node76702 -->
<g id="node7" class="node">
<title>Node76702</title>
<g id="a_node7"><a xlink:href="acutest_8h.html#a36af1f79dd6adf0809c21e76535034d5" target="_top" xlink:title="va_end">
<polygon fill="none" stroke="#000000" points="1031.5,-238.4359 1031.5,-257.4359 1079.5,-257.4359 1079.5,-238.4359 1031.5,-238.4359"/>
<text text-anchor="middle" x="1055.5" y="-245.4359" font-family="Helvetica,sans-Serif" font-size="10.00" fill="#000000">va_end</text>
</a>
</g>
</g>
<!-- Node76697&#45;&gt;Node76702 -->
<g id="edge29" class="edge">
<title>Node76697&#45;&gt;Node76702</title>
<path fill="none" stroke="#191970" d="M517.0245,-402.6756C606.7684,-406.4883 818.1072,-405.412 969,-324.9359 997.6613,-309.6499 1024.5983,-282.9896 1040.5719,-265.3999"/>
<polygon fill="#191970" stroke="#191970" points="1043.4841,-267.3906 1047.4923,-257.5833 1038.2429,-262.7505 1043.4841,-267.3906"/>
</g>
<!-- Node76700 -->
<g id="node5" class="node">
<title>Node76700</title>
<g id="a_node5"><a xlink:href="strerror_8c.html#a42c2cc9f76fb9dac723a1903c181e1c7" target="_top" xlink:title="Initialise thread local storage. ">
<polygon fill="none" stroke="#000000" points="728,-314.4359 728,-333.4359 805,-333.4359 805,-314.4359 728,-314.4359"/>
<text text-anchor="middle" x="766.5" y="-321.4359" font-family="Helvetica,sans-Serif" font-size="10.00" fill="#000000">fr_strerror_init</text>
</a>
</g>
</g>
<!-- Node76699&#45;&gt;Node76700 -->
<g id="edge4" class="edge">
<title>Node76699&#45;&gt;Node76700</title>
<path fill="none" stroke="#191970" d="M660.3326,-352.3469C678.6634,-347.4415 701.1784,-341.4163 720.7501,-336.1788"/>
<polygon fill="#191970" stroke="#191970" points="721.9236,-339.4881 730.6789,-333.5219 720.114,-332.726 721.9236,-339.4881"/>
</g>
<!-- Node76701 -->
<g id="node6" class="node">
<title>Node76701</title>
<g id="a_node6"><a xlink:href="strerror_8c.html#a2c8e65d6d4b73fb705cc023f60acb099" target="_top" xlink:title="Print the current error to stderr with a prefix. ">
<polygon fill="none" stroke="#ff0000" points="883,-200.4359 883,-219.4359 936,-219.4359 936,-200.4359 883,-200.4359"/>
<text text-anchor="middle" x="909.5" y="-207.4359" font-family="Helvetica,sans-Serif" font-size="10.00" fill="#000000">fr_perror</text>
</a>
</g>
</g>
<!-- Node76699&#45;&gt;Node76701 -->
<g id="edge11" class="edge">
<title>Node76699&#45;&gt;Node76701</title>
<path fill="none" stroke="#191970" d="M638.8162,-352.2934C656.9784,-340.2992 689.4948,-319.6141 719,-304.9359 759.7148,-284.6812 776.3775,-292.48 814,-266.9359 833.2473,-253.8678 830.2984,-241.3086 850,-228.9359 857.0509,-224.508 865.2246,-221.027 873.2135,-218.3232"/>
<polygon fill="#191970" stroke="#191970" points="874.2385,-221.6698 882.7784,-215.3993 872.1921,-214.9756 874.2385,-221.6698"/>
</g>
<!-- Node76699&#45;&gt;Node76702 -->
<g id="edge27" class="edge">
<title>Node76699&#45;&gt;Node76702</title>
<path fill="none" stroke="#191970" d="M670.2684,-360.8592C709.0199,-359.1165 765.7941,-354.5977 814,-342.9359 893.9994,-323.5828 982.8029,-283.4733 1027.1066,-262.0866"/>
<polygon fill="#191970" stroke="#191970" points="1028.9151,-265.0988 1036.372,-257.5725 1025.8492,-258.8059 1028.9151,-265.0988"/>
</g>
<!-- Node76708 -->
<g id="node9" class="node">
<title>Node76708</title>
<g id="a_node9"><a xlink:href="strerror_8c.html#a9d878c1ddb1b385cdaf6523fff68529c" target="_top" xlink:title="Reset cursor state. ">
<polygon fill="none" stroke="#000000" points="1013,-428.4359 1013,-447.4359 1098,-447.4359 1098,-428.4359 1013,-428.4359"/>
<text text-anchor="middle" x="1055.5" y="-435.4359" font-family="Helvetica,sans-Serif" font-size="10.00" fill="#000000">fr_strerror_clear</text>
</a>
</g>
</g>
<!-- Node76699&#45;&gt;Node76708 -->
<g id="edge10" class="edge">
<title>Node76699&#45;&gt;Node76708</title>
<path fill="none" stroke="#191970" d="M640.7356,-371.4777C676.8382,-392.0754 767.136,-440.1937 850,-456.9359 904.3445,-467.9159 968.0745,-458.68 1009.9879,-449.6558"/>
<polygon fill="#191970" stroke="#191970" points="1010.8986,-453.0386 1019.893,-447.4393 1009.37,-446.2075 1010.8986,-453.0386"/>
</g>
<!-- Node76709 -->
<g id="node10" class="node">
<title>Node76709</title>
<g id="a_node10"><a xlink:href="print_8c.html#a27ae94b5a4c77de49aa2f387765a4d58" target="_top" xlink:title="Special version of vasprintf which implements custom format specifiers. ">
<polygon fill="none" stroke="#000000" points="734,-504.4359 734,-523.4359 799,-523.4359 799,-504.4359 734,-504.4359"/>
<text text-anchor="middle" x="766.5" y="-511.4359" font-family="Helvetica,sans-Serif" font-size="10.00" fill="#000000">fr_vasprintf</text>
</a>
</g>
</g>
<!-- Node76699&#45;&gt;Node76709 -->
<g id="edge12" class="edge">
<title>Node76699&#45;&gt;Node76709</title>
<path fill="none" stroke="#191970" d="M633.3827,-371.4442C656.7921,-396.5021 720.4289,-464.6204 750.4349,-496.7394"/>
<polygon fill="#191970" stroke="#191970" points="748.2364,-499.5132 757.6206,-504.4312 753.3516,-494.7345 748.2364,-499.5132"/>
</g>
<!-- Node76830 -->
<g id="node19" class="node">
<title>Node76830</title>
<g id="a_node19"><a xlink:href="cursor_8c.html#a5d942382660657c3b4cb6e9cb2b12b2c" target="_top" xlink:title="Insert a single item at the start of the list. ">
<polygon fill="none" stroke="#000000" points="719,-238.4359 719,-257.4359 814,-257.4359 814,-238.4359 719,-238.4359"/>
<text text-anchor="middle" x="766.5" y="-245.4359" font-family="Helvetica,sans-Serif" font-size="10.00" fill="#000000">fr_cursor_prepend</text>
</a>
</g>
</g>
<!-- Node76699&#45;&gt;Node76830 -->
<g id="edge28" class="edge">
<title>Node76699&#45;&gt;Node76830</title>
<path fill="none" stroke="#191970" d="M632.8445,-352.3007C648.4404,-334.7033 683.6412,-296.8828 719,-271.9359 723.9331,-268.4554 729.4426,-265.1881 734.9129,-262.2518"/>
<polygon fill="#191970" stroke="#191970" points="736.6465,-265.2968 743.9731,-257.6437 733.473,-259.0575 736.6465,-265.2968"/>
</g>
<!-- Node76700&#45;&gt;Node76701 -->
<g id="edge5" class="edge">
<title>Node76700&#45;&gt;Node76701</title>
<path fill="none" stroke="#191970" d="M792.5999,-314.4019C800.1589,-310.7311 807.9852,-305.9422 814,-299.9359 839.0352,-274.9361 823.0612,-251.8718 850,-228.9359 856.6465,-223.277 864.9964,-219.2983 873.3212,-216.5026"/>
<polygon fill="#191970" stroke="#191970" points="874.3302,-219.8545 882.9787,-213.7345 872.4013,-213.1254 874.3302,-219.8545"/>
</g>
<!-- Node76707 -->
<g id="node8" class="node">
<title>Node76707</title>
<g id="a_node8"><a xlink:href="strerror_8c.html#afe66becac3be1b0b82b90889d27fcf99" target="_top" xlink:title="_fr_logging_free">
<polygon fill="none" stroke="#000000" points="866.5,-238.4359 866.5,-257.4359 952.5,-257.4359 952.5,-238.4359 866.5,-238.4359"/>
<text text-anchor="middle" x="909.5" y="-245.4359" font-family="Helvetica,sans-Serif" font-size="10.00" fill="#000000">_fr_logging_free</text>
</a>
</g>
</g>
<!-- Node76700&#45;&gt;Node76707 -->
<g id="edge8" class="edge">
<title>Node76700&#45;&gt;Node76707</title>
<path fill="none" stroke="#191970" d="M787.7902,-314.2688C796.1594,-310.1903 805.7254,-305.1751 814,-299.9359 831.1256,-289.0926 832.4319,-282.0466 850,-271.9359 856.7034,-268.078 864.1479,-264.5472 871.4382,-261.4499"/>
<polygon fill="#191970" stroke="#191970" points="873.2397,-264.4969 881.1999,-257.505 870.6169,-258.0068 873.2397,-264.4969"/>
</g>
<!-- Node76700&#45;&gt;Node76708 -->
<g id="edge9" class="edge">
<title>Node76700&#45;&gt;Node76708</title>
<path fill="none" stroke="#191970" d="M790.6429,-333.4594C842.0678,-353.7447 962.5271,-401.2615 1021.61,-424.5675"/>
<polygon fill="#191970" stroke="#191970" points="1020.6358,-427.9457 1031.2226,-428.3594 1023.2045,-421.434 1020.6358,-427.9457"/>
</g>
<!-- Node76701&#45;&gt;Node76698 -->
<g id="edge6" class="edge">
<title>Node76701&#45;&gt;Node76698</title>
<path fill="none" stroke="#191970" d="M921.6968,-200.4124C946.7546,-180.8467 1004.2579,-135.9469 1035.089,-111.8733"/>
<polygon fill="#191970" stroke="#191970" points="1037.3006,-114.587 1043.0285,-105.674 1032.9925,-109.0697 1037.3006,-114.587"/>
</g>
<!-- Node76701&#45;&gt;Node76702 -->
<g id="edge7" class="edge">
<title>Node76701&#45;&gt;Node76702</title>
<path fill="none" stroke="#191970" d="M936.2787,-216.9057C960.2614,-223.1478 995.551,-232.3328 1021.5156,-239.0907"/>
<polygon fill="#191970" stroke="#191970" points="1020.7551,-242.5093 1031.3143,-241.641 1022.5183,-235.735 1020.7551,-242.5093"/>
</g>
<!-- Node76709&#45;&gt;Node76697 -->
<g id="edge16" class="edge">
<title>Node76709&#45;&gt;Node76697</title>
<path fill="none" stroke="#191970" d="M733.7877,-506.1298C693.4509,-495.984 623.2105,-476.6095 566,-451.9359 541.7548,-441.4795 515.6945,-426.346 497.5221,-415.0986"/>
<polygon fill="#191970" stroke="#191970" points="499.1198,-411.9691 488.7895,-409.6165 495.398,-417.8977 499.1198,-411.9691"/>
</g>
<!-- Node76709&#45;&gt;Node76702 -->
<g id="edge14" class="edge">
<title>Node76709&#45;&gt;Node76702</title>
<path fill="none" stroke="#191970" d="M773.8813,-504.3861C790.6891,-482.841 831.7645,-431.3645 850,-418.9359 896.4692,-387.2645 926.8754,-413.1916 969,-375.9359 995.5022,-352.4969 985.1066,-334.1935 1005,-304.9359 1014.8103,-290.5077 1027.9262,-275.8077 1038.3325,-264.9503"/>
<polygon fill="#191970" stroke="#191970" points="1040.8537,-267.3782 1045.3451,-257.7824 1035.85,-262.4829 1040.8537,-267.3782"/>
</g>
<!-- Node76710 -->
<g id="node11" class="node">
<title>Node76710</title>
<g id="a_node11"><a xlink:href="value_8h.html#a878e0abfce7189a1784cdf15bc9fc3a3" target="_top" xlink:title="fr_value_box_aprint">
<polygon fill="none" stroke="#000000" points="1005,-646.4359 1005,-665.4359 1106,-665.4359 1106,-646.4359 1005,-646.4359"/>
<text text-anchor="middle" x="1055.5" y="-653.4359" font-family="Helvetica,sans-Serif" font-size="10.00" fill="#000000">fr_value_box_aprint</text>
</a>
</g>
</g>
<!-- Node76709&#45;&gt;Node76710 -->
<g id="edge13" class="edge">
<title>Node76709&#45;&gt;Node76710</title>
<path fill="none" stroke="#191970" d="M794.6602,-523.665C801.7528,-527.231 808.8148,-531.9151 814,-537.9359 847.293,-576.5939 809.3169,-616.1504 850,-646.9359 895.8012,-681.5943 965.1662,-676.2559 1010.4079,-667.4975"/>
<polygon fill="#191970" stroke="#191970" points="1011.1527,-670.9176 1020.2382,-665.4675 1009.737,-664.0623 1011.1527,-670.9176"/>
</g>
<!-- Node76711 -->
<g id="node12" class="node">
<title>Node76711</title>
<g id="a_node12"><a xlink:href="talloc_8c.html#a3536feb85c89aa239851ef0830b72e64" target="_top" xlink:title="Call talloc_strdup, setting the type on the new chunk correctly. ">
<polygon fill="none" stroke="#000000" points="1005,-589.4359 1005,-608.4359 1106,-608.4359 1106,-589.4359 1005,-589.4359"/>
<text text-anchor="middle" x="1055.5" y="-596.4359" font-family="Helvetica,sans-Serif" font-size="10.00" fill="#000000">talloc_typed_strdup</text>
</a>
</g>
</g>
<!-- Node76709&#45;&gt;Node76711 -->
<g id="edge15" class="edge">
<title>Node76709&#45;&gt;Node76711</title>
<path fill="none" stroke="#191970" d="M788.4921,-523.4921C796.7747,-527.486 806.096,-532.4715 814,-537.9359 831.8537,-550.2791 830.3501,-561.7167 850,-570.9359 895.4726,-592.2704 952.4073,-598.6681 994.8101,-600.0726"/>
<polygon fill="#191970" stroke="#191970" points="994.9045,-603.5759 1004.9878,-600.3237 995.0772,-596.578 994.9045,-603.5759"/>
</g>
<!-- Node76712 -->
<g id="node13" class="node">
<title>Node76712</title>
<g id="a_node13"><a xlink:href="value_8c.html#a3a0550d465b81917f8b0c69a3373163e" target="_top" xlink:title="Convert one type of fr_value_box_t to another. ">
<polygon fill="none" stroke="#ff0000" points="861.5,-694.4359 861.5,-713.4359 957.5,-713.4359 957.5,-694.4359 861.5,-694.4359"/>
<text text-anchor="middle" x="909.5" y="-701.4359" font-family="Helvetica,sans-Serif" font-size="10.00" fill="#000000">fr_value_box_cast</text>
</a>
</g>
</g>
<!-- Node76709&#45;&gt;Node76712 -->
<g id="edge17" class="edge">
<title>Node76709&#45;&gt;Node76712</title>
<path fill="none" stroke="#191970" d="M795.4407,-523.6782C802.3638,-527.214 809.1464,-531.8798 814,-537.9359 854.7171,-588.7408 807.1747,-630.8951 850,-679.9359 853.2626,-683.672 857.1905,-686.8345 861.4536,-689.51"/>
<polygon fill="#191970" stroke="#191970" points="860.0948,-692.7511 870.569,-694.3453 863.3751,-686.5672 860.0948,-692.7511"/>
</g>
<!-- Node76826 -->
<g id="node14" class="node">
<title>Node76826</title>
<g id="a_node14"><a xlink:href="strerror_8c.html#a83ee876ee41b1ae672dc4dcda4f02a2e" target="_top" xlink:title="Get the last library error. ">
<polygon fill="none" stroke="#ff0000" points="880,-428.4359 880,-447.4359 939,-447.4359 939,-428.4359 880,-428.4359"/>
<text text-anchor="middle" x="909.5" y="-435.4359" font-family="Helvetica,sans-Serif" font-size="10.00" fill="#000000">fr_strerror</text>
</a>
</g>
</g>
<!-- Node76709&#45;&gt;Node76826 -->
<g id="edge19" class="edge">
<title>Node76709&#45;&gt;Node76826</title>
<path fill="none" stroke="#191970" d="M784.611,-504.3105C809.3241,-491.1763 853.8072,-467.5349 882.4725,-452.3002"/>
<polygon fill="#191970" stroke="#191970" points="884.3482,-455.267 891.536,-447.4832 881.063,-449.0857 884.3482,-455.267"/>
</g>
<!-- Node76722 -->
<g id="node16" class="node">
<title>Node76722</title>
<g id="a_node16"><a xlink:href="value_8c.html#ad5da2574fed047b3ae861999d06c38ac" target="_top" xlink:title="Clear/free any existing value and metadata. ">
<polygon fill="none" stroke="#ff0000" points="860.5,-542.4359 860.5,-561.4359 958.5,-561.4359 958.5,-542.4359 860.5,-542.4359"/>
<text text-anchor="middle" x="909.5" y="-549.4359" font-family="Helvetica,sans-Serif" font-size="10.00" fill="#000000">fr_value_box_clear</text>
</a>
</g>
</g>
<!-- Node76709&#45;&gt;Node76722 -->
<g id="edge22" class="edge">
<title>Node76709&#45;&gt;Node76722</title>
<path fill="none" stroke="#191970" d="M799.3071,-522.6539C818.4557,-527.7423 842.9027,-534.2387 863.9027,-539.8192"/>
<polygon fill="#191970" stroke="#191970" points="863.0225,-543.2066 873.586,-542.3923 864.8203,-536.4414 863.0225,-543.2066"/>
</g>
<!-- Node76827 -->
<g id="node17" class="node">
<title>Node76827</title>
<g id="a_node17"><a xlink:href="value_8c.html#a1064a346792dc1e5ecf05d04b4c1af55" target="_top" xlink:title="Concatenate the string representations of a list of value boxes together. ">
<polygon fill="none" stroke="#ff0000" points="850,-618.4359 850,-637.4359 969,-637.4359 969,-618.4359 850,-618.4359"/>
<text text-anchor="middle" x="909.5" y="-625.4359" font-family="Helvetica,sans-Serif" font-size="10.00" fill="#000000">fr_value_box_list_aprint</text>
</a>
</g>
</g>
<!-- Node76709&#45;&gt;Node76827 -->
<g id="edge23" class="edge">
<title>Node76709&#45;&gt;Node76827</title>
<path fill="none" stroke="#191970" d="M792.4895,-523.5822C800.044,-527.2575 807.8955,-532.0207 814,-537.9359 837.9959,-561.1876 825.044,-581.7178 850,-603.9359 854.4768,-607.9216 859.7006,-611.2921 865.1595,-614.13"/>
<polygon fill="#191970" stroke="#191970" points="863.9306,-617.4172 874.4781,-618.4176 866.8566,-611.058 863.9306,-617.4172"/>
</g>
<!-- Node76829 -->
<g id="node18" class="node">
<title>Node76829</title>
<g id="a_node18"><a xlink:href="util_2pair_8h.html#acfe6934363fefdc67e14fc08a205952b" target="_top" xlink:title="fr_pair_aprint">
<polygon fill="none" stroke="#000000" points="873,-504.4359 873,-523.4359 946,-523.4359 946,-504.4359 873,-504.4359"/>
<text text-anchor="middle" x="909.5" y="-511.4359" font-family="Helvetica,sans-Serif" font-size="10.00" fill="#000000">fr_pair_aprint</text>
</a>
</g>
</g>
<!-- Node76709&#45;&gt;Node76829 -->
<g id="edge26" class="edge">
<title>Node76709&#45;&gt;Node76829</title>
<path fill="none" stroke="#191970" d="M799.3071,-513.9359C818.0708,-513.9359 841.922,-513.9359 862.6322,-513.9359"/>
<polygon fill="#191970" stroke="#191970" points="862.8205,-517.436 872.8205,-513.9359 862.8205,-510.436 862.8205,-517.436"/>
</g>
<!-- Node76712&#45;&gt;Node76697 -->
<g id="edge18" class="edge">
<title>Node76712&#45;&gt;Node76697</title>
<path fill="none" stroke="#191970" d="M889.0743,-694.39C877.4407,-688.7675 862.698,-681.3264 850,-673.9359 718.9608,-597.6681 685.1675,-578.6757 566,-484.9359 538.2836,-463.1336 508.7651,-434.8454 490.8491,-417.0368"/>
<polygon fill="#191970" stroke="#191970" points="493.0228,-414.26 483.4821,-409.6529 488.0674,-419.2041 493.0228,-414.26"/>
</g>
<!-- Node76826&#45;&gt;Node76708 -->
<g id="edge21" class="edge">
<title>Node76826&#45;&gt;Node76708</title>
<path fill="none" stroke="#191970" d="M939.0453,-437.9359C957.3048,-437.9359 981.2674,-437.9359 1002.7062,-437.9359"/>
<polygon fill="#191970" stroke="#191970" points="1002.9919,-441.436 1012.9918,-437.9359 1002.9918,-434.436 1002.9919,-441.436"/>
</g>
<!-- Node76704 -->
<g id="node15" class="node">
<title>Node76704</title>
<g id="a_node15"><a xlink:href="cursor_8c.html#ac0e33de2a6f1cb5e82c4d4e4255c2b95" target="_top" xlink:title="Rewind cursor to the start of the list. ">
<polygon fill="none" stroke="#ff0000" points="1015,-314.4359 1015,-333.4359 1096,-333.4359 1096,-314.4359 1015,-314.4359"/>
<text text-anchor="middle" x="1055.5" y="-321.4359" font-family="Helvetica,sans-Serif" font-size="10.00" fill="#000000">fr_cursor_head</text>
</a>
</g>
</g>
<!-- Node76826&#45;&gt;Node76704 -->
<g id="edge20" class="edge">
<title>Node76826&#45;&gt;Node76704</title>
<path fill="none" stroke="#191970" d="M939.1822,-428.7792C949.1168,-424.9977 959.9559,-420.0481 969,-413.9359 999.0309,-393.6404 1026.7428,-361.4494 1042.3478,-341.5687"/>
<polygon fill="#191970" stroke="#191970" points="1045.1303,-343.6917 1048.4484,-333.6299 1039.5799,-339.4264 1045.1303,-343.6917"/>
</g>
<!-- Node76827&#45;&gt;Node76710 -->
<g id="edge24" class="edge">
<title>Node76827&#45;&gt;Node76710</title>
<path fill="none" stroke="#191970" d="M959.3366,-637.4936C971.0823,-639.7462 983.7207,-642.17 995.8499,-644.4962"/>
<polygon fill="#191970" stroke="#191970" points="995.4078,-647.9751 1005.888,-646.4213 996.7263,-641.1004 995.4078,-647.9751"/>
</g>
<!-- Node76827&#45;&gt;Node76711 -->
<g id="edge25" class="edge">
<title>Node76827&#45;&gt;Node76711</title>
<path fill="none" stroke="#191970" d="M957.7105,-618.3599C970.4186,-615.8356 984.2641,-613.0855 997.4323,-610.4699"/>
<polygon fill="#191970" stroke="#191970" points="998.2137,-613.8832 1007.3401,-608.5019 996.8498,-607.0173 998.2137,-613.8832"/>
</g>
<!-- Node76831&#45;&gt;Node76698 -->
<g id="edge31" class="edge">
<title>Node76831&#45;&gt;Node76698</title>
<path fill="none" stroke="#191970" d="M480.1094,-124.147C493.0625,-104.4439 525.448,-60.4727 566,-43.9359 731.8512,23.6967 796.4083,3.9482 969,-43.9359 994.0731,-50.8922 1019.164,-67.2757 1035.8151,-79.8085"/>
<polygon fill="#191970" stroke="#191970" points="1034.1025,-82.9107 1044.1437,-86.2908 1038.4019,-77.3867 1034.1025,-82.9107"/>
</g>
<!-- Node76831&#45;&gt;Node76702 -->
<g id="edge39" class="edge">
<title>Node76831&#45;&gt;Node76702</title>
<path fill="none" stroke="#191970" d="M486.189,-124.282C502.9979,-111.6482 534.7716,-90.1506 566,-81.9359 674.2526,-53.4597 965.1412,-124.5535 969,-126.9359 1008.7461,-151.4748 1035.5112,-201.7491 1047.7954,-229.1374"/>
<polygon fill="#191970" stroke="#191970" points="1044.6201,-230.6132 1051.7912,-238.4122 1051.0489,-227.8434 1044.6201,-230.6132"/>
</g>
<!-- Node76832 -->
<g id="node21" class="node">
<title>Node76832</title>
<g id="a_node21"><a xlink:href="strerror_8c.html#a986fb6cf52b0bb19d3a1a0d815d8dd5e" target="_top" xlink:title="Add a message to an existing stack of messages. ">
<polygon fill="none" stroke="#000000" points="566,-200.4359 566,-219.4359 683,-219.4359 683,-200.4359 566,-200.4359"/>
<text text-anchor="middle" x="624.5" y="-207.4359" font-family="Helvetica,sans-Serif" font-size="10.00" fill="#000000">fr_strerror_vprintf_push</text>
</a>
</g>
</g>
<!-- Node76831&#45;&gt;Node76832 -->
<g id="edge32" class="edge">
<title>Node76831&#45;&gt;Node76832</title>
<path fill="none" stroke="#191970" d="M493.0609,-143.5614C519.1832,-156.7527 566.2938,-180.5427 596.4476,-195.7699"/>
<polygon fill="#191970" stroke="#191970" points="595.0897,-199.0051 605.5938,-200.3886 598.2451,-192.7566 595.0897,-199.0051"/>
</g>
<!-- Node76832&#45;&gt;Node76700 -->
<g id="edge33" class="edge">
<title>Node76832&#45;&gt;Node76700</title>
<path fill="none" stroke="#191970" d="M636.6068,-219.6555C661.0243,-239.2583 716.392,-283.7083 746.3493,-307.7586"/>
<polygon fill="#191970" stroke="#191970" points="744.4347,-310.7099 754.4238,-314.2409 748.817,-305.2513 744.4347,-310.7099"/>
</g>
<!-- Node76832&#45;&gt;Node76701 -->
<g id="edge34" class="edge">
<title>Node76832&#45;&gt;Node76701</title>
<path fill="none" stroke="#191970" d="M683.2066,-209.9359C740.0161,-209.9359 824.3822,-209.9359 872.4369,-209.9359"/>
<polygon fill="#191970" stroke="#191970" points="872.6894,-213.436 882.6894,-209.9359 872.6894,-206.436 872.6894,-213.436"/>
</g>
<!-- Node76832&#45;&gt;Node76702 -->
<g id="edge36" class="edge">
<title>Node76832&#45;&gt;Node76702</title>
<path fill="none" stroke="#191970" d="M637.0659,-200.2785C654.3835,-187.6406 687.0791,-166.1385 719,-157.9359 826.6149,-130.2826 866.7733,-114.4 969,-157.9359 1003.0424,-172.4338 1030.1519,-207.6252 1044.434,-229.4593"/>
<polygon fill="#191970" stroke="#191970" points="1041.624,-231.5654 1049.9127,-238.1645 1047.5484,-227.8369 1041.624,-231.5654"/>
</g>
<!-- Node76832&#45;&gt;Node76709 -->
<g id="edge35" class="edge">
<title>Node76832&#45;&gt;Node76709</title>
<path fill="none" stroke="#191970" d="M629.0638,-219.7062C649.2608,-262.9449 730.7922,-437.4912 757.7782,-495.2639"/>
<polygon fill="#191970" stroke="#191970" points="754.6207,-496.7745 762.024,-504.3536 760.963,-493.812 754.6207,-496.7745"/>
</g>
<!-- Node76832&#45;&gt;Node76704 -->
<g id="edge38" class="edge">
<title>Node76832&#45;&gt;Node76704</title>
<path fill="none" stroke="#191970" d="M647.2854,-200.3251C705.9727,-177.2093 864.984,-125.1113 969,-190.9359 1000.5828,-210.9225 984.402,-235.7484 1005,-266.9359 1014.6155,-281.4948 1027.7374,-296.1907 1038.1953,-307.0135"/>
<polygon fill="#191970" stroke="#191970" points="1035.7323,-309.5005 1045.2513,-314.1523 1040.7108,-304.5797 1035.7323,-309.5005"/>
</g>
<!-- Node76832&#45;&gt;Node76830 -->
<g id="edge37" class="edge">
<title>Node76832&#45;&gt;Node76830</title>
<path fill="none" stroke="#191970" d="M660.3326,-219.5249C678.6634,-224.4304 701.1784,-230.4555 720.7501,-235.693"/>
<polygon fill="#191970" stroke="#191970" points="720.114,-239.1458 730.6789,-238.35 721.9236,-232.3838 720.114,-239.1458"/>
</g>
<!-- Node76834 -->
<g id="node23" class="node">
<title>Node76834</title>
<g id="a_node23"><a xlink:href="dict__util_8c.html#af99025342c4499a025ef9029848bcb83" target="_top" xlink:title="dict_attr_by_name">
<polygon fill="none" stroke="#000000" points="285,-347.4359 285,-366.4359 382,-366.4359 382,-347.4359 285,-347.4359"/>
<text text-anchor="middle" x="333.5" y="-354.4359" font-family="Helvetica,sans-Serif" font-size="10.00" fill="#000000">dict_attr_by_name</text>
</a>
</g>
</g>
<!-- Node76833&#45;&gt;Node76834 -->
<g id="edge41" class="edge">
<title>Node76833&#45;&gt;Node76834</title>
<path fill="none" stroke="#191970" d="M249.3414,-356.9359C257.6386,-356.9359 266.2355,-356.9359 274.6246,-356.9359"/>
<polygon fill="#191970" stroke="#191970" points="274.7203,-360.436 284.7203,-356.9359 274.7203,-353.436 274.7203,-360.436"/>
</g>
<!-- Node76834&#45;&gt;Node76697 -->
<g id="edge42" class="edge">
<title>Node76834&#45;&gt;Node76697</title>
<path fill="none" stroke="#191970" d="M364.6815,-366.479C384.8724,-372.6584 411.3768,-380.7701 433.2311,-387.4586"/>
<polygon fill="#191970" stroke="#191970" points="432.3192,-390.8397 442.9057,-390.4195 434.3678,-384.1462 432.3192,-390.8397"/>
</g>
<!-- Node76744 -->
<g id="node24" class="node">
<title>Node76744</title>
<g id="a_node24"><a xlink:href="hash_8c.html#a5142bb7ae36b65a809eb834314974942" target="_top" xlink:title="Find data from a template. ">
<polygon fill="none" stroke="#ff0000" points="426,-340.9359 426,-370.9359 522,-370.9359 522,-340.9359 426,-340.9359"/>
<text text-anchor="start" x="434" y="-358.9359" font-family="Helvetica,sans-Serif" font-size="10.00" fill="#000000">fr_hash_table_find</text>
<text text-anchor="middle" x="474" y="-347.9359" font-family="Helvetica,sans-Serif" font-size="10.00" fill="#000000">_by_data</text>
</a>
</g>
</g>
<!-- Node76834&#45;&gt;Node76744 -->
<g id="edge43" class="edge">
<title>Node76834&#45;&gt;Node76744</title>
<path fill="none" stroke="#191970" d="M382.2458,-356.589C393.0471,-356.5121 404.599,-356.4299 415.7367,-356.3506"/>
<polygon fill="#191970" stroke="#191970" points="415.8405,-359.8501 425.8153,-356.2789 415.7906,-352.8502 415.8405,-359.8501"/>
</g>
</g>
</svg>
