<?xml version="1.0" encoding="UTF-8" standalone="no"?>
<!DOCTYPE svg PUBLIC "-//W3C//DTD SVG 1.1//EN"
 "http://www.w3.org/Graphics/SVG/1.1/DTD/svg11.dtd">
<!-- Generated by graphviz version 2.40.1 (20161225.0304)
 -->
<!-- Title: _dl_loader_free Pages: 1 -->
<svg width="946pt" height="792pt"
 viewBox="0.00 0.00 946.00 792.00" xmlns="http://www.w3.org/2000/svg" xmlns:xlink="http://www.w3.org/1999/xlink">
<g id="graph0" class="graph" transform="scale(1 1) rotate(0) translate(4 788)">
<title>_dl_loader_free</title>
<!-- Node1614 -->
<g id="node1" class="node">
<title>Node1614</title>
<polygon fill="#bfbfbf" stroke="#000000" points="0,-559.5 0,-578.5 83,-578.5 83,-559.5 0,-559.5"/>
<text text-anchor="middle" x="41.5" y="-566.5" font-family="Helvetica,sans-Serif" font-size="10.00" fill="#000000">_dl_loader_free</text>
</g>
<!-- Node1615 -->
<g id="node2" class="node">
<title>Node1615</title>
<g id="a_node2"><a xlink:href="dl_8h.html#a239fa469ef00fbaeb21effc648a2dfdc" target="_top" xlink:title="Initialise structures needed by the dynamic linker. ">
<polygon fill="none" stroke="#000000" points="119,-559.5 119,-578.5 193,-578.5 193,-559.5 119,-559.5"/>
<text text-anchor="middle" x="156" y="-566.5" font-family="Helvetica,sans-Serif" font-size="10.00" fill="#000000">dl_loader_init</text>
</a>
</g>
</g>
<!-- Node1614&#45;&gt;Node1615 -->
<g id="edge1" class="edge">
<title>Node1614&#45;&gt;Node1615</title>
<path fill="none" stroke="#191970" d="M93.4346,-569C101.9638,-569 110.6518,-569 118.7324,-569"/>
<polygon fill="#191970" stroke="#191970" points="93.1611,-565.5001 83.161,-569 93.161,-572.5001 93.1611,-565.5001"/>
</g>
<!-- Node1616 -->
<g id="node3" class="node">
<title>Node1616</title>
<g id="a_node3"><a xlink:href="fuzzer_8c.html#aa30889313cc057073351a87b2590b886" target="_top" xlink:title="LLVMFuzzerInitialize">
<polygon fill="none" stroke="#000000" points="663,-650.5 663,-669.5 771,-669.5 771,-650.5 663,-650.5"/>
<text text-anchor="middle" x="717" y="-657.5" font-family="Helvetica,sans-Serif" font-size="10.00" fill="#000000">LLVMFuzzerInitialize</text>
</a>
</g>
</g>
<!-- Node1615&#45;&gt;Node1616 -->
<g id="edge2" class="edge">
<title>Node1615&#45;&gt;Node1616</title>
<path fill="none" stroke="#191970" d="M191.3812,-581.9872C255.3108,-604.6853 394.7931,-650.7072 517,-667 565.4601,-673.4608 578.1479,-668.8969 627,-667 638.5887,-666.55 650.9978,-665.7753 662.7847,-664.9011"/>
<polygon fill="#191970" stroke="#191970" points="192.3784,-578.6268 181.7838,-578.5527 190.0198,-585.2175 192.3784,-578.6268"/>
</g>
<!-- Node1618 -->
<g id="node5" class="node">
<title>Node1618</title>
<g id="a_node5"><a xlink:href="unit__test__attribute_8c.html#a0ddf1224851353fc92bfbff6f499fa97" target="_top" xlink:title="main">
<polygon fill="none" stroke="#000000" points="853.5,-18.5 853.5,-37.5 891.5,-37.5 891.5,-18.5 853.5,-18.5"/>
<text text-anchor="middle" x="872.5" y="-25.5" font-family="Helvetica,sans-Serif" font-size="10.00" fill="#000000">main</text>
</a>
</g>
</g>
<!-- Node1615&#45;&gt;Node1618 -->
<g id="edge4" class="edge">
<title>Node1615&#45;&gt;Node1618</title>
<path fill="none" stroke="#191970" d="M160.7566,-549.3776C185.5844,-449.2527 303.9259,0 428.5,0 428.5,0 428.5,0 572,0 678.6261,0 805.6196,-17.6932 853.2223,-24.9502"/>
<polygon fill="#191970" stroke="#191970" points="157.3491,-548.5778 158.3632,-559.1239 164.1471,-550.2472 157.3491,-548.5778"/>
</g>
<!-- Node1619 -->
<g id="node6" class="node">
<title>Node1619</title>
<g id="a_node6"><a xlink:href="dl__module_8h.html#aa826047e6ec8afd3f700a60b28941dee" target="_top" xlink:title="Initialise structures needed by the dynamic linker. ">
<polygon fill="none" stroke="#000000" points="229.5,-726.5 229.5,-745.5 339.5,-745.5 339.5,-726.5 229.5,-726.5"/>
<text text-anchor="middle" x="284.5" y="-733.5" font-family="Helvetica,sans-Serif" font-size="10.00" fill="#000000">dl_module_loader_init</text>
</a>
</g>
</g>
<!-- Node1615&#45;&gt;Node1619 -->
<g id="edge5" class="edge">
<title>Node1615&#45;&gt;Node1619</title>
<path fill="none" stroke="#191970" d="M161.2773,-588.5066C170.3708,-618.7254 191.7023,-677.0111 229,-712 235.5843,-718.1768 244.0082,-722.912 252.2926,-726.4772"/>
<polygon fill="#191970" stroke="#191970" points="164.5967,-587.3847 158.4738,-578.7383 157.8683,-589.3158 164.5967,-587.3847"/>
</g>
<!-- Node1622 -->
<g id="node9" class="node">
<title>Node1622</title>
<g id="a_node9"><a xlink:href="dict__util_8c.html#a576424afb26db7b1dbdd765fe99b170b" target="_top" xlink:title="Initialise the global protocol hashes. ">
<polygon fill="none" stroke="#000000" points="229,-380.5 229,-399.5 340,-399.5 340,-380.5 229,-380.5"/>
<text text-anchor="middle" x="284.5" y="-387.5" font-family="Helvetica,sans-Serif" font-size="10.00" fill="#000000">fr_dict_global_ctx_init</text>
</a>
</g>
</g>
<!-- Node1615&#45;&gt;Node1622 -->
<g id="edge8" class="edge">
<title>Node1615&#45;&gt;Node1622</title>
<path fill="none" stroke="#191970" d="M168.9654,-550.9393C195.8637,-513.47 256.9436,-428.3859 277.5571,-399.6714"/>
<polygon fill="#191970" stroke="#191970" points="165.8972,-549.2115 162.9087,-559.3762 171.5837,-553.2938 165.8972,-549.2115"/>
</g>
<!-- Node1617 -->
<g id="node4" class="node">
<title>Node1617</title>
<g id="a_node4"><a xlink:href="fuzzer_8c.html#aea409319c7706f2cf28137757e2c36d4" target="_top" xlink:title="LLVMFuzzerTestOneInput">
<polygon fill="none" stroke="#000000" points="807,-650.5 807,-669.5 938,-669.5 938,-650.5 807,-650.5"/>
<text text-anchor="middle" x="872.5" y="-657.5" font-family="Helvetica,sans-Serif" font-size="10.00" fill="#000000">LLVMFuzzerTestOneInput</text>
</a>
</g>
</g>
<!-- Node1616&#45;&gt;Node1617 -->
<g id="edge3" class="edge">
<title>Node1616&#45;&gt;Node1617</title>
<path fill="none" stroke="#191970" d="M781.4959,-660C789.8928,-660 798.5022,-660 806.9167,-660"/>
<polygon fill="#191970" stroke="#191970" points="781.3864,-656.5001 771.3864,-660 781.3863,-663.5001 781.3864,-656.5001"/>
</g>
<!-- Node1620 -->
<g id="node7" class="node">
<title>Node1620</title>
<g id="a_node7"><a xlink:href="radiusd_8c.html#a0ddf1224851353fc92bfbff6f499fa97" target="_top" xlink:title="Entry point for the daemon. ">
<polygon fill="none" stroke="#000000" points="409.5,-726.5 409.5,-745.5 447.5,-745.5 447.5,-726.5 409.5,-726.5"/>
<text text-anchor="middle" x="428.5" y="-733.5" font-family="Helvetica,sans-Serif" font-size="10.00" fill="#000000">main</text>
</a>
</g>
</g>
<!-- Node1619&#45;&gt;Node1620 -->
<g id="edge6" class="edge">
<title>Node1619&#45;&gt;Node1620</title>
<path fill="none" stroke="#191970" d="M349.97,-736C371.6472,-736 394.1205,-736 409.4429,-736"/>
<polygon fill="#191970" stroke="#191970" points="349.7624,-732.5001 339.7623,-736 349.7623,-739.5001 349.7624,-732.5001"/>
</g>
<!-- Node1621 -->
<g id="node8" class="node">
<title>Node1621</title>
<g id="a_node8"><a xlink:href="main__config_8c.html#a8ec601c28cf18bfc497ee27afed43638" target="_top" xlink:title="lib_dir_parse">
<polygon fill="none" stroke="#000000" points="393,-764.5 393,-783.5 464,-783.5 464,-764.5 393,-764.5"/>
<text text-anchor="middle" x="428.5" y="-771.5" font-family="Helvetica,sans-Serif" font-size="10.00" fill="#000000">lib_dir_parse</text>
</a>
</g>
</g>
<!-- Node1619&#45;&gt;Node1621 -->
<g id="edge7" class="edge">
<title>Node1619&#45;&gt;Node1621</title>
<path fill="none" stroke="#191970" d="M330.7107,-748.1945C350.7827,-753.4913 373.9357,-759.6011 392.6732,-764.5457"/>
<polygon fill="#191970" stroke="#191970" points="331.3994,-744.7565 320.8373,-745.589 329.6132,-751.5248 331.3994,-744.7565"/>
</g>
<!-- Node1622&#45;&gt;Node1616 -->
<g id="edge9" class="edge">
<title>Node1622&#45;&gt;Node1616</title>
<path fill="none" stroke="#191970" d="M294.7787,-408.2474C322.9908,-456.3364 406.9109,-586.569 517,-641 562.4916,-663.4923 620.8785,-666.5548 662.8072,-665.008"/>
<polygon fill="#191970" stroke="#191970" points="297.7787,-406.4435 289.7507,-399.5296 291.715,-409.9408 297.7787,-406.4435"/>
</g>
<!-- Node1623 -->
<g id="node10" class="node">
<title>Node1623</title>
<g id="a_node10"><a xlink:href="radclient_8c.html#a3c04138a5bfe5d72780bb7e82a18e627" target="_top" xlink:title="main">
<polygon fill="none" stroke="#000000" points="409.5,-358.5 409.5,-377.5 447.5,-377.5 447.5,-358.5 409.5,-358.5"/>
<text text-anchor="middle" x="428.5" y="-365.5" font-family="Helvetica,sans-Serif" font-size="10.00" fill="#000000">main</text>
</a>
</g>
</g>
<!-- Node1622&#45;&gt;Node1623 -->
<g id="edge10" class="edge">
<title>Node1622&#45;&gt;Node1623</title>
<path fill="none" stroke="#191970" d="M350.2894,-379.9488C371.7615,-376.6684 393.9759,-373.2745 409.2173,-370.946"/>
<polygon fill="#191970" stroke="#191970" points="349.5308,-376.524 340.1742,-381.4942 350.5881,-383.4437 349.5308,-376.524"/>
</g>
<!-- Node2099 -->
<g id="node24" class="node">
<title>Node2099</title>
<g id="a_node24"><a xlink:href="unit__test__attribute_8c.html#a7d65c206c39ad689c8a1c844ff3d586f" target="_top" xlink:title="command_ctx_alloc">
<polygon fill="none" stroke="#000000" points="376.5,-264.5 376.5,-283.5 480.5,-283.5 480.5,-264.5 376.5,-264.5"/>
<text text-anchor="middle" x="428.5" y="-271.5" font-family="Helvetica,sans-Serif" font-size="10.00" fill="#000000">command_ctx_alloc</text>
</a>
</g>
</g>
<!-- Node1622&#45;&gt;Node2099 -->
<g id="edge33" class="edge">
<title>Node1622&#45;&gt;Node2099</title>
<path fill="none" stroke="#191970" d="M304.6254,-373.7879C335.1101,-349.2308 392.0431,-303.3681 416.6585,-283.539"/>
<polygon fill="#191970" stroke="#191970" points="302.3693,-371.1109 296.7774,-380.1099 306.7606,-376.5622 302.3693,-371.1109"/>
</g>
<!-- Node3066 -->
<g id="node25" class="node">
<title>Node3066</title>
<g id="a_node25"><a xlink:href="unit__test__attribute_8c.html#a3a2641ca5061e45a2f3605765c85df9a" target="_top" xlink:title="command_ctx_reset">
<polygon fill="none" stroke="#000000" points="376,-113.5 376,-132.5 481,-132.5 481,-113.5 376,-113.5"/>
<text text-anchor="middle" x="428.5" y="-120.5" font-family="Helvetica,sans-Serif" font-size="10.00" fill="#000000">command_ctx_reset</text>
</a>
</g>
</g>
<!-- Node1622&#45;&gt;Node3066 -->
<g id="edge35" class="edge">
<title>Node1622&#45;&gt;Node3066</title>
<path fill="none" stroke="#191970" d="M294.3852,-371.6712C322.4799,-319.579 402.1284,-171.8973 423.2859,-132.6678"/>
<polygon fill="#191970" stroke="#191970" points="291.2914,-370.0344 289.625,-380.4973 297.4525,-373.3572 291.2914,-370.0344"/>
</g>
<!-- Node2102 -->
<g id="node26" class="node">
<title>Node2102</title>
<g id="a_node26"><a xlink:href="dict_8h.html#ab4abf3bf9320fe063c8031c515daf937" target="_top" xlink:title="Return true if this attribute is parented directly off the dictionary root. ">
<polygon fill="none" stroke="#ff0000" points="381,-397 381,-427 476,-427 476,-397 381,-397"/>
<text text-anchor="start" x="389" y="-415" font-family="Helvetica,sans-Serif" font-size="10.00" fill="#000000">fr_dict_attr_is_top</text>
<text text-anchor="middle" x="428.5" y="-404" font-family="Helvetica,sans-Serif" font-size="10.00" fill="#000000">_level</text>
</a>
</g>
</g>
<!-- Node1622&#45;&gt;Node2102 -->
<g id="edge37" class="edge">
<title>Node1622&#45;&gt;Node2102</title>
<path fill="none" stroke="#191970" d="M350.0623,-400.0165C360.4633,-401.6055 371.0449,-403.2221 380.9296,-404.7323"/>
<polygon fill="#191970" stroke="#191970" points="350.5881,-396.5563 340.1742,-398.5058 349.5308,-403.476 350.5881,-396.5563"/>
</g>
<!-- Node1624 -->
<g id="node11" class="node">
<title>Node1624</title>
<g id="a_node11"><a xlink:href="comp128_8h.html#a5d4168028ccd505946cb69b67abdd297" target="_top" xlink:title="Calculate comp128v2 or comp128v3 sres and kc from ki and rand. ">
<polygon fill="none" stroke="#ff0000" points="536,-556.5 536,-575.5 608,-575.5 608,-556.5 536,-556.5"/>
<text text-anchor="middle" x="572" y="-563.5" font-family="Helvetica,sans-Serif" font-size="10.00" fill="#000000">comp128v23</text>
</a>
</g>
</g>
<!-- Node1623&#45;&gt;Node1624 -->
<g id="edge11" class="edge">
<title>Node1623&#45;&gt;Node1624</title>
<path fill="none" stroke="#191970" d="M457.4859,-372.9065C466.1348,-375.7059 474.9193,-380.1009 481,-387 529.1951,-441.6811 468.4064,-492.6727 517,-547 522.0513,-552.6473 528.8635,-556.6164 535.9713,-559.4059"/>
<polygon fill="#191970" stroke="#191970" points="458.1264,-369.456 447.5652,-370.2987 456.3468,-376.226 458.1264,-369.456"/>
</g>
<!-- Node1647 -->
<g id="node12" class="node">
<title>Node1647</title>
<g id="a_node12"><a xlink:href="event_8h.html#a95b6ed57fdb96da9e693d782a792f139" target="_top" xlink:title="Return whether the event loop has any active events. ">
<polygon fill="none" stroke="#000000" points="666,-113.5 666,-132.5 768,-132.5 768,-113.5 666,-113.5"/>
<text text-anchor="middle" x="717" y="-120.5" font-family="Helvetica,sans-Serif" font-size="10.00" fill="#000000">fr_event_list_empty</text>
</a>
</g>
</g>
<!-- Node1623&#45;&gt;Node1647 -->
<g id="edge13" class="edge">
<title>Node1623&#45;&gt;Node1647</title>
<path fill="none" stroke="#191970" d="M450.2011,-352.228C467.8953,-339.5676 493.6842,-321.5649 517,-307 564.5964,-277.2675 584.9658,-282.1827 627,-245 666.6254,-209.9481 699.5089,-154.7293 711.8095,-132.6203"/>
<polygon fill="#191970" stroke="#191970" points="447.8147,-349.6332 441.742,-358.3151 451.9033,-355.3151 447.8147,-349.6332"/>
</g>
<!-- Node1648 -->
<g id="node13" class="node">
<title>Node1648</title>
<g id="a_node13"><a xlink:href="fifo_8h.html#a8ec8c40ef16cc9a67788e6bf4c5fb4f5" target="_top" xlink:title="Return the number of elements in the fifo queue. ">
<polygon fill="none" stroke="#ff0000" points="517,-500.5 517,-519.5 627,-519.5 627,-500.5 517,-500.5"/>
<text text-anchor="middle" x="572" y="-507.5" font-family="Helvetica,sans-Serif" font-size="10.00" fill="#000000">fr_fifo_num_elements</text>
</a>
</g>
</g>
<!-- Node1623&#45;&gt;Node1648 -->
<g id="edge14" class="edge">
<title>Node1623&#45;&gt;Node1648</title>
<path fill="none" stroke="#191970" d="M457.4307,-373.4529C465.9296,-376.2786 474.6407,-380.5511 481,-387 515.3439,-421.828 482.4024,-456.424 517,-491 520.8586,-494.8562 525.5366,-497.931 530.5166,-500.3825"/>
<polygon fill="#191970" stroke="#191970" points="458.2764,-370.0554 447.7048,-370.7567 456.4063,-376.801 458.2764,-370.0554"/>
</g>
<!-- Node1684 -->
<g id="node14" class="node">
<title>Node1684</title>
<g id="a_node14"><a xlink:href="hash_8h.html#a2719b2d3eda3e8506d7d662917438596" target="_top" xlink:title="Hash a C string, converting all chars to lowercase. ">
<polygon fill="none" stroke="#000000" points="520,-424.5 520,-443.5 624,-443.5 624,-424.5 520,-424.5"/>
<text text-anchor="middle" x="572" y="-431.5" font-family="Helvetica,sans-Serif" font-size="10.00" fill="#000000">fr_hash_case_string</text>
</a>
</g>
</g>
<!-- Node1623&#45;&gt;Node1684 -->
<g id="edge16" class="edge">
<title>Node1623&#45;&gt;Node1684</title>
<path fill="none" stroke="#191970" d="M457.226,-376.564C465.1512,-379.4121 473.6002,-382.9176 481,-387 498.748,-396.7914 499.1809,-405.3386 517,-415 523.7495,-418.6595 531.3389,-421.8208 538.6746,-424.4571"/>
<polygon fill="#191970" stroke="#191970" points="458.1801,-373.1922 447.586,-373.3142 455.9439,-379.8254 458.1801,-373.1922"/>
</g>
<!-- Node1685 -->
<g id="node15" class="node">
<title>Node1685</title>
<g id="a_node15"><a xlink:href="hmac__md5_8c.html#ad2cdd3bcebcf92acb528af5d38e85d9e" target="_top" xlink:title="Calculate HMAC using internal MD5 implementation. ">
<polygon fill="none" stroke="#ff0000" points="534,-386.5 534,-405.5 610,-405.5 610,-386.5 534,-386.5"/>
<text text-anchor="middle" x="572" y="-393.5" font-family="Helvetica,sans-Serif" font-size="10.00" fill="#000000">fr_hmac_md5</text>
</a>
</g>
</g>
<!-- Node1623&#45;&gt;Node1685 -->
<g id="edge17" class="edge">
<title>Node1623&#45;&gt;Node1685</title>
<path fill="none" stroke="#191970" d="M457.6241,-373.6828C479.6414,-377.9788 510.0593,-383.914 533.9919,-388.5838"/>
<polygon fill="#191970" stroke="#191970" points="458.0409,-370.1981 447.5557,-371.7182 456.7003,-377.0686 458.0409,-370.1981"/>
</g>
<!-- Node2081 -->
<g id="node16" class="node">
<title>Node2081</title>
<g id="a_node16"><a xlink:href="sha1_8h.html#a2bdb1a7038f0010ff52423c27a5eb55e" target="_top" xlink:title="Calculate HMAC using internal SHA1 implementation. ">
<polygon fill="none" stroke="#ff0000" points="533,-330.5 533,-349.5 611,-349.5 611,-330.5 533,-330.5"/>
<text text-anchor="middle" x="572" y="-337.5" font-family="Helvetica,sans-Serif" font-size="10.00" fill="#000000">fr_hmac_sha1</text>
</a>
</g>
</g>
<!-- Node1623&#45;&gt;Node2081 -->
<g id="edge18" class="edge">
<title>Node1623&#45;&gt;Node2081</title>
<path fill="none" stroke="#191970" d="M457.4741,-362.3465C479.1479,-358.1175 509.0235,-352.2881 532.8265,-347.6436"/>
<polygon fill="#191970" stroke="#191970" points="456.7003,-358.9314 447.5557,-364.2818 458.0409,-365.8019 456.7003,-358.9314"/>
</g>
<!-- Node2093 -->
<g id="node17" class="node">
<title>Node2093</title>
<g id="a_node17"><a xlink:href="rand_8h.html#a397c42de24ad86f9d3d899957e33e679" target="_top" xlink:title="fr_rand_init">
<polygon fill="none" stroke="#ff0000" points="539.5,-104.5 539.5,-123.5 604.5,-123.5 604.5,-104.5 539.5,-104.5"/>
<text text-anchor="middle" x="572" y="-111.5" font-family="Helvetica,sans-Serif" font-size="10.00" fill="#000000">fr_rand_init</text>
</a>
</g>
</g>
<!-- Node1623&#45;&gt;Node2093 -->
<g id="edge20" class="edge">
<title>Node1623&#45;&gt;Node2093</title>
<path fill="none" stroke="#191970" d="M443.9573,-349.9691C455.6736,-335.4515 471.3534,-314.0613 481,-293 508.1124,-233.806 479.518,-204.2364 517,-151 525.414,-139.0495 539.0157,-129.8501 550.5872,-123.6133"/>
<polygon fill="#191970" stroke="#191970" points="440.9438,-348.1207 437.2638,-358.0559 446.3363,-352.5841 440.9438,-348.1207"/>
</g>
<!-- Node2336 -->
<g id="node18" class="node">
<title>Node2336</title>
<g id="a_node18"><a xlink:href="snprintf_8c.html#a8da10a1735da7051de5c298ca7448eee" target="_top" xlink:title="snprintf">
<polygon fill="none" stroke="#ff0000" points="547.5,-462.5 547.5,-481.5 596.5,-481.5 596.5,-462.5 547.5,-462.5"/>
<text text-anchor="middle" x="572" y="-469.5" font-family="Helvetica,sans-Serif" font-size="10.00" fill="#000000">snprintf</text>
</a>
</g>
</g>
<!-- Node1623&#45;&gt;Node2336 -->
<g id="edge23" class="edge">
<title>Node1623&#45;&gt;Node2336</title>
<path fill="none" stroke="#191970" d="M457.4735,-374.3443C465.7384,-377.1932 474.3069,-381.2547 481,-387 506.3536,-408.7633 491.488,-431.4226 517,-453 525.5619,-460.2414 537.0392,-464.7752 547.2941,-467.588"/>
<polygon fill="#191970" stroke="#191970" points="458.2718,-370.9304 447.6892,-371.4391 456.2792,-377.6408 458.2718,-370.9304"/>
</g>
<!-- Node2354 -->
<g id="node20" class="node">
<title>Node2354</title>
<g id="a_node20"><a xlink:href="trie_8h.html#aa11d3bbe61b4e23de7e0a529c10810be" target="_top" xlink:title="fr_trie_walk">
<polygon fill="none" stroke="#ff0000" points="683.5,-377.5 683.5,-396.5 750.5,-396.5 750.5,-377.5 683.5,-377.5"/>
<text text-anchor="middle" x="717" y="-384.5" font-family="Helvetica,sans-Serif" font-size="10.00" fill="#000000">fr_trie_walk</text>
</a>
</g>
</g>
<!-- Node1623&#45;&gt;Node2354 -->
<g id="edge28" class="edge">
<title>Node1623&#45;&gt;Node2354</title>
<path fill="none" stroke="#191970" d="M450.1363,-352.6216C467.3377,-341.3898 492.5012,-327.1018 517,-321 564.4396,-309.1845 580.5375,-305.7895 627,-321 661.2509,-332.2127 693.2414,-361.9729 708.1752,-377.4096"/>
<polygon fill="#191970" stroke="#191970" points="447.7886,-349.9833 441.4538,-358.4758 451.7019,-355.7873 447.7886,-349.9833"/>
</g>
<!-- Node3057 -->
<g id="node21" class="node">
<title>Node3057</title>
<g id="a_node21"><a xlink:href="udpfromto_8h.html#aa0e3ddd0d191087ba4b18d3eaacc63fa" target="_top" xlink:title="Send packet via a file descriptor, setting the src address and outbound interface. ">
<polygon fill="none" stroke="#ff0000" points="539.5,-198.5 539.5,-217.5 604.5,-217.5 604.5,-198.5 539.5,-198.5"/>
<text text-anchor="middle" x="572" y="-205.5" font-family="Helvetica,sans-Serif" font-size="10.00" fill="#000000">sendfromto</text>
</a>
</g>
</g>
<!-- Node1623&#45;&gt;Node3057 -->
<g id="edge29" class="edge">
<title>Node1623&#45;&gt;Node3057</title>
<path fill="none" stroke="#191970" d="M441.0095,-350.0965C461.1615,-321.4717 500.2439,-266.902 517,-250 529.3494,-237.543 545.5019,-225.634 557.1028,-217.6997"/>
<polygon fill="#191970" stroke="#191970" points="438.0633,-348.2018 435.1842,-358.3979 443.7933,-352.2227 438.0633,-348.2018"/>
</g>
<!-- Node3061 -->
<g id="node22" class="node">
<title>Node3061</title>
<g id="a_node22"><a xlink:href="timestr_8c.html#a944f1c665be9eb7b98abd2f180ff6e3f" target="_top" xlink:title="timestr_match">
<polygon fill="none" stroke="#ff0000" points="532.5,-160.5 532.5,-179.5 611.5,-179.5 611.5,-160.5 532.5,-160.5"/>
<text text-anchor="middle" x="572" y="-167.5" font-family="Helvetica,sans-Serif" font-size="10.00" fill="#000000">timestr_match</text>
</a>
</g>
</g>
<!-- Node1623&#45;&gt;Node3061 -->
<g id="edge31" class="edge">
<title>Node1623&#45;&gt;Node3061</title>
<path fill="none" stroke="#191970" d="M443.0759,-350.2274C454.5565,-335.5699 470.348,-313.8672 481,-293 503.2386,-249.4347 482.4024,-223.576 517,-189 521.3588,-184.6439 526.7632,-181.2849 532.4674,-178.6953"/>
<polygon fill="#191970" stroke="#191970" points="440.0759,-348.3751 436.5691,-358.3728 445.5451,-352.7441 440.0759,-348.3751"/>
</g>
<!-- Node3065 -->
<g id="node23" class="node">
<title>Node3065</title>
<g id="a_node23"><a xlink:href="rlm__passwd_8c.html#a4ffa1b9e22a6bb64bd03150655bc1fb5" target="_top" xlink:title="get_pw_nam">
<polygon fill="none" stroke="#ff0000" points="536,-612.5 536,-631.5 608,-631.5 608,-612.5 536,-612.5"/>
<text text-anchor="middle" x="572" y="-619.5" font-family="Helvetica,sans-Serif" font-size="10.00" fill="#000000">get_pw_nam</text>
</a>
</g>
</g>
<!-- Node1623&#45;&gt;Node3065 -->
<g id="edge32" class="edge">
<title>Node1623&#45;&gt;Node3065</title>
<path fill="none" stroke="#191970" d="M457.719,-372.7068C466.3817,-375.4944 475.1154,-379.9329 481,-387 543.2766,-461.7906 454.1784,-528.6667 517,-603 521.8907,-608.7869 528.6364,-612.8138 535.7305,-615.6153"/>
<polygon fill="#191970" stroke="#191970" points="458.3148,-369.2459 447.7572,-370.1342 456.5644,-376.0235 458.3148,-369.2459"/>
</g>
<!-- Node1624&#45;&gt;Node1624 -->
<g id="edge12" class="edge">
<title>Node1624&#45;&gt;Node1624</title>
<path fill="none" stroke="#191970" d="M545.4941,-584.6539C546.6021,-589.9368 555.4374,-594 572,-594 597.2383,-594 604.5337,-584.5653 593.8863,-575.7571"/>
<polygon fill="#191970" stroke="#191970" points="548.6117,-586.2449 550.1137,-575.7571 542.3992,-583.0192 548.6117,-586.2449"/>
</g>
<!-- Node1648&#45;&gt;Node1648 -->
<g id="edge15" class="edge">
<title>Node1648&#45;&gt;Node1648</title>
<path fill="none" stroke="#191970" d="M545.4941,-528.6539C546.6021,-533.9368 555.4374,-538 572,-538 597.2383,-538 604.5337,-528.5653 593.8863,-519.7571"/>
<polygon fill="#191970" stroke="#191970" points="548.6117,-530.2449 550.1137,-519.7571 542.3992,-527.0192 548.6117,-530.2449"/>
</g>
<!-- Node2081&#45;&gt;Node2081 -->
<g id="edge19" class="edge">
<title>Node2081&#45;&gt;Node2081</title>
<path fill="none" stroke="#191970" d="M545.4941,-358.6539C546.6021,-363.9368 555.4374,-368 572,-368 597.2383,-368 604.5337,-358.5653 593.8863,-349.7571"/>
<polygon fill="#191970" stroke="#191970" points="548.6117,-360.2449 550.1137,-349.7571 542.3992,-357.0192 548.6117,-360.2449"/>
</g>
<!-- Node2093&#45;&gt;Node1647 -->
<g id="edge21" class="edge">
<title>Node2093&#45;&gt;Node1647</title>
<path fill="none" stroke="#191970" d="M614.6857,-116.6495C630.7026,-117.6436 649.0705,-118.7837 665.7828,-119.821"/>
<polygon fill="#191970" stroke="#191970" points="614.7385,-113.1461 604.5408,-116.0198 614.3048,-120.1326 614.7385,-113.1461"/>
</g>
<!-- Node2093&#45;&gt;Node2093 -->
<g id="edge22" class="edge">
<title>Node2093&#45;&gt;Node2093</title>
<path fill="none" stroke="#191970" d="M545.4941,-132.6539C546.6021,-137.9368 555.4374,-142 572,-142 597.2383,-142 604.5337,-132.5653 593.8863,-123.7571"/>
<polygon fill="#191970" stroke="#191970" points="548.6117,-134.2449 550.1137,-123.7571 542.3992,-131.0192 548.6117,-134.2449"/>
</g>
<!-- Node2336&#45;&gt;Node1616 -->
<g id="edge24" class="edge">
<title>Node2336&#45;&gt;Node1616</title>
<path fill="none" stroke="#191970" d="M606.5886,-479.5399C613.8845,-482.2816 621.1387,-485.9921 627,-491 680.3263,-536.5614 706.8878,-621.8256 714.5781,-650.3934"/>
<polygon fill="#191970" stroke="#191970" points="607.3323,-476.1025 596.7409,-476.3708 605.188,-482.7659 607.3323,-476.1025"/>
</g>
<!-- Node2100 -->
<g id="node19" class="node">
<title>Node2100</title>
<g id="a_node19"><a xlink:href="unit__test__attribute_8c.html#a88738939cd10cc13f6addaf99b88e53d" target="_top" xlink:title="process_file">
<polygon fill="none" stroke="#ff0000" points="682.5,-56.5 682.5,-75.5 751.5,-75.5 751.5,-56.5 682.5,-56.5"/>
<text text-anchor="middle" x="717" y="-63.5" font-family="Helvetica,sans-Serif" font-size="10.00" fill="#000000">process_file</text>
</a>
</g>
</g>
<!-- Node2336&#45;&gt;Node2100 -->
<g id="edge25" class="edge">
<title>Node2336&#45;&gt;Node2100</title>
<path fill="none" stroke="#191970" d="M606.2151,-466.7158C614.1438,-463.8953 621.7786,-459.584 627,-453 723.8919,-330.8222 584.1447,-238.5262 663,-104 670.4203,-91.3411 683.9203,-81.8411 695.5652,-75.5058"/>
<polygon fill="#191970" stroke="#191970" points="605.2005,-463.3655 596.5405,-469.4693 607.1167,-470.0981 605.2005,-463.3655"/>
</g>
<!-- Node2336&#45;&gt;Node2354 -->
<g id="edge27" class="edge">
<title>Node2336&#45;&gt;Node2354</title>
<path fill="none" stroke="#191970" d="M606.6378,-461.8129C613.5436,-459.2914 620.6272,-456.3395 627,-453 657.8924,-436.8115 689.837,-410.7587 706.0814,-396.7166"/>
<polygon fill="#191970" stroke="#191970" points="605.0801,-458.6465 596.7507,-465.1943 607.3453,-465.2699 605.0801,-458.6465"/>
</g>
<!-- Node2100&#45;&gt;Node1618 -->
<g id="edge26" class="edge">
<title>Node2100&#45;&gt;Node1618</title>
<path fill="none" stroke="#191970" d="M761.4419,-55.1396C791.7727,-47.7276 830.4427,-38.2777 853.2327,-32.7084"/>
<polygon fill="#191970" stroke="#191970" points="760.3938,-51.7927 751.5105,-57.5666 762.0555,-58.5926 760.3938,-51.7927"/>
</g>
<!-- Node3057&#45;&gt;Node3057 -->
<g id="edge30" class="edge">
<title>Node3057&#45;&gt;Node3057</title>
<path fill="none" stroke="#191970" d="M545.4941,-226.6539C546.6021,-231.9368 555.4374,-236 572,-236 597.2383,-236 604.5337,-226.5653 593.8863,-217.7571"/>
<polygon fill="#191970" stroke="#191970" points="548.6117,-228.2449 550.1137,-217.7571 542.3992,-225.0192 548.6117,-228.2449"/>
</g>
<!-- Node2099&#45;&gt;Node2100 -->
<g id="edge34" class="edge">
<title>Node2099&#45;&gt;Node2100</title>
<path fill="none" stroke="#191970" d="M435.4114,-254.7372C450.8532,-212.7932 488.9962,-115.3243 517,-95 542.6975,-76.3495 632.0358,-69.5751 682.1768,-67.2065"/>
<polygon fill="#191970" stroke="#191970" points="432.0473,-253.747 431.9166,-264.341 438.6253,-256.1408 432.0473,-253.747"/>
</g>
<!-- Node3066&#45;&gt;Node2100 -->
<g id="edge36" class="edge">
<title>Node3066&#45;&gt;Node2100</title>
<path fill="none" stroke="#191970" d="M445.7909,-106.2614C462.4776,-91.3668 489.2337,-70.6422 517,-62 572.8748,-44.6092 641.8419,-51.8447 682.4598,-58.8225"/>
<polygon fill="#191970" stroke="#191970" points="443.0052,-104.0696 438.0307,-113.424 447.7529,-109.2135 443.0052,-104.0696"/>
</g>
</g>
</svg>
