<?xml version="1.0" encoding="UTF-8" standalone="no"?>
<!DOCTYPE svg PUBLIC "-//W3C//DTD SVG 1.1//EN"
 "http://www.w3.org/Graphics/SVG/1.1/DTD/svg11.dtd">
<!-- Generated by graphviz version 2.40.1 (20161225.0304)
 -->
<!-- Title: dl_module_instance_data_alloc Pages: 1 -->
<!--zoomable 258 -->
<svg id="main" version="1.1" xmlns="http://www.w3.org/2000/svg" xmlns:xlink="http://www.w3.org/1999/xlink" xml:space="preserve" onload="init(evt)">
<style type="text/css"><![CDATA[
.edge:hover path { stroke: red; }
.edge:hover polygon { stroke: red; fill: red; }
]]></style>
<script type="text/javascript"><![CDATA[
var edges = document.getElementsByTagName('g');
if (edges && edges.length) {
  for (var i=0;i<edges.length;i++) {
    if (edges[i].id.substr(0,4)=='edge') {
      edges[i].setAttribute('class','edge');
    }
  }
}
]]></script>
        <defs>
                <circle id="rim" cx="0" cy="0" r="7"/>
                <circle id="rim2" cx="0" cy="0" r="3.5"/>
                <g id="zoomPlus">
                        <use xlink:href="#rim" fill="#404040">
                                <set attributeName="fill" to="#808080" begin="zoomplus.mouseover" end="zoomplus.mouseout"/>
                        </use>
                        <path d="M-4,0h8M0,-4v8" fill="none" stroke="white" stroke-width="1.5" pointer-events="none"/>
                </g>
                <g id="zoomMin">
                        <use xlink:href="#rim" fill="#404040">
                                <set attributeName="fill" to="#808080" begin="zoomminus.mouseover" end="zoomminus.mouseout"/>
                        </use>
                        <path d="M-4,0h8" fill="none" stroke="white" stroke-width="1.5" pointer-events="none"/>
                </g>
                <g id="dirArrow">
                        <path fill="none" stroke="white" stroke-width="1.5" d="M0,-3.0v7 M-2.5,-0.5L0,-3.0L2.5,-0.5"/>
                </g>
               <g id="resetDef">
                       <use xlink:href="#rim2" fill="#404040">
                               <set attributeName="fill" to="#808080" begin="reset.mouseover" end="reset.mouseout"/>
                       </use>
               </g>
        </defs>

<script type="text/javascript">
var viewWidth = 632;
var viewHeight = 258;
var sectionId = 'dynsection-21';
</script>
<script xlink:href="svgpan.js"/>
<svg id="graph" class="graph">
<g id="viewport">
<title>dl_module_instance_data_alloc</title>
<!-- Node948 -->
<g id="node1" class="node">
<title>Node948</title>
<polygon fill="#bfbfbf" stroke="#000000" points="0,-102 0,-132 103,-132 103,-102 0,-102"/>
<text text-anchor="start" x="8" y="-120" font-family="Helvetica,sans-Serif" font-size="10.00" fill="#000000">dl_module_instance</text>
<text text-anchor="middle" x="51.5" y="-109" font-family="Helvetica,sans-Serif" font-size="10.00" fill="#000000">_data_alloc</text>
</g>
<!-- Node949 -->
<g id="node2" class="node">
<title>Node949</title>
<g id="a_node2"><a xlink:href="dl__module_8h.html#aa1bd4828b535a4b5b1c526ebf81875c5" target="_top" xlink:title="Load a module and parse its CONF_SECTION in one operation. ">
<polygon fill="none" stroke="#000000" points="139,-107.5 139,-126.5 242,-126.5 242,-107.5 139,-107.5"/>
<text text-anchor="middle" x="190.5" y="-114.5" font-family="Helvetica,sans-Serif" font-size="10.00" fill="#000000">dl_module_instance</text>
</a>
</g>
</g>
<!-- Node948&#45;&gt;Node949 -->
<g id="edge1" class="edge">
<title>Node948&#45;&gt;Node949</title>
<path fill="none" stroke="#191970" d="M113.4413,-117C121.8784,-117 130.4658,-117 138.6983,-117"/>
<polygon fill="#191970" stroke="#191970" points="113.2585,-113.5001 103.2585,-117 113.2584,-120.5001 113.2585,-113.5001"/>
</g>
<!-- Node950 -->
<g id="node3" class="node">
<title>Node950</title>
<g id="a_node3"><a xlink:href="master_8c.html#a78974fe08a590cc694792695a41e1d63" target="_top" xlink:title="Create a new connection. ">
<polygon fill="none" stroke="#000000" points="278,-202.5 278,-221.5 391,-221.5 391,-202.5 278,-202.5"/>
<text text-anchor="middle" x="334.5" y="-209.5" font-family="Helvetica,sans-Serif" font-size="10.00" fill="#000000">fr_io_connection_alloc</text>
</a>
</g>
</g>
<!-- Node949&#45;&gt;Node950 -->
<g id="edge2" class="edge">
<title>Node949&#45;&gt;Node950</title>
<path fill="none" stroke="#191970" d="M206.1812,-134.077C222.625,-151.0936 249.9355,-176.9391 278,-193 284.467,-196.701 291.7656,-199.8231 298.9164,-202.3992"/>
<polygon fill="#191970" stroke="#191970" points="208.441,-131.3729 199.026,-126.5142 203.3561,-136.1837 208.441,-131.3729"/>
</g>
<!-- Node953 -->
<g id="node6" class="node">
<title>Node953</title>
<g id="a_node6"><a xlink:href="master_8c.html#ab753523f0291415581707a027a115b73" target="_top" xlink:title="mod_bootstrap">
<polygon fill="none" stroke="#000000" points="294,-164.5 294,-183.5 375,-183.5 375,-164.5 294,-164.5"/>
<text text-anchor="middle" x="334.5" y="-171.5" font-family="Helvetica,sans-Serif" font-size="10.00" fill="#000000">mod_bootstrap</text>
</a>
</g>
</g>
<!-- Node949&#45;&gt;Node953 -->
<g id="edge5" class="edge">
<title>Node949&#45;&gt;Node953</title>
<path fill="none" stroke="#191970" d="M220.4513,-130.7613C237.2292,-138.2789 258.6165,-147.5474 278,-155 286.5003,-158.2682 295.8329,-161.5346 304.4212,-164.4143"/>
<polygon fill="#191970" stroke="#191970" points="221.7097,-127.4893 211.1553,-126.5643 218.8293,-133.8692 221.7097,-127.4893"/>
</g>
<!-- Node954 -->
<g id="node7" class="node">
<title>Node954</title>
<g id="a_node7"><a xlink:href="server_2module_8h.html#aef81a1ae07b59ec483a5f06a7d6f2dff" target="_top" xlink:title="Bootstrap a module. ">
<polygon fill="none" stroke="#000000" points="287.5,-126.5 287.5,-145.5 381.5,-145.5 381.5,-126.5 287.5,-126.5"/>
<text text-anchor="middle" x="334.5" y="-133.5" font-family="Helvetica,sans-Serif" font-size="10.00" fill="#000000">module_bootstrap</text>
</a>
</g>
</g>
<!-- Node949&#45;&gt;Node954 -->
<g id="edge6" class="edge">
<title>Node949&#45;&gt;Node954</title>
<path fill="none" stroke="#191970" d="M252.2221,-125.1439C263.9067,-126.6856 275.96,-128.276 287.1168,-129.7481"/>
<polygon fill="#191970" stroke="#191970" points="252.4525,-121.644 242.0806,-123.8058 251.5368,-128.5839 252.4525,-121.644"/>
</g>
<!-- Node959 -->
<g id="node11" class="node">
<title>Node959</title>
<g id="a_node11"><a xlink:href="virtual__servers_8c.html#a694832e671ab4169538cb29558541f7f" target="_top" xlink:title="dl_open a proto_* module ">
<polygon fill="none" stroke="#000000" points="300,-88.5 300,-107.5 369,-107.5 369,-88.5 300,-88.5"/>
<text text-anchor="middle" x="334.5" y="-95.5" font-family="Helvetica,sans-Serif" font-size="10.00" fill="#000000">listen_parse</text>
</a>
</g>
</g>
<!-- Node949&#45;&gt;Node959 -->
<g id="edge10" class="edge">
<title>Node949&#45;&gt;Node959</title>
<path fill="none" stroke="#191970" d="M252.1404,-108.8669C268.4983,-106.7086 285.5847,-104.4541 299.9268,-102.5617"/>
<polygon fill="#191970" stroke="#191970" points="251.5368,-105.4161 242.0806,-110.1942 252.4525,-112.356 251.5368,-105.4161"/>
</g>
<!-- Node960 -->
<g id="node12" class="node">
<title>Node960</title>
<g id="a_node12"><a xlink:href="virtual__servers_8h.html#a5c3e66738f36881383a7429036f0f6b8" target="_top" xlink:title="fr_app_process_type\l_parse">
<polygon fill="none" stroke="#000000" points="281,-39 281,-69 388,-69 388,-39 281,-39"/>
<text text-anchor="start" x="289" y="-57" font-family="Helvetica,sans-Serif" font-size="10.00" fill="#000000">fr_app_process_type</text>
<text text-anchor="middle" x="334.5" y="-46" font-family="Helvetica,sans-Serif" font-size="10.00" fill="#000000">_parse</text>
</a>
</g>
</g>
<!-- Node949&#45;&gt;Node960 -->
<g id="edge11" class="edge">
<title>Node949&#45;&gt;Node960</title>
<path fill="none" stroke="#191970" d="M221.7084,-103.3463C244.799,-93.2442 276.2429,-79.4875 300.0656,-69.065"/>
<polygon fill="#191970" stroke="#191970" points="220.1292,-100.2169 212.3705,-107.4317 222.935,-106.63 220.1292,-100.2169"/>
</g>
<!-- Node962 -->
<g id="node14" class="node">
<title>Node962</title>
<g id="a_node14"><a xlink:href="proto__control_8c.html#af0a3c13fa86e905734c8bd825cec090b" target="_top" xlink:title="Wrapper around dl_instance. ">
<polygon fill="none" stroke="#000000" points="292.5,-.5 292.5,-19.5 376.5,-19.5 376.5,-.5 292.5,-.5"/>
<text text-anchor="middle" x="334.5" y="-7.5" font-family="Helvetica,sans-Serif" font-size="10.00" fill="#000000">transport_parse</text>
</a>
</g>
</g>
<!-- Node949&#45;&gt;Node962 -->
<g id="edge13" class="edge">
<title>Node949&#45;&gt;Node962</title>
<path fill="none" stroke="#191970" d="M203.9365,-99.1989C219.6868,-79.4699 247.5374,-47.9429 278,-29 284.0639,-25.2292 290.9635,-22.1108 297.8078,-19.5671"/>
<polygon fill="#191970" stroke="#191970" points="200.9733,-97.3072 197.5854,-107.3458 206.494,-101.611 200.9733,-97.3072"/>
</g>
<!-- Node951 -->
<g id="node4" class="node">
<title>Node951</title>
<g id="a_node4"><a xlink:href="master_8c.html#a476d24efc125b68342506847dd091356" target="_top" xlink:title="Implement 99% of the read routines. ">
<polygon fill="none" stroke="#000000" points="447,-230.5 447,-249.5 506,-249.5 506,-230.5 447,-230.5"/>
<text text-anchor="middle" x="476.5" y="-237.5" font-family="Helvetica,sans-Serif" font-size="10.00" fill="#000000">mod_read</text>
</a>
</g>
</g>
<!-- Node950&#45;&gt;Node951 -->
<g id="edge3" class="edge">
<title>Node950&#45;&gt;Node951</title>
<path fill="none" stroke="#191970" d="M392.8427,-223.5042C411.4236,-227.168 431.1996,-231.0675 446.8564,-234.1548"/>
<polygon fill="#191970" stroke="#191970" points="393.4594,-220.0585 382.9712,-221.5577 392.1051,-226.9262 393.4594,-220.0585"/>
</g>
<!-- Node952 -->
<g id="node5" class="node">
<title>Node952</title>
<g id="a_node5"><a xlink:href="master_8c.html#ad8f9c4ad92dff4465dac6c5a99cee2b7" target="_top" xlink:title="mod_write">
<polygon fill="none" stroke="#000000" points="445.5,-192.5 445.5,-211.5 507.5,-211.5 507.5,-192.5 445.5,-192.5"/>
<text text-anchor="middle" x="476.5" y="-199.5" font-family="Helvetica,sans-Serif" font-size="10.00" fill="#000000">mod_write</text>
</a>
</g>
</g>
<!-- Node950&#45;&gt;Node952 -->
<g id="edge4" class="edge">
<title>Node950&#45;&gt;Node952</title>
<path fill="none" stroke="#191970" d="M401.1386,-207.3071C416.6294,-206.2162 432.398,-205.1058 445.4801,-204.1845"/>
<polygon fill="#191970" stroke="#191970" points="400.7596,-203.8251 391.0302,-208.019 401.2514,-210.8078 400.7596,-203.8251"/>
</g>
<!-- Node955 -->
<g id="node8" class="node">
<title>Node955</title>
<g id="a_node8"><a xlink:href="server_2module_8h.html#ac1bf5d14e3657bad818536fed02f07bc" target="_top" xlink:title="Bootstrap modules and virtual modules. ">
<polygon fill="none" stroke="#000000" points="427,-135.5 427,-154.5 526,-154.5 526,-135.5 427,-135.5"/>
<text text-anchor="middle" x="476.5" y="-142.5" font-family="Helvetica,sans-Serif" font-size="10.00" fill="#000000">modules_bootstrap</text>
</a>
</g>
</g>
<!-- Node954&#45;&gt;Node955 -->
<g id="edge7" class="edge">
<title>Node954&#45;&gt;Node955</title>
<path fill="none" stroke="#191970" d="M391.8518,-139.635C403.495,-140.3729 415.6471,-141.1431 426.991,-141.8621"/>
<polygon fill="#191970" stroke="#191970" points="391.9853,-136.1365 381.7839,-138.9969 391.5425,-143.1225 391.9853,-136.1365"/>
</g>
<!-- Node958 -->
<g id="node10" class="node">
<title>Node958</title>
<g id="a_node10"><a xlink:href="rlm__cache_8c.html#a9609ab2a4bc7986ec4f346b365737a42" target="_top" xlink:title="Register module xlats. ">
<polygon fill="none" stroke="#000000" points="436,-97.5 436,-116.5 517,-116.5 517,-97.5 436,-97.5"/>
<text text-anchor="middle" x="476.5" y="-104.5" font-family="Helvetica,sans-Serif" font-size="10.00" fill="#000000">mod_bootstrap</text>
</a>
</g>
</g>
<!-- Node954&#45;&gt;Node958 -->
<g id="edge9" class="edge">
<title>Node954&#45;&gt;Node958</title>
<path fill="none" stroke="#191970" d="M391.499,-124.3594C406.3463,-121.3272 422.0442,-118.1212 435.8545,-115.3008"/>
<polygon fill="#191970" stroke="#191970" points="390.4871,-120.9937 381.3897,-126.4239 391.8878,-127.8521 390.4871,-120.9937"/>
</g>
<!-- Node956 -->
<g id="node9" class="node">
<title>Node956</title>
<g id="a_node9"><a xlink:href="server_2base_8h.html#af0f3978236fa9f6607b8cbb891d9bcc6" target="_top" xlink:title="Initialize src/lib/server/. ">
<polygon fill="none" stroke="#ff0000" points="562,-135.5 562,-154.5 624,-154.5 624,-135.5 562,-135.5"/>
<text text-anchor="middle" x="593" y="-142.5" font-family="Helvetica,sans-Serif" font-size="10.00" fill="#000000">server_init</text>
</a>
</g>
</g>
<!-- Node955&#45;&gt;Node956 -->
<g id="edge8" class="edge">
<title>Node955&#45;&gt;Node956</title>
<path fill="none" stroke="#191970" d="M536.2563,-145C545.1455,-145 553.9879,-145 561.9547,-145"/>
<polygon fill="#191970" stroke="#191970" points="536.2444,-141.5001 526.2444,-145 536.2444,-148.5001 536.2444,-141.5001"/>
</g>
<!-- Node961 -->
<g id="node13" class="node">
<title>Node961</title>
<g id="a_node13"><a xlink:href="proto__detail_8c.html#aeed444a89837d61e432d768434ee46be" target="_top" xlink:title="Wrapper around dl_instance which translates the packet&#45;type into a submodule name. ">
<polygon fill="none" stroke="#000000" points="444,-44.5 444,-63.5 509,-63.5 509,-44.5 444,-44.5"/>
<text text-anchor="middle" x="476.5" y="-51.5" font-family="Helvetica,sans-Serif" font-size="10.00" fill="#000000">type_parse</text>
</a>
</g>
</g>
<!-- Node960&#45;&gt;Node961 -->
<g id="edge12" class="edge">
<title>Node960&#45;&gt;Node961</title>
<path fill="none" stroke="#191970" d="M398.393,-54C414.0802,-54 430.2349,-54 443.7524,-54"/>
<polygon fill="#191970" stroke="#191970" points="398.1841,-50.5001 388.1841,-54 398.1841,-57.5001 398.1841,-50.5001"/>
</g>
</g>
</svg>
        <g id="navigator" transform="translate(0 0)" fill="#404254">
                <rect fill="#f2f5e9" fill-opacity="0.5" stroke="#606060" stroke-width=".5" x="0" y="0" width="60" height="60"/>
                <use id="zoomplus" xlink:href="#zoomPlus" x="17" y="9" onmousedown="handleZoom(evt,'in')"/>
                <use id="zoomminus" xlink:href="#zoomMin" x="42" y="9" onmousedown="handleZoom(evt,'out')"/>
                <use id="reset" xlink:href="#resetDef" x="30" y="36" onmousedown="handleReset()"/>
                <g id="arrowUp" xlink:href="#dirArrow" transform="translate(30 24)" onmousedown="handlePan(0,-1)">
                  <use xlink:href="#rim" fill="#404040">
                        <set attributeName="fill" to="#808080" begin="arrowUp.mouseover" end="arrowUp.mouseout"/>
                  </use>
                  <path fill="none" stroke="white" stroke-width="1.5" d="M0,-3.0v7 M-2.5,-0.5L0,-3.0L2.5,-0.5"/>
                </g>
                <g id="arrowRight" xlink:href="#dirArrow" transform="rotate(90) translate(36 -43)" onmousedown="handlePan(1,0)">
                  <use xlink:href="#rim" fill="#404040">
                        <set attributeName="fill" to="#808080" begin="arrowRight.mouseover" end="arrowRight.mouseout"/>
                  </use>
                  <path fill="none" stroke="white" stroke-width="1.5" d="M0,-3.0v7 M-2.5,-0.5L0,-3.0L2.5,-0.5"/>
                </g>
                <g id="arrowDown" xlink:href="#dirArrow" transform="rotate(180) translate(-30 -48)" onmousedown="handlePan(0,1)">
                  <use xlink:href="#rim" fill="#404040">
                        <set attributeName="fill" to="#808080" begin="arrowDown.mouseover" end="arrowDown.mouseout"/>
                  </use>
                  <path fill="none" stroke="white" stroke-width="1.5" d="M0,-3.0v7 M-2.5,-0.5L0,-3.0L2.5,-0.5"/>
                </g>
                <g id="arrowLeft" xlink:href="#dirArrow" transform="rotate(270) translate(-36 17)" onmousedown="handlePan(-1,0)">
                  <use xlink:href="#rim" fill="#404040">
                        <set attributeName="fill" to="#808080" begin="arrowLeft.mouseover" end="arrowLeft.mouseout"/>
                  </use>
                  <path fill="none" stroke="white" stroke-width="1.5" d="M0,-3.0v7 M-2.5,-0.5L0,-3.0L2.5,-0.5"/>
                </g>
        </g>
        <svg viewBox="0 0 15 15" width="100%" height="30px" preserveAspectRatio="xMaxYMin meet">
         <g id="arrow_out" transform="scale(0.3 0.3)">
          <a xlink:href="dl__module_8c_a8050091c8dbf7b8f6143564a03643a57_icgraph_org.svg" target="_base">
           <rect id="button" ry="5" rx="5" y="6" x="6" height="38" width="38"
                fill="#f2f5e9" fill-opacity="0.5" stroke="#606060" stroke-width="1.0"/>
           <path id="arrow"
             d="M 11.500037,31.436501 C 11.940474,20.09759 22.043105,11.32322 32.158766,21.979434 L 37.068811,17.246167 C 37.068811,17.246167 37.088388,32 37.088388,32 L 22.160133,31.978069 C 22.160133,31.978069 26.997745,27.140456 26.997745,27.140456 C 18.528582,18.264221 13.291696,25.230495 11.500037,31.436501 z"
             style="fill:#404040;"/>
          </a>
         </g>
        </svg>
</svg>
