<?xml version="1.0" encoding="UTF-8" standalone="no"?>
<!DOCTYPE svg PUBLIC "-//W3C//DTD SVG 1.1//EN"
 "http://www.w3.org/Graphics/SVG/1.1/DTD/svg11.dtd">
<!-- Generated by graphviz version 2.40.1 (20161225.0304)
 -->
<!-- Title: dl_module_onload_func Pages: 1 -->
<svg width="1048pt" height="686pt"
 viewBox="0.00 0.00 1048.00 685.50" xmlns="http://www.w3.org/2000/svg" xmlns:xlink="http://www.w3.org/1999/xlink">
<g id="graph0" class="graph" transform="scale(1 1) rotate(0) translate(4 681.5)">
<title>dl_module_onload_func</title>
<!-- Node1248 -->
<g id="node1" class="node">
<title>Node1248</title>
<polygon fill="#bfbfbf" stroke="#000000" points="0,-167.5 0,-186.5 119,-186.5 119,-167.5 0,-167.5"/>
<text text-anchor="middle" x="59.5" y="-174.5" font-family="Helvetica,sans-Serif" font-size="10.00" fill="#000000">dl_module_onload_func</text>
</g>
<!-- Node1249 -->
<g id="node2" class="node">
<title>Node1249</title>
<g id="a_node2"><a xlink:href="dl__module_8c.html#ad09c733ccf85868778b6c56590198959" target="_top" xlink:title="Load a module library using dlopen() or return a previously loaded module from the cache...">
<polygon fill="none" stroke="#000000" points="155,-437.5 155,-456.5 216,-456.5 216,-437.5 155,-437.5"/>
<text text-anchor="middle" x="185.5" y="-444.5" font-family="Helvetica,sans-Serif" font-size="10.00" fill="#000000">dl_module</text>
</a>
</g>
</g>
<!-- Node1248&#45;&gt;Node1249 -->
<g id="edge1" class="edge">
<title>Node1248&#45;&gt;Node1249</title>
<path fill="none" stroke="#191970" d="M63.9844,-186.6094C82.3146,-225.8884 151.747,-374.6721 176.5916,-427.9105"/>
<polygon fill="#191970" stroke="#191970" points="173.5371,-429.6418 180.9377,-437.2235 179.8804,-426.6816 173.5371,-429.6418"/>
</g>
<!-- Node1266 -->
<g id="node14" class="node">
<title>Node1266</title>
<g id="a_node14"><a xlink:href="strerror_8c.html#a83ee876ee41b1ae672dc4dcda4f02a2e" target="_top" xlink:title="Get the last library error. ">
<polygon fill="none" stroke="#000000" points="431,-76.5 431,-95.5 490,-95.5 490,-76.5 431,-76.5"/>
<text text-anchor="middle" x="460.5" y="-83.5" font-family="Helvetica,sans-Serif" font-size="10.00" fill="#000000">fr_strerror</text>
</a>
</g>
</g>
<!-- Node1248&#45;&gt;Node1266 -->
<g id="edge51" class="edge">
<title>Node1248&#45;&gt;Node1266</title>
<path fill="none" stroke="#191970" d="M101.6561,-167.4334C179.5329,-149.7606 344.9126,-112.2306 420.86,-94.9956"/>
<polygon fill="#191970" stroke="#191970" points="421.9871,-98.3289 430.9646,-92.7026 420.4379,-91.5025 421.9871,-98.3289"/>
</g>
<!-- Node1249&#45;&gt;Node1249 -->
<g id="edge2" class="edge">
<title>Node1249&#45;&gt;Node1249</title>
<path fill="none" stroke="#191970" d="M166.0797,-456.7571C156.632,-465.5653 163.1055,-475 185.5,-475 199.8465,-475 207.659,-471.128 208.9374,-466.0292"/>
<polygon fill="#191970" stroke="#191970" points="212.1073,-464.5415 204.9203,-456.7571 205.6842,-467.3243 212.1073,-464.5415"/>
</g>
<!-- Node1250 -->
<g id="node3" class="node">
<title>Node1250</title>
<g id="a_node3"><a xlink:href="talloc_8c.html#aba1ce57098bd0d4f569907465358cff2" target="_top" xlink:title="Call talloc vasprintf, setting the type on the new chunk correctly. ">
<polygon fill="none" stroke="#000000" points="685,-456.5 685,-475.5 792,-475.5 792,-456.5 685,-456.5"/>
<text text-anchor="middle" x="738.5" y="-463.5" font-family="Helvetica,sans-Serif" font-size="10.00" fill="#000000">talloc_typed_asprintf</text>
</a>
</g>
</g>
<!-- Node1249&#45;&gt;Node1250 -->
<g id="edge3" class="edge">
<title>Node1249&#45;&gt;Node1250</title>
<path fill="none" stroke="#191970" d="M206.2655,-456.604C245.1958,-474.0204 332.2478,-510.1962 410,-523 514.8106,-540.2597 547.0193,-552.7169 649,-523 676.1097,-515.1003 702.8416,-496.2257 719.9292,-482.3508"/>
<polygon fill="#191970" stroke="#191970" points="722.5235,-484.743 727.9367,-475.6354 718.0254,-479.3795 722.5235,-484.743"/>
</g>
<!-- Node1253 -->
<g id="node6" class="node">
<title>Node1253</title>
<g id="a_node6"><a xlink:href="rbtree_8c.html#ac6772a18f3e04b23f71ad7994c7587ed" target="_top" xlink:title="Find an element in the tree, returning the data, not the node. ">
<polygon fill="none" stroke="#000000" points="420,-570.5 420,-589.5 501,-589.5 501,-570.5 420,-570.5"/>
<text text-anchor="middle" x="460.5" y="-577.5" font-family="Helvetica,sans-Serif" font-size="10.00" fill="#000000">rbtree_finddata</text>
</a>
</g>
</g>
<!-- Node1249&#45;&gt;Node1253 -->
<g id="edge6" class="edge">
<title>Node1249&#45;&gt;Node1253</title>
<path fill="none" stroke="#191970" d="M188.1911,-456.6086C194.8738,-478.4927 214.459,-532.0011 252,-556 299.1367,-586.1332 364.7328,-588.7539 409.6898,-586.0248"/>
<polygon fill="#191970" stroke="#191970" points="410.0772,-589.5061 419.8013,-585.3001 409.5767,-582.524 410.0772,-589.5061"/>
</g>
<!-- Node1255 -->
<g id="node8" class="node">
<title>Node1255</title>
<g id="a_node8"><a xlink:href="dl__module_8c.html#a5138c7966f429f014e22765daa7c4376" target="_top" xlink:title="Decrement the reference count of the dl, eventually freeing it. ">
<polygon fill="none" stroke="#000000" points="269,-646.5 269,-665.5 357,-665.5 357,-646.5 269,-646.5"/>
<text text-anchor="middle" x="313" y="-653.5" font-family="Helvetica,sans-Serif" font-size="10.00" fill="#000000">_dl_module_free</text>
</a>
</g>
</g>
<!-- Node1249&#45;&gt;Node1255 -->
<g id="edge8" class="edge">
<title>Node1249&#45;&gt;Node1255</title>
<path fill="none" stroke="#191970" d="M185.9664,-456.9037C187.9767,-488.0946 198.4574,-585.285 252,-637 254.3935,-639.3118 257.0637,-641.3427 259.9129,-643.1267"/>
<polygon fill="#191970" stroke="#191970" points="258.4094,-646.2895 268.8999,-647.7726 261.624,-640.0712 258.4094,-646.2895"/>
</g>
<!-- Node1265 -->
<g id="node13" class="node">
<title>Node1265</title>
<g id="a_node13"><a xlink:href="dl_8c.html#a43ea4ea3db862973be17a6d3b5774458" target="_top" xlink:title="Search for a dl&#39;s shared object in various locations. ">
<polygon fill="none" stroke="#000000" points="278.5,-323.5 278.5,-342.5 347.5,-342.5 347.5,-323.5 278.5,-323.5"/>
<text text-anchor="middle" x="313" y="-330.5" font-family="Helvetica,sans-Serif" font-size="10.00" fill="#000000">dl_by_name</text>
</a>
</g>
</g>
<!-- Node1249&#45;&gt;Node1265 -->
<g id="edge14" class="edge">
<title>Node1249&#45;&gt;Node1265</title>
<path fill="none" stroke="#191970" d="M196.3706,-437.2804C218.2006,-417.7618 267.5824,-373.6087 294.5594,-349.4881"/>
<polygon fill="#191970" stroke="#191970" points="297.0351,-351.9695 302.1569,-342.695 292.3693,-346.7512 297.0351,-351.9695"/>
</g>
<!-- Node1403 -->
<g id="node30" class="node">
<title>Node1403</title>
<g id="a_node30"><a xlink:href="rbtree_8c.html#a79839e37a71b50c3d31a875351cc0a87" target="_top" xlink:title="rbtree_insert">
<polygon fill="none" stroke="#000000" points="425,-114.5 425,-133.5 496,-133.5 496,-114.5 425,-114.5"/>
<text text-anchor="middle" x="460.5" y="-121.5" font-family="Helvetica,sans-Serif" font-size="10.00" fill="#000000">rbtree_insert</text>
</a>
</g>
</g>
<!-- Node1249&#45;&gt;Node1403 -->
<g id="edge50" class="edge">
<title>Node1249&#45;&gt;Node1403</title>
<path fill="none" stroke="#191970" d="M185.8469,-437.498C187.5213,-404.6843 197.1635,-294.5584 252,-229 294.4837,-178.2097 367.6629,-149.4818 415.0544,-135.3426"/>
<polygon fill="#191970" stroke="#191970" points="416.1173,-138.6788 424.7555,-132.5442 414.1772,-131.953 416.1173,-138.6788"/>
</g>
<!-- Node1406 -->
<g id="node32" class="node">
<title>Node1406</title>
<g id="a_node32"><a xlink:href="dl_8c.html#abfcd6e4b4799910b175c7a2df1002ae8" target="_top" xlink:title="Walk over the registered init callbacks, searching for the symbols they depend on. ">
<polygon fill="none" stroke="#000000" points="421,-190.5 421,-209.5 500,-209.5 500,-190.5 421,-190.5"/>
<text text-anchor="middle" x="460.5" y="-197.5" font-family="Helvetica,sans-Serif" font-size="10.00" fill="#000000">dl_symbol_init</text>
</a>
</g>
</g>
<!-- Node1249&#45;&gt;Node1406 -->
<g id="edge49" class="edge">
<title>Node1249&#45;&gt;Node1406</title>
<path fill="none" stroke="#191970" d="M188.2945,-437.2049C195.4487,-413.5585 216.4107,-352.4679 252,-314 299.2439,-262.9348 374.7137,-229.68 420.7262,-212.9286"/>
<polygon fill="#191970" stroke="#191970" points="422.105,-216.1531 430.3562,-209.5072 419.7615,-209.557 422.105,-216.1531"/>
</g>
<!-- Node1407 -->
<g id="node33" class="node">
<title>Node1407</title>
<g id="a_node33"><a xlink:href="dl__module_8c.html#a59126736bd5e34ccaa517d22343c75ef" target="_top" xlink:title="Check if the magic number in the module matches the one in the library. ">
<polygon fill="none" stroke="#000000" points="252,-608.5 252,-627.5 374,-627.5 374,-608.5 252,-608.5"/>
<text text-anchor="middle" x="313" y="-615.5" font-family="Helvetica,sans-Serif" font-size="10.00" fill="#000000">dl_module_magic_verify</text>
</a>
</g>
</g>
<!-- Node1249&#45;&gt;Node1407 -->
<g id="edge48" class="edge">
<title>Node1249&#45;&gt;Node1407</title>
<path fill="none" stroke="#191970" d="M187.2588,-456.7028C192.4382,-482.5899 209.9884,-554.0378 252,-594 256.1229,-597.9218 260.9623,-601.2271 266.0809,-604.0073"/>
<polygon fill="#191970" stroke="#191970" points="264.9655,-607.3515 275.5018,-608.464 267.959,-601.0238 264.9655,-607.3515"/>
</g>
<!-- Node1251 -->
<g id="node4" class="node">
<title>Node1251</title>
<g id="a_node4"><a xlink:href="acutest_8h.html#aecf9a9be8105efb1454cd8c1ef6cb1c5" target="_top" xlink:title="va_start">
<polygon fill="none" stroke="#000000" points="847.5,-237.5 847.5,-256.5 899.5,-256.5 899.5,-237.5 847.5,-237.5"/>
<text text-anchor="middle" x="873.5" y="-244.5" font-family="Helvetica,sans-Serif" font-size="10.00" fill="#000000">va_start</text>
</a>
</g>
</g>
<!-- Node1250&#45;&gt;Node1251 -->
<g id="edge4" class="edge">
<title>Node1250&#45;&gt;Node1251</title>
<path fill="none" stroke="#191970" d="M744.475,-456.3073C765.2976,-422.5284 834.8851,-309.642 862.2809,-265.1999"/>
<polygon fill="#191970" stroke="#191970" points="865.3259,-266.93 867.594,-256.5808 859.3671,-263.2568 865.3259,-266.93"/>
</g>
<!-- Node1252 -->
<g id="node5" class="node">
<title>Node1252</title>
<g id="a_node5"><a xlink:href="acutest_8h.html#a36af1f79dd6adf0809c21e76535034d5" target="_top" xlink:title="va_end">
<polygon fill="none" stroke="#000000" points="973.5,-180.5 973.5,-199.5 1021.5,-199.5 1021.5,-180.5 973.5,-180.5"/>
<text text-anchor="middle" x="997.5" y="-187.5" font-family="Helvetica,sans-Serif" font-size="10.00" fill="#000000">va_end</text>
</a>
</g>
</g>
<!-- Node1250&#45;&gt;Node1252 -->
<g id="edge5" class="edge">
<title>Node1250&#45;&gt;Node1252</title>
<path fill="none" stroke="#191970" d="M747.4154,-456.4995C785.1571,-416.2805 932.0939,-259.6991 981.3235,-207.2382"/>
<polygon fill="#191970" stroke="#191970" points="984.0633,-209.4335 988.354,-199.7463 978.9588,-204.6434 984.0633,-209.4335"/>
</g>
<!-- Node1254 -->
<g id="node7" class="node">
<title>Node1254</title>
<g id="a_node7"><a xlink:href="rbtree_8c.html#a42e213e269dd59ffb2e993bbd25e4336" target="_top" xlink:title="rbtree_find">
<polygon fill="none" stroke="#000000" points="707.5,-608.5 707.5,-627.5 769.5,-627.5 769.5,-608.5 707.5,-608.5"/>
<text text-anchor="middle" x="738.5" y="-615.5" font-family="Helvetica,sans-Serif" font-size="10.00" fill="#000000">rbtree_find</text>
</a>
</g>
</g>
<!-- Node1253&#45;&gt;Node1254 -->
<g id="edge7" class="edge">
<title>Node1253&#45;&gt;Node1254</title>
<path fill="none" stroke="#191970" d="M499.4998,-589.5851C514.3021,-592.9541 531.3595,-596.5152 547,-599 598.2726,-607.1458 657.8575,-612.4031 696.7727,-615.2773"/>
<polygon fill="#191970" stroke="#191970" points="696.9514,-618.799 707.1766,-616.0251 697.4533,-611.8171 696.9514,-618.799"/>
</g>
<!-- Node1256 -->
<g id="node9" class="node">
<title>Node1256</title>
<g id="a_node9"><a xlink:href="rbtree_8c.html#a590147ec2ecdd6434a58eeff49e201a4" target="_top" xlink:title="Delete a node from the tree, based on given data, which MUST have come from rbtree_finddata(). ">
<polygon fill="none" stroke="#000000" points="547,-570.5 547,-589.5 649,-589.5 649,-570.5 547,-570.5"/>
<text text-anchor="middle" x="598" y="-577.5" font-family="Helvetica,sans-Serif" font-size="10.00" fill="#000000">rbtree_deletebydata</text>
</a>
</g>
</g>
<!-- Node1255&#45;&gt;Node1256 -->
<g id="edge9" class="edge">
<title>Node1255&#45;&gt;Node1256</title>
<path fill="none" stroke="#191970" d="M348.8069,-646.4515C400.4254,-632.6866 495.7471,-607.2674 552.3554,-592.1719"/>
<polygon fill="#191970" stroke="#191970" points="553.3549,-595.5277 562.1154,-589.5692 551.5512,-588.7641 553.3549,-595.5277"/>
</g>
<!-- Node1263 -->
<g id="node11" class="node">
<title>Node1263</title>
<g id="a_node11"><a xlink:href="dl_8c.html#ab38470b4b0b536d1e4ec4cee55ff2f2d" target="_top" xlink:title="&quot;free&quot; a dl handle, possibly actually freeing it, and unloading the library ">
<polygon fill="none" stroke="#000000" points="437.5,-651.5 437.5,-670.5 483.5,-670.5 483.5,-651.5 437.5,-651.5"/>
<text text-anchor="middle" x="460.5" y="-658.5" font-family="Helvetica,sans-Serif" font-size="10.00" fill="#000000">dl_free</text>
</a>
</g>
</g>
<!-- Node1255&#45;&gt;Node1263 -->
<g id="edge12" class="edge">
<title>Node1255&#45;&gt;Node1263</title>
<path fill="none" stroke="#191970" d="M357.2549,-657.5002C379.6559,-658.2595 406.4037,-659.1662 427.0609,-659.8665"/>
<polygon fill="#191970" stroke="#191970" points="427.1399,-663.3711 437.2528,-660.212 427.3771,-656.3751 427.1399,-663.3711"/>
</g>
<!-- Node1256&#45;&gt;Node1254 -->
<g id="edge10" class="edge">
<title>Node1256&#45;&gt;Node1254</title>
<path fill="none" stroke="#191970" d="M633.4541,-589.589C652.9263,-594.8555 677.1702,-601.4126 697.4593,-606.9"/>
<polygon fill="#191970" stroke="#191970" points="696.7951,-610.3461 707.3621,-609.5784 698.6227,-603.5889 696.7951,-610.3461"/>
</g>
<!-- Node1257 -->
<g id="node10" class="node">
<title>Node1257</title>
<g id="a_node10"><a xlink:href="rbtree_8c.html#a78c07808d0a90337099b2967a774cb74" target="_top" xlink:title="rbtree_delete">
<polygon fill="none" stroke="#ff0000" points="702,-570.5 702,-589.5 775,-589.5 775,-570.5 702,-570.5"/>
<text text-anchor="middle" x="738.5" y="-577.5" font-family="Helvetica,sans-Serif" font-size="10.00" fill="#000000">rbtree_delete</text>
</a>
</g>
</g>
<!-- Node1256&#45;&gt;Node1257 -->
<g id="edge11" class="edge">
<title>Node1256&#45;&gt;Node1257</title>
<path fill="none" stroke="#191970" d="M649.1212,-580C663.0015,-580 677.9604,-580 691.5954,-580"/>
<polygon fill="#191970" stroke="#191970" points="691.7244,-583.5001 701.7244,-580 691.7243,-576.5001 691.7244,-583.5001"/>
</g>
<!-- Node1264 -->
<g id="node12" class="node">
<title>Node1264</title>
<g id="a_node12"><a xlink:href="talloc_8c.html#acd906ed444eee3d5ec85f4f31a034c7e" target="_top" xlink:title="Decrease the reference count on a ptr. ">
<polygon fill="none" stroke="#000000" points="547.5,-647 547.5,-677 648.5,-677 648.5,-647 547.5,-647"/>
<text text-anchor="start" x="555.5" y="-665" font-family="Helvetica,sans-Serif" font-size="10.00" fill="#000000">talloc_decrease_ref</text>
<text text-anchor="middle" x="598" y="-654" font-family="Helvetica,sans-Serif" font-size="10.00" fill="#000000">_count</text>
</a>
</g>
</g>
<!-- Node1263&#45;&gt;Node1264 -->
<g id="edge13" class="edge">
<title>Node1263&#45;&gt;Node1264</title>
<path fill="none" stroke="#191970" d="M483.5144,-661.1674C498.2897,-661.2748 518.223,-661.4198 537.315,-661.5587"/>
<polygon fill="#191970" stroke="#191970" points="537.4673,-665.0598 547.4925,-661.6327 537.5183,-658.0599 537.4673,-665.0598"/>
</g>
<!-- Node1265&#45;&gt;Node1250 -->
<g id="edge23" class="edge">
<title>Node1265&#45;&gt;Node1250</title>
<path fill="none" stroke="#191970" d="M319.3723,-342.7374C333.1504,-362.8667 367.8938,-408.858 410,-429 494.9478,-469.6359 605.9485,-473.3817 674.7106,-470.8323"/>
<polygon fill="#191970" stroke="#191970" points="675.1158,-474.3183 684.9571,-470.3941 674.8166,-467.3247 675.1158,-474.3183"/>
</g>
<!-- Node1265&#45;&gt;Node1253 -->
<g id="edge15" class="edge">
<title>Node1265&#45;&gt;Node1253</title>
<path fill="none" stroke="#191970" d="M316.8565,-342.5638C328.6253,-371.2284 365.9708,-458.4378 410,-523 419.8303,-537.4147 432.9455,-552.1151 443.3466,-562.9761"/>
<polygon fill="#191970" stroke="#191970" points="440.8621,-565.4414 450.3547,-570.147 445.8684,-560.5488 440.8621,-565.4414"/>
</g>
<!-- Node1265&#45;&gt;Node1266 -->
<g id="edge16" class="edge">
<title>Node1265&#45;&gt;Node1266</title>
<path fill="none" stroke="#191970" d="M314.3757,-323.2349C319.7707,-288.5032 342.6103,-169.5921 410,-105 413.3623,-101.7773 417.3234,-99.0897 421.5239,-96.851"/>
<polygon fill="#191970" stroke="#191970" points="423.2603,-99.9087 430.9623,-92.6334 420.4044,-93.5177 423.2603,-99.9087"/>
</g>
<!-- Node1271 -->
<g id="node18" class="node">
<title>Node1271</title>
<g id="a_node18"><a xlink:href="dl_8c.html#a7fb6d5d7f69139f8fc5823aa913fa4f6" target="_top" xlink:title="Return current library path. ">
<polygon fill="none" stroke="#000000" points="419,-304.5 419,-323.5 502,-323.5 502,-304.5 419,-304.5"/>
<text text-anchor="middle" x="460.5" y="-311.5" font-family="Helvetica,sans-Serif" font-size="10.00" fill="#000000">dl_search_path</text>
</a>
</g>
</g>
<!-- Node1265&#45;&gt;Node1271 -->
<g id="edge20" class="edge">
<title>Node1265&#45;&gt;Node1271</title>
<path fill="none" stroke="#191970" d="M347.5822,-328.5453C365.7929,-326.1996 388.4921,-323.2756 408.7525,-320.6658"/>
<polygon fill="#191970" stroke="#191970" points="409.3084,-324.1232 418.7793,-319.3742 408.414,-317.1805 409.3084,-324.1232"/>
</g>
<!-- Node1272 -->
<g id="node19" class="node">
<title>Node1272</title>
<g id="a_node19"><a xlink:href="talloc_8c.html#a3536feb85c89aa239851ef0830b72e64" target="_top" xlink:title="Call talloc_strdup, setting the type on the new chunk correctly. ">
<polygon fill="none" stroke="#000000" points="410,-266.5 410,-285.5 511,-285.5 511,-266.5 410,-266.5"/>
<text text-anchor="middle" x="460.5" y="-273.5" font-family="Helvetica,sans-Serif" font-size="10.00" fill="#000000">talloc_typed_strdup</text>
</a>
</g>
</g>
<!-- Node1265&#45;&gt;Node1272 -->
<g id="edge21" class="edge">
<title>Node1265&#45;&gt;Node1272</title>
<path fill="none" stroke="#191970" d="M337.2815,-323.3827C356.8805,-315.6453 385.1798,-304.5303 410,-295 414.9559,-293.0971 420.1924,-291.1055 425.3424,-289.1579"/>
<polygon fill="#191970" stroke="#191970" points="426.9201,-292.3036 435.0429,-285.5014 424.4511,-285.7535 426.9201,-292.3036"/>
</g>
<!-- Node1273 -->
<g id="node20" class="node">
<title>Node1273</title>
<g id="a_node20"><a xlink:href="missing_8c.html#af0f65c8f8f7687f337cc8177c7c90d02" target="_top" xlink:title="strsep">
<polygon fill="none" stroke="#000000" points="438.5,-228.5 438.5,-247.5 482.5,-247.5 482.5,-228.5 438.5,-228.5"/>
<text text-anchor="middle" x="460.5" y="-235.5" font-family="Helvetica,sans-Serif" font-size="10.00" fill="#000000">strsep</text>
</a>
</g>
</g>
<!-- Node1265&#45;&gt;Node1273 -->
<g id="edge22" class="edge">
<title>Node1265&#45;&gt;Node1273</title>
<path fill="none" stroke="#191970" d="M330.8895,-323.4695C343.495,-316.3773 360.47,-306.0484 374,-295 392.0198,-280.2853 390.6188,-269.8687 410,-257 415.6334,-253.2596 422.1052,-250.1179 428.4946,-247.5346"/>
<polygon fill="#191970" stroke="#191970" points="430.1496,-250.6558 438.3351,-243.9291 427.7414,-244.0831 430.1496,-250.6558"/>
</g>
<!-- Node1274 -->
<g id="node21" class="node">
<title>Node1274</title>
<g id="a_node21"><a xlink:href="strerror_8c.html#ae701765650b8aea79a3037bc4921d7f8" target="_top" xlink:title="Log to thread local error buffer. ">
<polygon fill="none" stroke="#000000" points="695.5,-152.5 695.5,-171.5 781.5,-171.5 781.5,-152.5 695.5,-152.5"/>
<text text-anchor="middle" x="738.5" y="-159.5" font-family="Helvetica,sans-Serif" font-size="10.00" fill="#000000">fr_strerror_printf</text>
</a>
</g>
</g>
<!-- Node1265&#45;&gt;Node1274 -->
<g id="edge24" class="edge">
<title>Node1265&#45;&gt;Node1274</title>
<path fill="none" stroke="#191970" d="M315.777,-323.2612C324.347,-295.2317 353.289,-214.2495 410,-181 455.159,-154.5234 604.0214,-156.2184 684.959,-159.3184"/>
<polygon fill="#191970" stroke="#191970" points="685.3012,-162.835 695.4345,-159.742 685.5841,-155.8407 685.3012,-162.835"/>
</g>
<!-- Node1351 -->
<g id="node23" class="node">
<title>Node1351</title>
<g id="a_node23"><a xlink:href="syserror_8c.html#a18747f9d648d0aeecc4a8b27ac0435aa" target="_top" xlink:title="Guaranteed to be thread&#45;safe version of strerror. ">
<polygon fill="none" stroke="#ff0000" points="429,-342.5 429,-361.5 492,-361.5 492,-342.5 429,-342.5"/>
<text text-anchor="middle" x="460.5" y="-349.5" font-family="Helvetica,sans-Serif" font-size="10.00" fill="#000000">fr_syserror</text>
</a>
</g>
</g>
<!-- Node1265&#45;&gt;Node1351 -->
<g id="edge30" class="edge">
<title>Node1265&#45;&gt;Node1351</title>
<path fill="none" stroke="#191970" d="M347.5822,-337.4547C368.8483,-340.194 396.2354,-343.7218 418.7118,-346.6171"/>
<polygon fill="#191970" stroke="#191970" points="418.2884,-350.0914 428.6536,-347.8978 419.1827,-343.1488 418.2884,-350.0914"/>
</g>
<!-- Node1366 -->
<g id="node25" class="node">
<title>Node1366</title>
<g id="a_node25"><a xlink:href="strlcpy_8c.html#a59f9599e77ee687b1daaa179f8b9a2f3" target="_top" xlink:title="strlcpy">
<polygon fill="none" stroke="#000000" points="575,-399.5 575,-418.5 621,-418.5 621,-399.5 575,-399.5"/>
<text text-anchor="middle" x="598" y="-406.5" font-family="Helvetica,sans-Serif" font-size="10.00" fill="#000000">strlcpy</text>
</a>
</g>
</g>
<!-- Node1265&#45;&gt;Node1366 -->
<g id="edge35" class="edge">
<title>Node1265&#45;&gt;Node1366</title>
<path fill="none" stroke="#191970" d="M321.1142,-342.6326C336.3894,-359.9251 371.3735,-395.6701 410,-409 461.7505,-426.859 526.3927,-421.3157 564.8178,-415.3697"/>
<polygon fill="#191970" stroke="#191970" points="565.6313,-418.7829 574.9279,-413.7011 564.4914,-411.8763 565.6313,-418.7829"/>
</g>
<!-- Node1400 -->
<g id="node26" class="node">
<title>Node1400</title>
<g id="a_node26"><a xlink:href="strlcat_8c.html#abf200116de43b02e51775fd99bffcd8f" target="_top" xlink:title="strlcat">
<polygon fill="none" stroke="#000000" points="438.5,-380.5 438.5,-399.5 482.5,-399.5 482.5,-380.5 438.5,-380.5"/>
<text text-anchor="middle" x="460.5" y="-387.5" font-family="Helvetica,sans-Serif" font-size="10.00" fill="#000000">strlcat</text>
</a>
</g>
</g>
<!-- Node1265&#45;&gt;Node1400 -->
<g id="edge36" class="edge">
<title>Node1265&#45;&gt;Node1400</title>
<path fill="none" stroke="#191970" d="M337.2815,-342.6173C356.8805,-350.3547 385.1798,-361.4697 410,-371 416.0831,-373.3358 422.5891,-375.805 428.8389,-378.1628"/>
<polygon fill="#191970" stroke="#191970" points="427.7597,-381.4962 438.3517,-381.7408 430.2241,-374.9443 427.7597,-381.4962"/>
</g>
<!-- Node1401 -->
<g id="node27" class="node">
<title>Node1401</title>
<g id="a_node27"><a xlink:href="dl_8c.html#a5dafe51a8735107cb5123142bd35f0c1" target="_top" xlink:title="Free a dl. ">
<polygon fill="none" stroke="#000000" points="435,-494.5 435,-513.5 486,-513.5 486,-494.5 435,-494.5"/>
<text text-anchor="middle" x="460.5" y="-501.5" font-family="Helvetica,sans-Serif" font-size="10.00" fill="#000000">_dl_free</text>
</a>
</g>
</g>
<!-- Node1265&#45;&gt;Node1401 -->
<g id="edge37" class="edge">
<title>Node1265&#45;&gt;Node1401</title>
<path fill="none" stroke="#191970" d="M317.0507,-342.5311C328.293,-367.9921 362.2322,-438.4762 410,-480 414.6463,-484.039 420.0899,-487.5497 425.6507,-490.5461"/>
<polygon fill="#191970" stroke="#191970" points="424.4771,-493.8678 434.9994,-495.1056 427.5456,-487.5761 424.4771,-493.8678"/>
</g>
<!-- Node1265&#45;&gt;Node1403 -->
<g id="edge42" class="edge">
<title>Node1265&#45;&gt;Node1403</title>
<path fill="none" stroke="#191970" d="M319.0893,-323.4536C330.5091,-305.3763 355.6431,-264.7526 374,-229 391.994,-193.9541 382.4996,-176.2087 410,-148 413.6337,-144.2727 417.961,-141.0539 422.5318,-138.294"/>
<polygon fill="#191970" stroke="#191970" points="424.3066,-141.3146 431.5035,-133.5393 421.0287,-135.1295 424.3066,-141.3146"/>
</g>
<!-- Node1265&#45;&gt;Node1406 -->
<g id="edge45" class="edge">
<title>Node1265&#45;&gt;Node1406</title>
<path fill="none" stroke="#191970" d="M334.6489,-323.3949C347.4058,-316.8659 363.1241,-307.2014 374,-295 398.8696,-267.0994 382.5038,-244.316 410,-219 411.7078,-217.4277 413.5581,-215.9817 415.5074,-214.6524"/>
<polygon fill="#191970" stroke="#191970" points="417.5685,-217.5079 424.5526,-209.5408 414.1246,-211.4136 417.5685,-217.5079"/>
</g>
<!-- Node1267 -->
<g id="node15" class="node">
<title>Node1267</title>
<g id="a_node15"><a xlink:href="cursor_8c.html#ac0e33de2a6f1cb5e82c4d4e4255c2b95" target="_top" xlink:title="Rewind cursor to the start of the list. ">
<polygon fill="none" stroke="#ff0000" points="557.5,-.5 557.5,-19.5 638.5,-19.5 638.5,-.5 557.5,-.5"/>
<text text-anchor="middle" x="598" y="-7.5" font-family="Helvetica,sans-Serif" font-size="10.00" fill="#000000">fr_cursor_head</text>
</a>
</g>
</g>
<!-- Node1266&#45;&gt;Node1267 -->
<g id="edge17" class="edge">
<title>Node1266&#45;&gt;Node1267</title>
<path fill="none" stroke="#191970" d="M475.5429,-76.319C492.5896,-65.4995 521.3436,-47.7032 547,-34 553.3793,-30.5928 560.3258,-27.1526 566.9804,-23.9825"/>
<polygon fill="#191970" stroke="#191970" points="568.8462,-26.9737 576.4212,-19.5663 565.8802,-20.6331 568.8462,-26.9737"/>
</g>
<!-- Node1269 -->
<g id="node16" class="node">
<title>Node1269</title>
<g id="a_node16"><a xlink:href="cursor_8c.html#a6194bc92357e84dc8720ffd5ccaaeb42" target="_top" xlink:title="Remove the current item. ">
<polygon fill="none" stroke="#ff0000" points="552,-76.5 552,-95.5 644,-95.5 644,-76.5 552,-76.5"/>
<text text-anchor="middle" x="598" y="-83.5" font-family="Helvetica,sans-Serif" font-size="10.00" fill="#000000">fr_cursor_remove</text>
</a>
</g>
</g>
<!-- Node1266&#45;&gt;Node1269 -->
<g id="edge18" class="edge">
<title>Node1266&#45;&gt;Node1269</title>
<path fill="none" stroke="#191970" d="M490.3355,-86C505.3893,-86 524.1548,-86 541.7826,-86"/>
<polygon fill="#191970" stroke="#191970" points="541.9935,-89.5001 551.9934,-86 541.9934,-82.5001 541.9935,-89.5001"/>
</g>
<!-- Node1270 -->
<g id="node17" class="node">
<title>Node1270</title>
<g id="a_node17"><a xlink:href="strerror_8c.html#a9d878c1ddb1b385cdaf6523fff68529c" target="_top" xlink:title="Reset cursor state. ">
<polygon fill="none" stroke="#000000" points="955,-104.5 955,-123.5 1040,-123.5 1040,-104.5 955,-104.5"/>
<text text-anchor="middle" x="997.5" y="-111.5" font-family="Helvetica,sans-Serif" font-size="10.00" fill="#000000">fr_strerror_clear</text>
</a>
</g>
</g>
<!-- Node1266&#45;&gt;Node1270 -->
<g id="edge19" class="edge">
<title>Node1266&#45;&gt;Node1270</title>
<path fill="none" stroke="#191970" d="M490.2604,-77.7951C506.822,-73.6523 527.893,-69.0737 547,-67 693.3418,-51.1171 866.5421,-83.5921 949.0755,-102.1968"/>
<polygon fill="#191970" stroke="#191970" points="948.3924,-105.6308 958.921,-104.4478 949.9527,-98.8069 948.3924,-105.6308"/>
</g>
<!-- Node1274&#45;&gt;Node1251 -->
<g id="edge25" class="edge">
<title>Node1274&#45;&gt;Node1251</title>
<path fill="none" stroke="#191970" d="M753.7238,-171.5854C777.0183,-186.2523 821.7152,-214.3947 849.4316,-231.8458"/>
<polygon fill="#191970" stroke="#191970" points="847.7975,-234.9529 858.1247,-237.3193 851.5272,-229.0293 847.7975,-234.9529"/>
</g>
<!-- Node1274&#45;&gt;Node1252 -->
<g id="edge29" class="edge">
<title>Node1274&#45;&gt;Node1252</title>
<path fill="none" stroke="#191970" d="M781.5593,-166.6551C832.5366,-172.1661 916.4023,-181.2327 963.2037,-186.2923"/>
<polygon fill="#191970" stroke="#191970" points="963.1144,-189.8029 973.4326,-187.3981 963.8668,-182.8435 963.1144,-189.8029"/>
</g>
<!-- Node1275 -->
<g id="node22" class="node">
<title>Node1275</title>
<g id="a_node22"><a xlink:href="strerror_8c.html#a193b1e0b3712e3bbee338812c06af482" target="_top" xlink:title="fr_strerror_vprintf">
<polygon fill="none" stroke="#ff0000" points="828,-123.5 828,-142.5 919,-142.5 919,-123.5 828,-123.5"/>
<text text-anchor="middle" x="873.5" y="-130.5" font-family="Helvetica,sans-Serif" font-size="10.00" fill="#000000">fr_strerror_vprintf</text>
</a>
</g>
</g>
<!-- Node1274&#45;&gt;Node1275 -->
<g id="edge26" class="edge">
<title>Node1274&#45;&gt;Node1275</title>
<path fill="none" stroke="#191970" d="M781.586,-152.7445C793.5201,-150.1809 806.631,-147.3645 819.1187,-144.6819"/>
<polygon fill="#191970" stroke="#191970" points="819.9238,-148.0889 828.9657,-142.5666 818.4536,-141.245 819.9238,-148.0889"/>
</g>
<!-- Node1275&#45;&gt;Node1252 -->
<g id="edge28" class="edge">
<title>Node1275&#45;&gt;Node1252</title>
<path fill="none" stroke="#191970" d="M894.2548,-142.5405C914.2833,-151.7472 944.8212,-165.7847 967.4951,-176.2074"/>
<polygon fill="#191970" stroke="#191970" points="966.1296,-179.4318 976.6775,-180.4284 969.0533,-173.0716 966.1296,-179.4318"/>
</g>
<!-- Node1275&#45;&gt;Node1270 -->
<g id="edge27" class="edge">
<title>Node1275&#45;&gt;Node1270</title>
<path fill="none" stroke="#191970" d="M919.3207,-125.9791C927.5607,-124.7165 936.2107,-123.3911 944.6309,-122.1009"/>
<polygon fill="#191970" stroke="#191970" points="945.3904,-125.5255 954.7449,-120.5512 944.3301,-118.6062 945.3904,-125.5255"/>
</g>
<!-- Node1353 -->
<g id="node24" class="node">
<title>Node1353</title>
<g id="a_node24"><a xlink:href="snprintf_8c.html#a8da10a1735da7051de5c298ca7448eee" target="_top" xlink:title="snprintf">
<polygon fill="none" stroke="#ff0000" points="714,-209.5 714,-228.5 763,-228.5 763,-209.5 714,-209.5"/>
<text text-anchor="middle" x="738.5" y="-216.5" font-family="Helvetica,sans-Serif" font-size="10.00" fill="#000000">snprintf</text>
</a>
</g>
</g>
<!-- Node1351&#45;&gt;Node1353 -->
<g id="edge31" class="edge">
<title>Node1351&#45;&gt;Node1353</title>
<path fill="none" stroke="#191970" d="M487.4424,-342.4585C495.1196,-339.5795 503.4471,-336.3024 511,-333 585.3542,-300.4895 670.1365,-255.9393 712.0988,-233.3661"/>
<polygon fill="#191970" stroke="#191970" points="713.9629,-236.3373 721.1002,-228.5072 710.6378,-230.1774 713.9629,-236.3373"/>
</g>
<!-- Node1351&#45;&gt;Node1366 -->
<g id="edge34" class="edge">
<title>Node1351&#45;&gt;Node1366</title>
<path fill="none" stroke="#191970" d="M486.5508,-361.5065C494.4384,-364.464 503.1024,-367.7921 511,-371 530.02,-378.7257 551.1269,-387.9292 567.7874,-395.3435"/>
<polygon fill="#191970" stroke="#191970" points="566.476,-398.591 577.0337,-399.4775 569.3332,-392.2006 566.476,-398.591"/>
</g>
<!-- Node1353&#45;&gt;Node1251 -->
<g id="edge32" class="edge">
<title>Node1353&#45;&gt;Node1251</title>
<path fill="none" stroke="#191970" d="M763.2611,-224.1356C783.949,-228.4265 813.736,-234.6045 837.1328,-239.4572"/>
<polygon fill="#191970" stroke="#191970" points="836.5473,-242.9102 847.0497,-241.514 837.969,-236.056 836.5473,-242.9102"/>
</g>
<!-- Node1353&#45;&gt;Node1252 -->
<g id="edge33" class="edge">
<title>Node1353&#45;&gt;Node1252</title>
<path fill="none" stroke="#191970" d="M763.334,-216.2194C809.8856,-211.007 910.3329,-199.76 963.2648,-193.8333"/>
<polygon fill="#191970" stroke="#191970" points="963.9467,-197.2789 973.4951,-192.6878 963.1677,-190.3224 963.9467,-197.2789"/>
</g>
<!-- Node1401&#45;&gt;Node1256 -->
<g id="edge41" class="edge">
<title>Node1401&#45;&gt;Node1256</title>
<path fill="none" stroke="#191970" d="M477.9145,-513.6255C501.5737,-526.7025 544.0777,-550.1957 571.6517,-565.4366"/>
<polygon fill="#191970" stroke="#191970" points="570.2817,-568.6784 580.7269,-570.4527 573.668,-562.5519 570.2817,-568.6784"/>
</g>
<!-- Node1402 -->
<g id="node28" class="node">
<title>Node1402</title>
<g id="a_node28"><a xlink:href="dl_8c.html#aeb71ca69e076f70262b8f4551e2a15d1" target="_top" xlink:title="Walk over the registered init callbacks, searching for the symbols they depend on. ">
<polygon fill="none" stroke="#000000" points="556.5,-494.5 556.5,-513.5 639.5,-513.5 639.5,-494.5 556.5,-494.5"/>
<text text-anchor="middle" x="598" y="-501.5" font-family="Helvetica,sans-Serif" font-size="10.00" fill="#000000">dl_symbol_free</text>
</a>
</g>
</g>
<!-- Node1401&#45;&gt;Node1402 -->
<g id="edge38" class="edge">
<title>Node1401&#45;&gt;Node1402</title>
<path fill="none" stroke="#191970" d="M486.0405,-504C502.916,-504 525.6328,-504 546.1934,-504"/>
<polygon fill="#191970" stroke="#191970" points="546.3913,-507.5001 556.3913,-504 546.3913,-500.5001 546.3913,-507.5001"/>
</g>
<!-- Node1402&#45;&gt;Node1250 -->
<g id="edge40" class="edge">
<title>Node1402&#45;&gt;Node1250</title>
<path fill="none" stroke="#191970" d="M633.4541,-494.411C651.5913,-489.5056 673.8684,-483.4804 693.2334,-478.2429"/>
<polygon fill="#191970" stroke="#191970" points="694.3179,-481.5754 703.0573,-475.5859 692.4903,-474.8182 694.3179,-481.5754"/>
</g>
<!-- Node1289 -->
<g id="node29" class="node">
<title>Node1289</title>
<g id="a_node29"><a xlink:href="cursor_8c.html#af6c2090d1e00319075d6def5aa2666fd" target="_top" xlink:title="Advanced the cursor to the next item. ">
<polygon fill="none" stroke="#ff0000" points="699,-328.5 699,-347.5 778,-347.5 778,-328.5 699,-328.5"/>
<text text-anchor="middle" x="738.5" y="-335.5" font-family="Helvetica,sans-Serif" font-size="10.00" fill="#000000">fr_cursor_next</text>
</a>
</g>
</g>
<!-- Node1402&#45;&gt;Node1289 -->
<g id="edge39" class="edge">
<title>Node1402&#45;&gt;Node1289</title>
<path fill="none" stroke="#191970" d="M606.3682,-494.1131C629.4596,-466.8307 694.3031,-390.2184 723.6911,-355.4967"/>
<polygon fill="#191970" stroke="#191970" points="726.5628,-357.5214 730.3517,-347.6272 721.2197,-352.999 726.5628,-357.5214"/>
</g>
<!-- Node1404 -->
<g id="node31" class="node">
<title>Node1404</title>
<g id="a_node31"><a xlink:href="rbtree_8c.html#a4eed40c77b050e68b00cf9d6334db2c4" target="_top" xlink:title="Insert an element into the tree. ">
<polygon fill="none" stroke="#ff0000" points="549.5,-114.5 549.5,-133.5 646.5,-133.5 646.5,-114.5 549.5,-114.5"/>
<text text-anchor="middle" x="598" y="-121.5" font-family="Helvetica,sans-Serif" font-size="10.00" fill="#000000">rbtree_insert_node</text>
</a>
</g>
</g>
<!-- Node1403&#45;&gt;Node1404 -->
<g id="edge43" class="edge">
<title>Node1403&#45;&gt;Node1404</title>
<path fill="none" stroke="#191970" d="M496.2676,-124C509.4565,-124 524.7679,-124 539.4452,-124"/>
<polygon fill="#191970" stroke="#191970" points="539.4713,-127.5001 549.4713,-124 539.4712,-120.5001 539.4713,-127.5001"/>
</g>
<!-- Node1404&#45;&gt;Node1274 -->
<g id="edge44" class="edge">
<title>Node1404&#45;&gt;Node1274</title>
<path fill="none" stroke="#191970" d="M633.4541,-133.589C651.5913,-138.4944 673.8684,-144.5196 693.2334,-149.7571"/>
<polygon fill="#191970" stroke="#191970" points="692.4903,-153.1818 703.0573,-152.4141 694.3179,-146.4246 692.4903,-153.1818"/>
</g>
<!-- Node1406&#45;&gt;Node1353 -->
<g id="edge47" class="edge">
<title>Node1406&#45;&gt;Node1353</title>
<path fill="none" stroke="#191970" d="M500.0354,-202.7021C554.5896,-206.4306 652.0698,-213.0929 703.8902,-216.6346"/>
<polygon fill="#191970" stroke="#191970" points="703.7059,-220.1301 713.9213,-217.3202 704.1833,-213.1464 703.7059,-220.1301"/>
</g>
<!-- Node1406&#45;&gt;Node1289 -->
<g id="edge46" class="edge">
<title>Node1406&#45;&gt;Node1289</title>
<path fill="none" stroke="#191970" d="M487.7419,-209.555C495.3466,-212.4093 503.5617,-215.6702 511,-219 586.2978,-252.707 671.6324,-299.8764 713.1327,-323.4234"/>
<polygon fill="#191970" stroke="#191970" points="711.5857,-326.5702 722.0073,-328.4784 715.0504,-320.4877 711.5857,-326.5702"/>
</g>
</g>
</svg>
