<?xml version="1.0" encoding="UTF-8" standalone="no"?>
<!DOCTYPE svg PUBLIC "-//W3C//DTD SVG 1.1//EN"
 "http://www.w3.org/Graphics/SVG/1.1/DTD/svg11.dtd">
<!-- Generated by graphviz version 2.40.1 (20161225.0304)
 -->
<!-- Title: fr_aka_sim_hint_byte Pages: 1 -->
<svg width="711pt" height="138pt"
 viewBox="0.00 0.00 711.00 137.50" xmlns="http://www.w3.org/2000/svg" xmlns:xlink="http://www.w3.org/1999/xlink">
<g id="graph0" class="graph" transform="scale(1 1) rotate(0) translate(4 133.5)">
<title>fr_aka_sim_hint_byte</title>
<!-- Node139 -->
<g id="node1" class="node">
<title>Node139</title>
<polygon fill="#bfbfbf" stroke="#000000" points="0,-50 0,-69 110,-69 110,-50 0,-50"/>
<text text-anchor="middle" x="55" y="-57" font-family="Helvetica,sans-Serif" font-size="10.00" fill="#000000">fr_aka_sim_hint_byte</text>
</g>
<!-- Node140 -->
<g id="node2" class="node">
<title>Node140</title>
<g id="a_node2"><a xlink:href="state__machine_8c.html#a65c6e58b254ce608fb3943c8a500fa29" target="_top" xlink:title="Copy the incoming identity to the permanent identity attribute. ">
<polygon fill="none" stroke="#000000" points="146,-44.5 146,-74.5 259,-74.5 259,-44.5 146,-44.5"/>
<text text-anchor="start" x="154" y="-62.5" font-family="Helvetica,sans-Serif" font-size="10.00" fill="#000000">identity_to_permanent</text>
<text text-anchor="middle" x="202.5" y="-51.5" font-family="Helvetica,sans-Serif" font-size="10.00" fill="#000000">_identity</text>
</a>
</g>
</g>
<!-- Node139&#45;&gt;Node140 -->
<g id="edge1" class="edge">
<title>Node139&#45;&gt;Node140</title>
<path fill="none" stroke="#191970" d="M120.542,-59.5C128.9872,-59.5 137.5777,-59.5 145.8632,-59.5"/>
<polygon fill="#191970" stroke="#191970" points="120.3432,-56.0001 110.3432,-59.5 120.3432,-63.0001 120.3432,-56.0001"/>
</g>
<!-- Node141 -->
<g id="node3" class="node">
<title>Node141</title>
<g id="a_node3"><a xlink:href="state__machine_8c.html#a5c4b635b588c3eccfd4d879ea830cd27" target="_top" xlink:title="AKA&#45;IDENTITY state &#45; Continue the state machine after receiving a response to our EAP&#45;Request/AKA&#45;Ide...">
<polygon fill="none" stroke="#000000" points="321.5,-88 321.5,-107 390.5,-107 390.5,-88 321.5,-88"/>
<text text-anchor="middle" x="356" y="-95" font-family="Helvetica,sans-Serif" font-size="10.00" fill="#000000">aka_identity</text>
</a>
</g>
</g>
<!-- Node140&#45;&gt;Node141 -->
<g id="edge2" class="edge">
<title>Node140&#45;&gt;Node141</title>
<path fill="none" stroke="#191970" d="M269.119,-75.992C287.1207,-80.4485 305.8793,-85.0923 321.3393,-88.9195"/>
<polygon fill="#191970" stroke="#191970" points="269.7697,-72.5475 259.2216,-73.5418 268.0875,-79.3424 269.7697,-72.5475"/>
</g>
<!-- Node152 -->
<g id="node7" class="node">
<title>Node152</title>
<g id="a_node7"><a xlink:href="state__machine_8c.html#af8d6f2ddb260f9163e8dfbe695b71f90" target="_top" xlink:title="SIM&#45;START state &#45; Continue the state machine after receiving a response to our EAP&#45;Request/SIM&#45;Start...">
<polygon fill="none" stroke="#ff0000" points="327.5,-50 327.5,-69 384.5,-69 384.5,-50 327.5,-50"/>
<text text-anchor="middle" x="356" y="-57" font-family="Helvetica,sans-Serif" font-size="10.00" fill="#000000">sim_start</text>
</a>
</g>
</g>
<!-- Node140&#45;&gt;Node152 -->
<g id="edge6" class="edge">
<title>Node140&#45;&gt;Node152</title>
<path fill="none" stroke="#191970" d="M269.4306,-59.5C289.7865,-59.5 311.0793,-59.5 327.4539,-59.5"/>
<polygon fill="#191970" stroke="#191970" points="269.2217,-56.0001 259.2216,-59.5 269.2216,-63.0001 269.2217,-56.0001"/>
</g>
<!-- Node155 -->
<g id="node8" class="node">
<title>Node155</title>
<g id="a_node8"><a xlink:href="state__machine_8h.html#a3f51a97eaa340698f12e228e73149542" target="_top" xlink:title="Enter the EAP&#45;IDENTITY state &#45; State machine entry point. ">
<polygon fill="none" stroke="#000000" points="295,-.5 295,-30.5 417,-30.5 417,-.5 295,-.5"/>
<text text-anchor="start" x="303" y="-18.5" font-family="Helvetica,sans-Serif" font-size="10.00" fill="#000000">aka_sim_state_machine</text>
<text text-anchor="middle" x="356" y="-7.5" font-family="Helvetica,sans-Serif" font-size="10.00" fill="#000000">_start</text>
</a>
</g>
</g>
<!-- Node140&#45;&gt;Node155 -->
<g id="edge7" class="edge">
<title>Node140&#45;&gt;Node155</title>
<path fill="none" stroke="#191970" d="M264.6388,-41.6882C277.5581,-37.985 291.0509,-34.1173 303.579,-30.5262"/>
<polygon fill="#191970" stroke="#191970" points="263.5451,-38.3607 254.8967,-44.4808 265.474,-45.0897 263.5451,-38.3607"/>
</g>
<!-- Node142 -->
<g id="node4" class="node">
<title>Node142</title>
<g id="a_node4"><a xlink:href="state__machine_8c.html#a44a6ed5d82c00f952ba9f24ef68fa380" target="_top" xlink:title="Enter the AKA&#45;IDENTITY state. ">
<polygon fill="none" stroke="#000000" points="453,-88 453,-107 549,-107 549,-88 453,-88"/>
<text text-anchor="middle" x="501" y="-95" font-family="Helvetica,sans-Serif" font-size="10.00" fill="#000000">aka_identity_enter</text>
</a>
</g>
</g>
<!-- Node141&#45;&gt;Node142 -->
<g id="edge3" class="edge">
<title>Node141&#45;&gt;Node142</title>
<path fill="none" stroke="#191970" d="M401.1599,-97.5C417.5757,-97.5 436.1826,-97.5 452.8477,-97.5"/>
<polygon fill="#191970" stroke="#191970" points="400.7311,-94.0001 390.7311,-97.5 400.7311,-101.0001 400.7311,-94.0001"/>
</g>
<!-- Node143 -->
<g id="node5" class="node">
<title>Node143</title>
<g id="a_node5"><a xlink:href="state__machine_8c.html#abcf031ebed3be2fd0f4354d64af4e5a8" target="_top" xlink:title="Enter the SIM&#45;START or AKA&#45;IDENTITY state. ">
<polygon fill="none" stroke="#ff0000" points="585,-110 585,-129 703,-129 703,-110 585,-110"/>
<text text-anchor="middle" x="644" y="-117" font-family="Helvetica,sans-Serif" font-size="10.00" fill="#000000">common_identity_enter</text>
</a>
</g>
</g>
<!-- Node142&#45;&gt;Node143 -->
<g id="edge4" class="edge">
<title>Node142&#45;&gt;Node143</title>
<path fill="none" stroke="#191970" d="M558.9224,-106.4111C567.4944,-107.7299 576.3367,-109.0903 584.9317,-110.4126"/>
<polygon fill="#191970" stroke="#191970" points="559.4307,-102.9482 549.0147,-104.8869 558.3662,-109.8668 559.4307,-102.9482"/>
</g>
<!-- Node148 -->
<g id="node6" class="node">
<title>Node148</title>
<g id="a_node6"><a xlink:href="state__machine_8c.html#abe175090aec32b61341864f7a67c3f88" target="_top" xlink:title="Process a EAP&#45;Response/AKA&#45;Identity message i.e. ">
<polygon fill="none" stroke="#ff0000" points="587,-60.5 587,-90.5 701,-90.5 701,-60.5 587,-60.5"/>
<text text-anchor="start" x="595" y="-78.5" font-family="Helvetica,sans-Serif" font-size="10.00" fill="#000000">aka_identity_response</text>
<text text-anchor="middle" x="644" y="-67.5" font-family="Helvetica,sans-Serif" font-size="10.00" fill="#000000">_process</text>
</a>
</g>
</g>
<!-- Node142&#45;&gt;Node148 -->
<g id="edge5" class="edge">
<title>Node142&#45;&gt;Node148</title>
<path fill="none" stroke="#191970" d="M558.8987,-88.5925C568.15,-87.1692 577.7167,-85.6974 586.948,-84.2772"/>
<polygon fill="#191970" stroke="#191970" points="558.3662,-85.1332 549.0147,-90.1131 559.4307,-92.0518 558.3662,-85.1332"/>
</g>
</g>
</svg>
