<?xml version="1.0" encoding="UTF-8" standalone="no"?>
<!DOCTYPE svg PUBLIC "-//W3C//DTD SVG 1.1//EN"
 "http://www.w3.org/Graphics/SVG/1.1/DTD/svg11.dtd">
<!-- Generated by graphviz version 2.40.1 (20161225.0304)
 -->
<!-- Title: eap_fast_eap_payload Pages: 1 -->
<svg width="642pt" height="28pt"
 viewBox="0.00 0.00 642.00 28.00" xmlns="http://www.w3.org/2000/svg" xmlns:xlink="http://www.w3.org/1999/xlink">
<g id="graph0" class="graph" transform="scale(1 1) rotate(0) translate(4 24)">
<title>eap_fast_eap_payload</title>
<!-- Node640 -->
<g id="node1" class="node">
<title>Node640</title>
<polygon fill="#bfbfbf" stroke="#000000" points="0,-.5 0,-19.5 114,-19.5 114,-.5 0,-.5"/>
<text text-anchor="middle" x="57" y="-7.5" font-family="Helvetica,sans-Serif" font-size="10.00" fill="#000000">eap_fast_eap_payload</text>
</g>
<!-- Node641 -->
<g id="node2" class="node">
<title>Node641</title>
<g id="a_node2"><a xlink:href="eap__fast_8c.html#ab47c138f5518687fc862bb1febf80db8" target="_top" xlink:title="eap_fast_process_tlvs">
<polygon fill="none" stroke="#000000" points="150,-.5 150,-19.5 265,-19.5 265,-.5 150,-.5"/>
<text text-anchor="middle" x="207.5" y="-7.5" font-family="Helvetica,sans-Serif" font-size="10.00" fill="#000000">eap_fast_process_tlvs</text>
</a>
</g>
</g>
<!-- Node640&#45;&gt;Node641 -->
<g id="edge1" class="edge">
<title>Node640&#45;&gt;Node641</title>
<path fill="none" stroke="#191970" d="M124.535,-10C132.9808,-10 141.5577,-10 149.8339,-10"/>
<polygon fill="#191970" stroke="#191970" points="124.327,-6.5001 114.3269,-10 124.3269,-13.5001 124.327,-6.5001"/>
</g>
<!-- Node642 -->
<g id="node3" class="node">
<title>Node642</title>
<g id="a_node3"><a xlink:href="eap__fast_8h.html#ad57c22632e81dcbb9d854603aaa1f76e" target="_top" xlink:title="eap_fast_process">
<polygon fill="none" stroke="#000000" points="301,-.5 301,-19.5 395,-19.5 395,-.5 301,-.5"/>
<text text-anchor="middle" x="348" y="-7.5" font-family="Helvetica,sans-Serif" font-size="10.00" fill="#000000">eap_fast_process</text>
</a>
</g>
</g>
<!-- Node641&#45;&gt;Node642 -->
<g id="edge2" class="edge">
<title>Node641&#45;&gt;Node642</title>
<path fill="none" stroke="#191970" d="M275.1137,-10C283.7319,-10 292.4032,-10 300.6076,-10"/>
<polygon fill="#191970" stroke="#191970" points="275.0522,-6.5001 265.0521,-10 275.0521,-13.5001 275.0522,-6.5001"/>
</g>
<!-- Node643 -->
<g id="node4" class="node">
<title>Node643</title>
<g id="a_node4"><a xlink:href="rlm__eap__fast_8c.html#a1ee517a20d1254bcde78063a1e36840c" target="_top" xlink:title="mod_process">
<polygon fill="none" stroke="#000000" points="431,-.5 431,-19.5 506,-19.5 506,-.5 431,-.5"/>
<text text-anchor="middle" x="468.5" y="-7.5" font-family="Helvetica,sans-Serif" font-size="10.00" fill="#000000">mod_process</text>
</a>
</g>
</g>
<!-- Node642&#45;&gt;Node643 -->
<g id="edge3" class="edge">
<title>Node642&#45;&gt;Node643</title>
<path fill="none" stroke="#191970" d="M405.3029,-10C413.9093,-10 422.5961,-10 430.6585,-10"/>
<polygon fill="#191970" stroke="#191970" points="405.279,-6.5001 395.2789,-10 405.2789,-13.5001 405.279,-6.5001"/>
</g>
<!-- Node644 -->
<g id="node5" class="node">
<title>Node644</title>
<g id="a_node5"><a xlink:href="rlm__eap__fast_8c.html#afde9901631f6849be380901f6970a49b" target="_top" xlink:title="mod_session_init">
<polygon fill="none" stroke="#000000" points="542,-.5 542,-19.5 634,-19.5 634,-.5 542,-.5"/>
<text text-anchor="middle" x="588" y="-7.5" font-family="Helvetica,sans-Serif" font-size="10.00" fill="#000000">mod_session_init</text>
</a>
</g>
</g>
<!-- Node643&#45;&gt;Node644 -->
<g id="edge4" class="edge">
<title>Node643&#45;&gt;Node644</title>
<path fill="none" stroke="#191970" d="M516.5645,-10C524.8304,-10 533.4068,-10 541.6271,-10"/>
<polygon fill="#191970" stroke="#191970" points="516.3106,-6.5001 506.3105,-10 516.3105,-13.5001 516.3106,-6.5001"/>
</g>
</g>
</svg>
