<?xml version="1.0" encoding="UTF-8" standalone="no"?>
<!DOCTYPE svg PUBLIC "-//W3C//DTD SVG 1.1//EN"
 "http://www.w3.org/Graphics/SVG/1.1/DTD/svg11.dtd">
<!-- Generated by graphviz version 2.40.1 (20161225.0304)
 -->
<!-- Title: fr_aka_sim_octets_prefix_len Pages: 1 -->
<svg width="927pt" height="408pt"
 viewBox="0.00 0.00 927.00 408.00" xmlns="http://www.w3.org/2000/svg" xmlns:xlink="http://www.w3.org/1999/xlink">
<g id="graph0" class="graph" transform="scale(1 1) rotate(0) translate(4 404)">
<title>fr_aka_sim_octets_prefix_len</title>
<!-- Node2240 -->
<g id="node1" class="node">
<title>Node2240</title>
<polygon fill="#bfbfbf" stroke="#000000" points="0,-266.5 0,-285.5 144,-285.5 144,-266.5 0,-266.5"/>
<text text-anchor="middle" x="72" y="-273.5" font-family="Helvetica,sans-Serif" font-size="10.00" fill="#000000">fr_aka_sim_octets_prefix_len</text>
</g>
<!-- Node2241 -->
<g id="node2" class="node">
<title>Node2241</title>
<g id="a_node2"><a xlink:href="lib_2eap__aka__sim_2decode_8c.html#ac58483be54e89f4f6a1bc63ed527325c" target="_top" xlink:title="Create any kind of VP from the attribute contents. ">
<polygon fill="none" stroke="#000000" points="180,-304.5 180,-323.5 299,-323.5 299,-304.5 180,-304.5"/>
<text text-anchor="middle" x="239.5" y="-311.5" font-family="Helvetica,sans-Serif" font-size="10.00" fill="#000000">sim_decode_pair_value</text>
</a>
</g>
</g>
<!-- Node2240&#45;&gt;Node2241 -->
<g id="edge1" class="edge">
<title>Node2240&#45;&gt;Node2241</title>
<path fill="none" stroke="#191970" d="M124.1201,-287.8243C147.7347,-293.1816 175.282,-299.4311 197.5366,-304.4799"/>
<polygon fill="#191970" stroke="#191970" points="124.7939,-284.3883 114.2673,-285.589 123.2451,-291.2148 124.7939,-284.3883"/>
</g>
<!-- Node2295 -->
<g id="node7" class="node">
<title>Node2295</title>
<g id="a_node7"><a xlink:href="lib_2eap__aka__sim_2encode_8c.html#a95262349e8b300e3cd5dd666cfac78e5" target="_top" xlink:title="Encodes the data portion of an attribute. ">
<polygon fill="none" stroke="#000000" points="201,-247.5 201,-266.5 278,-266.5 278,-247.5 201,-247.5"/>
<text text-anchor="middle" x="239.5" y="-254.5" font-family="Helvetica,sans-Serif" font-size="10.00" fill="#000000">encode_value</text>
</a>
</g>
</g>
<!-- Node2240&#45;&gt;Node2295 -->
<g id="edge8" class="edge">
<title>Node2240&#45;&gt;Node2295</title>
<path fill="none" stroke="#191970" d="M154.1203,-266.6849C170.415,-264.8365 186.7921,-262.9788 200.7828,-261.3918"/>
<polygon fill="#191970" stroke="#191970" points="153.5489,-263.2271 144.0072,-267.832 154.338,-270.1825 153.5489,-263.2271"/>
</g>
<!-- Node2242 -->
<g id="node3" class="node">
<title>Node2242</title>
<g id="a_node3"><a xlink:href="lib_2eap__aka__sim_2decode_8c.html#a074e5e8973493a4b9f4ad0b67087457d" target="_top" xlink:title="sim_decode_array">
<polygon fill="none" stroke="#000000" points="340,-380.5 340,-399.5 436,-399.5 436,-380.5 340,-380.5"/>
<text text-anchor="middle" x="388" y="-387.5" font-family="Helvetica,sans-Serif" font-size="10.00" fill="#000000">sim_decode_array</text>
</a>
</g>
</g>
<!-- Node2241&#45;&gt;Node2242 -->
<g id="edge2" class="edge">
<title>Node2241&#45;&gt;Node2242</title>
<path fill="none" stroke="#191970" d="M265.1675,-328.6423C284.2406,-339.3589 311.0007,-354.0525 335,-366 345.0369,-370.9967 356.3342,-376.1724 365.9118,-380.4325"/>
<polygon fill="#191970" stroke="#191970" points="266.6375,-325.453 256.2089,-323.5836 263.1956,-331.5483 266.6375,-325.453"/>
</g>
<!-- Node2243 -->
<g id="node4" class="node">
<title>Node2243</title>
<g id="a_node4"><a xlink:href="lib_2eap__aka__sim_2decode_8c.html#a457e491f6b16274c1780154a77951441" target="_top" xlink:title="Decode SIM/AKA/AKA&#39; attributes. ">
<polygon fill="none" stroke="#000000" points="477,-361.5 477,-380.5 604,-380.5 604,-361.5 477,-361.5"/>
<text text-anchor="middle" x="540.5" y="-368.5" font-family="Helvetica,sans-Serif" font-size="10.00" fill="#000000">sim_decode_pair_internal</text>
</a>
</g>
</g>
<!-- Node2241&#45;&gt;Node2243 -->
<g id="edge7" class="edge">
<title>Node2241&#45;&gt;Node2243</title>
<path fill="none" stroke="#191970" d="M296.5591,-325.4833C309.2101,-327.9927 322.5551,-330.6115 335,-333 386.844,-342.9501 446.1391,-353.865 487.6682,-361.4337"/>
<polygon fill="#191970" stroke="#191970" points="297.0832,-322.019 286.5925,-323.5007 295.7174,-328.8845 297.0832,-322.019"/>
</g>
<!-- Node2294 -->
<g id="node6" class="node">
<title>Node2294</title>
<g id="a_node6"><a xlink:href="lib_2eap__aka__sim_2decode_8c.html#a1857f97674ffa8813817cb97c052652f" target="_top" xlink:title="Break apart a TLV attribute into individual attributes. ">
<polygon fill="none" stroke="#000000" points="345.5,-304.5 345.5,-323.5 430.5,-323.5 430.5,-304.5 345.5,-304.5"/>
<text text-anchor="middle" x="388" y="-311.5" font-family="Helvetica,sans-Serif" font-size="10.00" fill="#000000">sim_decode_tlv</text>
</a>
</g>
</g>
<!-- Node2241&#45;&gt;Node2294 -->
<g id="edge5" class="edge">
<title>Node2241&#45;&gt;Node2294</title>
<path fill="none" stroke="#191970" d="M309.31,-307.2607C321.6114,-307.2012 334.0759,-307.3894 345.3464,-307.8255"/>
<polygon fill="#191970" stroke="#191970" points="309.0075,-303.7636 299.045,-307.3691 309.0814,-310.7633 309.0075,-303.7636"/>
</g>
<!-- Node2242&#45;&gt;Node2243 -->
<g id="edge3" class="edge">
<title>Node2242&#45;&gt;Node2243</title>
<path fill="none" stroke="#191970" d="M446.4579,-382.7167C456.4305,-381.4742 466.8332,-380.1782 476.9305,-378.9201"/>
<polygon fill="#191970" stroke="#191970" points="445.7425,-379.2787 436.252,-383.9883 446.608,-386.225 445.7425,-379.2787"/>
</g>
<!-- Node2244 -->
<g id="node5" class="node">
<title>Node2244</title>
<g id="a_node5"><a xlink:href="lib_2eap__aka__sim_2decode_8c.html#a82cf02b8c1338df56f590620a04ed21a" target="_top" xlink:title="Decode SIM/AKA/AKA&#39; attributes. ">
<polygon fill="none" stroke="#ff0000" points="640,-361.5 640,-380.5 762,-380.5 762,-361.5 640,-361.5"/>
<text text-anchor="middle" x="701" y="-368.5" font-family="Helvetica,sans-Serif" font-size="10.00" fill="#000000">fr_aka_sim_decode_pair</text>
</a>
</g>
</g>
<!-- Node2243&#45;&gt;Node2244 -->
<g id="edge4" class="edge">
<title>Node2243&#45;&gt;Node2244</title>
<path fill="none" stroke="#191970" d="M614.6495,-371C623.1143,-371 631.6701,-371 639.9373,-371"/>
<polygon fill="#191970" stroke="#191970" points="614.3951,-367.5001 604.395,-371 614.395,-374.5001 614.3951,-367.5001"/>
</g>
<!-- Node2294&#45;&gt;Node2241 -->
<g id="edge6" class="edge">
<title>Node2294&#45;&gt;Node2241</title>
<path fill="none" stroke="#191970" d="M335.2729,-320.4914C323.5425,-320.7808 311.0276,-320.8273 299.045,-320.6309"/>
<polygon fill="#191970" stroke="#191970" points="335.4614,-323.9873 345.3464,-320.1745 335.2413,-316.9907 335.4614,-323.9873"/>
</g>
<!-- Node2296 -->
<g id="node8" class="node">
<title>Node2296</title>
<g id="a_node8"><a xlink:href="lib_2eap__aka__sim_2encode_8c.html#a7a9dc7a2591e7053e8a4aede633f18b4" target="_top" xlink:title="Encodes the data portion of an attribute. ">
<polygon fill="none" stroke="#000000" points="350.5,-266.5 350.5,-285.5 425.5,-285.5 425.5,-266.5 350.5,-266.5"/>
<text text-anchor="middle" x="388" y="-273.5" font-family="Helvetica,sans-Serif" font-size="10.00" fill="#000000">encode_array</text>
</a>
</g>
</g>
<!-- Node2295&#45;&gt;Node2296 -->
<g id="edge9" class="edge">
<title>Node2295&#45;&gt;Node2296</title>
<path fill="none" stroke="#191970" d="M288.0962,-263.2177C308.3181,-265.805 331.4344,-268.7626 350.3345,-271.1808"/>
<polygon fill="#191970" stroke="#191970" points="288.4923,-259.7399 278.129,-261.9424 287.6039,-266.6833 288.4923,-259.7399"/>
</g>
<!-- Node2297 -->
<g id="node9" class="node">
<title>Node2297</title>
<g id="a_node9"><a xlink:href="lib_2eap__aka__sim_2encode_8c.html#a3d7250c8c84799ac391ad0fb8e639124" target="_top" xlink:title="Encode an RFC format attribute header. ">
<polygon fill="none" stroke="#000000" points="499,-266.5 499,-285.5 582,-285.5 582,-266.5 499,-266.5"/>
<text text-anchor="middle" x="540.5" y="-273.5" font-family="Helvetica,sans-Serif" font-size="10.00" fill="#000000">encode_rfc_hdr</text>
</a>
</g>
</g>
<!-- Node2295&#45;&gt;Node2297 -->
<g id="edge13" class="edge">
<title>Node2295&#45;&gt;Node2297</title>
<path fill="none" stroke="#191970" d="M288.4596,-254.4274C329.3391,-252.8957 389.0981,-252.0889 441,-257 460.6092,-258.8555 482.1053,-262.7241 500.0839,-266.4893"/>
<polygon fill="#191970" stroke="#191970" points="288.0814,-250.9398 278.2308,-254.8406 288.364,-257.9341 288.0814,-250.9398"/>
</g>
<!-- Node2303 -->
<g id="node12" class="node">
<title>Node2303</title>
<g id="a_node12"><a xlink:href="struct_8h.html#a216a060444209feed408aa642ad7701f" target="_top" xlink:title="fr_struct_to_network\l_dbuff">
<polygon fill="none" stroke="#000000" points="335,-128 335,-158 441,-158 441,-128 335,-128"/>
<text text-anchor="start" x="343" y="-146" font-family="Helvetica,sans-Serif" font-size="10.00" fill="#000000">fr_struct_to_network</text>
<text text-anchor="middle" x="388" y="-135" font-family="Helvetica,sans-Serif" font-size="10.00" fill="#000000">_dbuff</text>
</a>
</g>
</g>
<!-- Node2295&#45;&gt;Node2303 -->
<g id="edge14" class="edge">
<title>Node2295&#45;&gt;Node2303</title>
<path fill="none" stroke="#191970" d="M259.9993,-241.2631C288.6195,-219.2921 340.1976,-179.6968 368.3534,-158.0822"/>
<polygon fill="#191970" stroke="#191970" points="257.7065,-238.6108 251.9056,-247.4765 261.9691,-244.1634 257.7065,-238.6108"/>
</g>
<!-- Node2296&#45;&gt;Node2297 -->
<g id="edge10" class="edge">
<title>Node2296&#45;&gt;Node2297</title>
<path fill="none" stroke="#191970" d="M435.95,-276C456.1665,-276 479.4761,-276 498.9483,-276"/>
<polygon fill="#191970" stroke="#191970" points="435.6967,-272.5001 425.6966,-276 435.6966,-279.5001 435.6967,-272.5001"/>
</g>
<!-- Node2298 -->
<g id="node10" class="node">
<title>Node2298</title>
<g id="a_node10"><a xlink:href="lib_2eap__aka__sim_2encode_8c.html#a38aceb5aba8d754c7db826d0bed4a941" target="_top" xlink:title="encode_tlv_internal">
<polygon fill="none" stroke="#ff0000" points="650.5,-304.5 650.5,-323.5 751.5,-323.5 751.5,-304.5 650.5,-304.5"/>
<text text-anchor="middle" x="701" y="-311.5" font-family="Helvetica,sans-Serif" font-size="10.00" fill="#000000">encode_tlv_internal</text>
</a>
</g>
</g>
<!-- Node2297&#45;&gt;Node2298 -->
<g id="edge11" class="edge">
<title>Node2297&#45;&gt;Node2298</title>
<path fill="none" stroke="#191970" d="M590.7453,-287.8961C613.3052,-293.2374 639.5609,-299.4537 660.7903,-304.4799"/>
<polygon fill="#191970" stroke="#191970" points="591.5383,-284.4871 581.0009,-285.589 589.9255,-291.2988 591.5383,-284.4871"/>
</g>
<!-- Node2300 -->
<g id="node11" class="node">
<title>Node2300</title>
<g id="a_node11"><a xlink:href="lib_2eap__aka__sim_2encode_8c.html#a8a7ead5b0e57ca0a5c4d6849476354eb" target="_top" xlink:title="fr_aka_sim_encode_pair">
<polygon fill="none" stroke="#ff0000" points="640,-266.5 640,-285.5 762,-285.5 762,-266.5 640,-266.5"/>
<text text-anchor="middle" x="701" y="-273.5" font-family="Helvetica,sans-Serif" font-size="10.00" fill="#000000">fr_aka_sim_encode_pair</text>
</a>
</g>
</g>
<!-- Node2297&#45;&gt;Node2300 -->
<g id="edge12" class="edge">
<title>Node2297&#45;&gt;Node2300</title>
<path fill="none" stroke="#191970" d="M592.4333,-276C607.5416,-276 624.1859,-276 639.8076,-276"/>
<polygon fill="#191970" stroke="#191970" points="592.2505,-272.5001 582.2505,-276 592.2505,-279.5001 592.2505,-272.5001"/>
</g>
<!-- Node2303&#45;&gt;Node2303 -->
<g id="edge29" class="edge">
<title>Node2303&#45;&gt;Node2303</title>
<path fill="none" stroke="#191970" d="M361.7022,-168.4579C364.9661,-173.179 373.7321,-176.5 388,-176.5 411.4141,-176.5 420.0114,-167.5566 413.7921,-158.159"/>
<polygon fill="#191970" stroke="#191970" points="365.2132,-168.3187 362.2079,-158.159 358.2216,-167.9753 365.2132,-168.3187"/>
</g>
<!-- Node2304 -->
<g id="node13" class="node">
<title>Node2304</title>
<g id="a_node13"><a xlink:href="protocols_2arp_2base_8c.html#afb2bafb7325ef6c57cebbf4d6e063846" target="_top" xlink:title="Encode VPS into a raw ARP packet. ">
<polygon fill="none" stroke="#000000" points="501.5,-190.5 501.5,-209.5 579.5,-209.5 579.5,-190.5 501.5,-190.5"/>
<text text-anchor="middle" x="540.5" y="-197.5" font-family="Helvetica,sans-Serif" font-size="10.00" fill="#000000">fr_arp_encode</text>
</a>
</g>
</g>
<!-- Node2303&#45;&gt;Node2304 -->
<g id="edge15" class="edge">
<title>Node2303&#45;&gt;Node2304</title>
<path fill="none" stroke="#191970" d="M430.3371,-162.2309C444.9762,-168.5708 461.5777,-175.4205 477,-181 486.3059,-184.3667 496.5256,-187.6157 505.995,-190.446"/>
<polygon fill="#191970" stroke="#191970" points="431.5969,-158.9617 421.0327,-158.1567 428.7892,-165.3739 431.5969,-158.9617"/>
</g>
<!-- Node2307 -->
<g id="node16" class="node">
<title>Node2307</title>
<g id="a_node16"><a xlink:href="protocols_2dhcpv6_2encode_8c.html#acdbbda1765f0ce46f4cff908e8ad37d1" target="_top" xlink:title="encode_struct">
<polygon fill="none" stroke="#000000" points="501.5,-152.5 501.5,-171.5 579.5,-171.5 579.5,-152.5 501.5,-152.5"/>
<text text-anchor="middle" x="540.5" y="-159.5" font-family="Helvetica,sans-Serif" font-size="10.00" fill="#000000">encode_struct</text>
</a>
</g>
</g>
<!-- Node2303&#45;&gt;Node2307 -->
<g id="edge18" class="edge">
<title>Node2303&#45;&gt;Node2307</title>
<path fill="none" stroke="#191970" d="M451.6932,-150.9356C468.5496,-153.0357 486.2479,-155.2407 501.3698,-157.1248"/>
<polygon fill="#191970" stroke="#191970" points="451.6931,-147.4086 441.3371,-149.6453 450.8276,-154.3549 451.6931,-147.4086"/>
</g>
<!-- Node2319 -->
<g id="node18" class="node">
<title>Node2319</title>
<g id="a_node18"><a xlink:href="protocols_2radius_2encode_8c.html#aa91de6bbe02c21d71bf5252d9838d139" target="_top" xlink:title="Encodes the data portion of an attribute. ">
<polygon fill="none" stroke="#000000" points="502,-114.5 502,-133.5 579,-133.5 579,-114.5 502,-114.5"/>
<text text-anchor="middle" x="540.5" y="-121.5" font-family="Helvetica,sans-Serif" font-size="10.00" fill="#000000">encode_value</text>
</a>
</g>
</g>
<!-- Node2303&#45;&gt;Node2319 -->
<g id="edge21" class="edge">
<title>Node2303&#45;&gt;Node2319</title>
<path fill="none" stroke="#191970" d="M451.3034,-135.113C468.4534,-132.9763 486.5035,-130.7274 501.8453,-128.816"/>
<polygon fill="#191970" stroke="#191970" points="450.8276,-131.6451 441.3371,-136.3547 451.6931,-138.5914 450.8276,-131.6451"/>
</g>
<!-- Node2893 -->
<g id="node23" class="node">
<title>Node2893</title>
<g id="a_node23"><a xlink:href="tacacs_8h.html#a66c27928d0932160df7729e2e4369faa" target="_top" xlink:title="Encode VPS into a raw TACACS packet. ">
<polygon fill="none" stroke="#ff0000" points="493.5,-76.5 493.5,-95.5 587.5,-95.5 587.5,-76.5 493.5,-76.5"/>
<text text-anchor="middle" x="540.5" y="-83.5" font-family="Helvetica,sans-Serif" font-size="10.00" fill="#000000">fr_tacacs_encode</text>
</a>
</g>
</g>
<!-- Node2303&#45;&gt;Node2893 -->
<g id="edge27" class="edge">
<title>Node2303&#45;&gt;Node2893</title>
<path fill="none" stroke="#191970" d="M430.3371,-123.7691C444.9762,-117.4292 461.5777,-110.5795 477,-105 486.3059,-101.6333 496.5256,-98.3843 505.995,-95.554"/>
<polygon fill="#191970" stroke="#191970" points="428.7892,-120.6261 421.0327,-127.8433 431.5969,-127.0383 428.7892,-120.6261"/>
</g>
<!-- Node3707 -->
<g id="node24" class="node">
<title>Node3707</title>
<g id="a_node24"><a xlink:href="struct_8h.html#a6e5bbaa3859eb91287802a0ac64935ff" target="_top" xlink:title="fr_struct_to_network">
<polygon fill="none" stroke="#000000" points="487.5,-38.5 487.5,-57.5 593.5,-57.5 593.5,-38.5 487.5,-38.5"/>
<text text-anchor="middle" x="540.5" y="-45.5" font-family="Helvetica,sans-Serif" font-size="10.00" fill="#000000">fr_struct_to_network</text>
</a>
</g>
</g>
<!-- Node2303&#45;&gt;Node3707 -->
<g id="edge28" class="edge">
<title>Node2303&#45;&gt;Node3707</title>
<path fill="none" stroke="#191970" d="M409.1573,-120.4114C426.0732,-103.5471 451.1594,-81.075 477,-67 483.9727,-63.2021 491.7998,-60.0711 499.5142,-57.5236"/>
<polygon fill="#191970" stroke="#191970" points="406.4951,-118.1271 401.9868,-127.7149 411.4901,-123.0312 406.4951,-118.1271"/>
</g>
<!-- Node2305 -->
<g id="node14" class="node">
<title>Node2305</title>
<g id="a_node14"><a xlink:href="protocols_2arp_2base_8c.html#a65cee9d5b8b2314f1110770f319666be" target="_top" xlink:title="fr_arp_encode_proto">
<polygon fill="none" stroke="#000000" points="648.5,-228.5 648.5,-247.5 753.5,-247.5 753.5,-228.5 648.5,-228.5"/>
<text text-anchor="middle" x="701" y="-235.5" font-family="Helvetica,sans-Serif" font-size="10.00" fill="#000000">fr_arp_encode_proto</text>
</a>
</g>
</g>
<!-- Node2304&#45;&gt;Node2305 -->
<g id="edge16" class="edge">
<title>Node2304&#45;&gt;Node2305</title>
<path fill="none" stroke="#191970" d="M589.5936,-211.6234C612.3926,-217.0213 639.1632,-223.3595 660.7475,-228.4698"/>
<polygon fill="#191970" stroke="#191970" points="590.3001,-208.194 579.7627,-209.2958 588.6873,-215.0057 590.3001,-208.194"/>
</g>
<!-- Node2306 -->
<g id="node15" class="node">
<title>Node2306</title>
<g id="a_node15"><a xlink:href="proto__arp_8c.html#a73de03e9d89143b1337647cdefb8edaf" target="_top" xlink:title="mod_encode">
<polygon fill="none" stroke="#000000" points="665,-190.5 665,-209.5 737,-209.5 737,-190.5 665,-190.5"/>
<text text-anchor="middle" x="701" y="-197.5" font-family="Helvetica,sans-Serif" font-size="10.00" fill="#000000">mod_encode</text>
</a>
</g>
</g>
<!-- Node2304&#45;&gt;Node2306 -->
<g id="edge17" class="edge">
<title>Node2304&#45;&gt;Node2306</title>
<path fill="none" stroke="#191970" d="M589.8426,-200C614.0707,-200 642.7351,-200 664.8869,-200"/>
<polygon fill="#191970" stroke="#191970" points="589.7628,-196.5001 579.7627,-200 589.7627,-203.5001 589.7628,-196.5001"/>
</g>
<!-- Node2308 -->
<g id="node17" class="node">
<title>Node2308</title>
<g id="a_node17"><a xlink:href="protocols_2dhcpv6_2encode_8c.html#aa91de6bbe02c21d71bf5252d9838d139" target="_top" xlink:title="encode_value">
<polygon fill="none" stroke="#ff0000" points="662.5,-152.5 662.5,-171.5 739.5,-171.5 739.5,-152.5 662.5,-152.5"/>
<text text-anchor="middle" x="701" y="-159.5" font-family="Helvetica,sans-Serif" font-size="10.00" fill="#000000">encode_value</text>
</a>
</g>
</g>
<!-- Node2307&#45;&gt;Node2308 -->
<g id="edge19" class="edge">
<title>Node2307&#45;&gt;Node2308</title>
<path fill="none" stroke="#191970" d="M589.8229,-155.7168C613.1652,-154.9772 640.629,-155.1164 662.4199,-156.1344"/>
<polygon fill="#191970" stroke="#191970" points="589.6211,-152.2219 579.7627,-156.1029 589.8896,-159.2168 589.6211,-152.2219"/>
</g>
<!-- Node2308&#45;&gt;Node2307 -->
<g id="edge20" class="edge">
<title>Node2308&#45;&gt;Node2307</title>
<path fill="none" stroke="#191970" d="M652.4049,-168.2598C629.1496,-169.0177 601.6707,-168.8968 579.7627,-167.8971"/>
<polygon fill="#191970" stroke="#191970" points="652.5653,-171.7563 662.4199,-167.8656 652.2899,-164.7617 652.5653,-171.7563"/>
</g>
<!-- Node2320 -->
<g id="node19" class="node">
<title>Node2320</title>
<g id="a_node19"><a xlink:href="protocols_2radius_2encode_8c.html#ae016fe0d7d252e56c47db14a2b8fa4c3" target="_top" xlink:title="Encode an &quot;extended&quot; attribute. ">
<polygon fill="none" stroke="#ff0000" points="645,-114.5 645,-133.5 757,-133.5 757,-114.5 645,-114.5"/>
<text text-anchor="middle" x="701" y="-121.5" font-family="Helvetica,sans-Serif" font-size="10.00" fill="#000000">encode_extended_hdr</text>
</a>
</g>
</g>
<!-- Node2319&#45;&gt;Node2320 -->
<g id="edge22" class="edge">
<title>Node2319&#45;&gt;Node2320</title>
<path fill="none" stroke="#191970" d="M589.3703,-124C606.9037,-124 626.8093,-124 644.9071,-124"/>
<polygon fill="#191970" stroke="#191970" points="589.3526,-120.5001 579.3526,-124 589.3525,-127.5001 589.3526,-120.5001"/>
</g>
<!-- Node3700 -->
<g id="node20" class="node">
<title>Node3700</title>
<g id="a_node20"><a xlink:href="protocols_2radius_2encode_8c.html#a699a32afc90f0c8390a8cbd5c45990f1" target="_top" xlink:title="Encode an RFC format TLV. ">
<polygon fill="none" stroke="#ff0000" points="641,-76.5 641,-95.5 761,-95.5 761,-76.5 641,-76.5"/>
<text text-anchor="middle" x="701" y="-83.5" font-family="Helvetica,sans-Serif" font-size="10.00" fill="#000000">encode_rfc_hdr_internal</text>
</a>
</g>
</g>
<!-- Node2319&#45;&gt;Node3700 -->
<g id="edge23" class="edge">
<title>Node2319&#45;&gt;Node3700</title>
<path fill="none" stroke="#191970" d="M589.2243,-112.464C612.1317,-107.0405 639.1142,-100.6521 660.8291,-95.5109"/>
<polygon fill="#191970" stroke="#191970" points="588.2772,-109.0914 579.3526,-114.8013 589.89,-115.9031 588.2772,-109.0914"/>
</g>
<!-- Node3703 -->
<g id="node21" class="node">
<title>Node3703</title>
<g id="a_node21"><a xlink:href="protocols_2radius_2encode_8c.html#a3068ee91a1edad610ac3165277b29547" target="_top" xlink:title="Encode a VSA which is a TLV. ">
<polygon fill="none" stroke="#ff0000" points="798,-57.5 798,-76.5 919,-76.5 919,-57.5 798,-57.5"/>
<text text-anchor="middle" x="858.5" y="-64.5" font-family="Helvetica,sans-Serif" font-size="10.00" fill="#000000">encode_vendor_attr_hdr</text>
</a>
</g>
</g>
<!-- Node2319&#45;&gt;Node3703 -->
<g id="edge25" class="edge">
<title>Node2319&#45;&gt;Node3703</title>
<path fill="none" stroke="#191970" d="M588.7817,-112.5023C594.0961,-110.3844 599.2834,-107.902 604,-105 623.8143,-92.8087 618.6287,-76.1925 640,-67 697.1493,-42.4183 770.7486,-49.3319 816.2672,-57.4758"/>
<polygon fill="#191970" stroke="#191970" points="587.3981,-109.2797 579.1528,-115.933 589.7475,-115.8737 587.3981,-109.2797"/>
</g>
<!-- Node3705 -->
<g id="node22" class="node">
<title>Node3705</title>
<g id="a_node22"><a xlink:href="protocols_2radius_2encode_8c.html#ab2bdab8c27d45c00608848d01fbe6740" target="_top" xlink:title="Encode a WiMAX attribute. ">
<polygon fill="none" stroke="#ff0000" points="650.5,-.5 650.5,-19.5 751.5,-19.5 751.5,-.5 650.5,-.5"/>
<text text-anchor="middle" x="701" y="-7.5" font-family="Helvetica,sans-Serif" font-size="10.00" fill="#000000">encode_wimax_hdr</text>
</a>
</g>
</g>
<!-- Node2319&#45;&gt;Node3705 -->
<g id="edge26" class="edge">
<title>Node2319&#45;&gt;Node3705</title>
<path fill="none" stroke="#191970" d="M588.6998,-114.237C594.2164,-111.8108 599.4747,-108.7818 604,-105 631.1482,-82.3123 613.8297,-57.8089 640,-34 646.8186,-27.7967 655.4292,-23.1162 664.0152,-19.6159"/>
<polygon fill="#191970" stroke="#191970" points="587.3909,-110.9898 579.2559,-117.7774 589.8482,-117.5443 587.3909,-110.9898"/>
</g>
<!-- Node3700&#45;&gt;Node3703 -->
<g id="edge24" class="edge">
<title>Node3700&#45;&gt;Node3703</title>
<path fill="none" stroke="#191970" d="M771.3732,-77.5105C780.2439,-76.4404 789.258,-75.353 797.9583,-74.3034"/>
<polygon fill="#191970" stroke="#191970" points="770.952,-74.0359 761.4432,-78.7084 771.7904,-80.9855 770.952,-74.0359"/>
</g>
</g>
</svg>
