<?xml version="1.0" encoding="UTF-8" standalone="no"?>
<!DOCTYPE svg PUBLIC "-//W3C//DTD SVG 1.1//EN"
 "http://www.w3.org/Graphics/SVG/1.1/DTD/svg11.dtd">
<!-- Generated by graphviz version 2.40.1 (20161225.0304)
 -->
<!-- Title: eap_fast_send_identity_request Pages: 1 -->
<svg width="494pt" height="39pt"
 viewBox="0.00 0.00 494.00 39.00" xmlns="http://www.w3.org/2000/svg" xmlns:xlink="http://www.w3.org/1999/xlink">
<g id="graph0" class="graph" transform="scale(1 1) rotate(0) translate(4 35)">
<title>eap_fast_send_identity_request</title>
<!-- Node1553 -->
<g id="node1" class="node">
<title>Node1553</title>
<polygon fill="#bfbfbf" stroke="#000000" points="0,-.5 0,-30.5 117,-30.5 117,-.5 0,-.5"/>
<text text-anchor="start" x="8" y="-18.5" font-family="Helvetica,sans-Serif" font-size="10.00" fill="#000000">eap_fast_send_identity</text>
<text text-anchor="middle" x="58.5" y="-7.5" font-family="Helvetica,sans-Serif" font-size="10.00" fill="#000000">_request</text>
</g>
<!-- Node1554 -->
<g id="node2" class="node">
<title>Node1554</title>
<g id="a_node2"><a xlink:href="eap__fast_8h.html#ad57c22632e81dcbb9d854603aaa1f76e" target="_top" xlink:title="eap_fast_process">
<polygon fill="none" stroke="#000000" points="153,-6 153,-25 247,-25 247,-6 153,-6"/>
<text text-anchor="middle" x="200" y="-13" font-family="Helvetica,sans-Serif" font-size="10.00" fill="#000000">eap_fast_process</text>
</a>
</g>
</g>
<!-- Node1553&#45;&gt;Node1554 -->
<g id="edge1" class="edge">
<title>Node1553&#45;&gt;Node1554</title>
<path fill="none" stroke="#191970" d="M127.3526,-15.5C135.9744,-15.5 144.6337,-15.5 152.818,-15.5"/>
<polygon fill="#191970" stroke="#191970" points="127.2795,-12.0001 117.2795,-15.5 127.2794,-19.0001 127.2795,-12.0001"/>
</g>
<!-- Node1555 -->
<g id="node3" class="node">
<title>Node1555</title>
<g id="a_node3"><a xlink:href="rlm__eap__fast_8c.html#a1ee517a20d1254bcde78063a1e36840c" target="_top" xlink:title="mod_process">
<polygon fill="none" stroke="#000000" points="283,-6 283,-25 358,-25 358,-6 283,-6"/>
<text text-anchor="middle" x="320.5" y="-13" font-family="Helvetica,sans-Serif" font-size="10.00" fill="#000000">mod_process</text>
</a>
</g>
</g>
<!-- Node1554&#45;&gt;Node1555 -->
<g id="edge2" class="edge">
<title>Node1554&#45;&gt;Node1555</title>
<path fill="none" stroke="#191970" d="M257.3029,-15.5C265.9093,-15.5 274.5961,-15.5 282.6585,-15.5"/>
<polygon fill="#191970" stroke="#191970" points="257.279,-12.0001 247.2789,-15.5 257.2789,-19.0001 257.279,-12.0001"/>
</g>
<!-- Node1556 -->
<g id="node4" class="node">
<title>Node1556</title>
<g id="a_node4"><a xlink:href="rlm__eap__fast_8c.html#afde9901631f6849be380901f6970a49b" target="_top" xlink:title="mod_session_init">
<polygon fill="none" stroke="#000000" points="394,-6 394,-25 486,-25 486,-6 394,-6"/>
<text text-anchor="middle" x="440" y="-13" font-family="Helvetica,sans-Serif" font-size="10.00" fill="#000000">mod_session_init</text>
</a>
</g>
</g>
<!-- Node1555&#45;&gt;Node1556 -->
<g id="edge3" class="edge">
<title>Node1555&#45;&gt;Node1556</title>
<path fill="none" stroke="#191970" d="M368.5645,-15.5C376.8304,-15.5 385.4068,-15.5 393.6271,-15.5"/>
<polygon fill="#191970" stroke="#191970" points="368.3106,-12.0001 358.3105,-15.5 368.3105,-19.0001 368.3106,-12.0001"/>
</g>
</g>
</svg>
