<?xml version="1.0" encoding="UTF-8" standalone="no"?>
<!DOCTYPE svg PUBLIC "-//W3C//DTD SVG 1.1//EN"
 "http://www.w3.org/Graphics/SVG/1.1/DTD/svg11.dtd">
<!-- Generated by graphviz version 2.40.1 (20161225.0304)
 -->
<!-- Title: _fr_mkdir Pages: 1 -->
<svg width="789pt" height="746pt"
 viewBox="0.00 0.00 789.00 746.00" xmlns="http://www.w3.org/2000/svg" xmlns:xlink="http://www.w3.org/1999/xlink">
<g id="graph0" class="graph" transform="scale(1 1) rotate(0) translate(4 742.0029)">
<title>_fr_mkdir</title>
<!-- Node0 -->
<g id="node1" class="node">
<title>Node0</title>
<polygon fill="#bfbfbf" stroke="#000000" points="0,-608.5 0,-627.5 57,-627.5 57,-608.5 0,-608.5"/>
<text text-anchor="middle" x="28.5" y="-615.5" font-family="Helvetica,sans-Serif" font-size="10.00" fill="#000000">_fr_mkdir</text>
</g>
<!-- Node1 -->
<g id="node2" class="node">
<title>Node1</title>
<g id="a_node2"><a xlink:href="strerror_8c.html#ae701765650b8aea79a3037bc4921d7f8" target="_top" xlink:title="Log to thread local error buffer. ">
<polygon fill="none" stroke="#000000" points="106,-323.5 106,-342.5 192,-342.5 192,-323.5 106,-323.5"/>
<text text-anchor="middle" x="149" y="-330.5" font-family="Helvetica,sans-Serif" font-size="10.00" fill="#000000">fr_strerror_printf</text>
</a>
</g>
</g>
<!-- Node0&#45;&gt;Node1 -->
<g id="edge1" class="edge">
<title>Node0&#45;&gt;Node1</title>
<path fill="none" stroke="#191970" d="M32.6479,-608.1897C50.0655,-566.9945 117.4692,-407.575 140.9103,-352.1334"/>
<polygon fill="#191970" stroke="#191970" points="144.1989,-353.3427 144.8696,-342.7691 137.7515,-350.6166 144.1989,-353.3427"/>
</g>
<!-- Node85 -->
<g id="node20" class="node">
<title>Node85</title>
<g id="a_node20"><a xlink:href="syserror_8c.html#a18747f9d648d0aeecc4a8b27ac0435aa" target="_top" xlink:title="Guaranteed to be thread&#45;safe version of strerror. ">
<polygon fill="none" stroke="#ff0000" points="268,-608.5 268,-627.5 331,-627.5 331,-608.5 268,-608.5"/>
<text text-anchor="middle" x="299.5" y="-615.5" font-family="Helvetica,sans-Serif" font-size="10.00" fill="#000000">fr_syserror</text>
</a>
</g>
</g>
<!-- Node0&#45;&gt;Node85 -->
<g id="edge30" class="edge">
<title>Node0&#45;&gt;Node85</title>
<path fill="none" stroke="#191970" d="M57.2452,-618C105.2351,-618 201.8788,-618 257.5005,-618"/>
<polygon fill="#191970" stroke="#191970" points="257.7197,-621.5001 267.7197,-618 257.7196,-614.5001 257.7197,-621.5001"/>
</g>
<!-- Node135 -->
<g id="node21" class="node">
<title>Node135</title>
<g id="a_node21"><a xlink:href="strerror_8c.html#a2f2232a184a763c76b3d87d5bea7a868" target="_top" xlink:title="Add a message to an existing stack of messages. ">
<polygon fill="none" stroke="#000000" points="93,-665.5 93,-684.5 205,-684.5 205,-665.5 93,-665.5"/>
<text text-anchor="middle" x="149" y="-672.5" font-family="Helvetica,sans-Serif" font-size="10.00" fill="#000000">fr_strerror_printf_push</text>
</a>
</g>
</g>
<!-- Node0&#45;&gt;Node135 -->
<g id="edge32" class="edge">
<title>Node0&#45;&gt;Node135</title>
<path fill="none" stroke="#191970" d="M48.669,-627.5405C68.0453,-636.7061 97.5433,-650.6595 119.5465,-661.0676"/>
<polygon fill="#191970" stroke="#191970" points="118.2289,-664.3162 128.7652,-665.4284 121.2222,-657.9884 118.2289,-664.3162"/>
</g>
<!-- Node2 -->
<g id="node3" class="node">
<title>Node2</title>
<g id="a_node3"><a xlink:href="acutest_8h.html#aecf9a9be8105efb1454cd8c1ef6cb1c5" target="_top" xlink:title="va_start">
<polygon fill="none" stroke="#000000" points="704.5,-646.5 704.5,-665.5 756.5,-665.5 756.5,-646.5 704.5,-646.5"/>
<text text-anchor="middle" x="730.5" y="-653.5" font-family="Helvetica,sans-Serif" font-size="10.00" fill="#000000">va_start</text>
</a>
</g>
</g>
<!-- Node1&#45;&gt;Node2 -->
<g id="edge2" class="edge">
<title>Node1&#45;&gt;Node2</title>
<path fill="none" stroke="#191970" d="M150.4149,-342.659C157.5928,-390.2259 191.5848,-598.8177 241,-637 311.3596,-691.3657 593.3539,-669.5959 694.3166,-659.7946"/>
<polygon fill="#191970" stroke="#191970" points="694.7313,-663.2708 704.338,-658.8029 694.0419,-656.3048 694.7313,-663.2708"/>
</g>
<!-- Node3 -->
<g id="node4" class="node">
<title>Node3</title>
<g id="a_node4"><a xlink:href="strerror_8c.html#a193b1e0b3712e3bbee338812c06af482" target="_top" xlink:title="fr_strerror_vprintf">
<polygon fill="none" stroke="#000000" points="254,-342.5 254,-361.5 345,-361.5 345,-342.5 254,-342.5"/>
<text text-anchor="middle" x="299.5" y="-349.5" font-family="Helvetica,sans-Serif" font-size="10.00" fill="#000000">fr_strerror_vprintf</text>
</a>
</g>
</g>
<!-- Node1&#45;&gt;Node3 -->
<g id="edge3" class="edge">
<title>Node1&#45;&gt;Node3</title>
<path fill="none" stroke="#191970" d="M192.1273,-338.4446C208.096,-340.4606 226.4406,-342.7766 243.3961,-344.9171"/>
<polygon fill="#191970" stroke="#191970" points="243.3804,-348.4428 253.7401,-346.223 244.2572,-341.498 243.3804,-348.4428"/>
</g>
<!-- Node6 -->
<g id="node7" class="node">
<title>Node6</title>
<g id="a_node7"><a xlink:href="acutest_8h.html#a36af1f79dd6adf0809c21e76535034d5" target="_top" xlink:title="va_end">
<polygon fill="none" stroke="#000000" points="706.5,-485.5 706.5,-504.5 754.5,-504.5 754.5,-485.5 706.5,-485.5"/>
<text text-anchor="middle" x="730.5" y="-492.5" font-family="Helvetica,sans-Serif" font-size="10.00" fill="#000000">va_end</text>
</a>
</g>
</g>
<!-- Node1&#45;&gt;Node6 -->
<g id="edge29" class="edge">
<title>Node1&#45;&gt;Node6</title>
<path fill="none" stroke="#191970" d="M192.3289,-327.6089C284.0229,-318.5079 500.9923,-309.4031 644,-404 674.564,-424.2175 702.29,-457.1274 717.7238,-477.3393"/>
<polygon fill="#191970" stroke="#191970" points="714.9508,-479.4757 723.7373,-485.3959 720.5605,-475.2885 714.9508,-479.4757"/>
</g>
<!-- Node4 -->
<g id="node5" class="node">
<title>Node4</title>
<g id="a_node5"><a xlink:href="strerror_8c.html#a42c2cc9f76fb9dac723a1903c181e1c7" target="_top" xlink:title="Initialise thread local storage. ">
<polygon fill="none" stroke="#000000" points="403,-418.5 403,-437.5 480,-437.5 480,-418.5 403,-418.5"/>
<text text-anchor="middle" x="441.5" y="-425.5" font-family="Helvetica,sans-Serif" font-size="10.00" fill="#000000">fr_strerror_init</text>
</a>
</g>
</g>
<!-- Node3&#45;&gt;Node4 -->
<g id="edge4" class="edge">
<title>Node3&#45;&gt;Node4</title>
<path fill="none" stroke="#191970" d="M313.8162,-361.6425C331.9784,-373.6367 364.4948,-394.3218 394,-409 397.8468,-410.9137 401.936,-412.7826 406.0384,-414.5553"/>
<polygon fill="#191970" stroke="#191970" points="404.9496,-417.8928 415.5274,-418.4929 407.6325,-411.4274 404.9496,-417.8928"/>
</g>
<!-- Node5 -->
<g id="node6" class="node">
<title>Node5</title>
<g id="a_node6"><a xlink:href="strerror_8c.html#a2c8e65d6d4b73fb705cc023f60acb099" target="_top" xlink:title="Print the current error to stderr with a prefix. ">
<polygon fill="none" stroke="#ff0000" points="558,-570.5 558,-589.5 611,-589.5 611,-570.5 558,-570.5"/>
<text text-anchor="middle" x="584.5" y="-577.5" font-family="Helvetica,sans-Serif" font-size="10.00" fill="#000000">fr_perror</text>
</a>
</g>
</g>
<!-- Node3&#45;&gt;Node5 -->
<g id="edge11" class="edge">
<title>Node3&#45;&gt;Node5</title>
<path fill="none" stroke="#191970" d="M308.1035,-361.7354C324.1204,-379.6031 359.9803,-418.4174 394,-447 450.2281,-494.2416 522.8352,-541.56 560.082,-564.9501"/>
<polygon fill="#191970" stroke="#191970" points="558.422,-568.0398 568.7582,-570.3666 562.129,-562.1019 558.422,-568.0398"/>
</g>
<!-- Node3&#45;&gt;Node6 -->
<g id="edge27" class="edge">
<title>Node3&#45;&gt;Node6</title>
<path fill="none" stroke="#191970" d="M345.2026,-348.6916C384.9241,-347.6161 443.1295,-350.4638 489,-371 508.8104,-379.8691 506.432,-392.7598 525,-404 573.1078,-433.1222 592.8059,-423.7269 644,-447 665.6347,-456.8352 689.1537,-470.0622 706.1991,-480.1407"/>
<polygon fill="#191970" stroke="#191970" points="704.571,-483.2451 714.9497,-485.3744 708.1641,-477.2376 704.571,-483.2451"/>
</g>
<!-- Node12 -->
<g id="node9" class="node">
<title>Node12</title>
<g id="a_node9"><a xlink:href="strerror_8c.html#a9d878c1ddb1b385cdaf6523fff68529c" target="_top" xlink:title="Reset cursor state. ">
<polygon fill="none" stroke="#000000" points="688,-266.5 688,-285.5 773,-285.5 773,-266.5 688,-266.5"/>
<text text-anchor="middle" x="730.5" y="-273.5" font-family="Helvetica,sans-Serif" font-size="10.00" fill="#000000">fr_strerror_clear</text>
</a>
</g>
</g>
<!-- Node3&#45;&gt;Node12 -->
<g id="edge10" class="edge">
<title>Node3&#45;&gt;Node12</title>
<path fill="none" stroke="#191970" d="M345.2165,-343.9386C425.7837,-329.7319 592.5739,-300.3211 677.8297,-285.2876"/>
<polygon fill="#191970" stroke="#191970" points="678.5711,-288.7109 687.8113,-283.5275 677.3554,-281.8173 678.5711,-288.7109"/>
</g>
<!-- Node13 -->
<g id="node10" class="node">
<title>Node13</title>
<g id="a_node10"><a xlink:href="print_8c.html#a27ae94b5a4c77de49aa2f387765a4d58" target="_top" xlink:title="Special version of vasprintf which implements custom format specifiers. ">
<polygon fill="none" stroke="#000000" points="409,-190.5 409,-209.5 474,-209.5 474,-190.5 409,-190.5"/>
<text text-anchor="middle" x="441.5" y="-197.5" font-family="Helvetica,sans-Serif" font-size="10.00" fill="#000000">fr_vasprintf</text>
</a>
</g>
</g>
<!-- Node3&#45;&gt;Node13 -->
<g id="edge12" class="edge">
<title>Node3&#45;&gt;Node13</title>
<path fill="none" stroke="#191970" d="M308.3827,-342.4917C331.7921,-317.4338 395.4289,-249.3155 425.4349,-217.1965"/>
<polygon fill="#191970" stroke="#191970" points="428.3516,-219.2014 432.6206,-209.5047 423.2364,-214.4227 428.3516,-219.2014"/>
</g>
<!-- Node134 -->
<g id="node19" class="node">
<title>Node134</title>
<g id="a_node19"><a xlink:href="cursor_8c.html#a5d942382660657c3b4cb6e9cb2b12b2c" target="_top" xlink:title="Insert a single item at the start of the list. ">
<polygon fill="none" stroke="#000000" points="394,-380.5 394,-399.5 489,-399.5 489,-380.5 394,-380.5"/>
<text text-anchor="middle" x="441.5" y="-387.5" font-family="Helvetica,sans-Serif" font-size="10.00" fill="#000000">fr_cursor_prepend</text>
</a>
</g>
</g>
<!-- Node3&#45;&gt;Node134 -->
<g id="edge28" class="edge">
<title>Node3&#45;&gt;Node134</title>
<path fill="none" stroke="#191970" d="M335.3326,-361.589C353.6634,-366.4944 376.1784,-372.5196 395.7501,-377.7571"/>
<polygon fill="#191970" stroke="#191970" points="395.114,-381.2099 405.6789,-380.4141 396.9236,-374.4479 395.114,-381.2099"/>
</g>
<!-- Node4&#45;&gt;Node5 -->
<g id="edge5" class="edge">
<title>Node4&#45;&gt;Node5</title>
<path fill="none" stroke="#191970" d="M466.0128,-437.7194C473.8319,-441.4924 482.2093,-446.2939 489,-452 527.3774,-484.2478 559.1804,-534.7892 574.5536,-561.7006"/>
<polygon fill="#191970" stroke="#191970" points="571.5207,-563.4482 579.4558,-570.4685 577.6306,-560.0321 571.5207,-563.4482"/>
</g>
<!-- Node11 -->
<g id="node8" class="node">
<title>Node11</title>
<g id="a_node8"><a xlink:href="strerror_8c.html#afe66becac3be1b0b82b90889d27fcf99" target="_top" xlink:title="_fr_logging_free">
<polygon fill="none" stroke="#000000" points="541.5,-456.5 541.5,-475.5 627.5,-475.5 627.5,-456.5 541.5,-456.5"/>
<text text-anchor="middle" x="584.5" y="-463.5" font-family="Helvetica,sans-Serif" font-size="10.00" fill="#000000">_fr_logging_free</text>
</a>
</g>
</g>
<!-- Node4&#45;&gt;Node11 -->
<g id="edge8" class="edge">
<title>Node4&#45;&gt;Node11</title>
<path fill="none" stroke="#191970" d="M477.5849,-437.589C496.1296,-442.5169 518.9265,-448.5749 538.699,-453.8291"/>
<polygon fill="#191970" stroke="#191970" points="537.8631,-457.2284 548.4266,-456.4141 539.6609,-450.4632 537.8631,-457.2284"/>
</g>
<!-- Node4&#45;&gt;Node12 -->
<g id="edge9" class="edge">
<title>Node4&#45;&gt;Node12</title>
<path fill="none" stroke="#191970" d="M467.3858,-418.314C474.4695,-415.4832 482.0956,-412.267 489,-409 570.6242,-370.378 663.0985,-316.4502 706.1023,-290.7506"/>
<polygon fill="#191970" stroke="#191970" points="707.9701,-293.7116 714.7457,-285.5666 704.3697,-287.7086 707.9701,-293.7116"/>
</g>
<!-- Node5&#45;&gt;Node2 -->
<g id="edge6" class="edge">
<title>Node5&#45;&gt;Node2</title>
<path fill="none" stroke="#191970" d="M602.991,-589.6255C628.3322,-602.8168 674.0341,-626.6068 703.2863,-641.834"/>
<polygon fill="#191970" stroke="#191970" points="701.6729,-644.9399 712.1591,-646.4527 704.905,-638.7307 701.6729,-644.9399"/>
</g>
<!-- Node5&#45;&gt;Node6 -->
<g id="edge7" class="edge">
<title>Node5&#45;&gt;Node6</title>
<path fill="none" stroke="#191970" d="M611.1654,-570.7541C621.6486,-566.7336 633.6318,-561.6481 644,-556 668.1852,-542.8251 693.6999,-524.1688 710.698,-510.9651"/>
<polygon fill="#191970" stroke="#191970" points="713.0689,-513.5529 718.7583,-504.6153 708.7371,-508.0542 713.0689,-513.5529"/>
</g>
<!-- Node13&#45;&gt;Node1 -->
<g id="edge16" class="edge">
<title>Node13&#45;&gt;Node1</title>
<path fill="none" stroke="#191970" d="M420.2617,-209.6571C369.0539,-232.9413 238.6392,-292.241 179.2655,-319.2383"/>
<polygon fill="#191970" stroke="#191970" points="177.6903,-316.1096 170.0359,-323.435 180.5878,-322.4818 177.6903,-316.1096"/>
</g>
<!-- Node13&#45;&gt;Node6 -->
<g id="edge14" class="edge">
<title>Node13&#45;&gt;Node6</title>
<path fill="none" stroke="#191970" d="M454.8231,-209.7034C488.7634,-234.8 580.2927,-304.8724 644,-376 662.7539,-396.9383 663.5371,-405.2163 680,-428 692.1766,-444.8518 706.4738,-463.7402 716.7416,-477.1554"/>
<polygon fill="#191970" stroke="#191970" points="713.9784,-479.3038 722.8443,-485.1044 719.5308,-475.041 713.9784,-479.3038"/>
</g>
<!-- Node14 -->
<g id="node11" class="node">
<title>Node14</title>
<g id="a_node11"><a xlink:href="value_8h.html#a878e0abfce7189a1784cdf15bc9fc3a3" target="_top" xlink:title="fr_value_box_aprint">
<polygon fill="none" stroke="#000000" points="680,-104.5 680,-123.5 781,-123.5 781,-104.5 680,-104.5"/>
<text text-anchor="middle" x="730.5" y="-111.5" font-family="Helvetica,sans-Serif" font-size="10.00" fill="#000000">fr_value_box_aprint</text>
</a>
</g>
</g>
<!-- Node13&#45;&gt;Node14 -->
<g id="edge13" class="edge">
<title>Node13&#45;&gt;Node14</title>
<path fill="none" stroke="#191970" d="M451.9177,-190.493C466.8781,-177.4345 495.8668,-154.2858 525,-143 571.5578,-124.9642 627.9255,-117.9568 669.8408,-115.3231"/>
<polygon fill="#191970" stroke="#191970" points="670.113,-118.8134 679.9005,-114.7571 669.7197,-111.8244 670.113,-118.8134"/>
</g>
<!-- Node15 -->
<g id="node12" class="node">
<title>Node15</title>
<g id="a_node12"><a xlink:href="talloc_8c.html#a3536feb85c89aa239851ef0830b72e64" target="_top" xlink:title="Call talloc_strdup, setting the type on the new chunk correctly. ">
<polygon fill="none" stroke="#000000" points="680,-47.5 680,-66.5 781,-66.5 781,-47.5 680,-47.5"/>
<text text-anchor="middle" x="730.5" y="-54.5" font-family="Helvetica,sans-Serif" font-size="10.00" fill="#000000">talloc_typed_strdup</text>
</a>
</g>
</g>
<!-- Node13&#45;&gt;Node15 -->
<g id="edge15" class="edge">
<title>Node13&#45;&gt;Node15</title>
<path fill="none" stroke="#191970" d="M446.0319,-190.4626C459.5476,-162.4585 500.1741,-81.5258 525,-67 569.3822,-41.0316 628.8331,-41.1071 672.3704,-46.1473"/>
<polygon fill="#191970" stroke="#191970" points="672.1555,-49.6482 682.5186,-47.4444 673.0431,-42.7047 672.1555,-49.6482"/>
</g>
<!-- Node16 -->
<g id="node13" class="node">
<title>Node16</title>
<g id="a_node13"><a xlink:href="value_8c.html#a3a0550d465b81917f8b0c69a3373163e" target="_top" xlink:title="Convert one type of fr_value_box_t to another. ">
<polygon fill="none" stroke="#ff0000" points="536.5,-.5 536.5,-19.5 632.5,-19.5 632.5,-.5 536.5,-.5"/>
<text text-anchor="middle" x="584.5" y="-7.5" font-family="Helvetica,sans-Serif" font-size="10.00" fill="#000000">fr_value_box_cast</text>
</a>
</g>
</g>
<!-- Node13&#45;&gt;Node16 -->
<g id="edge17" class="edge">
<title>Node13&#45;&gt;Node16</title>
<path fill="none" stroke="#191970" d="M446.2751,-190.0286C463.0419,-155.0803 518.5621,-39.9266 525,-34 529.3048,-30.037 534.3483,-26.6899 539.6461,-23.8727"/>
<polygon fill="#191970" stroke="#191970" points="541.1501,-27.0332 548.7164,-19.6168 538.1766,-20.6961 541.1501,-27.0332"/>
</g>
<!-- Node130 -->
<g id="node14" class="node">
<title>Node130</title>
<g id="a_node14"><a xlink:href="strerror_8c.html#a83ee876ee41b1ae672dc4dcda4f02a2e" target="_top" xlink:title="Get the last library error. ">
<polygon fill="none" stroke="#ff0000" points="555,-228.5 555,-247.5 614,-247.5 614,-228.5 555,-228.5"/>
<text text-anchor="middle" x="584.5" y="-235.5" font-family="Helvetica,sans-Serif" font-size="10.00" fill="#000000">fr_strerror</text>
</a>
</g>
</g>
<!-- Node13&#45;&gt;Node130 -->
<g id="edge19" class="edge">
<title>Node13&#45;&gt;Node130</title>
<path fill="none" stroke="#191970" d="M474.3071,-208.718C495.33,-214.3045 522.7394,-221.5881 544.962,-227.4934"/>
<polygon fill="#191970" stroke="#191970" points="544.2023,-230.9129 554.7658,-230.0986 546.0001,-224.1477 544.2023,-230.9129"/>
</g>
<!-- Node26 -->
<g id="node16" class="node">
<title>Node26</title>
<g id="a_node16"><a xlink:href="value_8c.html#ad5da2574fed047b3ae861999d06c38ac" target="_top" xlink:title="Clear/free any existing value and metadata. ">
<polygon fill="none" stroke="#ff0000" points="535.5,-190.5 535.5,-209.5 633.5,-209.5 633.5,-190.5 535.5,-190.5"/>
<text text-anchor="middle" x="584.5" y="-197.5" font-family="Helvetica,sans-Serif" font-size="10.00" fill="#000000">fr_value_box_clear</text>
</a>
</g>
</g>
<!-- Node13&#45;&gt;Node26 -->
<g id="edge22" class="edge">
<title>Node13&#45;&gt;Node26</title>
<path fill="none" stroke="#191970" d="M474.3071,-200C489.4027,-200 507.7912,-200 525.1878,-200"/>
<polygon fill="#191970" stroke="#191970" points="525.2836,-203.5001 535.2836,-200 525.2836,-196.5001 525.2836,-203.5001"/>
</g>
<!-- Node131 -->
<g id="node17" class="node">
<title>Node131</title>
<g id="a_node17"><a xlink:href="value_8c.html#a1064a346792dc1e5ecf05d04b4c1af55" target="_top" xlink:title="Concatenate the string representations of a list of value boxes together. ">
<polygon fill="none" stroke="#ff0000" points="525,-76.5 525,-95.5 644,-95.5 644,-76.5 525,-76.5"/>
<text text-anchor="middle" x="584.5" y="-83.5" font-family="Helvetica,sans-Serif" font-size="10.00" fill="#000000">fr_value_box_list_aprint</text>
</a>
</g>
</g>
<!-- Node13&#45;&gt;Node131 -->
<g id="edge23" class="edge">
<title>Node13&#45;&gt;Node131</title>
<path fill="none" stroke="#191970" d="M448.2276,-190.2898C461.1798,-172.2311 491.2971,-133.2122 525,-110 530.7935,-106.0098 537.3499,-102.5277 543.94,-99.5458"/>
<polygon fill="#191970" stroke="#191970" points="545.6587,-102.6209 553.5345,-95.5341 542.9583,-96.1627 545.6587,-102.6209"/>
</g>
<!-- Node133 -->
<g id="node18" class="node">
<title>Node133</title>
<g id="a_node18"><a xlink:href="util_2pair_8h.html#acfe6934363fefdc67e14fc08a205952b" target="_top" xlink:title="fr_pair_aprint">
<polygon fill="none" stroke="#000000" points="548,-152.5 548,-171.5 621,-171.5 621,-152.5 548,-152.5"/>
<text text-anchor="middle" x="584.5" y="-159.5" font-family="Helvetica,sans-Serif" font-size="10.00" fill="#000000">fr_pair_aprint</text>
</a>
</g>
</g>
<!-- Node13&#45;&gt;Node133 -->
<g id="edge26" class="edge">
<title>Node13&#45;&gt;Node133</title>
<path fill="none" stroke="#191970" d="M474.3071,-191.282C493.4557,-186.1936 517.9027,-179.6972 538.9027,-174.1168"/>
<polygon fill="#191970" stroke="#191970" points="539.8203,-177.4945 548.586,-171.5436 538.0225,-170.7293 539.8203,-177.4945"/>
</g>
<!-- Node16&#45;&gt;Node1 -->
<g id="edge18" class="edge">
<title>Node16&#45;&gt;Node1</title>
<path fill="none" stroke="#191970" d="M563.7506,-19.597C552.1453,-25.1779 537.5356,-32.5615 525,-40 393.1084,-118.2624 357.5085,-136.2696 241,-236 211.3776,-261.3566 181.0135,-295.2071 163.6385,-315.483"/>
<polygon fill="#191970" stroke="#191970" points="160.8267,-313.3871 157.0273,-323.2773 166.1651,-317.9151 160.8267,-313.3871"/>
</g>
<!-- Node130&#45;&gt;Node12 -->
<g id="edge21" class="edge">
<title>Node130&#45;&gt;Node12</title>
<path fill="none" stroke="#191970" d="M614.0453,-245.6899C634.0781,-250.9039 660.9753,-257.9045 683.8731,-263.8642"/>
<polygon fill="#191970" stroke="#191970" points="683.1813,-267.3007 693.7405,-266.4325 684.9445,-260.5264 683.1813,-267.3007"/>
</g>
<!-- Node8 -->
<g id="node15" class="node">
<title>Node8</title>
<g id="a_node15"><a xlink:href="cursor_8c.html#ac0e33de2a6f1cb5e82c4d4e4255c2b95" target="_top" xlink:title="Rewind cursor to the start of the list. ">
<polygon fill="none" stroke="#ff0000" points="690,-399.5 690,-418.5 771,-418.5 771,-399.5 690,-399.5"/>
<text text-anchor="middle" x="730.5" y="-406.5" font-family="Helvetica,sans-Serif" font-size="10.00" fill="#000000">fr_cursor_head</text>
</a>
</g>
</g>
<!-- Node130&#45;&gt;Node8 -->
<g id="edge20" class="edge">
<title>Node130&#45;&gt;Node8</title>
<path fill="none" stroke="#191970" d="M592.7679,-247.6837C616.5583,-275.5477 685.4187,-356.1993 715.8007,-391.7837"/>
<polygon fill="#191970" stroke="#191970" points="713.1677,-394.0901 722.3228,-399.4226 718.4913,-389.5448 713.1677,-394.0901"/>
</g>
<!-- Node131&#45;&gt;Node14 -->
<g id="edge24" class="edge">
<title>Node131&#45;&gt;Node14</title>
<path fill="none" stroke="#191970" d="M634.3366,-95.5577C646.0823,-97.8103 658.7207,-100.2341 670.8499,-102.5603"/>
<polygon fill="#191970" stroke="#191970" points="670.4078,-106.0392 680.888,-104.4854 671.7263,-99.1645 670.4078,-106.0392"/>
</g>
<!-- Node131&#45;&gt;Node15 -->
<g id="edge25" class="edge">
<title>Node131&#45;&gt;Node15</title>
<path fill="none" stroke="#191970" d="M632.7105,-76.4239C645.4186,-73.8997 659.2641,-71.1496 672.4323,-68.534"/>
<polygon fill="#191970" stroke="#191970" points="673.2137,-71.9473 682.3401,-66.566 671.8498,-65.0814 673.2137,-71.9473"/>
</g>
<!-- Node85&#45;&gt;Node5 -->
<g id="edge31" class="edge">
<title>Node85&#45;&gt;Node5</title>
<path fill="none" stroke="#191970" d="M331.043,-614.1967C368.6729,-609.6152 433.4718,-601.5857 489,-594 508.4305,-591.3456 530.0541,-588.1923 547.8048,-585.551"/>
<polygon fill="#191970" stroke="#191970" points="548.39,-589.0025 557.7627,-584.0626 547.3552,-582.0794 548.39,-589.0025"/>
</g>
<!-- Node135&#45;&gt;Node2 -->
<g id="edge33" class="edge">
<title>Node135&#45;&gt;Node2</title>
<path fill="none" stroke="#191970" d="M169.273,-684.5671C187.5559,-692.6329 215.4219,-703.5514 241,-708 417.4621,-738.6908 471.4083,-755.8841 644,-708 669.0731,-701.0437 694.164,-684.6603 710.8151,-672.1274"/>
<polygon fill="#191970" stroke="#191970" points="713.4019,-674.5492 719.1437,-665.6452 709.1025,-669.0252 713.4019,-674.5492"/>
</g>
<!-- Node135&#45;&gt;Node6 -->
<g id="edge41" class="edge">
<title>Node135&#45;&gt;Node6</title>
<path fill="none" stroke="#191970" d="M205.1354,-680.0972C302.4037,-686.1266 505.1577,-686.0797 644,-599 678.6225,-577.2853 706.1453,-537.0347 720.2218,-513.4831"/>
<polygon fill="#191970" stroke="#191970" points="723.2728,-515.1988 725.2578,-504.7916 717.216,-511.6894 723.2728,-515.1988"/>
</g>
<!-- Node136 -->
<g id="node22" class="node">
<title>Node136</title>
<g id="a_node22"><a xlink:href="strerror_8c.html#a986fb6cf52b0bb19d3a1a0d815d8dd5e" target="_top" xlink:title="Add a message to an existing stack of messages. ">
<polygon fill="none" stroke="#000000" points="241,-494.5 241,-513.5 358,-513.5 358,-494.5 241,-494.5"/>
<text text-anchor="middle" x="299.5" y="-501.5" font-family="Helvetica,sans-Serif" font-size="10.00" fill="#000000">fr_strerror_vprintf_push</text>
</a>
</g>
</g>
<!-- Node135&#45;&gt;Node136 -->
<g id="edge34" class="edge">
<title>Node135&#45;&gt;Node136</title>
<path fill="none" stroke="#191970" d="M157.5227,-665.3163C182.0464,-637.4523 253.0292,-556.8007 284.3476,-521.2163"/>
<polygon fill="#191970" stroke="#191970" points="287.0913,-523.3966 291.0707,-513.5774 281.8366,-518.7718 287.0913,-523.3966"/>
</g>
<!-- Node136&#45;&gt;Node4 -->
<g id="edge35" class="edge">
<title>Node136&#45;&gt;Node4</title>
<path fill="none" stroke="#191970" d="M317.4844,-494.3745C342.0246,-481.2403 386.1967,-457.599 414.6615,-442.3642"/>
<polygon fill="#191970" stroke="#191970" points="416.4966,-445.3519 423.6616,-437.5473 413.1934,-439.1803 416.4966,-445.3519"/>
</g>
<!-- Node136&#45;&gt;Node5 -->
<g id="edge36" class="edge">
<title>Node136&#45;&gt;Node5</title>
<path fill="none" stroke="#191970" d="M313.1434,-513.6967C330.8652,-525.7606 363.1897,-545.9883 394,-556 445.5811,-572.7612 508.5462,-577.9114 547.5895,-579.4391"/>
<polygon fill="#191970" stroke="#191970" points="547.828,-582.9488 557.938,-579.7805 548.0589,-575.9526 547.828,-582.9488"/>
</g>
<!-- Node136&#45;&gt;Node6 -->
<g id="edge38" class="edge">
<title>Node136&#45;&gt;Node6</title>
<path fill="none" stroke="#191970" d="M354.3152,-513.5144C367.2859,-515.3785 381.0984,-517.0495 394,-518 504.8108,-526.1637 533.8256,-532.3973 644,-518 661.5689,-515.7041 680.6476,-510.8906 696.4057,-506.2576"/>
<polygon fill="#191970" stroke="#191970" points="697.6843,-509.5271 706.2323,-503.2674 695.6465,-502.8302 697.6843,-509.5271"/>
</g>
<!-- Node136&#45;&gt;Node13 -->
<g id="edge37" class="edge">
<title>Node136&#45;&gt;Node13</title>
<path fill="none" stroke="#191970" d="M304.0638,-494.2297C324.2608,-450.991 405.7922,-276.4448 432.7782,-218.672"/>
<polygon fill="#191970" stroke="#191970" points="435.963,-220.1239 437.024,-209.5823 429.6207,-217.1614 435.963,-220.1239"/>
</g>
<!-- Node136&#45;&gt;Node8 -->
<g id="edge40" class="edge">
<title>Node136&#45;&gt;Node8</title>
<path fill="none" stroke="#191970" d="M358.1001,-512.051C428.751,-519.2623 549.7388,-523.5246 644,-485 674.2145,-472.6513 701.0755,-445.1374 716.5692,-426.8271"/>
<polygon fill="#191970" stroke="#191970" points="719.6066,-428.6417 723.227,-418.6846 714.1875,-424.2107 719.6066,-428.6417"/>
</g>
<!-- Node136&#45;&gt;Node134 -->
<g id="edge39" class="edge">
<title>Node136&#45;&gt;Node134</title>
<path fill="none" stroke="#191970" d="M306.8197,-494.3629C321.4966,-475.6146 356.3556,-433.8939 394,-409 396.7411,-407.1873 399.6821,-405.5017 402.708,-403.9443"/>
<polygon fill="#191970" stroke="#191970" points="404.3335,-407.0484 411.925,-399.658 401.3817,-400.7012 404.3335,-407.0484"/>
</g>
</g>
</svg>
