<?xml version="1.0" encoding="UTF-8" standalone="no"?>
<!DOCTYPE svg PUBLIC "-//W3C//DTD SVG 1.1//EN"
 "http://www.w3.org/Graphics/SVG/1.1/DTD/svg11.dtd">
<!-- Generated by graphviz version 2.40.1 (20161225.0304)
 -->
<!-- Title: gethostbyaddr_r Pages: 1 -->
<svg width="716pt" height="294pt"
 viewBox="0.00 0.00 716.00 294.00" xmlns="http://www.w3.org/2000/svg" xmlns:xlink="http://www.w3.org/1999/xlink">
<g id="graph0" class="graph" transform="scale(1 1) rotate(0) translate(4 290)">
<title>gethostbyaddr_r</title>
<!-- Node7363 -->
<g id="node1" class="node">
<title>Node7363</title>
<polygon fill="#bfbfbf" stroke="#000000" points="0,-133.5 0,-152.5 86,-152.5 86,-133.5 0,-133.5"/>
<text text-anchor="middle" x="43" y="-140.5" font-family="Helvetica,sans-Serif" font-size="10.00" fill="#000000">gethostbyaddr_r</text>
</g>
<!-- Node7364 -->
<g id="node2" class="node">
<title>Node7364</title>
<g id="a_node2"><a xlink:href="getaddrinfo_8c.html#a84b53a447aa3457f8c46e2a12290b972" target="_top" xlink:title="getnameinfo">
<polygon fill="none" stroke="#000000" points="122,-133.5 122,-152.5 192,-152.5 192,-133.5 122,-133.5"/>
<text text-anchor="middle" x="157" y="-140.5" font-family="Helvetica,sans-Serif" font-size="10.00" fill="#000000">getnameinfo</text>
</a>
</g>
</g>
<!-- Node7363&#45;&gt;Node7364 -->
<g id="edge1" class="edge">
<title>Node7363&#45;&gt;Node7364</title>
<path fill="none" stroke="#191970" d="M96.2534,-143C104.9922,-143 113.8489,-143 121.9972,-143"/>
<polygon fill="#191970" stroke="#191970" points="96.0985,-139.5001 86.0985,-143 96.0985,-146.5001 96.0985,-139.5001"/>
</g>
<!-- Node7365 -->
<g id="node3" class="node">
<title>Node7365</title>
<g id="a_node3"><a xlink:href="inet_8h.html#a5b943beb9d5d4cd6cd029c010b4a98a9" target="_top" xlink:title="Perform reverse resolution of an IP address. ">
<polygon fill="none" stroke="#000000" points="228,-133.5 228,-152.5 296,-152.5 296,-133.5 228,-133.5"/>
<text text-anchor="middle" x="262" y="-140.5" font-family="Helvetica,sans-Serif" font-size="10.00" fill="#000000">fr_inet_ntoh</text>
</a>
</g>
</g>
<!-- Node7364&#45;&gt;Node7365 -->
<g id="edge2" class="edge">
<title>Node7364&#45;&gt;Node7365</title>
<path fill="none" stroke="#191970" d="M202.4221,-143C210.9091,-143 219.6475,-143 227.7281,-143"/>
<polygon fill="#191970" stroke="#191970" points="202.2556,-139.5001 192.2556,-143 202.2555,-146.5001 202.2556,-139.5001"/>
</g>
<!-- Node7366 -->
<g id="node4" class="node">
<title>Node7366</title>
<g id="a_node4"><a xlink:href="cf__parse_8c.html#a97e9d9172fbf35a1da8e4a7779e9e766" target="_top" xlink:title="Validation function for ipaddr conf_file types. ">
<polygon fill="none" stroke="#000000" points="333.5,-266.5 333.5,-285.5 450.5,-285.5 450.5,-266.5 333.5,-266.5"/>
<text text-anchor="middle" x="392" y="-273.5" font-family="Helvetica,sans-Serif" font-size="10.00" fill="#000000">fr_item_validate_ipaddr</text>
</a>
</g>
</g>
<!-- Node7365&#45;&gt;Node7366 -->
<g id="edge3" class="edge">
<title>Node7365&#45;&gt;Node7366</title>
<path fill="none" stroke="#191970" d="M268.8212,-162.12C278.8149,-187.4482 299.8165,-231.8465 332,-257 336.9932,-260.9025 342.8037,-264.012 348.8049,-266.4875"/>
<polygon fill="#191970" stroke="#191970" points="272.014,-160.667 265.2116,-152.5443 265.4639,-163.1361 272.014,-160.667"/>
</g>
<!-- Node7381 -->
<g id="node6" class="node">
<title>Node7381</title>
<g id="a_node6"><a xlink:href="client_8h.html#ac0cee507d112a71911836e1813a26c43" target="_top" xlink:title="Allocate a new client from a config section. ">
<polygon fill="none" stroke="#ff0000" points="349,-228.5 349,-247.5 435,-247.5 435,-228.5 349,-228.5"/>
<text text-anchor="middle" x="392" y="-235.5" font-family="Helvetica,sans-Serif" font-size="10.00" fill="#000000">client_afrom_cs</text>
</a>
</g>
</g>
<!-- Node7365&#45;&gt;Node7381 -->
<g id="edge5" class="edge">
<title>Node7365&#45;&gt;Node7381</title>
<path fill="none" stroke="#191970" d="M275.5919,-160.424C288.6382,-176.1812 309.6175,-199.1269 332,-214 340.877,-219.8987 351.4282,-224.7245 361.1886,-228.4614"/>
<polygon fill="#191970" stroke="#191970" points="278.2059,-158.0899 269.2016,-152.5065 272.7587,-162.4863 278.2059,-158.0899"/>
</g>
<!-- Node7390 -->
<g id="node7" class="node">
<title>Node7390</title>
<g id="a_node7"><a xlink:href="client_8h.html#a2ef2ad3efe46e8200f153bcfae70034e" target="_top" xlink:title="Read a single client from a file. ">
<polygon fill="none" stroke="#000000" points="508,-190.5 508,-209.5 572,-209.5 572,-190.5 508,-190.5"/>
<text text-anchor="middle" x="540" y="-197.5" font-family="Helvetica,sans-Serif" font-size="10.00" fill="#000000">client_read</text>
</a>
</g>
</g>
<!-- Node7365&#45;&gt;Node7390 -->
<g id="edge9" class="edge">
<title>Node7365&#45;&gt;Node7390</title>
<path fill="none" stroke="#191970" d="M287.5616,-157.5164C300.4899,-164.2112 316.6586,-171.6266 332,-176 392.4774,-193.2403 466.2053,-198.1396 507.656,-199.5042"/>
<polygon fill="#191970" stroke="#191970" points="288.8425,-154.2322 278.3742,-152.5996 285.5395,-160.404 288.8425,-154.2322"/>
</g>
<!-- Node7391 -->
<g id="node8" class="node">
<title>Node7391</title>
<g id="a_node8"><a xlink:href="rlm__client_8c.html#aed020b8107dd3d8d25837c97d945b5d0" target="_top" xlink:title="mod_authorize">
<polygon fill="none" stroke="#000000" points="628,-171.5 628,-190.5 708,-190.5 708,-171.5 628,-171.5"/>
<text text-anchor="middle" x="668" y="-178.5" font-family="Helvetica,sans-Serif" font-size="10.00" fill="#000000">mod_authorize</text>
</a>
</g>
</g>
<!-- Node7365&#45;&gt;Node7391 -->
<g id="edge14" class="edge">
<title>Node7365&#45;&gt;Node7391</title>
<path fill="none" stroke="#191970" d="M306.4399,-147.1594C385.9519,-154.6014 551.3656,-170.0835 627.7463,-177.2324"/>
<polygon fill="#191970" stroke="#191970" points="306.5481,-143.6543 296.2654,-146.2071 305.8957,-150.6239 306.5481,-143.6543"/>
</g>
<!-- Node7465 -->
<g id="node9" class="node">
<title>Node7465</title>
<g id="a_node9"><a xlink:href="client_8h.html#a134d75f0f017efd63813930c1fb0eb47" target="_top" xlink:title="Add a client from a result set (SQL) ">
<polygon fill="none" stroke="#000000" points="342.5,-114.5 342.5,-133.5 441.5,-133.5 441.5,-114.5 342.5,-114.5"/>
<text text-anchor="middle" x="392" y="-121.5" font-family="Helvetica,sans-Serif" font-size="10.00" fill="#000000">client_afrom_query</text>
</a>
</g>
</g>
<!-- Node7365&#45;&gt;Node7465 -->
<g id="edge8" class="edge">
<title>Node7365&#45;&gt;Node7465</title>
<path fill="none" stroke="#191970" d="M306.1154,-136.5524C317.7932,-134.8456 330.4773,-132.9918 342.4237,-131.2458"/>
<polygon fill="#191970" stroke="#191970" points="305.5447,-133.0985 296.156,-138.008 306.557,-140.0249 305.5447,-133.0985"/>
</g>
<!-- Node7466 -->
<g id="node10" class="node">
<title>Node7466</title>
<g id="a_node10"><a xlink:href="proto__bfd_8c.html#a02d30428f1fd175788c22488a5b965b3" target="_top" xlink:title="bfd_socket_print">
<polygon fill="none" stroke="#000000" points="347.5,-76.5 347.5,-95.5 436.5,-95.5 436.5,-76.5 347.5,-76.5"/>
<text text-anchor="middle" x="392" y="-83.5" font-family="Helvetica,sans-Serif" font-size="10.00" fill="#000000">bfd_socket_print</text>
</a>
</g>
</g>
<!-- Node7365&#45;&gt;Node7466 -->
<g id="edge10" class="edge">
<title>Node7365&#45;&gt;Node7466</title>
<path fill="none" stroke="#191970" d="M286.597,-128.1486C299.764,-120.5862 316.435,-111.6177 332,-105 340.2454,-101.4943 349.3646,-98.2851 357.9518,-95.5421"/>
<polygon fill="#191970" stroke="#191970" points="284.5613,-125.2845 277.6946,-133.3529 288.0941,-131.3276 284.5613,-125.2845"/>
</g>
<!-- Node7467 -->
<g id="node11" class="node">
<title>Node7467</title>
<g id="a_node11"><a xlink:href="dhcpclient_8c.html#a6d2435410a8ee362ef40aea83c8ce736" target="_top" xlink:title="send_with_socket">
<polygon fill="none" stroke="#000000" points="344.5,-38.5 344.5,-57.5 439.5,-57.5 439.5,-38.5 344.5,-38.5"/>
<text text-anchor="middle" x="392" y="-45.5" font-family="Helvetica,sans-Serif" font-size="10.00" fill="#000000">send_with_socket</text>
</a>
</g>
</g>
<!-- Node7365&#45;&gt;Node7467 -->
<g id="edge11" class="edge">
<title>Node7365&#45;&gt;Node7467</title>
<path fill="none" stroke="#191970" d="M274.4597,-124.7313C287.0848,-107.5269 308.1192,-82.1916 332,-67 337.9925,-63.1879 344.81,-60.0868 351.6472,-57.5813"/>
<polygon fill="#191970" stroke="#191970" points="271.2844,-123.1575 268.3462,-133.3367 276.991,-127.2116 271.2844,-123.1575"/>
</g>
<!-- Node7469 -->
<g id="node13" class="node">
<title>Node7469</title>
<g id="a_node13"><a xlink:href="proto__ldap__sync_8c.html#a5ac98d3413207914c74d23a72d4fc4aa" target="_top" xlink:title="Describe the socket we opened to the LDAP server. ">
<polygon fill="none" stroke="#000000" points="332,-.5 332,-19.5 452,-19.5 452,-.5 332,-.5"/>
<text text-anchor="middle" x="392" y="-7.5" font-family="Helvetica,sans-Serif" font-size="10.00" fill="#000000">proto_ldap_socket_print</text>
</a>
</g>
</g>
<!-- Node7365&#45;&gt;Node7469 -->
<g id="edge13" class="edge">
<title>Node7365&#45;&gt;Node7469</title>
<path fill="none" stroke="#191970" d="M268.8212,-123.88C278.8149,-98.5518 299.8165,-54.1535 332,-29 336.9932,-25.0975 342.8037,-21.988 348.8049,-19.5125"/>
<polygon fill="#191970" stroke="#191970" points="265.4639,-122.8639 265.2116,-133.4557 272.014,-125.333 265.4639,-122.8639"/>
</g>
<!-- Node7367 -->
<g id="node5" class="node">
<title>Node7367</title>
<g id="a_node5"><a xlink:href="cf__parse_8c.html#a1b96fe1ae92715ec179dc97d842777af" target="_top" xlink:title="Parses a CONF_PAIR into a C data type. ">
<polygon fill="none" stroke="#ff0000" points="488,-266.5 488,-285.5 592,-285.5 592,-266.5 488,-266.5"/>
<text text-anchor="middle" x="540" y="-273.5" font-family="Helvetica,sans-Serif" font-size="10.00" fill="#000000">cf_pair_parse_value</text>
</a>
</g>
</g>
<!-- Node7366&#45;&gt;Node7367 -->
<g id="edge4" class="edge">
<title>Node7366&#45;&gt;Node7367</title>
<path fill="none" stroke="#191970" d="M461.07,-276C470.1241,-276 479.277,-276 487.9833,-276"/>
<polygon fill="#191970" stroke="#191970" points="460.9188,-272.5001 450.9188,-276 460.9187,-279.5001 460.9188,-272.5001"/>
</g>
<!-- Node7381&#45;&gt;Node7390 -->
<g id="edge6" class="edge">
<title>Node7381&#45;&gt;Node7390</title>
<path fill="none" stroke="#191970" d="M439.3018,-225.8549C461.6183,-220.125 487.6758,-213.4346 507.6922,-208.2952"/>
<polygon fill="#191970" stroke="#191970" points="438.162,-222.534 429.3466,-228.411 439.9029,-229.3141 438.162,-222.534"/>
</g>
<!-- Node7390&#45;&gt;Node7391 -->
<g id="edge7" class="edge">
<title>Node7390&#45;&gt;Node7391</title>
<path fill="none" stroke="#191970" d="M582.5935,-193.6775C597.2089,-191.5081 613.5076,-189.0887 627.917,-186.9498"/>
<polygon fill="#191970" stroke="#191970" points="581.6775,-190.2751 572.2998,-195.2055 582.7054,-197.1992 581.6775,-190.2751"/>
</g>
<!-- Node7468 -->
<g id="node12" class="node">
<title>Node7468</title>
<g id="a_node12"><a xlink:href="dhcpclient_8c.html#a3c04138a5bfe5d72780bb7e82a18e627" target="_top" xlink:title="main">
<polygon fill="none" stroke="#000000" points="521,-38.5 521,-57.5 559,-57.5 559,-38.5 521,-38.5"/>
<text text-anchor="middle" x="540" y="-45.5" font-family="Helvetica,sans-Serif" font-size="10.00" fill="#000000">main</text>
</a>
</g>
</g>
<!-- Node7467&#45;&gt;Node7468 -->
<g id="edge12" class="edge">
<title>Node7467&#45;&gt;Node7468</title>
<path fill="none" stroke="#191970" d="M449.8644,-48C475.0336,-48 502.8205,-48 520.7962,-48"/>
<polygon fill="#191970" stroke="#191970" points="449.6428,-44.5001 439.6428,-48 449.6428,-51.5001 449.6428,-44.5001"/>
</g>
</g>
</svg>
