<?xml version="1.0" encoding="UTF-8" standalone="no"?>
<!DOCTYPE svg PUBLIC "-//W3C//DTD SVG 1.1//EN"
 "http://www.w3.org/Graphics/SVG/1.1/DTD/svg11.dtd">
<!-- Generated by graphviz version 2.40.1 (20161225.0304)
 -->
<!-- Title: ldap_escape_xlat Pages: 1 -->
<svg width="791pt" height="489pt"
 viewBox="0.00 0.00 791.00 489.29" xmlns="http://www.w3.org/2000/svg" xmlns:xlink="http://www.w3.org/1999/xlink">
<g id="graph0" class="graph" transform="scale(1 1) rotate(0) translate(4 485.2934)">
<title>ldap_escape_xlat</title>
<!-- Node12249 -->
<g id="node1" class="node">
<title>Node12249</title>
<polygon fill="#bfbfbf" stroke="#000000" points="0,-228.5 0,-247.5 92,-247.5 92,-228.5 0,-228.5"/>
<text text-anchor="middle" x="46" y="-235.5" font-family="Helvetica,sans-Serif" font-size="10.00" fill="#000000">ldap_escape_xlat</text>
</g>
<!-- Node12250 -->
<g id="node2" class="node">
<title>Node12250</title>
<g id="a_node2"><a xlink:href="ldap_2base_8h.html#a19ac903e2a4930e8ae9973e86e87f464" target="_top" xlink:title="Converts &quot;bad&quot; strings into ones which are safe for LDAP. ">
<polygon fill="none" stroke="#000000" points="128,-228.5 128,-247.5 235,-247.5 235,-228.5 128,-228.5"/>
<text text-anchor="middle" x="181.5" y="-235.5" font-family="Helvetica,sans-Serif" font-size="10.00" fill="#000000">fr_ldap_escape_func</text>
</a>
</g>
</g>
<!-- Node12249&#45;&gt;Node12250 -->
<g id="edge1" class="edge">
<title>Node12249&#45;&gt;Node12250</title>
<path fill="none" stroke="#191970" d="M92.2524,-238C100.5181,-238 109.2599,-238 117.911,-238"/>
<polygon fill="#191970" stroke="#191970" points="117.9909,-241.5001 127.9909,-238 117.9909,-234.5001 117.9909,-241.5001"/>
</g>
<!-- Node12251 -->
<g id="node3" class="node">
<title>Node12251</title>
<g id="a_node3"><a xlink:href="rlm__radius__udp_8c.html#a2e4884ba4c15f3bb04471f78e01d582e" target="_top" xlink:title="encode">
<polygon fill="none" stroke="#000000" points="271,-228.5 271,-247.5 319,-247.5 319,-228.5 271,-228.5"/>
<text text-anchor="middle" x="295" y="-235.5" font-family="Helvetica,sans-Serif" font-size="10.00" fill="#000000">encode</text>
</a>
</g>
</g>
<!-- Node12250&#45;&gt;Node12251 -->
<g id="edge2" class="edge">
<title>Node12250&#45;&gt;Node12251</title>
<path fill="none" stroke="#191970" d="M235.2586,-238C243.9436,-238 252.7223,-238 260.778,-238"/>
<polygon fill="#191970" stroke="#191970" points="260.883,-241.5001 270.8829,-238 260.8829,-234.5001 260.883,-241.5001"/>
</g>
<!-- Node12252 -->
<g id="node4" class="node">
<title>Node12252</title>
<g id="a_node4"><a xlink:href="rlm__passwd_8c.html#aafaad5adfcfa5359895444961235e5b8" target="_top" xlink:title="hash">
<polygon fill="none" stroke="#000000" points="623,-437.5 623,-456.5 661,-456.5 661,-437.5 623,-437.5"/>
<text text-anchor="middle" x="642" y="-444.5" font-family="Helvetica,sans-Serif" font-size="10.00" fill="#000000">hash</text>
</a>
</g>
</g>
<!-- Node12251&#45;&gt;Node12252 -->
<g id="edge3" class="edge">
<title>Node12251&#45;&gt;Node12252</title>
<path fill="none" stroke="#191970" d="M296.2582,-247.7545C301.3601,-285.621 321.8325,-422.0146 355,-447 432.1797,-505.1403 557.1252,-475.1936 613.177,-457.2538"/>
<polygon fill="#191970" stroke="#191970" points="614.4184,-460.5298 622.8143,-454.0678 612.2211,-453.8836 614.4184,-460.5298"/>
</g>
<!-- Node12254 -->
<g id="node6" class="node">
<title>Node12254</title>
<g id="a_node6"><a xlink:href="rand_8c.html#ae6966accae06dc7d65d4cc51b5782383" target="_top" xlink:title="Return a 32&#45;bit random number. ">
<polygon fill="none" stroke="#000000" points="393,-418.5 393,-437.5 440,-437.5 440,-418.5 393,-418.5"/>
<text text-anchor="middle" x="416.5" y="-425.5" font-family="Helvetica,sans-Serif" font-size="10.00" fill="#000000">fr_rand</text>
</a>
</g>
</g>
<!-- Node12251&#45;&gt;Node12254 -->
<g id="edge5" class="edge">
<title>Node12251&#45;&gt;Node12254</title>
<path fill="none" stroke="#191970" d="M295.4773,-247.7254C297.428,-276.6457 307.1798,-362.9548 355,-409 362.6072,-416.3248 372.9784,-420.8309 383.0364,-423.6011"/>
<polygon fill="#191970" stroke="#191970" points="382.3496,-427.0342 392.8761,-425.8329 383.898,-420.2076 382.3496,-427.0342"/>
</g>
<!-- Node12780 -->
<g id="node9" class="node">
<title>Node12780</title>
<g id="a_node9"><a xlink:href="pair_8c.html#ac3e6ae214c078ffe6f2648f1c12159ff" target="_top" xlink:title="Find the pair with the matching DAs. ">
<polygon fill="none" stroke="#000000" points="368.5,-380.5 368.5,-399.5 464.5,-399.5 464.5,-380.5 368.5,-380.5"/>
<text text-anchor="middle" x="416.5" y="-387.5" font-family="Helvetica,sans-Serif" font-size="10.00" fill="#000000">fr_pair_find_by_da</text>
</a>
</g>
</g>
<!-- Node12251&#45;&gt;Node12780 -->
<g id="edge10" class="edge">
<title>Node12251&#45;&gt;Node12780</title>
<path fill="none" stroke="#191970" d="M296.5603,-247.6401C301.0152,-272.0191 316.0736,-336.6293 355,-371 356.7696,-372.5625 358.666,-373.9965 360.6561,-375.3126"/>
<polygon fill="#191970" stroke="#191970" points="359.4273,-378.63 369.8799,-380.3604 362.7878,-372.4894 359.4273,-378.63"/>
</g>
<!-- Node12878 -->
<g id="node10" class="node">
<title>Node12878</title>
<g id="a_node10"><a xlink:href="time_8c.html#a76700f12b4b30b68e7c685f335a21e05" target="_top" xlink:title="Convert an fr_time_t (internal time) to our version of unix time (wallclock time) ...">
<polygon fill="none" stroke="#000000" points="363,-342.5 363,-361.5 470,-361.5 470,-342.5 363,-342.5"/>
<text text-anchor="middle" x="416.5" y="-349.5" font-family="Helvetica,sans-Serif" font-size="10.00" fill="#000000">fr_time_to_unix_time</text>
</a>
</g>
</g>
<!-- Node12251&#45;&gt;Node12878 -->
<g id="edge11" class="edge">
<title>Node12251&#45;&gt;Node12878</title>
<path fill="none" stroke="#191970" d="M298.4525,-247.6717C305.7949,-266.8575 324.8,-309.8717 355,-333 357.4495,-334.8759 360.086,-336.5683 362.8407,-338.0947"/>
<polygon fill="#191970" stroke="#191970" points="361.4222,-341.2957 371.9565,-342.4272 364.4271,-334.9734 361.4222,-341.2957"/>
</g>
<!-- Node12801 -->
<g id="node11" class="node">
<title>Node12801</title>
<g id="a_node11"><a xlink:href="protocols_2radius_2base_8c.html#a6bb7136f7594121eac299907792e94d2" target="_top" xlink:title="Encode VPS into a raw RADIUS packet. ">
<polygon fill="none" stroke="#ff0000" points="371,-304.5 371,-323.5 462,-323.5 462,-304.5 371,-304.5"/>
<text text-anchor="middle" x="416.5" y="-311.5" font-family="Helvetica,sans-Serif" font-size="10.00" fill="#000000">fr_radius_encode</text>
</a>
</g>
</g>
<!-- Node12251&#45;&gt;Node12801 -->
<g id="edge12" class="edge">
<title>Node12251&#45;&gt;Node12801</title>
<path fill="none" stroke="#191970" d="M302.8839,-247.91C313.4607,-260.5751 333.426,-282.3681 355,-295 358.6344,-297.128 362.5316,-299.0412 366.5355,-300.7568"/>
<polygon fill="#191970" stroke="#191970" points="365.4083,-304.0734 375.9978,-304.4092 367.929,-297.543 365.4083,-304.0734"/>
</g>
<!-- Node12879 -->
<g id="node12" class="node">
<title>Node12879</title>
<g id="a_node12"><a xlink:href="io_2pair_8h.html#aee1975c4e2a472ffed6702e7e8952fac" target="_top" xlink:title="Determine if the return code for an encoding function is a fatal error. ">
<polygon fill="none" stroke="#000000" points="357.5,-266.5 357.5,-285.5 475.5,-285.5 475.5,-266.5 357.5,-266.5"/>
<text text-anchor="middle" x="416.5" y="-273.5" font-family="Helvetica,sans-Serif" font-size="10.00" fill="#000000">fr_pair_encode_is_error</text>
</a>
</g>
</g>
<!-- Node12251&#45;&gt;Node12879 -->
<g id="edge13" class="edge">
<title>Node12251&#45;&gt;Node12879</title>
<path fill="none" stroke="#191970" d="M319.2186,-245.7119C330.1448,-249.1801 343.2161,-253.314 355,-257 361.6642,-259.0846 368.7391,-261.2835 375.6271,-263.4167"/>
<polygon fill="#191970" stroke="#191970" points="374.928,-266.8639 385.5156,-266.4741 376.9958,-260.1763 374.928,-266.8639"/>
</g>
<!-- Node12784 -->
<g id="node13" class="node">
<title>Node12784</title>
<g id="a_node13"><a xlink:href="util_2pair_8h.html#a078d7dfa9ea0f6beae478c6c913aa4e2" target="_top" xlink:title="Initialise a cursor that will return only attributes matching the specified fr_dict_attr_t. ">
<polygon fill="none" stroke="#ff0000" points="355,-228.5 355,-247.5 478,-247.5 478,-228.5 355,-228.5"/>
<text text-anchor="middle" x="416.5" y="-235.5" font-family="Helvetica,sans-Serif" font-size="10.00" fill="#000000">fr_cursor_iter_by_da_init</text>
</a>
</g>
</g>
<!-- Node12251&#45;&gt;Node12784 -->
<g id="edge14" class="edge">
<title>Node12251&#45;&gt;Node12784</title>
<path fill="none" stroke="#191970" d="M319.0045,-238C326.6227,-238 335.4757,-238 344.6797,-238"/>
<polygon fill="#191970" stroke="#191970" points="344.7628,-241.5001 354.7628,-238 344.7628,-234.5001 344.7628,-241.5001"/>
</g>
<!-- Node12304 -->
<g id="node14" class="node">
<title>Node12304</title>
<g id="a_node14"><a xlink:href="cursor_8c.html#af6c2090d1e00319075d6def5aa2666fd" target="_top" xlink:title="Advanced the cursor to the next item. ">
<polygon fill="none" stroke="#ff0000" points="377,-190.5 377,-209.5 456,-209.5 456,-190.5 377,-190.5"/>
<text text-anchor="middle" x="416.5" y="-197.5" font-family="Helvetica,sans-Serif" font-size="10.00" fill="#000000">fr_cursor_next</text>
</a>
</g>
</g>
<!-- Node12251&#45;&gt;Node12304 -->
<g id="edge15" class="edge">
<title>Node12251&#45;&gt;Node12304</title>
<path fill="none" stroke="#191970" d="M319.2186,-230.2881C330.1448,-226.8199 343.2161,-222.686 355,-219 361.6642,-216.9154 368.7391,-214.7165 375.6271,-212.5833"/>
<polygon fill="#191970" stroke="#191970" points="376.9958,-215.8237 385.5156,-209.5259 374.928,-209.1361 376.9958,-215.8237"/>
</g>
<!-- Node12646 -->
<g id="node15" class="node">
<title>Node12646</title>
<g id="a_node15"><a xlink:href="pair_8c.html#a2897183dcbc65ef1b54619bd293fd735" target="_top" xlink:title="Dynamically allocate a new attribute and fill in the da field. ">
<polygon fill="none" stroke="#ff0000" points="372,-152.5 372,-171.5 461,-171.5 461,-152.5 372,-152.5"/>
<text text-anchor="middle" x="416.5" y="-159.5" font-family="Helvetica,sans-Serif" font-size="10.00" fill="#000000">fr_pair_afrom_da</text>
</a>
</g>
</g>
<!-- Node12251&#45;&gt;Node12646 -->
<g id="edge16" class="edge">
<title>Node12251&#45;&gt;Node12646</title>
<path fill="none" stroke="#191970" d="M302.8839,-228.09C313.4607,-215.4249 333.426,-193.6319 355,-181 358.6344,-178.872 362.5316,-176.9588 366.5355,-175.2432"/>
<polygon fill="#191970" stroke="#191970" points="367.929,-178.457 375.9978,-171.5908 365.4083,-171.9266 367.929,-178.457"/>
</g>
<!-- Node12749 -->
<g id="node16" class="node">
<title>Node12749</title>
<g id="a_node16"><a xlink:href="pair_8c.html#ad6a4af5aec8fe8bac9db2211ae354989" target="_top" xlink:title="Copy data into an &quot;octets&quot; data type. ">
<polygon fill="none" stroke="#ff0000" points="359,-114.5 359,-133.5 474,-133.5 474,-114.5 359,-114.5"/>
<text text-anchor="middle" x="416.5" y="-121.5" font-family="Helvetica,sans-Serif" font-size="10.00" fill="#000000">fr_pair_value_memdup</text>
</a>
</g>
</g>
<!-- Node12251&#45;&gt;Node12749 -->
<g id="edge17" class="edge">
<title>Node12251&#45;&gt;Node12749</title>
<path fill="none" stroke="#191970" d="M298.4525,-228.3283C305.7949,-209.1425 324.8,-166.1283 355,-143 357.4495,-141.1241 360.086,-139.4317 362.8407,-137.9053"/>
<polygon fill="#191970" stroke="#191970" points="364.4271,-141.0266 371.9565,-133.5728 361.4222,-134.7043 364.4271,-141.0266"/>
</g>
<!-- Node12657 -->
<g id="node17" class="node">
<title>Node12657</title>
<g id="a_node17"><a xlink:href="pair_8c.html#a7869a79cbea0f296a61340c95a0644ed" target="_top" xlink:title="Add a VP to the end of the list. ">
<polygon fill="none" stroke="#000000" points="384,-76.5 384,-95.5 449,-95.5 449,-76.5 384,-76.5"/>
<text text-anchor="middle" x="416.5" y="-83.5" font-family="Helvetica,sans-Serif" font-size="10.00" fill="#000000">fr_pair_add</text>
</a>
</g>
</g>
<!-- Node12251&#45;&gt;Node12657 -->
<g id="edge18" class="edge">
<title>Node12251&#45;&gt;Node12657</title>
<path fill="none" stroke="#191970" d="M296.5603,-228.3599C301.0152,-203.9809 316.0736,-139.3707 355,-105 360.5288,-100.1183 367.2945,-96.4909 374.2919,-93.7954"/>
<polygon fill="#191970" stroke="#191970" points="375.4612,-97.0956 383.883,-90.6672 373.2906,-90.4406 375.4612,-97.0956"/>
</g>
<!-- Node12385 -->
<g id="node18" class="node">
<title>Node12385</title>
<g id="a_node18"><a xlink:href="time_8h.html#a764e37b5ffca11aa97a3fcea90c4aa7b" target="_top" xlink:title="fr_time_delta_to_sec">
<polygon fill="none" stroke="#000000" points="363,-38.5 363,-57.5 470,-57.5 470,-38.5 363,-38.5"/>
<text text-anchor="middle" x="416.5" y="-45.5" font-family="Helvetica,sans-Serif" font-size="10.00" fill="#000000">fr_time_delta_to_sec</text>
</a>
</g>
</g>
<!-- Node12251&#45;&gt;Node12385 -->
<g id="edge19" class="edge">
<title>Node12251&#45;&gt;Node12385</title>
<path fill="none" stroke="#191970" d="M295.4773,-228.2746C297.428,-199.3543 307.1798,-113.0452 355,-67 356.6351,-65.4256 358.398,-63.9813 360.258,-62.6566"/>
<polygon fill="#191970" stroke="#191970" points="362.0742,-65.6491 368.9404,-57.5802 358.5411,-59.6061 362.0742,-65.6491"/>
</g>
<!-- Node12713 -->
<g id="node19" class="node">
<title>Node12713</title>
<g id="a_node19"><a xlink:href="protocols_2radius_2base_8c.html#ac9593081313e907a61f8b286e04511d2" target="_top" xlink:title="Sign a previously encoded packet. ">
<polygon fill="none" stroke="#ff0000" points="378,-.5 378,-19.5 455,-19.5 455,-.5 378,-.5"/>
<text text-anchor="middle" x="416.5" y="-7.5" font-family="Helvetica,sans-Serif" font-size="10.00" fill="#000000">fr_radius_sign</text>
</a>
</g>
</g>
<!-- Node12251&#45;&gt;Node12713 -->
<g id="edge20" class="edge">
<title>Node12251&#45;&gt;Node12713</title>
<path fill="none" stroke="#191970" d="M296.5427,-228.27C302.62,-191.0884 325.9994,-58.5888 355,-29 358.8622,-25.0595 363.5224,-21.9322 368.529,-19.451"/>
<polygon fill="#191970" stroke="#191970" points="369.8902,-22.6757 377.8176,-15.6466 367.2371,-16.198 369.8902,-22.6757"/>
</g>
<!-- Node12253 -->
<g id="node5" class="node">
<title>Node12253</title>
<g id="a_node5"><a xlink:href="misc_8c.html#a1f8e51b2cfcfdab9687fec048bfbdfd3" target="_top" xlink:title="Multiply with modulo wrap. ">
<polygon fill="none" stroke="#000000" points="697,-437.5 697,-456.5 783,-456.5 783,-437.5 697,-437.5"/>
<text text-anchor="middle" x="740" y="-444.5" font-family="Helvetica,sans-Serif" font-size="10.00" fill="#000000">fr_multiply_mod</text>
</a>
</g>
</g>
<!-- Node12252&#45;&gt;Node12253 -->
<g id="edge4" class="edge">
<title>Node12252&#45;&gt;Node12253</title>
<path fill="none" stroke="#191970" d="M661.3616,-447C668.7379,-447 677.5495,-447 686.5629,-447"/>
<polygon fill="#191970" stroke="#191970" points="686.7595,-450.5001 696.7595,-447 686.7595,-443.5001 686.7595,-450.5001"/>
</g>
<!-- Node12255 -->
<g id="node7" class="node">
<title>Node12255</title>
<g id="a_node7"><a xlink:href="rand_8c.html#a6fa61f21cc29c57c251db3696037ae1c" target="_top" xlink:title="Seed the random number generator. ">
<polygon fill="none" stroke="#ff0000" points="514,-418.5 514,-437.5 587,-437.5 587,-418.5 514,-418.5"/>
<text text-anchor="middle" x="550.5" y="-425.5" font-family="Helvetica,sans-Serif" font-size="10.00" fill="#000000">fr_rand_seed</text>
</a>
</g>
</g>
<!-- Node12254&#45;&gt;Node12255 -->
<g id="edge6" class="edge">
<title>Node12254&#45;&gt;Node12255</title>
<path fill="none" stroke="#191970" d="M440.1481,-422.7085C457.7107,-421.3096 482.2379,-420.917 503.7099,-421.5307"/>
<polygon fill="#191970" stroke="#191970" points="503.8379,-425.0378 513.9614,-421.9128 504.0987,-418.0427 503.8379,-425.0378"/>
</g>
<!-- Node12257 -->
<g id="node8" class="node">
<title>Node12257</title>
<g id="a_node8"><a xlink:href="isaac_8c.html#aa59f7e1d100e8c1b3c003e18085e0638" target="_top" xlink:title="fr_isaac">
<polygon fill="none" stroke="#000000" points="525,-380.5 525,-399.5 576,-399.5 576,-380.5 525,-380.5"/>
<text text-anchor="middle" x="550.5" y="-387.5" font-family="Helvetica,sans-Serif" font-size="10.00" fill="#000000">fr_isaac</text>
</a>
</g>
</g>
<!-- Node12254&#45;&gt;Node12257 -->
<g id="edge9" class="edge">
<title>Node12254&#45;&gt;Node12257</title>
<path fill="none" stroke="#191970" d="M440.1481,-421.2938C460.9227,-415.4025 491.4424,-406.7477 515.1229,-400.0323"/>
<polygon fill="#191970" stroke="#191970" points="516.1389,-403.3823 524.8047,-397.2867 514.2291,-396.6478 516.1389,-403.3823"/>
</g>
<!-- Node12255&#45;&gt;Node12252 -->
<g id="edge7" class="edge">
<title>Node12255&#45;&gt;Node12252</title>
<path fill="none" stroke="#191970" d="M587.1893,-435.6185C595.7891,-437.4043 604.8339,-439.2824 613.0414,-440.9867"/>
<polygon fill="#191970" stroke="#191970" points="612.3907,-444.4262 622.8935,-443.0325 613.8139,-437.5724 612.3907,-444.4262"/>
</g>
<!-- Node12255&#45;&gt;Node12254 -->
<g id="edge8" class="edge">
<title>Node12255&#45;&gt;Node12254</title>
<path fill="none" stroke="#191970" d="M513.9614,-434.0872C494.125,-435.0131 469.7628,-434.9689 450.3582,-433.9547"/>
<polygon fill="#191970" stroke="#191970" points="450.3539,-430.4471 440.1481,-433.2915 449.9001,-437.4324 450.3539,-430.4471"/>
</g>
</g>
</svg>
