<?xml version="1.0" encoding="UTF-8" standalone="no"?>
<!DOCTYPE svg PUBLIC "-//W3C//DTD SVG 1.1//EN"
 "http://www.w3.org/Graphics/SVG/1.1/DTD/svg11.dtd">
<!-- Generated by graphviz version 2.40.1 (20161225.0304)
 -->
<!-- Title: unlang_group_init Pages: 1 -->
<svg width="624pt" height="104pt"
 viewBox="0.00 0.00 624.00 104.00" xmlns="http://www.w3.org/2000/svg" xmlns:xlink="http://www.w3.org/1999/xlink">
<g id="graph0" class="graph" transform="scale(1 1) rotate(0) translate(4 100)">
<title>unlang_group_init</title>
<!-- Node61 -->
<g id="node1" class="node">
<title>Node61</title>
<polygon fill="#bfbfbf" stroke="#000000" points="0,-38.5 0,-57.5 92,-57.5 92,-38.5 0,-38.5"/>
<text text-anchor="middle" x="46" y="-45.5" font-family="Helvetica,sans-Serif" font-size="10.00" fill="#000000">unlang_group_init</text>
</g>
<!-- Node62 -->
<g id="node2" class="node">
<title>Node62</title>
<g id="a_node2"><a xlink:href="lib_2unlang_2base_8c.html#a0ecfcb4b05d880692f9648311b7989e0" target="_top" xlink:title="Register an operation with the interpreter. ">
<polygon fill="none" stroke="#000000" points="128,-76.5 128,-95.5 211,-95.5 211,-76.5 128,-76.5"/>
<text text-anchor="middle" x="169.5" y="-83.5" font-family="Helvetica,sans-Serif" font-size="10.00" fill="#000000">unlang_register</text>
</a>
</g>
</g>
<!-- Node61&#45;&gt;Node62 -->
<g id="edge1" class="edge">
<title>Node61&#45;&gt;Node62</title>
<path fill="none" stroke="#191970" d="M77.1643,-57.589C92.8144,-62.4044 111.9712,-68.2988 128.771,-73.468"/>
<polygon fill="#191970" stroke="#191970" points="127.7586,-76.8184 138.3457,-76.4141 129.8172,-70.1279 127.7586,-76.8184"/>
</g>
<!-- Node63 -->
<g id="node3" class="node">
<title>Node63</title>
<g id="a_node3"><a xlink:href="group_8c.html#a56a2028da21c88303189b3baa9cdb11e" target="_top" xlink:title="unlang_group">
<polygon fill="none" stroke="#000000" points="253,-38.5 253,-57.5 327,-57.5 327,-38.5 253,-38.5"/>
<text text-anchor="middle" x="290" y="-45.5" font-family="Helvetica,sans-Serif" font-size="10.00" fill="#000000">unlang_group</text>
</a>
</g>
</g>
<!-- Node61&#45;&gt;Node63 -->
<g id="edge2" class="edge">
<title>Node61&#45;&gt;Node63</title>
<path fill="none" stroke="#191970" d="M92.1814,-48C135.2858,-48 199.3107,-48 242.7551,-48"/>
<polygon fill="#191970" stroke="#191970" points="242.7856,-51.5001 252.7856,-48 242.7856,-44.5001 242.7856,-51.5001"/>
</g>
<!-- Node68 -->
<g id="node8" class="node">
<title>Node68</title>
<g id="a_node8"><a xlink:href="group_8c.html#a4b352c5c69d23dfce43c0a827e8e3095" target="_top" xlink:title="unlang_policy">
<polygon fill="none" stroke="#000000" points="131.5,-.5 131.5,-19.5 207.5,-19.5 207.5,-.5 131.5,-.5"/>
<text text-anchor="middle" x="169.5" y="-7.5" font-family="Helvetica,sans-Serif" font-size="10.00" fill="#000000">unlang_policy</text>
</a>
</g>
</g>
<!-- Node61&#45;&gt;Node68 -->
<g id="edge7" class="edge">
<title>Node61&#45;&gt;Node68</title>
<path fill="none" stroke="#191970" d="M77.1643,-38.411C92.8144,-33.5956 111.9712,-27.7012 128.771,-22.532"/>
<polygon fill="#191970" stroke="#191970" points="129.8172,-25.8721 138.3457,-19.5859 127.7586,-19.1816 129.8172,-25.8721"/>
</g>
<!-- Node64 -->
<g id="node4" class="node">
<title>Node64</title>
<g id="a_node4"><a xlink:href="unlang__priv_8h.html#aac8f5c5ad9dc7c337553f920e1a181d4" target="_top" xlink:title="unlang_generic_to_group">
<polygon fill="none" stroke="#000000" points="369,-57.5 369,-76.5 494,-76.5 494,-57.5 369,-57.5"/>
<text text-anchor="middle" x="431.5" y="-64.5" font-family="Helvetica,sans-Serif" font-size="10.00" fill="#000000">unlang_generic_to_group</text>
</a>
</g>
</g>
<!-- Node63&#45;&gt;Node64 -->
<g id="edge3" class="edge">
<title>Node63&#45;&gt;Node64</title>
<path fill="none" stroke="#191970" d="M327.1775,-52.992C336.9573,-54.3052 347.8514,-55.768 358.8076,-57.2392"/>
<polygon fill="#191970" stroke="#191970" points="358.4799,-60.7265 368.8567,-58.5885 359.4115,-53.7888 358.4799,-60.7265"/>
</g>
<!-- Node65 -->
<g id="node5" class="node">
<title>Node65</title>
<g id="a_node5"><a xlink:href="interpret_8c.html#a06f6fba9b6f8a9831a34c445ff1ecb9f" target="_top" xlink:title="Push a new frame onto the stack. ">
<polygon fill="none" stroke="#000000" points="375.5,-19.5 375.5,-38.5 487.5,-38.5 487.5,-19.5 375.5,-19.5"/>
<text text-anchor="middle" x="431.5" y="-26.5" font-family="Helvetica,sans-Serif" font-size="10.00" fill="#000000">unlang_interpret_push</text>
</a>
</g>
</g>
<!-- Node63&#45;&gt;Node65 -->
<g id="edge4" class="edge">
<title>Node63&#45;&gt;Node65</title>
<path fill="none" stroke="#191970" d="M327.1775,-43.008C338.9225,-41.4309 352.2745,-39.638 365.4113,-37.8741"/>
<polygon fill="#191970" stroke="#191970" points="365.9397,-41.3347 375.3849,-36.5349 365.0081,-34.3969 365.9397,-41.3347"/>
</g>
<!-- Node66 -->
<g id="node6" class="node">
<title>Node66</title>
<g id="a_node6"><a xlink:href="unlang__priv_8h.html#aa4c8f320f83d5d13551043fd92198e87" target="_top" xlink:title="top_frame_set">
<polygon fill="none" stroke="#000000" points="533.5,-38.5 533.5,-57.5 612.5,-57.5 612.5,-38.5 533.5,-38.5"/>
<text text-anchor="middle" x="573" y="-45.5" font-family="Helvetica,sans-Serif" font-size="10.00" fill="#000000">top_frame_set</text>
</a>
</g>
</g>
<!-- Node65&#45;&gt;Node66 -->
<g id="edge5" class="edge">
<title>Node65&#45;&gt;Node66</title>
<path fill="none" stroke="#191970" d="M487.8311,-36.5639C499.5144,-38.1327 511.7456,-39.775 523.176,-41.3098"/>
<polygon fill="#191970" stroke="#191970" points="523.0326,-44.8219 533.4094,-42.684 523.9642,-37.8842 523.0326,-44.8219"/>
</g>
<!-- Node67 -->
<g id="node7" class="node">
<title>Node67</title>
<g id="a_node7"><a xlink:href="interpret_8c.html#a42aa39726319d6ee4ff8119d4aa42ec8" target="_top" xlink:title="frame_state_init">
<polygon fill="none" stroke="#000000" points="530,-.5 530,-19.5 616,-19.5 616,-.5 530,-.5"/>
<text text-anchor="middle" x="573" y="-7.5" font-family="Helvetica,sans-Serif" font-size="10.00" fill="#000000">frame_state_init</text>
</a>
</g>
</g>
<!-- Node65&#45;&gt;Node67 -->
<g id="edge6" class="edge">
<title>Node65&#45;&gt;Node67</title>
<path fill="none" stroke="#191970" d="M487.8311,-21.4361C498.3512,-20.0235 509.3154,-18.5513 519.7392,-17.1516"/>
<polygon fill="#191970" stroke="#191970" points="520.5012,-20.5808 529.9465,-15.781 519.5696,-13.6431 520.5012,-20.5808"/>
</g>
<!-- Node68&#45;&gt;Node63 -->
<g id="edge9" class="edge">
<title>Node68&#45;&gt;Node63</title>
<path fill="none" stroke="#191970" d="M199.9072,-19.589C215.0345,-24.3594 233.5196,-30.1888 249.8002,-35.3229"/>
<polygon fill="#191970" stroke="#191970" points="249.0128,-38.7444 259.6025,-38.4141 251.1181,-32.0685 249.0128,-38.7444"/>
</g>
<!-- Node69 -->
<g id="node9" class="node">
<title>Node69</title>
<g id="a_node9"><a xlink:href="unlang__priv_8h.html#a7fd45fccdd0242adb43ee6e146fb0785" target="_top" xlink:title="return_point_set">
<polygon fill="none" stroke="#000000" points="247,-.5 247,-19.5 333,-19.5 333,-.5 247,-.5"/>
<text text-anchor="middle" x="290" y="-7.5" font-family="Helvetica,sans-Serif" font-size="10.00" fill="#000000">return_point_set</text>
</a>
</g>
</g>
<!-- Node68&#45;&gt;Node69 -->
<g id="edge8" class="edge">
<title>Node68&#45;&gt;Node69</title>
<path fill="none" stroke="#191970" d="M207.627,-10C216.8383,-10 226.8509,-10 236.6193,-10"/>
<polygon fill="#191970" stroke="#191970" points="236.667,-13.5001 246.667,-10 236.6669,-6.5001 236.667,-13.5001"/>
</g>
</g>
</svg>
