<?xml version="1.0" encoding="UTF-8" standalone="no"?>
<!DOCTYPE svg PUBLIC "-//W3C//DTD SVG 1.1//EN"
 "http://www.w3.org/Graphics/SVG/1.1/DTD/svg11.dtd">
<!-- Generated by graphviz version 2.40.1 (20161225.0304)
 -->
<!-- Title: xlat_func_strlen Pages: 1 -->
<svg width="1079pt" height="474pt"
 viewBox="0.00 0.00 1079.00 474.32" xmlns="http://www.w3.org/2000/svg" xmlns:xlink="http://www.w3.org/1999/xlink">
<g id="graph0" class="graph" transform="scale(1 1) rotate(0) translate(4 470.3185)">
<title>xlat_func_strlen</title>
<!-- Node25639 -->
<g id="node1" class="node">
<title>Node25639</title>
<polygon fill="#bfbfbf" stroke="#000000" points="0,-370.8185 0,-389.8185 86,-389.8185 86,-370.8185 0,-370.8185"/>
<text text-anchor="middle" x="43" y="-377.8185" font-family="Helvetica,sans-Serif" font-size="10.00" fill="#000000">xlat_func_strlen</text>
</g>
<!-- Node25640 -->
<g id="node2" class="node">
<title>Node25640</title>
<g id="a_node2"><a xlink:href="value_8h.html#a2d08d82275a28efe9ad91300db05c236" target="_top" xlink:title="Allocate a value box of a specific type. ">
<polygon fill="none" stroke="#000000" points="302,-393.8185 302,-412.8185 400,-412.8185 400,-393.8185 302,-393.8185"/>
<text text-anchor="middle" x="351" y="-400.8185" font-family="Helvetica,sans-Serif" font-size="10.00" fill="#000000">fr_value_box_alloc</text>
</a>
</g>
</g>
<!-- Node25639&#45;&gt;Node25640 -->
<g id="edge1" class="edge">
<title>Node25639&#45;&gt;Node25640</title>
<path fill="none" stroke="#191970" d="M86.1504,-383.5407C139.7532,-387.5436 231.4718,-394.3927 291.6655,-398.8877"/>
<polygon fill="#191970" stroke="#191970" points="291.5494,-402.3886 301.7823,-399.6431 292.0707,-395.4081 291.5494,-402.3886"/>
</g>
<!-- Node25642 -->
<g id="node4" class="node">
<title>Node25642</title>
<g id="a_node4"><a xlink:href="cursor_8c.html#a6e72682a046a3eeac734da6639f1817c" target="_top" xlink:title="Insert a single item at the end of the list. ">
<polygon fill="none" stroke="#000000" points="138.5,-446.8185 138.5,-465.8185 230.5,-465.8185 230.5,-446.8185 138.5,-446.8185"/>
<text text-anchor="middle" x="184.5" y="-453.8185" font-family="Helvetica,sans-Serif" font-size="10.00" fill="#000000">fr_cursor_append</text>
</a>
</g>
</g>
<!-- Node25639&#45;&gt;Node25642 -->
<g id="edge3" class="edge">
<title>Node25639&#45;&gt;Node25642</title>
<path fill="none" stroke="#191970" d="M53.757,-389.8798C68.3014,-402.3663 95.4804,-424.177 122,-437.3185 126.5823,-439.5892 131.4896,-441.6495 136.4651,-443.503"/>
<polygon fill="#191970" stroke="#191970" points="135.4552,-446.857 146.0499,-446.8136 137.7405,-440.2406 135.4552,-446.857"/>
</g>
<!-- Node25645 -->
<g id="node7" class="node">
<title>Node25645</title>
<g id="a_node7"><a xlink:href="value_8c.html#a8cedcf0cd0b56390ead0b791c4b4d67f" target="_top" xlink:title="Concatenate a list of value boxes. ">
<polygon fill="none" stroke="#000000" points="122,-191.8185 122,-210.8185 247,-210.8185 247,-191.8185 122,-191.8185"/>
<text text-anchor="middle" x="184.5" y="-198.8185" font-family="Helvetica,sans-Serif" font-size="10.00" fill="#000000">fr_value_box_list_concat</text>
</a>
</g>
</g>
<!-- Node25639&#45;&gt;Node25645 -->
<g id="edge6" class="edge">
<title>Node25639&#45;&gt;Node25645</title>
<path fill="none" stroke="#191970" d="M50.6077,-370.6947C73.3532,-341.9211 141.0834,-256.2413 170.5488,-218.967"/>
<polygon fill="#191970" stroke="#191970" points="173.399,-221.0053 176.8547,-210.9899 167.9076,-216.6643 173.399,-221.0053"/>
</g>
<!-- Node25781 -->
<g id="node25" class="node">
<title>Node25781</title>
<g id="a_node25"><a xlink:href="value_8h.html#a3ddbdc59834faa51219a356e2b112a17" target="_top" xlink:title="Allocate a value box for later use with a value assignment function. ">
<polygon fill="none" stroke="#000000" points="125.5,-408.8185 125.5,-427.8185 243.5,-427.8185 243.5,-408.8185 125.5,-408.8185"/>
<text text-anchor="middle" x="184.5" y="-415.8185" font-family="Helvetica,sans-Serif" font-size="10.00" fill="#000000">fr_value_box_alloc_null</text>
</a>
</g>
</g>
<!-- Node25639&#45;&gt;Node25781 -->
<g id="edge39" class="edge">
<title>Node25639&#45;&gt;Node25781</title>
<path fill="none" stroke="#191970" d="M78.7064,-389.9075C96.9727,-394.8129 119.4084,-400.8381 138.9112,-406.0756"/>
<polygon fill="#191970" stroke="#191970" points="138.2394,-409.5191 148.805,-408.7325 140.055,-402.7586 138.2394,-409.5191"/>
</g>
<!-- Node25673 -->
<g id="node26" class="node">
<title>Node25673</title>
<g id="a_node26"><a xlink:href="value_8c.html#aed6c89331ec783228dd9d415433df323" target="_top" xlink:title="Assign a talloced buffer containing a nul terminated string to a box, but don&#39;t copy it...">
<polygon fill="none" stroke="#000000" points="296,-344.3185 296,-374.3185 406,-374.3185 406,-344.3185 296,-344.3185"/>
<text text-anchor="start" x="304" y="-362.3185" font-family="Helvetica,sans-Serif" font-size="10.00" fill="#000000">fr_value_box_bstrdup</text>
<text text-anchor="middle" x="351" y="-351.3185" font-family="Helvetica,sans-Serif" font-size="10.00" fill="#000000">_buffer_shallow</text>
</a>
</g>
</g>
<!-- Node25639&#45;&gt;Node25673 -->
<g id="edge41" class="edge">
<title>Node25639&#45;&gt;Node25673</title>
<path fill="none" stroke="#191970" d="M86.3037,-371.4801C97.8553,-369.442 110.3616,-367.5212 122,-366.3185 176.9904,-360.6357 239.771,-359.0602 285.6735,-358.8071"/>
<polygon fill="#191970" stroke="#191970" points="285.8006,-362.3068 295.7881,-358.7712 285.7757,-355.3069 285.8006,-362.3068"/>
</g>
<!-- Node25641 -->
<g id="node3" class="node">
<title>Node25641</title>
<g id="a_node3"><a xlink:href="value_8h.html#ab2f9fbd42c467414fa4e5c3793fb3572" target="_top" xlink:title="Initialise a fr_value_box_t. ">
<polygon fill="none" stroke="#000000" points="456,-371.8185 456,-390.8185 546,-390.8185 546,-371.8185 456,-371.8185"/>
<text text-anchor="middle" x="501" y="-378.8185" font-family="Helvetica,sans-Serif" font-size="10.00" fill="#000000">fr_value_box_init</text>
</a>
</g>
</g>
<!-- Node25640&#45;&gt;Node25641 -->
<g id="edge2" class="edge">
<title>Node25640&#45;&gt;Node25641</title>
<path fill="none" stroke="#191970" d="M400.1156,-396.1149C414.6942,-393.9767 430.76,-391.6204 445.7027,-389.4288"/>
<polygon fill="#191970" stroke="#191970" points="446.4499,-392.8567 455.8362,-387.9425 445.4341,-385.9308 446.4499,-392.8567"/>
</g>
<!-- Node25643 -->
<g id="node5" class="node">
<title>Node25643</title>
<g id="a_node5"><a xlink:href="cursor_8c.html#a8bff1cf971c70ff3c9b5ac03bc6a7042" target="_top" xlink:title="Internal function to get the last attribute. ">
<polygon fill="none" stroke="#000000" points="470,-446.8185 470,-465.8185 532,-465.8185 532,-446.8185 470,-446.8185"/>
<text text-anchor="middle" x="501" y="-453.8185" font-family="Helvetica,sans-Serif" font-size="10.00" fill="#000000">cursor_tail</text>
</a>
</g>
</g>
<!-- Node25642&#45;&gt;Node25643 -->
<g id="edge4" class="edge">
<title>Node25642&#45;&gt;Node25643</title>
<path fill="none" stroke="#191970" d="M230.5218,-456.3185C292.143,-456.3185 400.5388,-456.3185 459.6718,-456.3185"/>
<polygon fill="#191970" stroke="#191970" points="459.7696,-459.8186 469.7696,-456.3185 459.7695,-452.8186 459.7696,-459.8186"/>
</g>
<!-- Node25644 -->
<g id="node6" class="node">
<title>Node25644</title>
<g id="a_node6"><a xlink:href="cursor_8c.html#a45a517ea8503ebd7ee4dd286ffb59b90" target="_top" xlink:title="Internal function to get the next item. ">
<polygon fill="none" stroke="#000000" points="594.5,-446.8185 594.5,-465.8185 662.5,-465.8185 662.5,-446.8185 594.5,-446.8185"/>
<text text-anchor="middle" x="628.5" y="-453.8185" font-family="Helvetica,sans-Serif" font-size="10.00" fill="#000000">cursor_next</text>
</a>
</g>
</g>
<!-- Node25643&#45;&gt;Node25644 -->
<g id="edge5" class="edge">
<title>Node25643&#45;&gt;Node25644</title>
<path fill="none" stroke="#191970" d="M532.19,-456.3185C547.8193,-456.3185 567.0177,-456.3185 584.15,-456.3185"/>
<polygon fill="#191970" stroke="#191970" points="584.4999,-459.8186 594.4998,-456.3185 584.4998,-452.8186 584.4999,-459.8186"/>
</g>
<!-- Node25646 -->
<g id="node8" class="node">
<title>Node25646</title>
<g id="a_node8"><a xlink:href="strerror_8c.html#ae701765650b8aea79a3037bc4921d7f8" target="_top" xlink:title="Log to thread local error buffer. ">
<polygon fill="none" stroke="#000000" points="458,-156.8185 458,-175.8185 544,-175.8185 544,-156.8185 458,-156.8185"/>
<text text-anchor="middle" x="501" y="-163.8185" font-family="Helvetica,sans-Serif" font-size="10.00" fill="#000000">fr_strerror_printf</text>
</a>
</g>
</g>
<!-- Node25645&#45;&gt;Node25646 -->
<g id="edge7" class="edge">
<title>Node25645&#45;&gt;Node25646</title>
<path fill="none" stroke="#191970" d="M227.9606,-191.7959C245.0443,-188.3522 264.8721,-184.7237 283,-182.3185 338.8978,-174.902 403.3488,-170.7047 447.5928,-168.4881"/>
<polygon fill="#191970" stroke="#191970" points="448.0103,-171.9721 457.8293,-167.9926 447.6718,-164.9803 448.0103,-171.9721"/>
</g>
<!-- Node25660 -->
<g id="node16" class="node">
<title>Node25660</title>
<g id="a_node16"><a xlink:href="value_8c.html#a3a0550d465b81917f8b0c69a3373163e" target="_top" xlink:title="Convert one type of fr_value_box_t to another. ">
<polygon fill="none" stroke="#ff0000" points="841,-85.8185 841,-104.8185 937,-104.8185 937,-85.8185 841,-85.8185"/>
<text text-anchor="middle" x="889" y="-92.8185" font-family="Helvetica,sans-Serif" font-size="10.00" fill="#000000">fr_value_box_cast</text>
</a>
</g>
</g>
<!-- Node25645&#45;&gt;Node25660 -->
<g id="edge27" class="edge">
<title>Node25645&#45;&gt;Node25660</title>
<path fill="none" stroke="#191970" d="M189.5645,-191.779C201.9673,-169.5821 236.2927,-114.8063 283,-94.3185 476.4774,-9.4512 739.3037,-58.3434 843.6295,-83.3672"/>
<polygon fill="#191970" stroke="#191970" points="842.971,-86.8091 853.5159,-85.7818 844.6319,-80.009 842.971,-86.8091"/>
</g>
<!-- Node25661 -->
<g id="node17" class="node">
<title>Node25661</title>
<g id="a_node17"><a xlink:href="value_8c.html#a4fadbcd199d20611112e21b7f0da11c4" target="_top" xlink:title="Copy value data verbatim duplicating any buffers. ">
<polygon fill="none" stroke="#ff0000" points="973,-28.8185 973,-47.8185 1071,-47.8185 1071,-28.8185 973,-28.8185"/>
<text text-anchor="middle" x="1022" y="-35.8185" font-family="Helvetica,sans-Serif" font-size="10.00" fill="#000000">fr_value_box_copy</text>
</a>
</g>
</g>
<!-- Node25645&#45;&gt;Node25661 -->
<g id="edge28" class="edge">
<title>Node25645&#45;&gt;Node25661</title>
<path fill="none" stroke="#191970" d="M188.0159,-191.4674C198.1552,-164.5462 230.1483,-89.2903 283,-52.3185 364.619,4.7772 401.3929,-.3185 501,-.3185 501,-.3185 501,-.3185 757.5,-.3185 832.4623,-.3185 918.1717,-15.458 971.1956,-26.625"/>
<polygon fill="#191970" stroke="#191970" points="970.5176,-30.0591 981.0287,-28.7295 971.9826,-23.2141 970.5176,-30.0591"/>
</g>
<!-- Node25666 -->
<g id="node19" class="node">
<title>Node25666</title>
<g id="a_node19"><a xlink:href="cursor_8c.html#af6c2090d1e00319075d6def5aa2666fd" target="_top" xlink:title="Advanced the cursor to the next item. ">
<polygon fill="none" stroke="#000000" points="461.5,-319.8185 461.5,-338.8185 540.5,-338.8185 540.5,-319.8185 461.5,-319.8185"/>
<text text-anchor="middle" x="501" y="-326.8185" font-family="Helvetica,sans-Serif" font-size="10.00" fill="#000000">fr_cursor_next</text>
</a>
</g>
</g>
<!-- Node25645&#45;&gt;Node25666 -->
<g id="edge29" class="edge">
<title>Node25645&#45;&gt;Node25666</title>
<path fill="none" stroke="#191970" d="M191.0973,-210.8278C205.3276,-230.5077 241.0359,-275.5915 283,-296.3185 336.4444,-322.7159 405.5333,-329.2093 451.4585,-330.246"/>
<polygon fill="#191970" stroke="#191970" points="451.4135,-333.7456 461.4642,-330.3938 451.517,-326.7464 451.4135,-333.7456"/>
</g>
<!-- Node25778 -->
<g id="node20" class="node">
<title>Node25778</title>
<g id="a_node20"><a xlink:href="cursor_8h.html#ae89f379d1f6985ee4335586e0acd0df6" target="_top" xlink:title="talloc_free the current item ">
<polygon fill="none" stroke="#000000" points="300.5,-229.8185 300.5,-248.8185 401.5,-248.8185 401.5,-229.8185 300.5,-229.8185"/>
<text text-anchor="middle" x="351" y="-236.8185" font-family="Helvetica,sans-Serif" font-size="10.00" fill="#000000">fr_cursor_free_item</text>
</a>
</g>
</g>
<!-- Node25645&#45;&gt;Node25778 -->
<g id="edge31" class="edge">
<title>Node25645&#45;&gt;Node25778</title>
<path fill="none" stroke="#191970" d="M226.515,-210.9075C248.6844,-215.9672 276.0732,-222.2181 299.511,-227.5672"/>
<polygon fill="#191970" stroke="#191970" points="298.759,-230.9855 309.2871,-229.7984 300.3166,-224.161 298.759,-230.9855"/>
</g>
<!-- Node25780 -->
<g id="node22" class="node">
<title>Node25780</title>
<g id="a_node22"><a xlink:href="cursor_8c.html#a92733b72ea218ecff0bc7808fae613b7" target="_top" xlink:title="Return the item the cursor current points to. ">
<polygon fill="none" stroke="#000000" points="306,-267.8185 306,-286.8185 396,-286.8185 396,-267.8185 306,-267.8185"/>
<text text-anchor="middle" x="351" y="-274.8185" font-family="Helvetica,sans-Serif" font-size="10.00" fill="#000000">fr_cursor_current</text>
</a>
</g>
</g>
<!-- Node25645&#45;&gt;Node25780 -->
<g id="edge34" class="edge">
<title>Node25645&#45;&gt;Node25780</title>
<path fill="none" stroke="#191970" d="M198.5917,-211.0103C217.1979,-223.4394 251.316,-244.9776 283,-258.3185 288.7086,-260.7221 294.813,-262.9172 300.9345,-264.8923"/>
<polygon fill="#191970" stroke="#191970" points="299.9276,-268.2443 310.5137,-267.8134 301.9694,-261.5487 299.9276,-268.2443"/>
</g>
<!-- Node25668 -->
<g id="node23" class="node">
<title>Node25668</title>
<g id="a_node23"><a xlink:href="value_8c.html#a0adc72b7a30d3064ab65ed9059f0e8c8" target="_top" xlink:title="Append bytes from a buffer to an existing fr_value_box_t. ">
<polygon fill="none" stroke="#000000" points="301.5,-104.3185 301.5,-134.3185 400.5,-134.3185 400.5,-104.3185 301.5,-104.3185"/>
<text text-anchor="start" x="309.5" y="-122.3185" font-family="Helvetica,sans-Serif" font-size="10.00" fill="#000000">fr_value_box_bstrn</text>
<text text-anchor="middle" x="351" y="-111.3185" font-family="Helvetica,sans-Serif" font-size="10.00" fill="#000000">_append</text>
</a>
</g>
</g>
<!-- Node25645&#45;&gt;Node25668 -->
<g id="edge35" class="edge">
<title>Node25645&#45;&gt;Node25668</title>
<path fill="none" stroke="#191970" d="M201.7484,-191.7401C221.2662,-181.0127 254.1041,-163.2986 283,-149.3185 290.432,-145.7228 298.3969,-142.0504 306.1639,-138.5643"/>
<polygon fill="#191970" stroke="#191970" points="307.7722,-141.6798 315.4908,-134.4221 304.931,-135.2823 307.7722,-141.6798"/>
</g>
<!-- Node25677 -->
<g id="node24" class="node">
<title>Node25677</title>
<g id="a_node24"><a xlink:href="value_8c.html#a6162c72ecf7a8f7c5c162192074df556" target="_top" xlink:title="Append data to an existing fr_value_box_t. ">
<polygon fill="none" stroke="#000000" points="283,-191.8185 283,-210.8185 419,-210.8185 419,-191.8185 283,-191.8185"/>
<text text-anchor="middle" x="351" y="-198.8185" font-family="Helvetica,sans-Serif" font-size="10.00" fill="#000000">fr_value_box_mem_append</text>
</a>
</g>
</g>
<!-- Node25645&#45;&gt;Node25677 -->
<g id="edge37" class="edge">
<title>Node25645&#45;&gt;Node25677</title>
<path fill="none" stroke="#191970" d="M247.4465,-201.3185C255.6957,-201.3185 264.2282,-201.3185 272.6923,-201.3185"/>
<polygon fill="#191970" stroke="#191970" points="272.9591,-204.8186 282.9591,-201.3185 272.9591,-197.8186 272.9591,-204.8186"/>
</g>
<!-- Node25647 -->
<g id="node9" class="node">
<title>Node25647</title>
<g id="a_node9"><a xlink:href="acutest_8h.html#aecf9a9be8105efb1454cd8c1ef6cb1c5" target="_top" xlink:title="va_start">
<polygon fill="none" stroke="#000000" points="996,-388.8185 996,-407.8185 1048,-407.8185 1048,-388.8185 996,-388.8185"/>
<text text-anchor="middle" x="1022" y="-395.8185" font-family="Helvetica,sans-Serif" font-size="10.00" fill="#000000">va_start</text>
</a>
</g>
</g>
<!-- Node25646&#45;&gt;Node25647 -->
<g id="edge8" class="edge">
<title>Node25646&#45;&gt;Node25647</title>
<path fill="none" stroke="#191970" d="M505.9498,-175.92C525.5606,-212.6905 602.0299,-344.4791 710,-384.3185 804.5354,-419.2006 926.2385,-410.8157 985.845,-403.6"/>
<polygon fill="#191970" stroke="#191970" points="986.4122,-407.0561 995.8907,-402.3225 985.5291,-400.112 986.4122,-407.0561"/>
</g>
<!-- Node25648 -->
<g id="node10" class="node">
<title>Node25648</title>
<g id="a_node10"><a xlink:href="strerror_8c.html#a193b1e0b3712e3bbee338812c06af482" target="_top" xlink:title="fr_strerror_vprintf">
<polygon fill="none" stroke="#000000" points="583,-256.8185 583,-275.8185 674,-275.8185 674,-256.8185 583,-256.8185"/>
<text text-anchor="middle" x="628.5" y="-263.8185" font-family="Helvetica,sans-Serif" font-size="10.00" fill="#000000">fr_strerror_vprintf</text>
</a>
</g>
</g>
<!-- Node25646&#45;&gt;Node25648 -->
<g id="edge9" class="edge">
<title>Node25646&#45;&gt;Node25648</title>
<path fill="none" stroke="#191970" d="M513.2252,-175.9069C535.1595,-193.1103 581.4003,-229.3775 608.1719,-250.3749"/>
<polygon fill="#191970" stroke="#191970" points="606.0959,-253.1947 616.1244,-256.6122 610.4159,-247.6867 606.0959,-253.1947"/>
</g>
<!-- Node25651 -->
<g id="node13" class="node">
<title>Node25651</title>
<g id="a_node13"><a xlink:href="acutest_8h.html#a36af1f79dd6adf0809c21e76535034d5" target="_top" xlink:title="va_end">
<polygon fill="none" stroke="#000000" points="998,-199.8185 998,-218.8185 1046,-218.8185 1046,-199.8185 998,-199.8185"/>
<text text-anchor="middle" x="1022" y="-206.8185" font-family="Helvetica,sans-Serif" font-size="10.00" fill="#000000">va_end</text>
</a>
</g>
</g>
<!-- Node25646&#45;&gt;Node25651 -->
<g id="edge26" class="edge">
<title>Node25646&#45;&gt;Node25651</title>
<path fill="none" stroke="#191970" d="M544.4027,-165.0103C603.4883,-163.6904 712.4812,-162.8949 805,-171.3185 864.2309,-176.7113 878.4388,-182.9279 937,-193.3185 953.698,-196.2812 972.206,-199.7438 987.6772,-202.6887"/>
<polygon fill="#191970" stroke="#191970" points="987.3638,-206.1921 997.8432,-204.6322 988.6783,-199.3166 987.3638,-206.1921"/>
</g>
<!-- Node25649 -->
<g id="node11" class="node">
<title>Node25649</title>
<g id="a_node11"><a xlink:href="strerror_8c.html#a42c2cc9f76fb9dac723a1903c181e1c7" target="_top" xlink:title="Initialise thread local storage. ">
<polygon fill="none" stroke="#ff0000" points="719,-332.8185 719,-351.8185 796,-351.8185 796,-332.8185 719,-332.8185"/>
<text text-anchor="middle" x="757.5" y="-339.8185" font-family="Helvetica,sans-Serif" font-size="10.00" fill="#000000">fr_strerror_init</text>
</a>
</g>
</g>
<!-- Node25648&#45;&gt;Node25649 -->
<g id="edge10" class="edge">
<title>Node25648&#45;&gt;Node25649</title>
<path fill="none" stroke="#191970" d="M642.6606,-275.9663C658.7104,-286.756 685.792,-304.5258 710,-318.3185 715.7951,-321.6203 722.0989,-324.9683 728.1637,-328.0739"/>
<polygon fill="#191970" stroke="#191970" points="726.8834,-331.3477 737.3899,-332.7133 730.0282,-325.0939 726.8834,-331.3477"/>
</g>
<!-- Node25650 -->
<g id="node12" class="node">
<title>Node25650</title>
<g id="a_node12"><a xlink:href="strerror_8c.html#a2c8e65d6d4b73fb705cc023f60acb099" target="_top" xlink:title="Print the current error to stderr with a prefix. ">
<polygon fill="none" stroke="#ff0000" points="862.5,-360.8185 862.5,-379.8185 915.5,-379.8185 915.5,-360.8185 862.5,-360.8185"/>
<text text-anchor="middle" x="889" y="-367.8185" font-family="Helvetica,sans-Serif" font-size="10.00" fill="#000000">fr_perror</text>
</a>
</g>
</g>
<!-- Node25648&#45;&gt;Node25650 -->
<g id="edge16" class="edge">
<title>Node25648&#45;&gt;Node25650</title>
<path fill="none" stroke="#191970" d="M633.2059,-275.8204C643.7417,-295.9037 671.3694,-342.3717 710,-361.3185 755.0705,-383.4238 814.4248,-381.2418 852.1595,-376.6052"/>
<polygon fill="#191970" stroke="#191970" points="852.7573,-380.0563 862.1994,-375.2504 851.8212,-373.1192 852.7573,-380.0563"/>
</g>
<!-- Node25648&#45;&gt;Node25651 -->
<g id="edge24" class="edge">
<title>Node25648&#45;&gt;Node25651</title>
<path fill="none" stroke="#191970" d="M665.653,-256.7667C679.5049,-253.4411 695.4074,-249.9004 710,-247.3185 810.4093,-229.553 930.475,-217.4758 987.9985,-212.2486"/>
<polygon fill="#191970" stroke="#191970" points="988.3454,-215.7316 997.9928,-211.3524 987.7201,-208.7596 988.3454,-215.7316"/>
</g>
<!-- Node25656 -->
<g id="node14" class="node">
<title>Node25656</title>
<g id="a_node14"><a xlink:href="strerror_8c.html#a9d878c1ddb1b385cdaf6523fff68529c" target="_top" xlink:title="Reset cursor state. ">
<polygon fill="none" stroke="#000000" points="846.5,-303.8185 846.5,-322.8185 931.5,-322.8185 931.5,-303.8185 846.5,-303.8185"/>
<text text-anchor="middle" x="889" y="-310.8185" font-family="Helvetica,sans-Serif" font-size="10.00" fill="#000000">fr_strerror_clear</text>
</a>
</g>
</g>
<!-- Node25648&#45;&gt;Node25656 -->
<g id="edge15" class="edge">
<title>Node25648&#45;&gt;Node25656</title>
<path fill="none" stroke="#191970" d="M666.9308,-275.8932C680.4939,-279.1087 695.8812,-282.5723 710,-285.3185 752.1525,-293.5172 800.2538,-300.9345 835.9706,-306.0722"/>
<polygon fill="#191970" stroke="#191970" points="835.7742,-309.5795 846.1681,-307.5255 836.762,-302.6495 835.7742,-309.5795"/>
</g>
<!-- Node25657 -->
<g id="node15" class="node">
<title>Node25657</title>
<g id="a_node15"><a xlink:href="print_8c.html#a27ae94b5a4c77de49aa2f387765a4d58" target="_top" xlink:title="Special version of vasprintf which implements custom format specifiers. ">
<polygon fill="none" stroke="#ff0000" points="725,-180.8185 725,-199.8185 790,-199.8185 790,-180.8185 725,-180.8185"/>
<text text-anchor="middle" x="757.5" y="-187.8185" font-family="Helvetica,sans-Serif" font-size="10.00" fill="#000000">fr_vasprintf</text>
</a>
</g>
</g>
<!-- Node25648&#45;&gt;Node25657 -->
<g id="edge17" class="edge">
<title>Node25648&#45;&gt;Node25657</title>
<path fill="none" stroke="#191970" d="M642.6606,-256.6706C658.7104,-245.8809 685.792,-228.1111 710,-214.3185 715.7951,-211.0167 722.0989,-207.6687 728.1637,-204.563"/>
<polygon fill="#191970" stroke="#191970" points="730.0282,-207.5431 737.3899,-199.9237 726.8834,-201.2892 730.0282,-207.5431"/>
</g>
<!-- Node25777 -->
<g id="node18" class="node">
<title>Node25777</title>
<g id="a_node18"><a xlink:href="cursor_8c.html#a5d942382660657c3b4cb6e9cb2b12b2c" target="_top" xlink:title="Insert a single item at the start of the list. ">
<polygon fill="none" stroke="#000000" points="710,-256.8185 710,-275.8185 805,-275.8185 805,-256.8185 710,-256.8185"/>
<text text-anchor="middle" x="757.5" y="-263.8185" font-family="Helvetica,sans-Serif" font-size="10.00" fill="#000000">fr_cursor_prepend</text>
</a>
</g>
</g>
<!-- Node25648&#45;&gt;Node25777 -->
<g id="edge25" class="edge">
<title>Node25648&#45;&gt;Node25777</title>
<path fill="none" stroke="#191970" d="M674.3438,-266.3185C682.4784,-266.3185 691.0463,-266.3185 699.4656,-266.3185"/>
<polygon fill="#191970" stroke="#191970" points="699.6227,-269.8186 709.6227,-266.3185 699.6227,-262.8186 699.6227,-269.8186"/>
</g>
<!-- Node25649&#45;&gt;Node25650 -->
<g id="edge11" class="edge">
<title>Node25649&#45;&gt;Node25650</title>
<path fill="none" stroke="#191970" d="M796.2431,-350.568C813.9757,-354.3437 834.8805,-358.7949 852.3511,-362.5149"/>
<polygon fill="#191970" stroke="#191970" points="851.6812,-365.9507 862.1908,-364.6101 853.139,-359.1041 851.6812,-365.9507"/>
</g>
<!-- Node25649&#45;&gt;Node25656 -->
<g id="edge14" class="edge">
<title>Node25649&#45;&gt;Node25656</title>
<path fill="none" stroke="#191970" d="M796.2431,-333.7744C808.8004,-331.0051 822.9483,-327.885 836.3411,-324.9315"/>
<polygon fill="#191970" stroke="#191970" points="837.385,-328.2854 846.3965,-322.7139 835.8774,-321.4497 837.385,-328.2854"/>
</g>
<!-- Node25650&#45;&gt;Node25647 -->
<g id="edge12" class="edge">
<title>Node25650&#45;&gt;Node25647</title>
<path fill="none" stroke="#191970" d="M915.5949,-375.9174C935.751,-380.1608 963.6688,-386.0382 985.8507,-390.7081"/>
<polygon fill="#191970" stroke="#191970" points="985.3979,-394.1894 995.9045,-392.8247 986.84,-387.3396 985.3979,-394.1894"/>
</g>
<!-- Node25650&#45;&gt;Node25651 -->
<g id="edge13" class="edge">
<title>Node25650&#45;&gt;Node25651</title>
<path fill="none" stroke="#191970" d="M903.3676,-360.6706C913.4237,-353.5231 926.8253,-343.1763 937,-332.3185 968.3378,-298.8765 996.8814,-253.0553 1011.5783,-227.8384"/>
<polygon fill="#191970" stroke="#191970" points="1014.7302,-229.3778 1016.6732,-218.9627 1008.6593,-225.893 1014.7302,-229.3778"/>
</g>
<!-- Node25657&#45;&gt;Node25646 -->
<g id="edge19" class="edge">
<title>Node25657&#45;&gt;Node25646</title>
<path fill="none" stroke="#191970" d="M724.7092,-187.2503C681.7349,-183.2293 605.81,-176.1253 554.4649,-171.321"/>
<polygon fill="#191970" stroke="#191970" points="554.5043,-167.8095 544.2217,-170.3626 553.8521,-174.7791 554.5043,-167.8095"/>
</g>
<!-- Node25657&#45;&gt;Node25651 -->
<g id="edge18" class="edge">
<title>Node25657&#45;&gt;Node25651</title>
<path fill="none" stroke="#191970" d="M790.1982,-192.6673C840.5233,-196.2823 936.4979,-203.1765 987.7459,-206.8579"/>
<polygon fill="#191970" stroke="#191970" points="987.7451,-210.3668 997.9702,-207.5923 988.2467,-203.3847 987.7451,-210.3668"/>
</g>
<!-- Node25657&#45;&gt;Node25660 -->
<g id="edge20" class="edge">
<title>Node25657&#45;&gt;Node25660</title>
<path fill="none" stroke="#191970" d="M771.0775,-180.5096C793.9337,-163.9976 840.2652,-130.5261 867.5549,-110.8111"/>
<polygon fill="#191970" stroke="#191970" points="869.6358,-113.6257 875.6922,-104.9325 865.5366,-107.9515 869.6358,-113.6257"/>
</g>
<!-- Node25660&#45;&gt;Node25646 -->
<g id="edge21" class="edge">
<title>Node25660&#45;&gt;Node25646</title>
<path fill="none" stroke="#191970" d="M840.7727,-99.249C780.0324,-104.8475 672.751,-116.8936 583,-138.3185 566.8316,-142.1781 549.3433,-147.9226 534.687,-153.2056"/>
<polygon fill="#191970" stroke="#191970" points="533.2159,-150.0176 525.0438,-156.7606 535.6372,-156.5856 533.2159,-150.0176"/>
</g>
<!-- Node25660&#45;&gt;Node25661 -->
<g id="edge22" class="edge">
<title>Node25660&#45;&gt;Node25661</title>
<path fill="none" stroke="#191970" d="M911.2612,-85.778C932.9352,-76.4891 966.0835,-62.2827 990.4667,-51.8327"/>
<polygon fill="#191970" stroke="#191970" points="991.8534,-55.0464 999.6662,-47.8901 989.096,-48.6124 991.8534,-55.0464"/>
</g>
<!-- Node25661&#45;&gt;Node25646 -->
<g id="edge23" class="edge">
<title>Node25661&#45;&gt;Node25646</title>
<path fill="none" stroke="#191970" d="M972.7392,-41.3991C889.8888,-47.8376 718.4324,-66.5984 583,-117.3185 560.9293,-125.5841 538.0937,-139.7724 522.1435,-150.7608"/>
<polygon fill="#191970" stroke="#191970" points="519.754,-148.1635 513.6057,-156.7919 523.7928,-153.8809 519.754,-148.1635"/>
</g>
<!-- Node25666&#45;&gt;Node25644 -->
<g id="edge30" class="edge">
<title>Node25666&#45;&gt;Node25644</title>
<path fill="none" stroke="#191970" d="M518.2814,-338.9506C527.6414,-344.8003 538.9112,-352.9411 547,-362.3185 569.8504,-388.8092 558.391,-407.4529 583,-432.3185 586.5063,-435.8613 590.6464,-439.0001 594.9773,-441.7426"/>
<polygon fill="#191970" stroke="#191970" points="593.562,-444.9624 603.9931,-446.818 596.9959,-438.8625 593.562,-444.9624"/>
</g>
<!-- Node25779 -->
<g id="node21" class="node">
<title>Node25779</title>
<g id="a_node21"><a xlink:href="cursor_8h.html#a6194bc92357e84dc8720ffd5ccaaeb42" target="_top" xlink:title="Remove the current item. ">
<polygon fill="none" stroke="#000000" points="455,-255.8185 455,-274.8185 547,-274.8185 547,-255.8185 455,-255.8185"/>
<text text-anchor="middle" x="501" y="-262.8185" font-family="Helvetica,sans-Serif" font-size="10.00" fill="#000000">fr_cursor_remove</text>
</a>
</g>
</g>
<!-- Node25778&#45;&gt;Node25779 -->
<g id="edge32" class="edge">
<title>Node25778&#45;&gt;Node25779</title>
<path fill="none" stroke="#191970" d="M401.7832,-248.1209C415.5984,-250.5155 430.6418,-253.1231 444.741,-255.5669"/>
<polygon fill="#191970" stroke="#191970" points="444.3586,-259.0528 454.8095,-257.3121 445.5542,-252.1556 444.3586,-259.0528"/>
</g>
<!-- Node25779&#45;&gt;Node25644 -->
<g id="edge33" class="edge">
<title>Node25779&#45;&gt;Node25644</title>
<path fill="none" stroke="#191970" d="M514.1017,-275.0233C524.4329,-283.3242 538.4754,-296.1508 547,-310.3185 576.1466,-358.7595 547.1813,-388.5799 583,-432.3185 585.8787,-435.8337 589.4102,-438.8996 593.2214,-441.556"/>
<polygon fill="#191970" stroke="#191970" points="591.4888,-444.598 601.8665,-446.7324 595.0849,-438.5923 591.4888,-444.598"/>
</g>
<!-- Node25668&#45;&gt;Node25646 -->
<g id="edge36" class="edge">
<title>Node25668&#45;&gt;Node25646</title>
<path fill="none" stroke="#191970" d="M398.8734,-134.3188C418.8787,-140.5872 441.8601,-147.788 460.9503,-153.7696"/>
<polygon fill="#191970" stroke="#191970" points="459.9531,-157.1249 470.5422,-156.775 462.0462,-150.4451 459.9531,-157.1249"/>
</g>
<!-- Node25677&#45;&gt;Node25646 -->
<g id="edge38" class="edge">
<title>Node25677&#45;&gt;Node25646</title>
<path fill="none" stroke="#191970" d="M391.9882,-191.7546C409.929,-187.5684 431.1641,-182.6135 450.1042,-178.1942"/>
<polygon fill="#191970" stroke="#191970" points="451.1183,-181.5516 460.0614,-175.8708 449.5277,-174.7347 451.1183,-181.5516"/>
</g>
<!-- Node25781&#45;&gt;Node25640 -->
<g id="edge40" class="edge">
<title>Node25781&#45;&gt;Node25640</title>
<path fill="none" stroke="#191970" d="M243.6705,-412.9878C259.3122,-411.5786 276.1948,-410.0577 291.8361,-408.6486"/>
<polygon fill="#191970" stroke="#191970" points="292.2644,-412.1242 301.91,-407.741 291.6362,-405.1525 292.2644,-412.1242"/>
</g>
<!-- Node25673&#45;&gt;Node25641 -->
<g id="edge43" class="edge">
<title>Node25673&#45;&gt;Node25641</title>
<path fill="none" stroke="#191970" d="M406.0027,-367.3855C418.934,-369.2821 432.7209,-371.3042 445.6667,-373.2029"/>
<polygon fill="#191970" stroke="#191970" points="445.4341,-376.7062 455.8362,-374.6944 446.4499,-369.7803 445.4341,-376.7062"/>
</g>
<!-- Node25673&#45;&gt;Node25646 -->
<g id="edge42" class="edge">
<title>Node25673&#45;&gt;Node25646</title>
<path fill="none" stroke="#191970" d="M369.8568,-344.1813C384.2544,-332.0965 404.0896,-314.2692 419,-296.3185 435.0004,-277.0555 471.6155,-216.161 490.0174,-185.0338"/>
<polygon fill="#191970" stroke="#191970" points="493.2415,-186.4564 495.3028,-176.064 487.2106,-182.9027 493.2415,-186.4564"/>
</g>
</g>
</svg>
