<?xml version="1.0" encoding="UTF-8" standalone="no"?>
<!DOCTYPE svg PUBLIC "-//W3C//DTD SVG 1.1//EN"
 "http://www.w3.org/Graphics/SVG/1.1/DTD/svg11.dtd">
<!-- Generated by graphviz version 2.40.1 (20161225.0304)
 -->
<!-- Title: xlat_func_chap_password Pages: 1 -->
<!--zoomable 542 -->
<svg id="main" version="1.1" xmlns="http://www.w3.org/2000/svg" xmlns:xlink="http://www.w3.org/1999/xlink" xml:space="preserve" onload="init(evt)">
<style type="text/css"><![CDATA[
.edge:hover path { stroke: red; }
.edge:hover polygon { stroke: red; fill: red; }
]]></style>
<script type="text/javascript"><![CDATA[
var edges = document.getElementsByTagName('g');
if (edges && edges.length) {
  for (var i=0;i<edges.length;i++) {
    if (edges[i].id.substr(0,4)=='edge') {
      edges[i].setAttribute('class','edge');
    }
  }
}
]]></script>
        <defs>
                <circle id="rim" cx="0" cy="0" r="7"/>
                <circle id="rim2" cx="0" cy="0" r="3.5"/>
                <g id="zoomPlus">
                        <use xlink:href="#rim" fill="#404040">
                                <set attributeName="fill" to="#808080" begin="zoomplus.mouseover" end="zoomplus.mouseout"/>
                        </use>
                        <path d="M-4,0h8M0,-4v8" fill="none" stroke="white" stroke-width="1.5" pointer-events="none"/>
                </g>
                <g id="zoomMin">
                        <use xlink:href="#rim" fill="#404040">
                                <set attributeName="fill" to="#808080" begin="zoomminus.mouseover" end="zoomminus.mouseout"/>
                        </use>
                        <path d="M-4,0h8" fill="none" stroke="white" stroke-width="1.5" pointer-events="none"/>
                </g>
                <g id="dirArrow">
                        <path fill="none" stroke="white" stroke-width="1.5" d="M0,-3.0v7 M-2.5,-0.5L0,-3.0L2.5,-0.5"/>
                </g>
               <g id="resetDef">
                       <use xlink:href="#rim2" fill="#404040">
                               <set attributeName="fill" to="#808080" begin="reset.mouseover" end="reset.mouseout"/>
                       </use>
               </g>
        </defs>

<script type="text/javascript">
var viewWidth = 1117;
var viewHeight = 542;
var sectionId = 'dynsection-46';
</script>
<script xlink:href="svgpan.js"/>
<svg id="graph" class="graph">
<g id="viewport">
<title>xlat_func_chap_password</title>
<!-- Node30100 -->
<g id="node1" class="node">
<title>Node30100</title>
<polygon fill="#bfbfbf" stroke="#000000" points="0,-199.5 0,-218.5 130,-218.5 130,-199.5 0,-199.5"/>
<text text-anchor="middle" x="65" y="-206.5" font-family="Helvetica,sans-Serif" font-size="10.00" fill="#000000">xlat_func_chap_password</text>
</g>
<!-- Node30101 -->
<g id="node2" class="node">
<title>Node30101</title>
<g id="a_node2"><a xlink:href="value_8c.html#a8cedcf0cd0b56390ead0b791c4b4d67f" target="_top" xlink:title="Concatenate a list of value boxes. ">
<polygon fill="none" stroke="#000000" points="166,-161.5 166,-180.5 291,-180.5 291,-161.5 166,-161.5"/>
<text text-anchor="middle" x="228.5" y="-168.5" font-family="Helvetica,sans-Serif" font-size="10.00" fill="#000000">fr_value_box_list_concat</text>
</a>
</g>
</g>
<!-- Node30100&#45;&gt;Node30101 -->
<g id="edge1" class="edge">
<title>Node30100&#45;&gt;Node30101</title>
<path fill="none" stroke="#191970" d="M106.258,-199.411C127.9307,-194.3739 154.6832,-188.1562 177.6303,-182.8229"/>
<polygon fill="#191970" stroke="#191970" points="178.5907,-186.1931 187.5387,-180.5201 177.006,-179.3748 178.5907,-186.1931"/>
</g>
<!-- Node30606 -->
<g id="node19" class="node">
<title>Node30606</title>
<g id="a_node19"><a xlink:href="pair_8c.html#ac3e6ae214c078ffe6f2648f1c12159ff" target="_top" xlink:title="Find the pair with the matching DAs. ">
<polygon fill="none" stroke="#000000" points="180.5,-287.5 180.5,-306.5 276.5,-306.5 276.5,-287.5 180.5,-287.5"/>
<text text-anchor="middle" x="228.5" y="-294.5" font-family="Helvetica,sans-Serif" font-size="10.00" fill="#000000">fr_pair_find_by_da</text>
</a>
</g>
</g>
<!-- Node30100&#45;&gt;Node30606 -->
<g id="edge31" class="edge">
<title>Node30100&#45;&gt;Node30606</title>
<path fill="none" stroke="#191970" d="M76.4067,-218.5323C94.4053,-233.1559 130.9603,-261.1934 166,-278 170.6734,-280.2416 175.6702,-282.2884 180.7259,-284.1385"/>
<polygon fill="#191970" stroke="#191970" points="179.8569,-287.5399 190.4514,-287.4534 182.1153,-280.9142 179.8569,-287.5399"/>
</g>
<!-- Node30607 -->
<g id="node20" class="node">
<title>Node30607</title>
<g id="a_node20"><a xlink:href="protocols_2radius_2encode_8c.html#ae1b8f9f8704b629c1550a6f08d42fa4c" target="_top" xlink:title="Encode a CHAP password. ">
<polygon fill="none" stroke="#000000" points="170,-238 170,-268 287,-268 287,-238 170,-238"/>
<text text-anchor="start" x="178" y="-256" font-family="Helvetica,sans-Serif" font-size="10.00" fill="#000000">fr_radius_encode_chap</text>
<text text-anchor="middle" x="228.5" y="-245" font-family="Helvetica,sans-Serif" font-size="10.00" fill="#000000">_password</text>
</a>
</g>
</g>
<!-- Node30100&#45;&gt;Node30607 -->
<g id="edge32" class="edge">
<title>Node30100&#45;&gt;Node30607</title>
<path fill="none" stroke="#191970" d="M100.4771,-218.5473C118.7209,-223.457 141.5491,-229.6004 162.8572,-235.3347"/>
<polygon fill="#191970" stroke="#191970" points="161.9525,-238.7156 172.5185,-237.9346 163.7716,-231.9561 161.9525,-238.7156"/>
</g>
<!-- Node30346 -->
<g id="node21" class="node">
<title>Node30346</title>
<g id="a_node21"><a xlink:href="rand_8c.html#ae6966accae06dc7d65d4cc51b5782383" target="_top" xlink:title="Return a 32&#45;bit random number. ">
<polygon fill="none" stroke="#ff0000" points="205,-199.5 205,-218.5 252,-218.5 252,-199.5 205,-199.5"/>
<text text-anchor="middle" x="228.5" y="-206.5" font-family="Helvetica,sans-Serif" font-size="10.00" fill="#000000">fr_rand</text>
</a>
</g>
</g>
<!-- Node30100&#45;&gt;Node30346 -->
<g id="edge33" class="edge">
<title>Node30100&#45;&gt;Node30346</title>
<path fill="none" stroke="#191970" d="M130.0893,-209C152.2272,-209 176.0674,-209 194.738,-209"/>
<polygon fill="#191970" stroke="#191970" points="194.8076,-212.5001 204.8076,-209 194.8076,-205.5001 194.8076,-212.5001"/>
</g>
<!-- Node30728 -->
<g id="node22" class="node">
<title>Node30728</title>
<g id="a_node22"><a xlink:href="value_8h.html#a3ddbdc59834faa51219a356e2b112a17" target="_top" xlink:title="Allocate a value box for later use with a value assignment function. ">
<polygon fill="none" stroke="#000000" points="169.5,-123.5 169.5,-142.5 287.5,-142.5 287.5,-123.5 169.5,-123.5"/>
<text text-anchor="middle" x="228.5" y="-130.5" font-family="Helvetica,sans-Serif" font-size="10.00" fill="#000000">fr_value_box_alloc_null</text>
</a>
</g>
</g>
<!-- Node30100&#45;&gt;Node30728 -->
<g id="edge34" class="edge">
<title>Node30100&#45;&gt;Node30728</title>
<path fill="none" stroke="#191970" d="M79.5359,-199.4454C98.7078,-187.1646 133.7929,-165.7866 166,-152 171.3433,-149.7127 177.0521,-147.5798 182.7659,-145.631"/>
<polygon fill="#191970" stroke="#191970" points="183.8909,-148.9457 192.3228,-142.5306 181.7307,-142.2873 183.8909,-148.9457"/>
</g>
<!-- Node30133 -->
<g id="node24" class="node">
<title>Node30133</title>
<g id="a_node24"><a xlink:href="value_8c.html#af7e5339e09823aff580c0ac63c5d5c84" target="_top" xlink:title="Copy a buffer to a fr_value_box_t. ">
<polygon fill="none" stroke="#ff0000" points="337.5,-354.5 337.5,-373.5 452.5,-373.5 452.5,-354.5 337.5,-354.5"/>
<text text-anchor="middle" x="395" y="-361.5" font-family="Helvetica,sans-Serif" font-size="10.00" fill="#000000">fr_value_box_memdup</text>
</a>
</g>
</g>
<!-- Node30100&#45;&gt;Node30133 -->
<g id="edge36" class="edge">
<title>Node30100&#45;&gt;Node30133</title>
<path fill="none" stroke="#191970" d="M70.9852,-218.5372C84.8516,-239.7724 121.4221,-291.04 166,-316 215.5305,-343.733 279.2247,-355.4915 326.8595,-360.4518"/>
<polygon fill="#191970" stroke="#191970" points="326.7838,-363.9607 337.0738,-361.4375 327.4563,-356.9931 326.7838,-363.9607"/>
</g>
<!-- Node30272 -->
<g id="node25" class="node">
<title>Node30272</title>
<g id="a_node25"><a xlink:href="cursor_8c.html#a6e72682a046a3eeac734da6639f1817c" target="_top" xlink:title="Insert a single item at the end of the list. ">
<polygon fill="none" stroke="#ff0000" points="182.5,-85.5 182.5,-104.5 274.5,-104.5 274.5,-85.5 182.5,-85.5"/>
<text text-anchor="middle" x="228.5" y="-92.5" font-family="Helvetica,sans-Serif" font-size="10.00" fill="#000000">fr_cursor_append</text>
</a>
</g>
</g>
<!-- Node30100&#45;&gt;Node30272 -->
<g id="edge38" class="edge">
<title>Node30100&#45;&gt;Node30272</title>
<path fill="none" stroke="#191970" d="M72.5518,-199.3961C88.04,-180.3321 125.3795,-137.526 166,-114 169.6986,-111.8579 173.6628,-109.9347 177.7341,-108.2124"/>
<polygon fill="#191970" stroke="#191970" points="179.2538,-111.379 187.3541,-104.5499 176.7631,-104.8371 179.2538,-111.379"/>
</g>
<!-- Node30102 -->
<g id="node3" class="node">
<title>Node30102</title>
<g id="a_node3"><a xlink:href="strerror_8c.html#ae701765650b8aea79a3037bc4921d7f8" target="_top" xlink:title="Log to thread local error buffer. ">
<polygon fill="none" stroke="#000000" points="499,-285.5 499,-304.5 585,-304.5 585,-285.5 499,-285.5"/>
<text text-anchor="middle" x="542" y="-292.5" font-family="Helvetica,sans-Serif" font-size="10.00" fill="#000000">fr_strerror_printf</text>
</a>
</g>
</g>
<!-- Node30101&#45;&gt;Node30102 -->
<g id="edge2" class="edge">
<title>Node30101&#45;&gt;Node30102</title>
<path fill="none" stroke="#191970" d="M291.1822,-174.3096C340.3404,-179.0873 409.2043,-190.7211 463,-219 489.9692,-233.177 514.1027,-259.3446 528.4,-276.9615"/>
<polygon fill="#191970" stroke="#191970" points="526.0115,-279.5865 534.9429,-285.2857 531.515,-275.2608 526.0115,-279.5865"/>
</g>
<!-- Node30117 -->
<g id="node11" class="node">
<title>Node30117</title>
<g id="a_node11"><a xlink:href="value_8c.html#a3a0550d465b81917f8b0c69a3373163e" target="_top" xlink:title="Convert one type of fr_value_box_t to another. ">
<polygon fill="none" stroke="#ff0000" points="879,-228.5 879,-247.5 975,-247.5 975,-228.5 879,-228.5"/>
<text text-anchor="middle" x="927" y="-235.5" font-family="Helvetica,sans-Serif" font-size="10.00" fill="#000000">fr_value_box_cast</text>
</a>
</g>
</g>
<!-- Node30101&#45;&gt;Node30117 -->
<g id="edge22" class="edge">
<title>Node30101&#45;&gt;Node30117</title>
<path fill="none" stroke="#191970" d="M291.2367,-168.14C354.5142,-165.5046 455.0169,-162 542,-162 542,-162 542,-162 666.5,-162 754.0255,-162 851.711,-202.0272 898.7125,-223.9843"/>
<polygon fill="#191970" stroke="#191970" points="897.4166,-227.2436 907.9509,-228.3745 900.4211,-220.9211 897.4166,-227.2436"/>
</g>
<!-- Node30118 -->
<g id="node12" class="node">
<title>Node30118</title>
<g id="a_node12"><a xlink:href="value_8c.html#a4fadbcd199d20611112e21b7f0da11c4" target="_top" xlink:title="Copy value data verbatim duplicating any buffers. ">
<polygon fill="none" stroke="#ff0000" points="1011,-190.5 1011,-209.5 1109,-209.5 1109,-190.5 1011,-190.5"/>
<text text-anchor="middle" x="1060" y="-197.5" font-family="Helvetica,sans-Serif" font-size="10.00" fill="#000000">fr_value_box_copy</text>
</a>
</g>
</g>
<!-- Node30101&#45;&gt;Node30118 -->
<g id="edge23" class="edge">
<title>Node30101&#45;&gt;Node30118</title>
<path fill="none" stroke="#191970" d="M266.8331,-161.4888C325.6395,-147.7553 441.8357,-124 542,-124 542,-124 542,-124 795.5,-124 884.4504,-124 983.9128,-164.1949 1031.5535,-186.1219"/>
<polygon fill="#191970" stroke="#191970" points="1030.1008,-189.3063 1040.6417,-190.3745 1033.0677,-182.9661 1030.1008,-189.3063"/>
</g>
<!-- Node30124 -->
<g id="node14" class="node">
<title>Node30124</title>
<g id="a_node14"><a xlink:href="cursor_8c.html#af6c2090d1e00319075d6def5aa2666fd" target="_top" xlink:title="Advanced the cursor to the next item. ">
<polygon fill="none" stroke="#ff0000" points="355.5,-76.5 355.5,-95.5 434.5,-95.5 434.5,-76.5 355.5,-76.5"/>
<text text-anchor="middle" x="395" y="-83.5" font-family="Helvetica,sans-Serif" font-size="10.00" fill="#000000">fr_cursor_next</text>
</a>
</g>
</g>
<!-- Node30101&#45;&gt;Node30124 -->
<g id="edge24" class="edge">
<title>Node30101&#45;&gt;Node30124</title>
<path fill="none" stroke="#191970" d="M271.636,-161.4286C278.412,-158.9427 285.1133,-155.8454 291,-152 311.583,-138.5544 306.7189,-123.8968 327,-110 333.1771,-105.7674 340.1798,-102.2025 347.285,-99.2243"/>
<polygon fill="#191970" stroke="#191970" points="348.8805,-102.3614 356.9697,-95.5193 346.3793,-95.8235 348.8805,-102.3614"/>
</g>
<!-- Node30612 -->
<g id="node15" class="node">
<title>Node30612</title>
<g id="a_node15"><a xlink:href="cursor_8h.html#ae89f379d1f6985ee4335586e0acd0df6" target="_top" xlink:title="talloc_free the current item ">
<polygon fill="none" stroke="#ff0000" points="344.5,-38.5 344.5,-57.5 445.5,-57.5 445.5,-38.5 344.5,-38.5"/>
<text text-anchor="middle" x="395" y="-45.5" font-family="Helvetica,sans-Serif" font-size="10.00" fill="#000000">fr_cursor_free_item</text>
</a>
</g>
</g>
<!-- Node30101&#45;&gt;Node30612 -->
<g id="edge25" class="edge">
<title>Node30101&#45;&gt;Node30612</title>
<path fill="none" stroke="#191970" d="M276.2751,-161.4038C281.6331,-158.9497 286.7002,-155.8685 291,-152 321.4992,-124.5599 296.1918,-94.0928 327,-67 329.5313,-64.774 332.3035,-62.8069 335.2355,-61.0689"/>
<polygon fill="#191970" stroke="#191970" points="337.0245,-64.0886 344.4304,-56.5121 333.9162,-57.8166 337.0245,-64.0886"/>
</g>
<!-- Node30483 -->
<g id="node16" class="node">
<title>Node30483</title>
<g id="a_node16"><a xlink:href="cursor_8c.html#a92733b72ea218ecff0bc7808fae613b7" target="_top" xlink:title="Return the item the cursor current points to. ">
<polygon fill="none" stroke="#000000" points="350,-266.5 350,-285.5 440,-285.5 440,-266.5 350,-266.5"/>
<text text-anchor="middle" x="395" y="-273.5" font-family="Helvetica,sans-Serif" font-size="10.00" fill="#000000">fr_cursor_current</text>
</a>
</g>
</g>
<!-- Node30101&#45;&gt;Node30483 -->
<g id="edge26" class="edge">
<title>Node30101&#45;&gt;Node30483</title>
<path fill="none" stroke="#191970" d="M274.9822,-180.5706C280.7434,-183.0293 286.2629,-186.1186 291,-190 317.1478,-211.4244 300.6111,-235.8732 327,-257 331.0234,-260.2211 335.5596,-262.8967 340.3315,-265.119"/>
<polygon fill="#191970" stroke="#191970" points="339.1406,-268.412 349.7261,-268.8584 341.7294,-261.9083 339.1406,-268.412"/>
</g>
<!-- Node30126 -->
<g id="node17" class="node">
<title>Node30126</title>
<g id="a_node17"><a xlink:href="value_8c.html#a0adc72b7a30d3064ab65ed9059f0e8c8" target="_top" xlink:title="Append bytes from a buffer to an existing fr_value_box_t. ">
<polygon fill="none" stroke="#000000" points="345.5,-305 345.5,-335 444.5,-335 444.5,-305 345.5,-305"/>
<text text-anchor="start" x="353.5" y="-323" font-family="Helvetica,sans-Serif" font-size="10.00" fill="#000000">fr_value_box_bstrn</text>
<text text-anchor="middle" x="395" y="-312" font-family="Helvetica,sans-Serif" font-size="10.00" fill="#000000">_append</text>
</a>
</g>
</g>
<!-- Node30101&#45;&gt;Node30126 -->
<g id="edge27" class="edge">
<title>Node30101&#45;&gt;Node30126</title>
<path fill="none" stroke="#191970" d="M277.1654,-180.6074C282.2448,-183.062 287.002,-186.1403 291,-190 326.492,-224.2651 292.5021,-259.7343 327,-295 329.838,-297.9011 333.0408,-300.4681 336.4714,-302.7391"/>
<polygon fill="#191970" stroke="#191970" points="334.9647,-305.9082 345.39,-307.796 338.4174,-299.8189 334.9647,-305.9082"/>
</g>
<!-- Node30135 -->
<g id="node18" class="node">
<title>Node30135</title>
<g id="a_node18"><a xlink:href="value_8c.html#a6162c72ecf7a8f7c5c162192074df556" target="_top" xlink:title="Append data to an existing fr_value_box_t. ">
<polygon fill="none" stroke="#000000" points="327,-228.5 327,-247.5 463,-247.5 463,-228.5 327,-228.5"/>
<text text-anchor="middle" x="395" y="-235.5" font-family="Helvetica,sans-Serif" font-size="10.00" fill="#000000">fr_value_box_mem_append</text>
</a>
</g>
</g>
<!-- Node30101&#45;&gt;Node30135 -->
<g id="edge29" class="edge">
<title>Node30101&#45;&gt;Node30135</title>
<path fill="none" stroke="#191970" d="M266.1879,-180.5075C274.5334,-183.1456 283.2075,-186.3166 291,-190 308.3852,-198.2178 309.8005,-205.4003 327,-214 335.3055,-218.1527 344.5065,-221.9138 353.3869,-225.1615"/>
<polygon fill="#191970" stroke="#191970" points="352.2449,-228.47 362.8397,-228.4784 354.5626,-221.8648 352.2449,-228.47"/>
</g>
<!-- Node30103 -->
<g id="node4" class="node">
<title>Node30103</title>
<g id="a_node4"><a xlink:href="acutest_8h.html#aecf9a9be8105efb1454cd8c1ef6cb1c5" target="_top" xlink:title="va_start">
<polygon fill="none" stroke="#000000" points="1034,-512.5 1034,-531.5 1086,-531.5 1086,-512.5 1034,-512.5"/>
<text text-anchor="middle" x="1060" y="-519.5" font-family="Helvetica,sans-Serif" font-size="10.00" fill="#000000">va_start</text>
</a>
</g>
</g>
<!-- Node30102&#45;&gt;Node30103 -->
<g id="edge3" class="edge">
<title>Node30102&#45;&gt;Node30103</title>
<path fill="none" stroke="#191970" d="M547.0419,-304.618C566.6906,-340.8473 642.3028,-468.9993 748,-508 842.5354,-542.8822 964.2385,-534.4972 1023.845,-527.2815"/>
<polygon fill="#191970" stroke="#191970" points="1024.4122,-530.7376 1033.8907,-526.004 1023.5291,-523.7936 1024.4122,-530.7376"/>
</g>
<!-- Node30104 -->
<g id="node5" class="node">
<title>Node30104</title>
<g id="a_node5"><a xlink:href="strerror_8c.html#a193b1e0b3712e3bbee338812c06af482" target="_top" xlink:title="fr_strerror_vprintf">
<polygon fill="none" stroke="#000000" points="621,-380.5 621,-399.5 712,-399.5 712,-380.5 621,-380.5"/>
<text text-anchor="middle" x="666.5" y="-387.5" font-family="Helvetica,sans-Serif" font-size="10.00" fill="#000000">fr_strerror_vprintf</text>
</a>
</g>
</g>
<!-- Node30102&#45;&gt;Node30104 -->
<g id="edge4" class="edge">
<title>Node30102&#45;&gt;Node30104</title>
<path fill="none" stroke="#191970" d="M554.8548,-304.8089C576.4006,-321.2494 619.9801,-354.5029 645.8599,-374.2505"/>
<polygon fill="#191970" stroke="#191970" points="643.8275,-377.1022 653.9006,-380.386 648.0738,-371.5373 643.8275,-377.1022"/>
</g>
<!-- Node30107 -->
<g id="node8" class="node">
<title>Node30107</title>
<g id="a_node8"><a xlink:href="acutest_8h.html#a36af1f79dd6adf0809c21e76535034d5" target="_top" xlink:title="va_end">
<polygon fill="none" stroke="#000000" points="1036,-342.5 1036,-361.5 1084,-361.5 1084,-342.5 1036,-342.5"/>
<text text-anchor="middle" x="1060" y="-349.5" font-family="Helvetica,sans-Serif" font-size="10.00" fill="#000000">va_end</text>
</a>
</g>
</g>
<!-- Node30102&#45;&gt;Node30107 -->
<g id="edge21" class="edge">
<title>Node30102&#45;&gt;Node30107</title>
<path fill="none" stroke="#191970" d="M585.2734,-299.7617C686.0824,-310.8546 934.8993,-338.2341 1025.9317,-348.2512"/>
<polygon fill="#191970" stroke="#191970" points="1025.6608,-351.7424 1035.9836,-349.3573 1026.4265,-344.7844 1025.6608,-351.7424"/>
</g>
<!-- Node30105 -->
<g id="node6" class="node">
<title>Node30105</title>
<g id="a_node6"><a xlink:href="strerror_8c.html#a42c2cc9f76fb9dac723a1903c181e1c7" target="_top" xlink:title="Initialise thread local storage. ">
<polygon fill="none" stroke="#ff0000" points="757,-456.5 757,-475.5 834,-475.5 834,-456.5 757,-456.5"/>
<text text-anchor="middle" x="795.5" y="-463.5" font-family="Helvetica,sans-Serif" font-size="10.00" fill="#000000">fr_strerror_init</text>
</a>
</g>
</g>
<!-- Node30104&#45;&gt;Node30105 -->
<g id="edge5" class="edge">
<title>Node30104&#45;&gt;Node30105</title>
<path fill="none" stroke="#191970" d="M680.6606,-399.6479C696.7104,-410.4376 723.792,-428.2074 748,-442 753.7951,-445.3018 760.0989,-448.6498 766.1637,-451.7555"/>
<polygon fill="#191970" stroke="#191970" points="764.8834,-455.0293 775.3899,-456.3948 768.0282,-448.7754 764.8834,-455.0293"/>
</g>
<!-- Node30106 -->
<g id="node7" class="node">
<title>Node30106</title>
<g id="a_node7"><a xlink:href="strerror_8c.html#a2c8e65d6d4b73fb705cc023f60acb099" target="_top" xlink:title="Print the current error to stderr with a prefix. ">
<polygon fill="none" stroke="#ff0000" points="900.5,-484.5 900.5,-503.5 953.5,-503.5 953.5,-484.5 900.5,-484.5"/>
<text text-anchor="middle" x="927" y="-491.5" font-family="Helvetica,sans-Serif" font-size="10.00" fill="#000000">fr_perror</text>
</a>
</g>
</g>
<!-- Node30104&#45;&gt;Node30106 -->
<g id="edge11" class="edge">
<title>Node30104&#45;&gt;Node30106</title>
<path fill="none" stroke="#191970" d="M671.2059,-399.5019C681.7417,-419.5852 709.3694,-466.0532 748,-485 793.0705,-507.1053 852.4248,-504.9233 890.1595,-500.2867"/>
<polygon fill="#191970" stroke="#191970" points="890.7573,-503.7378 900.1994,-498.932 889.8212,-496.8007 890.7573,-503.7378"/>
</g>
<!-- Node30104&#45;&gt;Node30107 -->
<g id="edge19" class="edge">
<title>Node30104&#45;&gt;Node30107</title>
<path fill="none" stroke="#191970" d="M712.0239,-385.6038C791.6895,-377.9105 954.6509,-362.1735 1025.6557,-355.3166"/>
<polygon fill="#191970" stroke="#191970" points="1026.2228,-358.7782 1035.84,-354.3331 1025.5499,-351.8106 1026.2228,-358.7782"/>
</g>
<!-- Node30113 -->
<g id="node9" class="node">
<title>Node30113</title>
<g id="a_node9"><a xlink:href="strerror_8c.html#a9d878c1ddb1b385cdaf6523fff68529c" target="_top" xlink:title="Reset cursor state. ">
<polygon fill="none" stroke="#000000" points="884.5,-427.5 884.5,-446.5 969.5,-446.5 969.5,-427.5 884.5,-427.5"/>
<text text-anchor="middle" x="927" y="-434.5" font-family="Helvetica,sans-Serif" font-size="10.00" fill="#000000">fr_strerror_clear</text>
</a>
</g>
</g>
<!-- Node30104&#45;&gt;Node30113 -->
<g id="edge10" class="edge">
<title>Node30104&#45;&gt;Node30113</title>
<path fill="none" stroke="#191970" d="M712.1737,-398.2406C757.443,-406.4081 826.726,-418.9083 874.3008,-427.4919"/>
<polygon fill="#191970" stroke="#191970" points="873.9419,-430.9836 884.4045,-429.3148 875.1849,-424.0948 873.9419,-430.9836"/>
</g>
<!-- Node30114 -->
<g id="node10" class="node">
<title>Node30114</title>
<g id="a_node10"><a xlink:href="print_8c.html#a27ae94b5a4c77de49aa2f387765a4d58" target="_top" xlink:title="Special version of vasprintf which implements custom format specifiers. ">
<polygon fill="none" stroke="#ff0000" points="763,-266.5 763,-285.5 828,-285.5 828,-266.5 763,-266.5"/>
<text text-anchor="middle" x="795.5" y="-273.5" font-family="Helvetica,sans-Serif" font-size="10.00" fill="#000000">fr_vasprintf</text>
</a>
</g>
</g>
<!-- Node30104&#45;&gt;Node30114 -->
<g id="edge12" class="edge">
<title>Node30104&#45;&gt;Node30114</title>
<path fill="none" stroke="#191970" d="M677.4985,-380.2804C699.5853,-360.7618 749.5481,-316.6087 776.8424,-292.4881"/>
<polygon fill="#191970" stroke="#191970" points="779.3538,-294.9396 784.5294,-285.695 774.7184,-289.6943 779.3538,-294.9396"/>
</g>
<!-- Node30266 -->
<g id="node13" class="node">
<title>Node30266</title>
<g id="a_node13"><a xlink:href="cursor_8c.html#a5d942382660657c3b4cb6e9cb2b12b2c" target="_top" xlink:title="Insert a single item at the start of the list. ">
<polygon fill="none" stroke="#000000" points="748,-342.5 748,-361.5 843,-361.5 843,-342.5 748,-342.5"/>
<text text-anchor="middle" x="795.5" y="-349.5" font-family="Helvetica,sans-Serif" font-size="10.00" fill="#000000">fr_cursor_prepend</text>
</a>
</g>
</g>
<!-- Node30104&#45;&gt;Node30266 -->
<g id="edge20" class="edge">
<title>Node30104&#45;&gt;Node30266</title>
<path fill="none" stroke="#191970" d="M699.0521,-380.411C715.3993,-375.5956 735.4092,-369.7012 752.9571,-364.532"/>
<polygon fill="#191970" stroke="#191970" points="754.3548,-367.7691 762.9583,-361.5859 752.3768,-361.0543 754.3548,-367.7691"/>
</g>
<!-- Node30105&#45;&gt;Node30106 -->
<g id="edge6" class="edge">
<title>Node30105&#45;&gt;Node30106</title>
<path fill="none" stroke="#191970" d="M834.2431,-474.2495C851.9757,-478.0253 872.8805,-482.4765 890.3511,-486.1964"/>
<polygon fill="#191970" stroke="#191970" points="889.6812,-489.6322 900.1908,-488.2916 891.139,-482.7857 889.6812,-489.6322"/>
</g>
<!-- Node30105&#45;&gt;Node30113 -->
<g id="edge9" class="edge">
<title>Node30105&#45;&gt;Node30113</title>
<path fill="none" stroke="#191970" d="M834.2431,-457.4559C846.8004,-454.6866 860.9483,-451.5665 874.3411,-448.613"/>
<polygon fill="#191970" stroke="#191970" points="875.385,-451.967 884.3965,-446.3954 873.8774,-445.1312 875.385,-451.967"/>
</g>
<!-- Node30106&#45;&gt;Node30103 -->
<g id="edge7" class="edge">
<title>Node30106&#45;&gt;Node30103</title>
<path fill="none" stroke="#191970" d="M953.5949,-499.5989C973.751,-503.8423 1001.6688,-509.7197 1023.8507,-514.3896"/>
<polygon fill="#191970" stroke="#191970" points="1023.3979,-517.8709 1033.9045,-516.5062 1024.84,-511.0211 1023.3979,-517.8709"/>
</g>
<!-- Node30106&#45;&gt;Node30107 -->
<g id="edge8" class="edge">
<title>Node30106&#45;&gt;Node30107</title>
<path fill="none" stroke="#191970" d="M940.68,-484.4041C950.6529,-477.1224 964.2451,-466.5887 975,-456 1003.207,-428.2287 1031.3797,-391.5599 1047.1615,-370.0038"/>
<polygon fill="#191970" stroke="#191970" points="1050.1002,-371.913 1053.1304,-361.7607 1044.4306,-367.8074 1050.1002,-371.913"/>
</g>
<!-- Node30114&#45;&gt;Node30102 -->
<g id="edge14" class="edge">
<title>Node30114&#45;&gt;Node30102</title>
<path fill="none" stroke="#191970" d="M762.7893,-278.4517C720.3387,-281.6334 645.7246,-287.2258 595.1049,-291.0198"/>
<polygon fill="#191970" stroke="#191970" points="594.7132,-287.5392 585.0028,-291.7769 595.2365,-294.5196 594.7132,-287.5392"/>
</g>
<!-- Node30114&#45;&gt;Node30107 -->
<g id="edge13" class="edge">
<title>Node30114&#45;&gt;Node30107</title>
<path fill="none" stroke="#191970" d="M828.2195,-276.3419C864.9411,-277.6371 925.8134,-282.5471 975,-300 998.7979,-308.4442 1023.0921,-324.1649 1039.5795,-336.1187"/>
<polygon fill="#191970" stroke="#191970" points="1037.7723,-339.1368 1047.8833,-342.3021 1041.9531,-333.5224 1037.7723,-339.1368"/>
</g>
<!-- Node30114&#45;&gt;Node30117 -->
<g id="edge15" class="edge">
<title>Node30114&#45;&gt;Node30117</title>
<path fill="none" stroke="#191970" d="M828.0056,-266.6067C844.9472,-261.7111 865.8849,-255.6606 884.135,-250.3869"/>
<polygon fill="#191970" stroke="#191970" points="885.3197,-253.6878 893.9549,-247.5491 883.3763,-246.9629 885.3197,-253.6878"/>
</g>
<!-- Node30117&#45;&gt;Node30102 -->
<g id="edge16" class="edge">
<title>Node30117&#45;&gt;Node30102</title>
<path fill="none" stroke="#191970" d="M878.6657,-242.3631C842.5926,-245.8056 792.1286,-251.0147 748,-257 691.3082,-264.6893 677.2038,-267.3124 621,-278 612.3882,-279.6376 603.274,-281.4886 594.4156,-283.3512"/>
<polygon fill="#191970" stroke="#191970" points="593.6154,-279.943 584.5632,-285.4483 595.0728,-286.7896 593.6154,-279.943"/>
</g>
<!-- Node30117&#45;&gt;Node30118 -->
<g id="edge17" class="edge">
<title>Node30117&#45;&gt;Node30118</title>
<path fill="none" stroke="#191970" d="M960.5615,-228.411C977.573,-223.5506 998.4319,-217.5909 1016.6446,-212.3873"/>
<polygon fill="#191970" stroke="#191970" points="1017.7955,-215.6986 1026.4492,-209.5859 1015.8724,-208.9679 1017.7955,-215.6986"/>
</g>
<!-- Node30118&#45;&gt;Node30102 -->
<g id="edge18" class="edge">
<title>Node30118&#45;&gt;Node30102</title>
<path fill="none" stroke="#191970" d="M1010.8422,-201.316C928.501,-204.6566 758.2239,-216.4492 621,-258 602.5697,-263.5806 582.959,-272.7451 567.8869,-280.5567"/>
<polygon fill="#191970" stroke="#191970" points="565.8823,-277.6585 558.6958,-285.4435 569.1685,-283.8392 565.8823,-277.6585"/>
</g>
<!-- Node30126&#45;&gt;Node30102 -->
<g id="edge28" class="edge">
<title>Node30126&#45;&gt;Node30102</title>
<path fill="none" stroke="#191970" d="M444.7675,-311.5361C458.8427,-309.1424 474.2185,-306.5275 488.5033,-304.0981"/>
<polygon fill="#191970" stroke="#191970" points="489.4062,-307.4949 498.6778,-302.3677 488.2325,-300.5939 489.4062,-307.4949"/>
</g>
<!-- Node30135&#45;&gt;Node30102 -->
<g id="edge30" class="edge">
<title>Node30135&#45;&gt;Node30102</title>
<path fill="none" stroke="#191970" d="M433.86,-247.5887C443.4899,-250.3108 453.7091,-253.4986 463,-257 480.8744,-263.7362 500.2109,-273.001 515.2795,-280.696"/>
<polygon fill="#191970" stroke="#191970" points="514.0188,-283.9849 524.5071,-285.4836 517.2426,-277.7714 514.0188,-283.9849"/>
</g>
<!-- Node30360 -->
<g id="node23" class="node">
<title>Node30360</title>
<g id="a_node23"><a xlink:href="value_8h.html#a2d08d82275a28efe9ad91300db05c236" target="_top" xlink:title="Allocate a value box of a specific type. ">
<polygon fill="none" stroke="#ff0000" points="346,-.5 346,-19.5 444,-19.5 444,-.5 346,-.5"/>
<text text-anchor="middle" x="395" y="-7.5" font-family="Helvetica,sans-Serif" font-size="10.00" fill="#000000">fr_value_box_alloc</text>
</a>
</g>
</g>
<!-- Node30728&#45;&gt;Node30360 -->
<g id="edge35" class="edge">
<title>Node30728&#45;&gt;Node30360</title>
<path fill="none" stroke="#191970" d="M276.2751,-123.4038C281.6331,-120.9497 286.7002,-117.8685 291,-114 321.4992,-86.5599 296.1918,-56.0928 327,-29 329.8851,-26.4628 333.0831,-24.2621 336.4741,-22.3535"/>
<polygon fill="#191970" stroke="#191970" points="338.2628,-25.3799 345.8188,-17.9531 335.2806,-19.0469 338.2628,-25.3799"/>
</g>
<!-- Node30133&#45;&gt;Node30102 -->
<g id="edge37" class="edge">
<title>Node30133&#45;&gt;Node30102</title>
<path fill="none" stroke="#191970" d="M436.6715,-354.4327C445.533,-351.8274 454.7116,-348.6851 463,-345 483.9531,-335.684 505.8388,-321.4231 521.2467,-310.5122"/>
<polygon fill="#191970" stroke="#191970" points="523.459,-313.2318 529.5141,-304.5378 519.3589,-307.5581 523.459,-313.2318"/>
</g>
</g>
</svg>
        <g id="navigator" transform="translate(0 0)" fill="#404254">
                <rect fill="#f2f5e9" fill-opacity="0.5" stroke="#606060" stroke-width=".5" x="0" y="0" width="60" height="60"/>
                <use id="zoomplus" xlink:href="#zoomPlus" x="17" y="9" onmousedown="handleZoom(evt,'in')"/>
                <use id="zoomminus" xlink:href="#zoomMin" x="42" y="9" onmousedown="handleZoom(evt,'out')"/>
                <use id="reset" xlink:href="#resetDef" x="30" y="36" onmousedown="handleReset()"/>
                <g id="arrowUp" xlink:href="#dirArrow" transform="translate(30 24)" onmousedown="handlePan(0,-1)">
                  <use xlink:href="#rim" fill="#404040">
                        <set attributeName="fill" to="#808080" begin="arrowUp.mouseover" end="arrowUp.mouseout"/>
                  </use>
                  <path fill="none" stroke="white" stroke-width="1.5" d="M0,-3.0v7 M-2.5,-0.5L0,-3.0L2.5,-0.5"/>
                </g>
                <g id="arrowRight" xlink:href="#dirArrow" transform="rotate(90) translate(36 -43)" onmousedown="handlePan(1,0)">
                  <use xlink:href="#rim" fill="#404040">
                        <set attributeName="fill" to="#808080" begin="arrowRight.mouseover" end="arrowRight.mouseout"/>
                  </use>
                  <path fill="none" stroke="white" stroke-width="1.5" d="M0,-3.0v7 M-2.5,-0.5L0,-3.0L2.5,-0.5"/>
                </g>
                <g id="arrowDown" xlink:href="#dirArrow" transform="rotate(180) translate(-30 -48)" onmousedown="handlePan(0,1)">
                  <use xlink:href="#rim" fill="#404040">
                        <set attributeName="fill" to="#808080" begin="arrowDown.mouseover" end="arrowDown.mouseout"/>
                  </use>
                  <path fill="none" stroke="white" stroke-width="1.5" d="M0,-3.0v7 M-2.5,-0.5L0,-3.0L2.5,-0.5"/>
                </g>
                <g id="arrowLeft" xlink:href="#dirArrow" transform="rotate(270) translate(-36 17)" onmousedown="handlePan(-1,0)">
                  <use xlink:href="#rim" fill="#404040">
                        <set attributeName="fill" to="#808080" begin="arrowLeft.mouseover" end="arrowLeft.mouseout"/>
                  </use>
                  <path fill="none" stroke="white" stroke-width="1.5" d="M0,-3.0v7 M-2.5,-0.5L0,-3.0L2.5,-0.5"/>
                </g>
        </g>
        <svg viewBox="0 0 15 15" width="100%" height="30px" preserveAspectRatio="xMaxYMin meet">
         <g id="arrow_out" transform="scale(0.3 0.3)">
          <a xlink:href="group__xlat__functions_gaa047553c9b4be93b57eb7d11a36a38a3_cgraph_org.svg" target="_base">
           <rect id="button" ry="5" rx="5" y="6" x="6" height="38" width="38"
                fill="#f2f5e9" fill-opacity="0.5" stroke="#606060" stroke-width="1.0"/>
           <path id="arrow"
             d="M 11.500037,31.436501 C 11.940474,20.09759 22.043105,11.32322 32.158766,21.979434 L 37.068811,17.246167 C 37.068811,17.246167 37.088388,32 37.088388,32 L 22.160133,31.978069 C 22.160133,31.978069 26.997745,27.140456 26.997745,27.140456 C 18.528582,18.264221 13.291696,25.230495 11.500037,31.436501 z"
             style="fill:#404040;"/>
          </a>
         </g>
        </svg>
</svg>
