<?xml version="1.0" encoding="UTF-8" standalone="no"?>
<!DOCTYPE svg PUBLIC "-//W3C//DTD SVG 1.1//EN"
 "http://www.w3.org/Graphics/SVG/1.1/DTD/svg11.dtd">
<!-- Generated by graphviz version 2.40.1 (20161225.0304)
 -->
<!-- Title: escape_xlat Pages: 1 -->
<svg width="874pt" height="341pt"
 viewBox="0.00 0.00 874.00 341.00" xmlns="http://www.w3.org/2000/svg" xmlns:xlink="http://www.w3.org/1999/xlink">
<g id="graph0" class="graph" transform="scale(1 1) rotate(0) translate(4 337)">
<title>escape_xlat</title>
<!-- Node3220 -->
<g id="node1" class="node">
<title>Node3220</title>
<polygon fill="#bfbfbf" stroke="#000000" points="0,-209.5 0,-228.5 69,-228.5 69,-209.5 0,-209.5"/>
<text text-anchor="middle" x="34.5" y="-216.5" font-family="Helvetica,sans-Serif" font-size="10.00" fill="#000000">escape_xlat</text>
</g>
<!-- Node3221 -->
<g id="node2" class="node">
<title>Node3221</title>
<g id="a_node2"><a xlink:href="print_8c.html#a11658f585df840bbab40e6d35c6dca6d" target="_top" xlink:title="Return a pointer to the first UTF8 char in a string. ">
<polygon fill="none" stroke="#000000" points="105,-256.5 105,-275.5 179,-275.5 179,-256.5 105,-256.5"/>
<text text-anchor="middle" x="142" y="-263.5" font-family="Helvetica,sans-Serif" font-size="10.00" fill="#000000">fr_utf8_strchr</text>
</a>
</g>
</g>
<!-- Node3220&#45;&gt;Node3221 -->
<g id="edge1" class="edge">
<title>Node3220&#45;&gt;Node3221</title>
<path fill="none" stroke="#191970" d="M56.2542,-228.5112C71.8873,-235.3461 93.1978,-244.6632 110.6626,-252.299"/>
<polygon fill="#191970" stroke="#191970" points="109.3445,-255.5426 119.9092,-256.3417 112.1487,-249.1288 109.3445,-255.5426"/>
</g>
<!-- Node3223 -->
<g id="node4" class="node">
<title>Node3223</title>
<g id="a_node4"><a xlink:href="snprintf_8c.html#a8da10a1735da7051de5c298ca7448eee" target="_top" xlink:title="snprintf">
<polygon fill="none" stroke="#000000" points="117.5,-190.5 117.5,-209.5 166.5,-209.5 166.5,-190.5 117.5,-190.5"/>
<text text-anchor="middle" x="142" y="-197.5" font-family="Helvetica,sans-Serif" font-size="10.00" fill="#000000">snprintf</text>
</a>
</g>
</g>
<!-- Node3220&#45;&gt;Node3223 -->
<g id="edge3" class="edge">
<title>Node3220&#45;&gt;Node3223</title>
<path fill="none" stroke="#191970" d="M69.1054,-212.8837C81.3811,-210.714 95.1892,-208.2735 107.4594,-206.1048"/>
<polygon fill="#191970" stroke="#191970" points="108.0991,-209.5461 117.3373,-204.359 106.8808,-202.653 108.0991,-209.5461"/>
</g>
<!-- Node3222 -->
<g id="node3" class="node">
<title>Node3222</title>
<g id="a_node3"><a xlink:href="print_8c.html#a69fbdf99ae311e5900c854a2247c51b8" target="_top" xlink:title="Checks for utf&#45;8, taken from http://www.w3.org/International/questions/qa&#45;forms&#45;utf&#45;8. ">
<polygon fill="none" stroke="#000000" points="215,-285.5 215,-304.5 283,-304.5 283,-285.5 215,-285.5"/>
<text text-anchor="middle" x="249" y="-292.5" font-family="Helvetica,sans-Serif" font-size="10.00" fill="#000000">fr_utf8_char</text>
</a>
</g>
</g>
<!-- Node3221&#45;&gt;Node3222 -->
<g id="edge2" class="edge">
<title>Node3221&#45;&gt;Node3222</title>
<path fill="none" stroke="#191970" d="M177.3323,-275.5761C186.1836,-277.975 195.7877,-280.578 205.0031,-283.0756"/>
<polygon fill="#191970" stroke="#191970" points="204.2289,-286.492 214.7963,-285.7298 206.0601,-279.7357 204.2289,-286.492"/>
</g>
<!-- Node3224 -->
<g id="node5" class="node">
<title>Node3224</title>
<g id="a_node5"><a xlink:href="acutest_8h.html#aecf9a9be8105efb1454cd8c1ef6cb1c5" target="_top" xlink:title="va_start">
<polygon fill="none" stroke="#000000" points="223,-209.5 223,-228.5 275,-228.5 275,-209.5 223,-209.5"/>
<text text-anchor="middle" x="249" y="-216.5" font-family="Helvetica,sans-Serif" font-size="10.00" fill="#000000">va_start</text>
</a>
</g>
</g>
<!-- Node3223&#45;&gt;Node3224 -->
<g id="edge4" class="edge">
<title>Node3223&#45;&gt;Node3224</title>
<path fill="none" stroke="#191970" d="M166.548,-204.359C180.1835,-206.7803 197.4097,-209.8391 212.5863,-212.534"/>
<polygon fill="#191970" stroke="#191970" points="212.2385,-216.0269 222.6964,-214.3293 213.4624,-209.1347 212.2385,-216.0269"/>
</g>
<!-- Node3225 -->
<g id="node6" class="node">
<title>Node3225</title>
<g id="a_node6"><a xlink:href="snprintf_8c.html#a242a1ad85c2e07e0d5d73b6342d97f13" target="_top" xlink:title="vsnprintf">
<polygon fill="none" stroke="#000000" points="222,-171.5 222,-190.5 276,-190.5 276,-171.5 222,-171.5"/>
<text text-anchor="middle" x="249" y="-178.5" font-family="Helvetica,sans-Serif" font-size="10.00" fill="#000000">vsnprintf</text>
</a>
</g>
</g>
<!-- Node3223&#45;&gt;Node3225 -->
<g id="edge5" class="edge">
<title>Node3223&#45;&gt;Node3225</title>
<path fill="none" stroke="#191970" d="M164.1705,-190.4705C177.929,-186.8707 195.9558,-183.3801 211.8518,-181.1348"/>
<polygon fill="#191970" stroke="#191970" points="212.4468,-184.5874 221.9238,-179.8506 211.5614,-177.6436 212.4468,-184.5874"/>
</g>
<!-- Node3237 -->
<g id="node16" class="node">
<title>Node3237</title>
<g id="a_node16"><a xlink:href="acutest_8h.html#a36af1f79dd6adf0809c21e76535034d5" target="_top" xlink:title="va_end">
<polygon fill="none" stroke="#000000" points="225,-133.5 225,-152.5 273,-152.5 273,-133.5 225,-133.5"/>
<text text-anchor="middle" x="249" y="-140.5" font-family="Helvetica,sans-Serif" font-size="10.00" fill="#000000">va_end</text>
</a>
</g>
</g>
<!-- Node3223&#45;&gt;Node3237 -->
<g id="edge24" class="edge">
<title>Node3223&#45;&gt;Node3237</title>
<path fill="none" stroke="#191970" d="M160.1511,-190.3307C177.1626,-181.2685 202.8049,-167.6086 222.1764,-157.2892"/>
<polygon fill="#191970" stroke="#191970" points="223.9367,-160.3172 231.117,-152.5265 220.6456,-154.1391 223.9367,-160.3172"/>
</g>
<!-- Node3238 -->
<g id="node17" class="node">
<title>Node3238</title>
<g id="a_node17"><a xlink:href="radclient_8c.html#a3c04138a5bfe5d72780bb7e82a18e627" target="_top" xlink:title="main">
<polygon fill="none" stroke="#000000" points="230,-247.5 230,-266.5 268,-266.5 268,-247.5 230,-247.5"/>
<text text-anchor="middle" x="249" y="-254.5" font-family="Helvetica,sans-Serif" font-size="10.00" fill="#000000">main</text>
</a>
</g>
</g>
<!-- Node3223&#45;&gt;Node3238 -->
<g id="edge25" class="edge">
<title>Node3223&#45;&gt;Node3238</title>
<path fill="none" stroke="#191970" d="M160.1511,-209.6693C177.1626,-218.7315 202.8049,-232.3914 222.1764,-242.7108"/>
<polygon fill="#191970" stroke="#191970" points="220.6456,-245.8609 231.117,-247.4735 223.9367,-239.6828 220.6456,-245.8609"/>
</g>
<!-- Node3225&#45;&gt;Node3223 -->
<g id="edge23" class="edge">
<title>Node3225&#45;&gt;Node3223</title>
<path fill="none" stroke="#191970" d="M226.7514,-190.55C212.3387,-194.316 193.2666,-197.9603 176.8648,-200.1811"/>
<polygon fill="#191970" stroke="#191970" points="176.0584,-196.7528 166.548,-201.4219 176.8944,-203.7027 176.0584,-196.7528"/>
</g>
<!-- Node3226 -->
<g id="node7" class="node">
<title>Node3226</title>
<g id="a_node7"><a xlink:href="snprintf_8c.html#a5e332567c91e575955830fc977e9fba7" target="_top" xlink:title="conv_flag">
<polygon fill="none" stroke="#000000" points="807,-313.5 807,-332.5 866,-332.5 866,-313.5 807,-313.5"/>
<text text-anchor="middle" x="836.5" y="-320.5" font-family="Helvetica,sans-Serif" font-size="10.00" fill="#000000">conv_flag</text>
</a>
</g>
</g>
<!-- Node3225&#45;&gt;Node3226 -->
<g id="edge6" class="edge">
<title>Node3225&#45;&gt;Node3226</title>
<path fill="none" stroke="#191970" d="M276.012,-185.2182C278.5178,-186.9477 280.9002,-188.8922 283,-191 306.3069,-214.3957 295.8302,-232.4686 319,-256 355.3182,-292.8849 368.2361,-314 420,-314 420,-314 420,-314 655,-314 703.755,-314 759.8769,-314 796.6503,-315.9871"/>
<polygon fill="#191970" stroke="#191970" points="796.7488,-319.5001 806.949,-316.6355 797.1887,-312.514 796.7488,-319.5001"/>
</g>
<!-- Node3227 -->
<g id="node8" class="node">
<title>Node3227</title>
<g id="a_node8"><a xlink:href="snprintf_8c.html#a288e35a7e3ff8edbceab28da4d5b3804" target="_top" xlink:title="floating">
<polygon fill="none" stroke="#000000" points="631,-228.5 631,-247.5 679,-247.5 679,-228.5 631,-228.5"/>
<text text-anchor="middle" x="655" y="-235.5" font-family="Helvetica,sans-Serif" font-size="10.00" fill="#000000">floating</text>
</a>
</g>
</g>
<!-- Node3225&#45;&gt;Node3227 -->
<g id="edge8" class="edge">
<title>Node3225&#45;&gt;Node3227</title>
<path fill="none" stroke="#191970" d="M265.8542,-190.6693C295.8364,-206.9316 360.8555,-238 420,-238 420,-238 420,-238 494,-238 537.6959,-238 588.0626,-238 620.6586,-238"/>
<polygon fill="#191970" stroke="#191970" points="620.9964,-241.5001 630.9964,-238 620.9964,-234.5001 620.9964,-241.5001"/>
</g>
<!-- Node3228 -->
<g id="node9" class="node">
<title>Node3228</title>
<g id="a_node9"><a xlink:href="snprintf_8c.html#a9b7362c605cc52163800c90eee10c402" target="_top" xlink:title="exponent">
<polygon fill="none" stroke="#ff0000" points="715,-247.5 715,-266.5 771,-266.5 771,-247.5 715,-247.5"/>
<text text-anchor="middle" x="743" y="-254.5" font-family="Helvetica,sans-Serif" font-size="10.00" fill="#000000">exponent</text>
</a>
</g>
</g>
<!-- Node3225&#45;&gt;Node3228 -->
<g id="edge13" class="edge">
<title>Node3225&#45;&gt;Node3228</title>
<path fill="none" stroke="#191970" d="M268.317,-190.5238C273.2834,-193.3089 278.4932,-196.5429 283,-200 301.2047,-213.9645 299.8562,-224.3534 319,-237 359.1495,-263.5231 371.8808,-276 420,-276 420,-276 420,-276 572,-276 617.8834,-276 670.2709,-269.1592 704.837,-263.687"/>
<polygon fill="#191970" stroke="#191970" points="705.656,-267.0999 714.9654,-262.0418 704.5335,-260.1905 705.656,-267.0999"/>
</g>
<!-- Node3229 -->
<g id="node10" class="node">
<title>Node3229</title>
<g id="a_node10"><a xlink:href="snprintf_8c.html#a1ad9bbbd459a4ec1b201e3d357ab2eb3" target="_top" xlink:title="log_10">
<polygon fill="none" stroke="#ff0000" points="814,-133.5 814,-152.5 859,-152.5 859,-133.5 814,-133.5"/>
<text text-anchor="middle" x="836.5" y="-140.5" font-family="Helvetica,sans-Serif" font-size="10.00" fill="#000000">log_10</text>
</a>
</g>
</g>
<!-- Node3225&#45;&gt;Node3229 -->
<g id="edge12" class="edge">
<title>Node3225&#45;&gt;Node3229</title>
<path fill="none" stroke="#191970" d="M268.7342,-171.3563C273.5918,-168.6152 278.6452,-165.4323 283,-162 301.5264,-147.3981 301.4544,-138.7669 319,-123 360.5873,-85.6286 364.0883,-48 420,-48 420,-48 420,-48 655,-48 721.6442,-48 787.9686,-98.8983 818.7353,-126.1834"/>
<polygon fill="#191970" stroke="#191970" points="816.6879,-129.0524 826.4409,-133.1911 821.3976,-123.8736 816.6879,-129.0524"/>
</g>
<!-- Node3232 -->
<g id="node11" class="node">
<title>Node3232</title>
<g id="a_node11"><a xlink:href="snprintf_8c.html#af6234510a860429ad7e8c354e5ede4af" target="_top" xlink:title="float64">
<polygon fill="none" stroke="#000000" points="319,-152.5 319,-171.5 365,-171.5 365,-152.5 319,-152.5"/>
<text text-anchor="middle" x="342" y="-159.5" font-family="Helvetica,sans-Serif" font-size="10.00" fill="#000000">float64</text>
</a>
</g>
</g>
<!-- Node3225&#45;&gt;Node3232 -->
<g id="edge14" class="edge">
<title>Node3225&#45;&gt;Node3232</title>
<path fill="none" stroke="#191970" d="M276.4001,-175.4021C286.6321,-173.3117 298.3575,-170.9162 309.0387,-168.734"/>
<polygon fill="#191970" stroke="#191970" points="309.7798,-172.155 318.8768,-166.7241 308.3786,-165.2967 309.7798,-172.155"/>
</g>
<!-- Node3233 -->
<g id="node12" class="node">
<title>Node3233</title>
<g id="a_node12"><a xlink:href="snprintf_8c.html#a334bc8b68b1dabe66676ea892aade3f7" target="_top" xlink:title="octal">
<polygon fill="none" stroke="#000000" points="401,-152.5 401,-171.5 439,-171.5 439,-152.5 401,-152.5"/>
<text text-anchor="middle" x="420" y="-159.5" font-family="Helvetica,sans-Serif" font-size="10.00" fill="#000000">octal</text>
</a>
</g>
</g>
<!-- Node3225&#45;&gt;Node3233 -->
<g id="edge19" class="edge">
<title>Node3225&#45;&gt;Node3233</title>
<path fill="none" stroke="#191970" d="M266.0792,-171.4546C285.8648,-160.438 316.1352,-143.7275 319,-143 343.1143,-136.8767 370.9245,-143.0612 391.2499,-149.9622"/>
<polygon fill="#191970" stroke="#191970" points="390.2631,-153.3277 400.857,-153.4655 392.6612,-146.7513 390.2631,-153.3277"/>
</g>
<!-- Node3234 -->
<g id="node13" class="node">
<title>Node3234</title>
<g id="a_node13"><a xlink:href="snprintf_8c.html#acd8da45b6ecc250a4e6e118bd981d311" target="_top" xlink:title="hexa">
<polygon fill="none" stroke="#000000" points="475,-171.5 475,-190.5 513,-190.5 513,-171.5 475,-171.5"/>
<text text-anchor="middle" x="494" y="-178.5" font-family="Helvetica,sans-Serif" font-size="10.00" fill="#000000">hexa</text>
</a>
</g>
</g>
<!-- Node3225&#45;&gt;Node3234 -->
<g id="edge20" class="edge">
<title>Node3225&#45;&gt;Node3234</title>
<path fill="none" stroke="#191970" d="M276.1554,-181C322.6022,-181 416.9067,-181 464.7501,-181"/>
<polygon fill="#191970" stroke="#191970" points="464.7673,-184.5001 474.7673,-181 464.7672,-177.5001 464.7673,-184.5001"/>
</g>
<!-- Node3235 -->
<g id="node14" class="node">
<title>Node3235</title>
<g id="a_node14"><a xlink:href="snprintf_8c.html#a88621cc8266f205bfa9f686cdfd9eb1c" target="_top" xlink:title="strings">
<polygon fill="none" stroke="#000000" points="549,-171.5 549,-190.5 595,-190.5 595,-171.5 549,-171.5"/>
<text text-anchor="middle" x="572" y="-178.5" font-family="Helvetica,sans-Serif" font-size="10.00" fill="#000000">strings</text>
</a>
</g>
</g>
<!-- Node3225&#45;&gt;Node3235 -->
<g id="edge21" class="edge">
<title>Node3225&#45;&gt;Node3235</title>
<path fill="none" stroke="#191970" d="M267.2266,-171.3246C272.3968,-168.4435 277.9824,-165.1987 283,-162 299.6424,-151.3905 300.2208,-142.0723 319,-136 398.062,-110.435 496.0004,-145.889 543.4989,-167.1059"/>
<polygon fill="#191970" stroke="#191970" points="542.2951,-170.4043 552.844,-171.3902 545.2124,-164.0411 542.2951,-170.4043"/>
</g>
<!-- Node3236 -->
<g id="node15" class="node">
<title>Node3236</title>
<g id="a_node15"><a xlink:href="acutest_8h.html#a61d3a7a37bb558ef6efb5e3d02c6562a" target="_top" xlink:title="if">
<polygon fill="none" stroke="#000000" points="327.5,-.5 327.5,-19.5 356.5,-19.5 356.5,-.5 327.5,-.5"/>
<text text-anchor="middle" x="342" y="-7.5" font-family="Helvetica,sans-Serif" font-size="10.00" fill="#000000">if</text>
</a>
</g>
</g>
<!-- Node3225&#45;&gt;Node3236 -->
<g id="edge22" class="edge">
<title>Node3225&#45;&gt;Node3236</title>
<path fill="none" stroke="#191970" d="M272.1225,-171.3713C276.1991,-168.8217 280.0693,-165.7169 283,-162 319.5905,-115.5944 289.6801,-85.3098 319,-34 320.3028,-31.7201 321.869,-29.4925 323.5639,-27.3706"/>
<polygon fill="#191970" stroke="#191970" points="326.2959,-29.5693 330.4529,-19.8241 321.126,-24.8499 326.2959,-29.5693"/>
</g>
<!-- Node3226&#45;&gt;Node3225 -->
<g id="edge7" class="edge">
<title>Node3226&#45;&gt;Node3225</title>
<path fill="none" stroke="#191970" d="M806.949,-329.3645C771.0285,-332 708.5677,-332 655,-332 420,-332 420,-332 420,-332 368.2361,-332 355.3182,-310.8849 319,-274 295.8302,-250.4686 306.3069,-232.3957 283,-209 277.9891,-203.97 271.3689,-199.8698 265.3026,-196.1619"/>
<polygon fill="#191970" stroke="#191970" points="266.8517,-192.9991 256.5365,-190.5809 263.0923,-198.9039 266.8517,-192.9991"/>
</g>
<!-- Node3227&#45;&gt;Node3228 -->
<g id="edge9" class="edge">
<title>Node3227&#45;&gt;Node3228</title>
<path fill="none" stroke="#191970" d="M679.0464,-243.1918C687.0201,-244.9134 696.1029,-246.8745 704.8693,-248.7672"/>
<polygon fill="#191970" stroke="#191970" points="704.416,-252.2499 714.9294,-250.9393 705.8934,-245.4076 704.416,-252.2499"/>
</g>
<!-- Node3228&#45;&gt;Node3226 -->
<g id="edge11" class="edge">
<title>Node3228&#45;&gt;Node3226</title>
<path fill="none" stroke="#191970" d="M756.7962,-266.7385C771.9364,-277.4257 796.4587,-294.7356 814.3095,-307.3361"/>
<polygon fill="#191970" stroke="#191970" points="812.763,-310.5286 822.9511,-313.4361 816.7998,-304.8098 812.763,-310.5286"/>
</g>
<!-- Node3228&#45;&gt;Node3229 -->
<g id="edge10" class="edge">
<title>Node3228&#45;&gt;Node3229</title>
<path fill="none" stroke="#191970" d="M750.9718,-247.2804C766.7735,-228.0142 802.2606,-184.7464 822.2013,-160.4338"/>
<polygon fill="#191970" stroke="#191970" points="824.913,-162.6466 828.5484,-152.695 819.5006,-158.2074 824.913,-162.6466"/>
</g>
<!-- Node3232&#45;&gt;Node3233 -->
<g id="edge15" class="edge">
<title>Node3232&#45;&gt;Node3233</title>
<path fill="none" stroke="#191970" d="M365.4026,-162C373.3536,-162 382.3403,-162 390.6935,-162"/>
<polygon fill="#191970" stroke="#191970" points="390.8098,-165.5001 400.8098,-162 390.8097,-158.5001 390.8098,-165.5001"/>
</g>
<!-- Node3233&#45;&gt;Node3234 -->
<g id="edge16" class="edge">
<title>Node3233&#45;&gt;Node3234</title>
<path fill="none" stroke="#191970" d="M439.0568,-166.893C446.9364,-168.9161 456.2484,-171.307 464.9457,-173.5401"/>
<polygon fill="#191970" stroke="#191970" points="464.1943,-176.9606 474.7505,-176.0576 465.9352,-170.1806 464.1943,-176.9606"/>
</g>
<!-- Node3234&#45;&gt;Node3235 -->
<g id="edge17" class="edge">
<title>Node3234&#45;&gt;Node3235</title>
<path fill="none" stroke="#191970" d="M513.2809,-181C520.9142,-181 529.9152,-181 538.5463,-181"/>
<polygon fill="#191970" stroke="#191970" points="538.774,-184.5001 548.774,-181 538.774,-177.5001 538.774,-184.5001"/>
</g>
<!-- Node3235&#45;&gt;Node3227 -->
<g id="edge18" class="edge">
<title>Node3235&#45;&gt;Node3227</title>
<path fill="none" stroke="#191970" d="M586.0798,-190.6693C598.7958,-199.4019 617.7287,-212.404 632.5349,-222.5722"/>
<polygon fill="#191970" stroke="#191970" points="630.9034,-225.6976 641.1281,-228.4735 634.8662,-219.9272 630.9034,-225.6976"/>
</g>
</g>
</svg>
