<?xml version="1.0" encoding="UTF-8" standalone="no"?>
<!DOCTYPE svg PUBLIC "-//W3C//DTD SVG 1.1//EN"
 "http://www.w3.org/Graphics/SVG/1.1/DTD/svg11.dtd">
<!-- Generated by graphviz version 2.40.1 (20161225.0304)
 -->
<!-- Title: json_quote_xlat Pages: 1 -->
<!--zoomable 539 -->
<svg id="main" version="1.1" xmlns="http://www.w3.org/2000/svg" xmlns:xlink="http://www.w3.org/1999/xlink" xml:space="preserve" onload="init(evt)">
<style type="text/css"><![CDATA[
.edge:hover path { stroke: red; }
.edge:hover polygon { stroke: red; fill: red; }
]]></style>
<script type="text/javascript"><![CDATA[
var edges = document.getElementsByTagName('g');
if (edges && edges.length) {
  for (var i=0;i<edges.length;i++) {
    if (edges[i].id.substr(0,4)=='edge') {
      edges[i].setAttribute('class','edge');
    }
  }
}
]]></script>
        <defs>
                <circle id="rim" cx="0" cy="0" r="7"/>
                <circle id="rim2" cx="0" cy="0" r="3.5"/>
                <g id="zoomPlus">
                        <use xlink:href="#rim" fill="#404040">
                                <set attributeName="fill" to="#808080" begin="zoomplus.mouseover" end="zoomplus.mouseout"/>
                        </use>
                        <path d="M-4,0h8M0,-4v8" fill="none" stroke="white" stroke-width="1.5" pointer-events="none"/>
                </g>
                <g id="zoomMin">
                        <use xlink:href="#rim" fill="#404040">
                                <set attributeName="fill" to="#808080" begin="zoomminus.mouseover" end="zoomminus.mouseout"/>
                        </use>
                        <path d="M-4,0h8" fill="none" stroke="white" stroke-width="1.5" pointer-events="none"/>
                </g>
                <g id="dirArrow">
                        <path fill="none" stroke="white" stroke-width="1.5" d="M0,-3.0v7 M-2.5,-0.5L0,-3.0L2.5,-0.5"/>
                </g>
               <g id="resetDef">
                       <use xlink:href="#rim2" fill="#404040">
                               <set attributeName="fill" to="#808080" begin="reset.mouseover" end="reset.mouseout"/>
                       </use>
               </g>
        </defs>

<script type="text/javascript">
var viewWidth = 1207;
var viewHeight = 539;
var sectionId = 'dynsection-34';
</script>
<script xlink:href="svgpan.js"/>
<svg id="graph" class="graph">
<g id="viewport">
<title>json_quote_xlat</title>
<!-- Node4604 -->
<g id="node1" class="node">
<title>Node4604</title>
<polygon fill="#bfbfbf" stroke="#000000" points="0,-299.8927 0,-318.8927 85,-318.8927 85,-299.8927 0,-299.8927"/>
<text text-anchor="middle" x="42.5" y="-306.8927" font-family="Helvetica,sans-Serif" font-size="10.00" fill="#000000">json_quote_xlat</text>
</g>
<!-- Node4605 -->
<g id="node2" class="node">
<title>Node4605</title>
<g id="a_node2"><a xlink:href="value_8c.html#a8cedcf0cd0b56390ead0b791c4b4d67f" target="_top" xlink:title="Concatenate a list of value boxes. ">
<polygon fill="none" stroke="#000000" points="121,-299.8927 121,-318.8927 246,-318.8927 246,-299.8927 121,-299.8927"/>
<text text-anchor="middle" x="183.5" y="-306.8927" font-family="Helvetica,sans-Serif" font-size="10.00" fill="#000000">fr_value_box_list_concat</text>
</a>
</g>
</g>
<!-- Node4604&#45;&gt;Node4605 -->
<g id="edge1" class="edge">
<title>Node4604&#45;&gt;Node4605</title>
<path fill="none" stroke="#191970" d="M85.1873,-309.3927C93.2851,-309.3927 101.9661,-309.3927 110.6941,-309.3927"/>
<polygon fill="#191970" stroke="#191970" points="110.9297,-312.8928 120.9297,-309.3927 110.9297,-305.8928 110.9297,-312.8928"/>
</g>
<!-- Node4743 -->
<g id="node23" class="node">
<title>Node4743</title>
<g id="a_node23"><a xlink:href="value_8h.html#a3ddbdc59834faa51219a356e2b112a17" target="_top" xlink:title="Allocate a value box for later use with a value assignment function. ">
<polygon fill="none" stroke="#000000" points="124.5,-91.8927 124.5,-110.8927 242.5,-110.8927 242.5,-91.8927 124.5,-91.8927"/>
<text text-anchor="middle" x="183.5" y="-98.8927" font-family="Helvetica,sans-Serif" font-size="10.00" fill="#000000">fr_value_box_alloc_null</text>
</a>
</g>
</g>
<!-- Node4604&#45;&gt;Node4743 -->
<g id="edge36" class="edge">
<title>Node4604&#45;&gt;Node4743</title>
<path fill="none" stroke="#191970" d="M49.1116,-299.6394C71.1258,-267.1646 142.1807,-162.3459 171.0914,-119.6976"/>
<polygon fill="#191970" stroke="#191970" points="174.0246,-121.6082 176.7386,-111.3669 168.2304,-117.6804 174.0246,-121.6082"/>
</g>
<!-- Node4745 -->
<g id="node26" class="node">
<title>Node4745</title>
<g id="a_node26"><a xlink:href="json_2base_8h.html#a3b041bd7cfc735f81840b974ef99de10" target="_top" xlink:title="Escapes string for use as a JSON string. ">
<polygon fill="none" stroke="#000000" points="709,-511.8927 709,-530.8927 809,-530.8927 809,-511.8927 709,-511.8927"/>
<text text-anchor="middle" x="759" y="-518.8927" font-family="Helvetica,sans-Serif" font-size="10.00" fill="#000000">fr_json_from_string</text>
</a>
</g>
</g>
<!-- Node4604&#45;&gt;Node4745 -->
<g id="edge39" class="edge">
<title>Node4604&#45;&gt;Node4745</title>
<path fill="none" stroke="#191970" d="M45.4474,-319.2307C53.4015,-344.1139 77.68,-410.0831 121,-445.3927 204.1224,-513.1446 242.7636,-521.3927 350,-521.3927 350,-521.3927 350,-521.3927 500,-521.3927 568.0802,-521.3927 646.2267,-521.3927 698.7186,-521.3927"/>
<polygon fill="#191970" stroke="#191970" points="698.8643,-524.8928 708.8643,-521.3927 698.8643,-517.8928 698.8643,-524.8928"/>
</g>
<!-- Node4635 -->
<g id="node27" class="node">
<title>Node4635</title>
<g id="a_node27"><a xlink:href="value_8c.html#aed6c89331ec783228dd9d415433df323" target="_top" xlink:title="Assign a talloced buffer containing a nul terminated string to a box, but don&#39;t copy it...">
<polygon fill="none" stroke="#000000" points="295,-108.3927 295,-138.3927 405,-138.3927 405,-108.3927 295,-108.3927"/>
<text text-anchor="start" x="303" y="-126.3927" font-family="Helvetica,sans-Serif" font-size="10.00" fill="#000000">fr_value_box_bstrdup</text>
<text text-anchor="middle" x="350" y="-115.3927" font-family="Helvetica,sans-Serif" font-size="10.00" fill="#000000">_buffer_shallow</text>
</a>
</g>
</g>
<!-- Node4604&#45;&gt;Node4635 -->
<g id="edge42" class="edge">
<title>Node4604&#45;&gt;Node4635</title>
<path fill="none" stroke="#191970" d="M58.5996,-299.6544C106.7533,-270.5272 250.4002,-183.6384 316.2923,-143.7817"/>
<polygon fill="#191970" stroke="#191970" points="318.3108,-146.6513 325.0558,-138.4808 314.6879,-140.6617 318.3108,-146.6513"/>
</g>
<!-- Node4746 -->
<g id="node28" class="node">
<title>Node4746</title>
<g id="a_node28"><a xlink:href="cursor_8c.html#a6e72682a046a3eeac734da6639f1817c" target="_top" xlink:title="Insert a single item at the end of the list. ">
<polygon fill="none" stroke="#000000" points="137.5,-416.8927 137.5,-435.8927 229.5,-435.8927 229.5,-416.8927 137.5,-416.8927"/>
<text text-anchor="middle" x="183.5" y="-423.8927" font-family="Helvetica,sans-Serif" font-size="10.00" fill="#000000">fr_cursor_append</text>
</a>
</g>
</g>
<!-- Node4604&#45;&gt;Node4746 -->
<g id="edge45" class="edge">
<title>Node4604&#45;&gt;Node4746</title>
<path fill="none" stroke="#191970" d="M54.0386,-318.9673C78.1032,-338.9358 133.8866,-385.2241 163.7661,-410.0178"/>
<polygon fill="#191970" stroke="#191970" points="161.8713,-412.9935 171.8019,-416.6858 166.3413,-407.6065 161.8713,-412.9935"/>
</g>
<!-- Node4606 -->
<g id="node3" class="node">
<title>Node4606</title>
<g id="a_node3"><a xlink:href="strerror_8c.html#ae701765650b8aea79a3037bc4921d7f8" target="_top" xlink:title="Log to thread local error buffer. ">
<polygon fill="none" stroke="#000000" points="457,-188.8927 457,-207.8927 543,-207.8927 543,-188.8927 457,-188.8927"/>
<text text-anchor="middle" x="500" y="-195.8927" font-family="Helvetica,sans-Serif" font-size="10.00" fill="#000000">fr_strerror_printf</text>
</a>
</g>
</g>
<!-- Node4605&#45;&gt;Node4606 -->
<g id="edge2" class="edge">
<title>Node4605&#45;&gt;Node4606</title>
<path fill="none" stroke="#191970" d="M193.3546,-299.7085C206.1479,-286.9114 228.8626,-263.4093 246,-241.3927 263.9451,-218.3383 256.3,-200.2867 282,-186.3927 339.8135,-155.1373 419.3157,-171.7246 464.6069,-185.6853"/>
<polygon fill="#191970" stroke="#191970" points="463.6807,-189.0638 474.2719,-188.786 465.8191,-182.3984 463.6807,-189.0638"/>
</g>
<!-- Node4621 -->
<g id="node12" class="node">
<title>Node4621</title>
<g id="a_node12"><a xlink:href="value_8c.html#a3a0550d465b81917f8b0c69a3373163e" target="_top" xlink:title="Convert one type of fr_value_box_t to another. ">
<polygon fill="none" stroke="#ff0000" points="847.5,-250.8927 847.5,-269.8927 943.5,-269.8927 943.5,-250.8927 847.5,-250.8927"/>
<text text-anchor="middle" x="895.5" y="-257.8927" font-family="Helvetica,sans-Serif" font-size="10.00" fill="#000000">fr_value_box_cast</text>
</a>
</g>
</g>
<!-- Node4605&#45;&gt;Node4621 -->
<g id="edge24" class="edge">
<title>Node4605&#45;&gt;Node4621</title>
<path fill="none" stroke="#191970" d="M246.0258,-310.8533C257.9682,-311.0781 270.3697,-311.2746 282,-311.3927 342.4413,-312.0062 357.6411,-314.6069 418,-311.3927 569.7092,-303.3139 747.3842,-280.8951 837.1886,-268.6448"/>
<polygon fill="#191970" stroke="#191970" points="837.7421,-272.1018 847.1736,-267.2752 836.7907,-265.1667 837.7421,-272.1018"/>
</g>
<!-- Node4622 -->
<g id="node13" class="node">
<title>Node4622</title>
<g id="a_node13"><a xlink:href="value_8c.html#a4fadbcd199d20611112e21b7f0da11c4" target="_top" xlink:title="Copy value data verbatim duplicating any buffers. ">
<polygon fill="none" stroke="#ff0000" points="982,-394.8927 982,-413.8927 1080,-413.8927 1080,-394.8927 982,-394.8927"/>
<text text-anchor="middle" x="1031" y="-401.8927" font-family="Helvetica,sans-Serif" font-size="10.00" fill="#000000">fr_value_box_copy</text>
</a>
</g>
</g>
<!-- Node4605&#45;&gt;Node4622 -->
<g id="edge25" class="edge">
<title>Node4605&#45;&gt;Node4622</title>
<path fill="none" stroke="#191970" d="M188.6741,-319.1071C201.3135,-341.8304 236.1133,-398.6219 282,-426.3927 415.1461,-506.973 471.8687,-483.3927 627.5,-483.3927 627.5,-483.3927 627.5,-483.3927 759,-483.3927 851.2385,-483.3927 954.3387,-440.9789 1002.862,-418.3064"/>
<polygon fill="#191970" stroke="#191970" points="1004.5614,-421.3741 1012.0923,-413.9219 1001.5579,-415.0512 1004.5614,-421.3741"/>
</g>
<!-- Node4628 -->
<g id="node16" class="node">
<title>Node4628</title>
<g id="a_node16"><a xlink:href="cursor_8c.html#af6c2090d1e00319075d6def5aa2666fd" target="_top" xlink:title="Advanced the cursor to the next item. ">
<polygon fill="none" stroke="#000000" points="460.5,-359.8927 460.5,-378.8927 539.5,-378.8927 539.5,-359.8927 460.5,-359.8927"/>
<text text-anchor="middle" x="500" y="-366.8927" font-family="Helvetica,sans-Serif" font-size="10.00" fill="#000000">fr_cursor_next</text>
</a>
</g>
</g>
<!-- Node4605&#45;&gt;Node4628 -->
<g id="edge26" class="edge">
<title>Node4605&#45;&gt;Node4628</title>
<path fill="none" stroke="#191970" d="M204.9485,-318.939C224.6001,-327.2707 254.6997,-338.9997 282,-345.3927 338.7499,-358.6818 405.5778,-364.6595 450.1405,-367.3181"/>
<polygon fill="#191970" stroke="#191970" points="449.9525,-370.813 460.1335,-367.8808 450.3461,-363.824 449.9525,-370.813"/>
</g>
<!-- Node4740 -->
<g id="node18" class="node">
<title>Node4740</title>
<g id="a_node18"><a xlink:href="cursor_8h.html#ae89f379d1f6985ee4335586e0acd0df6" target="_top" xlink:title="talloc_free the current item ">
<polygon fill="none" stroke="#000000" points="299.5,-397.8927 299.5,-416.8927 400.5,-416.8927 400.5,-397.8927 299.5,-397.8927"/>
<text text-anchor="middle" x="350" y="-404.8927" font-family="Helvetica,sans-Serif" font-size="10.00" fill="#000000">fr_cursor_free_item</text>
</a>
</g>
</g>
<!-- Node4605&#45;&gt;Node4740 -->
<g id="edge28" class="edge">
<title>Node4605&#45;&gt;Node4740</title>
<path fill="none" stroke="#191970" d="M193.9783,-318.9997C211.2128,-334.383 247.1202,-364.7073 282,-383.3927 289.8576,-387.602 298.6048,-391.3265 307.1387,-394.5101"/>
<polygon fill="#191970" stroke="#191970" points="306.0297,-397.8304 316.6245,-397.8718 308.368,-391.2324 306.0297,-397.8304"/>
</g>
<!-- Node4742 -->
<g id="node20" class="node">
<title>Node4742</title>
<g id="a_node20"><a xlink:href="cursor_8c.html#a92733b72ea218ecff0bc7808fae613b7" target="_top" xlink:title="Return the item the cursor current points to. ">
<polygon fill="none" stroke="#000000" points="305,-195.8927 305,-214.8927 395,-214.8927 395,-195.8927 305,-195.8927"/>
<text text-anchor="middle" x="350" y="-202.8927" font-family="Helvetica,sans-Serif" font-size="10.00" fill="#000000">fr_cursor_current</text>
</a>
</g>
</g>
<!-- Node4605&#45;&gt;Node4742 -->
<g id="edge31" class="edge">
<title>Node4605&#45;&gt;Node4742</title>
<path fill="none" stroke="#191970" d="M191.9723,-299.6791C207.8619,-282.0617 243.9791,-244.7807 282,-224.3927 286.2333,-222.1226 290.7639,-220.1024 295.4017,-218.3086"/>
<polygon fill="#191970" stroke="#191970" points="296.7335,-221.5506 305.0109,-214.9373 294.416,-214.9453 296.7335,-221.5506"/>
</g>
<!-- Node4630 -->
<g id="node21" class="node">
<title>Node4630</title>
<g id="a_node21"><a xlink:href="value_8c.html#a0adc72b7a30d3064ab65ed9059f0e8c8" target="_top" xlink:title="Append bytes from a buffer to an existing fr_value_box_t. ">
<polygon fill="none" stroke="#000000" points="300.5,-272.3927 300.5,-302.3927 399.5,-302.3927 399.5,-272.3927 300.5,-272.3927"/>
<text text-anchor="start" x="308.5" y="-290.3927" font-family="Helvetica,sans-Serif" font-size="10.00" fill="#000000">fr_value_box_bstrn</text>
<text text-anchor="middle" x="350" y="-279.3927" font-family="Helvetica,sans-Serif" font-size="10.00" fill="#000000">_append</text>
</a>
</g>
</g>
<!-- Node4605&#45;&gt;Node4630 -->
<g id="edge32" class="edge">
<title>Node4605&#45;&gt;Node4630</title>
<path fill="none" stroke="#191970" d="M246.4465,-301.0754C260.8226,-299.1759 276.0589,-297.1627 290.2944,-295.2817"/>
<polygon fill="#191970" stroke="#191970" points="291.0013,-298.7188 300.4566,-293.9389 290.0843,-291.7791 291.0013,-298.7188"/>
</g>
<!-- Node4639 -->
<g id="node22" class="node">
<title>Node4639</title>
<g id="a_node22"><a xlink:href="value_8c.html#a6162c72ecf7a8f7c5c162192074df556" target="_top" xlink:title="Append data to an existing fr_value_box_t. ">
<polygon fill="none" stroke="#000000" points="282,-233.8927 282,-252.8927 418,-252.8927 418,-233.8927 282,-233.8927"/>
<text text-anchor="middle" x="350" y="-240.8927" font-family="Helvetica,sans-Serif" font-size="10.00" fill="#000000">fr_value_box_mem_append</text>
</a>
</g>
</g>
<!-- Node4605&#45;&gt;Node4639 -->
<g id="edge34" class="edge">
<title>Node4605&#45;&gt;Node4639</title>
<path fill="none" stroke="#191970" d="M201.2476,-299.7735C220.6635,-289.525 252.905,-273.3054 282,-262.3927 288.3231,-260.021 295.0741,-257.7902 301.7759,-255.7494"/>
<polygon fill="#191970" stroke="#191970" points="302.8904,-259.0701 311.504,-252.9012 300.9234,-252.3521 302.8904,-259.0701"/>
</g>
<!-- Node4607 -->
<g id="node4" class="node">
<title>Node4607</title>
<g id="a_node4"><a xlink:href="acutest_8h.html#aecf9a9be8105efb1454cd8c1ef6cb1c5" target="_top" xlink:title="va_start">
<polygon fill="none" stroke="#000000" points="1005,-131.8927 1005,-150.8927 1057,-150.8927 1057,-131.8927 1005,-131.8927"/>
<text text-anchor="middle" x="1031" y="-138.8927" font-family="Helvetica,sans-Serif" font-size="10.00" fill="#000000">va_start</text>
</a>
</g>
</g>
<!-- Node4606&#45;&gt;Node4607 -->
<g id="edge3" class="edge">
<title>Node4606&#45;&gt;Node4607</title>
<path fill="none" stroke="#191970" d="M543.0042,-193.7764C644.9781,-182.83 899.9827,-155.4567 994.7694,-145.2818"/>
<polygon fill="#191970" stroke="#191970" points="995.1681,-148.7592 1004.7374,-144.2118 994.4209,-141.7992 995.1681,-148.7592"/>
</g>
<!-- Node4608 -->
<g id="node5" class="node">
<title>Node4608</title>
<g id="a_node5"><a xlink:href="strerror_8c.html#a193b1e0b3712e3bbee338812c06af482" target="_top" xlink:title="fr_strerror_vprintf">
<polygon fill="none" stroke="#000000" points="582,-93.8927 582,-112.8927 673,-112.8927 673,-93.8927 582,-93.8927"/>
<text text-anchor="middle" x="627.5" y="-100.8927" font-family="Helvetica,sans-Serif" font-size="10.00" fill="#000000">fr_strerror_vprintf</text>
</a>
</g>
</g>
<!-- Node4606&#45;&gt;Node4608 -->
<g id="edge4" class="edge">
<title>Node4606&#45;&gt;Node4608</title>
<path fill="none" stroke="#191970" d="M513.1645,-188.5838C535.2295,-172.1432 579.8591,-138.8898 606.3626,-119.1421"/>
<polygon fill="#191970" stroke="#191970" points="608.6693,-121.7881 614.597,-113.0067 604.4869,-116.1749 608.6693,-121.7881"/>
</g>
<!-- Node4611 -->
<g id="node8" class="node">
<title>Node4611</title>
<g id="a_node8"><a xlink:href="acutest_8h.html#a36af1f79dd6adf0809c21e76535034d5" target="_top" xlink:title="va_end">
<polygon fill="none" stroke="#000000" points="1007,-55.8927 1007,-74.8927 1055,-74.8927 1055,-55.8927 1007,-55.8927"/>
<text text-anchor="middle" x="1031" y="-62.8927" font-family="Helvetica,sans-Serif" font-size="10.00" fill="#000000">va_end</text>
</a>
</g>
</g>
<!-- Node4606&#45;&gt;Node4611 -->
<g id="edge23" class="edge">
<title>Node4606&#45;&gt;Node4611</title>
<path fill="none" stroke="#191970" d="M505.3192,-188.5967C517.0548,-167.6173 546.9273,-117.5605 582,-84.3927 630.6415,-38.3929 644.7318,-22.1431 709,-3.3927 725.9696,1.5583 930.2651,.7326 946,-4.3927 972.7668,-13.1112 998.278,-33.6308 1014.2434,-48.4671"/>
<polygon fill="#191970" stroke="#191970" points="1012.0436,-51.2074 1021.6782,-55.6149 1016.895,-46.1612 1012.0436,-51.2074"/>
</g>
<!-- Node4609 -->
<g id="node6" class="node">
<title>Node4609</title>
<g id="a_node6"><a xlink:href="strerror_8c.html#a42c2cc9f76fb9dac723a1903c181e1c7" target="_top" xlink:title="Initialise thread local storage. ">
<polygon fill="none" stroke="#ff0000" points="720.5,-55.8927 720.5,-74.8927 797.5,-74.8927 797.5,-55.8927 720.5,-55.8927"/>
<text text-anchor="middle" x="759" y="-62.8927" font-family="Helvetica,sans-Serif" font-size="10.00" fill="#000000">fr_strerror_init</text>
</a>
</g>
</g>
<!-- Node4608&#45;&gt;Node4609 -->
<g id="edge5" class="edge">
<title>Node4608&#45;&gt;Node4609</title>
<path fill="none" stroke="#191970" d="M660.683,-93.8037C677.5027,-88.9432 698.1263,-82.9835 716.1335,-77.7799"/>
<polygon fill="#191970" stroke="#191970" points="717.1924,-81.1172 725.8276,-74.9786 715.249,-74.3924 717.1924,-81.1172"/>
</g>
<!-- Node4610 -->
<g id="node7" class="node">
<title>Node4610</title>
<g id="a_node7"><a xlink:href="strerror_8c.html#a2c8e65d6d4b73fb705cc023f60acb099" target="_top" xlink:title="Print the current error to stderr with a prefix. ">
<polygon fill="none" stroke="#ff0000" points="869,-93.8927 869,-112.8927 922,-112.8927 922,-93.8927 869,-93.8927"/>
<text text-anchor="middle" x="895.5" y="-100.8927" font-family="Helvetica,sans-Serif" font-size="10.00" fill="#000000">fr_perror</text>
</a>
</g>
</g>
<!-- Node4608&#45;&gt;Node4610 -->
<g id="edge11" class="edge">
<title>Node4608&#45;&gt;Node4610</title>
<path fill="none" stroke="#191970" d="M660.5062,-112.8997C675.2141,-116.6641 692.8344,-120.5333 709,-122.3927 753.1533,-127.4713 764.815,-127.1882 809,-122.3927 825.518,-120.5999 843.5038,-116.9352 858.7751,-113.2983"/>
<polygon fill="#191970" stroke="#191970" points="859.9926,-116.6029 868.8623,-110.8082 858.3149,-109.8069 859.9926,-116.6029"/>
</g>
<!-- Node4608&#45;&gt;Node4611 -->
<g id="edge21" class="edge">
<title>Node4608&#45;&gt;Node4611</title>
<path fill="none" stroke="#191970" d="M634.5064,-93.8747C647.208,-77.5041 675.8162,-44.512 709,-31.3927 806.9696,7.3401 842.9705,-5.4109 946,-27.3927 967.2763,-31.932 989.6745,-42.2012 1006.1346,-50.921"/>
<polygon fill="#191970" stroke="#191970" points="1004.634,-54.0896 1015.0864,-55.8209 1007.9951,-47.9493 1004.634,-54.0896"/>
</g>
<!-- Node4617 -->
<g id="node9" class="node">
<title>Node4617</title>
<g id="a_node9"><a xlink:href="strerror_8c.html#a9d878c1ddb1b385cdaf6523fff68529c" target="_top" xlink:title="Reset cursor state. ">
<polygon fill="none" stroke="#000000" points="853,-36.8927 853,-55.8927 938,-55.8927 938,-36.8927 853,-36.8927"/>
<text text-anchor="middle" x="895.5" y="-43.8927" font-family="Helvetica,sans-Serif" font-size="10.00" fill="#000000">fr_strerror_clear</text>
</a>
</g>
</g>
<!-- Node4608&#45;&gt;Node4617 -->
<g id="edge10" class="edge">
<title>Node4608&#45;&gt;Node4617</title>
<path fill="none" stroke="#191970" d="M636.9461,-93.7733C651.1067,-80.1168 679.3563,-55.7303 709,-46.3927 752.4721,-32.6991 804.5252,-34.0648 842.5787,-38.0689"/>
<polygon fill="#191970" stroke="#191970" points="842.5874,-41.5929 852.9218,-39.2579 843.3869,-34.6387 842.5874,-41.5929"/>
</g>
<!-- Node4618 -->
<g id="node10" class="node">
<title>Node4618</title>
<g id="a_node10"><a xlink:href="print_8c.html#a27ae94b5a4c77de49aa2f387765a4d58" target="_top" xlink:title="Special version of vasprintf which implements custom format specifiers. ">
<polygon fill="none" stroke="#ff0000" points="726.5,-207.8927 726.5,-226.8927 791.5,-226.8927 791.5,-207.8927 726.5,-207.8927"/>
<text text-anchor="middle" x="759" y="-214.8927" font-family="Helvetica,sans-Serif" font-size="10.00" fill="#000000">fr_vasprintf</text>
</a>
</g>
</g>
<!-- Node4608&#45;&gt;Node4618 -->
<g id="edge12" class="edge">
<title>Node4608&#45;&gt;Node4618</title>
<path fill="none" stroke="#191970" d="M638.7116,-113.1122C661.2265,-132.6309 712.1575,-176.784 739.9808,-200.9046"/>
<polygon fill="#191970" stroke="#191970" points="737.9681,-203.7918 747.8168,-207.6977 742.5534,-198.5027 737.9681,-203.7918"/>
</g>
<!-- Node4739 -->
<g id="node15" class="node">
<title>Node4739</title>
<g id="a_node15"><a xlink:href="cursor_8c.html#a5d942382660657c3b4cb6e9cb2b12b2c" target="_top" xlink:title="Insert a single item at the start of the list. ">
<polygon fill="none" stroke="#000000" points="711.5,-93.8927 711.5,-112.8927 806.5,-112.8927 806.5,-93.8927 711.5,-93.8927"/>
<text text-anchor="middle" x="759" y="-100.8927" font-family="Helvetica,sans-Serif" font-size="10.00" fill="#000000">fr_cursor_prepend</text>
</a>
</g>
</g>
<!-- Node4608&#45;&gt;Node4739 -->
<g id="edge22" class="edge">
<title>Node4608&#45;&gt;Node4739</title>
<path fill="none" stroke="#191970" d="M673.1233,-103.3927C682.1663,-103.3927 691.7715,-103.3927 701.1585,-103.3927"/>
<polygon fill="#191970" stroke="#191970" points="701.2219,-106.8928 711.2218,-103.3927 701.2218,-99.8928 701.2219,-106.8928"/>
</g>
<!-- Node4609&#45;&gt;Node4610 -->
<g id="edge6" class="edge">
<title>Node4609&#45;&gt;Node4610</title>
<path fill="none" stroke="#191970" d="M793.4447,-74.9817C813.4436,-80.5491 838.6233,-87.5588 858.9676,-93.2225"/>
<polygon fill="#191970" stroke="#191970" points="858.2444,-96.6542 868.8168,-95.9644 860.1218,-89.9106 858.2444,-96.6542"/>
</g>
<!-- Node4609&#45;&gt;Node4617 -->
<g id="edge9" class="edge">
<title>Node4609&#45;&gt;Node4617</title>
<path fill="none" stroke="#191970" d="M797.7503,-59.9988C811.7111,-58.0556 827.7112,-55.8285 842.6687,-53.7465"/>
<polygon fill="#191970" stroke="#191970" points="843.3975,-57.1789 852.8195,-52.3335 842.4324,-50.2457 843.3975,-57.1789"/>
</g>
<!-- Node4610&#45;&gt;Node4607 -->
<g id="edge7" class="edge">
<title>Node4610&#45;&gt;Node4607</title>
<path fill="none" stroke="#191970" d="M922.2704,-110.9002C943.0976,-116.7411 972.201,-124.9029 995.0569,-131.3127"/>
<polygon fill="#191970" stroke="#191970" points="994.1726,-134.6996 1004.7462,-134.03 996.0628,-127.9597 994.1726,-134.6996"/>
</g>
<!-- Node4610&#45;&gt;Node4611 -->
<g id="edge8" class="edge">
<title>Node4610&#45;&gt;Node4611</title>
<path fill="none" stroke="#191970" d="M922.2704,-95.8851C943.6351,-89.8935 973.7086,-81.4596 996.8137,-74.98"/>
<polygon fill="#191970" stroke="#191970" points="997.8791,-78.3163 1006.5625,-72.246 995.9888,-71.5763 997.8791,-78.3163"/>
</g>
<!-- Node4618&#45;&gt;Node4606 -->
<g id="edge15" class="edge">
<title>Node4618&#45;&gt;Node4606</title>
<path fill="none" stroke="#191970" d="M726.1205,-214.9806C682.519,-211.7821 605.0367,-206.0981 553.0905,-202.2873"/>
<polygon fill="#191970" stroke="#191970" points="553.2886,-198.7925 543.0593,-201.5515 552.7764,-205.7738 553.2886,-198.7925"/>
</g>
<!-- Node4618&#45;&gt;Node4611 -->
<g id="edge13" class="edge">
<title>Node4618&#45;&gt;Node4611</title>
<path fill="none" stroke="#191970" d="M779.911,-207.785C814.9439,-191.4659 887.4172,-156.7471 946,-122.3927 968.1137,-109.4246 992.3006,-92.9685 1009.1995,-81.0752"/>
<polygon fill="#191970" stroke="#191970" points="1011.648,-83.6294 1017.7785,-74.9884 1007.5975,-77.9204 1011.648,-83.6294"/>
</g>
<!-- Node4620 -->
<g id="node11" class="node">
<title>Node4620</title>
<g id="a_node11"><a xlink:href="talloc_8c.html#a3536feb85c89aa239851ef0830b72e64" target="_top" xlink:title="Call talloc_strdup, setting the type on the new chunk correctly. ">
<polygon fill="none" stroke="#000000" points="845,-307.8927 845,-326.8927 946,-326.8927 946,-307.8927 845,-307.8927"/>
<text text-anchor="middle" x="895.5" y="-314.8927" font-family="Helvetica,sans-Serif" font-size="10.00" fill="#000000">talloc_typed_strdup</text>
</a>
</g>
</g>
<!-- Node4618&#45;&gt;Node4620 -->
<g id="edge14" class="edge">
<title>Node4618&#45;&gt;Node4620</title>
<path fill="none" stroke="#191970" d="M772.0882,-226.9811C795.6725,-244.2589 845.5047,-280.7661 874.1081,-301.7209"/>
<polygon fill="#191970" stroke="#191970" points="872.1155,-304.5999 882.2509,-307.6863 876.2524,-298.9531 872.1155,-304.5999"/>
</g>
<!-- Node4618&#45;&gt;Node4621 -->
<g id="edge16" class="edge">
<title>Node4618&#45;&gt;Node4621</title>
<path fill="none" stroke="#191970" d="M789.2938,-226.9358C808.8215,-233.0874 834.4279,-241.1538 855.6046,-247.8249"/>
<polygon fill="#191970" stroke="#191970" points="854.7013,-251.2098 865.2909,-250.8762 856.8046,-244.5333 854.7013,-251.2098"/>
</g>
<!-- Node4621&#45;&gt;Node4606 -->
<g id="edge17" class="edge">
<title>Node4621&#45;&gt;Node4606</title>
<path fill="none" stroke="#191970" d="M847.304,-257.0202C785.4134,-252.1266 674.9066,-241.4848 582,-222.3927 567.5021,-219.4134 551.8483,-215.1104 538.1423,-210.9683"/>
<polygon fill="#191970" stroke="#191970" points="539.1386,-207.6129 528.5509,-208.0019 537.0702,-214.3004 539.1386,-207.6129"/>
</g>
<!-- Node4621&#45;&gt;Node4622 -->
<g id="edge18" class="edge">
<title>Node4621&#45;&gt;Node4622</title>
<path fill="none" stroke="#191970" d="M910.4168,-270.1419C920.9027,-277.3371 934.972,-287.6993 946,-298.3927 974.8948,-326.4108 1003.032,-364.1686 1018.5855,-386.2367"/>
<polygon fill="#191970" stroke="#191970" points="1015.8619,-388.4503 1024.4465,-394.6597 1021.6078,-384.4522 1015.8619,-388.4503"/>
</g>
<!-- Node4622&#45;&gt;Node4606 -->
<g id="edge20" class="edge">
<title>Node4622&#45;&gt;Node4606</title>
<path fill="none" stroke="#191970" d="M998.4176,-394.8608C923.3822,-372.4648 733.2256,-313.1584 582,-244.3927 561.8776,-235.2425 540.0981,-222.9008 524.0456,-213.3046"/>
<polygon fill="#191970" stroke="#191970" points="525.6788,-210.202 515.3118,-208.0167 522.0533,-216.19 525.6788,-210.202"/>
</g>
<!-- Node4623 -->
<g id="node14" class="node">
<title>Node4623</title>
<g id="a_node14"><a xlink:href="talloc_8c.html#a6359458838bb8ee3881b1dbe8e6519b7" target="_top" xlink:title="Binary safe strndup function. ">
<polygon fill="none" stroke="#000000" points="1116,-470.8927 1116,-489.8927 1199,-489.8927 1199,-470.8927 1116,-470.8927"/>
<text text-anchor="middle" x="1157.5" y="-477.8927" font-family="Helvetica,sans-Serif" font-size="10.00" fill="#000000">talloc_bstrndup</text>
</a>
</g>
</g>
<!-- Node4622&#45;&gt;Node4623 -->
<g id="edge19" class="edge">
<title>Node4622&#45;&gt;Node4623</title>
<path fill="none" stroke="#191970" d="M1047.0213,-414.0181C1068.6927,-427.0381 1107.5503,-450.3833 1132.9264,-465.6291"/>
<polygon fill="#191970" stroke="#191970" points="1131.2343,-468.6956 1141.6088,-470.8454 1134.8393,-462.6952 1131.2343,-468.6956"/>
</g>
<!-- Node4614 -->
<g id="node17" class="node">
<title>Node4614</title>
<g id="a_node17"><a xlink:href="cursor_8c.html#a45a517ea8503ebd7ee4dd286ffb59b90" target="_top" xlink:title="Internal function to get the next item. ">
<polygon fill="none" stroke="#000000" points="593.5,-397.8927 593.5,-416.8927 661.5,-416.8927 661.5,-397.8927 593.5,-397.8927"/>
<text text-anchor="middle" x="627.5" y="-404.8927" font-family="Helvetica,sans-Serif" font-size="10.00" fill="#000000">cursor_next</text>
</a>
</g>
</g>
<!-- Node4628&#45;&gt;Node4614 -->
<g id="edge27" class="edge">
<title>Node4628&#45;&gt;Node4614</title>
<path fill="none" stroke="#191970" d="M532.1736,-378.9817C548.3307,-383.7971 568.108,-389.6915 585.4518,-394.8607"/>
<polygon fill="#191970" stroke="#191970" points="584.7535,-398.3046 595.3367,-397.8067 586.7529,-391.5962 584.7535,-398.3046"/>
</g>
<!-- Node4741 -->
<g id="node19" class="node">
<title>Node4741</title>
<g id="a_node19"><a xlink:href="cursor_8h.html#a6194bc92357e84dc8720ffd5ccaaeb42" target="_top" xlink:title="Remove the current item. ">
<polygon fill="none" stroke="#000000" points="454,-397.8927 454,-416.8927 546,-416.8927 546,-397.8927 454,-397.8927"/>
<text text-anchor="middle" x="500" y="-404.8927" font-family="Helvetica,sans-Serif" font-size="10.00" fill="#000000">fr_cursor_remove</text>
</a>
</g>
</g>
<!-- Node4740&#45;&gt;Node4741 -->
<g id="edge29" class="edge">
<title>Node4740&#45;&gt;Node4741</title>
<path fill="none" stroke="#191970" d="M400.7832,-407.3927C414.5984,-407.3927 429.6418,-407.3927 443.741,-407.3927"/>
<polygon fill="#191970" stroke="#191970" points="443.8095,-410.8928 453.8095,-407.3927 443.8094,-403.8928 443.8095,-410.8928"/>
</g>
<!-- Node4741&#45;&gt;Node4614 -->
<g id="edge30" class="edge">
<title>Node4741&#45;&gt;Node4614</title>
<path fill="none" stroke="#191970" d="M546.0304,-407.3927C558.0573,-407.3927 570.9982,-407.3927 582.9467,-407.3927"/>
<polygon fill="#191970" stroke="#191970" points="583.1437,-410.8928 593.1436,-407.3927 583.1436,-403.8928 583.1437,-410.8928"/>
</g>
<!-- Node4630&#45;&gt;Node4606 -->
<g id="edge33" class="edge">
<title>Node4630&#45;&gt;Node4606</title>
<path fill="none" stroke="#191970" d="M396.9462,-272.3189C404.1651,-269.3824 411.4044,-266.0605 418,-262.3927 441.923,-249.0889 466.2642,-229.1021 482.1414,-215.0104"/>
<polygon fill="#191970" stroke="#191970" points="484.5541,-217.5475 489.6256,-208.2454 479.8601,-212.3546 484.5541,-217.5475"/>
</g>
<!-- Node4639&#45;&gt;Node4606 -->
<g id="edge35" class="edge">
<title>Node4639&#45;&gt;Node4606</title>
<path fill="none" stroke="#191970" d="M385.0096,-233.8601C395.6282,-230.9018 407.3105,-227.5797 418,-224.3927 432.1656,-220.1693 447.6349,-215.3251 461.2825,-210.9716"/>
<polygon fill="#191970" stroke="#191970" points="462.3987,-214.2893 470.8533,-207.9041 460.2622,-207.6233 462.3987,-214.2893"/>
</g>
<!-- Node4744 -->
<g id="node24" class="node">
<title>Node4744</title>
<g id="a_node24"><a xlink:href="value_8h.html#a2d08d82275a28efe9ad91300db05c236" target="_top" xlink:title="Allocate a value box of a specific type. ">
<polygon fill="none" stroke="#000000" points="301,-69.8927 301,-88.8927 399,-88.8927 399,-69.8927 301,-69.8927"/>
<text text-anchor="middle" x="350" y="-76.8927" font-family="Helvetica,sans-Serif" font-size="10.00" fill="#000000">fr_value_box_alloc</text>
</a>
</g>
</g>
<!-- Node4743&#45;&gt;Node4744 -->
<g id="edge37" class="edge">
<title>Node4743&#45;&gt;Node4744</title>
<path fill="none" stroke="#191970" d="M242.6705,-93.5743C258.3122,-91.5076 275.1948,-89.2768 290.8361,-87.2101"/>
<polygon fill="#191970" stroke="#191970" points="291.4546,-90.6589 300.91,-85.879 290.5376,-83.7192 291.4546,-90.6589"/>
</g>
<!-- Node4627 -->
<g id="node25" class="node">
<title>Node4627</title>
<g id="a_node25"><a xlink:href="value_8h.html#ab2f9fbd42c467414fa4e5c3793fb3572" target="_top" xlink:title="Initialise a fr_value_box_t. ">
<polygon fill="none" stroke="#000000" points="455,-91.8927 455,-110.8927 545,-110.8927 545,-91.8927 455,-91.8927"/>
<text text-anchor="middle" x="500" y="-98.8927" font-family="Helvetica,sans-Serif" font-size="10.00" fill="#000000">fr_value_box_init</text>
</a>
</g>
</g>
<!-- Node4744&#45;&gt;Node4627 -->
<g id="edge38" class="edge">
<title>Node4744&#45;&gt;Node4627</title>
<path fill="none" stroke="#191970" d="M399.1156,-86.5963C413.6942,-88.7345 429.76,-91.0908 444.7027,-93.2824"/>
<polygon fill="#191970" stroke="#191970" points="444.4341,-96.7804 454.8362,-94.7686 445.4499,-89.8545 444.4341,-96.7804"/>
</g>
<!-- Node4745&#45;&gt;Node4620 -->
<g id="edge40" class="edge">
<title>Node4745&#45;&gt;Node4620</title>
<path fill="none" stroke="#191970" d="M765.4006,-511.8269C786.6675,-480.0434 855.2112,-377.6045 883.3108,-335.6094"/>
<polygon fill="#191970" stroke="#191970" points="886.3022,-337.4326 888.9544,-327.1751 880.4844,-333.5398 886.3022,-337.4326"/>
</g>
<!-- Node4745&#45;&gt;Node4623 -->
<g id="edge41" class="edge">
<title>Node4745&#45;&gt;Node4623</title>
<path fill="none" stroke="#191970" d="M809.0668,-516.2415C885.089,-508.4199 1028.9066,-493.6231 1105.855,-485.7062"/>
<polygon fill="#191970" stroke="#191970" points="1106.2137,-489.1879 1115.8029,-484.6827 1105.4972,-482.2246 1106.2137,-489.1879"/>
</g>
<!-- Node4635&#45;&gt;Node4606 -->
<g id="edge43" class="edge">
<title>Node4635&#45;&gt;Node4606</title>
<path fill="none" stroke="#191970" d="M385.9126,-138.5443C396.3469,-143.1325 407.7031,-148.3077 418,-153.3927 437.3527,-162.9496 458.7139,-174.7131 474.7813,-183.8156"/>
<polygon fill="#191970" stroke="#191970" points="473.1541,-186.9168 483.5746,-188.8308 476.6221,-180.8362 473.1541,-186.9168"/>
</g>
<!-- Node4635&#45;&gt;Node4627 -->
<g id="edge44" class="edge">
<title>Node4635&#45;&gt;Node4627</title>
<path fill="none" stroke="#191970" d="M405.0027,-115.3256C417.934,-113.429 431.7209,-111.4069 444.6667,-109.5082"/>
<polygon fill="#191970" stroke="#191970" points="445.4499,-112.9309 454.8362,-108.0167 444.4341,-106.005 445.4499,-112.9309"/>
</g>
<!-- Node4747 -->
<g id="node29" class="node">
<title>Node4747</title>
<g id="a_node29"><a xlink:href="cursor_8c.html#a8bff1cf971c70ff3c9b5ac03bc6a7042" target="_top" xlink:title="Internal function to get the last attribute. ">
<polygon fill="none" stroke="#000000" points="469,-435.8927 469,-454.8927 531,-454.8927 531,-435.8927 469,-435.8927"/>
<text text-anchor="middle" x="500" y="-442.8927" font-family="Helvetica,sans-Serif" font-size="10.00" fill="#000000">cursor_tail</text>
</a>
</g>
</g>
<!-- Node4746&#45;&gt;Node4747 -->
<g id="edge46" class="edge">
<title>Node4746&#45;&gt;Node4747</title>
<path fill="none" stroke="#191970" d="M229.5218,-429.1554C291.143,-432.8546 399.5388,-439.3618 458.6718,-442.9117"/>
<polygon fill="#191970" stroke="#191970" points="458.5778,-446.4122 468.7696,-443.5178 458.9973,-439.4248 458.5778,-446.4122"/>
</g>
<!-- Node4747&#45;&gt;Node4614 -->
<g id="edge47" class="edge">
<title>Node4747&#45;&gt;Node4614</title>
<path fill="none" stroke="#191970" d="M531.19,-436.0968C547.4598,-431.2478 567.5972,-425.2461 585.2453,-419.9862"/>
<polygon fill="#191970" stroke="#191970" points="586.7169,-423.1998 595.3006,-416.9893 584.7175,-416.4914 586.7169,-423.1998"/>
</g>
</g>
</svg>
        <g id="navigator" transform="translate(0 0)" fill="#404254">
                <rect fill="#f2f5e9" fill-opacity="0.5" stroke="#606060" stroke-width=".5" x="0" y="0" width="60" height="60"/>
                <use id="zoomplus" xlink:href="#zoomPlus" x="17" y="9" onmousedown="handleZoom(evt,'in')"/>
                <use id="zoomminus" xlink:href="#zoomMin" x="42" y="9" onmousedown="handleZoom(evt,'out')"/>
                <use id="reset" xlink:href="#resetDef" x="30" y="36" onmousedown="handleReset()"/>
                <g id="arrowUp" xlink:href="#dirArrow" transform="translate(30 24)" onmousedown="handlePan(0,-1)">
                  <use xlink:href="#rim" fill="#404040">
                        <set attributeName="fill" to="#808080" begin="arrowUp.mouseover" end="arrowUp.mouseout"/>
                  </use>
                  <path fill="none" stroke="white" stroke-width="1.5" d="M0,-3.0v7 M-2.5,-0.5L0,-3.0L2.5,-0.5"/>
                </g>
                <g id="arrowRight" xlink:href="#dirArrow" transform="rotate(90) translate(36 -43)" onmousedown="handlePan(1,0)">
                  <use xlink:href="#rim" fill="#404040">
                        <set attributeName="fill" to="#808080" begin="arrowRight.mouseover" end="arrowRight.mouseout"/>
                  </use>
                  <path fill="none" stroke="white" stroke-width="1.5" d="M0,-3.0v7 M-2.5,-0.5L0,-3.0L2.5,-0.5"/>
                </g>
                <g id="arrowDown" xlink:href="#dirArrow" transform="rotate(180) translate(-30 -48)" onmousedown="handlePan(0,1)">
                  <use xlink:href="#rim" fill="#404040">
                        <set attributeName="fill" to="#808080" begin="arrowDown.mouseover" end="arrowDown.mouseout"/>
                  </use>
                  <path fill="none" stroke="white" stroke-width="1.5" d="M0,-3.0v7 M-2.5,-0.5L0,-3.0L2.5,-0.5"/>
                </g>
                <g id="arrowLeft" xlink:href="#dirArrow" transform="rotate(270) translate(-36 17)" onmousedown="handlePan(-1,0)">
                  <use xlink:href="#rim" fill="#404040">
                        <set attributeName="fill" to="#808080" begin="arrowLeft.mouseover" end="arrowLeft.mouseout"/>
                  </use>
                  <path fill="none" stroke="white" stroke-width="1.5" d="M0,-3.0v7 M-2.5,-0.5L0,-3.0L2.5,-0.5"/>
                </g>
        </g>
        <svg viewBox="0 0 15 15" width="100%" height="30px" preserveAspectRatio="xMaxYMin meet">
         <g id="arrow_out" transform="scale(0.3 0.3)">
          <a xlink:href="group__xlat__functions_ga1ffc3f695bc61e63bd04ca8973c1deba_cgraph_org.svg" target="_base">
           <rect id="button" ry="5" rx="5" y="6" x="6" height="38" width="38"
                fill="#f2f5e9" fill-opacity="0.5" stroke="#606060" stroke-width="1.0"/>
           <path id="arrow"
             d="M 11.500037,31.436501 C 11.940474,20.09759 22.043105,11.32322 32.158766,21.979434 L 37.068811,17.246167 C 37.068811,17.246167 37.088388,32 37.088388,32 L 22.160133,31.978069 C 22.160133,31.978069 26.997745,27.140456 26.997745,27.140456 C 18.528582,18.264221 13.291696,25.230495 11.500037,31.436501 z"
             style="fill:#404040;"/>
          </a>
         </g>
        </svg>
</svg>
