<?xml version="1.0" encoding="UTF-8" standalone="no"?>
<!DOCTYPE svg PUBLIC "-//W3C//DTD SVG 1.1//EN"
 "http://www.w3.org/Graphics/SVG/1.1/DTD/svg11.dtd">
<!-- Generated by graphviz version 2.40.1 (20161225.0304)
 -->
<!-- Title: xlat_load_balance Pages: 1 -->
<!--zoomable 39 -->
<svg id="main" version="1.1" xmlns="http://www.w3.org/2000/svg" xmlns:xlink="http://www.w3.org/1999/xlink" xml:space="preserve" onload="init(evt)">
<style type="text/css"><![CDATA[
.edge:hover path { stroke: red; }
.edge:hover polygon { stroke: red; fill: red; }
]]></style>
<script type="text/javascript"><![CDATA[
var edges = document.getElementsByTagName('g');
if (edges && edges.length) {
  for (var i=0;i<edges.length;i++) {
    if (edges[i].id.substr(0,4)=='edge') {
      edges[i].setAttribute('class','edge');
    }
  }
}
]]></script>
        <defs>
                <circle id="rim" cx="0" cy="0" r="7"/>
                <circle id="rim2" cx="0" cy="0" r="3.5"/>
                <g id="zoomPlus">
                        <use xlink:href="#rim" fill="#404040">
                                <set attributeName="fill" to="#808080" begin="zoomplus.mouseover" end="zoomplus.mouseout"/>
                        </use>
                        <path d="M-4,0h8M0,-4v8" fill="none" stroke="white" stroke-width="1.5" pointer-events="none"/>
                </g>
                <g id="zoomMin">
                        <use xlink:href="#rim" fill="#404040">
                                <set attributeName="fill" to="#808080" begin="zoomminus.mouseover" end="zoomminus.mouseout"/>
                        </use>
                        <path d="M-4,0h8" fill="none" stroke="white" stroke-width="1.5" pointer-events="none"/>
                </g>
                <g id="dirArrow">
                        <path fill="none" stroke="white" stroke-width="1.5" d="M0,-3.0v7 M-2.5,-0.5L0,-3.0L2.5,-0.5"/>
                </g>
               <g id="resetDef">
                       <use xlink:href="#rim2" fill="#404040">
                               <set attributeName="fill" to="#808080" begin="reset.mouseover" end="reset.mouseout"/>
                       </use>
               </g>
        </defs>

<script type="text/javascript">
var viewWidth = 637;
var viewHeight = 39;
var sectionId = 'dynsection-154';
</script>
<script xlink:href="svgpan.js"/>
<svg id="graph" class="graph">
<g id="viewport">
<title>xlat_load_balance</title>
<!-- Node30038 -->
<g id="node1" class="node">
<title>Node30038</title>
<polygon fill="#bfbfbf" stroke="#000000" points="0,-6 0,-25 95,-25 95,-6 0,-6"/>
<text text-anchor="middle" x="47.5" y="-13" font-family="Helvetica,sans-Serif" font-size="10.00" fill="#000000">xlat_load_balance</text>
</g>
<!-- Node30039 -->
<g id="node2" class="node">
<title>Node30039</title>
<g id="a_node2"><a xlink:href="xlat__builtin_8c.html#ab8bf1c0f17805dce8f105cb3a1c036c6" target="_top" xlink:title="Registers a redundant xlat. ">
<polygon fill="none" stroke="#000000" points="131,-.5 131,-30.5 235,-30.5 235,-.5 131,-.5"/>
<text text-anchor="start" x="139" y="-18.5" font-family="Helvetica,sans-Serif" font-size="10.00" fill="#000000">xlat_register_legacy</text>
<text text-anchor="middle" x="183" y="-7.5" font-family="Helvetica,sans-Serif" font-size="10.00" fill="#000000">_redundant</text>
</a>
</g>
</g>
<!-- Node30038&#45;&gt;Node30039 -->
<g id="edge1" class="edge">
<title>Node30038&#45;&gt;Node30039</title>
<path fill="none" stroke="#191970" d="M105.3567,-15.5C113.7372,-15.5 122.3241,-15.5 130.5894,-15.5"/>
<polygon fill="#191970" stroke="#191970" points="105.2723,-12.0001 95.2722,-15.5 105.2722,-19.0001 105.2723,-12.0001"/>
</g>
<!-- Node30040 -->
<g id="node3" class="node">
<title>Node30040</title>
<g id="a_node3"><a xlink:href="src_2lib_2server_2module_8c.html#af9e482814f0d4c3c40e558c857211b82" target="_top" xlink:title="Bootstrap a virtual module from an instantiate section. ">
<polygon fill="none" stroke="#000000" points="271,-6 271,-25 396,-25 396,-6 271,-6"/>
<text text-anchor="middle" x="333.5" y="-13" font-family="Helvetica,sans-Serif" font-size="10.00" fill="#000000">virtual_module_bootstrap</text>
</a>
</g>
</g>
<!-- Node30039&#45;&gt;Node30040 -->
<g id="edge2" class="edge">
<title>Node30039&#45;&gt;Node30040</title>
<path fill="none" stroke="#191970" d="M245.3228,-15.5C253.7233,-15.5 262.3454,-15.5 270.7532,-15.5"/>
<polygon fill="#191970" stroke="#191970" points="245.2153,-12.0001 235.2152,-15.5 245.2152,-19.0001 245.2153,-12.0001"/>
</g>
<!-- Node30041 -->
<g id="node4" class="node">
<title>Node30041</title>
<g id="a_node4"><a xlink:href="server_2module_8h.html#ac1bf5d14e3657bad818536fed02f07bc" target="_top" xlink:title="Bootstrap modules and virtual modules. ">
<polygon fill="none" stroke="#000000" points="432,-6 432,-25 531,-25 531,-6 432,-6"/>
<text text-anchor="middle" x="481.5" y="-13" font-family="Helvetica,sans-Serif" font-size="10.00" fill="#000000">modules_bootstrap</text>
</a>
</g>
</g>
<!-- Node30040&#45;&gt;Node30041 -->
<g id="edge3" class="edge">
<title>Node30040&#45;&gt;Node30041</title>
<path fill="none" stroke="#191970" d="M406.3016,-15.5C414.8831,-15.5 423.486,-15.5 431.6486,-15.5"/>
<polygon fill="#191970" stroke="#191970" points="406.2654,-12.0001 396.2653,-15.5 406.2653,-19.0001 406.2654,-12.0001"/>
</g>
<!-- Node30042 -->
<g id="node5" class="node">
<title>Node30042</title>
<g id="a_node5"><a xlink:href="server_2base_8h.html#af0f3978236fa9f6607b8cbb891d9bcc6" target="_top" xlink:title="Initialize src/lib/server/. ">
<polygon fill="none" stroke="#ff0000" points="567,-6 567,-25 629,-25 629,-6 567,-6"/>
<text text-anchor="middle" x="598" y="-13" font-family="Helvetica,sans-Serif" font-size="10.00" fill="#000000">server_init</text>
</a>
</g>
</g>
<!-- Node30041&#45;&gt;Node30042 -->
<g id="edge4" class="edge">
<title>Node30041&#45;&gt;Node30042</title>
<path fill="none" stroke="#191970" d="M541.2563,-15.5C550.1455,-15.5 558.9879,-15.5 566.9547,-15.5"/>
<polygon fill="#191970" stroke="#191970" points="541.2444,-12.0001 531.2444,-15.5 541.2444,-19.0001 541.2444,-12.0001"/>
</g>
</g>
</svg>
        <g id="navigator" transform="translate(0 0)" fill="#404254">
                <rect fill="#f2f5e9" fill-opacity="0.5" stroke="#606060" stroke-width=".5" x="0" y="0" width="60" height="60"/>
                <use id="zoomplus" xlink:href="#zoomPlus" x="17" y="9" onmousedown="handleZoom(evt,'in')"/>
                <use id="zoomminus" xlink:href="#zoomMin" x="42" y="9" onmousedown="handleZoom(evt,'out')"/>
                <use id="reset" xlink:href="#resetDef" x="30" y="36" onmousedown="handleReset()"/>
                <g id="arrowUp" xlink:href="#dirArrow" transform="translate(30 24)" onmousedown="handlePan(0,-1)">
                  <use xlink:href="#rim" fill="#404040">
                        <set attributeName="fill" to="#808080" begin="arrowUp.mouseover" end="arrowUp.mouseout"/>
                  </use>
                  <path fill="none" stroke="white" stroke-width="1.5" d="M0,-3.0v7 M-2.5,-0.5L0,-3.0L2.5,-0.5"/>
                </g>
                <g id="arrowRight" xlink:href="#dirArrow" transform="rotate(90) translate(36 -43)" onmousedown="handlePan(1,0)">
                  <use xlink:href="#rim" fill="#404040">
                        <set attributeName="fill" to="#808080" begin="arrowRight.mouseover" end="arrowRight.mouseout"/>
                  </use>
                  <path fill="none" stroke="white" stroke-width="1.5" d="M0,-3.0v7 M-2.5,-0.5L0,-3.0L2.5,-0.5"/>
                </g>
                <g id="arrowDown" xlink:href="#dirArrow" transform="rotate(180) translate(-30 -48)" onmousedown="handlePan(0,1)">
                  <use xlink:href="#rim" fill="#404040">
                        <set attributeName="fill" to="#808080" begin="arrowDown.mouseover" end="arrowDown.mouseout"/>
                  </use>
                  <path fill="none" stroke="white" stroke-width="1.5" d="M0,-3.0v7 M-2.5,-0.5L0,-3.0L2.5,-0.5"/>
                </g>
                <g id="arrowLeft" xlink:href="#dirArrow" transform="rotate(270) translate(-36 17)" onmousedown="handlePan(-1,0)">
                  <use xlink:href="#rim" fill="#404040">
                        <set attributeName="fill" to="#808080" begin="arrowLeft.mouseover" end="arrowLeft.mouseout"/>
                  </use>
                  <path fill="none" stroke="white" stroke-width="1.5" d="M0,-3.0v7 M-2.5,-0.5L0,-3.0L2.5,-0.5"/>
                </g>
        </g>
        <svg viewBox="0 0 15 15" width="100%" height="30px" preserveAspectRatio="xMaxYMin meet">
         <g id="arrow_out" transform="scale(0.3 0.3)">
          <a xlink:href="group__xlat__functions_ga5459bd2d0c938435286adb222115ebfd_icgraph_org.svg" target="_base">
           <rect id="button" ry="5" rx="5" y="6" x="6" height="38" width="38"
                fill="#f2f5e9" fill-opacity="0.5" stroke="#606060" stroke-width="1.0"/>
           <path id="arrow"
             d="M 11.500037,31.436501 C 11.940474,20.09759 22.043105,11.32322 32.158766,21.979434 L 37.068811,17.246167 C 37.068811,17.246167 37.088388,32 37.088388,32 L 22.160133,31.978069 C 22.160133,31.978069 26.997745,27.140456 26.997745,27.140456 C 18.528582,18.264221 13.291696,25.230495 11.500037,31.436501 z"
             style="fill:#404040;"/>
          </a>
         </g>
        </svg>
</svg>
