<?xml version="1.0" encoding="UTF-8" standalone="no"?>
<!DOCTYPE svg PUBLIC "-//W3C//DTD SVG 1.1//EN"
 "http://www.w3.org/Graphics/SVG/1.1/DTD/svg11.dtd">
<!-- Generated by graphviz version 2.40.1 (20161225.0304)
 -->
<!-- Title: fr_hash_table_create Pages: 1 -->
<svg width="1125pt" height="966pt"
 viewBox="0.00 0.00 1125.00 966.00" xmlns="http://www.w3.org/2000/svg" xmlns:xlink="http://www.w3.org/1999/xlink">
<g id="graph0" class="graph" transform="scale(1 1) rotate(0) translate(4 962)">
<title>fr_hash_table_create</title>
<!-- Node3257 -->
<g id="node1" class="node">
<title>Node3257</title>
<polygon fill="#bfbfbf" stroke="#000000" points="0,-152.5 0,-171.5 107,-171.5 107,-152.5 0,-152.5"/>
<text text-anchor="middle" x="53.5" y="-159.5" font-family="Helvetica,sans-Serif" font-size="10.00" fill="#000000">fr_hash_table_create</text>
</g>
<!-- Node3258 -->
<g id="node2" class="node">
<title>Node3258</title>
<g id="a_node2"><a xlink:href="master_8c.html#a476d24efc125b68342506847dd091356" target="_top" xlink:title="Implement 99% of the read routines. ">
<polygon fill="none" stroke="#000000" points="179,-304.5 179,-323.5 238,-323.5 238,-304.5 179,-304.5"/>
<text text-anchor="middle" x="208.5" y="-311.5" font-family="Helvetica,sans-Serif" font-size="10.00" fill="#000000">mod_read</text>
</a>
</g>
</g>
<!-- Node3257&#45;&gt;Node3258 -->
<g id="edge1" class="edge">
<title>Node3257&#45;&gt;Node3258</title>
<path fill="none" stroke="#191970" d="M61.2337,-181.1535C73.9308,-210.1683 101.9525,-265.0466 143,-295 153.4253,-302.6076 166.8473,-307.1814 178.8241,-309.9256"/>
<polygon fill="#191970" stroke="#191970" points="64.3681,-179.5787 57.2535,-171.728 57.9195,-182.3019 64.3681,-179.5787"/>
</g>
<!-- Node3259 -->
<g id="node3" class="node">
<title>Node3259</title>
<g id="a_node3"><a xlink:href="master_8c.html#ad8f9c4ad92dff4465dac6c5a99cee2b7" target="_top" xlink:title="mod_write">
<polygon fill="none" stroke="#000000" points="177.5,-266.5 177.5,-285.5 239.5,-285.5 239.5,-266.5 177.5,-266.5"/>
<text text-anchor="middle" x="208.5" y="-273.5" font-family="Helvetica,sans-Serif" font-size="10.00" fill="#000000">mod_write</text>
</a>
</g>
</g>
<!-- Node3257&#45;&gt;Node3259 -->
<g id="edge2" class="edge">
<title>Node3257&#45;&gt;Node3259</title>
<path fill="none" stroke="#191970" d="M65.717,-179.9211C81.2402,-201.3466 110.014,-236.8322 143,-257 153.4048,-263.3616 166.0402,-267.6798 177.4269,-270.5691"/>
<polygon fill="#191970" stroke="#191970" points="68.5289,-177.8353 59.9019,-171.6852 62.8107,-181.8729 68.5289,-177.8353"/>
</g>
<!-- Node3260 -->
<g id="node4" class="node">
<title>Node3260</title>
<g id="a_node4"><a xlink:href="dict__util_8c.html#ab46a3d6073f1617a330e63720043db8f" target="_top" xlink:title="Initialise a per&#45;attribute namespace. ">
<polygon fill="none" stroke="#000000" points="146,-228.5 146,-247.5 271,-247.5 271,-228.5 146,-228.5"/>
<text text-anchor="middle" x="208.5" y="-235.5" font-family="Helvetica,sans-Serif" font-size="10.00" fill="#000000">dict_attr_namespace_init</text>
</a>
</g>
</g>
<!-- Node3257&#45;&gt;Node3260 -->
<g id="edge3" class="edge">
<title>Node3257&#45;&gt;Node3260</title>
<path fill="none" stroke="#191970" d="M76.7987,-177.0548C94.5143,-188.1236 119.7264,-203.078 143,-214 154.5118,-219.4024 167.5993,-224.4106 179.0332,-228.4391"/>
<polygon fill="#191970" stroke="#191970" points="78.5909,-174.047 68.2678,-171.6626 74.8508,-179.9641 78.5909,-174.047"/>
</g>
<!-- Node4324 -->
<g id="node36" class="node">
<title>Node4324</title>
<g id="a_node36"><a xlink:href="dict__util_8c.html#ad73381b24b5861e692a4bd5bee85f280" target="_top" xlink:title="dict_attr_enum_add_name">
<polygon fill="none" stroke="#ff0000" points="143,-76.5 143,-95.5 274,-95.5 274,-76.5 143,-76.5"/>
<text text-anchor="middle" x="208.5" y="-83.5" font-family="Helvetica,sans-Serif" font-size="10.00" fill="#000000">dict_attr_enum_add_name</text>
</a>
</g>
</g>
<!-- Node3257&#45;&gt;Node4324 -->
<g id="edge44" class="edge">
<title>Node3257&#45;&gt;Node4324</title>
<path fill="none" stroke="#191970" d="M76.7987,-146.9452C94.5143,-135.8764 119.7264,-120.922 143,-110 154.5118,-104.5976 167.5993,-99.5894 179.0332,-95.5609"/>
<polygon fill="#191970" stroke="#191970" points="74.8508,-144.0359 68.2678,-152.3374 78.5909,-149.953 74.8508,-144.0359"/>
</g>
<!-- Node4712 -->
<g id="node37" class="node">
<title>Node4712</title>
<g id="a_node37"><a xlink:href="dict__util_8c.html#a99277860278aad27241d46d0a1a80a59" target="_top" xlink:title="Allocate a new dictionary. ">
<polygon fill="none" stroke="#000000" points="561,-215.5 561,-234.5 619,-234.5 619,-215.5 561,-215.5"/>
<text text-anchor="middle" x="590" y="-222.5" font-family="Helvetica,sans-Serif" font-size="10.00" fill="#000000">dict_alloc</text>
</a>
</g>
</g>
<!-- Node3257&#45;&gt;Node4712 -->
<g id="edge45" class="edge">
<title>Node3257&#45;&gt;Node4712</title>
<path fill="none" stroke="#191970" d="M117.4024,-172.3624C125.9984,-173.6489 134.7081,-174.8976 143,-176 300.2913,-196.912 489.5873,-215.5051 560.9196,-222.2797"/>
<polygon fill="#191970" stroke="#191970" points="117.8079,-168.8839 107.3955,-170.8412 116.7559,-175.8044 117.8079,-168.8839"/>
</g>
<!-- Node4713 -->
<g id="node38" class="node">
<title>Node4713</title>
<g id="a_node38"><a xlink:href="dict__util_8c.html#a576424afb26db7b1dbdd765fe99b170b" target="_top" xlink:title="Initialise the global protocol hashes. ">
<polygon fill="none" stroke="#000000" points="699.5,-202.5 699.5,-221.5 810.5,-221.5 810.5,-202.5 699.5,-202.5"/>
<text text-anchor="middle" x="755" y="-209.5" font-family="Helvetica,sans-Serif" font-size="10.00" fill="#000000">fr_dict_global_ctx_init</text>
</a>
</g>
</g>
<!-- Node3257&#45;&gt;Node4713 -->
<g id="edge48" class="edge">
<title>Node3257&#45;&gt;Node4713</title>
<path fill="none" stroke="#191970" d="M117.5189,-162C176.5796,-162 266.7044,-162 345,-162 345,-162 345,-162 454.5,-162 552.0772,-162 665.0896,-187.9706 720.606,-202.4777"/>
<polygon fill="#191970" stroke="#191970" points="117.2259,-158.5001 107.2259,-162 117.2259,-165.5001 117.2259,-158.5001"/>
</g>
<!-- Node3375 -->
<g id="node40" class="node">
<title>Node3375</title>
<g id="a_node40"><a xlink:href="hash_8h.html#a2719b2d3eda3e8506d7d662917438596" target="_top" xlink:title="Hash a C string, converting all chars to lowercase. ">
<polygon fill="none" stroke="#000000" points="1013,-142.5 1013,-161.5 1117,-161.5 1117,-142.5 1013,-142.5"/>
<text text-anchor="middle" x="1065" y="-149.5" font-family="Helvetica,sans-Serif" font-size="10.00" fill="#000000">fr_hash_case_string</text>
</a>
</g>
</g>
<!-- Node3257&#45;&gt;Node3375 -->
<g id="edge56" class="edge">
<title>Node3257&#45;&gt;Node3375</title>
<path fill="none" stroke="#191970" d="M108.8231,-150.4456C167.25,-139.2656 262.1904,-124 345,-124 345,-124 345,-124 755,-124 845.9198,-124 951.2333,-136.0945 1012.7481,-144.3859"/>
<polygon fill="#191970" stroke="#191970" points="107.8536,-147.0684 98.7045,-152.411 109.1884,-153.94 107.8536,-147.0684"/>
</g>
<!-- Node3492 -->
<g id="node42" class="node">
<title>Node3492</title>
<g id="a_node42"><a xlink:href="rlm__detail_8c.html#a3c32864d8c9d017bf4625d54f415b2db" target="_top" xlink:title="mod_instantiate">
<polygon fill="none" stroke="#000000" points="165.5,-38.5 165.5,-57.5 251.5,-57.5 251.5,-38.5 165.5,-38.5"/>
<text text-anchor="middle" x="208.5" y="-45.5" font-family="Helvetica,sans-Serif" font-size="10.00" fill="#000000">mod_instantiate</text>
</a>
</g>
</g>
<!-- Node3257&#45;&gt;Node3492 -->
<g id="edge57" class="edge">
<title>Node3257&#45;&gt;Node3492</title>
<path fill="none" stroke="#191970" d="M65.717,-144.0789C81.2402,-122.6534 110.014,-87.1678 143,-67 149.7682,-62.8619 157.4802,-59.5884 165.1784,-57.0104"/>
<polygon fill="#191970" stroke="#191970" points="62.8107,-142.1271 59.9019,-152.3148 68.5289,-146.1647 62.8107,-142.1271"/>
</g>
<!-- Node4715 -->
<g id="node43" class="node">
<title>Node4715</title>
<g id="a_node43"><a xlink:href="rlm__isc__dhcp_8c.html#a66b12dbe01b7ed6985fbbd612f173643" target="_top" xlink:title="host NAME { ... ">
<polygon fill="none" stroke="#000000" points="176,-.5 176,-19.5 241,-19.5 241,-.5 176,-.5"/>
<text text-anchor="middle" x="208.5" y="-7.5" font-family="Helvetica,sans-Serif" font-size="10.00" fill="#000000">parse_host</text>
</a>
</g>
</g>
<!-- Node3257&#45;&gt;Node4715 -->
<g id="edge58" class="edge">
<title>Node3257&#45;&gt;Node4715</title>
<path fill="none" stroke="#191970" d="M61.2337,-142.8465C73.9308,-113.8317 101.9525,-58.9534 143,-29 152.5645,-22.0205 164.6512,-17.5946 175.8303,-14.7923"/>
<polygon fill="#191970" stroke="#191970" points="57.9195,-141.6981 57.2535,-152.272 64.3681,-144.4213 57.9195,-141.6981"/>
</g>
<!-- Node3261 -->
<g id="node5" class="node">
<title>Node3261</title>
<g id="a_node5"><a xlink:href="dict__util_8c.html#a0fdc97e0a12a818ad9b28c9b24aa164e" target="_top" xlink:title="Initialise fields in a dictionary attribute structure. ">
<polygon fill="none" stroke="#000000" points="310,-549.5 310,-568.5 380,-568.5 380,-549.5 310,-549.5"/>
<text text-anchor="middle" x="345" y="-556.5" font-family="Helvetica,sans-Serif" font-size="10.00" fill="#000000">dict_attr_init</text>
</a>
</g>
</g>
<!-- Node3260&#45;&gt;Node3261 -->
<g id="edge4" class="edge">
<title>Node3260&#45;&gt;Node3261</title>
<path fill="none" stroke="#191970" d="M269.5819,-252.9712C271.1447,-254.2111 272.624,-255.5513 274,-257 315.9152,-301.128 339.1583,-502.7086 344.0303,-549.348"/>
<polygon fill="#191970" stroke="#191970" points="271.4688,-250.0235 261.1615,-247.572 267.6903,-255.9161 271.4688,-250.0235"/>
</g>
<!-- Node3262 -->
<g id="node6" class="node">
<title>Node3262</title>
<g id="a_node6"><a xlink:href="dict__unknown_8c.html#a90679b49b110ead9cfe018020d3baec2" target="_top" xlink:title="Copy a known or unknown attribute to produce an unknown attribute with the specified name...">
<polygon fill="none" stroke="#000000" points="530.5,-748.5 530.5,-767.5 649.5,-767.5 649.5,-748.5 530.5,-748.5"/>
<text text-anchor="middle" x="590" y="-755.5" font-family="Helvetica,sans-Serif" font-size="10.00" fill="#000000">fr_dict_unknown_acopy</text>
</a>
</g>
</g>
<!-- Node3261&#45;&gt;Node3262 -->
<g id="edge5" class="edge">
<title>Node3261&#45;&gt;Node3262</title>
<path fill="none" stroke="#191970" d="M351.9992,-578.3871C362.329,-604.5773 383.9593,-651.2807 416,-680 455.6887,-715.5745 514.2775,-737.2537 552.2958,-748.4448"/>
<polygon fill="#191970" stroke="#191970" points="355.1937,-576.94 348.3754,-568.8307 348.6485,-579.422 355.1937,-576.94"/>
</g>
<!-- Node4696 -->
<g id="node18" class="node">
<title>Node4696</title>
<g id="a_node18"><a xlink:href="dict__unknown_8c.html#a591d647dfb1dd768232ed29aa4557723" target="_top" xlink:title="Create a fr_dict_attr_t from an ASCII attribute and value. ">
<polygon fill="none" stroke="#000000" points="696,-585 696,-615 814,-615 814,-585 696,-585"/>
<text text-anchor="start" x="704" y="-603" font-family="Helvetica,sans-Serif" font-size="10.00" fill="#000000">fr_dict_unknown_afrom</text>
<text text-anchor="middle" x="755" y="-592" font-family="Helvetica,sans-Serif" font-size="10.00" fill="#000000">_oid_str</text>
</a>
</g>
</g>
<!-- Node3261&#45;&gt;Node4696 -->
<g id="edge17" class="edge">
<title>Node3261&#45;&gt;Node4696</title>
<path fill="none" stroke="#191970" d="M368.0604,-574.2337C401.7424,-595.4763 467.1326,-632.9668 529,-647 581.879,-658.9944 598.8045,-661.686 651,-647 669.0502,-641.9213 670.1191,-633.1633 687,-625 694.3603,-621.4407 702.3668,-618.0771 710.2169,-615.0393"/>
<polygon fill="#191970" stroke="#191970" points="369.739,-571.1524 359.4304,-568.706 365.9634,-577.047 369.739,-571.1524"/>
</g>
<!-- Node4698 -->
<g id="node21" class="node">
<title>Node4698</title>
<g id="a_node21"><a xlink:href="dict__util_8c.html#a6681feeba02608bb815b94653b76193e" target="_top" xlink:title="Allocate a dictionary attribute on the heap. ">
<polygon fill="none" stroke="#000000" points="416,-443.5 416,-462.5 493,-462.5 493,-443.5 416,-443.5"/>
<text text-anchor="middle" x="454.5" y="-450.5" font-family="Helvetica,sans-Serif" font-size="10.00" fill="#000000">dict_attr_alloc</text>
</a>
</g>
</g>
<!-- Node3261&#45;&gt;Node4698 -->
<g id="edge21" class="edge">
<title>Node3261&#45;&gt;Node4698</title>
<path fill="none" stroke="#191970" d="M362.5355,-542.025C385.7113,-519.59 425.7778,-480.8041 444.4192,-462.7586"/>
<polygon fill="#191970" stroke="#191970" points="359.8558,-539.7477 355.1052,-549.2178 364.7246,-544.7772 359.8558,-539.7477"/>
</g>
<!-- Node3263 -->
<g id="node7" class="node">
<title>Node3263</title>
<g id="a_node7"><a xlink:href="protocols_2dhcpv4_2decode_8c.html#a96c1964055262f30ca00fb34d93b834e" target="_top" xlink:title="decode_value_internal">
<polygon fill="none" stroke="#ff0000" points="698.5,-938.5 698.5,-957.5 811.5,-957.5 811.5,-938.5 698.5,-938.5"/>
<text text-anchor="middle" x="755" y="-945.5" font-family="Helvetica,sans-Serif" font-size="10.00" fill="#000000">decode_value_internal</text>
</a>
</g>
</g>
<!-- Node3262&#45;&gt;Node3263 -->
<g id="edge6" class="edge">
<title>Node3262&#45;&gt;Node3263</title>
<path fill="none" stroke="#191970" d="M595.6138,-777.5851C606.8601,-813.2471 635.5866,-888.7976 687,-929 691.9246,-932.8508 697.5859,-935.9213 703.4948,-938.3697"/>
<polygon fill="#191970" stroke="#191970" points="598.9242,-776.44 592.679,-767.8815 592.2239,-778.4665 598.9242,-776.44"/>
</g>
<!-- Node4607 -->
<g id="node8" class="node">
<title>Node4607</title>
<g id="a_node8"><a xlink:href="tacacs_8h.html#a79512fe1c0884e107111ca7375c43424" target="_top" xlink:title="Decode a TACACS+ packet. ">
<polygon fill="none" stroke="#ff0000" points="708,-900.5 708,-919.5 802,-919.5 802,-900.5 708,-900.5"/>
<text text-anchor="middle" x="755" y="-907.5" font-family="Helvetica,sans-Serif" font-size="10.00" fill="#000000">fr_tacacs_decode</text>
</a>
</g>
</g>
<!-- Node3262&#45;&gt;Node4607 -->
<g id="edge7" class="edge">
<title>Node3262&#45;&gt;Node4607</title>
<path fill="none" stroke="#191970" d="M598.5936,-776.8239C612.7978,-805.8055 643.9411,-861.1252 687,-891 693.2441,-895.3322 700.4522,-898.6805 707.7912,-901.2673"/>
<polygon fill="#191970" stroke="#191970" points="601.7378,-775.2855 594.2841,-767.756 595.4154,-778.2903 601.7378,-775.2855"/>
</g>
<!-- Node4610 -->
<g id="node9" class="node">
<title>Node4610</title>
<g id="a_node9"><a xlink:href="tmpl__tokenize_8c.html#abc91c431a5c0fb0b490ec3fa60eba86e" target="_top" xlink:title="Copy a list of attribute and request references from one tmpl to another. ">
<polygon fill="none" stroke="#ff0000" points="714.5,-862.5 714.5,-881.5 795.5,-881.5 795.5,-862.5 714.5,-862.5"/>
<text text-anchor="middle" x="755" y="-869.5" font-family="Helvetica,sans-Serif" font-size="10.00" fill="#000000">tmpl_attr_copy</text>
</a>
</g>
</g>
<!-- Node3262&#45;&gt;Node4610 -->
<g id="edge8" class="edge">
<title>Node3262&#45;&gt;Node4610</title>
<path fill="none" stroke="#191970" d="M603.3199,-775.6528C620.3988,-797.0654 652.0164,-832.7965 687,-853 695.3857,-857.8428 705.0714,-861.5061 714.4563,-864.2566"/>
<polygon fill="#191970" stroke="#191970" points="606.026,-773.4312 597.1178,-767.6957 600.505,-777.7345 606.026,-773.4312"/>
</g>
<!-- Node4612 -->
<g id="node10" class="node">
<title>Node4612</title>
<g id="a_node10"><a xlink:href="tmpl__tokenize_8c.html#a19472cb8c47890aaddc6e4724e92967b" target="_top" xlink:title="Replace the current attribute reference. ">
<polygon fill="none" stroke="#ff0000" points="710.5,-824.5 710.5,-843.5 799.5,-843.5 799.5,-824.5 710.5,-824.5"/>
<text text-anchor="middle" x="755" y="-831.5" font-family="Helvetica,sans-Serif" font-size="10.00" fill="#000000">tmpl_attr_set_da</text>
</a>
</g>
</g>
<!-- Node3262&#45;&gt;Node4612 -->
<g id="edge9" class="edge">
<title>Node3262&#45;&gt;Node4612</title>
<path fill="none" stroke="#191970" d="M612.1695,-773.2772C631.2869,-785.8908 659.9974,-803.524 687,-815 695.5737,-818.6438 705.0499,-821.7987 714.1372,-824.4337"/>
<polygon fill="#191970" stroke="#191970" points="614.1094,-770.364 603.8533,-767.7064 610.2136,-776.1797 614.1094,-770.364"/>
</g>
<!-- Node4614 -->
<g id="node11" class="node">
<title>Node4614</title>
<g id="a_node11"><a xlink:href="tmpl__tokenize_8c.html#ad059121137bec2ae641f7174f5d484b6" target="_top" xlink:title="Replace the leaf attribute only. ">
<polygon fill="none" stroke="#ff0000" points="700,-786.5 700,-805.5 810,-805.5 810,-786.5 700,-786.5"/>
<text text-anchor="middle" x="755" y="-793.5" font-family="Helvetica,sans-Serif" font-size="10.00" fill="#000000">tmpl_attr_set_leaf_da</text>
</a>
</g>
</g>
<!-- Node3262&#45;&gt;Node4614 -->
<g id="edge10" class="edge">
<title>Node3262&#45;&gt;Node4614</title>
<path fill="none" stroke="#191970" d="M641.654,-769.8961C664.8465,-775.2374 691.8383,-781.4537 713.6629,-786.4799"/>
<polygon fill="#191970" stroke="#191970" points="642.1669,-766.4226 631.6365,-767.589 640.5959,-773.2441 642.1669,-766.4226"/>
</g>
<!-- Node4615 -->
<g id="node12" class="node">
<title>Node4615</title>
<g id="a_node12"><a xlink:href="tmpl__tokenize_8c.html#a4e8669c7278fecb0baf8cd14ece6e7cc" target="_top" xlink:title="attr_to_raw">
<polygon fill="none" stroke="#ff0000" points="722.5,-748.5 722.5,-767.5 787.5,-767.5 787.5,-748.5 722.5,-748.5"/>
<text text-anchor="middle" x="755" y="-755.5" font-family="Helvetica,sans-Serif" font-size="10.00" fill="#000000">attr_to_raw</text>
</a>
</g>
</g>
<!-- Node3262&#45;&gt;Node4615 -->
<g id="edge11" class="edge">
<title>Node3262&#45;&gt;Node4615</title>
<path fill="none" stroke="#191970" d="M659.7802,-758C681.516,-758 704.4588,-758 722.3767,-758"/>
<polygon fill="#191970" stroke="#191970" points="659.5688,-754.5001 649.5688,-758 659.5688,-761.5001 659.5688,-754.5001"/>
</g>
<!-- Node4645 -->
<g id="node14" class="node">
<title>Node4645</title>
<g id="a_node14"><a xlink:href="dict__unknown_8c.html#a736d5be7697c0f08d939dd7d40b1a000" target="_top" xlink:title="Allocates an unknown attribute. ">
<polygon fill="none" stroke="#ff0000" points="696,-536 696,-566 814,-566 814,-536 696,-536"/>
<text text-anchor="start" x="704" y="-554" font-family="Helvetica,sans-Serif" font-size="10.00" fill="#000000">fr_dict_unknown_afrom</text>
<text text-anchor="middle" x="755" y="-543" font-family="Helvetica,sans-Serif" font-size="10.00" fill="#000000">_fields</text>
</a>
</g>
</g>
<!-- Node3262&#45;&gt;Node4645 -->
<g id="edge13" class="edge">
<title>Node3262&#45;&gt;Node4645</title>
<path fill="none" stroke="#191970" d="M600.5016,-739.3406C612.811,-717.3666 633.7246,-679.7117 651,-647 667.5221,-615.7146 660.5631,-599.5126 687,-576 691.3234,-572.1548 696.2886,-568.8843 701.5254,-566.1061"/>
<polygon fill="#191970" stroke="#191970" points="597.3381,-737.8259 595.4953,-748.2592 603.4423,-741.2523 597.3381,-737.8259"/>
</g>
<!-- Node4665 -->
<g id="node15" class="node">
<title>Node4665</title>
<g id="a_node15"><a xlink:href="util_2pair_8h.html#a2897183dcbc65ef1b54619bd293fd735" target="_top" xlink:title="Dynamically allocate a new attribute and fill in the da field. ">
<polygon fill="none" stroke="#000000" points="710.5,-710.5 710.5,-729.5 799.5,-729.5 799.5,-710.5 710.5,-710.5"/>
<text text-anchor="middle" x="755" y="-717.5" font-family="Helvetica,sans-Serif" font-size="10.00" fill="#000000">fr_pair_afrom_da</text>
</a>
</g>
</g>
<!-- Node3262&#45;&gt;Node4665 -->
<g id="edge14" class="edge">
<title>Node3262&#45;&gt;Node4665</title>
<path fill="none" stroke="#191970" d="M641.654,-746.1039C664.8465,-740.7626 691.8383,-734.5463 713.6629,-729.5201"/>
<polygon fill="#191970" stroke="#191970" points="640.5959,-742.7559 631.6365,-748.411 642.1669,-749.5774 640.5959,-742.7559"/>
</g>
<!-- Node4666 -->
<g id="node16" class="node">
<title>Node4666</title>
<g id="a_node16"><a xlink:href="util_2pair_8h.html#aba344d7329bbf8b0904995129709748c" target="_top" xlink:title="Copy a single valuepair. ">
<polygon fill="none" stroke="#ff0000" points="720,-672.5 720,-691.5 790,-691.5 790,-672.5 720,-672.5"/>
<text text-anchor="middle" x="755" y="-679.5" font-family="Helvetica,sans-Serif" font-size="10.00" fill="#000000">fr_pair_copy</text>
</a>
</g>
</g>
<!-- Node3262&#45;&gt;Node4666 -->
<g id="edge15" class="edge">
<title>Node3262&#45;&gt;Node4666</title>
<path fill="none" stroke="#191970" d="M612.1695,-742.7228C631.2869,-730.1092 659.9974,-712.476 687,-701 697.3787,-696.5891 709.0799,-692.8947 719.8127,-689.9714"/>
<polygon fill="#191970" stroke="#191970" points="610.2136,-739.8203 603.8533,-748.2936 614.1094,-745.636 610.2136,-739.8203"/>
</g>
<!-- Node4695 -->
<g id="node17" class="node">
<title>Node4695</title>
<g id="a_node17"><a xlink:href="util_2pair_8h.html#aa19ccf8fc7acd3ee17f11a4bebba17ae" target="_top" xlink:title="Steal one VP. ">
<polygon fill="none" stroke="#ff0000" points="720,-634.5 720,-653.5 790,-653.5 790,-634.5 720,-634.5"/>
<text text-anchor="middle" x="755" y="-641.5" font-family="Helvetica,sans-Serif" font-size="10.00" fill="#000000">fr_pair_steal</text>
</a>
</g>
</g>
<!-- Node3262&#45;&gt;Node4695 -->
<g id="edge16" class="edge">
<title>Node3262&#45;&gt;Node4695</title>
<path fill="none" stroke="#191970" d="M603.3199,-740.3472C620.3988,-718.9346 652.0164,-683.2035 687,-663 696.9779,-657.2376 708.7964,-653.1453 719.7587,-650.2735"/>
<polygon fill="#191970" stroke="#191970" points="600.505,-738.2655 597.1178,-748.3043 606.026,-742.5688 600.505,-738.2655"/>
</g>
<!-- Node4616 -->
<g id="node13" class="node">
<title>Node4616</title>
<g id="a_node13"><a xlink:href="tmpl__tokenize_8c.html#afdbd075c17ad412bf99489ac7b0445db" target="_top" xlink:title="Resolve an unresolved attribute. ">
<polygon fill="none" stroke="#ff0000" points="872,-713.5 872,-732.5 964,-732.5 964,-713.5 872,-713.5"/>
<text text-anchor="middle" x="918" y="-720.5" font-family="Helvetica,sans-Serif" font-size="10.00" fill="#000000">tmpl_attr_resolve</text>
</a>
</g>
</g>
<!-- Node4615&#45;&gt;Node4616 -->
<g id="edge12" class="edge">
<title>Node4615&#45;&gt;Node4616</title>
<path fill="none" stroke="#191970" d="M797.5897,-748.855C821.0152,-743.825 850.0446,-737.5917 873.7303,-732.5058"/>
<polygon fill="#191970" stroke="#191970" points="796.6361,-745.4799 787.5937,-751.0013 798.1057,-752.3239 796.6361,-745.4799"/>
</g>
<!-- Node4696&#45;&gt;Node4616 -->
<g id="edge18" class="edge">
<title>Node4696&#45;&gt;Node4616</title>
<path fill="none" stroke="#191970" d="M813.2914,-619.3801C816.6556,-621.1243 819.9191,-622.9963 823,-625 861.7356,-650.1919 896.5804,-693.8666 910.9868,-713.25"/>
<polygon fill="#191970" stroke="#191970" points="814.7409,-616.1938 804.207,-615.0587 811.7338,-622.5151 814.7409,-616.1938"/>
</g>
<!-- Node4697 -->
<g id="node19" class="node">
<title>Node4697</title>
<g id="a_node19"><a xlink:href="dict__unknown_8c.html#a82199ef0aef47946df804cc8faeee7b8" target="_top" xlink:title="Create a dictionary attribute by name embedded in another string. ">
<polygon fill="none" stroke="#ff0000" points="859,-607 859,-637 977,-637 977,-607 859,-607"/>
<text text-anchor="start" x="867" y="-625" font-family="Helvetica,sans-Serif" font-size="10.00" fill="#000000">fr_dict_unknown_afrom</text>
<text text-anchor="middle" x="918" y="-614" font-family="Helvetica,sans-Serif" font-size="10.00" fill="#000000">_oid_substr</text>
</a>
</g>
</g>
<!-- Node4696&#45;&gt;Node4697 -->
<g id="edge19" class="edge">
<title>Node4696&#45;&gt;Node4697</title>
<path fill="none" stroke="#191970" d="M824.2772,-609.3503C835.7453,-610.8981 847.5437,-612.4906 858.7363,-614.0012"/>
<polygon fill="#191970" stroke="#191970" points="824.6862,-605.8738 814.3078,-608.0047 823.7498,-612.8109 824.6862,-605.8738"/>
</g>
<!-- Node4288 -->
<g id="node20" class="node">
<title>Node4288</title>
<g id="a_node20"><a xlink:href="pair__legacy_8c.html#aef4b803056679df01b49d62f204ef4c5" target="_top" xlink:title="Create a valuepair from an ASCII attribute and value. ">
<polygon fill="none" stroke="#ff0000" points="859.5,-568.5 859.5,-587.5 976.5,-587.5 976.5,-568.5 859.5,-568.5"/>
<text text-anchor="middle" x="918" y="-575.5" font-family="Helvetica,sans-Serif" font-size="10.00" fill="#000000">fr_pair_make_unknown</text>
</a>
</g>
</g>
<!-- Node4696&#45;&gt;Node4288 -->
<g id="edge20" class="edge">
<title>Node4696&#45;&gt;Node4288</title>
<path fill="none" stroke="#191970" d="M824.404,-590.6326C836.0188,-589.0649 847.9688,-587.4521 859.2819,-585.9251"/>
<polygon fill="#191970" stroke="#191970" points="823.7498,-587.1891 814.3078,-591.9953 824.6862,-594.1262 823.7498,-587.1891"/>
</g>
<!-- Node4698&#45;&gt;Node4645 -->
<g id="edge38" class="edge">
<title>Node4698&#45;&gt;Node4645</title>
<path fill="none" stroke="#191970" d="M480.9233,-467.2265C494.9389,-474.3964 512.6085,-482.85 529,-489 584.2346,-509.7238 649.4032,-526.862 695.5323,-537.8279"/>
<polygon fill="#191970" stroke="#191970" points="482.351,-464.0239 471.8646,-462.5119 479.1193,-470.2333 482.351,-464.0239"/>
</g>
<!-- Node4699 -->
<g id="node22" class="node">
<title>Node4699</title>
<g id="a_node22"><a xlink:href="dict__tokenize_8c.html#affb1e41088cd2a1c2b3958c6dbcff634" target="_top" xlink:title="Set a new root dictionary attribute. ">
<polygon fill="none" stroke="#000000" points="553.5,-291.5 553.5,-310.5 626.5,-310.5 626.5,-291.5 553.5,-291.5"/>
<text text-anchor="middle" x="590" y="-298.5" font-family="Helvetica,sans-Serif" font-size="10.00" fill="#000000">dict_root_set</text>
</a>
</g>
</g>
<!-- Node4698&#45;&gt;Node4699 -->
<g id="edge22" class="edge">
<title>Node4698&#45;&gt;Node4699</title>
<path fill="none" stroke="#191970" d="M460.2306,-433.5815C469.7644,-404.6227 491.624,-350.2908 529,-320 535.9801,-314.3431 544.65,-310.3637 553.2416,-307.5668"/>
<polygon fill="#191970" stroke="#191970" points="456.8247,-432.7458 457.1735,-443.3349 463.5043,-434.8395 456.8247,-432.7458"/>
</g>
<!-- Node3765 -->
<g id="node24" class="node">
<title>Node3765</title>
<g id="a_node24"><a xlink:href="dict__tokenize_8c.html#a74698cc3d378776c6361c68feb9a1d44" target="_top" xlink:title="Parse a dictionary file. ">
<polygon fill="none" stroke="#ff0000" points="878,-354.5 878,-373.5 958,-373.5 958,-354.5 878,-354.5"/>
<text text-anchor="middle" x="918" y="-361.5" font-family="Helvetica,sans-Serif" font-size="10.00" fill="#000000">_dict_from_file</text>
</a>
</g>
</g>
<!-- Node4698&#45;&gt;Node3765 -->
<g id="edge32" class="edge">
<title>Node4698&#45;&gt;Node3765</title>
<path fill="none" stroke="#191970" d="M470.8549,-435.966C484.8918,-422.5501 506.3865,-404.7082 529,-396 591.8409,-371.8007 791.5748,-365.8886 877.7661,-364.4546"/>
<polygon fill="#191970" stroke="#191970" points="468.1417,-433.7272 463.5,-443.2511 473.0678,-438.7005 468.1417,-433.7272"/>
</g>
<!-- Node3767 -->
<g id="node25" class="node">
<title>Node3767</title>
<g id="a_node25"><a xlink:href="dict__tokenize_8c.html#ae98f71191d8ea9adb33f28300f1bf240" target="_top" xlink:title="(Re&#45;)Initialize the special internal dictionary ">
<polygon fill="none" stroke="#ff0000" points="691,-253.5 691,-272.5 819,-272.5 819,-253.5 691,-253.5"/>
<text text-anchor="middle" x="755" y="-260.5" font-family="Helvetica,sans-Serif" font-size="10.00" fill="#000000">fr_dict_internal_afrom_file</text>
</a>
</g>
</g>
<!-- Node4698&#45;&gt;Node3767 -->
<g id="edge33" class="edge">
<title>Node4698&#45;&gt;Node3767</title>
<path fill="none" stroke="#191970" d="M456.6554,-433.1446C461.8051,-396.4 478.4331,-318.2452 529,-282 580.0442,-245.4127 655.2129,-247.0411 704.63,-253.4675"/>
<polygon fill="#191970" stroke="#191970" points="453.1753,-432.7679 455.4009,-443.1264 460.1207,-433.6409 453.1753,-432.7679"/>
</g>
<!-- Node4700 -->
<g id="node30" class="node">
<title>Node4700</title>
<g id="a_node30"><a xlink:href="dict__tokenize_8c.html#ad64628933f5656db0d2b3d4ec4e1aa66" target="_top" xlink:title="dict_read_process_alias">
<polygon fill="none" stroke="#000000" points="529,-329.5 529,-348.5 651,-348.5 651,-329.5 529,-329.5"/>
<text text-anchor="middle" x="590" y="-336.5" font-family="Helvetica,sans-Serif" font-size="10.00" fill="#000000">dict_read_process_alias</text>
</a>
</g>
</g>
<!-- Node4698&#45;&gt;Node4700 -->
<g id="edge30" class="edge">
<title>Node4698&#45;&gt;Node4700</title>
<path fill="none" stroke="#191970" d="M465.5987,-434.6857C478.5744,-414.6384 501.7764,-382.7282 529,-363 537.2937,-356.9898 547.2952,-352.2392 556.7787,-348.6054"/>
<polygon fill="#191970" stroke="#191970" points="462.5907,-432.8943 460.2278,-443.2223 468.5156,-436.622 462.5907,-432.8943"/>
</g>
<!-- Node4701 -->
<g id="node31" class="node">
<title>Node4701</title>
<g id="a_node31"><a xlink:href="dict__unknown_8c.html#a7086f0a988994eb1649c20278c798d57" target="_top" xlink:title="Converts an unknown to a known by adding it to the internal dictionaries. ">
<polygon fill="none" stroke="#ff0000" points="700.5,-443.5 700.5,-462.5 809.5,-462.5 809.5,-443.5 700.5,-443.5"/>
<text text-anchor="middle" x="755" y="-450.5" font-family="Helvetica,sans-Serif" font-size="10.00" fill="#000000">fr_dict_unknown_add</text>
</a>
</g>
</g>
<!-- Node4698&#45;&gt;Node4701 -->
<g id="edge34" class="edge">
<title>Node4698&#45;&gt;Node4701</title>
<path fill="none" stroke="#191970" d="M494.4547,-465.1416C505.5357,-467.9724 517.6432,-470.5746 529,-472 582.8001,-478.7524 596.9989,-476.8923 651,-472 671.4731,-470.1452 693.9385,-466.2766 712.7342,-462.5114"/>
<polygon fill="#191970" stroke="#191970" points="495.1831,-461.7133 484.6178,-462.5048 493.3707,-468.4746 495.1831,-461.7133"/>
</g>
<!-- Node4703 -->
<g id="node32" class="node">
<title>Node4703</title>
<g id="a_node32"><a xlink:href="dict__unknown_8c.html#ab37cbda91e1af968176eb5d23868282a" target="_top" xlink:title="Build an unknown vendor, parented by a VSA attribute. ">
<polygon fill="none" stroke="#ff0000" points="529,-558 529,-588 651,-588 651,-558 529,-558"/>
<text text-anchor="start" x="537" y="-576" font-family="Helvetica,sans-Serif" font-size="10.00" fill="#000000">fr_dict_unknown_vendor</text>
<text text-anchor="middle" x="590" y="-565" font-family="Helvetica,sans-Serif" font-size="10.00" fill="#000000">_afrom_num</text>
</a>
</g>
</g>
<!-- Node4698&#45;&gt;Node4703 -->
<g id="edge35" class="edge">
<title>Node4698&#45;&gt;Node4703</title>
<path fill="none" stroke="#191970" d="M465.9096,-470.9033C479.1624,-490.5844 502.6103,-522.1696 529,-543 536.2256,-548.7034 544.711,-553.7164 553.0177,-557.9301"/>
<polygon fill="#191970" stroke="#191970" points="468.8277,-468.9706 460.4089,-462.5382 462.9789,-472.8167 468.8277,-468.9706"/>
</g>
<!-- Node4705 -->
<g id="node33" class="node">
<title>Node4705</title>
<g id="a_node33"><a xlink:href="dict__unknown_8c.html#acbac066f62ea93bac2dee18970af6ded" target="_top" xlink:title="Initialise a fr_dict_attr_t from an ASCII attribute and value. ">
<polygon fill="none" stroke="#ff0000" points="536.5,-607 536.5,-637 643.5,-637 643.5,-607 536.5,-607"/>
<text text-anchor="start" x="544.5" y="-625" font-family="Helvetica,sans-Serif" font-size="10.00" fill="#000000">fr_dict_unknown_attr</text>
<text text-anchor="middle" x="590" y="-614" font-family="Helvetica,sans-Serif" font-size="10.00" fill="#000000">_afrom_num</text>
</a>
</g>
</g>
<!-- Node4698&#45;&gt;Node4705 -->
<g id="edge39" class="edge">
<title>Node4698&#45;&gt;Node4705</title>
<path fill="none" stroke="#191970" d="M459.6481,-472.4859C468.7088,-503.2056 490.3111,-562.9909 529,-598 532.7973,-601.4361 537.1445,-604.4059 541.7309,-606.9669"/>
<polygon fill="#191970" stroke="#191970" points="462.9408,-471.2652 456.8689,-462.5829 456.2011,-473.1566 462.9408,-471.2652"/>
</g>
<!-- Node4706 -->
<g id="node34" class="node">
<title>Node4706</title>
<g id="a_node34"><a xlink:href="dict__util_8c.html#a43c978ddea26ae00d888453ba3d83a5b" target="_top" xlink:title="Copy a an existing attribute. ">
<polygon fill="none" stroke="#ff0000" points="548.5,-443.5 548.5,-462.5 631.5,-462.5 631.5,-443.5 548.5,-443.5"/>
<text text-anchor="middle" x="590" y="-450.5" font-family="Helvetica,sans-Serif" font-size="10.00" fill="#000000">dict_attr_acopy</text>
</a>
</g>
</g>
<!-- Node4698&#45;&gt;Node4706 -->
<g id="edge41" class="edge">
<title>Node4698&#45;&gt;Node4706</title>
<path fill="none" stroke="#191970" d="M503.717,-453C518.346,-453 534.2238,-453 548.3237,-453"/>
<polygon fill="#191970" stroke="#191970" points="503.3289,-449.5001 493.3289,-453 503.3288,-456.5001 503.3289,-449.5001"/>
</g>
<!-- Node4708 -->
<g id="node35" class="node">
<title>Node4708</title>
<g id="a_node35"><a xlink:href="dict__util_8c.html#a533db46e6ba4395f0840eccc3e7062ad" target="_top" xlink:title="Add an attribute to the dictionary. ">
<polygon fill="none" stroke="#ff0000" points="548,-405.5 548,-424.5 632,-424.5 632,-405.5 548,-405.5"/>
<text text-anchor="middle" x="590" y="-412.5" font-family="Helvetica,sans-Serif" font-size="10.00" fill="#000000">fr_dict_attr_add</text>
</a>
</g>
</g>
<!-- Node4698&#45;&gt;Node4708 -->
<g id="edge42" class="edge">
<title>Node4698&#45;&gt;Node4708</title>
<path fill="none" stroke="#191970" d="M498.4246,-440.6817C517.0414,-435.4607 538.4087,-429.4684 555.8186,-424.5859"/>
<polygon fill="#191970" stroke="#191970" points="497.3758,-437.3407 488.6924,-443.411 499.266,-444.0807 497.3758,-437.3407"/>
</g>
<!-- Node4131 -->
<g id="node23" class="node">
<title>Node4131</title>
<g id="a_node23"><a xlink:href="dict__tokenize_8c.html#ae72e9af64b5a48bffa396c84f59f6b1f" target="_top" xlink:title="Register the specified dictionary as a protocol dictionary. ">
<polygon fill="none" stroke="#000000" points="687,-291.5 687,-310.5 823,-310.5 823,-291.5 687,-291.5"/>
<text text-anchor="middle" x="755" y="-298.5" font-family="Helvetica,sans-Serif" font-size="10.00" fill="#000000">dict_read_process_protocol</text>
</a>
</g>
</g>
<!-- Node4699&#45;&gt;Node4131 -->
<g id="edge23" class="edge">
<title>Node4699&#45;&gt;Node4131</title>
<path fill="none" stroke="#191970" d="M637.0083,-301C652.5457,-301 670.1582,-301 686.9467,-301"/>
<polygon fill="#191970" stroke="#191970" points="636.6189,-297.5001 626.6188,-301 636.6188,-304.5001 636.6189,-297.5001"/>
</g>
<!-- Node4699&#45;&gt;Node3767 -->
<g id="edge25" class="edge">
<title>Node4699&#45;&gt;Node3767</title>
<path fill="none" stroke="#191970" d="M636.6444,-290.2576C660.8423,-284.6848 690.1496,-277.9352 713.5466,-272.5468"/>
<polygon fill="#191970" stroke="#191970" points="635.5782,-286.9115 626.6188,-292.5666 637.1493,-293.7329 635.5782,-286.9115"/>
</g>
<!-- Node4131&#45;&gt;Node3765 -->
<g id="edge24" class="edge">
<title>Node4131&#45;&gt;Node3765</title>
<path fill="none" stroke="#191970" d="M794.6928,-313.9102C804.0775,-317.2638 813.9768,-321.0519 823,-325 839.5745,-332.2523 842.3806,-336.8512 859,-344 867.8425,-347.8036 877.6677,-351.3798 886.7236,-354.427"/>
<polygon fill="#191970" stroke="#191970" points="795.7522,-310.573 785.1574,-310.5843 793.4468,-317.1825 795.7522,-310.573"/>
</g>
<!-- Node3768 -->
<g id="node26" class="node">
<title>Node3768</title>
<g id="a_node26"><a xlink:href="fuzzer_8c.html#aa30889313cc057073351a87b2590b886" target="_top" xlink:title="LLVMFuzzerInitialize">
<polygon fill="none" stroke="#ff0000" points="864,-266.5 864,-285.5 972,-285.5 972,-266.5 864,-266.5"/>
<text text-anchor="middle" x="918" y="-273.5" font-family="Helvetica,sans-Serif" font-size="10.00" fill="#000000">LLVMFuzzerInitialize</text>
</a>
</g>
</g>
<!-- Node3767&#45;&gt;Node3768 -->
<g id="edge26" class="edge">
<title>Node3767&#45;&gt;Node3768</title>
<path fill="none" stroke="#191970" d="M829.4974,-268.9415C841.0446,-269.8625 852.7808,-270.7985 863.7694,-271.6749"/>
<polygon fill="#191970" stroke="#191970" points="829.6686,-265.4441 819.4219,-268.1379 829.112,-272.422 829.6686,-265.4441"/>
</g>
<!-- Node3771 -->
<g id="node27" class="node">
<title>Node3771</title>
<g id="a_node27"><a xlink:href="unit__test__attribute_8c.html#a7d65c206c39ad689c8a1c844ff3d586f" target="_top" xlink:title="command_ctx_alloc">
<polygon fill="none" stroke="#000000" points="866,-228.5 866,-247.5 970,-247.5 970,-228.5 866,-228.5"/>
<text text-anchor="middle" x="918" y="-235.5" font-family="Helvetica,sans-Serif" font-size="10.00" fill="#000000">command_ctx_alloc</text>
</a>
</g>
</g>
<!-- Node3767&#45;&gt;Node3771 -->
<g id="edge27" class="edge">
<title>Node3767&#45;&gt;Node3771</title>
<path fill="none" stroke="#191970" d="M827.012,-251.9552C840.1033,-249.9474 853.5256,-247.8887 865.9031,-245.9903"/>
<polygon fill="#191970" stroke="#191970" points="826.4421,-248.5016 817.0883,-253.4773 827.5034,-255.4207 826.4421,-248.5016"/>
</g>
<!-- Node3774 -->
<g id="node29" class="node">
<title>Node3774</title>
<g id="a_node29"><a xlink:href="dict_8h.html#ab4abf3bf9320fe063c8031c515daf937" target="_top" xlink:title="Return true if this attribute is parented directly off the dictionary root. ">
<polygon fill="none" stroke="#ff0000" points="870.5,-305 870.5,-335 965.5,-335 965.5,-305 870.5,-305"/>
<text text-anchor="start" x="878.5" y="-323" font-family="Helvetica,sans-Serif" font-size="10.00" fill="#000000">fr_dict_attr_is_top</text>
<text text-anchor="middle" x="918" y="-312" font-family="Helvetica,sans-Serif" font-size="10.00" fill="#000000">_level</text>
</a>
</g>
</g>
<!-- Node3767&#45;&gt;Node3774 -->
<g id="edge29" class="edge">
<title>Node3767&#45;&gt;Node3774</title>
<path fill="none" stroke="#191970" d="M801.6142,-275.3036C808.8145,-277.4115 816.1355,-279.6757 823,-282 843.022,-288.7795 864.9574,-297.4672 882.7009,-304.8242"/>
<polygon fill="#191970" stroke="#191970" points="802.5013,-271.9171 791.9245,-272.5353 800.5783,-278.6478 802.5013,-271.9171"/>
</g>
<!-- Node3772 -->
<g id="node28" class="node">
<title>Node3772</title>
<g id="a_node28"><a xlink:href="unit__test__attribute_8c.html#a88738939cd10cc13f6addaf99b88e53d" target="_top" xlink:title="process_file">
<polygon fill="none" stroke="#ff0000" points="1030.5,-199.5 1030.5,-218.5 1099.5,-218.5 1099.5,-199.5 1030.5,-199.5"/>
<text text-anchor="middle" x="1065" y="-206.5" font-family="Helvetica,sans-Serif" font-size="10.00" fill="#000000">process_file</text>
</a>
</g>
</g>
<!-- Node3771&#45;&gt;Node3772 -->
<g id="edge28" class="edge">
<title>Node3771&#45;&gt;Node3772</title>
<path fill="none" stroke="#191970" d="M976.5344,-226.4524C994.8168,-222.8457 1014.3892,-218.9844 1030.4639,-215.8132"/>
<polygon fill="#191970" stroke="#191970" points="975.6742,-223.0546 966.5407,-228.4239 977.0291,-229.9222 975.6742,-223.0546"/>
</g>
<!-- Node4700&#45;&gt;Node3765 -->
<g id="edge31" class="edge">
<title>Node4700&#45;&gt;Node3765</title>
<path fill="none" stroke="#191970" d="M661.6718,-344.4628C727.8996,-349.5106 823.9234,-356.8295 877.6736,-360.9263"/>
<polygon fill="#191970" stroke="#191970" points="661.5466,-340.9432 651.3095,-343.673 661.0146,-347.9229 661.5466,-340.9432"/>
</g>
<!-- Node4703&#45;&gt;Node4645 -->
<g id="edge36" class="edge">
<title>Node4703&#45;&gt;Node4645</title>
<path fill="none" stroke="#191970" d="M661.4633,-563.4716C672.9811,-561.9359 684.7912,-560.3612 695.9737,-558.8702"/>
<polygon fill="#191970" stroke="#191970" points="660.8896,-560.017 651.4399,-564.808 661.8148,-566.9556 660.8896,-560.017"/>
</g>
<!-- Node4703&#45;&gt;Node4696 -->
<g id="edge37" class="edge">
<title>Node4703&#45;&gt;Node4696</title>
<path fill="none" stroke="#191970" d="M661.4633,-584.694C672.9811,-586.5787 684.7912,-588.5113 695.9737,-590.3411"/>
<polygon fill="#191970" stroke="#191970" points="661.8739,-581.2147 651.4399,-583.0538 660.7434,-588.1228 661.8739,-581.2147"/>
</g>
<!-- Node4705&#45;&gt;Node4696 -->
<g id="edge40" class="edge">
<title>Node4705&#45;&gt;Node4696</title>
<path fill="none" stroke="#191970" d="M653.569,-613.5241C667.5188,-611.6642 682.232,-609.7024 695.9937,-607.8675"/>
<polygon fill="#191970" stroke="#191970" points="653.0204,-610.0662 643.5708,-614.8572 653.9457,-617.0048 653.0204,-610.0662"/>
</g>
<!-- Node4708&#45;&gt;Node4701 -->
<g id="edge43" class="edge">
<title>Node4708&#45;&gt;Node4701</title>
<path fill="none" stroke="#191970" d="M641.654,-426.8961C664.8465,-432.2374 691.8383,-438.4537 713.6629,-443.4799"/>
<polygon fill="#191970" stroke="#191970" points="642.1669,-423.4226 631.6365,-424.589 640.5959,-430.2441 642.1669,-423.4226"/>
</g>
<!-- Node4712&#45;&gt;Node4131 -->
<g id="edge46" class="edge">
<title>Node4712&#45;&gt;Node4131</title>
<path fill="none" stroke="#191970" d="M612.1695,-240.2772C631.2869,-252.8908 659.9974,-270.524 687,-282 695.5737,-285.6438 705.0499,-288.7987 714.1372,-291.4337"/>
<polygon fill="#191970" stroke="#191970" points="614.1094,-237.364 603.8533,-234.7064 610.2136,-243.1797 614.1094,-237.364"/>
</g>
<!-- Node4712&#45;&gt;Node3767 -->
<g id="edge47" class="edge">
<title>Node4712&#45;&gt;Node3767</title>
<path fill="none" stroke="#191970" d="M629.1444,-234.0151C654.5495,-239.866 687.6168,-247.4814 713.4809,-253.438"/>
<polygon fill="#191970" stroke="#191970" points="629.6493,-230.5398 619.1189,-231.7062 628.0783,-237.3612 629.6493,-230.5398"/>
</g>
<!-- Node4713&#45;&gt;Node3768 -->
<g id="edge49" class="edge">
<title>Node4713&#45;&gt;Node3768</title>
<path fill="none" stroke="#191970" d="M784.667,-225.748C805.3035,-235.0854 833.5678,-247.4285 859,-257 867.7621,-260.2977 877.3829,-263.5483 886.2667,-266.4031"/>
<polygon fill="#191970" stroke="#191970" points="786.029,-222.5224 775.4778,-221.5608 783.1264,-228.8923 786.029,-222.5224"/>
</g>
<!-- Node4713&#45;&gt;Node3771 -->
<g id="edge52" class="edge">
<title>Node4713&#45;&gt;Node3771</title>
<path fill="none" stroke="#191970" d="M820.8731,-222.5074C835.8619,-224.8982 851.5834,-227.4059 865.9058,-229.6905"/>
<polygon fill="#191970" stroke="#191970" points="821.066,-218.994 810.6395,-220.875 819.9633,-225.9066 821.066,-218.994"/>
</g>
<!-- Node4713&#45;&gt;Node3774 -->
<g id="edge55" class="edge">
<title>Node4713&#45;&gt;Node3774</title>
<path fill="none" stroke="#191970" d="M792.7666,-225.5892C803.22,-230.4214 814.1222,-236.5528 823,-244 844.2564,-261.831 837.3996,-277.5874 859,-295 863.6769,-298.7702 869.006,-302.0622 874.5039,-304.91"/>
<polygon fill="#191970" stroke="#191970" points="793.9309,-222.2794 783.3636,-221.5162 791.1485,-228.7027 793.9309,-222.2794"/>
</g>
<!-- Node3314 -->
<g id="node39" class="node">
<title>Node3314</title>
<g id="a_node39"><a xlink:href="radclient_8c.html#a3c04138a5bfe5d72780bb7e82a18e627" target="_top" xlink:title="main">
<polygon fill="none" stroke="#ff0000" points="899,-152.5 899,-171.5 937,-171.5 937,-152.5 899,-152.5"/>
<text text-anchor="middle" x="918" y="-159.5" font-family="Helvetica,sans-Serif" font-size="10.00" fill="#000000">main</text>
</a>
</g>
</g>
<!-- Node4713&#45;&gt;Node3314 -->
<g id="edge50" class="edge">
<title>Node4713&#45;&gt;Node3314</title>
<path fill="none" stroke="#191970" d="M795.8473,-199.4702C828.7843,-189.3668 873.629,-175.6108 898.8075,-167.8873"/>
<polygon fill="#191970" stroke="#191970" points="794.5766,-196.1989 786.0427,-202.4777 796.6295,-202.8911 794.5766,-196.1989"/>
</g>
<!-- Node4714 -->
<g id="node41" class="node">
<title>Node4714</title>
<g id="a_node41"><a xlink:href="unit__test__attribute_8c.html#a3a2641ca5061e45a2f3605765c85df9a" target="_top" xlink:title="command_ctx_reset">
<polygon fill="none" stroke="#000000" points="865.5,-190.5 865.5,-209.5 970.5,-209.5 970.5,-190.5 865.5,-190.5"/>
<text text-anchor="middle" x="918" y="-197.5" font-family="Helvetica,sans-Serif" font-size="10.00" fill="#000000">command_ctx_reset</text>
</a>
</g>
</g>
<!-- Node4713&#45;&gt;Node4714 -->
<g id="edge53" class="edge">
<title>Node4713&#45;&gt;Node4714</title>
<path fill="none" stroke="#191970" d="M820.7661,-207.1583C835.597,-206.0665 851.1504,-204.9214 865.3599,-203.8753"/>
<polygon fill="#191970" stroke="#191970" points="820.3555,-203.679 810.6395,-207.9038 820.8695,-210.6601 820.3555,-203.679"/>
</g>
<!-- Node3314&#45;&gt;Node3375 -->
<g id="edge51" class="edge">
<title>Node3314&#45;&gt;Node3375</title>
<path fill="none" stroke="#191970" d="M947.2085,-160.013C965.9486,-158.7382 990.8147,-157.0466 1012.8694,-155.5463"/>
<polygon fill="#191970" stroke="#191970" points="946.957,-156.5219 937.2177,-160.6927 947.4322,-163.5058 946.957,-156.5219"/>
</g>
<!-- Node4714&#45;&gt;Node3772 -->
<g id="edge54" class="edge">
<title>Node4714&#45;&gt;Node3772</title>
<path fill="none" stroke="#191970" d="M981.012,-203.8579C997.8535,-204.889 1015.4451,-205.966 1030.1514,-206.8664"/>
<polygon fill="#191970" stroke="#191970" points="980.8504,-200.3415 970.6552,-203.2238 980.4226,-207.3284 980.8504,-200.3415"/>
</g>
</g>
</svg>
