<?xml version="1.0" encoding="UTF-8" standalone="no"?>
<!DOCTYPE svg PUBLIC "-//W3C//DTD SVG 1.1//EN"
 "http://www.w3.org/Graphics/SVG/1.1/DTD/svg11.dtd">
<!-- Generated by graphviz version 2.40.1 (20161225.0304)
 -->
<!-- Title: fr_hash_table_walk Pages: 1 -->
<!--zoomable 178 -->
<svg id="main" version="1.1" xmlns="http://www.w3.org/2000/svg" xmlns:xlink="http://www.w3.org/1999/xlink" xml:space="preserve" onload="init(evt)">
<style type="text/css"><![CDATA[
.edge:hover path { stroke: red; }
.edge:hover polygon { stroke: red; fill: red; }
]]></style>
<script type="text/javascript"><![CDATA[
var edges = document.getElementsByTagName('g');
if (edges && edges.length) {
  for (var i=0;i<edges.length;i++) {
    if (edges[i].id.substr(0,4)=='edge') {
      edges[i].setAttribute('class','edge');
    }
  }
}
]]></script>
        <defs>
                <circle id="rim" cx="0" cy="0" r="7"/>
                <circle id="rim2" cx="0" cy="0" r="3.5"/>
                <g id="zoomPlus">
                        <use xlink:href="#rim" fill="#404040">
                                <set attributeName="fill" to="#808080" begin="zoomplus.mouseover" end="zoomplus.mouseout"/>
                        </use>
                        <path d="M-4,0h8M0,-4v8" fill="none" stroke="white" stroke-width="1.5" pointer-events="none"/>
                </g>
                <g id="zoomMin">
                        <use xlink:href="#rim" fill="#404040">
                                <set attributeName="fill" to="#808080" begin="zoomminus.mouseover" end="zoomminus.mouseout"/>
                        </use>
                        <path d="M-4,0h8" fill="none" stroke="white" stroke-width="1.5" pointer-events="none"/>
                </g>
                <g id="dirArrow">
                        <path fill="none" stroke="white" stroke-width="1.5" d="M0,-3.0v7 M-2.5,-0.5L0,-3.0L2.5,-0.5"/>
                </g>
               <g id="resetDef">
                       <use xlink:href="#rim2" fill="#404040">
                               <set attributeName="fill" to="#808080" begin="reset.mouseover" end="reset.mouseout"/>
                       </use>
               </g>
        </defs>

<script type="text/javascript">
var viewWidth = 719;
var viewHeight = 178;
var sectionId = 'dynsection-27';
</script>
<script xlink:href="svgpan.js"/>
<svg id="graph" class="graph">
<g id="viewport">
<title>fr_hash_table_walk</title>
<!-- Node13566 -->
<g id="node1" class="node">
<title>Node13566</title>
<polygon fill="#bfbfbf" stroke="#000000" points="0,-62.5 0,-81.5 101,-81.5 101,-62.5 0,-62.5"/>
<text text-anchor="middle" x="50.5" y="-69.5" font-family="Helvetica,sans-Serif" font-size="10.00" fill="#000000">fr_hash_table_walk</text>
</g>
<!-- Node13567 -->
<g id="node2" class="node">
<title>Node13567</title>
<g id="a_node2"><a xlink:href="dict__util_8c.html#a829210cde694176d864a2144261c97d2" target="_top" xlink:title="Internal version of fr_dict_by_attr_name. ">
<polygon fill="none" stroke="#000000" points="137,-83.5 137,-102.5 234,-102.5 234,-83.5 137,-83.5"/>
<text text-anchor="middle" x="185.5" y="-90.5" font-family="Helvetica,sans-Serif" font-size="10.00" fill="#000000">dict_by_attr_name</text>
</a>
</g>
</g>
<!-- Node13566&#45;&gt;Node13567 -->
<g id="edge1" class="edge">
<title>Node13566&#45;&gt;Node13567</title>
<path fill="none" stroke="#191970" d="M111.1375,-81.4325C119.7303,-82.7692 128.4729,-84.1291 136.8007,-85.4245"/>
<polygon fill="#191970" stroke="#191970" points="111.5723,-77.9581 101.1531,-79.8794 110.4963,-84.8749 111.5723,-77.9581"/>
</g>
<!-- Node14026 -->
<g id="node8" class="node">
<title>Node14026</title>
<g id="a_node8"><a xlink:href="dict__util_8c.html#a23333beec2f831eca5d67f6cd30fa349" target="_top" xlink:title="_dict_free">
<polygon fill="none" stroke="#000000" points="156,-43.5 156,-62.5 215,-62.5 215,-43.5 156,-43.5"/>
<text text-anchor="middle" x="185.5" y="-50.5" font-family="Helvetica,sans-Serif" font-size="10.00" fill="#000000">_dict_free</text>
</a>
</g>
</g>
<!-- Node13566&#45;&gt;Node14026 -->
<g id="edge7" class="edge">
<title>Node13566&#45;&gt;Node14026</title>
<path fill="none" stroke="#191970" d="M111.213,-63.4552C126.6793,-61.2785 142.6258,-59.0341 155.7601,-57.1856"/>
<polygon fill="#191970" stroke="#191970" points="110.5677,-60.0114 101.1531,-64.871 111.5433,-66.9431 110.5677,-60.0114"/>
</g>
<!-- Node13568 -->
<g id="node3" class="node">
<title>Node13568</title>
<g id="a_node3"><a xlink:href="dict__util_8c.html#a7096d9ec79916901fb9e30fb9c3c4880" target="_top" xlink:title="Attempt to locate the protocol dictionary containing an attribute. ">
<polygon fill="none" stroke="#000000" points="270,-84.5 270,-103.5 378,-103.5 378,-84.5 270,-84.5"/>
<text text-anchor="middle" x="324" y="-91.5" font-family="Helvetica,sans-Serif" font-size="10.00" fill="#000000">fr_dict_by_attr_name</text>
</a>
</g>
</g>
<!-- Node13567&#45;&gt;Node13568 -->
<g id="edge2" class="edge">
<title>Node13567&#45;&gt;Node13568</title>
<path fill="none" stroke="#191970" d="M244.4984,-93.426C252.9479,-93.487 261.6057,-93.5495 269.9534,-93.6098"/>
<polygon fill="#191970" stroke="#191970" points="244.355,-89.925 234.3299,-93.3526 244.3044,-96.9248 244.355,-89.925"/>
</g>
<!-- Node13569 -->
<g id="node4" class="node">
<title>Node13569</title>
<g id="a_node4"><a xlink:href="dict_8h.html#aff975c8193212aed6ced317d47d6ce6c" target="_top" xlink:title="fr_dict_attr_cmp">
<polygon fill="none" stroke="#000000" points="438.5,-93.5 438.5,-112.5 525.5,-112.5 525.5,-93.5 438.5,-93.5"/>
<text text-anchor="middle" x="482" y="-100.5" font-family="Helvetica,sans-Serif" font-size="10.00" fill="#000000">fr_dict_attr_cmp</text>
</a>
</g>
</g>
<!-- Node13568&#45;&gt;Node13569 -->
<g id="edge3" class="edge">
<title>Node13568&#45;&gt;Node13569</title>
<path fill="none" stroke="#191970" d="M388.6723,-97.6839C405.4413,-98.6391 423.1015,-99.645 438.4926,-100.5217"/>
<polygon fill="#191970" stroke="#191970" points="388.5575,-94.1717 378.3746,-97.0973 388.1594,-101.1604 388.5575,-94.1717"/>
</g>
<!-- Node13570 -->
<g id="node5" class="node">
<title>Node13570</title>
<g id="a_node5"><a xlink:href="tmpl__eval_8c.html#a7144e66d90beef2c5190c8758dfb9a30" target="_top" xlink:title="Traverse a TLV attribute. ">
<polygon fill="none" stroke="#ff0000" points="592.5,-150.5 592.5,-169.5 704.5,-169.5 704.5,-150.5 592.5,-150.5"/>
<text text-anchor="middle" x="648.5" y="-157.5" font-family="Helvetica,sans-Serif" font-size="10.00" fill="#000000">_tmpl_cursor_tlv_eval</text>
</a>
</g>
</g>
<!-- Node13569&#45;&gt;Node13570 -->
<g id="edge4" class="edge">
<title>Node13569&#45;&gt;Node13570</title>
<path fill="none" stroke="#191970" d="M516.4764,-116.1391C536.6456,-123.6895 562.6561,-133.1936 586,-141 595.68,-144.2371 606.2785,-147.5464 615.9533,-150.4771"/>
<polygon fill="#191970" stroke="#191970" points="517.6736,-112.85 507.0816,-112.6054 515.2092,-119.4019 517.6736,-112.85"/>
</g>
<!-- Node14022 -->
<g id="node6" class="node">
<title>Node14022</title>
<g id="a_node6"><a xlink:href="tmpl__eval_8c.html#a80e68a3109ce8f84efb9a12e30d4482a" target="_top" xlink:title="Traverse a group attribute. ">
<polygon fill="none" stroke="#ff0000" points="586,-112.5 586,-131.5 711,-131.5 711,-112.5 586,-112.5"/>
<text text-anchor="middle" x="648.5" y="-119.5" font-family="Helvetica,sans-Serif" font-size="10.00" fill="#000000">_tmpl_cursor_group_eval</text>
</a>
</g>
</g>
<!-- Node13569&#45;&gt;Node14022 -->
<g id="edge5" class="edge">
<title>Node13569&#45;&gt;Node14022</title>
<path fill="none" stroke="#191970" d="M535.9616,-109.1578C551.9119,-110.9779 569.5062,-112.9857 585.9501,-114.8622"/>
<polygon fill="#191970" stroke="#191970" points="536.0783,-105.6485 525.7459,-107.992 535.2846,-112.6033 536.0783,-105.6485"/>
</g>
<!-- Node14024 -->
<g id="node7" class="node">
<title>Node14024</title>
<g id="a_node7"><a xlink:href="tmpl__eval_8c.html#ae94961d4a060989e0babdc592ff49298" target="_top" xlink:title="Find a leaf attribute. ">
<polygon fill="none" stroke="#ff0000" points="590,-74.5 590,-93.5 707,-93.5 707,-74.5 590,-74.5"/>
<text text-anchor="middle" x="648.5" y="-81.5" font-family="Helvetica,sans-Serif" font-size="10.00" fill="#000000">_tmpl_cursor_leaf_eval</text>
</a>
</g>
</g>
<!-- Node13569&#45;&gt;Node14024 -->
<g id="edge6" class="edge">
<title>Node13569&#45;&gt;Node14024</title>
<path fill="none" stroke="#191970" d="M536.1358,-96.8223C553.2625,-94.8679 572.2701,-92.6989 589.7068,-90.7091"/>
<polygon fill="#191970" stroke="#191970" points="535.2846,-93.3967 525.7459,-98.008 536.0783,-100.3515 535.2846,-93.3967"/>
</g>
<!-- Node14027 -->
<g id="node9" class="node">
<title>Node14027</title>
<g id="a_node9"><a xlink:href="dict__util_8c.html#a99277860278aad27241d46d0a1a80a59" target="_top" xlink:title="Allocate a new dictionary. ">
<polygon fill="none" stroke="#000000" points="295,-38.5 295,-57.5 353,-57.5 353,-38.5 295,-38.5"/>
<text text-anchor="middle" x="324" y="-45.5" font-family="Helvetica,sans-Serif" font-size="10.00" fill="#000000">dict_alloc</text>
</a>
</g>
</g>
<!-- Node14026&#45;&gt;Node14027 -->
<g id="edge8" class="edge">
<title>Node14026&#45;&gt;Node14027</title>
<path fill="none" stroke="#191970" d="M225.3279,-51.5622C247.5023,-50.7616 274.6208,-49.7826 294.8128,-49.0537"/>
<polygon fill="#191970" stroke="#191970" points="225.0789,-48.0688 215.2117,-51.9274 225.3315,-55.0642 225.0789,-48.0688"/>
</g>
<!-- Node14028 -->
<g id="node10" class="node">
<title>Node14028</title>
<g id="a_node10"><a xlink:href="dict__tokenize_8c.html#ae72e9af64b5a48bffa396c84f59f6b1f" target="_top" xlink:title="Register the specified dictionary as a protocol dictionary. ">
<polygon fill="none" stroke="#000000" points="414,-38.5 414,-57.5 550,-57.5 550,-38.5 414,-38.5"/>
<text text-anchor="middle" x="482" y="-45.5" font-family="Helvetica,sans-Serif" font-size="10.00" fill="#000000">dict_read_process_protocol</text>
</a>
</g>
</g>
<!-- Node14027&#45;&gt;Node14028 -->
<g id="edge9" class="edge">
<title>Node14027&#45;&gt;Node14028</title>
<path fill="none" stroke="#191970" d="M363.4422,-48C378.6935,-48 396.5959,-48 413.8017,-48"/>
<polygon fill="#191970" stroke="#191970" points="363.3483,-44.5001 353.3483,-48 363.3483,-51.5001 363.3483,-44.5001"/>
</g>
<!-- Node14031 -->
<g id="node12" class="node">
<title>Node14031</title>
<g id="a_node12"><a xlink:href="dict__tokenize_8c.html#ae98f71191d8ea9adb33f28300f1bf240" target="_top" xlink:title="(Re&#45;)Initialize the special internal dictionary ">
<polygon fill="none" stroke="#ff0000" points="418,-.5 418,-19.5 546,-19.5 546,-.5 418,-.5"/>
<text text-anchor="middle" x="482" y="-7.5" font-family="Helvetica,sans-Serif" font-size="10.00" fill="#000000">fr_dict_internal_afrom_file</text>
</a>
</g>
</g>
<!-- Node14027&#45;&gt;Node14031 -->
<g id="edge11" class="edge">
<title>Node14027&#45;&gt;Node14031</title>
<path fill="none" stroke="#191970" d="M363.2396,-38.5626C387.3661,-32.7601 418.1847,-25.348 442.3808,-19.5287"/>
<polygon fill="#191970" stroke="#191970" points="362.2526,-35.2001 353.3483,-40.9415 363.8895,-42.0061 362.2526,-35.2001"/>
</g>
<!-- Node14029 -->
<g id="node11" class="node">
<title>Node14029</title>
<g id="a_node11"><a xlink:href="dict__tokenize_8c.html#a74698cc3d378776c6361c68feb9a1d44" target="_top" xlink:title="Parse a dictionary file. ">
<polygon fill="none" stroke="#ff0000" points="608.5,-36.5 608.5,-55.5 688.5,-55.5 688.5,-36.5 608.5,-36.5"/>
<text text-anchor="middle" x="648.5" y="-43.5" font-family="Helvetica,sans-Serif" font-size="10.00" fill="#000000">_dict_from_file</text>
</a>
</g>
</g>
<!-- Node14028&#45;&gt;Node14029 -->
<g id="edge10" class="edge">
<title>Node14028&#45;&gt;Node14029</title>
<path fill="none" stroke="#191970" d="M560.4699,-47.0574C577.0507,-46.8582 593.8853,-46.656 608.331,-46.4825"/>
<polygon fill="#191970" stroke="#191970" points="560.1595,-43.5608 550.2023,-47.1808 560.2437,-50.5603 560.1595,-43.5608"/>
</g>
</g>
</svg>
        <g id="navigator" transform="translate(0 0)" fill="#404254">
                <rect fill="#f2f5e9" fill-opacity="0.5" stroke="#606060" stroke-width=".5" x="0" y="0" width="60" height="60"/>
                <use id="zoomplus" xlink:href="#zoomPlus" x="17" y="9" onmousedown="handleZoom(evt,'in')"/>
                <use id="zoomminus" xlink:href="#zoomMin" x="42" y="9" onmousedown="handleZoom(evt,'out')"/>
                <use id="reset" xlink:href="#resetDef" x="30" y="36" onmousedown="handleReset()"/>
                <g id="arrowUp" xlink:href="#dirArrow" transform="translate(30 24)" onmousedown="handlePan(0,-1)">
                  <use xlink:href="#rim" fill="#404040">
                        <set attributeName="fill" to="#808080" begin="arrowUp.mouseover" end="arrowUp.mouseout"/>
                  </use>
                  <path fill="none" stroke="white" stroke-width="1.5" d="M0,-3.0v7 M-2.5,-0.5L0,-3.0L2.5,-0.5"/>
                </g>
                <g id="arrowRight" xlink:href="#dirArrow" transform="rotate(90) translate(36 -43)" onmousedown="handlePan(1,0)">
                  <use xlink:href="#rim" fill="#404040">
                        <set attributeName="fill" to="#808080" begin="arrowRight.mouseover" end="arrowRight.mouseout"/>
                  </use>
                  <path fill="none" stroke="white" stroke-width="1.5" d="M0,-3.0v7 M-2.5,-0.5L0,-3.0L2.5,-0.5"/>
                </g>
                <g id="arrowDown" xlink:href="#dirArrow" transform="rotate(180) translate(-30 -48)" onmousedown="handlePan(0,1)">
                  <use xlink:href="#rim" fill="#404040">
                        <set attributeName="fill" to="#808080" begin="arrowDown.mouseover" end="arrowDown.mouseout"/>
                  </use>
                  <path fill="none" stroke="white" stroke-width="1.5" d="M0,-3.0v7 M-2.5,-0.5L0,-3.0L2.5,-0.5"/>
                </g>
                <g id="arrowLeft" xlink:href="#dirArrow" transform="rotate(270) translate(-36 17)" onmousedown="handlePan(-1,0)">
                  <use xlink:href="#rim" fill="#404040">
                        <set attributeName="fill" to="#808080" begin="arrowLeft.mouseover" end="arrowLeft.mouseout"/>
                  </use>
                  <path fill="none" stroke="white" stroke-width="1.5" d="M0,-3.0v7 M-2.5,-0.5L0,-3.0L2.5,-0.5"/>
                </g>
        </g>
        <svg viewBox="0 0 15 15" width="100%" height="30px" preserveAspectRatio="xMaxYMin meet">
         <g id="arrow_out" transform="scale(0.3 0.3)">
          <a xlink:href="hash_8h_ad6065c38bea80fcd071b188f25c00e95_icgraph_org.svg" target="_base">
           <rect id="button" ry="5" rx="5" y="6" x="6" height="38" width="38"
                fill="#f2f5e9" fill-opacity="0.5" stroke="#606060" stroke-width="1.0"/>
           <path id="arrow"
             d="M 11.500037,31.436501 C 11.940474,20.09759 22.043105,11.32322 32.158766,21.979434 L 37.068811,17.246167 C 37.068811,17.246167 37.088388,32 37.088388,32 L 22.160133,31.978069 C 22.160133,31.978069 26.997745,27.140456 26.997745,27.140456 C 18.528582,18.264221 13.291696,25.230495 11.500037,31.436501 z"
             style="fill:#404040;"/>
          </a>
         </g>
        </svg>
</svg>
