<?xml version="1.0" encoding="UTF-8" standalone="no"?>
<!DOCTYPE svg PUBLIC "-//W3C//DTD SVG 1.1//EN"
 "http://www.w3.org/Graphics/SVG/1.1/DTD/svg11.dtd">
<!-- Generated by graphviz version 2.40.1 (20161225.0304)
 -->
<!-- Title: fr_hmac_sha1 Pages: 1 -->
<!--zoomable 248 -->
<svg id="main" version="1.1" xmlns="http://www.w3.org/2000/svg" xmlns:xlink="http://www.w3.org/1999/xlink" xml:space="preserve" onload="init(evt)">
<style type="text/css"><![CDATA[
.edge:hover path { stroke: red; }
.edge:hover polygon { stroke: red; fill: red; }
]]></style>
<script type="text/javascript"><![CDATA[
var edges = document.getElementsByTagName('g');
if (edges && edges.length) {
  for (var i=0;i<edges.length;i++) {
    if (edges[i].id.substr(0,4)=='edge') {
      edges[i].setAttribute('class','edge');
    }
  }
}
]]></script>
        <defs>
                <circle id="rim" cx="0" cy="0" r="7"/>
                <circle id="rim2" cx="0" cy="0" r="3.5"/>
                <g id="zoomPlus">
                        <use xlink:href="#rim" fill="#404040">
                                <set attributeName="fill" to="#808080" begin="zoomplus.mouseover" end="zoomplus.mouseout"/>
                        </use>
                        <path d="M-4,0h8M0,-4v8" fill="none" stroke="white" stroke-width="1.5" pointer-events="none"/>
                </g>
                <g id="zoomMin">
                        <use xlink:href="#rim" fill="#404040">
                                <set attributeName="fill" to="#808080" begin="zoomminus.mouseover" end="zoomminus.mouseout"/>
                        </use>
                        <path d="M-4,0h8" fill="none" stroke="white" stroke-width="1.5" pointer-events="none"/>
                </g>
                <g id="dirArrow">
                        <path fill="none" stroke="white" stroke-width="1.5" d="M0,-3.0v7 M-2.5,-0.5L0,-3.0L2.5,-0.5"/>
                </g>
               <g id="resetDef">
                       <use xlink:href="#rim2" fill="#404040">
                               <set attributeName="fill" to="#808080" begin="reset.mouseover" end="reset.mouseout"/>
                       </use>
               </g>
        </defs>

<script type="text/javascript">
var viewWidth = 787;
var viewHeight = 248;
var sectionId = 'dynsection-2';
</script>
<script xlink:href="svgpan.js"/>
<svg id="graph" class="graph">
<g id="viewport">
<title>fr_hmac_sha1</title>
<!-- Node6 -->
<g id="node1" class="node">
<title>Node6</title>
<polygon fill="#bfbfbf" stroke="#000000" points="0,-84.5 0,-103.5 78,-103.5 78,-84.5 0,-84.5"/>
<text text-anchor="middle" x="39" y="-91.5" font-family="Helvetica,sans-Serif" font-size="10.00" fill="#000000">fr_hmac_sha1</text>
</g>
<!-- Node7 -->
<g id="node2" class="node">
<title>Node7</title>
<g id="a_node2"><a xlink:href="xlat__builtin_8c.html#accf16b17227076a26a2fd33b9c9844c8" target="_top" xlink:title="xlat_hmac">
<polygon fill="none" stroke="#000000" points="258.5,-170.5 258.5,-189.5 320.5,-189.5 320.5,-170.5 258.5,-170.5"/>
<text text-anchor="middle" x="289.5" y="-177.5" font-family="Helvetica,sans-Serif" font-size="10.00" fill="#000000">xlat_hmac</text>
</a>
</g>
</g>
<!-- Node6&#45;&gt;Node7 -->
<g id="edge1" class="edge">
<title>Node6&#45;&gt;Node7</title>
<path fill="none" stroke="#191970" d="M56.8641,-110.4016C71.2411,-122.678 92.5247,-138.8649 114,-148 161.7372,-168.3062 222.1381,-175.7392 258.1946,-178.4516"/>
<polygon fill="#191970" stroke="#191970" points="59.0699,-107.6807 49.248,-103.7083 54.4489,-112.9387 59.0699,-107.6807"/>
</g>
<!-- Node394 -->
<g id="node9" class="node">
<title>Node394</title>
<g id="a_node9"><a xlink:href="sha1_8h.html#a2bdb1a7038f0010ff52423c27a5eb55e" target="_top" xlink:title="Calculate HMAC using internal SHA1 implementation. ">
<polygon fill="none" stroke="#000000" points="114,-84.5 114,-103.5 192,-103.5 192,-84.5 114,-84.5"/>
<text text-anchor="middle" x="153" y="-91.5" font-family="Helvetica,sans-Serif" font-size="10.00" fill="#000000">fr_hmac_sha1</text>
</a>
</g>
</g>
<!-- Node6&#45;&gt;Node394 -->
<g id="edge11" class="edge">
<title>Node6&#45;&gt;Node394</title>
<path fill="none" stroke="#191970" d="M88.3898,-94C96.8518,-94 105.5417,-94 113.6954,-94"/>
<polygon fill="#191970" stroke="#191970" points="88.2324,-90.5001 78.2323,-94 88.2323,-97.5001 88.2324,-90.5001"/>
</g>
<!-- Node395 -->
<g id="node10" class="node">
<title>Node395</title>
<g id="a_node10"><a xlink:href="eap__fast_8c.html#ac157d15bdc8ba7e778cbcaa51990e405" target="_top" xlink:title="eap_fast_append_crypto\l_binding">
<polygon fill="none" stroke="#000000" points="228,-113 228,-143 351,-143 351,-113 228,-113"/>
<text text-anchor="start" x="236" y="-131" font-family="Helvetica,sans-Serif" font-size="10.00" fill="#000000">eap_fast_append_crypto</text>
<text text-anchor="middle" x="289.5" y="-120" font-family="Helvetica,sans-Serif" font-size="10.00" fill="#000000">_binding</text>
</a>
</g>
</g>
<!-- Node6&#45;&gt;Node395 -->
<g id="edge25" class="edge">
<title>Node6&#45;&gt;Node395</title>
<path fill="none" stroke="#191970" d="M62.1208,-108.8684C76.4393,-117.1756 95.5578,-126.6984 114,-131 151.0958,-139.6525 193.8077,-139.14 227.8069,-136.3498"/>
<polygon fill="#191970" stroke="#191970" points="63.8322,-105.8134 53.4601,-103.6521 60.2206,-111.8098 63.8322,-105.8134"/>
</g>
<!-- Node399 -->
<g id="node13" class="node">
<title>Node399</title>
<g id="a_node13"><a xlink:href="eap__fast_8c.html#aafe5e9c0aa8c89dad2080c6a09c66c6f" target="_top" xlink:title="eap_fast_crypto_binding">
<polygon fill="none" stroke="#000000" points="228.5,-74.5 228.5,-93.5 350.5,-93.5 350.5,-74.5 228.5,-74.5"/>
<text text-anchor="middle" x="289.5" y="-81.5" font-family="Helvetica,sans-Serif" font-size="10.00" fill="#000000">eap_fast_crypto_binding</text>
</a>
</g>
</g>
<!-- Node6&#45;&gt;Node399 -->
<g id="edge26" class="edge">
<title>Node6&#45;&gt;Node399</title>
<path fill="none" stroke="#191970" d="M79.2275,-81.8583C90.3829,-79.0274 102.5704,-76.4252 114,-75 151.8429,-70.2811 194.5723,-72.3163 228.3938,-75.6348"/>
<polygon fill="#191970" stroke="#191970" points="78.0871,-78.5399 69.3243,-84.495 79.8882,-85.3042 78.0871,-78.5399"/>
</g>
<!-- Node401 -->
<g id="node15" class="node">
<title>Node401</title>
<g id="a_node15"><a xlink:href="eap__fast__crypto_8h.html#a1de0713fa43fb7427b178d17069d54e1" target="_top" xlink:title="T_PRF">
<polygon fill="none" stroke="#000000" points="265.5,-27.5 265.5,-46.5 313.5,-46.5 313.5,-27.5 265.5,-27.5"/>
<text text-anchor="middle" x="289.5" y="-34.5" font-family="Helvetica,sans-Serif" font-size="10.00" fill="#000000">T_PRF</text>
</a>
</g>
</g>
<!-- Node6&#45;&gt;Node401 -->
<g id="edge27" class="edge">
<title>Node6&#45;&gt;Node401</title>
<path fill="none" stroke="#191970" d="M73.0779,-80.9039C85.7861,-76.3615 100.4234,-71.5285 114,-68 167.3032,-54.1468 231.3288,-44.571 265.396,-40.0218"/>
<polygon fill="#191970" stroke="#191970" points="71.5495,-77.7359 63.3569,-84.4539 73.9508,-84.3111 71.5495,-77.7359"/>
</g>
<!-- Node8 -->
<g id="node3" class="node">
<title>Node8</title>
<g id="a_node3"><a xlink:href="group__xlat__functions.html#ga756eea3c4b6e25819de3a25817ab4c0f" target="_top" xlink:title="Generate the HMAC&#45;MD5 of a string or attribute. ">
<polygon fill="none" stroke="#000000" points="393,-201.5 393,-220.5 503,-220.5 503,-201.5 393,-201.5"/>
<text text-anchor="middle" x="448" y="-208.5" font-family="Helvetica,sans-Serif" font-size="10.00" fill="#000000">xlat_func_hmac_md5</text>
</a>
</g>
</g>
<!-- Node7&#45;&gt;Node8 -->
<g id="edge2" class="edge">
<title>Node7&#45;&gt;Node8</title>
<path fill="none" stroke="#191970" d="M330.7014,-188.0583C351.6791,-192.1612 377.3203,-197.1762 399.2731,-201.4698"/>
<polygon fill="#191970" stroke="#191970" points="331.3004,-184.6092 320.8145,-186.1246 329.9567,-191.4791 331.3004,-184.6092"/>
</g>
<!-- Node393 -->
<g id="node8" class="node">
<title>Node393</title>
<g id="a_node8"><a xlink:href="group__xlat__functions.html#ga81aee8d13f289d3645e4491f2b403a4d" target="_top" xlink:title="Generate the HMAC&#45;SHA1 of a string or attribute. ">
<polygon fill="none" stroke="#000000" points="392,-163.5 392,-182.5 504,-182.5 504,-163.5 392,-163.5"/>
<text text-anchor="middle" x="448" y="-170.5" font-family="Helvetica,sans-Serif" font-size="10.00" fill="#000000">xlat_func_hmac_sha1</text>
</a>
</g>
</g>
<!-- Node7&#45;&gt;Node393 -->
<g id="edge9" class="edge">
<title>Node7&#45;&gt;Node393</title>
<path fill="none" stroke="#191970" d="M330.997,-178.1673C349.5524,-177.3478 371.7109,-176.3692 391.7284,-175.4852"/>
<polygon fill="#191970" stroke="#191970" points="330.6503,-174.6791 320.8145,-178.617 330.9592,-181.6723 330.6503,-174.6791"/>
</g>
<!-- Node9 -->
<g id="node4" class="node">
<title>Node9</title>
<g id="a_node4"><a xlink:href="xlat__builtin_8c.html#a8e796b25cf1aede66c358d6b32cc6a34" target="_top" xlink:title="Global initialisation for xlat. ">
<polygon fill="none" stroke="#000000" points="567,-182.5 567,-201.5 617,-201.5 617,-182.5 567,-182.5"/>
<text text-anchor="middle" x="592" y="-189.5" font-family="Helvetica,sans-Serif" font-size="10.00" fill="#000000">xlat_init</text>
</a>
</g>
</g>
<!-- Node8&#45;&gt;Node9 -->
<g id="edge3" class="edge">
<title>Node8&#45;&gt;Node9</title>
<path fill="none" stroke="#191970" d="M513.3884,-202.3724C532.337,-199.8722 551.9016,-197.2908 566.773,-195.3286"/>
<polygon fill="#191970" stroke="#191970" points="512.7185,-198.9303 503.2623,-203.7084 513.6343,-205.8702 512.7185,-198.9303"/>
</g>
<!-- Node10 -->
<g id="node5" class="node">
<title>Node10</title>
<g id="a_node5"><a xlink:href="unlang_2base_8h.html#aad13fe29457de363df11f5dda2fbde89" target="_top" xlink:title="Initialize the unlang compiler / interpreter. ">
<polygon fill="none" stroke="#ff0000" points="695.5,-220.5 695.5,-239.5 758.5,-239.5 758.5,-220.5 695.5,-220.5"/>
<text text-anchor="middle" x="727" y="-227.5" font-family="Helvetica,sans-Serif" font-size="10.00" fill="#000000">unlang_init</text>
</a>
</g>
</g>
<!-- Node9&#45;&gt;Node10 -->
<g id="edge4" class="edge">
<title>Node9&#45;&gt;Node10</title>
<path fill="none" stroke="#191970" d="M626.9592,-201.8404C648.1144,-207.7952 674.8754,-215.3279 695.3951,-221.1038"/>
<polygon fill="#191970" stroke="#191970" points="627.6504,-198.399 617.0761,-199.0585 625.7537,-205.1371 627.6504,-198.399"/>
</g>
<!-- Node12 -->
<g id="node6" class="node">
<title>Node12</title>
<g id="a_node6"><a xlink:href="xlat__builtin_8c.html#a1ddb137dc14241c9b74b7675075f5161" target="_top" xlink:title="Register an old style xlat function. ">
<polygon fill="none" stroke="#ff0000" points="675,-182.5 675,-201.5 779,-201.5 779,-182.5 675,-182.5"/>
<text text-anchor="middle" x="727" y="-189.5" font-family="Helvetica,sans-Serif" font-size="10.00" fill="#000000">xlat_register_legacy</text>
</a>
</g>
</g>
<!-- Node9&#45;&gt;Node12 -->
<g id="edge5" class="edge">
<title>Node9&#45;&gt;Node12</title>
<path fill="none" stroke="#191970" d="M627.1682,-185.9916C641.7429,-185.268 658.9506,-185.0739 674.9375,-185.4094"/>
<polygon fill="#191970" stroke="#191970" points="626.8424,-182.5049 617.0761,-186.6121 627.2721,-189.4918 626.8424,-182.5049"/>
</g>
<!-- Node389 -->
<g id="node7" class="node">
<title>Node389</title>
<g id="a_node7"><a xlink:href="xlat__builtin_8c.html#a0f89713125e0a5b308fd37f701572835" target="_top" xlink:title="Register an xlat function. ">
<polygon fill="none" stroke="#ff0000" points="692,-144.5 692,-163.5 762,-163.5 762,-144.5 692,-144.5"/>
<text text-anchor="middle" x="727" y="-151.5" font-family="Helvetica,sans-Serif" font-size="10.00" fill="#000000">xlat_register</text>
</a>
</g>
</g>
<!-- Node9&#45;&gt;Node389 -->
<g id="edge7" class="edge">
<title>Node9&#45;&gt;Node389</title>
<path fill="none" stroke="#191970" d="M618.9076,-178.9058C639.8142,-171.5661 668.9859,-163.1908 691.7555,-157.9085"/>
<polygon fill="#191970" stroke="#191970" points="617.5528,-175.6747 609.3725,-182.4076 619.9661,-182.2455 617.5528,-175.6747"/>
</g>
<!-- Node12&#45;&gt;Node9 -->
<g id="edge6" class="edge">
<title>Node12&#45;&gt;Node9</title>
<path fill="none" stroke="#191970" d="M664.5639,-198.7331C647.7556,-198.8455 630.5262,-198.3971 617.0761,-197.3879"/>
<polygon fill="#191970" stroke="#191970" points="664.9865,-202.2277 674.9375,-198.5906 664.8903,-195.2284 664.9865,-202.2277"/>
</g>
<!-- Node389&#45;&gt;Node9 -->
<g id="edge8" class="edge">
<title>Node389&#45;&gt;Node9</title>
<path fill="none" stroke="#191970" d="M700.1501,-167.074C675.9683,-175.5675 640.6951,-185.4534 617.0761,-190.3294"/>
<polygon fill="#191970" stroke="#191970" points="701.5902,-170.2736 709.7683,-163.5378 699.1747,-163.7036 701.5902,-170.2736"/>
</g>
<!-- Node393&#45;&gt;Node9 -->
<g id="edge10" class="edge">
<title>Node393&#45;&gt;Node9</title>
<path fill="none" stroke="#191970" d="M514.0867,-181.7198C532.785,-184.1869 552.0189,-186.7247 566.6982,-188.6616"/>
<polygon fill="#191970" stroke="#191970" points="514.4584,-178.2386 504.0865,-180.4003 513.5427,-185.1784 514.4584,-178.2386"/>
</g>
<!-- Node394&#45;&gt;Node7 -->
<g id="edge12" class="edge">
<title>Node394&#45;&gt;Node7</title>
<path fill="none" stroke="#191970" d="M171.3164,-110.5717C185.9394,-123.2513 207.3333,-140.6083 228,-153 239.3009,-159.776 252.6078,-165.8307 263.948,-170.4807"/>
<polygon fill="#191970" stroke="#191970" points="173.3611,-107.7082 163.5457,-103.7195 168.7313,-112.9586 173.3611,-107.7082"/>
</g>
<!-- Node394&#45;&gt;Node394 -->
<g id="edge13" class="edge">
<title>Node394&#45;&gt;Node394</title>
<path fill="none" stroke="#191970" d="M131.8899,-113.4C133.2997,-118.3146 140.3364,-122 153,-122 173.2617,-122 179.1186,-112.5653 170.5707,-103.7571"/>
<polygon fill="#191970" stroke="#191970" points="135.2693,-114.3507 135.4293,-103.7571 128.6979,-111.9387 135.2693,-114.3507"/>
</g>
<!-- Node394&#45;&gt;Node395 -->
<g id="edge14" class="edge">
<title>Node394&#45;&gt;Node395</title>
<path fill="none" stroke="#191970" d="M201.3162,-106.0348C210.3367,-108.2817 219.8664,-110.6554 229.1953,-112.979"/>
<polygon fill="#191970" stroke="#191970" points="201.9356,-102.5822 191.3861,-103.5614 200.2437,-109.3747 201.9356,-102.5822"/>
</g>
<!-- Node394&#45;&gt;Node399 -->
<g id="edge17" class="edge">
<title>Node394&#45;&gt;Node399</title>
<path fill="none" stroke="#191970" d="M202.2449,-90.3923C210.7559,-89.7688 219.6954,-89.1139 228.4737,-88.4708"/>
<polygon fill="#191970" stroke="#191970" points="201.8329,-86.913 192.1154,-91.1344 202.3445,-93.8943 201.8329,-86.913"/>
</g>
<!-- Node394&#45;&gt;Node401 -->
<g id="edge20" class="edge">
<title>Node394&#45;&gt;Node401</title>
<path fill="none" stroke="#191970" d="M185.2793,-80.5207C210.2841,-70.0792 244.3078,-55.8715 266.5784,-46.5716"/>
<polygon fill="#191970" stroke="#191970" points="183.7261,-77.3763 175.847,-84.4595 186.4235,-83.8358 183.7261,-77.3763"/>
</g>
<!-- Node396 -->
<g id="node11" class="node">
<title>Node396</title>
<g id="a_node11"><a xlink:href="eap__fast_8h.html#ad57c22632e81dcbb9d854603aaa1f76e" target="_top" xlink:title="eap_fast_process">
<polygon fill="none" stroke="#000000" points="545,-76.5 545,-95.5 639,-95.5 639,-76.5 545,-76.5"/>
<text text-anchor="middle" x="592" y="-83.5" font-family="Helvetica,sans-Serif" font-size="10.00" fill="#000000">eap_fast_process</text>
</a>
</g>
</g>
<!-- Node395&#45;&gt;Node396 -->
<g id="edge15" class="edge">
<title>Node395&#45;&gt;Node396</title>
<path fill="none" stroke="#191970" d="M361.3564,-122.6717C404.3631,-118.9364 460.0107,-113.1433 509,-105 524.0198,-102.5033 540.3895,-98.9399 554.5913,-95.5724"/>
<polygon fill="#191970" stroke="#191970" points="360.9338,-119.195 351.2667,-123.5306 361.5276,-126.1698 360.9338,-119.195"/>
</g>
<!-- Node397 -->
<g id="node12" class="node">
<title>Node397</title>
<g id="a_node12"><a xlink:href="rlm__eap__fast_8c.html#a1ee517a20d1254bcde78063a1e36840c" target="_top" xlink:title="mod_process">
<polygon fill="none" stroke="#ff0000" points="689.5,-76.5 689.5,-95.5 764.5,-95.5 764.5,-76.5 689.5,-76.5"/>
<text text-anchor="middle" x="727" y="-83.5" font-family="Helvetica,sans-Serif" font-size="10.00" fill="#000000">mod_process</text>
</a>
</g>
</g>
<!-- Node396&#45;&gt;Node397 -->
<g id="edge16" class="edge">
<title>Node396&#45;&gt;Node397</title>
<path fill="none" stroke="#191970" d="M649.4062,-86C662.9205,-86 676.987,-86 689.3725,-86"/>
<polygon fill="#191970" stroke="#191970" points="649.2165,-82.5001 639.2164,-86 649.2164,-89.5001 649.2165,-82.5001"/>
</g>
<!-- Node400 -->
<g id="node14" class="node">
<title>Node400</title>
<g id="a_node14"><a xlink:href="eap__fast_8c.html#ab47c138f5518687fc862bb1febf80db8" target="_top" xlink:title="eap_fast_process_tlvs">
<polygon fill="none" stroke="#000000" points="390.5,-76.5 390.5,-95.5 505.5,-95.5 505.5,-76.5 390.5,-76.5"/>
<text text-anchor="middle" x="448" y="-83.5" font-family="Helvetica,sans-Serif" font-size="10.00" fill="#000000">eap_fast_process_tlvs</text>
</a>
</g>
</g>
<!-- Node399&#45;&gt;Node400 -->
<g id="edge18" class="edge">
<title>Node399&#45;&gt;Node400</title>
<path fill="none" stroke="#191970" d="M360.9291,-84.9013C370.7487,-85.0252 380.7299,-85.1512 390.262,-85.2714"/>
<polygon fill="#191970" stroke="#191970" points="360.8236,-81.3998 350.7802,-84.7733 360.7352,-88.3992 360.8236,-81.3998"/>
</g>
<!-- Node400&#45;&gt;Node396 -->
<g id="edge19" class="edge">
<title>Node400&#45;&gt;Node396</title>
<path fill="none" stroke="#191970" d="M515.8847,-86C525.6836,-86 535.5846,-86 544.8584,-86"/>
<polygon fill="#191970" stroke="#191970" points="515.7406,-82.5001 505.7406,-86 515.7406,-89.5001 515.7406,-82.5001"/>
</g>
<!-- Node402 -->
<g id="node16" class="node">
<title>Node402</title>
<g id="a_node16"><a xlink:href="eap__fast_8c.html#af8149379d3e494c035dfbe1ef43dc1ea" target="_top" xlink:title="RFC 4851 section 5.2 &#45; Intermediate Compound Key Derivations. ">
<polygon fill="none" stroke="#000000" points="390.5,-38.5 390.5,-57.5 505.5,-57.5 505.5,-38.5 390.5,-38.5"/>
<text text-anchor="middle" x="448" y="-45.5" font-family="Helvetica,sans-Serif" font-size="10.00" fill="#000000">eap_fast_update_icmk</text>
</a>
</g>
</g>
<!-- Node401&#45;&gt;Node402 -->
<g id="edge21" class="edge">
<title>Node401&#45;&gt;Node402</title>
<path fill="none" stroke="#191970" d="M323.7682,-39.3782C343.2102,-40.7275 368.0522,-42.4516 390.4049,-44.0029"/>
<polygon fill="#191970" stroke="#191970" points="323.7911,-35.8715 313.5727,-38.6707 323.3064,-42.8547 323.7911,-35.8715"/>
</g>
<!-- Node403 -->
<g id="node17" class="node">
<title>Node403</title>
<g id="a_node17"><a xlink:href="rlm__eap__fast_8c.html#a7a23070eefa6c465c004384f3a1400cd" target="_top" xlink:title="eap_fast_session_ticket">
<polygon fill="none" stroke="#000000" points="387,-.5 387,-19.5 509,-19.5 509,-.5 387,-.5"/>
<text text-anchor="middle" x="448" y="-7.5" font-family="Helvetica,sans-Serif" font-size="10.00" fill="#000000">eap_fast_session_ticket</text>
</a>
</g>
</g>
<!-- Node401&#45;&gt;Node403 -->
<g id="edge23" class="edge">
<title>Node401&#45;&gt;Node403</title>
<path fill="none" stroke="#191970" d="M323.4469,-31.2172C343.4248,-27.8141 369.1859,-23.4257 392.091,-19.5239"/>
<polygon fill="#191970" stroke="#191970" points="322.843,-27.7696 313.5727,-32.8993 324.0185,-34.6702 322.843,-27.7696"/>
</g>
<!-- Node402&#45;&gt;Node396 -->
<g id="edge22" class="edge">
<title>Node402&#45;&gt;Node396</title>
<path fill="none" stroke="#191970" d="M494.1722,-60.1843C514.1642,-65.46 537.2187,-71.5438 555.924,-76.4799"/>
<polygon fill="#191970" stroke="#191970" points="494.8994,-56.7565 484.3373,-57.589 493.1132,-63.5248 494.8994,-56.7565"/>
</g>
<!-- Node404 -->
<g id="node18" class="node">
<title>Node404</title>
<g id="a_node18"><a xlink:href="rlm__eap__fast_8c.html#ad8ab91f9221ea0abb6859f335e6386a9" target="_top" xlink:title="_session_secret">
<polygon fill="none" stroke="#ff0000" points="548,-.5 548,-19.5 636,-19.5 636,-.5 548,-.5"/>
<text text-anchor="middle" x="592" y="-7.5" font-family="Helvetica,sans-Serif" font-size="10.00" fill="#000000">_session_secret</text>
</a>
</g>
</g>
<!-- Node403&#45;&gt;Node404 -->
<g id="edge24" class="edge">
<title>Node403&#45;&gt;Node404</title>
<path fill="none" stroke="#191970" d="M519.2152,-10C528.9872,-10 538.7784,-10 547.8688,-10"/>
<polygon fill="#191970" stroke="#191970" points="519.069,-6.5001 509.069,-10 519.0689,-13.5001 519.069,-6.5001"/>
</g>
</g>
</svg>
        <g id="navigator" transform="translate(0 0)" fill="#404254">
                <rect fill="#f2f5e9" fill-opacity="0.5" stroke="#606060" stroke-width=".5" x="0" y="0" width="60" height="60"/>
                <use id="zoomplus" xlink:href="#zoomPlus" x="17" y="9" onmousedown="handleZoom(evt,'in')"/>
                <use id="zoomminus" xlink:href="#zoomMin" x="42" y="9" onmousedown="handleZoom(evt,'out')"/>
                <use id="reset" xlink:href="#resetDef" x="30" y="36" onmousedown="handleReset()"/>
                <g id="arrowUp" xlink:href="#dirArrow" transform="translate(30 24)" onmousedown="handlePan(0,-1)">
                  <use xlink:href="#rim" fill="#404040">
                        <set attributeName="fill" to="#808080" begin="arrowUp.mouseover" end="arrowUp.mouseout"/>
                  </use>
                  <path fill="none" stroke="white" stroke-width="1.5" d="M0,-3.0v7 M-2.5,-0.5L0,-3.0L2.5,-0.5"/>
                </g>
                <g id="arrowRight" xlink:href="#dirArrow" transform="rotate(90) translate(36 -43)" onmousedown="handlePan(1,0)">
                  <use xlink:href="#rim" fill="#404040">
                        <set attributeName="fill" to="#808080" begin="arrowRight.mouseover" end="arrowRight.mouseout"/>
                  </use>
                  <path fill="none" stroke="white" stroke-width="1.5" d="M0,-3.0v7 M-2.5,-0.5L0,-3.0L2.5,-0.5"/>
                </g>
                <g id="arrowDown" xlink:href="#dirArrow" transform="rotate(180) translate(-30 -48)" onmousedown="handlePan(0,1)">
                  <use xlink:href="#rim" fill="#404040">
                        <set attributeName="fill" to="#808080" begin="arrowDown.mouseover" end="arrowDown.mouseout"/>
                  </use>
                  <path fill="none" stroke="white" stroke-width="1.5" d="M0,-3.0v7 M-2.5,-0.5L0,-3.0L2.5,-0.5"/>
                </g>
                <g id="arrowLeft" xlink:href="#dirArrow" transform="rotate(270) translate(-36 17)" onmousedown="handlePan(-1,0)">
                  <use xlink:href="#rim" fill="#404040">
                        <set attributeName="fill" to="#808080" begin="arrowLeft.mouseover" end="arrowLeft.mouseout"/>
                  </use>
                  <path fill="none" stroke="white" stroke-width="1.5" d="M0,-3.0v7 M-2.5,-0.5L0,-3.0L2.5,-0.5"/>
                </g>
        </g>
        <svg viewBox="0 0 15 15" width="100%" height="30px" preserveAspectRatio="xMaxYMin meet">
         <g id="arrow_out" transform="scale(0.3 0.3)">
          <a xlink:href="hmac__sha1_8c_a2bdb1a7038f0010ff52423c27a5eb55e_icgraph_org.svg" target="_base">
           <rect id="button" ry="5" rx="5" y="6" x="6" height="38" width="38"
                fill="#f2f5e9" fill-opacity="0.5" stroke="#606060" stroke-width="1.0"/>
           <path id="arrow"
             d="M 11.500037,31.436501 C 11.940474,20.09759 22.043105,11.32322 32.158766,21.979434 L 37.068811,17.246167 C 37.068811,17.246167 37.088388,32 37.088388,32 L 22.160133,31.978069 C 22.160133,31.978069 26.997745,27.140456 26.997745,27.140456 C 18.528582,18.264221 13.291696,25.230495 11.500037,31.436501 z"
             style="fill:#404040;"/>
          </a>
         </g>
        </svg>
</svg>
