<?xml version="1.0" encoding="UTF-8" standalone="no"?>
<!DOCTYPE svg PUBLIC "-//W3C//DTD SVG 1.1//EN"
 "http://www.w3.org/Graphics/SVG/1.1/DTD/svg11.dtd">
<!-- Generated by graphviz version 2.40.1 (20161225.0304)
 -->
<!-- Title: unlang_interpret_synchronous Pages: 1 -->
<svg width="1007pt" height="914pt"
 viewBox="0.00 0.00 1007.00 914.00" xmlns="http://www.w3.org/2000/svg" xmlns:xlink="http://www.w3.org/1999/xlink">
<g id="graph0" class="graph" transform="scale(1 1) rotate(0) translate(4 910)">
<title>unlang_interpret_synchronous</title>
<!-- Node7485 -->
<g id="node1" class="node">
<title>Node7485</title>
<polygon fill="#bfbfbf" stroke="#000000" points="0,-209.5 0,-228.5 146,-228.5 146,-209.5 0,-209.5"/>
<text text-anchor="middle" x="73" y="-216.5" font-family="Helvetica,sans-Serif" font-size="10.00" fill="#000000">unlang_interpret_synchronous</text>
</g>
<!-- Node7486 -->
<g id="node2" class="node">
<title>Node7486</title>
<g id="a_node2"><a xlink:href="interpret_8h.html#afc7a62310552ce746e28145b7eacb1c5" target="_top" xlink:title="Return whether a request is currently scheduled. ">
<polygon fill="none" stroke="#000000" points="182,-266.5 182,-285.5 327,-285.5 327,-266.5 182,-266.5"/>
<text text-anchor="middle" x="254.5" y="-273.5" font-family="Helvetica,sans-Serif" font-size="10.00" fill="#000000">unlang_request_is_scheduled</text>
</a>
</g>
</g>
<!-- Node7485&#45;&gt;Node7486 -->
<g id="edge1" class="edge">
<title>Node7485&#45;&gt;Node7486</title>
<path fill="none" stroke="#191970" d="M113.2987,-231.6558C146.7558,-242.163 193.6231,-256.8816 224.0219,-266.4284"/>
<polygon fill="#191970" stroke="#191970" points="113.9683,-228.1976 103.379,-228.5405 111.8709,-234.876 113.9683,-228.1976"/>
</g>
<!-- Node7853 -->
<g id="node46" class="node">
<title>Node7853</title>
<g id="a_node46"><a xlink:href="proto__ldap__sync_8c.html#a0c116d96325f6e193881fda0a252062b" target="_top" xlink:title="Synchronously load cookie data. ">
<polygon fill="none" stroke="#000000" points="195,-152.5 195,-171.5 314,-171.5 314,-152.5 195,-152.5"/>
<text text-anchor="middle" x="254.5" y="-159.5" font-family="Helvetica,sans-Serif" font-size="10.00" fill="#000000">proto_ldap_cookie_load</text>
</a>
</g>
</g>
<!-- Node7485&#45;&gt;Node7853 -->
<g id="edge60" class="edge">
<title>Node7485&#45;&gt;Node7853</title>
<path fill="none" stroke="#191970" d="M113.2987,-206.3442C146.7558,-195.837 193.6231,-181.1184 224.0219,-171.5716"/>
<polygon fill="#191970" stroke="#191970" points="111.8709,-203.124 103.379,-209.4595 113.9683,-209.8024 111.8709,-203.124"/>
</g>
<!-- Node7487 -->
<g id="node3" class="node">
<title>Node7487</title>
<g id="a_node3"><a xlink:href="interpret_8h.html#a0976ada1dcd117438d14d61f5f6a7c9f" target="_top" xlink:title="unlang_interpret">
<polygon fill="none" stroke="#000000" points="388,-190.5 388,-209.5 474,-209.5 474,-190.5 388,-190.5"/>
<text text-anchor="middle" x="431" y="-197.5" font-family="Helvetica,sans-Serif" font-size="10.00" fill="#000000">unlang_interpret</text>
</a>
</g>
</g>
<!-- Node7486&#45;&gt;Node7487 -->
<g id="edge2" class="edge">
<title>Node7486&#45;&gt;Node7487</title>
<path fill="none" stroke="#191970" d="M276.9387,-261.6579C307.0151,-246.2574 360.7066,-222.8629 396.0897,-209.5263"/>
<polygon fill="#191970" stroke="#191970" points="275.2609,-258.5859 268.0566,-266.3543 278.5329,-264.7741 275.2609,-258.5859"/>
</g>
<!-- Node7818 -->
<g id="node20" class="node">
<title>Node7818</title>
<g id="a_node20"><a xlink:href="interpret_8h.html#a1d05eab74116c44e4edabf4b5bd09890" target="_top" xlink:title="Mark a request as resumable. ">
<polygon fill="none" stroke="#000000" points="363,-494.5 363,-513.5 499,-513.5 499,-494.5 363,-494.5"/>
<text text-anchor="middle" x="431" y="-501.5" font-family="Helvetica,sans-Serif" font-size="10.00" fill="#000000">unlang_interpret_resumable</text>
</a>
</g>
</g>
<!-- Node7486&#45;&gt;Node7818 -->
<g id="edge27" class="edge">
<title>Node7486&#45;&gt;Node7818</title>
<path fill="none" stroke="#191970" d="M271.1697,-293.3809C309.3503,-338.7762 401.6708,-458.5592 425.3769,-494.1577"/>
<polygon fill="#191970" stroke="#191970" points="273.6535,-290.9 264.4951,-285.5732 268.3328,-295.4486 273.6535,-290.9"/>
</g>
<!-- Node7850 -->
<g id="node42" class="node">
<title>Node7850</title>
<g id="a_node42"><a xlink:href="subrequest_8c.html#a8a2820bfd4463c8933436250ab908e93" target="_top" xlink:title="unlang_max_request_time">
<polygon fill="none" stroke="#000000" points="365.5,-687.5 365.5,-706.5 496.5,-706.5 496.5,-687.5 365.5,-687.5"/>
<text text-anchor="middle" x="431" y="-694.5" font-family="Helvetica,sans-Serif" font-size="10.00" fill="#000000">unlang_max_request_time</text>
</a>
</g>
</g>
<!-- Node7486&#45;&gt;Node7850 -->
<g id="edge55" class="edge">
<title>Node7486&#45;&gt;Node7850</title>
<path fill="none" stroke="#191970" d="M262.4655,-294.9999C293.2933,-368.5325 404.1802,-633.0275 426.9109,-687.2465"/>
<polygon fill="#191970" stroke="#191970" points="265.6123,-293.4533 258.5181,-285.5842 259.1567,-296.1598 265.6123,-293.4533"/>
</g>
<!-- Node7487&#45;&gt;Node7485 -->
<g id="edge15" class="edge">
<title>Node7487&#45;&gt;Node7485</title>
<path fill="none" stroke="#191970" d="M377.6052,-202.8338C316.206,-206.0924 215.0566,-211.4607 146.3105,-215.1092"/>
<polygon fill="#191970" stroke="#191970" points="378.0477,-206.3153 387.8481,-202.2902 377.6767,-199.3252 378.0477,-206.3153"/>
</g>
<!-- Node7487&#45;&gt;Node7486 -->
<g id="edge16" class="edge">
<title>Node7487&#45;&gt;Node7486</title>
<path fill="none" stroke="#191970" d="M408.4897,-214.3787C378.3885,-229.7854 324.7254,-253.1651 289.3707,-266.4886"/>
<polygon fill="#191970" stroke="#191970" points="410.1758,-217.4464 417.3818,-209.6796 406.9051,-211.2575 410.1758,-217.4464"/>
</g>
<!-- Node7488 -->
<g id="node4" class="node">
<title>Node7488</title>
<g id="a_node4"><a xlink:href="lib_2unlang_2io_8c.html#a7c747bc4b53263b7d9c0eb67e1165caa" target="_top" xlink:title="Run the interpreter after creating a subrequest. ">
<polygon fill="none" stroke="#000000" points="535,-304.5 535,-323.5 673,-323.5 673,-304.5 535,-304.5"/>
<text text-anchor="middle" x="604" y="-311.5" font-family="Helvetica,sans-Serif" font-size="10.00" fill="#000000">unlang_io_process_interpret</text>
</a>
</g>
</g>
<!-- Node7487&#45;&gt;Node7488 -->
<g id="edge3" class="edge">
<title>Node7487&#45;&gt;Node7488</title>
<path fill="none" stroke="#191970" d="M445.302,-217.3508C463.8288,-238.7122 498.1457,-274.6528 535,-295 541.9615,-298.8434 549.7548,-301.9527 557.5288,-304.4545"/>
<polygon fill="#191970" stroke="#191970" points="447.9317,-215.0403 438.7898,-209.6853 442.597,-219.5725 447.9317,-215.0403"/>
</g>
<!-- Node7493 -->
<g id="node6" class="node">
<title>Node7493</title>
<g id="a_node6"><a xlink:href="parallel_8c.html#a951d3a2de485c00587df8e16972c3cbc" target="_top" xlink:title="Run one or more sub&#45;sections from the parallel section. ">
<polygon fill="none" stroke="#ff0000" points="878,-332.5 878,-351.5 999,-351.5 999,-332.5 878,-332.5"/>
<text text-anchor="middle" x="938.5" y="-339.5" font-family="Helvetica,sans-Serif" font-size="10.00" fill="#000000">unlang_parallel_process</text>
</a>
</g>
</g>
<!-- Node7487&#45;&gt;Node7493 -->
<g id="edge17" class="edge">
<title>Node7487&#45;&gt;Node7493</title>
<path fill="none" stroke="#191970" d="M484.1516,-203.5539C580.3768,-210.6122 779.2956,-228.2451 842,-257 881.1671,-274.9612 916.1257,-314.1521 930.9599,-332.3536"/>
<polygon fill="#191970" stroke="#191970" points="484.2799,-200.0542 474.0537,-202.8245 483.7755,-207.036 484.2799,-200.0542"/>
</g>
<!-- Node7545 -->
<g id="node7" class="node">
<title>Node7545</title>
<g id="a_node7"><a xlink:href="trigger_8c.html#a814cc96d10e075ad19ac2bf2a1063b11" target="_top" xlink:title="trigger_process">
<polygon fill="none" stroke="#000000" points="562.5,-38.5 562.5,-57.5 645.5,-57.5 645.5,-38.5 562.5,-38.5"/>
<text text-anchor="middle" x="604" y="-45.5" font-family="Helvetica,sans-Serif" font-size="10.00" fill="#000000">trigger_process</text>
</a>
</g>
</g>
<!-- Node7487&#45;&gt;Node7545 -->
<g id="edge6" class="edge">
<title>Node7487&#45;&gt;Node7545</title>
<path fill="none" stroke="#191970" d="M483.9005,-191.0634C489.4575,-188.4925 494.6536,-185.2035 499,-181 537.1931,-144.0623 496.7375,-103.8659 535,-67 542.4265,-59.8446 552.2905,-55.3317 562.2308,-52.5001"/>
<polygon fill="#191970" stroke="#191970" points="482.3781,-187.8986 474.294,-194.7467 484.8842,-194.4346 482.3781,-187.8986"/>
</g>
<!-- Node7699 -->
<g id="node10" class="node">
<title>Node7699</title>
<g id="a_node10"><a xlink:href="interpret_8h.html#a61c49bd5738d8a61aa6096f94d10ac33" target="_top" xlink:title="Call a module, iteratively, with a local stack, rather than recursively. ">
<polygon fill="none" stroke="#000000" points="543,-266.5 543,-285.5 665,-285.5 665,-266.5 543,-266.5"/>
<text text-anchor="middle" x="604" y="-273.5" font-family="Helvetica,sans-Serif" font-size="10.00" fill="#000000">unlang_interpret_section</text>
</a>
</g>
</g>
<!-- Node7487&#45;&gt;Node7699 -->
<g id="edge9" class="edge">
<title>Node7487&#45;&gt;Node7699</title>
<path fill="none" stroke="#191970" d="M474.4504,-212.9803C482.8101,-216.1282 491.3409,-219.8142 499,-224 516.7868,-233.7208 517.1911,-242.3197 535,-252 545.6976,-257.8148 558.0751,-262.6435 569.3682,-266.408"/>
<polygon fill="#191970" stroke="#191970" points="475.3727,-209.5935 464.778,-209.5344 473.0235,-216.1875 475.3727,-209.5935"/>
</g>
<!-- Node7703 -->
<g id="node13" class="node">
<title>Node7703</title>
<g id="a_node13"><a xlink:href="subrequest_8c.html#a1ed0545b2bc4e7d6556818b987a59984" target="_top" xlink:title="Process a subrequest until it either detaches, or is done. ">
<polygon fill="none" stroke="#000000" points="535,-152.5 535,-171.5 673,-171.5 673,-152.5 535,-152.5"/>
<text text-anchor="middle" x="604" y="-159.5" font-family="Helvetica,sans-Serif" font-size="10.00" fill="#000000">unlang_subrequest_process</text>
</a>
</g>
</g>
<!-- Node7487&#45;&gt;Node7703 -->
<g id="edge18" class="edge">
<title>Node7487&#45;&gt;Node7703</title>
<path fill="none" stroke="#191970" d="M484.1009,-188.3362C508.6813,-182.9371 537.5126,-176.6042 560.7423,-171.5017"/>
<polygon fill="#191970" stroke="#191970" points="483.2252,-184.945 474.2089,-190.509 484.727,-191.7821 483.2252,-184.945"/>
</g>
<!-- Node7708 -->
<g id="node15" class="node">
<title>Node7708</title>
<g id="a_node15"><a xlink:href="xlat__eval_8c.html#a3116be655c31834674227e6d9c235d55" target="_top" xlink:title="xlat_sync_eval">
<polygon fill="none" stroke="#000000" points="563,-114.5 563,-133.5 645,-133.5 645,-114.5 563,-114.5"/>
<text text-anchor="middle" x="604" y="-121.5" font-family="Helvetica,sans-Serif" font-size="10.00" fill="#000000">xlat_sync_eval</text>
</a>
</g>
</g>
<!-- Node7487&#45;&gt;Node7708 -->
<g id="edge20" class="edge">
<title>Node7487&#45;&gt;Node7708</title>
<path fill="none" stroke="#191970" d="M483.8074,-188.3581C489.1114,-186.281 494.2758,-183.8475 499,-181 518.9249,-168.9902 515.0526,-154.9723 535,-143 543.4162,-137.9486 553.209,-134.2055 562.7271,-131.4443"/>
<polygon fill="#191970" stroke="#191970" points="482.46,-185.1213 474.1745,-191.7243 484.7693,-191.7294 482.46,-185.1213"/>
</g>
<!-- Node7815 -->
<g id="node17" class="node">
<title>Node7815</title>
<g id="a_node17"><a xlink:href="proto__arp__process_8c.html#ac383fd55ca747af3d93dfbd3fd247708" target="_top" xlink:title="mod_process">
<polygon fill="none" stroke="#000000" points="566.5,-76.5 566.5,-95.5 641.5,-95.5 641.5,-76.5 566.5,-76.5"/>
<text text-anchor="middle" x="604" y="-83.5" font-family="Helvetica,sans-Serif" font-size="10.00" fill="#000000">mod_process</text>
</a>
</g>
</g>
<!-- Node7487&#45;&gt;Node7815 -->
<g id="edge23" class="edge">
<title>Node7487&#45;&gt;Node7815</title>
<path fill="none" stroke="#191970" d="M483.5798,-190.3683C489.1503,-187.9175 494.4371,-184.8467 499,-181 527.5758,-156.9093 506.379,-129.0369 535,-105 543.8487,-97.5686 555.3744,-93.0291 566.4643,-90.2611"/>
<polygon fill="#191970" stroke="#191970" points="482.1619,-187.1616 474.0152,-193.9352 484.6078,-193.7203 482.1619,-187.1616"/>
</g>
<!-- Node7816 -->
<g id="node18" class="node">
<title>Node7816</title>
<g id="a_node18"><a xlink:href="proto__ldap__sync_8c.html#a5e2ca70322198d5431ec7fdc6bbb2bd2" target="_top" xlink:title="Describe the packet we received from the LDAP server. ">
<polygon fill="none" stroke="#000000" points="540,-.5 540,-19.5 668,-19.5 668,-.5 540,-.5"/>
<text text-anchor="middle" x="604" y="-7.5" font-family="Helvetica,sans-Serif" font-size="10.00" fill="#000000">proto_ldap_packet_debug</text>
</a>
</g>
</g>
<!-- Node7487&#45;&gt;Node7816 -->
<g id="edge24" class="edge">
<title>Node7487&#45;&gt;Node7816</title>
<path fill="none" stroke="#191970" d="M483.9928,-191.4712C489.5784,-188.8329 494.7562,-185.4166 499,-181 547.1013,-130.9398 486.8047,-78.9696 535,-29 538.709,-25.1544 543.1188,-22.0647 547.8892,-19.5853"/>
<polygon fill="#191970" stroke="#191970" points="482.3672,-188.3471 474.3007,-195.2159 484.8901,-194.8767 482.3672,-188.3471"/>
</g>
<!-- Node7817 -->
<g id="node19" class="node">
<title>Node7817</title>
<g id="a_node19"><a xlink:href="rlm__eap__gtc_8c.html#a2c1df94cf3afe817629286fa5c5574bc" target="_top" xlink:title="mod_process_auth_type">
<polygon fill="none" stroke="#000000" points="714,-152.5 714,-171.5 837,-171.5 837,-152.5 714,-152.5"/>
<text text-anchor="middle" x="775.5" y="-159.5" font-family="Helvetica,sans-Serif" font-size="10.00" fill="#000000">mod_process_auth_type</text>
</a>
</g>
</g>
<!-- Node7487&#45;&gt;Node7817 -->
<g id="edge25" class="edge">
<title>Node7487&#45;&gt;Node7817</title>
<path fill="none" stroke="#191970" d="M484.5073,-197.4141C533.6566,-194.6561 608.4411,-189.494 673,-181 691.6614,-178.5447 712.0769,-174.9486 729.7415,-171.5438"/>
<polygon fill="#191970" stroke="#191970" points="484.215,-193.9248 474.4214,-197.9665 484.5979,-200.9143 484.215,-193.9248"/>
</g>
<!-- Node7489 -->
<g id="node5" class="node">
<title>Node7489</title>
<g id="a_node5"><a xlink:href="unlang__priv_8h.html#a74fd54c7579e06817b3c8ca6a3344105" target="_top" xlink:title="Allocate a child request based on the parent. ">
<polygon fill="none" stroke="#ff0000" points="720,-305 720,-335 831,-335 831,-305 720,-305"/>
<text text-anchor="start" x="728" y="-323" font-family="Helvetica,sans-Serif" font-size="10.00" fill="#000000">unlang_io_subrequest</text>
<text text-anchor="middle" x="775.5" y="-312" font-family="Helvetica,sans-Serif" font-size="10.00" fill="#000000">_alloc</text>
</a>
</g>
</g>
<!-- Node7488&#45;&gt;Node7489 -->
<g id="edge4" class="edge">
<title>Node7488&#45;&gt;Node7489</title>
<path fill="none" stroke="#191970" d="M683.5347,-316.7826C695.8397,-317.2131 708.3163,-317.6495 719.9438,-318.0563"/>
<polygon fill="#191970" stroke="#191970" points="683.3776,-313.275 673.2613,-316.4231 683.1328,-320.2707 683.3776,-313.275"/>
</g>
<!-- Node7489&#45;&gt;Node7493 -->
<g id="edge5" class="edge">
<title>Node7489&#45;&gt;Node7493</title>
<path fill="none" stroke="#191970" d="M841.1681,-328.8632C853.272,-330.4968 865.8605,-332.1959 877.8093,-333.8086"/>
<polygon fill="#191970" stroke="#191970" points="841.5178,-325.3787 831.1395,-327.5096 840.5814,-332.3158 841.5178,-325.3787"/>
</g>
<!-- Node7546 -->
<g id="node8" class="node">
<title>Node7546</title>
<g id="a_node8"><a xlink:href="trigger_8h.html#a4f67b18a2a9f92b9114efa3e36748457" target="_top" xlink:title="Execute a trigger &#45; call an executable to process an event. ">
<polygon fill="none" stroke="#ff0000" points="740.5,-38.5 740.5,-57.5 810.5,-57.5 810.5,-38.5 740.5,-38.5"/>
<text text-anchor="middle" x="775.5" y="-45.5" font-family="Helvetica,sans-Serif" font-size="10.00" fill="#000000">trigger_exec</text>
</a>
</g>
</g>
<!-- Node7545&#45;&gt;Node7546 -->
<g id="edge7" class="edge">
<title>Node7545&#45;&gt;Node7546</title>
<path fill="none" stroke="#191970" d="M655.7161,-48C683.1152,-48 716.048,-48 740.4421,-48"/>
<polygon fill="#191970" stroke="#191970" points="655.5154,-44.5001 645.5154,-48 655.5153,-51.5001 655.5154,-44.5001"/>
</g>
<!-- Node7695 -->
<g id="node9" class="node">
<title>Node7695</title>
<g id="a_node9"><a xlink:href="proto__bfd_8c.html#a1b79b6ef1ae61f21a48a79135712efb1" target="_top" xlink:title="bfd_process">
<polygon fill="none" stroke="#ff0000" points="903.5,-133.5 903.5,-152.5 973.5,-152.5 973.5,-133.5 903.5,-133.5"/>
<text text-anchor="middle" x="938.5" y="-140.5" font-family="Helvetica,sans-Serif" font-size="10.00" fill="#000000">bfd_process</text>
</a>
</g>
</g>
<!-- Node7546&#45;&gt;Node7695 -->
<g id="edge8" class="edge">
<title>Node7546&#45;&gt;Node7695</title>
<path fill="none" stroke="#191970" d="M820.3198,-58.2103C827.7529,-60.6311 835.2358,-63.541 842,-67 877.5054,-85.1566 912.6305,-117.3399 928.9858,-133.3698"/>
<polygon fill="#191970" stroke="#191970" points="821.2256,-54.828 810.6415,-55.3045 819.2126,-61.5323 821.2256,-54.828"/>
</g>
<!-- Node7699&#45;&gt;Node7485 -->
<g id="edge12" class="edge">
<title>Node7699&#45;&gt;Node7485</title>
<path fill="none" stroke="#191970" d="M532.9004,-268.3678C432.0293,-257.5399 248.323,-237.82 146.2758,-226.8658"/>
<polygon fill="#191970" stroke="#191970" points="532.677,-271.8639 542.9935,-269.4513 533.4242,-264.9039 532.677,-271.8639"/>
</g>
<!-- Node7699&#45;&gt;Node7486 -->
<g id="edge13" class="edge">
<title>Node7699&#45;&gt;Node7486</title>
<path fill="none" stroke="#191970" d="M532.7797,-276C472.904,-276 387.6689,-276 327.3412,-276"/>
<polygon fill="#191970" stroke="#191970" points="532.9071,-279.5001 542.9071,-276 532.907,-272.5001 532.9071,-279.5001"/>
</g>
<!-- Node7699&#45;&gt;Node7695 -->
<g id="edge14" class="edge">
<title>Node7699&#45;&gt;Node7695</title>
<path fill="none" stroke="#191970" d="M637.3607,-262.7355C704.662,-235.976 855.2892,-176.0853 914.2121,-152.6571"/>
<polygon fill="#191970" stroke="#191970" points="636.0557,-259.4878 628.0564,-266.435 638.642,-265.9925 636.0557,-259.4878"/>
</g>
<!-- Node7700 -->
<g id="node11" class="node">
<title>Node7700</title>
<g id="a_node11"><a xlink:href="virtual__servers_8h.html#a2e7c14a60592b70fb7a0de624e395bcb" target="_top" xlink:title="process_authenticate">
<polygon fill="none" stroke="#000000" points="720.5,-266.5 720.5,-285.5 830.5,-285.5 830.5,-266.5 720.5,-266.5"/>
<text text-anchor="middle" x="775.5" y="-273.5" font-family="Helvetica,sans-Serif" font-size="10.00" fill="#000000">process_authenticate</text>
</a>
</g>
</g>
<!-- Node7699&#45;&gt;Node7700 -->
<g id="edge10" class="edge">
<title>Node7699&#45;&gt;Node7700</title>
<path fill="none" stroke="#191970" d="M675.6816,-276C690.6574,-276 706.2217,-276 720.4798,-276"/>
<polygon fill="#191970" stroke="#191970" points="675.4311,-272.5001 665.431,-276 675.431,-279.5001 675.4311,-272.5001"/>
</g>
<!-- Node7701 -->
<g id="node12" class="node">
<title>Node7701</title>
<g id="a_node12"><a xlink:href="rlm__eap__gtc_8c.html#a1ee517a20d1254bcde78063a1e36840c" target="_top" xlink:title="mod_process">
<polygon fill="none" stroke="#ff0000" points="901,-209.5 901,-228.5 976,-228.5 976,-209.5 901,-209.5"/>
<text text-anchor="middle" x="938.5" y="-216.5" font-family="Helvetica,sans-Serif" font-size="10.00" fill="#000000">mod_process</text>
</a>
</g>
</g>
<!-- Node7700&#45;&gt;Node7701 -->
<g id="edge11" class="edge">
<title>Node7700&#45;&gt;Node7701</title>
<path fill="none" stroke="#191970" d="M812.4708,-263.0715C842.4626,-252.5836 884.0636,-238.0361 911.1285,-228.5716"/>
<polygon fill="#191970" stroke="#191970" points="811.0667,-259.8547 802.7825,-266.4595 813.3774,-266.4623 811.0667,-259.8547"/>
</g>
<!-- Node7704 -->
<g id="node14" class="node">
<title>Node7704</title>
<g id="a_node14"><a xlink:href="subrequest_8c.html#a24bc2d461a1834c4b3d0cd235dc52ec4" target="_top" xlink:title="unlang_subrequest_start">
<polygon fill="none" stroke="#ff0000" points="714,-114.5 714,-133.5 837,-133.5 837,-114.5 714,-114.5"/>
<text text-anchor="middle" x="775.5" y="-121.5" font-family="Helvetica,sans-Serif" font-size="10.00" fill="#000000">unlang_subrequest_start</text>
</a>
</g>
</g>
<!-- Node7703&#45;&gt;Node7704 -->
<g id="edge19" class="edge">
<title>Node7703&#45;&gt;Node7704</title>
<path fill="none" stroke="#191970" d="M657.0412,-150.2474C681.2913,-144.8742 709.6467,-138.5914 732.5345,-133.5201"/>
<polygon fill="#191970" stroke="#191970" points="656.2827,-146.8305 647.2767,-152.411 657.7971,-153.6648 656.2827,-146.8305"/>
</g>
<!-- Node7709 -->
<g id="node16" class="node">
<title>Node7709</title>
<g id="a_node16"><a xlink:href="xlat__eval_8c.html#a975c12ee802f5faf5393f79449aa4f65" target="_top" xlink:title="xlat_process">
<polygon fill="none" stroke="#ff0000" points="739.5,-76.5 739.5,-95.5 811.5,-95.5 811.5,-76.5 739.5,-76.5"/>
<text text-anchor="middle" x="775.5" y="-83.5" font-family="Helvetica,sans-Serif" font-size="10.00" fill="#000000">xlat_process</text>
</a>
</g>
</g>
<!-- Node7708&#45;&gt;Node7709 -->
<g id="edge21" class="edge">
<title>Node7708&#45;&gt;Node7709</title>
<path fill="none" stroke="#191970" d="M635.8255,-111.5622C665.2092,-103.3142 708.8104,-93.5757 739.4639,-88.3659"/>
<polygon fill="#191970" stroke="#191970" points="634.6895,-108.2476 626.0695,-114.4076 636.6496,-114.9676 634.6895,-108.2476"/>
</g>
<!-- Node7709&#45;&gt;Node7708 -->
<g id="edge22" class="edge">
<title>Node7709&#45;&gt;Node7708</title>
<path fill="none" stroke="#191970" d="M743.9794,-98.3521C716.1645,-106.1763 675.4388,-115.3638 645.0785,-120.7572"/>
<polygon fill="#191970" stroke="#191970" points="744.983,-101.7053 753.5998,-95.5408 743.0194,-94.9863 744.983,-101.7053"/>
</g>
<!-- Node7817&#45;&gt;Node7701 -->
<g id="edge26" class="edge">
<title>Node7817&#45;&gt;Node7701</title>
<path fill="none" stroke="#191970" d="M812.4708,-174.9285C842.4626,-185.4164 884.0636,-199.9639 911.1285,-209.4284"/>
<polygon fill="#191970" stroke="#191970" points="813.3774,-171.5377 802.7825,-171.5405 811.0667,-178.1453 813.3774,-171.5377"/>
</g>
<!-- Node7818&#45;&gt;Node7486 -->
<g id="edge34" class="edge">
<title>Node7818&#45;&gt;Node7486</title>
<path fill="none" stroke="#191970" d="M414.2422,-486.5144C375.9282,-440.945 283.4263,-320.9144 259.9758,-285.6209"/>
<polygon fill="#191970" stroke="#191970" points="411.7845,-489.026 420.9419,-494.3546 417.1062,-484.4784 411.7845,-489.026"/>
</g>
<!-- Node7818&#45;&gt;Node7488 -->
<g id="edge31" class="edge">
<title>Node7818&#45;&gt;Node7488</title>
<path fill="none" stroke="#191970" d="M438.031,-484.7886C451.5502,-450.4425 484.3873,-378.3397 535,-338 542.8354,-331.755 552.4058,-327.0788 561.8941,-323.5979"/>
<polygon fill="#191970" stroke="#191970" points="434.7508,-483.5678 434.4573,-494.1586 441.2912,-486.0623 434.7508,-483.5678"/>
</g>
<!-- Node7819 -->
<g id="node21" class="node">
<title>Node7819</title>
<g id="a_node21"><a xlink:href="lib_2curl_2io_8c.html#a8c1b198586098a09c97926b73b49e177" target="_top" xlink:title="De&#45;queue curl requests and wake up the requests that initiated them. ">
<polygon fill="none" stroke="#000000" points="556,-532.5 556,-551.5 652,-551.5 652,-532.5 556,-532.5"/>
<text text-anchor="middle" x="604" y="-539.5" font-family="Helvetica,sans-Serif" font-size="10.00" fill="#000000">_fr_curl_io_demux</text>
</a>
</g>
</g>
<!-- Node7818&#45;&gt;Node7819 -->
<g id="edge28" class="edge">
<title>Node7818&#45;&gt;Node7819</title>
<path fill="none" stroke="#191970" d="M484.5051,-515.7526C508.9673,-521.1258 537.5707,-527.4086 560.6587,-532.4799"/>
<polygon fill="#191970" stroke="#191970" points="485.1733,-512.316 474.6552,-513.589 483.6714,-519.153 485.1733,-512.316"/>
</g>
<!-- Node7828 -->
<g id="node24" class="node">
<title>Node7828</title>
<g id="a_node24"><a xlink:href="src_2modules_2rlm__sigtran_2client_8c.html#aa529252c062e5b593a2c0edd2492e3b6" target="_top" xlink:title="Drain any data we received. ">
<polygon fill="none" stroke="#000000" points="555,-494.5 555,-513.5 653,-513.5 653,-494.5 555,-494.5"/>
<text text-anchor="middle" x="604" y="-501.5" font-family="Helvetica,sans-Serif" font-size="10.00" fill="#000000">_sigtran_pipe_read</text>
</a>
</g>
</g>
<!-- Node7818&#45;&gt;Node7828 -->
<g id="edge32" class="edge">
<title>Node7818&#45;&gt;Node7828</title>
<path fill="none" stroke="#191970" d="M509.4444,-504C524.8761,-504 540.6527,-504 554.7868,-504"/>
<polygon fill="#191970" stroke="#191970" points="509.3742,-500.5001 499.3742,-504 509.3741,-507.5001 509.3742,-500.5001"/>
</g>
<!-- Node7831 -->
<g id="node26" class="node">
<title>Node7831</title>
<g id="a_node26"><a xlink:href="parallel_8c.html#a54be677b4190ecf8c8e0a36143d95e70" target="_top" xlink:title="When the chld is done, tell the parent that we&#39;ve exited. ">
<polygon fill="none" stroke="#000000" points="709,-354.5 709,-373.5 842,-373.5 842,-354.5 709,-354.5"/>
<text text-anchor="middle" x="775.5" y="-361.5" font-family="Helvetica,sans-Serif" font-size="10.00" fill="#000000">unlang_parallel_child_done</text>
</a>
</g>
</g>
<!-- Node7818&#45;&gt;Node7831 -->
<g id="edge35" class="edge">
<title>Node7818&#45;&gt;Node7831</title>
<path fill="none" stroke="#191970" d="M439.1673,-485.1121C453.4998,-454.648 486.3522,-395.5969 535,-371 597.0666,-339.6184 680.1315,-346.0964 730.6259,-354.4615"/>
<polygon fill="#191970" stroke="#191970" points="435.9631,-483.7036 435.0207,-494.2564 442.3382,-486.5945 435.9631,-483.7036"/>
</g>
<!-- Node7832 -->
<g id="node27" class="node">
<title>Node7832</title>
<g id="a_node27"><a xlink:href="tmpl_8c.html#acc44e8cb9acfa4d4e69544212a544e26" target="_top" xlink:title="unlang_tmpl_exec_waitpid">
<polygon fill="none" stroke="#000000" points="538.5,-456.5 538.5,-475.5 669.5,-475.5 669.5,-456.5 538.5,-456.5"/>
<text text-anchor="middle" x="604" y="-463.5" font-family="Helvetica,sans-Serif" font-size="10.00" fill="#000000">unlang_tmpl_exec_waitpid</text>
</a>
</g>
</g>
<!-- Node7818&#45;&gt;Node7832 -->
<g id="edge37" class="edge">
<title>Node7818&#45;&gt;Node7832</title>
<path fill="none" stroke="#191970" d="M484.5051,-492.2474C508.9673,-486.8742 537.5707,-480.5914 560.6587,-475.5201"/>
<polygon fill="#191970" stroke="#191970" points="483.6714,-488.847 474.6552,-494.411 485.1733,-495.684 483.6714,-488.847"/>
</g>
<!-- Node7836 -->
<g id="node29" class="node">
<title>Node7836</title>
<g id="a_node29"><a xlink:href="tmpl_8c.html#a250717bc5ba76076ac7b1ba7c166f9f4" target="_top" xlink:title="unlang_tmpl_exec_read">
<polygon fill="none" stroke="#000000" points="544.5,-418.5 544.5,-437.5 663.5,-437.5 663.5,-418.5 544.5,-418.5"/>
<text text-anchor="middle" x="604" y="-425.5" font-family="Helvetica,sans-Serif" font-size="10.00" fill="#000000">unlang_tmpl_exec_read</text>
</a>
</g>
</g>
<!-- Node7818&#45;&gt;Node7836 -->
<g id="edge39" class="edge">
<title>Node7818&#45;&gt;Node7836</title>
<path fill="none" stroke="#191970" d="M454.638,-488.9649C475.2252,-476.3845 506.2069,-458.6688 535,-447 543.982,-443.36 553.8961,-440.1742 563.3406,-437.5038"/>
<polygon fill="#191970" stroke="#191970" points="452.6134,-486.1019 445.9556,-494.3436 456.2998,-492.0526 452.6134,-486.1019"/>
</g>
<!-- Node7837 -->
<g id="node30" class="node">
<title>Node7837</title>
<g id="a_node30"><a xlink:href="tmpl_8c.html#acbc14585ffad271ad1205de3af515d9f" target="_top" xlink:title="unlang_tmpl_exec_timeout">
<polygon fill="none" stroke="#000000" points="537.5,-380.5 537.5,-399.5 670.5,-399.5 670.5,-380.5 537.5,-380.5"/>
<text text-anchor="middle" x="604" y="-387.5" font-family="Helvetica,sans-Serif" font-size="10.00" fill="#000000">unlang_tmpl_exec_timeout</text>
</a>
</g>
</g>
<!-- Node7818&#45;&gt;Node7837 -->
<g id="edge41" class="edge">
<title>Node7818&#45;&gt;Node7837</title>
<path fill="none" stroke="#191970" d="M445.302,-486.6492C463.8288,-465.2878 498.1457,-429.3472 535,-409 541.9615,-405.1566 549.7548,-402.0473 557.5288,-399.5455"/>
<polygon fill="#191970" stroke="#191970" points="442.597,-484.4275 438.7898,-494.3147 447.9317,-488.9597 442.597,-484.4275"/>
</g>
<!-- Node7838 -->
<g id="node31" class="node">
<title>Node7838</title>
<g id="a_node31"><a xlink:href="rlm__delay_8c.html#a7dcd2c9d1387d646ab57e0ff69bdcafc" target="_top" xlink:title="Called when the timeout has expired. ">
<polygon fill="none" stroke="#000000" points="568.5,-760.5 568.5,-779.5 639.5,-779.5 639.5,-760.5 568.5,-760.5"/>
<text text-anchor="middle" x="604" y="-767.5" font-family="Helvetica,sans-Serif" font-size="10.00" fill="#000000">_delay_done</text>
</a>
</g>
</g>
<!-- Node7818&#45;&gt;Node7838 -->
<g id="edge43" class="edge">
<title>Node7818&#45;&gt;Node7838</title>
<path fill="none" stroke="#191970" d="M438.536,-523.1586C460.8756,-579.7762 525.7615,-742.8892 535,-751 544.2438,-759.1155 556.6572,-763.7956 568.4062,-766.4837"/>
<polygon fill="#191970" stroke="#191970" points="441.6955,-521.6295 434.7731,-513.6088 435.1828,-524.1957 441.6955,-521.6295"/>
</g>
<!-- Node7840 -->
<g id="node33" class="node">
<title>Node7840</title>
<g id="a_node33"><a xlink:href="rlm__delay_8c.html#a993ca2bd9520e20117373e4b743debf7" target="_top" xlink:title="_xlat_delay_done">
<polygon fill="none" stroke="#000000" points="558,-722.5 558,-741.5 650,-741.5 650,-722.5 558,-722.5"/>
<text text-anchor="middle" x="604" y="-729.5" font-family="Helvetica,sans-Serif" font-size="10.00" fill="#000000">_xlat_delay_done</text>
</a>
</g>
</g>
<!-- Node7818&#45;&gt;Node7840 -->
<g id="edge45" class="edge">
<title>Node7818&#45;&gt;Node7840</title>
<path fill="none" stroke="#191970" d="M435.0774,-523.5561C444.7571,-564.9986 473.0968,-662.0251 535,-713 541.6182,-718.4498 549.6814,-722.3421 557.9299,-725.1206"/>
<polygon fill="#191970" stroke="#191970" points="438.4594,-522.6403 432.8741,-513.6373 431.626,-524.1583 438.4594,-522.6403"/>
</g>
<!-- Node7843 -->
<g id="node35" class="node">
<title>Node7843</title>
<g id="a_node35"><a xlink:href="rlm__icmp_8c.html#a9d9e3eaae035da68c2d0d7ecb6c780f4" target="_top" xlink:title="_xlat_icmp_timeout">
<polygon fill="none" stroke="#000000" points="553.5,-684.5 553.5,-703.5 654.5,-703.5 654.5,-684.5 553.5,-684.5"/>
<text text-anchor="middle" x="604" y="-691.5" font-family="Helvetica,sans-Serif" font-size="10.00" fill="#000000">_xlat_icmp_timeout</text>
</a>
</g>
</g>
<!-- Node7818&#45;&gt;Node7843 -->
<g id="edge47" class="edge">
<title>Node7818&#45;&gt;Node7843</title>
<path fill="none" stroke="#191970" d="M437.4206,-523.6188C450.1351,-559.3359 481.9673,-634.973 535,-675 540.4545,-679.1169 546.7502,-682.3418 553.2738,-684.8679"/>
<polygon fill="#191970" stroke="#191970" points="440.6419,-522.2225 434.0862,-513.8994 434.0207,-524.4941 440.6419,-522.2225"/>
</g>
<!-- Node7846 -->
<g id="node37" class="node">
<title>Node7846</title>
<g id="a_node37"><a xlink:href="rlm__icmp_8c.html#a3bd53dcc7c7c8394be5b29ee5f857872" target="_top" xlink:title="mod_icmp_read">
<polygon fill="none" stroke="#000000" points="561,-646.5 561,-665.5 647,-665.5 647,-646.5 561,-646.5"/>
<text text-anchor="middle" x="604" y="-653.5" font-family="Helvetica,sans-Serif" font-size="10.00" fill="#000000">mod_icmp_read</text>
</a>
</g>
</g>
<!-- Node7818&#45;&gt;Node7846 -->
<g id="edge49" class="edge">
<title>Node7818&#45;&gt;Node7846</title>
<path fill="none" stroke="#191970" d="M440.5615,-522.8389C456.2602,-551.8409 490.2742,-607.1875 535,-637 542.7541,-642.1686 551.887,-645.9394 560.9255,-648.688"/>
<polygon fill="#191970" stroke="#191970" points="443.54,-520.9831 435.785,-513.7643 437.3457,-524.2435 443.54,-520.9831"/>
</g>
<!-- Node7848 -->
<g id="node39" class="node">
<title>Node7848</title>
<g id="a_node39"><a xlink:href="rlm__radius__udp_8c.html#abdbaeb43b11ab1405bfa903d355af04a" target="_top" xlink:title="Write out a canned failure. ">
<polygon fill="none" stroke="#000000" points="570.5,-570.5 570.5,-589.5 637.5,-589.5 637.5,-570.5 570.5,-570.5"/>
<text text-anchor="middle" x="604" y="-577.5" font-family="Helvetica,sans-Serif" font-size="10.00" fill="#000000">request_fail</text>
</a>
</g>
</g>
<!-- Node7818&#45;&gt;Node7848 -->
<g id="edge51" class="edge">
<title>Node7818&#45;&gt;Node7848</title>
<path fill="none" stroke="#191970" d="M454.638,-519.0351C475.2252,-531.6155 506.2069,-549.3312 535,-561 546.285,-565.5734 559.0416,-569.4296 570.4893,-572.4476"/>
<polygon fill="#191970" stroke="#191970" points="456.2998,-515.9474 445.9556,-513.6564 452.6134,-521.8981 456.2998,-515.9474"/>
</g>
<!-- Node7849 -->
<g id="node41" class="node">
<title>Node7849</title>
<g id="a_node41"><a xlink:href="rlm__radius__udp_8c.html#a2bf14dc24b98de98e6476bb1000b6fdc" target="_top" xlink:title="Response has already been written to the rctx at this point. ">
<polygon fill="none" stroke="#000000" points="557,-608.5 557,-627.5 651,-627.5 651,-608.5 557,-608.5"/>
<text text-anchor="middle" x="604" y="-615.5" font-family="Helvetica,sans-Serif" font-size="10.00" fill="#000000">request_complete</text>
</a>
</g>
</g>
<!-- Node7818&#45;&gt;Node7849 -->
<g id="edge53" class="edge">
<title>Node7818&#45;&gt;Node7849</title>
<path fill="none" stroke="#191970" d="M445.302,-521.3508C463.8288,-542.7122 498.1457,-578.6528 535,-599 541.9615,-602.8434 549.7548,-605.9527 557.5288,-608.4545"/>
<polygon fill="#191970" stroke="#191970" points="447.9317,-519.0403 438.7898,-513.6853 442.597,-523.5725 447.9317,-519.0403"/>
</g>
<!-- Node7820 -->
<g id="node22" class="node">
<title>Node7820</title>
<g id="a_node22"><a xlink:href="lib_2curl_2io_8c.html#a5c2a7570e81ef532bdac97724efd8a6d" target="_top" xlink:title="libcurl&#39;s timer expired ">
<polygon fill="none" stroke="#ff0000" points="713,-532.5 713,-551.5 838,-551.5 838,-532.5 713,-532.5"/>
<text text-anchor="middle" x="775.5" y="-539.5" font-family="Helvetica,sans-Serif" font-size="10.00" fill="#000000">_fr_curl_io_timer_expired</text>
</a>
</g>
</g>
<!-- Node7819&#45;&gt;Node7820 -->
<g id="edge29" class="edge">
<title>Node7819&#45;&gt;Node7820</title>
<path fill="none" stroke="#191970" d="M662.639,-542C678.8386,-542 696.4772,-542 712.8926,-542"/>
<polygon fill="#191970" stroke="#191970" points="662.2287,-538.5001 652.2287,-542 662.2287,-545.5001 662.2287,-538.5001"/>
</g>
<!-- Node7823 -->
<g id="node23" class="node">
<title>Node7823</title>
<g id="a_node23"><a xlink:href="lib_2curl_2io_8c.html#ae6f9a5e4c77d88cf8ff9be010f3951ab" target="_top" xlink:title="Service an IO event on a file descriptor. ">
<polygon fill="none" stroke="#ff0000" points="726.5,-570.5 726.5,-589.5 824.5,-589.5 824.5,-570.5 726.5,-570.5"/>
<text text-anchor="middle" x="775.5" y="-577.5" font-family="Helvetica,sans-Serif" font-size="10.00" fill="#000000">_fr_curl_io_service</text>
</a>
</g>
</g>
<!-- Node7819&#45;&gt;Node7823 -->
<g id="edge30" class="edge">
<title>Node7819&#45;&gt;Node7823</title>
<path fill="none" stroke="#191970" d="M657.0412,-553.7526C681.2913,-559.1258 709.6467,-565.4086 732.5345,-570.4799"/>
<polygon fill="#191970" stroke="#191970" points="657.7971,-550.3352 647.2767,-551.589 656.2827,-557.1695 657.7971,-550.3352"/>
</g>
<!-- Node7829 -->
<g id="node25" class="node">
<title>Node7829</title>
<g id="a_node25"><a xlink:href="sigtran_8h.html#a2198041cec3caf974f88f60c90d7f330" target="_top" xlink:title="Called by a new thread to register a new req_pipe. ">
<polygon fill="none" stroke="#ff0000" points="722,-483 722,-513 829,-513 829,-483 722,-483"/>
<text text-anchor="start" x="730" y="-501" font-family="Helvetica,sans-Serif" font-size="10.00" fill="#000000">sigtran_client_thread</text>
<text text-anchor="middle" x="775.5" y="-490" font-family="Helvetica,sans-Serif" font-size="10.00" fill="#000000">_register</text>
</a>
</g>
</g>
<!-- Node7828&#45;&gt;Node7829 -->
<g id="edge33" class="edge">
<title>Node7828&#45;&gt;Node7829</title>
<path fill="none" stroke="#191970" d="M663.1992,-501.9289C682.2411,-501.2627 703.2211,-500.5287 721.8418,-499.8773"/>
<polygon fill="#191970" stroke="#191970" points="663.0165,-498.433 653.145,-502.2806 663.2613,-505.4288 663.0165,-498.433"/>
</g>
<!-- Node7831&#45;&gt;Node7493 -->
<g id="edge36" class="edge">
<title>Node7831&#45;&gt;Node7493</title>
<path fill="none" stroke="#191970" d="M852.2869,-353.6361C860.8679,-352.478 869.5187,-351.3104 877.8573,-350.1849"/>
<polygon fill="#191970" stroke="#191970" points="851.7106,-350.1821 842.2686,-354.9883 852.647,-357.1192 851.7106,-350.1821"/>
</g>
<!-- Node7833 -->
<g id="node28" class="node">
<title>Node7833</title>
<g id="a_node28"><a xlink:href="tmpl_8c.html#a8d5cfe3870cfabc1282443a14e83022c" target="_top" xlink:title="Wrapper to call exec after a tmpl has been expanded. ">
<polygon fill="none" stroke="#ff0000" points="716,-413 716,-443 835,-443 835,-413 716,-413"/>
<text text-anchor="start" x="724" y="-431" font-family="Helvetica,sans-Serif" font-size="10.00" fill="#000000">unlang_tmpl_exec_wait</text>
<text text-anchor="middle" x="775.5" y="-420" font-family="Helvetica,sans-Serif" font-size="10.00" fill="#000000">_resume</text>
</a>
</g>
</g>
<!-- Node7832&#45;&gt;Node7833 -->
<g id="edge38" class="edge">
<title>Node7832&#45;&gt;Node7833</title>
<path fill="none" stroke="#191970" d="M657.2959,-454.191C675.8178,-450.087 696.7096,-445.4579 715.7208,-441.2455"/>
<polygon fill="#191970" stroke="#191970" points="656.2827,-450.8305 647.2767,-456.411 657.7971,-457.6648 656.2827,-450.8305"/>
</g>
<!-- Node7836&#45;&gt;Node7833 -->
<g id="edge40" class="edge">
<title>Node7836&#45;&gt;Node7833</title>
<path fill="none" stroke="#191970" d="M673.5716,-428C687.5778,-428 702.1814,-428 715.8138,-428"/>
<polygon fill="#191970" stroke="#191970" points="673.5011,-424.5001 663.5011,-428 673.501,-431.5001 673.5011,-424.5001"/>
</g>
<!-- Node7837&#45;&gt;Node7833 -->
<g id="edge42" class="edge">
<title>Node7837&#45;&gt;Node7833</title>
<path fill="none" stroke="#191970" d="M657.2959,-401.809C675.8178,-405.913 696.7096,-410.5421 715.7208,-414.7545"/>
<polygon fill="#191970" stroke="#191970" points="657.7971,-398.3352 647.2767,-399.589 656.2827,-405.1695 657.7971,-398.3352"/>
</g>
<!-- Node7839 -->
<g id="node32" class="node">
<title>Node7839</title>
<g id="a_node32"><a xlink:href="rlm__delay_8c.html#aa666d1c597368afff91502a758c4023b" target="_top" xlink:title="mod_delay">
<polygon fill="none" stroke="#000000" points="743.5,-760.5 743.5,-779.5 807.5,-779.5 807.5,-760.5 743.5,-760.5"/>
<text text-anchor="middle" x="775.5" y="-767.5" font-family="Helvetica,sans-Serif" font-size="10.00" fill="#000000">mod_delay</text>
</a>
</g>
</g>
<!-- Node7838&#45;&gt;Node7839 -->
<g id="edge44" class="edge">
<title>Node7838&#45;&gt;Node7839</title>
<path fill="none" stroke="#191970" d="M649.6281,-770C679.2249,-770 717.0545,-770 743.481,-770"/>
<polygon fill="#191970" stroke="#191970" points="649.5349,-766.5001 639.5349,-770 649.5349,-773.5001 649.5349,-766.5001"/>
</g>
<!-- Node7841 -->
<g id="node34" class="node">
<title>Node7841</title>
<g id="a_node34"><a xlink:href="group__xlat__functions.html#ga615cab83de818a6cadea87dc869c9754" target="_top" xlink:title="Xlat to delay the request. ">
<polygon fill="none" stroke="#ff0000" points="745,-722.5 745,-741.5 806,-741.5 806,-722.5 745,-722.5"/>
<text text-anchor="middle" x="775.5" y="-729.5" font-family="Helvetica,sans-Serif" font-size="10.00" fill="#000000">xlat_delay</text>
</a>
</g>
</g>
<!-- Node7840&#45;&gt;Node7841 -->
<g id="edge46" class="edge">
<title>Node7840&#45;&gt;Node7841</title>
<path fill="none" stroke="#191970" d="M660.5078,-732C688.5691,-732 721.3768,-732 744.7511,-732"/>
<polygon fill="#191970" stroke="#191970" points="660.4104,-728.5001 650.4104,-732 660.4103,-735.5001 660.4104,-728.5001"/>
</g>
<!-- Node7844 -->
<g id="node36" class="node">
<title>Node7844</title>
<g id="a_node36"><a xlink:href="group__xlat__functions.html#ga3b24bef8204fd59e33aff6e18034072f" target="_top" xlink:title="Xlat to delay the request. ">
<polygon fill="none" stroke="#ff0000" points="746,-684.5 746,-703.5 805,-703.5 805,-684.5 746,-684.5"/>
<text text-anchor="middle" x="775.5" y="-691.5" font-family="Helvetica,sans-Serif" font-size="10.00" fill="#000000">xlat_icmp</text>
</a>
</g>
</g>
<!-- Node7843&#45;&gt;Node7844 -->
<g id="edge48" class="edge">
<title>Node7843&#45;&gt;Node7844</title>
<path fill="none" stroke="#191970" d="M664.8719,-694C692.4092,-694 723.6938,-694 745.951,-694"/>
<polygon fill="#191970" stroke="#191970" points="664.5281,-690.5001 654.5281,-694 664.528,-697.5001 664.5281,-690.5001"/>
</g>
<!-- Node7847 -->
<g id="node38" class="node">
<title>Node7847</title>
<g id="a_node38"><a xlink:href="rlm__icmp_8c.html#a54311b0118b9297cf0440784725b1364" target="_top" xlink:title="Instantiate thread data for the submodule. ">
<polygon fill="none" stroke="#000000" points="716.5,-646.5 716.5,-665.5 834.5,-665.5 834.5,-646.5 716.5,-646.5"/>
<text text-anchor="middle" x="775.5" y="-653.5" font-family="Helvetica,sans-Serif" font-size="10.00" fill="#000000">mod_thread_instantiate</text>
</a>
</g>
</g>
<!-- Node7846&#45;&gt;Node7847 -->
<g id="edge50" class="edge">
<title>Node7846&#45;&gt;Node7847</title>
<path fill="none" stroke="#191970" d="M657.3944,-656C676.102,-656 697.2174,-656 716.3669,-656"/>
<polygon fill="#191970" stroke="#191970" points="657.2767,-652.5001 647.2767,-656 657.2767,-659.5001 657.2767,-652.5001"/>
</g>
<!-- Node7740 -->
<g id="node40" class="node">
<title>Node7740</title>
<g id="a_node40"><a xlink:href="rlm__radius__udp_8c.html#a1862560a87e2e86c88fe28897495c674" target="_top" xlink:title="Instantiate thread data for the submodule. ">
<polygon fill="none" stroke="#000000" points="716.5,-608.5 716.5,-627.5 834.5,-627.5 834.5,-608.5 716.5,-608.5"/>
<text text-anchor="middle" x="775.5" y="-615.5" font-family="Helvetica,sans-Serif" font-size="10.00" fill="#000000">mod_thread_instantiate</text>
</a>
</g>
</g>
<!-- Node7848&#45;&gt;Node7740 -->
<g id="edge52" class="edge">
<title>Node7848&#45;&gt;Node7740</title>
<path fill="none" stroke="#191970" d="M647.8486,-589.7157C673.86,-595.4792 706.6919,-602.7539 732.5449,-608.4822"/>
<polygon fill="#191970" stroke="#191970" points="648.4033,-586.2538 637.8829,-587.5076 646.8889,-593.0881 648.4033,-586.2538"/>
</g>
<!-- Node7849&#45;&gt;Node7740 -->
<g id="edge54" class="edge">
<title>Node7849&#45;&gt;Node7740</title>
<path fill="none" stroke="#191970" d="M661.4844,-618C679.1513,-618 698.6205,-618 716.3941,-618"/>
<polygon fill="#191970" stroke="#191970" points="661.3171,-614.5001 651.3171,-618 661.3171,-621.5001 661.3171,-614.5001"/>
</g>
<!-- Node7851 -->
<g id="node43" class="node">
<title>Node7851</title>
<g id="a_node43"><a xlink:href="subrequest__priv_8h.html#a69cfb875d725a15c42cb7befe0b98f12" target="_top" xlink:title="Initialize a detached child. ">
<polygon fill="none" stroke="#000000" points="537,-820.5 537,-839.5 671,-839.5 671,-820.5 537,-820.5"/>
<text text-anchor="middle" x="604" y="-827.5" font-family="Helvetica,sans-Serif" font-size="10.00" fill="#000000">unlang_detached_child_init</text>
</a>
</g>
</g>
<!-- Node7850&#45;&gt;Node7851 -->
<g id="edge56" class="edge">
<title>Node7850&#45;&gt;Node7851</title>
<path fill="none" stroke="#191970" d="M447.8656,-713.7235C467.7695,-733.0204 502.3058,-765.1523 535,-789 551.4363,-800.9889 571.5676,-812.6385 585.8333,-820.4363"/>
<polygon fill="#191970" stroke="#191970" points="450.1112,-711.0241 440.515,-706.5337 445.2164,-716.0283 450.1112,-711.0241"/>
</g>
<!-- Node7851&#45;&gt;Node7493 -->
<g id="edge57" class="edge">
<title>Node7851&#45;&gt;Node7493</title>
<path fill="none" stroke="#191970" d="M681.4378,-825.8879C741.9114,-821.0434 819.3632,-810.7049 842,-789 908.3314,-725.3992 933.6094,-411.2909 937.8402,-351.7511"/>
<polygon fill="#191970" stroke="#191970" points="680.8314,-822.4239 671.1267,-826.6747 681.364,-829.4036 680.8314,-822.4239"/>
</g>
<!-- Node7852 -->
<g id="node44" class="node">
<title>Node7852</title>
<g id="a_node44"><a xlink:href="subrequest_8c.html#a3738acbcc68ec31de3eaaead5847651a" target="_top" xlink:title="unlang_detach">
<polygon fill="none" stroke="#ff0000" points="735.5,-886.5 735.5,-905.5 815.5,-905.5 815.5,-886.5 735.5,-886.5"/>
<text text-anchor="middle" x="775.5" y="-893.5" font-family="Helvetica,sans-Serif" font-size="10.00" fill="#000000">unlang_detach</text>
</a>
</g>
</g>
<!-- Node7851&#45;&gt;Node7852 -->
<g id="edge58" class="edge">
<title>Node7851&#45;&gt;Node7852</title>
<path fill="none" stroke="#191970" d="M632.2562,-843.9704C653.1377,-853.9675 682.4342,-867.3152 709,-877 718.4759,-880.4545 728.8931,-883.6877 738.6135,-886.4728"/>
<polygon fill="#191970" stroke="#191970" points="633.5389,-840.703 623.0125,-839.5007 630.4916,-847.0049 633.5389,-840.703"/>
</g>
<!-- Node7707 -->
<g id="node45" class="node">
<title>Node7707</title>
<g id="a_node45"><a xlink:href="subrequest__priv_8h.html#a2158676345c7a6d964263704448f845e" target="_top" xlink:title="Cast a subrequest keyword extension to a group structure. ">
<polygon fill="none" stroke="#ff0000" points="719.5,-837 719.5,-867 831.5,-867 831.5,-837 719.5,-837"/>
<text text-anchor="start" x="727.5" y="-855" font-family="Helvetica,sans-Serif" font-size="10.00" fill="#000000">unlang_subrequest_to</text>
<text text-anchor="middle" x="775.5" y="-844" font-family="Helvetica,sans-Serif" font-size="10.00" fill="#000000">_group</text>
</a>
</g>
</g>
<!-- Node7851&#45;&gt;Node7707 -->
<g id="edge59" class="edge">
<title>Node7851&#45;&gt;Node7707</title>
<path fill="none" stroke="#191970" d="M681.4817,-839.9393C694.285,-841.5817 707.3363,-843.256 719.4799,-844.8137"/>
<polygon fill="#191970" stroke="#191970" points="681.6532,-836.4327 671.2891,-838.6318 680.7625,-843.3759 681.6532,-836.4327"/>
</g>
<!-- Node7854 -->
<g id="node47" class="node">
<title>Node7854</title>
<g id="a_node47"><a xlink:href="proto__ldap__sync_8c.html#afe52539dfd80cb71fb50ef23094b92a8" target="_top" xlink:title="Open a handle to the LDAP directory. ">
<polygon fill="none" stroke="#000000" points="370,-152.5 370,-171.5 492,-171.5 492,-152.5 370,-152.5"/>
<text text-anchor="middle" x="431" y="-159.5" font-family="Helvetica,sans-Serif" font-size="10.00" fill="#000000">proto_ldap_socket_open</text>
</a>
</g>
</g>
<!-- Node7853&#45;&gt;Node7854 -->
<g id="edge61" class="edge">
<title>Node7853&#45;&gt;Node7854</title>
<path fill="none" stroke="#191970" d="M324.4867,-162C339.468,-162 355.1837,-162 369.8029,-162"/>
<polygon fill="#191970" stroke="#191970" points="324.2549,-158.5001 314.2548,-162 324.2548,-165.5001 324.2549,-158.5001"/>
</g>
</g>
</svg>
