<?xml version="1.0" encoding="UTF-8" standalone="no"?>
<!DOCTYPE svg PUBLIC "-//W3C//DTD SVG 1.1//EN"
 "http://www.w3.org/Graphics/SVG/1.1/DTD/svg11.dtd">
<!-- Generated by graphviz version 2.40.1 (20161225.0304)
 -->
<!-- Title: handle_circuit_reset_cgb Pages: 1 -->
<!--zoomable 104 -->
<svg id="main" version="1.1" xmlns="http://www.w3.org/2000/svg" xmlns:xlink="http://www.w3.org/1999/xlink" xml:space="preserve" onload="init(evt)">
<style type="text/css"><![CDATA[
.edge:hover path { stroke: red; }
.edge:hover polygon { stroke: red; fill: red; }
]]></style>
<script type="text/javascript"><![CDATA[
var edges = document.getElementsByTagName('g');
if (edges && edges.length) {
  for (var i=0;i<edges.length;i++) {
    if (edges[i].id.substr(0,4)=='edge') {
      edges[i].setAttribute('class','edge');
    }
  }
}
]]></script>
        <defs>
                <circle id="rim" cx="0" cy="0" r="7"/>
                <circle id="rim2" cx="0" cy="0" r="3.5"/>
                <g id="zoomPlus">
                        <use xlink:href="#rim" fill="#404040">
                                <set attributeName="fill" to="#808080" begin="zoomplus.mouseover" end="zoomplus.mouseout"/>
                        </use>
                        <path d="M-4,0h8M0,-4v8" fill="none" stroke="white" stroke-width="1.5" pointer-events="none"/>
                </g>
                <g id="zoomMin">
                        <use xlink:href="#rim" fill="#404040">
                                <set attributeName="fill" to="#808080" begin="zoomminus.mouseover" end="zoomminus.mouseout"/>
                        </use>
                        <path d="M-4,0h8" fill="none" stroke="white" stroke-width="1.5" pointer-events="none"/>
                </g>
                <g id="dirArrow">
                        <path fill="none" stroke="white" stroke-width="1.5" d="M0,-3.0v7 M-2.5,-0.5L0,-3.0L2.5,-0.5"/>
                </g>
               <g id="resetDef">
                       <use xlink:href="#rim2" fill="#404040">
                               <set attributeName="fill" to="#808080" begin="reset.mouseover" end="reset.mouseout"/>
                       </use>
               </g>
        </defs>

<script type="text/javascript">
var viewWidth = 680;
var viewHeight = 104;
var sectionId = 'dynsection-4';
</script>
<script xlink:href="svgpan.js"/>
<svg id="graph" class="graph">
<g id="viewport">
<title>handle_circuit_reset_cgb</title>
<!-- Node57 -->
<g id="node1" class="node">
<title>Node57</title>
<polygon fill="#bfbfbf" stroke="#000000" points="0,-38.5 0,-57.5 125,-57.5 125,-38.5 0,-38.5"/>
<text text-anchor="middle" x="62.5" y="-45.5" font-family="Helvetica,sans-Serif" font-size="10.00" fill="#000000">handle_circuit_reset_cgb</text>
</g>
<!-- Node58 -->
<g id="node2" class="node">
<title>Node58</title>
<g id="a_node2"><a xlink:href="isup_8c.html#ae983010ae18f87fee519d1698703fc48" target="_top" xlink:title="mtp_link_set_isup">
<polygon fill="none" stroke="#000000" points="161,-38.5 161,-57.5 256,-57.5 256,-38.5 161,-38.5"/>
<text text-anchor="middle" x="208.5" y="-45.5" font-family="Helvetica,sans-Serif" font-size="10.00" fill="#000000">mtp_link_set_isup</text>
</a>
</g>
</g>
<!-- Node57&#45;&gt;Node58 -->
<g id="edge1" class="edge">
<title>Node57&#45;&gt;Node58</title>
<path fill="none" stroke="#191970" d="M135.3659,-48C143.9965,-48 152.6295,-48 160.7825,-48"/>
<polygon fill="#191970" stroke="#191970" points="135.2645,-44.5001 125.2645,-48 135.2644,-51.5001 135.2645,-44.5001"/>
</g>
<!-- Node59 -->
<g id="node3" class="node">
<title>Node59</title>
<g id="a_node3"><a xlink:href="mtp__layer3_8c.html#a09440d719c5098b5546ffccd2a875d40" target="_top" xlink:title="Receive data coming up from lower level (M2UA/M3UA etc...) ">
<polygon fill="none" stroke="#000000" points="292,-38.5 292,-57.5 403,-57.5 403,-38.5 292,-38.5"/>
<text text-anchor="middle" x="347.5" y="-45.5" font-family="Helvetica,sans-Serif" font-size="10.00" fill="#000000">mtp_link_handle_data</text>
</a>
</g>
</g>
<!-- Node58&#45;&gt;Node59 -->
<g id="edge2" class="edge">
<title>Node58&#45;&gt;Node59</title>
<path fill="none" stroke="#191970" d="M266.4632,-48C274.8887,-48 283.5469,-48 291.9237,-48"/>
<polygon fill="#191970" stroke="#191970" points="266.3359,-44.5001 256.3359,-48 266.3359,-51.5001 266.3359,-44.5001"/>
</g>
<!-- Node60 -->
<g id="node4" class="node">
<title>Node60</title>
<g id="a_node4"><a xlink:href="ss7__application_8c.html#a5f083c5e705ab33b7e41fa6a262d813f" target="_top" xlink:title="mtp_link_set_data">
<polygon fill="none" stroke="#000000" points="439,-38.5 439,-57.5 535,-57.5 535,-38.5 439,-38.5"/>
<text text-anchor="middle" x="487" y="-45.5" font-family="Helvetica,sans-Serif" font-size="10.00" fill="#000000">mtp_link_set_data</text>
</a>
</g>
</g>
<!-- Node59&#45;&gt;Node60 -->
<g id="edge3" class="edge">
<title>Node59&#45;&gt;Node60</title>
<path fill="none" stroke="#191970" d="M413.1394,-48C421.8075,-48 430.5607,-48 438.8608,-48"/>
<polygon fill="#191970" stroke="#191970" points="413.035,-44.5001 403.0349,-48 413.0349,-51.5001 413.035,-44.5001"/>
</g>
<!-- Node61 -->
<g id="node5" class="node">
<title>Node61</title>
<g id="a_node5"><a xlink:href="link__udp_8c.html#a901819a7a396ca1a35e34d150bbe8576" target="_top" xlink:title="udp_read_cb">
<polygon fill="none" stroke="#ff0000" points="585.5,-76.5 585.5,-95.5 657.5,-95.5 657.5,-76.5 585.5,-76.5"/>
<text text-anchor="middle" x="621.5" y="-83.5" font-family="Helvetica,sans-Serif" font-size="10.00" fill="#000000">udp_read_cb</text>
</a>
</g>
</g>
<!-- Node60&#45;&gt;Node61 -->
<g id="edge4" class="edge">
<title>Node60&#45;&gt;Node61</title>
<path fill="none" stroke="#191970" d="M530.6004,-60.3183C549.0798,-65.5393 570.2895,-71.5316 587.5708,-76.4141"/>
<polygon fill="#191970" stroke="#191970" points="531.515,-56.9398 520.94,-57.589 529.6117,-63.6761 531.515,-56.9398"/>
</g>
<!-- Node65 -->
<g id="node6" class="node">
<title>Node65</title>
<g id="a_node6"><a xlink:href="sctp__m2ua_8c.html#a3aac6d0346418d201a08cd1c6e2f9c35" target="_top" xlink:title="m2ua_handle_data">
<polygon fill="none" stroke="#ff0000" points="572.5,-38.5 572.5,-57.5 670.5,-57.5 670.5,-38.5 572.5,-38.5"/>
<text text-anchor="middle" x="621.5" y="-45.5" font-family="Helvetica,sans-Serif" font-size="10.00" fill="#000000">m2ua_handle_data</text>
</a>
</g>
</g>
<!-- Node60&#45;&gt;Node65 -->
<g id="edge5" class="edge">
<title>Node60&#45;&gt;Node65</title>
<path fill="none" stroke="#191970" d="M545.2356,-48C554.2585,-48 563.5018,-48 572.3,-48"/>
<polygon fill="#191970" stroke="#191970" points="545.1777,-44.5001 535.1777,-48 545.1777,-51.5001 545.1777,-44.5001"/>
</g>
<!-- Node71 -->
<g id="node7" class="node">
<title>Node71</title>
<g id="a_node7"><a xlink:href="sctp__m3ua__client_8c.html#ae019fa0d44e120fa7fb71fa436c4c3a3" target="_top" xlink:title="m3ua_handle_trans">
<polygon fill="none" stroke="#ff0000" points="571,-.5 571,-19.5 672,-19.5 672,-.5 571,-.5"/>
<text text-anchor="middle" x="621.5" y="-7.5" font-family="Helvetica,sans-Serif" font-size="10.00" fill="#000000">m3ua_handle_trans</text>
</a>
</g>
</g>
<!-- Node60&#45;&gt;Node71 -->
<g id="edge6" class="edge">
<title>Node60&#45;&gt;Node71</title>
<path fill="none" stroke="#191970" d="M530.6004,-35.6817C549.0798,-30.4607 570.2895,-24.4684 587.5708,-19.5859"/>
<polygon fill="#191970" stroke="#191970" points="529.6117,-32.3239 520.94,-38.411 531.515,-39.0602 529.6117,-32.3239"/>
</g>
</g>
</svg>
        <g id="navigator" transform="translate(0 0)" fill="#404254">
                <rect fill="#f2f5e9" fill-opacity="0.5" stroke="#606060" stroke-width=".5" x="0" y="0" width="60" height="60"/>
                <use id="zoomplus" xlink:href="#zoomPlus" x="17" y="9" onmousedown="handleZoom(evt,'in')"/>
                <use id="zoomminus" xlink:href="#zoomMin" x="42" y="9" onmousedown="handleZoom(evt,'out')"/>
                <use id="reset" xlink:href="#resetDef" x="30" y="36" onmousedown="handleReset()"/>
                <g id="arrowUp" xlink:href="#dirArrow" transform="translate(30 24)" onmousedown="handlePan(0,-1)">
                  <use xlink:href="#rim" fill="#404040">
                        <set attributeName="fill" to="#808080" begin="arrowUp.mouseover" end="arrowUp.mouseout"/>
                  </use>
                  <path fill="none" stroke="white" stroke-width="1.5" d="M0,-3.0v7 M-2.5,-0.5L0,-3.0L2.5,-0.5"/>
                </g>
                <g id="arrowRight" xlink:href="#dirArrow" transform="rotate(90) translate(36 -43)" onmousedown="handlePan(1,0)">
                  <use xlink:href="#rim" fill="#404040">
                        <set attributeName="fill" to="#808080" begin="arrowRight.mouseover" end="arrowRight.mouseout"/>
                  </use>
                  <path fill="none" stroke="white" stroke-width="1.5" d="M0,-3.0v7 M-2.5,-0.5L0,-3.0L2.5,-0.5"/>
                </g>
                <g id="arrowDown" xlink:href="#dirArrow" transform="rotate(180) translate(-30 -48)" onmousedown="handlePan(0,1)">
                  <use xlink:href="#rim" fill="#404040">
                        <set attributeName="fill" to="#808080" begin="arrowDown.mouseover" end="arrowDown.mouseout"/>
                  </use>
                  <path fill="none" stroke="white" stroke-width="1.5" d="M0,-3.0v7 M-2.5,-0.5L0,-3.0L2.5,-0.5"/>
                </g>
                <g id="arrowLeft" xlink:href="#dirArrow" transform="rotate(270) translate(-36 17)" onmousedown="handlePan(-1,0)">
                  <use xlink:href="#rim" fill="#404040">
                        <set attributeName="fill" to="#808080" begin="arrowLeft.mouseover" end="arrowLeft.mouseout"/>
                  </use>
                  <path fill="none" stroke="white" stroke-width="1.5" d="M0,-3.0v7 M-2.5,-0.5L0,-3.0L2.5,-0.5"/>
                </g>
        </g>
        <svg viewBox="0 0 15 15" width="100%" height="30px" preserveAspectRatio="xMaxYMin meet">
         <g id="arrow_out" transform="scale(0.3 0.3)">
          <a xlink:href="isup_8c_a327fe04691a08583b1eced7922c85bef_icgraph_org.svg" target="_base">
           <rect id="button" ry="5" rx="5" y="6" x="6" height="38" width="38"
                fill="#f2f5e9" fill-opacity="0.5" stroke="#606060" stroke-width="1.0"/>
           <path id="arrow"
             d="M 11.500037,31.436501 C 11.940474,20.09759 22.043105,11.32322 32.158766,21.979434 L 37.068811,17.246167 C 37.068811,17.246167 37.088388,32 37.088388,32 L 22.160133,31.978069 C 22.160133,31.978069 26.997745,27.140456 26.997745,27.140456 C 18.528582,18.264221 13.291696,25.230495 11.500037,31.436501 z"
             style="fill:#404040;"/>
          </a>
         </g>
        </svg>
</svg>
