<?xml version="1.0" encoding="UTF-8" standalone="no"?>
<!DOCTYPE svg PUBLIC "-//W3C//DTD SVG 1.1//EN"
 "http://www.w3.org/Graphics/SVG/1.1/DTD/svg11.dtd">
<!-- Generated by graphviz version 2.40.1 (20161225.0304)
 -->
<!-- Title: mtp_link_set_isup Pages: 1 -->
<!--zoomable 142 -->
<svg id="main" version="1.1" xmlns="http://www.w3.org/2000/svg" xmlns:xlink="http://www.w3.org/1999/xlink" xml:space="preserve" onload="init(evt)">
<style type="text/css"><![CDATA[
.edge:hover path { stroke: red; }
.edge:hover polygon { stroke: red; fill: red; }
]]></style>
<script type="text/javascript"><![CDATA[
var edges = document.getElementsByTagName('g');
if (edges && edges.length) {
  for (var i=0;i<edges.length;i++) {
    if (edges[i].id.substr(0,4)=='edge') {
      edges[i].setAttribute('class','edge');
    }
  }
}
]]></script>
        <defs>
                <circle id="rim" cx="0" cy="0" r="7"/>
                <circle id="rim2" cx="0" cy="0" r="3.5"/>
                <g id="zoomPlus">
                        <use xlink:href="#rim" fill="#404040">
                                <set attributeName="fill" to="#808080" begin="zoomplus.mouseover" end="zoomplus.mouseout"/>
                        </use>
                        <path d="M-4,0h8M0,-4v8" fill="none" stroke="white" stroke-width="1.5" pointer-events="none"/>
                </g>
                <g id="zoomMin">
                        <use xlink:href="#rim" fill="#404040">
                                <set attributeName="fill" to="#808080" begin="zoomminus.mouseover" end="zoomminus.mouseout"/>
                        </use>
                        <path d="M-4,0h8" fill="none" stroke="white" stroke-width="1.5" pointer-events="none"/>
                </g>
                <g id="dirArrow">
                        <path fill="none" stroke="white" stroke-width="1.5" d="M0,-3.0v7 M-2.5,-0.5L0,-3.0L2.5,-0.5"/>
                </g>
               <g id="resetDef">
                       <use xlink:href="#rim2" fill="#404040">
                               <set attributeName="fill" to="#808080" begin="reset.mouseover" end="reset.mouseout"/>
                       </use>
               </g>
        </defs>

<script type="text/javascript">
var viewWidth = 659;
var viewHeight = 142;
var sectionId = 'dynsection-15';
</script>
<script xlink:href="svgpan.js"/>
<svg id="graph" class="graph">
<g id="viewport">
<title>mtp_link_set_isup</title>
<!-- Node433 -->
<g id="node1" class="node">
<title>Node433</title>
<polygon fill="#bfbfbf" stroke="#000000" points="0,-76.5 0,-95.5 95,-95.5 95,-76.5 0,-76.5"/>
<text text-anchor="middle" x="47.5" y="-83.5" font-family="Helvetica,sans-Serif" font-size="10.00" fill="#000000">mtp_link_set_isup</text>
</g>
<!-- Node434 -->
<g id="node2" class="node">
<title>Node434</title>
<g id="a_node2"><a xlink:href="mtp__layer3_8c.html#a09440d719c5098b5546ffccd2a875d40" target="_top" xlink:title="Receive data coming up from lower level (M2UA/M3UA etc...) ">
<polygon fill="none" stroke="#000000" points="131,-76.5 131,-95.5 242,-95.5 242,-76.5 131,-76.5"/>
<text text-anchor="middle" x="186.5" y="-83.5" font-family="Helvetica,sans-Serif" font-size="10.00" fill="#000000">mtp_link_handle_data</text>
</a>
</g>
</g>
<!-- Node433&#45;&gt;Node434 -->
<g id="edge1" class="edge">
<title>Node433&#45;&gt;Node434</title>
<path fill="none" stroke="#191970" d="M105.4632,-86C113.8887,-86 122.5469,-86 130.9237,-86"/>
<polygon fill="#191970" stroke="#191970" points="105.3359,-82.5001 95.3359,-86 105.3359,-89.5001 105.3359,-82.5001"/>
</g>
<!-- Node435 -->
<g id="node3" class="node">
<title>Node435</title>
<g id="a_node3"><a xlink:href="ss7__application_8c.html#a5f083c5e705ab33b7e41fa6a262d813f" target="_top" xlink:title="mtp_link_set_data">
<polygon fill="none" stroke="#000000" points="278,-76.5 278,-95.5 374,-95.5 374,-76.5 278,-76.5"/>
<text text-anchor="middle" x="326" y="-83.5" font-family="Helvetica,sans-Serif" font-size="10.00" fill="#000000">mtp_link_set_data</text>
</a>
</g>
</g>
<!-- Node434&#45;&gt;Node435 -->
<g id="edge2" class="edge">
<title>Node434&#45;&gt;Node435</title>
<path fill="none" stroke="#191970" d="M252.1394,-86C260.8075,-86 269.5607,-86 277.8608,-86"/>
<polygon fill="#191970" stroke="#191970" points="252.035,-82.5001 242.0349,-86 252.0349,-89.5001 252.035,-82.5001"/>
</g>
<!-- Node436 -->
<g id="node4" class="node">
<title>Node436</title>
<g id="a_node4"><a xlink:href="link__udp_8c.html#a901819a7a396ca1a35e34d150bbe8576" target="_top" xlink:title="udp_read_cb">
<polygon fill="none" stroke="#000000" points="424.5,-114.5 424.5,-133.5 496.5,-133.5 496.5,-114.5 424.5,-114.5"/>
<text text-anchor="middle" x="460.5" y="-121.5" font-family="Helvetica,sans-Serif" font-size="10.00" fill="#000000">udp_read_cb</text>
</a>
</g>
</g>
<!-- Node435&#45;&gt;Node436 -->
<g id="edge3" class="edge">
<title>Node435&#45;&gt;Node436</title>
<path fill="none" stroke="#191970" d="M369.6004,-98.3183C388.0798,-103.5393 409.2895,-109.5316 426.5708,-114.4141"/>
<polygon fill="#191970" stroke="#191970" points="370.515,-94.9398 359.94,-95.589 368.6117,-101.6761 370.515,-94.9398"/>
</g>
<!-- Node440 -->
<g id="node6" class="node">
<title>Node440</title>
<g id="a_node6"><a xlink:href="sctp__m2ua_8c.html#a3aac6d0346418d201a08cd1c6e2f9c35" target="_top" xlink:title="m2ua_handle_data">
<polygon fill="none" stroke="#000000" points="411.5,-76.5 411.5,-95.5 509.5,-95.5 509.5,-76.5 411.5,-76.5"/>
<text text-anchor="middle" x="460.5" y="-83.5" font-family="Helvetica,sans-Serif" font-size="10.00" fill="#000000">m2ua_handle_data</text>
</a>
</g>
</g>
<!-- Node435&#45;&gt;Node440 -->
<g id="edge5" class="edge">
<title>Node435&#45;&gt;Node440</title>
<path fill="none" stroke="#191970" d="M384.2356,-86C393.2585,-86 402.5018,-86 411.3,-86"/>
<polygon fill="#191970" stroke="#191970" points="384.1777,-82.5001 374.1777,-86 384.1777,-89.5001 384.1777,-82.5001"/>
</g>
<!-- Node446 -->
<g id="node8" class="node">
<title>Node446</title>
<g id="a_node8"><a xlink:href="sctp__m3ua__client_8c.html#ae019fa0d44e120fa7fb71fa436c4c3a3" target="_top" xlink:title="m3ua_handle_trans">
<polygon fill="none" stroke="#000000" points="410,-38.5 410,-57.5 511,-57.5 511,-38.5 410,-38.5"/>
<text text-anchor="middle" x="460.5" y="-45.5" font-family="Helvetica,sans-Serif" font-size="10.00" fill="#000000">m3ua_handle_trans</text>
</a>
</g>
</g>
<!-- Node435&#45;&gt;Node446 -->
<g id="edge7" class="edge">
<title>Node435&#45;&gt;Node446</title>
<path fill="none" stroke="#191970" d="M369.6004,-73.6817C388.0798,-68.4607 409.2895,-62.4684 426.5708,-57.5859"/>
<polygon fill="#191970" stroke="#191970" points="368.6117,-70.3239 359.94,-76.411 370.515,-77.0602 368.6117,-70.3239"/>
</g>
<!-- Node437 -->
<g id="node5" class="node">
<title>Node437</title>
<g id="a_node5"><a xlink:href="link__udp_8c.html#ae8d5b8e9d934c575f64977d03dc6b226" target="_top" xlink:title="link_global_init">
<polygon fill="none" stroke="#ff0000" points="559,-114.5 559,-133.5 639,-133.5 639,-114.5 559,-114.5"/>
<text text-anchor="middle" x="599" y="-121.5" font-family="Helvetica,sans-Serif" font-size="10.00" fill="#000000">link_global_init</text>
</a>
</g>
</g>
<!-- Node436&#45;&gt;Node437 -->
<g id="edge4" class="edge">
<title>Node436&#45;&gt;Node437</title>
<path fill="none" stroke="#191970" d="M506.7125,-124C523.5633,-124 542.4679,-124 558.7584,-124"/>
<polygon fill="#191970" stroke="#191970" points="506.5277,-120.5001 496.5277,-124 506.5277,-127.5001 506.5277,-120.5001"/>
</g>
<!-- Node441 -->
<g id="node7" class="node">
<title>Node441</title>
<g id="a_node7"><a xlink:href="sctp__m2ua_8c.html#a94e05d7af2718f0db6d74fdb74366f47" target="_top" xlink:title="m2ua_handle_maup">
<polygon fill="none" stroke="#ff0000" points="547,-76.5 547,-95.5 651,-95.5 651,-76.5 547,-76.5"/>
<text text-anchor="middle" x="599" y="-83.5" font-family="Helvetica,sans-Serif" font-size="10.00" fill="#000000">m2ua_handle_maup</text>
</a>
</g>
</g>
<!-- Node440&#45;&gt;Node441 -->
<g id="edge6" class="edge">
<title>Node440&#45;&gt;Node441</title>
<path fill="none" stroke="#191970" d="M519.9944,-86C528.8625,-86 537.9483,-86 546.6545,-86"/>
<polygon fill="#191970" stroke="#191970" points="519.7199,-82.5001 509.7199,-86 519.7199,-89.5001 519.7199,-82.5001"/>
</g>
<!-- Node447 -->
<g id="node9" class="node">
<title>Node447</title>
<g id="a_node9"><a xlink:href="sctp__m3ua__client_8c.html#ad21af3e249e0242bc1b14baa9bbff5c5" target="_top" xlink:title="xua_from_part">
<polygon fill="none" stroke="#ff0000" points="559.5,-38.5 559.5,-57.5 638.5,-57.5 638.5,-38.5 559.5,-38.5"/>
<text text-anchor="middle" x="599" y="-45.5" font-family="Helvetica,sans-Serif" font-size="10.00" fill="#000000">xua_from_part</text>
</a>
</g>
</g>
<!-- Node446&#45;&gt;Node447 -->
<g id="edge8" class="edge">
<title>Node446&#45;&gt;Node447</title>
<path fill="none" stroke="#191970" d="M521.5023,-48C534.388,-48 547.6601,-48 559.4997,-48"/>
<polygon fill="#191970" stroke="#191970" points="521.2859,-44.5001 511.2858,-48 521.2858,-51.5001 521.2859,-44.5001"/>
</g>
<!-- Node449 -->
<g id="node10" class="node">
<title>Node449</title>
<g id="a_node10"><a xlink:href="sctp__m3ua__client_8c.html#a4ad1e0e1dd47a10d9e4d106a62f0c2c0" target="_top" xlink:title="m3ua_conn_handle">
<polygon fill="none" stroke="#ff0000" points="548.5,-.5 548.5,-19.5 649.5,-19.5 649.5,-.5 548.5,-.5"/>
<text text-anchor="middle" x="599" y="-7.5" font-family="Helvetica,sans-Serif" font-size="10.00" fill="#000000">m3ua_conn_handle</text>
</a>
</g>
</g>
<!-- Node446&#45;&gt;Node449 -->
<g id="edge9" class="edge">
<title>Node446&#45;&gt;Node449</title>
<path fill="none" stroke="#191970" d="M505.1342,-35.7538C524.2247,-30.516 546.1845,-24.4909 564.0618,-19.5859"/>
<polygon fill="#191970" stroke="#191970" points="504.1669,-32.3898 495.4494,-38.411 506.0191,-39.1403 504.1669,-32.3898"/>
</g>
</g>
</svg>
        <g id="navigator" transform="translate(0 0)" fill="#404254">
                <rect fill="#f2f5e9" fill-opacity="0.5" stroke="#606060" stroke-width=".5" x="0" y="0" width="60" height="60"/>
                <use id="zoomplus" xlink:href="#zoomPlus" x="17" y="9" onmousedown="handleZoom(evt,'in')"/>
                <use id="zoomminus" xlink:href="#zoomMin" x="42" y="9" onmousedown="handleZoom(evt,'out')"/>
                <use id="reset" xlink:href="#resetDef" x="30" y="36" onmousedown="handleReset()"/>
                <g id="arrowUp" xlink:href="#dirArrow" transform="translate(30 24)" onmousedown="handlePan(0,-1)">
                  <use xlink:href="#rim" fill="#404040">
                        <set attributeName="fill" to="#808080" begin="arrowUp.mouseover" end="arrowUp.mouseout"/>
                  </use>
                  <path fill="none" stroke="white" stroke-width="1.5" d="M0,-3.0v7 M-2.5,-0.5L0,-3.0L2.5,-0.5"/>
                </g>
                <g id="arrowRight" xlink:href="#dirArrow" transform="rotate(90) translate(36 -43)" onmousedown="handlePan(1,0)">
                  <use xlink:href="#rim" fill="#404040">
                        <set attributeName="fill" to="#808080" begin="arrowRight.mouseover" end="arrowRight.mouseout"/>
                  </use>
                  <path fill="none" stroke="white" stroke-width="1.5" d="M0,-3.0v7 M-2.5,-0.5L0,-3.0L2.5,-0.5"/>
                </g>
                <g id="arrowDown" xlink:href="#dirArrow" transform="rotate(180) translate(-30 -48)" onmousedown="handlePan(0,1)">
                  <use xlink:href="#rim" fill="#404040">
                        <set attributeName="fill" to="#808080" begin="arrowDown.mouseover" end="arrowDown.mouseout"/>
                  </use>
                  <path fill="none" stroke="white" stroke-width="1.5" d="M0,-3.0v7 M-2.5,-0.5L0,-3.0L2.5,-0.5"/>
                </g>
                <g id="arrowLeft" xlink:href="#dirArrow" transform="rotate(270) translate(-36 17)" onmousedown="handlePan(-1,0)">
                  <use xlink:href="#rim" fill="#404040">
                        <set attributeName="fill" to="#808080" begin="arrowLeft.mouseover" end="arrowLeft.mouseout"/>
                  </use>
                  <path fill="none" stroke="white" stroke-width="1.5" d="M0,-3.0v7 M-2.5,-0.5L0,-3.0L2.5,-0.5"/>
                </g>
        </g>
        <svg viewBox="0 0 15 15" width="100%" height="30px" preserveAspectRatio="xMaxYMin meet">
         <g id="arrow_out" transform="scale(0.3 0.3)">
          <a xlink:href="isup_8c_ae983010ae18f87fee519d1698703fc48_icgraph_org.svg" target="_base">
           <rect id="button" ry="5" rx="5" y="6" x="6" height="38" width="38"
                fill="#f2f5e9" fill-opacity="0.5" stroke="#606060" stroke-width="1.0"/>
           <path id="arrow"
             d="M 11.500037,31.436501 C 11.940474,20.09759 22.043105,11.32322 32.158766,21.979434 L 37.068811,17.246167 C 37.068811,17.246167 37.088388,32 37.088388,32 L 22.160133,31.978069 C 22.160133,31.978069 26.997745,27.140456 26.997745,27.140456 C 18.528582,18.264221 13.291696,25.230495 11.500037,31.436501 z"
             style="fill:#404040;"/>
          </a>
         </g>
        </svg>
</svg>
