<?xml version="1.0" encoding="UTF-8" standalone="no"?>
<!DOCTYPE svg PUBLIC "-//W3C//DTD SVG 1.1//EN"
 "http://www.w3.org/Graphics/SVG/1.1/DTD/svg11.dtd">
<!-- Generated by graphviz version 2.40.1 (20161225.0304)
 -->
<!-- Title: fr_json_afrom_pair_list Pages: 1 -->
<svg width="646pt" height="180pt"
 viewBox="0.00 0.00 646.00 180.00" xmlns="http://www.w3.org/2000/svg" xmlns:xlink="http://www.w3.org/1999/xlink">
<g id="graph0" class="graph" transform="scale(1 1) rotate(0) translate(4 176)">
<title>fr_json_afrom_pair_list</title>
<!-- Node191 -->
<g id="node1" class="node">
<title>Node191</title>
<polygon fill="#bfbfbf" stroke="#000000" points="0,-57.5 0,-76.5 115,-76.5 115,-57.5 0,-57.5"/>
<text text-anchor="middle" x="57.5" y="-64.5" font-family="Helvetica,sans-Serif" font-size="10.00" fill="#000000">fr_json_afrom_pair_list</text>
</g>
<!-- Node192 -->
<g id="node2" class="node">
<title>Node192</title>
<g id="a_node2"><a xlink:href="group__xlat__functions.html#ga48f4523bc88be78dabbdabdb4f924a29" target="_top" xlink:title="Convert given attributes to a JSON document. ">
<polygon fill="none" stroke="#000000" points="151.5,-76.5 151.5,-95.5 243.5,-95.5 243.5,-76.5 151.5,-76.5"/>
<text text-anchor="middle" x="197.5" y="-83.5" font-family="Helvetica,sans-Serif" font-size="10.00" fill="#000000">json_encode_xlat</text>
</a>
</g>
</g>
<!-- Node191&#45;&gt;Node192 -->
<g id="edge1" class="edge">
<title>Node191&#45;&gt;Node192</title>
<path fill="none" stroke="#191970" d="M125.2193,-76.1905C134.0931,-77.3948 143.0159,-78.6057 151.4164,-79.7458"/>
<polygon fill="#191970" stroke="#191970" points="125.6315,-72.7144 115.2516,-74.8377 124.6901,-79.6508 125.6315,-72.7144"/>
</g>
<!-- Node194 -->
<g id="node4" class="node">
<title>Node194</title>
<g id="a_node4"><a xlink:href="rest_8c.html#a5df59094f9d05655fc2c945e6b4ae580" target="_top" xlink:title="Encodes fr_pair_t linked list in JSON format. ">
<polygon fill="none" stroke="#000000" points="151,-38.5 151,-57.5 244,-57.5 244,-38.5 151,-38.5"/>
<text text-anchor="middle" x="197.5" y="-45.5" font-family="Helvetica,sans-Serif" font-size="10.00" fill="#000000">rest_encode_json</text>
</a>
</g>
</g>
<!-- Node191&#45;&gt;Node194 -->
<g id="edge3" class="edge">
<title>Node191&#45;&gt;Node194</title>
<path fill="none" stroke="#191970" d="M125.3767,-57.7882C134.046,-56.6116 142.7587,-55.4292 150.9823,-54.3131"/>
<polygon fill="#191970" stroke="#191970" points="124.6901,-54.3492 115.2516,-59.1623 125.6315,-61.2856 124.6901,-54.3492"/>
</g>
<!-- Node193 -->
<g id="node3" class="node">
<title>Node193</title>
<g id="a_node3"><a xlink:href="rlm__json_8c.html#a9609ab2a4bc7986ec4f346b365737a42" target="_top" xlink:title="mod_bootstrap">
<polygon fill="none" stroke="#000000" points="290.5,-76.5 290.5,-95.5 371.5,-95.5 371.5,-76.5 290.5,-76.5"/>
<text text-anchor="middle" x="331" y="-83.5" font-family="Helvetica,sans-Serif" font-size="10.00" fill="#000000">mod_bootstrap</text>
</a>
</g>
</g>
<!-- Node192&#45;&gt;Node193 -->
<g id="edge2" class="edge">
<title>Node192&#45;&gt;Node193</title>
<path fill="none" stroke="#191970" d="M253.8853,-86C266.0465,-86 278.6782,-86 290.1122,-86"/>
<polygon fill="#191970" stroke="#191970" points="253.8172,-82.5001 243.8172,-86 253.8171,-89.5001 253.8172,-82.5001"/>
</g>
<!-- Node195 -->
<g id="node5" class="node">
<title>Node195</title>
<g id="a_node5"><a xlink:href="rest_8h.html#ac435fe060fe308aa645b1e429c4b5637" target="_top" xlink:title="Configures request curlopts. ">
<polygon fill="none" stroke="#000000" points="280,-38.5 280,-57.5 382,-57.5 382,-38.5 280,-38.5"/>
<text text-anchor="middle" x="331" y="-45.5" font-family="Helvetica,sans-Serif" font-size="10.00" fill="#000000">rest_request_config</text>
</a>
</g>
</g>
<!-- Node194&#45;&gt;Node195 -->
<g id="edge4" class="edge">
<title>Node194&#45;&gt;Node195</title>
<path fill="none" stroke="#191970" d="M254.2829,-48C262.6733,-48 271.2787,-48 279.5525,-48"/>
<polygon fill="#191970" stroke="#191970" points="254.1919,-44.5001 244.1918,-48 254.1918,-51.5001 254.1919,-44.5001"/>
</g>
<!-- Node196 -->
<g id="node6" class="node">
<title>Node196</title>
<g id="a_node6"><a xlink:href="rlm__rest_8c.html#aec142fc16ed2186fd5463d19c8902d5d" target="_top" xlink:title="rlm_rest_perform">
<polygon fill="none" stroke="#000000" points="418,-76.5 418,-95.5 508,-95.5 508,-76.5 418,-76.5"/>
<text text-anchor="middle" x="463" y="-83.5" font-family="Helvetica,sans-Serif" font-size="10.00" fill="#000000">rlm_rest_perform</text>
</a>
</g>
</g>
<!-- Node195&#45;&gt;Node196 -->
<g id="edge5" class="edge">
<title>Node195&#45;&gt;Node196</title>
<path fill="none" stroke="#191970" d="M374.0409,-60.3906C392.1177,-65.5945 412.8195,-71.5541 429.7015,-76.4141"/>
<polygon fill="#191970" stroke="#191970" points="374.8872,-56.9921 364.3092,-57.589 372.9506,-63.7189 374.8872,-56.9921"/>
</g>
<!-- Node201 -->
<g id="node11" class="node">
<title>Node201</title>
<g id="a_node11"><a xlink:href="group__xlat__functions.html#ga3e6d023504b210c8c1dc49470dc6447c" target="_top" xlink:title="Simple xlat to read text data from a URL. ">
<polygon fill="none" stroke="#000000" points="436,-19.5 436,-38.5 490,-38.5 490,-19.5 436,-19.5"/>
<text text-anchor="middle" x="463" y="-26.5" font-family="Helvetica,sans-Serif" font-size="10.00" fill="#000000">rest_xlat</text>
</a>
</g>
</g>
<!-- Node195&#45;&gt;Node201 -->
<g id="edge10" class="edge">
<title>Node195&#45;&gt;Node201</title>
<path fill="none" stroke="#191970" d="M392.0116,-39.218C407.326,-37.0137 423.0006,-34.7575 435.7121,-32.9278"/>
<polygon fill="#191970" stroke="#191970" points="391.434,-35.765 382.0346,-40.6541 392.4313,-42.6936 391.434,-35.765"/>
</g>
<!-- Node197 -->
<g id="node7" class="node">
<title>Node197</title>
<g id="a_node7"><a xlink:href="rlm__rest_8c.html#a9ef7a569b6f2f01a9ba088072c54e516" target="_top" xlink:title="mod_authorize">
<polygon fill="none" stroke="#000000" points="551,-152.5 551,-171.5 631,-171.5 631,-152.5 551,-152.5"/>
<text text-anchor="middle" x="591" y="-159.5" font-family="Helvetica,sans-Serif" font-size="10.00" fill="#000000">mod_authorize</text>
</a>
</g>
</g>
<!-- Node196&#45;&gt;Node197 -->
<g id="edge6" class="edge">
<title>Node196&#45;&gt;Node197</title>
<path fill="none" stroke="#191970" d="M482.8115,-101.8851C498.7169,-114.1489 521.957,-130.9954 544,-143 550.3381,-146.4517 557.438,-149.6416 564.1615,-152.3832"/>
<polygon fill="#191970" stroke="#191970" points="484.8162,-99.0096 474.7839,-95.6031 480.5022,-104.5223 484.8162,-99.0096"/>
</g>
<!-- Node198 -->
<g id="node8" class="node">
<title>Node198</title>
<g id="a_node8"><a xlink:href="rlm__rest_8c.html#a6dab4bbc315ece5039fc5c69f93cda26" target="_top" xlink:title="mod_authenticate">
<polygon fill="none" stroke="#000000" points="544,-114.5 544,-133.5 638,-133.5 638,-114.5 544,-114.5"/>
<text text-anchor="middle" x="591" y="-121.5" font-family="Helvetica,sans-Serif" font-size="10.00" fill="#000000">mod_authenticate</text>
</a>
</g>
</g>
<!-- Node196&#45;&gt;Node198 -->
<g id="edge7" class="edge">
<title>Node196&#45;&gt;Node198</title>
<path fill="none" stroke="#191970" d="M505.2242,-98.5353C522.6371,-103.7048 542.4917,-109.5991 558.7105,-114.4141"/>
<polygon fill="#191970" stroke="#191970" points="505.8824,-95.0798 495.2998,-95.589 503.8902,-101.7903 505.8824,-95.0798"/>
</g>
<!-- Node199 -->
<g id="node9" class="node">
<title>Node199</title>
<g id="a_node9"><a xlink:href="rlm__rest_8c.html#a9746e2f556bcc77ccc75bb356086ed15" target="_top" xlink:title="mod_accounting">
<polygon fill="none" stroke="#000000" points="547,-76.5 547,-95.5 635,-95.5 635,-76.5 547,-76.5"/>
<text text-anchor="middle" x="591" y="-83.5" font-family="Helvetica,sans-Serif" font-size="10.00" fill="#000000">mod_accounting</text>
</a>
</g>
</g>
<!-- Node196&#45;&gt;Node199 -->
<g id="edge8" class="edge">
<title>Node196&#45;&gt;Node199</title>
<path fill="none" stroke="#191970" d="M518.2915,-86C527.7896,-86 537.5485,-86 546.7102,-86"/>
<polygon fill="#191970" stroke="#191970" points="518.128,-82.5001 508.128,-86 518.128,-89.5001 518.128,-82.5001"/>
</g>
<!-- Node200 -->
<g id="node10" class="node">
<title>Node200</title>
<g id="a_node10"><a xlink:href="rlm__rest_8c.html#afdf6220a949e3c5c9b5cdafc6bb60513" target="_top" xlink:title="mod_post_auth">
<polygon fill="none" stroke="#000000" points="549.5,-38.5 549.5,-57.5 632.5,-57.5 632.5,-38.5 549.5,-38.5"/>
<text text-anchor="middle" x="591" y="-45.5" font-family="Helvetica,sans-Serif" font-size="10.00" fill="#000000">mod_post_auth</text>
</a>
</g>
</g>
<!-- Node196&#45;&gt;Node200 -->
<g id="edge9" class="edge">
<title>Node196&#45;&gt;Node200</title>
<path fill="none" stroke="#191970" d="M505.2242,-73.4647C522.6371,-68.2952 542.4917,-62.4009 558.7105,-57.5859"/>
<polygon fill="#191970" stroke="#191970" points="503.8902,-70.2097 495.2998,-76.411 505.8824,-76.9202 503.8902,-70.2097"/>
</g>
<!-- Node202 -->
<g id="node12" class="node">
<title>Node202</title>
<g id="a_node12"><a xlink:href="rlm__rest_8c.html#a9609ab2a4bc7986ec4f346b365737a42" target="_top" xlink:title="mod_bootstrap">
<polygon fill="none" stroke="#000000" points="550.5,-.5 550.5,-19.5 631.5,-19.5 631.5,-.5 550.5,-.5"/>
<text text-anchor="middle" x="591" y="-7.5" font-family="Helvetica,sans-Serif" font-size="10.00" fill="#000000">mod_bootstrap</text>
</a>
</g>
</g>
<!-- Node201&#45;&gt;Node202 -->
<g id="edge11" class="edge">
<title>Node201&#45;&gt;Node202</title>
<path fill="none" stroke="#191970" d="M500.0468,-23.5009C515.775,-21.1662 534.1604,-18.4371 550.2691,-16.046"/>
<polygon fill="#191970" stroke="#191970" points="499.5232,-20.0401 490.1455,-24.9706 500.5511,-26.9643 499.5232,-20.0401"/>
</g>
</g>
</svg>
