<?xml version="1.0" encoding="UTF-8" standalone="no"?>
<!DOCTYPE svg PUBLIC "-//W3C//DTD SVG 1.1//EN"
 "http://www.w3.org/Graphics/SVG/1.1/DTD/svg11.dtd">
<!-- Generated by graphviz version 2.40.1 (20161225.0304)
 -->
<!-- Title: json_value_array_afrom_pair_list Pages: 1 -->
<!--zoomable 513 -->
<svg id="main" version="1.1" xmlns="http://www.w3.org/2000/svg" xmlns:xlink="http://www.w3.org/1999/xlink" xml:space="preserve" onload="init(evt)">
<style type="text/css"><![CDATA[
.edge:hover path { stroke: red; }
.edge:hover polygon { stroke: red; fill: red; }
]]></style>
<script type="text/javascript"><![CDATA[
var edges = document.getElementsByTagName('g');
if (edges && edges.length) {
  for (var i=0;i<edges.length;i++) {
    if (edges[i].id.substr(0,4)=='edge') {
      edges[i].setAttribute('class','edge');
    }
  }
}
]]></script>
        <defs>
                <circle id="rim" cx="0" cy="0" r="7"/>
                <circle id="rim2" cx="0" cy="0" r="3.5"/>
                <g id="zoomPlus">
                        <use xlink:href="#rim" fill="#404040">
                                <set attributeName="fill" to="#808080" begin="zoomplus.mouseover" end="zoomplus.mouseout"/>
                        </use>
                        <path d="M-4,0h8M0,-4v8" fill="none" stroke="white" stroke-width="1.5" pointer-events="none"/>
                </g>
                <g id="zoomMin">
                        <use xlink:href="#rim" fill="#404040">
                                <set attributeName="fill" to="#808080" begin="zoomminus.mouseover" end="zoomminus.mouseout"/>
                        </use>
                        <path d="M-4,0h8" fill="none" stroke="white" stroke-width="1.5" pointer-events="none"/>
                </g>
                <g id="dirArrow">
                        <path fill="none" stroke="white" stroke-width="1.5" d="M0,-3.0v7 M-2.5,-0.5L0,-3.0L2.5,-0.5"/>
                </g>
               <g id="resetDef">
                       <use xlink:href="#rim2" fill="#404040">
                               <set attributeName="fill" to="#808080" begin="reset.mouseover" end="reset.mouseout"/>
                       </use>
               </g>
        </defs>

<script type="text/javascript">
var viewWidth = 897;
var viewHeight = 513;
var sectionId = 'dynsection-24';
</script>
<script xlink:href="svgpan.js"/>
<svg id="graph" class="graph">
<g id="viewport">
<title>json_value_array_afrom_pair_list</title>
<!-- Node1364 -->
<g id="node1" class="node">
<title>Node1364</title>
<polygon fill="#bfbfbf" stroke="#000000" points="0,-440.6389 0,-470.6389 120,-470.6389 120,-440.6389 0,-440.6389"/>
<text text-anchor="start" x="8" y="-458.6389" font-family="Helvetica,sans-Serif" font-size="10.00" fill="#000000">json_value_array_afrom</text>
<text text-anchor="middle" x="60" y="-447.6389" font-family="Helvetica,sans-Serif" font-size="10.00" fill="#000000">_pair_list</text>
</g>
<!-- Node1365 -->
<g id="node2" class="node">
<title>Node1365</title>
<g id="a_node2"><a xlink:href="cursor_8c.html#af6c2090d1e00319075d6def5aa2666fd" target="_top" xlink:title="Advanced the cursor to the next item. ">
<polygon fill="none" stroke="#000000" points="494.5,-446.1389 494.5,-465.1389 573.5,-465.1389 573.5,-446.1389 494.5,-446.1389"/>
<text text-anchor="middle" x="534" y="-453.1389" font-family="Helvetica,sans-Serif" font-size="10.00" fill="#000000">fr_cursor_next</text>
</a>
</g>
</g>
<!-- Node1364&#45;&gt;Node1365 -->
<g id="edge1" class="edge">
<title>Node1364&#45;&gt;Node1365</title>
<path fill="none" stroke="#191970" d="M120.0324,-455.6389C214.589,-455.6389 396.4623,-455.6389 484.2201,-455.6389"/>
<polygon fill="#191970" stroke="#191970" points="484.4436,-459.139 494.4435,-455.6389 484.4435,-452.139 484.4436,-459.139"/>
</g>
<!-- Node1367 -->
<g id="node4" class="node">
<title>Node1367</title>
<g id="a_node4"><a xlink:href="json_8c.html#aad1df3ee3326cd6e9ce2fb8b6c1cb04b" target="_top" xlink:title="Convert fr_pair_t into a JSON object. ">
<polygon fill="none" stroke="#000000" points="156,-370.1389 156,-389.1389 270,-389.1389 270,-370.1389 156,-370.1389"/>
<text text-anchor="middle" x="213" y="-377.1389" font-family="Helvetica,sans-Serif" font-size="10.00" fill="#000000">json_afrom_value_box</text>
</a>
</g>
</g>
<!-- Node1364&#45;&gt;Node1367 -->
<g id="edge3" class="edge">
<title>Node1364&#45;&gt;Node1367</title>
<path fill="none" stroke="#191970" d="M90.2279,-440.6238C117.5299,-427.062 157.4269,-407.2439 184.2591,-393.9155"/>
<polygon fill="#191970" stroke="#191970" points="186.107,-396.9056 193.5059,-389.3223 182.9929,-390.6364 186.107,-396.9056"/>
</g>
<!-- Node1371 -->
<g id="node8" class="node">
<title>Node1371</title>
<g id="a_node8"><a xlink:href="strerror_8c.html#ae701765650b8aea79a3037bc4921d7f8" target="_top" xlink:title="Log to thread local error buffer. ">
<polygon fill="none" stroke="#ff0000" points="798,-316.1389 798,-335.1389 884,-335.1389 884,-316.1389 798,-316.1389"/>
<text text-anchor="middle" x="841" y="-323.1389" font-family="Helvetica,sans-Serif" font-size="10.00" fill="#000000">fr_strerror_printf</text>
</a>
</g>
</g>
<!-- Node1364&#45;&gt;Node1371 -->
<g id="edge36" class="edge">
<title>Node1364&#45;&gt;Node1371</title>
<path fill="none" stroke="#191970" d="M120.0197,-467.5061C181.7086,-478.6557 280.6686,-493.6389 367,-493.6389 367,-493.6389 367,-493.6389 534,-493.6389 633.4702,-493.6389 673.3217,-528.4187 757,-474.6389 803.9079,-444.4914 827.1955,-378.4065 836.2765,-345.3233"/>
<polygon fill="#191970" stroke="#191970" points="839.7098,-346.0264 838.8251,-335.4686 832.9327,-344.2737 839.7098,-346.0264"/>
</g>
<!-- Node1366 -->
<g id="node3" class="node">
<title>Node1366</title>
<g id="a_node3"><a xlink:href="cursor_8c.html#a45a517ea8503ebd7ee4dd286ffb59b90" target="_top" xlink:title="Internal function to get the next item. ">
<polygon fill="none" stroke="#000000" points="664.5,-446.1389 664.5,-465.1389 732.5,-465.1389 732.5,-446.1389 664.5,-446.1389"/>
<text text-anchor="middle" x="698.5" y="-453.1389" font-family="Helvetica,sans-Serif" font-size="10.00" fill="#000000">cursor_next</text>
</a>
</g>
</g>
<!-- Node1365&#45;&gt;Node1366 -->
<g id="edge2" class="edge">
<title>Node1365&#45;&gt;Node1366</title>
<path fill="none" stroke="#191970" d="M573.8209,-455.6389C598.0322,-455.6389 628.9981,-455.6389 654.0123,-455.6389"/>
<polygon fill="#191970" stroke="#191970" points="654.3313,-459.139 664.3312,-455.6389 654.3312,-452.139 654.3313,-459.139"/>
</g>
<!-- Node1368 -->
<g id="node5" class="node">
<title>Node1368</title>
<g id="a_node5"><a xlink:href="pair_8c.html#a1d6e6d0376a69550ae2f8281e9f00369" target="_top" xlink:title="Get value box of a VP, optionally prefer enum value. ">
<polygon fill="none" stroke="#000000" points="306,-256.1389 306,-275.1389 428,-275.1389 428,-256.1389 306,-256.1389"/>
<text text-anchor="middle" x="367" y="-263.1389" font-family="Helvetica,sans-Serif" font-size="10.00" fill="#000000">fr_pair_value_enum_box</text>
</a>
</g>
</g>
<!-- Node1367&#45;&gt;Node1368 -->
<g id="edge4" class="edge">
<title>Node1367&#45;&gt;Node1368</title>
<path fill="none" stroke="#191970" d="M225.8651,-370.1154C252.296,-350.5497 312.9501,-305.6499 345.4705,-281.5763"/>
<polygon fill="#191970" stroke="#191970" points="347.8901,-284.1399 353.8451,-275.377 343.7252,-278.5137 347.8901,-284.1399"/>
</g>
<!-- Node1385 -->
<g id="node22" class="node">
<title>Node1385</title>
<g id="a_node22"><a xlink:href="value_8c.html#a3a0550d465b81917f8b0c69a3373163e" target="_top" xlink:title="Convert one type of fr_value_box_t to another. ">
<polygon fill="none" stroke="#ff0000" points="319,-408.1389 319,-427.1389 415,-427.1389 415,-408.1389 319,-408.1389"/>
<text text-anchor="middle" x="367" y="-415.1389" font-family="Helvetica,sans-Serif" font-size="10.00" fill="#000000">fr_value_box_cast</text>
</a>
</g>
</g>
<!-- Node1367&#45;&gt;Node1385 -->
<g id="edge30" class="edge">
<title>Node1367&#45;&gt;Node1385</title>
<path fill="none" stroke="#191970" d="M251.8607,-389.2279C272.0911,-394.2199 297.0207,-400.3713 318.5036,-405.6723"/>
<polygon fill="#191970" stroke="#191970" points="317.8714,-409.1212 328.4187,-408.1189 319.5485,-402.3251 317.8714,-409.1212"/>
</g>
<!-- Node1513 -->
<g id="node23" class="node">
<title>Node1513</title>
<g id="a_node23"><a xlink:href="json_8c.html#ad24dd072a1bddb72c7ad71d5fecd7f13" target="_top" xlink:title="Convert boxed value_box to a JSON object. ">
<polygon fill="none" stroke="#000000" points="464,-370.1389 464,-389.1389 604,-389.1389 604,-370.1389 464,-370.1389"/>
<text text-anchor="middle" x="534" y="-377.1389" font-family="Helvetica,sans-Serif" font-size="10.00" fill="#000000">json_object_from_value_box</text>
</a>
</g>
</g>
<!-- Node1367&#45;&gt;Node1513 -->
<g id="edge32" class="edge">
<title>Node1367&#45;&gt;Node1513</title>
<path fill="none" stroke="#191970" d="M270.0185,-379.6389C321.0905,-379.6389 396.5323,-379.6389 453.7019,-379.6389"/>
<polygon fill="#191970" stroke="#191970" points="453.7928,-383.139 463.7927,-379.6389 453.7927,-376.139 453.7928,-383.139"/>
</g>
<!-- Node1394 -->
<g id="node25" class="node">
<title>Node1394</title>
<g id="a_node25"><a xlink:href="value_8c.html#ad5da2574fed047b3ae861999d06c38ac" target="_top" xlink:title="Clear/free any existing value and metadata. ">
<polygon fill="none" stroke="#ff0000" points="318,-332.1389 318,-351.1389 416,-351.1389 416,-332.1389 318,-332.1389"/>
<text text-anchor="middle" x="367" y="-339.1389" font-family="Helvetica,sans-Serif" font-size="10.00" fill="#000000">fr_value_box_clear</text>
</a>
</g>
</g>
<!-- Node1367&#45;&gt;Node1394 -->
<g id="edge35" class="edge">
<title>Node1367&#45;&gt;Node1394</title>
<path fill="none" stroke="#191970" d="M251.8607,-370.0499C272.0911,-365.058 297.0207,-358.9066 318.5036,-353.6056"/>
<polygon fill="#191970" stroke="#191970" points="319.5485,-356.9528 328.4187,-351.159 317.8714,-350.1567 319.5485,-356.9528"/>
</g>
<!-- Node1368&#45;&gt;Node1365 -->
<g id="edge13" class="edge">
<title>Node1368&#45;&gt;Node1365</title>
<path fill="none" stroke="#191970" d="M380.0317,-275.381C393.402,-285.8884 414.1508,-303.6775 428,-322.6389 450.0447,-352.8212 440.9403,-369.2249 464,-398.6389 476.8919,-415.0833 495.3425,-429.8599 510.0648,-440.2453"/>
<polygon fill="#191970" stroke="#191970" points="508.4349,-443.3705 518.6667,-446.1199 512.3827,-437.5899 508.4349,-443.3705"/>
</g>
<!-- Node1369 -->
<g id="node6" class="node">
<title>Node1369</title>
<g id="a_node6"><a xlink:href="dict_8h.html#ad4be4d603ba290a5b8781ec7110b6ba4" target="_top" xlink:title="Lookup the structure representing an enum value in a fr_dict_attr_t. ">
<polygon fill="none" stroke="#000000" points="640,-180.1389 640,-199.1389 757,-199.1389 757,-180.1389 640,-180.1389"/>
<text text-anchor="middle" x="698.5" y="-187.1389" font-family="Helvetica,sans-Serif" font-size="10.00" fill="#000000">fr_dict_enum_by_value</text>
</a>
</g>
</g>
<!-- Node1368&#45;&gt;Node1369 -->
<g id="edge5" class="edge">
<title>Node1368&#45;&gt;Node1369</title>
<path fill="none" stroke="#191970" d="M408.649,-256.0904C469.145,-242.2211 581.2488,-216.52 646.8988,-201.4691"/>
<polygon fill="#191970" stroke="#191970" points="648.0564,-204.7946 657.0213,-199.1484 646.4921,-197.9716 648.0564,-204.7946"/>
</g>
<!-- Node1502 -->
<g id="node10" class="node">
<title>Node1502</title>
<g id="a_node10"><a xlink:href="dict_8h.html#ae2b53caca5c42b2715610f04c519a0cd" target="_top" xlink:title="fr_dict_verify">
<polygon fill="none" stroke="#000000" points="497.5,-98.1389 497.5,-117.1389 570.5,-117.1389 570.5,-98.1389 497.5,-98.1389"/>
<text text-anchor="middle" x="534" y="-105.1389" font-family="Helvetica,sans-Serif" font-size="10.00" fill="#000000">fr_dict_verify</text>
</a>
</g>
</g>
<!-- Node1368&#45;&gt;Node1502 -->
<g id="edge9" class="edge">
<title>Node1368&#45;&gt;Node1502</title>
<path fill="none" stroke="#191970" d="M372.6383,-255.8254C385.9882,-233.2948 421.6106,-177.1524 464,-142.6389 474.4755,-134.1097 487.3724,-126.9264 499.2298,-121.3301"/>
<polygon fill="#191970" stroke="#191970" points="500.7635,-124.4781 508.4503,-117.1868 497.8943,-118.0931 500.7635,-124.4781"/>
</g>
<!-- Node1505 -->
<g id="node13" class="node">
<title>Node1505</title>
<g id="a_node13"><a xlink:href="dict_8h.html#a3bcd1906194b1eb8b1a2939f0eec67a7" target="_top" xlink:title="Locate a fr_dict_attr_t by its name. ">
<polygon fill="none" stroke="#000000" points="480,-256.1389 480,-275.1389 588,-275.1389 588,-256.1389 480,-256.1389"/>
<text text-anchor="middle" x="534" y="-263.1389" font-family="Helvetica,sans-Serif" font-size="10.00" fill="#000000">fr_dict_attr_by_name</text>
</a>
</g>
</g>
<!-- Node1368&#45;&gt;Node1505 -->
<g id="edge14" class="edge">
<title>Node1368&#45;&gt;Node1505</title>
<path fill="none" stroke="#191970" d="M428.2364,-265.6389C441.7372,-265.6389 456.0758,-265.6389 469.6942,-265.6389"/>
<polygon fill="#191970" stroke="#191970" points="469.9421,-269.139 479.9421,-265.6389 469.942,-262.139 469.9421,-269.139"/>
</g>
<!-- Node1507 -->
<g id="node15" class="node">
<title>Node1507</title>
<g id="a_node15"><a xlink:href="dict_8h.html#a97001d5c24711a12ca7c83db9b8b1d84" target="_top" xlink:title="Attempt to locate the protocol dictionary containing an attribute. ">
<polygon fill="none" stroke="#000000" points="496.5,-332.1389 496.5,-351.1389 571.5,-351.1389 571.5,-332.1389 496.5,-332.1389"/>
<text text-anchor="middle" x="534" y="-339.1389" font-family="Helvetica,sans-Serif" font-size="10.00" fill="#000000">fr_dict_by_da</text>
</a>
</g>
</g>
<!-- Node1368&#45;&gt;Node1507 -->
<g id="edge18" class="edge">
<title>Node1368&#45;&gt;Node1507</title>
<path fill="none" stroke="#191970" d="M380.5245,-275.1667C398.7331,-287.6161 432.4918,-309.3858 464,-322.6389 471.1821,-325.6599 478.9817,-328.3305 486.6807,-330.6436"/>
<polygon fill="#191970" stroke="#191970" points="485.7492,-334.0174 496.325,-333.3818 487.6611,-327.2835 485.7492,-334.0174"/>
</g>
<!-- Node1510 -->
<g id="node17" class="node">
<title>Node1510</title>
<g id="a_node17"><a xlink:href="dict_8h.html#a9f8ce015b2bc0fb28a19648a32eea6de" target="_top" xlink:title="Lookup a attribute by its its vendor and attribute numbers and data type. ">
<polygon fill="none" stroke="#000000" points="482.5,-294.1389 482.5,-313.1389 585.5,-313.1389 585.5,-294.1389 482.5,-294.1389"/>
<text text-anchor="middle" x="534" y="-301.1389" font-family="Helvetica,sans-Serif" font-size="10.00" fill="#000000">fr_dict_attr_by_type</text>
</a>
</g>
</g>
<!-- Node1368&#45;&gt;Node1510 -->
<g id="edge21" class="edge">
<title>Node1368&#45;&gt;Node1510</title>
<path fill="none" stroke="#191970" d="M409.1412,-275.2279C431.3771,-280.2876 458.8482,-286.5385 482.3564,-291.8877"/>
<polygon fill="#191970" stroke="#191970" points="481.6345,-295.3128 492.1619,-294.1189 483.1877,-288.4873 481.6345,-295.3128"/>
</g>
<!-- Node1454 -->
<g id="node18" class="node">
<title>Node1454</title>
<g id="a_node18"><a xlink:href="snprintf_8c.html#a8da10a1735da7051de5c298ca7448eee" target="_top" xlink:title="snprintf">
<polygon fill="none" stroke="#ff0000" points="816.5,-16.1389 816.5,-35.1389 865.5,-35.1389 865.5,-16.1389 816.5,-16.1389"/>
<text text-anchor="middle" x="841" y="-23.1389" font-family="Helvetica,sans-Serif" font-size="10.00" fill="#000000">snprintf</text>
</a>
</g>
</g>
<!-- Node1368&#45;&gt;Node1454 -->
<g id="edge24" class="edge">
<title>Node1368&#45;&gt;Node1454</title>
<path fill="none" stroke="#191970" d="M369.9359,-255.8398C379.1339,-226.6516 410.0396,-139.185 464,-88.6389 562.6904,3.8069 622.6097,8.3704 757,-6.6389 773.4196,-8.4728 791.3148,-12.2634 806.3526,-15.98"/>
<polygon fill="#191970" stroke="#191970" points="805.6978,-19.4252 816.2535,-18.5162 807.4348,-12.6441 805.6978,-19.4252"/>
</g>
<!-- Node1511 -->
<g id="node19" class="node">
<title>Node1511</title>
<g id="a_node19"><a xlink:href="lib_2util_2debug_8c.html#a28bc6082dfc0394e91244752c2c81471" target="_top" xlink:title="Generate a talloc memory report for a context and print to stderr/stdout. ">
<polygon fill="none" stroke="#000000" points="484.5,-152.1389 484.5,-171.1389 583.5,-171.1389 583.5,-152.1389 484.5,-152.1389"/>
<text text-anchor="middle" x="534" y="-159.1389" font-family="Helvetica,sans-Serif" font-size="10.00" fill="#000000">fr_log_talloc_report</text>
</a>
</g>
</g>
<!-- Node1368&#45;&gt;Node1511 -->
<g id="edge25" class="edge">
<title>Node1368&#45;&gt;Node1511</title>
<path fill="none" stroke="#191970" d="M382.0907,-256.0803C401.1416,-244.029 434.9393,-222.7017 464,-204.6389 479.1568,-195.2182 496.22,-184.7341 509.705,-176.4767"/>
<polygon fill="#191970" stroke="#191970" points="511.698,-179.3605 518.4018,-171.1562 508.0449,-173.3892 511.698,-179.3605"/>
</g>
<!-- Node1370 -->
<g id="node7" class="node">
<title>Node1370</title>
<g id="a_node7"><a xlink:href="dict__ext_8h.html#a34a6d539e648b685d19cf23c2d0e7d3f" target="_top" xlink:title="fr_dict_attr_ext">
<polygon fill="none" stroke="#000000" points="800,-139.1389 800,-158.1389 882,-158.1389 882,-139.1389 800,-139.1389"/>
<text text-anchor="middle" x="841" y="-146.1389" font-family="Helvetica,sans-Serif" font-size="10.00" fill="#000000">fr_dict_attr_ext</text>
</a>
</g>
</g>
<!-- Node1369&#45;&gt;Node1370 -->
<g id="edge6" class="edge">
<title>Node1369&#45;&gt;Node1370</title>
<path fill="none" stroke="#191970" d="M731.5505,-180.1297C751.2824,-174.4524 776.5636,-167.1785 797.8565,-161.0522"/>
<polygon fill="#191970" stroke="#191970" points="798.9927,-164.3673 807.6351,-158.2387 797.0572,-157.6402 798.9927,-164.3673"/>
</g>
<!-- Node1369&#45;&gt;Node1371 -->
<g id="edge7" class="edge">
<title>Node1369&#45;&gt;Node1371</title>
<path fill="none" stroke="#191970" d="M733.7862,-199.2446C742.1187,-202.7564 750.4682,-207.4448 757,-213.6389 784.1203,-239.3572 769.3582,-260.6906 793,-289.6389 799.3872,-297.4598 807.8197,-304.5196 815.8327,-310.2733"/>
<polygon fill="#191970" stroke="#191970" points="814.0054,-313.263 824.2464,-315.9783 817.9339,-307.4693 814.0054,-313.263"/>
</g>
<!-- Node1415 -->
<g id="node9" class="node">
<title>Node1415</title>
<g id="a_node9"><a xlink:href="hash_8c.html#a5142bb7ae36b65a809eb834314974942" target="_top" xlink:title="Find data from a template. ">
<polygon fill="none" stroke="#ff0000" points="793,-250.6389 793,-280.6389 889,-280.6389 889,-250.6389 793,-250.6389"/>
<text text-anchor="start" x="801" y="-268.6389" font-family="Helvetica,sans-Serif" font-size="10.00" fill="#000000">fr_hash_table_find</text>
<text text-anchor="middle" x="841" y="-257.6389" font-family="Helvetica,sans-Serif" font-size="10.00" fill="#000000">_by_data</text>
</a>
</g>
</g>
<!-- Node1369&#45;&gt;Node1415 -->
<g id="edge8" class="edge">
<title>Node1369&#45;&gt;Node1415</title>
<path fill="none" stroke="#191970" d="M724.2505,-199.14C734.6008,-203.2317 746.5371,-208.3003 757,-213.6389 775.135,-222.8923 794.5125,-234.7445 810.081,-244.796"/>
<polygon fill="#191970" stroke="#191970" points="808.4834,-247.933 818.7693,-250.4729 812.3123,-242.073 808.4834,-247.933"/>
</g>
<!-- Node1503 -->
<g id="node11" class="node">
<title>Node1503</title>
<g id="a_node11"><a xlink:href="dict__ext_8h.html#affb00364829956930ef20d851f569aab" target="_top" xlink:title="Return the vendor number for an attribute. ">
<polygon fill="none" stroke="#000000" points="647.5,-92.6389 647.5,-122.6389 749.5,-122.6389 749.5,-92.6389 647.5,-92.6389"/>
<text text-anchor="start" x="655.5" y="-110.6389" font-family="Helvetica,sans-Serif" font-size="10.00" fill="#000000">fr_dict_vendor_num</text>
<text text-anchor="middle" x="698.5" y="-99.6389" font-family="Helvetica,sans-Serif" font-size="10.00" fill="#000000">_by_da</text>
</a>
</g>
</g>
<!-- Node1502&#45;&gt;Node1503 -->
<g id="edge10" class="edge">
<title>Node1502&#45;&gt;Node1503</title>
<path fill="none" stroke="#191970" d="M570.5079,-107.6389C590.1257,-107.6389 614.8342,-107.6389 637.2972,-107.6389"/>
<polygon fill="#191970" stroke="#191970" points="637.4338,-111.139 647.4337,-107.6389 637.4337,-104.139 637.4338,-111.139"/>
</g>
<!-- Node1504 -->
<g id="node12" class="node">
<title>Node1504</title>
<g id="a_node12"><a xlink:href="dict__ext_8h.html#ae26aad65417785f0ad801d6367dbba08" target="_top" xlink:title="Return whether a da has a given extension or not. ">
<polygon fill="none" stroke="#000000" points="647,-16.1389 647,-35.1389 750,-35.1389 750,-16.1389 647,-16.1389"/>
<text text-anchor="middle" x="698.5" y="-23.1389" font-family="Helvetica,sans-Serif" font-size="10.00" fill="#000000">fr_dict_attr_has_ext</text>
</a>
</g>
</g>
<!-- Node1502&#45;&gt;Node1504 -->
<g id="edge12" class="edge">
<title>Node1502&#45;&gt;Node1504</title>
<path fill="none" stroke="#191970" d="M547.857,-98.0344C567.5997,-84.6743 605.2864,-60.3557 640,-44.6389 644.7423,-42.4918 649.7999,-40.4734 654.8807,-38.6126"/>
<polygon fill="#191970" stroke="#191970" points="656.305,-41.8231 664.6032,-35.236 654.0084,-35.2106 656.305,-41.8231"/>
</g>
<!-- Node1503&#45;&gt;Node1370 -->
<g id="edge11" class="edge">
<title>Node1503&#45;&gt;Node1370</title>
<path fill="none" stroke="#191970" d="M749.5433,-122.3251C765.3969,-126.8865 782.7057,-131.8665 797.9578,-136.2549"/>
<polygon fill="#191970" stroke="#191970" points="797.0698,-139.6413 807.6477,-139.0428 799.0054,-132.9142 797.0698,-139.6413"/>
</g>
<!-- Node1506 -->
<g id="node14" class="node">
<title>Node1506</title>
<g id="a_node14"><a xlink:href="dict__util_8c.html#af99025342c4499a025ef9029848bcb83" target="_top" xlink:title="dict_attr_by_name">
<polygon fill="none" stroke="#000000" points="650,-256.1389 650,-275.1389 747,-275.1389 747,-256.1389 650,-256.1389"/>
<text text-anchor="middle" x="698.5" y="-263.1389" font-family="Helvetica,sans-Serif" font-size="10.00" fill="#000000">dict_attr_by_name</text>
</a>
</g>
</g>
<!-- Node1505&#45;&gt;Node1506 -->
<g id="edge15" class="edge">
<title>Node1505&#45;&gt;Node1506</title>
<path fill="none" stroke="#191970" d="M588.3194,-265.6389C604.7493,-265.6389 622.8664,-265.6389 639.582,-265.6389"/>
<polygon fill="#191970" stroke="#191970" points="639.781,-269.139 649.781,-265.6389 639.781,-262.139 639.781,-269.139"/>
</g>
<!-- Node1506&#45;&gt;Node1371 -->
<g id="edge16" class="edge">
<title>Node1506&#45;&gt;Node1371</title>
<path fill="none" stroke="#191970" d="M721.0795,-275.1461C744.7041,-285.0933 782.0034,-300.7983 808.7306,-312.0518"/>
<polygon fill="#191970" stroke="#191970" points="807.4796,-315.3227 818.0542,-315.9776 810.1961,-308.8712 807.4796,-315.3227"/>
</g>
<!-- Node1506&#45;&gt;Node1415 -->
<g id="edge17" class="edge">
<title>Node1506&#45;&gt;Node1415</title>
<path fill="none" stroke="#191970" d="M747.1419,-265.6389C758.4914,-265.6389 770.6948,-265.6389 782.4246,-265.6389"/>
<polygon fill="#191970" stroke="#191970" points="782.5774,-269.139 792.5774,-265.6389 782.5773,-262.139 782.5774,-269.139"/>
</g>
<!-- Node1508 -->
<g id="node16" class="node">
<title>Node1508</title>
<g id="a_node16"><a xlink:href="dict__util_8c.html#a2b606768ac059e28803a544a755633b8" target="_top" xlink:title="Internal version of fr_dict_by_da. ">
<polygon fill="none" stroke="#ff0000" points="666.5,-332.1389 666.5,-351.1389 730.5,-351.1389 730.5,-332.1389 666.5,-332.1389"/>
<text text-anchor="middle" x="698.5" y="-339.1389" font-family="Helvetica,sans-Serif" font-size="10.00" fill="#000000">dict_by_da</text>
</a>
</g>
</g>
<!-- Node1507&#45;&gt;Node1508 -->
<g id="edge19" class="edge">
<title>Node1507&#45;&gt;Node1508</title>
<path fill="none" stroke="#191970" d="M571.7396,-341.6389C596.9171,-341.6389 630.0574,-341.6389 656.1377,-341.6389"/>
<polygon fill="#191970" stroke="#191970" points="656.4763,-345.139 666.4763,-341.6389 656.4762,-338.139 656.4763,-345.139"/>
</g>
<!-- Node1508&#45;&gt;Node1371 -->
<g id="edge20" class="edge">
<title>Node1508&#45;&gt;Node1371</title>
<path fill="none" stroke="#191970" d="M730.8355,-338.0083C747.6802,-336.117 768.7109,-333.7556 787.8694,-331.6045"/>
<polygon fill="#191970" stroke="#191970" points="788.4356,-335.063 797.9826,-330.469 787.6544,-328.1067 788.4356,-335.063"/>
</g>
<!-- Node1510&#45;&gt;Node1415 -->
<g id="edge22" class="edge">
<title>Node1510&#45;&gt;Node1415</title>
<path fill="none" stroke="#191970" d="M585.6111,-301.2569C630.963,-298.6848 698.636,-293.6821 757,-284.6389 765.3897,-283.339 774.1901,-281.681 782.8064,-279.8877"/>
<polygon fill="#191970" stroke="#191970" points="783.7627,-283.2621 792.8009,-277.7338 782.2879,-276.4192 783.7627,-283.2621"/>
</g>
<!-- Node1510&#45;&gt;Node1508 -->
<g id="edge23" class="edge">
<title>Node1510&#45;&gt;Node1508</title>
<path fill="none" stroke="#191970" d="M575.5103,-313.2279C600.2718,-318.9479 631.6237,-326.1903 656.4756,-331.9312"/>
<polygon fill="#191970" stroke="#191970" points="655.8121,-335.37 666.3433,-334.2106 657.3877,-328.5496 655.8121,-335.37"/>
</g>
<!-- Node1511&#45;&gt;Node1371 -->
<g id="edge26" class="edge">
<title>Node1511&#45;&gt;Node1371</title>
<path fill="none" stroke="#191970" d="M554.0609,-171.2789C575.1866,-181.2536 609.5448,-196.9771 640,-208.6389 691.0586,-228.1902 711.6884,-216.0433 757,-246.6389 777.6565,-260.5868 774.9104,-272.4925 793,-289.6389 800.7432,-296.9785 809.9738,-304.2076 818.2622,-310.2398"/>
<polygon fill="#191970" stroke="#191970" points="816.274,-313.1206 826.4567,-316.0472 820.3216,-307.4094 816.274,-313.1206"/>
</g>
<!-- Node1452 -->
<g id="node20" class="node">
<title>Node1452</title>
<g id="a_node20"><a xlink:href="syserror_8c.html#a18747f9d648d0aeecc4a8b27ac0435aa" target="_top" xlink:title="Guaranteed to be thread&#45;safe version of strerror. ">
<polygon fill="none" stroke="#ff0000" points="667,-54.1389 667,-73.1389 730,-73.1389 730,-54.1389 667,-54.1389"/>
<text text-anchor="middle" x="698.5" y="-61.1389" font-family="Helvetica,sans-Serif" font-size="10.00" fill="#000000">fr_syserror</text>
</a>
</g>
</g>
<!-- Node1511&#45;&gt;Node1452 -->
<g id="edge27" class="edge">
<title>Node1511&#45;&gt;Node1452</title>
<path fill="none" stroke="#191970" d="M559.475,-151.9985C573.4612,-145.9742 590.6275,-137.3285 604,-126.6389 623.7362,-110.8624 619.1399,-96.8964 640,-82.6389 645.2648,-79.0405 651.2568,-76.087 657.3501,-73.6734"/>
<polygon fill="#191970" stroke="#191970" points="658.6455,-76.928 666.9189,-70.3097 656.324,-70.3242 658.6455,-76.928"/>
</g>
<!-- Node1512 -->
<g id="node21" class="node">
<title>Node1512</title>
<g id="a_node21"><a xlink:href="talloc_8c.html#a3e6e2b6702148d688c1fb381cb1117eb" target="_top" xlink:title="Retrieve the current talloc NULL ctx. ">
<polygon fill="none" stroke="#000000" points="659,-142.1389 659,-161.1389 738,-161.1389 738,-142.1389 659,-142.1389"/>
<text text-anchor="middle" x="698.5" y="-149.1389" font-family="Helvetica,sans-Serif" font-size="10.00" fill="#000000">talloc_null_ctx</text>
</a>
</g>
</g>
<!-- Node1511&#45;&gt;Node1512 -->
<g id="edge29" class="edge">
<title>Node1511&#45;&gt;Node1512</title>
<path fill="none" stroke="#191970" d="M583.8018,-158.6115C604.3495,-157.3624 628.1148,-155.9177 648.6658,-154.6684"/>
<polygon fill="#191970" stroke="#191970" points="649.0067,-158.1542 658.7758,-154.0538 648.5818,-151.1671 649.0067,-158.1542"/>
</g>
<!-- Node1452&#45;&gt;Node1454 -->
<g id="edge28" class="edge">
<title>Node1452&#45;&gt;Node1454</title>
<path fill="none" stroke="#191970" d="M730.1254,-55.2055C752.6959,-49.1867 783.045,-41.0936 806.2848,-34.8963"/>
<polygon fill="#191970" stroke="#191970" points="807.3262,-38.241 816.0867,-32.2825 805.5225,-31.4774 807.3262,-38.241"/>
</g>
<!-- Node1385&#45;&gt;Node1371 -->
<g id="edge31" class="edge">
<title>Node1385&#45;&gt;Node1371</title>
<path fill="none" stroke="#191970" d="M415.0398,-425.0504C490.8328,-434.6416 641.4196,-445.0801 757,-398.6389 786.1186,-386.9389 812.1013,-360.6998 827.206,-343.0804"/>
<polygon fill="#191970" stroke="#191970" points="830.0294,-345.1585 833.7133,-335.2247 824.6387,-340.6931 830.0294,-345.1585"/>
</g>
<!-- Node1513&#45;&gt;Node1369 -->
<g id="edge33" class="edge">
<title>Node1513&#45;&gt;Node1369</title>
<path fill="none" stroke="#191970" d="M590.2838,-370.0241C595.312,-367.5553 600.003,-364.476 604,-360.6389 642.3299,-323.8432 612.1316,-291.8768 640,-246.6389 649.7897,-230.7477 664.9775,-216.1292 677.4245,-205.6757"/>
<polygon fill="#191970" stroke="#191970" points="679.9306,-208.1502 685.5037,-199.1395 675.5279,-202.7081 679.9306,-208.1502"/>
</g>
<!-- Node1383 -->
<g id="node24" class="node">
<title>Node1383</title>
<g id="a_node24"><a xlink:href="value_8h.html#a878e0abfce7189a1784cdf15bc9fc3a3" target="_top" xlink:title="fr_value_box_aprint">
<polygon fill="none" stroke="#000000" points="648,-370.1389 648,-389.1389 749,-389.1389 749,-370.1389 648,-370.1389"/>
<text text-anchor="middle" x="698.5" y="-377.1389" font-family="Helvetica,sans-Serif" font-size="10.00" fill="#000000">fr_value_box_aprint</text>
</a>
</g>
</g>
<!-- Node1513&#45;&gt;Node1383 -->
<g id="edge34" class="edge">
<title>Node1513&#45;&gt;Node1383</title>
<path fill="none" stroke="#191970" d="M604.24,-379.6389C615.3576,-379.6389 626.7744,-379.6389 637.6542,-379.6389"/>
<polygon fill="#191970" stroke="#191970" points="637.8935,-383.139 647.8935,-379.6389 637.8934,-376.139 637.8935,-383.139"/>
</g>
</g>
</svg>
        <g id="navigator" transform="translate(0 0)" fill="#404254">
                <rect fill="#f2f5e9" fill-opacity="0.5" stroke="#606060" stroke-width=".5" x="0" y="0" width="60" height="60"/>
                <use id="zoomplus" xlink:href="#zoomPlus" x="17" y="9" onmousedown="handleZoom(evt,'in')"/>
                <use id="zoomminus" xlink:href="#zoomMin" x="42" y="9" onmousedown="handleZoom(evt,'out')"/>
                <use id="reset" xlink:href="#resetDef" x="30" y="36" onmousedown="handleReset()"/>
                <g id="arrowUp" xlink:href="#dirArrow" transform="translate(30 24)" onmousedown="handlePan(0,-1)">
                  <use xlink:href="#rim" fill="#404040">
                        <set attributeName="fill" to="#808080" begin="arrowUp.mouseover" end="arrowUp.mouseout"/>
                  </use>
                  <path fill="none" stroke="white" stroke-width="1.5" d="M0,-3.0v7 M-2.5,-0.5L0,-3.0L2.5,-0.5"/>
                </g>
                <g id="arrowRight" xlink:href="#dirArrow" transform="rotate(90) translate(36 -43)" onmousedown="handlePan(1,0)">
                  <use xlink:href="#rim" fill="#404040">
                        <set attributeName="fill" to="#808080" begin="arrowRight.mouseover" end="arrowRight.mouseout"/>
                  </use>
                  <path fill="none" stroke="white" stroke-width="1.5" d="M0,-3.0v7 M-2.5,-0.5L0,-3.0L2.5,-0.5"/>
                </g>
                <g id="arrowDown" xlink:href="#dirArrow" transform="rotate(180) translate(-30 -48)" onmousedown="handlePan(0,1)">
                  <use xlink:href="#rim" fill="#404040">
                        <set attributeName="fill" to="#808080" begin="arrowDown.mouseover" end="arrowDown.mouseout"/>
                  </use>
                  <path fill="none" stroke="white" stroke-width="1.5" d="M0,-3.0v7 M-2.5,-0.5L0,-3.0L2.5,-0.5"/>
                </g>
                <g id="arrowLeft" xlink:href="#dirArrow" transform="rotate(270) translate(-36 17)" onmousedown="handlePan(-1,0)">
                  <use xlink:href="#rim" fill="#404040">
                        <set attributeName="fill" to="#808080" begin="arrowLeft.mouseover" end="arrowLeft.mouseout"/>
                  </use>
                  <path fill="none" stroke="white" stroke-width="1.5" d="M0,-3.0v7 M-2.5,-0.5L0,-3.0L2.5,-0.5"/>
                </g>
        </g>
        <svg viewBox="0 0 15 15" width="100%" height="30px" preserveAspectRatio="xMaxYMin meet">
         <g id="arrow_out" transform="scale(0.3 0.3)">
          <a xlink:href="json_8c_aa13e9c59ce12765c43b9c5abce46c58b_cgraph_org.svg" target="_base">
           <rect id="button" ry="5" rx="5" y="6" x="6" height="38" width="38"
                fill="#f2f5e9" fill-opacity="0.5" stroke="#606060" stroke-width="1.0"/>
           <path id="arrow"
             d="M 11.500037,31.436501 C 11.940474,20.09759 22.043105,11.32322 32.158766,21.979434 L 37.068811,17.246167 C 37.068811,17.246167 37.088388,32 37.088388,32 L 22.160133,31.978069 C 22.160133,31.978069 26.997745,27.140456 26.997745,27.140456 C 18.528582,18.264221 13.291696,25.230495 11.500037,31.436501 z"
             style="fill:#404040;"/>
          </a>
         </g>
        </svg>
</svg>
