<?xml version="1.0" encoding="UTF-8" standalone="no"?>
<!DOCTYPE svg PUBLIC "-//W3C//DTD SVG 1.1//EN"
 "http://www.w3.org/Graphics/SVG/1.1/DTD/svg11.dtd">
<!-- Generated by graphviz version 2.40.1 (20161225.0304)
 -->
<!-- Title: fr_ldap_connection_timeout_reset Pages: 1 -->
<!--zoomable 474 -->
<svg id="main" version="1.1" xmlns="http://www.w3.org/2000/svg" xmlns:xlink="http://www.w3.org/1999/xlink" xml:space="preserve" onload="init(evt)">
<style type="text/css"><![CDATA[
.edge:hover path { stroke: red; }
.edge:hover polygon { stroke: red; fill: red; }
]]></style>
<script type="text/javascript"><![CDATA[
var edges = document.getElementsByTagName('g');
if (edges && edges.length) {
  for (var i=0;i<edges.length;i++) {
    if (edges[i].id.substr(0,4)=='edge') {
      edges[i].setAttribute('class','edge');
    }
  }
}
]]></script>
        <defs>
                <circle id="rim" cx="0" cy="0" r="7"/>
                <circle id="rim2" cx="0" cy="0" r="3.5"/>
                <g id="zoomPlus">
                        <use xlink:href="#rim" fill="#404040">
                                <set attributeName="fill" to="#808080" begin="zoomplus.mouseover" end="zoomplus.mouseout"/>
                        </use>
                        <path d="M-4,0h8M0,-4v8" fill="none" stroke="white" stroke-width="1.5" pointer-events="none"/>
                </g>
                <g id="zoomMin">
                        <use xlink:href="#rim" fill="#404040">
                                <set attributeName="fill" to="#808080" begin="zoomminus.mouseover" end="zoomminus.mouseout"/>
                        </use>
                        <path d="M-4,0h8" fill="none" stroke="white" stroke-width="1.5" pointer-events="none"/>
                </g>
                <g id="dirArrow">
                        <path fill="none" stroke="white" stroke-width="1.5" d="M0,-3.0v7 M-2.5,-0.5L0,-3.0L2.5,-0.5"/>
                </g>
               <g id="resetDef">
                       <use xlink:href="#rim2" fill="#404040">
                               <set attributeName="fill" to="#808080" begin="reset.mouseover" end="reset.mouseout"/>
                       </use>
               </g>
        </defs>

<script type="text/javascript">
var viewWidth = 1243;
var viewHeight = 474;
var sectionId = 'dynsection-11';
</script>
<script xlink:href="svgpan.js"/>
<svg id="graph" class="graph">
<g id="viewport">
<title>fr_ldap_connection_timeout_reset</title>
<!-- Node1700 -->
<g id="node1" class="node">
<title>Node1700</title>
<polygon fill="#bfbfbf" stroke="#000000" points="0,-166 0,-196 98,-196 98,-166 0,-166"/>
<text text-anchor="start" x="8" y="-184" font-family="Helvetica,sans-Serif" font-size="10.00" fill="#000000">fr_ldap_connection</text>
<text text-anchor="middle" x="49" y="-173" font-family="Helvetica,sans-Serif" font-size="10.00" fill="#000000">_timeout_reset</text>
</g>
<!-- Node1701 -->
<g id="node2" class="node">
<title>Node1701</title>
<g id="a_node2"><a xlink:href="ldap_2base_8h.html#a09b17dbd44c20ca295df56d5987d9da6" target="_top" xlink:title="Inline function to copy pointers from a berval to a valuebox. ">
<polygon fill="none" stroke="#000000" points="703,-104 703,-134 822,-134 822,-104 703,-104"/>
<text text-anchor="start" x="711" y="-122" font-family="Helvetica,sans-Serif" font-size="10.00" fill="#000000">fr_ldap_berval_to_value</text>
<text text-anchor="middle" x="762.5" y="-111" font-family="Helvetica,sans-Serif" font-size="10.00" fill="#000000">_shallow</text>
</a>
</g>
</g>
<!-- Node1700&#45;&gt;Node1701 -->
<g id="edge1" class="edge">
<title>Node1700&#45;&gt;Node1701</title>
<path fill="none" stroke="#191970" d="M75.3155,-159.37C123.9133,-121.6934 232.4013,-48 337.5,-48 337.5,-48 337.5,-48 472.5,-48 565.8015,-48 671.2694,-83.1013 725.6678,-103.9427"/>
<polygon fill="#191970" stroke="#191970" points="72.9139,-156.8063 67.2233,-165.7432 77.245,-162.3056 72.9139,-156.8063"/>
</g>
<!-- Node1705 -->
<g id="node6" class="node">
<title>Node1705</title>
<g id="a_node6"><a xlink:href="bind_8c.html#aef1a138118b3a64c253c8e4049a51e98" target="_top" xlink:title="Send a bind request to a aserver. ">
<polygon fill="none" stroke="#000000" points="141.5,-247.5 141.5,-266.5 243.5,-266.5 243.5,-247.5 141.5,-247.5"/>
<text text-anchor="middle" x="192.5" y="-254.5" font-family="Helvetica,sans-Serif" font-size="10.00" fill="#000000">_ldap_bind_io_write</text>
</a>
</g>
</g>
<!-- Node1700&#45;&gt;Node1705 -->
<g id="edge5" class="edge">
<title>Node1700&#45;&gt;Node1705</title>
<path fill="none" stroke="#191970" d="M86.5364,-200.8799C114.7699,-215.8328 152.2318,-235.6733 174.2164,-247.3167"/>
<polygon fill="#191970" stroke="#191970" points="87.8262,-197.6025 77.351,-196.0152 84.55,-203.7885 87.8262,-197.6025"/>
</g>
<!-- Node1711 -->
<g id="node11" class="node">
<title>Node1711</title>
<g id="a_node11"><a xlink:href="sasl_8c.html#a04a2c9db49bbbf963383919d5aea19f8" target="_top" xlink:title="Progress an interactive SASL bind. ">
<polygon fill="none" stroke="#ff0000" points="713,-185 713,-215 812,-215 812,-185 713,-185"/>
<text text-anchor="start" x="721" y="-203" font-family="Helvetica,sans-Serif" font-size="10.00" fill="#000000">_ldap_sasl_bind_io</text>
<text text-anchor="middle" x="762.5" y="-192" font-family="Helvetica,sans-Serif" font-size="10.00" fill="#000000">_write</text>
</a>
</g>
</g>
<!-- Node1700&#45;&gt;Node1711 -->
<g id="edge23" class="edge">
<title>Node1700&#45;&gt;Node1711</title>
<path fill="none" stroke="#191970" d="M105.3168,-163.1109C163.0002,-146.3957 255.5736,-124 337.5,-124 337.5,-124 337.5,-124 472.5,-124 567.7468,-124 675.0109,-162.8361 728.4401,-184.9848"/>
<polygon fill="#191970" stroke="#191970" points="104.271,-159.7701 95.6647,-165.9494 106.246,-166.4857 104.271,-159.7701"/>
</g>
<!-- Node1714 -->
<g id="node12" class="node">
<title>Node1714</title>
<g id="a_node12"><a xlink:href="start__tls_8c.html#a56cff46efa77496108617ef35340ef17" target="_top" xlink:title="Event handler for the response to the StartTLS extended operation. ">
<polygon fill="none" stroke="#000000" points="704,-342.5 704,-361.5 821,-361.5 821,-342.5 704,-342.5"/>
<text text-anchor="middle" x="762.5" y="-349.5" font-family="Helvetica,sans-Serif" font-size="10.00" fill="#000000">_ldap_start_tls_io_read</text>
</a>
</g>
</g>
<!-- Node1700&#45;&gt;Node1714 -->
<g id="edge24" class="edge">
<title>Node1700&#45;&gt;Node1714</title>
<path fill="none" stroke="#191970" d="M61.9389,-205.1737C97.1726,-267.3546 201.3719,-428 337.5,-428 337.5,-428 337.5,-428 472.5,-428 576.0744,-428 693.8593,-382.076 741.1757,-361.6255"/>
<polygon fill="#191970" stroke="#191970" points="64.8006,-203.118 56.882,-196.0791 58.6828,-206.5198 64.8006,-203.118"/>
</g>
<!-- Node1715 -->
<g id="node13" class="node">
<title>Node1715</title>
<g id="a_node13"><a xlink:href="start__tls_8c.html#acae0e9d6c51e152c1bae8066c1b0c4bf" target="_top" xlink:title="Send an extended operation to the LDAP server, requesting a transition to TLS. ">
<polygon fill="none" stroke="#ff0000" points="868,-337 868,-367 961,-367 961,-337 868,-337"/>
<text text-anchor="start" x="876" y="-355" font-family="Helvetica,sans-Serif" font-size="10.00" fill="#000000">_ldap_start_tls_io</text>
<text text-anchor="middle" x="914.5" y="-344" font-family="Helvetica,sans-Serif" font-size="10.00" fill="#000000">_write</text>
</a>
</g>
</g>
<!-- Node1700&#45;&gt;Node1715 -->
<g id="edge25" class="edge">
<title>Node1700&#45;&gt;Node1715</title>
<path fill="none" stroke="#191970" d="M54.2325,-206.0138C63.7086,-245.701 87.2173,-323.458 134,-371 204.0091,-442.1452 237.6856,-466 337.5,-466 337.5,-466 337.5,-466 612,-466 722.8428,-466 842.703,-398.1486 891.6948,-367.1383"/>
<polygon fill="#191970" stroke="#191970" points="57.6097,-205.0813 51.9728,-196.1104 50.7851,-206.6385 57.6097,-205.0813"/>
</g>
<!-- Node1721 -->
<g id="node15" class="node">
<title>Node1721</title>
<g id="a_node15"><a xlink:href="rlm__ldap_8h.html#a58f33b72fd66a86136a36ea008df4605" target="_top" xlink:title="Create and return a new connection. ">
<polygon fill="none" stroke="#000000" points="134,-.5 134,-19.5 251,-19.5 251,-.5 134,-.5"/>
<text text-anchor="middle" x="192.5" y="-7.5" font-family="Helvetica,sans-Serif" font-size="10.00" fill="#000000">ldap_mod_conn_create</text>
</a>
</g>
</g>
<!-- Node1700&#45;&gt;Node1721 -->
<g id="edge26" class="edge">
<title>Node1700&#45;&gt;Node1721</title>
<path fill="none" stroke="#191970" d="M57.4623,-156.3859C69.6748,-124.2043 95.1315,-67.948 134,-34 141.0279,-27.8618 149.8381,-23.1539 158.4724,-19.6031"/>
<polygon fill="#191970" stroke="#191970" points="54.1194,-155.3361 53.9624,-165.9298 60.6914,-157.7462 54.1194,-155.3361"/>
</g>
<!-- Node1702 -->
<g id="node3" class="node">
<title>Node1702</title>
<g id="a_node3"><a xlink:href="sync_8c.html#a1f0346c509a0282581842cc8ebd2ef0e" target="_top" xlink:title="Handle a LDAP_RES_SEARCH_ENTRY (SearchResultEntry) or LDAP_RES_SEARCH_REFRENCE (SearchResultReference...">
<polygon fill="none" stroke="#000000" points="858,-104 858,-134 971,-134 971,-104 858,-104"/>
<text text-anchor="start" x="866" y="-122" font-family="Helvetica,sans-Serif" font-size="10.00" fill="#000000">sync_search_entry_or</text>
<text text-anchor="middle" x="914.5" y="-111" font-family="Helvetica,sans-Serif" font-size="10.00" fill="#000000">_reference</text>
</a>
</g>
</g>
<!-- Node1701&#45;&gt;Node1702 -->
<g id="edge2" class="edge">
<title>Node1701&#45;&gt;Node1702</title>
<path fill="none" stroke="#191970" d="M832.3424,-119C840.7724,-119 849.3042,-119 857.5191,-119"/>
<polygon fill="#191970" stroke="#191970" points="832.1382,-115.5001 822.1382,-119 832.1381,-122.5001 832.1382,-115.5001"/>
</g>
<!-- Node1703 -->
<g id="node4" class="node">
<title>Node1703</title>
<g id="a_node4"><a xlink:href="sync_8h.html#a764736db43ab3f25282574c5c672ef2d" target="_top" xlink:title="Function to call when the LDAP handle&#39;s FD is readable. ">
<polygon fill="none" stroke="#000000" points="1007,-109.5 1007,-128.5 1079,-128.5 1079,-109.5 1007,-109.5"/>
<text text-anchor="middle" x="1043" y="-116.5" font-family="Helvetica,sans-Serif" font-size="10.00" fill="#000000">sync_demux</text>
</a>
</g>
</g>
<!-- Node1702&#45;&gt;Node1703 -->
<g id="edge3" class="edge">
<title>Node1702&#45;&gt;Node1703</title>
<path fill="none" stroke="#191970" d="M981.4937,-119C990.2383,-119 998.915,-119 1006.8743,-119"/>
<polygon fill="#191970" stroke="#191970" points="981.2361,-115.5001 971.236,-119 981.236,-122.5001 981.2361,-115.5001"/>
</g>
<!-- Node1704 -->
<g id="node5" class="node">
<title>Node1704</title>
<g id="a_node5"><a xlink:href="proto__ldap__sync_8c.html#a780d8f025520975af839da4b487e5863" target="_top" xlink:title="De&#45;multiplex incoming LDAP Messages. ">
<polygon fill="none" stroke="#000000" points="1115,-109.5 1115,-128.5 1235,-128.5 1235,-109.5 1115,-109.5"/>
<text text-anchor="middle" x="1175" y="-116.5" font-family="Helvetica,sans-Serif" font-size="10.00" fill="#000000">proto_ldap_socket_recv</text>
</a>
</g>
</g>
<!-- Node1703&#45;&gt;Node1704 -->
<g id="edge4" class="edge">
<title>Node1703&#45;&gt;Node1704</title>
<path fill="none" stroke="#191970" d="M1089.2597,-119C1097.532,-119 1106.2599,-119 1114.8544,-119"/>
<polygon fill="#191970" stroke="#191970" points="1089.0696,-115.5001 1079.0696,-119 1089.0695,-122.5001 1089.0696,-115.5001"/>
</g>
<!-- Node1706 -->
<g id="node7" class="node">
<title>Node1706</title>
<g id="a_node7"><a xlink:href="bind_8c.html#a53d2be0b764a0b47ac75980bb780c1fb" target="_top" xlink:title="Install I/O handlers for the bind operation. ">
<polygon fill="none" stroke="#000000" points="287,-228.5 287,-247.5 388,-247.5 388,-228.5 287,-228.5"/>
<text text-anchor="middle" x="337.5" y="-235.5" font-family="Helvetica,sans-Serif" font-size="10.00" fill="#000000">fr_ldap_bind_async</text>
</a>
</g>
</g>
<!-- Node1705&#45;&gt;Node1706 -->
<g id="edge6" class="edge">
<title>Node1705&#45;&gt;Node1706</title>
<path fill="none" stroke="#191970" d="M253.645,-248.9879C264.7032,-247.5389 276.1228,-246.0425 286.8401,-244.6382"/>
<polygon fill="#191970" stroke="#191970" points="253.0821,-245.5317 243.6216,-250.3013 253.9916,-252.4723 253.0821,-245.5317"/>
</g>
<!-- Node1706&#45;&gt;Node1701 -->
<g id="edge7" class="edge">
<title>Node1706&#45;&gt;Node1701</title>
<path fill="none" stroke="#191970" d="M368.5861,-224.3595C410.5987,-206.397 488.1773,-174.8866 557,-156 605.4173,-142.7131 661.595,-132.9732 702.9644,-126.8314"/>
<polygon fill="#191970" stroke="#191970" points="366.9911,-221.2355 359.1904,-228.4049 369.7593,-227.6649 366.9911,-221.2355"/>
</g>
<!-- Node1707 -->
<g id="node8" class="node">
<title>Node1707</title>
<g id="a_node8"><a xlink:href="ldap_2state_8c.html#a9d006baa948940f49f3591bbb83e04c8" target="_top" xlink:title="Move between LDAP connection states. ">
<polygon fill="none" stroke="#000000" points="424,-228.5 424,-247.5 521,-247.5 521,-228.5 424,-228.5"/>
<text text-anchor="middle" x="472.5" y="-235.5" font-family="Helvetica,sans-Serif" font-size="10.00" fill="#000000">fr_ldap_state_next</text>
</a>
</g>
</g>
<!-- Node1706&#45;&gt;Node1707 -->
<g id="edge8" class="edge">
<title>Node1706&#45;&gt;Node1707</title>
<path fill="none" stroke="#191970" d="M398.4178,-238C406.9203,-238 415.5634,-238 423.8007,-238"/>
<polygon fill="#191970" stroke="#191970" points="398.1531,-234.5001 388.1531,-238 398.1531,-241.5001 398.1531,-234.5001"/>
</g>
<!-- Node1707&#45;&gt;Node1701 -->
<g id="edge9" class="edge">
<title>Node1707&#45;&gt;Node1701</title>
<path fill="none" stroke="#191970" d="M504.7488,-224.6013C520.4987,-218.068 539.7323,-210.1053 557,-203 615.811,-178.8006 684.1799,-150.9004 725.3546,-134.1229"/>
<polygon fill="#191970" stroke="#191970" points="503.3358,-221.3982 495.4412,-228.464 506.019,-227.8635 503.3358,-221.3982"/>
</g>
<!-- Node1708 -->
<g id="node9" class="node">
<title>Node1708</title>
<g id="a_node9"><a xlink:href="bind_8c.html#aadbb6b77649a0d2fd82f15e5105e5b2c" target="_top" xlink:title="Parse a bind response from a server. ">
<polygon fill="none" stroke="#000000" points="712.5,-304.5 712.5,-323.5 812.5,-323.5 812.5,-304.5 712.5,-304.5"/>
<text text-anchor="middle" x="762.5" y="-311.5" font-family="Helvetica,sans-Serif" font-size="10.00" fill="#000000">_ldap_bind_io_read</text>
</a>
</g>
</g>
<!-- Node1707&#45;&gt;Node1708 -->
<g id="edge10" class="edge">
<title>Node1707&#45;&gt;Node1708</title>
<path fill="none" stroke="#191970" d="M490.5987,-254.2139C506.7669,-267.6611 531.7379,-285.9836 557,-295 607.7853,-313.1259 669.8821,-316.5064 712.4385,-316.2143"/>
<polygon fill="#191970" stroke="#191970" points="492.864,-251.5458 482.9913,-247.7013 488.3117,-256.8634 492.864,-251.5458"/>
</g>
<!-- Node1709 -->
<g id="node10" class="node">
<title>Node1709</title>
<g id="a_node10"><a xlink:href="ldap_2connection_8c.html#a8203ec84b054741130b784256e106405" target="_top" xlink:title="(Re&#45;)Initialises the libldap side of the connection handle ">
<polygon fill="none" stroke="#ff0000" points="557,-228.5 557,-247.5 667,-247.5 667,-228.5 557,-228.5"/>
<text text-anchor="middle" x="612" y="-235.5" font-family="Helvetica,sans-Serif" font-size="10.00" fill="#000000">_ldap_connection_init</text>
</a>
</g>
</g>
<!-- Node1707&#45;&gt;Node1709 -->
<g id="edge12" class="edge">
<title>Node1707&#45;&gt;Node1709</title>
<path fill="none" stroke="#191970" d="M531.413,-238C539.8274,-238 548.4574,-238 556.797,-238"/>
<polygon fill="#191970" stroke="#191970" points="531.2904,-234.5001 521.2903,-238 531.2903,-241.5001 531.2904,-234.5001"/>
</g>
<!-- Node1707&#45;&gt;Node1711 -->
<g id="edge13" class="edge">
<title>Node1707&#45;&gt;Node1711</title>
<path fill="none" stroke="#191970" d="M519.9985,-226.1918C532.0133,-223.5166 544.9326,-220.9064 557,-219 609.9086,-210.6415 671.1048,-205.5658 712.8652,-202.7892"/>
<polygon fill="#191970" stroke="#191970" points="519.1265,-222.8007 510.1573,-228.4402 520.6857,-229.6249 519.1265,-222.8007"/>
</g>
<!-- Node1707&#45;&gt;Node1714 -->
<g id="edge14" class="edge">
<title>Node1707&#45;&gt;Node1714</title>
<path fill="none" stroke="#191970" d="M485.5923,-255.805C500.5914,-274.7712 527.0013,-304.0722 557,-319 602.9372,-341.8591 661.1407,-349.5123 703.8687,-351.7953"/>
<polygon fill="#191970" stroke="#191970" points="488.2174,-253.4766 479.3556,-247.6697 482.662,-257.7354 488.2174,-253.4766"/>
</g>
<!-- Node1717 -->
<g id="node14" class="node">
<title>Node1717</title>
<g id="a_node14"><a xlink:href="ldap_2state_8c.html#a6b345a63145e6626bce5a69d8b2a09bf" target="_top" xlink:title="Signal that there&#39;s been an error on the connection. ">
<polygon fill="none" stroke="#ff0000" points="563,-266.5 563,-285.5 661,-285.5 661,-266.5 563,-266.5"/>
<text text-anchor="middle" x="612" y="-273.5" font-family="Helvetica,sans-Serif" font-size="10.00" fill="#000000">fr_ldap_state_error</text>
</a>
</g>
</g>
<!-- Node1707&#45;&gt;Node1717 -->
<g id="edge16" class="edge">
<title>Node1707&#45;&gt;Node1717</title>
<path fill="none" stroke="#191970" d="M517.4564,-250.2462C536.6848,-255.484 558.8031,-261.5091 576.8095,-266.4141"/>
<polygon fill="#191970" stroke="#191970" points="518.2701,-246.8404 507.7017,-247.589 516.4303,-253.5943 518.2701,-246.8404"/>
</g>
<!-- Node1708&#45;&gt;Node1705 -->
<g id="edge11" class="edge">
<title>Node1708&#45;&gt;Node1705</title>
<path fill="none" stroke="#191970" d="M702.3214,-317.6306C690.6102,-318.2015 678.4246,-318.7011 667,-319 618.1278,-320.2785 605.7434,-322.7685 557,-319 435.9182,-309.6388 406.4497,-298.914 287,-277 270.0108,-273.8832 251.3949,-270.0368 235.2115,-266.5525"/>
<polygon fill="#191970" stroke="#191970" points="702.651,-321.1185 712.4599,-317.1139 702.2947,-314.1275 702.651,-321.1185"/>
</g>
<!-- Node1714&#45;&gt;Node1715 -->
<g id="edge15" class="edge">
<title>Node1714&#45;&gt;Node1715</title>
<path fill="none" stroke="#191970" d="M831.469,-352C843.7164,-352 856.2094,-352 867.6612,-352"/>
<polygon fill="#191970" stroke="#191970" points="831.2672,-348.5001 821.2672,-352 831.2671,-355.5001 831.2672,-348.5001"/>
</g>
<!-- Node1717&#45;&gt;Node1701 -->
<g id="edge17" class="edge">
<title>Node1717&#45;&gt;Node1701</title>
<path fill="none" stroke="#191970" d="M661.4631,-261.3738C663.4215,-260.0401 665.2802,-258.5858 667,-257 696.2616,-230.0194 680.046,-207.5163 703,-175 714.0441,-159.3551 729.9866,-144.6375 742.5899,-134.22"/>
<polygon fill="#191970" stroke="#191970" points="659.3677,-258.5362 652.3599,-266.4824 662.7935,-264.6407 659.3677,-258.5362"/>
</g>
<!-- Node1717&#45;&gt;Node1705 -->
<g id="edge19" class="edge">
<title>Node1717&#45;&gt;Node1705</title>
<path fill="none" stroke="#191970" d="M552.722,-273.3152C470.0493,-269.5708 321.5205,-262.8436 243.5195,-259.3108"/>
<polygon fill="#191970" stroke="#191970" points="552.8095,-276.8226 562.9576,-273.7788 553.1263,-269.8298 552.8095,-276.8226"/>
</g>
<!-- Node1717&#45;&gt;Node1708 -->
<g id="edge18" class="edge">
<title>Node1717&#45;&gt;Node1708</title>
<path fill="none" stroke="#191970" d="M659.6847,-288.04C680.7103,-293.3488 705.0674,-299.4988 724.7956,-304.4799"/>
<polygon fill="#191970" stroke="#191970" points="660.5301,-284.6437 649.9775,-285.589 658.8164,-291.4307 660.5301,-284.6437"/>
</g>
<!-- Node1717&#45;&gt;Node1711 -->
<g id="edge20" class="edge">
<title>Node1717&#45;&gt;Node1711</title>
<path fill="none" stroke="#191970" d="M653.0145,-262.8814C657.7875,-261.0469 662.5403,-259.0744 667,-257 693.086,-244.8667 721.1579,-227.548 740.067,-215.1903"/>
<polygon fill="#191970" stroke="#191970" points="651.4666,-259.7206 643.2761,-266.4413 653.87,-266.2951 651.4666,-259.7206"/>
</g>
<!-- Node1717&#45;&gt;Node1714 -->
<g id="edge21" class="edge">
<title>Node1717&#45;&gt;Node1714</title>
<path fill="none" stroke="#191970" d="M633.4968,-291.6321C651.406,-304.1128 677.9426,-321.3763 703,-333 710.7711,-336.6049 719.4122,-339.7943 727.6463,-342.4813"/>
<polygon fill="#191970" stroke="#191970" points="635.1556,-288.5181 624.9715,-285.5967 631.1109,-294.2314 635.1556,-288.5181"/>
</g>
<!-- Node1717&#45;&gt;Node1715 -->
<g id="edge22" class="edge">
<title>Node1717&#45;&gt;Node1715</title>
<path fill="none" stroke="#191970" d="M671.5154,-274.1922C714.3896,-274.6005 773.0647,-278.7157 822,-295 849.9212,-304.2914 878.1622,-323.4251 895.965,-336.9556"/>
<polygon fill="#191970" stroke="#191970" points="671.2571,-270.6915 661.2468,-274.1621 671.2364,-277.6915 671.2571,-270.6915"/>
</g>
<!-- Node1722 -->
<g id="node16" class="node">
<title>Node1722</title>
<g id="a_node16"><a xlink:href="rlm__ldap_8c.html#a3c32864d8c9d017bf4625d54f415b2db" target="_top" xlink:title="Instantiate the module. ">
<polygon fill="none" stroke="#000000" points="294.5,-.5 294.5,-19.5 380.5,-19.5 380.5,-.5 294.5,-.5"/>
<text text-anchor="middle" x="337.5" y="-7.5" font-family="Helvetica,sans-Serif" font-size="10.00" fill="#000000">mod_instantiate</text>
</a>
</g>
</g>
<!-- Node1721&#45;&gt;Node1722 -->
<g id="edge27" class="edge">
<title>Node1721&#45;&gt;Node1722</title>
<path fill="none" stroke="#191970" d="M261.3235,-10C272.5704,-10 283.9355,-10 294.3327,-10"/>
<polygon fill="#191970" stroke="#191970" points="261.0591,-6.5001 251.0591,-10 261.0591,-13.5001 261.0591,-6.5001"/>
</g>
</g>
</svg>
        <g id="navigator" transform="translate(0 0)" fill="#404254">
                <rect fill="#f2f5e9" fill-opacity="0.5" stroke="#606060" stroke-width=".5" x="0" y="0" width="60" height="60"/>
                <use id="zoomplus" xlink:href="#zoomPlus" x="17" y="9" onmousedown="handleZoom(evt,'in')"/>
                <use id="zoomminus" xlink:href="#zoomMin" x="42" y="9" onmousedown="handleZoom(evt,'out')"/>
                <use id="reset" xlink:href="#resetDef" x="30" y="36" onmousedown="handleReset()"/>
                <g id="arrowUp" xlink:href="#dirArrow" transform="translate(30 24)" onmousedown="handlePan(0,-1)">
                  <use xlink:href="#rim" fill="#404040">
                        <set attributeName="fill" to="#808080" begin="arrowUp.mouseover" end="arrowUp.mouseout"/>
                  </use>
                  <path fill="none" stroke="white" stroke-width="1.5" d="M0,-3.0v7 M-2.5,-0.5L0,-3.0L2.5,-0.5"/>
                </g>
                <g id="arrowRight" xlink:href="#dirArrow" transform="rotate(90) translate(36 -43)" onmousedown="handlePan(1,0)">
                  <use xlink:href="#rim" fill="#404040">
                        <set attributeName="fill" to="#808080" begin="arrowRight.mouseover" end="arrowRight.mouseout"/>
                  </use>
                  <path fill="none" stroke="white" stroke-width="1.5" d="M0,-3.0v7 M-2.5,-0.5L0,-3.0L2.5,-0.5"/>
                </g>
                <g id="arrowDown" xlink:href="#dirArrow" transform="rotate(180) translate(-30 -48)" onmousedown="handlePan(0,1)">
                  <use xlink:href="#rim" fill="#404040">
                        <set attributeName="fill" to="#808080" begin="arrowDown.mouseover" end="arrowDown.mouseout"/>
                  </use>
                  <path fill="none" stroke="white" stroke-width="1.5" d="M0,-3.0v7 M-2.5,-0.5L0,-3.0L2.5,-0.5"/>
                </g>
                <g id="arrowLeft" xlink:href="#dirArrow" transform="rotate(270) translate(-36 17)" onmousedown="handlePan(-1,0)">
                  <use xlink:href="#rim" fill="#404040">
                        <set attributeName="fill" to="#808080" begin="arrowLeft.mouseover" end="arrowLeft.mouseout"/>
                  </use>
                  <path fill="none" stroke="white" stroke-width="1.5" d="M0,-3.0v7 M-2.5,-0.5L0,-3.0L2.5,-0.5"/>
                </g>
        </g>
        <svg viewBox="0 0 15 15" width="100%" height="30px" preserveAspectRatio="xMaxYMin meet">
         <g id="arrow_out" transform="scale(0.3 0.3)">
          <a xlink:href="ldap_2connection_8c_aee7125caeee70231cddf7545e6bca4d3_icgraph_org.svg" target="_base">
           <rect id="button" ry="5" rx="5" y="6" x="6" height="38" width="38"
                fill="#f2f5e9" fill-opacity="0.5" stroke="#606060" stroke-width="1.0"/>
           <path id="arrow"
             d="M 11.500037,31.436501 C 11.940474,20.09759 22.043105,11.32322 32.158766,21.979434 L 37.068811,17.246167 C 37.068811,17.246167 37.088388,32 37.088388,32 L 22.160133,31.978069 C 22.160133,31.978069 26.997745,27.140456 26.997745,27.140456 C 18.528582,18.264221 13.291696,25.230495 11.500037,31.436501 z"
             style="fill:#404040;"/>
          </a>
         </g>
        </svg>
</svg>
