<?xml version="1.0" encoding="UTF-8" standalone="no"?>
<!DOCTYPE svg PUBLIC "-//W3C//DTD SVG 1.1//EN"
 "http://www.w3.org/Graphics/SVG/1.1/DTD/svg11.dtd">
<!-- Generated by graphviz version 2.40.1 (20161225.0304)
 -->
<!-- Title: fr_ldap_search_async Pages: 1 -->
<!--zoomable 192 -->
<svg id="main" version="1.1" xmlns="http://www.w3.org/2000/svg" xmlns:xlink="http://www.w3.org/1999/xlink" xml:space="preserve" onload="init(evt)">
<style type="text/css"><![CDATA[
.edge:hover path { stroke: red; }
.edge:hover polygon { stroke: red; fill: red; }
]]></style>
<script type="text/javascript"><![CDATA[
var edges = document.getElementsByTagName('g');
if (edges && edges.length) {
  for (var i=0;i<edges.length;i++) {
    if (edges[i].id.substr(0,4)=='edge') {
      edges[i].setAttribute('class','edge');
    }
  }
}
]]></script>
        <defs>
                <circle id="rim" cx="0" cy="0" r="7"/>
                <circle id="rim2" cx="0" cy="0" r="3.5"/>
                <g id="zoomPlus">
                        <use xlink:href="#rim" fill="#404040">
                                <set attributeName="fill" to="#808080" begin="zoomplus.mouseover" end="zoomplus.mouseout"/>
                        </use>
                        <path d="M-4,0h8M0,-4v8" fill="none" stroke="white" stroke-width="1.5" pointer-events="none"/>
                </g>
                <g id="zoomMin">
                        <use xlink:href="#rim" fill="#404040">
                                <set attributeName="fill" to="#808080" begin="zoomminus.mouseover" end="zoomminus.mouseout"/>
                        </use>
                        <path d="M-4,0h8" fill="none" stroke="white" stroke-width="1.5" pointer-events="none"/>
                </g>
                <g id="dirArrow">
                        <path fill="none" stroke="white" stroke-width="1.5" d="M0,-3.0v7 M-2.5,-0.5L0,-3.0L2.5,-0.5"/>
                </g>
               <g id="resetDef">
                       <use xlink:href="#rim2" fill="#404040">
                               <set attributeName="fill" to="#808080" begin="reset.mouseover" end="reset.mouseout"/>
                       </use>
               </g>
        </defs>

<script type="text/javascript">
var viewWidth = 815;
var viewHeight = 192;
var sectionId = 'dynsection-52';
</script>
<script xlink:href="svgpan.js"/>
<svg id="graph" class="graph">
<g id="viewport">
<title>fr_ldap_search_async</title>
<!-- Node5696 -->
<g id="node1" class="node">
<title>Node5696</title>
<polygon fill="#bfbfbf" stroke="#000000" points="0,-50 0,-69 112,-69 112,-50 0,-50"/>
<text text-anchor="middle" x="56" y="-57" font-family="Helvetica,sans-Serif" font-size="10.00" fill="#000000">fr_ldap_search_async</text>
</g>
<!-- Node5697 -->
<g id="node2" class="node">
<title>Node5697</title>
<g id="a_node2"><a xlink:href="ldap_2base_8h.html#a4565ef54c173ef77d6874b3f322b86ad" target="_top" xlink:title="Merge connection and call specific client and server controls. ">
<polygon fill="none" stroke="#000000" points="408,-164 408,-183 521,-183 521,-164 408,-164"/>
<text text-anchor="middle" x="464.5" y="-171" font-family="Helvetica,sans-Serif" font-size="10.00" fill="#000000">fr_ldap_control_merge</text>
</a>
</g>
</g>
<!-- Node5696&#45;&gt;Node5697 -->
<g id="edge1" class="edge">
<title>Node5696&#45;&gt;Node5697</title>
<path fill="none" stroke="#191970" d="M88.3674,-69.0631C127.3588,-80.5375 194.8768,-100.2606 253,-116.5 309.7956,-132.3685 375.3876,-149.9269 418.2803,-161.3056"/>
<polygon fill="#191970" stroke="#191970" points="417.5794,-164.7407 428.1423,-163.9191 419.3726,-157.9742 417.5794,-164.7407"/>
</g>
<!-- Node5698 -->
<g id="node3" class="node">
<title>Node5698</title>
<g id="a_node3"><a xlink:href="lib_2ldap_2base_8c.html#ade9de5d1b6141426e59bd696faf21a60" target="_top" xlink:title="Prints information to the debug log on the current timeout settings. ">
<polygon fill="none" stroke="#000000" points="255,-12 255,-31 370,-31 370,-12 255,-12"/>
<text text-anchor="middle" x="312.5" y="-19" font-family="Helvetica,sans-Serif" font-size="10.00" fill="#000000">fr_ldap_timeout_debug</text>
</a>
</g>
</g>
<!-- Node5696&#45;&gt;Node5698 -->
<g id="edge2" class="edge">
<title>Node5696&#45;&gt;Node5698</title>
<path fill="none" stroke="#191970" d="M98.4523,-49.9129C113.9854,-46.6221 131.7363,-43.1134 148,-40.5 179.6119,-35.4204 214.8518,-31.1645 244.5803,-27.977"/>
<polygon fill="#191970" stroke="#191970" points="245.2728,-31.4235 254.8509,-26.8946 244.5391,-24.4621 245.2728,-31.4235"/>
</g>
<!-- Node5700 -->
<g id="node5" class="node">
<title>Node5700</title>
<g id="a_node5"><a xlink:href="lib_2ldap_2base_8c.html#a9216d61f2c1b0b186ed99717d01158d1" target="_top" xlink:title="Bind to the LDAP directory as a user. ">
<polygon fill="none" stroke="#000000" points="148,-50 148,-69 217,-69 217,-50 148,-50"/>
<text text-anchor="middle" x="182.5" y="-57" font-family="Helvetica,sans-Serif" font-size="10.00" fill="#000000">fr_ldap_bind</text>
</a>
</g>
</g>
<!-- Node5696&#45;&gt;Node5700 -->
<g id="edge4" class="edge">
<title>Node5696&#45;&gt;Node5700</title>
<path fill="none" stroke="#191970" d="M112.2214,-59.5C120.7584,-59.5 129.4683,-59.5 137.7187,-59.5"/>
<polygon fill="#191970" stroke="#191970" points="137.8759,-63.0001 147.8758,-59.5 137.8758,-56.0001 137.8759,-63.0001"/>
</g>
<!-- Node5699 -->
<g id="node4" class="node">
<title>Node5699</title>
<g id="a_node4"><a xlink:href="time_8h.html#ac062db095941b84b63f4c71e6ee52e26" target="_top" xlink:title="fr_time_delta_from\l_timeval">
<polygon fill="none" stroke="#000000" points="415.5,-.5 415.5,-30.5 513.5,-30.5 513.5,-.5 415.5,-.5"/>
<text text-anchor="start" x="423.5" y="-18.5" font-family="Helvetica,sans-Serif" font-size="10.00" fill="#000000">fr_time_delta_from</text>
<text text-anchor="middle" x="464.5" y="-7.5" font-family="Helvetica,sans-Serif" font-size="10.00" fill="#000000">_timeval</text>
</a>
</g>
</g>
<!-- Node5698&#45;&gt;Node5699 -->
<g id="edge3" class="edge">
<title>Node5698&#45;&gt;Node5699</title>
<path fill="none" stroke="#191970" d="M370.3983,-19.2145C381.7034,-18.7683 393.5758,-18.2996 404.934,-17.8513"/>
<polygon fill="#191970" stroke="#191970" points="405.3352,-21.3383 415.1893,-17.4465 405.059,-14.3437 405.3352,-21.3383"/>
</g>
<!-- Node5700&#45;&gt;Node5698 -->
<g id="edge5" class="edge">
<title>Node5700&#45;&gt;Node5698</title>
<path fill="none" stroke="#191970" d="M215.3045,-49.911C231.7783,-45.0956 251.9434,-39.2012 269.6273,-34.032"/>
<polygon fill="#191970" stroke="#191970" points="271.0897,-37.2511 279.706,-31.0859 269.1256,-30.5323 271.0897,-37.2511"/>
</g>
<!-- Node5701 -->
<g id="node6" class="node">
<title>Node5701</title>
<g id="a_node6"><a xlink:href="sasl__s_8c.html#a1e14b1c3d8a5bddd0309b5c9d8f60eda" target="_top" xlink:title="Initiate an LDAP interactive bind. ">
<polygon fill="none" stroke="#000000" points="253,-88 253,-107 372,-107 372,-88 253,-88"/>
<text text-anchor="middle" x="312.5" y="-95" font-family="Helvetica,sans-Serif" font-size="10.00" fill="#000000">fr_ldap_sasl_interactive</text>
</a>
</g>
</g>
<!-- Node5700&#45;&gt;Node5701 -->
<g id="edge6" class="edge">
<title>Node5700&#45;&gt;Node5701</title>
<path fill="none" stroke="#191970" d="M215.3045,-69.089C231.7783,-73.9044 251.9434,-79.7988 269.6273,-84.968"/>
<polygon fill="#191970" stroke="#191970" points="269.1256,-88.4677 279.706,-87.9141 271.0897,-81.7489 269.1256,-88.4677"/>
</g>
<!-- Node5842 -->
<g id="node13" class="node">
<title>Node5842</title>
<g id="a_node13"><a xlink:href="lib_2ldap_2base_8c.html#a54a1edb5cd40ac6a4531368ae9b796b8" target="_top" xlink:title="Parse response from LDAP server dealing with any errors. ">
<polygon fill="none" stroke="#000000" points="427,-50 427,-69 502,-69 502,-50 427,-50"/>
<text text-anchor="middle" x="464.5" y="-57" font-family="Helvetica,sans-Serif" font-size="10.00" fill="#000000">fr_ldap_result</text>
</a>
</g>
</g>
<!-- Node5700&#45;&gt;Node5842 -->
<g id="edge17" class="edge">
<title>Node5700&#45;&gt;Node5842</title>
<path fill="none" stroke="#191970" d="M217.0787,-59.5C267.2001,-59.5 360.2141,-59.5 416.8166,-59.5"/>
<polygon fill="#191970" stroke="#191970" points="416.9433,-63.0001 426.9433,-59.5 416.9432,-56.0001 416.9433,-63.0001"/>
</g>
<!-- Node5701&#45;&gt;Node5697 -->
<g id="edge7" class="edge">
<title>Node5701&#45;&gt;Node5697</title>
<path fill="none" stroke="#191970" d="M328.8094,-107.0111C347.6224,-117.8335 379.6138,-135.7827 408,-149.5 415.4216,-153.0864 423.516,-156.6964 431.1992,-159.9884"/>
<polygon fill="#191970" stroke="#191970" points="430.0554,-163.3045 440.6298,-163.9625 432.7737,-156.8538 430.0554,-163.3045"/>
</g>
<!-- Node5702 -->
<g id="node7" class="node">
<title>Node5702</title>
<g id="a_node7"><a xlink:href="sasl__s_8c.html#a7ef1b2b3ed37bc8df416966fb141b84b" target="_top" xlink:title="Callback for fr_ldap_sasl_interactive_bind. ">
<polygon fill="none" stroke="#000000" points="426,-88 426,-107 503,-107 503,-88 426,-88"/>
<text text-anchor="middle" x="464.5" y="-95" font-family="Helvetica,sans-Serif" font-size="10.00" fill="#000000">_sasl_interact</text>
</a>
</g>
</g>
<!-- Node5701&#45;&gt;Node5702 -->
<g id="edge8" class="edge">
<title>Node5701&#45;&gt;Node5702</title>
<path fill="none" stroke="#191970" d="M372.1382,-97.5C386.454,-97.5 401.583,-97.5 415.3604,-97.5"/>
<polygon fill="#191970" stroke="#191970" points="415.5968,-101.0001 425.5967,-97.5 415.5967,-94.0001 415.5968,-101.0001"/>
</g>
<!-- Node5703 -->
<g id="node8" class="node">
<title>Node5703</title>
<g id="a_node8"><a xlink:href="lib_2ldap_2base_8c.html#a0b23116cb2c3079e9abc1ed87cbf36ec" target="_top" xlink:title="Perform basic parsing of multiple types of messages, checking for error conditions. ">
<polygon fill="none" stroke="#000000" points="557,-107 557,-126 659,-126 659,-107 557,-107"/>
<text text-anchor="middle" x="608" y="-114" font-family="Helvetica,sans-Serif" font-size="10.00" fill="#000000">fr_ldap_error_check</text>
</a>
</g>
</g>
<!-- Node5701&#45;&gt;Node5703 -->
<g id="edge9" class="edge">
<title>Node5701&#45;&gt;Node5703</title>
<path fill="none" stroke="#191970" d="M351.2711,-107.0101C368.5232,-110.7751 389.1578,-114.6438 408,-116.5 454.4103,-121.0719 507.173,-120.8466 546.8481,-119.5993"/>
<polygon fill="#191970" stroke="#191970" points="547.0253,-123.0953 556.8988,-119.2528 546.7841,-116.0995 547.0253,-123.0953"/>
</g>
<!-- Node5701&#45;&gt;Node5842 -->
<g id="edge14" class="edge">
<title>Node5701&#45;&gt;Node5842</title>
<path fill="none" stroke="#191970" d="M350.856,-87.911C370.9756,-82.8811 395.804,-76.674 417.1166,-71.3459"/>
<polygon fill="#191970" stroke="#191970" points="418.0927,-74.7096 426.9452,-68.8887 416.3949,-67.9186 418.0927,-74.7096"/>
</g>
<!-- Node5704 -->
<g id="node9" class="node">
<title>Node5704</title>
<g id="a_node9"><a xlink:href="strerror_8c.html#ae701765650b8aea79a3037bc4921d7f8" target="_top" xlink:title="Log to thread local error buffer. ">
<polygon fill="none" stroke="#ff0000" points="708,-50 708,-69 794,-69 794,-50 708,-50"/>
<text text-anchor="middle" x="751" y="-57" font-family="Helvetica,sans-Serif" font-size="10.00" fill="#000000">fr_strerror_printf</text>
</a>
</g>
</g>
<!-- Node5703&#45;&gt;Node5704 -->
<g id="edge10" class="edge">
<title>Node5703&#45;&gt;Node5704</title>
<path fill="none" stroke="#191970" d="M628.5374,-106.9421C646.0385,-98.9395 671.9451,-87.4276 695,-78.5 700.2656,-76.461 705.8535,-74.4211 711.3821,-72.4749"/>
<polygon fill="#191970" stroke="#191970" points="712.8749,-75.6624 721.1872,-69.0931 710.5925,-69.0449 712.8749,-75.6624"/>
</g>
<!-- Node5838 -->
<g id="node10" class="node">
<title>Node5838</title>
<g id="a_node10"><a xlink:href="ldap_2base_8h.html#a3bbe1f06785352e62d10a38b2ea6eb47" target="_top" xlink:title="Find the place at which the two DN strings diverge. ">
<polygon fill="none" stroke="#000000" points="699,-126 699,-145 803,-145 803,-126 699,-126"/>
<text text-anchor="middle" x="751" y="-133" font-family="Helvetica,sans-Serif" font-size="10.00" fill="#000000">fr_ldap_common_dn</text>
</a>
</g>
</g>
<!-- Node5703&#45;&gt;Node5838 -->
<g id="edge11" class="edge">
<title>Node5703&#45;&gt;Node5838</title>
<path fill="none" stroke="#191970" d="M659.2224,-123.3058C668.7391,-124.5702 678.7784,-125.9041 688.5859,-127.2072"/>
<polygon fill="#191970" stroke="#191970" points="688.3168,-130.7021 698.6907,-128.5498 689.2389,-123.7631 688.3168,-130.7021"/>
</g>
<!-- Node5839 -->
<g id="node11" class="node">
<title>Node5839</title>
<g id="a_node11"><a xlink:href="lib_2util_2log_8c.html#af7c9a7c610ae18dd76a8c9b752844be8" target="_top" xlink:title="Canonicalize error strings, removing tabs, and generate spaces for error marker. ">
<polygon fill="none" stroke="#000000" points="697.5,-88 697.5,-107 804.5,-107 804.5,-88 697.5,-88"/>
<text text-anchor="middle" x="751" y="-95" font-family="Helvetica,sans-Serif" font-size="10.00" fill="#000000">fr_canonicalize_error</text>
</a>
</g>
</g>
<!-- Node5703&#45;&gt;Node5839 -->
<g id="edge12" class="edge">
<title>Node5703&#45;&gt;Node5839</title>
<path fill="none" stroke="#191970" d="M659.2224,-109.6942C668.2859,-108.49 677.8232,-107.2228 687.1829,-105.9792"/>
<polygon fill="#191970" stroke="#191970" points="687.7868,-109.4298 697.2387,-104.6431 686.8648,-102.4908 687.7868,-109.4298"/>
</g>
<!-- Node5840 -->
<g id="node12" class="node">
<title>Node5840</title>
<g id="a_node12"><a xlink:href="strerror_8c.html#a2f2232a184a763c76b3d87d5bea7a868" target="_top" xlink:title="Add a message to an existing stack of messages. ">
<polygon fill="none" stroke="#ff0000" points="695,-164 695,-183 807,-183 807,-164 695,-164"/>
<text text-anchor="middle" x="751" y="-171" font-family="Helvetica,sans-Serif" font-size="10.00" fill="#000000">fr_strerror_printf_push</text>
</a>
</g>
</g>
<!-- Node5703&#45;&gt;Node5840 -->
<g id="edge13" class="edge">
<title>Node5703&#45;&gt;Node5840</title>
<path fill="none" stroke="#191970" d="M628.5374,-126.0579C646.0385,-134.0605 671.9451,-145.5724 695,-154.5 700.2656,-156.539 705.8535,-158.5789 711.3821,-160.5251"/>
<polygon fill="#191970" stroke="#191970" points="710.5925,-163.9551 721.1872,-163.9069 712.8749,-157.3376 710.5925,-163.9551"/>
</g>
<!-- Node5842&#45;&gt;Node5703 -->
<g id="edge15" class="edge">
<title>Node5842&#45;&gt;Node5703</title>
<path fill="none" stroke="#191970" d="M494.5832,-69.0742C503.1716,-71.9537 512.5031,-75.2229 521,-78.5 540.2825,-85.937 561.5479,-95.2052 578.2276,-102.7266"/>
<polygon fill="#191970" stroke="#191970" points="576.9167,-105.9752 587.4687,-106.9261 579.8127,-99.6024 576.9167,-105.9752"/>
</g>
<!-- Node5842&#45;&gt;Node5704 -->
<g id="edge16" class="edge">
<title>Node5842&#45;&gt;Node5704</title>
<path fill="none" stroke="#191970" d="M502.2495,-59.5C552.172,-59.5 640.4543,-59.5 697.3083,-59.5"/>
<polygon fill="#191970" stroke="#191970" points="697.5422,-63.0001 707.5422,-59.5 697.5421,-56.0001 697.5422,-63.0001"/>
</g>
</g>
</svg>
        <g id="navigator" transform="translate(0 0)" fill="#404254">
                <rect fill="#f2f5e9" fill-opacity="0.5" stroke="#606060" stroke-width=".5" x="0" y="0" width="60" height="60"/>
                <use id="zoomplus" xlink:href="#zoomPlus" x="17" y="9" onmousedown="handleZoom(evt,'in')"/>
                <use id="zoomminus" xlink:href="#zoomMin" x="42" y="9" onmousedown="handleZoom(evt,'out')"/>
                <use id="reset" xlink:href="#resetDef" x="30" y="36" onmousedown="handleReset()"/>
                <g id="arrowUp" xlink:href="#dirArrow" transform="translate(30 24)" onmousedown="handlePan(0,-1)">
                  <use xlink:href="#rim" fill="#404040">
                        <set attributeName="fill" to="#808080" begin="arrowUp.mouseover" end="arrowUp.mouseout"/>
                  </use>
                  <path fill="none" stroke="white" stroke-width="1.5" d="M0,-3.0v7 M-2.5,-0.5L0,-3.0L2.5,-0.5"/>
                </g>
                <g id="arrowRight" xlink:href="#dirArrow" transform="rotate(90) translate(36 -43)" onmousedown="handlePan(1,0)">
                  <use xlink:href="#rim" fill="#404040">
                        <set attributeName="fill" to="#808080" begin="arrowRight.mouseover" end="arrowRight.mouseout"/>
                  </use>
                  <path fill="none" stroke="white" stroke-width="1.5" d="M0,-3.0v7 M-2.5,-0.5L0,-3.0L2.5,-0.5"/>
                </g>
                <g id="arrowDown" xlink:href="#dirArrow" transform="rotate(180) translate(-30 -48)" onmousedown="handlePan(0,1)">
                  <use xlink:href="#rim" fill="#404040">
                        <set attributeName="fill" to="#808080" begin="arrowDown.mouseover" end="arrowDown.mouseout"/>
                  </use>
                  <path fill="none" stroke="white" stroke-width="1.5" d="M0,-3.0v7 M-2.5,-0.5L0,-3.0L2.5,-0.5"/>
                </g>
                <g id="arrowLeft" xlink:href="#dirArrow" transform="rotate(270) translate(-36 17)" onmousedown="handlePan(-1,0)">
                  <use xlink:href="#rim" fill="#404040">
                        <set attributeName="fill" to="#808080" begin="arrowLeft.mouseover" end="arrowLeft.mouseout"/>
                  </use>
                  <path fill="none" stroke="white" stroke-width="1.5" d="M0,-3.0v7 M-2.5,-0.5L0,-3.0L2.5,-0.5"/>
                </g>
        </g>
        <svg viewBox="0 0 15 15" width="100%" height="30px" preserveAspectRatio="xMaxYMin meet">
         <g id="arrow_out" transform="scale(0.3 0.3)">
          <a xlink:href="ldap_2base_8h_a0f993b52fecd29dd9a0f7cce48c0fd81_cgraph_org.svg" target="_base">
           <rect id="button" ry="5" rx="5" y="6" x="6" height="38" width="38"
                fill="#f2f5e9" fill-opacity="0.5" stroke="#606060" stroke-width="1.0"/>
           <path id="arrow"
             d="M 11.500037,31.436501 C 11.940474,20.09759 22.043105,11.32322 32.158766,21.979434 L 37.068811,17.246167 C 37.068811,17.246167 37.088388,32 37.088388,32 L 22.160133,31.978069 C 22.160133,31.978069 26.997745,27.140456 26.997745,27.140456 C 18.528582,18.264221 13.291696,25.230495 11.500037,31.436501 z"
             style="fill:#404040;"/>
          </a>
         </g>
        </svg>
</svg>
