<?xml version="1.0" encoding="UTF-8" standalone="no"?>
<!DOCTYPE svg PUBLIC "-//W3C//DTD SVG 1.1//EN"
 "http://www.w3.org/Graphics/SVG/1.1/DTD/svg11.dtd">
<!-- Generated by graphviz version 2.40.1 (20161225.0304)
 -->
<!-- Title: map_sort Pages: 1 -->
<svg width="158pt" height="46pt"
 viewBox="0.00 0.00 158.00 46.00" xmlns="http://www.w3.org/2000/svg" xmlns:xlink="http://www.w3.org/1999/xlink">
<g id="graph0" class="graph" transform="scale(1 1) rotate(0) translate(4 42)">
<title>map_sort</title>
<!-- Node3095 -->
<g id="node1" class="node">
<title>Node3095</title>
<polygon fill="#bfbfbf" stroke="#000000" points="0,-.5 0,-19.5 57,-19.5 57,-.5 0,-.5"/>
<text text-anchor="middle" x="28.5" y="-7.5" font-family="Helvetica,sans-Serif" font-size="10.00" fill="#000000">map_sort</text>
</g>
<!-- Node3096 -->
<g id="node2" class="node">
<title>Node3096</title>
<g id="a_node2"><a xlink:href="map_8h.html#a9a0937b95b4fecf56aa4cf1d4b55497a" target="_top" xlink:title="Sort a linked list of map_t using merge sort. ">
<polygon fill="none" stroke="#000000" points="93,-.5 93,-19.5 150,-19.5 150,-.5 93,-.5"/>
<text text-anchor="middle" x="121.5" y="-7.5" font-family="Helvetica,sans-Serif" font-size="10.00" fill="#000000">map_sort</text>
</a>
</g>
</g>
<!-- Node3095&#45;&gt;Node3096 -->
<g id="edge1" class="edge">
<title>Node3095&#45;&gt;Node3096</title>
<path fill="none" stroke="#191970" d="M67.31,-10C75.8395,-10 84.7242,-10 92.7726,-10"/>
<polygon fill="#191970" stroke="#191970" points="67.162,-6.5001 57.1619,-10 67.1619,-13.5001 67.162,-6.5001"/>
</g>
<!-- Node3096&#45;&gt;Node3096 -->
<g id="edge2" class="edge">
<title>Node3096&#45;&gt;Node3096</title>
<path fill="none" stroke="#191970" d="M104.4638,-29.4C105.6015,-34.3146 111.2803,-38 121.5,-38 137.8516,-38 142.5782,-28.5653 135.6799,-19.7571"/>
<polygon fill="#191970" stroke="#191970" points="107.8358,-30.3393 107.3201,-19.7571 101.1241,-28.3512 107.8358,-30.3393"/>
</g>
</g>
</svg>
