<?xml version="1.0" encoding="UTF-8" standalone="no"?>
<!DOCTYPE svg PUBLIC "-//W3C//DTD SVG 1.1//EN"
 "http://www.w3.org/Graphics/SVG/1.1/DTD/svg11.dtd">
<!-- Generated by graphviz version 2.40.1 (20161225.0304)
 -->
<!-- Title: _redis_io_common Pages: 1 -->
<svg width="671pt" height="180pt"
 viewBox="0.00 0.00 671.00 180.00" xmlns="http://www.w3.org/2000/svg" xmlns:xlink="http://www.w3.org/1999/xlink">
<g id="graph0" class="graph" transform="scale(1 1) rotate(0) translate(4 176)">
<title>_redis_io_common</title>
<!-- Node549 -->
<g id="node1" class="node">
<title>Node549</title>
<polygon fill="#bfbfbf" stroke="#000000" points="0,-76.5 0,-95.5 98,-95.5 98,-76.5 0,-76.5"/>
<text text-anchor="middle" x="49" y="-83.5" font-family="Helvetica,sans-Serif" font-size="10.00" fill="#000000">_redis_io_common</text>
</g>
<!-- Node550 -->
<g id="node2" class="node">
<title>Node550</title>
<g id="a_node2"><a xlink:href="lib_2redis_2io_8c.html#ab46bc8708c12cf88efa06afd240a4567" target="_top" xlink:title="Register FD for reads. ">
<polygon fill="none" stroke="#000000" points="135,-152.5 135,-171.5 236,-171.5 236,-152.5 135,-152.5"/>
<text text-anchor="middle" x="185.5" y="-159.5" font-family="Helvetica,sans-Serif" font-size="10.00" fill="#000000">_redis_io_add_read</text>
</a>
</g>
</g>
<!-- Node549&#45;&gt;Node550 -->
<g id="edge1" class="edge">
<title>Node549&#45;&gt;Node550</title>
<path fill="none" stroke="#191970" d="M69.808,-102.0019C86.5089,-114.3302 110.9012,-131.2062 134,-143 140.875,-146.5103 148.5553,-149.7013 155.8429,-152.4238"/>
<polygon fill="#191970" stroke="#191970" points="71.4787,-98.8801 61.378,-95.6819 67.2797,-104.4809 71.4787,-98.8801"/>
</g>
<!-- Node560 -->
<g id="node6" class="node">
<title>Node560</title>
<g id="a_node6"><a xlink:href="lib_2redis_2io_8c.html#a18525ae46db9e664b3eaf6e6897a90a2" target="_top" xlink:title="De&#45;register FD for reads. ">
<polygon fill="none" stroke="#000000" points="136.5,-114.5 136.5,-133.5 234.5,-133.5 234.5,-114.5 136.5,-114.5"/>
<text text-anchor="middle" x="185.5" y="-121.5" font-family="Helvetica,sans-Serif" font-size="10.00" fill="#000000">_redis_io_del_read</text>
</a>
</g>
</g>
<!-- Node549&#45;&gt;Node560 -->
<g id="edge5" class="edge">
<title>Node549&#45;&gt;Node560</title>
<path fill="none" stroke="#191970" d="M93.2487,-98.3183C112.003,-103.5393 133.528,-109.5316 151.0663,-114.4141"/>
<polygon fill="#191970" stroke="#191970" points="94.0171,-94.8992 83.4447,-95.589 92.1397,-101.6428 94.0171,-94.8992"/>
</g>
<!-- Node561 -->
<g id="node7" class="node">
<title>Node561</title>
<g id="a_node7"><a xlink:href="lib_2redis_2io_8c.html#a279b7b10f725d5ba482f038f3db93393" target="_top" xlink:title="Register FD for writes. ">
<polygon fill="none" stroke="#000000" points="134,-76.5 134,-95.5 237,-95.5 237,-76.5 134,-76.5"/>
<text text-anchor="middle" x="185.5" y="-83.5" font-family="Helvetica,sans-Serif" font-size="10.00" fill="#000000">_redis_io_add_write</text>
</a>
</g>
</g>
<!-- Node549&#45;&gt;Node561 -->
<g id="edge7" class="edge">
<title>Node549&#45;&gt;Node561</title>
<path fill="none" stroke="#191970" d="M108.5087,-86C116.9989,-86 125.6726,-86 133.9925,-86"/>
<polygon fill="#191970" stroke="#191970" points="108.2797,-82.5001 98.2796,-86 108.2796,-89.5001 108.2797,-82.5001"/>
</g>
<!-- Node562 -->
<g id="node8" class="node">
<title>Node562</title>
<g id="a_node8"><a xlink:href="lib_2redis_2io_8c.html#a0ea329c6838ab3d73e29ed8aaef25f9f" target="_top" xlink:title="De&#45;register FD for writes. ">
<polygon fill="none" stroke="#000000" points="135.5,-38.5 135.5,-57.5 235.5,-57.5 235.5,-38.5 135.5,-38.5"/>
<text text-anchor="middle" x="185.5" y="-45.5" font-family="Helvetica,sans-Serif" font-size="10.00" fill="#000000">_redis_io_del_write</text>
</a>
</g>
</g>
<!-- Node549&#45;&gt;Node562 -->
<g id="edge9" class="edge">
<title>Node549&#45;&gt;Node562</title>
<path fill="none" stroke="#191970" d="M93.2487,-73.6817C112.003,-68.4607 133.528,-62.4684 151.0663,-57.5859"/>
<polygon fill="#191970" stroke="#191970" points="92.1397,-70.3572 83.4447,-76.411 94.0171,-77.1008 92.1397,-70.3572"/>
</g>
<!-- Node563 -->
<g id="node9" class="node">
<title>Node563</title>
<g id="a_node9"><a xlink:href="lib_2redis_2io_8c.html#a35f19ff003c6d9ee766a867c1a3c6b70" target="_top" xlink:title="Handle freeing the redisAsyncContext. ">
<polygon fill="none" stroke="#000000" points="147,-.5 147,-19.5 224,-19.5 224,-.5 147,-.5"/>
<text text-anchor="middle" x="185.5" y="-7.5" font-family="Helvetica,sans-Serif" font-size="10.00" fill="#000000">_redis_io_free</text>
</a>
</g>
</g>
<!-- Node549&#45;&gt;Node563 -->
<g id="edge11" class="edge">
<title>Node549&#45;&gt;Node563</title>
<path fill="none" stroke="#191970" d="M69.808,-69.9981C86.5089,-57.6698 110.9012,-40.7938 134,-29 140.875,-25.4897 148.5553,-22.2987 155.8429,-19.5762"/>
<polygon fill="#191970" stroke="#191970" points="67.2797,-67.5191 61.378,-76.3181 71.4787,-73.1199 67.2797,-67.5191"/>
</g>
<!-- Node551 -->
<g id="node3" class="node">
<title>Node551</title>
<g id="a_node3"><a xlink:href="lib_2redis_2io_8c.html#a40f5458ef461e1a3b47f4f1b98e2b217" target="_top" xlink:title="Configures async I/O callbacks for an existing redisAsyncContext. ">
<polygon fill="none" stroke="#000000" points="273,-76.5 273,-95.5 364,-95.5 364,-76.5 273,-76.5"/>
<text text-anchor="middle" x="318.5" y="-83.5" font-family="Helvetica,sans-Serif" font-size="10.00" fill="#000000">fr_redis_io_setup</text>
</a>
</g>
</g>
<!-- Node550&#45;&gt;Node551 -->
<g id="edge2" class="edge">
<title>Node550&#45;&gt;Node551</title>
<path fill="none" stroke="#191970" d="M225.0407,-148.6054C229.1444,-146.8633 233.1998,-144.9875 237,-143 263.6225,-129.0765 291.706,-107.7477 306.9655,-95.5124"/>
<polygon fill="#191970" stroke="#191970" points="223.4698,-145.4637 215.4758,-152.4169 226.0611,-151.9664 223.4698,-145.4637"/>
</g>
<!-- Node552 -->
<g id="node4" class="node">
<title>Node552</title>
<g id="a_node4"><a xlink:href="lib_2redis_2io_8c.html#a1e77d1ec6b04a19ab3fc2ccdf61cf7a1" target="_top" xlink:title="Callback for the initialise state. ">
<polygon fill="none" stroke="#000000" points="400,-76.5 400,-95.5 526,-95.5 526,-76.5 400,-76.5"/>
<text text-anchor="middle" x="463" y="-83.5" font-family="Helvetica,sans-Serif" font-size="10.00" fill="#000000">_redis_io_connection_init</text>
</a>
</g>
</g>
<!-- Node551&#45;&gt;Node552 -->
<g id="edge3" class="edge">
<title>Node551&#45;&gt;Node552</title>
<path fill="none" stroke="#191970" d="M374.2645,-86C382.6527,-86 391.3541,-86 399.8829,-86"/>
<polygon fill="#191970" stroke="#191970" points="374.2207,-82.5001 364.2207,-86 374.2207,-89.5001 374.2207,-82.5001"/>
</g>
<!-- Node553 -->
<g id="node5" class="node">
<title>Node553</title>
<g id="a_node5"><a xlink:href="lib_2redis_2io_8h.html#ae4f5cab619d8b2e0623d904dfcd82789" target="_top" xlink:title="Allocate an async redis I/O connection. ">
<polygon fill="none" stroke="#ff0000" points="562,-71 562,-101 663,-101 663,-71 562,-71"/>
<text text-anchor="start" x="570" y="-89" font-family="Helvetica,sans-Serif" font-size="10.00" fill="#000000">fr_redis_connection</text>
<text text-anchor="middle" x="612.5" y="-78" font-family="Helvetica,sans-Serif" font-size="10.00" fill="#000000">_alloc</text>
</a>
</g>
</g>
<!-- Node552&#45;&gt;Node553 -->
<g id="edge4" class="edge">
<title>Node552&#45;&gt;Node553</title>
<path fill="none" stroke="#191970" d="M536.4038,-86C544.9564,-86 553.5325,-86 561.684,-86"/>
<polygon fill="#191970" stroke="#191970" points="536.4015,-82.5001 526.4015,-86 536.4014,-89.5001 536.4015,-82.5001"/>
</g>
<!-- Node560&#45;&gt;Node551 -->
<g id="edge6" class="edge">
<title>Node560&#45;&gt;Node551</title>
<path fill="none" stroke="#191970" d="M228.8669,-111.6094C247.0807,-106.4055 267.9393,-100.4459 284.9492,-95.5859"/>
<polygon fill="#191970" stroke="#191970" points="227.7152,-108.2984 219.0615,-114.411 229.6383,-115.029 227.7152,-108.2984"/>
</g>
<!-- Node561&#45;&gt;Node551 -->
<g id="edge8" class="edge">
<title>Node561&#45;&gt;Node551</title>
<path fill="none" stroke="#191970" d="M247.5445,-86C256.0111,-86 264.5745,-86 272.6824,-86"/>
<polygon fill="#191970" stroke="#191970" points="247.3021,-82.5001 237.3021,-86 247.3021,-89.5001 247.3021,-82.5001"/>
</g>
<!-- Node562&#45;&gt;Node551 -->
<g id="edge10" class="edge">
<title>Node562&#45;&gt;Node551</title>
<path fill="none" stroke="#191970" d="M228.8669,-60.3906C247.0807,-65.5945 267.9393,-71.5541 284.9492,-76.4141"/>
<polygon fill="#191970" stroke="#191970" points="229.6383,-56.971 219.0615,-57.589 227.7152,-63.7016 229.6383,-56.971"/>
</g>
<!-- Node563&#45;&gt;Node551 -->
<g id="edge12" class="edge">
<title>Node563&#45;&gt;Node551</title>
<path fill="none" stroke="#191970" d="M225.0407,-23.3946C229.1444,-25.1367 233.1998,-27.0125 237,-29 263.6225,-42.9235 291.706,-64.2523 306.9655,-76.4876"/>
<polygon fill="#191970" stroke="#191970" points="226.0611,-20.0336 215.4758,-19.5831 223.4698,-26.5363 226.0611,-20.0336"/>
</g>
</g>
</svg>
