<?xml version="1.0" encoding="UTF-8" standalone="no"?>
<!DOCTYPE svg PUBLIC "-//W3C//DTD SVG 1.1//EN"
 "http://www.w3.org/Graphics/SVG/1.1/DTD/svg11.dtd">
<!-- Generated by graphviz version 2.40.1 (20161225.0304)
 -->
<!-- Title: unlang_section Pages: 1 -->
<svg width="477pt" height="28pt"
 viewBox="0.00 0.00 477.00 28.00" xmlns="http://www.w3.org/2000/svg" xmlns:xlink="http://www.w3.org/1999/xlink">
<g id="graph0" class="graph" transform="scale(1 1) rotate(0) translate(4 24)">
<title>unlang_section</title>
<!-- Node1347 -->
<g id="node1" class="node">
<title>Node1347</title>
<polygon fill="#bfbfbf" stroke="#000000" points="0,-.5 0,-19.5 82,-19.5 82,-.5 0,-.5"/>
<text text-anchor="middle" x="41" y="-7.5" font-family="Helvetica,sans-Serif" font-size="10.00" fill="#000000">unlang_section</text>
</g>
<!-- Node1348 -->
<g id="node2" class="node">
<title>Node1348</title>
<g id="a_node2"><a xlink:href="rlm__eap__tls_8c.html#a25c6b3cce506245931b5ac4a8b77b9d2" target="_top" xlink:title="eap_tls_virtual_server">
<polygon fill="none" stroke="#000000" points="118,-.5 118,-19.5 230,-19.5 230,-.5 118,-.5"/>
<text text-anchor="middle" x="174" y="-7.5" font-family="Helvetica,sans-Serif" font-size="10.00" fill="#000000">eap_tls_virtual_server</text>
</a>
</g>
</g>
<!-- Node1347&#45;&gt;Node1348 -->
<g id="edge1" class="edge">
<title>Node1347&#45;&gt;Node1348</title>
<path fill="none" stroke="#191970" d="M92.5199,-10C100.7133,-10 109.2266,-10 117.5267,-10"/>
<polygon fill="#191970" stroke="#191970" points="92.353,-6.5001 82.353,-10 92.3529,-13.5001 92.353,-6.5001"/>
</g>
<!-- Node1349 -->
<g id="node3" class="node">
<title>Node1349</title>
<g id="a_node3"><a xlink:href="rlm__eap__tls_8c.html#a1ee517a20d1254bcde78063a1e36840c" target="_top" xlink:title="mod_process">
<polygon fill="none" stroke="#000000" points="266,-.5 266,-19.5 341,-19.5 341,-.5 266,-.5"/>
<text text-anchor="middle" x="303.5" y="-7.5" font-family="Helvetica,sans-Serif" font-size="10.00" fill="#000000">mod_process</text>
</a>
</g>
</g>
<!-- Node1348&#45;&gt;Node1349 -->
<g id="edge2" class="edge">
<title>Node1348&#45;&gt;Node1349</title>
<path fill="none" stroke="#191970" d="M240.2575,-10C248.9729,-10 257.6519,-10 265.6624,-10"/>
<polygon fill="#191970" stroke="#191970" points="240.0474,-6.5001 230.0474,-10 240.0474,-13.5001 240.0474,-6.5001"/>
</g>
<!-- Node1350 -->
<g id="node4" class="node">
<title>Node1350</title>
<g id="a_node4"><a xlink:href="rlm__eap__tls_8c.html#afde9901631f6849be380901f6970a49b" target="_top" xlink:title="mod_session_init">
<polygon fill="none" stroke="#000000" points="377,-.5 377,-19.5 469,-19.5 469,-.5 377,-.5"/>
<text text-anchor="middle" x="423" y="-7.5" font-family="Helvetica,sans-Serif" font-size="10.00" fill="#000000">mod_session_init</text>
</a>
</g>
</g>
<!-- Node1349&#45;&gt;Node1350 -->
<g id="edge3" class="edge">
<title>Node1349&#45;&gt;Node1350</title>
<path fill="none" stroke="#191970" d="M351.5645,-10C359.8304,-10 368.4068,-10 376.6271,-10"/>
<polygon fill="#191970" stroke="#191970" points="351.3106,-6.5001 341.3105,-10 351.3105,-13.5001 351.3106,-6.5001"/>
</g>
</g>
</svg>
