<?xml version="1.0" encoding="UTF-8" standalone="no"?>
<!DOCTYPE svg PUBLIC "-//W3C//DTD SVG 1.1//EN"
 "http://www.w3.org/Graphics/SVG/1.1/DTD/svg11.dtd">
<!-- Generated by graphviz version 2.40.1 (20161225.0304)
 -->
<!-- Title: sim_array_members Pages: 1 -->
<svg width="703pt" height="28pt"
 viewBox="0.00 0.00 703.00 28.00" xmlns="http://www.w3.org/2000/svg" xmlns:xlink="http://www.w3.org/1999/xlink">
<g id="graph0" class="graph" transform="scale(1 1) rotate(0) translate(4 24)">
<title>sim_array_members</title>
<!-- Node1579 -->
<g id="node1" class="node">
<title>Node1579</title>
<polygon fill="#bfbfbf" stroke="#000000" points="0,-.5 0,-19.5 105,-19.5 105,-.5 0,-.5"/>
<text text-anchor="middle" x="52.5" y="-7.5" font-family="Helvetica,sans-Serif" font-size="10.00" fill="#000000">sim_array_members</text>
</g>
<!-- Node1580 -->
<g id="node2" class="node">
<title>Node1580</title>
<g id="a_node2"><a xlink:href="lib_2eap__aka__sim_2decode_8c.html#a074e5e8973493a4b9f4ad0b67087457d" target="_top" xlink:title="sim_decode_array">
<polygon fill="none" stroke="#000000" points="141,-.5 141,-19.5 237,-19.5 237,-.5 141,-.5"/>
<text text-anchor="middle" x="189" y="-7.5" font-family="Helvetica,sans-Serif" font-size="10.00" fill="#000000">sim_decode_array</text>
</a>
</g>
</g>
<!-- Node1579&#45;&gt;Node1580 -->
<g id="edge1" class="edge">
<title>Node1579&#45;&gt;Node1580</title>
<path fill="none" stroke="#191970" d="M115.5485,-10C124.0445,-10 132.6487,-10 140.8302,-10"/>
<polygon fill="#191970" stroke="#191970" points="115.2745,-6.5001 105.2745,-10 115.2744,-13.5001 115.2745,-6.5001"/>
</g>
<!-- Node1581 -->
<g id="node3" class="node">
<title>Node1581</title>
<g id="a_node3"><a xlink:href="lib_2eap__aka__sim_2decode_8c.html#a457e491f6b16274c1780154a77951441" target="_top" xlink:title="Decode SIM/AKA/AKA&#39; attributes. ">
<polygon fill="none" stroke="#000000" points="273,-.5 273,-19.5 400,-19.5 400,-.5 273,-.5"/>
<text text-anchor="middle" x="336.5" y="-7.5" font-family="Helvetica,sans-Serif" font-size="10.00" fill="#000000">sim_decode_pair_internal</text>
</a>
</g>
</g>
<!-- Node1580&#45;&gt;Node1581 -->
<g id="edge2" class="edge">
<title>Node1580&#45;&gt;Node1581</title>
<path fill="none" stroke="#191970" d="M247.3318,-10C255.6963,-10 264.3378,-10 272.7995,-10"/>
<polygon fill="#191970" stroke="#191970" points="247.2971,-6.5001 237.297,-10 247.297,-13.5001 247.2971,-6.5001"/>
</g>
<!-- Node1582 -->
<g id="node4" class="node">
<title>Node1582</title>
<g id="a_node4"><a xlink:href="lib_2eap__aka__sim_2decode_8c.html#a82cf02b8c1338df56f590620a04ed21a" target="_top" xlink:title="Decode SIM/AKA/AKA&#39; attributes. ">
<polygon fill="none" stroke="#000000" points="436,-.5 436,-19.5 558,-19.5 558,-.5 436,-.5"/>
<text text-anchor="middle" x="497" y="-7.5" font-family="Helvetica,sans-Serif" font-size="10.00" fill="#000000">fr_aka_sim_decode_pair</text>
</a>
</g>
</g>
<!-- Node1581&#45;&gt;Node1582 -->
<g id="edge3" class="edge">
<title>Node1581&#45;&gt;Node1582</title>
<path fill="none" stroke="#191970" d="M410.6495,-10C419.1143,-10 427.6701,-10 435.9373,-10"/>
<polygon fill="#191970" stroke="#191970" points="410.3951,-6.5001 400.395,-10 410.395,-13.5001 410.3951,-6.5001"/>
</g>
<!-- Node1583 -->
<g id="node5" class="node">
<title>Node1583</title>
<g id="a_node5"><a xlink:href="lib_2eap__aka__sim_2decode_8c.html#ad0491e23dc1ea28972ca36179bc0bdbc" target="_top" xlink:title="Decode SIM/AKA/AKA&#39; specific packet data. ">
<polygon fill="none" stroke="#ff0000" points="594,-.5 594,-19.5 695,-19.5 695,-.5 594,-.5"/>
<text text-anchor="middle" x="644.5" y="-7.5" font-family="Helvetica,sans-Serif" font-size="10.00" fill="#000000">fr_aka_sim_decode</text>
</a>
</g>
</g>
<!-- Node1582&#45;&gt;Node1583 -->
<g id="edge4" class="edge">
<title>Node1582&#45;&gt;Node1583</title>
<path fill="none" stroke="#191970" d="M568.3664,-10C577.0068,-10 585.6909,-10 593.9436,-10"/>
<polygon fill="#191970" stroke="#191970" points="568.2719,-6.5001 558.2719,-10 568.2718,-13.5001 568.2719,-6.5001"/>
</g>
</g>
</svg>
