<?xml version="1.0" encoding="UTF-8" standalone="no"?>
<!DOCTYPE svg PUBLIC "-//W3C//DTD SVG 1.1//EN"
 "http://www.w3.org/Graphics/SVG/1.1/DTD/svg11.dtd">
<!-- Generated by graphviz version 2.40.1 (20161225.0304)
 -->
<!-- Title: _redis_io_connection_shutdown Pages: 1 -->
<svg width="838pt" height="83pt"
 viewBox="0.00 0.00 838.00 83.00" xmlns="http://www.w3.org/2000/svg" xmlns:xlink="http://www.w3.org/1999/xlink">
<g id="graph0" class="graph" transform="scale(1 1) rotate(0) translate(4 79)">
<title>_redis_io_connection_shutdown</title>
<!-- Node751 -->
<g id="node1" class="node">
<title>Node751</title>
<polygon fill="#bfbfbf" stroke="#000000" points="0,-22.5 0,-52.5 108,-52.5 108,-22.5 0,-22.5"/>
<text text-anchor="start" x="8" y="-40.5" font-family="Helvetica,sans-Serif" font-size="10.00" fill="#000000">_redis_io_connection</text>
<text text-anchor="middle" x="54" y="-29.5" font-family="Helvetica,sans-Serif" font-size="10.00" fill="#000000">_shutdown</text>
</g>
<!-- Node752 -->
<g id="node2" class="node">
<title>Node752</title>
<g id="a_node2"><a xlink:href="lib_2redis_2io_8h.html#ae4f5cab619d8b2e0623d904dfcd82789" target="_top" xlink:title="Allocate an async redis I/O connection. ">
<polygon fill="none" stroke="#000000" points="144,-22.5 144,-52.5 245,-52.5 245,-22.5 144,-22.5"/>
<text text-anchor="start" x="152" y="-40.5" font-family="Helvetica,sans-Serif" font-size="10.00" fill="#000000">fr_redis_connection</text>
<text text-anchor="middle" x="194.5" y="-29.5" font-family="Helvetica,sans-Serif" font-size="10.00" fill="#000000">_alloc</text>
</a>
</g>
</g>
<!-- Node751&#45;&gt;Node752 -->
<g id="edge1" class="edge">
<title>Node751&#45;&gt;Node752</title>
<path fill="none" stroke="#191970" d="M118.4858,-37.5C126.891,-37.5 135.407,-37.5 143.5481,-37.5"/>
<polygon fill="#191970" stroke="#191970" points="118.321,-34.0001 108.321,-37.5 118.3209,-41.0001 118.321,-34.0001"/>
</g>
<!-- Node753 -->
<g id="node3" class="node">
<title>Node753</title>
<g id="a_node3"><a xlink:href="lib_2redis_2io_8h.html#ad0afd0674f4553257e9282acab73ec24" target="_top" xlink:title="Update the response sequence number and check if we should ignore the response. ">
<polygon fill="none" stroke="#000000" points="281,-44.5 281,-74.5 382,-74.5 382,-44.5 281,-44.5"/>
<text text-anchor="start" x="289" y="-62.5" font-family="Helvetica,sans-Serif" font-size="10.00" fill="#000000">fr_redis_connection</text>
<text text-anchor="middle" x="331.5" y="-51.5" font-family="Helvetica,sans-Serif" font-size="10.00" fill="#000000">_process_response</text>
</a>
</g>
</g>
<!-- Node752&#45;&gt;Node753 -->
<g id="edge2" class="edge">
<title>Node752&#45;&gt;Node753</title>
<path fill="none" stroke="#191970" d="M255.0418,-47.222C263.5829,-48.5936 272.2913,-49.992 280.6262,-51.3305"/>
<polygon fill="#191970" stroke="#191970" points="255.553,-43.7594 245.1245,-45.6295 254.443,-50.6708 255.553,-43.7594"/>
</g>
<!-- Node758 -->
<g id="node7" class="node">
<title>Node758</title>
<g id="a_node7"><a xlink:href="pipeline_8c.html#af651a52b2d34eb9bfa12949a4f1c5c93" target="_top" xlink:title="_redis_pipeline_connection\l_alloc">
<polygon fill="none" stroke="#000000" points="418,-.5 418,-30.5 552,-30.5 552,-.5 418,-.5"/>
<text text-anchor="start" x="426" y="-18.5" font-family="Helvetica,sans-Serif" font-size="10.00" fill="#000000">_redis_pipeline_connection</text>
<text text-anchor="middle" x="485" y="-7.5" font-family="Helvetica,sans-Serif" font-size="10.00" fill="#000000">_alloc</text>
</a>
</g>
</g>
<!-- Node752&#45;&gt;Node758 -->
<g id="edge6" class="edge">
<title>Node752&#45;&gt;Node758</title>
<path fill="none" stroke="#191970" d="M255.2457,-32.8996C302.7508,-29.302 368.7465,-24.304 417.8232,-20.5874"/>
<polygon fill="#191970" stroke="#191970" points="254.8083,-29.4226 245.1012,-33.6679 255.337,-36.4027 254.8083,-29.4226"/>
</g>
<!-- Node754 -->
<g id="node4" class="node">
<title>Node754</title>
<g id="a_node4"><a xlink:href="pipeline_8c.html#a73fcd0988bffc12a966e1dbdccb40ae2" target="_top" xlink:title="Callback for for receiving Redis replies. ">
<polygon fill="none" stroke="#000000" points="427,-50 427,-69 543,-69 543,-50 427,-50"/>
<text text-anchor="middle" x="485" y="-57" font-family="Helvetica,sans-Serif" font-size="10.00" fill="#000000">_redis_pipeline_demux</text>
</a>
</g>
</g>
<!-- Node753&#45;&gt;Node754 -->
<g id="edge3" class="edge">
<title>Node753&#45;&gt;Node754</title>
<path fill="none" stroke="#191970" d="M392.453,-59.5C403.8122,-59.5 415.654,-59.5 426.9238,-59.5"/>
<polygon fill="#191970" stroke="#191970" points="392.1871,-56.0001 382.1871,-59.5 392.187,-63.0001 392.1871,-56.0001"/>
</g>
<!-- Node755 -->
<g id="node5" class="node">
<title>Node755</title>
<g id="a_node5"><a xlink:href="pipeline_8c.html#ad4f604d6060fb90d10347fc70af5ec7b" target="_top" xlink:title="Enqueue one or more command sets onto a redis handle. ">
<polygon fill="none" stroke="#000000" points="588,-48 588,-67 693,-67 693,-48 588,-48"/>
<text text-anchor="middle" x="640.5" y="-55" font-family="Helvetica,sans-Serif" font-size="10.00" fill="#000000">_redis_pipeline_mux</text>
</a>
</g>
</g>
<!-- Node754&#45;&gt;Node755 -->
<g id="edge4" class="edge">
<title>Node754&#45;&gt;Node755</title>
<path fill="none" stroke="#191970" d="M553.4275,-58.6199C565.0128,-58.4709 576.8784,-58.3183 587.9751,-58.1756"/>
<polygon fill="#191970" stroke="#191970" points="553.299,-55.1212 543.3449,-58.7496 553.3891,-62.1206 553.299,-55.1212"/>
</g>
<!-- Node756 -->
<g id="node6" class="node">
<title>Node756</title>
<g id="a_node6"><a xlink:href="pipeline_8h.html#a1783c8caef2ebedfab3e0886489b322c" target="_top" xlink:title="Allocate a new trunk. ">
<polygon fill="none" stroke="#ff0000" points="729,-28 729,-47 830,-47 830,-28 729,-28"/>
<text text-anchor="middle" x="779.5" y="-35" font-family="Helvetica,sans-Serif" font-size="10.00" fill="#000000">fr_redis_trunk_alloc</text>
</a>
</g>
</g>
<!-- Node755&#45;&gt;Node756 -->
<g id="edge5" class="edge">
<title>Node755&#45;&gt;Node756</title>
<path fill="none" stroke="#191970" d="M703.0394,-48.5015C711.6323,-47.2651 720.3684,-46.0081 728.7155,-44.8071"/>
<polygon fill="#191970" stroke="#191970" points="702.4495,-45.0503 693.0499,-49.9389 703.4465,-51.9789 702.4495,-45.0503"/>
</g>
<!-- Node758&#45;&gt;Node756 -->
<g id="edge7" class="edge">
<title>Node758&#45;&gt;Node756</title>
<path fill="none" stroke="#191970" d="M562.4811,-21.2881C614.9933,-25.2109 682.9025,-30.2839 728.6562,-33.7018"/>
<polygon fill="#191970" stroke="#191970" points="562.4281,-17.7744 552.1951,-20.5197 561.9066,-24.755 562.4281,-17.7744"/>
</g>
</g>
</svg>
