<?xml version="1.0" encoding="UTF-8" standalone="no"?>
<!DOCTYPE svg PUBLIC "-//W3C//DTD SVG 1.1//EN"
 "http://www.w3.org/Graphics/SVG/1.1/DTD/svg11.dtd">
<!-- Generated by graphviz version 2.40.1 (20161225.0304)
 -->
<!-- Title: _fr_curl_io_event_modify Pages: 1 -->
<svg width="705pt" height="211pt"
 viewBox="0.00 0.00 705.00 210.50" xmlns="http://www.w3.org/2000/svg" xmlns:xlink="http://www.w3.org/1999/xlink">
<g id="graph0" class="graph" transform="scale(1 1) rotate(0) translate(4 206.5)">
<title>_fr_curl_io_event_modify</title>
<!-- Node860 -->
<g id="node1" class="node">
<title>Node860</title>
<polygon fill="#bfbfbf" stroke="#000000" points="0,-103.5 0,-122.5 125,-122.5 125,-103.5 0,-103.5"/>
<text text-anchor="middle" x="62.5" y="-110.5" font-family="Helvetica,sans-Serif" font-size="10.00" fill="#000000">_fr_curl_io_event_modify</text>
</g>
<!-- Node861 -->
<g id="node2" class="node">
<title>Node861</title>
<g id="a_node2"><a xlink:href="lib_2curl_2io_8c.html#aa7e29493f63b416e1b6f550106741ad4" target="_top" xlink:title="File descriptor became readable. ">
<polygon fill="none" stroke="#000000" points="161,-172 161,-202 259,-202 259,-172 161,-172"/>
<text text-anchor="start" x="169" y="-190" font-family="Helvetica,sans-Serif" font-size="10.00" fill="#000000">_fr_curl_io_service</text>
<text text-anchor="middle" x="210" y="-179" font-family="Helvetica,sans-Serif" font-size="10.00" fill="#000000">_readable</text>
</a>
</g>
</g>
<!-- Node860&#45;&gt;Node861 -->
<g id="edge1" class="edge">
<title>Node860&#45;&gt;Node861</title>
<path fill="none" stroke="#191970" d="M81.3428,-122.6654C101.1379,-132.7957 133.1972,-149.1355 161,-163 163.9246,-164.4584 166.9508,-165.9596 169.9982,-167.4656"/>
<polygon fill="#191970" stroke="#191970" points="168.6058,-170.6813 179.1232,-171.9598 171.6987,-164.4016 168.6058,-170.6813"/>
</g>
<!-- Node1723 -->
<g id="node6" class="node">
<title>Node1723</title>
<g id="a_node6"><a xlink:href="lib_2curl_2io_8c.html#a881a61d3c584f8510054ff0823ff3ff9" target="_top" xlink:title="File descriptor experienced an error. ">
<polygon fill="none" stroke="#000000" points="161,-74 161,-104 259,-104 259,-74 161,-74"/>
<text text-anchor="start" x="169" y="-92" font-family="Helvetica,sans-Serif" font-size="10.00" fill="#000000">_fr_curl_io_service</text>
<text text-anchor="middle" x="210" y="-81" font-family="Helvetica,sans-Serif" font-size="10.00" fill="#000000">_errored</text>
</a>
</g>
</g>
<!-- Node860&#45;&gt;Node1723 -->
<g id="edge5" class="edge">
<title>Node860&#45;&gt;Node1723</title>
<path fill="none" stroke="#191970" d="M121.2197,-103.4456C130.9984,-101.8545 141.1451,-100.2035 150.9324,-98.611"/>
<polygon fill="#191970" stroke="#191970" points="151.663,-102.0382 160.9711,-96.9776 150.5388,-95.1291 151.663,-102.0382"/>
</g>
<!-- Node1724 -->
<g id="node8" class="node">
<title>Node1724</title>
<g id="a_node8"><a xlink:href="lib_2curl_2io_8c.html#a48037ea1d9b66c4d234541ed59b1cd7b" target="_top" xlink:title="File descriptor became writable. ">
<polygon fill="none" stroke="#000000" points="161,-123 161,-153 259,-153 259,-123 161,-123"/>
<text text-anchor="start" x="169" y="-141" font-family="Helvetica,sans-Serif" font-size="10.00" fill="#000000">_fr_curl_io_service</text>
<text text-anchor="middle" x="210" y="-130" font-family="Helvetica,sans-Serif" font-size="10.00" fill="#000000">_writable</text>
</a>
</g>
</g>
<!-- Node860&#45;&gt;Node1724 -->
<g id="edge8" class="edge">
<title>Node860&#45;&gt;Node1724</title>
<path fill="none" stroke="#191970" d="M118.6842,-122.5227C129.1725,-124.3004 140.164,-126.1634 150.7415,-127.9562"/>
<polygon fill="#191970" stroke="#191970" points="150.2817,-131.4281 160.726,-129.6485 151.4516,-124.5265 150.2817,-131.4281"/>
</g>
<!-- Node1725 -->
<g id="node9" class="node">
<title>Node1725</title>
<g id="a_node9"><a xlink:href="lib_2util_2event_8c.html#ad0f349a648681867b3758de01da84709" target="_top" xlink:title="Remove a file descriptor from the event loop. ">
<polygon fill="none" stroke="#000000" points="161.5,-35.5 161.5,-54.5 258.5,-54.5 258.5,-35.5 161.5,-35.5"/>
<text text-anchor="middle" x="210" y="-42.5" font-family="Helvetica,sans-Serif" font-size="10.00" fill="#000000">fr_event_fd_delete</text>
</a>
</g>
</g>
<!-- Node860&#45;&gt;Node1725 -->
<g id="edge10" class="edge">
<title>Node860&#45;&gt;Node1725</title>
<path fill="none" stroke="#191970" d="M80.418,-103.4651C99.9797,-93.2027 132.3448,-76.6512 161,-64 165.4108,-62.0527 170.0884,-60.0997 174.7349,-58.2264"/>
<polygon fill="#191970" stroke="#191970" points="176.1142,-61.4448 184.1331,-54.5204 173.5463,-54.9328 176.1142,-61.4448"/>
</g>
<!-- Node862 -->
<g id="node3" class="node">
<title>Node862</title>
<g id="a_node3"><a xlink:href="lib_2curl_2io_8c.html#ae6f9a5e4c77d88cf8ff9be010f3951ab" target="_top" xlink:title="Service an IO event on a file descriptor. ">
<polygon fill="none" stroke="#000000" points="295,-128.5 295,-147.5 393,-147.5 393,-128.5 295,-128.5"/>
<text text-anchor="middle" x="344" y="-135.5" font-family="Helvetica,sans-Serif" font-size="10.00" fill="#000000">_fr_curl_io_service</text>
</a>
</g>
</g>
<!-- Node861&#45;&gt;Node862 -->
<g id="edge2" class="edge">
<title>Node861&#45;&gt;Node862</title>
<path fill="none" stroke="#191970" d="M251.2978,-171.8986C269.4256,-165.2697 290.5121,-157.559 307.9901,-151.1678"/>
<polygon fill="#191970" stroke="#191970" points="309.6245,-154.2969 317.8142,-147.5754 307.2204,-147.7226 309.6245,-154.2969"/>
</g>
<!-- Node863 -->
<g id="node4" class="node">
<title>Node863</title>
<g id="a_node4"><a xlink:href="lib_2curl_2io_8c.html#a8c1b198586098a09c97926b73b49e177" target="_top" xlink:title="De&#45;queue curl requests and wake up the requests that initiated them. ">
<polygon fill="none" stroke="#000000" points="429,-128.5 429,-147.5 525,-147.5 525,-128.5 429,-128.5"/>
<text text-anchor="middle" x="477" y="-135.5" font-family="Helvetica,sans-Serif" font-size="10.00" fill="#000000">_fr_curl_io_demux</text>
</a>
</g>
</g>
<!-- Node862&#45;&gt;Node863 -->
<g id="edge3" class="edge">
<title>Node862&#45;&gt;Node863</title>
<path fill="none" stroke="#191970" d="M393.1464,-138C401.4584,-138 410.1593,-138 418.6784,-138"/>
<polygon fill="#191970" stroke="#191970" points="418.9414,-141.5001 428.9414,-138 418.9413,-134.5001 418.9414,-141.5001"/>
</g>
<!-- Node864 -->
<g id="node5" class="node">
<title>Node864</title>
<g id="a_node5"><a xlink:href="interpret_8c.html#a1d05eab74116c44e4edabf4b5bd09890" target="_top" xlink:title="Mark a request as resumable. ">
<polygon fill="none" stroke="#ff0000" points="561,-128.5 561,-147.5 697,-147.5 697,-128.5 561,-128.5"/>
<text text-anchor="middle" x="629" y="-135.5" font-family="Helvetica,sans-Serif" font-size="10.00" fill="#000000">unlang_interpret_resumable</text>
</a>
</g>
</g>
<!-- Node863&#45;&gt;Node864 -->
<g id="edge4" class="edge">
<title>Node863&#45;&gt;Node864</title>
<path fill="none" stroke="#191970" d="M525.0938,-138C533.283,-138 541.9742,-138 550.7059,-138"/>
<polygon fill="#191970" stroke="#191970" points="550.9471,-141.5001 560.947,-138 550.947,-134.5001 550.9471,-141.5001"/>
</g>
<!-- Node1723&#45;&gt;Node862 -->
<g id="edge7" class="edge">
<title>Node1723&#45;&gt;Node862</title>
<path fill="none" stroke="#191970" d="M251.2978,-104.1014C269.4256,-110.7303 290.5121,-118.441 307.9901,-124.8322"/>
<polygon fill="#191970" stroke="#191970" points="307.2204,-128.2774 317.8142,-128.4246 309.6245,-121.7031 307.2204,-128.2774"/>
</g>
<!-- Node982 -->
<g id="node7" class="node">
<title>Node982</title>
<g id="a_node7"><a xlink:href="syserror_8c.html#a18747f9d648d0aeecc4a8b27ac0435aa" target="_top" xlink:title="Guaranteed to be thread&#45;safe version of strerror. ">
<polygon fill="none" stroke="#ff0000" points="312.5,-79.5 312.5,-98.5 375.5,-98.5 375.5,-79.5 312.5,-79.5"/>
<text text-anchor="middle" x="344" y="-86.5" font-family="Helvetica,sans-Serif" font-size="10.00" fill="#000000">fr_syserror</text>
</a>
</g>
</g>
<!-- Node1723&#45;&gt;Node982 -->
<g id="edge6" class="edge">
<title>Node1723&#45;&gt;Node982</title>
<path fill="none" stroke="#191970" d="M259.1358,-89C273.302,-89 288.6177,-89 302.2876,-89"/>
<polygon fill="#191970" stroke="#191970" points="302.3738,-92.5001 312.3738,-89 302.3738,-85.5001 302.3738,-92.5001"/>
</g>
<!-- Node1724&#45;&gt;Node862 -->
<g id="edge9" class="edge">
<title>Node1724&#45;&gt;Node862</title>
<path fill="none" stroke="#191970" d="M259.1358,-138C267.4198,-138 276.097,-138 284.6082,-138"/>
<polygon fill="#191970" stroke="#191970" points="284.8702,-141.5001 294.8702,-138 284.8701,-134.5001 284.8702,-141.5001"/>
</g>
<!-- Node1204 -->
<g id="node10" class="node">
<title>Node1204</title>
<g id="a_node10"><a xlink:href="rbtree_8c.html#ac6772a18f3e04b23f71ad7994c7587ed" target="_top" xlink:title="Find an element in the tree, returning the data, not the node. ">
<polygon fill="none" stroke="#ff0000" points="303.5,-38.5 303.5,-57.5 384.5,-57.5 384.5,-38.5 303.5,-38.5"/>
<text text-anchor="middle" x="344" y="-45.5" font-family="Helvetica,sans-Serif" font-size="10.00" fill="#000000">rbtree_finddata</text>
</a>
</g>
</g>
<!-- Node1725&#45;&gt;Node1204 -->
<g id="edge11" class="edge">
<title>Node1725&#45;&gt;Node1204</title>
<path fill="none" stroke="#191970" d="M258.7561,-46.0916C269.9856,-46.343 281.9552,-46.6109 293.2664,-46.8642"/>
<polygon fill="#191970" stroke="#191970" points="293.3532,-50.3669 303.4291,-47.0917 293.51,-43.3687 293.3532,-50.3669"/>
</g>
<!-- Node898 -->
<g id="node11" class="node">
<title>Node898</title>
<g id="a_node11"><a xlink:href="strerror_8c.html#ae701765650b8aea79a3037bc4921d7f8" target="_top" xlink:title="Log to thread local error buffer. ">
<polygon fill="none" stroke="#ff0000" points="301,-.5 301,-19.5 387,-19.5 387,-.5 301,-.5"/>
<text text-anchor="middle" x="344" y="-7.5" font-family="Helvetica,sans-Serif" font-size="10.00" fill="#000000">fr_strerror_printf</text>
</a>
</g>
</g>
<!-- Node1725&#45;&gt;Node898 -->
<g id="edge12" class="edge">
<title>Node1725&#45;&gt;Node898</title>
<path fill="none" stroke="#191970" d="M246.6161,-35.4361C262.2739,-31.3464 280.7406,-26.523 297.3603,-22.182"/>
<polygon fill="#191970" stroke="#191970" points="298.6373,-25.466 307.4282,-19.5523 296.8682,-18.6932 298.6373,-25.466"/>
</g>
</g>
</svg>
