<?xml version="1.0" encoding="UTF-8" standalone="no"?>
<!DOCTYPE svg PUBLIC "-//W3C//DTD SVG 1.1//EN"
 "http://www.w3.org/Graphics/SVG/1.1/DTD/svg11.dtd">
<!-- Generated by graphviz version 2.40.1 (20161225.0304)
 -->
<!-- Title: udp_link_write Pages: 1 -->
<svg width="301pt" height="28pt"
 viewBox="0.00 0.00 301.00 28.00" xmlns="http://www.w3.org/2000/svg" xmlns:xlink="http://www.w3.org/1999/xlink">
<g id="graph0" class="graph" transform="scale(1 1) rotate(0) translate(4 24)">
<title>udp_link_write</title>
<!-- Node385 -->
<g id="node1" class="node">
<title>Node385</title>
<polygon fill="#bfbfbf" stroke="#000000" points="0,-.5 0,-19.5 79,-19.5 79,-.5 0,-.5"/>
<text text-anchor="middle" x="39.5" y="-7.5" font-family="Helvetica,sans-Serif" font-size="10.00" fill="#000000">udp_link_write</text>
</g>
<!-- Node386 -->
<g id="node2" class="node">
<title>Node386</title>
<g id="a_node2"><a xlink:href="link__udp_8c.html#ab6821b6c605f62adbae83935f833411c" target="_top" xlink:title="mtp_udp_link_init">
<polygon fill="none" stroke="#000000" points="115,-.5 115,-19.5 207,-19.5 207,-.5 115,-.5"/>
<text text-anchor="middle" x="161" y="-7.5" font-family="Helvetica,sans-Serif" font-size="10.00" fill="#000000">mtp_udp_link_init</text>
</a>
</g>
</g>
<!-- Node385&#45;&gt;Node386 -->
<g id="edge1" class="edge">
<title>Node385&#45;&gt;Node386</title>
<path fill="none" stroke="#191970" d="M89.36,-10C97.7751,-10 106.4784,-10 114.7953,-10"/>
<polygon fill="#191970" stroke="#191970" points="89.2837,-6.5001 79.2836,-10 89.2836,-13.5001 89.2837,-6.5001"/>
</g>
<!-- Node387 -->
<g id="node3" class="node">
<title>Node387</title>
<g id="a_node3"><a xlink:href="links_8c.html#aee1aa49938f565cf48c24d7e59344a5c" target="_top" xlink:title="link_init">
<polygon fill="none" stroke="#000000" points="243,-.5 243,-19.5 293,-19.5 293,-.5 243,-.5"/>
<text text-anchor="middle" x="268" y="-7.5" font-family="Helvetica,sans-Serif" font-size="10.00" fill="#000000">link_init</text>
</a>
</g>
</g>
<!-- Node386&#45;&gt;Node387 -->
<g id="edge2" class="edge">
<title>Node386&#45;&gt;Node387</title>
<path fill="none" stroke="#191970" d="M217.3779,-10C226.3024,-10 235.1198,-10 242.833,-10"/>
<polygon fill="#191970" stroke="#191970" points="217.3095,-6.5001 207.3094,-10 217.3094,-13.5001 217.3095,-6.5001"/>
</g>
</g>
</svg>
