<?xml version="1.0" encoding="UTF-8" standalone="no"?>
<!DOCTYPE svg PUBLIC "-//W3C//DTD SVG 1.1//EN"
 "http://www.w3.org/Graphics/SVG/1.1/DTD/svg11.dtd">
<!-- Generated by graphviz version 2.40.1 (20161225.0304)
 -->
<!-- Title: packet_entry_cmp Pages: 1 -->
<svg width="336pt" height="28pt"
 viewBox="0.00 0.00 336.00 28.00" xmlns="http://www.w3.org/2000/svg" xmlns:xlink="http://www.w3.org/1999/xlink">
<g id="graph0" class="graph" transform="scale(1 1) rotate(0) translate(4 24)">
<title>packet_entry_cmp</title>
<!-- Node22779 -->
<g id="node1" class="node">
<title>Node22779</title>
<polygon fill="#bfbfbf" stroke="#000000" points="0,-.5 0,-19.5 97,-19.5 97,-.5 0,-.5"/>
<text text-anchor="middle" x="48.5" y="-7.5" font-family="Helvetica,sans-Serif" font-size="10.00" fill="#000000">packet_entry_cmp</text>
</g>
<!-- Node22780 -->
<g id="node2" class="node">
<title>Node22780</title>
<g id="a_node2"><a xlink:href="list_8c.html#aec33ac72beb8fc633b3dc111304c8091" target="_top" xlink:title="fr_packet_cmp">
<polygon fill="none" stroke="#000000" points="133,-.5 133,-19.5 214,-19.5 214,-.5 133,-.5"/>
<text text-anchor="middle" x="173.5" y="-7.5" font-family="Helvetica,sans-Serif" font-size="10.00" fill="#000000">fr_packet_cmp</text>
</a>
</g>
</g>
<!-- Node22779&#45;&gt;Node22780 -->
<g id="edge1" class="edge">
<title>Node22779&#45;&gt;Node22780</title>
<path fill="none" stroke="#191970" d="M97.1862,-10C105.5686,-10 114.3001,-10 122.7356,-10"/>
<polygon fill="#191970" stroke="#191970" points="122.8351,-13.5001 132.8351,-10 122.8351,-6.5001 122.8351,-13.5001"/>
</g>
<!-- Node22781 -->
<g id="node3" class="node">
<title>Node22781</title>
<g id="a_node3"><a xlink:href="inet_8c.html#a65813be16518f6da0cc923bd67bc8c75" target="_top" xlink:title="Compare two ip addresses. ">
<polygon fill="none" stroke="#000000" points="250,-.5 250,-19.5 328,-19.5 328,-.5 250,-.5"/>
<text text-anchor="middle" x="289" y="-7.5" font-family="Helvetica,sans-Serif" font-size="10.00" fill="#000000">fr_ipaddr_cmp</text>
</a>
</g>
</g>
<!-- Node22780&#45;&gt;Node22781 -->
<g id="edge2" class="edge">
<title>Node22780&#45;&gt;Node22781</title>
<path fill="none" stroke="#191970" d="M214.221,-10C222.4399,-10 231.1642,-10 239.6419,-10"/>
<polygon fill="#191970" stroke="#191970" points="239.8101,-13.5001 249.8101,-10 239.8101,-6.5001 239.8101,-13.5001"/>
</g>
</g>
</svg>
