<?xml version="1.0" encoding="UTF-8" standalone="no"?>
<!DOCTYPE svg PUBLIC "-//W3C//DTD SVG 1.1//EN"
 "http://www.w3.org/Graphics/SVG/1.1/DTD/svg11.dtd">
<!-- Generated by graphviz version 2.40.1 (20161225.0304)
 -->
<!-- Title: fr_packet_log Pages: 1 -->
<!--zoomable 327 -->
<svg id="main" version="1.1" xmlns="http://www.w3.org/2000/svg" xmlns:xlink="http://www.w3.org/1999/xlink" xml:space="preserve" onload="init(evt)">
<style type="text/css"><![CDATA[
.edge:hover path { stroke: red; }
.edge:hover polygon { stroke: red; fill: red; }
]]></style>
<script type="text/javascript"><![CDATA[
var edges = document.getElementsByTagName('g');
if (edges && edges.length) {
  for (var i=0;i<edges.length;i++) {
    if (edges[i].id.substr(0,4)=='edge') {
      edges[i].setAttribute('class','edge');
    }
  }
}
]]></script>
        <defs>
                <circle id="rim" cx="0" cy="0" r="7"/>
                <circle id="rim2" cx="0" cy="0" r="3.5"/>
                <g id="zoomPlus">
                        <use xlink:href="#rim" fill="#404040">
                                <set attributeName="fill" to="#808080" begin="zoomplus.mouseover" end="zoomplus.mouseout"/>
                        </use>
                        <path d="M-4,0h8M0,-4v8" fill="none" stroke="white" stroke-width="1.5" pointer-events="none"/>
                </g>
                <g id="zoomMin">
                        <use xlink:href="#rim" fill="#404040">
                                <set attributeName="fill" to="#808080" begin="zoomminus.mouseover" end="zoomminus.mouseout"/>
                        </use>
                        <path d="M-4,0h8" fill="none" stroke="white" stroke-width="1.5" pointer-events="none"/>
                </g>
                <g id="dirArrow">
                        <path fill="none" stroke="white" stroke-width="1.5" d="M0,-3.0v7 M-2.5,-0.5L0,-3.0L2.5,-0.5"/>
                </g>
               <g id="resetDef">
                       <use xlink:href="#rim2" fill="#404040">
                               <set attributeName="fill" to="#808080" begin="reset.mouseover" end="reset.mouseout"/>
                       </use>
               </g>
        </defs>

<script type="text/javascript">
var viewWidth = 738;
var viewHeight = 327;
var sectionId = 'dynsection-32';
</script>
<script xlink:href="svgpan.js"/>
<svg id="graph" class="graph">
<g id="viewport">
<title>fr_packet_log</title>
<!-- Node19783 -->
<g id="node1" class="node">
<title>Node19783</title>
<polygon fill="#bfbfbf" stroke="#000000" points="0,-149.501 0,-168.501 75,-168.501 75,-149.501 0,-149.501"/>
<text text-anchor="middle" x="37.5" y="-156.501" font-family="Helvetica,sans-Serif" font-size="10.00" fill="#000000">fr_packet_log</text>
</g>
<!-- Node19784 -->
<g id="node2" class="node">
<title>Node19784</title>
<g id="a_node2"><a xlink:href="list_8c.html#a17d248e885a0f8632229457798eb115e" target="_top" xlink:title="fr_packet_header_log">
<polygon fill="none" stroke="#000000" points="111,-149.501 111,-168.501 221,-168.501 221,-149.501 111,-149.501"/>
<text text-anchor="middle" x="166" y="-156.501" font-family="Helvetica,sans-Serif" font-size="10.00" fill="#000000">fr_packet_header_log</text>
</a>
</g>
</g>
<!-- Node19783&#45;&gt;Node19784 -->
<g id="edge1" class="edge">
<title>Node19783&#45;&gt;Node19784</title>
<path fill="none" stroke="#191970" d="M75.013,-159.001C82.9996,-159.001 91.6571,-159.001 100.3489,-159.001"/>
<polygon fill="#191970" stroke="#191970" points="100.5298,-162.5011 110.5298,-159.001 100.5298,-155.5011 100.5298,-162.5011"/>
</g>
<!-- Node19785 -->
<g id="node3" class="node">
<title>Node19785</title>
<g id="a_node3"><a xlink:href="lib_2util_2log_8c.html#a62c7f0f8ad8a391b16dc27c44b69af7e" target="_top" xlink:title="Send a server log message to its destination. ">
<polygon fill="none" stroke="#000000" points="257,-111.501 257,-130.501 298,-130.501 298,-111.501 257,-111.501"/>
<text text-anchor="middle" x="277.5" y="-118.501" font-family="Helvetica,sans-Serif" font-size="10.00" fill="#000000">fr_log</text>
</a>
</g>
</g>
<!-- Node19784&#45;&gt;Node19785 -->
<g id="edge2" class="edge">
<title>Node19784&#45;&gt;Node19785</title>
<path fill="none" stroke="#191970" d="M194.1362,-149.412C210.2706,-143.9133 230.5332,-137.0076 247.0415,-131.3815"/>
<polygon fill="#191970" stroke="#191970" points="248.4282,-134.6067 256.7646,-128.0678 246.1701,-127.9809 248.4282,-134.6067"/>
</g>
<!-- Node19925 -->
<g id="node12" class="node">
<title>Node19925</title>
<g id="a_node12"><a xlink:href="inet_8c.html#ad168e1261866623b0bf522f14d39f545" target="_top" xlink:title="Print the address portion of a fr_ipaddr_t. ">
<polygon fill="none" stroke="#000000" points="334,-206.501 334,-225.501 402,-225.501 402,-206.501 334,-206.501"/>
<text text-anchor="middle" x="368" y="-213.501" font-family="Helvetica,sans-Serif" font-size="10.00" fill="#000000">fr_inet_ntop</text>
</a>
</g>
</g>
<!-- Node19784&#45;&gt;Node19925 -->
<g id="edge14" class="edge">
<title>Node19784&#45;&gt;Node19925</title>
<path fill="none" stroke="#191970" d="M199.8103,-168.5416C233.8939,-178.1592 286.6603,-193.0487 323.9887,-203.582"/>
<polygon fill="#191970" stroke="#191970" points="323.5047,-207.0821 334.0794,-206.4294 325.4058,-200.3451 323.5047,-207.0821"/>
</g>
<!-- Node19786 -->
<g id="node4" class="node">
<title>Node19786</title>
<g id="a_node4"><a xlink:href="acutest_8h.html#aecf9a9be8105efb1454cd8c1ef6cb1c5" target="_top" xlink:title="va_start">
<polygon fill="none" stroke="#000000" points="678,-216.501 678,-235.501 730,-235.501 730,-216.501 678,-216.501"/>
<text text-anchor="middle" x="704" y="-223.501" font-family="Helvetica,sans-Serif" font-size="10.00" fill="#000000">va_start</text>
</a>
</g>
</g>
<!-- Node19785&#45;&gt;Node19786 -->
<g id="edge3" class="edge">
<title>Node19785&#45;&gt;Node19786</title>
<path fill="none" stroke="#191970" d="M280.5479,-130.753C287.4354,-151.647 305.8268,-201.5475 334,-235.001 370.8774,-278.7902 383.5776,-293.235 438,-311.001 529.1925,-340.7705 638.3264,-273.7412 683.1878,-241.7645"/>
<polygon fill="#191970" stroke="#191970" points="685.4949,-244.4141 691.5177,-235.6977 681.3738,-238.7558 685.4949,-244.4141"/>
</g>
<!-- Node19787 -->
<g id="node5" class="node">
<title>Node19787</title>
<g id="a_node5"><a xlink:href="lib_2util_2log_8c.html#a787775b366183a1316a677709b14c7dc" target="_top" xlink:title="Send a server log message to its destination. ">
<polygon fill="none" stroke="#000000" points="345,-92.501 345,-111.501 391,-111.501 391,-92.501 345,-92.501"/>
<text text-anchor="middle" x="368" y="-99.501" font-family="Helvetica,sans-Serif" font-size="10.00" fill="#000000">fr_vlog</text>
</a>
</g>
</g>
<!-- Node19785&#45;&gt;Node19787 -->
<g id="edge4" class="edge">
<title>Node19785&#45;&gt;Node19787</title>
<path fill="none" stroke="#191970" d="M298.0359,-116.6896C308.955,-114.3972 322.6436,-111.5234 335.0107,-108.927"/>
<polygon fill="#191970" stroke="#191970" points="335.931,-112.3101 344.9985,-106.8301 334.4927,-105.4595 335.931,-112.3101"/>
</g>
<!-- Node19790 -->
<g id="node9" class="node">
<title>Node19790</title>
<g id="a_node9"><a xlink:href="acutest_8h.html#a36af1f79dd6adf0809c21e76535034d5" target="_top" xlink:title="va_end">
<polygon fill="none" stroke="#000000" points="680,-102.501 680,-121.501 728,-121.501 728,-102.501 680,-102.501"/>
<text text-anchor="middle" x="704" y="-109.501" font-family="Helvetica,sans-Serif" font-size="10.00" fill="#000000">va_end</text>
</a>
</g>
</g>
<!-- Node19785&#45;&gt;Node19790 -->
<g id="edge13" class="edge">
<title>Node19785&#45;&gt;Node19790</title>
<path fill="none" stroke="#191970" d="M286.4542,-111.4239C309.0956,-88.0005 371.5745,-28.1908 438,-7.001 533.3388,23.4121 643.4471,-59.1587 685.9643,-95.6508"/>
<polygon fill="#191970" stroke="#191970" points="683.7134,-98.332 693.5422,-102.2876 688.3255,-93.0661 683.7134,-98.332"/>
</g>
<!-- Node19788 -->
<g id="node6" class="node">
<title>Node19788</title>
<g id="a_node6"><a xlink:href="lib_2util_2log_8c.html#a22867302627d754d8432843e79582205" target="_top" xlink:title="talloc ctx to use when composing log messages ">
<polygon fill="none" stroke="#ff0000" points="438,-16.501 438,-35.501 520,-35.501 520,-16.501 438,-16.501"/>
<text text-anchor="middle" x="479" y="-23.501" font-family="Helvetica,sans-Serif" font-size="10.00" fill="#000000">fr_log_pool_init</text>
</a>
</g>
</g>
<!-- Node19787&#45;&gt;Node19788 -->
<g id="edge5" class="edge">
<title>Node19787&#45;&gt;Node19788</title>
<path fill="none" stroke="#191970" d="M378.281,-92.2327C391.4005,-80.1085 415.1423,-59.2894 438,-45.001 440.6423,-43.3494 443.4516,-41.7528 446.3125,-40.2341"/>
<polygon fill="#191970" stroke="#191970" points="448.0876,-43.2604 455.4852,-35.6758 444.9724,-36.9917 448.0876,-43.2604"/>
</g>
<!-- Node19796 -->
<g id="node7" class="node">
<title>Node19796</title>
<g id="a_node7"><a xlink:href="missing_8c.html#a193959a40169beb14eeca194a55d361d" target="_top" xlink:title="gmtime_r">
<polygon fill="none" stroke="#000000" points="450.5,-130.501 450.5,-149.501 507.5,-149.501 507.5,-130.501 450.5,-130.501"/>
<text text-anchor="middle" x="479" y="-137.501" font-family="Helvetica,sans-Serif" font-size="10.00" fill="#000000">gmtime_r</text>
</a>
</g>
</g>
<!-- Node19787&#45;&gt;Node19796 -->
<g id="edge6" class="edge">
<title>Node19787&#45;&gt;Node19796</title>
<path fill="none" stroke="#191970" d="M391.2692,-109.9671C405.8302,-114.9519 424.9206,-121.4874 441.574,-127.1885"/>
<polygon fill="#191970" stroke="#191970" points="440.4503,-130.5032 451.0449,-130.4308 442.7176,-123.8805 440.4503,-130.5032"/>
</g>
<!-- Node19797 -->
<g id="node8" class="node">
<title>Node19797</title>
<g id="a_node8"><a xlink:href="print_8c.html#a27ae94b5a4c77de49aa2f387765a4d58" target="_top" xlink:title="Special version of vasprintf which implements custom format specifiers. ">
<polygon fill="none" stroke="#ff0000" points="446.5,-54.501 446.5,-73.501 511.5,-73.501 511.5,-54.501 446.5,-54.501"/>
<text text-anchor="middle" x="479" y="-61.501" font-family="Helvetica,sans-Serif" font-size="10.00" fill="#000000">fr_vasprintf</text>
</a>
</g>
</g>
<!-- Node19787&#45;&gt;Node19797 -->
<g id="edge7" class="edge">
<title>Node19787&#45;&gt;Node19797</title>
<path fill="none" stroke="#191970" d="M391.2692,-94.035C405.8302,-89.0502 424.9206,-82.5147 441.574,-76.8136"/>
<polygon fill="#191970" stroke="#191970" points="442.7176,-80.1215 451.0449,-73.5713 440.4503,-73.4989 442.7176,-80.1215"/>
</g>
<!-- Node19924 -->
<g id="node11" class="node">
<title>Node19924</title>
<g id="a_node11"><a xlink:href="print_8c.html#a69fbdf99ae311e5900c854a2247c51b8" target="_top" xlink:title="Checks for utf&#45;8, taken from http://www.w3.org/International/questions/qa&#45;forms&#45;utf&#45;8. ">
<polygon fill="none" stroke="#000000" points="445,-92.501 445,-111.501 513,-111.501 513,-92.501 445,-92.501"/>
<text text-anchor="middle" x="479" y="-99.501" font-family="Helvetica,sans-Serif" font-size="10.00" fill="#000000">fr_utf8_char</text>
</a>
</g>
</g>
<!-- Node19787&#45;&gt;Node19924 -->
<g id="edge12" class="edge">
<title>Node19787&#45;&gt;Node19924</title>
<path fill="none" stroke="#191970" d="M391.2692,-102.001C403.8723,-102.001 419.8688,-102.001 434.7413,-102.001"/>
<polygon fill="#191970" stroke="#191970" points="434.8025,-105.5011 444.8024,-102.001 434.8024,-98.5011 434.8025,-105.5011"/>
</g>
<!-- Node19797&#45;&gt;Node19790 -->
<g id="edge8" class="edge">
<title>Node19797&#45;&gt;Node19790</title>
<path fill="none" stroke="#191970" d="M511.7169,-70.9806C553.9409,-79.9884 627.0578,-95.5867 669.9299,-104.7328"/>
<polygon fill="#191970" stroke="#191970" points="669.3733,-108.1927 679.8835,-106.8562 670.8339,-101.3468 669.3733,-108.1927"/>
</g>
<!-- Node19800 -->
<g id="node10" class="node">
<title>Node19800</title>
<g id="a_node10"><a xlink:href="strerror_8c.html#ae701765650b8aea79a3037bc4921d7f8" target="_top" xlink:title="Log to thread local error buffer. ">
<polygon fill="none" stroke="#ff0000" points="556,-159.501 556,-178.501 642,-178.501 642,-159.501 556,-159.501"/>
<text text-anchor="middle" x="599" y="-166.501" font-family="Helvetica,sans-Serif" font-size="10.00" fill="#000000">fr_strerror_printf</text>
</a>
</g>
</g>
<!-- Node19797&#45;&gt;Node19800 -->
<g id="edge9" class="edge">
<title>Node19797&#45;&gt;Node19800</title>
<path fill="none" stroke="#191970" d="M503.7339,-73.5492C509.3222,-76.2178 515.0586,-79.3916 520,-83.001 546.8529,-102.6159 571.7265,-132.4002 586.1336,-151.2702"/>
<polygon fill="#191970" stroke="#191970" points="583.3674,-153.4155 592.1573,-159.3306 588.9746,-149.225 583.3674,-153.4155"/>
</g>
<!-- Node19800&#45;&gt;Node19786 -->
<g id="edge10" class="edge">
<title>Node19800&#45;&gt;Node19786</title>
<path fill="none" stroke="#191970" d="M616.8118,-178.6703C633.4295,-187.6913 658.4398,-201.2683 677.4181,-211.5709"/>
<polygon fill="#191970" stroke="#191970" points="675.9928,-214.7796 686.4512,-216.4746 679.3325,-208.6276 675.9928,-214.7796"/>
</g>
<!-- Node19800&#45;&gt;Node19790 -->
<g id="edge11" class="edge">
<title>Node19800&#45;&gt;Node19790</title>
<path fill="none" stroke="#191970" d="M616.8118,-159.3318C633.4295,-150.3107 658.4398,-136.7337 677.4181,-126.4312"/>
<polygon fill="#191970" stroke="#191970" points="679.3325,-129.3745 686.4512,-121.5275 675.9928,-123.2225 679.3325,-129.3745"/>
</g>
<!-- Node19925&#45;&gt;Node19800 -->
<g id="edge19" class="edge">
<title>Node19925&#45;&gt;Node19800</title>
<path fill="none" stroke="#191970" d="M400.6069,-206.476C412.337,-203.2287 425.7072,-199.7321 438,-197.001 473.7372,-189.0614 514.3518,-182.0119 545.8476,-176.9724"/>
<polygon fill="#191970" stroke="#191970" points="546.4051,-180.4278 555.7354,-175.4082 545.3113,-173.5138 546.4051,-180.4278"/>
</g>
<!-- Node19897 -->
<g id="node13" class="node">
<title>Node19897</title>
<g id="a_node13"><a xlink:href="missing_8c.html#aa30bf1e64a9330be8a9863b70881ee06" target="_top" xlink:title="inet_ntop">
<polygon fill="none" stroke="#000000" points="451,-206.501 451,-225.501 507,-225.501 507,-206.501 451,-206.501"/>
<text text-anchor="middle" x="479" y="-213.501" font-family="Helvetica,sans-Serif" font-size="10.00" fill="#000000">inet_ntop</text>
</a>
</g>
</g>
<!-- Node19925&#45;&gt;Node19897 -->
<g id="edge15" class="edge">
<title>Node19925&#45;&gt;Node19897</title>
<path fill="none" stroke="#191970" d="M402.2094,-216.001C414.3522,-216.001 428.0977,-216.001 440.5693,-216.001"/>
<polygon fill="#191970" stroke="#191970" points="440.6826,-219.5011 450.6826,-216.001 440.6825,-212.5011 440.6826,-219.5011"/>
</g>
<!-- Node19877 -->
<g id="node14" class="node">
<title>Node19877</title>
<g id="a_node14"><a xlink:href="snprintf_8c.html#a8da10a1735da7051de5c298ca7448eee" target="_top" xlink:title="snprintf">
<polygon fill="none" stroke="#ff0000" points="574.5,-216.501 574.5,-235.501 623.5,-235.501 623.5,-216.501 574.5,-216.501"/>
<text text-anchor="middle" x="599" y="-223.501" font-family="Helvetica,sans-Serif" font-size="10.00" fill="#000000">snprintf</text>
</a>
</g>
</g>
<!-- Node19925&#45;&gt;Node19877 -->
<g id="edge22" class="edge">
<title>Node19925&#45;&gt;Node19877</title>
<path fill="none" stroke="#191970" d="M396.2583,-225.5041C408.8741,-229.2678 424.0201,-233.1375 438,-235.001 481.3186,-240.7755 531.6732,-236.161 564.3753,-231.6805"/>
<polygon fill="#191970" stroke="#191970" points="564.9431,-235.1349 574.3413,-230.2438 563.9442,-228.2066 564.9431,-235.1349"/>
</g>
<!-- Node19875 -->
<g id="node15" class="node">
<title>Node19875</title>
<g id="a_node15"><a xlink:href="syserror_8c.html#a18747f9d648d0aeecc4a8b27ac0435aa" target="_top" xlink:title="Guaranteed to be thread&#45;safe version of strerror. ">
<polygon fill="none" stroke="#ff0000" points="447.5,-282.501 447.5,-301.501 510.5,-301.501 510.5,-282.501 447.5,-282.501"/>
<text text-anchor="middle" x="479" y="-289.501" font-family="Helvetica,sans-Serif" font-size="10.00" fill="#000000">fr_syserror</text>
</a>
</g>
</g>
<!-- Node19925&#45;&gt;Node19875 -->
<g id="edge20" class="edge">
<title>Node19925&#45;&gt;Node19875</title>
<path fill="none" stroke="#191970" d="M380.0994,-225.6234C393.8279,-236.3901 417.0378,-254.1395 438,-268.001 442.7298,-271.1287 447.8762,-274.3074 452.8743,-277.2841"/>
<polygon fill="#191970" stroke="#191970" points="451.1876,-280.3522 461.5887,-282.3695 454.7158,-274.3063 451.1876,-280.3522"/>
</g>
<!-- Node19897&#45;&gt;Node19877 -->
<g id="edge16" class="edge">
<title>Node19897&#45;&gt;Node19877</title>
<path fill="none" stroke="#191970" d="M507.1347,-218.3456C524.1599,-219.7644 546.0073,-221.585 564.1246,-223.0948"/>
<polygon fill="#191970" stroke="#191970" points="564.04,-226.5997 574.2962,-223.9424 564.6214,-219.6239 564.04,-226.5997"/>
</g>
<!-- Node19877&#45;&gt;Node19786 -->
<g id="edge17" class="edge">
<title>Node19877&#45;&gt;Node19786</title>
<path fill="none" stroke="#191970" d="M623.6178,-226.001C636.6898,-226.001 653.0107,-226.001 667.5244,-226.001"/>
<polygon fill="#191970" stroke="#191970" points="667.701,-229.5011 677.7009,-226.001 667.7009,-222.5011 667.701,-229.5011"/>
</g>
<!-- Node19877&#45;&gt;Node19790 -->
<g id="edge18" class="edge">
<title>Node19877&#45;&gt;Node19790</title>
<path fill="none" stroke="#191970" d="M610.7807,-216.4838C619.6951,-209.0741 632.0578,-198.3434 642,-188.001 659.9538,-169.3245 678.4656,-146.0043 690.5311,-130.1563"/>
<polygon fill="#191970" stroke="#191970" points="693.6186,-131.8744 696.8372,-121.7803 688.0263,-127.6641 693.6186,-131.8744"/>
</g>
<!-- Node19875&#45;&gt;Node19877 -->
<g id="edge21" class="edge">
<title>Node19875&#45;&gt;Node19877</title>
<path fill="none" stroke="#191970" d="M496.449,-282.4041C516.4452,-271.4062 549.4321,-253.2634 572.5814,-240.5312"/>
<polygon fill="#191970" stroke="#191970" points="574.4545,-243.4956 581.5299,-235.6096 571.081,-237.3621 574.4545,-243.4956"/>
</g>
</g>
</svg>
        <g id="navigator" transform="translate(0 0)" fill="#404254">
                <rect fill="#f2f5e9" fill-opacity="0.5" stroke="#606060" stroke-width=".5" x="0" y="0" width="60" height="60"/>
                <use id="zoomplus" xlink:href="#zoomPlus" x="17" y="9" onmousedown="handleZoom(evt,'in')"/>
                <use id="zoomminus" xlink:href="#zoomMin" x="42" y="9" onmousedown="handleZoom(evt,'out')"/>
                <use id="reset" xlink:href="#resetDef" x="30" y="36" onmousedown="handleReset()"/>
                <g id="arrowUp" xlink:href="#dirArrow" transform="translate(30 24)" onmousedown="handlePan(0,-1)">
                  <use xlink:href="#rim" fill="#404040">
                        <set attributeName="fill" to="#808080" begin="arrowUp.mouseover" end="arrowUp.mouseout"/>
                  </use>
                  <path fill="none" stroke="white" stroke-width="1.5" d="M0,-3.0v7 M-2.5,-0.5L0,-3.0L2.5,-0.5"/>
                </g>
                <g id="arrowRight" xlink:href="#dirArrow" transform="rotate(90) translate(36 -43)" onmousedown="handlePan(1,0)">
                  <use xlink:href="#rim" fill="#404040">
                        <set attributeName="fill" to="#808080" begin="arrowRight.mouseover" end="arrowRight.mouseout"/>
                  </use>
                  <path fill="none" stroke="white" stroke-width="1.5" d="M0,-3.0v7 M-2.5,-0.5L0,-3.0L2.5,-0.5"/>
                </g>
                <g id="arrowDown" xlink:href="#dirArrow" transform="rotate(180) translate(-30 -48)" onmousedown="handlePan(0,1)">
                  <use xlink:href="#rim" fill="#404040">
                        <set attributeName="fill" to="#808080" begin="arrowDown.mouseover" end="arrowDown.mouseout"/>
                  </use>
                  <path fill="none" stroke="white" stroke-width="1.5" d="M0,-3.0v7 M-2.5,-0.5L0,-3.0L2.5,-0.5"/>
                </g>
                <g id="arrowLeft" xlink:href="#dirArrow" transform="rotate(270) translate(-36 17)" onmousedown="handlePan(-1,0)">
                  <use xlink:href="#rim" fill="#404040">
                        <set attributeName="fill" to="#808080" begin="arrowLeft.mouseover" end="arrowLeft.mouseout"/>
                  </use>
                  <path fill="none" stroke="white" stroke-width="1.5" d="M0,-3.0v7 M-2.5,-0.5L0,-3.0L2.5,-0.5"/>
                </g>
        </g>
        <svg viewBox="0 0 15 15" width="100%" height="30px" preserveAspectRatio="xMaxYMin meet">
         <g id="arrow_out" transform="scale(0.3 0.3)">
          <a xlink:href="list_8h_ad451bfcbd3977739cf160ba86cc0d29f_cgraph_org.svg" target="_base">
           <rect id="button" ry="5" rx="5" y="6" x="6" height="38" width="38"
                fill="#f2f5e9" fill-opacity="0.5" stroke="#606060" stroke-width="1.0"/>
           <path id="arrow"
             d="M 11.500037,31.436501 C 11.940474,20.09759 22.043105,11.32322 32.158766,21.979434 L 37.068811,17.246167 C 37.068811,17.246167 37.088388,32 37.088388,32 L 22.160133,31.978069 C 22.160133,31.978069 26.997745,27.140456 26.997745,27.140456 C 18.528582,18.264221 13.291696,25.230495 11.500037,31.436501 z"
             style="fill:#404040;"/>
          </a>
         </g>
        </svg>
</svg>
