<?xml version="1.0" encoding="UTF-8" standalone="no"?>
<!DOCTYPE svg PUBLIC "-//W3C//DTD SVG 1.1//EN"
 "http://www.w3.org/Graphics/SVG/1.1/DTD/svg11.dtd">
<!-- Generated by graphviz version 2.40.1 (20161225.0304)
 -->
<!-- Title: fr_packet_list_id_alloc Pages: 1 -->
<svg width="796pt" height="1471pt"
 viewBox="0.00 0.00 796.00 1471.00" xmlns="http://www.w3.org/2000/svg" xmlns:xlink="http://www.w3.org/1999/xlink">
<g id="graph0" class="graph" transform="scale(1 1) rotate(0) translate(4 1467)">
<title>fr_packet_list_id_alloc</title>
<!-- Node9015 -->
<g id="node1" class="node">
<title>Node9015</title>
<polygon fill="#bfbfbf" stroke="#000000" points="0,-554.5 0,-573.5 113,-573.5 113,-554.5 0,-554.5"/>
<text text-anchor="middle" x="56.5" y="-561.5" font-family="Helvetica,sans-Serif" font-size="10.00" fill="#000000">fr_packet_list_id_alloc</text>
</g>
<!-- Node9016 -->
<g id="node2" class="node">
<title>Node9016</title>
<g id="a_node2"><a xlink:href="radclient_8c.html#a176efa61331731043767abb77e3db234" target="_top" xlink:title="send_one_packet">
<polygon fill="none" stroke="#000000" points="149,-554.5 149,-573.5 242,-573.5 242,-554.5 149,-554.5"/>
<text text-anchor="middle" x="195.5" y="-561.5" font-family="Helvetica,sans-Serif" font-size="10.00" fill="#000000">send_one_packet</text>
</a>
</g>
</g>
<!-- Node9015&#45;&gt;Node9016 -->
<g id="edge1" class="edge">
<title>Node9015&#45;&gt;Node9016</title>
<path fill="none" stroke="#191970" d="M123.1485,-564C131.8131,-564 140.5369,-564 148.7799,-564"/>
<polygon fill="#191970" stroke="#191970" points="123.0367,-560.5001 113.0366,-564 123.0366,-567.5001 123.0367,-560.5001"/>
</g>
<!-- Node9017 -->
<g id="node3" class="node">
<title>Node9017</title>
<g id="a_node3"><a xlink:href="radclient_8c.html#a3c04138a5bfe5d72780bb7e82a18e627" target="_top" xlink:title="main">
<polygon fill="none" stroke="#000000" points="278,-554.5 278,-573.5 316,-573.5 316,-554.5 278,-554.5"/>
<text text-anchor="middle" x="297" y="-561.5" font-family="Helvetica,sans-Serif" font-size="10.00" fill="#000000">main</text>
</a>
</g>
</g>
<!-- Node9016&#45;&gt;Node9017 -->
<g id="edge2" class="edge">
<title>Node9016&#45;&gt;Node9017</title>
<path fill="none" stroke="#191970" d="M252.3645,-564C261.4202,-564 270.2123,-564 277.5649,-564"/>
<polygon fill="#191970" stroke="#191970" points="252.0911,-560.5001 242.0911,-564 252.091,-567.5001 252.0911,-560.5001"/>
</g>
<!-- Node9018 -->
<g id="node4" class="node">
<title>Node9018</title>
<g id="a_node4"><a xlink:href="comp128_8h.html#a5d4168028ccd505946cb69b67abdd297" target="_top" xlink:title="Calculate comp128v2 or comp128v3 sres and kc from ki and rand. ">
<polygon fill="none" stroke="#000000" points="371,-1425.5 371,-1444.5 443,-1444.5 443,-1425.5 371,-1425.5"/>
<text text-anchor="middle" x="407" y="-1432.5" font-family="Helvetica,sans-Serif" font-size="10.00" fill="#000000">comp128v23</text>
</a>
</g>
</g>
<!-- Node9017&#45;&gt;Node9018 -->
<g id="edge3" class="edge">
<title>Node9017&#45;&gt;Node9018</title>
<path fill="none" stroke="#191970" d="M297.1499,-584.0211C298.2063,-704.939 305.9044,-1334.9319 352,-1406 357.6392,-1414.6942 366.7833,-1420.9459 376.0107,-1425.3643"/>
<polygon fill="#191970" stroke="#191970" points="300.647,-583.6455 297.0653,-573.6745 293.6473,-583.7028 300.647,-583.6455"/>
</g>
<!-- Node9041 -->
<g id="node6" class="node">
<title>Node9041</title>
<g id="a_node6"><a xlink:href="event_8h.html#a95b6ed57fdb96da9e693d782a792f139" target="_top" xlink:title="Return whether the event loop has any active events. ">
<polygon fill="none" stroke="#000000" points="515.5,-1390.5 515.5,-1409.5 617.5,-1409.5 617.5,-1390.5 515.5,-1390.5"/>
<text text-anchor="middle" x="566.5" y="-1397.5" font-family="Helvetica,sans-Serif" font-size="10.00" fill="#000000">fr_event_list_empty</text>
</a>
</g>
</g>
<!-- Node9017&#45;&gt;Node9041 -->
<g id="edge6" class="edge">
<title>Node9017&#45;&gt;Node9041</title>
<path fill="none" stroke="#191970" d="M297.685,-584.0489C301.9033,-704.9975 325.0612,-1333.1606 352,-1363 392.3903,-1407.7394 465.7167,-1411.0922 515.2587,-1407.2628"/>
<polygon fill="#191970" stroke="#191970" points="301.1705,-583.5675 297.3272,-573.6944 294.1747,-583.8094 301.1705,-583.5675"/>
</g>
<!-- Node9042 -->
<g id="node7" class="node">
<title>Node9042</title>
<g id="a_node7"><a xlink:href="fifo_8h.html#a8ec8c40ef16cc9a67788e6bf4c5fb4f5" target="_top" xlink:title="Return the number of elements in the fifo queue. ">
<polygon fill="none" stroke="#000000" points="352,-1226.5 352,-1245.5 462,-1245.5 462,-1226.5 352,-1226.5"/>
<text text-anchor="middle" x="407" y="-1233.5" font-family="Helvetica,sans-Serif" font-size="10.00" fill="#000000">fr_fifo_num_elements</text>
</a>
</g>
</g>
<!-- Node9017&#45;&gt;Node9042 -->
<g id="edge7" class="edge">
<title>Node9017&#45;&gt;Node9042</title>
<path fill="none" stroke="#191970" d="M300.2174,-583.6554C316.9237,-685.7158 393.4667,-1153.3236 405.4264,-1226.387"/>
<polygon fill="#191970" stroke="#191970" points="303.6669,-583.0619 298.5974,-573.7586 296.7589,-584.1927 303.6669,-583.0619"/>
</g>
<!-- Node9078 -->
<g id="node10" class="node">
<title>Node9078</title>
<g id="a_node10"><a xlink:href="hash_8h.html#a2719b2d3eda3e8506d7d662917438596" target="_top" xlink:title="Hash a C string, converting all chars to lowercase. ">
<polygon fill="none" stroke="#000000" points="355,-697.5 355,-716.5 459,-716.5 459,-697.5 355,-697.5"/>
<text text-anchor="middle" x="407" y="-704.5" font-family="Helvetica,sans-Serif" font-size="10.00" fill="#000000">fr_hash_case_string</text>
</a>
</g>
</g>
<!-- Node9017&#45;&gt;Node9078 -->
<g id="edge11" class="edge">
<title>Node9017&#45;&gt;Node9078</title>
<path fill="none" stroke="#191970" d="M300.5662,-583.431C306.5288,-610.5409 321.0552,-659.5756 352,-688 356.2408,-691.8954 361.3198,-694.998 366.6534,-697.4679"/>
<polygon fill="#191970" stroke="#191970" points="303.9872,-582.6899 298.5688,-573.5854 297.127,-584.0817 303.9872,-582.6899"/>
</g>
<!-- Node9079 -->
<g id="node11" class="node">
<title>Node9079</title>
<g id="a_node11"><a xlink:href="hmac__md5_8c.html#ad2cdd3bcebcf92acb528af5d38e85d9e" target="_top" xlink:title="Calculate HMAC using internal MD5 implementation. ">
<polygon fill="none" stroke="#000000" points="369,-198.5 369,-217.5 445,-217.5 445,-198.5 369,-198.5"/>
<text text-anchor="middle" x="407" y="-205.5" font-family="Helvetica,sans-Serif" font-size="10.00" fill="#000000">fr_hmac_md5</text>
</a>
</g>
</g>
<!-- Node9017&#45;&gt;Node9079 -->
<g id="edge12" class="edge">
<title>Node9017&#45;&gt;Node9079</title>
<path fill="none" stroke="#191970" d="M300.8388,-544.1995C308.6805,-504.9279 327.8539,-414.6106 352,-341 367.498,-293.7533 392.136,-239.5935 402.3392,-217.8177"/>
<polygon fill="#191970" stroke="#191970" points="297.3934,-543.5814 298.8933,-554.0696 304.2612,-544.9352 297.3934,-543.5814"/>
</g>
<!-- Node9476 -->
<g id="node16" class="node">
<title>Node9476</title>
<g id="a_node16"><a xlink:href="sha1_8h.html#a2bdb1a7038f0010ff52423c27a5eb55e" target="_top" xlink:title="Calculate HMAC using internal SHA1 implementation. ">
<polygon fill="none" stroke="#000000" points="368,-132.5 368,-151.5 446,-151.5 446,-132.5 368,-132.5"/>
<text text-anchor="middle" x="407" y="-139.5" font-family="Helvetica,sans-Serif" font-size="10.00" fill="#000000">fr_hmac_sha1</text>
</a>
</g>
</g>
<!-- Node9017&#45;&gt;Node9476 -->
<g id="edge17" class="edge">
<title>Node9017&#45;&gt;Node9476</title>
<path fill="none" stroke="#191970" d="M298.0919,-543.955C302.1067,-475.4153 317.6396,-251.2072 352,-189 360.9271,-172.8382 377.7369,-159.74 390.4332,-151.5161"/>
<polygon fill="#191970" stroke="#191970" points="294.5813,-544.0437 297.5093,-554.2259 301.5701,-544.4402 294.5813,-544.0437"/>
</g>
<!-- Node9488 -->
<g id="node20" class="node">
<title>Node9488</title>
<g id="a_node20"><a xlink:href="rand_8h.html#a397c42de24ad86f9d3d899957e33e679" target="_top" xlink:title="fr_rand_init">
<polygon fill="none" stroke="#000000" points="374.5,-1316.5 374.5,-1335.5 439.5,-1335.5 439.5,-1316.5 374.5,-1316.5"/>
<text text-anchor="middle" x="407" y="-1323.5" font-family="Helvetica,sans-Serif" font-size="10.00" fill="#000000">fr_rand_init</text>
</a>
</g>
</g>
<!-- Node9017&#45;&gt;Node9488 -->
<g id="edge23" class="edge">
<title>Node9017&#45;&gt;Node9488</title>
<path fill="none" stroke="#191970" d="M297.6925,-583.6502C301.6038,-691.504 321.8318,-1209.0294 352,-1273 360.7671,-1291.5903 379.0804,-1307.0983 392.166,-1316.4414"/>
<polygon fill="#191970" stroke="#191970" points="301.186,-583.4023 297.3303,-573.534 294.1905,-583.6529 301.186,-583.4023"/>
</g>
<!-- Node9733 -->
<g id="node23" class="node">
<title>Node9733</title>
<g id="a_node23"><a xlink:href="snprintf_8c.html#a8da10a1735da7051de5c298ca7448eee" target="_top" xlink:title="snprintf">
<polygon fill="none" stroke="#ff0000" points="382.5,-659.5 382.5,-678.5 431.5,-678.5 431.5,-659.5 382.5,-659.5"/>
<text text-anchor="middle" x="407" y="-666.5" font-family="Helvetica,sans-Serif" font-size="10.00" fill="#000000">snprintf</text>
</a>
</g>
</g>
<!-- Node9017&#45;&gt;Node9733 -->
<g id="edge28" class="edge">
<title>Node9017&#45;&gt;Node9733</title>
<path fill="none" stroke="#191970" d="M314.6156,-580.8149C337.8972,-603.0382 378.1466,-641.4582 396.8732,-659.3335"/>
<polygon fill="#191970" stroke="#191970" points="316.8016,-578.063 307.1514,-573.6899 311.9683,-583.1265 316.8016,-578.063"/>
</g>
<!-- Node9751 -->
<g id="node47" class="node">
<title>Node9751</title>
<g id="a_node47"><a xlink:href="trie_8h.html#aa11d3bbe61b4e23de7e0a529c10810be" target="_top" xlink:title="fr_trie_walk">
<polygon fill="none" stroke="#ff0000" points="533,-241.5 533,-260.5 600,-260.5 600,-241.5 533,-241.5"/>
<text text-anchor="middle" x="566.5" y="-248.5" font-family="Helvetica,sans-Serif" font-size="10.00" fill="#000000">fr_trie_walk</text>
</a>
</g>
</g>
<!-- Node9017&#45;&gt;Node9751 -->
<g id="edge56" class="edge">
<title>Node9017&#45;&gt;Node9751</title>
<path fill="none" stroke="#191970" d="M304.9768,-545.2172C327.5667,-494.213 396.9554,-351.8222 498,-275 508.1315,-267.2972 520.931,-261.9367 532.7162,-258.2692"/>
<polygon fill="#191970" stroke="#191970" points="301.7591,-543.8401 300.9792,-554.4062 308.178,-546.6326 301.7591,-543.8401"/>
</g>
<!-- Node10456 -->
<g id="node48" class="node">
<title>Node10456</title>
<g id="a_node48"><a xlink:href="udpfromto_8h.html#aa0e3ddd0d191087ba4b18d3eaacc63fa" target="_top" xlink:title="Send packet via a file descriptor, setting the src address and outbound interface. ">
<polygon fill="none" stroke="#ff0000" points="374.5,-76.5 374.5,-95.5 439.5,-95.5 439.5,-76.5 374.5,-76.5"/>
<text text-anchor="middle" x="407" y="-83.5" font-family="Helvetica,sans-Serif" font-size="10.00" fill="#000000">sendfromto</text>
</a>
</g>
</g>
<!-- Node9017&#45;&gt;Node10456 -->
<g id="edge57" class="edge">
<title>Node9017&#45;&gt;Node10456</title>
<path fill="none" stroke="#191970" d="M297.3255,-544.2902C298.8993,-468.328 307.5982,-195.2034 352,-123 359.5354,-110.7463 372.8251,-101.6376 384.453,-95.5242"/>
<polygon fill="#191970" stroke="#191970" points="293.8245,-544.312 297.1356,-554.3761 300.8233,-544.4438 293.8245,-544.312"/>
</g>
<!-- Node10460 -->
<g id="node49" class="node">
<title>Node10460</title>
<g id="a_node49"><a xlink:href="timestr_8c.html#a944f1c665be9eb7b98abd2f180ff6e3f" target="_top" xlink:title="timestr_match">
<polygon fill="none" stroke="#ff0000" points="367.5,-38.5 367.5,-57.5 446.5,-57.5 446.5,-38.5 367.5,-38.5"/>
<text text-anchor="middle" x="407" y="-45.5" font-family="Helvetica,sans-Serif" font-size="10.00" fill="#000000">timestr_match</text>
</a>
</g>
</g>
<!-- Node9017&#45;&gt;Node10460 -->
<g id="edge59" class="edge">
<title>Node9017&#45;&gt;Node10460</title>
<path fill="none" stroke="#191970" d="M297.9439,-544.3607C302.3129,-456.8383 321.6589,-104.9688 352,-67 356.0362,-61.9491 361.4918,-58.2362 367.4048,-55.5079"/>
<polygon fill="#191970" stroke="#191970" points="294.4408,-544.3389 297.4463,-554.4984 301.4324,-544.6821 294.4408,-544.3389"/>
</g>
<!-- Node10464 -->
<g id="node50" class="node">
<title>Node10464</title>
<g id="a_node50"><a xlink:href="rlm__passwd_8c.html#a4ffa1b9e22a6bb64bd03150655bc1fb5" target="_top" xlink:title="get_pw_nam">
<polygon fill="none" stroke="#ff0000" points="371,-.5 371,-19.5 443,-19.5 443,-.5 371,-.5"/>
<text text-anchor="middle" x="407" y="-7.5" font-family="Helvetica,sans-Serif" font-size="10.00" fill="#000000">get_pw_nam</text>
</a>
</g>
</g>
<!-- Node9017&#45;&gt;Node10464 -->
<g id="edge60" class="edge">
<title>Node9017&#45;&gt;Node10464</title>
<path fill="none" stroke="#191970" d="M297.7949,-544.0302C301.6304,-451.8413 319.3893,-70.1357 352,-29 356.7696,-22.9835 363.5547,-18.8647 370.7382,-16.0472"/>
<polygon fill="#191970" stroke="#191970" points="294.2898,-544.0864 297.3791,-554.2208 301.284,-544.3719 294.2898,-544.0864"/>
</g>
<!-- Node9018&#45;&gt;Node9018 -->
<g id="edge5" class="edge">
<title>Node9018&#45;&gt;Node9018</title>
<path fill="none" stroke="#191970" d="M386.6306,-1454.4C387.991,-1459.3146 394.7808,-1463 407,-1463 426.5508,-1463 432.2022,-1453.5653 423.9542,-1444.7571"/>
<polygon fill="#191970" stroke="#191970" points="390.0065,-1455.3518 390.0458,-1444.7571 383.4081,-1453.0149 390.0065,-1455.3518"/>
</g>
<!-- Node9019 -->
<g id="node5" class="node">
<title>Node9019</title>
<g id="a_node5"><a xlink:href="vector_8c.html#ae726cc3a3569de8f5c957ca9c3aacd21" target="_top" xlink:title="vector_gsm_from_ki">
<polygon fill="none" stroke="#ff0000" points="514,-1428.5 514,-1447.5 619,-1447.5 619,-1428.5 514,-1428.5"/>
<text text-anchor="middle" x="566.5" y="-1435.5" font-family="Helvetica,sans-Serif" font-size="10.00" fill="#000000">vector_gsm_from_ki</text>
</a>
</g>
</g>
<!-- Node9018&#45;&gt;Node9019 -->
<g id="edge4" class="edge">
<title>Node9018&#45;&gt;Node9019</title>
<path fill="none" stroke="#191970" d="M453.3583,-1435.8719C472.2859,-1436.2279 494.2761,-1436.6416 513.8092,-1437.009"/>
<polygon fill="#191970" stroke="#191970" points="453.2571,-1432.3695 443.193,-1435.6807 453.1254,-1439.3683 453.2571,-1432.3695"/>
</g>
<!-- Node9042&#45;&gt;Node9042 -->
<g id="edge10" class="edge">
<title>Node9042&#45;&gt;Node9042</title>
<path fill="none" stroke="#191970" d="M386.6306,-1255.4C387.991,-1260.3146 394.7808,-1264 407,-1264 426.5508,-1264 432.2022,-1254.5653 423.9542,-1245.7571"/>
<polygon fill="#191970" stroke="#191970" points="390.0065,-1256.3518 390.0458,-1245.7571 383.4081,-1254.0149 390.0065,-1256.3518"/>
</g>
<!-- Node9043 -->
<g id="node8" class="node">
<title>Node9043</title>
<g id="a_node8"><a xlink:href="cluster_8c.html#ab434868c42486ab9876b2043c26439f2" target="_top" xlink:title="Apply a cluster map received from a cluster node. ">
<polygon fill="none" stroke="#ff0000" points="517.5,-1226.5 517.5,-1245.5 615.5,-1245.5 615.5,-1226.5 517.5,-1226.5"/>
<text text-anchor="middle" x="566.5" y="-1233.5" font-family="Helvetica,sans-Serif" font-size="10.00" fill="#000000">cluster_map_apply</text>
</a>
</g>
</g>
<!-- Node9042&#45;&gt;Node9043 -->
<g id="edge8" class="edge">
<title>Node9042&#45;&gt;Node9043</title>
<path fill="none" stroke="#191970" d="M472.5738,-1236C487.5577,-1236 503.2315,-1236 517.3866,-1236"/>
<polygon fill="#191970" stroke="#191970" points="472.3378,-1232.5001 462.3377,-1236 472.3377,-1239.5001 472.3378,-1232.5001"/>
</g>
<!-- Node9076 -->
<g id="node9" class="node">
<title>Node9076</title>
<g id="a_node9"><a xlink:href="cluster_8h.html#a9b5a2a604f3debf26f9ec7a937cbaf14" target="_top" xlink:title="Get the pool associated with a node in the cluster. ">
<polygon fill="none" stroke="#ff0000" points="513,-1265 513,-1295 620,-1295 620,-1265 513,-1265"/>
<text text-anchor="start" x="521" y="-1283" font-family="Helvetica,sans-Serif" font-size="10.00" fill="#000000">fr_redis_cluster_pool</text>
<text text-anchor="middle" x="566.5" y="-1272" font-family="Helvetica,sans-Serif" font-size="10.00" fill="#000000">_by_node_addr</text>
</a>
</g>
</g>
<!-- Node9042&#45;&gt;Node9076 -->
<g id="edge9" class="edge">
<title>Node9042&#45;&gt;Node9076</title>
<path fill="none" stroke="#191970" d="M451.5061,-1248.2776C470.5262,-1253.5245 492.8942,-1259.695 512.8219,-1265.1922"/>
<polygon fill="#191970" stroke="#191970" points="452.1798,-1244.8327 441.6091,-1245.5473 450.3183,-1251.5807 452.1798,-1244.8327"/>
</g>
<!-- Node9080 -->
<g id="node12" class="node">
<title>Node9080</title>
<g id="a_node12"><a xlink:href="modules_2proto__control_2radmin_8c.html#a32b9c3ea303d2270bd606058a2cbd30c" target="_top" xlink:title="do_challenge">
<polygon fill="none" stroke="#ff0000" points="529.5,-203.5 529.5,-222.5 603.5,-222.5 603.5,-203.5 529.5,-203.5"/>
<text text-anchor="middle" x="566.5" y="-210.5" font-family="Helvetica,sans-Serif" font-size="10.00" fill="#000000">do_challenge</text>
</a>
</g>
</g>
<!-- Node9079&#45;&gt;Node9080 -->
<g id="edge13" class="edge">
<title>Node9079&#45;&gt;Node9080</title>
<path fill="none" stroke="#191970" d="M455.4352,-209.5183C479.2113,-210.2637 507.4019,-211.1474 529.4321,-211.838"/>
<polygon fill="#191970" stroke="#191970" points="455.309,-206.0128 445.2042,-209.1976 455.0896,-213.0093 455.309,-206.0128"/>
</g>
<!-- Node9083 -->
<g id="node14" class="node">
<title>Node9083</title>
<g id="a_node14"><a xlink:href="radius_8h.html#a51221fafc643870f9bbcf7c555445ebf" target="_top" xlink:title="Sign a previously encoded packet. ">
<polygon fill="none" stroke="#ff0000" points="528,-165.5 528,-184.5 605,-184.5 605,-165.5 528,-165.5"/>
<text text-anchor="middle" x="566.5" y="-172.5" font-family="Helvetica,sans-Serif" font-size="10.00" fill="#000000">fr_radius_sign</text>
</a>
</g>
</g>
<!-- Node9079&#45;&gt;Node9083 -->
<g id="edge15" class="edge">
<title>Node9079&#45;&gt;Node9083</title>
<path fill="none" stroke="#191970" d="M455.2067,-198.0262C478.44,-193.2193 505.9311,-187.5315 527.7774,-183.0116"/>
<polygon fill="#191970" stroke="#191970" points="454.2877,-194.6421 445.2042,-200.0957 455.706,-201.497 454.2877,-194.6421"/>
</g>
<!-- Node9140 -->
<g id="node15" class="node">
<title>Node9140</title>
<g id="a_node15"><a xlink:href="xlat__builtin_8c.html#accf16b17227076a26a2fd33b9c9844c8" target="_top" xlink:title="xlat_hmac">
<polygon fill="none" stroke="#ff0000" points="535.5,-127.5 535.5,-146.5 597.5,-146.5 597.5,-127.5 535.5,-127.5"/>
<text text-anchor="middle" x="566.5" y="-134.5" font-family="Helvetica,sans-Serif" font-size="10.00" fill="#000000">xlat_hmac</text>
</a>
</g>
</g>
<!-- Node9079&#45;&gt;Node9140 -->
<g id="edge16" class="edge">
<title>Node9079&#45;&gt;Node9140</title>
<path fill="none" stroke="#191970" d="M435.0766,-193.7711C443.7882,-189.203 453.3662,-184.0225 462,-179 478.4117,-169.4528 480.66,-163.7342 498,-156 509.8346,-150.7214 523.4847,-146.5766 535.4702,-143.5235"/>
<polygon fill="#191970" stroke="#191970" points="433.3162,-190.7413 426.0493,-198.4511 436.5381,-196.9558 433.3162,-190.7413"/>
</g>
<!-- Node9082 -->
<g id="node13" class="node">
<title>Node9082</title>
<g id="a_node13"><a xlink:href="modules_2proto__control_2radmin_8c.html#a3c04138a5bfe5d72780bb7e82a18e627" target="_top" xlink:title="main">
<polygon fill="none" stroke="#000000" points="710.5,-257.5 710.5,-276.5 748.5,-276.5 748.5,-257.5 710.5,-257.5"/>
<text text-anchor="middle" x="729.5" y="-264.5" font-family="Helvetica,sans-Serif" font-size="10.00" fill="#000000">main</text>
</a>
</g>
</g>
<!-- Node9080&#45;&gt;Node9082 -->
<g id="edge14" class="edge">
<title>Node9080&#45;&gt;Node9082</title>
<path fill="none" stroke="#191970" d="M613.1539,-225.3729C620.4951,-227.483 627.9761,-229.7296 635,-232 661.4692,-240.5559 691.5127,-251.9852 710.48,-259.4182"/>
<polygon fill="#191970" stroke="#191970" points="613.8606,-221.9357 603.286,-222.5908 611.961,-228.6731 613.8606,-221.9357"/>
</g>
<!-- Node9476&#45;&gt;Node9140 -->
<g id="edge18" class="edge">
<title>Node9476&#45;&gt;Node9140</title>
<path fill="none" stroke="#191970" d="M456.3556,-140.4528C482.1365,-139.6446 512.9007,-138.6802 535.3548,-137.9763"/>
<polygon fill="#191970" stroke="#191970" points="455.9035,-136.9652 446.0181,-140.7769 456.1229,-143.9617 455.9035,-136.9652"/>
</g>
<!-- Node9476&#45;&gt;Node9476 -->
<g id="edge19" class="edge">
<title>Node9476&#45;&gt;Node9476</title>
<path fill="none" stroke="#191970" d="M386.6306,-161.4C387.991,-166.3146 394.7808,-170 407,-170 426.5508,-170 432.2022,-160.5653 423.9542,-151.7571"/>
<polygon fill="#191970" stroke="#191970" points="390.0065,-162.3518 390.0458,-151.7571 383.4081,-160.0149 390.0065,-162.3518"/>
</g>
<!-- Node9477 -->
<g id="node17" class="node">
<title>Node9477</title>
<g id="a_node17"><a xlink:href="eap__fast_8c.html#ac157d15bdc8ba7e778cbcaa51990e405" target="_top" xlink:title="eap_fast_append_crypto\l_binding">
<polygon fill="none" stroke="#ff0000" points="505,-40 505,-70 628,-70 628,-40 505,-40"/>
<text text-anchor="start" x="513" y="-58" font-family="Helvetica,sans-Serif" font-size="10.00" fill="#000000">eap_fast_append_crypto</text>
<text text-anchor="middle" x="566.5" y="-47" font-family="Helvetica,sans-Serif" font-size="10.00" fill="#000000">_binding</text>
</a>
</g>
</g>
<!-- Node9476&#45;&gt;Node9477 -->
<g id="edge20" class="edge">
<title>Node9476&#45;&gt;Node9477</title>
<path fill="none" stroke="#191970" d="M453.2441,-128.1709C456.303,-126.6105 459.2546,-124.8912 462,-123 482.526,-108.8608 477.5972,-94.3164 498,-80 503.3887,-76.2188 509.4146,-72.9422 515.5964,-70.1212"/>
<polygon fill="#191970" stroke="#191970" points="451.5353,-125.1013 443.844,-132.3879 454.4006,-131.488 451.5353,-125.1013"/>
</g>
<!-- Node9481 -->
<g id="node18" class="node">
<title>Node9481</title>
<g id="a_node18"><a xlink:href="eap__fast_8c.html#aafe5e9c0aa8c89dad2080c6a09c66c6f" target="_top" xlink:title="eap_fast_crypto_binding">
<polygon fill="none" stroke="#ff0000" points="505.5,-1.5 505.5,-20.5 627.5,-20.5 627.5,-1.5 505.5,-1.5"/>
<text text-anchor="middle" x="566.5" y="-8.5" font-family="Helvetica,sans-Serif" font-size="10.00" fill="#000000">eap_fast_crypto_binding</text>
</a>
</g>
</g>
<!-- Node9476&#45;&gt;Node9481 -->
<g id="edge21" class="edge">
<title>Node9476&#45;&gt;Node9481</title>
<path fill="none" stroke="#191970" d="M455.0423,-128.4736C457.5369,-126.8506 459.8825,-125.0337 462,-123 493.6679,-92.5854 465.6033,-60.6371 498,-31 502.7533,-26.6516 508.4018,-23.2446 514.3859,-20.5758"/>
<polygon fill="#191970" stroke="#191970" points="453.2535,-125.4614 446.1018,-133.2783 456.5672,-131.6274 453.2535,-125.4614"/>
</g>
<!-- Node9483 -->
<g id="node19" class="node">
<title>Node9483</title>
<g id="a_node19"><a xlink:href="eap__fast__crypto_8h.html#a1de0713fa43fb7427b178d17069d54e1" target="_top" xlink:title="T_PRF">
<polygon fill="none" stroke="#ff0000" points="542.5,-89.5 542.5,-108.5 590.5,-108.5 590.5,-89.5 542.5,-89.5"/>
<text text-anchor="middle" x="566.5" y="-96.5" font-family="Helvetica,sans-Serif" font-size="10.00" fill="#000000">T_PRF</text>
</a>
</g>
</g>
<!-- Node9476&#45;&gt;Node9483 -->
<g id="edge22" class="edge">
<title>Node9476&#45;&gt;Node9483</title>
<path fill="none" stroke="#191970" d="M452.365,-129.7699C481.5326,-121.9066 518.29,-111.997 542.0855,-105.582"/>
<polygon fill="#191970" stroke="#191970" points="451.1424,-126.4745 442.3982,-132.4569 452.9646,-133.2332 451.1424,-126.4745"/>
</g>
<!-- Node9488&#45;&gt;Node9041 -->
<g id="edge24" class="edge">
<title>Node9488&#45;&gt;Node9041</title>
<path fill="none" stroke="#191970" d="M428.7744,-1341.4989C446.6606,-1353.6431 473.0273,-1370.2319 498,-1381 506.4995,-1384.665 515.8983,-1387.8133 524.9398,-1390.4331"/>
<polygon fill="#191970" stroke="#191970" points="430.4635,-1338.4118 420.2464,-1335.6078 426.4849,-1344.1713 430.4635,-1338.4118"/>
</g>
<!-- Node9488&#45;&gt;Node9488 -->
<g id="edge25" class="edge">
<title>Node9488&#45;&gt;Node9488</title>
<path fill="none" stroke="#191970" d="M386.6306,-1345.4C387.991,-1350.3146 394.7808,-1354 407,-1354 426.5508,-1354 432.2022,-1344.5653 423.9542,-1335.7571"/>
<polygon fill="#191970" stroke="#191970" points="390.0065,-1346.3518 390.0458,-1335.7571 383.4081,-1344.0149 390.0065,-1346.3518"/>
</g>
<!-- Node9489 -->
<g id="node21" class="node">
<title>Node9489</title>
<g id="a_node21"><a xlink:href="rand_8h.html#a9a5d5cfa53b9e609bb2b23255a971bae" target="_top" xlink:title="Seed the random number generator. ">
<polygon fill="none" stroke="#ff0000" points="530,-1314.5 530,-1333.5 603,-1333.5 603,-1314.5 530,-1314.5"/>
<text text-anchor="middle" x="566.5" y="-1321.5" font-family="Helvetica,sans-Serif" font-size="10.00" fill="#000000">fr_rand_seed</text>
</a>
</g>
</g>
<!-- Node9488&#45;&gt;Node9489 -->
<g id="edge26" class="edge">
<title>Node9488&#45;&gt;Node9489</title>
<path fill="none" stroke="#191970" d="M449.9627,-1325.4613C474.9728,-1325.1477 506.1643,-1324.7566 529.9825,-1324.4579"/>
<polygon fill="#191970" stroke="#191970" points="449.6174,-1321.9652 439.6621,-1325.5904 449.7052,-1328.9647 449.6174,-1321.9652"/>
</g>
<!-- Node9728 -->
<g id="node22" class="node">
<title>Node9728</title>
<g id="a_node22"><a xlink:href="rlm__eap_8c.html#a56a72eb6c63d52c6d8bcb597d2aca991" target="_top" xlink:title="mod_instantiate">
<polygon fill="none" stroke="#000000" points="523.5,-1352.5 523.5,-1371.5 609.5,-1371.5 609.5,-1352.5 523.5,-1352.5"/>
<text text-anchor="middle" x="566.5" y="-1359.5" font-family="Helvetica,sans-Serif" font-size="10.00" fill="#000000">mod_instantiate</text>
</a>
</g>
</g>
<!-- Node9488&#45;&gt;Node9728 -->
<g id="edge27" class="edge">
<title>Node9488&#45;&gt;Node9728</title>
<path fill="none" stroke="#191970" d="M449.5307,-1335.5994C472.6336,-1340.8139 501.1086,-1347.2408 524.1789,-1352.4479"/>
<polygon fill="#191970" stroke="#191970" points="450.1873,-1332.1596 439.6621,-1333.372 448.6461,-1338.9879 450.1873,-1332.1596"/>
</g>
<!-- Node9733&#45;&gt;Node9082 -->
<g id="edge31" class="edge">
<title>Node9733&#45;&gt;Node9082</title>
<path fill="none" stroke="#191970" d="M410.6557,-649.4024C424.2151,-577.6275 472.1777,-332.0355 498,-308 528.8477,-279.2868 660.5593,-270.2186 710.3413,-267.7853"/>
<polygon fill="#191970" stroke="#191970" points="407.1899,-648.8946 408.7835,-659.3689 414.0696,-650.1869 407.1899,-648.8946"/>
</g>
<!-- Node9493 -->
<g id="node24" class="node">
<title>Node9493</title>
<g id="a_node24"><a xlink:href="fuzzer_8c.html#aa30889313cc057073351a87b2590b886" target="_top" xlink:title="LLVMFuzzerInitialize">
<polygon fill="none" stroke="#ff0000" points="512.5,-621.5 512.5,-640.5 620.5,-640.5 620.5,-621.5 512.5,-621.5"/>
<text text-anchor="middle" x="566.5" y="-628.5" font-family="Helvetica,sans-Serif" font-size="10.00" fill="#000000">LLVMFuzzerInitialize</text>
</a>
</g>
</g>
<!-- Node9733&#45;&gt;Node9493 -->
<g id="edge29" class="edge">
<title>Node9733&#45;&gt;Node9493</title>
<path fill="none" stroke="#191970" d="M441.3404,-660.8186C466.3041,-654.8711 500.1712,-646.8025 526.3809,-640.5581"/>
<polygon fill="#191970" stroke="#191970" points="440.4889,-657.4234 431.5723,-663.1458 442.1112,-664.2328 440.4889,-657.4234"/>
</g>
<!-- Node9734 -->
<g id="node25" class="node">
<title>Node9734</title>
<g id="a_node25"><a xlink:href="bin_2radmin_8c.html#a7765b48e8e41384f486eaf1e595d7d6d" target="_top" xlink:title="tab_expand_config_thing">
<polygon fill="none" stroke="#ff0000" points="504,-583.5 504,-602.5 629,-602.5 629,-583.5 504,-583.5"/>
<text text-anchor="middle" x="566.5" y="-590.5" font-family="Helvetica,sans-Serif" font-size="10.00" fill="#000000">tab_expand_config_thing</text>
</a>
</g>
</g>
<!-- Node9733&#45;&gt;Node9734 -->
<g id="edge30" class="edge">
<title>Node9733&#45;&gt;Node9734</title>
<path fill="none" stroke="#191970" d="M428.0734,-653.3272C445.9166,-640.6784 472.5781,-623.203 498,-612 506.3571,-608.3172 515.6064,-605.1759 524.5338,-602.5708"/>
<polygon fill="#191970" stroke="#191970" points="425.66,-650.7526 419.5996,-659.443 429.7567,-656.4287 425.66,-650.7526"/>
</g>
<!-- Node9737 -->
<g id="node26" class="node">
<title>Node9737</title>
<g id="a_node26"><a xlink:href="radsniff_8c.html#a9880ee49f0587ea79dbe5fa6eabe59fb" target="_top" xlink:title="rs_time_print">
<polygon fill="none" stroke="#ff0000" points="530,-545.5 530,-564.5 603,-564.5 603,-545.5 530,-545.5"/>
<text text-anchor="middle" x="566.5" y="-552.5" font-family="Helvetica,sans-Serif" font-size="10.00" fill="#000000">rs_time_print</text>
</a>
</g>
</g>
<!-- Node9733&#45;&gt;Node9737 -->
<g id="edge32" class="edge">
<title>Node9733&#45;&gt;Node9737</title>
<path fill="none" stroke="#191970" d="M419.4517,-651.0206C435.2649,-629.5368 464.5507,-593.993 498,-574 507.6399,-568.2381 519.082,-564.1718 529.8269,-561.3236"/>
<polygon fill="#191970" stroke="#191970" points="416.5113,-649.115 413.5266,-659.2808 422.1993,-653.1951 416.5113,-649.115"/>
</g>
<!-- Node9741 -->
<g id="node27" class="node">
<title>Node9741</title>
<g id="a_node27"><a xlink:href="radsniff_8c.html#aaec77f05ef713c84c7b1049b8cfa71a9" target="_top" xlink:title="rs_packet_print_fancy">
<polygon fill="none" stroke="#ff0000" points="510,-507.5 510,-526.5 623,-526.5 623,-507.5 510,-507.5"/>
<text text-anchor="middle" x="566.5" y="-514.5" font-family="Helvetica,sans-Serif" font-size="10.00" fill="#000000">rs_packet_print_fancy</text>
</a>
</g>
</g>
<!-- Node9733&#45;&gt;Node9741 -->
<g id="edge33" class="edge">
<title>Node9733&#45;&gt;Node9741</title>
<path fill="none" stroke="#191970" d="M414.908,-649.7858C427.877,-620.6906 456.4455,-565.7074 498,-536 503.4214,-532.1242 509.6035,-529.0381 515.9842,-526.581"/>
<polygon fill="#191970" stroke="#191970" points="411.578,-648.6699 410.8406,-659.2391 418.008,-651.4366 411.578,-648.6699"/>
</g>
<!-- Node9742 -->
<g id="node28" class="node">
<title>Node9742</title>
<g id="a_node28"><a xlink:href="radsniff_8c.html#a1cdbec3776eb7e9e0bfd1428701ade03" target="_top" xlink:title="rs_stats_print_code_csv">
<polygon fill="none" stroke="#000000" points="505,-659.5 505,-678.5 628,-678.5 628,-659.5 505,-659.5"/>
<text text-anchor="middle" x="566.5" y="-666.5" font-family="Helvetica,sans-Serif" font-size="10.00" fill="#000000">rs_stats_print_code_csv</text>
</a>
</g>
</g>
<!-- Node9733&#45;&gt;Node9742 -->
<g id="edge34" class="edge">
<title>Node9733&#45;&gt;Node9742</title>
<path fill="none" stroke="#191970" d="M441.8102,-669C460.2125,-669 483.3543,-669 504.6896,-669"/>
<polygon fill="#191970" stroke="#191970" points="441.5724,-665.5001 431.5723,-669 441.5723,-672.5001 441.5724,-665.5001"/>
</g>
<!-- Node9743 -->
<g id="node29" class="node">
<title>Node9743</title>
<g id="a_node29"><a xlink:href="radsniff_8c.html#a81c8174d2639ea103710670e09007042" target="_top" xlink:title="rs_stats_print_csv">
<polygon fill="none" stroke="#ff0000" points="681,-564.5 681,-583.5 778,-583.5 778,-564.5 681,-564.5"/>
<text text-anchor="middle" x="729.5" y="-571.5" font-family="Helvetica,sans-Serif" font-size="10.00" fill="#000000">rs_stats_print_csv</text>
</a>
</g>
</g>
<!-- Node9733&#45;&gt;Node9743 -->
<g id="edge36" class="edge">
<title>Node9733&#45;&gt;Node9743</title>
<path fill="none" stroke="#191970" d="M410.7079,-649.1187C418.8848,-611.6663 442.3507,-531.4241 498,-498 550.1975,-466.6491 577.5695,-477.7714 635,-498 672.9285,-511.3595 706.8646,-547.09 721.6525,-564.3731"/>
<polygon fill="#191970" stroke="#191970" points="407.2068,-648.7718 408.6423,-659.2689 414.0662,-650.1677 407.2068,-648.7718"/>
</g>
<!-- Node9745 -->
<g id="node30" class="node">
<title>Node9745</title>
<g id="a_node30"><a xlink:href="radsnmp_8c.html#a8d0c766b546248669a1a875d7db45717" target="_top" xlink:title="Write the result of a get or getnext operation back to net&#45;snmp. ">
<polygon fill="none" stroke="#ff0000" points="507.5,-431.5 507.5,-450.5 625.5,-450.5 625.5,-431.5 507.5,-431.5"/>
<text text-anchor="middle" x="566.5" y="-438.5" font-family="Helvetica,sans-Serif" font-size="10.00" fill="#000000">radsnmp_get_response</text>
</a>
</g>
</g>
<!-- Node9733&#45;&gt;Node9745 -->
<g id="edge37" class="edge">
<title>Node9733&#45;&gt;Node9745</title>
<path fill="none" stroke="#191970" d="M410.374,-649.4413C418.3189,-609.2064 441.9305,-516.6201 498,-465 504.8603,-458.6841 513.4781,-454.0143 522.2642,-450.5665"/>
<polygon fill="#191970" stroke="#191970" points="406.9236,-648.8522 408.5346,-659.3239 413.8054,-650.1332 406.9236,-648.8522"/>
</g>
<!-- Node9746 -->
<g id="node31" class="node">
<title>Node9746</title>
<g id="a_node31"><a xlink:href="radwho_8c.html#aeaec16fd026735c3a68bf1131f21f392" target="_top" xlink:title="proto">
<polygon fill="none" stroke="#ff0000" points="547.5,-393.5 547.5,-412.5 585.5,-412.5 585.5,-393.5 547.5,-393.5"/>
<text text-anchor="middle" x="566.5" y="-400.5" font-family="Helvetica,sans-Serif" font-size="10.00" fill="#000000">proto</text>
</a>
</g>
</g>
<!-- Node9733&#45;&gt;Node9746 -->
<g id="edge38" class="edge">
<title>Node9733&#45;&gt;Node9746</title>
<path fill="none" stroke="#191970" d="M408.3538,-649.2338C412.6377,-602.5381 429.9838,-484.6292 498,-422 511.4366,-409.6276 532.2318,-405.2105 547.3863,-403.6855"/>
<polygon fill="#191970" stroke="#191970" points="404.8605,-649.0104 407.5394,-659.261 411.8375,-649.5771 404.8605,-649.0104"/>
</g>
<!-- Node9748 -->
<g id="node32" class="node">
<title>Node9748</title>
<g id="a_node32"><a xlink:href="unit__test__attribute_8c.html#a23ecf41a3ab45ed638677cef039a95e1" target="_top" xlink:title="Print hex string to buffer. ">
<polygon fill="none" stroke="#ff0000" points="538.5,-317.5 538.5,-336.5 594.5,-336.5 594.5,-317.5 538.5,-317.5"/>
<text text-anchor="middle" x="566.5" y="-324.5" font-family="Helvetica,sans-Serif" font-size="10.00" fill="#000000">hex_print</text>
</a>
</g>
</g>
<!-- Node9733&#45;&gt;Node9748 -->
<g id="edge39" class="edge">
<title>Node9733&#45;&gt;Node9748</title>
<path fill="none" stroke="#191970" d="M410.2537,-649.0653C420.8295,-586.4975 455.9889,-395.5339 498,-351 508.4628,-339.9089 524.3382,-333.9406 538.1721,-330.7304"/>
<polygon fill="#191970" stroke="#191970" points="406.758,-648.7507 408.5689,-659.1896 413.663,-649.8998 406.758,-648.7507"/>
</g>
<!-- Node9755 -->
<g id="node33" class="node">
<title>Node9755</title>
<g id="a_node33"><a xlink:href="unit__test__attribute_8c.html#afd62cf24c7310a90bf764438ab5ff0ea" target="_top" xlink:title="command_encode_dns\l_label">
<polygon fill="none" stroke="#000000" points="671,-331 671,-361 788,-361 788,-331 671,-331"/>
<text text-anchor="start" x="679" y="-349" font-family="Helvetica,sans-Serif" font-size="10.00" fill="#000000">command_encode_dns</text>
<text text-anchor="middle" x="729.5" y="-338" font-family="Helvetica,sans-Serif" font-size="10.00" fill="#000000">_label</text>
</a>
</g>
</g>
<!-- Node9733&#45;&gt;Node9755 -->
<g id="edge47" class="edge">
<title>Node9733&#45;&gt;Node9755</title>
<path fill="none" stroke="#191970" d="M410.5389,-649.3351C421.4642,-590.8571 456.4434,-419.8793 498,-384 523.2407,-362.2076 610.9093,-352.7464 670.8148,-348.7576"/>
<polygon fill="#191970" stroke="#191970" points="407.0439,-648.9896 408.6797,-659.4574 413.9287,-650.2542 407.0439,-648.9896"/>
</g>
<!-- Node9759 -->
<g id="node34" class="node">
<title>Node9759</title>
<g id="a_node34"><a xlink:href="unit__test__attribute_8c.html#a752a4dcf3b280da9e2c1ed018689bd04" target="_top" xlink:title="Concatenate error stack. ">
<polygon fill="none" stroke="#ff0000" points="525.5,-1188.5 525.5,-1207.5 607.5,-1207.5 607.5,-1188.5 525.5,-1188.5"/>
<text text-anchor="middle" x="566.5" y="-1195.5" font-family="Helvetica,sans-Serif" font-size="10.00" fill="#000000">strerror_concat</text>
</a>
</g>
</g>
<!-- Node9733&#45;&gt;Node9759 -->
<g id="edge41" class="edge">
<title>Node9733&#45;&gt;Node9759</title>
<path fill="none" stroke="#191970" d="M441.3491,-674.1796C449.2761,-677.0013 456.8766,-681.3395 462,-688 528.7037,-774.7171 428.6385,-1094.3938 498,-1179 504.8072,-1187.3033 514.8989,-1192.1573 525.2566,-1194.9476"/>
<polygon fill="#191970" stroke="#191970" points="442.2378,-670.7937 431.6625,-671.4355 440.3299,-677.5286 442.2378,-670.7937"/>
</g>
<!-- Node9761 -->
<g id="node35" class="node">
<title>Node9761</title>
<g id="a_node35"><a xlink:href="unit__test__attribute_8c.html#ada70b532b2935b27a322ed90ce2c4ccb" target="_top" xlink:title="load_proto_library">
<polygon fill="none" stroke="#ff0000" points="520,-1150.5 520,-1169.5 613,-1169.5 613,-1150.5 520,-1150.5"/>
<text text-anchor="middle" x="566.5" y="-1157.5" font-family="Helvetica,sans-Serif" font-size="10.00" fill="#000000">load_proto_library</text>
</a>
</g>
</g>
<!-- Node9733&#45;&gt;Node9761 -->
<g id="edge42" class="edge">
<title>Node9733&#45;&gt;Node9761</title>
<path fill="none" stroke="#191970" d="M441.3213,-674.201C449.2487,-677.0225 456.8563,-681.3551 462,-688 523.8145,-767.8546 433.7382,-1063.1013 498,-1141 503.6545,-1147.8545 511.5468,-1152.3562 519.9709,-1155.2865"/>
<polygon fill="#191970" stroke="#191970" points="442.2127,-670.8159 431.6372,-671.455 440.303,-677.5504 442.2127,-670.8159"/>
</g>
<!-- Node9763 -->
<g id="node36" class="node">
<title>Node9763</title>
<g id="a_node36"><a xlink:href="unit__test__attribute_8c.html#aa9158387f302b28880e129790bb5098f" target="_top" xlink:title="load_test_point_by\l_command">
<polygon fill="none" stroke="#ff0000" points="517.5,-1101 517.5,-1131 615.5,-1131 615.5,-1101 517.5,-1101"/>
<text text-anchor="start" x="525.5" y="-1119" font-family="Helvetica,sans-Serif" font-size="10.00" fill="#000000">load_test_point_by</text>
<text text-anchor="middle" x="566.5" y="-1108" font-family="Helvetica,sans-Serif" font-size="10.00" fill="#000000">_command</text>
</a>
</g>
</g>
<!-- Node9733&#45;&gt;Node9763 -->
<g id="edge43" class="edge">
<title>Node9733&#45;&gt;Node9763</title>
<path fill="none" stroke="#191970" d="M441.2769,-674.2355C449.2048,-677.0566 456.8238,-681.3804 462,-688 517.3845,-758.8291 443.2311,-1019.6939 498,-1091 503.0125,-1097.5259 509.8956,-1102.3496 517.3763,-1105.9148"/>
<polygon fill="#191970" stroke="#191970" points="442.1726,-670.8516 431.5968,-671.4865 440.2602,-677.5853 442.1726,-670.8516"/>
</g>
<!-- Node9766 -->
<g id="node37" class="node">
<title>Node9766</title>
<g id="a_node37"><a xlink:href="unit__test__attribute_8c.html#ae6067967dae3ff5100ff5a6213cf7136" target="_top" xlink:title="command_radmin_add">
<polygon fill="none" stroke="#000000" points="509,-1062.5 509,-1081.5 624,-1081.5 624,-1062.5 509,-1062.5"/>
<text text-anchor="middle" x="566.5" y="-1069.5" font-family="Helvetica,sans-Serif" font-size="10.00" fill="#000000">command_radmin_add</text>
</a>
</g>
</g>
<!-- Node9733&#45;&gt;Node9766 -->
<g id="edge44" class="edge">
<title>Node9733&#45;&gt;Node9766</title>
<path fill="none" stroke="#191970" d="M441.2352,-674.2683C449.1637,-677.0889 456.7934,-681.4043 462,-688 563.0021,-815.9478 393.0776,-928.2468 498,-1053 501.1774,-1056.778 505.0343,-1059.8392 509.2807,-1062.3155"/>
<polygon fill="#191970" stroke="#191970" points="442.1349,-670.8854 431.5589,-671.5162 440.2199,-677.6184 442.1349,-670.8854"/>
</g>
<!-- Node9767 -->
<g id="node38" class="node">
<title>Node9767</title>
<g id="a_node38"><a xlink:href="unit__test__attribute_8c.html#a619c48d23d9f6c59e5347bbe3817d335" target="_top" xlink:title="command_radmin_tab">
<polygon fill="none" stroke="#000000" points="510,-1024.5 510,-1043.5 623,-1043.5 623,-1024.5 510,-1024.5"/>
<text text-anchor="middle" x="566.5" y="-1031.5" font-family="Helvetica,sans-Serif" font-size="10.00" fill="#000000">command_radmin_tab</text>
</a>
</g>
</g>
<!-- Node9733&#45;&gt;Node9767 -->
<g id="edge45" class="edge">
<title>Node9733&#45;&gt;Node9767</title>
<path fill="none" stroke="#191970" d="M441.1842,-674.3088C449.1133,-677.1289 456.7561,-681.434 462,-688 553.243,-802.2475 403.257,-903.6378 498,-1015 501.3588,-1018.9479 505.4592,-1022.1118 509.9676,-1024.6428"/>
<polygon fill="#191970" stroke="#191970" points="442.0888,-670.9273 431.5125,-671.5531 440.1706,-677.6593 442.0888,-670.9273"/>
</g>
<!-- Node9768 -->
<g id="node39" class="node">
<title>Node9768</title>
<g id="a_node39"><a xlink:href="unit__test__attribute_8c.html#a97c40306ac9eeda04022fdcd9c68bc02" target="_top" xlink:title="command_count">
<polygon fill="none" stroke="#000000" points="522,-986.5 522,-1005.5 611,-1005.5 611,-986.5 522,-986.5"/>
<text text-anchor="middle" x="566.5" y="-993.5" font-family="Helvetica,sans-Serif" font-size="10.00" fill="#000000">command_count</text>
</a>
</g>
</g>
<!-- Node9733&#45;&gt;Node9768 -->
<g id="edge46" class="edge">
<title>Node9733&#45;&gt;Node9768</title>
<path fill="none" stroke="#191970" d="M441.5825,-674.5263C449.3471,-677.3474 456.8122,-681.5985 462,-688 543.4951,-788.561 413.4247,-879.0153 498,-977 504.2092,-984.1937 512.8804,-988.7789 521.9707,-991.6739"/>
<polygon fill="#191970" stroke="#191970" points="442.3155,-671.0946 431.736,-671.6634 440.3612,-677.8162 442.3155,-671.0946"/>
</g>
<!-- Node9769 -->
<g id="node40" class="node">
<title>Node9769</title>
<g id="a_node40"><a xlink:href="unit__test__attribute_8c.html#a5069660614abea00acc68b337d57bdc8" target="_top" xlink:title="command_returned">
<polygon fill="none" stroke="#000000" points="516.5,-948.5 516.5,-967.5 616.5,-967.5 616.5,-948.5 516.5,-948.5"/>
<text text-anchor="middle" x="566.5" y="-955.5" font-family="Helvetica,sans-Serif" font-size="10.00" fill="#000000">command_returned</text>
</a>
</g>
</g>
<!-- Node9733&#45;&gt;Node9769 -->
<g id="edge48" class="edge">
<title>Node9733&#45;&gt;Node9769</title>
<path fill="none" stroke="#191970" d="M441.5002,-674.5936C449.2666,-677.4133 456.7531,-681.6468 462,-688 533.7633,-774.8946 423.5757,-854.3733 498,-939 502.9716,-944.6531 509.4632,-948.6909 516.4681,-951.5623"/>
<polygon fill="#191970" stroke="#191970" points="442.2406,-671.1638 431.6606,-671.7251 440.2814,-677.8841 442.2406,-671.1638"/>
</g>
<!-- Node9770 -->
<g id="node41" class="node">
<title>Node9770</title>
<g id="a_node41"><a xlink:href="unit__test__attribute_8c.html#a9a85bf8b156562b569489660a56ee5a5" target="_top" xlink:title="Artificially limit the maximum packet size. ">
<polygon fill="none" stroke="#000000" points="498,-910.5 498,-929.5 635,-929.5 635,-910.5 498,-910.5"/>
<text text-anchor="middle" x="566.5" y="-917.5" font-family="Helvetica,sans-Serif" font-size="10.00" fill="#000000">command_max_buffer_size</text>
</a>
</g>
</g>
<!-- Node9733&#45;&gt;Node9770 -->
<g id="edge49" class="edge">
<title>Node9733&#45;&gt;Node9770</title>
<path fill="none" stroke="#191970" d="M441.3903,-674.6856C449.1591,-677.5032 456.6742,-681.7128 462,-688 524.0565,-761.2582 433.7009,-829.702 498,-901 501.4714,-904.8493 505.6475,-907.9469 510.2037,-910.4359"/>
<polygon fill="#191970" stroke="#191970" points="442.1404,-671.2584 431.5599,-671.8093 440.1747,-677.9767 442.1404,-671.2584"/>
</g>
<!-- Node9771 -->
<g id="node42" class="node">
<title>Node9771</title>
<g id="a_node42"><a xlink:href="unit__test__attribute_8c.html#abc2d73b7783aff1154dda0fdd83ccce7" target="_top" xlink:title="Parse an reprint and xlat argv expansion. ">
<polygon fill="none" stroke="#000000" points="514.5,-872.5 514.5,-891.5 618.5,-891.5 618.5,-872.5 514.5,-872.5"/>
<text text-anchor="middle" x="566.5" y="-879.5" font-family="Helvetica,sans-Serif" font-size="10.00" fill="#000000">command_xlat_argv</text>
</a>
</g>
</g>
<!-- Node9733&#45;&gt;Node9771 -->
<g id="edge50" class="edge">
<title>Node9733&#45;&gt;Node9771</title>
<path fill="none" stroke="#191970" d="M441.4372,-674.8915C449.1384,-677.7054 456.6104,-681.8616 462,-688 514.391,-747.6704 443.7832,-804.9834 498,-863 502.5502,-867.8691 508.2287,-871.5295 514.357,-874.2744"/>
<polygon fill="#191970" stroke="#191970" points="442.2819,-671.4913 431.6992,-671.9971 440.2875,-678.2012 442.2819,-671.4913"/>
</g>
<!-- Node9497 -->
<g id="node43" class="node">
<title>Node9497</title>
<g id="a_node43"><a xlink:href="unit__test__attribute_8c.html#a88738939cd10cc13f6addaf99b88e53d" target="_top" xlink:title="process_file">
<polygon fill="none" stroke="#ff0000" points="532,-834.5 532,-853.5 601,-853.5 601,-834.5 532,-834.5"/>
<text text-anchor="middle" x="566.5" y="-841.5" font-family="Helvetica,sans-Serif" font-size="10.00" fill="#000000">process_file</text>
</a>
</g>
</g>
<!-- Node9733&#45;&gt;Node9497 -->
<g id="edge51" class="edge">
<title>Node9733&#45;&gt;Node9497</title>
<path fill="none" stroke="#191970" d="M441.4079,-675.1729C449.0449,-677.9793 456.4947,-682.0617 462,-688 504.8012,-734.1683 453.7873,-780.1816 498,-825 506.9271,-834.0494 519.7595,-838.8926 531.9095,-841.4493"/>
<polygon fill="#191970" stroke="#191970" points="442.3517,-671.8018 431.7666,-672.2568 440.3251,-678.502 442.3517,-671.8018"/>
</g>
<!-- Node9376 -->
<g id="node44" class="node">
<title>Node9376</title>
<g id="a_node44"><a xlink:href="unit__test__module_8c.html#a277f9d9fc83bf520f577a9933bab37fc" target="_top" xlink:title="do_xlats">
<polygon fill="none" stroke="#ff0000" points="540,-796.5 540,-815.5 593,-815.5 593,-796.5 540,-796.5"/>
<text text-anchor="middle" x="566.5" y="-803.5" font-family="Helvetica,sans-Serif" font-size="10.00" fill="#000000">do_xlats</text>
</a>
</g>
</g>
<!-- Node9733&#45;&gt;Node9376 -->
<g id="edge52" class="edge">
<title>Node9733&#45;&gt;Node9376</title>
<path fill="none" stroke="#191970" d="M441.4843,-675.7066C448.9766,-678.4933 456.3423,-682.4329 462,-688 495.3722,-720.8375 463.6253,-755.2135 498,-787 509.3264,-797.4736 525.9235,-802.249 539.9438,-804.3938"/>
<polygon fill="#191970" stroke="#191970" points="442.2831,-672.2899 431.695,-672.6674 440.2075,-678.9751 442.2831,-672.2899"/>
</g>
<!-- Node9772 -->
<g id="node45" class="node">
<title>Node9772</title>
<g id="a_node45"><a xlink:href="load_8h.html#acd6bd1d8dfef069786e02f0230f8be18" target="_top" xlink:title="Print load generator statistics in CVS format. ">
<polygon fill="none" stroke="#ff0000" points="507,-747 507,-777 626,-777 626,-747 507,-747"/>
<text text-anchor="start" x="515" y="-765" font-family="Helvetica,sans-Serif" font-size="10.00" fill="#000000">fr_load_generator_stats</text>
<text text-anchor="middle" x="566.5" y="-754" font-family="Helvetica,sans-Serif" font-size="10.00" fill="#000000">_sprint</text>
</a>
</g>
</g>
<!-- Node9733&#45;&gt;Node9772 -->
<g id="edge53" class="edge">
<title>Node9733&#45;&gt;Node9772</title>
<path fill="none" stroke="#191970" d="M441.3081,-677.2131C448.563,-679.9152 455.8707,-683.4394 462,-688 483.9687,-704.3463 476.0671,-721.6056 498,-738 502.5419,-741.395 507.6036,-744.338 512.8621,-746.883"/>
<polygon fill="#191970" stroke="#191970" points="442.156,-673.8078 431.5632,-674.0178 439.9749,-680.4593 442.156,-673.8078"/>
</g>
<!-- Node9774 -->
<g id="node46" class="node">
<title>Node9774</title>
<g id="a_node46"><a xlink:href="schedule_8c.html#ab81ce913beed87dea43ee1bca92744c7" target="_top" xlink:title="Entry point for worker threads. ">
<polygon fill="none" stroke="#ff0000" points="516,-698 516,-728 617,-728 617,-698 516,-698"/>
<text text-anchor="start" x="524" y="-716" font-family="Helvetica,sans-Serif" font-size="10.00" fill="#000000">fr_schedule_worker</text>
<text text-anchor="middle" x="566.5" y="-705" font-family="Helvetica,sans-Serif" font-size="10.00" fill="#000000">_thread</text>
</a>
</g>
</g>
<!-- Node9733&#45;&gt;Node9774 -->
<g id="edge54" class="edge">
<title>Node9733&#45;&gt;Node9774</title>
<path fill="none" stroke="#191970" d="M441.3415,-678.4735C463.0619,-684.4653 491.5219,-692.3164 515.814,-699.0177"/>
<polygon fill="#191970" stroke="#191970" points="442.143,-675.064 431.5723,-675.7786 440.2815,-681.8119 442.143,-675.064"/>
</g>
<!-- Node9733&#45;&gt;Node9751 -->
<g id="edge55" class="edge">
<title>Node9733&#45;&gt;Node9751</title>
<path fill="none" stroke="#191970" d="M410.4147,-649.2349C423.6727,-573.3825 472.2723,-303.7261 498,-275 506.9114,-265.05 520.1872,-259.2251 532.6854,-255.8151"/>
<polygon fill="#191970" stroke="#191970" points="406.925,-648.8737 408.6602,-659.3255 413.8216,-650.0729 406.925,-648.8737"/>
</g>
<!-- Node9742&#45;&gt;Node9743 -->
<g id="edge35" class="edge">
<title>Node9742&#45;&gt;Node9743</title>
<path fill="none" stroke="#191970" d="M620.8268,-656.1696C625.721,-654.3491 630.5166,-652.2997 635,-650 670.0308,-632.0314 704.3076,-599.7614 720.24,-583.6712"/>
<polygon fill="#191970" stroke="#191970" points="619.6892,-652.8595 611.3494,-659.394 621.9439,-659.4865 619.6892,-652.8595"/>
</g>
<!-- Node9748&#45;&gt;Node9755 -->
<g id="edge40" class="edge">
<title>Node9748&#45;&gt;Node9755</title>
<path fill="none" stroke="#191970" d="M604.634,-331.4451C624.325,-333.7403 648.7812,-336.5911 670.817,-339.1597"/>
<polygon fill="#191970" stroke="#191970" points="604.8587,-327.9476 594.5207,-330.2662 604.0482,-334.9006 604.8587,-327.9476"/>
</g>
<!-- Node10456&#45;&gt;Node10456 -->
<g id="edge58" class="edge">
<title>Node10456&#45;&gt;Node10456</title>
<path fill="none" stroke="#191970" d="M386.6306,-105.4C387.991,-110.3146 394.7808,-114 407,-114 426.5508,-114 432.2022,-104.5653 423.9542,-95.7571"/>
<polygon fill="#191970" stroke="#191970" points="390.0065,-106.3518 390.0458,-95.7571 383.4081,-104.0149 390.0065,-106.3518"/>
</g>
</g>
</svg>
