<?xml version="1.0" encoding="UTF-8" standalone="no"?>
<!DOCTYPE svg PUBLIC "-//W3C//DTD SVG 1.1//EN"
 "http://www.w3.org/Graphics/SVG/1.1/DTD/svg11.dtd">
<!-- Generated by graphviz version 2.40.1 (20161225.0304)
 -->
<!-- Title: fr_lua_run Pages: 1 -->
<svg width="835pt" height="759pt"
 viewBox="0.00 0.00 835.00 759.18" xmlns="http://www.w3.org/2000/svg" xmlns:xlink="http://www.w3.org/1999/xlink">
<g id="graph0" class="graph" transform="scale(1 1) rotate(0) translate(4 755.1797)">
<title>fr_lua_run</title>
<!-- Node19 -->
<g id="node1" class="node">
<title>Node19</title>
<polygon fill="#bfbfbf" stroke="#000000" points="0,-95.5 0,-114.5 59,-114.5 59,-95.5 0,-95.5"/>
<text text-anchor="middle" x="29.5" y="-102.5" font-family="Helvetica,sans-Serif" font-size="10.00" fill="#000000">fr_lua_run</text>
</g>
<!-- Node20 -->
<g id="node2" class="node">
<title>Node20</title>
<g id="a_node2"><a xlink:href="lua_8h.html#aa6abae7df89305aca9cce2c2bb6d33e1" target="_top" xlink:title="Set the thread local instance. ">
<polygon fill="none" stroke="#000000" points="106.5,-152.5 106.5,-171.5 204.5,-171.5 204.5,-152.5 106.5,-152.5"/>
<text text-anchor="middle" x="155.5" y="-159.5" font-family="Helvetica,sans-Serif" font-size="10.00" fill="#000000">fr_lua_util_set_inst</text>
</a>
</g>
</g>
<!-- Node19&#45;&gt;Node20 -->
<g id="edge1" class="edge">
<title>Node19&#45;&gt;Node20</title>
<path fill="none" stroke="#191970" d="M43.8381,-114.5659C56.7919,-122.9008 76.593,-134.8901 95,-143 100.0374,-145.2194 105.4149,-147.2966 110.8076,-149.2026"/>
<polygon fill="#191970" stroke="#191970" points="109.8666,-152.5786 120.4605,-152.442 112.0937,-145.9423 109.8666,-152.5786"/>
</g>
<!-- Node21 -->
<g id="node3" class="node">
<title>Node21</title>
<g id="a_node3"><a xlink:href="lua_8h.html#a606e3c38719b3854bdcbfb602de4132d" target="_top" xlink:title="Set the thread local request. ">
<polygon fill="none" stroke="#000000" points="98,-114.5 98,-133.5 213,-133.5 213,-114.5 98,-114.5"/>
<text text-anchor="middle" x="155.5" y="-121.5" font-family="Helvetica,sans-Serif" font-size="10.00" fill="#000000">fr_lua_util_set_request</text>
</a>
</g>
</g>
<!-- Node19&#45;&gt;Node21 -->
<g id="edge2" class="edge">
<title>Node19&#45;&gt;Node21</title>
<path fill="none" stroke="#191970" d="M59.0414,-109.4547C67.77,-110.7709 77.7056,-112.2691 87.8031,-113.7917"/>
<polygon fill="#191970" stroke="#191970" points="87.5057,-117.2864 97.9158,-115.3167 88.5495,-110.3646 87.5057,-117.2864"/>
</g>
<!-- Node22 -->
<g id="node4" class="node">
<title>Node22</title>
<g id="a_node4"><a xlink:href="lua_8c.html#a1c05d6aefdc921494ce64aaecea20ee9" target="_top" xlink:title="_lua_fr_request_register">
<polygon fill="none" stroke="#000000" points="95,-76.5 95,-95.5 216,-95.5 216,-76.5 95,-76.5"/>
<text text-anchor="middle" x="155.5" y="-83.5" font-family="Helvetica,sans-Serif" font-size="10.00" fill="#000000">_lua_fr_request_register</text>
</a>
</g>
</g>
<!-- Node19&#45;&gt;Node22 -->
<g id="edge3" class="edge">
<title>Node19&#45;&gt;Node22</title>
<path fill="none" stroke="#191970" d="M59.0414,-100.5453C66.9471,-99.3532 75.8431,-98.0118 84.9526,-96.6381"/>
<polygon fill="#191970" stroke="#191970" points="85.5182,-100.0925 94.8845,-95.1404 84.4744,-93.1707 85.5182,-100.0925"/>
</g>
<!-- Node228 -->
<g id="node29" class="node">
<title>Node228</title>
<g id="a_node29"><a xlink:href="lua_8c.html#a31cb9d787b0c8c62008379a0085f704c" target="_top" xlink:title="Resolve a path string to a field value in Lua. ">
<polygon fill="none" stroke="#000000" points="114,-19.5 114,-38.5 197,-38.5 197,-19.5 114,-19.5"/>
<text text-anchor="middle" x="155.5" y="-26.5" font-family="Helvetica,sans-Serif" font-size="10.00" fill="#000000">fr_lua_get_field</text>
</a>
</g>
</g>
<!-- Node19&#45;&gt;Node228 -->
<g id="edge44" class="edge">
<title>Node19&#45;&gt;Node228</title>
<path fill="none" stroke="#191970" d="M45.458,-95.3745C67.0438,-82.3546 105.7477,-59.0093 131.0236,-43.7636"/>
<polygon fill="#191970" stroke="#191970" points="132.9164,-46.7093 139.6716,-38.5473 129.3009,-40.7153 132.9164,-46.7093"/>
</g>
<!-- Node23 -->
<g id="node5" class="node">
<title>Node23</title>
<g id="a_node5"><a xlink:href="pair_8c.html#acc50c595dbf119f3e709aa0e60520f61" target="_top" xlink:title="Sort a linked list of fr_pair_ts using merge sort. ">
<polygon fill="none" stroke="#000000" points="270,-76.5 270,-95.5 353,-95.5 353,-76.5 270,-76.5"/>
<text text-anchor="middle" x="311.5" y="-83.5" font-family="Helvetica,sans-Serif" font-size="10.00" fill="#000000">fr_pair_list_sort</text>
</a>
</g>
</g>
<!-- Node22&#45;&gt;Node23 -->
<g id="edge4" class="edge">
<title>Node22&#45;&gt;Node23</title>
<path fill="none" stroke="#191970" d="M216.2604,-86C230.5768,-86 245.7089,-86 259.5941,-86"/>
<polygon fill="#191970" stroke="#191970" points="259.935,-89.5001 269.935,-86 259.9349,-82.5001 259.935,-89.5001"/>
</g>
<!-- Node26 -->
<g id="node8" class="node">
<title>Node26</title>
<g id="a_node8"><a xlink:href="pair_8c.html#ae84505fa3c30f3122e619dd88f6087b0" target="_top" xlink:title="Order attributes by their da, and tag. ">
<polygon fill="none" stroke="#000000" points="262,-38.5 262,-57.5 361,-57.5 361,-38.5 262,-38.5"/>
<text text-anchor="middle" x="311.5" y="-45.5" font-family="Helvetica,sans-Serif" font-size="10.00" fill="#000000">fr_pair_cmp_by_da</text>
</a>
</g>
</g>
<!-- Node22&#45;&gt;Node26 -->
<g id="edge8" class="edge">
<title>Node22&#45;&gt;Node26</title>
<path fill="none" stroke="#191970" d="M194.8654,-76.411C215.4513,-71.3965 240.8405,-65.2119 262.669,-59.8947"/>
<polygon fill="#191970" stroke="#191970" points="263.5302,-63.2874 272.4177,-57.5201 261.8734,-56.4863 263.5302,-63.2874"/>
</g>
<!-- Node28 -->
<g id="node10" class="node">
<title>Node28</title>
<g id="a_node10"><a xlink:href="lua_8c.html#a8e2bc4fc931dba7f51ba4c69dfe41a94" target="_top" xlink:title="Initialise a new top level list iterator. ">
<polygon fill="none" stroke="#000000" points="409,-132.5 409,-151.5 515,-151.5 515,-132.5 409,-132.5"/>
<text text-anchor="middle" x="462" y="-139.5" font-family="Helvetica,sans-Serif" font-size="10.00" fill="#000000">_lua_list_iterator_init</text>
</a>
</g>
</g>
<!-- Node22&#45;&gt;Node28 -->
<g id="edge10" class="edge">
<title>Node22&#45;&gt;Node28</title>
<path fill="none" stroke="#191970" d="M189.1214,-95.514C197.9644,-98.2992 207.4256,-101.5357 216,-105 232.586,-111.7012 234.7931,-118.109 252,-123 299.9821,-136.6386 356.3824,-141.1412 398.6447,-142.3695"/>
<polygon fill="#191970" stroke="#191970" points="398.7175,-145.8721 408.7976,-142.6098 398.8832,-138.874 398.7175,-145.8721"/>
</g>
<!-- Node186 -->
<g id="node16" class="node">
<title>Node186</title>
<g id="a_node16"><a xlink:href="lua_8c.html#ad9a549b29dda05f6248fa52a59cc4bf1" target="_top" xlink:title="Initialise and return a new accessor table. ">
<polygon fill="none" stroke="#000000" points="252,-274.5 252,-293.5 371,-293.5 371,-274.5 252,-274.5"/>
<text text-anchor="middle" x="311.5" y="-281.5" font-family="Helvetica,sans-Serif" font-size="10.00" fill="#000000">_lua_pair_accessor_init</text>
</a>
</g>
</g>
<!-- Node22&#45;&gt;Node186 -->
<g id="edge17" class="edge">
<title>Node22&#45;&gt;Node186</title>
<path fill="none" stroke="#191970" d="M200.2034,-95.5961C205.8893,-98.0523 211.3397,-101.1341 216,-105 242.9907,-127.3898 285.7726,-223.2477 303.4499,-264.7356"/>
<polygon fill="#191970" stroke="#191970" points="300.2625,-266.1846 307.3784,-274.0342 306.7106,-263.4604 300.2625,-266.1846"/>
</g>
<!-- Node23&#45;&gt;Node23 -->
<g id="edge6" class="edge">
<title>Node23&#45;&gt;Node23</title>
<path fill="none" stroke="#191970" d="M288.3806,-95.7571C277.1334,-104.5653 284.8398,-114 311.5,-114 328.9957,-114 338.3288,-109.9368 339.4991,-104.6539"/>
<polygon fill="#191970" stroke="#191970" points="342.4971,-102.8417 334.6194,-95.7571 336.3597,-106.208 342.4971,-102.8417"/>
</g>
<!-- Node24 -->
<g id="node6" class="node">
<title>Node24</title>
<g id="a_node6"><a xlink:href="pair_8c.html#a224a12e1c2d5ed0da321b7cc28716d3e" target="_top" xlink:title="_pair_list_sort_split">
<polygon fill="none" stroke="#000000" points="411.5,-94.5 411.5,-113.5 512.5,-113.5 512.5,-94.5 411.5,-94.5"/>
<text text-anchor="middle" x="462" y="-101.5" font-family="Helvetica,sans-Serif" font-size="10.00" fill="#000000">_pair_list_sort_split</text>
</a>
</g>
</g>
<!-- Node23&#45;&gt;Node24 -->
<g id="edge5" class="edge">
<title>Node23&#45;&gt;Node24</title>
<path fill="none" stroke="#191970" d="M353.0232,-90.9662C367.9379,-92.7501 385.0814,-94.8004 401.2894,-96.7389"/>
<polygon fill="#191970" stroke="#191970" points="400.8871,-100.2157 411.232,-97.9281 401.7184,-93.2652 400.8871,-100.2157"/>
</g>
<!-- Node25 -->
<g id="node7" class="node">
<title>Node25</title>
<g id="a_node7"><a xlink:href="pair_8c.html#a20fbe2da953bc485b614fec401ee634d" target="_top" xlink:title="_pair_list_sort_merge">
<polygon fill="none" stroke="#000000" points="407,-56.5 407,-75.5 517,-75.5 517,-56.5 407,-56.5"/>
<text text-anchor="middle" x="462" y="-63.5" font-family="Helvetica,sans-Serif" font-size="10.00" fill="#000000">_pair_list_sort_merge</text>
</a>
</g>
</g>
<!-- Node23&#45;&gt;Node25 -->
<g id="edge7" class="edge">
<title>Node23&#45;&gt;Node25</title>
<path fill="none" stroke="#191970" d="M353.0232,-80.482C366.5254,-78.6876 381.8543,-76.6506 396.662,-74.6828"/>
<polygon fill="#191970" stroke="#191970" points="397.3497,-78.1223 406.8014,-73.3354 396.4275,-71.1833 397.3497,-78.1223"/>
</g>
<!-- Node27 -->
<g id="node9" class="node">
<title>Node27</title>
<g id="a_node9"><a xlink:href="misc_8c.html#a792763c2bb8ec50cbdfa5554b1801f8d" target="_top" xlink:title="Compares two pointers. ">
<polygon fill="none" stroke="#000000" points="421.5,-18.5 421.5,-37.5 502.5,-37.5 502.5,-18.5 421.5,-18.5"/>
<text text-anchor="middle" x="462" y="-25.5" font-family="Helvetica,sans-Serif" font-size="10.00" fill="#000000">fr_pointer_cmp</text>
</a>
</g>
</g>
<!-- Node26&#45;&gt;Node27 -->
<g id="edge9" class="edge">
<title>Node26&#45;&gt;Node27</title>
<path fill="none" stroke="#191970" d="M361.1964,-41.3958C377.21,-39.2678 394.9755,-36.9069 411.0761,-34.7673"/>
<polygon fill="#191970" stroke="#191970" points="411.9292,-38.1848 421.381,-33.3979 411.007,-31.2458 411.9292,-38.1848"/>
</g>
<!-- Node29 -->
<g id="node11" class="node">
<title>Node29</title>
<g id="a_node11"><a xlink:href="lua_8h.html#ab457b4f3c97906556704d7dcee473121" target="_top" xlink:title="Get the thread local request. ">
<polygon fill="none" stroke="#000000" points="712,-284.5 712,-303.5 827,-303.5 827,-284.5 712,-284.5"/>
<text text-anchor="middle" x="769.5" y="-291.5" font-family="Helvetica,sans-Serif" font-size="10.00" fill="#000000">fr_lua_util_get_request</text>
</a>
</g>
</g>
<!-- Node28&#45;&gt;Node29 -->
<g id="edge11" class="edge">
<title>Node28&#45;&gt;Node29</title>
<path fill="none" stroke="#191970" d="M515.3753,-136.5219C561.0575,-134.3863 627.0113,-137.5725 676,-166 719.4578,-191.218 748.4864,-245.5722 761.5627,-274.6759"/>
<polygon fill="#191970" stroke="#191970" points="758.4783,-276.3619 765.6557,-284.1552 764.9048,-273.587 758.4783,-276.3619"/>
</g>
<!-- Node30 -->
<g id="node12" class="node">
<title>Node30</title>
<g id="a_node12"><a xlink:href="lua_8c.html#a5dd95edd38ccf9848205fab7223618c1" target="_top" xlink:title="_lua_list_iterator">
<polygon fill="none" stroke="#000000" points="570.5,-322.5 570.5,-341.5 658.5,-341.5 658.5,-322.5 570.5,-322.5"/>
<text text-anchor="middle" x="614.5" y="-329.5" font-family="Helvetica,sans-Serif" font-size="10.00" fill="#000000">_lua_list_iterator</text>
</a>
</g>
</g>
<!-- Node28&#45;&gt;Node30 -->
<g id="edge12" class="edge">
<title>Node28&#45;&gt;Node30</title>
<path fill="none" stroke="#191970" d="M469.7722,-151.6833C494.0365,-181.9143 568.6414,-274.8647 600.1834,-314.1629"/>
<polygon fill="#191970" stroke="#191970" points="597.5716,-316.5005 606.5606,-322.1083 603.0307,-312.1188 597.5716,-316.5005"/>
</g>
<!-- Node30&#45;&gt;Node29 -->
<g id="edge13" class="edge">
<title>Node30&#45;&gt;Node29</title>
<path fill="none" stroke="#191970" d="M653.613,-322.411C673.9748,-317.4191 699.0663,-311.2676 720.6887,-305.9666"/>
<polygon fill="#191970" stroke="#191970" points="721.7892,-309.3006 730.6682,-303.5201 720.1224,-302.5019 721.7892,-309.3006"/>
</g>
<!-- Node31 -->
<g id="node13" class="node">
<title>Node31</title>
<g id="a_node13"><a xlink:href="cursor_8c.html#a92733b72ea218ecff0bc7808fae613b7" target="_top" xlink:title="Return the item the cursor current points to. ">
<polygon fill="none" stroke="#000000" points="724.5,-322.5 724.5,-341.5 814.5,-341.5 814.5,-322.5 724.5,-322.5"/>
<text text-anchor="middle" x="769.5" y="-329.5" font-family="Helvetica,sans-Serif" font-size="10.00" fill="#000000">fr_cursor_current</text>
</a>
</g>
</g>
<!-- Node30&#45;&gt;Node31 -->
<g id="edge14" class="edge">
<title>Node30&#45;&gt;Node31</title>
<path fill="none" stroke="#191970" d="M658.5022,-332C675.7907,-332 695.8331,-332 714.0907,-332"/>
<polygon fill="#191970" stroke="#191970" points="714.3096,-335.5001 724.3096,-332 714.3095,-328.5001 714.3096,-335.5001"/>
</g>
<!-- Node32 -->
<g id="node14" class="node">
<title>Node32</title>
<g id="a_node14"><a xlink:href="lua_8c.html#a5969cb8a5da1f4aabc8adbb2ee0f1ab9" target="_top" xlink:title="Convert fr_pair_ts to Lua values. ">
<polygon fill="none" stroke="#ff0000" points="728,-436.5 728,-455.5 811,-455.5 811,-436.5 728,-436.5"/>
<text text-anchor="middle" x="769.5" y="-443.5" font-family="Helvetica,sans-Serif" font-size="10.00" fill="#000000">fr_lua_marshall</text>
</a>
</g>
</g>
<!-- Node30&#45;&gt;Node32 -->
<g id="edge15" class="edge">
<title>Node30&#45;&gt;Node32</title>
<path fill="none" stroke="#191970" d="M655.4315,-341.5283C662.5588,-344.0474 669.6987,-347.167 676,-351 709.7338,-371.5202 740.0355,-406.8884 756.4946,-428.1965"/>
<polygon fill="#191970" stroke="#191970" points="753.8541,-430.5081 762.6706,-436.3834 759.4423,-426.2924 753.8541,-430.5081"/>
</g>
<!-- Node59 -->
<g id="node15" class="node">
<title>Node59</title>
<g id="a_node15"><a xlink:href="cursor_8c.html#af6c2090d1e00319075d6def5aa2666fd" target="_top" xlink:title="Advanced the cursor to the next item. ">
<polygon fill="none" stroke="#ff0000" points="730,-512.5 730,-531.5 809,-531.5 809,-512.5 730,-512.5"/>
<text text-anchor="middle" x="769.5" y="-519.5" font-family="Helvetica,sans-Serif" font-size="10.00" fill="#000000">fr_cursor_next</text>
</a>
</g>
</g>
<!-- Node30&#45;&gt;Node59 -->
<g id="edge16" class="edge">
<title>Node30&#45;&gt;Node59</title>
<path fill="none" stroke="#191970" d="M658.7722,-339.9137C665.1421,-342.6009 671.1648,-346.1949 676,-351 713.6877,-388.4533 684.3268,-419.6425 712,-465 721.6362,-480.7941 736.564,-495.4154 748.7946,-505.8945"/>
<polygon fill="#191970" stroke="#191970" points="746.7937,-508.7814 756.7328,-512.4511 751.2515,-503.3843 746.7937,-508.7814"/>
</g>
<!-- Node186&#45;&gt;Node29 -->
<g id="edge18" class="edge">
<title>Node186&#45;&gt;Node29</title>
<path fill="none" stroke="#191970" d="M325.9342,-274.4512C376.0522,-242.5668 546.5437,-144.773 676,-199 713.1442,-214.5591 742.995,-252.8641 758.3039,-275.8009"/>
<polygon fill="#191970" stroke="#191970" points="755.4259,-277.7962 763.7845,-284.3065 761.3101,-274.0046 755.4259,-277.7962"/>
</g>
<!-- Node187 -->
<g id="node17" class="node">
<title>Node187</title>
<g id="a_node17"><a xlink:href="dict_8h.html#ae03d1c9a23982e392f1d3160a3fbcc54" target="_top" xlink:title="Locate a fr_dict_attr_t by its name. ">
<polygon fill="none" stroke="#000000" points="408,-246.5 408,-265.5 516,-265.5 516,-246.5 408,-246.5"/>
<text text-anchor="middle" x="462" y="-253.5" font-family="Helvetica,sans-Serif" font-size="10.00" fill="#000000">fr_dict_attr_by_name</text>
</a>
</g>
</g>
<!-- Node186&#45;&gt;Node187 -->
<g id="edge19" class="edge">
<title>Node186&#45;&gt;Node187</title>
<path fill="none" stroke="#191970" d="M362.8726,-274.4423C375.1015,-272.1672 388.2689,-269.7174 400.8863,-267.37"/>
<polygon fill="#191970" stroke="#191970" points="401.6678,-270.7847 410.8589,-265.5146 400.3874,-263.9028 401.6678,-270.7847"/>
</g>
<!-- Node189 -->
<g id="node19" class="node">
<title>Node189</title>
<g id="a_node19"><a xlink:href="lua_8c.html#a6da078341729c5e118070c0558692b6a" target="_top" xlink:title="_lua_pair_iterator_init">
<polygon fill="none" stroke="#000000" points="407.5,-303.5 407.5,-322.5 516.5,-322.5 516.5,-303.5 407.5,-303.5"/>
<text text-anchor="middle" x="462" y="-310.5" font-family="Helvetica,sans-Serif" font-size="10.00" fill="#000000">_lua_pair_iterator_init</text>
</a>
</g>
</g>
<!-- Node186&#45;&gt;Node189 -->
<g id="edge21" class="edge">
<title>Node186&#45;&gt;Node189</title>
<path fill="none" stroke="#191970" d="M361.1964,-293.5761C374.4936,-296.1383 388.9987,-298.9333 402.7555,-301.5841"/>
<polygon fill="#191970" stroke="#191970" points="402.1308,-305.028 412.6124,-303.4835 403.4553,-298.1545 402.1308,-305.028"/>
</g>
<!-- Node193 -->
<g id="node22" class="node">
<title>Node193</title>
<g id="a_node22"><a xlink:href="lua_8c.html#a9f8e05e238bbcfb8d6353454c85c0bd8" target="_top" xlink:title="Get an instance of an attribute. ">
<polygon fill="none" stroke="#000000" points="425,-360.5 425,-379.5 499,-379.5 499,-360.5 425,-360.5"/>
<text text-anchor="middle" x="462" y="-367.5" font-family="Helvetica,sans-Serif" font-size="10.00" fill="#000000">_lua_pair_get</text>
</a>
</g>
</g>
<!-- Node186&#45;&gt;Node193 -->
<g id="edge28" class="edge">
<title>Node186&#45;&gt;Node193</title>
<path fill="none" stroke="#191970" d="M328.1812,-293.5321C354.3982,-308.5133 405.4375,-337.6786 436.3474,-355.3414"/>
<polygon fill="#191970" stroke="#191970" points="434.8252,-358.5026 445.2441,-360.4252 438.2982,-352.4249 434.8252,-358.5026"/>
</g>
<!-- Node194 -->
<g id="node23" class="node">
<title>Node194</title>
<g id="a_node23"><a xlink:href="lua_8c.html#a4252a9d65b8aa0908c9ccf00d43d5a09" target="_top" xlink:title="Set an instance of an attribute. ">
<polygon fill="none" stroke="#000000" points="425,-588.5 425,-607.5 499,-607.5 499,-588.5 425,-588.5"/>
<text text-anchor="middle" x="462" y="-595.5" font-family="Helvetica,sans-Serif" font-size="10.00" fill="#000000">_lua_pair_set</text>
</a>
</g>
</g>
<!-- Node186&#45;&gt;Node194 -->
<g id="edge33" class="edge">
<title>Node186&#45;&gt;Node194</title>
<path fill="none" stroke="#191970" d="M316.1692,-293.7417C337.3249,-337.8805 424.3874,-519.5258 452.908,-579.0307"/>
<polygon fill="#191970" stroke="#191970" points="449.9068,-580.867 457.3853,-588.3719 456.2192,-577.8414 449.9068,-580.867"/>
</g>
<!-- Node188 -->
<g id="node18" class="node">
<title>Node188</title>
<g id="a_node18"><a xlink:href="dict__util_8c.html#a3281fffd315315079d0b063e422f8d12" target="_top" xlink:title="dict_attr_by_name">
<polygon fill="none" stroke="#ff0000" points="566,-208.5 566,-227.5 663,-227.5 663,-208.5 566,-208.5"/>
<text text-anchor="middle" x="614.5" y="-215.5" font-family="Helvetica,sans-Serif" font-size="10.00" fill="#000000">dict_attr_by_name</text>
</a>
</g>
</g>
<!-- Node187&#45;&gt;Node188 -->
<g id="edge20" class="edge">
<title>Node187&#45;&gt;Node188</title>
<path fill="none" stroke="#191970" d="M500.4822,-246.411C520.5156,-241.4191 545.2023,-235.2676 566.476,-229.9666"/>
<polygon fill="#191970" stroke="#191970" points="567.4375,-233.3341 576.2945,-227.5201 565.745,-226.5418 567.4375,-233.3341"/>
</g>
<!-- Node189&#45;&gt;Node29 -->
<g id="edge22" class="edge">
<title>Node189&#45;&gt;Node29</title>
<path fill="none" stroke="#191970" d="M482.041,-303.4336C500.1174,-295.3682 527.6758,-284.45 553,-280 606.345,-270.6262 668.0714,-276.2005 711.9317,-282.8875"/>
<polygon fill="#191970" stroke="#191970" points="711.4179,-286.3497 721.8436,-284.4638 712.5174,-279.4365 711.4179,-286.3497"/>
</g>
<!-- Node190 -->
<g id="node20" class="node">
<title>Node190</title>
<g id="a_node20"><a xlink:href="util_2pair_8h.html#a078d7dfa9ea0f6beae478c6c913aa4e2" target="_top" xlink:title="Initialise a cursor that will return only attributes matching the specified fr_dict_attr_t. ">
<polygon fill="none" stroke="#ff0000" points="553,-360.5 553,-379.5 676,-379.5 676,-360.5 553,-360.5"/>
<text text-anchor="middle" x="614.5" y="-367.5" font-family="Helvetica,sans-Serif" font-size="10.00" fill="#000000">fr_cursor_iter_by_da_init</text>
</a>
</g>
</g>
<!-- Node189&#45;&gt;Node190 -->
<g id="edge23" class="edge">
<title>Node189&#45;&gt;Node190</title>
<path fill="none" stroke="#191970" d="M483.4662,-322.6502C501.7624,-330.7091 528.8549,-342.2518 553,-351 558.9986,-353.1734 565.3806,-355.3224 571.6764,-357.3498"/>
<polygon fill="#191970" stroke="#191970" points="570.8422,-360.7565 581.4317,-360.4217 572.9447,-354.0797 570.8422,-360.7565"/>
</g>
<!-- Node192 -->
<g id="node21" class="node">
<title>Node192</title>
<g id="a_node21"><a xlink:href="lua_8c.html#ab2f56d26add9728c1eae7bf5ed12dbec" target="_top" xlink:title="_lua_pair_iterator">
<polygon fill="none" stroke="#000000" points="569,-436.5 569,-455.5 660,-455.5 660,-436.5 569,-436.5"/>
<text text-anchor="middle" x="614.5" y="-443.5" font-family="Helvetica,sans-Serif" font-size="10.00" fill="#000000">_lua_pair_iterator</text>
</a>
</g>
</g>
<!-- Node189&#45;&gt;Node192 -->
<g id="edge24" class="edge">
<title>Node189&#45;&gt;Node192</title>
<path fill="none" stroke="#191970" d="M477.5614,-322.5155C488.9322,-329.7572 504.4858,-340.2761 517,-351 534.6655,-366.1382 536.4598,-372.6397 553,-389 567.0938,-402.9405 583.5948,-418.1781 595.9545,-429.3886"/>
<polygon fill="#191970" stroke="#191970" points="593.6432,-432.0173 603.4116,-436.1198 598.3337,-426.8211 593.6432,-432.0173"/>
</g>
<!-- Node192&#45;&gt;Node29 -->
<g id="edge25" class="edge">
<title>Node192&#45;&gt;Node29</title>
<path fill="none" stroke="#191970" d="M654.0678,-436.4642C662.151,-433.0035 670.0063,-428.3206 676,-422 711.1055,-384.9801 675.9272,-349.078 712,-313 713.4496,-311.5502 715.0119,-310.2111 716.6615,-308.9741"/>
<polygon fill="#191970" stroke="#191970" points="718.783,-311.7809 725.5174,-303.6017 715.1523,-305.796 718.783,-311.7809"/>
</g>
<!-- Node192&#45;&gt;Node32 -->
<g id="edge27" class="edge">
<title>Node192&#45;&gt;Node32</title>
<path fill="none" stroke="#191970" d="M660.1668,-446C678.2499,-446 699.1315,-446 717.7694,-446"/>
<polygon fill="#191970" stroke="#191970" points="717.861,-449.5001 727.8609,-446 717.8609,-442.5001 717.861,-449.5001"/>
</g>
<!-- Node192&#45;&gt;Node59 -->
<g id="edge26" class="edge">
<title>Node192&#45;&gt;Node59</title>
<path fill="none" stroke="#191970" d="M634.1309,-455.6255C661.1506,-468.8739 709.9739,-492.813 741.0111,-508.0313"/>
<polygon fill="#191970" stroke="#191970" points="739.5089,-511.1927 750.0285,-512.4527 742.5907,-504.9076 739.5089,-511.1927"/>
</g>
<!-- Node193&#45;&gt;Node29 -->
<g id="edge29" class="edge">
<title>Node193&#45;&gt;Node29</title>
<path fill="none" stroke="#191970" d="M475.687,-360.3038C496.8426,-345.5136 536.7393,-318.453 553,-313 601.0216,-296.8962 658.2104,-292.4567 701.7484,-291.8768"/>
<polygon fill="#191970" stroke="#191970" points="701.9686,-295.3754 711.9446,-291.8077 701.9211,-288.3756 701.9686,-295.3754"/>
</g>
<!-- Node193&#45;&gt;Node32 -->
<g id="edge32" class="edge">
<title>Node193&#45;&gt;Node32</title>
<path fill="none" stroke="#191970" d="M467.4921,-379.6857C479.7177,-400.1259 511.4096,-447.2465 553,-465 613.0421,-490.6299 690.82,-472.9357 734.9323,-458.7725"/>
<polygon fill="#191970" stroke="#191970" points="736.2233,-462.0316 744.6036,-455.5493 734.0099,-455.3908 736.2233,-462.0316"/>
</g>
<!-- Node193&#45;&gt;Node59 -->
<g id="edge31" class="edge">
<title>Node193&#45;&gt;Node59</title>
<path fill="none" stroke="#191970" d="M466.5343,-379.69C477.6802,-402.3309 508.7656,-458.7651 553,-485 604.2252,-515.3812 673.5327,-522.4633 719.7906,-523.3675"/>
<polygon fill="#191970" stroke="#191970" points="719.8363,-526.868 729.8727,-523.474 719.9103,-519.8684 719.8363,-526.868"/>
</g>
<!-- Node193&#45;&gt;Node190 -->
<g id="edge30" class="edge">
<title>Node193&#45;&gt;Node190</title>
<path fill="none" stroke="#191970" d="M499.3057,-370C512.4167,-370 527.6277,-370 542.6132,-370"/>
<polygon fill="#191970" stroke="#191970" points="542.9232,-373.5001 552.9231,-370 542.9231,-366.5001 542.9232,-373.5001"/>
</g>
<!-- Node194&#45;&gt;Node29 -->
<g id="edge35" class="edge">
<title>Node194&#45;&gt;Node29</title>
<path fill="none" stroke="#191970" d="M464.3769,-588.1968C471.9517,-559.0592 498.3052,-472.2056 553,-427 597.1023,-390.5492 632.7602,-426.47 676,-389 704.2458,-364.5232 683.9942,-337.751 712,-313 713.9301,-311.2942 716.0174,-309.741 718.2141,-308.3266"/>
<polygon fill="#191970" stroke="#191970" points="719.98,-311.351 727.1285,-303.5312 716.6637,-305.1863 719.98,-311.351"/>
</g>
<!-- Node194&#45;&gt;Node59 -->
<g id="edge37" class="edge">
<title>Node194&#45;&gt;Node59</title>
<path fill="none" stroke="#191970" d="M472.7715,-607.6381C488.8621,-621.318 520.7493,-645.7334 553,-655 605.5408,-670.0966 627.4864,-680.1968 676,-655 722.3813,-630.9107 750.5837,-572.0865 762.6394,-541.3789"/>
<polygon fill="#191970" stroke="#191970" points="766,-542.3851 766.2336,-531.7928 759.4456,-539.9275 766,-542.3851"/>
</g>
<!-- Node194&#45;&gt;Node190 -->
<g id="edge36" class="edge">
<title>Node194&#45;&gt;Node190</title>
<path fill="none" stroke="#191970" d="M463.6115,-588.406C469.4862,-556.3196 492.6586,-451.54 553,-394 557.0955,-390.0947 561.8989,-386.803 566.9848,-384.0336"/>
<polygon fill="#191970" stroke="#191970" points="568.8158,-387.039 576.3528,-379.5928 565.8174,-380.7137 568.8158,-387.039"/>
</g>
<!-- Node195 -->
<g id="node24" class="node">
<title>Node195</title>
<g id="a_node24"><a xlink:href="lua_8h.html#abc863c5621ceab2e6767607b21e726e3" target="_top" xlink:title="Get the thread local instance. ">
<polygon fill="none" stroke="#000000" points="565.5,-626.5 565.5,-645.5 663.5,-645.5 663.5,-626.5 565.5,-626.5"/>
<text text-anchor="middle" x="614.5" y="-633.5" font-family="Helvetica,sans-Serif" font-size="10.00" fill="#000000">fr_lua_util_get_inst</text>
</a>
</g>
</g>
<!-- Node194&#45;&gt;Node195 -->
<g id="edge34" class="edge">
<title>Node194&#45;&gt;Node195</title>
<path fill="none" stroke="#191970" d="M499.3057,-607.2958C519.4783,-612.3225 544.6219,-618.5877 566.2669,-623.9813"/>
<polygon fill="#191970" stroke="#191970" points="565.7043,-627.448 576.2538,-626.4698 567.3968,-620.6557 565.7043,-627.448"/>
</g>
<!-- Node46 -->
<g id="node25" class="node">
<title>Node46</title>
<g id="a_node25"><a xlink:href="cursor_8c.html#a6194bc92357e84dc8720ffd5ccaaeb42" target="_top" xlink:title="Remove the current item. ">
<polygon fill="none" stroke="#ff0000" points="568.5,-588.5 568.5,-607.5 660.5,-607.5 660.5,-588.5 568.5,-588.5"/>
<text text-anchor="middle" x="614.5" y="-595.5" font-family="Helvetica,sans-Serif" font-size="10.00" fill="#000000">fr_cursor_remove</text>
</a>
</g>
</g>
<!-- Node194&#45;&gt;Node46 -->
<g id="edge38" class="edge">
<title>Node194&#45;&gt;Node46</title>
<path fill="none" stroke="#191970" d="M499.3057,-598C517.0268,-598 538.5842,-598 558.236,-598"/>
<polygon fill="#191970" stroke="#191970" points="558.3085,-601.5001 568.3085,-598 558.3084,-594.5001 558.3085,-601.5001"/>
</g>
<!-- Node196 -->
<g id="node26" class="node">
<title>Node196</title>
<g id="a_node26"><a xlink:href="lua_8c.html#a321fc75f14c187d597a1c7b930980a4f" target="_top" xlink:title="Convert Lua values to fr_pair_ts. ">
<polygon fill="none" stroke="#ff0000" points="568,-550.5 568,-569.5 661,-569.5 661,-550.5 568,-550.5"/>
<text text-anchor="middle" x="614.5" y="-557.5" font-family="Helvetica,sans-Serif" font-size="10.00" fill="#000000">fr_lua_unmarshall</text>
</a>
</g>
</g>
<!-- Node194&#45;&gt;Node196 -->
<g id="edge39" class="edge">
<title>Node194&#45;&gt;Node196</title>
<path fill="none" stroke="#191970" d="M499.3057,-588.7042C519.4783,-583.6775 544.6219,-577.4123 566.2669,-572.0187"/>
<polygon fill="#191970" stroke="#191970" points="567.3968,-575.3443 576.2538,-569.5302 565.7043,-568.552 567.3968,-575.3443"/>
</g>
<!-- Node225 -->
<g id="node27" class="node">
<title>Node225</title>
<g id="a_node27"><a xlink:href="cursor_8c.html#ae6c7ca9a2cf93afe93f754b9bda8cb96" target="_top" xlink:title="Replace the current item. ">
<polygon fill="none" stroke="#ff0000" points="568.5,-702.5 568.5,-721.5 660.5,-721.5 660.5,-702.5 568.5,-702.5"/>
<text text-anchor="middle" x="614.5" y="-709.5" font-family="Helvetica,sans-Serif" font-size="10.00" fill="#000000">fr_cursor_replace</text>
</a>
</g>
</g>
<!-- Node194&#45;&gt;Node225 -->
<g id="edge40" class="edge">
<title>Node194&#45;&gt;Node225</title>
<path fill="none" stroke="#191970" d="M469.5101,-607.7057C483.9226,-625.7569 517.2203,-664.7638 553,-688 559.278,-692.0771 566.3556,-695.6359 573.4162,-698.6757"/>
<polygon fill="#191970" stroke="#191970" points="572.3727,-702.028 582.9571,-702.4989 574.9765,-695.5303 572.3727,-702.028"/>
</g>
<!-- Node226 -->
<g id="node28" class="node">
<title>Node226</title>
<g id="a_node28"><a xlink:href="cursor_8c.html#a6e72682a046a3eeac734da6639f1817c" target="_top" xlink:title="Insert a single item at the end of the list. ">
<polygon fill="none" stroke="#ff0000" points="723.5,-721.5 723.5,-740.5 815.5,-740.5 815.5,-721.5 723.5,-721.5"/>
<text text-anchor="middle" x="769.5" y="-728.5" font-family="Helvetica,sans-Serif" font-size="10.00" fill="#000000">fr_cursor_append</text>
</a>
</g>
</g>
<!-- Node194&#45;&gt;Node226 -->
<g id="edge43" class="edge">
<title>Node194&#45;&gt;Node226</title>
<path fill="none" stroke="#191970" d="M465.0954,-607.783C473.8925,-633.6982 501.775,-703.9809 553,-731 606.4708,-759.2037 678.2102,-751.9686 724.1573,-742.6921"/>
<polygon fill="#191970" stroke="#191970" points="725.0709,-746.0761 734.1206,-740.5668 723.6105,-739.2301 725.0709,-746.0761"/>
</g>
<!-- Node225&#45;&gt;Node59 -->
<g id="edge42" class="edge">
<title>Node225&#45;&gt;Node59</title>
<path fill="none" stroke="#191970" d="M650.9562,-702.4768C659.8264,-698.9518 668.8166,-694.2365 676,-688 723.3294,-646.9098 751.8208,-575.6982 763.4303,-541.4705"/>
<polygon fill="#191970" stroke="#191970" points="766.8299,-542.3347 766.6088,-531.7422 760.1761,-540.1606 766.8299,-542.3347"/>
</g>
<!-- Node225&#45;&gt;Node226 -->
<g id="edge41" class="edge">
<title>Node225&#45;&gt;Node226</title>
<path fill="none" stroke="#191970" d="M660.5854,-717.6492C677.146,-719.6792 696.0103,-721.9916 713.3326,-724.115"/>
<polygon fill="#191970" stroke="#191970" points="712.9729,-727.597 723.3245,-725.3398 713.8246,-720.649 712.9729,-727.597"/>
</g>
<!-- Node136 -->
<g id="node30" class="node">
<title>Node136</title>
<g id="a_node30"><a xlink:href="strlcpy_8c.html#a59f9599e77ee687b1daaa179f8b9a2f3" target="_top" xlink:title="strlcpy">
<polygon fill="none" stroke="#000000" points="288.5,-.5 288.5,-19.5 334.5,-19.5 334.5,-.5 288.5,-.5"/>
<text text-anchor="middle" x="311.5" y="-7.5" font-family="Helvetica,sans-Serif" font-size="10.00" fill="#000000">strlcpy</text>
</a>
</g>
</g>
<!-- Node228&#45;&gt;Node136 -->
<g id="edge45" class="edge">
<title>Node228&#45;&gt;Node136</title>
<path fill="none" stroke="#191970" d="M197.3051,-23.9083C222.6632,-20.8199 254.5791,-16.9327 278.219,-14.0535"/>
<polygon fill="#191970" stroke="#191970" points="278.9415,-17.4914 288.445,-12.808 278.0951,-10.5428 278.9415,-17.4914"/>
</g>
</g>
</svg>
