<?xml version="1.0" encoding="UTF-8" standalone="no"?>
<!DOCTYPE svg PUBLIC "-//W3C//DTD SVG 1.1//EN"
 "http://www.w3.org/Graphics/SVG/1.1/DTD/svg11.dtd">
<!-- Generated by graphviz version 2.40.1 (20161225.0304)
 -->
<!-- Title: fr_lua_util_log_register Pages: 1 -->
<svg width="371pt" height="66pt"
 viewBox="0.00 0.00 371.00 66.00" xmlns="http://www.w3.org/2000/svg" xmlns:xlink="http://www.w3.org/1999/xlink">
<g id="graph0" class="graph" transform="scale(1 1) rotate(0) translate(4 62)">
<title>fr_lua_util_log_register</title>
<!-- Node280 -->
<g id="node1" class="node">
<title>Node280</title>
<polygon fill="#bfbfbf" stroke="#000000" points="0,-19.5 0,-38.5 114,-38.5 114,-19.5 0,-19.5"/>
<text text-anchor="middle" x="57" y="-26.5" font-family="Helvetica,sans-Serif" font-size="10.00" fill="#000000">fr_lua_util_log_register</text>
</g>
<!-- Node281 -->
<g id="node2" class="node">
<title>Node281</title>
<g id="a_node2"><a xlink:href="lua_8h.html#ae04521f6f7e4fcb5b3b3713a23f084f2" target="_top" xlink:title="Initialise a new Lua/LuaJIT interpreter. ">
<polygon fill="none" stroke="#000000" points="150,-19.5 150,-38.5 209,-38.5 209,-19.5 150,-19.5"/>
<text text-anchor="middle" x="179.5" y="-26.5" font-family="Helvetica,sans-Serif" font-size="10.00" fill="#000000">fr_lua_init</text>
</a>
</g>
</g>
<!-- Node280&#45;&gt;Node281 -->
<g id="edge1" class="edge">
<title>Node280&#45;&gt;Node281</title>
<path fill="none" stroke="#191970" d="M124.4255,-29C133.3595,-29 142.1164,-29 149.9255,-29"/>
<polygon fill="#191970" stroke="#191970" points="124.3047,-25.5001 114.3047,-29 124.3046,-32.5001 124.3047,-25.5001"/>
</g>
<!-- Node282 -->
<g id="node3" class="node">
<title>Node282</title>
<g id="a_node3"><a xlink:href="rlm__lua_8c.html#a7e64f8cbf692e88fa25d8bd9595dbac9" target="_top" xlink:title="Create thread&#45;specific connections and buffers. ">
<polygon fill="none" stroke="#000000" points="245,-38.5 245,-57.5 363,-57.5 363,-38.5 245,-38.5"/>
<text text-anchor="middle" x="304" y="-45.5" font-family="Helvetica,sans-Serif" font-size="10.00" fill="#000000">mod_thread_instantiate</text>
</a>
</g>
</g>
<!-- Node281&#45;&gt;Node282 -->
<g id="edge2" class="edge">
<title>Node281&#45;&gt;Node282</title>
<path fill="none" stroke="#191970" d="M219.0435,-35.0348C227.269,-36.29 236.1074,-37.6389 244.8634,-38.9751"/>
<polygon fill="#191970" stroke="#191970" points="219.4184,-31.5515 209.0048,-33.5027 218.3623,-38.4714 219.4184,-31.5515"/>
</g>
<!-- Node283 -->
<g id="node4" class="node">
<title>Node283</title>
<g id="a_node4"><a xlink:href="rlm__lua_8c.html#a3c32864d8c9d017bf4625d54f415b2db" target="_top" xlink:title="mod_instantiate">
<polygon fill="none" stroke="#000000" points="261,-.5 261,-19.5 347,-19.5 347,-.5 261,-.5"/>
<text text-anchor="middle" x="304" y="-7.5" font-family="Helvetica,sans-Serif" font-size="10.00" fill="#000000">mod_instantiate</text>
</a>
</g>
</g>
<!-- Node281&#45;&gt;Node283 -->
<g id="edge3" class="edge">
<title>Node281&#45;&gt;Node283</title>
<path fill="none" stroke="#191970" d="M219.1862,-22.9435C232.3668,-20.932 247.1082,-18.6823 260.557,-16.6299"/>
<polygon fill="#191970" stroke="#191970" points="218.3623,-19.5286 209.0048,-24.4973 219.4184,-26.4485 218.3623,-19.5286"/>
</g>
</g>
</svg>
