<?xml version="1.0" encoding="UTF-8" standalone="no"?>
<!DOCTYPE svg PUBLIC "-//W3C//DTD SVG 1.1//EN"
 "http://www.w3.org/Graphics/SVG/1.1/DTD/svg11.dtd">
<!-- Generated by graphviz version 2.40.1 (20161225.0304)
 -->
<!-- Title: unlang_group_to_map Pages: 1 -->
<!--zoomable 422 -->
<svg id="main" version="1.1" xmlns="http://www.w3.org/2000/svg" xmlns:xlink="http://www.w3.org/1999/xlink" xml:space="preserve" onload="init(evt)">
<style type="text/css"><![CDATA[
.edge:hover path { stroke: red; }
.edge:hover polygon { stroke: red; fill: red; }
]]></style>
<script type="text/javascript"><![CDATA[
var edges = document.getElementsByTagName('g');
if (edges && edges.length) {
  for (var i=0;i<edges.length;i++) {
    if (edges[i].id.substr(0,4)=='edge') {
      edges[i].setAttribute('class','edge');
    }
  }
}
]]></script>
        <defs>
                <circle id="rim" cx="0" cy="0" r="7"/>
                <circle id="rim2" cx="0" cy="0" r="3.5"/>
                <g id="zoomPlus">
                        <use xlink:href="#rim" fill="#404040">
                                <set attributeName="fill" to="#808080" begin="zoomplus.mouseover" end="zoomplus.mouseout"/>
                        </use>
                        <path d="M-4,0h8M0,-4v8" fill="none" stroke="white" stroke-width="1.5" pointer-events="none"/>
                </g>
                <g id="zoomMin">
                        <use xlink:href="#rim" fill="#404040">
                                <set attributeName="fill" to="#808080" begin="zoomminus.mouseover" end="zoomminus.mouseout"/>
                        </use>
                        <path d="M-4,0h8" fill="none" stroke="white" stroke-width="1.5" pointer-events="none"/>
                </g>
                <g id="dirArrow">
                        <path fill="none" stroke="white" stroke-width="1.5" d="M0,-3.0v7 M-2.5,-0.5L0,-3.0L2.5,-0.5"/>
                </g>
               <g id="resetDef">
                       <use xlink:href="#rim2" fill="#404040">
                               <set attributeName="fill" to="#808080" begin="reset.mouseover" end="reset.mouseout"/>
                       </use>
               </g>
        </defs>

<script type="text/javascript">
var viewWidth = 865;
var viewHeight = 422;
var sectionId = 'dynsection-3';
</script>
<script xlink:href="svgpan.js"/>
<svg id="graph" class="graph">
<g id="viewport">
<title>unlang_group_to_map</title>
<!-- Node1 -->
<g id="node1" class="node">
<title>Node1</title>
<polygon fill="#bfbfbf" stroke="#000000" points="0,-171.5 0,-190.5 112,-190.5 112,-171.5 0,-171.5"/>
<text text-anchor="middle" x="56" y="-178.5" font-family="Helvetica,sans-Serif" font-size="10.00" fill="#000000">unlang_group_to_map</text>
</g>
<!-- Node2 -->
<g id="node2" class="node">
<title>Node2</title>
<g id="a_node2"><a xlink:href="lib_2unlang_2map_8c.html#a556b6df1933cba6c5980602a1ae115b4" target="_top" xlink:title="Execute an update block. ">
<polygon fill="none" stroke="#000000" points="148,-266.5 148,-285.5 273,-285.5 273,-266.5 148,-266.5"/>
<text text-anchor="middle" x="210.5" y="-273.5" font-family="Helvetica,sans-Serif" font-size="10.00" fill="#000000">unlang_update_state_init</text>
</a>
</g>
</g>
<!-- Node1&#45;&gt;Node2 -->
<g id="edge1" class="edge">
<title>Node1&#45;&gt;Node2</title>
<path fill="none" stroke="#191970" d="M74.1551,-197.6009C91.9436,-213.2158 120.3389,-236.4565 148,-252 158.133,-257.694 169.8863,-262.6017 180.4479,-266.4685"/>
<polygon fill="#191970" stroke="#191970" points="76.1165,-194.6604 66.3243,-190.6151 71.4566,-199.8839 76.1165,-194.6604"/>
</g>
<!-- Node47 -->
<g id="node9" class="node">
<title>Node47</title>
<g id="a_node9"><a xlink:href="lib_2unlang_2map_8c.html#ae2f1d63a1f0c479530fde5490a59e861" target="_top" xlink:title="unlang_map_state_init">
<polygon fill="none" stroke="#000000" points="743,-285.5 743,-304.5 857,-304.5 857,-285.5 743,-285.5"/>
<text text-anchor="middle" x="800" y="-292.5" font-family="Helvetica,sans-Serif" font-size="10.00" fill="#000000">unlang_map_state_init</text>
</a>
</g>
</g>
<!-- Node1&#45;&gt;Node47 -->
<g id="edge12" class="edge">
<title>Node1&#45;&gt;Node47</title>
<path fill="none" stroke="#191970" d="M65.969,-199.6892C80.546,-225.182 110.1116,-270.4826 148,-295 231.7173,-349.1731 265.2839,-352 365,-352 365,-352 365,-352 516.5,-352 601.5867,-352 624.4265,-353.5272 707,-333 733.7438,-326.3517 762.9013,-313.4349 781.3059,-304.5198"/>
<polygon fill="#191970" stroke="#191970" points="68.8829,-197.7268 60.9719,-190.6793 62.7614,-201.1219 68.8829,-197.7268"/>
</g>
<!-- Node50 -->
<g id="node10" class="node">
<title>Node50</title>
<g id="a_node10"><a xlink:href="lib_2unlang_2map_8c.html#aad3ff7f01dcca1e7f05db20418c755f0" target="_top" xlink:title="map_proc_apply">
<polygon fill="none" stroke="#000000" points="472.5,-380.5 472.5,-399.5 560.5,-399.5 560.5,-380.5 472.5,-380.5"/>
<text text-anchor="middle" x="516.5" y="-387.5" font-family="Helvetica,sans-Serif" font-size="10.00" fill="#000000">map_proc_apply</text>
</a>
</g>
</g>
<!-- Node1&#45;&gt;Node50 -->
<g id="edge10" class="edge">
<title>Node1&#45;&gt;Node50</title>
<path fill="none" stroke="#191970" d="M59.2402,-200.7897C66.8242,-240.0217 89.7112,-327.2104 148,-366 249.2756,-433.3961 402.8696,-414.0682 475.5839,-399.5509"/>
<polygon fill="#191970" stroke="#191970" points="62.6711,-200.0931 57.4561,-190.8707 55.7817,-201.3324 62.6711,-200.0931"/>
</g>
<!-- Node51 -->
<g id="node11" class="node">
<title>Node51</title>
<g id="a_node11"><a xlink:href="compile_8c.html#a9aeaf2ef1abb0bd2d4a838d45223df6e" target="_top" xlink:title="pass2_fixup_update">
<polygon fill="none" stroke="#000000" points="158.5,-114.5 158.5,-133.5 262.5,-133.5 262.5,-114.5 158.5,-114.5"/>
<text text-anchor="middle" x="210.5" y="-121.5" font-family="Helvetica,sans-Serif" font-size="10.00" fill="#000000">pass2_fixup_update</text>
</a>
</g>
</g>
<!-- Node1&#45;&gt;Node51 -->
<g id="edge13" class="edge">
<title>Node1&#45;&gt;Node51</title>
<path fill="none" stroke="#191970" d="M91.4143,-167.9345C119.8133,-157.4572 159.0138,-142.9949 184.5558,-133.5716"/>
<polygon fill="#191970" stroke="#191970" points="90.0302,-164.7145 81.8598,-171.4595 92.4532,-171.2818 90.0302,-164.7145"/>
</g>
<!-- Node52 -->
<g id="node12" class="node">
<title>Node52</title>
<g id="a_node12"><a xlink:href="compile_8c.html#a84bb635e1a43bda69a0a9215ab0e0fe2" target="_top" xlink:title="pass2_fixup_map_rhs">
<polygon fill="none" stroke="#000000" points="309,-152.5 309,-171.5 421,-171.5 421,-152.5 309,-152.5"/>
<text text-anchor="middle" x="365" y="-159.5" font-family="Helvetica,sans-Serif" font-size="10.00" fill="#000000">pass2_fixup_map_rhs</text>
</a>
</g>
</g>
<!-- Node1&#45;&gt;Node52 -->
<g id="edge18" class="edge">
<title>Node1&#45;&gt;Node52</title>
<path fill="none" stroke="#191970" d="M122.4117,-176.9164C177.9625,-173.5007 256.33,-168.682 308.8104,-165.455"/>
<polygon fill="#191970" stroke="#191970" points="122.0824,-173.43 112.3161,-177.5372 122.512,-180.4168 122.0824,-173.43"/>
</g>
<!-- Node53 -->
<g id="node13" class="node">
<title>Node53</title>
<g id="a_node13"><a xlink:href="compile_8c.html#aa28bac487956ab81dce9f1c5abb6dbcb" target="_top" xlink:title="compile_map">
<polygon fill="none" stroke="#000000" points="479.5,-152.5 479.5,-171.5 553.5,-171.5 553.5,-152.5 479.5,-152.5"/>
<text text-anchor="middle" x="516.5" y="-159.5" font-family="Helvetica,sans-Serif" font-size="10.00" fill="#000000">compile_map</text>
</a>
</g>
</g>
<!-- Node1&#45;&gt;Node53 -->
<g id="edge23" class="edge">
<title>Node1&#45;&gt;Node53</title>
<path fill="none" stroke="#191970" d="M82.5589,-195.2366C100.4794,-204.0117 124.9735,-214.4317 148,-219 267.2722,-242.6628 303.3159,-231.5978 421,-201 448.3859,-193.8797 478.3452,-180.6926 497.2696,-171.6397"/>
<polygon fill="#191970" stroke="#191970" points="83.8348,-191.96 73.3304,-190.5783 80.6805,-198.2091 83.8348,-191.96"/>
</g>
<!-- Node54 -->
<g id="node14" class="node">
<title>Node54</title>
<g id="a_node14"><a xlink:href="compile_8c.html#a2c5548ec6bd0480d8a6270b5b8cdf6fb" target="_top" xlink:title="compile_update">
<polygon fill="none" stroke="#000000" points="322.5,-104.5 322.5,-123.5 407.5,-123.5 407.5,-104.5 322.5,-104.5"/>
<text text-anchor="middle" x="365" y="-111.5" font-family="Helvetica,sans-Serif" font-size="10.00" fill="#000000">compile_update</text>
</a>
</g>
</g>
<!-- Node1&#45;&gt;Node54 -->
<g id="edge24" class="edge">
<title>Node1&#45;&gt;Node54</title>
<path fill="none" stroke="#191970" d="M70.2274,-163.6164C86.691,-145.0128 115.71,-116.6123 148,-105 208.6731,-83.1805 285.1123,-94.5261 329.1838,-104.4658"/>
<polygon fill="#191970" stroke="#191970" points="67.4259,-161.507 63.5799,-171.3791 72.7428,-166.0601 67.4259,-161.507"/>
</g>
<!-- Node55 -->
<g id="node15" class="node">
<title>Node55</title>
<g id="a_node15"><a xlink:href="compile_8c.html#a8f8143736e96cbff13c9f62a5d852e0d" target="_top" xlink:title="compile_filter">
<polygon fill="none" stroke="#000000" points="328,-57.5 328,-76.5 402,-76.5 402,-57.5 328,-57.5"/>
<text text-anchor="middle" x="365" y="-64.5" font-family="Helvetica,sans-Serif" font-size="10.00" fill="#000000">compile_filter</text>
</a>
</g>
</g>
<!-- Node1&#45;&gt;Node55 -->
<g id="edge25" class="edge">
<title>Node1&#45;&gt;Node55</title>
<path fill="none" stroke="#191970" d="M68.0151,-162.9765C83.6083,-141.2564 113.0044,-105.613 148,-89 206.1534,-61.3935 282.7643,-60.7504 327.6744,-63.4337"/>
<polygon fill="#191970" stroke="#191970" points="65.0372,-161.1284 62.2012,-171.3366 70.7841,-165.125 65.0372,-161.1284"/>
</g>
<!-- Node56 -->
<g id="node16" class="node">
<title>Node56</title>
<g id="a_node16"><a xlink:href="compile_8c.html#a0edff470d5d43efaccf440690bd8bf61" target="_top" xlink:title="unlang_dump">
<polygon fill="none" stroke="#000000" points="173.5,-.5 173.5,-19.5 247.5,-19.5 247.5,-.5 173.5,-.5"/>
<text text-anchor="middle" x="210.5" y="-7.5" font-family="Helvetica,sans-Serif" font-size="10.00" fill="#000000">unlang_dump</text>
</a>
</g>
</g>
<!-- Node1&#45;&gt;Node56 -->
<g id="edge19" class="edge">
<title>Node1&#45;&gt;Node56</title>
<path fill="none" stroke="#191970" d="M63.35,-161.6075C76.0572,-130.5234 104.9728,-69.4477 148,-34 155.5356,-27.7919 164.855,-23.0738 173.9764,-19.5364"/>
<polygon fill="#191970" stroke="#191970" points="59.9556,-160.6739 59.5347,-171.2604 66.4655,-163.247 59.9556,-160.6739"/>
</g>
<!-- Node57 -->
<g id="node18" class="node">
<title>Node57</title>
<g id="a_node18"><a xlink:href="compile_8c.html#a2b368722df4690d7e45d16964fcd749a" target="_top" xlink:title="compile_map_name">
<polygon fill="none" stroke="#000000" points="158.5,-190.5 158.5,-209.5 262.5,-209.5 262.5,-190.5 158.5,-190.5"/>
<text text-anchor="middle" x="210.5" y="-197.5" font-family="Helvetica,sans-Serif" font-size="10.00" fill="#000000">compile_map_name</text>
</a>
</g>
</g>
<!-- Node1&#45;&gt;Node57 -->
<g id="edge21" class="edge">
<title>Node1&#45;&gt;Node57</title>
<path fill="none" stroke="#191970" d="M122.2637,-189.1489C134.3608,-190.6366 146.8249,-192.1694 158.4365,-193.5974"/>
<polygon fill="#191970" stroke="#191970" points="122.5676,-185.66 112.2151,-187.9132 121.7131,-192.6077 122.5676,-185.66"/>
</g>
<!-- Node3 -->
<g id="node3" class="node">
<title>Node3</title>
<g id="a_node3"><a xlink:href="unlang__priv_8h.html#a4acb4f0c9e4b6bbaf8be96f442bf5d2a" target="_top" xlink:title="unlang_map_init">
<polygon fill="none" stroke="#000000" points="321.5,-266.5 321.5,-285.5 408.5,-285.5 408.5,-266.5 321.5,-266.5"/>
<text text-anchor="middle" x="365" y="-273.5" font-family="Helvetica,sans-Serif" font-size="10.00" fill="#000000">unlang_map_init</text>
</a>
</g>
</g>
<!-- Node2&#45;&gt;Node3 -->
<g id="edge2" class="edge">
<title>Node2&#45;&gt;Node3</title>
<path fill="none" stroke="#191970" d="M283.5791,-276C296.4201,-276 309.4153,-276 321.1398,-276"/>
<polygon fill="#191970" stroke="#191970" points="283.3411,-272.5001 273.3411,-276 283.341,-279.5001 283.3411,-272.5001"/>
</g>
<!-- Node4 -->
<g id="node4" class="node">
<title>Node4</title>
<g id="a_node4"><a xlink:href="unlang_2base_8h.html#aad13fe29457de363df11f5dda2fbde89" target="_top" xlink:title="Initialize the unlang compiler / interpreter. ">
<polygon fill="none" stroke="#000000" points="485,-304.5 485,-323.5 548,-323.5 548,-304.5 485,-304.5"/>
<text text-anchor="middle" x="516.5" y="-311.5" font-family="Helvetica,sans-Serif" font-size="10.00" fill="#000000">unlang_init</text>
</a>
</g>
</g>
<!-- Node3&#45;&gt;Node4 -->
<g id="edge3" class="edge">
<title>Node3&#45;&gt;Node4</title>
<path fill="none" stroke="#191970" d="M413.0136,-288.043C436.5068,-293.9357 464.1297,-300.8642 484.925,-306.0802"/>
<polygon fill="#191970" stroke="#191970" points="413.7809,-284.6271 403.2298,-285.589 412.0779,-291.4168 413.7809,-284.6271"/>
</g>
<!-- Node6 -->
<g id="node6" class="node">
<title>Node6</title>
<g id="a_node6"><a xlink:href="unlang__priv_8h.html#a5fd8144991b05a0cde9a3f8b9447c82c" target="_top" xlink:title="unlang_tmpl_to_generic">
<polygon fill="none" stroke="#000000" points="457,-266.5 457,-285.5 576,-285.5 576,-266.5 457,-266.5"/>
<text text-anchor="middle" x="516.5" y="-273.5" font-family="Helvetica,sans-Serif" font-size="10.00" fill="#000000">unlang_tmpl_to_generic</text>
</a>
</g>
</g>
<!-- Node3&#45;&gt;Node6 -->
<g id="edge5" class="edge">
<title>Node3&#45;&gt;Node6</title>
<path fill="none" stroke="#191970" d="M418.9468,-276C431.2766,-276 444.4488,-276 456.9969,-276"/>
<polygon fill="#191970" stroke="#191970" points="418.8201,-272.5001 408.8201,-276 418.82,-279.5001 418.8201,-272.5001"/>
</g>
<!-- Node5 -->
<g id="node5" class="node">
<title>Node5</title>
<g id="a_node5"><a xlink:href="radiusd_8c.html#a0ddf1224851353fc92bfbff6f499fa97" target="_top" xlink:title="Entry point for the daemon. ">
<polygon fill="none" stroke="#000000" points="640.5,-304.5 640.5,-323.5 678.5,-323.5 678.5,-304.5 640.5,-304.5"/>
<text text-anchor="middle" x="659.5" y="-311.5" font-family="Helvetica,sans-Serif" font-size="10.00" fill="#000000">main</text>
</a>
</g>
</g>
<!-- Node4&#45;&gt;Node5 -->
<g id="edge4" class="edge">
<title>Node4&#45;&gt;Node5</title>
<path fill="none" stroke="#191970" d="M558.5799,-314C585.5687,-314 619.3315,-314 640.154,-314"/>
<polygon fill="#191970" stroke="#191970" points="558.2364,-310.5001 548.2363,-314 558.2363,-317.5001 558.2364,-310.5001"/>
</g>
<!-- Node7 -->
<g id="node7" class="node">
<title>Node7</title>
<g id="a_node7"><a xlink:href="compile_8c.html#a01f090f7da5123544bf98560e1670673" target="_top" xlink:title="compile_tmpl">
<polygon fill="none" stroke="#ff0000" points="622.5,-266.5 622.5,-285.5 696.5,-285.5 696.5,-266.5 622.5,-266.5"/>
<text text-anchor="middle" x="659.5" y="-273.5" font-family="Helvetica,sans-Serif" font-size="10.00" fill="#000000">compile_tmpl</text>
</a>
</g>
</g>
<!-- Node6&#45;&gt;Node7 -->
<g id="edge6" class="edge">
<title>Node6&#45;&gt;Node7</title>
<path fill="none" stroke="#191970" d="M586.6397,-276C598.9831,-276 611.3806,-276 622.36,-276"/>
<polygon fill="#191970" stroke="#191970" points="586.3163,-272.5001 576.3163,-276 586.3163,-279.5001 586.3163,-272.5001"/>
</g>
<!-- Node45 -->
<g id="node8" class="node">
<title>Node45</title>
<g id="a_node8"><a xlink:href="unlang_2tmpl_8h.html#a5c91dda2e98900942c07fa328f2fee69" target="_top" xlink:title="Push a tmpl onto the stack for evaluation. ">
<polygon fill="none" stroke="#ff0000" points="612,-228.5 612,-247.5 707,-247.5 707,-228.5 612,-228.5"/>
<text text-anchor="middle" x="659.5" y="-235.5" font-family="Helvetica,sans-Serif" font-size="10.00" fill="#000000">unlang_tmpl_push</text>
</a>
</g>
</g>
<!-- Node6&#45;&gt;Node45 -->
<g id="edge7" class="edge">
<title>Node6&#45;&gt;Node45</title>
<path fill="none" stroke="#191970" d="M562.3133,-263.8258C582.0871,-258.5713 604.8838,-252.5134 623.4266,-247.5859"/>
<polygon fill="#191970" stroke="#191970" points="561.3506,-260.4601 552.5849,-266.411 563.1484,-267.2253 561.3506,-260.4601"/>
</g>
<!-- Node45&#45;&gt;Node47 -->
<g id="edge8" class="edge">
<title>Node45&#45;&gt;Node47</title>
<path fill="none" stroke="#191970" d="M693.0852,-251.3982C697.7609,-253.274 702.502,-255.1815 707,-257 730.7701,-266.6101 757.9063,-277.7132 776.7053,-285.426"/>
<polygon fill="#191970" stroke="#191970" points="694.2628,-248.0996 683.6783,-247.6313 691.6605,-254.598 694.2628,-248.0996"/>
</g>
<!-- Node47&#45;&gt;Node3 -->
<g id="edge9" class="edge">
<title>Node47&#45;&gt;Node3</title>
<path fill="none" stroke="#191970" d="M785.5764,-277.6123C768.897,-259.005 739.53,-230.6013 707,-219 650.0202,-198.6791 471.6836,-245.4072 397.6847,-266.4236"/>
<polygon fill="#191970" stroke="#191970" points="783.1158,-280.117 792.313,-285.3767 788.4032,-275.5296 783.1158,-280.117"/>
</g>
<!-- Node50&#45;&gt;Node47 -->
<g id="edge11" class="edge">
<title>Node50&#45;&gt;Node47</title>
<path fill="none" stroke="#191970" d="M570.6515,-390.6155C609.8539,-389.3123 663.3912,-383.8586 707,-366 742.1523,-351.6044 775.5727,-320.3554 791.0346,-304.556"/>
<polygon fill="#191970" stroke="#191970" points="570.4113,-387.1203 560.5027,-390.8713 570.5878,-394.1181 570.4113,-387.1203"/>
</g>
<!-- Node51&#45;&gt;Node52 -->
<g id="edge14" class="edge">
<title>Node51&#45;&gt;Node52</title>
<path fill="none" stroke="#191970" d="M259.4521,-136.04C281.0365,-141.3488 306.041,-147.4988 326.2935,-152.4799"/>
<polygon fill="#191970" stroke="#191970" points="260.0334,-132.5787 249.4869,-133.589 258.3615,-139.3762 260.0334,-132.5787"/>
</g>
<!-- Node51&#45;&gt;Node54 -->
<g id="edge16" class="edge">
<title>Node51&#45;&gt;Node54</title>
<path fill="none" stroke="#191970" d="M273.0077,-119.9542C289.634,-118.8781 307.2066,-117.7407 322.4883,-116.7516"/>
<polygon fill="#191970" stroke="#191970" points="272.5597,-116.4758 262.8067,-120.6145 273.0119,-123.4612 272.5597,-116.4758"/>
</g>
<!-- Node51&#45;&gt;Node55 -->
<g id="edge17" class="edge">
<title>Node51&#45;&gt;Node55</title>
<path fill="none" stroke="#191970" d="M245.9143,-110.9345C274.3133,-100.4572 313.5138,-85.9949 339.0558,-76.5716"/>
<polygon fill="#191970" stroke="#191970" points="244.5302,-107.7145 236.3598,-114.4595 246.9532,-114.2818 244.5302,-107.7145"/>
</g>
<!-- Node52&#45;&gt;Node53 -->
<g id="edge15" class="edge">
<title>Node52&#45;&gt;Node53</title>
<path fill="none" stroke="#191970" d="M431.5219,-162C447.9241,-162 464.9121,-162 479.348,-162"/>
<polygon fill="#191970" stroke="#191970" points="431.413,-158.5001 421.413,-162 431.413,-165.5001 431.413,-158.5001"/>
</g>
<!-- Node32 -->
<g id="node17" class="node">
<title>Node32</title>
<g id="a_node17"><a xlink:href="compile_8h.html#a6e4f2744bda1495cdb4eb8b96d300d22" target="_top" xlink:title="unlang_compile">
<polygon fill="none" stroke="#ff0000" points="323,-.5 323,-19.5 407,-19.5 407,-.5 323,-.5"/>
<text text-anchor="middle" x="365" y="-7.5" font-family="Helvetica,sans-Serif" font-size="10.00" fill="#000000">unlang_compile</text>
</a>
</g>
</g>
<!-- Node56&#45;&gt;Node32 -->
<g id="edge20" class="edge">
<title>Node56&#45;&gt;Node32</title>
<path fill="none" stroke="#191970" d="M257.7046,-10C278.476,-10 302.6807,-10 322.838,-10"/>
<polygon fill="#191970" stroke="#191970" points="257.5066,-6.5001 247.5066,-10 257.5066,-13.5001 257.5066,-6.5001"/>
</g>
<!-- Node57&#45;&gt;Node53 -->
<g id="edge22" class="edge">
<title>Node57&#45;&gt;Node53</title>
<path fill="none" stroke="#191970" d="M272.666,-196.1327C314.6837,-193.0916 371.3435,-188.16 421,-181 440.4089,-178.2014 461.8367,-174.038 479.4688,-170.3211"/>
<polygon fill="#191970" stroke="#191970" points="272.3111,-192.649 262.5833,-196.8466 272.8056,-199.6315 272.3111,-192.649"/>
</g>
</g>
</svg>
        <g id="navigator" transform="translate(0 0)" fill="#404254">
                <rect fill="#f2f5e9" fill-opacity="0.5" stroke="#606060" stroke-width=".5" x="0" y="0" width="60" height="60"/>
                <use id="zoomplus" xlink:href="#zoomPlus" x="17" y="9" onmousedown="handleZoom(evt,'in')"/>
                <use id="zoomminus" xlink:href="#zoomMin" x="42" y="9" onmousedown="handleZoom(evt,'out')"/>
                <use id="reset" xlink:href="#resetDef" x="30" y="36" onmousedown="handleReset()"/>
                <g id="arrowUp" xlink:href="#dirArrow" transform="translate(30 24)" onmousedown="handlePan(0,-1)">
                  <use xlink:href="#rim" fill="#404040">
                        <set attributeName="fill" to="#808080" begin="arrowUp.mouseover" end="arrowUp.mouseout"/>
                  </use>
                  <path fill="none" stroke="white" stroke-width="1.5" d="M0,-3.0v7 M-2.5,-0.5L0,-3.0L2.5,-0.5"/>
                </g>
                <g id="arrowRight" xlink:href="#dirArrow" transform="rotate(90) translate(36 -43)" onmousedown="handlePan(1,0)">
                  <use xlink:href="#rim" fill="#404040">
                        <set attributeName="fill" to="#808080" begin="arrowRight.mouseover" end="arrowRight.mouseout"/>
                  </use>
                  <path fill="none" stroke="white" stroke-width="1.5" d="M0,-3.0v7 M-2.5,-0.5L0,-3.0L2.5,-0.5"/>
                </g>
                <g id="arrowDown" xlink:href="#dirArrow" transform="rotate(180) translate(-30 -48)" onmousedown="handlePan(0,1)">
                  <use xlink:href="#rim" fill="#404040">
                        <set attributeName="fill" to="#808080" begin="arrowDown.mouseover" end="arrowDown.mouseout"/>
                  </use>
                  <path fill="none" stroke="white" stroke-width="1.5" d="M0,-3.0v7 M-2.5,-0.5L0,-3.0L2.5,-0.5"/>
                </g>
                <g id="arrowLeft" xlink:href="#dirArrow" transform="rotate(270) translate(-36 17)" onmousedown="handlePan(-1,0)">
                  <use xlink:href="#rim" fill="#404040">
                        <set attributeName="fill" to="#808080" begin="arrowLeft.mouseover" end="arrowLeft.mouseout"/>
                  </use>
                  <path fill="none" stroke="white" stroke-width="1.5" d="M0,-3.0v7 M-2.5,-0.5L0,-3.0L2.5,-0.5"/>
                </g>
        </g>
        <svg viewBox="0 0 15 15" width="100%" height="30px" preserveAspectRatio="xMaxYMin meet">
         <g id="arrow_out" transform="scale(0.3 0.3)">
          <a xlink:href="map__priv_8h_a106a52869db67fb2bf21557a25f299b4_icgraph_org.svg" target="_base">
           <rect id="button" ry="5" rx="5" y="6" x="6" height="38" width="38"
                fill="#f2f5e9" fill-opacity="0.5" stroke="#606060" stroke-width="1.0"/>
           <path id="arrow"
             d="M 11.500037,31.436501 C 11.940474,20.09759 22.043105,11.32322 32.158766,21.979434 L 37.068811,17.246167 C 37.068811,17.246167 37.088388,32 37.088388,32 L 22.160133,31.978069 C 22.160133,31.978069 26.997745,27.140456 26.997745,27.140456 C 18.528582,18.264221 13.291696,25.230495 11.500037,31.436501 z"
             style="fill:#404040;"/>
          </a>
         </g>
        </svg>
</svg>
