<?xml version="1.0" encoding="UTF-8" standalone="no"?>
<!DOCTYPE svg PUBLIC "-//W3C//DTD SVG 1.1//EN"
 "http://www.w3.org/Graphics/SVG/1.1/DTD/svg11.dtd">
<!-- Generated by graphviz version 2.40.1 (20161225.0304)
 -->
<!-- Title: list_mod_generic_afrom_map Pages: 1 -->
<svg width="685pt" height="66pt"
 viewBox="0.00 0.00 685.00 66.00" xmlns="http://www.w3.org/2000/svg" xmlns:xlink="http://www.w3.org/1999/xlink">
<g id="graph0" class="graph" transform="scale(1 1) rotate(0) translate(4 62)">
<title>list_mod_generic_afrom_map</title>
<!-- Node319 -->
<g id="node1" class="node">
<title>Node319</title>
<polygon fill="#bfbfbf" stroke="#000000" points="0,-19.5 0,-38.5 144,-38.5 144,-19.5 0,-19.5"/>
<text text-anchor="middle" x="72" y="-26.5" font-family="Helvetica,sans-Serif" font-size="10.00" fill="#000000">list_mod_generic_afrom_map</text>
</g>
<!-- Node320 -->
<g id="node2" class="node">
<title>Node320</title>
<g id="a_node2"><a xlink:href="map__async_8c.html#aa55edc52f4847523e3e89f8307b86196" target="_top" xlink:title="Evaluate a map creating a new map with TMPL_TYPE_ATTR LHS and TMPL_TYPE_DATA RHS. ...">
<polygon fill="none" stroke="#000000" points="180,-19.5 180,-38.5 271,-38.5 271,-19.5 180,-19.5"/>
<text text-anchor="middle" x="225.5" y="-26.5" font-family="Helvetica,sans-Serif" font-size="10.00" fill="#000000">map_to_list_mod</text>
</a>
</g>
</g>
<!-- Node319&#45;&gt;Node320 -->
<g id="edge1" class="edge">
<title>Node319&#45;&gt;Node320</title>
<path fill="none" stroke="#191970" d="M154.499,-29C163.2093,-29 171.8204,-29 179.88,-29"/>
<polygon fill="#191970" stroke="#191970" points="154.2553,-25.5001 144.2552,-29 154.2552,-32.5001 154.2553,-25.5001"/>
</g>
<!-- Node321 -->
<g id="node3" class="node">
<title>Node321</title>
<g id="a_node3"><a xlink:href="lib_2unlang_2map_8c.html#af742c9cd47f2f66ff0abcee92814c143" target="_top" xlink:title="Create a list of modifications to apply to one or more fr_pair_t lists. ">
<polygon fill="none" stroke="#000000" points="307,-38.5 307,-57.5 393,-57.5 393,-38.5 307,-38.5"/>
<text text-anchor="middle" x="350" y="-45.5" font-family="Helvetica,sans-Serif" font-size="10.00" fill="#000000">list_mod_create</text>
</a>
</g>
</g>
<!-- Node320&#45;&gt;Node321 -->
<g id="edge2" class="edge">
<title>Node320&#45;&gt;Node321</title>
<path fill="none" stroke="#191970" d="M281.1483,-37.4925C289.7643,-38.8074 298.551,-40.1484 306.8381,-41.413"/>
<polygon fill="#191970" stroke="#191970" points="281.5659,-34.0158 271.1523,-35.967 280.5098,-40.9357 281.5659,-34.0158"/>
</g>
<!-- Node369 -->
<g id="node6" class="node">
<title>Node369</title>
<g id="a_node6"><a xlink:href="rlm__couchbase_8c.html#a9ef7a569b6f2f01a9ba088072c54e516" target="_top" xlink:title="Handle authorization requests using Couchbase document data. ">
<polygon fill="none" stroke="#000000" points="310,-.5 310,-19.5 390,-19.5 390,-.5 310,-.5"/>
<text text-anchor="middle" x="350" y="-7.5" font-family="Helvetica,sans-Serif" font-size="10.00" fill="#000000">mod_authorize</text>
</a>
</g>
</g>
<!-- Node320&#45;&gt;Node369 -->
<g id="edge5" class="edge">
<title>Node320&#45;&gt;Node369</title>
<path fill="none" stroke="#191970" d="M281.078,-20.5182C290.7154,-19.0474 300.5686,-17.5437 309.6993,-16.1503"/>
<polygon fill="#191970" stroke="#191970" points="280.5098,-17.0643 271.1523,-22.033 281.5659,-23.9842 280.5098,-17.0643"/>
</g>
<!-- Node322 -->
<g id="node4" class="node">
<title>Node322</title>
<g id="a_node4"><a xlink:href="lib_2unlang_2map_8c.html#a556b6df1933cba6c5980602a1ae115b4" target="_top" xlink:title="Execute an update block. ">
<polygon fill="none" stroke="#000000" points="429,-38.5 429,-57.5 554,-57.5 554,-38.5 429,-38.5"/>
<text text-anchor="middle" x="491.5" y="-45.5" font-family="Helvetica,sans-Serif" font-size="10.00" fill="#000000">unlang_update_state_init</text>
</a>
</g>
</g>
<!-- Node321&#45;&gt;Node322 -->
<g id="edge3" class="edge">
<title>Node321&#45;&gt;Node322</title>
<path fill="none" stroke="#191970" d="M403.465,-48C411.7207,-48 420.3108,-48 428.7473,-48"/>
<polygon fill="#191970" stroke="#191970" points="403.2236,-44.5001 393.2235,-48 403.2235,-51.5001 403.2236,-44.5001"/>
</g>
<!-- Node323 -->
<g id="node5" class="node">
<title>Node323</title>
<g id="a_node5"><a xlink:href="unlang__priv_8h.html#a4acb4f0c9e4b6bbaf8be96f442bf5d2a" target="_top" xlink:title="unlang_map_init">
<polygon fill="none" stroke="#ff0000" points="590,-38.5 590,-57.5 677,-57.5 677,-38.5 590,-38.5"/>
<text text-anchor="middle" x="633.5" y="-45.5" font-family="Helvetica,sans-Serif" font-size="10.00" fill="#000000">unlang_map_init</text>
</a>
</g>
</g>
<!-- Node322&#45;&gt;Node323 -->
<g id="edge4" class="edge">
<title>Node322&#45;&gt;Node323</title>
<path fill="none" stroke="#191970" d="M564.3973,-48C573.0985,-48 581.7618,-48 589.8638,-48"/>
<polygon fill="#191970" stroke="#191970" points="564.1966,-44.5001 554.1966,-48 564.1966,-51.5001 564.1966,-44.5001"/>
</g>
</g>
</svg>
