<?xml version="1.0" encoding="UTF-8" standalone="no"?>
<!DOCTYPE svg PUBLIC "-//W3C//DTD SVG 1.1//EN"
 "http://www.w3.org/Graphics/SVG/1.1/DTD/svg11.dtd">
<!-- Generated by graphviz version 2.40.1 (20161225.0304)
 -->
<!-- Title: map_list_mod_to_vp Pages: 1 -->
<!--zoomable 66 -->
<svg id="main" version="1.1" xmlns="http://www.w3.org/2000/svg" xmlns:xlink="http://www.w3.org/1999/xlink" xml:space="preserve" onload="init(evt)">
<style type="text/css"><![CDATA[
.edge:hover path { stroke: red; }
.edge:hover polygon { stroke: red; fill: red; }
]]></style>
<script type="text/javascript"><![CDATA[
var edges = document.getElementsByTagName('g');
if (edges && edges.length) {
  for (var i=0;i<edges.length;i++) {
    if (edges[i].id.substr(0,4)=='edge') {
      edges[i].setAttribute('class','edge');
    }
  }
}
]]></script>
        <defs>
                <circle id="rim" cx="0" cy="0" r="7"/>
                <circle id="rim2" cx="0" cy="0" r="3.5"/>
                <g id="zoomPlus">
                        <use xlink:href="#rim" fill="#404040">
                                <set attributeName="fill" to="#808080" begin="zoomplus.mouseover" end="zoomplus.mouseout"/>
                        </use>
                        <path d="M-4,0h8M0,-4v8" fill="none" stroke="white" stroke-width="1.5" pointer-events="none"/>
                </g>
                <g id="zoomMin">
                        <use xlink:href="#rim" fill="#404040">
                                <set attributeName="fill" to="#808080" begin="zoomminus.mouseover" end="zoomminus.mouseout"/>
                        </use>
                        <path d="M-4,0h8" fill="none" stroke="white" stroke-width="1.5" pointer-events="none"/>
                </g>
                <g id="dirArrow">
                        <path fill="none" stroke="white" stroke-width="1.5" d="M0,-3.0v7 M-2.5,-0.5L0,-3.0L2.5,-0.5"/>
                </g>
               <g id="resetDef">
                       <use xlink:href="#rim2" fill="#404040">
                               <set attributeName="fill" to="#808080" begin="reset.mouseover" end="reset.mouseout"/>
                       </use>
               </g>
        </defs>

<script type="text/javascript">
var viewWidth = 645;
var viewHeight = 66;
var sectionId = 'dynsection-16';
</script>
<script xlink:href="svgpan.js"/>
<svg id="graph" class="graph">
<g id="viewport">
<title>map_list_mod_to_vp</title>
<!-- Node1159 -->
<g id="node1" class="node">
<title>Node1159</title>
<polygon fill="#bfbfbf" stroke="#000000" points="0,-19.5 0,-38.5 107,-38.5 107,-19.5 0,-19.5"/>
<text text-anchor="middle" x="53.5" y="-26.5" font-family="Helvetica,sans-Serif" font-size="10.00" fill="#000000">map_list_mod_to_vp</text>
</g>
<!-- Node1160 -->
<g id="node2" class="node">
<title>Node1160</title>
<g id="a_node2"><a xlink:href="map__async_8c.html#a2ae28af66914c4709ed60ad68799e019" target="_top" xlink:title="Allocate one or more fr_pair_ts from a vp_list_mod_t. ">
<polygon fill="none" stroke="#000000" points="143,-19.5 143,-38.5 255,-38.5 255,-19.5 143,-19.5"/>
<text text-anchor="middle" x="199" y="-26.5" font-family="Helvetica,sans-Serif" font-size="10.00" fill="#000000">map_list_mod_to_vps</text>
</a>
</g>
</g>
<!-- Node1159&#45;&gt;Node1160 -->
<g id="edge1" class="edge">
<title>Node1159&#45;&gt;Node1160</title>
<path fill="none" stroke="#191970" d="M117.3739,-29C125.7508,-29 134.2871,-29 142.5295,-29"/>
<polygon fill="#191970" stroke="#191970" points="117.2655,-25.5001 107.2654,-29 117.2654,-32.5001 117.2655,-25.5001"/>
</g>
<!-- Node1161 -->
<g id="node3" class="node">
<title>Node1161</title>
<g id="a_node3"><a xlink:href="map__async_8c.html#a7140ce3b702e0de5cb8eb4775b26940f" target="_top" xlink:title="Apply the output of map_to_list_mod to a request. ">
<polygon fill="none" stroke="#000000" points="291,-19.5 291,-38.5 397,-38.5 397,-19.5 291,-19.5"/>
<text text-anchor="middle" x="344" y="-26.5" font-family="Helvetica,sans-Serif" font-size="10.00" fill="#000000">map_list_mod_apply</text>
</a>
</g>
</g>
<!-- Node1160&#45;&gt;Node1161 -->
<g id="edge2" class="edge">
<title>Node1160&#45;&gt;Node1161</title>
<path fill="none" stroke="#191970" d="M265.1281,-29C273.777,-29 282.5478,-29 290.9431,-29"/>
<polygon fill="#191970" stroke="#191970" points="265.0608,-25.5001 255.0608,-29 265.0608,-32.5001 265.0608,-25.5001"/>
</g>
<!-- Node1162 -->
<g id="node4" class="node">
<title>Node1162</title>
<g id="a_node4"><a xlink:href="lib_2unlang_2map_8c.html#aa6e2701656a168138087753b63848dcb" target="_top" xlink:title="Apply a list of modifications on one or more fr_pair_t lists. ">
<polygon fill="none" stroke="#000000" points="433,-38.5 433,-57.5 515,-57.5 515,-38.5 433,-38.5"/>
<text text-anchor="middle" x="474" y="-45.5" font-family="Helvetica,sans-Serif" font-size="10.00" fill="#000000">list_mod_apply</text>
</a>
</g>
</g>
<!-- Node1161&#45;&gt;Node1162 -->
<g id="edge3" class="edge">
<title>Node1161&#45;&gt;Node1162</title>
<path fill="none" stroke="#191970" d="M407.401,-38.2663C416.0939,-39.5368 424.825,-40.8129 432.9718,-42.0036"/>
<polygon fill="#191970" stroke="#191970" points="407.6521,-34.7659 397.2511,-36.7828 406.6398,-41.6923 407.6521,-34.7659"/>
</g>
<!-- Node1210 -->
<g id="node6" class="node">
<title>Node1210</title>
<g id="a_node6"><a xlink:href="rlm__couchbase_8c.html#a9ef7a569b6f2f01a9ba088072c54e516" target="_top" xlink:title="Handle authorization requests using Couchbase document data. ">
<polygon fill="none" stroke="#000000" points="434,-.5 434,-19.5 514,-19.5 514,-.5 434,-.5"/>
<text text-anchor="middle" x="474" y="-7.5" font-family="Helvetica,sans-Serif" font-size="10.00" fill="#000000">mod_authorize</text>
</a>
</g>
</g>
<!-- Node1161&#45;&gt;Node1210 -->
<g id="edge5" class="edge">
<title>Node1161&#45;&gt;Node1210</title>
<path fill="none" stroke="#191970" d="M407.3509,-19.741C416.345,-18.4265 425.3811,-17.1058 433.77,-15.8798"/>
<polygon fill="#191970" stroke="#191970" points="406.6398,-16.3077 397.2511,-21.2172 407.6521,-23.2341 406.6398,-16.3077"/>
</g>
<!-- Node1163 -->
<g id="node5" class="node">
<title>Node1163</title>
<g id="a_node5"><a xlink:href="lib_2unlang_2map_8c.html#af742c9cd47f2f66ff0abcee92814c143" target="_top" xlink:title="Create a list of modifications to apply to one or more fr_pair_t lists. ">
<polygon fill="none" stroke="#ff0000" points="551,-38.5 551,-57.5 637,-57.5 637,-38.5 551,-38.5"/>
<text text-anchor="middle" x="594" y="-45.5" font-family="Helvetica,sans-Serif" font-size="10.00" fill="#000000">list_mod_create</text>
</a>
</g>
</g>
<!-- Node1162&#45;&gt;Node1163 -->
<g id="edge4" class="edge">
<title>Node1162&#45;&gt;Node1163</title>
<path fill="none" stroke="#191970" d="M525.5012,-48C533.9996,-48 542.7303,-48 550.9924,-48"/>
<polygon fill="#191970" stroke="#191970" points="525.2972,-44.5001 515.2972,-48 525.2972,-51.5001 525.2972,-44.5001"/>
</g>
</g>
</svg>
        <g id="navigator" transform="translate(0 0)" fill="#404254">
                <rect fill="#f2f5e9" fill-opacity="0.5" stroke="#606060" stroke-width=".5" x="0" y="0" width="60" height="60"/>
                <use id="zoomplus" xlink:href="#zoomPlus" x="17" y="9" onmousedown="handleZoom(evt,'in')"/>
                <use id="zoomminus" xlink:href="#zoomMin" x="42" y="9" onmousedown="handleZoom(evt,'out')"/>
                <use id="reset" xlink:href="#resetDef" x="30" y="36" onmousedown="handleReset()"/>
                <g id="arrowUp" xlink:href="#dirArrow" transform="translate(30 24)" onmousedown="handlePan(0,-1)">
                  <use xlink:href="#rim" fill="#404040">
                        <set attributeName="fill" to="#808080" begin="arrowUp.mouseover" end="arrowUp.mouseout"/>
                  </use>
                  <path fill="none" stroke="white" stroke-width="1.5" d="M0,-3.0v7 M-2.5,-0.5L0,-3.0L2.5,-0.5"/>
                </g>
                <g id="arrowRight" xlink:href="#dirArrow" transform="rotate(90) translate(36 -43)" onmousedown="handlePan(1,0)">
                  <use xlink:href="#rim" fill="#404040">
                        <set attributeName="fill" to="#808080" begin="arrowRight.mouseover" end="arrowRight.mouseout"/>
                  </use>
                  <path fill="none" stroke="white" stroke-width="1.5" d="M0,-3.0v7 M-2.5,-0.5L0,-3.0L2.5,-0.5"/>
                </g>
                <g id="arrowDown" xlink:href="#dirArrow" transform="rotate(180) translate(-30 -48)" onmousedown="handlePan(0,1)">
                  <use xlink:href="#rim" fill="#404040">
                        <set attributeName="fill" to="#808080" begin="arrowDown.mouseover" end="arrowDown.mouseout"/>
                  </use>
                  <path fill="none" stroke="white" stroke-width="1.5" d="M0,-3.0v7 M-2.5,-0.5L0,-3.0L2.5,-0.5"/>
                </g>
                <g id="arrowLeft" xlink:href="#dirArrow" transform="rotate(270) translate(-36 17)" onmousedown="handlePan(-1,0)">
                  <use xlink:href="#rim" fill="#404040">
                        <set attributeName="fill" to="#808080" begin="arrowLeft.mouseover" end="arrowLeft.mouseout"/>
                  </use>
                  <path fill="none" stroke="white" stroke-width="1.5" d="M0,-3.0v7 M-2.5,-0.5L0,-3.0L2.5,-0.5"/>
                </g>
        </g>
        <svg viewBox="0 0 15 15" width="100%" height="30px" preserveAspectRatio="xMaxYMin meet">
         <g id="arrow_out" transform="scale(0.3 0.3)">
          <a xlink:href="map__async_8c_a9aa699acb65b21804a2753d83baa858e_icgraph_org.svg" target="_base">
           <rect id="button" ry="5" rx="5" y="6" x="6" height="38" width="38"
                fill="#f2f5e9" fill-opacity="0.5" stroke="#606060" stroke-width="1.0"/>
           <path id="arrow"
             d="M 11.500037,31.436501 C 11.940474,20.09759 22.043105,11.32322 32.158766,21.979434 L 37.068811,17.246167 C 37.068811,17.246167 37.088388,32 37.088388,32 L 22.160133,31.978069 C 22.160133,31.978069 26.997745,27.140456 26.997745,27.140456 C 18.528582,18.264221 13.291696,25.230495 11.500037,31.436501 z"
             style="fill:#404040;"/>
          </a>
         </g>
        </svg>
</svg>
