<?xml version="1.0" encoding="UTF-8" standalone="no"?>
<!DOCTYPE svg PUBLIC "-//W3C//DTD SVG 1.1//EN"
 "http://www.w3.org/Graphics/SVG/1.1/DTD/svg11.dtd">
<!-- Generated by graphviz version 2.40.1 (20161225.0304)
 -->
<!-- Title: _thread_io_free Pages: 1 -->
<svg width="324pt" height="28pt"
 viewBox="0.00 0.00 324.00 28.00" xmlns="http://www.w3.org/2000/svg" xmlns:xlink="http://www.w3.org/1999/xlink">
<g id="graph0" class="graph" transform="scale(1 1) rotate(0) translate(4 24)">
<title>_thread_io_free</title>
<!-- Node149 -->
<g id="node1" class="node">
<title>Node149</title>
<polygon fill="#bfbfbf" stroke="#000000" points="0,-.5 0,-19.5 83,-19.5 83,-.5 0,-.5"/>
<text text-anchor="middle" x="41.5" y="-7.5" font-family="Helvetica,sans-Serif" font-size="10.00" fill="#000000">_thread_io_free</text>
</g>
<!-- Node150 -->
<g id="node2" class="node">
<title>Node150</title>
<g id="a_node2"><a xlink:href="master_8h.html#a27c87f1fb859a3a0c0a90e4dc6c12816" target="_top" xlink:title="fr_master_io_listen">
<polygon fill="none" stroke="#000000" points="119,-.5 119,-19.5 218,-19.5 218,-.5 119,-.5"/>
<text text-anchor="middle" x="168.5" y="-7.5" font-family="Helvetica,sans-Serif" font-size="10.00" fill="#000000">fr_master_io_listen</text>
</a>
</g>
</g>
<!-- Node149&#45;&gt;Node150 -->
<g id="edge1" class="edge">
<title>Node149&#45;&gt;Node150</title>
<path fill="none" stroke="#191970" d="M93.2247,-10C101.6901,-10 110.4449,-10 118.8585,-10"/>
<polygon fill="#191970" stroke="#191970" points="93.0846,-6.5001 83.0845,-10 93.0845,-13.5001 93.0846,-6.5001"/>
</g>
<!-- Node151 -->
<g id="node3" class="node">
<title>Node151</title>
<g id="a_node3"><a xlink:href="proto__control_8c.html#aebadffb9ff09ec601359dc1477d07d7f" target="_top" xlink:title="Open listen sockets/connect to external event source. ">
<polygon fill="none" stroke="#000000" points="254,-.5 254,-19.5 316,-19.5 316,-.5 254,-.5"/>
<text text-anchor="middle" x="285" y="-7.5" font-family="Helvetica,sans-Serif" font-size="10.00" fill="#000000">mod_open</text>
</a>
</g>
</g>
<!-- Node150&#45;&gt;Node151 -->
<g id="edge2" class="edge">
<title>Node150&#45;&gt;Node151</title>
<path fill="none" stroke="#191970" d="M228.2563,-10C237.1455,-10 245.9879,-10 253.9547,-10"/>
<polygon fill="#191970" stroke="#191970" points="228.2444,-6.5001 218.2444,-10 228.2444,-13.5001 228.2444,-6.5001"/>
</g>
</g>
</svg>
