<?xml version="1.0" encoding="UTF-8" standalone="no"?>
<!DOCTYPE svg PUBLIC "-//W3C//DTD SVG 1.1//EN"
 "http://www.w3.org/Graphics/SVG/1.1/DTD/svg11.dtd">
<!-- Generated by graphviz version 2.40.1 (20161225.0304)
 -->
<!-- Title: /home/runner/work/freeradius&#45;server/freeradius&#45;server/src/lib/util/md5.c Pages: 1 -->
<svg width="729pt" height="173pt"
 viewBox="0.00 0.00 729.00 173.00" xmlns="http://www.w3.org/2000/svg" xmlns:xlink="http://www.w3.org/1999/xlink">
<g id="graph0" class="graph" transform="scale(1 1) rotate(0) translate(4 169)">
<title>/home/runner/work/freeradius&#45;server/freeradius&#45;server/src/lib/util/md5.c</title>
<!-- Node0 -->
<g id="node1" class="node">
<title>Node0</title>
<polygon fill="#bfbfbf" stroke="#000000" points="276,-123.5 276,-164.5 419,-164.5 419,-123.5 276,-123.5"/>
<text text-anchor="start" x="284" y="-152.5" font-family="Helvetica,sans-Serif" font-size="10.00" fill="#000000">/home/runner/work/freeradius</text>
<text text-anchor="start" x="284" y="-141.5" font-family="Helvetica,sans-Serif" font-size="10.00" fill="#000000">&#45;server/freeradius&#45;server</text>
<text text-anchor="middle" x="347.5" y="-130.5" font-family="Helvetica,sans-Serif" font-size="10.00" fill="#000000">/src/lib/util/md5.c</text>
</g>
<!-- Node1 -->
<g id="node2" class="node">
<title>Node1</title>
<polygon fill="none" stroke="#bfbfbf" points="0,-56.5 0,-86.5 101,-86.5 101,-56.5 0,-56.5"/>
<text text-anchor="start" x="8" y="-74.5" font-family="Helvetica,sans-Serif" font-size="10.00" fill="#000000">freeradius&#45;devel/util</text>
<text text-anchor="middle" x="50.5" y="-63.5" font-family="Helvetica,sans-Serif" font-size="10.00" fill="#000000">/debug.h</text>
</g>
<!-- Node0&#45;&gt;Node1 -->
<g id="edge1" class="edge">
<title>Node0&#45;&gt;Node1</title>
<path fill="none" stroke="#191970" d="M275.7996,-127.2587C230.9108,-116.677 171.6201,-102.5186 110.7866,-87.299"/>
<polygon fill="#191970" stroke="#191970" points="111.5629,-83.8853 101.0119,-84.8476 109.8601,-90.6751 111.5629,-83.8853"/>
</g>
<!-- Node2 -->
<g id="node3" class="node">
<title>Node2</title>
<polygon fill="none" stroke="#bfbfbf" points="119,-56.5 119,-86.5 220,-86.5 220,-56.5 119,-56.5"/>
<text text-anchor="start" x="127" y="-74.5" font-family="Helvetica,sans-Serif" font-size="10.00" fill="#000000">freeradius&#45;devel/util</text>
<text text-anchor="middle" x="169.5" y="-63.5" font-family="Helvetica,sans-Serif" font-size="10.00" fill="#000000">/strerror.h</text>
</g>
<!-- Node0&#45;&gt;Node2 -->
<g id="edge2" class="edge">
<title>Node0&#45;&gt;Node2</title>
<path fill="none" stroke="#191970" d="M296.9685,-123.4183C271.5619,-113.0702 240.9764,-100.6126 216.1345,-90.4944"/>
<polygon fill="#191970" stroke="#191970" points="217.1524,-87.1299 206.5709,-86.5991 214.5119,-93.6128 217.1524,-87.1299"/>
</g>
<!-- Node3 -->
<g id="node4" class="node">
<title>Node3</title>
<polygon fill="none" stroke="#bfbfbf" points="238,-56.5 238,-86.5 339,-86.5 339,-56.5 238,-56.5"/>
<text text-anchor="start" x="246" y="-74.5" font-family="Helvetica,sans-Serif" font-size="10.00" fill="#000000">freeradius&#45;devel/util</text>
<text text-anchor="middle" x="288.5" y="-63.5" font-family="Helvetica,sans-Serif" font-size="10.00" fill="#000000">/talloc.h</text>
</g>
<!-- Node0&#45;&gt;Node3 -->
<g id="edge3" class="edge">
<title>Node0&#45;&gt;Node3</title>
<path fill="none" stroke="#191970" d="M330.7508,-123.4183C323.4474,-114.4438 314.8529,-103.8827 307.3288,-94.637"/>
<polygon fill="#191970" stroke="#191970" points="309.8142,-92.1462 300.7875,-86.5991 304.3849,-96.5646 309.8142,-92.1462"/>
</g>
<!-- Node4 -->
<g id="node5" class="node">
<title>Node4</title>
<polygon fill="none" stroke="#bfbfbf" points="357,-56.5 357,-86.5 458,-86.5 458,-56.5 357,-56.5"/>
<text text-anchor="start" x="365" y="-74.5" font-family="Helvetica,sans-Serif" font-size="10.00" fill="#000000">freeradius&#45;devel/util</text>
<text text-anchor="middle" x="407.5" y="-63.5" font-family="Helvetica,sans-Serif" font-size="10.00" fill="#000000">/thread_local.h</text>
</g>
<!-- Node0&#45;&gt;Node4 -->
<g id="edge4" class="edge">
<title>Node0&#45;&gt;Node4</title>
<path fill="none" stroke="#191970" d="M364.5331,-123.4183C372.0361,-114.3522 380.879,-103.6671 388.586,-94.3544"/>
<polygon fill="#191970" stroke="#191970" points="391.3249,-96.5346 395.0042,-86.5991 385.9321,-92.0716 391.3249,-96.5346"/>
</g>
<!-- Node5 -->
<g id="node6" class="node">
<title>Node5</title>
<g id="a_node6"><a xlink:href="talloc_8h.html" target="_top" xlink:title="Functions which we wish were included in the standard talloc distribution. ">
<polygon fill="none" stroke="#000000" points="476.5,-62 476.5,-81 524.5,-81 524.5,-62 476.5,-62"/>
<text text-anchor="middle" x="500.5" y="-69" font-family="Helvetica,sans-Serif" font-size="10.00" fill="#000000">talloc.h</text>
</a>
</g>
</g>
<!-- Node0&#45;&gt;Node5 -->
<g id="edge5" class="edge">
<title>Node0&#45;&gt;Node5</title>
<path fill="none" stroke="#191970" d="M390.9344,-123.4183C416.5991,-111.257 448.4121,-96.1822 471.1345,-85.415"/>
<polygon fill="#191970" stroke="#191970" points="472.7336,-88.5304 480.2716,-81.0853 469.7361,-82.2047 472.7336,-88.5304"/>
</g>
<!-- Node12 -->
<g id="node13" class="node">
<title>Node12</title>
<polygon fill="none" stroke="#bfbfbf" points="561,-56.5 561,-86.5 662,-86.5 662,-56.5 561,-56.5"/>
<text text-anchor="start" x="569" y="-74.5" font-family="Helvetica,sans-Serif" font-size="10.00" fill="#000000">freeradius&#45;devel/util</text>
<text text-anchor="middle" x="611.5" y="-63.5" font-family="Helvetica,sans-Serif" font-size="10.00" fill="#000000">/md5.h</text>
</g>
<!-- Node0&#45;&gt;Node12 -->
<g id="edge13" class="edge">
<title>Node0&#45;&gt;Node12</title>
<path fill="none" stroke="#191970" d="M419.2904,-124.2848C460.5326,-112.9589 511.7547,-98.8922 550.9483,-88.1288"/>
<polygon fill="#191970" stroke="#191970" points="551.9242,-91.4904 560.6403,-85.4672 550.0704,-84.7404 551.9242,-91.4904"/>
</g>
<!-- Node5&#45;&gt;Node5 -->
<g id="edge12" class="edge">
<title>Node5&#45;&gt;Node5</title>
<path fill="none" stroke="#191970" d="M516.0079,-81.0334C528.9631,-85.1075 542.5,-81.9297 542.5,-71.5 542.5,-63.7592 535.0433,-60.0131 525.902,-60.2616"/>
<polygon fill="#191970" stroke="#191970" points="525.2683,-56.8191 516.0079,-61.9666 526.4571,-63.7175 525.2683,-56.8191"/>
</g>
<!-- Node6 -->
<g id="node7" class="node">
<title>Node6</title>
<polygon fill="none" stroke="#bfbfbf" points="93.5,-.5 93.5,-19.5 227.5,-19.5 227.5,-.5 93.5,-.5"/>
<text text-anchor="middle" x="160.5" y="-7.5" font-family="Helvetica,sans-Serif" font-size="10.00" fill="#000000">freeradius&#45;devel/autoconf.h</text>
</g>
<!-- Node5&#45;&gt;Node6 -->
<g id="edge6" class="edge">
<title>Node5&#45;&gt;Node6</title>
<path fill="none" stroke="#191970" d="M482.7189,-61.9973C477.8912,-59.7387 472.5889,-57.5404 467.5,-56 445.9072,-49.4641 321.2219,-31.7987 237.5423,-20.359"/>
<polygon fill="#191970" stroke="#191970" points="237.9318,-16.8798 227.5505,-18.9959 236.9856,-23.8155 237.9318,-16.8798"/>
</g>
<!-- Node7 -->
<g id="node8" class="node">
<title>Node7</title>
<polygon fill="none" stroke="#bfbfbf" points="246,-.5 246,-19.5 363,-19.5 363,-.5 246,-.5"/>
<text text-anchor="middle" x="304.5" y="-7.5" font-family="Helvetica,sans-Serif" font-size="10.00" fill="#000000">freeradius&#45;devel/build.h</text>
</g>
<!-- Node5&#45;&gt;Node7 -->
<g id="edge7" class="edge">
<title>Node5&#45;&gt;Node7</title>
<path fill="none" stroke="#191970" d="M481.5328,-61.9429C476.9962,-59.8388 472.1257,-57.7257 467.5,-56 430.5498,-42.2147 387.5747,-30.2474 355.0307,-21.9772"/>
<polygon fill="#191970" stroke="#191970" points="355.8351,-18.5706 345.2839,-19.5314 354.1313,-25.3601 355.8351,-18.5706"/>
</g>
<!-- Node8 -->
<g id="node9" class="node">
<title>Node8</title>
<polygon fill="none" stroke="#bfbfbf" points="381,-.5 381,-19.5 512,-19.5 512,-.5 381,-.5"/>
<text text-anchor="middle" x="446.5" y="-7.5" font-family="Helvetica,sans-Serif" font-size="10.00" fill="#000000">freeradius&#45;devel/missing.h</text>
</g>
<!-- Node5&#45;&gt;Node8 -->
<g id="edge8" class="edge">
<title>Node5&#45;&gt;Node8</title>
<path fill="none" stroke="#191970" d="M492.0625,-61.8906C483.9469,-52.6478 471.4945,-38.466 461.6576,-27.2628"/>
<polygon fill="#191970" stroke="#191970" points="464.2846,-24.95 455.0565,-19.7449 459.0245,-29.5686 464.2846,-24.95"/>
</g>
<!-- Node9 -->
<g id="node10" class="node">
<title>Node9</title>
<polygon fill="none" stroke="#bfbfbf" points="530,-.5 530,-19.5 579,-19.5 579,-.5 530,-.5"/>
<text text-anchor="middle" x="554.5" y="-7.5" font-family="Helvetica,sans-Serif" font-size="10.00" fill="#000000">ctype.h</text>
</g>
<!-- Node5&#45;&gt;Node9 -->
<g id="edge9" class="edge">
<title>Node5&#45;&gt;Node9</title>
<path fill="none" stroke="#191970" d="M508.9375,-61.8906C517.0531,-52.6478 529.5055,-38.466 539.3424,-27.2628"/>
<polygon fill="#191970" stroke="#191970" points="541.9755,-29.5686 545.9435,-19.7449 536.7154,-24.95 541.9755,-29.5686"/>
</g>
<!-- Node10 -->
<g id="node11" class="node">
<title>Node10</title>
<polygon fill="none" stroke="#bfbfbf" points="597.5,-.5 597.5,-19.5 653.5,-19.5 653.5,-.5 597.5,-.5"/>
<text text-anchor="middle" x="625.5" y="-7.5" font-family="Helvetica,sans-Serif" font-size="10.00" fill="#000000">stdbool.h</text>
</g>
<!-- Node5&#45;&gt;Node10 -->
<g id="edge10" class="edge">
<title>Node5&#45;&gt;Node10</title>
<path fill="none" stroke="#191970" d="M520.0313,-61.8906C540.6708,-51.7359 573.4276,-35.6196 596.9602,-24.0416"/>
<polygon fill="#191970" stroke="#191970" points="598.6782,-27.0971 606.1059,-19.5419 595.588,-20.8161 598.6782,-27.0971"/>
</g>
<!-- Node11 -->
<g id="node12" class="node">
<title>Node11</title>
<polygon fill="none" stroke="#bfbfbf" points="672,-.5 672,-19.5 721,-19.5 721,-.5 672,-.5"/>
<text text-anchor="middle" x="696.5" y="-7.5" font-family="Helvetica,sans-Serif" font-size="10.00" fill="#000000">stdint.h</text>
</g>
<!-- Node5&#45;&gt;Node11 -->
<g id="edge11" class="edge">
<title>Node5&#45;&gt;Node11</title>
<path fill="none" stroke="#191970" d="M524.5334,-63.9589C559.0447,-53.1301 622.8146,-33.1207 662.2513,-20.7464"/>
<polygon fill="#191970" stroke="#191970" points="663.4681,-24.0329 671.9616,-17.6996 661.3724,-17.354 663.4681,-24.0329"/>
</g>
</g>
</svg>
