<?xml version="1.0" encoding="UTF-8" standalone="no"?>
<!DOCTYPE svg PUBLIC "-//W3C//DTD SVG 1.1//EN"
 "http://www.w3.org/Graphics/SVG/1.1/DTD/svg11.dtd">
<!-- Generated by graphviz version 2.40.1 (20161225.0304)
 -->
<!-- Title: fr_message_set_debug Pages: 1 -->
<svg width="262pt" height="66pt"
 viewBox="0.00 0.00 262.00 66.00" xmlns="http://www.w3.org/2000/svg" xmlns:xlink="http://www.w3.org/1999/xlink">
<g id="graph0" class="graph" transform="scale(1 1) rotate(0) translate(4 62)">
<title>fr_message_set_debug</title>
<!-- Node7604 -->
<g id="node1" class="node">
<title>Node7604</title>
<polygon fill="#bfbfbf" stroke="#000000" points="0,-19.5 0,-38.5 118,-38.5 118,-19.5 0,-19.5"/>
<text text-anchor="middle" x="59" y="-26.5" font-family="Helvetica,sans-Serif" font-size="10.00" fill="#000000">fr_message_set_debug</text>
</g>
<!-- Node7605 -->
<g id="node2" class="node">
<title>Node7605</title>
<g id="a_node2"><a xlink:href="ring__buffer_8c.html#aeda03b2b446562da1c5f0b2164e8c21a" target="_top" xlink:title="Get the size of the ring buffer. ">
<polygon fill="none" stroke="#000000" points="155.5,-38.5 155.5,-57.5 252.5,-57.5 252.5,-38.5 155.5,-38.5"/>
<text text-anchor="middle" x="204" y="-45.5" font-family="Helvetica,sans-Serif" font-size="10.00" fill="#000000">fr_ring_buffer_size</text>
</a>
</g>
</g>
<!-- Node7604&#45;&gt;Node7605 -->
<g id="edge1" class="edge">
<title>Node7604&#45;&gt;Node7605</title>
<path fill="none" stroke="#191970" d="M118.3954,-36.7828C127.1648,-37.9319 136.1987,-39.1157 144.9608,-40.2638"/>
<polygon fill="#191970" stroke="#191970" points="144.7197,-43.7621 155.0897,-41.5911 145.6292,-36.8214 144.7197,-43.7621"/>
</g>
<!-- Node7606 -->
<g id="node3" class="node">
<title>Node7606</title>
<g id="a_node3"><a xlink:href="ring__buffer_8c.html#acdecd6b0ab63bb0a57dcfc59f45d02a8" target="_top" xlink:title="Get the amount of data used in a ring buffer. ">
<polygon fill="none" stroke="#000000" points="154,-.5 154,-19.5 254,-19.5 254,-.5 154,-.5"/>
<text text-anchor="middle" x="204" y="-7.5" font-family="Helvetica,sans-Serif" font-size="10.00" fill="#000000">fr_ring_buffer_used</text>
</a>
</g>
</g>
<!-- Node7604&#45;&gt;Node7606 -->
<g id="edge2" class="edge">
<title>Node7604&#45;&gt;Node7606</title>
<path fill="none" stroke="#191970" d="M118.3954,-21.2172C126.7358,-20.1243 135.3156,-19 143.6731,-17.9049"/>
<polygon fill="#191970" stroke="#191970" points="144.2658,-21.3572 153.7263,-16.5876 143.3563,-14.4166 144.2658,-21.3572"/>
</g>
</g>
</svg>
