<?xml version="1.0" encoding="UTF-8" standalone="no"?>
<!DOCTYPE svg PUBLIC "-//W3C//DTD SVG 1.1//EN"
 "http://www.w3.org/Graphics/SVG/1.1/DTD/svg11.dtd">
<!-- Generated by graphviz version 2.40.1 (20161225.0304)
 -->
<!-- Title: milenage_gsm_generate Pages: 1 -->
<svg width="722pt" height="39pt"
 viewBox="0.00 0.00 722.00 39.00" xmlns="http://www.w3.org/2000/svg" xmlns:xlink="http://www.w3.org/1999/xlink">
<g id="graph0" class="graph" transform="scale(1 1) rotate(0) translate(4 35)">
<title>milenage_gsm_generate</title>
<!-- Node318 -->
<g id="node1" class="node">
<title>Node318</title>
<polygon fill="#bfbfbf" stroke="#000000" points="0,-6 0,-25 122,-25 122,-6 0,-6"/>
<text text-anchor="middle" x="61" y="-13" font-family="Helvetica,sans-Serif" font-size="10.00" fill="#000000">milenage_gsm_generate</text>
</g>
<!-- Node319 -->
<g id="node2" class="node">
<title>Node319</title>
<g id="a_node2"><a xlink:href="vector_8c.html#ae726cc3a3569de8f5c957ca9c3aacd21" target="_top" xlink:title="vector_gsm_from_ki">
<polygon fill="none" stroke="#000000" points="158,-6 158,-25 263,-25 263,-6 158,-6"/>
<text text-anchor="middle" x="210.5" y="-13" font-family="Helvetica,sans-Serif" font-size="10.00" fill="#000000">vector_gsm_from_ki</text>
</a>
</g>
</g>
<!-- Node318&#45;&gt;Node319 -->
<g id="edge1" class="edge">
<title>Node318&#45;&gt;Node319</title>
<path fill="none" stroke="#191970" d="M132.2549,-15.5C140.8344,-15.5 149.4754,-15.5 157.7245,-15.5"/>
<polygon fill="#191970" stroke="#191970" points="132.2388,-12.0001 122.2387,-15.5 132.2387,-19.0001 132.2388,-12.0001"/>
</g>
<!-- Node320 -->
<g id="node3" class="node">
<title>Node320</title>
<g id="a_node3"><a xlink:href="vector_8c.html#a8228ce13a351899c989ef598c750b7d5" target="_top" xlink:title="Retrieve GSM triplets from sets of attributes. ">
<polygon fill="none" stroke="#000000" points="299,-.5 299,-30.5 420,-30.5 420,-.5 299,-.5"/>
<text text-anchor="start" x="307" y="-18.5" font-family="Helvetica,sans-Serif" font-size="10.00" fill="#000000">fr_aka_sim_vector_gsm</text>
<text text-anchor="middle" x="359.5" y="-7.5" font-family="Helvetica,sans-Serif" font-size="10.00" fill="#000000">_from_attrs</text>
</a>
</g>
</g>
<!-- Node319&#45;&gt;Node320 -->
<g id="edge2" class="edge">
<title>Node319&#45;&gt;Node320</title>
<path fill="none" stroke="#191970" d="M273.2225,-15.5C281.6866,-15.5 290.3587,-15.5 298.7869,-15.5"/>
<polygon fill="#191970" stroke="#191970" points="273.0319,-12.0001 263.0318,-15.5 273.0318,-19.0001 273.0319,-12.0001"/>
</g>
<!-- Node321 -->
<g id="node4" class="node">
<title>Node321</title>
<g id="a_node4"><a xlink:href="state__machine_8c.html#a9da0659adc8c9ae907ff398401ac30d7" target="_top" xlink:title="Send a EAP&#45;Request/SIM&#45;Challenge message to the supplicant. ">
<polygon fill="none" stroke="#000000" points="456,-.5 456,-30.5 572,-30.5 572,-.5 456,-.5"/>
<text text-anchor="start" x="464" y="-18.5" font-family="Helvetica,sans-Serif" font-size="10.00" fill="#000000">sim_challenge_request</text>
<text text-anchor="middle" x="514" y="-7.5" font-family="Helvetica,sans-Serif" font-size="10.00" fill="#000000">_compose</text>
</a>
</g>
</g>
<!-- Node320&#45;&gt;Node321 -->
<g id="edge3" class="edge">
<title>Node320&#45;&gt;Node321</title>
<path fill="none" stroke="#191970" d="M430.136,-15.5C438.7341,-15.5 447.4422,-15.5 455.8301,-15.5"/>
<polygon fill="#191970" stroke="#191970" points="430.1191,-12.0001 420.1191,-15.5 430.119,-19.0001 430.1191,-12.0001"/>
</g>
<!-- Node322 -->
<g id="node5" class="node">
<title>Node322</title>
<g id="a_node5"><a xlink:href="state__machine_8c.html#a7fb7f9ee9188db400797e7a53547a923" target="_top" xlink:title="Resume after &#39;send Challenge&#45;Request { ... ">
<polygon fill="none" stroke="#ff0000" points="608,-.5 608,-30.5 714,-30.5 714,-.5 608,-.5"/>
<text text-anchor="start" x="616" y="-18.5" font-family="Helvetica,sans-Serif" font-size="10.00" fill="#000000">sim_challenge_enter</text>
<text text-anchor="middle" x="661" y="-7.5" font-family="Helvetica,sans-Serif" font-size="10.00" fill="#000000">_resume</text>
</a>
</g>
</g>
<!-- Node321&#45;&gt;Node322 -->
<g id="edge4" class="edge">
<title>Node321&#45;&gt;Node322</title>
<path fill="none" stroke="#191970" d="M582.3655,-15.5C590.845,-15.5 599.416,-15.5 607.6243,-15.5"/>
<polygon fill="#191970" stroke="#191970" points="582.0983,-12.0001 572.0983,-15.5 582.0983,-19.0001 582.0983,-12.0001"/>
</g>
</g>
</svg>
