<?xml version="1.0" encoding="UTF-8" standalone="no"?>
<!DOCTYPE svg PUBLIC "-//W3C//DTD SVG 1.1//EN"
 "http://www.w3.org/Graphics/SVG/1.1/DTD/svg11.dtd">
<!-- Generated by graphviz version 2.40.1 (20161225.0304)
 -->
<!-- Title: fr_writev Pages: 1 -->
<svg width="595pt" height="66pt"
 viewBox="0.00 0.00 595.00 66.00" xmlns="http://www.w3.org/2000/svg" xmlns:xlink="http://www.w3.org/1999/xlink">
<g id="graph0" class="graph" transform="scale(1 1) rotate(0) translate(4 62)">
<title>fr_writev</title>
<!-- Node19244 -->
<g id="node1" class="node">
<title>Node19244</title>
<polygon fill="#bfbfbf" stroke="#000000" points="0,-19.5 0,-38.5 54,-38.5 54,-19.5 0,-19.5"/>
<text text-anchor="middle" x="27" y="-26.5" font-family="Helvetica,sans-Serif" font-size="10.00" fill="#000000">fr_writev</text>
</g>
<!-- Node19245 -->
<g id="node2" class="node">
<title>Node19245</title>
<g id="a_node2"><a xlink:href="misc_8h.html#ad2553bfa92e867362304c60aa44adb15" target="_top" xlink:title="Find the highest order bit in an unsigned 64 bit integer. ">
<polygon fill="none" stroke="#000000" points="90.5,-38.5 90.5,-57.5 173.5,-57.5 173.5,-38.5 90.5,-38.5"/>
<text text-anchor="middle" x="132" y="-45.5" font-family="Helvetica,sans-Serif" font-size="10.00" fill="#000000">fr_high_bit_pos</text>
</a>
</g>
</g>
<!-- Node19244&#45;&gt;Node19245 -->
<g id="edge1" class="edge">
<title>Node19244&#45;&gt;Node19245</title>
<path fill="none" stroke="#191970" d="M64.0609,-35.7062C72.5734,-37.2466 81.6804,-38.8945 90.3716,-40.4672"/>
<polygon fill="#191970" stroke="#191970" points="64.5035,-32.2296 54.0401,-33.893 63.2571,-39.1177 64.5035,-32.2296"/>
</g>
<!-- Node19249 -->
<g id="node6" class="node">
<title>Node19249</title>
<g id="a_node6"><a xlink:href="rlm__linelog_8c.html#a6c2e9b45d00324024cf44e7bfa86289c" target="_top" xlink:title="Write a linelog message. ">
<polygon fill="none" stroke="#000000" points="90,-.5 90,-19.5 174,-19.5 174,-.5 90,-.5"/>
<text text-anchor="middle" x="132" y="-7.5" font-family="Helvetica,sans-Serif" font-size="10.00" fill="#000000">mod_do_linelog</text>
</a>
</g>
</g>
<!-- Node19244&#45;&gt;Node19249 -->
<g id="edge6" class="edge">
<title>Node19244&#45;&gt;Node19249</title>
<path fill="none" stroke="#191970" d="M63.9468,-22.3144C72.3605,-20.7919 81.3601,-19.1634 89.9683,-17.6057"/>
<polygon fill="#191970" stroke="#191970" points="63.2571,-18.8823 54.0401,-24.107 64.5035,-25.7704 63.2571,-18.8823"/>
</g>
<!-- Node19246 -->
<g id="node3" class="node">
<title>Node19246</title>
<g id="a_node3"><a xlink:href="net_8h.html#a49feef0a896e767ec136149d3a3c433c" target="_top" xlink:title="Write out an unsigned 64bit integer in wire format using the fewest bytes possible. ">
<polygon fill="none" stroke="#000000" points="210,-38.5 210,-57.5 313,-57.5 313,-38.5 210,-38.5"/>
<text text-anchor="middle" x="261.5" y="-45.5" font-family="Helvetica,sans-Serif" font-size="10.00" fill="#000000">fr_net_from_uint64v</text>
</a>
</g>
</g>
<!-- Node19245&#45;&gt;Node19246 -->
<g id="edge2" class="edge">
<title>Node19245&#45;&gt;Node19246</title>
<path fill="none" stroke="#191970" d="M183.9292,-48C192.4869,-48 201.3559,-48 209.9053,-48"/>
<polygon fill="#191970" stroke="#191970" points="183.6875,-44.5001 173.6874,-48 183.6874,-51.5001 183.6875,-44.5001"/>
</g>
<!-- Node19247 -->
<g id="node4" class="node">
<title>Node19247</title>
<g id="a_node4"><a xlink:href="protocols_2internal_2encode_8c.html#a971e0b9f4a5efc4409b599b4ef991cdc" target="_top" xlink:title="We use the same header for all types. ">
<polygon fill="none" stroke="#000000" points="349,-38.5 349,-57.5 434,-57.5 434,-38.5 349,-38.5"/>
<text text-anchor="middle" x="391.5" y="-45.5" font-family="Helvetica,sans-Serif" font-size="10.00" fill="#000000">internal_encode</text>
</a>
</g>
</g>
<!-- Node19246&#45;&gt;Node19247 -->
<g id="edge3" class="edge">
<title>Node19246&#45;&gt;Node19247</title>
<path fill="none" stroke="#191970" d="M323.2773,-48C331.8769,-48 340.5519,-48 348.6982,-48"/>
<polygon fill="#191970" stroke="#191970" points="323.253,-44.5001 313.253,-48 323.2529,-51.5001 323.253,-44.5001"/>
</g>
<!-- Node19248 -->
<g id="node5" class="node">
<title>Node19248</title>
<g id="a_node5"><a xlink:href="internal_8h.html#a6dde79eecd91a64f6b95bf878d2f8513" target="_top" xlink:title="Encode a data structure into an internal attribute. ">
<polygon fill="none" stroke="#000000" points="470,-38.5 470,-57.5 587,-57.5 587,-38.5 470,-38.5"/>
<text text-anchor="middle" x="528.5" y="-45.5" font-family="Helvetica,sans-Serif" font-size="10.00" fill="#000000">fr_internal_encode_pair</text>
</a>
</g>
</g>
<!-- Node19247&#45;&gt;Node19248 -->
<g id="edge4" class="edge">
<title>Node19247&#45;&gt;Node19248</title>
<path fill="none" stroke="#191970" d="M444.1458,-41.4133C452.5512,-41.2373 461.2937,-41.2036 469.8283,-41.3121"/>
<polygon fill="#191970" stroke="#191970" points="443.9933,-37.9162 434.0967,-41.6987 444.192,-44.9133 443.9933,-37.9162"/>
</g>
<!-- Node19248&#45;&gt;Node19247 -->
<g id="edge5" class="edge">
<title>Node19248&#45;&gt;Node19247</title>
<path fill="none" stroke="#191970" d="M459.6355,-54.7499C450.927,-54.7459 442.2264,-54.5963 434.0967,-54.3013"/>
<polygon fill="#191970" stroke="#191970" points="459.8499,-58.2488 469.8283,-54.6879 459.8072,-51.2489 459.8499,-58.2488"/>
</g>
</g>
</svg>
