<?xml version="1.0" encoding="UTF-8" standalone="no"?>
<!DOCTYPE svg PUBLIC "-//W3C//DTD SVG 1.1//EN"
 "http://www.w3.org/Graphics/SVG/1.1/DTD/svg11.dtd">
<!-- Generated by graphviz version 2.40.1 (20161225.0304)
 -->
<!-- Title: sigtran_event_loop Pages: 1 -->
<svg width="970pt" height="1002pt"
 viewBox="0.00 0.00 970.00 1002.00" xmlns="http://www.w3.org/2000/svg" xmlns:xlink="http://www.w3.org/1999/xlink">
<g id="graph0" class="graph" transform="scale(1 1) rotate(0) translate(4 998)">
<title>sigtran_event_loop</title>
<!-- Node661 -->
<g id="node1" class="node">
<title>Node661</title>
<polygon fill="#bfbfbf" stroke="#000000" points="0,-209.5 0,-228.5 98,-228.5 98,-209.5 0,-209.5"/>
<text text-anchor="middle" x="49" y="-216.5" font-family="Helvetica,sans-Serif" font-size="10.00" fill="#000000">sigtran_event_loop</text>
</g>
<!-- Node662 -->
<g id="node2" class="node">
<title>Node662</title>
<g id="a_node2"><a xlink:href="talloc_8h.html#acb428ac33d241ad45ec389fd0770db86" target="_top" xlink:title="Allocate a top level chunk with a constant name. ">
<polygon fill="none" stroke="#000000" points="149.5,-822.5 149.5,-841.5 236.5,-841.5 236.5,-822.5 149.5,-822.5"/>
<text text-anchor="middle" x="193" y="-829.5" font-family="Helvetica,sans-Serif" font-size="10.00" fill="#000000">talloc_init_const</text>
</a>
</g>
</g>
<!-- Node661&#45;&gt;Node662 -->
<g id="edge1" class="edge">
<title>Node661&#45;&gt;Node662</title>
<path fill="none" stroke="#191970" d="M49.8958,-228.5611C54.7155,-278.2174 79.4012,-511.3993 134,-694 147.1794,-738.0772 170.2444,-786.9987 183.2897,-813.1156"/>
<polygon fill="#191970" stroke="#191970" points="180.2713,-814.9026 187.9085,-822.2459 186.5176,-811.7428 180.2713,-814.9026"/>
</g>
<!-- Node809 -->
<g id="node19" class="node">
<title>Node809</title>
<g id="a_node19"><a xlink:href="modules_2rlm__sigtran_2log_8c.html#a4c904697041f9d9be1e0ddcd438a0375" target="_top" xlink:title="Patch our logging system into libosmo&#39;s. ">
<polygon fill="none" stroke="#000000" points="152,-105.5 152,-124.5 234,-124.5 234,-105.5 152,-105.5"/>
<text text-anchor="middle" x="193" y="-112.5" font-family="Helvetica,sans-Serif" font-size="10.00" fill="#000000">sigtran_log_init</text>
</a>
</g>
</g>
<!-- Node661&#45;&gt;Node809 -->
<g id="edge24" class="edge">
<title>Node661&#45;&gt;Node809</title>
<path fill="none" stroke="#191970" d="M62.2891,-209.4023C87.257,-191.3699 141.3706,-152.2879 171.5549,-130.4881"/>
<polygon fill="#191970" stroke="#191970" points="173.6855,-133.2668 179.7431,-124.5745 169.587,-127.592 173.6855,-133.2668"/>
</g>
<!-- Node749 -->
<g id="node21" class="node">
<title>Node749</title>
<g id="a_node21"><a xlink:href="syserror_8c.html#a18747f9d648d0aeecc4a8b27ac0435aa" target="_top" xlink:title="Guaranteed to be thread&#45;safe version of strerror. ">
<polygon fill="none" stroke="#ff0000" points="801,-209.5 801,-228.5 864,-228.5 864,-209.5 801,-209.5"/>
<text text-anchor="middle" x="832.5" y="-216.5" font-family="Helvetica,sans-Serif" font-size="10.00" fill="#000000">fr_syserror</text>
</a>
</g>
</g>
<!-- Node661&#45;&gt;Node749 -->
<g id="edge26" class="edge">
<title>Node661&#45;&gt;Node749</title>
<path fill="none" stroke="#191970" d="M50.3393,-228.6286C60.1318,-294.8298 126.7218,-680 350.5,-680 350.5,-680 350.5,-680 513.5,-680 623.4201,-680 676.3545,-691.6875 751,-611 802.416,-555.4222 825.3429,-310.5734 831.0349,-238.8233"/>
<polygon fill="#191970" stroke="#191970" points="834.5247,-239.0886 831.8021,-228.8496 827.5453,-238.5516 834.5247,-239.0886"/>
</g>
<!-- Node811 -->
<g id="node22" class="node">
<title>Node811</title>
<g id="a_node22"><a xlink:href="modules_2rlm__sigtran_2event_8c.html#a62a57dbdda7334271464f0bd6ef7859d" target="_top" xlink:title="Register a new osmocom file descriptor callback. ">
<polygon fill="none" stroke="#000000" points="319.5,-114.5 319.5,-133.5 381.5,-133.5 381.5,-114.5 319.5,-114.5"/>
<text text-anchor="middle" x="350.5" y="-121.5" font-family="Helvetica,sans-Serif" font-size="10.00" fill="#000000">ofd_create</text>
</a>
</g>
</g>
<!-- Node661&#45;&gt;Node811 -->
<g id="edge27" class="edge">
<title>Node661&#45;&gt;Node811</title>
<path fill="none" stroke="#191970" d="M78.7695,-209.3992C123.9438,-194.8606 212.5389,-166.467 288,-143 294.9985,-140.8236 302.4465,-138.5352 309.6711,-136.3301"/>
<polygon fill="#191970" stroke="#191970" points="310.7735,-139.6531 319.3211,-133.393 308.7352,-132.9564 310.7735,-139.6531"/>
</g>
<!-- Node813 -->
<g id="node24" class="node">
<title>Node813</title>
<g id="a_node24"><a xlink:href="modules_2rlm__sigtran_2event_8c.html#a982ec0dbdb0223791601740ac6bb4e70" target="_top" xlink:title="Processes a request for a new pipe from a worker thread. ">
<polygon fill="none" stroke="#000000" points="134,-209.5 134,-228.5 252,-228.5 252,-209.5 134,-209.5"/>
<text text-anchor="middle" x="193" y="-216.5" font-family="Helvetica,sans-Serif" font-size="10.00" fill="#000000">event_process_request</text>
</a>
</g>
</g>
<!-- Node661&#45;&gt;Node813 -->
<g id="edge29" class="edge">
<title>Node661&#45;&gt;Node813</title>
<path fill="none" stroke="#191970" d="M98.1539,-219C106.411,-219 115.1153,-219 123.7662,-219"/>
<polygon fill="#191970" stroke="#191970" points="123.8673,-222.5001 133.8672,-219 123.8672,-215.5001 123.8673,-222.5001"/>
</g>
<!-- Node663 -->
<g id="node3" class="node">
<title>Node663</title>
<g id="a_node3"><a xlink:href="talloc_8h.html#a3e6e2b6702148d688c1fb381cb1117eb" target="_top" xlink:title="Retrieve the current talloc NULL ctx. ">
<polygon fill="none" stroke="#000000" points="311,-974.5 311,-993.5 390,-993.5 390,-974.5 311,-974.5"/>
<text text-anchor="middle" x="350.5" y="-981.5" font-family="Helvetica,sans-Serif" font-size="10.00" fill="#000000">talloc_null_ctx</text>
</a>
</g>
</g>
<!-- Node662&#45;&gt;Node663 -->
<g id="edge2" class="edge">
<title>Node662&#45;&gt;Node663</title>
<path fill="none" stroke="#191970" d="M197.7767,-841.8186C209.7388,-865.446 243.2597,-926.0252 288,-960 293.4108,-964.1089 299.6092,-967.5926 305.9534,-970.5225"/>
<polygon fill="#191970" stroke="#191970" points="304.7021,-973.793 315.278,-974.4271 307.4059,-967.3362 304.7021,-973.793"/>
</g>
<!-- Node664 -->
<g id="node4" class="node">
<title>Node664</title>
<g id="a_node4"><a xlink:href="talloc_8h.html#ae835f7a926a1d3da159c1e0dce86581c" target="_top" xlink:title="Add an additional destructor to a talloc chunk. ">
<polygon fill="none" stroke="#000000" points="458.5,-955.5 458.5,-974.5 568.5,-974.5 568.5,-955.5 458.5,-955.5"/>
<text text-anchor="middle" x="513.5" y="-962.5" font-family="Helvetica,sans-Serif" font-size="10.00" fill="#000000">talloc_destructor_add</text>
</a>
</g>
</g>
<!-- Node662&#45;&gt;Node664 -->
<g id="edge3" class="edge">
<title>Node662&#45;&gt;Node664</title>
<path fill="none" stroke="#191970" d="M199.5136,-841.756C213.2671,-861.4898 247.3693,-906.0445 288,-927 337.8022,-952.6857 401.2353,-961.5994 448.13,-964.4273"/>
<polygon fill="#191970" stroke="#191970" points="448.0036,-967.9254 458.1737,-964.9558 448.3715,-960.9351 448.0036,-967.9254"/>
</g>
<!-- Node801 -->
<g id="node11" class="node">
<title>Node801</title>
<g id="a_node11"><a xlink:href="talloc_8h.html#adb92fb43a9672417f9da8e644d188b52" target="_top" xlink:title="Disarm a destructor and free all memory allocated in the trigger ctxs. ">
<polygon fill="none" stroke="#000000" points="289,-784.5 289,-803.5 412,-803.5 412,-784.5 289,-784.5"/>
<text text-anchor="middle" x="350.5" y="-791.5" font-family="Helvetica,sans-Serif" font-size="10.00" fill="#000000">talloc_destructor_disarm</text>
</a>
</g>
</g>
<!-- Node662&#45;&gt;Node801 -->
<g id="edge11" class="edge">
<title>Node662&#45;&gt;Node801</title>
<path fill="none" stroke="#191970" d="M232.7439,-822.411C253.5277,-817.3965 279.1611,-811.2119 301.1995,-805.8947"/>
<polygon fill="#191970" stroke="#191970" points="302.1417,-809.2679 311.0419,-803.5201 300.4999,-802.4632 302.1417,-809.2679"/>
</g>
<!-- Node802 -->
<g id="node12" class="node">
<title>Node802</title>
<g id="a_node12"><a xlink:href="talloc_8h.html#a9e4c941cc6b24faf5b0e81b7635fdffe" target="_top" xlink:title="Link two different parent and child contexts, so the child is freed before the parent. ">
<polygon fill="none" stroke="#000000" points="311,-898.5 311,-917.5 390,-917.5 390,-898.5 311,-898.5"/>
<text text-anchor="middle" x="350.5" y="-905.5" font-family="Helvetica,sans-Serif" font-size="10.00" fill="#000000">talloc_link_ctx</text>
</a>
</g>
</g>
<!-- Node662&#45;&gt;Node802 -->
<g id="edge12" class="edge">
<title>Node662&#45;&gt;Node802</title>
<path fill="none" stroke="#191970" d="M206.5816,-841.6187C224.5163,-853.9687 257.4111,-875.4215 288,-889 293.0532,-891.2431 298.4484,-893.321 303.8719,-895.2151"/>
<polygon fill="#191970" stroke="#191970" points="303.0043,-898.6143 313.5974,-898.4222 305.1965,-891.9664 303.0043,-898.6143"/>
</g>
<!-- Node805 -->
<g id="node15" class="node">
<title>Node805</title>
<g id="a_node15"><a xlink:href="talloc_8h.html#adb7f37fae27f88ec647215c8afca9725" target="_top" xlink:title="talloc_add_destructor">
<polygon fill="none" stroke="#000000" points="295.5,-746.5 295.5,-765.5 405.5,-765.5 405.5,-746.5 295.5,-746.5"/>
<text text-anchor="middle" x="350.5" y="-753.5" font-family="Helvetica,sans-Serif" font-size="10.00" fill="#000000">talloc_add_destructor</text>
</a>
</g>
</g>
<!-- Node662&#45;&gt;Node805 -->
<g id="edge18" class="edge">
<title>Node662&#45;&gt;Node805</title>
<path fill="none" stroke="#191970" d="M206.5816,-822.3813C224.5163,-810.0313 257.4111,-788.5785 288,-775 293.0532,-772.7569 298.4484,-770.679 303.8719,-768.7849"/>
<polygon fill="#191970" stroke="#191970" points="305.1965,-772.0336 313.5974,-765.5778 303.0043,-765.3857 305.1965,-772.0336"/>
</g>
<!-- Node806 -->
<g id="node16" class="node">
<title>Node806</title>
<g id="a_node16"><a xlink:href="talloc_8h.html#aab0c342f3705e1349f44abf78161914a" target="_top" xlink:title="talloc_disarm_destructor">
<polygon fill="none" stroke="#000000" points="289,-708.5 289,-727.5 412,-727.5 412,-708.5 289,-708.5"/>
<text text-anchor="middle" x="350.5" y="-715.5" font-family="Helvetica,sans-Serif" font-size="10.00" fill="#000000">talloc_disarm_destructor</text>
</a>
</g>
</g>
<!-- Node662&#45;&gt;Node806 -->
<g id="edge19" class="edge">
<title>Node662&#45;&gt;Node806</title>
<path fill="none" stroke="#191970" d="M199.9673,-822.3737C214.2911,-803.2695 248.9948,-760.3947 288,-737 291.6107,-734.8344 295.4886,-732.8973 299.4802,-731.168"/>
<polygon fill="#191970" stroke="#191970" points="300.8726,-734.382 308.9282,-727.5003 298.3393,-727.8564 300.8726,-734.382"/>
</g>
<!-- Node807 -->
<g id="node17" class="node">
<title>Node807</title>
<g id="a_node17"><a xlink:href="talloc_8h.html#a21dbbfb88b4603f31754b168d6def945" target="_top" xlink:title="Return a page aligned talloc memory pool. ">
<polygon fill="none" stroke="#000000" points="288,-860.5 288,-879.5 413,-879.5 413,-860.5 288,-860.5"/>
<text text-anchor="middle" x="350.5" y="-867.5" font-family="Helvetica,sans-Serif" font-size="10.00" fill="#000000">talloc_page_aligned_pool</text>
</a>
</g>
</g>
<!-- Node662&#45;&gt;Node807 -->
<g id="edge20" class="edge">
<title>Node662&#45;&gt;Node807</title>
<path fill="none" stroke="#191970" d="M232.7439,-841.589C253.5277,-846.6035 279.1611,-852.7881 301.1995,-858.1053"/>
<polygon fill="#191970" stroke="#191970" points="300.4999,-861.5368 311.0419,-860.4799 302.1417,-854.7321 300.4999,-861.5368"/>
</g>
<!-- Node808 -->
<g id="node18" class="node">
<title>Node808</title>
<g id="a_node18"><a xlink:href="talloc_8h.html#ab287847ee1ecaeaa96d876377e92c705" target="_top" xlink:title="Return a page aligned talloc memory array. ">
<polygon fill="none" stroke="#000000" points="299,-822.5 299,-841.5 402,-841.5 402,-822.5 299,-822.5"/>
<text text-anchor="middle" x="350.5" y="-829.5" font-family="Helvetica,sans-Serif" font-size="10.00" fill="#000000">talloc_aligned_array</text>
</a>
</g>
</g>
<!-- Node662&#45;&gt;Node808 -->
<g id="edge22" class="edge">
<title>Node662&#45;&gt;Node808</title>
<path fill="none" stroke="#191970" d="M236.8725,-832C252.9271,-832 271.4054,-832 288.732,-832"/>
<polygon fill="#191970" stroke="#191970" points="288.7736,-835.5001 298.7735,-832 288.7735,-828.5001 288.7736,-835.5001"/>
</g>
<!-- Node665 -->
<g id="node5" class="node">
<title>Node665</title>
<g id="a_node5"><a xlink:href="strerror_8c.html#ae701765650b8aea79a3037bc4921d7f8" target="_top" xlink:title="Log to thread local error buffer. ">
<polygon fill="none" stroke="#000000" points="639.5,-841.5 639.5,-860.5 725.5,-860.5 725.5,-841.5 639.5,-841.5"/>
<text text-anchor="middle" x="682.5" y="-848.5" font-family="Helvetica,sans-Serif" font-size="10.00" fill="#000000">fr_strerror_printf</text>
</a>
</g>
</g>
<!-- Node664&#45;&gt;Node665 -->
<g id="edge4" class="edge">
<title>Node664&#45;&gt;Node665</title>
<path fill="none" stroke="#191970" d="M561.3398,-955.4507C567.3054,-952.9887 573.0418,-949.8928 578,-946 603.0624,-926.323 590.6169,-905.6458 614,-884 622.5291,-876.1045 633.2942,-869.7365 643.7483,-864.7793"/>
<polygon fill="#191970" stroke="#191970" points="645.4486,-867.8548 653.1885,-860.6199 642.6262,-861.449 645.4486,-867.8548"/>
</g>
<!-- Node799 -->
<g id="node9" class="node">
<title>Node799</title>
<g id="a_node9"><a xlink:href="talloc_8c.html#a9a557e02d8c7d178ab5458fb972b52c4" target="_top" xlink:title="Called when the disarm_ctx ctx is freed. ">
<polygon fill="none" stroke="#000000" points="635.5,-893 635.5,-923 729.5,-923 729.5,-893 635.5,-893"/>
<text text-anchor="start" x="643.5" y="-911" font-family="Helvetica,sans-Serif" font-size="10.00" fill="#000000">_talloc_destructor</text>
<text text-anchor="middle" x="682.5" y="-900" font-family="Helvetica,sans-Serif" font-size="10.00" fill="#000000">_disarm</text>
</a>
</g>
</g>
<!-- Node664&#45;&gt;Node799 -->
<g id="edge9" class="edge">
<title>Node664&#45;&gt;Node799</title>
<path fill="none" stroke="#191970" d="M547.4327,-955.435C557.3271,-952.5298 568.1301,-949.2447 578,-946 596.2588,-939.9974 616.1215,-932.9161 633.5789,-926.5031"/>
<polygon fill="#191970" stroke="#191970" points="634.8375,-929.7694 643.0045,-923.0201 632.4112,-923.2033 634.8375,-929.7694"/>
</g>
<!-- Node800 -->
<g id="node10" class="node">
<title>Node800</title>
<g id="a_node10"><a xlink:href="talloc_8c.html#a0f65bca77390a8fc11310342d848d178" target="_top" xlink:title="Called with the fire_ctx is freed. ">
<polygon fill="none" stroke="#000000" points="626,-948.5 626,-967.5 739,-967.5 739,-948.5 626,-948.5"/>
<text text-anchor="middle" x="682.5" y="-955.5" font-family="Helvetica,sans-Serif" font-size="10.00" fill="#000000">_talloc_destructor_fire</text>
</a>
</g>
</g>
<!-- Node664&#45;&gt;Node800 -->
<g id="edge10" class="edge">
<title>Node664&#45;&gt;Node800</title>
<path fill="none" stroke="#191970" d="M568.8369,-962.7079C583.8407,-962.0865 600.2426,-961.4071 615.8011,-960.7627"/>
<polygon fill="#191970" stroke="#191970" points="616.0337,-964.2561 625.8803,-960.3452 615.744,-957.2621 616.0337,-964.2561"/>
</g>
<!-- Node666 -->
<g id="node6" class="node">
<title>Node666</title>
<g id="a_node6"><a xlink:href="acutest_8h.html#aecf9a9be8105efb1454cd8c1ef6cb1c5" target="_top" xlink:title="va_start">
<polygon fill="none" stroke="#000000" points="806.5,-841.5 806.5,-860.5 858.5,-860.5 858.5,-841.5 806.5,-841.5"/>
<text text-anchor="middle" x="832.5" y="-848.5" font-family="Helvetica,sans-Serif" font-size="10.00" fill="#000000">va_start</text>
</a>
</g>
</g>
<!-- Node665&#45;&gt;Node666 -->
<g id="edge5" class="edge">
<title>Node665&#45;&gt;Node666</title>
<path fill="none" stroke="#191970" d="M725.8862,-851C748.092,-851 774.8234,-851 795.9643,-851"/>
<polygon fill="#191970" stroke="#191970" points="796.152,-854.5001 806.152,-851 796.152,-847.5001 796.152,-854.5001"/>
</g>
<!-- Node667 -->
<g id="node7" class="node">
<title>Node667</title>
<g id="a_node7"><a xlink:href="strerror_8c.html#a193b1e0b3712e3bbee338812c06af482" target="_top" xlink:title="fr_strerror_vprintf">
<polygon fill="none" stroke="#ff0000" points="787,-879.5 787,-898.5 878,-898.5 878,-879.5 787,-879.5"/>
<text text-anchor="middle" x="832.5" y="-886.5" font-family="Helvetica,sans-Serif" font-size="10.00" fill="#000000">fr_strerror_vprintf</text>
</a>
</g>
</g>
<!-- Node665&#45;&gt;Node667 -->
<g id="edge6" class="edge">
<title>Node665&#45;&gt;Node667</title>
<path fill="none" stroke="#191970" d="M720.3513,-860.589C739.9671,-865.5583 764.1187,-871.6767 784.979,-876.9613"/>
<polygon fill="#191970" stroke="#191970" points="784.3675,-880.4169 794.9209,-879.4799 786.0866,-873.6313 784.3675,-880.4169"/>
</g>
<!-- Node670 -->
<g id="node8" class="node">
<title>Node670</title>
<g id="a_node8"><a xlink:href="acutest_8h.html#a36af1f79dd6adf0809c21e76535034d5" target="_top" xlink:title="va_end">
<polygon fill="none" stroke="#000000" points="914,-841.5 914,-860.5 962,-860.5 962,-841.5 914,-841.5"/>
<text text-anchor="middle" x="938" y="-848.5" font-family="Helvetica,sans-Serif" font-size="10.00" fill="#000000">va_end</text>
</a>
</g>
</g>
<!-- Node665&#45;&gt;Node670 -->
<g id="edge8" class="edge">
<title>Node665&#45;&gt;Node670</title>
<path fill="none" stroke="#191970" d="M721.6094,-841.4725C761.1919,-833.1717 824.0788,-823.6664 878,-832 886.6926,-833.3435 895.8512,-835.7207 904.3232,-838.3488"/>
<polygon fill="#191970" stroke="#191970" points="903.2911,-841.6938 913.8842,-841.5023 905.4837,-835.046 903.2911,-841.6938"/>
</g>
<!-- Node667&#45;&gt;Node670 -->
<g id="edge7" class="edge">
<title>Node667&#45;&gt;Node670</title>
<path fill="none" stroke="#191970" d="M859.1221,-879.411C872.8108,-874.4805 889.6399,-868.4188 904.2326,-863.1627"/>
<polygon fill="#191970" stroke="#191970" points="905.6897,-866.358 913.9119,-859.6763 903.3175,-859.7722 905.6897,-866.358"/>
</g>
<!-- Node803 -->
<g id="node13" class="node">
<title>Node803</title>
<g id="a_node13"><a xlink:href="talloc_8c.html#ae835f7a926a1d3da159c1e0dce86581c" target="_top" xlink:title="Add an additional destructor to a talloc chunk. ">
<polygon fill="none" stroke="#000000" points="458.5,-879.5 458.5,-898.5 568.5,-898.5 568.5,-879.5 458.5,-879.5"/>
<text text-anchor="middle" x="513.5" y="-886.5" font-family="Helvetica,sans-Serif" font-size="10.00" fill="#000000">talloc_destructor_add</text>
</a>
</g>
</g>
<!-- Node802&#45;&gt;Node803 -->
<g id="edge13" class="edge">
<title>Node802&#45;&gt;Node803</title>
<path fill="none" stroke="#191970" d="M390.3743,-903.3521C407.7906,-901.322 428.6737,-898.8877 448.2525,-896.6055"/>
<polygon fill="#191970" stroke="#191970" points="448.8192,-900.0633 458.3467,-895.4289 448.0087,-893.1103 448.8192,-900.0633"/>
</g>
<!-- Node804 -->
<g id="node14" class="node">
<title>Node804</title>
<g id="a_node14"><a xlink:href="talloc_8c.html#a1d56d7b1166027d8ee4ddfa2353c937f" target="_top" xlink:title="_talloc_link_ctx_free">
<polygon fill="none" stroke="#000000" points="460.5,-917.5 460.5,-936.5 566.5,-936.5 566.5,-917.5 460.5,-917.5"/>
<text text-anchor="middle" x="513.5" y="-924.5" font-family="Helvetica,sans-Serif" font-size="10.00" fill="#000000">_talloc_link_ctx_free</text>
</a>
</g>
</g>
<!-- Node802&#45;&gt;Node804 -->
<g id="edge17" class="edge">
<title>Node802&#45;&gt;Node804</title>
<path fill="none" stroke="#191970" d="M390.3743,-912.6479C408.4349,-914.7531 430.2235,-917.2929 450.4197,-919.6471"/>
<polygon fill="#191970" stroke="#191970" points="450.1561,-923.14 460.4941,-920.8214 450.9666,-916.187 450.1561,-923.14"/>
</g>
<!-- Node803&#45;&gt;Node665 -->
<g id="edge14" class="edge">
<title>Node803&#45;&gt;Node665</title>
<path fill="none" stroke="#191970" d="M556.1458,-879.411C578.6481,-874.3513 606.4482,-868.1004 630.2379,-862.7512"/>
<polygon fill="#191970" stroke="#191970" points="631.1723,-866.1286 640.1608,-860.5201 629.6366,-859.2991 631.1723,-866.1286"/>
</g>
<!-- Node803&#45;&gt;Node799 -->
<g id="edge15" class="edge">
<title>Node803&#45;&gt;Node799</title>
<path fill="none" stroke="#191970" d="M568.8369,-895.2213C586.8659,-897.2482 606.9136,-899.5021 625.091,-901.5457"/>
<polygon fill="#191970" stroke="#191970" points="624.9306,-905.0497 635.2591,-902.6889 625.7127,-898.0935 624.9306,-905.0497"/>
</g>
<!-- Node803&#45;&gt;Node800 -->
<g id="edge16" class="edge">
<title>Node803&#45;&gt;Node800</title>
<path fill="none" stroke="#191970" d="M553.475,-898.6024C561.7674,-901.1916 570.3145,-904.3184 578,-908 595.568,-916.4156 596.7079,-924.0312 614,-933 622.6743,-937.499 632.3452,-941.5578 641.623,-945.0328"/>
<polygon fill="#191970" stroke="#191970" points="640.4965,-948.347 651.091,-948.4367 642.8648,-941.7598 640.4965,-948.347"/>
</g>
<!-- Node807&#45;&gt;Node665 -->
<g id="edge21" class="edge">
<title>Node807&#45;&gt;Node665</title>
<path fill="none" stroke="#191970" d="M413.337,-866.4039C475.761,-862.8314 570.4315,-857.4136 629.2636,-854.0467"/>
<polygon fill="#191970" stroke="#191970" points="629.6747,-857.529 639.4584,-853.4632 629.2747,-850.5404 629.6747,-857.529"/>
</g>
<!-- Node808&#45;&gt;Node665 -->
<g id="edge23" class="edge">
<title>Node808&#45;&gt;Node665</title>
<path fill="none" stroke="#191970" d="M402.0107,-834.9479C463.7762,-838.4827 566.7727,-844.3771 629.2852,-847.9546"/>
<polygon fill="#191970" stroke="#191970" points="629.1512,-851.4525 639.3349,-848.5297 629.5512,-844.464 629.1512,-851.4525"/>
</g>
<!-- Node810 -->
<g id="node20" class="node">
<title>Node810</title>
<g id="a_node20"><a xlink:href="modules_2rlm__sigtran_2log_8c.html#a1f55933ed41e52da5e447c86c907b8ea" target="_top" xlink:title="do_log">
<polygon fill="none" stroke="#000000" points="328,-76.5 328,-95.5 373,-95.5 373,-76.5 328,-76.5"/>
<text text-anchor="middle" x="350.5" y="-83.5" font-family="Helvetica,sans-Serif" font-size="10.00" fill="#000000">do_log</text>
</a>
</g>
</g>
<!-- Node809&#45;&gt;Node810 -->
<g id="edge25" class="edge">
<title>Node809&#45;&gt;Node810</title>
<path fill="none" stroke="#191970" d="M234.3813,-107.3806C260.4222,-102.5858 293.56,-96.4842 317.7646,-92.0275"/>
<polygon fill="#191970" stroke="#191970" points="318.6704,-95.4196 327.8712,-90.1666 317.4027,-88.5353 318.6704,-95.4196"/>
</g>
<!-- Node812 -->
<g id="node23" class="node">
<title>Node812</title>
<g id="a_node23"><a xlink:href="modules_2rlm__sigtran_2event_8c.html#aec245cbe7ad919a178152260b65c8fda" target="_top" xlink:title="Unregister a osmocom_fd from the event loop, and close it. ">
<polygon fill="none" stroke="#000000" points="485,-.5 485,-19.5 542,-19.5 542,-.5 485,-.5"/>
<text text-anchor="middle" x="513.5" y="-7.5" font-family="Helvetica,sans-Serif" font-size="10.00" fill="#000000">_ofd_free</text>
</a>
</g>
</g>
<!-- Node811&#45;&gt;Node812 -->
<g id="edge28" class="edge">
<title>Node811&#45;&gt;Node812</title>
<path fill="none" stroke="#191970" d="M381.6312,-119.8481C392.5395,-117.1069 404.2408,-112.5558 413,-105 441.301,-80.5871 420.5936,-53.2902 449,-29 456.3626,-22.7043 465.7294,-18.4937 475.0275,-15.6779"/>
<polygon fill="#191970" stroke="#191970" points="476.1666,-18.9995 484.9918,-13.1373 474.4371,-12.2166 476.1666,-18.9995"/>
</g>
<!-- Node813&#45;&gt;Node749 -->
<g id="edge30" class="edge">
<title>Node813&#45;&gt;Node749</title>
<path fill="none" stroke="#191970" d="M252.0193,-222.5891C263.9268,-223.1772 276.3603,-223.6939 288,-224 475.4881,-228.9305 699.4004,-223.216 790.6768,-220.3945"/>
<polygon fill="#191970" stroke="#191970" points="790.9993,-223.8862 800.8844,-220.0738 790.7794,-216.8897 790.9993,-223.8862"/>
</g>
<!-- Node813&#45;&gt;Node811 -->
<g id="edge33" class="edge">
<title>Node813&#45;&gt;Node811</title>
<path fill="none" stroke="#191970" d="M214.3818,-209.412C226.142,-203.576 240.6126,-195.4344 252,-186 271.1932,-170.0986 267.2125,-156.7519 288,-143 294.5109,-138.6927 302.0392,-135.3281 309.5671,-132.7106"/>
<polygon fill="#191970" stroke="#191970" points="310.8539,-135.9764 319.3774,-129.6835 308.7899,-129.2876 310.8539,-135.9764"/>
</g>
<!-- Node814 -->
<g id="node25" class="node">
<title>Node814</title>
<g id="a_node25"><a xlink:href="modules_2rlm__sigtran_2event_8c.html#a6c7cab11635fbfa569403d6ee3a50919" target="_top" xlink:title="Send response. ">
<polygon fill="none" stroke="#000000" points="627.5,-190.5 627.5,-209.5 737.5,-209.5 737.5,-190.5 627.5,-190.5"/>
<text text-anchor="middle" x="682.5" y="-197.5" font-family="Helvetica,sans-Serif" font-size="10.00" fill="#000000">sigtran_event_submit</text>
</a>
</g>
</g>
<!-- Node813&#45;&gt;Node814 -->
<g id="edge31" class="edge">
<title>Node813&#45;&gt;Node814</title>
<path fill="none" stroke="#191970" d="M252.0451,-216.7082C344.171,-213.1323 521.4544,-206.251 617.2488,-202.5327"/>
<polygon fill="#191970" stroke="#191970" points="617.5309,-206.0245 627.3876,-202.1392 617.2593,-199.0298 617.5309,-206.0245"/>
</g>
<!-- Node815 -->
<g id="node26" class="node">
<title>Node815</title>
<g id="a_node26"><a xlink:href="modules_2rlm__sigtran_2event_8c.html#a4465df356c53709d8de682730c85dd06" target="_top" xlink:title="Bring up SCTP/M3UA/MTP3/SCCP. ">
<polygon fill="none" stroke="#000000" points="312,-430.5 312,-449.5 389,-449.5 389,-430.5 312,-430.5"/>
<text text-anchor="middle" x="350.5" y="-437.5" font-family="Helvetica,sans-Serif" font-size="10.00" fill="#000000">event_link_up</text>
</a>
</g>
</g>
<!-- Node813&#45;&gt;Node815 -->
<g id="edge34" class="edge">
<title>Node813&#45;&gt;Node815</title>
<path fill="none" stroke="#191970" d="M199.9708,-228.7813C224.3148,-262.9401 305.7899,-377.2639 337.6114,-421.9151"/>
<polygon fill="#191970" stroke="#191970" points="334.9557,-424.2194 343.6097,-430.3317 340.6562,-420.1568 334.9557,-424.2194"/>
</g>
<!-- Node969 -->
<g id="node45" class="node">
<title>Node969</title>
<g id="a_node45"><a xlink:href="modules_2rlm__sigtran_2event_8c.html#a4ab620dd48c6d2dc1e5b1be4455dfe02" target="_top" xlink:title="Take down a sigtran link. ">
<polygon fill="none" stroke="#000000" points="306,-266.5 306,-285.5 395,-285.5 395,-266.5 306,-266.5"/>
<text text-anchor="middle" x="350.5" y="-273.5" font-family="Helvetica,sans-Serif" font-size="10.00" fill="#000000">event_link_down</text>
</a>
</g>
</g>
<!-- Node813&#45;&gt;Node969 -->
<g id="edge54" class="edge">
<title>Node813&#45;&gt;Node969</title>
<path fill="none" stroke="#191970" d="M219.362,-228.5405C245.3692,-237.9527 285.3276,-252.4138 314.3023,-262.8999"/>
<polygon fill="#191970" stroke="#191970" points="313.4578,-266.3164 324.052,-266.4284 315.84,-259.7341 313.4578,-266.3164"/>
</g>
<!-- Node970 -->
<g id="node46" class="node">
<title>Node970</title>
<g id="a_node46"><a xlink:href="sccp_8c.html#a8c79aa8b2f653e96cf282a8a0c9b3e2a" target="_top" xlink:title="Send a request with static MAP data in it. ">
<polygon fill="none" stroke="#000000" points="294.5,-152.5 294.5,-171.5 406.5,-171.5 406.5,-152.5 294.5,-152.5"/>
<text text-anchor="middle" x="350.5" y="-159.5" font-family="Helvetica,sans-Serif" font-size="10.00" fill="#000000">sigtran_tcap_outgoing</text>
</a>
</g>
</g>
<!-- Node813&#45;&gt;Node970 -->
<g id="edge55" class="edge">
<title>Node813&#45;&gt;Node970</title>
<path fill="none" stroke="#191970" d="M219.362,-209.4595C245.3692,-200.0473 285.3276,-185.5862 314.3023,-175.1001"/>
<polygon fill="#191970" stroke="#191970" points="315.84,-178.2659 324.052,-171.5716 313.4578,-171.6836 315.84,-178.2659"/>
</g>
<!-- Node814&#45;&gt;Node749 -->
<g id="edge32" class="edge">
<title>Node814&#45;&gt;Node749</title>
<path fill="none" stroke="#191970" d="M737.5027,-206.967C754.9243,-209.1737 773.8989,-211.5772 790.2773,-213.6518"/>
<polygon fill="#191970" stroke="#191970" points="790.2623,-217.1778 800.6229,-214.9622 791.142,-210.2333 790.2623,-217.1778"/>
</g>
<!-- Node816 -->
<g id="node27" class="node">
<title>Node816</title>
<g id="a_node27"><a xlink:href="bsc_8c.html#a196cc0b942fa0333bbd233f369a5143d" target="_top" xlink:title="bsc_data_alloc">
<polygon fill="none" stroke="#000000" points="472.5,-506.5 472.5,-525.5 554.5,-525.5 554.5,-506.5 472.5,-506.5"/>
<text text-anchor="middle" x="513.5" y="-513.5" font-family="Helvetica,sans-Serif" font-size="10.00" fill="#000000">bsc_data_alloc</text>
</a>
</g>
</g>
<!-- Node815&#45;&gt;Node816 -->
<g id="edge35" class="edge">
<title>Node815&#45;&gt;Node816</title>
<path fill="none" stroke="#191970" d="M364.6207,-449.6236C383.2582,-461.9789 417.4102,-483.4375 449,-497 454.3601,-499.3012 460.0851,-501.428 465.8283,-503.3607"/>
<polygon fill="#191970" stroke="#191970" points="464.8592,-506.7253 475.4498,-506.4267 466.9846,-500.0557 464.8592,-506.7253"/>
</g>
<!-- Node817 -->
<g id="node28" class="node">
<title>Node817</title>
<g id="a_node28"><a xlink:href="mtp__data_8h.html#a2531aef762d1ffb8f73195eef3f9b137" target="_top" xlink:title="Allocate a new link set. ">
<polygon fill="none" stroke="#000000" points="464.5,-468.5 464.5,-487.5 562.5,-487.5 562.5,-468.5 464.5,-468.5"/>
<text text-anchor="middle" x="513.5" y="-475.5" font-family="Helvetica,sans-Serif" font-size="10.00" fill="#000000">mtp_link_set_alloc</text>
</a>
</g>
</g>
<!-- Node815&#45;&gt;Node817 -->
<g id="edge36" class="edge">
<title>Node815&#45;&gt;Node817</title>
<path fill="none" stroke="#191970" d="M389.1287,-449.0055C411.1229,-454.133 438.9404,-460.618 462.6875,-466.1542"/>
<polygon fill="#191970" stroke="#191970" points="462.0533,-469.6001 472.5868,-468.462 463.6426,-462.7829 462.0533,-469.6001"/>
</g>
<!-- Node863 -->
<g id="node33" class="node">
<title>Node863</title>
<g id="a_node33"><a xlink:href="sccp__connection_8c.html#ad6134f786fc5a531996de55cfcc66374" target="_top" xlink:title="sigtran_sscp_init">
<polygon fill="none" stroke="#000000" points="468.5,-430.5 468.5,-449.5 558.5,-449.5 558.5,-430.5 468.5,-430.5"/>
<text text-anchor="middle" x="513.5" y="-437.5" font-family="Helvetica,sans-Serif" font-size="10.00" fill="#000000">sigtran_sscp_init</text>
</a>
</g>
</g>
<!-- Node815&#45;&gt;Node863 -->
<g id="edge41" class="edge">
<title>Node815&#45;&gt;Node863</title>
<path fill="none" stroke="#191970" d="M389.1287,-440C409.702,-440 435.3703,-440 458.0366,-440"/>
<polygon fill="#191970" stroke="#191970" points="458.2105,-443.5001 468.2104,-440 458.2104,-436.5001 458.2105,-443.5001"/>
</g>
<!-- Node867 -->
<g id="node37" class="node">
<title>Node867</title>
<g id="a_node37"><a xlink:href="mtp__data_8h.html#a71ea64da9cb404fb07a2e2b192c3e4e5" target="_top" xlink:title="mtp_link_set_sccp_data\l_available_cb">
<polygon fill="none" stroke="#000000" points="452.5,-381 452.5,-411 574.5,-411 574.5,-381 452.5,-381"/>
<text text-anchor="start" x="460.5" y="-399" font-family="Helvetica,sans-Serif" font-size="10.00" fill="#000000">mtp_link_set_sccp_data</text>
<text text-anchor="middle" x="513.5" y="-388" font-family="Helvetica,sans-Serif" font-size="10.00" fill="#000000">_available_cb</text>
</a>
</g>
</g>
<!-- Node815&#45;&gt;Node867 -->
<g id="edge45" class="edge">
<title>Node815&#45;&gt;Node867</title>
<path fill="none" stroke="#191970" d="M385.8686,-430.4527C403.9747,-425.5651 426.6101,-419.4549 447.7708,-413.7429"/>
<polygon fill="#191970" stroke="#191970" points="448.9474,-417.0506 457.6897,-411.0654 447.1231,-410.2925 448.9474,-417.0506"/>
</g>
<!-- Node868 -->
<g id="node38" class="node">
<title>Node868</title>
<g id="a_node38"><a xlink:href="sccp_8c.html#a2ddbf7ad4761dcade8d9d0b459031422" target="_top" xlink:title="Wrapper to pass data off to libsccp for processing. ">
<polygon fill="none" stroke="#000000" points="455.5,-342.5 455.5,-361.5 571.5,-361.5 571.5,-342.5 455.5,-342.5"/>
<text text-anchor="middle" x="513.5" y="-349.5" font-family="Helvetica,sans-Serif" font-size="10.00" fill="#000000">sigtran_sccp_incoming</text>
</a>
</g>
</g>
<!-- Node815&#45;&gt;Node868 -->
<g id="edge46" class="edge">
<title>Node815&#45;&gt;Node868</title>
<path fill="none" stroke="#191970" d="M361.9066,-430.3837C379.5506,-415.9278 414.986,-388.5335 449,-372 454.4039,-369.3733 460.2292,-366.9967 466.0905,-364.8754"/>
<polygon fill="#191970" stroke="#191970" points="467.5713,-368.0693 475.9208,-361.5473 465.3265,-361.4389 467.5713,-368.0693"/>
</g>
<!-- Node869 -->
<g id="node39" class="node">
<title>Node869</title>
<g id="a_node39"><a xlink:href="mtp__data_8h.html#a5ab206770d63b61e8246fce0eaec9bfb" target="_top" xlink:title="mtp_link_alloc">
<polygon fill="none" stroke="#ff0000" points="474,-304.5 474,-323.5 553,-323.5 553,-304.5 474,-304.5"/>
<text text-anchor="middle" x="513.5" y="-311.5" font-family="Helvetica,sans-Serif" font-size="10.00" fill="#000000">mtp_link_alloc</text>
</a>
</g>
</g>
<!-- Node815&#45;&gt;Node869 -->
<g id="edge47" class="edge">
<title>Node815&#45;&gt;Node869</title>
<path fill="none" stroke="#191970" d="M356.6302,-430.3964C370.4825,-409.477 406.3387,-359.5451 449,-333 453.708,-330.0706 458.8895,-327.5741 464.2066,-325.4508"/>
<polygon fill="#191970" stroke="#191970" points="465.6032,-328.6689 473.8511,-322.0189 463.2564,-322.074 465.6032,-328.6689"/>
</g>
<!-- Node881 -->
<g id="node41" class="node">
<title>Node881</title>
<g id="a_node41"><a xlink:href="modules_2rlm__sigtran_2event_8c.html#afbaf779f6498de9ae18aa169008e3d82" target="_top" xlink:title="Shutdown the MTP3 link gracefully if it&#39;s being freed. ">
<polygon fill="none" stroke="#000000" points="470.5,-266.5 470.5,-285.5 556.5,-285.5 556.5,-266.5 470.5,-266.5"/>
<text text-anchor="middle" x="513.5" y="-273.5" font-family="Helvetica,sans-Serif" font-size="10.00" fill="#000000">_mtp3_link_free</text>
</a>
</g>
</g>
<!-- Node815&#45;&gt;Node881 -->
<g id="edge49" class="edge">
<title>Node815&#45;&gt;Node881</title>
<path fill="none" stroke="#191970" d="M354.3511,-430.1775C365.1164,-404.0174 398.1083,-332.1278 449,-295 452.6529,-292.335 456.6771,-290.0415 460.8764,-288.0681"/>
<polygon fill="#191970" stroke="#191970" points="462.3334,-291.2539 470.2735,-284.2393 459.6921,-284.7714 462.3334,-291.2539"/>
</g>
<!-- Node882 -->
<g id="node42" class="node">
<title>Node882</title>
<g id="a_node42"><a xlink:href="sctp__m3ua_8h.html#a3e71ee7f0b2491bc9f2ce0eb1c6dcc21" target="_top" xlink:title="mtp_m3ua_client_link_init">
<polygon fill="none" stroke="#ff0000" points="449,-632.5 449,-651.5 578,-651.5 578,-632.5 449,-632.5"/>
<text text-anchor="middle" x="513.5" y="-639.5" font-family="Helvetica,sans-Serif" font-size="10.00" fill="#000000">mtp_m3ua_client_link_init</text>
</a>
</g>
</g>
<!-- Node815&#45;&gt;Node882 -->
<g id="edge50" class="edge">
<title>Node815&#45;&gt;Node882</title>
<path fill="none" stroke="#191970" d="M352.8527,-449.6558C360.7642,-480.0447 389.3264,-574.5718 449,-623 451.2519,-624.8275 453.6742,-626.4793 456.2126,-627.9722"/>
<polygon fill="#191970" stroke="#191970" points="454.7006,-631.1292 465.2115,-632.4605 457.8249,-624.8651 454.7006,-631.1292"/>
</g>
<!-- Node966 -->
<g id="node43" class="node">
<title>Node966</title>
<g id="a_node43"><a xlink:href="inet_8c.html#a8a9e81ebf730dfb73cb9e36038bf3703" target="_top" xlink:title="Convert our internal ip address representation to a sockaddr. ">
<polygon fill="none" stroke="#000000" points="457,-544.5 457,-563.5 570,-563.5 570,-544.5 457,-544.5"/>
<text text-anchor="middle" x="513.5" y="-551.5" font-family="Helvetica,sans-Serif" font-size="10.00" fill="#000000">fr_ipaddr_to_sockaddr</text>
</a>
</g>
</g>
<!-- Node815&#45;&gt;Node966 -->
<g id="edge51" class="edge">
<title>Node815&#45;&gt;Node966</title>
<path fill="none" stroke="#191970" d="M357.7916,-449.643C372.7647,-468.7774 408.9548,-511.7037 449,-535 452.6893,-537.1462 456.6405,-539.067 460.7034,-540.7829"/>
<polygon fill="#191970" stroke="#191970" points="459.7246,-544.1547 470.316,-544.4245 462.2045,-537.6087 459.7246,-544.1547"/>
</g>
<!-- Node967 -->
<g id="node44" class="node">
<title>Node967</title>
<g id="a_node44"><a xlink:href="modules_2rlm__sigtran_2event_8c.html#aa197b3716c33b51fc3fa1e2e3f3c1a8e" target="_top" xlink:title="Add a route to an m3ua_association. ">
<polygon fill="none" stroke="#ff0000" points="462.5,-583 462.5,-613 564.5,-613 564.5,-583 462.5,-583"/>
<text text-anchor="start" x="470.5" y="-601" font-family="Helvetica,sans-Serif" font-size="10.00" fill="#000000">sigtran_m3ua_route</text>
<text text-anchor="middle" x="513.5" y="-590" font-family="Helvetica,sans-Serif" font-size="10.00" fill="#000000">_from_conf</text>
</a>
</g>
</g>
<!-- Node815&#45;&gt;Node967 -->
<g id="edge53" class="edge">
<title>Node815&#45;&gt;Node967</title>
<path fill="none" stroke="#191970" d="M355.2721,-449.8335C367.5171,-474.1032 402.3922,-537.4542 449,-573 451.3277,-574.7752 453.7968,-576.439 456.3594,-577.9965"/>
<polygon fill="#191970" stroke="#191970" points="454.9049,-581.1895 465.3624,-582.89 458.2478,-575.0393 454.9049,-581.1895"/>
</g>
<!-- Node818 -->
<g id="node29" class="node">
<title>Node818</title>
<g id="a_node29"><a xlink:href="counter_8c.html#a467c611a98719955d5f98079ea4e64e0" target="_top" xlink:title="mtp_link_set_rate_ctr_desc">
<polygon fill="none" stroke="#000000" points="614,-506.5 614,-525.5 751,-525.5 751,-506.5 614,-506.5"/>
<text text-anchor="middle" x="682.5" y="-513.5" font-family="Helvetica,sans-Serif" font-size="10.00" fill="#000000">mtp_link_set_rate_ctr_desc</text>
</a>
</g>
</g>
<!-- Node817&#45;&gt;Node818 -->
<g id="edge37" class="edge">
<title>Node817&#45;&gt;Node818</title>
<path fill="none" stroke="#191970" d="M556.1458,-487.589C578.6481,-492.6487 606.4482,-498.8996 630.2379,-504.2488"/>
<polygon fill="#191970" stroke="#191970" points="629.6366,-507.7009 640.1608,-506.4799 631.1723,-500.8714 629.6366,-507.7009"/>
</g>
<!-- Node819 -->
<g id="node30" class="node">
<title>Node819</title>
<g id="a_node30"><a xlink:href="mtp__layer3_8c.html#a15a519927940670d64a16ff4024e01de" target="_top" xlink:title="T18 is used on linkset restart when we&#39;re an STP (Signalling Transfer Point) ">
<polygon fill="none" stroke="#000000" points="642.5,-468.5 642.5,-487.5 722.5,-487.5 722.5,-468.5 642.5,-468.5"/>
<text text-anchor="middle" x="682.5" y="-475.5" font-family="Helvetica,sans-Serif" font-size="10.00" fill="#000000">linkset_t18_cb</text>
</a>
</g>
</g>
<!-- Node817&#45;&gt;Node819 -->
<g id="edge38" class="edge">
<title>Node817&#45;&gt;Node819</title>
<path fill="none" stroke="#191970" d="M562.8361,-478C584.7039,-478 610.3959,-478 632.3565,-478"/>
<polygon fill="#191970" stroke="#191970" points="632.4795,-481.5001 642.4795,-478 632.4794,-474.5001 632.4795,-481.5001"/>
</g>
<!-- Node820 -->
<g id="node31" class="node">
<title>Node820</title>
<g id="a_node31"><a xlink:href="mtp__layer3_8c.html#a1ff7975a431191d4b1b68d98a08ad6b4" target="_top" xlink:title="T20 is used on linkset restart. ">
<polygon fill="none" stroke="#ff0000" points="642.5,-582.5 642.5,-601.5 722.5,-601.5 722.5,-582.5 642.5,-582.5"/>
<text text-anchor="middle" x="682.5" y="-589.5" font-family="Helvetica,sans-Serif" font-size="10.00" fill="#000000">linkset_t20_cb</text>
</a>
</g>
</g>
<!-- Node817&#45;&gt;Node820 -->
<g id="edge39" class="edge">
<title>Node817&#45;&gt;Node820</title>
<path fill="none" stroke="#191970" d="M562.6356,-487.5949C568.1933,-490.0492 573.4752,-493.1308 578,-497 606.4064,-521.2902 585.4014,-548.9364 614,-573 619.3929,-577.5378 625.7887,-580.9965 632.4715,-583.6318"/>
<polygon fill="#191970" stroke="#191970" points="631.791,-587.0941 642.3846,-586.9334 634.0029,-580.4527 631.791,-587.0941"/>
</g>
<!-- Node825 -->
<g id="node32" class="node">
<title>Node825</title>
<g id="a_node32"><a xlink:href="mtp__data_8h.html#abc043b381fe3cdc9fdd21b2b3cf16701" target="_top" xlink:title="mtp_link_set_forward_sccp">
<polygon fill="none" stroke="#ff0000" points="614.5,-544.5 614.5,-563.5 750.5,-563.5 750.5,-544.5 614.5,-544.5"/>
<text text-anchor="middle" x="682.5" y="-551.5" font-family="Helvetica,sans-Serif" font-size="10.00" fill="#000000">mtp_link_set_forward_sccp</text>
</a>
</g>
</g>
<!-- Node817&#45;&gt;Node825 -->
<g id="edge40" class="edge">
<title>Node817&#45;&gt;Node825</title>
<path fill="none" stroke="#191970" d="M557.5094,-487.5657C564.6368,-490.0585 571.7281,-493.1594 578,-497 597.8403,-509.149 594.0638,-523.0091 614,-535 617.6288,-537.1826 621.5155,-539.1215 625.5256,-540.8427"/>
<polygon fill="#191970" stroke="#191970" points="624.453,-544.1795 635.0437,-544.4763 626.9496,-537.6399 624.453,-544.1795"/>
</g>
<!-- Node864 -->
<g id="node34" class="node">
<title>Node864</title>
<g id="a_node34"><a xlink:href="sccp__connection_8c.html#a49b63a5d0ec33bcd9586052d03e4104a" target="_top" xlink:title="msc_sccp_write_ipa">
<polygon fill="none" stroke="#000000" points="629.5,-354.5 629.5,-373.5 735.5,-373.5 735.5,-354.5 629.5,-354.5"/>
<text text-anchor="middle" x="682.5" y="-361.5" font-family="Helvetica,sans-Serif" font-size="10.00" fill="#000000">msc_sccp_write_ipa</text>
</a>
</g>
</g>
<!-- Node863&#45;&gt;Node864 -->
<g id="edge42" class="edge">
<title>Node863&#45;&gt;Node864</title>
<path fill="none" stroke="#191970" d="M557.5094,-430.4343C564.6368,-427.9415 571.7281,-424.8406 578,-421 597.8403,-408.851 594.0638,-394.9909 614,-383 617.6288,-380.8174 621.5155,-378.8785 625.5256,-377.1573"/>
<polygon fill="#191970" stroke="#191970" points="626.9496,-380.3601 635.0437,-373.5237 624.453,-373.8205 626.9496,-380.3601"/>
</g>
<!-- Node865 -->
<g id="node35" class="node">
<title>Node865</title>
<g id="a_node35"><a xlink:href="sccp__connection_8c.html#a6ca9039f6662fc1c0bbbe252102dff17" target="_top" xlink:title="msc_sccp_accept">
<polygon fill="none" stroke="#000000" points="634.5,-430.5 634.5,-449.5 730.5,-449.5 730.5,-430.5 634.5,-430.5"/>
<text text-anchor="middle" x="682.5" y="-437.5" font-family="Helvetica,sans-Serif" font-size="10.00" fill="#000000">msc_sccp_accept</text>
</a>
</g>
</g>
<!-- Node863&#45;&gt;Node865 -->
<g id="edge43" class="edge">
<title>Node863&#45;&gt;Node865</title>
<path fill="none" stroke="#191970" d="M558.7889,-440C578.8706,-440 602.7487,-440 624.1457,-440"/>
<polygon fill="#191970" stroke="#191970" points="624.4229,-443.5001 634.4229,-440 624.4228,-436.5001 624.4229,-443.5001"/>
</g>
<!-- Node866 -->
<g id="node36" class="node">
<title>Node866</title>
<g id="a_node36"><a xlink:href="sccp__connection_8c.html#a3925857950f37d3d0c46d6b663f92aa5" target="_top" xlink:title="msc_sccp_read">
<polygon fill="none" stroke="#000000" points="639.5,-392.5 639.5,-411.5 725.5,-411.5 725.5,-392.5 639.5,-392.5"/>
<text text-anchor="middle" x="682.5" y="-399.5" font-family="Helvetica,sans-Serif" font-size="10.00" fill="#000000">msc_sccp_read</text>
</a>
</g>
</g>
<!-- Node863&#45;&gt;Node866 -->
<g id="edge44" class="edge">
<title>Node863&#45;&gt;Node866</title>
<path fill="none" stroke="#191970" d="M556.1458,-430.411C578.6481,-425.3513 606.4482,-419.1004 630.2379,-413.7512"/>
<polygon fill="#191970" stroke="#191970" points="631.1723,-417.1286 640.1608,-411.5201 629.6366,-410.2991 631.1723,-417.1286"/>
</g>
<!-- Node870 -->
<g id="node40" class="node">
<title>Node870</title>
<g id="a_node40"><a xlink:href="counter_8c.html#a735958f198c53d6730eef12832fff5aa" target="_top" xlink:title="mtp_link_rate_ctr_desc">
<polygon fill="none" stroke="#000000" points="623.5,-304.5 623.5,-323.5 741.5,-323.5 741.5,-304.5 623.5,-304.5"/>
<text text-anchor="middle" x="682.5" y="-311.5" font-family="Helvetica,sans-Serif" font-size="10.00" fill="#000000">mtp_link_rate_ctr_desc</text>
</a>
</g>
</g>
<!-- Node869&#45;&gt;Node870 -->
<g id="edge48" class="edge">
<title>Node869&#45;&gt;Node870</title>
<path fill="none" stroke="#191970" d="M553.123,-314C570.9835,-314 592.6124,-314 613.0312,-314"/>
<polygon fill="#191970" stroke="#191970" points="613.2529,-317.5001 623.2529,-314 613.2529,-310.5001 613.2529,-317.5001"/>
</g>
<!-- Node966&#45;&gt;Node665 -->
<g id="edge52" class="edge">
<title>Node966&#45;&gt;Node665</title>
<path fill="none" stroke="#191970" d="M561.992,-563.5989C567.8565,-566.2608 573.391,-569.6598 578,-574 654.7207,-646.2451 675.5807,-780.4458 680.8459,-831.0217"/>
<polygon fill="#191970" stroke="#191970" points="677.387,-831.6228 681.8115,-841.2495 684.356,-830.9648 677.387,-831.6228"/>
</g>
<!-- Node971 -->
<g id="node47" class="node">
<title>Node971</title>
<g id="a_node47"><a xlink:href="sctp__m3ua_8h.html#a5d17dfa0f6f30444b54ec8b58ff0ee5f" target="_top" xlink:title="mtp_m3ua_link_is_up">
<polygon fill="none" stroke="#000000" points="458,-152.5 458,-171.5 569,-171.5 569,-152.5 458,-152.5"/>
<text text-anchor="middle" x="513.5" y="-159.5" font-family="Helvetica,sans-Serif" font-size="10.00" fill="#000000">mtp_m3ua_link_is_up</text>
</a>
</g>
</g>
<!-- Node970&#45;&gt;Node971 -->
<g id="edge56" class="edge">
<title>Node970&#45;&gt;Node971</title>
<path fill="none" stroke="#191970" d="M406.5954,-162C419.8045,-162 434.0029,-162 447.5996,-162"/>
<polygon fill="#191970" stroke="#191970" points="447.8535,-165.5001 457.8534,-162 447.8534,-158.5001 447.8535,-165.5001"/>
</g>
<!-- Node972 -->
<g id="node48" class="node">
<title>Node972</title>
<g id="a_node48"><a xlink:href="rbtree_8c.html#a05ca35e9532c98afa6d2af1c57c25765" target="_top" xlink:title="rbtree_num_elements">
<polygon fill="none" stroke="#000000" points="458.5,-114.5 458.5,-133.5 568.5,-133.5 568.5,-114.5 458.5,-114.5"/>
<text text-anchor="middle" x="513.5" y="-121.5" font-family="Helvetica,sans-Serif" font-size="10.00" fill="#000000">rbtree_num_elements</text>
</a>
</g>
</g>
<!-- Node970&#45;&gt;Node972 -->
<g id="edge57" class="edge">
<title>Node970&#45;&gt;Node972</title>
<path fill="none" stroke="#191970" d="M391.6318,-152.411C413.2383,-147.3739 439.909,-141.1562 462.7858,-135.8229"/>
<polygon fill="#191970" stroke="#191970" points="463.7198,-139.1991 472.664,-133.5201 462.1305,-132.3819 463.7198,-139.1991"/>
</g>
<!-- Node973 -->
<g id="node49" class="node">
<title>Node973</title>
<g id="a_node49"><a xlink:href="rbtree_8c.html#a79839e37a71b50c3d31a875351cc0a87" target="_top" xlink:title="rbtree_insert">
<polygon fill="none" stroke="#ff0000" points="478,-76.5 478,-95.5 549,-95.5 549,-76.5 478,-76.5"/>
<text text-anchor="middle" x="513.5" y="-83.5" font-family="Helvetica,sans-Serif" font-size="10.00" fill="#000000">rbtree_insert</text>
</a>
</g>
</g>
<!-- Node970&#45;&gt;Node973 -->
<g id="edge58" class="edge">
<title>Node970&#45;&gt;Node973</title>
<path fill="none" stroke="#191970" d="M392.8166,-152.4101C399.8335,-149.9131 406.8265,-146.8171 413,-143 432.7875,-130.7653 429.1597,-117.149 449,-105 454.8862,-101.3957 461.4939,-98.4427 468.176,-96.0326"/>
<polygon fill="#191970" stroke="#191970" points="469.5039,-99.2818 477.9438,-92.8771 467.3521,-92.6207 469.5039,-99.2818"/>
</g>
<!-- Node979 -->
<g id="node50" class="node">
<title>Node979</title>
<g id="a_node50"><a xlink:href="sccp_8c.html#ab8327bfa7c161d563dd384bdcac873f5" target="_top" xlink:title="sigtran_tcap_timeout">
<polygon fill="none" stroke="#ff0000" points="460,-38.5 460,-57.5 567,-57.5 567,-38.5 460,-38.5"/>
<text text-anchor="middle" x="513.5" y="-45.5" font-family="Helvetica,sans-Serif" font-size="10.00" fill="#000000">sigtran_tcap_timeout</text>
</a>
</g>
</g>
<!-- Node970&#45;&gt;Node979 -->
<g id="edge59" class="edge">
<title>Node970&#45;&gt;Node979</title>
<path fill="none" stroke="#191970" d="M397.8045,-152.3715C403.3044,-149.9231 408.5345,-146.852 413,-143 441.301,-118.5871 420.5936,-91.2902 449,-67 450.9796,-65.3072 453.1041,-63.7652 455.3333,-62.3605"/>
<polygon fill="#191970" stroke="#191970" points="457.1537,-65.3574 464.3644,-57.5949 453.8867,-59.1664 457.1537,-65.3574"/>
</g>
<!-- Node979&#45;&gt;Node749 -->
<g id="edge61" class="edge">
<title>Node979&#45;&gt;Node749</title>
<path fill="none" stroke="#191970" d="M551.926,-57.5926C560.6486,-60.2425 569.765,-63.397 578,-67 669.5578,-107.059 768.6511,-173.8042 811.1663,-203.7007"/>
<polygon fill="#191970" stroke="#191970" points="809.1725,-206.5775 819.3568,-209.4981 813.2167,-200.8639 809.1725,-206.5775"/>
</g>
<!-- Node979&#45;&gt;Node814 -->
<g id="edge60" class="edge">
<title>Node979&#45;&gt;Node814</title>
<path fill="none" stroke="#191970" d="M560.0551,-57.5276C566.4183,-59.9981 572.6072,-63.1021 578,-67 600.7813,-83.4662 596.9047,-96.6869 614,-119 631.3594,-141.6577 652.8063,-166.5691 667.0289,-182.7009"/>
<polygon fill="#191970" stroke="#191970" points="664.4946,-185.1182 673.748,-190.2781 669.732,-180.4739 664.4946,-185.1182"/>
</g>
</g>
</svg>
