<?xml version="1.0" encoding="UTF-8" standalone="no"?>
<!DOCTYPE svg PUBLIC "-//W3C//DTD SVG 1.1//EN"
 "http://www.w3.org/Graphics/SVG/1.1/DTD/svg11.dtd">
<!-- Generated by graphviz version 2.40.1 (20161225.0304)
 -->
<!-- Title: fr_lua_util_jit_log_register Pages: 1 -->
<svg width="371pt" height="39pt"
 viewBox="0.00 0.00 371.00 39.00" xmlns="http://www.w3.org/2000/svg" xmlns:xlink="http://www.w3.org/1999/xlink">
<g id="graph0" class="graph" transform="scale(1 1) rotate(0) translate(4 35)">
<title>fr_lua_util_jit_log_register</title>
<!-- Node54 -->
<g id="node1" class="node">
<title>Node54</title>
<polygon fill="#bfbfbf" stroke="#000000" points="0,-.5 0,-30.5 89,-30.5 89,-.5 0,-.5"/>
<text text-anchor="start" x="8" y="-18.5" font-family="Helvetica,sans-Serif" font-size="10.00" fill="#000000">fr_lua_util_jit_log</text>
<text text-anchor="middle" x="44.5" y="-7.5" font-family="Helvetica,sans-Serif" font-size="10.00" fill="#000000">_register</text>
</g>
<!-- Node55 -->
<g id="node2" class="node">
<title>Node55</title>
<g id="a_node2"><a xlink:href="dl__module_8c.html#a084c3ace3af0d625a940349589706171" target="_top" xlink:title="dl_module_search_path">
<polygon fill="none" stroke="#000000" points="125,-6 125,-25 244,-25 244,-6 125,-6"/>
<text text-anchor="middle" x="184.5" y="-13" font-family="Helvetica,sans-Serif" font-size="10.00" fill="#000000">dl_module_search_path</text>
</a>
</g>
</g>
<!-- Node54&#45;&gt;Node55 -->
<g id="edge1" class="edge">
<title>Node54&#45;&gt;Node55</title>
<path fill="none" stroke="#191970" d="M89.1818,-15.5C97.3492,-15.5 106.048,-15.5 114.7419,-15.5"/>
<polygon fill="#191970" stroke="#191970" points="114.9133,-19.0001 124.9133,-15.5 114.9133,-12.0001 114.9133,-19.0001"/>
</g>
<!-- Node56 -->
<g id="node3" class="node">
<title>Node56</title>
<g id="a_node3"><a xlink:href="dl_8c.html#a7fb6d5d7f69139f8fc5823aa913fa4f6" target="_top" xlink:title="Return current library path. ">
<polygon fill="none" stroke="#000000" points="280,-6 280,-25 363,-25 363,-6 280,-6"/>
<text text-anchor="middle" x="321.5" y="-13" font-family="Helvetica,sans-Serif" font-size="10.00" fill="#000000">dl_search_path</text>
</a>
</g>
</g>
<!-- Node55&#45;&gt;Node56 -->
<g id="edge2" class="edge">
<title>Node55&#45;&gt;Node56</title>
<path fill="none" stroke="#191970" d="M244.1917,-15.5C252.6079,-15.5 261.2045,-15.5 269.4618,-15.5"/>
<polygon fill="#191970" stroke="#191970" points="269.7006,-19.0001 279.7006,-15.5 269.7006,-12.0001 269.7006,-19.0001"/>
</g>
</g>
</svg>
