<?xml version="1.0" encoding="UTF-8" standalone="no"?>
<!DOCTYPE svg PUBLIC "-//W3C//DTD SVG 1.1//EN"
 "http://www.w3.org/Graphics/SVG/1.1/DTD/svg11.dtd">
<!-- Generated by graphviz version 2.40.1 (20161225.0304)
 -->
<!-- Title: fr_lua_util_log_register Pages: 1 -->
<svg width="408pt" height="180pt"
 viewBox="0.00 0.00 408.00 180.00" xmlns="http://www.w3.org/2000/svg" xmlns:xlink="http://www.w3.org/1999/xlink">
<g id="graph0" class="graph" transform="scale(1 1) rotate(0) translate(4 176)">
<title>fr_lua_util_log_register</title>
<!-- Node16 -->
<g id="node1" class="node">
<title>Node16</title>
<polygon fill="#bfbfbf" stroke="#000000" points="0,-76.5 0,-95.5 114,-95.5 114,-76.5 0,-76.5"/>
<text text-anchor="middle" x="57" y="-83.5" font-family="Helvetica,sans-Serif" font-size="10.00" fill="#000000">fr_lua_util_log_register</text>
</g>
<!-- Node17 -->
<g id="node2" class="node">
<title>Node17</title>
<g id="a_node2"><a xlink:href="modules_2rlm__lua_2util_8c.html#a08b68206df4695869631f6579731ec87" target="_top" xlink:title="_util_log_newindex">
<polygon fill="none" stroke="#000000" points="150,-152.5 150,-171.5 249,-171.5 249,-152.5 150,-152.5"/>
<text text-anchor="middle" x="199.5" y="-159.5" font-family="Helvetica,sans-Serif" font-size="10.00" fill="#000000">_util_log_newindex</text>
</a>
</g>
</g>
<!-- Node16&#45;&gt;Node17 -->
<g id="edge1" class="edge">
<title>Node16&#45;&gt;Node17</title>
<path fill="none" stroke="#191970" d="M70.723,-95.5202C88.4761,-107.5729 120.6177,-128.5093 150,-143 154.0092,-144.9772 158.2785,-146.888 162.5651,-148.6864"/>
<polygon fill="#191970" stroke="#191970" points="161.2982,-151.9493 171.8823,-152.4261 163.9057,-145.453 161.2982,-151.9493"/>
</g>
<!-- Node19 -->
<g id="node4" class="node">
<title>Node19</title>
<g id="a_node4"><a xlink:href="modules_2rlm__lua_2util_8c.html#a60b26e6613e5a94edd033551e99dbcda" target="_top" xlink:title="Lua function to output debug messages. ">
<polygon fill="none" stroke="#000000" points="157.5,-114.5 157.5,-133.5 241.5,-133.5 241.5,-114.5 157.5,-114.5"/>
<text text-anchor="middle" x="199.5" y="-121.5" font-family="Helvetica,sans-Serif" font-size="10.00" fill="#000000">_util_log_debug</text>
</a>
</g>
</g>
<!-- Node16&#45;&gt;Node19 -->
<g id="edge3" class="edge">
<title>Node16&#45;&gt;Node19</title>
<path fill="none" stroke="#191970" d="M92.9588,-95.589C111.4385,-100.5169 134.1558,-106.5749 153.8591,-111.8291"/>
<polygon fill="#191970" stroke="#191970" points="152.9885,-115.2192 163.5527,-114.4141 154.7922,-108.4555 152.9885,-115.2192"/>
</g>
<!-- Node20 -->
<g id="node5" class="node">
<title>Node20</title>
<g id="a_node5"><a xlink:href="modules_2rlm__lua_2util_8c.html#a703343379006a64f81804cca0b57c40e" target="_top" xlink:title="Lua function to output informational messages. ">
<polygon fill="none" stroke="#000000" points="162.5,-76.5 162.5,-95.5 236.5,-95.5 236.5,-76.5 162.5,-76.5"/>
<text text-anchor="middle" x="199.5" y="-83.5" font-family="Helvetica,sans-Serif" font-size="10.00" fill="#000000">_util_log_info</text>
</a>
</g>
</g>
<!-- Node16&#45;&gt;Node20 -->
<g id="edge4" class="edge">
<title>Node16&#45;&gt;Node20</title>
<path fill="none" stroke="#191970" d="M114.1391,-86C126.7156,-86 139.9031,-86 152.0483,-86"/>
<polygon fill="#191970" stroke="#191970" points="152.4115,-89.5001 162.4115,-86 152.4114,-82.5001 152.4115,-89.5001"/>
</g>
<!-- Node21 -->
<g id="node6" class="node">
<title>Node21</title>
<g id="a_node6"><a xlink:href="modules_2rlm__lua_2util_8c.html#aa6788770b3085c4fa7e67100b236d4a8" target="_top" xlink:title="Lua function to output warning messages. ">
<polygon fill="none" stroke="#000000" points="160,-38.5 160,-57.5 239,-57.5 239,-38.5 160,-38.5"/>
<text text-anchor="middle" x="199.5" y="-45.5" font-family="Helvetica,sans-Serif" font-size="10.00" fill="#000000">_util_log_warn</text>
</a>
</g>
</g>
<!-- Node16&#45;&gt;Node21 -->
<g id="edge5" class="edge">
<title>Node16&#45;&gt;Node21</title>
<path fill="none" stroke="#191970" d="M92.9588,-76.411C111.4385,-71.4831 134.1558,-65.4251 153.8591,-60.1709"/>
<polygon fill="#191970" stroke="#191970" points="154.7922,-63.5445 163.5527,-57.5859 152.9885,-56.7808 154.7922,-63.5445"/>
</g>
<!-- Node22 -->
<g id="node7" class="node">
<title>Node22</title>
<g id="a_node7"><a xlink:href="modules_2rlm__lua_2util_8c.html#a8010aaf45030136281be9cbe0d29e603" target="_top" xlink:title="Lua function to output error messages. ">
<polygon fill="none" stroke="#000000" points="161,-.5 161,-19.5 238,-19.5 238,-.5 161,-.5"/>
<text text-anchor="middle" x="199.5" y="-7.5" font-family="Helvetica,sans-Serif" font-size="10.00" fill="#000000">_util_log_error</text>
</a>
</g>
</g>
<!-- Node16&#45;&gt;Node22 -->
<g id="edge6" class="edge">
<title>Node16&#45;&gt;Node22</title>
<path fill="none" stroke="#191970" d="M70.723,-76.4798C88.4761,-64.4271 120.6177,-43.4907 150,-29 154.0092,-27.0228 158.2785,-25.112 162.5651,-23.3136"/>
<polygon fill="#191970" stroke="#191970" points="163.9057,-26.547 171.8823,-19.5739 161.2982,-20.0507 163.9057,-26.547"/>
</g>
<!-- Node18 -->
<g id="node3" class="node">
<title>Node18</title>
<g id="a_node3"><a xlink:href="modules_2rlm__lua_2util_8c.html#ab457b4f3c97906556704d7dcee473121" target="_top" xlink:title="Get the thread local request. ">
<polygon fill="none" stroke="#000000" points="285,-152.5 285,-171.5 400,-171.5 400,-152.5 285,-152.5"/>
<text text-anchor="middle" x="342.5" y="-159.5" font-family="Helvetica,sans-Serif" font-size="10.00" fill="#000000">fr_lua_util_get_request</text>
</a>
</g>
</g>
<!-- Node17&#45;&gt;Node18 -->
<g id="edge2" class="edge">
<title>Node17&#45;&gt;Node18</title>
<path fill="none" stroke="#191970" d="M249.1131,-162C257.3463,-162 266.0079,-162 274.6,-162"/>
<polygon fill="#191970" stroke="#191970" points="274.6247,-165.5001 284.6247,-162 274.6246,-158.5001 274.6247,-165.5001"/>
</g>
</g>
</svg>
