<?xml version="1.0" encoding="UTF-8" standalone="no"?>
<!DOCTYPE svg PUBLIC "-//W3C//DTD SVG 1.1//EN"
 "http://www.w3.org/Graphics/SVG/1.1/DTD/svg11.dtd">
<!-- Generated by graphviz version 2.40.1 (20161225.0304)
 -->
<!-- Title: msc_mgcp_reset Pages: 1 -->
<!--zoomable 864 -->
<svg id="main" version="1.1" xmlns="http://www.w3.org/2000/svg" xmlns:xlink="http://www.w3.org/1999/xlink" xml:space="preserve" onload="init(evt)">
<style type="text/css"><![CDATA[
.edge:hover path { stroke: red; }
.edge:hover polygon { stroke: red; fill: red; }
]]></style>
<script type="text/javascript"><![CDATA[
var edges = document.getElementsByTagName('g');
if (edges && edges.length) {
  for (var i=0;i<edges.length;i++) {
    if (edges[i].id.substr(0,4)=='edge') {
      edges[i].setAttribute('class','edge');
    }
  }
}
]]></script>
        <defs>
                <circle id="rim" cx="0" cy="0" r="7"/>
                <circle id="rim2" cx="0" cy="0" r="3.5"/>
                <g id="zoomPlus">
                        <use xlink:href="#rim" fill="#404040">
                                <set attributeName="fill" to="#808080" begin="zoomplus.mouseover" end="zoomplus.mouseout"/>
                        </use>
                        <path d="M-4,0h8M0,-4v8" fill="none" stroke="white" stroke-width="1.5" pointer-events="none"/>
                </g>
                <g id="zoomMin">
                        <use xlink:href="#rim" fill="#404040">
                                <set attributeName="fill" to="#808080" begin="zoomminus.mouseover" end="zoomminus.mouseout"/>
                        </use>
                        <path d="M-4,0h8" fill="none" stroke="white" stroke-width="1.5" pointer-events="none"/>
                </g>
                <g id="dirArrow">
                        <path fill="none" stroke="white" stroke-width="1.5" d="M0,-3.0v7 M-2.5,-0.5L0,-3.0L2.5,-0.5"/>
                </g>
               <g id="resetDef">
                       <use xlink:href="#rim2" fill="#404040">
                               <set attributeName="fill" to="#808080" begin="reset.mouseover" end="reset.mouseout"/>
                       </use>
               </g>
        </defs>

<script type="text/javascript">
var viewWidth = 1503;
var viewHeight = 864;
var sectionId = 'dynsection-12';
</script>
<script xlink:href="svgpan.js"/>
<svg id="graph" class="graph">
<g id="viewport">
<title>msc_mgcp_reset</title>
<!-- Node258 -->
<g id="node1" class="node">
<title>Node258</title>
<polygon fill="#bfbfbf" stroke="#000000" points="0,-722.5 0,-741.5 92,-741.5 92,-722.5 0,-722.5"/>
<text text-anchor="middle" x="46" y="-729.5" font-family="Helvetica,sans-Serif" font-size="10.00" fill="#000000">msc_mgcp_reset</text>
</g>
<!-- Node259 -->
<g id="node2" class="node">
<title>Node259</title>
<g id="a_node2"><a xlink:href="sccp__state_8c.html#a959d0a05cb52d759cc5cd8f981b9f358" target="_top" xlink:title="app_forward_sccp">
<polygon fill="none" stroke="#000000" points="128,-760.5 128,-779.5 224,-779.5 224,-760.5 128,-760.5"/>
<text text-anchor="middle" x="176" y="-767.5" font-family="Helvetica,sans-Serif" font-size="10.00" fill="#000000">app_forward_sccp</text>
</a>
</g>
</g>
<!-- Node258&#45;&gt;Node259 -->
<g id="edge1" class="edge">
<title>Node258&#45;&gt;Node259</title>
<path fill="none" stroke="#191970" d="M88.8839,-744.5353C106.5689,-749.7048 126.7337,-755.5991 143.206,-760.4141"/>
<polygon fill="#191970" stroke="#191970" points="89.3848,-741.0353 78.8045,-741.589 87.4208,-747.7542 89.3848,-741.0353"/>
</g>
<!-- Node268 -->
<g id="node7" class="node">
<title>Node268</title>
<g id="a_node7"><a xlink:href="sccp__state_8c.html#a741375061953a996b6284ab3e22fb965" target="_top" xlink:title="release_bsc_resources">
<polygon fill="none" stroke="#000000" points="269.5,-722.5 269.5,-741.5 386.5,-741.5 386.5,-722.5 269.5,-722.5"/>
<text text-anchor="middle" x="328" y="-729.5" font-family="Helvetica,sans-Serif" font-size="10.00" fill="#000000">release_bsc_resources</text>
</a>
</g>
</g>
<!-- Node258&#45;&gt;Node268 -->
<g id="edge6" class="edge">
<title>Node258&#45;&gt;Node268</title>
<path fill="none" stroke="#191970" d="M102.2531,-732C150.7069,-732 220.3886,-732 269.4878,-732"/>
<polygon fill="#191970" stroke="#191970" points="102.2508,-728.5001 92.2508,-732 102.2508,-735.5001 102.2508,-728.5001"/>
</g>
<!-- Node287 -->
<g id="node21" class="node">
<title>Node287</title>
<g id="a_node21"><a xlink:href="ss7__application_8c.html#a2299cc91950b99ef217990f142dcd7a5" target="_top" xlink:title="mtp_linkset_down">
<polygon fill="none" stroke="#000000" points="128.5,-627.5 128.5,-646.5 223.5,-646.5 223.5,-627.5 128.5,-627.5"/>
<text text-anchor="middle" x="176" y="-634.5" font-family="Helvetica,sans-Serif" font-size="10.00" fill="#000000">mtp_linkset_down</text>
</a>
</g>
</g>
<!-- Node258&#45;&gt;Node287 -->
<g id="edge25" class="edge">
<title>Node258&#45;&gt;Node287</title>
<path fill="none" stroke="#191970" d="M67.521,-716.2731C94.6474,-696.45 140.4325,-662.9916 162.844,-646.614"/>
<polygon fill="#191970" stroke="#191970" points="65.4315,-713.4651 59.4226,-722.1911 69.5616,-719.1168 65.4315,-713.4651"/>
</g>
<!-- Node260 -->
<g id="node3" class="node">
<title>Node260</title>
<g id="a_node3"><a xlink:href="ss7__application_8c.html#a2f4469309879467a13fc557a891f401e" target="_top" xlink:title="mtp_link_set_forward_sccp">
<polygon fill="none" stroke="#000000" points="260,-760.5 260,-779.5 396,-779.5 396,-760.5 260,-760.5"/>
<text text-anchor="middle" x="328" y="-767.5" font-family="Helvetica,sans-Serif" font-size="10.00" fill="#000000">mtp_link_set_forward_sccp</text>
</a>
</g>
</g>
<!-- Node259&#45;&gt;Node260 -->
<g id="edge2" class="edge">
<title>Node259&#45;&gt;Node260</title>
<path fill="none" stroke="#191970" d="M234.1878,-770C242.6136,-770 251.3489,-770 259.947,-770"/>
<polygon fill="#191970" stroke="#191970" points="234.0938,-766.5001 224.0938,-770 234.0937,-773.5001 234.0938,-766.5001"/>
</g>
<!-- Node261 -->
<g id="node4" class="node">
<title>Node261</title>
<g id="a_node4"><a xlink:href="mtp__layer3_8c.html#a2531aef762d1ffb8f73195eef3f9b137" target="_top" xlink:title="Allocate a new link set. ">
<polygon fill="none" stroke="#000000" points="435,-760.5 435,-779.5 533,-779.5 533,-760.5 435,-760.5"/>
<text text-anchor="middle" x="484" y="-767.5" font-family="Helvetica,sans-Serif" font-size="10.00" fill="#000000">mtp_link_set_alloc</text>
</a>
</g>
</g>
<!-- Node260&#45;&gt;Node261 -->
<g id="edge3" class="edge">
<title>Node260&#45;&gt;Node261</title>
<path fill="none" stroke="#191970" d="M406.4744,-770C416.1393,-770 425.7945,-770 434.8464,-770"/>
<polygon fill="#191970" stroke="#191970" points="406.4239,-766.5001 396.4239,-770 406.4238,-773.5001 406.4239,-766.5001"/>
</g>
<!-- Node262 -->
<g id="node5" class="node">
<title>Node262</title>
<g id="a_node5"><a xlink:href="modules_2rlm__sigtran_2event_8c.html#a4465df356c53709d8de682730c85dd06" target="_top" xlink:title="Bring up SCTP/M3UA/MTP3/SCCP. ">
<polygon fill="none" stroke="#ff0000" points="604.5,-798.5 604.5,-817.5 681.5,-817.5 681.5,-798.5 604.5,-798.5"/>
<text text-anchor="middle" x="643" y="-805.5" font-family="Helvetica,sans-Serif" font-size="10.00" fill="#000000">event_link_up</text>
</a>
</g>
</g>
<!-- Node261&#45;&gt;Node262 -->
<g id="edge4" class="edge">
<title>Node261&#45;&gt;Node262</title>
<path fill="none" stroke="#191970" d="M533.9266,-781.9322C556.6323,-787.3587 583.0915,-793.6822 604.2631,-798.7421"/>
<polygon fill="#191970" stroke="#191970" points="534.6621,-778.5094 524.1224,-779.589 533.0349,-785.3177 534.6621,-778.5094"/>
</g>
<!-- Node267 -->
<g id="node6" class="node">
<title>Node267</title>
<g id="a_node6"><a xlink:href="links_8c.html#aac3e90f41af67dcf5392f01356bbcac2" target="_top" xlink:title="link_set_create">
<polygon fill="none" stroke="#000000" points="601.5,-760.5 601.5,-779.5 684.5,-779.5 684.5,-760.5 601.5,-760.5"/>
<text text-anchor="middle" x="643" y="-767.5" font-family="Helvetica,sans-Serif" font-size="10.00" fill="#000000">link_set_create</text>
</a>
</g>
</g>
<!-- Node261&#45;&gt;Node267 -->
<g id="edge5" class="edge">
<title>Node261&#45;&gt;Node267</title>
<path fill="none" stroke="#191970" d="M543.2355,-770C562.5764,-770 583.6319,-770 601.3934,-770"/>
<polygon fill="#191970" stroke="#191970" points="543.0027,-766.5001 533.0026,-770 543.0026,-773.5001 543.0027,-766.5001"/>
</g>
<!-- Node269 -->
<g id="node8" class="node">
<title>Node269</title>
<g id="a_node8"><a xlink:href="msc__conn_8c.html#a8d8995c981962369b372a3e93f012148" target="_top" xlink:title="msc_close_connection">
<polygon fill="none" stroke="#000000" points="762.5,-703.5 762.5,-722.5 878.5,-722.5 878.5,-703.5 762.5,-703.5"/>
<text text-anchor="middle" x="820.5" y="-710.5" font-family="Helvetica,sans-Serif" font-size="10.00" fill="#000000">msc_close_connection</text>
</a>
</g>
</g>
<!-- Node268&#45;&gt;Node269 -->
<g id="edge7" class="edge">
<title>Node268&#45;&gt;Node269</title>
<path fill="none" stroke="#191970" d="M396.9682,-729.3393C494.4957,-725.5768 670.9762,-718.7684 762.2788,-715.2461"/>
<polygon fill="#191970" stroke="#191970" points="396.7754,-725.844 386.9178,-729.727 397.0453,-732.8388 396.7754,-725.844"/>
</g>
<!-- Node270 -->
<g id="node9" class="node">
<title>Node270</title>
<g id="a_node9"><a xlink:href="bsc_8c.html#a3aefd53d0900e5c677fe59a9e908132a" target="_top" xlink:title="sigusr2">
<polygon fill="none" stroke="#000000" points="967,-836.5 967,-855.5 1015,-855.5 1015,-836.5 967,-836.5"/>
<text text-anchor="middle" x="991" y="-843.5" font-family="Helvetica,sans-Serif" font-size="10.00" fill="#000000">sigusr2</text>
</a>
</g>
</g>
<!-- Node269&#45;&gt;Node270 -->
<g id="edge8" class="edge">
<title>Node269&#45;&gt;Node270</title>
<path fill="none" stroke="#191970" d="M833.6304,-730.6442C852.0997,-754.3649 887.8957,-796.4981 927,-822 939.1265,-829.9083 954.2301,-835.7297 966.7192,-839.6572"/>
<polygon fill="#191970" stroke="#191970" points="836.2816,-728.3491 827.4294,-722.5276 830.7191,-732.5987 836.2816,-728.3491"/>
</g>
<!-- Node273 -->
<g id="node11" class="node">
<title>Node273</title>
<g id="a_node11"><a xlink:href="msc__conn_8c.html#ac81fd50bf347e3e84852b4a4811600d5" target="_top" xlink:title="msc_connect_timeout">
<polygon fill="none" stroke="#000000" points="1091,-798.5 1091,-817.5 1204,-817.5 1204,-798.5 1091,-798.5"/>
<text text-anchor="middle" x="1147.5" y="-805.5" font-family="Helvetica,sans-Serif" font-size="10.00" fill="#000000">msc_connect_timeout</text>
</a>
</g>
</g>
<!-- Node269&#45;&gt;Node273 -->
<g id="edge10" class="edge">
<title>Node269&#45;&gt;Node273</title>
<path fill="none" stroke="#191970" d="M837.5251,-729.6615C857.2379,-747.7968 891.5637,-775.949 927,-789 980.1819,-808.5867 1045.2802,-811.9103 1090.9082,-811.2092"/>
<polygon fill="#191970" stroke="#191970" points="839.6875,-726.8899 830.0108,-722.5757 834.8851,-731.9827 839.6875,-726.8899"/>
</g>
<!-- Node276 -->
<g id="node14" class="node">
<title>Node276</title>
<g id="a_node14"><a xlink:href="msc__conn_8c.html#a9ee3e2d33b4770e379bc01a4f969bab3" target="_top" xlink:title="msc_pong_timeout">
<polygon fill="none" stroke="#000000" points="1240,-722.5 1240,-741.5 1339,-741.5 1339,-722.5 1240,-722.5"/>
<text text-anchor="middle" x="1289.5" y="-729.5" font-family="Helvetica,sans-Serif" font-size="10.00" fill="#000000">msc_pong_timeout</text>
</a>
</g>
</g>
<!-- Node269&#45;&gt;Node276 -->
<g id="edge13" class="edge">
<title>Node269&#45;&gt;Node276</title>
<path fill="none" stroke="#191970" d="M889.0955,-715.7789C984.7215,-719.6529 1155.8027,-726.5837 1239.9682,-729.9934"/>
<polygon fill="#191970" stroke="#191970" points="889.0844,-712.2757 878.9509,-715.3679 888.801,-719.27 889.0844,-712.2757"/>
</g>
<!-- Node277 -->
<g id="node15" class="node">
<title>Node277</title>
<g id="a_node15"><a xlink:href="msc__conn_8c.html#a8b64887b6ad40f6b4cd2b8ff60348a2c" target="_top" xlink:title="ipaccess_a_fd_cb">
<polygon fill="none" stroke="#000000" points="1100,-684.5 1100,-703.5 1195,-703.5 1195,-684.5 1100,-684.5"/>
<text text-anchor="middle" x="1147.5" y="-691.5" font-family="Helvetica,sans-Serif" font-size="10.00" fill="#000000">ipaccess_a_fd_cb</text>
</a>
</g>
</g>
<!-- Node269&#45;&gt;Node277 -->
<g id="edge15" class="edge">
<title>Node269&#45;&gt;Node277</title>
<path fill="none" stroke="#191970" d="M888.8505,-709.0286C952.0062,-705.359 1044.2123,-700.0014 1099.7774,-696.7729"/>
<polygon fill="#191970" stroke="#191970" points="888.3644,-705.5508 878.5842,-709.6251 888.7705,-712.539 888.3644,-705.5508"/>
</g>
<!-- Node278 -->
<g id="node16" class="node">
<title>Node278</title>
<g id="a_node16"><a xlink:href="msc__conn_8c.html#a10e4578f505ceb75a1d15480fbb9b2c0" target="_top" xlink:title="msc_connection_connect">
<polygon fill="none" stroke="#000000" points="927,-760.5 927,-779.5 1055,-779.5 1055,-760.5 927,-760.5"/>
<text text-anchor="middle" x="991" y="-767.5" font-family="Helvetica,sans-Serif" font-size="10.00" fill="#000000">msc_connection_connect</text>
</a>
</g>
</g>
<!-- Node269&#45;&gt;Node278 -->
<g id="edge17" class="edge">
<title>Node269&#45;&gt;Node278</title>
<path fill="none" stroke="#191970" d="M858.7634,-725.7919C890.165,-736.2898 933.9357,-750.9228 962.369,-760.4284"/>
<polygon fill="#191970" stroke="#191970" points="859.6317,-722.3918 849.0379,-722.5405 857.4122,-729.0306 859.6317,-722.3918"/>
</g>
<!-- Node280 -->
<g id="node18" class="node">
<title>Node280</title>
<g id="a_node18"><a xlink:href="msc__conn_8c.html#a4e51653ac5aa1d5daab0ed2e5c6d3778" target="_top" xlink:title="msc_send_auth_req">
<polygon fill="none" stroke="#000000" points="939,-570.5 939,-589.5 1043,-589.5 1043,-570.5 939,-570.5"/>
<text text-anchor="middle" x="991" y="-577.5" font-family="Helvetica,sans-Serif" font-size="10.00" fill="#000000">msc_send_auth_req</text>
</a>
</g>
</g>
<!-- Node269&#45;&gt;Node280 -->
<g id="edge20" class="edge">
<title>Node269&#45;&gt;Node280</title>
<path fill="none" stroke="#191970" d="M833.6304,-695.3558C852.0997,-671.6351 887.8957,-629.5019 927,-604 936.1446,-598.0364 946.9821,-593.2595 957.1148,-589.5866"/>
<polygon fill="#191970" stroke="#191970" points="830.7191,-693.4013 827.4294,-703.4724 836.2816,-697.6509 830.7191,-693.4013"/>
</g>
<!-- Node281 -->
<g id="node19" class="node">
<title>Node281</title>
<g id="a_node19"><a xlink:href="msc__conn_8c.html#a1cf2c09e3957aa4bce301a21ad36e878" target="_top" xlink:title="msc_conn_accept">
<polygon fill="none" stroke="#ff0000" points="1099.5,-589.5 1099.5,-608.5 1195.5,-608.5 1195.5,-589.5 1099.5,-589.5"/>
<text text-anchor="middle" x="1147.5" y="-596.5" font-family="Helvetica,sans-Serif" font-size="10.00" fill="#000000">msc_conn_accept</text>
</a>
</g>
</g>
<!-- Node269&#45;&gt;Node281 -->
<g id="edge24" class="edge">
<title>Node269&#45;&gt;Node281</title>
<path fill="none" stroke="#191970" d="M838.3741,-696.327C858.374,-678.6651 892.5149,-651.3866 927,-637 983.2858,-613.5184 1053.4667,-604.5461 1099.3296,-601.1183"/>
<polygon fill="#191970" stroke="#191970" points="835.7894,-693.9449 830.7087,-703.2421 840.4782,-699.1426 835.7894,-693.9449"/>
</g>
<!-- Node286 -->
<g id="node20" class="node">
<title>Node286</title>
<g id="a_node20"><a xlink:href="msc__conn_8c.html#aebe5d6633d454d6c550d0d5843b3f8ac" target="_top" xlink:title="msc_handle_id_response">
<polygon fill="none" stroke="#000000" points="927.5,-646.5 927.5,-665.5 1054.5,-665.5 1054.5,-646.5 927.5,-646.5"/>
<text text-anchor="middle" x="991" y="-653.5" font-family="Helvetica,sans-Serif" font-size="10.00" fill="#000000">msc_handle_id_response</text>
</a>
</g>
</g>
<!-- Node269&#45;&gt;Node286 -->
<g id="edge22" class="edge">
<title>Node269&#45;&gt;Node286</title>
<path fill="none" stroke="#191970" d="M858.7634,-700.2081C890.165,-689.7102 933.9357,-675.0772 962.369,-665.5716"/>
<polygon fill="#191970" stroke="#191970" points="857.4122,-696.9694 849.0379,-703.4595 859.6317,-703.6082 857.4122,-696.9694"/>
</g>
<!-- Node271 -->
<g id="node10" class="node">
<title>Node271</title>
<g id="a_node10"><a xlink:href="main__stp_8c.html#a5c29e2d6e66c25b130bd201e3e41b9d5" target="_top" xlink:title="handle_options">
<polygon fill="none" stroke="#ff0000" points="1106.5,-836.5 1106.5,-855.5 1188.5,-855.5 1188.5,-836.5 1106.5,-836.5"/>
<text text-anchor="middle" x="1147.5" y="-843.5" font-family="Helvetica,sans-Serif" font-size="10.00" fill="#000000">handle_options</text>
</a>
</g>
</g>
<!-- Node270&#45;&gt;Node271 -->
<g id="edge9" class="edge">
<title>Node270&#45;&gt;Node271</title>
<path fill="none" stroke="#191970" d="M1025.1248,-846C1048.9958,-846 1081.006,-846 1106.3007,-846"/>
<polygon fill="#191970" stroke="#191970" points="1025.1102,-842.5001 1015.1102,-846 1025.1101,-849.5001 1025.1102,-842.5001"/>
</g>
<!-- Node274 -->
<g id="node12" class="node">
<title>Node274</title>
<g id="a_node12"><a xlink:href="msc__conn_8c.html#a4cafd615d51169594cf020de21b6936c" target="_top" xlink:title="msc_reconnect">
<polygon fill="none" stroke="#000000" points="1248,-760.5 1248,-779.5 1331,-779.5 1331,-760.5 1248,-760.5"/>
<text text-anchor="middle" x="1289.5" y="-767.5" font-family="Helvetica,sans-Serif" font-size="10.00" fill="#000000">msc_reconnect</text>
</a>
</g>
</g>
<!-- Node273&#45;&gt;Node274 -->
<g id="edge11" class="edge">
<title>Node273&#45;&gt;Node274</title>
<path fill="none" stroke="#191970" d="M1192.9929,-795.8258C1212.6284,-790.5713 1235.2657,-784.5134 1253.6789,-779.5859"/>
<polygon fill="#191970" stroke="#191970" points="1192.0879,-792.4448 1183.3326,-798.411 1193.8975,-799.2069 1192.0879,-792.4448"/>
</g>
<!-- Node275 -->
<g id="node13" class="node">
<title>Node275</title>
<g id="a_node13"><a xlink:href="msc__conn_8c.html#aa9ec23c6a129a7e95e917ea995cb255c" target="_top" xlink:title="msc_connection_create">
<polygon fill="none" stroke="#000000" points="1375,-722.5 1375,-741.5 1495,-741.5 1495,-722.5 1375,-722.5"/>
<text text-anchor="middle" x="1435" y="-729.5" font-family="Helvetica,sans-Serif" font-size="10.00" fill="#000000">msc_connection_create</text>
</a>
</g>
</g>
<!-- Node274&#45;&gt;Node275 -->
<g id="edge12" class="edge">
<title>Node274&#45;&gt;Node275</title>
<path fill="none" stroke="#191970" d="M1336.1532,-757.8157C1356.3534,-752.54 1379.6481,-746.4562 1398.5482,-741.5201"/>
<polygon fill="#191970" stroke="#191970" points="1335.0068,-754.4976 1326.2158,-760.411 1336.7757,-761.2704 1335.0068,-754.4976"/>
</g>
<!-- Node276&#45;&gt;Node275 -->
<g id="edge14" class="edge">
<title>Node276&#45;&gt;Node275</title>
<path fill="none" stroke="#191970" d="M1349.3446,-732C1357.8137,-732 1366.5239,-732 1374.996,-732"/>
<polygon fill="#191970" stroke="#191970" points="1349.1659,-728.5001 1339.1659,-732 1349.1659,-735.5001 1349.1659,-728.5001"/>
</g>
<!-- Node277&#45;&gt;Node275 -->
<g id="edge16" class="edge">
<title>Node277&#45;&gt;Node275</title>
<path fill="none" stroke="#191970" d="M1205.6501,-698.302C1243.7019,-701.478 1294.4423,-706.3959 1339,-713 1356.1425,-715.5407 1374.8648,-719.0731 1391.1866,-722.4036"/>
<polygon fill="#191970" stroke="#191970" points="1205.5218,-694.7799 1195.2696,-697.4524 1204.9508,-701.7566 1205.5218,-694.7799"/>
</g>
<!-- Node279 -->
<g id="node17" class="node">
<title>Node279</title>
<g id="a_node17"><a xlink:href="msc__conn_8c.html#a992cac8da31e3e7c03d04deb65d95bec" target="_top" xlink:title="connect_to_msc">
<polygon fill="none" stroke="#000000" points="1103,-760.5 1103,-779.5 1192,-779.5 1192,-760.5 1103,-760.5"/>
<text text-anchor="middle" x="1147.5" y="-767.5" font-family="Helvetica,sans-Serif" font-size="10.00" fill="#000000">connect_to_msc</text>
</a>
</g>
</g>
<!-- Node278&#45;&gt;Node279 -->
<g id="edge18" class="edge">
<title>Node278&#45;&gt;Node279</title>
<path fill="none" stroke="#191970" d="M1065.3385,-770C1078.168,-770 1091.138,-770 1102.8645,-770"/>
<polygon fill="#191970" stroke="#191970" points="1065.1061,-766.5001 1055.1061,-770 1065.1061,-773.5001 1065.1061,-766.5001"/>
</g>
<!-- Node279&#45;&gt;Node274 -->
<g id="edge19" class="edge">
<title>Node279&#45;&gt;Node274</title>
<path fill="none" stroke="#191970" d="M1202.2493,-770C1217.2844,-770 1233.3469,-770 1247.5391,-770"/>
<polygon fill="#191970" stroke="#191970" points="1202.0401,-766.5001 1192.0401,-770 1202.04,-773.5001 1202.0401,-766.5001"/>
</g>
<!-- Node280&#45;&gt;Node281 -->
<g id="edge21" class="edge">
<title>Node280&#45;&gt;Node281</title>
<path fill="none" stroke="#191970" d="M1053.069,-587.5355C1068.452,-589.4031 1084.7075,-591.3766 1099.3146,-593.15"/>
<polygon fill="#191970" stroke="#191970" points="1053.4612,-584.0575 1043.1122,-586.3267 1052.6175,-591.0065 1053.4612,-584.0575"/>
</g>
<!-- Node286&#45;&gt;Node277 -->
<g id="edge23" class="edge">
<title>Node286&#45;&gt;Node277</title>
<path fill="none" stroke="#191970" d="M1040.2892,-667.968C1062.2203,-673.2931 1087.6849,-679.4762 1108.2924,-684.4799"/>
<polygon fill="#191970" stroke="#191970" points="1041.0351,-664.5475 1030.4916,-665.589 1039.3833,-671.3498 1041.0351,-664.5475"/>
</g>
<!-- Node288 -->
<g id="node22" class="node">
<title>Node288</title>
<g id="a_node22"><a xlink:href="links_8c.html#a17c3f7e14178d2cb97d0efa615055dde" target="_top" xlink:title="mtp_link_down">
<polygon fill="none" stroke="#000000" points="287,-589.5 287,-608.5 369,-608.5 369,-589.5 287,-589.5"/>
<text text-anchor="middle" x="328" y="-596.5" font-family="Helvetica,sans-Serif" font-size="10.00" fill="#000000">mtp_link_down</text>
</a>
</g>
</g>
<!-- Node287&#45;&gt;Node288 -->
<g id="edge26" class="edge">
<title>Node287&#45;&gt;Node288</title>
<path fill="none" stroke="#191970" d="M224.16,-624.96C245.3951,-619.6512 269.995,-613.5012 289.9198,-608.5201"/>
<polygon fill="#191970" stroke="#191970" points="223.2085,-621.5901 214.356,-627.411 224.9063,-628.3811 223.2085,-621.5901"/>
</g>
<!-- Node289 -->
<g id="node23" class="node">
<title>Node289</title>
<g id="a_node23"><a xlink:href="link__udp_8c.html#aab40684685da6e77cfb4384917b1f6fa" target="_top" xlink:title="snmp_mtp_callback">
<polygon fill="none" stroke="#000000" points="432,-589.5 432,-608.5 536,-608.5 536,-589.5 432,-589.5"/>
<text text-anchor="middle" x="484" y="-596.5" font-family="Helvetica,sans-Serif" font-size="10.00" fill="#000000">snmp_mtp_callback</text>
</a>
</g>
</g>
<!-- Node288&#45;&gt;Node289 -->
<g id="edge27" class="edge">
<title>Node288&#45;&gt;Node289</title>
<path fill="none" stroke="#191970" d="M379.5669,-599C396.339,-599 414.9603,-599 431.7797,-599"/>
<polygon fill="#191970" stroke="#191970" points="379.3956,-595.5001 369.3956,-599 379.3955,-602.5001 379.3956,-595.5001"/>
</g>
<!-- Node302 -->
<g id="node28" class="node">
<title>Node302</title>
<g id="a_node28"><a xlink:href="sctp__m2ua_8c.html#a0e318e3c1e341e77b501cd0b38cdfd4c" target="_top" xlink:title="link_down">
<polygon fill="none" stroke="#000000" points="454,-494.5 454,-513.5 514,-513.5 514,-494.5 454,-494.5"/>
<text text-anchor="middle" x="484" y="-501.5" font-family="Helvetica,sans-Serif" font-size="10.00" fill="#000000">link_down</text>
</a>
</g>
</g>
<!-- Node288&#45;&gt;Node302 -->
<g id="edge32" class="edge">
<title>Node288&#45;&gt;Node302</title>
<path fill="none" stroke="#191970" d="M352.6631,-583.9808C385.026,-564.2726 440.8988,-530.2476 468.1415,-513.6574"/>
<polygon fill="#191970" stroke="#191970" points="350.5371,-581.1775 343.8166,-589.3681 354.178,-587.1562 350.5371,-581.1775"/>
</g>
<!-- Node310 -->
<g id="node31" class="node">
<title>Node310</title>
<g id="a_node31"><a xlink:href="sctp__m3ua__client_8c.html#afa690a4544fc1d79b818671633d701e2" target="_top" xlink:title="fail_link">
<polygon fill="none" stroke="#000000" points="459,-228.5 459,-247.5 509,-247.5 509,-228.5 459,-228.5"/>
<text text-anchor="middle" x="484" y="-235.5" font-family="Helvetica,sans-Serif" font-size="10.00" fill="#000000">fail_link</text>
</a>
</g>
</g>
<!-- Node288&#45;&gt;Node310 -->
<g id="edge35" class="edge">
<title>Node288&#45;&gt;Node310</title>
<path fill="none" stroke="#191970" d="M336.1547,-580.1293C364.6249,-514.2461 459.0072,-295.8358 479.887,-247.518"/>
<polygon fill="#191970" stroke="#191970" points="332.9266,-578.7761 332.1726,-589.3441 339.3523,-581.5529 332.9266,-578.7761"/>
</g>
<!-- Node334 -->
<g id="node44" class="node">
<title>Node334</title>
<g id="a_node44"><a xlink:href="ss7__application_8c.html#a8f53b3e41ae7a32b9608dc89b3c84405" target="_top" xlink:title="shutdown_set">
<polygon fill="none" stroke="#000000" points="445.5,-646.5 445.5,-665.5 522.5,-665.5 522.5,-646.5 445.5,-646.5"/>
<text text-anchor="middle" x="484" y="-653.5" font-family="Helvetica,sans-Serif" font-size="10.00" fill="#000000">shutdown_set</text>
</a>
</g>
</g>
<!-- Node288&#45;&gt;Node334 -->
<g id="edge52" class="edge">
<title>Node288&#45;&gt;Node334</title>
<path fill="none" stroke="#191970" d="M363.7582,-612.0655C392.4329,-622.5428 432.0139,-637.0051 457.8039,-646.4284"/>
<polygon fill="#191970" stroke="#191970" points="364.7047,-608.6851 354.1109,-608.5405 362.3024,-615.2599 364.7047,-608.6851"/>
</g>
<!-- Node290 -->
<g id="node24" class="node">
<title>Node290</title>
<g id="a_node24"><a xlink:href="snmp__mtp_8c.html#affa25f6696970b89c1c614a52514080c" target="_top" xlink:title="link_up_cb">
<polygon fill="none" stroke="#ff0000" points="611.5,-646.5 611.5,-665.5 674.5,-665.5 674.5,-646.5 611.5,-646.5"/>
<text text-anchor="middle" x="643" y="-653.5" font-family="Helvetica,sans-Serif" font-size="10.00" fill="#000000">link_up_cb</text>
</a>
</g>
</g>
<!-- Node289&#45;&gt;Node290 -->
<g id="edge28" class="edge">
<title>Node289&#45;&gt;Node290</title>
<path fill="none" stroke="#191970" d="M513.2838,-612.925C530.2023,-620.6449 552.0275,-630.0571 572,-637 584.6553,-641.3993 598.8735,-645.3861 611.2435,-648.5587"/>
<polygon fill="#191970" stroke="#191970" points="514.4863,-609.6251 503.9405,-608.6067 511.5494,-615.9792 514.4863,-609.6251"/>
</g>
<!-- Node301 -->
<g id="node25" class="node">
<title>Node301</title>
<g id="a_node25"><a xlink:href="snmp__mtp_8c.html#acf3d62a6ba800d58baf4c1c694d7df77" target="_top" xlink:title="link_down_cb">
<polygon fill="none" stroke="#ff0000" points="605,-608.5 605,-627.5 681,-627.5 681,-608.5 605,-608.5"/>
<text text-anchor="middle" x="643" y="-615.5" font-family="Helvetica,sans-Serif" font-size="10.00" fill="#000000">link_down_cb</text>
</a>
</g>
</g>
<!-- Node289&#45;&gt;Node301 -->
<g id="edge29" class="edge">
<title>Node289&#45;&gt;Node301</title>
<path fill="none" stroke="#191970" d="M546.2571,-606.4395C566.0666,-608.8067 587.3767,-611.3532 604.9408,-613.452"/>
<polygon fill="#191970" stroke="#191970" points="546.4072,-602.9326 536.0625,-605.2213 545.5766,-609.8832 546.4072,-602.9326"/>
</g>
<!-- Node292 -->
<g id="node26" class="node">
<title>Node292</title>
<g id="a_node26"><a xlink:href="snmp__mtp_8c.html#ac5b92ce0b39a993b0d26027712fffc4e" target="_top" xlink:title="snmp_mtp_start_c7_datalink">
<polygon fill="none" stroke="#ff0000" points="572,-570.5 572,-589.5 714,-589.5 714,-570.5 572,-570.5"/>
<text text-anchor="middle" x="643" y="-577.5" font-family="Helvetica,sans-Serif" font-size="10.00" fill="#000000">snmp_mtp_start_c7_datalink</text>
</a>
</g>
</g>
<!-- Node289&#45;&gt;Node292 -->
<g id="edge30" class="edge">
<title>Node289&#45;&gt;Node292</title>
<path fill="none" stroke="#191970" d="M546.1472,-591.5736C554.5473,-590.5698 563.2191,-589.5336 571.7623,-588.5127"/>
<polygon fill="#191970" stroke="#191970" points="545.5766,-588.1168 536.0625,-592.7787 546.4072,-595.0674 545.5766,-588.1168"/>
</g>
<!-- Node295 -->
<g id="node27" class="node">
<title>Node295</title>
<g id="a_node27"><a xlink:href="snmp__mtp_8c.html#ac5da8f5d6751d71d6e6c3f132dedc029" target="_top" xlink:title="snmp_mtp_stop_c7_datalink">
<polygon fill="none" stroke="#ff0000" points="572.5,-532.5 572.5,-551.5 713.5,-551.5 713.5,-532.5 572.5,-532.5"/>
<text text-anchor="middle" x="643" y="-539.5" font-family="Helvetica,sans-Serif" font-size="10.00" fill="#000000">snmp_mtp_stop_c7_datalink</text>
</a>
</g>
</g>
<!-- Node289&#45;&gt;Node295 -->
<g id="edge31" class="edge">
<title>Node289&#45;&gt;Node295</title>
<path fill="none" stroke="#191970" d="M513.2838,-585.075C530.2023,-577.3551 552.0275,-567.9429 572,-561 582.0037,-557.5225 592.984,-554.3027 603.256,-551.539"/>
<polygon fill="#191970" stroke="#191970" points="511.5494,-582.0208 503.9405,-589.3933 514.4863,-588.3749 511.5494,-582.0208"/>
</g>
<!-- Node303 -->
<g id="node29" class="node">
<title>Node303</title>
<g id="a_node29"><a xlink:href="sctp__m2ua_8c.html#a29f9c241656443a828f528e9ab73690a" target="_top" xlink:title="m2ua_conn_destroy">
<polygon fill="none" stroke="#ff0000" points="591,-494.5 591,-513.5 695,-513.5 695,-494.5 591,-494.5"/>
<text text-anchor="middle" x="643" y="-501.5" font-family="Helvetica,sans-Serif" font-size="10.00" fill="#000000">m2ua_conn_destroy</text>
</a>
</g>
</g>
<!-- Node302&#45;&gt;Node303 -->
<g id="edge33" class="edge">
<title>Node302&#45;&gt;Node303</title>
<path fill="none" stroke="#191970" d="M524.4,-504C544.6096,-504 569.3079,-504 590.9237,-504"/>
<polygon fill="#191970" stroke="#191970" points="524.281,-500.5001 514.2809,-504 524.2809,-507.5001 524.281,-500.5001"/>
</g>
<!-- Node307 -->
<g id="node30" class="node">
<title>Node307</title>
<g id="a_node30"><a xlink:href="sctp__m2ua_8c.html#a70505f047411f3d623892abbe28aa046" target="_top" xlink:title="m2ua_handle_rel_req">
<polygon fill="none" stroke="#ff0000" points="588.5,-456.5 588.5,-475.5 697.5,-475.5 697.5,-456.5 588.5,-456.5"/>
<text text-anchor="middle" x="643" y="-463.5" font-family="Helvetica,sans-Serif" font-size="10.00" fill="#000000">m2ua_handle_rel_req</text>
</a>
</g>
</g>
<!-- Node302&#45;&gt;Node307 -->
<g id="edge34" class="edge">
<title>Node302&#45;&gt;Node307</title>
<path fill="none" stroke="#191970" d="M524.2147,-494.3889C548.4085,-488.6068 579.0862,-481.275 603.2045,-475.5109"/>
<polygon fill="#191970" stroke="#191970" points="523.1934,-491.0344 514.2809,-496.763 524.8206,-497.8426 523.1934,-491.0344"/>
</g>
<!-- Node311 -->
<g id="node32" class="node">
<title>Node311</title>
<g id="a_node32"><a xlink:href="sctp__m3ua__client_8c.html#a4ae6deb7456fee99efa448e2ffddb5a4" target="_top" xlink:title="aspac_ack_timeout">
<polygon fill="none" stroke="#ff0000" points="592.5,-418.5 592.5,-437.5 693.5,-437.5 693.5,-418.5 592.5,-418.5"/>
<text text-anchor="middle" x="643" y="-425.5" font-family="Helvetica,sans-Serif" font-size="10.00" fill="#000000">aspac_ack_timeout</text>
</a>
</g>
</g>
<!-- Node310&#45;&gt;Node311 -->
<g id="edge36" class="edge">
<title>Node310&#45;&gt;Node311</title>
<path fill="none" stroke="#191970" d="M488.505,-257.6105C497.7468,-293.314 522.2964,-368.9298 572,-409 577.9604,-413.8052 585.027,-417.4016 592.3538,-420.0919"/>
<polygon fill="#191970" stroke="#191970" points="491.9029,-256.7708 486.1174,-247.895 485.1051,-258.4414 491.9029,-256.7708"/>
</g>
<!-- Node323 -->
<g id="node33" class="node">
<title>Node323</title>
<g id="a_node33"><a xlink:href="sctp__m3ua__client_8c.html#ad1b7323f72a1fe46926c2b27c180d2c7" target="_top" xlink:title="aspup_ack_timeout">
<polygon fill="none" stroke="#ff0000" points="592.5,-380.5 592.5,-399.5 693.5,-399.5 693.5,-380.5 592.5,-380.5"/>
<text text-anchor="middle" x="643" y="-387.5" font-family="Helvetica,sans-Serif" font-size="10.00" fill="#000000">aspup_ack_timeout</text>
</a>
</g>
</g>
<!-- Node310&#45;&gt;Node323 -->
<g id="edge37" class="edge">
<title>Node310&#45;&gt;Node323</title>
<path fill="none" stroke="#191970" d="M492.2307,-256.9936C505.2273,-284.8308 533.0846,-336.5855 572,-366 580.304,-372.2766 590.3516,-376.9741 600.2421,-380.4665"/>
<polygon fill="#191970" stroke="#191970" points="495.2908,-255.2655 487.9852,-247.5922 488.9111,-258.1465 495.2908,-255.2655"/>
</g>
<!-- Node325 -->
<g id="node34" class="node">
<title>Node325</title>
<g id="a_node34"><a xlink:href="sctp__m3ua__client_8c.html#a15e06772a9a5203252d30a8fd3c2ab6b" target="_top" xlink:title="reg_rsp_timeout">
<polygon fill="none" stroke="#000000" points="600,-304.5 600,-323.5 686,-323.5 686,-304.5 600,-304.5"/>
<text text-anchor="middle" x="643" y="-311.5" font-family="Helvetica,sans-Serif" font-size="10.00" fill="#000000">reg_rsp_timeout</text>
</a>
</g>
</g>
<!-- Node310&#45;&gt;Node325 -->
<g id="edge38" class="edge">
<title>Node310&#45;&gt;Node325</title>
<path fill="none" stroke="#191970" d="M506.9655,-253.3646C524.3176,-264.524 548.9975,-279.4551 572,-290 584.0645,-295.5307 597.7865,-300.4642 609.93,-304.3983"/>
<polygon fill="#191970" stroke="#191970" points="508.4243,-250.1374 498.1366,-247.6048 504.5995,-256.0001 508.4243,-250.1374"/>
</g>
<!-- Node326 -->
<g id="node35" class="node">
<title>Node326</title>
<g id="a_node35"><a xlink:href="sctp__m3ua__client_8c.html#a7bc625c09f8377a442fab792c2478ecd" target="_top" xlink:title="m3ua_send_reg_req">
<polygon fill="none" stroke="#ff0000" points="768.5,-323.5 768.5,-342.5 872.5,-342.5 872.5,-323.5 768.5,-323.5"/>
<text text-anchor="middle" x="820.5" y="-330.5" font-family="Helvetica,sans-Serif" font-size="10.00" fill="#000000">m3ua_send_reg_req</text>
</a>
</g>
</g>
<!-- Node310&#45;&gt;Node326 -->
<g id="edge50" class="edge">
<title>Node310&#45;&gt;Node326</title>
<path fill="none" stroke="#191970" d="M494.4516,-256.4743C508.6207,-279.4108 536.3066,-317.4095 572,-333 640.1987,-362.7886 729.319,-352.4324 780.2006,-342.5075"/>
<polygon fill="#191970" stroke="#191970" points="497.3404,-254.4842 489.2228,-247.6758 491.3228,-258.0604 497.3404,-254.4842"/>
</g>
<!-- Node315 -->
<g id="node36" class="node">
<title>Node315</title>
<g id="a_node36"><a xlink:href="sctp__m3ua__client_8c.html#aadd193a0f039c7dd9570a204eb4943e3" target="_top" xlink:title="m3ua_conn_read">
<polygon fill="none" stroke="#000000" points="597.5,-190.5 597.5,-209.5 688.5,-209.5 688.5,-190.5 597.5,-190.5"/>
<text text-anchor="middle" x="643" y="-197.5" font-family="Helvetica,sans-Serif" font-size="10.00" fill="#000000">m3ua_conn_read</text>
</a>
</g>
</g>
<!-- Node310&#45;&gt;Node315 -->
<g id="edge40" class="edge">
<title>Node310&#45;&gt;Node315</title>
<path fill="none" stroke="#191970" d="M518.9279,-229.6525C543.7604,-223.7176 577.165,-215.7341 603.0572,-209.5461"/>
<polygon fill="#191970" stroke="#191970" points="518.1065,-226.2501 509.194,-231.9788 519.7337,-233.0584 518.1065,-226.2501"/>
</g>
<!-- Node316 -->
<g id="node37" class="node">
<title>Node316</title>
<g id="a_node37"><a xlink:href="sctp__m3ua__client_8c.html#add38578dd1d0ae62bc26baa047c00c2f" target="_top" xlink:title="m3ua_sctp_assoc_complete">
<polygon fill="none" stroke="#000000" points="750,-209.5 750,-228.5 891,-228.5 891,-209.5 750,-209.5"/>
<text text-anchor="middle" x="820.5" y="-216.5" font-family="Helvetica,sans-Serif" font-size="10.00" fill="#000000">m3ua_sctp_assoc_complete</text>
</a>
</g>
</g>
<!-- Node310&#45;&gt;Node316 -->
<g id="edge43" class="edge">
<title>Node310&#45;&gt;Node316</title>
<path fill="none" stroke="#191970" d="M519.1898,-236.0131C573.5938,-232.9412 679.2027,-226.9782 749.802,-222.9919"/>
<polygon fill="#191970" stroke="#191970" points="518.804,-232.5292 509.0173,-236.5874 519.1987,-239.518 518.804,-232.5292"/>
</g>
<!-- Node317 -->
<g id="node38" class="node">
<title>Node317</title>
<g id="a_node38"><a xlink:href="sctp__m3ua__client_8c.html#a80d1d6baad72384970285a49d819b2b0" target="_top" xlink:title="m3ua_start">
<polygon fill="none" stroke="#ff0000" points="958.5,-247.5 958.5,-266.5 1023.5,-266.5 1023.5,-247.5 958.5,-247.5"/>
<text text-anchor="middle" x="991" y="-254.5" font-family="Helvetica,sans-Serif" font-size="10.00" fill="#000000">m3ua_start</text>
</a>
</g>
</g>
<!-- Node310&#45;&gt;Node317 -->
<g id="edge44" class="edge">
<title>Node310&#45;&gt;Node317</title>
<path fill="none" stroke="#191970" d="M519.0863,-240.6915C535.1986,-241.8505 554.5607,-243.1352 572,-244 715.9237,-251.1367 887.8636,-255.0105 958.3861,-256.3995"/>
<polygon fill="#191970" stroke="#191970" points="519.2495,-237.1941 509.0203,-239.9536 518.7377,-244.1754 519.2495,-237.1941"/>
</g>
<!-- Node327 -->
<g id="node39" class="node">
<title>Node327</title>
<g id="a_node39"><a xlink:href="sctp__m3ua__client_8c.html#a885e575ac599e91c526ec0d7b963e074" target="_top" xlink:title="m3ua_send_aspup">
<polygon fill="none" stroke="#ff0000" points="594,-152.5 594,-171.5 692,-171.5 692,-152.5 594,-152.5"/>
<text text-anchor="middle" x="643" y="-159.5" font-family="Helvetica,sans-Serif" font-size="10.00" fill="#000000">m3ua_send_aspup</text>
</a>
</g>
</g>
<!-- Node310&#45;&gt;Node327 -->
<g id="edge45" class="edge">
<title>Node310&#45;&gt;Node327</title>
<path fill="none" stroke="#191970" d="M504.271,-222.2285C521.4619,-209.5209 547.2106,-192.0146 572,-181 580.3958,-177.2695 589.6852,-174.1345 598.7014,-171.5551"/>
<polygon fill="#191970" stroke="#191970" points="501.9921,-219.5633 496.1118,-228.3766 506.2046,-225.1539 501.9921,-219.5633"/>
</g>
<!-- Node328 -->
<g id="node40" class="node">
<title>Node328</title>
<g id="a_node40"><a xlink:href="sctp__m3ua__client_8c.html#adc6dddc425240c29d305c6ab2710a423" target="_top" xlink:title="m3ua_send_aspac">
<polygon fill="none" stroke="#ff0000" points="594,-114.5 594,-133.5 692,-133.5 692,-114.5 594,-114.5"/>
<text text-anchor="middle" x="643" y="-121.5" font-family="Helvetica,sans-Serif" font-size="10.00" fill="#000000">m3ua_send_aspac</text>
</a>
</g>
</g>
<!-- Node310&#45;&gt;Node328 -->
<g id="edge47" class="edge">
<title>Node310&#45;&gt;Node328</title>
<path fill="none" stroke="#191970" d="M495.8729,-219.9582C510.9967,-198.4121 539.1492,-162.806 572,-143 578.6659,-138.9811 586.1863,-135.7987 593.7755,-133.2823"/>
<polygon fill="#191970" stroke="#191970" points="492.9633,-218.0127 490.2133,-228.2444 498.7437,-221.9608 492.9633,-218.0127"/>
</g>
<!-- Node329 -->
<g id="node41" class="node">
<title>Node329</title>
<g id="a_node41"><a xlink:href="sctp__m3ua__client_8c.html#ac76ef6a5c3e89374de35bc95f213f59d" target="_top" xlink:title="m3ua_send_daud">
<polygon fill="none" stroke="#ff0000" points="596.5,-76.5 596.5,-95.5 689.5,-95.5 689.5,-76.5 596.5,-76.5"/>
<text text-anchor="middle" x="643" y="-83.5" font-family="Helvetica,sans-Serif" font-size="10.00" fill="#000000">m3ua_send_daud</text>
</a>
</g>
</g>
<!-- Node310&#45;&gt;Node329 -->
<g id="edge48" class="edge">
<title>Node310&#45;&gt;Node329</title>
<path fill="none" stroke="#191970" d="M491.4392,-218.7423C503.7051,-189.5893 530.9722,-134.5308 572,-105 579.1459,-99.8566 587.5977,-96.1055 596.1322,-93.3698"/>
<polygon fill="#191970" stroke="#191970" points="488.1124,-217.633 487.6012,-228.2155 494.6001,-220.2615 488.1124,-217.633"/>
</g>
<!-- Node331 -->
<g id="node42" class="node">
<title>Node331</title>
<g id="a_node42"><a xlink:href="sctp__m3ua__client_8c.html#ae7b19e6bf5171ba77c4738fc4d932ed1" target="_top" xlink:title="m3ua_send_beat">
<polygon fill="none" stroke="#ff0000" points="597.5,-38.5 597.5,-57.5 688.5,-57.5 688.5,-38.5 597.5,-38.5"/>
<text text-anchor="middle" x="643" y="-45.5" font-family="Helvetica,sans-Serif" font-size="10.00" fill="#000000">m3ua_send_beat</text>
</a>
</g>
</g>
<!-- Node310&#45;&gt;Node331 -->
<g id="edge49" class="edge">
<title>Node310&#45;&gt;Node331</title>
<path fill="none" stroke="#191970" d="M488.505,-218.3895C497.7468,-182.686 522.2964,-107.0702 572,-67 579.2518,-61.1537 588.1411,-57.0967 597.1443,-54.2839"/>
<polygon fill="#191970" stroke="#191970" points="485.1051,-217.5586 486.1174,-228.105 491.9029,-219.2292 485.1051,-217.5586"/>
</g>
<!-- Node333 -->
<g id="node43" class="node">
<title>Node333</title>
<g id="a_node43"><a xlink:href="sctp__m3ua__client_8c.html#ab6d8f21d345685b0772cd328e4036186" target="_top" xlink:title="m3ua_handle_mgmt">
<polygon fill="none" stroke="#ff0000" points="591,-.5 591,-19.5 695,-19.5 695,-.5 591,-.5"/>
<text text-anchor="middle" x="643" y="-7.5" font-family="Helvetica,sans-Serif" font-size="10.00" fill="#000000">m3ua_handle_mgmt</text>
</a>
</g>
</g>
<!-- Node310&#45;&gt;Node333 -->
<g id="edge51" class="edge">
<title>Node310&#45;&gt;Node333</title>
<path fill="none" stroke="#191970" d="M486.4685,-218.4758C492.759,-177.095 513.2764,-80.181 572,-29 577.483,-24.2212 584.0443,-20.6286 590.9318,-17.9307"/>
<polygon fill="#191970" stroke="#191970" points="483.0025,-217.9898 485.0785,-228.3792 489.9345,-218.9628 483.0025,-217.9898"/>
</g>
<!-- Node325&#45;&gt;Node326 -->
<g id="edge39" class="edge">
<title>Node325&#45;&gt;Node326</title>
<path fill="none" stroke="#191970" d="M696.5894,-319.7363C719.342,-322.1718 745.7722,-325.001 768.3641,-327.4193"/>
<polygon fill="#191970" stroke="#191970" points="696.7371,-316.2322 686.4214,-318.6479 695.992,-323.1925 696.7371,-316.2322"/>
</g>
<!-- Node315&#45;&gt;Node316 -->
<g id="edge41" class="edge">
<title>Node315&#45;&gt;Node316</title>
<path fill="none" stroke="#191970" d="M699.0279,-205.9974C715.1356,-207.7216 732.9155,-209.6248 749.7874,-211.4308"/>
<polygon fill="#191970" stroke="#191970" points="699.0264,-202.4773 688.7107,-204.893 698.2813,-209.4375 699.0264,-202.4773"/>
</g>
<!-- Node316&#45;&gt;Node317 -->
<g id="edge42" class="edge">
<title>Node316&#45;&gt;Node317</title>
<path fill="none" stroke="#191970" d="M873.4998,-230.8123C901.3086,-237.0101 934.4875,-244.4048 958.4849,-249.7532"/>
<polygon fill="#191970" stroke="#191970" points="874.0463,-227.3483 863.5243,-228.589 872.5235,-234.1806 874.0463,-227.3483"/>
</g>
<!-- Node327&#45;&gt;Node316 -->
<g id="edge46" class="edge">
<title>Node327&#45;&gt;Node316</title>
<path fill="none" stroke="#191970" d="M690.8268,-174.2285C698.6032,-176.3802 706.5479,-178.6776 714,-181 742.1134,-189.7613 773.8453,-201.3017 795.3033,-209.3565"/>
<polygon fill="#191970" stroke="#191970" points="691.6844,-170.8347 681.1165,-171.59 689.8489,-177.5898 691.6844,-170.8347"/>
</g>
<!-- Node335 -->
<g id="node45" class="node">
<title>Node335</title>
<g id="a_node45"><a xlink:href="ss7__application_8c.html#a4a9e045950fa0b4cd3dab6065acb7f2e" target="_top" xlink:title="ss7_application_msc_down">
<polygon fill="none" stroke="#000000" points="574.5,-684.5 574.5,-703.5 711.5,-703.5 711.5,-684.5 574.5,-684.5"/>
<text text-anchor="middle" x="643" y="-691.5" font-family="Helvetica,sans-Serif" font-size="10.00" fill="#000000">ss7_application_msc_down</text>
</a>
</g>
</g>
<!-- Node334&#45;&gt;Node335 -->
<g id="edge53" class="edge">
<title>Node334&#45;&gt;Node335</title>
<path fill="none" stroke="#191970" d="M532.6348,-667.6234C555.2207,-673.0213 581.7412,-679.3595 603.1237,-684.4698"/>
<polygon fill="#191970" stroke="#191970" points="533.4355,-664.2163 522.8958,-665.2958 531.8083,-671.0245 533.4355,-664.2163"/>
</g>
<!-- Node335&#45;&gt;Node269 -->
<g id="edge54" class="edge">
<title>Node335&#45;&gt;Node269</title>
<path fill="none" stroke="#191970" d="M721.955,-702.4515C735.5695,-703.9089 749.4954,-705.3995 762.4298,-706.784"/>
<polygon fill="#191970" stroke="#191970" points="721.9419,-698.9302 711.6261,-701.3459 721.1968,-705.8904 721.9419,-698.9302"/>
</g>
</g>
</svg>
        <g id="navigator" transform="translate(0 0)" fill="#404254">
                <rect fill="#f2f5e9" fill-opacity="0.5" stroke="#606060" stroke-width=".5" x="0" y="0" width="60" height="60"/>
                <use id="zoomplus" xlink:href="#zoomPlus" x="17" y="9" onmousedown="handleZoom(evt,'in')"/>
                <use id="zoomminus" xlink:href="#zoomMin" x="42" y="9" onmousedown="handleZoom(evt,'out')"/>
                <use id="reset" xlink:href="#resetDef" x="30" y="36" onmousedown="handleReset()"/>
                <g id="arrowUp" xlink:href="#dirArrow" transform="translate(30 24)" onmousedown="handlePan(0,-1)">
                  <use xlink:href="#rim" fill="#404040">
                        <set attributeName="fill" to="#808080" begin="arrowUp.mouseover" end="arrowUp.mouseout"/>
                  </use>
                  <path fill="none" stroke="white" stroke-width="1.5" d="M0,-3.0v7 M-2.5,-0.5L0,-3.0L2.5,-0.5"/>
                </g>
                <g id="arrowRight" xlink:href="#dirArrow" transform="rotate(90) translate(36 -43)" onmousedown="handlePan(1,0)">
                  <use xlink:href="#rim" fill="#404040">
                        <set attributeName="fill" to="#808080" begin="arrowRight.mouseover" end="arrowRight.mouseout"/>
                  </use>
                  <path fill="none" stroke="white" stroke-width="1.5" d="M0,-3.0v7 M-2.5,-0.5L0,-3.0L2.5,-0.5"/>
                </g>
                <g id="arrowDown" xlink:href="#dirArrow" transform="rotate(180) translate(-30 -48)" onmousedown="handlePan(0,1)">
                  <use xlink:href="#rim" fill="#404040">
                        <set attributeName="fill" to="#808080" begin="arrowDown.mouseover" end="arrowDown.mouseout"/>
                  </use>
                  <path fill="none" stroke="white" stroke-width="1.5" d="M0,-3.0v7 M-2.5,-0.5L0,-3.0L2.5,-0.5"/>
                </g>
                <g id="arrowLeft" xlink:href="#dirArrow" transform="rotate(270) translate(-36 17)" onmousedown="handlePan(-1,0)">
                  <use xlink:href="#rim" fill="#404040">
                        <set attributeName="fill" to="#808080" begin="arrowLeft.mouseover" end="arrowLeft.mouseout"/>
                  </use>
                  <path fill="none" stroke="white" stroke-width="1.5" d="M0,-3.0v7 M-2.5,-0.5L0,-3.0L2.5,-0.5"/>
                </g>
        </g>
        <svg viewBox="0 0 15 15" width="100%" height="30px" preserveAspectRatio="xMaxYMin meet">
         <g id="arrow_out" transform="scale(0.3 0.3)">
          <a xlink:href="msc__connection_8h_a524ac3d64c48f8d324c9c0d50aa121af_icgraph_org.svg" target="_base">
           <rect id="button" ry="5" rx="5" y="6" x="6" height="38" width="38"
                fill="#f2f5e9" fill-opacity="0.5" stroke="#606060" stroke-width="1.0"/>
           <path id="arrow"
             d="M 11.500037,31.436501 C 11.940474,20.09759 22.043105,11.32322 32.158766,21.979434 L 37.068811,17.246167 C 37.068811,17.246167 37.088388,32 37.088388,32 L 22.160133,31.978069 C 22.160133,31.978069 26.997745,27.140456 26.997745,27.140456 C 18.528582,18.264221 13.291696,25.230495 11.500037,31.436501 z"
             style="fill:#404040;"/>
          </a>
         </g>
        </svg>
</svg>
