<?xml version="1.0" encoding="UTF-8" standalone="no"?>
<!DOCTYPE svg PUBLIC "-//W3C//DTD SVG 1.1//EN"
 "http://www.w3.org/Graphics/SVG/1.1/DTD/svg11.dtd">
<!-- Generated by graphviz version 2.40.1 (20161225.0304)
 -->
<!-- Title: mtp_create_slta Pages: 1 -->
<!--zoomable 104 -->
<svg id="main" version="1.1" xmlns="http://www.w3.org/2000/svg" xmlns:xlink="http://www.w3.org/1999/xlink" xml:space="preserve" onload="init(evt)">
<style type="text/css"><![CDATA[
.edge:hover path { stroke: red; }
.edge:hover polygon { stroke: red; fill: red; }
]]></style>
<script type="text/javascript"><![CDATA[
var edges = document.getElementsByTagName('g');
if (edges && edges.length) {
  for (var i=0;i<edges.length;i++) {
    if (edges[i].id.substr(0,4)=='edge') {
      edges[i].setAttribute('class','edge');
    }
  }
}
]]></script>
        <defs>
                <circle id="rim" cx="0" cy="0" r="7"/>
                <circle id="rim2" cx="0" cy="0" r="3.5"/>
                <g id="zoomPlus">
                        <use xlink:href="#rim" fill="#404040">
                                <set attributeName="fill" to="#808080" begin="zoomplus.mouseover" end="zoomplus.mouseout"/>
                        </use>
                        <path d="M-4,0h8M0,-4v8" fill="none" stroke="white" stroke-width="1.5" pointer-events="none"/>
                </g>
                <g id="zoomMin">
                        <use xlink:href="#rim" fill="#404040">
                                <set attributeName="fill" to="#808080" begin="zoomminus.mouseover" end="zoomminus.mouseout"/>
                        </use>
                        <path d="M-4,0h8" fill="none" stroke="white" stroke-width="1.5" pointer-events="none"/>
                </g>
                <g id="dirArrow">
                        <path fill="none" stroke="white" stroke-width="1.5" d="M0,-3.0v7 M-2.5,-0.5L0,-3.0L2.5,-0.5"/>
                </g>
               <g id="resetDef">
                       <use xlink:href="#rim2" fill="#404040">
                               <set attributeName="fill" to="#808080" begin="reset.mouseover" end="reset.mouseout"/>
                       </use>
               </g>
        </defs>

<script type="text/javascript">
var viewWidth = 658;
var viewHeight = 104;
var sectionId = 'dynsection-8';
</script>
<script xlink:href="svgpan.js"/>
<svg id="graph" class="graph">
<g id="viewport">
<title>mtp_create_slta</title>
<!-- Node255 -->
<g id="node1" class="node">
<title>Node255</title>
<polygon fill="#bfbfbf" stroke="#000000" points="0,-38.5 0,-57.5 86,-57.5 86,-38.5 0,-38.5"/>
<text text-anchor="middle" x="43" y="-45.5" font-family="Helvetica,sans-Serif" font-size="10.00" fill="#000000">mtp_create_slta</text>
</g>
<!-- Node256 -->
<g id="node2" class="node">
<title>Node256</title>
<g id="a_node2"><a xlink:href="mtp__layer3_8c.html#a0ee66c0eebfb11c82840f36cf9bc5288" target="_top" xlink:title="Process an MTP3 link message that&#39;s not destined for a higher layer. ">
<polygon fill="none" stroke="#000000" points="122,-38.5 122,-57.5 234,-57.5 234,-38.5 122,-38.5"/>
<text text-anchor="middle" x="178" y="-45.5" font-family="Helvetica,sans-Serif" font-size="10.00" fill="#000000">mtp_link_regular_msg</text>
</a>
</g>
</g>
<!-- Node255&#45;&gt;Node256 -->
<g id="edge1" class="edge">
<title>Node255&#45;&gt;Node256</title>
<path fill="none" stroke="#191970" d="M96.3576,-48C104.6231,-48 113.1848,-48 121.5163,-48"/>
<polygon fill="#191970" stroke="#191970" points="96.0861,-44.5001 86.086,-48 96.086,-51.5001 96.0861,-44.5001"/>
</g>
<!-- Node257 -->
<g id="node3" class="node">
<title>Node257</title>
<g id="a_node3"><a xlink:href="mtp__layer3_8c.html#a09440d719c5098b5546ffccd2a875d40" target="_top" xlink:title="Receive data coming up from lower level (M2UA/M3UA etc...) ">
<polygon fill="none" stroke="#000000" points="270,-38.5 270,-57.5 381,-57.5 381,-38.5 270,-38.5"/>
<text text-anchor="middle" x="325.5" y="-45.5" font-family="Helvetica,sans-Serif" font-size="10.00" fill="#000000">mtp_link_handle_data</text>
</a>
</g>
</g>
<!-- Node256&#45;&gt;Node257 -->
<g id="edge2" class="edge">
<title>Node256&#45;&gt;Node257</title>
<path fill="none" stroke="#191970" d="M244.1966,-48C252.8042,-48 261.5505,-48 269.9599,-48"/>
<polygon fill="#191970" stroke="#191970" points="244.1842,-44.5001 234.1842,-48 244.1842,-51.5001 244.1842,-44.5001"/>
</g>
<!-- Node258 -->
<g id="node4" class="node">
<title>Node258</title>
<g id="a_node4"><a xlink:href="ss7__application_8c.html#a5f083c5e705ab33b7e41fa6a262d813f" target="_top" xlink:title="mtp_link_set_data">
<polygon fill="none" stroke="#000000" points="417,-38.5 417,-57.5 513,-57.5 513,-38.5 417,-38.5"/>
<text text-anchor="middle" x="465" y="-45.5" font-family="Helvetica,sans-Serif" font-size="10.00" fill="#000000">mtp_link_set_data</text>
</a>
</g>
</g>
<!-- Node257&#45;&gt;Node258 -->
<g id="edge3" class="edge">
<title>Node257&#45;&gt;Node258</title>
<path fill="none" stroke="#191970" d="M391.1394,-48C399.8075,-48 408.5607,-48 416.8608,-48"/>
<polygon fill="#191970" stroke="#191970" points="391.035,-44.5001 381.0349,-48 391.0349,-51.5001 391.035,-44.5001"/>
</g>
<!-- Node259 -->
<g id="node5" class="node">
<title>Node259</title>
<g id="a_node5"><a xlink:href="link__udp_8c.html#a901819a7a396ca1a35e34d150bbe8576" target="_top" xlink:title="udp_read_cb">
<polygon fill="none" stroke="#ff0000" points="563.5,-76.5 563.5,-95.5 635.5,-95.5 635.5,-76.5 563.5,-76.5"/>
<text text-anchor="middle" x="599.5" y="-83.5" font-family="Helvetica,sans-Serif" font-size="10.00" fill="#000000">udp_read_cb</text>
</a>
</g>
</g>
<!-- Node258&#45;&gt;Node259 -->
<g id="edge4" class="edge">
<title>Node258&#45;&gt;Node259</title>
<path fill="none" stroke="#191970" d="M508.6004,-60.3183C527.0798,-65.5393 548.2895,-71.5316 565.5708,-76.4141"/>
<polygon fill="#191970" stroke="#191970" points="509.515,-56.9398 498.94,-57.589 507.6117,-63.6761 509.515,-56.9398"/>
</g>
<!-- Node263 -->
<g id="node6" class="node">
<title>Node263</title>
<g id="a_node6"><a xlink:href="sctp__m2ua_8c.html#a3aac6d0346418d201a08cd1c6e2f9c35" target="_top" xlink:title="m2ua_handle_data">
<polygon fill="none" stroke="#ff0000" points="550.5,-38.5 550.5,-57.5 648.5,-57.5 648.5,-38.5 550.5,-38.5"/>
<text text-anchor="middle" x="599.5" y="-45.5" font-family="Helvetica,sans-Serif" font-size="10.00" fill="#000000">m2ua_handle_data</text>
</a>
</g>
</g>
<!-- Node258&#45;&gt;Node263 -->
<g id="edge5" class="edge">
<title>Node258&#45;&gt;Node263</title>
<path fill="none" stroke="#191970" d="M523.2356,-48C532.2585,-48 541.5018,-48 550.3,-48"/>
<polygon fill="#191970" stroke="#191970" points="523.1777,-44.5001 513.1777,-48 523.1777,-51.5001 523.1777,-44.5001"/>
</g>
<!-- Node269 -->
<g id="node7" class="node">
<title>Node269</title>
<g id="a_node7"><a xlink:href="sctp__m3ua__client_8c.html#ae019fa0d44e120fa7fb71fa436c4c3a3" target="_top" xlink:title="m3ua_handle_trans">
<polygon fill="none" stroke="#ff0000" points="549,-.5 549,-19.5 650,-19.5 650,-.5 549,-.5"/>
<text text-anchor="middle" x="599.5" y="-7.5" font-family="Helvetica,sans-Serif" font-size="10.00" fill="#000000">m3ua_handle_trans</text>
</a>
</g>
</g>
<!-- Node258&#45;&gt;Node269 -->
<g id="edge6" class="edge">
<title>Node258&#45;&gt;Node269</title>
<path fill="none" stroke="#191970" d="M508.6004,-35.6817C527.0798,-30.4607 548.2895,-24.4684 565.5708,-19.5859"/>
<polygon fill="#191970" stroke="#191970" points="507.6117,-32.3239 498.94,-38.411 509.515,-39.0602 507.6117,-32.3239"/>
</g>
</g>
</svg>
        <g id="navigator" transform="translate(0 0)" fill="#404254">
                <rect fill="#f2f5e9" fill-opacity="0.5" stroke="#606060" stroke-width=".5" x="0" y="0" width="60" height="60"/>
                <use id="zoomplus" xlink:href="#zoomPlus" x="17" y="9" onmousedown="handleZoom(evt,'in')"/>
                <use id="zoomminus" xlink:href="#zoomMin" x="42" y="9" onmousedown="handleZoom(evt,'out')"/>
                <use id="reset" xlink:href="#resetDef" x="30" y="36" onmousedown="handleReset()"/>
                <g id="arrowUp" xlink:href="#dirArrow" transform="translate(30 24)" onmousedown="handlePan(0,-1)">
                  <use xlink:href="#rim" fill="#404040">
                        <set attributeName="fill" to="#808080" begin="arrowUp.mouseover" end="arrowUp.mouseout"/>
                  </use>
                  <path fill="none" stroke="white" stroke-width="1.5" d="M0,-3.0v7 M-2.5,-0.5L0,-3.0L2.5,-0.5"/>
                </g>
                <g id="arrowRight" xlink:href="#dirArrow" transform="rotate(90) translate(36 -43)" onmousedown="handlePan(1,0)">
                  <use xlink:href="#rim" fill="#404040">
                        <set attributeName="fill" to="#808080" begin="arrowRight.mouseover" end="arrowRight.mouseout"/>
                  </use>
                  <path fill="none" stroke="white" stroke-width="1.5" d="M0,-3.0v7 M-2.5,-0.5L0,-3.0L2.5,-0.5"/>
                </g>
                <g id="arrowDown" xlink:href="#dirArrow" transform="rotate(180) translate(-30 -48)" onmousedown="handlePan(0,1)">
                  <use xlink:href="#rim" fill="#404040">
                        <set attributeName="fill" to="#808080" begin="arrowDown.mouseover" end="arrowDown.mouseout"/>
                  </use>
                  <path fill="none" stroke="white" stroke-width="1.5" d="M0,-3.0v7 M-2.5,-0.5L0,-3.0L2.5,-0.5"/>
                </g>
                <g id="arrowLeft" xlink:href="#dirArrow" transform="rotate(270) translate(-36 17)" onmousedown="handlePan(-1,0)">
                  <use xlink:href="#rim" fill="#404040">
                        <set attributeName="fill" to="#808080" begin="arrowLeft.mouseover" end="arrowLeft.mouseout"/>
                  </use>
                  <path fill="none" stroke="white" stroke-width="1.5" d="M0,-3.0v7 M-2.5,-0.5L0,-3.0L2.5,-0.5"/>
                </g>
        </g>
        <svg viewBox="0 0 15 15" width="100%" height="30px" preserveAspectRatio="xMaxYMin meet">
         <g id="arrow_out" transform="scale(0.3 0.3)">
          <a xlink:href="mtp__layer3_8c_a5aa1022e454d92bc46d61697a70012d9_icgraph_org.svg" target="_base">
           <rect id="button" ry="5" rx="5" y="6" x="6" height="38" width="38"
                fill="#f2f5e9" fill-opacity="0.5" stroke="#606060" stroke-width="1.0"/>
           <path id="arrow"
             d="M 11.500037,31.436501 C 11.940474,20.09759 22.043105,11.32322 32.158766,21.979434 L 37.068811,17.246167 C 37.068811,17.246167 37.088388,32 37.088388,32 L 22.160133,31.978069 C 22.160133,31.978069 26.997745,27.140456 26.997745,27.140456 C 18.528582,18.264221 13.291696,25.230495 11.500037,31.436501 z"
             style="fill:#404040;"/>
          </a>
         </g>
        </svg>
</svg>
