<?xml version="1.0" encoding="UTF-8" standalone="no"?>
<!DOCTYPE svg PUBLIC "-//W3C//DTD SVG 1.1//EN"
 "http://www.w3.org/Graphics/SVG/1.1/DTD/svg11.dtd">
<!-- Generated by graphviz version 2.40.1 (20161225.0304)
 -->
<!-- Title: mtp_sltm_t2_timeout Pages: 1 -->
<!--zoomable 218 -->
<svg id="main" version="1.1" xmlns="http://www.w3.org/2000/svg" xmlns:xlink="http://www.w3.org/1999/xlink" xml:space="preserve" onload="init(evt)">
<style type="text/css"><![CDATA[
.edge:hover path { stroke: red; }
.edge:hover polygon { stroke: red; fill: red; }
]]></style>
<script type="text/javascript"><![CDATA[
var edges = document.getElementsByTagName('g');
if (edges && edges.length) {
  for (var i=0;i<edges.length;i++) {
    if (edges[i].id.substr(0,4)=='edge') {
      edges[i].setAttribute('class','edge');
    }
  }
}
]]></script>
        <defs>
                <circle id="rim" cx="0" cy="0" r="7"/>
                <circle id="rim2" cx="0" cy="0" r="3.5"/>
                <g id="zoomPlus">
                        <use xlink:href="#rim" fill="#404040">
                                <set attributeName="fill" to="#808080" begin="zoomplus.mouseover" end="zoomplus.mouseout"/>
                        </use>
                        <path d="M-4,0h8M0,-4v8" fill="none" stroke="white" stroke-width="1.5" pointer-events="none"/>
                </g>
                <g id="zoomMin">
                        <use xlink:href="#rim" fill="#404040">
                                <set attributeName="fill" to="#808080" begin="zoomminus.mouseover" end="zoomminus.mouseout"/>
                        </use>
                        <path d="M-4,0h8" fill="none" stroke="white" stroke-width="1.5" pointer-events="none"/>
                </g>
                <g id="dirArrow">
                        <path fill="none" stroke="white" stroke-width="1.5" d="M0,-3.0v7 M-2.5,-0.5L0,-3.0L2.5,-0.5"/>
                </g>
               <g id="resetDef">
                       <use xlink:href="#rim2" fill="#404040">
                               <set attributeName="fill" to="#808080" begin="reset.mouseover" end="reset.mouseout"/>
                       </use>
               </g>
        </defs>

<script type="text/javascript">
var viewWidth = 1031;
var viewHeight = 218;
var sectionId = 'dynsection-17';
</script>
<script xlink:href="svgpan.js"/>
<svg id="graph" class="graph">
<g id="viewport">
<title>mtp_sltm_t2_timeout</title>
<!-- Node369 -->
<g id="node1" class="node">
<title>Node369</title>
<polygon fill="#bfbfbf" stroke="#000000" points="0,-57.5 0,-76.5 108,-76.5 108,-57.5 0,-57.5"/>
<text text-anchor="middle" x="54" y="-64.5" font-family="Helvetica,sans-Serif" font-size="10.00" fill="#000000">mtp_sltm_t2_timeout</text>
</g>
<!-- Node370 -->
<g id="node2" class="node">
<title>Node370</title>
<g id="a_node2"><a xlink:href="mtp__link_8c.html#ae01e2e137b585640ddce815b7ed4c4c5" target="_top" xlink:title="mtp_link_start_link_test">
<polygon fill="none" stroke="#000000" points="144,-95.5 144,-114.5 264,-114.5 264,-95.5 144,-95.5"/>
<text text-anchor="middle" x="204" y="-102.5" font-family="Helvetica,sans-Serif" font-size="10.00" fill="#000000">mtp_link_start_link_test</text>
</a>
</g>
</g>
<!-- Node369&#45;&gt;Node370 -->
<g id="edge1" class="edge">
<title>Node369&#45;&gt;Node370</title>
<path fill="none" stroke="#191970" d="M101.811,-79.1121C122.7016,-84.4044 146.8472,-90.5213 166.4209,-95.4799"/>
<polygon fill="#191970" stroke="#191970" points="102.4047,-75.652 91.8513,-76.589 100.6856,-82.4377 102.4047,-75.652"/>
</g>
<!-- Node415 -->
<g id="node16" class="node">
<title>Node415</title>
<g id="a_node16"><a xlink:href="mtp__link_8c.html#a5ab206770d63b61e8246fce0eaec9bfb" target="_top" xlink:title="mtp_link_alloc">
<polygon fill="none" stroke="#000000" points="164.5,-38.5 164.5,-57.5 243.5,-57.5 243.5,-38.5 164.5,-38.5"/>
<text text-anchor="middle" x="204" y="-45.5" font-family="Helvetica,sans-Serif" font-size="10.00" fill="#000000">mtp_link_alloc</text>
</a>
</g>
</g>
<!-- Node369&#45;&gt;Node415 -->
<g id="edge16" class="edge">
<title>Node369&#45;&gt;Node415</title>
<path fill="none" stroke="#191970" d="M118.2539,-58.8612C133.8061,-56.8912 149.9878,-54.8415 164.049,-53.0605"/>
<polygon fill="#191970" stroke="#191970" points="117.6343,-55.4116 108.1534,-60.1406 118.514,-62.3561 117.6343,-55.4116"/>
</g>
<!-- Node371 -->
<g id="node3" class="node">
<title>Node371</title>
<g id="a_node3"><a xlink:href="links_8c.html#a93ebe4563bdd78575a5b1052fca30a42" target="_top" xlink:title="mtp_link_up">
<polygon fill="none" stroke="#000000" points="572,-152.5 572,-171.5 641,-171.5 641,-152.5 572,-152.5"/>
<text text-anchor="middle" x="606.5" y="-159.5" font-family="Helvetica,sans-Serif" font-size="10.00" fill="#000000">mtp_link_up</text>
</a>
</g>
</g>
<!-- Node370&#45;&gt;Node371 -->
<g id="edge2" class="edge">
<title>Node370&#45;&gt;Node371</title>
<path fill="none" stroke="#191970" d="M232.0713,-118.8374C250.8264,-127.3929 276.3118,-137.7175 300,-143 396.7866,-164.5834 514.7294,-164.8334 571.9928,-163.3564"/>
<polygon fill="#191970" stroke="#191970" points="233.4635,-115.6248 222.9223,-114.5608 230.4993,-121.9662 233.4635,-115.6248"/>
</g>
<!-- Node411 -->
<g id="node12" class="node">
<title>Node411</title>
<g id="a_node12"><a xlink:href="mtp__layer3_8c.html#a9c116dd29319bfc6eb887f9dbe46e2b7" target="_top" xlink:title="Initiate an STLM (a link test) for each link in a set. ">
<polygon fill="none" stroke="#000000" points="300,-114.5 300,-133.5 399,-133.5 399,-114.5 300,-114.5"/>
<text text-anchor="middle" x="349.5" y="-121.5" font-family="Helvetica,sans-Serif" font-size="10.00" fill="#000000">mtp_link_set_reset</text>
</a>
</g>
</g>
<!-- Node370&#45;&gt;Node411 -->
<g id="edge11" class="edge">
<title>Node370&#45;&gt;Node411</title>
<path fill="none" stroke="#191970" d="M274.1417,-114.1594C282.8079,-115.2911 291.5236,-116.4292 299.796,-117.5094"/>
<polygon fill="#191970" stroke="#191970" points="274.3895,-110.6621 264.0205,-112.8377 273.483,-117.6032 274.3895,-110.6621"/>
</g>
<!-- Node413 -->
<g id="node14" class="node">
<title>Node413</title>
<g id="a_node14"><a xlink:href="sctp__m2ua_8c.html#a9b05585c54541f9209a70fdf5eb47530" target="_top" xlink:title="sctp_m2ua_reset">
<polygon fill="none" stroke="#000000" points="303.5,-76.5 303.5,-95.5 395.5,-95.5 395.5,-76.5 303.5,-76.5"/>
<text text-anchor="middle" x="349.5" y="-83.5" font-family="Helvetica,sans-Serif" font-size="10.00" fill="#000000">sctp_m2ua_reset</text>
</a>
</g>
</g>
<!-- Node370&#45;&gt;Node413 -->
<g id="edge14" class="edge">
<title>Node370&#45;&gt;Node413</title>
<path fill="none" stroke="#191970" d="M273.9632,-95.8639C283.9574,-94.5588 294.0218,-93.2446 303.4004,-92.0199"/>
<polygon fill="#191970" stroke="#191970" points="273.483,-92.3968 264.0205,-97.1623 274.3895,-99.3379 273.483,-92.3968"/>
</g>
<!-- Node372 -->
<g id="node4" class="node">
<title>Node372</title>
<g id="a_node4"><a xlink:href="link__udp_8c.html#a901819a7a396ca1a35e34d150bbe8576" target="_top" xlink:title="udp_read_cb">
<polygon fill="none" stroke="#000000" points="701,-190.5 701,-209.5 773,-209.5 773,-190.5 701,-190.5"/>
<text text-anchor="middle" x="737" y="-197.5" font-family="Helvetica,sans-Serif" font-size="10.00" fill="#000000">udp_read_cb</text>
</a>
</g>
</g>
<!-- Node371&#45;&gt;Node372 -->
<g id="edge3" class="edge">
<title>Node371&#45;&gt;Node372</title>
<path fill="none" stroke="#191970" d="M649.0518,-174.3906C666.9232,-179.5945 687.3897,-185.5541 704.0799,-190.4141"/>
<polygon fill="#191970" stroke="#191970" points="650.0104,-171.0244 639.4307,-171.589 648.0534,-177.7453 650.0104,-171.0244"/>
</g>
<!-- Node376 -->
<g id="node7" class="node">
<title>Node376</title>
<g id="a_node7"><a xlink:href="sctp__m2ua_8c.html#ae9c9bbb012937cbf88eb28a14476bde1" target="_top" xlink:title="m2ua_handle_state_req">
<polygon fill="none" stroke="#000000" points="677,-152.5 677,-171.5 797,-171.5 797,-152.5 677,-152.5"/>
<text text-anchor="middle" x="737" y="-159.5" font-family="Helvetica,sans-Serif" font-size="10.00" fill="#000000">m2ua_handle_state_req</text>
</a>
</g>
</g>
<!-- Node371&#45;&gt;Node376 -->
<g id="edge6" class="edge">
<title>Node371&#45;&gt;Node376</title>
<path fill="none" stroke="#191970" d="M651.3005,-162C659.5729,-162 668.3332,-162 676.9706,-162"/>
<polygon fill="#191970" stroke="#191970" points="651.129,-158.5001 641.129,-162 651.129,-165.5001 651.129,-158.5001"/>
</g>
<!-- Node382 -->
<g id="node9" class="node">
<title>Node382</title>
<g id="a_node9"><a xlink:href="sctp__m3ua__client_8c.html#a547847fe1bfbf51888a13fcc19fe6af0" target="_top" xlink:title="m3ua_handle_asptm">
<polygon fill="none" stroke="#000000" points="683.5,-114.5 683.5,-133.5 790.5,-133.5 790.5,-114.5 683.5,-114.5"/>
<text text-anchor="middle" x="737" y="-121.5" font-family="Helvetica,sans-Serif" font-size="10.00" fill="#000000">m3ua_handle_asptm</text>
</a>
</g>
</g>
<!-- Node371&#45;&gt;Node382 -->
<g id="edge8" class="edge">
<title>Node371&#45;&gt;Node382</title>
<path fill="none" stroke="#191970" d="M649.0518,-149.6094C666.9232,-144.4055 687.3897,-138.4459 704.0799,-133.5859"/>
<polygon fill="#191970" stroke="#191970" points="648.0534,-146.2547 639.4307,-152.411 650.0104,-152.9756 648.0534,-146.2547"/>
</g>
<!-- Node373 -->
<g id="node5" class="node">
<title>Node373</title>
<g id="a_node5"><a xlink:href="link__udp_8c.html#ae8d5b8e9d934c575f64977d03dc6b226" target="_top" xlink:title="link_global_init">
<polygon fill="none" stroke="#ff0000" points="845,-190.5 845,-209.5 925,-209.5 925,-190.5 845,-190.5"/>
<text text-anchor="middle" x="885" y="-197.5" font-family="Helvetica,sans-Serif" font-size="10.00" fill="#000000">link_global_init</text>
</a>
</g>
</g>
<!-- Node372&#45;&gt;Node373 -->
<g id="edge4" class="edge">
<title>Node372&#45;&gt;Node373</title>
<path fill="none" stroke="#191970" d="M783.4715,-200C803.1292,-200 825.8095,-200 844.7409,-200"/>
<polygon fill="#191970" stroke="#191970" points="783.2049,-196.5001 773.2049,-200 783.2048,-203.5001 783.2049,-196.5001"/>
</g>
<!-- Node374 -->
<g id="node6" class="node">
<title>Node374</title>
<g id="a_node6"><a xlink:href="links_8c.html#aee1aa49938f565cf48c24d7e59344a5c" target="_top" xlink:title="link_init">
<polygon fill="none" stroke="#000000" points="973,-114.5 973,-133.5 1023,-133.5 1023,-114.5 973,-114.5"/>
<text text-anchor="middle" x="998" y="-121.5" font-family="Helvetica,sans-Serif" font-size="10.00" fill="#000000">link_init</text>
</a>
</g>
</g>
<!-- Node373&#45;&gt;Node374 -->
<g id="edge5" class="edge">
<title>Node373&#45;&gt;Node374</title>
<path fill="none" stroke="#191970" d="M926.778,-186.4579C930.3236,-184.7964 933.7805,-182.9779 937,-181 958.4885,-167.7983 978.9466,-146.21 989.8478,-133.7346"/>
<polygon fill="#191970" stroke="#191970" points="925.1227,-183.3583 917.2879,-190.4904 927.8603,-189.8008 925.1227,-183.3583"/>
</g>
<!-- Node377 -->
<g id="node8" class="node">
<title>Node377</title>
<g id="a_node8"><a xlink:href="sctp__m2ua_8c.html#a94e05d7af2718f0db6d74fdb74366f47" target="_top" xlink:title="m2ua_handle_maup">
<polygon fill="none" stroke="#ff0000" points="833,-152.5 833,-171.5 937,-171.5 937,-152.5 833,-152.5"/>
<text text-anchor="middle" x="885" y="-159.5" font-family="Helvetica,sans-Serif" font-size="10.00" fill="#000000">m2ua_handle_maup</text>
</a>
</g>
</g>
<!-- Node376&#45;&gt;Node377 -->
<g id="edge7" class="edge">
<title>Node376&#45;&gt;Node377</title>
<path fill="none" stroke="#191970" d="M807.2786,-162C815.917,-162 824.6233,-162 832.9248,-162"/>
<polygon fill="#191970" stroke="#191970" points="807.1973,-158.5001 797.1973,-162 807.1972,-165.5001 807.1973,-158.5001"/>
</g>
<!-- Node383 -->
<g id="node10" class="node">
<title>Node383</title>
<g id="a_node10"><a xlink:href="sctp__m3ua__client_8c.html#ad21af3e249e0242bc1b14baa9bbff5c5" target="_top" xlink:title="xua_from_part">
<polygon fill="none" stroke="#ff0000" points="845.5,-114.5 845.5,-133.5 924.5,-133.5 924.5,-114.5 845.5,-114.5"/>
<text text-anchor="middle" x="885" y="-121.5" font-family="Helvetica,sans-Serif" font-size="10.00" fill="#000000">xua_from_part</text>
</a>
</g>
</g>
<!-- Node382&#45;&gt;Node383 -->
<g id="edge9" class="edge">
<title>Node382&#45;&gt;Node383</title>
<path fill="none" stroke="#191970" d="M801.1358,-124C816.1655,-124 831.7481,-124 845.3433,-124"/>
<polygon fill="#191970" stroke="#191970" points="800.8501,-120.5001 790.8501,-124 800.85,-127.5001 800.8501,-120.5001"/>
</g>
<!-- Node385 -->
<g id="node11" class="node">
<title>Node385</title>
<g id="a_node11"><a xlink:href="sctp__m3ua__client_8c.html#a4ad1e0e1dd47a10d9e4d106a62f0c2c0" target="_top" xlink:title="m3ua_conn_handle">
<polygon fill="none" stroke="#ff0000" points="834.5,-76.5 834.5,-95.5 935.5,-95.5 935.5,-76.5 834.5,-76.5"/>
<text text-anchor="middle" x="885" y="-83.5" font-family="Helvetica,sans-Serif" font-size="10.00" fill="#000000">m3ua_conn_handle</text>
</a>
</g>
</g>
<!-- Node382&#45;&gt;Node385 -->
<g id="edge10" class="edge">
<title>Node382&#45;&gt;Node385</title>
<path fill="none" stroke="#191970" d="M784.1735,-111.8879C804.7856,-106.5956 828.6093,-100.4787 847.9219,-95.5201"/>
<polygon fill="#191970" stroke="#191970" points="783.162,-108.534 774.3466,-114.411 784.9029,-115.3141 783.162,-108.534"/>
</g>
<!-- Node412 -->
<g id="node13" class="node">
<title>Node412</title>
<g id="a_node13"><a xlink:href="ss7__application_8c.html#aa989446b87f4408fa6726244a5586ada" target="_top" xlink:title="mtp_linkset_up">
<polygon fill="none" stroke="#000000" points="444,-114.5 444,-133.5 527,-133.5 527,-114.5 444,-114.5"/>
<text text-anchor="middle" x="485.5" y="-121.5" font-family="Helvetica,sans-Serif" font-size="10.00" fill="#000000">mtp_linkset_up</text>
</a>
</g>
</g>
<!-- Node411&#45;&gt;Node412 -->
<g id="edge12" class="edge">
<title>Node411&#45;&gt;Node412</title>
<path fill="none" stroke="#191970" d="M409.4121,-124C420.972,-124 432.8481,-124 443.6786,-124"/>
<polygon fill="#191970" stroke="#191970" points="409.3692,-120.5001 399.3691,-124 409.3691,-127.5001 409.3692,-120.5001"/>
</g>
<!-- Node412&#45;&gt;Node371 -->
<g id="edge13" class="edge">
<title>Node412&#45;&gt;Node371</title>
<path fill="none" stroke="#191970" d="M525.8771,-136.6804C542.2262,-141.8148 560.7878,-147.6441 575.9764,-152.4141"/>
<polygon fill="#191970" stroke="#191970" points="526.6227,-133.2461 516.0334,-133.589 524.5253,-139.9245 526.6227,-133.2461"/>
</g>
<!-- Node414 -->
<g id="node15" class="node">
<title>Node414</title>
<g id="a_node15"><a xlink:href="sctp__m2ua_8c.html#a36931fc0b39a67fc70a32499caab3cd8" target="_top" xlink:title="mtp_m2ua_link_init">
<polygon fill="none" stroke="#000000" points="435,-76.5 435,-95.5 536,-95.5 536,-76.5 435,-76.5"/>
<text text-anchor="middle" x="485.5" y="-83.5" font-family="Helvetica,sans-Serif" font-size="10.00" fill="#000000">mtp_m2ua_link_init</text>
</a>
</g>
</g>
<!-- Node413&#45;&gt;Node414 -->
<g id="edge15" class="edge">
<title>Node413&#45;&gt;Node414</title>
<path fill="none" stroke="#191970" d="M405.8162,-86C415.4345,-86 425.3743,-86 434.8345,-86"/>
<polygon fill="#191970" stroke="#191970" points="405.5434,-82.5001 395.5434,-86 405.5434,-89.5001 405.5434,-82.5001"/>
</g>
<!-- Node415&#45;&gt;Node374 -->
<g id="edge18" class="edge">
<title>Node415&#45;&gt;Node374</title>
<path fill="none" stroke="#191970" d="M253.672,-48C309.9154,-48 404.2959,-48 485.5,-48 485.5,-48 485.5,-48 737,-48 826.2891,-48 855.5849,-30.3377 937,-67 960.5245,-77.5934 980.8263,-101.0125 991.0138,-114.3001"/>
<polygon fill="#191970" stroke="#191970" points="253.6258,-44.5001 243.6257,-48 253.6257,-51.5001 253.6258,-44.5001"/>
</g>
<!-- Node406 -->
<g id="node17" class="node">
<title>Node406</title>
<g id="a_node17"><a xlink:href="modules_2rlm__sigtran_2event_8c.html#a4465df356c53709d8de682730c85dd06" target="_top" xlink:title="Bring up SCTP/M3UA/MTP3/SCCP. ">
<polygon fill="none" stroke="#ff0000" points="311,-.5 311,-19.5 388,-19.5 388,-.5 311,-.5"/>
<text text-anchor="middle" x="349.5" y="-7.5" font-family="Helvetica,sans-Serif" font-size="10.00" fill="#000000">event_link_up</text>
</a>
</g>
</g>
<!-- Node415&#45;&gt;Node406 -->
<g id="edge17" class="edge">
<title>Node415&#45;&gt;Node406</title>
<path fill="none" stroke="#191970" d="M250.6532,-35.8157C270.8534,-30.54 294.1481,-24.4562 313.0482,-19.5201"/>
<polygon fill="#191970" stroke="#191970" points="249.5068,-32.4976 240.7158,-38.411 251.2757,-39.2704 249.5068,-32.4976"/>
</g>
</g>
</svg>
        <g id="navigator" transform="translate(0 0)" fill="#404254">
                <rect fill="#f2f5e9" fill-opacity="0.5" stroke="#606060" stroke-width=".5" x="0" y="0" width="60" height="60"/>
                <use id="zoomplus" xlink:href="#zoomPlus" x="17" y="9" onmousedown="handleZoom(evt,'in')"/>
                <use id="zoomminus" xlink:href="#zoomMin" x="42" y="9" onmousedown="handleZoom(evt,'out')"/>
                <use id="reset" xlink:href="#resetDef" x="30" y="36" onmousedown="handleReset()"/>
                <g id="arrowUp" xlink:href="#dirArrow" transform="translate(30 24)" onmousedown="handlePan(0,-1)">
                  <use xlink:href="#rim" fill="#404040">
                        <set attributeName="fill" to="#808080" begin="arrowUp.mouseover" end="arrowUp.mouseout"/>
                  </use>
                  <path fill="none" stroke="white" stroke-width="1.5" d="M0,-3.0v7 M-2.5,-0.5L0,-3.0L2.5,-0.5"/>
                </g>
                <g id="arrowRight" xlink:href="#dirArrow" transform="rotate(90) translate(36 -43)" onmousedown="handlePan(1,0)">
                  <use xlink:href="#rim" fill="#404040">
                        <set attributeName="fill" to="#808080" begin="arrowRight.mouseover" end="arrowRight.mouseout"/>
                  </use>
                  <path fill="none" stroke="white" stroke-width="1.5" d="M0,-3.0v7 M-2.5,-0.5L0,-3.0L2.5,-0.5"/>
                </g>
                <g id="arrowDown" xlink:href="#dirArrow" transform="rotate(180) translate(-30 -48)" onmousedown="handlePan(0,1)">
                  <use xlink:href="#rim" fill="#404040">
                        <set attributeName="fill" to="#808080" begin="arrowDown.mouseover" end="arrowDown.mouseout"/>
                  </use>
                  <path fill="none" stroke="white" stroke-width="1.5" d="M0,-3.0v7 M-2.5,-0.5L0,-3.0L2.5,-0.5"/>
                </g>
                <g id="arrowLeft" xlink:href="#dirArrow" transform="rotate(270) translate(-36 17)" onmousedown="handlePan(-1,0)">
                  <use xlink:href="#rim" fill="#404040">
                        <set attributeName="fill" to="#808080" begin="arrowLeft.mouseover" end="arrowLeft.mouseout"/>
                  </use>
                  <path fill="none" stroke="white" stroke-width="1.5" d="M0,-3.0v7 M-2.5,-0.5L0,-3.0L2.5,-0.5"/>
                </g>
        </g>
        <svg viewBox="0 0 15 15" width="100%" height="30px" preserveAspectRatio="xMaxYMin meet">
         <g id="arrow_out" transform="scale(0.3 0.3)">
          <a xlink:href="mtp__link_8c_a3e958676b67d37b4dcd737dde64eefaa_icgraph_org.svg" target="_base">
           <rect id="button" ry="5" rx="5" y="6" x="6" height="38" width="38"
                fill="#f2f5e9" fill-opacity="0.5" stroke="#606060" stroke-width="1.0"/>
           <path id="arrow"
             d="M 11.500037,31.436501 C 11.940474,20.09759 22.043105,11.32322 32.158766,21.979434 L 37.068811,17.246167 C 37.068811,17.246167 37.088388,32 37.088388,32 L 22.160133,31.978069 C 22.160133,31.978069 26.997745,27.140456 26.997745,27.140456 C 18.528582,18.264221 13.291696,25.230495 11.500037,31.436501 z"
             style="fill:#404040;"/>
          </a>
         </g>
        </svg>
</svg>
