<?xml version="1.0" encoding="UTF-8" standalone="no"?>
<!DOCTYPE svg PUBLIC "-//W3C//DTD SVG 1.1//EN"
 "http://www.w3.org/Graphics/SVG/1.1/DTD/svg11.dtd">
<!-- Generated by graphviz version 2.40.1 (20161225.0304)
 -->
<!-- Title: mtp_link_verified Pages: 1 -->
<svg width="568pt" height="104pt"
 viewBox="0.00 0.00 568.00 104.00" xmlns="http://www.w3.org/2000/svg" xmlns:xlink="http://www.w3.org/1999/xlink">
<g id="graph0" class="graph" transform="scale(1 1) rotate(0) translate(4 100)">
<title>mtp_link_verified</title>
<!-- Node1249 -->
<g id="node1" class="node">
<title>Node1249</title>
<polygon fill="#bfbfbf" stroke="#000000" points="0,-38.5 0,-57.5 90,-57.5 90,-38.5 0,-38.5"/>
<text text-anchor="middle" x="45" y="-45.5" font-family="Helvetica,sans-Serif" font-size="10.00" fill="#000000">mtp_link_verified</text>
</g>
<!-- Node1250 -->
<g id="node2" class="node">
<title>Node1250</title>
<g id="a_node2"><a xlink:href="mtp__layer3_8c.html#abab0946c7a681641e1901f32f54481a3" target="_top" xlink:title="Send Transfer allowed Message. ">
<polygon fill="none" stroke="#000000" points="139,-76.5 139,-95.5 193,-95.5 193,-76.5 139,-76.5"/>
<text text-anchor="middle" x="166" y="-83.5" font-family="Helvetica,sans-Serif" font-size="10.00" fill="#000000">send_tfa</text>
</a>
</g>
</g>
<!-- Node1249&#45;&gt;Node1250 -->
<g id="edge1" class="edge">
<title>Node1249&#45;&gt;Node1250</title>
<path fill="none" stroke="#191970" d="M75.5334,-57.589C91.8031,-62.6985 111.941,-69.0228 129.0838,-74.4065"/>
<polygon fill="#191970" stroke="#191970" points="128.19,-77.7943 138.7793,-77.4513 130.2874,-71.1158 128.19,-77.7943"/>
</g>
<!-- Node1255 -->
<g id="node7" class="node">
<title>Node1255</title>
<g id="a_node7"><a xlink:href="mtp__layer3_8c.html#a15a519927940670d64a16ff4024e01de" target="_top" xlink:title="T18 is used on linkset restart when we&#39;re an STP (Signalling Transfer Point) ">
<polygon fill="none" stroke="#000000" points="126,-38.5 126,-57.5 206,-57.5 206,-38.5 126,-38.5"/>
<text text-anchor="middle" x="166" y="-45.5" font-family="Helvetica,sans-Serif" font-size="10.00" fill="#000000">linkset_t18_cb</text>
</a>
</g>
</g>
<!-- Node1249&#45;&gt;Node1255 -->
<g id="edge6" class="edge">
<title>Node1249&#45;&gt;Node1255</title>
<path fill="none" stroke="#191970" d="M90.0559,-48C98.3677,-48 107.0963,-48 115.5551,-48"/>
<polygon fill="#191970" stroke="#191970" points="115.693,-51.5001 125.693,-48 115.693,-44.5001 115.693,-51.5001"/>
</g>
<!-- Node1256 -->
<g id="node8" class="node">
<title>Node1256</title>
<g id="a_node8"><a xlink:href="mtp__layer3_8c.html#a1ff7975a431191d4b1b68d98a08ad6b4" target="_top" xlink:title="T20 is used on linkset restart. ">
<polygon fill="none" stroke="#000000" points="126,-.5 126,-19.5 206,-19.5 206,-.5 126,-.5"/>
<text text-anchor="middle" x="166" y="-7.5" font-family="Helvetica,sans-Serif" font-size="10.00" fill="#000000">linkset_t20_cb</text>
</a>
</g>
</g>
<!-- Node1249&#45;&gt;Node1256 -->
<g id="edge7" class="edge">
<title>Node1249&#45;&gt;Node1256</title>
<path fill="none" stroke="#191970" d="M75.5334,-38.411C90.7234,-33.6406 109.2853,-27.8112 125.6334,-22.6771"/>
<polygon fill="#191970" stroke="#191970" points="126.9845,-25.9214 135.4764,-19.5859 124.8871,-19.243 126.9845,-25.9214"/>
</g>
<!-- Node1251 -->
<g id="node3" class="node">
<title>Node1251</title>
<g id="a_node3"><a xlink:href="mtp__layer3_8c.html#aa0e236b4a079ea566f8f9e8d52ad2a49" target="_top" xlink:title="Allocate memory for a Transfer Allowed message. ">
<polygon fill="none" stroke="#000000" points="242,-76.5 242,-95.5 317,-95.5 317,-76.5 242,-76.5"/>
<text text-anchor="middle" x="279.5" y="-83.5" font-family="Helvetica,sans-Serif" font-size="10.00" fill="#000000">mtp_tfa_alloc</text>
</a>
</g>
</g>
<!-- Node1250&#45;&gt;Node1251 -->
<g id="edge2" class="edge">
<title>Node1250&#45;&gt;Node1251</title>
<path fill="none" stroke="#191970" d="M193.1861,-86C204.6742,-86 218.4048,-86 231.4988,-86"/>
<polygon fill="#191970" stroke="#191970" points="231.8084,-89.5001 241.8084,-86 231.8084,-82.5001 231.8084,-89.5001"/>
</g>
<!-- Node1254 -->
<g id="node6" class="node">
<title>Node1254</title>
<g id="a_node6"><a xlink:href="mtp__data_8h.html#a8e5f5804dd9d980fbde40f470ab81fe1" target="_top" xlink:title="mtp_link_submit">
<polygon fill="none" stroke="#000000" points="353,-38.5 353,-57.5 441,-57.5 441,-38.5 353,-38.5"/>
<text text-anchor="middle" x="397" y="-45.5" font-family="Helvetica,sans-Serif" font-size="10.00" fill="#000000">mtp_link_submit</text>
</a>
</g>
</g>
<!-- Node1250&#45;&gt;Node1254 -->
<g id="edge5" class="edge">
<title>Node1250&#45;&gt;Node1254</title>
<path fill="none" stroke="#191970" d="M193.2603,-78.3208C207.6606,-74.4843 225.6859,-70.0273 242,-67 275.1441,-60.8497 312.6575,-56.1916 342.4768,-53.0271"/>
<polygon fill="#191970" stroke="#191970" points="343.0974,-56.4816 352.6836,-51.97 342.3762,-49.5188 343.0974,-56.4816"/>
</g>
<!-- Node1252 -->
<g id="node4" class="node">
<title>Node1252</title>
<g id="a_node4"><a xlink:href="mtp__layer3_8c.html#a99635471abf1bb8c7b5d2792128f8420" target="_top" xlink:title="Allocate an MTP base message (used to construct other messages) ">
<polygon fill="none" stroke="#000000" points="354.5,-76.5 354.5,-95.5 439.5,-95.5 439.5,-76.5 354.5,-76.5"/>
<text text-anchor="middle" x="397" y="-83.5" font-family="Helvetica,sans-Serif" font-size="10.00" fill="#000000">mtp_base_alloc</text>
</a>
</g>
</g>
<!-- Node1251&#45;&gt;Node1252 -->
<g id="edge3" class="edge">
<title>Node1251&#45;&gt;Node1252</title>
<path fill="none" stroke="#191970" d="M317.0008,-86C325.5892,-86 334.8778,-86 343.9811,-86"/>
<polygon fill="#191970" stroke="#191970" points="344.1331,-89.5001 354.133,-86 344.133,-82.5001 344.1331,-89.5001"/>
</g>
<!-- Node1253 -->
<g id="node5" class="node">
<title>Node1253</title>
<g id="a_node5"><a xlink:href="mtp__layer3_8c.html#a8106c3d675f459dece18948214e6f26b" target="_top" xlink:title="Allocate the buffer, and fill in header information for an MTP message. ">
<polygon fill="none" stroke="#000000" points="477,-38.5 477,-57.5 560,-57.5 560,-38.5 477,-38.5"/>
<text text-anchor="middle" x="518.5" y="-45.5" font-family="Helvetica,sans-Serif" font-size="10.00" fill="#000000">mtp_msg_alloc</text>
</a>
</g>
</g>
<!-- Node1252&#45;&gt;Node1253 -->
<g id="edge4" class="edge">
<title>Node1252&#45;&gt;Node1253</title>
<path fill="none" stroke="#191970" d="M427.6596,-76.411C442.9124,-71.6406 461.5509,-65.8112 477.9666,-60.6771"/>
<polygon fill="#191970" stroke="#191970" points="479.3509,-63.9114 487.8502,-57.5859 477.2614,-57.2306 479.3509,-63.9114"/>
</g>
<!-- Node1257 -->
<g id="node9" class="node">
<title>Node1257</title>
<g id="a_node9"><a xlink:href="mtp__layer3_8c.html#a0363d6917641c740254d138b6139440c" target="_top" xlink:title="send_tra">
<polygon fill="none" stroke="#000000" points="252.5,-.5 252.5,-19.5 306.5,-19.5 306.5,-.5 252.5,-.5"/>
<text text-anchor="middle" x="279.5" y="-7.5" font-family="Helvetica,sans-Serif" font-size="10.00" fill="#000000">send_tra</text>
</a>
</g>
</g>
<!-- Node1256&#45;&gt;Node1257 -->
<g id="edge8" class="edge">
<title>Node1256&#45;&gt;Node1257</title>
<path fill="none" stroke="#191970" d="M206.0159,-10C217.7433,-10 230.5178,-10 242.0774,-10"/>
<polygon fill="#191970" stroke="#191970" points="242.2869,-13.5001 252.2869,-10 242.2868,-6.5001 242.2869,-13.5001"/>
</g>
<!-- Node1257&#45;&gt;Node1254 -->
<g id="edge11" class="edge">
<title>Node1257&#45;&gt;Node1254</title>
<path fill="none" stroke="#191970" d="M306.7522,-18.8135C321.9402,-23.7254 341.1157,-29.9268 357.8812,-35.3488"/>
<polygon fill="#191970" stroke="#191970" points="356.8338,-38.6885 367.4257,-38.4355 358.9879,-32.0282 356.8338,-38.6885"/>
</g>
<!-- Node1258 -->
<g id="node10" class="node">
<title>Node1258</title>
<g id="a_node10"><a xlink:href="mtp__layer3_8c.html#a571c6f9af7350c99e501cc0eaff07e33" target="_top" xlink:title="Allocate memory for a Transfer Restricted message. ">
<polygon fill="none" stroke="#000000" points="359.5,-.5 359.5,-19.5 434.5,-19.5 434.5,-.5 359.5,-.5"/>
<text text-anchor="middle" x="397" y="-7.5" font-family="Helvetica,sans-Serif" font-size="10.00" fill="#000000">mtp_tra_alloc</text>
</a>
</g>
</g>
<!-- Node1257&#45;&gt;Node1258 -->
<g id="edge9" class="edge">
<title>Node1257&#45;&gt;Node1258</title>
<path fill="none" stroke="#191970" d="M306.7522,-10C319.2994,-10 334.568,-10 348.951,-10"/>
<polygon fill="#191970" stroke="#191970" points="349.216,-13.5001 359.216,-10 349.216,-6.5001 349.216,-13.5001"/>
</g>
<!-- Node1258&#45;&gt;Node1253 -->
<g id="edge10" class="edge">
<title>Node1258&#45;&gt;Node1253</title>
<path fill="none" stroke="#191970" d="M427.6596,-19.589C442.9124,-24.3594 461.5509,-30.1888 477.9666,-35.3229"/>
<polygon fill="#191970" stroke="#191970" points="477.2614,-38.7694 487.8502,-38.4141 479.3509,-32.0886 477.2614,-38.7694"/>
</g>
</g>
</svg>
