<?xml version="1.0" encoding="UTF-8" standalone="no"?>
<!DOCTYPE svg PUBLIC "-//W3C//DTD SVG 1.1//EN"
 "http://www.w3.org/Graphics/SVG/1.1/DTD/svg11.dtd">
<!-- Generated by graphviz version 2.40.1 (20161225.0304)
 -->
<!-- Title: fr_network_create Pages: 1 -->
<svg width="455pt" height="56pt"
 viewBox="0.00 0.00 455.00 55.50" xmlns="http://www.w3.org/2000/svg" xmlns:xlink="http://www.w3.org/1999/xlink">
<g id="graph0" class="graph" transform="scale(1 1) rotate(0) translate(4 51.5)">
<title>fr_network_create</title>
<!-- Node435 -->
<g id="node1" class="node">
<title>Node435</title>
<polygon fill="#bfbfbf" stroke="#000000" points="0,-.5 0,-19.5 95,-19.5 95,-.5 0,-.5"/>
<text text-anchor="middle" x="47.5" y="-7.5" font-family="Helvetica,sans-Serif" font-size="10.00" fill="#000000">fr_network_create</text>
</g>
<!-- Node436 -->
<g id="node2" class="node">
<title>Node436</title>
<g id="a_node2"><a xlink:href="schedule_8c.html#ab04866d2458f55a7a949e10e59b5f28c" target="_top" xlink:title="Initialize and run the network thread. ">
<polygon fill="none" stroke="#000000" points="131,-17 131,-47 238,-47 238,-17 131,-17"/>
<text text-anchor="start" x="139" y="-35" font-family="Helvetica,sans-Serif" font-size="10.00" fill="#000000">fr_schedule_network</text>
<text text-anchor="middle" x="184.5" y="-24" font-family="Helvetica,sans-Serif" font-size="10.00" fill="#000000">_thread</text>
</a>
</g>
</g>
<!-- Node435&#45;&gt;Node436 -->
<g id="edge1" class="edge">
<title>Node435&#45;&gt;Node436</title>
<path fill="none" stroke="#191970" d="M104.9893,-19.2319C113.5938,-20.6136 122.4362,-22.0336 130.9544,-23.4014"/>
<polygon fill="#191970" stroke="#191970" points="105.4599,-15.7627 95.0315,-17.6328 104.35,-22.6741 105.4599,-15.7627"/>
</g>
<!-- Node437 -->
<g id="node3" class="node">
<title>Node437</title>
<g id="a_node3"><a xlink:href="schedule_8h.html#ab3af94cba38534d44480a8cc9bb0422c" target="_top" xlink:title="Create a scheduler and spawn the child threads. ">
<polygon fill="none" stroke="#000000" points="274,-.5 274,-19.5 373,-19.5 373,-.5 274,-.5"/>
<text text-anchor="middle" x="323.5" y="-7.5" font-family="Helvetica,sans-Serif" font-size="10.00" fill="#000000">fr_schedule_create</text>
</a>
</g>
</g>
<!-- Node435&#45;&gt;Node437 -->
<g id="edge4" class="edge">
<title>Node435&#45;&gt;Node437</title>
<path fill="none" stroke="#191970" d="M105.2169,-8.4374C113.8582,-8.2557 122.6627,-8.0998 131,-8 178.5521,-7.4306 190.4477,-7.4439 238,-8 249.5805,-8.1354 262.0415,-8.374 273.7713,-8.6403"/>
<polygon fill="#191970" stroke="#191970" points="105.1051,-4.939 95.1855,-8.6608 105.261,-11.9372 105.1051,-4.939"/>
</g>
<!-- Node436&#45;&gt;Node437 -->
<g id="edge2" class="edge">
<title>Node436&#45;&gt;Node437</title>
<path fill="none" stroke="#191970" d="M248.2864,-21.9043C256.9173,-20.5383 265.6665,-19.1535 273.9968,-17.835"/>
<polygon fill="#191970" stroke="#191970" points="247.5709,-18.4739 238.241,-23.4942 248.6653,-25.3878 247.5709,-18.4739"/>
</g>
<!-- Node438 -->
<g id="node4" class="node">
<title>Node438</title>
<g id="a_node4"><a xlink:href="radiusd_8c.html#a0ddf1224851353fc92bfbff6f499fa97" target="_top" xlink:title="Entry point for the daemon. ">
<polygon fill="none" stroke="#000000" points="409,-.5 409,-19.5 447,-19.5 447,-.5 409,-.5"/>
<text text-anchor="middle" x="428" y="-7.5" font-family="Helvetica,sans-Serif" font-size="10.00" fill="#000000">main</text>
</a>
</g>
</g>
<!-- Node437&#45;&gt;Node438 -->
<g id="edge3" class="edge">
<title>Node437&#45;&gt;Node438</title>
<path fill="none" stroke="#191970" d="M383.3404,-10C392.5271,-10 401.394,-10 408.7722,-10"/>
<polygon fill="#191970" stroke="#191970" points="383.3016,-6.5001 373.3016,-10 383.3015,-13.5001 383.3016,-6.5001"/>
</g>
</g>
</svg>
