<?xml version="1.0" encoding="UTF-8" standalone="no"?>
<!DOCTYPE svg PUBLIC "-//W3C//DTD SVG 1.1//EN"
 "http://www.w3.org/Graphics/SVG/1.1/DTD/svg11.dtd">
<!-- Generated by graphviz version 2.40.1 (20161225.0304)
 -->
<!-- Title: fr_network_rb_init Pages: 1 -->
<!--zoomable 344 -->
<svg id="main" version="1.1" xmlns="http://www.w3.org/2000/svg" xmlns:xlink="http://www.w3.org/1999/xlink" xml:space="preserve" onload="init(evt)">
<style type="text/css"><![CDATA[
.edge:hover path { stroke: red; }
.edge:hover polygon { stroke: red; fill: red; }
]]></style>
<script type="text/javascript"><![CDATA[
var edges = document.getElementsByTagName('g');
if (edges && edges.length) {
  for (var i=0;i<edges.length;i++) {
    if (edges[i].id.substr(0,4)=='edge') {
      edges[i].setAttribute('class','edge');
    }
  }
}
]]></script>
        <defs>
                <circle id="rim" cx="0" cy="0" r="7"/>
                <circle id="rim2" cx="0" cy="0" r="3.5"/>
                <g id="zoomPlus">
                        <use xlink:href="#rim" fill="#404040">
                                <set attributeName="fill" to="#808080" begin="zoomplus.mouseover" end="zoomplus.mouseout"/>
                        </use>
                        <path d="M-4,0h8M0,-4v8" fill="none" stroke="white" stroke-width="1.5" pointer-events="none"/>
                </g>
                <g id="zoomMin">
                        <use xlink:href="#rim" fill="#404040">
                                <set attributeName="fill" to="#808080" begin="zoomminus.mouseover" end="zoomminus.mouseout"/>
                        </use>
                        <path d="M-4,0h8" fill="none" stroke="white" stroke-width="1.5" pointer-events="none"/>
                </g>
                <g id="dirArrow">
                        <path fill="none" stroke="white" stroke-width="1.5" d="M0,-3.0v7 M-2.5,-0.5L0,-3.0L2.5,-0.5"/>
                </g>
               <g id="resetDef">
                       <use xlink:href="#rim2" fill="#404040">
                               <set attributeName="fill" to="#808080" begin="reset.mouseover" end="reset.mouseout"/>
                       </use>
               </g>
        </defs>

<script type="text/javascript">
var viewWidth = 678;
var viewHeight = 344;
var sectionId = 'dynsection-48';
</script>
<script xlink:href="svgpan.js"/>
<svg id="graph" class="graph">
<g id="viewport">
<title>fr_network_rb_init</title>
<!-- Node3212 -->
<g id="node1" class="node">
<title>Node3212</title>
<polygon fill="#bfbfbf" stroke="#000000" points="0,-107 0,-126 94,-126 94,-107 0,-107"/>
<text text-anchor="middle" x="47" y="-114" font-family="Helvetica,sans-Serif" font-size="10.00" fill="#000000">fr_network_rb_init</text>
</g>
<!-- Node3213 -->
<g id="node2" class="node">
<title>Node3213</title>
<g id="a_node2"><a xlink:href="network_8h.html#a1f14ab2c1d9492c62e7196634b5232d0" target="_top" xlink:title="Add a fr_listen_t to a network. ">
<polygon fill="none" stroke="#000000" points="137,-192 137,-211 249,-211 249,-192 137,-192"/>
<text text-anchor="middle" x="193" y="-199" font-family="Helvetica,sans-Serif" font-size="10.00" fill="#000000">fr_network_listen_add</text>
</a>
</g>
</g>
<!-- Node3212&#45;&gt;Node3213 -->
<g id="edge1" class="edge">
<title>Node3212&#45;&gt;Node3213</title>
<path fill="none" stroke="#191970" d="M72.4463,-131.3146C102.3095,-148.7008 150.9694,-177.0301 176.3719,-191.8193"/>
<polygon fill="#191970" stroke="#191970" points="73.8673,-128.092 63.4643,-126.0854 70.3454,-134.1415 73.8673,-128.092"/>
</g>
<!-- Node3228 -->
<g id="node13" class="node">
<title>Node3228</title>
<g id="a_node13"><a xlink:href="network_8h.html#a40894f943a01cc66de707cf8e5d8f66f" target="_top" xlink:title="Add a &quot;watch directory&quot; call to a network. ">
<polygon fill="none" stroke="#000000" points="130,-126 130,-145 256,-145 256,-126 130,-126"/>
<text text-anchor="middle" x="193" y="-133" font-family="Helvetica,sans-Serif" font-size="10.00" fill="#000000">fr_network_directory_add</text>
</a>
</g>
</g>
<!-- Node3212&#45;&gt;Node3228 -->
<g id="edge12" class="edge">
<title>Node3212&#45;&gt;Node3228</title>
<path fill="none" stroke="#191970" d="M104.4264,-123.9733C112.7866,-125.0613 121.4325,-126.1864 129.8976,-127.288"/>
<polygon fill="#191970" stroke="#191970" points="104.7701,-120.4886 94.402,-122.6688 103.8667,-127.4301 104.7701,-120.4886"/>
</g>
<!-- Node3231 -->
<g id="node16" class="node">
<title>Node3231</title>
<g id="a_node16"><a xlink:href="network_8h.html#a2815d31ae4124c14f95685fb4353e893" target="_top" xlink:title="Add a worker to a network. ">
<polygon fill="none" stroke="#000000" points="134,-50 134,-69 252,-69 252,-50 134,-50"/>
<text text-anchor="middle" x="193" y="-57" font-family="Helvetica,sans-Serif" font-size="10.00" fill="#000000">fr_network_worker_add</text>
</a>
</g>
</g>
<!-- Node3212&#45;&gt;Node3231 -->
<g id="edge15" class="edge">
<title>Node3212&#45;&gt;Node3231</title>
<path fill="none" stroke="#191970" d="M80.3945,-103.0953C95.5204,-97.0565 113.6413,-89.8676 130,-83.5 142.325,-78.7025 156.0443,-73.4641 167.5255,-69.1089"/>
<polygon fill="#191970" stroke="#191970" points="78.9216,-99.9147 70.9358,-106.8773 81.5205,-106.4144 78.9216,-99.9147"/>
</g>
<!-- Node3235 -->
<g id="node20" class="node">
<title>Node3235</title>
<g id="a_node20"><a xlink:href="network_8h.html#a75d3e27d332d829c43e109210f39809b" target="_top" xlink:title="Inject a packet for a listener to read. ">
<polygon fill="none" stroke="#000000" points="298,-88 298,-107 417,-107 417,-88 298,-88"/>
<text text-anchor="middle" x="357.5" y="-95" font-family="Helvetica,sans-Serif" font-size="10.00" fill="#000000">fr_network_listen_inject</text>
</a>
</g>
</g>
<!-- Node3212&#45;&gt;Node3235 -->
<g id="edge20" class="edge">
<title>Node3212&#45;&gt;Node3235</title>
<path fill="none" stroke="#191970" d="M104.4395,-112.9852C159.473,-109.6176 242.1727,-104.5571 297.9124,-101.1463"/>
<polygon fill="#191970" stroke="#191970" points="103.9258,-109.51 94.1583,-113.6143 104.3534,-116.4969 103.9258,-109.51"/>
</g>
<!-- Node3214 -->
<g id="node3" class="node">
<title>Node3214</title>
<g id="a_node3"><a xlink:href="schedule_8h.html#ad02a58456f81a96735ec001b5f903b65" target="_top" xlink:title="Add a fr_listen_t to a scheduler. ">
<polygon fill="none" stroke="#000000" points="299.5,-221 299.5,-240 415.5,-240 415.5,-221 299.5,-221"/>
<text text-anchor="middle" x="357.5" y="-228" font-family="Helvetica,sans-Serif" font-size="10.00" fill="#000000">fr_schedule_listen_add</text>
</a>
</g>
</g>
<!-- Node3213&#45;&gt;Node3214 -->
<g id="edge2" class="edge">
<title>Node3213&#45;&gt;Node3214</title>
<path fill="none" stroke="#191970" d="M257.2295,-212.8231C272.5382,-215.5219 288.7229,-218.3752 303.5182,-220.9835"/>
<polygon fill="#191970" stroke="#191970" points="257.7752,-209.3654 247.3194,-211.0761 256.5598,-216.2591 257.7752,-209.3654"/>
</g>
<!-- Node3215 -->
<g id="node4" class="node">
<title>Node3215</title>
<g id="a_node4"><a xlink:href="master_8c.html#a78974fe08a590cc694792695a41e1d63" target="_top" xlink:title="Create a new connection. ">
<polygon fill="none" stroke="#000000" points="459,-164 459,-183 572,-183 572,-164 459,-164"/>
<text text-anchor="middle" x="515.5" y="-171" font-family="Helvetica,sans-Serif" font-size="10.00" fill="#000000">fr_io_connection_alloc</text>
</a>
</g>
</g>
<!-- Node3214&#45;&gt;Node3215 -->
<g id="edge3" class="edge">
<title>Node3214&#45;&gt;Node3215</title>
<path fill="none" stroke="#191970" d="M391.8728,-217.3017C411.4809,-209.8555 436.5514,-200.4742 459,-192.5 467.8742,-189.3477 477.5786,-186.0357 486.4017,-183.0759"/>
<polygon fill="#191970" stroke="#191970" points="390.5405,-214.0638 382.4411,-220.8939 393.032,-220.6053 390.5405,-214.0638"/>
</g>
<!-- Node3218 -->
<g id="node7" class="node">
<title>Node3218</title>
<g id="a_node7"><a xlink:href="master_8h.html#a27c87f1fb859a3a0c0a90e4dc6c12816" target="_top" xlink:title="fr_master_io_listen">
<polygon fill="none" stroke="#000000" points="466,-202 466,-221 565,-221 565,-202 466,-202"/>
<text text-anchor="middle" x="515.5" y="-209" font-family="Helvetica,sans-Serif" font-size="10.00" fill="#000000">fr_master_io_listen</text>
</a>
</g>
</g>
<!-- Node3214&#45;&gt;Node3218 -->
<g id="edge6" class="edge">
<title>Node3214&#45;&gt;Node3218</title>
<path fill="none" stroke="#191970" d="M426.034,-222.2586C439.4452,-220.6458 453.2659,-218.9838 465.9134,-217.4629"/>
<polygon fill="#191970" stroke="#191970" points="425.395,-218.8101 415.8845,-223.4791 426.2308,-225.76 425.395,-218.8101"/>
</g>
<!-- Node3220 -->
<g id="node9" class="node">
<title>Node3220</title>
<g id="a_node9"><a xlink:href="proto__arp_8c.html#aebadffb9ff09ec601359dc1477d07d7f" target="_top" xlink:title="Open listen sockets/connect to external event source. ">
<polygon fill="none" stroke="#000000" points="484.5,-316 484.5,-335 546.5,-335 546.5,-316 484.5,-316"/>
<text text-anchor="middle" x="515.5" y="-323" font-family="Helvetica,sans-Serif" font-size="10.00" fill="#000000">mod_open</text>
</a>
</g>
</g>
<!-- Node3214&#45;&gt;Node3220 -->
<g id="edge8" class="edge">
<title>Node3214&#45;&gt;Node3220</title>
<path fill="none" stroke="#191970" d="M375.7255,-247.0016C395.1579,-263.8817 427.4218,-289.917 459,-306.5 466.8796,-310.6379 475.8413,-314.1399 484.2689,-316.9662"/>
<polygon fill="#191970" stroke="#191970" points="377.7987,-244.1631 367.9854,-240.1695 373.1663,-249.4111 377.7987,-244.1631"/>
</g>
<!-- Node3221 -->
<g id="node10" class="node">
<title>Node3221</title>
<g id="a_node10"><a xlink:href="proto__detail__file_8c.html#afd760afc77481ccc4642d9682e334043" target="_top" xlink:title="work_exists">
<polygon fill="none" stroke="#000000" points="481,-278 481,-297 550,-297 550,-278 481,-278"/>
<text text-anchor="middle" x="515.5" y="-285" font-family="Helvetica,sans-Serif" font-size="10.00" fill="#000000">work_exists</text>
</a>
</g>
</g>
<!-- Node3214&#45;&gt;Node3221 -->
<g id="edge9" class="edge">
<title>Node3214&#45;&gt;Node3221</title>
<path fill="none" stroke="#191970" d="M391.8728,-243.6983C411.4809,-251.1445 436.5514,-260.5258 459,-268.5 467.8742,-271.6523 477.5786,-274.9643 486.4017,-277.9241"/>
<polygon fill="#191970" stroke="#191970" points="393.032,-240.3947 382.4411,-240.1061 390.5405,-246.9362 393.032,-240.3947"/>
</g>
<!-- Node3227 -->
<g id="node12" class="node">
<title>Node3227</title>
<g id="a_node12"><a xlink:href="radius__schedule__test_8c.html#a0ddf1224851353fc92bfbff6f499fa97" target="_top" xlink:title="main">
<polygon fill="none" stroke="#000000" points="496.5,-240 496.5,-259 534.5,-259 534.5,-240 496.5,-240"/>
<text text-anchor="middle" x="515.5" y="-247" font-family="Helvetica,sans-Serif" font-size="10.00" fill="#000000">main</text>
</a>
</g>
</g>
<!-- Node3214&#45;&gt;Node3227 -->
<g id="edge11" class="edge">
<title>Node3214&#45;&gt;Node3227</title>
<path fill="none" stroke="#191970" d="M425.9665,-238.7333C451.5473,-241.8095 478.6284,-245.0661 496.2212,-247.1817"/>
<polygon fill="#191970" stroke="#191970" points="426.2308,-235.24 415.8845,-237.5209 425.395,-242.1899 426.2308,-235.24"/>
</g>
<!-- Node3216 -->
<g id="node5" class="node">
<title>Node3216</title>
<g id="a_node5"><a xlink:href="master_8c.html#a476d24efc125b68342506847dd091356" target="_top" xlink:title="Implement 99% of the read routines. ">
<polygon fill="none" stroke="#000000" points="609.5,-107 609.5,-126 668.5,-126 668.5,-107 609.5,-107"/>
<text text-anchor="middle" x="639" y="-114" font-family="Helvetica,sans-Serif" font-size="10.00" fill="#000000">mod_read</text>
</a>
</g>
</g>
<!-- Node3215&#45;&gt;Node3216 -->
<g id="edge4" class="edge">
<title>Node3215&#45;&gt;Node3216</title>
<path fill="none" stroke="#191970" d="M557.0237,-160.5562C562.125,-158.6682 567.221,-156.6351 572,-154.5 590.5584,-146.2087 610.6988,-134.3668 624,-126.1137"/>
<polygon fill="#191970" stroke="#191970" points="555.5513,-157.3644 547.2893,-163.9969 557.8841,-163.9643 555.5513,-157.3644"/>
</g>
<!-- Node3217 -->
<g id="node6" class="node">
<title>Node3217</title>
<g id="a_node6"><a xlink:href="master_8c.html#ad8f9c4ad92dff4465dac6c5a99cee2b7" target="_top" xlink:title="mod_write">
<polygon fill="none" stroke="#000000" points="608,-164 608,-183 670,-183 670,-164 608,-164"/>
<text text-anchor="middle" x="639" y="-171" font-family="Helvetica,sans-Serif" font-size="10.00" fill="#000000">mod_write</text>
</a>
</g>
</g>
<!-- Node3215&#45;&gt;Node3217 -->
<g id="edge5" class="edge">
<title>Node3215&#45;&gt;Node3217</title>
<path fill="none" stroke="#191970" d="M582.301,-173.5C591.239,-173.5 600.0349,-173.5 607.9329,-173.5"/>
<polygon fill="#191970" stroke="#191970" points="582.1897,-170.0001 572.1896,-173.5 582.1896,-177.0001 582.1897,-170.0001"/>
</g>
<!-- Node3219 -->
<g id="node8" class="node">
<title>Node3219</title>
<g id="a_node8"><a xlink:href="proto__control_8c.html#aebadffb9ff09ec601359dc1477d07d7f" target="_top" xlink:title="Open listen sockets/connect to external event source. ">
<polygon fill="none" stroke="#000000" points="608,-202 608,-221 670,-221 670,-202 608,-202"/>
<text text-anchor="middle" x="639" y="-209" font-family="Helvetica,sans-Serif" font-size="10.00" fill="#000000">mod_open</text>
</a>
</g>
</g>
<!-- Node3218&#45;&gt;Node3219 -->
<g id="edge7" class="edge">
<title>Node3218&#45;&gt;Node3219</title>
<path fill="none" stroke="#191970" d="M575.3234,-211.5C586.6155,-211.5 597.9937,-211.5 607.9454,-211.5"/>
<polygon fill="#191970" stroke="#191970" points="575.0206,-208.0001 565.0206,-211.5 575.0205,-215.0001 575.0206,-208.0001"/>
</g>
<!-- Node3222 -->
<g id="node11" class="node">
<title>Node3222</title>
<g id="a_node11"><a xlink:href="proto__detail__file_8c.html#a9bf4da486c734dbbc3c6c08f3d5f0290" target="_top" xlink:title="work_init">
<polygon fill="none" stroke="#ff0000" points="611,-278 611,-297 667,-297 667,-278 611,-278"/>
<text text-anchor="middle" x="639" y="-285" font-family="Helvetica,sans-Serif" font-size="10.00" fill="#000000">work_init</text>
</a>
</g>
</g>
<!-- Node3221&#45;&gt;Node3222 -->
<g id="edge10" class="edge">
<title>Node3221&#45;&gt;Node3222</title>
<path fill="none" stroke="#191970" d="M560.4212,-287.5C577.2423,-287.5 595.8672,-287.5 610.761,-287.5"/>
<polygon fill="#191970" stroke="#191970" points="560.2303,-284.0001 550.2303,-287.5 560.2303,-291.0001 560.2303,-284.0001"/>
</g>
<!-- Node3229 -->
<g id="node14" class="node">
<title>Node3229</title>
<g id="a_node14"><a xlink:href="schedule_8h.html#ab920a1b5a26840f3bce5e5c5ee9c8473" target="_top" xlink:title="Add a directory NOTE_EXTEND to a scheduler. ">
<polygon fill="none" stroke="#000000" points="292,-126 292,-145 423,-145 423,-126 292,-126"/>
<text text-anchor="middle" x="357.5" y="-133" font-family="Helvetica,sans-Serif" font-size="10.00" fill="#000000">fr_schedule_directory_add</text>
</a>
</g>
</g>
<!-- Node3228&#45;&gt;Node3229 -->
<g id="edge13" class="edge">
<title>Node3228&#45;&gt;Node3229</title>
<path fill="none" stroke="#191970" d="M266.3774,-135.5C274.8507,-135.5 283.451,-135.5 291.813,-135.5"/>
<polygon fill="#191970" stroke="#191970" points="266.1296,-132.0001 256.1295,-135.5 266.1295,-139.0001 266.1296,-132.0001"/>
</g>
<!-- Node3230 -->
<g id="node15" class="node">
<title>Node3230</title>
<g id="a_node15"><a xlink:href="proto__detail_8c.html#a3c936543a7e0c430973f238f92911ba0" target="_top" xlink:title="Open listen sockets/connect to external event source. ">
<polygon fill="none" stroke="#000000" points="484.5,-126 484.5,-145 546.5,-145 546.5,-126 484.5,-126"/>
<text text-anchor="middle" x="515.5" y="-133" font-family="Helvetica,sans-Serif" font-size="10.00" fill="#000000">mod_open</text>
</a>
</g>
</g>
<!-- Node3229&#45;&gt;Node3230 -->
<g id="edge14" class="edge">
<title>Node3229&#45;&gt;Node3230</title>
<path fill="none" stroke="#191970" d="M433.1421,-135.5C451.2445,-135.5 469.5824,-135.5 484.3447,-135.5"/>
<polygon fill="#191970" stroke="#191970" points="433.1336,-132.0001 423.1336,-135.5 433.1336,-139.0001 433.1336,-132.0001"/>
</g>
<!-- Node3232 -->
<g id="node17" class="node">
<title>Node3232</title>
<g id="a_node17"><a xlink:href="schedule_8c.html#ab81ce913beed87dea43ee1bca92744c7" target="_top" xlink:title="Entry point for worker threads. ">
<polygon fill="none" stroke="#000000" points="307,-.5 307,-30.5 408,-30.5 408,-.5 307,-.5"/>
<text text-anchor="start" x="315" y="-18.5" font-family="Helvetica,sans-Serif" font-size="10.00" fill="#000000">fr_schedule_worker</text>
<text text-anchor="middle" x="357.5" y="-7.5" font-family="Helvetica,sans-Serif" font-size="10.00" fill="#000000">_thread</text>
</a>
</g>
</g>
<!-- Node3231&#45;&gt;Node3232 -->
<g id="edge16" class="edge">
<title>Node3231&#45;&gt;Node3232</title>
<path fill="none" stroke="#191970" d="M238.4444,-47.3447C259.6837,-41.6636 285.0481,-34.8792 306.897,-29.0352"/>
<polygon fill="#191970" stroke="#191970" points="237.45,-43.9875 228.6941,-49.9527 239.2589,-50.7498 237.45,-43.9875"/>
</g>
<!-- Node3233 -->
<g id="node18" class="node">
<title>Node3233</title>
<g id="a_node18"><a xlink:href="schedule_8h.html#ab3af94cba38534d44480a8cc9bb0422c" target="_top" xlink:title="Create a scheduler and spawn the child threads. ">
<polygon fill="none" stroke="#000000" points="466,-28 466,-47 565,-47 565,-28 466,-28"/>
<text text-anchor="middle" x="515.5" y="-35" font-family="Helvetica,sans-Serif" font-size="10.00" fill="#000000">fr_schedule_create</text>
</a>
</g>
</g>
<!-- Node3231&#45;&gt;Node3233 -->
<g id="edge19" class="edge">
<title>Node3231&#45;&gt;Node3233</title>
<path fill="none" stroke="#191970" d="M262.1299,-54.7842C323.4273,-50.6026 411.4495,-44.598 465.9675,-40.879"/>
<polygon fill="#191970" stroke="#191970" points="261.89,-51.2923 252.1515,-55.4649 262.3665,-58.2761 261.89,-51.2923"/>
</g>
<!-- Node3232&#45;&gt;Node3233 -->
<g id="edge17" class="edge">
<title>Node3232&#45;&gt;Node3233</title>
<path fill="none" stroke="#191970" d="M418.4816,-23.9911C434.1419,-26.1717 450.8002,-28.4912 465.8127,-30.5815"/>
<polygon fill="#191970" stroke="#191970" points="418.7491,-20.4947 408.3619,-22.582 417.7836,-27.4278 418.7491,-20.4947"/>
</g>
<!-- Node3234 -->
<g id="node19" class="node">
<title>Node3234</title>
<g id="a_node19"><a xlink:href="radiusd_8c.html#a0ddf1224851353fc92bfbff6f499fa97" target="_top" xlink:title="Entry point for the daemon. ">
<polygon fill="none" stroke="#000000" points="620,-28 620,-47 658,-47 658,-28 620,-28"/>
<text text-anchor="middle" x="639" y="-35" font-family="Helvetica,sans-Serif" font-size="10.00" fill="#000000">main</text>
</a>
</g>
</g>
<!-- Node3233&#45;&gt;Node3234 -->
<g id="edge18" class="edge">
<title>Node3233&#45;&gt;Node3234</title>
<path fill="none" stroke="#191970" d="M575.0225,-37.5C591.1923,-37.5 607.5661,-37.5 619.701,-37.5"/>
<polygon fill="#191970" stroke="#191970" points="575.0206,-34.0001 565.0206,-37.5 575.0205,-41.0001 575.0206,-34.0001"/>
</g>
<!-- Node3235&#45;&gt;Node3216 -->
<g id="edge21" class="edge">
<title>Node3235&#45;&gt;Node3216</title>
<path fill="none" stroke="#191970" d="M427.4722,-102.2228C485.8991,-106.1664 566.3223,-111.5946 609.2159,-114.4897"/>
<polygon fill="#191970" stroke="#191970" points="427.4119,-98.7109 417.1989,-101.5294 426.9405,-105.695 427.4119,-98.7109"/>
</g>
</g>
</svg>
        <g id="navigator" transform="translate(0 0)" fill="#404254">
                <rect fill="#f2f5e9" fill-opacity="0.5" stroke="#606060" stroke-width=".5" x="0" y="0" width="60" height="60"/>
                <use id="zoomplus" xlink:href="#zoomPlus" x="17" y="9" onmousedown="handleZoom(evt,'in')"/>
                <use id="zoomminus" xlink:href="#zoomMin" x="42" y="9" onmousedown="handleZoom(evt,'out')"/>
                <use id="reset" xlink:href="#resetDef" x="30" y="36" onmousedown="handleReset()"/>
                <g id="arrowUp" xlink:href="#dirArrow" transform="translate(30 24)" onmousedown="handlePan(0,-1)">
                  <use xlink:href="#rim" fill="#404040">
                        <set attributeName="fill" to="#808080" begin="arrowUp.mouseover" end="arrowUp.mouseout"/>
                  </use>
                  <path fill="none" stroke="white" stroke-width="1.5" d="M0,-3.0v7 M-2.5,-0.5L0,-3.0L2.5,-0.5"/>
                </g>
                <g id="arrowRight" xlink:href="#dirArrow" transform="rotate(90) translate(36 -43)" onmousedown="handlePan(1,0)">
                  <use xlink:href="#rim" fill="#404040">
                        <set attributeName="fill" to="#808080" begin="arrowRight.mouseover" end="arrowRight.mouseout"/>
                  </use>
                  <path fill="none" stroke="white" stroke-width="1.5" d="M0,-3.0v7 M-2.5,-0.5L0,-3.0L2.5,-0.5"/>
                </g>
                <g id="arrowDown" xlink:href="#dirArrow" transform="rotate(180) translate(-30 -48)" onmousedown="handlePan(0,1)">
                  <use xlink:href="#rim" fill="#404040">
                        <set attributeName="fill" to="#808080" begin="arrowDown.mouseover" end="arrowDown.mouseout"/>
                  </use>
                  <path fill="none" stroke="white" stroke-width="1.5" d="M0,-3.0v7 M-2.5,-0.5L0,-3.0L2.5,-0.5"/>
                </g>
                <g id="arrowLeft" xlink:href="#dirArrow" transform="rotate(270) translate(-36 17)" onmousedown="handlePan(-1,0)">
                  <use xlink:href="#rim" fill="#404040">
                        <set attributeName="fill" to="#808080" begin="arrowLeft.mouseover" end="arrowLeft.mouseout"/>
                  </use>
                  <path fill="none" stroke="white" stroke-width="1.5" d="M0,-3.0v7 M-2.5,-0.5L0,-3.0L2.5,-0.5"/>
                </g>
        </g>
        <svg viewBox="0 0 15 15" width="100%" height="30px" preserveAspectRatio="xMaxYMin meet">
         <g id="arrow_out" transform="scale(0.3 0.3)">
          <a xlink:href="network_8c_ae07deb6f70bb80066791a8848f81e3a9_icgraph_org.svg" target="_base">
           <rect id="button" ry="5" rx="5" y="6" x="6" height="38" width="38"
                fill="#f2f5e9" fill-opacity="0.5" stroke="#606060" stroke-width="1.0"/>
           <path id="arrow"
             d="M 11.500037,31.436501 C 11.940474,20.09759 22.043105,11.32322 32.158766,21.979434 L 37.068811,17.246167 C 37.068811,17.246167 37.088388,32 37.088388,32 L 22.160133,31.978069 C 22.160133,31.978069 26.997745,27.140456 26.997745,27.140456 C 18.528582,18.264221 13.291696,25.230495 11.500037,31.436501 z"
             style="fill:#404040;"/>
          </a>
         </g>
        </svg>
</svg>
