<?xml version="1.0" encoding="UTF-8" standalone="no"?>
<!DOCTYPE svg PUBLIC "-//W3C//DTD SVG 1.1//EN"
 "http://www.w3.org/Graphics/SVG/1.1/DTD/svg11.dtd">
<!-- Generated by graphviz version 2.40.1 (20161225.0304)
 -->
<!-- Title: fr_network_channel_callback Pages: 1 -->
<svg width="592pt" height="61pt"
 viewBox="0.00 0.00 592.00 61.00" xmlns="http://www.w3.org/2000/svg" xmlns:xlink="http://www.w3.org/1999/xlink">
<g id="graph0" class="graph" transform="scale(1 1) rotate(0) translate(4 57)">
<title>fr_network_channel_callback</title>
<!-- Node717 -->
<g id="node1" class="node">
<title>Node717</title>
<polygon fill="#bfbfbf" stroke="#000000" points="0,-.5 0,-30.5 101,-30.5 101,-.5 0,-.5"/>
<text text-anchor="start" x="8" y="-18.5" font-family="Helvetica,sans-Serif" font-size="10.00" fill="#000000">fr_network_channel</text>
<text text-anchor="middle" x="50.5" y="-7.5" font-family="Helvetica,sans-Serif" font-size="10.00" fill="#000000">_callback</text>
</g>
<!-- Node718 -->
<g id="node2" class="node">
<title>Node718</title>
<g id="a_node2"><a xlink:href="network_8h.html#a2a19bee40a8ba8b1bd6823444a18e067" target="_top" xlink:title="Create a network. ">
<polygon fill="none" stroke="#000000" points="137,-6 137,-25 232,-25 232,-6 137,-6"/>
<text text-anchor="middle" x="184.5" y="-13" font-family="Helvetica,sans-Serif" font-size="10.00" fill="#000000">fr_network_create</text>
</a>
</g>
</g>
<!-- Node717&#45;&gt;Node718 -->
<g id="edge1" class="edge">
<title>Node717&#45;&gt;Node718</title>
<path fill="none" stroke="#191970" d="M111.1738,-15.5C119.7888,-15.5 128.5446,-15.5 136.8646,-15.5"/>
<polygon fill="#191970" stroke="#191970" points="111.1597,-12.0001 101.1597,-15.5 111.1596,-19.0001 111.1597,-12.0001"/>
</g>
<!-- Node719 -->
<g id="node3" class="node">
<title>Node719</title>
<g id="a_node3"><a xlink:href="schedule_8c.html#ab04866d2458f55a7a949e10e59b5f28c" target="_top" xlink:title="Initialize and run the network thread. ">
<polygon fill="none" stroke="#000000" points="268,-22.5 268,-52.5 375,-52.5 375,-22.5 268,-22.5"/>
<text text-anchor="start" x="276" y="-40.5" font-family="Helvetica,sans-Serif" font-size="10.00" fill="#000000">fr_schedule_network</text>
<text text-anchor="middle" x="321.5" y="-29.5" font-family="Helvetica,sans-Serif" font-size="10.00" fill="#000000">_thread</text>
</a>
</g>
</g>
<!-- Node718&#45;&gt;Node719 -->
<g id="edge2" class="edge">
<title>Node718&#45;&gt;Node719</title>
<path fill="none" stroke="#191970" d="M241.9893,-24.7319C250.5938,-26.1136 259.4362,-27.5336 267.9544,-28.9014"/>
<polygon fill="#191970" stroke="#191970" points="242.4599,-21.2627 232.0315,-23.1328 241.35,-28.1741 242.4599,-21.2627"/>
</g>
<!-- Node720 -->
<g id="node4" class="node">
<title>Node720</title>
<g id="a_node4"><a xlink:href="schedule_8h.html#ab3af94cba38534d44480a8cc9bb0422c" target="_top" xlink:title="Create a scheduler and spawn the child threads. ">
<polygon fill="none" stroke="#000000" points="411,-6 411,-25 510,-25 510,-6 411,-6"/>
<text text-anchor="middle" x="460.5" y="-13" font-family="Helvetica,sans-Serif" font-size="10.00" fill="#000000">fr_schedule_create</text>
</a>
</g>
</g>
<!-- Node718&#45;&gt;Node720 -->
<g id="edge5" class="edge">
<title>Node718&#45;&gt;Node720</title>
<path fill="none" stroke="#191970" d="M242.2169,-13.9374C250.8582,-13.7557 259.6627,-13.5998 268,-13.5 315.5521,-12.9306 327.4477,-12.9439 375,-13.5 386.5805,-13.6354 399.0415,-13.874 410.7713,-14.1403"/>
<polygon fill="#191970" stroke="#191970" points="242.1051,-10.439 232.1855,-14.1608 242.261,-17.4372 242.1051,-10.439"/>
</g>
<!-- Node719&#45;&gt;Node720 -->
<g id="edge3" class="edge">
<title>Node719&#45;&gt;Node720</title>
<path fill="none" stroke="#191970" d="M385.2864,-27.4043C393.9173,-26.0383 402.6665,-24.6535 410.9968,-23.335"/>
<polygon fill="#191970" stroke="#191970" points="384.5709,-23.9739 375.241,-28.9942 385.6653,-30.8878 384.5709,-23.9739"/>
</g>
<!-- Node721 -->
<g id="node5" class="node">
<title>Node721</title>
<g id="a_node5"><a xlink:href="radiusd_8c.html#a0ddf1224851353fc92bfbff6f499fa97" target="_top" xlink:title="Entry point for the daemon. ">
<polygon fill="none" stroke="#000000" points="546,-6 546,-25 584,-25 584,-6 546,-6"/>
<text text-anchor="middle" x="565" y="-13" font-family="Helvetica,sans-Serif" font-size="10.00" fill="#000000">main</text>
</a>
</g>
</g>
<!-- Node720&#45;&gt;Node721 -->
<g id="edge4" class="edge">
<title>Node720&#45;&gt;Node721</title>
<path fill="none" stroke="#191970" d="M520.3404,-15.5C529.5271,-15.5 538.394,-15.5 545.7722,-15.5"/>
<polygon fill="#191970" stroke="#191970" points="520.3016,-12.0001 510.3016,-15.5 520.3015,-19.0001 520.3016,-12.0001"/>
</g>
</g>
</svg>
