<?xml version="1.0" encoding="UTF-8" standalone="no"?>
<!DOCTYPE svg PUBLIC "-//W3C//DTD SVG 1.1//EN"
 "http://www.w3.org/Graphics/SVG/1.1/DTD/svg11.dtd">
<!-- Generated by graphviz version 2.40.1 (20161225.0304)
 -->
<!-- Title: paircmp_init Pages: 1 -->
<!--zoomable 588 -->
<svg id="main" version="1.1" xmlns="http://www.w3.org/2000/svg" xmlns:xlink="http://www.w3.org/1999/xlink" xml:space="preserve" onload="init(evt)">
<style type="text/css"><![CDATA[
.edge:hover path { stroke: red; }
.edge:hover polygon { stroke: red; fill: red; }
]]></style>
<script type="text/javascript"><![CDATA[
var edges = document.getElementsByTagName('g');
if (edges && edges.length) {
  for (var i=0;i<edges.length;i++) {
    if (edges[i].id.substr(0,4)=='edge') {
      edges[i].setAttribute('class','edge');
    }
  }
}
]]></script>
        <defs>
                <circle id="rim" cx="0" cy="0" r="7"/>
                <circle id="rim2" cx="0" cy="0" r="3.5"/>
                <g id="zoomPlus">
                        <use xlink:href="#rim" fill="#404040">
                                <set attributeName="fill" to="#808080" begin="zoomplus.mouseover" end="zoomplus.mouseout"/>
                        </use>
                        <path d="M-4,0h8M0,-4v8" fill="none" stroke="white" stroke-width="1.5" pointer-events="none"/>
                </g>
                <g id="zoomMin">
                        <use xlink:href="#rim" fill="#404040">
                                <set attributeName="fill" to="#808080" begin="zoomminus.mouseover" end="zoomminus.mouseout"/>
                        </use>
                        <path d="M-4,0h8" fill="none" stroke="white" stroke-width="1.5" pointer-events="none"/>
                </g>
                <g id="dirArrow">
                        <path fill="none" stroke="white" stroke-width="1.5" d="M0,-3.0v7 M-2.5,-0.5L0,-3.0L2.5,-0.5"/>
                </g>
               <g id="resetDef">
                       <use xlink:href="#rim2" fill="#404040">
                               <set attributeName="fill" to="#808080" begin="reset.mouseover" end="reset.mouseout"/>
                       </use>
               </g>
        </defs>

<script type="text/javascript">
var viewWidth = 1301;
var viewHeight = 588;
var sectionId = 'dynsection-3';
</script>
<script xlink:href="svgpan.js"/>
<svg id="graph" class="graph">
<g id="viewport">
<title>paircmp_init</title>
<!-- Node1792 -->
<g id="node1" class="node">
<title>Node1792</title>
<polygon fill="#bfbfbf" stroke="#000000" points="0,-152.5 0,-171.5 69,-171.5 69,-152.5 0,-152.5"/>
<text text-anchor="middle" x="34.5" y="-159.5" font-family="Helvetica,sans-Serif" font-size="10.00" fill="#000000">paircmp_init</text>
</g>
<!-- Node1793 -->
<g id="node2" class="node">
<title>Node1793</title>
<g id="a_node2"><a xlink:href="dict_8h.html#a10a10d51e32b7c32cd3226eb3a20c5e3" target="_top" xlink:title="Process a dict_autoload element to load a protocol. ">
<polygon fill="none" stroke="#000000" points="388.5,-456.5 388.5,-475.5 474.5,-475.5 474.5,-456.5 388.5,-456.5"/>
<text text-anchor="middle" x="431.5" y="-463.5" font-family="Helvetica,sans-Serif" font-size="10.00" fill="#000000">fr_dict_autoload</text>
</a>
</g>
</g>
<!-- Node1792&#45;&gt;Node1793 -->
<g id="edge1" class="edge">
<title>Node1792&#45;&gt;Node1793</title>
<path fill="none" stroke="#191970" d="M35.244,-171.6195C38.1556,-202.8562 51.4241,-302.6742 105,-359 177.784,-435.5197 306.0536,-457.3767 378.2533,-463.5802"/>
<polygon fill="#191970" stroke="#191970" points="378.2415,-467.09 388.4856,-464.3865 378.7915,-460.1117 378.2415,-467.09"/>
</g>
<!-- Node1972 -->
<g id="node16" class="node">
<title>Node1972</title>
<g id="a_node16"><a xlink:href="dict_8h.html#a9f3bf5c0208b67be69551a3f2ac6b0e6" target="_top" xlink:title="Process a dict_attr_autoload element to load/verify a dictionary attribute. ">
<polygon fill="none" stroke="#ff0000" points="379,-399.5 379,-418.5 484,-418.5 484,-399.5 379,-399.5"/>
<text text-anchor="middle" x="431.5" y="-406.5" font-family="Helvetica,sans-Serif" font-size="10.00" fill="#000000">fr_dict_attr_autoload</text>
</a>
</g>
</g>
<!-- Node1792&#45;&gt;Node1972 -->
<g id="edge25" class="edge">
<title>Node1792&#45;&gt;Node1972</title>
<path fill="none" stroke="#191970" d="M36.807,-171.6783C43.3961,-197.5657 64.4859,-269.4533 105,-314 150.0303,-363.5125 171.3189,-369.4106 235,-390 278.258,-403.9862 329.444,-408.5796 368.7283,-409.759"/>
<polygon fill="#191970" stroke="#191970" points="368.8816,-413.2634 378.9605,-409.9976 369.0449,-406.2653 368.8816,-413.2634"/>
</g>
<!-- Node1975 -->
<g id="node17" class="node">
<title>Node1975</title>
<g id="a_node17"><a xlink:href="dict_8h.html#af02d9b5797d2d60942a51ed08952afd2" target="_top" xlink:title="Decrement the reference count on a previously loaded dictionary. ">
<polygon fill="none" stroke="#ff0000" points="110,-114.5 110,-133.5 194,-133.5 194,-114.5 110,-114.5"/>
<text text-anchor="middle" x="152" y="-121.5" font-family="Helvetica,sans-Serif" font-size="10.00" fill="#000000">fr_dict_autofree</text>
</a>
</g>
</g>
<!-- Node1792&#45;&gt;Node1975 -->
<g id="edge27" class="edge">
<title>Node1792&#45;&gt;Node1975</title>
<path fill="none" stroke="#191970" d="M64.1502,-152.411C78.9009,-147.6406 96.9258,-141.8112 112.801,-136.6771"/>
<polygon fill="#191970" stroke="#191970" points="113.9215,-139.9933 122.3593,-133.5859 111.7675,-133.333 113.9215,-139.9933"/>
</g>
<!-- Node2419 -->
<g id="node18" class="node">
<title>Node2419</title>
<g id="a_node18"><a xlink:href="paircmp_8c.html#acd1963a1a7b3df2149c8ff89c0078e81" target="_top" xlink:title="Register a function as compare function. ">
<polygon fill="none" stroke="#000000" points="107.5,-76.5 107.5,-95.5 196.5,-95.5 196.5,-76.5 107.5,-76.5"/>
<text text-anchor="middle" x="152" y="-83.5" font-family="Helvetica,sans-Serif" font-size="10.00" fill="#000000">paircmp_register</text>
</a>
</g>
</g>
<!-- Node1792&#45;&gt;Node2419 -->
<g id="edge28" class="edge">
<title>Node1792&#45;&gt;Node2419</title>
<path fill="none" stroke="#191970" d="M44.3016,-152.4782C57.3112,-140.2329 81.3987,-118.8931 105,-105 108.2235,-103.1025 111.6721,-101.3113 115.1821,-99.6435"/>
<polygon fill="#191970" stroke="#191970" points="116.7697,-102.7686 124.5048,-95.5285 113.943,-96.3647 116.7697,-102.7686"/>
</g>
<!-- Node2421 -->
<g id="node20" class="node">
<title>Node2421</title>
<g id="a_node20"><a xlink:href="paircmp_8c.html#ab75bca2e8e1f43fe36328514fc11d037" target="_top" xlink:title="prefix_suffix_cmp">
<polygon fill="none" stroke="#000000" points="105,-152.5 105,-171.5 199,-171.5 199,-152.5 105,-152.5"/>
<text text-anchor="middle" x="152" y="-159.5" font-family="Helvetica,sans-Serif" font-size="10.00" fill="#000000">prefix_suffix_cmp</text>
</a>
</g>
</g>
<!-- Node1792&#45;&gt;Node2421 -->
<g id="edge30" class="edge">
<title>Node1792&#45;&gt;Node2421</title>
<path fill="none" stroke="#191970" d="M69.1184,-162C77.0979,-162 85.7962,-162 94.4595,-162"/>
<polygon fill="#191970" stroke="#191970" points="94.5681,-165.5001 104.5681,-162 94.5681,-158.5001 94.5681,-165.5001"/>
</g>
<!-- Node2422 -->
<g id="node26" class="node">
<title>Node2422</title>
<g id="a_node26"><a xlink:href="paircmp_8c.html#af33341822cd3ad241bbc3ee663a6a9c0" target="_top" xlink:title="packet_cmp">
<polygon fill="none" stroke="#000000" points="117,-38.5 117,-57.5 187,-57.5 187,-38.5 117,-38.5"/>
<text text-anchor="middle" x="152" y="-45.5" font-family="Helvetica,sans-Serif" font-size="10.00" fill="#000000">packet_cmp</text>
</a>
</g>
</g>
<!-- Node1792&#45;&gt;Node2422 -->
<g id="edge37" class="edge">
<title>Node1792&#45;&gt;Node2422</title>
<path fill="none" stroke="#191970" d="M39.3563,-152.2715C49.2462,-133.3631 73.4808,-91.3749 105,-67 107.2845,-65.2333 109.7555,-63.6074 112.3277,-62.1152"/>
<polygon fill="#191970" stroke="#191970" points="114.0024,-65.1903 121.3387,-57.5464 110.8368,-58.9469 114.0024,-65.1903"/>
</g>
<!-- Node2423 -->
<g id="node27" class="node">
<title>Node2423</title>
<g id="a_node27"><a xlink:href="paircmp_8c.html#a9b87e6a643c42816e54e908c63c48625" target="_top" xlink:title="generic_cmp">
<polygon fill="none" stroke="#000000" points="116,-285.5 116,-304.5 188,-304.5 188,-285.5 116,-285.5"/>
<text text-anchor="middle" x="152" y="-292.5" font-family="Helvetica,sans-Serif" font-size="10.00" fill="#000000">generic_cmp</text>
</a>
</g>
</g>
<!-- Node1792&#45;&gt;Node2423 -->
<g id="edge38" class="edge">
<title>Node1792&#45;&gt;Node2423</title>
<path fill="none" stroke="#191970" d="M42.9503,-171.565C62.5864,-193.7914 111.5269,-249.1879 136.6249,-277.5967"/>
<polygon fill="#191970" stroke="#191970" points="134.0653,-279.9858 143.3092,-285.1628 139.3113,-275.3512 134.0653,-279.9858"/>
</g>
<!-- Node1794 -->
<g id="node3" class="node">
<title>Node1794</title>
<g id="a_node3"><a xlink:href="strerror_8c.html#ae701765650b8aea79a3037bc4921d7f8" target="_top" xlink:title="Log to thread local error buffer. ">
<polygon fill="none" stroke="#000000" points="691,-380.5 691,-399.5 777,-399.5 777,-380.5 691,-380.5"/>
<text text-anchor="middle" x="734" y="-387.5" font-family="Helvetica,sans-Serif" font-size="10.00" fill="#000000">fr_strerror_printf</text>
</a>
</g>
</g>
<!-- Node1793&#45;&gt;Node1794 -->
<g id="edge2" class="edge">
<title>Node1793&#45;&gt;Node1794</title>
<path fill="none" stroke="#191970" d="M455.3838,-475.5235C497.823,-490.8686 588.1881,-516.3352 655,-485 688.4962,-469.29 712.717,-431.6263 724.956,-408.722"/>
<polygon fill="#191970" stroke="#191970" points="728.1618,-410.14 729.5936,-399.6424 721.9279,-406.9559 728.1618,-410.14"/>
</g>
<!-- Node2332 -->
<g id="node14" class="node">
<title>Node2332</title>
<g id="a_node14"><a xlink:href="dict_8h.html#ad922c3b43868cfa7051c93ac4100356e" target="_top" xlink:title="(Re&#45;)Initialize the special internal dictionary ">
<polygon fill="none" stroke="#ff0000" points="525.5,-456.5 525.5,-475.5 653.5,-475.5 653.5,-456.5 525.5,-456.5"/>
<text text-anchor="middle" x="589.5" y="-463.5" font-family="Helvetica,sans-Serif" font-size="10.00" fill="#000000">fr_dict_internal_afrom_file</text>
</a>
</g>
</g>
<!-- Node1793&#45;&gt;Node2332 -->
<g id="edge21" class="edge">
<title>Node1793&#45;&gt;Node2332</title>
<path fill="none" stroke="#191970" d="M474.6742,-466C487.2467,-466 501.3551,-466 515.2657,-466"/>
<polygon fill="#191970" stroke="#191970" points="515.3351,-469.5001 525.335,-466 515.335,-462.5001 515.3351,-469.5001"/>
</g>
<!-- Node2333 -->
<g id="node15" class="node">
<title>Node2333</title>
<g id="a_node15"><a xlink:href="dict_8h.html#a43b6813c34c672a0f1330af386e2064c" target="_top" xlink:title="(Re)&#45;initialize a protocol dictionary ">
<polygon fill="none" stroke="#ff0000" points="524,-418.5 524,-437.5 655,-437.5 655,-418.5 524,-418.5"/>
<text text-anchor="middle" x="589.5" y="-425.5" font-family="Helvetica,sans-Serif" font-size="10.00" fill="#000000">fr_dict_protocol_afrom_file</text>
</a>
</g>
</g>
<!-- Node1793&#45;&gt;Node2333 -->
<g id="edge23" class="edge">
<title>Node1793&#45;&gt;Node2333</title>
<path fill="none" stroke="#191970" d="M471.3701,-456.411C492.2199,-451.3965 517.9346,-445.2119 540.0429,-439.8947"/>
<polygon fill="#191970" stroke="#191970" points="541.0123,-443.2615 549.9166,-437.5201 539.3754,-436.4555 541.0123,-443.2615"/>
</g>
<!-- Node1795 -->
<g id="node4" class="node">
<title>Node1795</title>
<g id="a_node4"><a xlink:href="acutest_8h.html#aecf9a9be8105efb1454cd8c1ef6cb1c5" target="_top" xlink:title="va_start">
<polygon fill="none" stroke="#000000" points="1224.5,-532.5 1224.5,-551.5 1276.5,-551.5 1276.5,-532.5 1224.5,-532.5"/>
<text text-anchor="middle" x="1250.5" y="-539.5" font-family="Helvetica,sans-Serif" font-size="10.00" fill="#000000">va_start</text>
</a>
</g>
</g>
<!-- Node1794&#45;&gt;Node1795 -->
<g id="edge3" class="edge">
<title>Node1794&#45;&gt;Node1795</title>
<path fill="none" stroke="#191970" d="M743.4639,-399.6147C757.5732,-413.53 785.4287,-439.4263 813,-456 919.1043,-519.7816 949.5054,-537.2241 1071,-561 1115.0533,-569.621 1127.4272,-566.3174 1172,-561 1186.0908,-559.319 1201.3088,-555.9977 1214.5607,-552.5958"/>
<polygon fill="#191970" stroke="#191970" points="1215.5023,-555.9671 1224.26,-550.0044 1213.6954,-549.2043 1215.5023,-555.9671"/>
</g>
<!-- Node1796 -->
<g id="node5" class="node">
<title>Node1796</title>
<g id="a_node5"><a xlink:href="strerror_8c.html#a193b1e0b3712e3bbee338812c06af482" target="_top" xlink:title="fr_strerror_vprintf">
<polygon fill="none" stroke="#000000" points="813,-380.5 813,-399.5 904,-399.5 904,-380.5 813,-380.5"/>
<text text-anchor="middle" x="858.5" y="-387.5" font-family="Helvetica,sans-Serif" font-size="10.00" fill="#000000">fr_strerror_vprintf</text>
</a>
</g>
</g>
<!-- Node1794&#45;&gt;Node1796 -->
<g id="edge4" class="edge">
<title>Node1794&#45;&gt;Node1796</title>
<path fill="none" stroke="#191970" d="M777.1947,-390C785.3832,-390 794.0586,-390 802.5745,-390"/>
<polygon fill="#191970" stroke="#191970" points="802.8395,-393.5001 812.8395,-390 802.8394,-386.5001 802.8395,-393.5001"/>
</g>
<!-- Node1799 -->
<g id="node8" class="node">
<title>Node1799</title>
<g id="a_node8"><a xlink:href="acutest_8h.html#a36af1f79dd6adf0809c21e76535034d5" target="_top" xlink:title="va_end">
<polygon fill="none" stroke="#000000" points="1226.5,-456.5 1226.5,-475.5 1274.5,-475.5 1274.5,-456.5 1226.5,-456.5"/>
<text text-anchor="middle" x="1250.5" y="-463.5" font-family="Helvetica,sans-Serif" font-size="10.00" fill="#000000">va_end</text>
</a>
</g>
</g>
<!-- Node1794&#45;&gt;Node1799 -->
<g id="edge20" class="edge">
<title>Node1794&#45;&gt;Node1799</title>
<path fill="none" stroke="#191970" d="M753.6212,-399.5886C789.62,-416.7298 869.0461,-452.4697 940,-470 996.892,-484.0561 1012.4925,-481.6612 1071,-485 1115.816,-487.5574 1127.4272,-490.3174 1172,-485 1186.7565,-483.2396 1202.7492,-479.6803 1216.4254,-476.1133"/>
<polygon fill="#191970" stroke="#191970" points="1217.639,-479.4106 1226.3732,-473.4137 1215.8056,-472.6549 1217.639,-479.4106"/>
</g>
<!-- Node1797 -->
<g id="node6" class="node">
<title>Node1797</title>
<g id="a_node6"><a xlink:href="strerror_8c.html#a42c2cc9f76fb9dac723a1903c181e1c7" target="_top" xlink:title="Initialise thread local storage. ">
<polygon fill="none" stroke="#ff0000" points="949,-380.5 949,-399.5 1026,-399.5 1026,-380.5 949,-380.5"/>
<text text-anchor="middle" x="987.5" y="-387.5" font-family="Helvetica,sans-Serif" font-size="10.00" fill="#000000">fr_strerror_init</text>
</a>
</g>
</g>
<!-- Node1796&#45;&gt;Node1797 -->
<g id="edge5" class="edge">
<title>Node1796&#45;&gt;Node1797</title>
<path fill="none" stroke="#191970" d="M904.3438,-390C915.4329,-390 927.3269,-390 938.5526,-390"/>
<polygon fill="#191970" stroke="#191970" points="938.6318,-393.5001 948.6317,-390 938.6317,-386.5001 938.6318,-393.5001"/>
</g>
<!-- Node1798 -->
<g id="node7" class="node">
<title>Node1798</title>
<g id="a_node7"><a xlink:href="strerror_8c.html#a2c8e65d6d4b73fb705cc023f60acb099" target="_top" xlink:title="Print the current error to stderr with a prefix. ">
<polygon fill="none" stroke="#ff0000" points="1095,-456.5 1095,-475.5 1148,-475.5 1148,-456.5 1095,-456.5"/>
<text text-anchor="middle" x="1121.5" y="-463.5" font-family="Helvetica,sans-Serif" font-size="10.00" fill="#000000">fr_perror</text>
</a>
</g>
</g>
<!-- Node1796&#45;&gt;Node1798 -->
<g id="edge11" class="edge">
<title>Node1796&#45;&gt;Node1798</title>
<path fill="none" stroke="#191970" d="M868.5685,-399.6564C883.0522,-412.8924 911.2068,-436.2506 940,-447 987.5462,-464.7506 1046.6547,-467.7262 1084.2394,-467.4671"/>
<polygon fill="#191970" stroke="#191970" points="1084.7634,-470.9596 1094.7086,-467.307 1084.6562,-463.9604 1084.7634,-470.9596"/>
</g>
<!-- Node1796&#45;&gt;Node1799 -->
<g id="edge18" class="edge">
<title>Node1796&#45;&gt;Node1799</title>
<path fill="none" stroke="#191970" d="M891.0128,-380.4485C926.6591,-371.3754 985.3907,-360.5504 1035,-371 1044.6917,-373.0414 1163.1987,-426.4302 1220.2235,-452.2578"/>
<polygon fill="#191970" stroke="#191970" points="1218.917,-455.5083 1229.4701,-456.4483 1221.8065,-449.1325 1218.917,-455.5083"/>
</g>
<!-- Node1805 -->
<g id="node9" class="node">
<title>Node1805</title>
<g id="a_node9"><a xlink:href="strerror_8c.html#a9d878c1ddb1b385cdaf6523fff68529c" target="_top" xlink:title="Reset cursor state. ">
<polygon fill="none" stroke="#000000" points="1208,-304.5 1208,-323.5 1293,-323.5 1293,-304.5 1208,-304.5"/>
<text text-anchor="middle" x="1250.5" y="-311.5" font-family="Helvetica,sans-Serif" font-size="10.00" fill="#000000">fr_strerror_clear</text>
</a>
</g>
</g>
<!-- Node1796&#45;&gt;Node1805 -->
<g id="edge10" class="edge">
<title>Node1796&#45;&gt;Node1805</title>
<path fill="none" stroke="#191970" d="M869.4477,-380.4729C884.2864,-368.1911 912.1425,-347.31 940,-338 1026.8278,-308.9822 1134.6329,-307.8509 1197.6805,-310.4113"/>
<polygon fill="#191970" stroke="#191970" points="1197.6344,-313.9127 1207.7826,-310.8691 1197.9513,-306.9199 1197.6344,-313.9127"/>
</g>
<!-- Node1806 -->
<g id="node10" class="node">
<title>Node1806</title>
<g id="a_node10"><a xlink:href="print_8c.html#a27ae94b5a4c77de49aa2f387765a4d58" target="_top" xlink:title="Special version of vasprintf which implements custom format specifiers. ">
<polygon fill="none" stroke="#ff0000" points="955,-266.5 955,-285.5 1020,-285.5 1020,-266.5 955,-266.5"/>
<text text-anchor="middle" x="987.5" y="-273.5" font-family="Helvetica,sans-Serif" font-size="10.00" fill="#000000">fr_vasprintf</text>
</a>
</g>
</g>
<!-- Node1796&#45;&gt;Node1806 -->
<g id="edge12" class="edge">
<title>Node1796&#45;&gt;Node1806</title>
<path fill="none" stroke="#191970" d="M869.8279,-380.2166C879.3389,-371.7907 893.0838,-359.109 904,-347 921.6182,-327.4566 919.7486,-316.7996 940,-300 944.3555,-296.3868 949.346,-293.1288 954.4182,-290.2627"/>
<polygon fill="#191970" stroke="#191970" points="956.2571,-293.2516 963.517,-285.5351 953.0296,-287.04 956.2571,-293.2516"/>
</g>
<!-- Node1958 -->
<g id="node13" class="node">
<title>Node1958</title>
<g id="a_node13"><a xlink:href="cursor_8c.html#a5d942382660657c3b4cb6e9cb2b12b2c" target="_top" xlink:title="Insert a single item at the start of the list. ">
<polygon fill="none" stroke="#000000" points="940,-418.5 940,-437.5 1035,-437.5 1035,-418.5 940,-418.5"/>
<text text-anchor="middle" x="987.5" y="-425.5" font-family="Helvetica,sans-Serif" font-size="10.00" fill="#000000">fr_cursor_prepend</text>
</a>
</g>
</g>
<!-- Node1796&#45;&gt;Node1958 -->
<g id="edge19" class="edge">
<title>Node1796&#45;&gt;Node1958</title>
<path fill="none" stroke="#191970" d="M891.0521,-399.589C907.3993,-404.4044 927.4092,-410.2988 944.9571,-415.468"/>
<polygon fill="#191970" stroke="#191970" points="944.3768,-418.9457 954.9583,-418.4141 946.3548,-412.2309 944.3768,-418.9457"/>
</g>
<!-- Node1797&#45;&gt;Node1798 -->
<g id="edge6" class="edge">
<title>Node1797&#45;&gt;Node1798</title>
<path fill="none" stroke="#191970" d="M1016.4507,-399.6422C1022.7773,-402.2733 1029.2853,-405.4074 1035,-409 1053.3756,-420.552 1052.9982,-429.8737 1071,-442 1076.3891,-445.6302 1082.4125,-449.0028 1088.3702,-452.0044"/>
<polygon fill="#191970" stroke="#191970" points="1087.0452,-455.2501 1097.5775,-456.3994 1090.0607,-448.9329 1087.0452,-455.2501"/>
</g>
<!-- Node1797&#45;&gt;Node1805 -->
<g id="edge9" class="edge">
<title>Node1797&#45;&gt;Node1805</title>
<path fill="none" stroke="#191970" d="M1020.5428,-380.4515C1067.9795,-366.7436 1155.4126,-341.4777 1207.7281,-326.3599"/>
<polygon fill="#191970" stroke="#191970" points="1208.7502,-329.7079 1217.3855,-323.5692 1206.8069,-322.983 1208.7502,-329.7079"/>
</g>
<!-- Node1798&#45;&gt;Node1795 -->
<g id="edge7" class="edge">
<title>Node1798&#45;&gt;Node1795</title>
<path fill="none" stroke="#191970" d="M1137.8379,-475.6255C1159.9377,-488.6454 1199.5631,-511.9907 1225.4408,-527.2364"/>
<polygon fill="#191970" stroke="#191970" points="1223.9022,-530.3922 1234.2947,-532.4527 1227.4554,-524.361 1223.9022,-530.3922"/>
</g>
<!-- Node1798&#45;&gt;Node1799 -->
<g id="edge8" class="edge">
<title>Node1798&#45;&gt;Node1799</title>
<path fill="none" stroke="#191970" d="M1148.2289,-466C1167.9262,-466 1194.8797,-466 1216.1713,-466"/>
<polygon fill="#191970" stroke="#191970" points="1216.4158,-469.5001 1226.4158,-466 1216.4157,-462.5001 1216.4158,-469.5001"/>
</g>
<!-- Node1806&#45;&gt;Node1794 -->
<g id="edge15" class="edge">
<title>Node1806&#45;&gt;Node1794</title>
<path fill="none" stroke="#191970" d="M966.2047,-285.5766C921.2716,-305.7832 816.6308,-352.8406 764.5599,-376.2571"/>
<polygon fill="#191970" stroke="#191970" points="762.862,-373.183 755.1772,-380.4765 765.733,-379.5671 762.862,-373.183"/>
</g>
<!-- Node1806&#45;&gt;Node1799 -->
<g id="edge14" class="edge">
<title>Node1806&#45;&gt;Node1799</title>
<path fill="none" stroke="#191970" d="M1000.9038,-285.6833C1043.552,-316.4939 1176.3779,-412.4517 1228.8553,-450.3631"/>
<polygon fill="#191970" stroke="#191970" points="1226.9676,-453.3172 1237.1232,-456.3362 1231.0668,-447.643 1226.9676,-453.3172"/>
</g>
<!-- Node1807 -->
<g id="node11" class="node">
<title>Node1807</title>
<g id="a_node11"><a xlink:href="value_8h.html#a878e0abfce7189a1784cdf15bc9fc3a3" target="_top" xlink:title="fr_value_box_aprint">
<polygon fill="none" stroke="#000000" points="1071,-266.5 1071,-285.5 1172,-285.5 1172,-266.5 1071,-266.5"/>
<text text-anchor="middle" x="1121.5" y="-273.5" font-family="Helvetica,sans-Serif" font-size="10.00" fill="#000000">fr_value_box_aprint</text>
</a>
</g>
</g>
<!-- Node1806&#45;&gt;Node1807 -->
<g id="edge13" class="edge">
<title>Node1806&#45;&gt;Node1807</title>
<path fill="none" stroke="#191970" d="M1020.2801,-276C1032.5004,-276 1046.7968,-276 1060.7306,-276"/>
<polygon fill="#191970" stroke="#191970" points="1060.7777,-279.5001 1070.7777,-276 1060.7776,-272.5001 1060.7777,-279.5001"/>
</g>
<!-- Node1909 -->
<g id="node12" class="node">
<title>Node1909</title>
<g id="a_node12"><a xlink:href="strerror_8c.html#a83ee876ee41b1ae672dc4dcda4f02a2e" target="_top" xlink:title="Get the last library error. ">
<polygon fill="none" stroke="#ff0000" points="1092,-228.5 1092,-247.5 1151,-247.5 1151,-228.5 1092,-228.5"/>
<text text-anchor="middle" x="1121.5" y="-235.5" font-family="Helvetica,sans-Serif" font-size="10.00" fill="#000000">fr_strerror</text>
</a>
</g>
</g>
<!-- Node1806&#45;&gt;Node1909 -->
<g id="edge16" class="edge">
<title>Node1806&#45;&gt;Node1909</title>
<path fill="none" stroke="#191970" d="M1020.2801,-266.7042C1038.8865,-261.4277 1062.306,-254.7864 1081.9305,-249.2212"/>
<polygon fill="#191970" stroke="#191970" points="1083.1356,-252.5175 1091.8013,-246.422 1081.2258,-245.7831 1083.1356,-252.5175"/>
</g>
<!-- Node1909&#45;&gt;Node1805 -->
<g id="edge17" class="edge">
<title>Node1909&#45;&gt;Node1805</title>
<path fill="none" stroke="#191970" d="M1150.9314,-247.5554C1157.9959,-250.2593 1165.4019,-253.4471 1172,-257 1193.5694,-268.6144 1215.9701,-285.4318 1231.2943,-297.7902"/>
<polygon fill="#191970" stroke="#191970" points="1229.4899,-300.8374 1239.4394,-304.4784 1233.9321,-295.4275 1229.4899,-300.8374"/>
</g>
<!-- Node2332&#45;&gt;Node1794 -->
<g id="edge22" class="edge">
<title>Node2332&#45;&gt;Node1794</title>
<path fill="none" stroke="#191970" d="M630.4953,-456.4539C638.8038,-453.8738 647.3374,-450.7363 655,-447 677.4464,-436.0552 700.2809,-418.7733 715.5885,-406.1057"/>
<polygon fill="#191970" stroke="#191970" points="717.8917,-408.7417 723.268,-399.6123 713.372,-403.3964 717.8917,-408.7417"/>
</g>
<!-- Node2333&#45;&gt;Node1794 -->
<g id="edge24" class="edge">
<title>Node2333&#45;&gt;Node1794</title>
<path fill="none" stroke="#191970" d="M625.9635,-418.411C644.7741,-413.4642 667.9146,-407.3789 687.9472,-402.1108"/>
<polygon fill="#191970" stroke="#191970" points="689.0177,-405.4483 697.7988,-399.5201 687.2374,-398.6785 689.0177,-405.4483"/>
</g>
<!-- Node1972&#45;&gt;Node1794 -->
<g id="edge26" class="edge">
<title>Node1972&#45;&gt;Node1794</title>
<path fill="none" stroke="#191970" d="M484.1915,-405.6905C539.2141,-402.2345 625.059,-396.8426 680.4132,-393.3658"/>
<polygon fill="#191970" stroke="#191970" points="680.9585,-396.8385 690.7194,-392.7184 680.5197,-389.8523 680.9585,-396.8385"/>
</g>
<!-- Node2420 -->
<g id="node19" class="node">
<title>Node2420</title>
<g id="a_node19"><a xlink:href="paircmp_8c.html#a3c4d1521e6e700bf9a2ebe9b09debc36" target="_top" xlink:title="Unregister comparison function for an attribute. ">
<polygon fill="none" stroke="#000000" points="237.5,-.5 237.5,-19.5 336.5,-19.5 336.5,-.5 237.5,-.5"/>
<text text-anchor="middle" x="287" y="-7.5" font-family="Helvetica,sans-Serif" font-size="10.00" fill="#000000">paircmp_unregister</text>
</a>
</g>
</g>
<!-- Node2419&#45;&gt;Node2420 -->
<g id="edge29" class="edge">
<title>Node2419&#45;&gt;Node2420</title>
<path fill="none" stroke="#191970" d="M181.3287,-76.4072C187.4208,-73.8034 193.6184,-70.6683 199,-67 218.2234,-53.8967 215.5576,-41.7761 235,-29 237.9406,-27.0676 241.1037,-25.2994 244.3653,-23.6878"/>
<polygon fill="#191970" stroke="#191970" points="245.9844,-26.7989 253.7158,-19.5549 243.1544,-20.3965 245.9844,-26.7989"/>
</g>
<!-- Node2295 -->
<g id="node21" class="node">
<title>Node2295</title>
<g id="a_node21"><a xlink:href="pair_8c.html#ac3e6ae214c078ffe6f2648f1c12159ff" target="_top" xlink:title="Find the pair with the matching DAs. ">
<polygon fill="none" stroke="#000000" points="239,-38.5 239,-57.5 335,-57.5 335,-38.5 239,-38.5"/>
<text text-anchor="middle" x="287" y="-45.5" font-family="Helvetica,sans-Serif" font-size="10.00" fill="#000000">fr_pair_find_by_da</text>
</a>
</g>
</g>
<!-- Node2421&#45;&gt;Node2295 -->
<g id="edge31" class="edge">
<title>Node2421&#45;&gt;Node2295</title>
<path fill="none" stroke="#191970" d="M184.6551,-152.3981C189.8393,-149.9024 194.8512,-146.81 199,-143 225.059,-119.0692 209.5257,-96.5523 235,-72 238.8391,-68.2999 243.3515,-65.0968 248.0867,-62.345"/>
<polygon fill="#191970" stroke="#191970" points="250.0465,-65.2734 257.3488,-57.597 246.8532,-59.0442 250.0465,-65.2734"/>
</g>
<!-- Node1901 -->
<g id="node22" class="node">
<title>Node1901</title>
<g id="a_node22"><a xlink:href="strlcpy_8c.html#a59f9599e77ee687b1daaa179f8b9a2f3" target="_top" xlink:title="strlcpy">
<polygon fill="none" stroke="#000000" points="711,-95.5 711,-114.5 757,-114.5 757,-95.5 711,-95.5"/>
<text text-anchor="middle" x="734" y="-102.5" font-family="Helvetica,sans-Serif" font-size="10.00" fill="#000000">strlcpy</text>
</a>
</g>
</g>
<!-- Node2421&#45;&gt;Node1901 -->
<g id="edge32" class="edge">
<title>Node2421&#45;&gt;Node1901</title>
<path fill="none" stroke="#191970" d="M181.3287,-152.4072C187.4208,-149.8034 193.6184,-146.6683 199,-143 218.2234,-129.8967 213.6287,-114.1925 235,-105 397.5577,-35.0788 618.3937,-76.7385 701.0142,-96.4327"/>
<polygon fill="#191970" stroke="#191970" points="700.2968,-99.8603 710.8413,-98.8287 701.955,-93.0595 700.2968,-99.8603"/>
</g>
<!-- Node2156 -->
<g id="node23" class="node">
<title>Node2156</title>
<g id="a_node23"><a xlink:href="pair_8c.html#a2897183dcbc65ef1b54619bd293fd735" target="_top" xlink:title="Dynamically allocate a new attribute and fill in the da field. ">
<polygon fill="none" stroke="#ff0000" points="242.5,-228.5 242.5,-247.5 331.5,-247.5 331.5,-228.5 242.5,-228.5"/>
<text text-anchor="middle" x="287" y="-235.5" font-family="Helvetica,sans-Serif" font-size="10.00" fill="#000000">fr_pair_afrom_da</text>
</a>
</g>
</g>
<!-- Node2421&#45;&gt;Node2156 -->
<g id="edge33" class="edge">
<title>Node2421&#45;&gt;Node2156</title>
<path fill="none" stroke="#191970" d="M163.7708,-171.5078C179.3373,-183.7379 207.9658,-205.0613 235,-219 238.9511,-221.0372 243.1718,-222.9584 247.4357,-224.7391"/>
<polygon fill="#191970" stroke="#191970" points="246.1642,-227.9999 256.7514,-228.4033 248.7265,-221.4857 246.1642,-227.9999"/>
</g>
<!-- Node2167 -->
<g id="node24" class="node">
<title>Node2167</title>
<g id="a_node24"><a xlink:href="pair_8c.html#a7869a79cbea0f296a61340c95a0644ed" target="_top" xlink:title="Add a VP to the end of the list. ">
<polygon fill="none" stroke="#000000" points="254.5,-152.5 254.5,-171.5 319.5,-171.5 319.5,-152.5 254.5,-152.5"/>
<text text-anchor="middle" x="287" y="-159.5" font-family="Helvetica,sans-Serif" font-size="10.00" fill="#000000">fr_pair_add</text>
</a>
</g>
</g>
<!-- Node2421&#45;&gt;Node2167 -->
<g id="edge35" class="edge">
<title>Node2421&#45;&gt;Node2167</title>
<path fill="none" stroke="#191970" d="M199.2164,-162C213.9008,-162 229.997,-162 244.3507,-162"/>
<polygon fill="#191970" stroke="#191970" points="244.4494,-165.5001 254.4493,-162 244.4493,-158.5001 244.4494,-165.5001"/>
</g>
<!-- Node2284 -->
<g id="node25" class="node">
<title>Node2284</title>
<g id="a_node25"><a xlink:href="pair_8c.html#a3bc715c52b2a89a8eafe08a6b01ec53e" target="_top" xlink:title="Copy data into an &quot;string&quot; data type. ">
<polygon fill="none" stroke="#ff0000" points="235,-114.5 235,-133.5 339,-133.5 339,-114.5 235,-114.5"/>
<text text-anchor="middle" x="287" y="-121.5" font-family="Helvetica,sans-Serif" font-size="10.00" fill="#000000">fr_pair_value_strdup</text>
</a>
</g>
</g>
<!-- Node2421&#45;&gt;Node2284 -->
<g id="edge36" class="edge">
<title>Node2421&#45;&gt;Node2284</title>
<path fill="none" stroke="#191970" d="M186.0662,-152.411C203.4135,-147.5281 224.7022,-141.5357 243.2492,-136.315"/>
<polygon fill="#191970" stroke="#191970" points="244.2671,-139.6646 252.9447,-133.5859 242.3704,-132.9265 244.2671,-139.6646"/>
</g>
<!-- Node2156&#45;&gt;Node1794 -->
<g id="edge34" class="edge">
<title>Node2156&#45;&gt;Node1794</title>
<path fill="none" stroke="#191970" d="M317.201,-247.529C380.2533,-267.5293 530.3778,-315.7029 655,-360 669.7945,-365.2587 686.0262,-371.3637 699.9077,-376.6884"/>
<polygon fill="#191970" stroke="#191970" points="698.9564,-380.0727 709.5461,-380.4043 701.4746,-373.5413 698.9564,-380.0727"/>
</g>
<!-- Node2423&#45;&gt;Node2156 -->
<g id="edge51" class="edge">
<title>Node2423&#45;&gt;Node2156</title>
<path fill="none" stroke="#191970" d="M174.596,-285.4595C196.5959,-276.1706 230.2427,-261.9642 254.9925,-251.5143"/>
<polygon fill="#191970" stroke="#191970" points="256.4792,-254.6858 264.3303,-247.5716 253.7564,-248.237 256.4792,-254.6858"/>
</g>
<!-- Node1880 -->
<g id="node28" class="node">
<title>Node1880</title>
<g id="a_node28"><a xlink:href="snprintf_8c.html#a8da10a1735da7051de5c298ca7448eee" target="_top" xlink:title="snprintf">
<polygon fill="none" stroke="#ff0000" points="1097,-532.5 1097,-551.5 1146,-551.5 1146,-532.5 1097,-532.5"/>
<text text-anchor="middle" x="1121.5" y="-539.5" font-family="Helvetica,sans-Serif" font-size="10.00" fill="#000000">snprintf</text>
</a>
</g>
</g>
<!-- Node2423&#45;&gt;Node1880 -->
<g id="edge39" class="edge">
<title>Node2423&#45;&gt;Node1880</title>
<path fill="none" stroke="#191970" d="M155.7588,-304.8103C175.6638,-354.9248 273.8375,-580 431.5,-580 431.5,-580 431.5,-580 734,-580 864.5744,-580 1018.722,-558.3646 1086.5253,-547.744"/>
<polygon fill="#191970" stroke="#191970" points="1087.3205,-551.1617 1096.6491,-546.139 1086.2244,-544.248 1087.3205,-551.1617"/>
</g>
<!-- Node2424 -->
<g id="node29" class="node">
<title>Node2424</title>
<g id="a_node29"><a xlink:href="xlat_8h.html#a52207602ebb6b7727bdb69f95e837f7f" target="_top" xlink:title="xlat_eval">
<polygon fill="none" stroke="#000000" points="259,-190.5 259,-209.5 315,-209.5 315,-190.5 259,-190.5"/>
<text text-anchor="middle" x="287" y="-197.5" font-family="Helvetica,sans-Serif" font-size="10.00" fill="#000000">xlat_eval</text>
</a>
</g>
</g>
<!-- Node2423&#45;&gt;Node2424 -->
<g id="edge42" class="edge">
<title>Node2423&#45;&gt;Node2424</title>
<path fill="none" stroke="#191970" d="M160.2567,-285.2922C174.1991,-269.4374 203.9403,-237.8663 235,-219 239.4553,-216.2938 244.3566,-213.8815 249.3152,-211.76"/>
<polygon fill="#191970" stroke="#191970" points="250.7838,-214.9437 258.8188,-208.0379 248.231,-208.4258 250.7838,-214.9437"/>
</g>
<!-- Node2165 -->
<g id="node33" class="node">
<title>Node2165</title>
<g id="a_node33"><a xlink:href="pair_8c.html#ab9e25c74bb9ef78b83670677679cfcdc" target="_top" xlink:title="Convert string value to native attribute value. ">
<polygon fill="none" stroke="#ff0000" points="375,-342.5 375,-361.5 488,-361.5 488,-342.5 375,-342.5"/>
<text text-anchor="middle" x="431.5" y="-349.5" font-family="Helvetica,sans-Serif" font-size="10.00" fill="#000000">fr_pair_value_from_str</text>
</a>
</g>
</g>
<!-- Node2423&#45;&gt;Node2165 -->
<g id="edge52" class="edge">
<title>Node2423&#45;&gt;Node2165</title>
<path fill="none" stroke="#191970" d="M158.6082,-304.5961C171.1345,-321.829 200.2173,-357.481 235,-371 288.5987,-391.8322 356.346,-377.1964 396.673,-364.6354"/>
<polygon fill="#191970" stroke="#191970" points="397.8775,-367.9243 406.3096,-361.5095 395.7175,-361.2659 397.8775,-367.9243"/>
</g>
<!-- Node2289 -->
<g id="node34" class="node">
<title>Node2289</title>
<g id="a_node34"><a xlink:href="pair_8c.html#aaf1f898e907f736c2b5c0c0e6f721c22" target="_top" xlink:title="Compare two pairs, using the operator from &quot;a&quot;. ">
<polygon fill="none" stroke="#ff0000" points="253,-342.5 253,-361.5 321,-361.5 321,-342.5 253,-342.5"/>
<text text-anchor="middle" x="287" y="-349.5" font-family="Helvetica,sans-Serif" font-size="10.00" fill="#000000">fr_pair_cmp</text>
</a>
</g>
</g>
<!-- Node2423&#45;&gt;Node2289 -->
<g id="edge54" class="edge">
<title>Node2423&#45;&gt;Node2289</title>
<path fill="none" stroke="#191970" d="M171.5964,-304.5031C188.2949,-312.4723 213.0113,-323.9658 235,-333 239.8217,-334.981 244.9342,-336.9754 249.998,-338.8886"/>
<polygon fill="#191970" stroke="#191970" points="248.9933,-342.2489 259.5864,-342.4428 251.4264,-335.6853 248.9933,-342.2489"/>
</g>
<!-- Node2152 -->
<g id="node35" class="node">
<title>Node2152</title>
<g id="a_node35"><a xlink:href="pair_8c.html#acd64c65e4d56248ce8e4dda20ab95aff" target="_top" xlink:title="Free memory used by a valuepair list. ">
<polygon fill="none" stroke="#000000" points="245.5,-304.5 245.5,-323.5 328.5,-323.5 328.5,-304.5 245.5,-304.5"/>
<text text-anchor="middle" x="287" y="-311.5" font-family="Helvetica,sans-Serif" font-size="10.00" fill="#000000">fr_pair_list_free</text>
</a>
</g>
</g>
<!-- Node2423&#45;&gt;Node2152 -->
<g id="edge55" class="edge">
<title>Node2423&#45;&gt;Node2152</title>
<path fill="none" stroke="#191970" d="M188.1775,-300.0917C202.657,-302.1295 219.6074,-304.5151 235.3408,-306.7294"/>
<polygon fill="#191970" stroke="#191970" points="235.0757,-310.2266 245.4659,-308.1545 236.0513,-303.2949 235.0757,-310.2266"/>
</g>
<!-- Node2687 -->
<g id="node36" class="node">
<title>Node2687</title>
<g id="a_node36"><a xlink:href="paircmp_8c.html#a7c8a675fa8bba14087386c0ffdf539fd" target="_top" xlink:title="Compares check and vp by value. ">
<polygon fill="none" stroke="#000000" points="949,-228.5 949,-247.5 1026,-247.5 1026,-228.5 949,-228.5"/>
<text text-anchor="middle" x="987.5" y="-235.5" font-family="Helvetica,sans-Serif" font-size="10.00" fill="#000000">paircmp_pairs</text>
</a>
</g>
</g>
<!-- Node2423&#45;&gt;Node2687 -->
<g id="edge56" class="edge">
<title>Node2423&#45;&gt;Node2687</title>
<path fill="none" stroke="#191970" d="M188.1274,-290.9706C241.3394,-285.3933 343.9547,-276 431.5,-276 431.5,-276 431.5,-276 734,-276 805.8184,-276 887.8297,-260.8987 938.642,-249.7358"/>
<polygon fill="#191970" stroke="#191970" points="939.6904,-253.088 948.6862,-247.491 938.1635,-246.2565 939.6904,-253.088"/>
</g>
<!-- Node1880&#45;&gt;Node1795 -->
<g id="edge40" class="edge">
<title>Node1880&#45;&gt;Node1795</title>
<path fill="none" stroke="#191970" d="M1146.0676,-542C1165.2911,-542 1192.3166,-542 1214.0587,-542"/>
<polygon fill="#191970" stroke="#191970" points="1214.2504,-545.5001 1224.2504,-542 1214.2503,-538.5001 1214.2504,-545.5001"/>
</g>
<!-- Node1880&#45;&gt;Node1799 -->
<g id="edge41" class="edge">
<title>Node1880&#45;&gt;Node1799</title>
<path fill="none" stroke="#191970" d="M1143.4681,-532.3819C1152.4588,-528.235 1162.8728,-523.1577 1172,-518 1191.8684,-506.7726 1213.4113,-492.3269 1228.8941,-481.5115"/>
<polygon fill="#191970" stroke="#191970" points="1231.0983,-484.2399 1237.2514,-475.6149 1227.0627,-478.5202 1231.0983,-484.2399"/>
</g>
<!-- Node2425 -->
<g id="node30" class="node">
<title>Node2425</title>
<g id="a_node30"><a xlink:href="xlat__eval_8c.html#a74d8cf2e6ad59fcfb8b390c1a15d0d79" target="_top" xlink:title="Replace whatever in a string. ">
<polygon fill="none" stroke="#000000" points="401,-152.5 401,-171.5 462,-171.5 462,-152.5 401,-152.5"/>
<text text-anchor="middle" x="431.5" y="-159.5" font-family="Helvetica,sans-Serif" font-size="10.00" fill="#000000">_xlat_eval</text>
</a>
</g>
</g>
<!-- Node2424&#45;&gt;Node2425 -->
<g id="edge43" class="edge">
<title>Node2424&#45;&gt;Node2425</title>
<path fill="none" stroke="#191970" d="M315.2041,-192.583C336.764,-186.9133 366.7857,-179.0183 390.9254,-172.6701"/>
<polygon fill="#191970" stroke="#191970" points="392.0881,-175.9835 400.8691,-170.0552 390.3077,-169.2136 392.0881,-175.9835"/>
</g>
<!-- Node2425&#45;&gt;Node1909 -->
<g id="edge47" class="edge">
<title>Node2425&#45;&gt;Node1909</title>
<path fill="none" stroke="#191970" d="M462.4185,-162C517.1643,-162 634.7422,-162 734,-162 734,-162 734,-162 858.5,-162 946.7998,-162 1045.4525,-202.0272 1092.9262,-223.9843"/>
<polygon fill="#191970" stroke="#191970" points="1091.719,-227.2843 1102.2576,-228.3745 1094.699,-220.9503 1091.719,-227.2843"/>
</g>
<!-- Node2426 -->
<g id="node31" class="node">
<title>Node2426</title>
<g id="a_node31"><a xlink:href="xlat_8h.html#a85829f4364557f22d8e7da7f6f5b826b" target="_top" xlink:title="Tokenize an xlat expansion at runtime. ">
<polygon fill="none" stroke="#ff0000" points="527,-190.5 527,-209.5 652,-209.5 652,-190.5 527,-190.5"/>
<text text-anchor="middle" x="589.5" y="-197.5" font-family="Helvetica,sans-Serif" font-size="10.00" fill="#000000">xlat_tokenize_ephemeral</text>
</a>
</g>
</g>
<!-- Node2425&#45;&gt;Node2426 -->
<g id="edge44" class="edge">
<title>Node2425&#45;&gt;Node2426</title>
<path fill="none" stroke="#191970" d="M462.3391,-169.417C484.3795,-174.7179 514.5076,-181.9638 539.9056,-188.0722"/>
<polygon fill="#191970" stroke="#191970" points="539.1987,-191.502 549.7399,-190.4374 540.8356,-184.696 539.1987,-191.502"/>
</g>
<!-- Node2476 -->
<g id="node32" class="node">
<title>Node2476</title>
<g id="a_node32"><a xlink:href="xlat__eval_8c.html#aeb47743ed8c9d8a878691668b31f622d" target="_top" xlink:title="Replace whatever in a string. ">
<polygon fill="none" stroke="#ff0000" points="537,-114.5 537,-133.5 642,-133.5 642,-114.5 537,-114.5"/>
<text text-anchor="middle" x="589.5" y="-121.5" font-family="Helvetica,sans-Serif" font-size="10.00" fill="#000000">_xlat_eval_compiled</text>
</a>
</g>
</g>
<!-- Node2425&#45;&gt;Node2476 -->
<g id="edge48" class="edge">
<title>Node2425&#45;&gt;Node2476</title>
<path fill="none" stroke="#191970" d="M451.8323,-152.4076C470.7519,-146.1532 499.9561,-138.489 526.6064,-132.5026"/>
<polygon fill="#191970" stroke="#191970" points="527.65,-135.857 536.6686,-130.2968 526.1511,-129.0193 527.65,-135.857"/>
</g>
<!-- Node2426&#45;&gt;Node1794 -->
<g id="edge46" class="edge">
<title>Node2426&#45;&gt;Node1794</title>
<path fill="none" stroke="#191970" d="M630.6769,-209.5806C639.4344,-213.0458 648.1067,-217.7195 655,-224 699.7064,-264.7321 721.5133,-336.1158 729.8266,-370.457"/>
<polygon fill="#191970" stroke="#191970" points="726.4184,-371.2537 732.0635,-380.2194 733.2416,-369.6902 726.4184,-371.2537"/>
</g>
<!-- Node2426&#45;&gt;Node1909 -->
<g id="edge45" class="edge">
<title>Node2426&#45;&gt;Node1909</title>
<path fill="none" stroke="#191970" d="M652.1387,-199.2581C738.6251,-199.0093 899.315,-201.3408 1035,-219 1050.485,-221.0154 1067.2979,-224.4221 1081.9477,-227.799"/>
<polygon fill="#191970" stroke="#191970" points="1081.1634,-231.21 1091.7015,-230.1146 1082.7804,-224.3993 1081.1634,-231.21"/>
</g>
<!-- Node2476&#45;&gt;Node1901 -->
<g id="edge49" class="edge">
<title>Node2476&#45;&gt;Node1901</title>
<path fill="none" stroke="#191970" d="M642.0766,-117.0868C661.5898,-114.5211 683.1754,-111.6828 700.5234,-109.4018"/>
<polygon fill="#191970" stroke="#191970" points="701.2625,-112.8348 710.7209,-108.0609 700.3499,-105.8945 701.2625,-112.8348"/>
</g>
<!-- Node2476&#45;&gt;Node2425 -->
<g id="edge50" class="edge">
<title>Node2476&#45;&gt;Node2425</title>
<path fill="none" stroke="#191970" d="M569.2684,-133.5591C544.949,-141.6076 503.533,-152.0038 472.446,-158.1515"/>
<polygon fill="#191970" stroke="#191970" points="471.5139,-154.7657 462.3391,-160.064 472.8155,-161.6436 471.5139,-154.7657"/>
</g>
<!-- Node2165&#45;&gt;Node1794 -->
<g id="edge53" class="edge">
<title>Node2165&#45;&gt;Node1794</title>
<path fill="none" stroke="#191970" d="M488.0431,-359.1029C543.307,-366.0452 626.7973,-376.5332 680.8638,-383.325"/>
<polygon fill="#191970" stroke="#191970" points="680.577,-386.8164 690.9353,-384.5902 681.4495,-379.871 680.577,-386.8164"/>
</g>
<!-- Node2687&#45;&gt;Node1807 -->
<g id="edge57" class="edge">
<title>Node2687&#45;&gt;Node1807</title>
<path fill="none" stroke="#191970" d="M1021.3139,-247.589C1038.5326,-252.4719 1059.6637,-258.4643 1078.0733,-263.685"/>
<polygon fill="#191970" stroke="#191970" points="1077.1214,-267.053 1087.697,-266.4141 1079.0312,-260.3185 1077.1214,-267.053"/>
</g>
<!-- Node2687&#45;&gt;Node1909 -->
<g id="edge58" class="edge">
<title>Node2687&#45;&gt;Node1909</title>
<path fill="none" stroke="#191970" d="M1026.2584,-238C1043.5411,-238 1063.8927,-238 1081.3367,-238"/>
<polygon fill="#191970" stroke="#191970" points="1081.7689,-241.5001 1091.7689,-238 1081.7688,-234.5001 1081.7689,-241.5001"/>
</g>
</g>
</svg>
        <g id="navigator" transform="translate(0 0)" fill="#404254">
                <rect fill="#f2f5e9" fill-opacity="0.5" stroke="#606060" stroke-width=".5" x="0" y="0" width="60" height="60"/>
                <use id="zoomplus" xlink:href="#zoomPlus" x="17" y="9" onmousedown="handleZoom(evt,'in')"/>
                <use id="zoomminus" xlink:href="#zoomMin" x="42" y="9" onmousedown="handleZoom(evt,'out')"/>
                <use id="reset" xlink:href="#resetDef" x="30" y="36" onmousedown="handleReset()"/>
                <g id="arrowUp" xlink:href="#dirArrow" transform="translate(30 24)" onmousedown="handlePan(0,-1)">
                  <use xlink:href="#rim" fill="#404040">
                        <set attributeName="fill" to="#808080" begin="arrowUp.mouseover" end="arrowUp.mouseout"/>
                  </use>
                  <path fill="none" stroke="white" stroke-width="1.5" d="M0,-3.0v7 M-2.5,-0.5L0,-3.0L2.5,-0.5"/>
                </g>
                <g id="arrowRight" xlink:href="#dirArrow" transform="rotate(90) translate(36 -43)" onmousedown="handlePan(1,0)">
                  <use xlink:href="#rim" fill="#404040">
                        <set attributeName="fill" to="#808080" begin="arrowRight.mouseover" end="arrowRight.mouseout"/>
                  </use>
                  <path fill="none" stroke="white" stroke-width="1.5" d="M0,-3.0v7 M-2.5,-0.5L0,-3.0L2.5,-0.5"/>
                </g>
                <g id="arrowDown" xlink:href="#dirArrow" transform="rotate(180) translate(-30 -48)" onmousedown="handlePan(0,1)">
                  <use xlink:href="#rim" fill="#404040">
                        <set attributeName="fill" to="#808080" begin="arrowDown.mouseover" end="arrowDown.mouseout"/>
                  </use>
                  <path fill="none" stroke="white" stroke-width="1.5" d="M0,-3.0v7 M-2.5,-0.5L0,-3.0L2.5,-0.5"/>
                </g>
                <g id="arrowLeft" xlink:href="#dirArrow" transform="rotate(270) translate(-36 17)" onmousedown="handlePan(-1,0)">
                  <use xlink:href="#rim" fill="#404040">
                        <set attributeName="fill" to="#808080" begin="arrowLeft.mouseover" end="arrowLeft.mouseout"/>
                  </use>
                  <path fill="none" stroke="white" stroke-width="1.5" d="M0,-3.0v7 M-2.5,-0.5L0,-3.0L2.5,-0.5"/>
                </g>
        </g>
        <svg viewBox="0 0 15 15" width="100%" height="30px" preserveAspectRatio="xMaxYMin meet">
         <g id="arrow_out" transform="scale(0.3 0.3)">
          <a xlink:href="paircmp_8h_a7de8d5b0b6b041d844451da9cd2c67b6_cgraph_org.svg" target="_base">
           <rect id="button" ry="5" rx="5" y="6" x="6" height="38" width="38"
                fill="#f2f5e9" fill-opacity="0.5" stroke="#606060" stroke-width="1.0"/>
           <path id="arrow"
             d="M 11.500037,31.436501 C 11.940474,20.09759 22.043105,11.32322 32.158766,21.979434 L 37.068811,17.246167 C 37.068811,17.246167 37.088388,32 37.088388,32 L 22.160133,31.978069 C 22.160133,31.978069 26.997745,27.140456 26.997745,27.140456 C 18.528582,18.264221 13.291696,25.230495 11.500037,31.436501 z"
             style="fill:#404040;"/>
          </a>
         </g>
        </svg>
</svg>
