<?xml version="1.0" encoding="UTF-8" standalone="no"?>
<!DOCTYPE svg PUBLIC "-//W3C//DTD SVG 1.1//EN"
 "http://www.w3.org/Graphics/SVG/1.1/DTD/svg11.dtd">
<!-- Generated by graphviz version 2.40.1 (20161225.0304)
 -->
<!-- Title: fr_redis_command_get_result Pages: 1 -->
<svg width="420pt" height="39pt"
 viewBox="0.00 0.00 420.00 39.00" xmlns="http://www.w3.org/2000/svg" xmlns:xlink="http://www.w3.org/1999/xlink">
<g id="graph0" class="graph" transform="scale(1 1) rotate(0) translate(4 35)">
<title>fr_redis_command_get_result</title>
<!-- Node742 -->
<g id="node1" class="node">
<title>Node742</title>
<polygon fill="#bfbfbf" stroke="#000000" points="0,-.5 0,-30.5 116,-30.5 116,-.5 0,-.5"/>
<text text-anchor="start" x="8" y="-18.5" font-family="Helvetica,sans-Serif" font-size="10.00" fill="#000000">fr_redis_command_get</text>
<text text-anchor="middle" x="58" y="-7.5" font-family="Helvetica,sans-Serif" font-size="10.00" fill="#000000">_result</text>
</g>
<!-- Node743 -->
<g id="node2" class="node">
<title>Node743</title>
<g id="a_node2"><a xlink:href="test_8c.html#aeef12408a134fd6c19c7c7ce952ba127" target="_top" xlink:title="_command_complete">
<polygon fill="none" stroke="#000000" points="152,-6 152,-25 262,-25 262,-6 152,-6"/>
<text text-anchor="middle" x="207" y="-13" font-family="Helvetica,sans-Serif" font-size="10.00" fill="#000000">_command_complete</text>
</a>
</g>
</g>
<!-- Node742&#45;&gt;Node743 -->
<g id="edge1" class="edge">
<title>Node742&#45;&gt;Node743</title>
<path fill="none" stroke="#191970" d="M126.071,-15.5C134.69,-15.5 143.4247,-15.5 151.809,-15.5"/>
<polygon fill="#191970" stroke="#191970" points="126.034,-12.0001 116.0339,-15.5 126.0339,-19.0001 126.034,-12.0001"/>
</g>
<!-- Node744 -->
<g id="node3" class="node">
<title>Node744</title>
<g id="a_node3"><a xlink:href="test_8c.html#af02aad6a262dcba6ad282c5042db5828" target="_top" xlink:title="test_basic_connection">
<polygon fill="none" stroke="#000000" points="298,-6 298,-25 412,-25 412,-6 298,-6"/>
<text text-anchor="middle" x="355" y="-13" font-family="Helvetica,sans-Serif" font-size="10.00" fill="#000000">test_basic_connection</text>
</a>
</g>
</g>
<!-- Node743&#45;&gt;Node744 -->
<g id="edge2" class="edge">
<title>Node743&#45;&gt;Node744</title>
<path fill="none" stroke="#191970" d="M272.3677,-15.5C280.8651,-15.5 289.5165,-15.5 297.8654,-15.5"/>
<polygon fill="#191970" stroke="#191970" points="272.1098,-12.0001 262.1097,-15.5 272.1097,-19.0001 272.1098,-12.0001"/>
</g>
</g>
</svg>
