<?xml version="1.0" encoding="UTF-8" standalone="no"?>
<!DOCTYPE svg PUBLIC "-//W3C//DTD SVG 1.1//EN"
 "http://www.w3.org/Graphics/SVG/1.1/DTD/svg11.dtd">
<!-- Generated by graphviz version 2.40.1 (20161225.0304)
 -->
<!-- Title: fr_pool_enable_triggers Pages: 1 -->
<svg width="1002pt" height="183pt"
 viewBox="0.00 0.00 1002.00 183.00" xmlns="http://www.w3.org/2000/svg" xmlns:xlink="http://www.w3.org/1999/xlink">
<g id="graph0" class="graph" transform="scale(1 1) rotate(0) translate(4 179)">
<title>fr_pool_enable_triggers</title>
<!-- Node3946 -->
<g id="node1" class="node">
<title>Node3946</title>
<polygon fill="#bfbfbf" stroke="#000000" points="0,-57.5 0,-76.5 117,-76.5 117,-57.5 0,-57.5"/>
<text text-anchor="middle" x="58.5" y="-64.5" font-family="Helvetica,sans-Serif" font-size="10.00" fill="#000000">fr_pool_enable_triggers</text>
</g>
<!-- Node3947 -->
<g id="node2" class="node">
<title>Node3947</title>
<g id="a_node2"><a xlink:href="cluster_8c.html#a8e311d208f7ff97416b2b4d4f172e859" target="_top" xlink:title="Reconnect callback to apply new pool config. ">
<polygon fill="none" stroke="#000000" points="173.5,-115 173.5,-145 274.5,-145 274.5,-115 173.5,-115"/>
<text text-anchor="start" x="181.5" y="-133" font-family="Helvetica,sans-Serif" font-size="10.00" fill="#000000">_cluster_node_conf</text>
<text text-anchor="middle" x="224" y="-122" font-family="Helvetica,sans-Serif" font-size="10.00" fill="#000000">_apply</text>
</a>
</g>
</g>
<!-- Node3946&#45;&gt;Node3947 -->
<g id="edge1" class="edge">
<title>Node3946&#45;&gt;Node3947</title>
<path fill="none" stroke="#191970" d="M93.307,-80.2498C119.9365,-90.3867 156.6781,-104.3729 184.4244,-114.935"/>
<polygon fill="#191970" stroke="#191970" points="94.2268,-76.855 83.6359,-76.5683 91.7365,-83.397 94.2268,-76.855"/>
</g>
<!-- Node3948 -->
<g id="node3" class="node">
<title>Node3948</title>
<g id="a_node3"><a xlink:href="cluster_8c.html#a2c73b18c41ba2a09719df3a9b7d66c2e" target="_top" xlink:title="Establish a connection to a cluster node. ">
<polygon fill="none" stroke="#000000" points="331,-98.5 331,-117.5 443,-117.5 443,-98.5 331,-98.5"/>
<text text-anchor="middle" x="387" y="-105.5" font-family="Helvetica,sans-Serif" font-size="10.00" fill="#000000">cluster_node_connect</text>
</a>
</g>
</g>
<!-- Node3946&#45;&gt;Node3948 -->
<g id="edge16" class="edge">
<title>Node3946&#45;&gt;Node3948</title>
<path fill="none" stroke="#191970" d="M127.4467,-75.6052C187.9059,-83.1511 274.7054,-93.9845 330.972,-101.0072"/>
<polygon fill="#191970" stroke="#191970" points="127.5857,-72.0955 117.2292,-74.33 126.7187,-79.0416 127.5857,-72.0955"/>
</g>
<!-- Node3985 -->
<g id="node13" class="node">
<title>Node3985</title>
<g id="a_node13"><a xlink:href="server_2module_8h.html#a78ab49b290182824aa6d8020bb2ee1f6" target="_top" xlink:title="Initialise a module specific connection pool. ">
<polygon fill="none" stroke="#000000" points="153,-38.5 153,-57.5 295,-57.5 295,-38.5 153,-38.5"/>
<text text-anchor="middle" x="224" y="-45.5" font-family="Helvetica,sans-Serif" font-size="10.00" fill="#000000">module_connection_pool_init</text>
</a>
</g>
</g>
<!-- Node3946&#45;&gt;Node3985 -->
<g id="edge17" class="edge">
<title>Node3946&#45;&gt;Node3985</title>
<path fill="none" stroke="#191970" d="M127.4513,-59.0841C135.8605,-58.1187 144.4654,-57.1309 152.9052,-56.1619"/>
<polygon fill="#191970" stroke="#191970" points="126.8506,-55.63 117.3151,-60.2478 127.6491,-62.5843 126.8506,-55.63"/>
</g>
<!-- Node3987 -->
<g id="node15" class="node">
<title>Node3987</title>
<g id="a_node15"><a xlink:href="pool_8h.html#ad5bd3866642e6398e3725dd12fef0d59" target="_top" xlink:title="Allocate a new pool using an existing one as a template. ">
<polygon fill="none" stroke="#000000" points="188,-.5 188,-19.5 260,-19.5 260,-.5 188,-.5"/>
<text text-anchor="middle" x="224" y="-7.5" font-family="Helvetica,sans-Serif" font-size="10.00" fill="#000000">fr_pool_copy</text>
</a>
</g>
</g>
<!-- Node3946&#45;&gt;Node3987 -->
<g id="edge19" class="edge">
<title>Node3946&#45;&gt;Node3987</title>
<path fill="none" stroke="#191970" d="M89.2859,-53.5229C107.5918,-45.7862 131.3868,-36.2081 153,-29 164.2574,-25.2456 176.7057,-21.7115 187.9939,-18.7332"/>
<polygon fill="#191970" stroke="#191970" points="87.8145,-50.3454 79.9924,-57.4914 90.5635,-56.783 87.8145,-50.3454"/>
</g>
<!-- Node3947&#45;&gt;Node3948 -->
<g id="edge2" class="edge">
<title>Node3947&#45;&gt;Node3948</title>
<path fill="none" stroke="#191970" d="M284.9375,-121.7753C300.0251,-119.7389 316.1186,-117.5668 330.9599,-115.5637"/>
<polygon fill="#191970" stroke="#191970" points="284.1227,-118.3535 274.6807,-123.1597 285.059,-125.2906 284.1227,-118.3535"/>
</g>
<!-- Node3949 -->
<g id="node4" class="node">
<title>Node3949</title>
<g id="a_node4"><a xlink:href="cluster_8c.html#ab434868c42486ab9876b2043c26439f2" target="_top" xlink:title="Apply a cluster map received from a cluster node. ">
<polygon fill="none" stroke="#000000" points="479,-79.5 479,-98.5 577,-98.5 577,-79.5 479,-79.5"/>
<text text-anchor="middle" x="528" y="-86.5" font-family="Helvetica,sans-Serif" font-size="10.00" fill="#000000">cluster_map_apply</text>
</a>
</g>
</g>
<!-- Node3948&#45;&gt;Node3949 -->
<g id="edge3" class="edge">
<title>Node3948&#45;&gt;Node3949</title>
<path fill="none" stroke="#191970" d="M453.2133,-99.0776C461.8615,-97.9123 470.596,-96.7353 478.8938,-95.6171"/>
<polygon fill="#191970" stroke="#191970" points="452.5751,-95.6319 443.1321,-100.4361 453.5099,-102.5692 452.5751,-95.6319"/>
</g>
<!-- Node3979 -->
<g id="node9" class="node">
<title>Node3979</title>
<g id="a_node9"><a xlink:href="cluster_8h.html#a8f4e4285d679ffb64c8ef619b182b86a" target="_top" xlink:title="Allocate and initialise a new cluster structure. ">
<polygon fill="none" stroke="#ff0000" points="616.5,-117.5 616.5,-136.5 725.5,-136.5 725.5,-117.5 616.5,-117.5"/>
<text text-anchor="middle" x="671" y="-124.5" font-family="Helvetica,sans-Serif" font-size="10.00" fill="#000000">fr_redis_cluster_alloc</text>
</a>
</g>
</g>
<!-- Node3948&#45;&gt;Node3979 -->
<g id="edge15" class="edge">
<title>Node3948&#45;&gt;Node3979</title>
<path fill="none" stroke="#191970" d="M453.1045,-112.4225C502.7322,-115.7426 569.8742,-120.2345 616.4547,-123.3508"/>
<polygon fill="#191970" stroke="#191970" points="453.3206,-108.9292 443.1093,-111.7538 452.8533,-115.9136 453.3206,-108.9292"/>
</g>
<!-- Node3982 -->
<g id="node10" class="node">
<title>Node3982</title>
<g id="a_node10"><a xlink:href="cluster_8c.html#a4030e10e7438e81a42623a42beb18e42" target="_top" xlink:title="Retrieve or associate a node with the server indicated in the redirect. ">
<polygon fill="none" stroke="#000000" points="486.5,-155.5 486.5,-174.5 569.5,-174.5 569.5,-155.5 486.5,-155.5"/>
<text text-anchor="middle" x="528" y="-162.5" font-family="Helvetica,sans-Serif" font-size="10.00" fill="#000000">cluster_redirect</text>
</a>
</g>
</g>
<!-- Node3948&#45;&gt;Node3982 -->
<g id="edge9" class="edge">
<title>Node3948&#45;&gt;Node3982</title>
<path fill="none" stroke="#191970" d="M420.0012,-121.3409C445.8613,-131.795 481.2162,-146.0874 504.3228,-155.4284"/>
<polygon fill="#191970" stroke="#191970" points="421.1831,-118.0436 410.6002,-117.5405 418.5596,-124.5334 421.1831,-118.0436"/>
</g>
<!-- Node3983 -->
<g id="node11" class="node">
<title>Node3983</title>
<g id="a_node11"><a xlink:href="cluster_8h.html#a9b5a2a604f3debf26f9ec7a937cbaf14" target="_top" xlink:title="Get the pool associated with a node in the cluster. ">
<polygon fill="none" stroke="#000000" points="617.5,-30 617.5,-60 724.5,-60 724.5,-30 617.5,-30"/>
<text text-anchor="start" x="625.5" y="-48" font-family="Helvetica,sans-Serif" font-size="10.00" fill="#000000">fr_redis_cluster_pool</text>
<text text-anchor="middle" x="671" y="-37" font-family="Helvetica,sans-Serif" font-size="10.00" fill="#000000">_by_node_addr</text>
</a>
</g>
</g>
<!-- Node3948&#45;&gt;Node3983 -->
<g id="edge11" class="edge">
<title>Node3948&#45;&gt;Node3983</title>
<path fill="none" stroke="#191970" d="M415.1408,-94.1147C433.0191,-85.8671 456.8809,-75.8981 479,-70 524.7965,-57.7882 578.3905,-51.4445 617.2996,-48.2093"/>
<polygon fill="#191970" stroke="#191970" points="413.4265,-91.0534 405.8731,-98.4828 416.4109,-97.3853 413.4265,-91.0534"/>
</g>
<!-- Node3950 -->
<g id="node5" class="node">
<title>Node3950</title>
<g id="a_node5"><a xlink:href="cluster_8h.html#ab17f60095577fae39f1d708d92536594" target="_top" xlink:title="Perform a runtime remap of the cluster. ">
<polygon fill="none" stroke="#ff0000" points="613,-79.5 613,-98.5 729,-98.5 729,-79.5 613,-79.5"/>
<text text-anchor="middle" x="671" y="-86.5" font-family="Helvetica,sans-Serif" font-size="10.00" fill="#000000">fr_redis_cluster_remap</text>
</a>
</g>
</g>
<!-- Node3949&#45;&gt;Node3950 -->
<g id="edge4" class="edge">
<title>Node3949&#45;&gt;Node3950</title>
<path fill="none" stroke="#191970" d="M587.3416,-89C595.7668,-89 604.4241,-89 612.8268,-89"/>
<polygon fill="#191970" stroke="#191970" points="587.2125,-85.5001 577.2125,-89 587.2125,-92.5001 587.2125,-85.5001"/>
</g>
<!-- Node3949&#45;&gt;Node3979 -->
<g id="edge8" class="edge">
<title>Node3949&#45;&gt;Node3979</title>
<path fill="none" stroke="#191970" d="M573.8133,-101.1742C593.5871,-106.4287 616.3838,-112.4866 634.9266,-117.4141"/>
<polygon fill="#191970" stroke="#191970" points="574.6484,-97.7747 564.0849,-98.589 572.8506,-104.5399 574.6484,-97.7747"/>
</g>
<!-- Node3977 -->
<g id="node6" class="node">
<title>Node3977</title>
<g id="a_node6"><a xlink:href="cluster_8h.html#a02e48068a3e77ab228e414708b5543ee" target="_top" xlink:title="Get the next connection to attempt a command against. ">
<polygon fill="none" stroke="#ff0000" points="765,-114.5 765,-133.5 899,-133.5 899,-114.5 765,-114.5"/>
<text text-anchor="middle" x="832" y="-121.5" font-family="Helvetica,sans-Serif" font-size="10.00" fill="#000000">fr_redis_cluster_state_next</text>
</a>
</g>
</g>
<!-- Node3950&#45;&gt;Node3977 -->
<g id="edge5" class="edge">
<title>Node3950&#45;&gt;Node3977</title>
<path fill="none" stroke="#191970" d="M724.8424,-100.7049C745.3871,-105.1711 768.5431,-110.205 788.0592,-114.4477"/>
<polygon fill="#191970" stroke="#191970" points="725.5093,-97.2682 714.994,-98.5639 724.0222,-104.1084 725.5093,-97.2682"/>
</g>
<!-- Node3978 -->
<g id="node8" class="node">
<title>Node3978</title>
<g id="a_node8"><a xlink:href="group__xlat__functions.html#ga31886fd2b638245eda5da4425cb1fe1a" target="_top" xlink:title="Force a redis cluster remap. ">
<polygon fill="none" stroke="#ff0000" points="786.5,-76.5 786.5,-95.5 877.5,-95.5 877.5,-76.5 786.5,-76.5"/>
<text text-anchor="middle" x="832" y="-83.5" font-family="Helvetica,sans-Serif" font-size="10.00" fill="#000000">redis_remap_xlat</text>
</a>
</g>
</g>
<!-- Node3950&#45;&gt;Node3978 -->
<g id="edge7" class="edge">
<title>Node3950&#45;&gt;Node3978</title>
<path fill="none" stroke="#191970" d="M739.4177,-87.7251C755.2613,-87.4299 771.7439,-87.1228 786.3348,-86.8509"/>
<polygon fill="#191970" stroke="#191970" points="739.0577,-84.2311 729.1247,-87.9169 739.1882,-91.2299 739.0577,-84.2311"/>
</g>
<!-- Node3955 -->
<g id="node7" class="node">
<title>Node3955</title>
<g id="a_node7"><a xlink:href="group__xlat__functions.html#gad6a230afc88f97f3191f5b1efa47e905" target="_top" xlink:title="Xlat to make calls to redis. ">
<polygon fill="none" stroke="#ff0000" points="935,-76.5 935,-95.5 994,-95.5 994,-76.5 935,-76.5"/>
<text text-anchor="middle" x="964.5" y="-83.5" font-family="Helvetica,sans-Serif" font-size="10.00" fill="#000000">redis_xlat</text>
</a>
</g>
</g>
<!-- Node3977&#45;&gt;Node3955 -->
<g id="edge6" class="edge">
<title>Node3977&#45;&gt;Node3955</title>
<path fill="none" stroke="#191970" d="M875.4795,-111.711C883.3116,-109.4857 891.4003,-107.1798 899,-105 910.7228,-101.6376 923.6156,-97.9051 934.8392,-94.6447"/>
<polygon fill="#191970" stroke="#191970" points="874.417,-108.3742 865.7522,-114.4711 876.3279,-115.1084 874.417,-108.3742"/>
</g>
<!-- Node3982&#45;&gt;Node3977 -->
<g id="edge10" class="edge">
<title>Node3982&#45;&gt;Node3977</title>
<path fill="none" stroke="#191970" d="M579.9703,-161.7526C620.6748,-158.8081 678.6436,-153.7311 729,-146 750.146,-142.7535 773.4777,-137.8792 792.5802,-133.5431"/>
<polygon fill="#191970" stroke="#191970" points="579.4783,-158.2785 569.7493,-162.4734 579.9708,-165.2612 579.4783,-158.2785"/>
</g>
<!-- Node3983&#45;&gt;Node3955 -->
<g id="edge13" class="edge">
<title>Node3983&#45;&gt;Node3955</title>
<path fill="none" stroke="#191970" d="M734.9584,-47.982C780.9129,-50.8977 844.1706,-56.4972 899,-67 911.2103,-69.3389 924.4233,-72.9555 935.7623,-76.4083"/>
<polygon fill="#191970" stroke="#191970" points="735.0341,-44.4803 724.8398,-47.3656 734.6084,-51.4673 735.0341,-44.4803"/>
</g>
<!-- Node3983&#45;&gt;Node3978 -->
<g id="edge12" class="edge">
<title>Node3983&#45;&gt;Node3978</title>
<path fill="none" stroke="#191970" d="M734.4284,-61.1526C754.7248,-66.3212 776.5388,-71.8764 794.3829,-76.4205"/>
<polygon fill="#191970" stroke="#191970" points="735.1651,-57.7286 724.6107,-58.6524 733.4376,-64.5121 735.1651,-57.7286"/>
</g>
<!-- Node3984 -->
<g id="node12" class="node">
<title>Node3984</title>
<g id="a_node12"><a xlink:href="rlm__redis__ippool__tool_8c.html#a732d1903f8c1de87f3632b567032b1e1" target="_top" xlink:title="Return the pools available across the cluster. ">
<polygon fill="none" stroke="#ff0000" points="788,-.5 788,-19.5 876,-19.5 876,-.5 788,-.5"/>
<text text-anchor="middle" x="832" y="-7.5" font-family="Helvetica,sans-Serif" font-size="10.00" fill="#000000">driver_get_pools</text>
</a>
</g>
</g>
<!-- Node3983&#45;&gt;Node3984 -->
<g id="edge14" class="edge">
<title>Node3983&#45;&gt;Node3984</title>
<path fill="none" stroke="#191970" d="M734.4727,-31.2016C752.489,-27.285 771.6977,-23.1092 788.2619,-19.5083"/>
<polygon fill="#191970" stroke="#191970" points="733.6389,-27.801 724.6107,-33.3455 735.126,-34.6413 733.6389,-27.801"/>
</g>
<!-- Node3986 -->
<g id="node14" class="node">
<title>Node3986</title>
<g id="a_node14"><a xlink:href="rlm__cache__memcached_8c.html#a3c32864d8c9d017bf4625d54f415b2db" target="_top" xlink:title="Create a new rlm_cache_memcached instance. ">
<polygon fill="none" stroke="#000000" points="344,-38.5 344,-57.5 430,-57.5 430,-38.5 344,-38.5"/>
<text text-anchor="middle" x="387" y="-45.5" font-family="Helvetica,sans-Serif" font-size="10.00" fill="#000000">mod_instantiate</text>
</a>
</g>
</g>
<!-- Node3985&#45;&gt;Node3986 -->
<g id="edge18" class="edge">
<title>Node3985&#45;&gt;Node3986</title>
<path fill="none" stroke="#191970" d="M305.2117,-48C318.5731,-48 331.9449,-48 343.8904,-48"/>
<polygon fill="#191970" stroke="#191970" points="305.02,-44.5001 295.02,-48 305.02,-51.5001 305.02,-44.5001"/>
</g>
</g>
</svg>
