<?xml version="1.0" encoding="UTF-8" standalone="no"?>
<!DOCTYPE svg PUBLIC "-//W3C//DTD SVG 1.1//EN"
 "http://www.w3.org/Graphics/SVG/1.1/DTD/svg11.dtd">
<!-- Generated by graphviz version 2.40.1 (20161225.0304)
 -->
<!-- Title: verify_from_client Pages: 1 -->
<svg width="800pt" height="526pt"
 viewBox="0.00 0.00 800.00 526.32" xmlns="http://www.w3.org/2000/svg" xmlns:xlink="http://www.w3.org/1999/xlink">
<g id="graph0" class="graph" transform="scale(1 1) rotate(0) translate(4 522.3215)">
<title>verify_from_client</title>
<!-- Node1264 -->
<g id="node1" class="node">
<title>Node1264</title>
<polygon fill="#bfbfbf" stroke="#000000" points="0,-323.5 0,-342.5 94,-342.5 94,-323.5 0,-323.5"/>
<text text-anchor="middle" x="47" y="-330.5" font-family="Helvetica,sans-Serif" font-size="10.00" fill="#000000">verify_from_client</text>
</g>
<!-- Node1265 -->
<g id="node2" class="node">
<title>Node1265</title>
<g id="a_node2"><a xlink:href="strerror_8c.html#ae701765650b8aea79a3037bc4921d7f8" target="_top" xlink:title="Log to thread local error buffer. ">
<polygon fill="none" stroke="#000000" points="143,-361.5 143,-380.5 229,-380.5 229,-361.5 143,-361.5"/>
<text text-anchor="middle" x="186" y="-368.5" font-family="Helvetica,sans-Serif" font-size="10.00" fill="#000000">fr_strerror_printf</text>
</a>
</g>
</g>
<!-- Node1264&#45;&gt;Node1265 -->
<g id="edge1" class="edge">
<title>Node1264&#45;&gt;Node1265</title>
<path fill="none" stroke="#191970" d="M82.0756,-342.589C100.0191,-347.4944 122.0584,-353.5196 141.2167,-358.7571"/>
<polygon fill="#191970" stroke="#191970" points="140.3666,-362.1531 150.9357,-361.4141 142.2126,-355.4008 140.3666,-362.1531"/>
</g>
<!-- Node1399 -->
<g id="node19" class="node">
<title>Node1399</title>
<g id="a_node19"><a xlink:href="protocols_2dhcpv6_2base_8c.html#a0f74077c2972d9c3ab4296f14c307321" target="_top" xlink:title="fr_dhcpv6_option_find">
<polygon fill="none" stroke="#000000" points="130,-323.5 130,-342.5 242,-342.5 242,-323.5 130,-323.5"/>
<text text-anchor="middle" x="186" y="-330.5" font-family="Helvetica,sans-Serif" font-size="10.00" fill="#000000">fr_dhcpv6_option_find</text>
</a>
</g>
</g>
<!-- Node1264&#45;&gt;Node1399 -->
<g id="edge29" class="edge">
<title>Node1264&#45;&gt;Node1399</title>
<path fill="none" stroke="#191970" d="M94.0591,-333C102.3239,-333 111.0631,-333 119.7349,-333"/>
<polygon fill="#191970" stroke="#191970" points="119.8516,-336.5001 129.8515,-333 119.8515,-329.5001 119.8516,-336.5001"/>
</g>
<!-- Node1400 -->
<g id="node20" class="node">
<title>Node1400</title>
<g id="a_node20"><a xlink:href="protocols_2dhcpv6_2base_8c.html#a24120ad2c00714542e26e3d303044e75" target="_top" xlink:title="duid_match">
<polygon fill="none" stroke="#000000" points="152.5,-285.5 152.5,-304.5 219.5,-304.5 219.5,-285.5 152.5,-285.5"/>
<text text-anchor="middle" x="186" y="-292.5" font-family="Helvetica,sans-Serif" font-size="10.00" fill="#000000">duid_match</text>
</a>
</g>
</g>
<!-- Node1264&#45;&gt;Node1400 -->
<g id="edge30" class="edge">
<title>Node1264&#45;&gt;Node1400</title>
<path fill="none" stroke="#191970" d="M82.0756,-323.411C100.4301,-318.3932 123.07,-312.2039 142.5283,-306.8844"/>
<polygon fill="#191970" stroke="#191970" points="143.6511,-310.2059 152.3741,-304.1927 141.8051,-303.4537 143.6511,-310.2059"/>
</g>
<!-- Node1266 -->
<g id="node3" class="node">
<title>Node1266</title>
<g id="a_node3"><a xlink:href="acutest_8h.html#aecf9a9be8105efb1454cd8c1ef6cb1c5" target="_top" xlink:title="va_start">
<polygon fill="none" stroke="#000000" points="715.5,-494.5 715.5,-513.5 767.5,-513.5 767.5,-494.5 715.5,-494.5"/>
<text text-anchor="middle" x="741.5" y="-501.5" font-family="Helvetica,sans-Serif" font-size="10.00" fill="#000000">va_start</text>
</a>
</g>
</g>
<!-- Node1265&#45;&gt;Node1266 -->
<g id="edge2" class="edge">
<title>Node1265&#45;&gt;Node1266</title>
<path fill="none" stroke="#191970" d="M194.1611,-380.584C209.1417,-397.6217 242.7402,-433.3292 278,-454 417.9672,-536.0545 622.9389,-520.261 705.285,-509.5468"/>
<polygon fill="#191970" stroke="#191970" points="705.9521,-512.9884 715.3908,-508.1758 705.0111,-506.052 705.9521,-512.9884"/>
</g>
<!-- Node1267 -->
<g id="node4" class="node">
<title>Node1267</title>
<g id="a_node4"><a xlink:href="strerror_8c.html#a193b1e0b3712e3bbee338812c06af482" target="_top" xlink:title="fr_strerror_vprintf">
<polygon fill="none" stroke="#000000" points="278,-361.5 278,-380.5 369,-380.5 369,-361.5 278,-361.5"/>
<text text-anchor="middle" x="323.5" y="-368.5" font-family="Helvetica,sans-Serif" font-size="10.00" fill="#000000">fr_strerror_vprintf</text>
</a>
</g>
</g>
<!-- Node1265&#45;&gt;Node1267 -->
<g id="edge3" class="edge">
<title>Node1265&#45;&gt;Node1267</title>
<path fill="none" stroke="#191970" d="M229.1286,-371C241.3091,-371 254.7416,-371 267.5585,-371"/>
<polygon fill="#191970" stroke="#191970" points="267.6697,-374.5001 277.6697,-371 267.6697,-367.5001 267.6697,-374.5001"/>
</g>
<!-- Node1270 -->
<g id="node7" class="node">
<title>Node1270</title>
<g id="a_node7"><a xlink:href="acutest_8h.html#a36af1f79dd6adf0809c21e76535034d5" target="_top" xlink:title="va_end">
<polygon fill="none" stroke="#000000" points="717.5,-418.5 717.5,-437.5 765.5,-437.5 765.5,-418.5 717.5,-418.5"/>
<text text-anchor="middle" x="741.5" y="-425.5" font-family="Helvetica,sans-Serif" font-size="10.00" fill="#000000">va_end</text>
</a>
</g>
</g>
<!-- Node1265&#45;&gt;Node1270 -->
<g id="edge28" class="edge">
<title>Node1265&#45;&gt;Node1270</title>
<path fill="none" stroke="#191970" d="M202.0714,-380.5506C237.3847,-401.029 324.9816,-449.0775 405,-471 512.3301,-500.405 548.4039,-516.9634 655,-485 681.4056,-477.0821 707.2011,-458.2111 723.6505,-444.342"/>
<polygon fill="#191970" stroke="#191970" points="726.1139,-446.8379 731.3543,-437.6298 721.5154,-441.5601 726.1139,-446.8379"/>
</g>
<!-- Node1268 -->
<g id="node5" class="node">
<title>Node1268</title>
<g id="a_node5"><a xlink:href="strerror_8c.html#a42c2cc9f76fb9dac723a1903c181e1c7" target="_top" xlink:title="Initialise thread local storage. ">
<polygon fill="none" stroke="#000000" points="414,-418.5 414,-437.5 491,-437.5 491,-418.5 414,-418.5"/>
<text text-anchor="middle" x="452.5" y="-425.5" font-family="Helvetica,sans-Serif" font-size="10.00" fill="#000000">fr_strerror_init</text>
</a>
</g>
</g>
<!-- Node1267&#45;&gt;Node1268 -->
<g id="edge4" class="edge">
<title>Node1267&#45;&gt;Node1268</title>
<path fill="none" stroke="#191970" d="M345.0917,-380.5405C366.0208,-389.7883 397.9809,-403.9102 421.6007,-414.3468"/>
<polygon fill="#191970" stroke="#191970" points="420.2764,-417.5881 430.8379,-418.4284 423.1056,-411.1853 420.2764,-417.5881"/>
</g>
<!-- Node1269 -->
<g id="node6" class="node">
<title>Node1269</title>
<g id="a_node6"><a xlink:href="strerror_8c.html#a2c8e65d6d4b73fb705cc023f60acb099" target="_top" xlink:title="Print the current error to stderr with a prefix. ">
<polygon fill="none" stroke="#ff0000" points="569,-456.5 569,-475.5 622,-475.5 622,-456.5 569,-456.5"/>
<text text-anchor="middle" x="595.5" y="-463.5" font-family="Helvetica,sans-Serif" font-size="10.00" fill="#000000">fr_perror</text>
</a>
</g>
</g>
<!-- Node1267&#45;&gt;Node1269 -->
<g id="edge11" class="edge">
<title>Node1267&#45;&gt;Node1269</title>
<path fill="none" stroke="#191970" d="M330.2802,-380.528C342.8384,-397.3218 371.5106,-431.8452 405,-447 454.7565,-469.516 519.1227,-470.9554 558.8449,-469.0985"/>
<polygon fill="#191970" stroke="#191970" points="559.0877,-472.5904 568.8754,-468.5344 558.6946,-465.6015 559.0877,-472.5904"/>
</g>
<!-- Node1267&#45;&gt;Node1270 -->
<g id="edge26" class="edge">
<title>Node1267&#45;&gt;Node1270</title>
<path fill="none" stroke="#191970" d="M369.014,-374.7351C433.0921,-380.3299 553.4327,-392.0693 655,-409 672.4173,-411.9034 691.6156,-416.0255 707.4917,-419.6887"/>
<polygon fill="#191970" stroke="#191970" points="706.8576,-423.1349 717.3928,-422.0121 708.4569,-416.32 706.8576,-423.1349"/>
</g>
<!-- Node1276 -->
<g id="node9" class="node">
<title>Node1276</title>
<g id="a_node9"><a xlink:href="strerror_8c.html#a9d878c1ddb1b385cdaf6523fff68529c" target="_top" xlink:title="Reset cursor state. ">
<polygon fill="none" stroke="#000000" points="699,-304.5 699,-323.5 784,-323.5 784,-304.5 699,-304.5"/>
<text text-anchor="middle" x="741.5" y="-311.5" font-family="Helvetica,sans-Serif" font-size="10.00" fill="#000000">fr_strerror_clear</text>
</a>
</g>
</g>
<!-- Node1267&#45;&gt;Node1276 -->
<g id="edge10" class="edge">
<title>Node1267&#45;&gt;Node1276</title>
<path fill="none" stroke="#191970" d="M339.3671,-361.3746C355.3178,-352.2461 380.9268,-339.0533 405,-333 502.765,-308.4165 621.3441,-308.3163 688.4441,-310.8798"/>
<polygon fill="#191970" stroke="#191970" points="688.6228,-314.3902 698.7602,-311.3107 688.915,-307.3963 688.6228,-314.3902"/>
</g>
<!-- Node1277 -->
<g id="node10" class="node">
<title>Node1277</title>
<g id="a_node10"><a xlink:href="print_8c.html#a27ae94b5a4c77de49aa2f387765a4d58" target="_top" xlink:title="Special version of vasprintf which implements custom format specifiers. ">
<polygon fill="none" stroke="#000000" points="420,-171.5 420,-190.5 485,-190.5 485,-171.5 420,-171.5"/>
<text text-anchor="middle" x="452.5" y="-178.5" font-family="Helvetica,sans-Serif" font-size="10.00" fill="#000000">fr_vasprintf</text>
</a>
</g>
</g>
<!-- Node1267&#45;&gt;Node1277 -->
<g id="edge12" class="edge">
<title>Node1267&#45;&gt;Node1277</title>
<path fill="none" stroke="#191970" d="M330.0745,-361.3167C350.5135,-331.2127 413.1786,-238.9153 440.0513,-199.3353"/>
<polygon fill="#191970" stroke="#191970" points="443.0625,-201.131 445.7841,-190.8917 437.2712,-197.199 443.0625,-201.131"/>
</g>
<!-- Node1398 -->
<g id="node18" class="node">
<title>Node1398</title>
<g id="a_node18"><a xlink:href="cursor_8c.html#a5d942382660657c3b4cb6e9cb2b12b2c" target="_top" xlink:title="Insert a single item at the start of the list. ">
<polygon fill="none" stroke="#000000" points="405,-342.5 405,-361.5 500,-361.5 500,-342.5 405,-342.5"/>
<text text-anchor="middle" x="452.5" y="-349.5" font-family="Helvetica,sans-Serif" font-size="10.00" fill="#000000">fr_cursor_prepend</text>
</a>
</g>
</g>
<!-- Node1267&#45;&gt;Node1398 -->
<g id="edge27" class="edge">
<title>Node1267&#45;&gt;Node1398</title>
<path fill="none" stroke="#191970" d="M369.3438,-364.2478C377.4784,-363.0497 386.0463,-361.7878 394.4656,-360.5477"/>
<polygon fill="#191970" stroke="#191970" points="395.2395,-363.9716 404.6227,-359.0517 394.2194,-357.0463 395.2395,-363.9716"/>
</g>
<!-- Node1268&#45;&gt;Node1269 -->
<g id="edge5" class="edge">
<title>Node1268&#45;&gt;Node1269</title>
<path fill="none" stroke="#191970" d="M488.5849,-437.589C510.156,-443.3212 537.4806,-450.5823 559.1062,-456.3289"/>
<polygon fill="#191970" stroke="#191970" points="558.3431,-459.7475 568.9066,-458.9332 560.1409,-452.9823 558.3431,-459.7475"/>
</g>
<!-- Node1275 -->
<g id="node8" class="node">
<title>Node1275</title>
<g id="a_node8"><a xlink:href="strerror_8c.html#afe66becac3be1b0b82b90889d27fcf99" target="_top" xlink:title="_fr_logging_free">
<polygon fill="none" stroke="#000000" points="552.5,-418.5 552.5,-437.5 638.5,-437.5 638.5,-418.5 552.5,-418.5"/>
<text text-anchor="middle" x="595.5" y="-425.5" font-family="Helvetica,sans-Serif" font-size="10.00" fill="#000000">_fr_logging_free</text>
</a>
</g>
</g>
<!-- Node1268&#45;&gt;Node1275 -->
<g id="edge8" class="edge">
<title>Node1268&#45;&gt;Node1275</title>
<path fill="none" stroke="#191970" d="M491.1979,-428C506.884,-428 525.2593,-428 542.1797,-428"/>
<polygon fill="#191970" stroke="#191970" points="542.4901,-431.5001 552.49,-428 542.49,-424.5001 542.4901,-431.5001"/>
</g>
<!-- Node1268&#45;&gt;Node1276 -->
<g id="edge9" class="edge">
<title>Node1268&#45;&gt;Node1276</title>
<path fill="none" stroke="#191970" d="M476.6429,-418.4765C528.0678,-398.1913 648.5271,-350.6744 707.61,-327.3684"/>
<polygon fill="#191970" stroke="#191970" points="709.2045,-330.5019 717.2226,-323.5766 706.6358,-323.9902 709.2045,-330.5019"/>
</g>
<!-- Node1269&#45;&gt;Node1266 -->
<g id="edge6" class="edge">
<title>Node1269&#45;&gt;Node1266</title>
<path fill="none" stroke="#191970" d="M622.2787,-472.9698C645.68,-479.0606 679.8467,-487.9532 705.6111,-494.6591"/>
<polygon fill="#191970" stroke="#191970" points="704.8231,-498.0705 715.3823,-497.2023 706.5864,-491.2962 704.8231,-498.0705"/>
</g>
<!-- Node1269&#45;&gt;Node1270 -->
<g id="edge7" class="edge">
<title>Node1269&#45;&gt;Node1270</title>
<path fill="none" stroke="#191970" d="M622.2787,-459.0302C646.2614,-452.7881 681.551,-443.6032 707.5156,-436.8452"/>
<polygon fill="#191970" stroke="#191970" points="708.5183,-440.201 717.3143,-434.2949 706.7551,-433.4267 708.5183,-440.201"/>
</g>
<!-- Node1277&#45;&gt;Node1265 -->
<g id="edge16" class="edge">
<title>Node1277&#45;&gt;Node1265</title>
<path fill="none" stroke="#191970" d="M443.3351,-190.5409C415.573,-218.946 328.9622,-303.9645 242,-352 238.2593,-354.0663 234.2545,-355.9629 230.1704,-357.6905"/>
<polygon fill="#191970" stroke="#191970" points="228.6377,-354.531 220.5839,-361.4148 231.1727,-361.0559 228.6377,-354.531"/>
</g>
<!-- Node1277&#45;&gt;Node1270 -->
<g id="edge14" class="edge">
<title>Node1277&#45;&gt;Node1270</title>
<path fill="none" stroke="#191970" d="M462.1272,-190.5947C477.2707,-205.4914 507.8389,-234.7797 536,-257 586.2261,-296.6305 606.1257,-296.714 655,-338 682.2776,-361.0424 710.2745,-391.7056 726.7653,-410.6348"/>
<polygon fill="#191970" stroke="#191970" points="724.3092,-413.1462 733.4885,-418.4367 729.6119,-408.5766 724.3092,-413.1462"/>
</g>
<!-- Node1278 -->
<g id="node11" class="node">
<title>Node1278</title>
<g id="a_node11"><a xlink:href="value_8h.html#a878e0abfce7189a1784cdf15bc9fc3a3" target="_top" xlink:title="fr_value_box_aprint">
<polygon fill="none" stroke="#000000" points="691,-114.5 691,-133.5 792,-133.5 792,-114.5 691,-114.5"/>
<text text-anchor="middle" x="741.5" y="-121.5" font-family="Helvetica,sans-Serif" font-size="10.00" fill="#000000">fr_value_box_aprint</text>
</a>
</g>
</g>
<!-- Node1277&#45;&gt;Node1278 -->
<g id="edge13" class="edge">
<title>Node1277&#45;&gt;Node1278</title>
<path fill="none" stroke="#191970" d="M469.1485,-171.3977C485.5721,-162.4213 511.6786,-149.4606 536,-143 583.5653,-130.3651 639.2501,-125.8189 680.6473,-124.3188"/>
<polygon fill="#191970" stroke="#191970" points="680.9648,-127.8107 690.8505,-124 680.7461,-120.8141 680.9648,-127.8107"/>
</g>
<!-- Node1279 -->
<g id="node12" class="node">
<title>Node1279</title>
<g id="a_node12"><a xlink:href="talloc_8c.html#a3536feb85c89aa239851ef0830b72e64" target="_top" xlink:title="Call talloc_strdup, setting the type on the new chunk correctly. ">
<polygon fill="none" stroke="#000000" points="691,-57.5 691,-76.5 792,-76.5 792,-57.5 691,-57.5"/>
<text text-anchor="middle" x="741.5" y="-64.5" font-family="Helvetica,sans-Serif" font-size="10.00" fill="#000000">talloc_typed_strdup</text>
</a>
</g>
</g>
<!-- Node1277&#45;&gt;Node1279 -->
<g id="edge15" class="edge">
<title>Node1277&#45;&gt;Node1279</title>
<path fill="none" stroke="#191970" d="M456.0436,-171.2607C465.1038,-148.0094 491.5829,-89.5238 536,-67 585.6369,-41.8293 651.0853,-47.3342 694.645,-55.4764"/>
<polygon fill="#191970" stroke="#191970" points="694.1894,-58.9543 704.6799,-57.4711 695.5542,-52.0886 694.1894,-58.9543"/>
</g>
<!-- Node1280 -->
<g id="node13" class="node">
<title>Node1280</title>
<g id="a_node13"><a xlink:href="value_8c.html#a3a0550d465b81917f8b0c69a3373163e" target="_top" xlink:title="Convert one type of fr_value_box_t to another. ">
<polygon fill="none" stroke="#ff0000" points="547.5,-.5 547.5,-19.5 643.5,-19.5 643.5,-.5 547.5,-.5"/>
<text text-anchor="middle" x="595.5" y="-7.5" font-family="Helvetica,sans-Serif" font-size="10.00" fill="#000000">fr_value_box_cast</text>
</a>
</g>
</g>
<!-- Node1277&#45;&gt;Node1280 -->
<g id="edge17" class="edge">
<title>Node1277&#45;&gt;Node1280</title>
<path fill="none" stroke="#191970" d="M456.9771,-171.2808C470.6878,-141.8536 512.5856,-54.4867 536,-34 540.511,-30.0531 545.7546,-26.705 551.2235,-23.8784"/>
<polygon fill="#191970" stroke="#191970" points="552.9202,-26.9508 560.5503,-19.6002 550.0017,-20.5882 552.9202,-26.9508"/>
</g>
<!-- Node1394 -->
<g id="node14" class="node">
<title>Node1394</title>
<g id="a_node14"><a xlink:href="strerror_8c.html#a83ee876ee41b1ae672dc4dcda4f02a2e" target="_top" xlink:title="Get the last library error. ">
<polygon fill="none" stroke="#ff0000" points="566,-152.5 566,-171.5 625,-171.5 625,-152.5 566,-152.5"/>
<text text-anchor="middle" x="595.5" y="-159.5" font-family="Helvetica,sans-Serif" font-size="10.00" fill="#000000">fr_strerror</text>
</a>
</g>
</g>
<!-- Node1277&#45;&gt;Node1394 -->
<g id="edge19" class="edge">
<title>Node1277&#45;&gt;Node1394</title>
<path fill="none" stroke="#191970" d="M485.3071,-176.641C506.2353,-173.8603 533.4926,-170.2388 555.6614,-167.2932"/>
<polygon fill="#191970" stroke="#191970" points="556.314,-170.7374 565.7658,-165.9507 555.3919,-163.7984 556.314,-170.7374"/>
</g>
<!-- Node1290 -->
<g id="node15" class="node">
<title>Node1290</title>
<g id="a_node15"><a xlink:href="value_8c.html#ad5da2574fed047b3ae861999d06c38ac" target="_top" xlink:title="Clear/free any existing value and metadata. ">
<polygon fill="none" stroke="#ff0000" points="546.5,-228.5 546.5,-247.5 644.5,-247.5 644.5,-228.5 546.5,-228.5"/>
<text text-anchor="middle" x="595.5" y="-235.5" font-family="Helvetica,sans-Serif" font-size="10.00" fill="#000000">fr_value_box_clear</text>
</a>
</g>
</g>
<!-- Node1277&#45;&gt;Node1290 -->
<g id="edge21" class="edge">
<title>Node1277&#45;&gt;Node1290</title>
<path fill="none" stroke="#191970" d="M471.7936,-190.5665C488.542,-198.6803 513.561,-210.3461 536,-219 541.5741,-221.1497 547.5047,-223.2541 553.3803,-225.2332"/>
<polygon fill="#191970" stroke="#191970" points="552.5511,-228.6445 563.1438,-228.4313 554.7301,-221.9923 552.5511,-228.6445"/>
</g>
<!-- Node1395 -->
<g id="node16" class="node">
<title>Node1395</title>
<g id="a_node16"><a xlink:href="value_8c.html#a1064a346792dc1e5ecf05d04b4c1af55" target="_top" xlink:title="Concatenate the string representations of a list of value boxes together. ">
<polygon fill="none" stroke="#ff0000" points="536,-76.5 536,-95.5 655,-95.5 655,-76.5 536,-76.5"/>
<text text-anchor="middle" x="595.5" y="-83.5" font-family="Helvetica,sans-Serif" font-size="10.00" fill="#000000">fr_value_box_list_aprint</text>
</a>
</g>
</g>
<!-- Node1277&#45;&gt;Node1395 -->
<g id="edge22" class="edge">
<title>Node1277&#45;&gt;Node1395</title>
<path fill="none" stroke="#191970" d="M461.9695,-171.1255C476.6653,-156.2488 506.3678,-127.9253 536,-110 542.4867,-106.076 549.73,-102.5421 556.869,-99.4682"/>
<polygon fill="#191970" stroke="#191970" points="558.514,-102.5777 566.4587,-95.5683 555.8769,-96.0934 558.514,-102.5777"/>
</g>
<!-- Node1397 -->
<g id="node17" class="node">
<title>Node1397</title>
<g id="a_node17"><a xlink:href="util_2pair_8h.html#acfe6934363fefdc67e14fc08a205952b" target="_top" xlink:title="fr_pair_aprint">
<polygon fill="none" stroke="#000000" points="559,-190.5 559,-209.5 632,-209.5 632,-190.5 559,-190.5"/>
<text text-anchor="middle" x="595.5" y="-197.5" font-family="Helvetica,sans-Serif" font-size="10.00" fill="#000000">fr_pair_aprint</text>
</a>
</g>
</g>
<!-- Node1277&#45;&gt;Node1397 -->
<g id="edge25" class="edge">
<title>Node1277&#45;&gt;Node1397</title>
<path fill="none" stroke="#191970" d="M485.3071,-185.359C504.0708,-187.8521 527.922,-191.0211 548.6322,-193.7728"/>
<polygon fill="#191970" stroke="#191970" points="548.4466,-197.2788 558.8205,-195.1265 549.3686,-190.3398 548.4466,-197.2788"/>
</g>
<!-- Node1280&#45;&gt;Node1265 -->
<g id="edge18" class="edge">
<title>Node1280&#45;&gt;Node1265</title>
<path fill="none" stroke="#191970" d="M577.5935,-19.542C565.5335,-26.2058 549.438,-35.5662 536,-45 414.0684,-130.5993 365.0269,-138.0831 278,-259 252.1089,-294.9736 273.9952,-321.3284 242,-352 240.3441,-353.5874 238.5506,-355.0425 236.6562,-356.3762"/>
<polygon fill="#191970" stroke="#191970" points="234.7267,-353.4487 227.8176,-361.4808 238.2276,-359.5104 234.7267,-353.4487"/>
</g>
<!-- Node1394&#45;&gt;Node1276 -->
<g id="edge20" class="edge">
<title>Node1394&#45;&gt;Node1276</title>
<path fill="none" stroke="#191970" d="M625.2511,-167.2411C635.4131,-170.0857 646.3781,-174.4235 655,-181 694.9853,-211.4996 721.934,-266.1451 734.1029,-294.9813"/>
<polygon fill="#191970" stroke="#191970" points="730.9024,-296.4024 737.9143,-304.345 737.3859,-293.7633 730.9024,-296.4024"/>
</g>
<!-- Node1395&#45;&gt;Node1278 -->
<g id="edge23" class="edge">
<title>Node1395&#45;&gt;Node1278</title>
<path fill="none" stroke="#191970" d="M632.342,-95.589C651.3479,-100.5358 674.7286,-106.6211 694.9692,-111.8892"/>
<polygon fill="#191970" stroke="#191970" points="694.3638,-115.3482 704.923,-114.4799 696.127,-108.5739 694.3638,-115.3482"/>
</g>
<!-- Node1395&#45;&gt;Node1279 -->
<g id="edge24" class="edge">
<title>Node1395&#45;&gt;Node1279</title>
<path fill="none" stroke="#191970" d="M655.305,-78.2172C663.703,-77.1243 672.3419,-76 680.7571,-74.9049"/>
<polygon fill="#191970" stroke="#191970" points="681.4149,-78.3489 690.8796,-73.5876 680.5115,-71.4074 681.4149,-78.3489"/>
</g>
</g>
</svg>
