<?xml version="1.0" encoding="UTF-8" standalone="no"?>
<!DOCTYPE svg PUBLIC "-//W3C//DTD SVG 1.1//EN"
 "http://www.w3.org/Graphics/SVG/1.1/DTD/svg11.dtd">
<!-- Generated by graphviz version 2.40.1 (20161225.0304)
 -->
<!-- Title: mod_decode Pages: 1 -->
<svg width="1614pt" height="803pt"
 viewBox="0.00 0.00 1614.00 803.00" xmlns="http://www.w3.org/2000/svg" xmlns:xlink="http://www.w3.org/1999/xlink">
<g id="graph0" class="graph" transform="scale(1 1) rotate(0) translate(4 799)">
<title>mod_decode</title>
<!-- Node370 -->
<g id="node1" class="node">
<title>Node370</title>
<polygon fill="#bfbfbf" stroke="#000000" points="0,-61.5 0,-80.5 72,-80.5 72,-61.5 0,-61.5"/>
<text text-anchor="middle" x="36" y="-68.5" font-family="Helvetica,sans-Serif" font-size="10.00" fill="#000000">mod_decode</text>
</g>
<!-- Node371 -->
<g id="node2" class="node">
<title>Node371</title>
<g id="a_node2"><a xlink:href="arp_8h.html#afb172975a5bb4edfaf7435f95c6dc598" target="_top" xlink:title="Decode a raw ARP packet into VPs. ">
<polygon fill="none" stroke="#000000" points="122,-89.5 122,-108.5 200,-108.5 200,-89.5 122,-89.5"/>
<text text-anchor="middle" x="161" y="-96.5" font-family="Helvetica,sans-Serif" font-size="10.00" fill="#000000">fr_arp_decode</text>
</a>
</g>
</g>
<!-- Node370&#45;&gt;Node371 -->
<g id="edge1" class="edge">
<title>Node370&#45;&gt;Node371</title>
<path fill="none" stroke="#191970" d="M72.1552,-79.0988C84.5661,-81.8788 98.6734,-85.0388 111.9339,-88.0092"/>
<polygon fill="#191970" stroke="#191970" points="111.3439,-91.4637 121.8671,-90.2342 112.874,-84.633 111.3439,-91.4637"/>
</g>
<!-- Node587 -->
<g id="node39" class="node">
<title>Node587</title>
<g id="a_node39"><a xlink:href="lib_2server_2log_8c.html#a6e8a116514560c39703face844973ee6" target="_top" xlink:title="Print a list of fr_pair_ts. ">
<polygon fill="none" stroke="#000000" points="108,-33.5 108,-52.5 214,-52.5 214,-33.5 108,-33.5"/>
<text text-anchor="middle" x="161" y="-40.5" font-family="Helvetica,sans-Serif" font-size="10.00" fill="#000000">log_request_pair_list</text>
</a>
</g>
</g>
<!-- Node370&#45;&gt;Node587 -->
<g id="edge73" class="edge">
<title>Node370&#45;&gt;Node587</title>
<path fill="none" stroke="#191970" d="M72.1552,-62.9012C83.4214,-60.3776 96.0856,-57.5408 108.2453,-54.8171"/>
<polygon fill="#191970" stroke="#191970" points="109.3058,-58.1663 118.299,-52.565 107.7757,-51.3356 109.3058,-58.1663"/>
</g>
<!-- Node372 -->
<g id="node3" class="node">
<title>Node372</title>
<g id="a_node3"><a xlink:href="strerror_8c.html#ae701765650b8aea79a3037bc4921d7f8" target="_top" xlink:title="Log to thread local error buffer. ">
<polygon fill="none" stroke="#000000" points="1037.5,-376.5 1037.5,-395.5 1123.5,-395.5 1123.5,-376.5 1037.5,-376.5"/>
<text text-anchor="middle" x="1080.5" y="-383.5" font-family="Helvetica,sans-Serif" font-size="10.00" fill="#000000">fr_strerror_printf</text>
</a>
</g>
</g>
<!-- Node371&#45;&gt;Node372 -->
<g id="edge2" class="edge">
<title>Node371&#45;&gt;Node372</title>
<path fill="none" stroke="#191970" d="M200.2516,-98.1023C255.2851,-96.923 358.5118,-95 446.5,-95 446.5,-95 446.5,-95 762.5,-95 867.5632,-95 908.6534,-100.896 986,-172 1045.1592,-226.3845 1069.3217,-324.537 1077.2454,-366.315"/>
<polygon fill="#191970" stroke="#191970" points="1073.8263,-367.0784 1079.0298,-376.3073 1080.7173,-365.8477 1073.8263,-367.0784"/>
</g>
<!-- Node506 -->
<g id="node12" class="node">
<title>Node506</title>
<g id="a_node12"><a xlink:href="struct_8c.html#ac52c3811ae55edb1b71ca9df8221586d" target="_top" xlink:title="Convert a STRUCT to one or more VPs. ">
<polygon fill="none" stroke="#000000" points="250,-408.5 250,-427.5 367,-427.5 367,-408.5 250,-408.5"/>
<text text-anchor="middle" x="308.5" y="-415.5" font-family="Helvetica,sans-Serif" font-size="10.00" fill="#000000">fr_struct_from_network</text>
</a>
</g>
</g>
<!-- Node371&#45;&gt;Node506 -->
<g id="edge18" class="edge">
<title>Node371&#45;&gt;Node506</title>
<path fill="none" stroke="#191970" d="M165.4144,-108.547C185.8986,-152.8484 271.8681,-338.7758 299.7379,-399.0501"/>
<polygon fill="#191970" stroke="#191970" points="296.729,-400.8824 304.1028,-408.4902 303.0827,-397.9446 296.729,-400.8824"/>
</g>
<!-- Node373 -->
<g id="node4" class="node">
<title>Node373</title>
<g id="a_node4"><a xlink:href="acutest_8h.html#aecf9a9be8105efb1454cd8c1ef6cb1c5" target="_top" xlink:title="va_start">
<polygon fill="none" stroke="#000000" points="1554,-561.5 1554,-580.5 1606,-580.5 1606,-561.5 1554,-561.5"/>
<text text-anchor="middle" x="1580" y="-568.5" font-family="Helvetica,sans-Serif" font-size="10.00" fill="#000000">va_start</text>
</a>
</g>
</g>
<!-- Node372&#45;&gt;Node373 -->
<g id="edge3" class="edge">
<title>Node372&#45;&gt;Node373</title>
<path fill="none" stroke="#191970" d="M1086.5777,-395.7231C1109.4232,-431.2038 1194.3648,-553.7772 1302,-595 1384.4085,-626.5613 1490.2986,-601.0544 1544.5265,-583.7149"/>
<polygon fill="#191970" stroke="#191970" points="1545.6278,-587.0372 1554.0335,-580.5879 1543.4406,-580.3877 1545.6278,-587.0372"/>
</g>
<!-- Node374 -->
<g id="node5" class="node">
<title>Node374</title>
<g id="a_node5"><a xlink:href="strerror_8c.html#a193b1e0b3712e3bbee338812c06af482" target="_top" xlink:title="fr_strerror_vprintf">
<polygon fill="none" stroke="#000000" points="1175,-452.5 1175,-471.5 1266,-471.5 1266,-452.5 1175,-452.5"/>
<text text-anchor="middle" x="1220.5" y="-459.5" font-family="Helvetica,sans-Serif" font-size="10.00" fill="#000000">fr_strerror_vprintf</text>
</a>
</g>
</g>
<!-- Node372&#45;&gt;Node374 -->
<g id="edge4" class="edge">
<title>Node372&#45;&gt;Node374</title>
<path fill="none" stroke="#191970" d="M1098.2311,-395.6255C1122.4257,-408.7597 1165.9756,-432.401 1194.0395,-447.6358"/>
<polygon fill="#191970" stroke="#191970" points="1192.4545,-450.7577 1202.9129,-452.4527 1195.7942,-444.6057 1192.4545,-450.7577"/>
</g>
<!-- Node377 -->
<g id="node8" class="node">
<title>Node377</title>
<g id="a_node8"><a xlink:href="acutest_8h.html#a36af1f79dd6adf0809c21e76535034d5" target="_top" xlink:title="va_end">
<polygon fill="none" stroke="#000000" points="1556,-395.5 1556,-414.5 1604,-414.5 1604,-395.5 1556,-395.5"/>
<text text-anchor="middle" x="1580" y="-402.5" font-family="Helvetica,sans-Serif" font-size="10.00" fill="#000000">va_end</text>
</a>
</g>
</g>
<!-- Node372&#45;&gt;Node377 -->
<g id="edge17" class="edge">
<title>Node372&#45;&gt;Node377</title>
<path fill="none" stroke="#191970" d="M1123.5732,-379.2241C1184.5396,-370.5861 1299.4485,-357.8108 1397,-367 1449.6315,-371.9578 1509.3894,-385.9954 1545.8872,-395.5482"/>
<polygon fill="#191970" stroke="#191970" points="1545.4229,-399.0462 1555.9864,-398.233 1547.2213,-392.2812 1545.4229,-399.0462"/>
</g>
<!-- Node375 -->
<g id="node6" class="node">
<title>Node375</title>
<g id="a_node6"><a xlink:href="strerror_8c.html#a42c2cc9f76fb9dac723a1903c181e1c7" target="_top" xlink:title="Initialise thread local storage. ">
<polygon fill="none" stroke="#ff0000" points="1311,-490.5 1311,-509.5 1388,-509.5 1388,-490.5 1311,-490.5"/>
<text text-anchor="middle" x="1349.5" y="-497.5" font-family="Helvetica,sans-Serif" font-size="10.00" fill="#000000">fr_strerror_init</text>
</a>
</g>
</g>
<!-- Node374&#45;&gt;Node375 -->
<g id="edge5" class="edge">
<title>Node374&#45;&gt;Node375</title>
<path fill="none" stroke="#191970" d="M1253.0521,-471.589C1269.3993,-476.4044 1289.4092,-482.2988 1306.9571,-487.468"/>
<polygon fill="#191970" stroke="#191970" points="1306.3768,-490.9457 1316.9583,-490.4141 1308.3548,-484.2309 1306.3768,-490.9457"/>
</g>
<!-- Node376 -->
<g id="node7" class="node">
<title>Node376</title>
<g id="a_node7"><a xlink:href="strerror_8c.html#a2c8e65d6d4b73fb705cc023f60acb099" target="_top" xlink:title="Print the current error to stderr with a prefix. ">
<polygon fill="none" stroke="#ff0000" points="1449,-518.5 1449,-537.5 1502,-537.5 1502,-518.5 1449,-518.5"/>
<text text-anchor="middle" x="1475.5" y="-525.5" font-family="Helvetica,sans-Serif" font-size="10.00" fill="#000000">fr_perror</text>
</a>
</g>
</g>
<!-- Node374&#45;&gt;Node376 -->
<g id="edge11" class="edge">
<title>Node374&#45;&gt;Node376</title>
<path fill="none" stroke="#191970" d="M1230.4927,-471.8678C1244.8864,-485.3549 1272.9347,-509.0097 1302,-519 1347.1728,-534.5268 1402.8531,-534.2874 1438.7532,-531.8465"/>
<polygon fill="#191970" stroke="#191970" points="1439.0764,-535.332 1448.7772,-531.0723 1438.5373,-528.3528 1439.0764,-535.332"/>
</g>
<!-- Node374&#45;&gt;Node377 -->
<g id="edge15" class="edge">
<title>Node374&#45;&gt;Node377</title>
<path fill="none" stroke="#191970" d="M1266.0309,-454.7809C1339.0526,-443.2031 1480.7333,-420.7391 1545.8103,-410.4209"/>
<polygon fill="#191970" stroke="#191970" points="1546.6131,-413.8374 1555.9416,-408.8146 1545.5168,-406.9238 1546.6131,-413.8374"/>
</g>
<!-- Node383 -->
<g id="node9" class="node">
<title>Node383</title>
<g id="a_node9"><a xlink:href="strerror_8c.html#a9d878c1ddb1b385cdaf6523fff68529c" target="_top" xlink:title="Reset cursor state. ">
<polygon fill="none" stroke="#000000" points="1433,-471.5 1433,-490.5 1518,-490.5 1518,-471.5 1433,-471.5"/>
<text text-anchor="middle" x="1475.5" y="-478.5" font-family="Helvetica,sans-Serif" font-size="10.00" fill="#000000">fr_strerror_clear</text>
</a>
</g>
</g>
<!-- Node374&#45;&gt;Node383 -->
<g id="edge10" class="edge">
<title>Node374&#45;&gt;Node383</title>
<path fill="none" stroke="#191970" d="M1266.0889,-465.3968C1310.0394,-468.6716 1376.5088,-473.6242 1422.7291,-477.0681"/>
<polygon fill="#191970" stroke="#191970" points="1422.6177,-480.5694 1432.8502,-477.8222 1423.1379,-473.5887 1422.6177,-480.5694"/>
</g>
<!-- Node384 -->
<g id="node10" class="node">
<title>Node384</title>
<g id="a_node10"><a xlink:href="print_8c.html#a27ae94b5a4c77de49aa2f387765a4d58" target="_top" xlink:title="Special version of vasprintf which implements custom format specifiers. ">
<polygon fill="none" stroke="#ff0000" points="1317,-376.5 1317,-395.5 1382,-395.5 1382,-376.5 1317,-376.5"/>
<text text-anchor="middle" x="1349.5" y="-383.5" font-family="Helvetica,sans-Serif" font-size="10.00" fill="#000000">fr_vasprintf</text>
</a>
</g>
</g>
<!-- Node374&#45;&gt;Node384 -->
<g id="edge12" class="edge">
<title>Node374&#45;&gt;Node384</title>
<path fill="none" stroke="#191970" d="M1234.6606,-452.3521C1250.7104,-441.5624 1277.792,-423.7926 1302,-410 1307.7951,-406.6982 1314.0989,-403.3502 1320.1637,-400.2445"/>
<polygon fill="#191970" stroke="#191970" points="1322.0282,-403.2246 1329.3899,-395.6052 1318.8834,-396.9707 1322.0282,-403.2246"/>
</g>
<!-- Node505 -->
<g id="node11" class="node">
<title>Node505</title>
<g id="a_node11"><a xlink:href="cursor_8c.html#a5d942382660657c3b4cb6e9cb2b12b2c" target="_top" xlink:title="Insert a single item at the start of the list. ">
<polygon fill="none" stroke="#000000" points="1302,-566.5 1302,-585.5 1397,-585.5 1397,-566.5 1302,-566.5"/>
<text text-anchor="middle" x="1349.5" y="-573.5" font-family="Helvetica,sans-Serif" font-size="10.00" fill="#000000">fr_cursor_prepend</text>
</a>
</g>
</g>
<!-- Node374&#45;&gt;Node505 -->
<g id="edge16" class="edge">
<title>Node374&#45;&gt;Node505</title>
<path fill="none" stroke="#191970" d="M1227.4019,-471.739C1240.3734,-489.5051 1269.982,-527.5898 1302,-552 1306.5922,-555.5011 1311.7734,-558.7232 1316.9822,-561.5938"/>
<polygon fill="#191970" stroke="#191970" points="1315.7726,-564.9073 1326.2666,-566.3657 1318.9726,-558.6815 1315.7726,-564.9073"/>
</g>
<!-- Node375&#45;&gt;Node376 -->
<g id="edge6" class="edge">
<title>Node375&#45;&gt;Node376</title>
<path fill="none" stroke="#191970" d="M1388.3323,-508.6294C1404.466,-512.2147 1423.0923,-516.3538 1438.9745,-519.8832"/>
<polygon fill="#191970" stroke="#191970" points="1438.4403,-523.3498 1448.9614,-522.1025 1439.9588,-516.5165 1438.4403,-523.3498"/>
</g>
<!-- Node375&#45;&gt;Node383 -->
<g id="edge9" class="edge">
<title>Node375&#45;&gt;Node383</title>
<path fill="none" stroke="#191970" d="M1388.3323,-494.1443C1399.1819,-492.5083 1411.1587,-490.7023 1422.6701,-488.9664"/>
<polygon fill="#191970" stroke="#191970" points="1423.2602,-492.4171 1432.6265,-487.4651 1422.2164,-485.4953 1423.2602,-492.4171"/>
</g>
<!-- Node376&#45;&gt;Node373 -->
<g id="edge7" class="edge">
<title>Node376&#45;&gt;Node373</title>
<path fill="none" stroke="#191970" d="M1498.6919,-537.5431C1513.0329,-543.4442 1531.6562,-551.1073 1547.4604,-557.6105"/>
<polygon fill="#191970" stroke="#191970" points="1546.2933,-560.9149 1556.8729,-561.4836 1548.9571,-554.4416 1546.2933,-560.9149"/>
</g>
<!-- Node376&#45;&gt;Node377 -->
<g id="edge8" class="edge">
<title>Node376&#45;&gt;Node377</title>
<path fill="none" stroke="#191970" d="M1493.6623,-518.3009C1501.6876,-513.4712 1510.8928,-507.138 1518,-500 1540.9432,-476.9572 1560.0813,-444.1216 1570.7792,-423.7095"/>
<polygon fill="#191970" stroke="#191970" points="1574.0328,-425.0334 1575.4563,-414.5346 1567.7963,-421.8542 1574.0328,-425.0334"/>
</g>
<!-- Node384&#45;&gt;Node372 -->
<g id="edge14" class="edge">
<title>Node384&#45;&gt;Node372</title>
<path fill="none" stroke="#191970" d="M1316.9624,-386C1271.517,-386 1188.489,-386 1133.9017,-386"/>
<polygon fill="#191970" stroke="#191970" points="1133.7195,-382.5001 1123.7195,-386 1133.7195,-389.5001 1133.7195,-382.5001"/>
</g>
<!-- Node384&#45;&gt;Node377 -->
<g id="edge13" class="edge">
<title>Node384&#45;&gt;Node377</title>
<path fill="none" stroke="#191970" d="M1382.0361,-388.6819C1425.3483,-392.2521 1501.6015,-398.5377 1545.7588,-402.1775"/>
<polygon fill="#191970" stroke="#191970" points="1545.4728,-405.6657 1555.7266,-402.9992 1546.0479,-398.6894 1545.4728,-405.6657"/>
</g>
<!-- Node506&#45;&gt;Node506 -->
<g id="edge72" class="edge">
<title>Node506&#45;&gt;Node506</title>
<path fill="none" stroke="#191970" d="M287.2302,-427.7571C276.8827,-436.5653 283.9727,-446 308.5,-446 324.2128,-446 332.7693,-442.128 334.1695,-437.0292"/>
<polygon fill="#191970" stroke="#191970" points="337.2189,-435.2911 329.7698,-427.7571 330.8948,-438.292 337.2189,-435.2911"/>
</g>
<!-- Node507 -->
<g id="node13" class="node">
<title>Node507</title>
<g id="a_node13"><a xlink:href="dict_8h.html#ade71dd6bfb60945aa34a7f0d5286d6c1" target="_top" xlink:title="Check if a child attribute exists in a parent using an attribute number. ">
<polygon fill="none" stroke="#000000" points="882,-182 882,-212 971,-212 971,-182 882,-182"/>
<text text-anchor="start" x="890" y="-200" font-family="Helvetica,sans-Serif" font-size="10.00" fill="#000000">fr_dict_attr_child</text>
<text text-anchor="middle" x="926.5" y="-189" font-family="Helvetica,sans-Serif" font-size="10.00" fill="#000000">_by_num</text>
</a>
</g>
</g>
<!-- Node506&#45;&gt;Node507 -->
<g id="edge19" class="edge">
<title>Node506&#45;&gt;Node507</title>
<path fill="none" stroke="#191970" d="M309.0972,-408.0386C311.8764,-371.6011 326.8869,-244.9354 403,-192 548.148,-91.0519 774.9705,-146.4022 875.5411,-178.8083"/>
<polygon fill="#191970" stroke="#191970" points="874.5676,-182.1724 885.1604,-181.9627 876.7489,-175.5209 874.5676,-182.1724"/>
</g>
<!-- Node511 -->
<g id="node15" class="node">
<title>Node511</title>
<g id="a_node15"><a xlink:href="pair_8c.html#a2897183dcbc65ef1b54619bd293fd735" target="_top" xlink:title="Dynamically allocate a new attribute and fill in the da field. ">
<polygon fill="none" stroke="#000000" points="718,-465.5 718,-484.5 807,-484.5 807,-465.5 718,-465.5"/>
<text text-anchor="middle" x="762.5" y="-472.5" font-family="Helvetica,sans-Serif" font-size="10.00" fill="#000000">fr_pair_afrom_da</text>
</a>
</g>
</g>
<!-- Node506&#45;&gt;Node511 -->
<g id="edge21" class="edge">
<title>Node506&#45;&gt;Node511</title>
<path fill="none" stroke="#191970" d="M328.5816,-427.6021C366.2381,-445.0152 450.4808,-481.1857 526,-494 583.8399,-503.8144 599.5704,-499.2686 658,-494 675.0338,-492.4641 693.4419,-489.5471 709.9926,-486.4513"/>
<polygon fill="#191970" stroke="#191970" points="710.8747,-489.8457 720.0287,-484.5114 709.5462,-482.9729 710.8747,-489.8457"/>
</g>
<!-- Node557 -->
<g id="node19" class="node">
<title>Node557</title>
<g id="a_node19"><a xlink:href="cursor_8c.html#a6e72682a046a3eeac734da6639f1817c" target="_top" xlink:title="Insert a single item at the end of the list. ">
<polygon fill="none" stroke="#000000" points="716.5,-719.5 716.5,-738.5 808.5,-738.5 808.5,-719.5 716.5,-719.5"/>
<text text-anchor="middle" x="762.5" y="-726.5" font-family="Helvetica,sans-Serif" font-size="10.00" fill="#000000">fr_cursor_append</text>
</a>
</g>
</g>
<!-- Node506&#45;&gt;Node557 -->
<g id="edge27" class="edge">
<title>Node506&#45;&gt;Node557</title>
<path fill="none" stroke="#191970" d="M309.4786,-427.6064C313.6718,-464.0724 333.2206,-595.6686 403,-671 480.2492,-754.3955 626.3371,-749.2538 706.4516,-738.8064"/>
<polygon fill="#191970" stroke="#191970" points="706.9289,-742.2738 716.3585,-737.4433 705.9747,-735.3391 706.9289,-742.2738"/>
</g>
<!-- Node379 -->
<g id="node21" class="node">
<title>Node379</title>
<g id="a_node21"><a xlink:href="cursor_8c.html#ac0e33de2a6f1cb5e82c4d4e4255c2b95" target="_top" xlink:title="Rewind cursor to the start of the list. ">
<polygon fill="none" stroke="#ff0000" points="406,-370.5 406,-389.5 487,-389.5 487,-370.5 406,-370.5"/>
<text text-anchor="middle" x="446.5" y="-377.5" font-family="Helvetica,sans-Serif" font-size="10.00" fill="#000000">fr_cursor_head</text>
</a>
</g>
</g>
<!-- Node506&#45;&gt;Node379 -->
<g id="edge29" class="edge">
<title>Node506&#45;&gt;Node379</title>
<path fill="none" stroke="#191970" d="M343.3232,-408.411C361.1377,-403.5056 383.0184,-397.4804 402.0389,-392.2429"/>
<polygon fill="#191970" stroke="#191970" points="402.976,-395.6152 411.6879,-389.5859 401.1175,-388.8664 402.976,-395.6152"/>
</g>
<!-- Node559 -->
<g id="node22" class="node">
<title>Node559</title>
<g id="a_node22"><a xlink:href="cursor_8c.html#a7c03f6fd220290ff347be5d43d846cb7" target="_top" xlink:title="Wind cursor to the tail item in the list. ">
<polygon fill="none" stroke="#000000" points="410,-775.5 410,-794.5 483,-794.5 483,-775.5 410,-775.5"/>
<text text-anchor="middle" x="446.5" y="-782.5" font-family="Helvetica,sans-Serif" font-size="10.00" fill="#000000">fr_cursor_tail</text>
</a>
</g>
</g>
<!-- Node506&#45;&gt;Node559 -->
<g id="edge30" class="edge">
<title>Node506&#45;&gt;Node559</title>
<path fill="none" stroke="#191970" d="M310.1353,-427.7555C318.6829,-477.836 359.4941,-705.8298 403,-761 405.6437,-764.3525 408.8914,-767.3059 412.4107,-769.8891"/>
<polygon fill="#191970" stroke="#191970" points="410.6291,-772.9032 420.9589,-775.2584 414.3525,-766.9755 410.6291,-772.9032"/>
</g>
<!-- Node560 -->
<g id="node23" class="node">
<title>Node560</title>
<g id="a_node23"><a xlink:href="cursor_8c.html#ade5224aa2f81844c68753159c38fa3ee" target="_top" xlink:title="Appends items from one cursor to another. ">
<polygon fill="none" stroke="#000000" points="403,-642.5 403,-661.5 490,-661.5 490,-642.5 403,-642.5"/>
<text text-anchor="middle" x="446.5" y="-649.5" font-family="Helvetica,sans-Serif" font-size="10.00" fill="#000000">fr_cursor_merge</text>
</a>
</g>
</g>
<!-- Node506&#45;&gt;Node560 -->
<g id="edge32" class="edge">
<title>Node506&#45;&gt;Node560</title>
<path fill="none" stroke="#191970" d="M312.4199,-427.7146C324.0606,-456.0336 360.2893,-540.4537 403,-603 410.8393,-614.48 421.1066,-626.1654 429.6975,-635.2443"/>
<polygon fill="#191970" stroke="#191970" points="427.2392,-637.7368 436.7125,-642.481 432.2653,-632.8647 427.2392,-637.7368"/>
</g>
<!-- Node562 -->
<g id="node26" class="node">
<title>Node562</title>
<g id="a_node26"><a xlink:href="protocols_2dhcpv4_2decode_8c.html#ae7fdf80b2344031e56ef67ea94d153d7" target="_top" xlink:title="decode_value">
<polygon fill="none" stroke="#000000" points="408,-275.5 408,-294.5 485,-294.5 485,-275.5 408,-275.5"/>
<text text-anchor="middle" x="446.5" y="-282.5" font-family="Helvetica,sans-Serif" font-size="10.00" fill="#000000">decode_value</text>
</a>
</g>
</g>
<!-- Node506&#45;&gt;Node562 -->
<g id="edge37" class="edge">
<title>Node506&#45;&gt;Node562</title>
<path fill="none" stroke="#191970" d="M318.4246,-408.435C341.5855,-386.1132 399.4597,-330.336 428.8204,-302.039"/>
<polygon fill="#191970" stroke="#191970" points="431.5215,-304.2968 436.293,-294.8372 426.6638,-299.2565 431.5215,-304.2968"/>
</g>
<!-- Node570 -->
<g id="node28" class="node">
<title>Node570</title>
<g id="a_node28"><a xlink:href="dict_8h.html#a55644eb5b75ecb783881d0b3a3294192" target="_top" xlink:title="Allocates an unknown attribute. ">
<polygon fill="none" stroke="#ff0000" points="703.5,-226 703.5,-256 821.5,-256 821.5,-226 703.5,-226"/>
<text text-anchor="start" x="711.5" y="-244" font-family="Helvetica,sans-Serif" font-size="10.00" fill="#000000">fr_dict_unknown_afrom</text>
<text text-anchor="middle" x="762.5" y="-233" font-family="Helvetica,sans-Serif" font-size="10.00" fill="#000000">_fields</text>
</a>
</g>
</g>
<!-- Node506&#45;&gt;Node570 -->
<g id="edge69" class="edge">
<title>Node506&#45;&gt;Node570</title>
<path fill="none" stroke="#191970" d="M310.145,-408.1026C316.0323,-376.0861 339.2075,-274.7586 403,-229 496.1197,-162.2049 640.4677,-197.3387 714.7488,-222.5915"/>
<polygon fill="#191970" stroke="#191970" points="713.7245,-225.9408 724.3193,-225.923 716.0258,-219.3299 713.7245,-225.9408"/>
</g>
<!-- Node578 -->
<g id="node29" class="node">
<title>Node578</title>
<g id="a_node29"><a xlink:href="dict__ext_8h.html#affb00364829956930ef20d851f569aab" target="_top" xlink:title="Return the vendor number for an attribute. ">
<polygon fill="none" stroke="#000000" points="711.5,-517 711.5,-547 813.5,-547 813.5,-517 711.5,-517"/>
<text text-anchor="start" x="719.5" y="-535" font-family="Helvetica,sans-Serif" font-size="10.00" fill="#000000">fr_dict_vendor_num</text>
<text text-anchor="middle" x="762.5" y="-524" font-family="Helvetica,sans-Serif" font-size="10.00" fill="#000000">_by_da</text>
</a>
</g>
</g>
<!-- Node506&#45;&gt;Node578 -->
<g id="edge70" class="edge">
<title>Node506&#45;&gt;Node578</title>
<path fill="none" stroke="#191970" d="M318.3271,-427.5081C334.545,-442.6243 368.5589,-471.9615 403,-487 500.9982,-529.7902 627.3788,-535.5933 701.2284,-534.6635"/>
<polygon fill="#191970" stroke="#191970" points="701.3534,-538.162 711.2918,-534.4908 701.2332,-531.163 701.3534,-538.162"/>
</g>
<!-- Node569 -->
<g id="node31" class="node">
<title>Node569</title>
<g id="a_node31"><a xlink:href="dict_8h.html#a097b7c156d8149666eec5bdf2a1e0d9d" target="_top" xlink:title="Free dynamically allocated (unknown attributes) ">
<polygon fill="none" stroke="#000000" points="707.5,-275.5 707.5,-294.5 817.5,-294.5 817.5,-275.5 707.5,-275.5"/>
<text text-anchor="middle" x="762.5" y="-282.5" font-family="Helvetica,sans-Serif" font-size="10.00" fill="#000000">fr_dict_unknown_free</text>
</a>
</g>
</g>
<!-- Node506&#45;&gt;Node569 -->
<g id="edge71" class="edge">
<title>Node506&#45;&gt;Node569</title>
<path fill="none" stroke="#191970" d="M311.8238,-408.1365C321.4252,-381.1484 351.8266,-305.479 403,-266 448.3017,-231.0509 469.4249,-236.5401 526,-228 584.0095,-219.2434 603.9541,-205.1786 658,-228 679.1367,-236.9252 674.3396,-253.1726 694,-265 698.3343,-267.6075 703.0284,-269.8919 707.8573,-271.8901"/>
<polygon fill="#191970" stroke="#191970" points="706.6579,-275.1782 717.2506,-275.3895 709.1016,-268.6186 706.6579,-275.1782"/>
</g>
<!-- Node582 -->
<g id="node34" class="node">
<title>Node582</title>
<g id="a_node34"><a xlink:href="value_8c.html#ae02199d4f2a1aa2a8d6d617f1b072f20" target="_top" xlink:title="Decode a fr_value_box_t from serialized binary data. ">
<polygon fill="none" stroke="#ff0000" points="694,-389.5 694,-408.5 831,-408.5 831,-389.5 694,-389.5"/>
<text text-anchor="middle" x="762.5" y="-396.5" font-family="Helvetica,sans-Serif" font-size="10.00" fill="#000000">fr_value_box_from_network</text>
</a>
</g>
</g>
<!-- Node506&#45;&gt;Node582 -->
<g id="edge56" class="edge">
<title>Node506&#45;&gt;Node582</title>
<path fill="none" stroke="#191970" d="M367.1338,-421.7327C436.724,-425.3014 556.1692,-428.7114 658,-418 674.5535,-416.2588 692.4256,-413.3832 708.6284,-410.3898"/>
<polygon fill="#191970" stroke="#191970" points="709.3032,-413.8243 718.4745,-408.5198 707.997,-406.9472 709.3032,-413.8243"/>
</g>
<!-- Node514 -->
<g id="node35" class="node">
<title>Node514</title>
<g id="a_node35"><a xlink:href="pair_8c.html#acd64c65e4d56248ce8e4dda20ab95aff" target="_top" xlink:title="Free memory used by a valuepair list. ">
<polygon fill="none" stroke="#000000" points="721,-351.5 721,-370.5 804,-370.5 804,-351.5 721,-351.5"/>
<text text-anchor="middle" x="762.5" y="-358.5" font-family="Helvetica,sans-Serif" font-size="10.00" fill="#000000">fr_pair_list_free</text>
</a>
</g>
</g>
<!-- Node506&#45;&gt;Node514 -->
<g id="edge57" class="edge">
<title>Node506&#45;&gt;Node514</title>
<path fill="none" stroke="#191970" d="M319.7561,-408.3561C336.5531,-394.6689 369.7747,-370.2446 403,-361 509.1677,-331.46 639.9004,-342.6682 710.8082,-352.4678"/>
<polygon fill="#191970" stroke="#191970" points="710.4314,-355.9494 720.8258,-353.8984 711.4211,-349.0197 710.4314,-355.9494"/>
</g>
<!-- Node585 -->
<g id="node36" class="node">
<title>Node585</title>
<g id="a_node36"><a xlink:href="struct_8c.html#ad8bc8e8b1f8645b6787c449ac1f82b8a" target="_top" xlink:title="fr_unknown_from_network">
<polygon fill="none" stroke="#000000" points="526.5,-389.5 526.5,-408.5 657.5,-408.5 657.5,-389.5 526.5,-389.5"/>
<text text-anchor="middle" x="592" y="-396.5" font-family="Helvetica,sans-Serif" font-size="10.00" fill="#000000">fr_unknown_from_network</text>
</a>
</g>
</g>
<!-- Node506&#45;&gt;Node585 -->
<g id="edge58" class="edge">
<title>Node506&#45;&gt;Node585</title>
<path fill="none" stroke="#191970" d="M367.2414,-414.0632C410.4555,-411.167 469.5619,-407.2057 516.3162,-404.0723"/>
<polygon fill="#191970" stroke="#191970" points="516.6538,-407.5576 526.3973,-403.3967 516.1856,-400.5733 516.6538,-407.5576"/>
</g>
<!-- Node586 -->
<g id="node37" class="node">
<title>Node586</title>
<g id="a_node37"><a xlink:href="dict_8h.html#ad4be4d603ba290a5b8781ec7110b6ba4" target="_top" xlink:title="Lookup the structure representing an enum value in a fr_dict_attr_t. ">
<polygon fill="none" stroke="#000000" points="704,-579.5 704,-598.5 821,-598.5 821,-579.5 704,-579.5"/>
<text text-anchor="middle" x="762.5" y="-586.5" font-family="Helvetica,sans-Serif" font-size="10.00" fill="#000000">fr_dict_enum_by_value</text>
</a>
</g>
</g>
<!-- Node506&#45;&gt;Node586 -->
<g id="edge65" class="edge">
<title>Node506&#45;&gt;Node586</title>
<path fill="none" stroke="#191970" d="M315.0165,-427.7727C328.7661,-447.574 362.8085,-492.4583 403,-515 494.8295,-566.5032 617.8787,-582.3499 693.5942,-587.1125"/>
<polygon fill="#191970" stroke="#191970" points="693.7697,-590.6285 703.9556,-587.7135 694.1751,-583.6402 693.7697,-590.6285"/>
</g>
<!-- Node508 -->
<g id="node14" class="node">
<title>Node508</title>
<g id="a_node14"><a xlink:href="dict__util_8c.html#aa8fe667f7efcb013501821d4f1725da4" target="_top" xlink:title="Internal version of fr_dict_attr_child_by_num. ">
<polygon fill="none" stroke="#ff0000" points="1022,-187.5 1022,-206.5 1139,-206.5 1139,-187.5 1022,-187.5"/>
<text text-anchor="middle" x="1080.5" y="-194.5" font-family="Helvetica,sans-Serif" font-size="10.00" fill="#000000">dict_attr_child_by_num</text>
</a>
</g>
</g>
<!-- Node507&#45;&gt;Node508 -->
<g id="edge20" class="edge">
<title>Node507&#45;&gt;Node508</title>
<path fill="none" stroke="#191970" d="M971.0432,-197C983.6435,-197 997.6631,-197 1011.3485,-197"/>
<polygon fill="#191970" stroke="#191970" points="1011.7197,-200.5001 1021.7197,-197 1011.7196,-193.5001 1011.7197,-200.5001"/>
</g>
<!-- Node511&#45;&gt;Node372 -->
<g id="edge22" class="edge">
<title>Node511&#45;&gt;Node372</title>
<path fill="none" stroke="#191970" d="M807.3302,-478.2295C853.6148,-479.9695 927.1663,-478.2243 986,-456 1016.9729,-444.3 1046.6254,-419.3344 1064.202,-402.6042"/>
<polygon fill="#191970" stroke="#191970" points="1066.6879,-405.0687 1071.3894,-395.5742 1061.7932,-400.0645 1066.6879,-405.0687"/>
</g>
<!-- Node512 -->
<g id="node16" class="node">
<title>Node512</title>
<g id="a_node16"><a xlink:href="pair_8c.html#ae760eec888755906c0196a13801a53df" target="_top" xlink:title="Dynamically allocate a new attribute. ">
<polygon fill="none" stroke="#ff0000" points="892,-503.5 892,-522.5 961,-522.5 961,-503.5 892,-503.5"/>
<text text-anchor="middle" x="926.5" y="-510.5" font-family="Helvetica,sans-Serif" font-size="10.00" fill="#000000">fr_pair_alloc</text>
</a>
</g>
</g>
<!-- Node511&#45;&gt;Node512 -->
<g id="edge23" class="edge">
<title>Node511&#45;&gt;Node512</title>
<path fill="none" stroke="#191970" d="M803.8841,-484.589C827.6303,-490.0912 857.4561,-497.002 881.7455,-502.6301"/>
<polygon fill="#191970" stroke="#191970" points="881.2505,-506.108 891.7825,-504.9557 882.8306,-499.2887 881.2505,-506.108"/>
</g>
<!-- Node515 -->
<g id="node17" class="node">
<title>Node515</title>
<g id="a_node17"><a xlink:href="dict_8h.html#af5e7c4344dae37b2ae61c1b78c0cc1bc" target="_top" xlink:title="Copy a known or unknown attribute to produce an unknown attribute with the specified name...">
<polygon fill="none" stroke="#ff0000" points="867,-427.5 867,-446.5 986,-446.5 986,-427.5 867,-427.5"/>
<text text-anchor="middle" x="926.5" y="-434.5" font-family="Helvetica,sans-Serif" font-size="10.00" fill="#000000">fr_dict_unknown_acopy</text>
</a>
</g>
</g>
<!-- Node511&#45;&gt;Node515 -->
<g id="edge25" class="edge">
<title>Node511&#45;&gt;Node515</title>
<path fill="none" stroke="#191970" d="M803.8841,-465.411C825.6232,-460.3739 852.4575,-454.1562 875.4747,-448.8229"/>
<polygon fill="#191970" stroke="#191970" points="876.4616,-452.1871 885.4135,-446.5201 874.8815,-445.3677 876.4616,-452.1871"/>
</g>
<!-- Node393 -->
<g id="node18" class="node">
<title>Node393</title>
<g id="a_node18"><a xlink:href="value_8h.html#ab2f9fbd42c467414fa4e5c3793fb3572" target="_top" xlink:title="Initialise a fr_value_box_t. ">
<polygon fill="none" stroke="#000000" points="881.5,-389.5 881.5,-408.5 971.5,-408.5 971.5,-389.5 881.5,-389.5"/>
<text text-anchor="middle" x="926.5" y="-396.5" font-family="Helvetica,sans-Serif" font-size="10.00" fill="#000000">fr_value_box_init</text>
</a>
</g>
</g>
<!-- Node511&#45;&gt;Node393 -->
<g id="edge26" class="edge">
<title>Node511&#45;&gt;Node393</title>
<path fill="none" stroke="#191970" d="M777.9656,-465.3444C797.9625,-453.1486 834.1295,-432.0612 867,-418 872.1095,-415.8143 877.5579,-413.7422 883.0047,-411.8259"/>
<polygon fill="#191970" stroke="#191970" points="884.3711,-415.059 892.7336,-408.5538 882.1396,-408.4242 884.3711,-415.059"/>
</g>
<!-- Node512&#45;&gt;Node372 -->
<g id="edge24" class="edge">
<title>Node512&#45;&gt;Node372</title>
<path fill="none" stroke="#191970" d="M957.4854,-503.4947C967.0853,-499.7826 977.3936,-494.9629 986,-489 1020.5386,-465.0702 1051.5856,-426.3934 1068.0645,-403.8642"/>
<polygon fill="#191970" stroke="#191970" points="1071.0401,-405.7205 1074.0172,-395.5525 1065.3491,-401.6446 1071.0401,-405.7205"/>
</g>
<!-- Node558 -->
<g id="node20" class="node">
<title>Node558</title>
<g id="a_node20"><a xlink:href="cursor_8c.html#a8bff1cf971c70ff3c9b5ac03bc6a7042" target="_top" xlink:title="Internal function to get the last attribute. ">
<polygon fill="none" stroke="#ff0000" points="895.5,-722.5 895.5,-741.5 957.5,-741.5 957.5,-722.5 895.5,-722.5"/>
<text text-anchor="middle" x="926.5" y="-729.5" font-family="Helvetica,sans-Serif" font-size="10.00" fill="#000000">cursor_tail</text>
</a>
</g>
</g>
<!-- Node557&#45;&gt;Node558 -->
<g id="edge28" class="edge">
<title>Node557&#45;&gt;Node558</title>
<path fill="none" stroke="#191970" d="M808.6196,-729.8437C832.6918,-730.284 861.9028,-730.8183 885.2239,-731.2449"/>
<polygon fill="#191970" stroke="#191970" points="885.4226,-734.7491 895.4849,-731.4327 885.5506,-727.7502 885.4226,-734.7491"/>
</g>
<!-- Node559&#45;&gt;Node558 -->
<g id="edge31" class="edge">
<title>Node559&#45;&gt;Node558</title>
<path fill="none" stroke="#191970" d="M483.1775,-782.3311C551.6846,-777.1553 703.6764,-764.771 831,-748 848.805,-745.6547 868.3802,-742.4806 885.1476,-739.5778"/>
<polygon fill="#191970" stroke="#191970" points="885.94,-742.9923 895.1839,-737.8153 884.7292,-736.0978 885.94,-742.9923"/>
</g>
<!-- Node560&#45;&gt;Node505 -->
<g id="edge36" class="edge">
<title>Node560&#45;&gt;Node505</title>
<path fill="none" stroke="#191970" d="M490.0361,-656.0645C581.9868,-663.8633 802.6064,-678.4287 986,-658 1104.9491,-644.7499 1241.8142,-607.8263 1308.5797,-588.3651"/>
<polygon fill="#191970" stroke="#191970" points="1309.6873,-591.6878 1318.2958,-585.5117 1307.7147,-584.9714 1309.6873,-591.6878"/>
</g>
<!-- Node381 -->
<g id="node24" class="node">
<title>Node381</title>
<g id="a_node24"><a xlink:href="cursor_8c.html#a6194bc92357e84dc8720ffd5ccaaeb42" target="_top" xlink:title="Remove the current item. ">
<polygon fill="none" stroke="#ff0000" points="546,-623.5 546,-642.5 638,-642.5 638,-623.5 546,-623.5"/>
<text text-anchor="middle" x="592" y="-630.5" font-family="Helvetica,sans-Serif" font-size="10.00" fill="#000000">fr_cursor_remove</text>
</a>
</g>
</g>
<!-- Node560&#45;&gt;Node381 -->
<g id="edge33" class="edge">
<title>Node560&#45;&gt;Node381</title>
<path fill="none" stroke="#191970" d="M490.1548,-646.2994C504.4373,-644.4343 520.5111,-642.3353 535.596,-640.3655"/>
<polygon fill="#191970" stroke="#191970" points="536.3848,-643.7923 545.8473,-639.0268 535.4783,-636.8512 536.3848,-643.7923"/>
</g>
<!-- Node561 -->
<g id="node25" class="node">
<title>Node561</title>
<g id="a_node25"><a xlink:href="cursor_8c.html#a37b02b1c14933814c7eeeba355582e41" target="_top" xlink:title="Insert directly after the current item. ">
<polygon fill="none" stroke="#000000" points="550,-699.5 550,-718.5 634,-718.5 634,-699.5 550,-699.5"/>
<text text-anchor="middle" x="592" y="-706.5" font-family="Helvetica,sans-Serif" font-size="10.00" fill="#000000">fr_cursor_insert</text>
</a>
</g>
</g>
<!-- Node560&#45;&gt;Node561 -->
<g id="edge34" class="edge">
<title>Node560&#45;&gt;Node561</title>
<path fill="none" stroke="#191970" d="M468.6669,-661.513C484.5544,-668.2547 506.5027,-677.4128 526,-685 535.445,-688.6754 545.715,-692.4944 555.2783,-695.9762"/>
<polygon fill="#191970" stroke="#191970" points="554.3301,-699.355 564.9244,-699.4624 556.7094,-692.7718 554.3301,-699.355"/>
</g>
<!-- Node561&#45;&gt;Node557 -->
<g id="edge35" class="edge">
<title>Node561&#45;&gt;Node557</title>
<path fill="none" stroke="#191970" d="M634.1461,-713.9438C655.8791,-716.4932 682.684,-719.6374 706.1678,-722.3921"/>
<polygon fill="#191970" stroke="#191970" points="706.0083,-725.8973 716.348,-723.5863 706.8238,-718.945 706.0083,-725.8973"/>
</g>
<!-- Node562&#45;&gt;Node372 -->
<g id="edge48" class="edge">
<title>Node562&#45;&gt;Node372</title>
<path fill="none" stroke="#191970" d="M482.7325,-294.5527C496.2435,-297.8784 511.7574,-301.419 526,-304 660.4143,-328.3583 695.9151,-321.6869 831,-342 898.9556,-352.2187 976.8946,-366.3529 1027.3202,-375.8173"/>
<polygon fill="#191970" stroke="#191970" points="1026.8632,-379.2926 1037.3382,-377.7041 1028.1588,-372.4136 1026.8632,-379.2926"/>
</g>
<!-- Node563 -->
<g id="node27" class="node">
<title>Node563</title>
<g id="a_node27"><a xlink:href="protocols_2dhcpv4_2decode_8c.html#a0c249744789efd0ae4efb33ed48b1951" target="_top" xlink:title="RFC 4243 Vendor Specific Suboptions. ">
<polygon fill="none" stroke="#ff0000" points="560,-237.5 560,-256.5 624,-256.5 624,-237.5 560,-237.5"/>
<text text-anchor="middle" x="592" y="-244.5" font-family="Helvetica,sans-Serif" font-size="10.00" fill="#000000">decode_tlv</text>
</a>
</g>
</g>
<!-- Node562&#45;&gt;Node563 -->
<g id="edge38" class="edge">
<title>Node562&#45;&gt;Node563</title>
<path fill="none" stroke="#191970" d="M465.2237,-275.4076C486.4829,-267.7761 521.8433,-258.0453 549.8259,-251.8251"/>
<polygon fill="#191970" stroke="#191970" points="550.7136,-255.2145 559.7617,-249.7026 549.2512,-248.3689 550.7136,-255.2145"/>
</g>
<!-- Node579 -->
<g id="node32" class="node">
<title>Node579</title>
<g id="a_node32"><a xlink:href="protocols_2dhcpv4_2decode_8c.html#a61f0afb4691471c4f1c5d5d3ae35ea1f" target="_top" xlink:title="Returns the number of array members for arrays with fixed element sizes. ">
<polygon fill="none" stroke="#000000" points="526,-275.5 526,-294.5 658,-294.5 658,-275.5 526,-275.5"/>
<text text-anchor="middle" x="592" y="-282.5" font-family="Helvetica,sans-Serif" font-size="10.00" fill="#000000">fr_dhcpv4_array_members</text>
</a>
</g>
</g>
<!-- Node562&#45;&gt;Node579 -->
<g id="edge47" class="edge">
<title>Node562&#45;&gt;Node579</title>
<path fill="none" stroke="#191970" d="M485.1093,-285C494.6155,-285 505.1275,-285 515.7394,-285"/>
<polygon fill="#191970" stroke="#191970" points="515.9147,-288.5001 525.9146,-285 515.9146,-281.5001 515.9147,-288.5001"/>
</g>
<!-- Node580 -->
<g id="node33" class="node">
<title>Node580</title>
<g id="a_node33"><a xlink:href="protocols_2dhcpv4_2decode_8c.html#a96c1964055262f30ca00fb34d93b834e" target="_top" xlink:title="decode_value_internal">
<polygon fill="none" stroke="#ff0000" points="535.5,-465.5 535.5,-484.5 648.5,-484.5 648.5,-465.5 535.5,-465.5"/>
<text text-anchor="middle" x="592" y="-472.5" font-family="Helvetica,sans-Serif" font-size="10.00" fill="#000000">decode_value_internal</text>
</a>
</g>
</g>
<!-- Node562&#45;&gt;Node580 -->
<g id="edge49" class="edge">
<title>Node562&#45;&gt;Node580</title>
<path fill="none" stroke="#191970" d="M452.1598,-294.8767C468.7843,-323.8281 516.8736,-407.1339 526,-418 539.1438,-433.6493 556.7764,-448.6429 570.5097,-459.3214"/>
<polygon fill="#191970" stroke="#191970" points="568.4022,-462.1158 578.4818,-465.3799 572.6377,-456.5426 568.4022,-462.1158"/>
</g>
<!-- Node563&#45;&gt;Node507 -->
<g id="edge39" class="edge">
<title>Node563&#45;&gt;Node507</title>
<path fill="none" stroke="#191970" d="M618.0309,-237.403C638.4156,-230.3015 667.6376,-221.0234 694,-216 754.2286,-204.5233 824.5325,-199.9759 871.9319,-198.1759"/>
<polygon fill="#191970" stroke="#191970" points="872.112,-201.6718 881.9827,-197.8223 871.8658,-194.6761 872.112,-201.6718"/>
</g>
<!-- Node563&#45;&gt;Node562 -->
<g id="edge45" class="edge">
<title>Node563&#45;&gt;Node562</title>
<path fill="none" stroke="#191970" d="M573.2148,-256.6144C553.5469,-263.6695 521.8583,-272.512 495.0916,-278.7171"/>
<polygon fill="#191970" stroke="#191970" points="494.1004,-275.3524 485.1093,-280.9569 495.633,-282.1826 494.1004,-275.3524"/>
</g>
<!-- Node563&#45;&gt;Node570 -->
<g id="edge40" class="edge">
<title>Node563&#45;&gt;Node570</title>
<path fill="none" stroke="#191970" d="M624.0697,-245.8714C643.5676,-245.1853 669.2449,-244.2817 693.184,-243.4393"/>
<polygon fill="#191970" stroke="#191970" points="693.4434,-246.9324 703.3141,-243.0828 693.1972,-239.9367 693.4434,-246.9324"/>
</g>
<!-- Node563&#45;&gt;Node578 -->
<g id="edge43" class="edge">
<title>Node563&#45;&gt;Node578</title>
<path fill="none" stroke="#191970" d="M624.123,-249.0313C636.3957,-251.4592 649.4744,-256.3488 658,-266 725.9187,-342.8862 635.1916,-409.9404 694,-494 698.8749,-500.9681 705.4553,-506.7993 712.6171,-511.6334"/>
<polygon fill="#191970" stroke="#191970" points="710.8598,-514.661 721.2243,-516.8584 714.4923,-508.6772 710.8598,-514.661"/>
</g>
<!-- Node563&#45;&gt;Node569 -->
<g id="edge46" class="edge">
<title>Node563&#45;&gt;Node569</title>
<path fill="none" stroke="#191970" d="M624.0697,-254.1475C648.1255,-259.5089 681.5876,-266.9667 709.5864,-273.2069"/>
<polygon fill="#191970" stroke="#191970" points="709.1051,-276.6855 719.627,-275.4447 710.6279,-269.8531 709.1051,-276.6855"/>
</g>
<!-- Node570&#45;&gt;Node372 -->
<g id="edge41" class="edge">
<title>Node570&#45;&gt;Node372</title>
<path fill="none" stroke="#191970" d="M821.8864,-252.453C868.3939,-262.9545 933.7395,-281.1564 986,-309 1016.2881,-325.137 1046.1234,-351.7272 1063.926,-369.0522"/>
<polygon fill="#191970" stroke="#191970" points="1061.6543,-371.7288 1071.2173,-376.2895 1066.5856,-366.7607 1061.6543,-371.7288"/>
</g>
<!-- Node570&#45;&gt;Node507 -->
<g id="edge42" class="edge">
<title>Node570&#45;&gt;Node507</title>
<path fill="none" stroke="#191970" d="M818.4808,-225.9808C835.7786,-221.3399 854.7996,-216.2367 871.9961,-211.623"/>
<polygon fill="#191970" stroke="#191970" points="873.132,-214.9421 881.8835,-208.9703 871.318,-208.1812 873.132,-214.9421"/>
</g>
<!-- Node418 -->
<g id="node30" class="node">
<title>Node418</title>
<g id="a_node30"><a xlink:href="dict__ext_8h.html#a34a6d539e648b685d19cf23c2d0e7d3f" target="_top" xlink:title="fr_dict_attr_ext">
<polygon fill="none" stroke="#000000" points="885.5,-541.5 885.5,-560.5 967.5,-560.5 967.5,-541.5 885.5,-541.5"/>
<text text-anchor="middle" x="926.5" y="-548.5" font-family="Helvetica,sans-Serif" font-size="10.00" fill="#000000">fr_dict_attr_ext</text>
</a>
</g>
</g>
<!-- Node578&#45;&gt;Node418 -->
<g id="edge44" class="edge">
<title>Node578&#45;&gt;Node418</title>
<path fill="none" stroke="#191970" d="M813.9407,-537.9596C833.539,-540.2301 855.8552,-542.8155 875.42,-545.0822"/>
<polygon fill="#191970" stroke="#191970" points="875.035,-548.5609 885.3713,-546.2351 875.8406,-541.6074 875.035,-548.5609"/>
</g>
<!-- Node580&#45;&gt;Node511 -->
<g id="edge50" class="edge">
<title>Node580&#45;&gt;Node511</title>
<path fill="none" stroke="#191970" d="M648.774,-475C667.7368,-475 688.8232,-475 707.6376,-475"/>
<polygon fill="#191970" stroke="#191970" points="707.8285,-478.5001 717.8284,-475 707.8284,-471.5001 707.8285,-478.5001"/>
</g>
<!-- Node580&#45;&gt;Node515 -->
<g id="edge51" class="edge">
<title>Node580&#45;&gt;Node515</title>
<path fill="none" stroke="#191970" d="M637.5374,-465.4839C655.1161,-462.0825 675.4316,-458.4815 694,-456 748.3003,-448.7434 810.1311,-443.8507 856.3734,-440.8497"/>
<polygon fill="#191970" stroke="#191970" points="856.8298,-444.3279 866.5879,-440.2011 856.3861,-437.342 856.8298,-444.3279"/>
</g>
<!-- Node580&#45;&gt;Node557 -->
<g id="edge52" class="edge">
<title>Node580&#45;&gt;Node557</title>
<path fill="none" stroke="#191970" d="M598.4756,-484.6469C623.848,-522.445 716.7436,-660.8351 750.3027,-710.8293"/>
<polygon fill="#191970" stroke="#191970" points="747.5385,-712.9913 756.0179,-719.3434 753.3505,-709.0899 747.5385,-712.9913"/>
</g>
<!-- Node580&#45;&gt;Node582 -->
<g id="edge53" class="edge">
<title>Node580&#45;&gt;Node582</title>
<path fill="none" stroke="#191970" d="M624.4386,-465.4635C635.4194,-461.6516 647.5424,-456.7798 658,-451 675.7405,-441.195 676.2021,-432.7004 694,-423 701.7979,-418.7499 710.4938,-415.021 719.0024,-411.8483"/>
<polygon fill="#191970" stroke="#191970" points="720.2074,-415.1347 728.4714,-408.5046 717.8766,-408.5341 720.2074,-415.1347"/>
</g>
<!-- Node582&#45;&gt;Node372 -->
<g id="edge54" class="edge">
<title>Node582&#45;&gt;Node372</title>
<path fill="none" stroke="#191970" d="M804.9713,-389.4886C823.8578,-385.7233 846.4309,-381.8547 867,-380 919.6752,-375.2503 933.1377,-378.3235 986,-380 999.3553,-380.4236 1013.7564,-381.183 1027.1928,-382.0224"/>
<polygon fill="#191970" stroke="#191970" points="1027.0404,-385.5197 1037.2463,-382.6755 1027.4943,-378.5345 1027.0404,-385.5197"/>
</g>
<!-- Node582&#45;&gt;Node393 -->
<g id="edge55" class="edge">
<title>Node582&#45;&gt;Node393</title>
<path fill="none" stroke="#191970" d="M831.1005,-399C844.3983,-399 858.1792,-399 870.9932,-399"/>
<polygon fill="#191970" stroke="#191970" points="871.0347,-402.5001 881.0346,-399 871.0346,-395.5001 871.0347,-402.5001"/>
</g>
<!-- Node585&#45;&gt;Node511 -->
<g id="edge61" class="edge">
<title>Node585&#45;&gt;Node511</title>
<path fill="none" stroke="#191970" d="M613.5939,-408.6255C643.4438,-421.931 697.4847,-446.0196 731.6026,-461.2276"/>
<polygon fill="#191970" stroke="#191970" points="730.5227,-464.5781 741.0814,-465.4527 733.3727,-458.1845 730.5227,-464.5781"/>
</g>
<!-- Node585&#45;&gt;Node570 -->
<g id="edge59" class="edge">
<title>Node585&#45;&gt;Node570</title>
<path fill="none" stroke="#191970" d="M598.3108,-389.4118C616.5116,-361.9951 669.3703,-284.0808 694,-266 696.521,-264.1494 699.1932,-262.4231 701.9642,-260.8144"/>
<polygon fill="#191970" stroke="#191970" points="703.8295,-263.7893 711.085,-256.0687 700.5985,-257.5796 703.8295,-263.7893"/>
</g>
<!-- Node585&#45;&gt;Node578 -->
<g id="edge60" class="edge">
<title>Node585&#45;&gt;Node578</title>
<path fill="none" stroke="#191970" d="M603.9971,-408.7454C617.4692,-419.8285 639.8245,-438.6422 658,-456 674.8246,-472.0676 675.6134,-479.7463 694,-494 702.471,-500.5669 712.2185,-506.692 721.6537,-512.0249"/>
<polygon fill="#191970" stroke="#191970" points="720.0981,-515.1632 730.5523,-516.8837 723.4528,-509.0194 720.0981,-515.1632"/>
</g>
<!-- Node585&#45;&gt;Node569 -->
<g id="edge62" class="edge">
<title>Node585&#45;&gt;Node569</title>
<path fill="none" stroke="#191970" d="M606.2435,-389.4765C635.7564,-369.7435 703.8098,-324.2416 739.5801,-300.3247"/>
<polygon fill="#191970" stroke="#191970" points="741.568,-303.2059 747.9356,-294.738 737.6772,-297.3868 741.568,-303.2059"/>
</g>
<!-- Node585&#45;&gt;Node582 -->
<g id="edge63" class="edge">
<title>Node585&#45;&gt;Node582</title>
<path fill="none" stroke="#191970" d="M657.9198,-399C666.4062,-399 675.1625,-399 683.8275,-399"/>
<polygon fill="#191970" stroke="#191970" points="683.9361,-402.5001 693.9361,-399 683.936,-395.5001 683.9361,-402.5001"/>
</g>
<!-- Node585&#45;&gt;Node514 -->
<g id="edge64" class="edge">
<title>Node585&#45;&gt;Node514</title>
<path fill="none" stroke="#191970" d="M635.0243,-389.411C658.1745,-384.2514 686.8826,-377.8531 711.1907,-372.4355"/>
<polygon fill="#191970" stroke="#191970" points="711.9622,-375.8495 720.9614,-370.2579 710.4394,-369.0171 711.9622,-375.8495"/>
</g>
<!-- Node586&#45;&gt;Node372 -->
<g id="edge67" class="edge">
<title>Node586&#45;&gt;Node372</title>
<path fill="none" stroke="#191970" d="M819.3241,-598.5091C867.7176,-603.4747 936.9956,-602.8518 986,-570 1044.0982,-531.0518 1068.4933,-444.8581 1076.839,-405.8567"/>
<polygon fill="#191970" stroke="#191970" points="1080.3257,-406.27 1078.8583,-395.7773 1073.462,-404.8949 1080.3257,-406.27"/>
</g>
<!-- Node586&#45;&gt;Node418 -->
<g id="edge66" class="edge">
<title>Node586&#45;&gt;Node418</title>
<path fill="none" stroke="#191970" d="M803.8841,-579.411C825.6232,-574.3739 852.4575,-568.1562 875.4747,-562.8229"/>
<polygon fill="#191970" stroke="#191970" points="876.4616,-566.1871 885.4135,-560.5201 874.8815,-559.3677 876.4616,-566.1871"/>
</g>
<!-- Node419 -->
<g id="node38" class="node">
<title>Node419</title>
<g id="a_node38"><a xlink:href="hash_8c.html#a5142bb7ae36b65a809eb834314974942" target="_top" xlink:title="Find data from a template. ">
<polygon fill="none" stroke="#ff0000" points="878.5,-618 878.5,-648 974.5,-648 974.5,-618 878.5,-618"/>
<text text-anchor="start" x="886.5" y="-636" font-family="Helvetica,sans-Serif" font-size="10.00" fill="#000000">fr_hash_table_find</text>
<text text-anchor="middle" x="926.5" y="-625" font-family="Helvetica,sans-Serif" font-size="10.00" fill="#000000">_by_data</text>
</a>
</g>
</g>
<!-- Node586&#45;&gt;Node419 -->
<g id="edge68" class="edge">
<title>Node586&#45;&gt;Node419</title>
<path fill="none" stroke="#191970" d="M798.0856,-598.5473C818.6108,-604.0541 844.9211,-611.113 868.3761,-617.4058"/>
<polygon fill="#191970" stroke="#191970" points="867.6629,-620.8381 878.2283,-620.049 869.4768,-614.0772 867.6629,-620.8381"/>
</g>
<!-- Node587&#45;&gt;Node587 -->
<g id="edge76" class="edge">
<title>Node587&#45;&gt;Node587</title>
<path fill="none" stroke="#191970" d="M141.888,-52.7571C132.5903,-61.5653 138.9609,-71 161,-71 175.1188,-71 182.8072,-67.128 184.0654,-62.0292"/>
<polygon fill="#191970" stroke="#191970" points="187.2537,-60.5831 180.112,-52.7571 180.8146,-63.3286 187.2537,-60.5831"/>
</g>
<!-- Node588 -->
<g id="node40" class="node">
<title>Node588</title>
<g id="a_node40"><a xlink:href="lib_2server_2log_8c.html#aaae4c59a97fc4aa20df232613b517f8b" target="_top" xlink:title="Whether a request specific debug message should be logged. ">
<polygon fill="none" stroke="#000000" points="257,-38.5 257,-57.5 360,-57.5 360,-38.5 257,-38.5"/>
<text text-anchor="middle" x="308.5" y="-45.5" font-family="Helvetica,sans-Serif" font-size="10.00" fill="#000000">log_rdebug_enabled</text>
</a>
</g>
</g>
<!-- Node587&#45;&gt;Node588 -->
<g id="edge74" class="edge">
<title>Node587&#45;&gt;Node588</title>
<path fill="none" stroke="#191970" d="M214.2509,-44.8051C224.7566,-45.1612 235.8651,-45.5378 246.627,-45.9026"/>
<polygon fill="#191970" stroke="#191970" points="246.6952,-49.4068 256.8081,-46.2477 246.9324,-42.4109 246.6952,-49.4068"/>
</g>
<!-- Node394 -->
<g id="node41" class="node">
<title>Node394</title>
<g id="a_node41"><a xlink:href="cursor_8c.html#af6c2090d1e00319075d6def5aa2666fd" target="_top" xlink:title="Advanced the cursor to the next item. ">
<polygon fill="none" stroke="#ff0000" points="269,-.5 269,-19.5 348,-19.5 348,-.5 269,-.5"/>
<text text-anchor="middle" x="308.5" y="-7.5" font-family="Helvetica,sans-Serif" font-size="10.00" fill="#000000">fr_cursor_next</text>
</a>
</g>
</g>
<!-- Node587&#45;&gt;Node394 -->
<g id="edge75" class="edge">
<title>Node587&#45;&gt;Node394</title>
<path fill="none" stroke="#191970" d="M203.6631,-33.455C220.9555,-29.5862 241.0389,-25.093 258.9726,-21.0807"/>
<polygon fill="#191970" stroke="#191970" points="259.9691,-24.4444 268.9636,-18.8454 258.4407,-17.6133 259.9691,-24.4444"/>
</g>
</g>
</svg>
