<?xml version="1.0" encoding="UTF-8" standalone="no"?>
<!DOCTYPE svg PUBLIC "-//W3C//DTD SVG 1.1//EN"
 "http://www.w3.org/Graphics/SVG/1.1/DTD/svg11.dtd">
<!-- Generated by graphviz version 2.40.1 (20161225.0304)
 -->
<!-- Title: decode_tlv Pages: 1 -->
<svg width="1125pt" height="488pt"
 viewBox="0.00 0.00 1125.00 487.54" xmlns="http://www.w3.org/2000/svg" xmlns:xlink="http://www.w3.org/1999/xlink">
<g id="graph0" class="graph" transform="scale(1 1) rotate(0) translate(4 483.5441)">
<title>decode_tlv</title>
<!-- Node1960 -->
<g id="node1" class="node">
<title>Node1960</title>
<polygon fill="#bfbfbf" stroke="#000000" points="0,-142.5 0,-161.5 64,-161.5 64,-142.5 0,-142.5"/>
<text text-anchor="middle" x="32" y="-149.5" font-family="Helvetica,sans-Serif" font-size="10.00" fill="#000000">decode_tlv</text>
</g>
<!-- Node1961 -->
<g id="node2" class="node">
<title>Node1961</title>
<g id="a_node2"><a xlink:href="protocols_2dhcpv4_2decode_8c.html#a7776ab201180f73b9fae09cc722324e4" target="_top" xlink:title="decode_raw">
<polygon fill="none" stroke="#000000" points="100,-194.5 100,-213.5 169,-213.5 169,-194.5 100,-194.5"/>
<text text-anchor="middle" x="134.5" y="-201.5" font-family="Helvetica,sans-Serif" font-size="10.00" fill="#000000">decode_raw</text>
</a>
</g>
</g>
<!-- Node1960&#45;&gt;Node1961 -->
<g id="edge1" class="edge">
<title>Node1960&#45;&gt;Node1961</title>
<path fill="none" stroke="#191970" d="M50.8001,-161.5376C66.3071,-169.4046 88.5475,-180.6875 106.2054,-189.6456"/>
<polygon fill="#191970" stroke="#191970" points="104.9704,-192.9438 115.472,-194.3468 108.1375,-186.7011 104.9704,-192.9438"/>
</g>
<!-- Node2123 -->
<g id="node11" class="node">
<title>Node2123</title>
<g id="a_node11"><a xlink:href="protocols_2dhcpv4_2decode_8c.html#ae7fdf80b2344031e56ef67ea94d153d7" target="_top" xlink:title="decode_value">
<polygon fill="none" stroke="#000000" points="205,-256.5 205,-275.5 282,-275.5 282,-256.5 205,-256.5"/>
<text text-anchor="middle" x="243.5" y="-263.5" font-family="Helvetica,sans-Serif" font-size="10.00" fill="#000000">decode_value</text>
</a>
</g>
</g>
<!-- Node1960&#45;&gt;Node2123 -->
<g id="edge36" class="edge">
<title>Node1960&#45;&gt;Node2123</title>
<path fill="none" stroke="#191970" d="M43.6882,-161.6496C55.9665,-175.5767 76.7054,-199.7481 100,-214 134.3824,-235.0354 179.7278,-246.361 210.1613,-254.0206"/>
<polygon fill="#191970" stroke="#191970" points="209.3194,-257.4178 219.8732,-256.4864 211.042,-250.6331 209.3194,-257.4178"/>
</g>
<!-- Node2140 -->
<g id="node20" class="node">
<title>Node2140</title>
<g id="a_node20"><a xlink:href="dict_8h.html#a55644eb5b75ecb783881d0b3a3294192" target="_top" xlink:title="Allocates an unknown attribute. ">
<polygon fill="none" stroke="#ff0000" points="646.5,-47 646.5,-77 764.5,-77 764.5,-47 646.5,-47"/>
<text text-anchor="start" x="654.5" y="-65" font-family="Helvetica,sans-Serif" font-size="10.00" fill="#000000">fr_dict_unknown_afrom</text>
<text text-anchor="middle" x="705.5" y="-54" font-family="Helvetica,sans-Serif" font-size="10.00" fill="#000000">_fields</text>
</a>
</g>
</g>
<!-- Node1960&#45;&gt;Node2140 -->
<g id="edge34" class="edge">
<title>Node1960&#45;&gt;Node2140</title>
<path fill="none" stroke="#191970" d="M39.304,-142.3759C50.7392,-127.9378 74.2418,-100.6953 100,-85 157.3103,-50.079 176.3885,-38 243.5,-38 243.5,-38 243.5,-38 384,-38 471.1315,-38 571.1783,-46.8747 636.2137,-53.8307"/>
<polygon fill="#191970" stroke="#191970" points="636.0245,-57.3306 646.3435,-54.929 636.7791,-50.3714 636.0245,-57.3306"/>
</g>
<!-- Node2141 -->
<g id="node21" class="node">
<title>Node2141</title>
<g id="a_node21"><a xlink:href="dict_8h.html#ade71dd6bfb60945aa34a7f0d5286d6c1" target="_top" xlink:title="Check if a child attribute exists in a parent using an attribute number. ">
<polygon fill="none" stroke="#ff0000" points="810,-15 810,-45 899,-45 899,-15 810,-15"/>
<text text-anchor="start" x="818" y="-33" font-family="Helvetica,sans-Serif" font-size="10.00" fill="#000000">fr_dict_attr_child</text>
<text text-anchor="middle" x="854.5" y="-22" font-family="Helvetica,sans-Serif" font-size="10.00" fill="#000000">_by_num</text>
</a>
</g>
</g>
<!-- Node1960&#45;&gt;Node2141 -->
<g id="edge33" class="edge">
<title>Node1960&#45;&gt;Node2141</title>
<path fill="none" stroke="#191970" d="M35.4432,-142.4129C43.4331,-121.5265 65.2448,-71.6563 100,-45 153.037,-4.3222 176.6599,0 243.5,0 243.5,0 243.5,0 543.5,0 633.6775,0 737.8864,-12.6514 799.8737,-21.5227"/>
<polygon fill="#191970" stroke="#191970" points="799.425,-24.9942 809.824,-22.9663 800.4301,-18.0667 799.425,-24.9942"/>
</g>
<!-- Node2152 -->
<g id="node22" class="node">
<title>Node2152</title>
<g id="a_node22"><a xlink:href="dict__ext_8h.html#affb00364829956930ef20d851f569aab" target="_top" xlink:title="Return the vendor number for an attribute. ">
<polygon fill="none" stroke="#ff0000" points="654.5,-96 654.5,-126 756.5,-126 756.5,-96 654.5,-96"/>
<text text-anchor="start" x="662.5" y="-114" font-family="Helvetica,sans-Serif" font-size="10.00" fill="#000000">fr_dict_vendor_num</text>
<text text-anchor="middle" x="705.5" y="-103" font-family="Helvetica,sans-Serif" font-size="10.00" fill="#000000">_by_da</text>
</a>
</g>
</g>
<!-- Node1960&#45;&gt;Node2152 -->
<g id="edge35" class="edge">
<title>Node1960&#45;&gt;Node2152</title>
<path fill="none" stroke="#191970" d="M47.2387,-142.3745C81.1222,-121.924 165.8553,-76 243.5,-76 243.5,-76 243.5,-76 384,-76 475.1338,-76 579.9497,-90.0706 644.4601,-100.3689"/>
<polygon fill="#191970" stroke="#191970" points="644.0287,-103.8446 654.4593,-101.9866 645.1467,-96.9344 644.0287,-103.8446"/>
</g>
<!-- Node2153 -->
<g id="node23" class="node">
<title>Node2153</title>
<g id="a_node23"><a xlink:href="dict_8h.html#a097b7c156d8149666eec5bdf2a1e0d9d" target="_top" xlink:title="Free dynamically allocated (unknown attributes) ">
<polygon fill="none" stroke="#000000" points="650.5,-145.5 650.5,-164.5 760.5,-164.5 760.5,-145.5 650.5,-145.5"/>
<text text-anchor="middle" x="705.5" y="-152.5" font-family="Helvetica,sans-Serif" font-size="10.00" fill="#000000">fr_dict_unknown_free</text>
</a>
</g>
</g>
<!-- Node1960&#45;&gt;Node2153 -->
<g id="edge37" class="edge">
<title>Node1960&#45;&gt;Node2153</title>
<path fill="none" stroke="#191970" d="M64.2486,-152C105.7211,-152 179.9766,-152 243.5,-152 243.5,-152 243.5,-152 384,-152 472.748,-152 575.2703,-153.1572 640.2246,-154.0342"/>
<polygon fill="#191970" stroke="#191970" points="640.2719,-157.535 650.3189,-154.1723 640.3678,-150.5357 640.2719,-157.535"/>
</g>
<!-- Node1962 -->
<g id="node3" class="node">
<title>Node1962</title>
<g id="a_node3"><a xlink:href="dict_8h.html#acbac066f62ea93bac2dee18970af6ded" target="_top" xlink:title="Initialise a fr_dict_attr_t from an ASCII attribute and value. ">
<polygon fill="none" stroke="#000000" points="652,-213 652,-243 759,-243 759,-213 652,-213"/>
<text text-anchor="start" x="660" y="-231" font-family="Helvetica,sans-Serif" font-size="10.00" fill="#000000">fr_dict_unknown_attr</text>
<text text-anchor="middle" x="705.5" y="-220" font-family="Helvetica,sans-Serif" font-size="10.00" fill="#000000">_afrom_num</text>
</a>
</g>
</g>
<!-- Node1961&#45;&gt;Node1962 -->
<g id="edge2" class="edge">
<title>Node1961&#45;&gt;Node1962</title>
<path fill="none" stroke="#191970" d="M169.3591,-205.4652C262.9991,-209.401 521.0613,-220.2478 641.7362,-225.3199"/>
<polygon fill="#191970" stroke="#191970" points="641.7919,-228.8253 651.9301,-225.7484 642.086,-221.8314 641.7919,-228.8253"/>
</g>
<!-- Node1961&#45;&gt;Node2123 -->
<g id="edge11" class="edge">
<title>Node1961&#45;&gt;Node2123</title>
<path fill="none" stroke="#191970" d="M151.5313,-213.6875C169.289,-223.7882 197.333,-239.7399 217.7882,-251.375"/>
<polygon fill="#191970" stroke="#191970" points="216.1656,-254.4786 226.5883,-256.3805 219.6266,-248.394 216.1656,-254.4786"/>
</g>
<!-- Node1961&#45;&gt;Node2153 -->
<g id="edge32" class="edge">
<title>Node1961&#45;&gt;Node2153</title>
<path fill="none" stroke="#191970" d="M169.0529,-201.4658C246.4465,-195.7282 439.5923,-181.067 601,-166 613.684,-164.816 627.2239,-163.4594 640.209,-162.1125"/>
<polygon fill="#191970" stroke="#191970" points="640.8955,-165.5599 650.4768,-161.0379 640.1668,-158.5979 640.8955,-165.5599"/>
</g>
<!-- Node1963 -->
<g id="node4" class="node">
<title>Node1963</title>
<g id="a_node4"><a xlink:href="strerror_8c.html#ae701765650b8aea79a3037bc4921d7f8" target="_top" xlink:title="Log to thread local error buffer. ">
<polygon fill="none" stroke="#000000" points="811.5,-370.5 811.5,-389.5 897.5,-389.5 897.5,-370.5 811.5,-370.5"/>
<text text-anchor="middle" x="854.5" y="-377.5" font-family="Helvetica,sans-Serif" font-size="10.00" fill="#000000">fr_strerror_printf</text>
</a>
</g>
</g>
<!-- Node1962&#45;&gt;Node1963 -->
<g id="edge3" class="edge">
<title>Node1962&#45;&gt;Node1963</title>
<path fill="none" stroke="#191970" d="M720.3314,-243.13C748.3057,-271.6676 808.6723,-333.2496 837.9314,-363.0978"/>
<polygon fill="#191970" stroke="#191970" points="835.485,-365.602 844.9847,-370.2932 840.4839,-360.7018 835.485,-365.602"/>
</g>
<!-- Node2097 -->
<g id="node8" class="node">
<title>Node2097</title>
<g id="a_node8"><a xlink:href="dict__priv_8h.html#a6681feeba02608bb815b94653b76193e" target="_top" xlink:title="Allocate a dictionary attribute on the heap. ">
<polygon fill="none" stroke="#000000" points="816,-143.5 816,-162.5 893,-162.5 893,-143.5 816,-143.5"/>
<text text-anchor="middle" x="854.5" y="-150.5" font-family="Helvetica,sans-Serif" font-size="10.00" fill="#000000">dict_attr_alloc</text>
</a>
</g>
</g>
<!-- Node1962&#45;&gt;Node2097 -->
<g id="edge8" class="edge">
<title>Node1962&#45;&gt;Node2097</title>
<path fill="none" stroke="#191970" d="M735.6524,-212.8226C762.1596,-199.4801 800.4433,-180.2097 826.3385,-167.1752"/>
<polygon fill="#191970" stroke="#191970" points="827.915,-170.3002 835.2736,-162.6777 824.7677,-164.0476 827.915,-170.3002"/>
</g>
<!-- Node1964 -->
<g id="node5" class="node">
<title>Node1964</title>
<g id="a_node5"><a xlink:href="acutest_8h.html#aecf9a9be8105efb1454cd8c1ef6cb1c5" target="_top" xlink:title="va_start">
<polygon fill="none" stroke="#000000" points="958,-370.5 958,-389.5 1010,-389.5 1010,-370.5 958,-370.5"/>
<text text-anchor="middle" x="984" y="-377.5" font-family="Helvetica,sans-Serif" font-size="10.00" fill="#000000">va_start</text>
</a>
</g>
</g>
<!-- Node1963&#45;&gt;Node1964 -->
<g id="edge4" class="edge">
<title>Node1963&#45;&gt;Node1964</title>
<path fill="none" stroke="#191970" d="M897.6216,-380C913.7627,-380 931.9296,-380 947.4231,-380"/>
<polygon fill="#191970" stroke="#191970" points="947.6645,-383.5001 957.6645,-380 947.6645,-376.5001 947.6645,-383.5001"/>
</g>
<!-- Node1965 -->
<g id="node6" class="node">
<title>Node1965</title>
<g id="a_node6"><a xlink:href="strerror_8c.html#a193b1e0b3712e3bbee338812c06af482" target="_top" xlink:title="fr_strerror_vprintf">
<polygon fill="none" stroke="#ff0000" points="938.5,-332.5 938.5,-351.5 1029.5,-351.5 1029.5,-332.5 938.5,-332.5"/>
<text text-anchor="middle" x="984" y="-339.5" font-family="Helvetica,sans-Serif" font-size="10.00" fill="#000000">fr_strerror_vprintf</text>
</a>
</g>
</g>
<!-- Node1963&#45;&gt;Node1965 -->
<g id="edge5" class="edge">
<title>Node1963&#45;&gt;Node1965</title>
<path fill="none" stroke="#191970" d="M887.1783,-370.411C903.5888,-365.5956 923.6763,-359.7012 941.2922,-354.532"/>
<polygon fill="#191970" stroke="#191970" points="942.7222,-357.7601 951.3321,-351.5859 940.7512,-351.0433 942.7222,-357.7601"/>
</g>
<!-- Node1968 -->
<g id="node7" class="node">
<title>Node1968</title>
<g id="a_node7"><a xlink:href="acutest_8h.html#a36af1f79dd6adf0809c21e76535034d5" target="_top" xlink:title="va_end">
<polygon fill="none" stroke="#000000" points="1069,-370.5 1069,-389.5 1117,-389.5 1117,-370.5 1069,-370.5"/>
<text text-anchor="middle" x="1093" y="-377.5" font-family="Helvetica,sans-Serif" font-size="10.00" fill="#000000">va_end</text>
</a>
</g>
</g>
<!-- Node1963&#45;&gt;Node1968 -->
<g id="edge7" class="edge">
<title>Node1963&#45;&gt;Node1968</title>
<path fill="none" stroke="#191970" d="M887.0938,-389.5067C901.6199,-393.2711 919.025,-397.1403 935,-399 978.2634,-404.0364 989.9555,-405.6526 1033,-399 1041.6926,-397.6565 1050.8512,-395.2793 1059.3232,-392.6512"/>
<polygon fill="#191970" stroke="#191970" points="1060.4837,-395.954 1068.8842,-389.4977 1058.2911,-389.3062 1060.4837,-395.954"/>
</g>
<!-- Node1965&#45;&gt;Node1968 -->
<g id="edge6" class="edge">
<title>Node1965&#45;&gt;Node1968</title>
<path fill="none" stroke="#191970" d="M1011.5053,-351.589C1025.991,-356.6391 1043.8807,-362.8758 1059.205,-368.2182"/>
<polygon fill="#191970" stroke="#191970" points="1058.2484,-371.5913 1068.8432,-371.5784 1060.5527,-364.9814 1058.2484,-371.5913"/>
</g>
<!-- Node2098 -->
<g id="node9" class="node">
<title>Node2098</title>
<g id="a_node9"><a xlink:href="dict__util_8c.html#a4166602674502233a29f38b5cfecd15f" target="_top" xlink:title="Allocate a partially completed attribute. ">
<polygon fill="none" stroke="#000000" points="935,-124.5 935,-143.5 1033,-143.5 1033,-124.5 935,-124.5"/>
<text text-anchor="middle" x="984" y="-131.5" font-family="Helvetica,sans-Serif" font-size="10.00" fill="#000000">dict_attr_alloc_null</text>
</a>
</g>
</g>
<!-- Node2097&#45;&gt;Node2098 -->
<g id="edge9" class="edge">
<title>Node2097&#45;&gt;Node2098</title>
<path fill="none" stroke="#191970" d="M893.0036,-147.3508C902.9477,-145.8918 913.8858,-144.287 924.6254,-142.7113"/>
<polygon fill="#191970" stroke="#191970" points="925.4363,-146.1299 934.8223,-141.2153 924.4201,-139.2041 925.4363,-146.1299"/>
</g>
<!-- Node2099 -->
<g id="node10" class="node">
<title>Node2099</title>
<g id="a_node10"><a xlink:href="dict__util_8c.html#a0fdc97e0a12a818ad9b28c9b24aa164e" target="_top" xlink:title="Initialise fields in a dictionary attribute structure. ">
<polygon fill="none" stroke="#ff0000" points="949,-162.5 949,-181.5 1019,-181.5 1019,-162.5 949,-162.5"/>
<text text-anchor="middle" x="984" y="-169.5" font-family="Helvetica,sans-Serif" font-size="10.00" fill="#000000">dict_attr_init</text>
</a>
</g>
</g>
<!-- Node2097&#45;&gt;Node2099 -->
<g id="edge10" class="edge">
<title>Node2097&#45;&gt;Node2099</title>
<path fill="none" stroke="#191970" d="M893.0036,-158.6492C907.4211,-160.7645 923.9283,-163.1864 938.8901,-165.3816"/>
<polygon fill="#191970" stroke="#191970" points="938.5546,-168.8697 948.9568,-166.8585 939.5708,-161.9439 938.5546,-168.8697"/>
</g>
<!-- Node2123&#45;&gt;Node1960 -->
<g id="edge12" class="edge">
<title>Node2123&#45;&gt;Node1960</title>
<path fill="none" stroke="#191970" d="M204.7257,-267.312C174.5095,-263.0158 132.39,-251.8165 100,-232 74.584,-216.4503 52.2106,-189.0922 40.5488,-170.4072"/>
<polygon fill="#191970" stroke="#191970" points="43.4746,-168.4732 35.4674,-161.5352 37.4003,-171.9522 43.4746,-168.4732"/>
</g>
<!-- Node2123&#45;&gt;Node1963 -->
<g id="edge14" class="edge">
<title>Node2123&#45;&gt;Node1963</title>
<path fill="none" stroke="#191970" d="M250.379,-275.8163C276.1763,-311.6221 371.5655,-435.1861 486,-475 528.2827,-489.7109 771.7835,-463.0295 774,-462 804.1458,-447.9984 829.1503,-417.4883 842.9365,-397.8892"/>
<polygon fill="#191970" stroke="#191970" points="845.9044,-399.7486 848.6183,-389.5073 840.1101,-395.8209 845.9044,-399.7486"/>
</g>
<!-- Node2124 -->
<g id="node12" class="node">
<title>Node2124</title>
<g id="a_node12"><a xlink:href="protocols_2dhcpv4_2decode_8c.html#a61f0afb4691471c4f1c5d5d3ae35ea1f" target="_top" xlink:title="Returns the number of array members for arrays with fixed element sizes. ">
<polygon fill="none" stroke="#000000" points="318,-256.5 318,-275.5 450,-275.5 450,-256.5 318,-256.5"/>
<text text-anchor="middle" x="384" y="-263.5" font-family="Helvetica,sans-Serif" font-size="10.00" fill="#000000">fr_dhcpv4_array_members</text>
</a>
</g>
</g>
<!-- Node2123&#45;&gt;Node2124 -->
<g id="edge13" class="edge">
<title>Node2123&#45;&gt;Node2124</title>
<path fill="none" stroke="#191970" d="M282.2642,-266C290.2902,-266 299.0076,-266 307.8505,-266"/>
<polygon fill="#191970" stroke="#191970" points="307.8577,-269.5001 317.8577,-266 307.8577,-262.5001 307.8577,-269.5001"/>
</g>
<!-- Node2125 -->
<g id="node13" class="node">
<title>Node2125</title>
<g id="a_node13"><a xlink:href="protocols_2dhcpv4_2decode_8c.html#a96c1964055262f30ca00fb34d93b834e" target="_top" xlink:title="decode_value_internal">
<polygon fill="none" stroke="#000000" points="327.5,-313.5 327.5,-332.5 440.5,-332.5 440.5,-313.5 327.5,-313.5"/>
<text text-anchor="middle" x="384" y="-320.5" font-family="Helvetica,sans-Serif" font-size="10.00" fill="#000000">decode_value_internal</text>
</a>
</g>
</g>
<!-- Node2123&#45;&gt;Node2125 -->
<g id="edge15" class="edge">
<title>Node2123&#45;&gt;Node2125</title>
<path fill="none" stroke="#191970" d="M267.0165,-275.5405C290.014,-284.8705 325.2404,-299.1616 351.0299,-309.6242"/>
<polygon fill="#191970" stroke="#191970" points="349.8245,-312.9122 360.4067,-313.4284 352.4561,-306.4257 349.8245,-312.9122"/>
</g>
<!-- Node2126 -->
<g id="node14" class="node">
<title>Node2126</title>
<g id="a_node14"><a xlink:href="pair_8c.html#a2897183dcbc65ef1b54619bd293fd735" target="_top" xlink:title="Dynamically allocate a new attribute and fill in the da field. ">
<polygon fill="none" stroke="#ff0000" points="499,-446.5 499,-465.5 588,-465.5 588,-446.5 499,-446.5"/>
<text text-anchor="middle" x="543.5" y="-453.5" font-family="Helvetica,sans-Serif" font-size="10.00" fill="#000000">fr_pair_afrom_da</text>
</a>
</g>
</g>
<!-- Node2125&#45;&gt;Node2126 -->
<g id="edge16" class="edge">
<title>Node2125&#45;&gt;Node2126</title>
<path fill="none" stroke="#191970" d="M390.8441,-332.7425C405.8842,-353.5326 443.8509,-402.7299 486,-432 491.6711,-435.9383 498.0888,-439.4047 504.5282,-442.3896"/>
<polygon fill="#191970" stroke="#191970" points="503.3245,-445.6819 513.8937,-446.4174 506.09,-439.2513 503.3245,-445.6819"/>
</g>
<!-- Node2130 -->
<g id="node15" class="node">
<title>Node2130</title>
<g id="a_node15"><a xlink:href="dict_8h.html#af5e7c4344dae37b2ae61c1b78c0cc1bc" target="_top" xlink:title="Copy a known or unknown attribute to produce an unknown attribute with the specified name...">
<polygon fill="none" stroke="#ff0000" points="646,-408.5 646,-427.5 765,-427.5 765,-408.5 646,-408.5"/>
<text text-anchor="middle" x="705.5" y="-415.5" font-family="Helvetica,sans-Serif" font-size="10.00" fill="#000000">fr_dict_unknown_acopy</text>
</a>
</g>
</g>
<!-- Node2125&#45;&gt;Node2130 -->
<g id="edge19" class="edge">
<title>Node2125&#45;&gt;Node2130</title>
<path fill="none" stroke="#191970" d="M397.088,-332.6787C415.7934,-346.003 451.7129,-369.7368 486,-382 534.4074,-399.3136 591.829,-408.3555 635.798,-413.0467"/>
<polygon fill="#191970" stroke="#191970" points="635.5145,-416.5358 645.8174,-414.0656 636.2228,-409.5718 635.5145,-416.5358"/>
</g>
<!-- Node2135 -->
<g id="node16" class="node">
<title>Node2135</title>
<g id="a_node16"><a xlink:href="pair_8c.html#a94b766c393971cb82e7208df7d1d5d95" target="_top" xlink:title="Copy data into a &quot;string&quot; type value pair. ">
<polygon fill="none" stroke="#ff0000" points="486,-332.5 486,-351.5 601,-351.5 601,-332.5 486,-332.5"/>
<text text-anchor="middle" x="543.5" y="-339.5" font-family="Helvetica,sans-Serif" font-size="10.00" fill="#000000">fr_pair_value_bstrndup</text>
</a>
</g>
</g>
<!-- Node2125&#45;&gt;Node2135 -->
<g id="edge20" class="edge">
<title>Node2125&#45;&gt;Node2135</title>
<path fill="none" stroke="#191970" d="M440.6828,-329.7522C452.0405,-331.1051 464.0812,-332.5394 475.7693,-333.9318"/>
<polygon fill="#191970" stroke="#191970" points="475.5801,-337.4339 485.9239,-335.1414 476.4081,-330.483 475.5801,-337.4339"/>
</g>
<!-- Node2136 -->
<g id="node17" class="node">
<title>Node2136</title>
<g id="a_node17"><a xlink:href="cursor_8c.html#a6e72682a046a3eeac734da6639f1817c" target="_top" xlink:title="Insert a single item at the end of the list. ">
<polygon fill="none" stroke="#ff0000" points="497.5,-294.5 497.5,-313.5 589.5,-313.5 589.5,-294.5 497.5,-294.5"/>
<text text-anchor="middle" x="543.5" y="-301.5" font-family="Helvetica,sans-Serif" font-size="10.00" fill="#000000">fr_cursor_append</text>
</a>
</g>
</g>
<!-- Node2125&#45;&gt;Node2136 -->
<g id="edge21" class="edge">
<title>Node2125&#45;&gt;Node2136</title>
<path fill="none" stroke="#191970" d="M440.6828,-316.2478C455.8152,-314.4452 472.16,-312.4982 487.268,-310.6985"/>
<polygon fill="#191970" stroke="#191970" points="487.984,-314.138 497.4998,-309.4797 487.1559,-307.1872 487.984,-314.138"/>
</g>
<!-- Node2138 -->
<g id="node18" class="node">
<title>Node2138</title>
<g id="a_node18"><a xlink:href="value_8c.html#ae02199d4f2a1aa2a8d6d617f1b072f20" target="_top" xlink:title="Decode a fr_value_box_t from serialized binary data. ">
<polygon fill="none" stroke="#ff0000" points="637,-370.5 637,-389.5 774,-389.5 774,-370.5 637,-370.5"/>
<text text-anchor="middle" x="705.5" y="-377.5" font-family="Helvetica,sans-Serif" font-size="10.00" fill="#000000">fr_value_box_from_network</text>
</a>
</g>
</g>
<!-- Node2125&#45;&gt;Node2138 -->
<g id="edge22" class="edge">
<title>Node2125&#45;&gt;Node2138</title>
<path fill="none" stroke="#191970" d="M404.5927,-332.559C424.8447,-341.5033 456.8716,-354.441 486,-361 531.8496,-371.3243 584.2513,-376.1149 626.3538,-378.3055"/>
<polygon fill="#191970" stroke="#191970" points="626.392,-381.8113 636.5487,-378.796 626.7285,-374.8194 626.392,-381.8113"/>
</g>
<!-- Node2139 -->
<g id="node19" class="node">
<title>Node2139</title>
<g id="a_node19"><a xlink:href="pair_8c.html#acef35ba3cb2e396515cba5e01ca776ff" target="_top" xlink:title="Mark malformed or unrecognised attributed as unknown. ">
<polygon fill="none" stroke="#000000" points="493,-104.5 493,-123.5 594,-123.5 594,-104.5 493,-104.5"/>
<text text-anchor="middle" x="543.5" y="-111.5" font-family="Helvetica,sans-Serif" font-size="10.00" fill="#000000">fr_pair_to_unknown</text>
</a>
</g>
</g>
<!-- Node2125&#45;&gt;Node2139 -->
<g id="edge24" class="edge">
<title>Node2125&#45;&gt;Node2139</title>
<path fill="none" stroke="#191970" d="M407.4916,-313.3749C421.1488,-306.8944 437.9806,-297.2872 450,-285 494.8345,-239.1666 524.5245,-167.4941 536.9251,-133.3471"/>
<polygon fill="#191970" stroke="#191970" points="540.3164,-134.2542 540.341,-123.6593 533.7148,-131.9264 540.3164,-134.2542"/>
</g>
<!-- Node2154 -->
<g id="node24" class="node">
<title>Node2154</title>
<g id="a_node24"><a xlink:href="pair_8c.html#ad6a4af5aec8fe8bac9db2211ae354989" target="_top" xlink:title="Copy data into an &quot;octets&quot; data type. ">
<polygon fill="none" stroke="#ff0000" points="486,-256.5 486,-275.5 601,-275.5 601,-256.5 486,-256.5"/>
<text text-anchor="middle" x="543.5" y="-263.5" font-family="Helvetica,sans-Serif" font-size="10.00" fill="#000000">fr_pair_value_memdup</text>
</a>
</g>
</g>
<!-- Node2125&#45;&gt;Node2154 -->
<g id="edge31" class="edge">
<title>Node2125&#45;&gt;Node2154</title>
<path fill="none" stroke="#191970" d="M409.0554,-313.367C429.6449,-305.5231 459.6133,-294.2711 486,-285 491.9235,-282.9187 498.2125,-280.7746 504.374,-278.7101"/>
<polygon fill="#191970" stroke="#191970" points="505.494,-282.0262 513.8806,-275.552 503.2871,-275.3831 505.494,-282.0262"/>
</g>
<!-- Node2126&#45;&gt;Node1963 -->
<g id="edge17" class="edge">
<title>Node2126&#45;&gt;Node1963</title>
<path fill="none" stroke="#191970" d="M588.3086,-459.1649C635.8694,-460.9722 712.5002,-459.3923 774,-437 798.1667,-428.2008 821.6843,-410.1077 836.9966,-396.6541"/>
<polygon fill="#191970" stroke="#191970" points="839.5569,-399.0572 844.6114,-389.7457 834.8534,-393.8728 839.5569,-399.0572"/>
</g>
<!-- Node2126&#45;&gt;Node2130 -->
<g id="edge18" class="edge">
<title>Node2126&#45;&gt;Node2130</title>
<path fill="none" stroke="#191970" d="M584.3794,-446.411C605.8534,-441.3739 632.3605,-435.1562 655.097,-429.8229"/>
<polygon fill="#191970" stroke="#191970" points="655.9781,-433.2113 664.9145,-427.5201 654.3795,-426.3963 655.9781,-433.2113"/>
</g>
<!-- Node2138&#45;&gt;Node1963 -->
<g id="edge23" class="edge">
<title>Node2138&#45;&gt;Node1963</title>
<path fill="none" stroke="#191970" d="M774.3301,-380C783.4278,-380 792.639,-380 801.4166,-380"/>
<polygon fill="#191970" stroke="#191970" points="801.489,-383.5001 811.489,-380 801.4889,-376.5001 801.489,-383.5001"/>
</g>
<!-- Node2139&#45;&gt;Node2140 -->
<g id="edge25" class="edge">
<title>Node2139&#45;&gt;Node2140</title>
<path fill="none" stroke="#191970" d="M573.2133,-104.4624C594.3533,-97.6767 623.4109,-88.3496 648.9089,-80.165"/>
<polygon fill="#191970" stroke="#191970" points="650.0313,-83.4807 658.4831,-77.0918 647.8919,-76.8157 650.0313,-83.4807"/>
</g>
<!-- Node2139&#45;&gt;Node2152 -->
<g id="edge29" class="edge">
<title>Node2139&#45;&gt;Node2152</title>
<path fill="none" stroke="#191970" d="M594.3133,-113.059C610.143,-112.7659 627.7676,-112.4395 644.2336,-112.1346"/>
<polygon fill="#191970" stroke="#191970" points="644.3765,-115.6326 654.31,-111.948 644.2468,-108.6338 644.3765,-115.6326"/>
</g>
<!-- Node2139&#45;&gt;Node2153 -->
<g id="edge30" class="edge">
<title>Node2139&#45;&gt;Node2153</title>
<path fill="none" stroke="#191970" d="M581.0732,-123.5093C603.9934,-129.3101 633.4999,-136.7777 658.0265,-142.9851"/>
<polygon fill="#191970" stroke="#191970" points="657.2972,-146.4108 667.8503,-145.4714 659.0147,-139.6248 657.2972,-146.4108"/>
</g>
<!-- Node2140&#45;&gt;Node1963 -->
<g id="edge26" class="edge">
<title>Node2140&#45;&gt;Node1963</title>
<path fill="none" stroke="#191970" d="M763.1395,-77.1548C767.1285,-79.6648 770.8201,-82.5902 774,-86 793.2826,-106.6766 836.4671,-297.7007 850.212,-360.2648"/>
<polygon fill="#191970" stroke="#191970" points="846.8687,-361.36 852.4235,-370.3819 853.7072,-359.8652 846.8687,-361.36"/>
</g>
<!-- Node2140&#45;&gt;Node2097 -->
<g id="edge28" class="edge">
<title>Node2140&#45;&gt;Node2097</title>
<path fill="none" stroke="#191970" d="M755.4467,-77.1285C761.8489,-79.7493 768.1895,-82.7073 774,-86 798.2483,-99.7412 822.3189,-121.0472 837.7314,-135.9327"/>
<polygon fill="#191970" stroke="#191970" points="835.379,-138.5285 844.957,-143.0576 840.2939,-133.5441 835.379,-138.5285"/>
</g>
<!-- Node2140&#45;&gt;Node2141 -->
<g id="edge27" class="edge">
<title>Node2140&#45;&gt;Node2141</title>
<path fill="none" stroke="#191970" d="M764.8169,-49.2608C776.3662,-46.7804 788.424,-44.1908 799.8152,-41.7444"/>
<polygon fill="#191970" stroke="#191970" points="800.5825,-45.1595 809.6246,-39.6377 799.1126,-38.3155 800.5825,-45.1595"/>
</g>
</g>
</svg>
