<?xml version="1.0" encoding="UTF-8" standalone="no"?>
<!DOCTYPE svg PUBLIC "-//W3C//DTD SVG 1.1//EN"
 "http://www.w3.org/Graphics/SVG/1.1/DTD/svg11.dtd">
<!-- Generated by graphviz version 2.40.1 (20161225.0304)
 -->
<!-- Title: decode_value_trampoline Pages: 1 -->
<svg width="815pt" height="128pt"
 viewBox="0.00 0.00 815.00 127.64" xmlns="http://www.w3.org/2000/svg" xmlns:xlink="http://www.w3.org/1999/xlink">
<g id="graph0" class="graph" transform="scale(1 1) rotate(0) translate(4 123.6384)">
<title>decode_value_trampoline</title>
<!-- Node2013 -->
<g id="node1" class="node">
<title>Node2013</title>
<polygon fill="#bfbfbf" stroke="#000000" points="0,-62.1384 0,-81.1384 127,-81.1384 127,-62.1384 0,-62.1384"/>
<text text-anchor="middle" x="63.5" y="-69.1384" font-family="Helvetica,sans-Serif" font-size="10.00" fill="#000000">decode_value_trampoline</text>
</g>
<!-- Node2014 -->
<g id="node2" class="node">
<title>Node2014</title>
<g id="a_node2"><a xlink:href="protocols_2dhcpv6_2decode_8c.html#a6c91b096437722c39c3ab9087c9792f3" target="_top" xlink:title="decode_value">
<polygon fill="none" stroke="#000000" points="163,-24.1384 163,-43.1384 240,-43.1384 240,-24.1384 163,-24.1384"/>
<text text-anchor="middle" x="201.5" y="-31.1384" font-family="Helvetica,sans-Serif" font-size="10.00" fill="#000000">decode_value</text>
</a>
</g>
</g>
<!-- Node2013&#45;&gt;Node2014 -->
<g id="edge1" class="edge">
<title>Node2013&#45;&gt;Node2014</title>
<path fill="none" stroke="#191970" d="M90.6817,-58.6556C111.3087,-51.5531 139.9411,-43.4586 162.9346,-38.1291"/>
<polygon fill="#191970" stroke="#191970" points="89.4831,-55.3671 81.2586,-62.0461 91.853,-61.9537 89.4831,-55.3671"/>
</g>
<!-- Node2014&#45;&gt;Node2013 -->
<g id="edge19" class="edge">
<title>Node2014&#45;&gt;Node2013</title>
<path fill="none" stroke="#191970" d="M174.4202,-46.5862C159.5588,-51.7076 140.5194,-57.3485 122.4247,-62.0984"/>
<polygon fill="#191970" stroke="#191970" points="175.7578,-49.8246 183.9784,-43.141 173.3841,-43.2393 175.7578,-49.8246"/>
</g>
<!-- Node2015 -->
<g id="node3" class="node">
<title>Node2015</title>
<g id="a_node3"><a xlink:href="protocols_2dhcpv6_2decode_8c.html#a40fdbf82b0dea1d2f1f00c89b6f10cdc" target="_top" xlink:title="decode_raw">
<polygon fill="none" stroke="#000000" points="276,-24.1384 276,-43.1384 345,-43.1384 345,-24.1384 276,-24.1384"/>
<text text-anchor="middle" x="310.5" y="-31.1384" font-family="Helvetica,sans-Serif" font-size="10.00" fill="#000000">decode_raw</text>
</a>
</g>
</g>
<!-- Node2014&#45;&gt;Node2015 -->
<g id="edge2" class="edge">
<title>Node2014&#45;&gt;Node2015</title>
<path fill="none" stroke="#191970" d="M250.2415,-26.922C258.886,-26.8208 267.726,-26.9483 275.8783,-27.3045"/>
<polygon fill="#191970" stroke="#191970" points="250.1554,-23.423 240.2362,-27.1459 250.3121,-30.4212 250.1554,-23.423"/>
</g>
<!-- Node2016 -->
<g id="node4" class="node">
<title>Node2016</title>
<g id="a_node4"><a xlink:href="protocols_2dhcpv6_2decode_8c.html#a2561637d84f26b2a487c035d66cbe182" target="_top" xlink:title="decode_array">
<polygon fill="none" stroke="#000000" points="393.5,-100.1384 393.5,-119.1384 468.5,-119.1384 468.5,-100.1384 393.5,-100.1384"/>
<text text-anchor="middle" x="431" y="-107.1384" font-family="Helvetica,sans-Serif" font-size="10.00" fill="#000000">decode_array</text>
</a>
</g>
</g>
<!-- Node2014&#45;&gt;Node2016 -->
<g id="edge20" class="edge">
<title>Node2014&#45;&gt;Node2016</title>
<path fill="none" stroke="#191970" d="M240.1455,-46.4361C285.937,-61.6001 361.173,-86.5149 402.1697,-100.0911"/>
<polygon fill="#191970" stroke="#191970" points="241.1597,-43.0851 230.5663,-43.2639 238.9591,-49.7302 241.1597,-43.0851"/>
</g>
<!-- Node2017 -->
<g id="node5" class="node">
<title>Node2017</title>
<g id="a_node5"><a xlink:href="protocols_2dhcpv6_2decode_8c.html#a2a3921d61423eb9a88833b99d9870906" target="_top" xlink:title="decode_option">
<polygon fill="none" stroke="#ff0000" points="517,-62.1384 517,-81.1384 597,-81.1384 597,-62.1384 517,-62.1384"/>
<text text-anchor="middle" x="557" y="-69.1384" font-family="Helvetica,sans-Serif" font-size="10.00" fill="#000000">decode_option</text>
</a>
</g>
</g>
<!-- Node2014&#45;&gt;Node2017 -->
<g id="edge21" class="edge">
<title>Node2014&#45;&gt;Node2017</title>
<path fill="none" stroke="#191970" d="M241.4547,-21.4969C252.5357,-18.6661 264.6432,-16.0638 276,-14.6384 373.2998,-2.4265 487.2513,-42.7637 534.6076,-62.0052"/>
<polygon fill="#191970" stroke="#191970" points="240.3707,-18.1638 231.6178,-24.1336 242.1831,-24.9251 240.3707,-18.1638"/>
</g>
<!-- Node2015&#45;&gt;Node2014 -->
<g id="edge3" class="edge">
<title>Node2015&#45;&gt;Node2014</title>
<path fill="none" stroke="#191970" d="M265.7661,-40.2912C257.2966,-40.4615 248.5018,-40.4081 240.2362,-40.1309"/>
<polygon fill="#191970" stroke="#191970" points="265.9936,-43.7858 275.8783,-39.9724 265.773,-36.7893 265.9936,-43.7858"/>
</g>
<!-- Node2015&#45;&gt;Node2016 -->
<g id="edge4" class="edge">
<title>Node2015&#45;&gt;Node2016</title>
<path fill="none" stroke="#191970" d="M345.8779,-49.8418C362.3711,-64.2637 364.8342,-71.6704 381,-81.6384 393.6469,-89.4367 410.0164,-94.909 420.5151,-100.1139"/>
<polygon fill="#191970" stroke="#191970" points="347.8021,-46.8907 337.8696,-43.2036 343.3349,-52.28 347.8021,-46.8907"/>
</g>
<!-- Node2018 -->
<g id="node6" class="node">
<title>Node2018</title>
<g id="a_node6"><a xlink:href="protocols_2dhcpv6_2decode_8c.html#a4effcb3b4d24ad44adb4601a9a0fbadc" target="_top" xlink:title="Like decode_option(), but decodes all of the options. ">
<polygon fill="none" stroke="#000000" points="633,-24.1384 633,-43.1384 702,-43.1384 702,-24.1384 633,-24.1384"/>
<text text-anchor="middle" x="667.5" y="-31.1384" font-family="Helvetica,sans-Serif" font-size="10.00" fill="#000000">decode_tlvs</text>
</a>
</g>
</g>
<!-- Node2015&#45;&gt;Node2018 -->
<g id="edge17" class="edge">
<title>Node2015&#45;&gt;Node2018</title>
<path fill="none" stroke="#191970" d="M355.1828,-33.6384C427.3079,-33.6384 567.8653,-33.6384 632.9259,-33.6384"/>
<polygon fill="#191970" stroke="#191970" points="355.0551,-30.1385 345.055,-33.6384 355.055,-37.1385 355.0551,-30.1385"/>
</g>
<!-- Node2019 -->
<g id="node7" class="node">
<title>Node2019</title>
<g id="a_node7"><a xlink:href="protocols_2dhcpv6_2decode_8c.html#a3d9439187ff8b409796cca6ca4a725b3" target="_top" xlink:title="decode_vsa">
<polygon fill="none" stroke="#000000" points="738,-24.1384 738,-43.1384 807,-43.1384 807,-24.1384 738,-24.1384"/>
<text text-anchor="middle" x="772.5" y="-31.1384" font-family="Helvetica,sans-Serif" font-size="10.00" fill="#000000">decode_vsa</text>
</a>
</g>
</g>
<!-- Node2015&#45;&gt;Node2019 -->
<g id="edge18" class="edge">
<title>Node2015&#45;&gt;Node2019</title>
<path fill="none" stroke="#191970" d="M355.4502,-26.2355C428.4714,-15.3786 577.262,1.8756 702,-14.6384 716.0746,-16.5018 731.3281,-20.3714 744.035,-24.1352"/>
<polygon fill="#191970" stroke="#191970" points="354.5995,-22.8245 345.2383,-27.7861 355.6504,-29.7451 354.5995,-22.8245"/>
</g>
<!-- Node2024 -->
<g id="node8" class="node">
<title>Node2024</title>
<g id="a_node8"><a xlink:href="protocols_2dhcpv6_2decode_8c.html#a8ed1cf2e6a7ec6e02820c1f1105cfbf0" target="_top" xlink:title="decode_dns_labels">
<polygon fill="none" stroke="#000000" points="381,-62.1384 381,-81.1384 481,-81.1384 481,-62.1384 381,-62.1384"/>
<text text-anchor="middle" x="431" y="-69.1384" font-family="Helvetica,sans-Serif" font-size="10.00" fill="#000000">decode_dns_labels</text>
</a>
</g>
</g>
<!-- Node2015&#45;&gt;Node2024 -->
<g id="edge13" class="edge">
<title>Node2015&#45;&gt;Node2024</title>
<path fill="none" stroke="#191970" d="M354.8636,-41.0917C376.1066,-47.2086 400.1871,-55.4133 415.4752,-62.0382"/>
<polygon fill="#191970" stroke="#191970" points="355.6026,-37.6644 345.0305,-38.3571 353.7271,-44.4085 355.6026,-37.6644"/>
</g>
<!-- Node2016&#45;&gt;Node2013 -->
<g id="edge6" class="edge">
<title>Node2016&#45;&gt;Node2013</title>
<path fill="none" stroke="#191970" d="M382.9672,-106.0717C329.2782,-101.9141 239.7904,-94.4735 163,-85.6384 151.3888,-84.3025 139.0399,-82.7069 127.1348,-81.0791"/>
<polygon fill="#191970" stroke="#191970" points="382.9746,-109.5825 393.2134,-106.8589 383.5109,-102.6031 382.9746,-109.5825"/>
</g>
<!-- Node2016&#45;&gt;Node2015 -->
<g id="edge5" class="edge">
<title>Node2016&#45;&gt;Node2015</title>
<path fill="none" stroke="#191970" d="M384.3447,-101.6002C383.2062,-100.9646 382.0893,-100.3101 381,-99.6384 362.5248,-88.2464 361.947,-80.1998 345,-66.6384 335.0875,-58.7062 322.7116,-50.4695 315.8004,-43.1806"/>
<polygon fill="#191970" stroke="#191970" points="382.8767,-104.7789 393.3912,-106.0815 385.984,-98.5063 382.8767,-104.7789"/>
</g>
<!-- Node2016&#45;&gt;Node2017 -->
<g id="edge7" class="edge">
<title>Node2016&#45;&gt;Node2017</title>
<path fill="none" stroke="#191970" d="M472.5644,-97.1031C489.7052,-91.9337 509.2496,-86.0393 525.2151,-81.2244"/>
<polygon fill="#191970" stroke="#191970" points="471.3586,-93.811 462.7951,-100.0494 473.3798,-100.5129 471.3586,-93.811"/>
</g>
<!-- Node2017&#45;&gt;Node2018 -->
<g id="edge8" class="edge">
<title>Node2017&#45;&gt;Node2018</title>
<path fill="none" stroke="#191970" d="M580.6209,-57.8647C595.7521,-51.473 615.6556,-44.4034 632.594,-39.3167"/>
<polygon fill="#191970" stroke="#191970" points="579.1646,-54.6817 571.4459,-61.9393 582.0058,-61.0792 579.1646,-54.6817"/>
</g>
<!-- Node2018&#45;&gt;Node2014 -->
<g id="edge9" class="edge">
<title>Node2018&#45;&gt;Node2014</title>
<path fill="none" stroke="#191970" d="M622.7282,-24.2823C549.6627,-10.4643 400.4481,11.6852 276,-8.6384 257.9576,-11.5849 238.3913,-18.2965 223.8399,-24.0243"/>
<polygon fill="#191970" stroke="#191970" points="622.4616,-27.7954 632.9438,-26.2545 623.7885,-20.9223 622.4616,-27.7954"/>
</g>
<!-- Node2018&#45;&gt;Node2017 -->
<g id="edge12" class="edge">
<title>Node2018&#45;&gt;Node2017</title>
<path fill="none" stroke="#191970" d="M644.1833,-47.2835C630.5615,-53.0538 612.9962,-59.393 597.2056,-64.3346"/>
<polygon fill="#191970" stroke="#191970" points="645.614,-50.4778 653.3234,-43.2104 642.7646,-44.0839 645.614,-50.4778"/>
</g>
<!-- Node2018&#45;&gt;Node2019 -->
<g id="edge10" class="edge">
<title>Node2018&#45;&gt;Node2019</title>
<path fill="none" stroke="#191970" d="M712.3784,-33.6384C720.9084,-33.6384 729.7126,-33.6384 737.8645,-33.6384"/>
<polygon fill="#191970" stroke="#191970" points="712.172,-30.1385 702.1719,-33.6384 712.1719,-37.1385 712.172,-30.1385"/>
</g>
<!-- Node2019&#45;&gt;Node2017 -->
<g id="edge11" class="edge">
<title>Node2019&#45;&gt;Node2017</title>
<path fill="none" stroke="#191970" d="M730.8299,-45.851C721.4048,-48.3383 711.4034,-50.7639 702,-52.6384 666.8926,-59.6371 626.471,-64.6901 597.2393,-67.8177"/>
<polygon fill="#191970" stroke="#191970" points="732.0417,-49.1488 740.7753,-43.1509 730.2076,-42.3933 732.0417,-49.1488"/>
</g>
<!-- Node2024&#45;&gt;Node2013 -->
<g id="edge15" class="edge">
<title>Node2024&#45;&gt;Node2013</title>
<path fill="none" stroke="#191970" d="M370.8543,-71.6384C303.7326,-71.6384 195.5835,-71.6384 127.0941,-71.6384"/>
<polygon fill="#191970" stroke="#191970" points="370.8561,-75.1385 380.8561,-71.6384 370.856,-68.1385 370.8561,-75.1385"/>
</g>
<!-- Node2024&#45;&gt;Node2015 -->
<g id="edge14" class="edge">
<title>Node2024&#45;&gt;Node2015</title>
<path fill="none" stroke="#191970" d="M371.0843,-59.4938C354.4985,-54.2725 337.8789,-48.3586 326.2533,-43.3375"/>
<polygon fill="#191970" stroke="#191970" points="370.2211,-62.8899 380.8078,-62.4759 372.2736,-56.1975 370.2211,-62.8899"/>
</g>
<!-- Node2024&#45;&gt;Node2017 -->
<g id="edge16" class="edge">
<title>Node2024&#45;&gt;Node2017</title>
<path fill="none" stroke="#191970" d="M491.2302,-71.6384C499.8684,-71.6384 508.5763,-71.6384 516.7024,-71.6384"/>
<polygon fill="#191970" stroke="#191970" points="491.1606,-68.1385 481.1606,-71.6384 491.1605,-75.1385 491.1606,-68.1385"/>
</g>
</g>
</svg>
