<?xml version="1.0" encoding="UTF-8" standalone="no"?>
<!DOCTYPE svg PUBLIC "-//W3C//DTD SVG 1.1//EN"
 "http://www.w3.org/Graphics/SVG/1.1/DTD/svg11.dtd">
<!-- Generated by graphviz version 2.40.1 (20161225.0304)
 -->
<!-- Title: mod_load Pages: 1 -->
<svg width="1210pt" height="550pt"
 viewBox="0.00 0.00 1210.00 549.89" xmlns="http://www.w3.org/2000/svg" xmlns:xlink="http://www.w3.org/1999/xlink">
<g id="graph0" class="graph" transform="scale(1 1) rotate(0) translate(4 545.8948)">
<title>mod_load</title>
<!-- Node1933 -->
<g id="node1" class="node">
<title>Node1933</title>
<polygon fill="#bfbfbf" stroke="#000000" points="0,-396.5093 0,-415.5093 59,-415.5093 59,-396.5093 0,-396.5093"/>
<text text-anchor="middle" x="29.5" y="-403.5093" font-family="Helvetica,sans-Serif" font-size="10.00" fill="#000000">mod_load</text>
</g>
<!-- Node1934 -->
<g id="node2" class="node">
<title>Node1934</title>
<g id="a_node2"><a xlink:href="protocols_2dhcpv6_2base_8c.html#a6570cd67607756861bf6ed07cbd57b88" target="_top" xlink:title="fr_dhcpv6_global_init">
<polygon fill="none" stroke="#000000" points="95,-396.5093 95,-415.5093 203,-415.5093 203,-396.5093 95,-396.5093"/>
<text text-anchor="middle" x="149" y="-403.5093" font-family="Helvetica,sans-Serif" font-size="10.00" fill="#000000">fr_dhcpv6_global_init</text>
</a>
</g>
</g>
<!-- Node1933&#45;&gt;Node1934 -->
<g id="edge1" class="edge">
<title>Node1933&#45;&gt;Node1934</title>
<path fill="none" stroke="#191970" d="M59.0393,-406.0093C66.8732,-406.0093 75.6473,-406.0093 84.5614,-406.0093"/>
<polygon fill="#191970" stroke="#191970" points="84.6427,-409.5094 94.6426,-406.0093 84.6426,-402.5094 84.6427,-409.5094"/>
</g>
<!-- Node1935 -->
<g id="node3" class="node">
<title>Node1935</title>
<g id="a_node3"><a xlink:href="dict_8h.html#a10a10d51e32b7c32cd3226eb3a20c5e3" target="_top" xlink:title="Process a dict_autoload element to load a protocol. ">
<polygon fill="none" stroke="#000000" points="267.5,-396.5093 267.5,-415.5093 353.5,-415.5093 353.5,-396.5093 267.5,-396.5093"/>
<text text-anchor="middle" x="310.5" y="-403.5093" font-family="Helvetica,sans-Serif" font-size="10.00" fill="#000000">fr_dict_autoload</text>
</a>
</g>
</g>
<!-- Node1934&#45;&gt;Node1935 -->
<g id="edge2" class="edge">
<title>Node1934&#45;&gt;Node1935</title>
<path fill="none" stroke="#191970" d="M203.2264,-406.0093C220.5284,-406.0093 239.6579,-406.0093 256.9142,-406.0093"/>
<polygon fill="#191970" stroke="#191970" points="257.3835,-409.5094 267.3834,-406.0093 257.3834,-402.5094 257.3835,-409.5094"/>
</g>
<!-- Node2237 -->
<g id="node20" class="node">
<title>Node2237</title>
<g id="a_node20"><a xlink:href="dict_8h.html#a9f3bf5c0208b67be69551a3f2ac6b0e6" target="_top" xlink:title="Process a dict_attr_autoload element to load/verify a dictionary attribute. ">
<polygon fill="none" stroke="#000000" points="738,-519.5093 738,-538.5093 843,-538.5093 843,-519.5093 738,-519.5093"/>
<text text-anchor="middle" x="790.5" y="-526.5093" font-family="Helvetica,sans-Serif" font-size="10.00" fill="#000000">fr_dict_attr_autoload</text>
</a>
</g>
</g>
<!-- Node1934&#45;&gt;Node2237 -->
<g id="edge31" class="edge">
<title>Node1934&#45;&gt;Node2237</title>
<path fill="none" stroke="#191970" d="M157.9712,-415.5463C173.1158,-431.031 205.4021,-461.4703 239,-477.0093 402.2472,-552.511 621.314,-545.4493 727.5148,-536.1624"/>
<polygon fill="#191970" stroke="#191970" points="728.1015,-539.6235 737.7425,-535.2302 727.466,-532.6524 728.1015,-539.6235"/>
</g>
<!-- Node2238 -->
<g id="node23" class="node">
<title>Node2238</title>
<g id="a_node23"><a xlink:href="dict_8h.html#af02d9b5797d2d60942a51ed08952afd2" target="_top" xlink:title="Decrement the reference count on a previously loaded dictionary. ">
<polygon fill="none" stroke="#000000" points="268.5,-212.5093 268.5,-231.5093 352.5,-231.5093 352.5,-212.5093 268.5,-212.5093"/>
<text text-anchor="middle" x="310.5" y="-219.5093" font-family="Helvetica,sans-Serif" font-size="10.00" fill="#000000">fr_dict_autofree</text>
</a>
</g>
</g>
<!-- Node1934&#45;&gt;Node2238 -->
<g id="edge37" class="edge">
<title>Node1934&#45;&gt;Node2238</title>
<path fill="none" stroke="#191970" d="M157.4556,-396.3757C183.4012,-366.8154 262.132,-277.1159 295.4021,-239.2106"/>
<polygon fill="#191970" stroke="#191970" points="298.162,-241.372 302.1281,-231.5475 292.901,-236.7543 298.162,-241.372"/>
</g>
<!-- Node2239 -->
<g id="node25" class="node">
<title>Node2239</title>
<g id="a_node25"><a xlink:href="dict_8h.html#a67417b974f68a58820f4357292edd080" target="_top" xlink:title="Iterate over children of a DA. ">
<polygon fill="none" stroke="#000000" points="436,-435.0093 436,-465.0093 531,-465.0093 531,-435.0093 436,-435.0093"/>
<text text-anchor="start" x="444" y="-453.0093" font-family="Helvetica,sans-Serif" font-size="10.00" fill="#000000">fr_dict_attr_iterate</text>
<text text-anchor="middle" x="483.5" y="-442.0093" font-family="Helvetica,sans-Serif" font-size="10.00" fill="#000000">_children</text>
</a>
</g>
</g>
<!-- Node1934&#45;&gt;Node2239 -->
<g id="edge39" class="edge">
<title>Node1934&#45;&gt;Node2239</title>
<path fill="none" stroke="#191970" d="M189.6014,-415.5364C205.0053,-418.8988 222.7487,-422.4704 239,-425.0093 302.5637,-434.9397 376.0661,-441.8448 425.7511,-445.8435"/>
<polygon fill="#191970" stroke="#191970" points="425.7347,-449.3531 435.9796,-446.6527 426.2868,-442.3749 425.7347,-449.3531"/>
</g>
<!-- Node2113 -->
<g id="node26" class="node">
<title>Node2113</title>
<g id="a_node26"><a xlink:href="dict_8h.html#a7c79c676c03022a0e7404ae0232bd902" target="_top" xlink:title="Return the root attribute of a dictionary. ">
<polygon fill="none" stroke="#000000" points="278,-358.5093 278,-377.5093 343,-377.5093 343,-358.5093 278,-358.5093"/>
<text text-anchor="middle" x="310.5" y="-365.5093" font-family="Helvetica,sans-Serif" font-size="10.00" fill="#000000">fr_dict_root</text>
</a>
</g>
</g>
<!-- Node1934&#45;&gt;Node2113 -->
<g id="edge41" class="edge">
<title>Node1934&#45;&gt;Node2113</title>
<path fill="none" stroke="#191970" d="M189.7533,-396.4203C213.6281,-390.8027 243.7436,-383.7167 267.9259,-378.0267"/>
<polygon fill="#191970" stroke="#191970" points="268.9585,-381.3794 277.891,-375.682 267.3551,-374.5655 268.9585,-381.3794"/>
</g>
<!-- Node2155 -->
<g id="node27" class="node">
<title>Node2155</title>
<g id="a_node27"><a xlink:href="dict_8h.html#a8bdd85fb469508febfe1962007d9e346" target="_top" xlink:title="Add a value name. ">
<polygon fill="none" stroke="#ff0000" points="239,-320.5093 239,-339.5093 382,-339.5093 382,-320.5093 239,-320.5093"/>
<text text-anchor="middle" x="310.5" y="-327.5093" font-family="Helvetica,sans-Serif" font-size="10.00" fill="#000000">fr_dict_attr_enum_add_name</text>
</a>
</g>
</g>
<!-- Node1934&#45;&gt;Node2155 -->
<g id="edge42" class="edge">
<title>Node1934&#45;&gt;Node2155</title>
<path fill="none" stroke="#191970" d="M161.4219,-396.3951C178.1762,-383.8501 209.3439,-361.9746 239,-349.0093 244.4282,-346.6361 250.2215,-344.5013 256.072,-342.5961"/>
<polygon fill="#191970" stroke="#191970" points="257.3672,-345.8606 265.9179,-339.6047 255.3322,-339.1629 257.3672,-345.8606"/>
</g>
<!-- Node2204 -->
<g id="node28" class="node">
<title>Node2204</title>
<g id="a_node28"><a xlink:href="dict_8h.html#a20911734abfc7925da034bee50c29637" target="_top" xlink:title="Coerce to non&#45;const. ">
<polygon fill="none" stroke="#ff0000" points="432,-484.5093 432,-503.5093 535,-503.5093 535,-484.5093 432,-484.5093"/>
<text text-anchor="middle" x="483.5" y="-491.5093" font-family="Helvetica,sans-Serif" font-size="10.00" fill="#000000">fr_dict_attr_unconst</text>
</a>
</g>
</g>
<!-- Node1934&#45;&gt;Node2204 -->
<g id="edge43" class="edge">
<title>Node1934&#45;&gt;Node2204</title>
<path fill="none" stroke="#191970" d="M166.7693,-415.6353C184.5713,-424.9079 212.9902,-438.7152 239,-447.0093 299.681,-466.3594 371.5096,-479.0052 421.5498,-486.2538"/>
<polygon fill="#191970" stroke="#191970" points="421.1786,-489.7361 431.5712,-487.6756 422.162,-482.8055 421.1786,-489.7361"/>
</g>
<!-- Node1936 -->
<g id="node4" class="node">
<title>Node1936</title>
<g id="a_node4"><a xlink:href="strerror_8c.html#ae701765650b8aea79a3037bc4921d7f8" target="_top" xlink:title="Log to thread local error buffer. ">
<polygon fill="none" stroke="#000000" points="892,-329.5093 892,-348.5093 978,-348.5093 978,-329.5093 892,-329.5093"/>
<text text-anchor="middle" x="935" y="-336.5093" font-family="Helvetica,sans-Serif" font-size="10.00" fill="#000000">fr_strerror_printf</text>
</a>
</g>
</g>
<!-- Node1935&#45;&gt;Node1936 -->
<g id="edge3" class="edge">
<title>Node1935&#45;&gt;Node1936</title>
<path fill="none" stroke="#191970" d="M353.851,-408.1322C463.9134,-413.054 751.8718,-422.8788 843,-396.0093 870.8782,-387.7893 898.6563,-368.6915 916.2766,-354.863"/>
<polygon fill="#191970" stroke="#191970" points="918.4881,-357.5759 924.0665,-348.5685 914.0886,-352.1312 918.4881,-357.5759"/>
</g>
<!-- Node2070 -->
<g id="node8" class="node">
<title>Node2070</title>
<g id="a_node8"><a xlink:href="dict_8h.html#ad922c3b43868cfa7051c93ac4100356e" target="_top" xlink:title="(Re&#45;)Initialize the special internal dictionary ">
<polygon fill="none" stroke="#000000" points="419.5,-177.5093 419.5,-196.5093 547.5,-196.5093 547.5,-177.5093 419.5,-177.5093"/>
<text text-anchor="middle" x="483.5" y="-184.5093" font-family="Helvetica,sans-Serif" font-size="10.00" fill="#000000">fr_dict_internal_afrom_file</text>
</a>
</g>
</g>
<!-- Node1935&#45;&gt;Node2070 -->
<g id="edge8" class="edge">
<title>Node1935&#45;&gt;Node2070</title>
<path fill="none" stroke="#191970" d="M353.7188,-400.688C363.786,-397.8602 373.9134,-393.5547 382,-387.0093 385.9117,-383.8431 449.733,-255.2912 474.1243,-205.987"/>
<polygon fill="#191970" stroke="#191970" points="477.4003,-207.258 478.6949,-196.7425 471.1253,-204.1555 477.4003,-207.258"/>
</g>
<!-- Node2236 -->
<g id="node18" class="node">
<title>Node2236</title>
<g id="a_node18"><a xlink:href="dict_8h.html#a43b6813c34c672a0f1330af386e2064c" target="_top" xlink:title="(Re)&#45;initialize a protocol dictionary ">
<polygon fill="none" stroke="#000000" points="418,-329.5093 418,-348.5093 549,-348.5093 549,-329.5093 418,-329.5093"/>
<text text-anchor="middle" x="483.5" y="-336.5093" font-family="Helvetica,sans-Serif" font-size="10.00" fill="#000000">fr_dict_protocol_afrom_file</text>
</a>
</g>
</g>
<!-- Node1935&#45;&gt;Node2236 -->
<g id="edge26" class="edge">
<title>Node1935&#45;&gt;Node2236</title>
<path fill="none" stroke="#191970" d="M351.7339,-396.4221C361.7493,-393.7191 372.3504,-390.5397 382,-387.0093 408.2333,-377.4115 436.9024,-363.5179 457.06,-353.1455"/>
<polygon fill="#191970" stroke="#191970" points="458.7009,-356.2372 465.9531,-348.5134 455.4672,-350.0288 458.7009,-356.2372"/>
</g>
<!-- Node1937 -->
<g id="node5" class="node">
<title>Node1937</title>
<g id="a_node5"><a xlink:href="acutest_8h.html#aecf9a9be8105efb1454cd8c1ef6cb1c5" target="_top" xlink:title="va_start">
<polygon fill="none" stroke="#000000" points="1046.5,-367.5093 1046.5,-386.5093 1098.5,-386.5093 1098.5,-367.5093 1046.5,-367.5093"/>
<text text-anchor="middle" x="1072.5" y="-374.5093" font-family="Helvetica,sans-Serif" font-size="10.00" fill="#000000">va_start</text>
</a>
</g>
</g>
<!-- Node1936&#45;&gt;Node1937 -->
<g id="edge4" class="edge">
<title>Node1936&#45;&gt;Node1937</title>
<path fill="none" stroke="#191970" d="M969.6971,-348.5983C990.2079,-354.2667 1016.1286,-361.4303 1036.8105,-367.146"/>
<polygon fill="#191970" stroke="#191970" points="1035.9248,-370.5324 1046.4959,-369.8227 1037.7895,-363.7853 1035.9248,-370.5324"/>
</g>
<!-- Node1938 -->
<g id="node6" class="node">
<title>Node1938</title>
<g id="a_node6"><a xlink:href="strerror_8c.html#a193b1e0b3712e3bbee338812c06af482" target="_top" xlink:title="fr_strerror_vprintf">
<polygon fill="none" stroke="#ff0000" points="1027,-329.5093 1027,-348.5093 1118,-348.5093 1118,-329.5093 1027,-329.5093"/>
<text text-anchor="middle" x="1072.5" y="-336.5093" font-family="Helvetica,sans-Serif" font-size="10.00" fill="#000000">fr_strerror_vprintf</text>
</a>
</g>
</g>
<!-- Node1936&#45;&gt;Node1938 -->
<g id="edge5" class="edge">
<title>Node1936&#45;&gt;Node1938</title>
<path fill="none" stroke="#191970" d="M978.1286,-339.0093C990.3091,-339.0093 1003.7416,-339.0093 1016.5585,-339.0093"/>
<polygon fill="#191970" stroke="#191970" points="1016.6697,-342.5094 1026.6697,-339.0093 1016.6697,-335.5094 1016.6697,-342.5094"/>
</g>
<!-- Node1941 -->
<g id="node7" class="node">
<title>Node1941</title>
<g id="a_node7"><a xlink:href="acutest_8h.html#a36af1f79dd6adf0809c21e76535034d5" target="_top" xlink:title="va_end">
<polygon fill="none" stroke="#000000" points="1154,-310.5093 1154,-329.5093 1202,-329.5093 1202,-310.5093 1154,-310.5093"/>
<text text-anchor="middle" x="1178" y="-317.5093" font-family="Helvetica,sans-Serif" font-size="10.00" fill="#000000">va_end</text>
</a>
</g>
</g>
<!-- Node1936&#45;&gt;Node1941 -->
<g id="edge7" class="edge">
<title>Node1936&#45;&gt;Node1941</title>
<path fill="none" stroke="#191970" d="M972.3311,-329.4999C988.9474,-325.735 1008.8282,-321.8661 1027,-320.0093 1066.8924,-315.933 1113.0233,-316.728 1143.6946,-318.0283"/>
<polygon fill="#191970" stroke="#191970" points="1143.711,-321.5328 1153.8631,-318.5022 1144.0369,-314.5404 1143.711,-321.5328"/>
</g>
<!-- Node1938&#45;&gt;Node1941 -->
<g id="edge6" class="edge">
<title>Node1938&#45;&gt;Node1941</title>
<path fill="none" stroke="#191970" d="M1118.1602,-330.7861C1126.7746,-329.2347 1135.6458,-327.6371 1143.8325,-326.1627"/>
<polygon fill="#191970" stroke="#191970" points="1144.5439,-329.591 1153.7651,-324.3739 1143.3031,-322.7018 1144.5439,-329.591"/>
</g>
<!-- Node2070&#45;&gt;Node1936 -->
<g id="edge9" class="edge">
<title>Node2070&#45;&gt;Node1936</title>
<path fill="none" stroke="#191970" d="M547.5486,-186.1898C623.2659,-188 750.6365,-199.9926 843,-255.0093 859.3011,-264.7191 896.4724,-300.5762 918.2495,-322.1788"/>
<polygon fill="#191970" stroke="#191970" points="915.9566,-324.8351 925.509,-329.4179 920.8994,-319.8784 915.9566,-324.8351"/>
</g>
<!-- Node2071 -->
<g id="node9" class="node">
<title>Node2071</title>
<g id="a_node9"><a xlink:href="dict_8h.html#affc6da9f3cf22c133eea08e494612f07" target="_top" xlink:title="fr_dict_global_dir">
<polygon fill="none" stroke="#000000" points="598.5,-253.5093 598.5,-272.5093 688.5,-272.5093 688.5,-253.5093 598.5,-253.5093"/>
<text text-anchor="middle" x="643.5" y="-260.5093" font-family="Helvetica,sans-Serif" font-size="10.00" fill="#000000">fr_dict_global_dir</text>
</a>
</g>
</g>
<!-- Node2070&#45;&gt;Node2071 -->
<g id="edge10" class="edge">
<title>Node2070&#45;&gt;Node2071</title>
<path fill="none" stroke="#191970" d="M498.4905,-196.6753C517.8803,-208.8819 552.9744,-229.9808 585,-244.0093 590.0129,-246.2051 595.3632,-248.2833 600.715,-250.2028"/>
<polygon fill="#191970" stroke="#191970" points="599.6826,-253.5487 610.2772,-253.4779 601.9508,-246.9264 599.6826,-253.5487"/>
</g>
<!-- Node2072 -->
<g id="node10" class="node">
<title>Node2072</title>
<g id="a_node10"><a xlink:href="dict__priv_8h.html#a99277860278aad27241d46d0a1a80a59" target="_top" xlink:title="Allocate a new dictionary. ">
<polygon fill="none" stroke="#ff0000" points="761.5,-63.5093 761.5,-82.5093 819.5,-82.5093 819.5,-63.5093 761.5,-63.5093"/>
<text text-anchor="middle" x="790.5" y="-70.5093" font-family="Helvetica,sans-Serif" font-size="10.00" fill="#000000">dict_alloc</text>
</a>
</g>
</g>
<!-- Node2070&#45;&gt;Node2072 -->
<g id="edge11" class="edge">
<title>Node2070&#45;&gt;Node2072</title>
<path fill="none" stroke="#191970" d="M532.8472,-177.3894C538.6483,-174.9396 544.2005,-171.8658 549,-168.0093 575.0465,-147.0802 557.5332,-121.036 585,-102.0093 634.4934,-67.7244 706.9328,-65.842 751.2741,-68.6688"/>
<polygon fill="#191970" stroke="#191970" points="751.1369,-72.1683 761.3705,-69.4252 751.6599,-65.1878 751.1369,-72.1683"/>
</g>
<!-- Node2106 -->
<g id="node11" class="node">
<title>Node2106</title>
<g id="a_node11"><a xlink:href="dict__tokenize_8c.html#affb1e41088cd2a1c2b3958c6dbcff634" target="_top" xlink:title="Set a new root dictionary attribute. ">
<polygon fill="none" stroke="#000000" points="607,-139.5093 607,-158.5093 680,-158.5093 680,-139.5093 607,-139.5093"/>
<text text-anchor="middle" x="643.5" y="-146.5093" font-family="Helvetica,sans-Serif" font-size="10.00" fill="#000000">dict_root_set</text>
</a>
</g>
</g>
<!-- Node2070&#45;&gt;Node2106 -->
<g id="edge13" class="edge">
<title>Node2070&#45;&gt;Node2106</title>
<path fill="none" stroke="#191970" d="M523.8748,-177.4203C546.1319,-172.1342 573.8637,-165.5479 597.0208,-160.0481"/>
<polygon fill="#191970" stroke="#191970" points="598.0477,-163.4017 606.9683,-157.6856 596.4301,-156.5911 598.0477,-163.4017"/>
</g>
<!-- Node2107 -->
<g id="node12" class="node">
<title>Node2107</title>
<g id="a_node12"><a xlink:href="dict__priv_8h.html#a6681feeba02608bb815b94653b76193e" target="_top" xlink:title="Allocate a dictionary attribute on the heap. ">
<polygon fill="none" stroke="#ff0000" points="752,-101.5093 752,-120.5093 829,-120.5093 829,-101.5093 752,-101.5093"/>
<text text-anchor="middle" x="790.5" y="-108.5093" font-family="Helvetica,sans-Serif" font-size="10.00" fill="#000000">dict_attr_alloc</text>
</a>
</g>
</g>
<!-- Node2070&#45;&gt;Node2107 -->
<g id="edge19" class="edge">
<title>Node2070&#45;&gt;Node2107</title>
<path fill="none" stroke="#191970" d="M528.5358,-177.3951C535.6575,-174.9143 542.7316,-171.8299 549,-168.0093 568.8654,-155.9014 564.075,-140.1768 585,-130.0093 634.5253,-105.9448 698.6462,-103.9256 741.9913,-106.1558"/>
<polygon fill="#191970" stroke="#191970" points="741.803,-109.6507 751.9972,-106.7649 742.2284,-102.6636 741.803,-109.6507"/>
</g>
<!-- Node2133 -->
<g id="node13" class="node">
<title>Node2133</title>
<g id="a_node13"><a xlink:href="talloc_8c.html#aba1ce57098bd0d4f569907465358cff2" target="_top" xlink:title="Call talloc vasprintf, setting the type on the new chunk correctly. ">
<polygon fill="none" stroke="#000000" points="881.5,-253.5093 881.5,-272.5093 988.5,-272.5093 988.5,-253.5093 881.5,-253.5093"/>
<text text-anchor="middle" x="935" y="-260.5093" font-family="Helvetica,sans-Serif" font-size="10.00" fill="#000000">talloc_typed_asprintf</text>
</a>
</g>
</g>
<!-- Node2070&#45;&gt;Node2133 -->
<g id="edge16" class="edge">
<title>Node2070&#45;&gt;Node2133</title>
<path fill="none" stroke="#191970" d="M536.155,-177.4311C540.922,-174.9596 545.3274,-171.8694 549,-168.0093 596.8538,-117.7125 530.5457,-59.073 585,-16.0093 625.7871,16.2461 650.4498,-9.1846 702,-16.0093 766.3412,-24.5274 793.7672,-11.7189 843,-54.0093 902.5022,-105.121 924.9841,-202.0729 932.1268,-243.4744"/>
<polygon fill="#191970" stroke="#191970" points="928.6769,-244.0661 933.7213,-253.383 935.588,-242.9539 928.6769,-244.0661"/>
</g>
<!-- Node2134 -->
<g id="node14" class="node">
<title>Node2134</title>
<g id="a_node14"><a xlink:href="hash_8c.html#af264cbdf3d59241c93ec4f95e4dce181" target="_top" xlink:title="fr_hash_table_insert">
<polygon fill="none" stroke="#ff0000" points="591.5,-25.5093 591.5,-44.5093 695.5,-44.5093 695.5,-25.5093 591.5,-25.5093"/>
<text text-anchor="middle" x="643.5" y="-32.5093" font-family="Helvetica,sans-Serif" font-size="10.00" fill="#000000">fr_hash_table_insert</text>
</a>
</g>
</g>
<!-- Node2070&#45;&gt;Node2134 -->
<g id="edge20" class="edge">
<title>Node2070&#45;&gt;Node2134</title>
<path fill="none" stroke="#191970" d="M535.1761,-177.4181C540.2504,-174.956 544.9935,-171.8715 549,-168.0093 585.7307,-132.6014 550.2151,-96.3305 585,-59.0093 588.5576,-55.1923 592.8108,-51.9653 597.3786,-49.2409"/>
<polygon fill="#191970" stroke="#191970" points="599.1432,-52.2696 606.4505,-44.598 595.954,-46.0383 599.1432,-52.2696"/>
</g>
<!-- Node2137 -->
<g id="node15" class="node">
<title>Node2137</title>
<g id="a_node15"><a xlink:href="dict__priv_8h.html#a89e2461694d420b76248f368aca49fc8" target="_top" xlink:title="Add a child to a parent. ">
<polygon fill="none" stroke="#ff0000" points="594.5,-215.5093 594.5,-234.5093 692.5,-234.5093 692.5,-215.5093 594.5,-215.5093"/>
<text text-anchor="middle" x="643.5" y="-222.5093" font-family="Helvetica,sans-Serif" font-size="10.00" fill="#000000">dict_attr_child_add</text>
</a>
</g>
</g>
<!-- Node2070&#45;&gt;Node2137 -->
<g id="edge21" class="edge">
<title>Node2070&#45;&gt;Node2137</title>
<path fill="none" stroke="#191970" d="M523.8748,-196.5983C544.9885,-201.6128 571.0287,-207.7974 593.4169,-213.1146"/>
<polygon fill="#191970" stroke="#191970" points="592.8774,-216.5837 603.4156,-215.4892 594.495,-209.7732 592.8774,-216.5837"/>
</g>
<!-- Node2143 -->
<g id="node17" class="node">
<title>Node2143</title>
<g id="a_node17"><a xlink:href="dict__tokenize_8c.html#a68539ee3162ef52bd4fa5b3b87dd3ece" target="_top" xlink:title="dict_from_file">
<polygon fill="none" stroke="#ff0000" points="606,-291.5093 606,-310.5093 681,-310.5093 681,-291.5093 606,-291.5093"/>
<text text-anchor="middle" x="643.5" y="-298.5093" font-family="Helvetica,sans-Serif" font-size="10.00" fill="#000000">dict_from_file</text>
</a>
</g>
</g>
<!-- Node2070&#45;&gt;Node2143 -->
<g id="edge25" class="edge">
<title>Node2070&#45;&gt;Node2143</title>
<path fill="none" stroke="#191970" d="M491.1385,-196.5457C506.7921,-215.4884 544.4681,-258.0872 585,-282.0093 588.621,-284.1464 592.5121,-286.0756 596.5045,-287.8103"/>
<polygon fill="#191970" stroke="#191970" points="595.3372,-291.1121 605.9245,-291.5111 597.8969,-284.5968 595.3372,-291.1121"/>
</g>
<!-- Node2072&#45;&gt;Node1936 -->
<g id="edge12" class="edge">
<title>Node2072&#45;&gt;Node1936</title>
<path fill="none" stroke="#191970" d="M819.5924,-77.7829C828.2608,-80.5745 837.0298,-84.9984 843,-92.0093 898.723,-157.4449 839.1666,-205.8505 879,-282.0093 887.3583,-297.9898 901.6686,-312.4389 913.7306,-322.791"/>
<polygon fill="#191970" stroke="#191970" points="911.672,-325.6295 921.6211,-329.2717 916.1149,-320.2201 911.672,-325.6295"/>
</g>
<!-- Node2106&#45;&gt;Node1936 -->
<g id="edge14" class="edge">
<title>Node2106&#45;&gt;Node1936</title>
<path fill="none" stroke="#191970" d="M680.3769,-142.6001C724.1869,-137.1932 797.1019,-135.4537 843,-173.0093 882.4849,-205.3173 852.4304,-238.4557 879,-282.0093 888.5095,-297.5975 903.0444,-312.2245 914.923,-322.758"/>
<polygon fill="#191970" stroke="#191970" points="912.7563,-325.5105 922.6279,-329.3578 917.3101,-320.1942 912.7563,-325.5105"/>
</g>
<!-- Node2106&#45;&gt;Node2107 -->
<g id="edge15" class="edge">
<title>Node2106&#45;&gt;Node2107</title>
<path fill="none" stroke="#191970" d="M680.2151,-139.5183C699.5085,-134.5309 723.3581,-128.3657 743.9377,-123.0458"/>
<polygon fill="#191970" stroke="#191970" points="744.9377,-126.4024 753.7435,-120.511 743.1857,-119.6252 744.9377,-126.4024"/>
</g>
<!-- Node2133&#45;&gt;Node1937 -->
<g id="edge17" class="edge">
<title>Node2133&#45;&gt;Node1937</title>
<path fill="none" stroke="#191970" d="M944.566,-272.639C955.758,-283.9302 974.8184,-303.2366 991,-320.0093 1007.1528,-336.7521 1007.8517,-344.7966 1027,-358.0093 1030.2367,-360.2426 1033.7768,-362.2863 1037.4074,-364.1364"/>
<polygon fill="#191970" stroke="#191970" points="1035.9506,-367.3188 1046.4967,-368.3343 1038.8857,-360.9638 1035.9506,-367.3188"/>
</g>
<!-- Node2133&#45;&gt;Node1941 -->
<g id="edge18" class="edge">
<title>Node2133&#45;&gt;Node1941</title>
<path fill="none" stroke="#191970" d="M975.6727,-272.5498C1022.8287,-283.6111 1099.7128,-301.6456 1143.8823,-312.0064"/>
<polygon fill="#191970" stroke="#191970" points="1143.3074,-315.4664 1153.8424,-314.3427 1144.906,-308.6514 1143.3074,-315.4664"/>
</g>
<!-- Node2137&#45;&gt;Node1936 -->
<g id="edge22" class="edge">
<title>Node2137&#45;&gt;Node1936</title>
<path fill="none" stroke="#191970" d="M674.3094,-234.5495C683.2841,-237.4542 693.0743,-240.7451 702,-244.0093 775.0427,-270.7211 859.1809,-306.2263 903.6547,-325.3749"/>
<polygon fill="#191970" stroke="#191970" points="902.4746,-328.6776 913.0428,-329.428 905.2492,-322.251 902.4746,-328.6776"/>
</g>
<!-- Node2140 -->
<g id="node16" class="node">
<title>Node2140</title>
<g id="a_node16"><a xlink:href="dict__ext__priv_8h.html#ab9957ca8234bd279f920d24b700893d3" target="_top" xlink:title="dict_attr_children">
<polygon fill="none" stroke="#ff0000" points="745,-367.5093 745,-386.5093 836,-386.5093 836,-367.5093 745,-367.5093"/>
<text text-anchor="middle" x="790.5" y="-374.5093" font-family="Helvetica,sans-Serif" font-size="10.00" fill="#000000">dict_attr_children</text>
</a>
</g>
</g>
<!-- Node2137&#45;&gt;Node2140 -->
<g id="edge23" class="edge">
<title>Node2137&#45;&gt;Node2140</title>
<path fill="none" stroke="#191970" d="M684.8884,-234.559C690.9694,-237.0372 696.895,-240.1377 702,-244.0093 742.3474,-274.6084 770.159,-329.2114 782.7931,-358.0152"/>
<polygon fill="#191970" stroke="#191970" points="779.6318,-359.5257 786.7562,-367.3676 786.0771,-356.7945 779.6318,-359.5257"/>
</g>
<!-- Node2140&#45;&gt;Node1936 -->
<g id="edge24" class="edge">
<title>Node2140&#45;&gt;Node1936</title>
<path fill="none" stroke="#191970" d="M826.9635,-367.4203C845.7741,-362.4735 868.9146,-356.3882 888.9472,-351.1201"/>
<polygon fill="#191970" stroke="#191970" points="890.0177,-354.4576 898.7988,-348.5293 888.2374,-347.6878 890.0177,-354.4576"/>
</g>
<!-- Node2236&#45;&gt;Node1936 -->
<g id="edge27" class="edge">
<title>Node2236&#45;&gt;Node1936</title>
<path fill="none" stroke="#191970" d="M524.7383,-348.5203C543.0801,-352.2855 565.007,-356.1541 585,-358.0093 636.7776,-362.8137 650.043,-360.1242 702,-358.0093 763.7702,-355.4949 834.5237,-349.246 881.7009,-344.5968"/>
<polygon fill="#191970" stroke="#191970" points="882.0885,-348.0757 891.6922,-343.6014 881.3944,-341.1101 882.0885,-348.0757"/>
</g>
<!-- Node2236&#45;&gt;Node2071 -->
<g id="edge29" class="edge">
<title>Node2236&#45;&gt;Node2071</title>
<path fill="none" stroke="#191970" d="M498.4905,-329.3433C517.8803,-317.1367 552.9744,-296.0378 585,-282.0093 590.0129,-279.8134 595.3632,-277.7353 600.715,-275.8158"/>
<polygon fill="#191970" stroke="#191970" points="601.9508,-279.0922 610.2772,-272.5407 599.6826,-272.4698 601.9508,-279.0922"/>
</g>
<!-- Node2236&#45;&gt;Node2143 -->
<g id="edge30" class="edge">
<title>Node2236&#45;&gt;Node2143</title>
<path fill="none" stroke="#191970" d="M523.8748,-329.4203C545.8094,-324.2108 573.061,-317.7386 596.0111,-312.2879"/>
<polygon fill="#191970" stroke="#191970" points="596.9654,-315.6587 605.886,-309.9426 595.3479,-308.8481 596.9654,-315.6587"/>
</g>
<!-- Node2209 -->
<g id="node19" class="node">
<title>Node2209</title>
<g id="a_node19"><a xlink:href="dict__priv_8h.html#a84c9cd59818c5cd505e2467fe60a9ae6" target="_top" xlink:title="Internal version of fr_dict_by_protocol_name. ">
<polygon fill="none" stroke="#ff0000" points="585,-329.5093 585,-348.5093 702,-348.5093 702,-329.5093 585,-329.5093"/>
<text text-anchor="middle" x="643.5" y="-336.5093" font-family="Helvetica,sans-Serif" font-size="10.00" fill="#000000">dict_by_protocol_name</text>
</a>
</g>
</g>
<!-- Node2236&#45;&gt;Node2209 -->
<g id="edge28" class="edge">
<title>Node2236&#45;&gt;Node2209</title>
<path fill="none" stroke="#191970" d="M549.0398,-339.0093C557.5067,-339.0093 566.1972,-339.0093 574.7147,-339.0093"/>
<polygon fill="#191970" stroke="#191970" points="574.9917,-342.5094 584.9916,-339.0093 574.9916,-335.5094 574.9917,-342.5094"/>
</g>
<!-- Node2237&#45;&gt;Node1936 -->
<g id="edge32" class="edge">
<title>Node2237&#45;&gt;Node1936</title>
<path fill="none" stroke="#191970" d="M822.4184,-519.4301C829.9798,-515.9059 837.4498,-511.2049 843,-505.0093 877.0418,-467.009 852.4304,-439.5629 879,-396.0093 888.5095,-380.4211 903.0444,-365.794 914.923,-355.2606"/>
<polygon fill="#191970" stroke="#191970" points="917.3101,-357.8244 922.6279,-348.6608 912.7563,-352.5081 917.3101,-357.8244"/>
</g>
<!-- Node2145 -->
<g id="node21" class="node">
<title>Node2145</title>
<g id="a_node21"><a xlink:href="strerror_8c.html#a2f2232a184a763c76b3d87d5bea7a868" target="_top" xlink:title="Add a message to an existing stack of messages. ">
<polygon fill="none" stroke="#ff0000" points="879,-405.5093 879,-424.5093 991,-424.5093 991,-405.5093 879,-405.5093"/>
<text text-anchor="middle" x="935" y="-412.5093" font-family="Helvetica,sans-Serif" font-size="10.00" fill="#000000">fr_strerror_printf_push</text>
</a>
</g>
</g>
<!-- Node2237&#45;&gt;Node2145 -->
<g id="edge33" class="edge">
<title>Node2237&#45;&gt;Node2145</title>
<path fill="none" stroke="#191970" d="M816.0215,-519.4532C824.9194,-515.584 834.7377,-510.6812 843,-505.0093 873.8093,-483.8593 903.6301,-451.9303 920.6037,-432.3339"/>
<polygon fill="#191970" stroke="#191970" points="923.4392,-434.4026 927.2566,-424.5193 918.1091,-429.8648 923.4392,-434.4026"/>
</g>
<!-- Node2184 -->
<g id="node22" class="node">
<title>Node2184</title>
<g id="a_node22"><a xlink:href="dict__util_8c.html#a00ad7eced80eb916a0582884f53abff4" target="_top" xlink:title="Locate a fr_dict_attr_t by its name. ">
<polygon fill="none" stroke="#ff0000" points="881,-519.5093 881,-538.5093 989,-538.5093 989,-519.5093 881,-519.5093"/>
<text text-anchor="middle" x="935" y="-526.5093" font-family="Helvetica,sans-Serif" font-size="10.00" fill="#000000">fr_dict_attr_by_name</text>
</a>
</g>
</g>
<!-- Node2237&#45;&gt;Node2184 -->
<g id="edge36" class="edge">
<title>Node2237&#45;&gt;Node2184</title>
<path fill="none" stroke="#191970" d="M843.0766,-529.0093C851.9884,-529.0093 861.3325,-529.0093 870.5077,-529.0093"/>
<polygon fill="#191970" stroke="#191970" points="870.7632,-532.5094 880.7631,-529.0093 870.7631,-525.5094 870.7632,-532.5094"/>
</g>
<!-- Node2145&#45;&gt;Node1937 -->
<g id="edge34" class="edge">
<title>Node2145&#45;&gt;Node1937</title>
<path fill="none" stroke="#191970" d="M969.6971,-405.4203C990.2079,-399.7518 1016.1286,-392.5883 1036.8105,-386.8726"/>
<polygon fill="#191970" stroke="#191970" points="1037.7895,-390.2333 1046.4959,-384.1959 1035.9248,-383.4862 1037.7895,-390.2333"/>
</g>
<!-- Node2145&#45;&gt;Node1941 -->
<g id="edge35" class="edge">
<title>Node2145&#45;&gt;Node1941</title>
<path fill="none" stroke="#191970" d="M991.183,-420.1636C1029.2194,-421.1185 1079.3798,-417.2573 1118,-396.0093 1141.4877,-383.0869 1158.9954,-356.7731 1168.8592,-338.766"/>
<polygon fill="#191970" stroke="#191970" points="1172.0366,-340.2418 1173.5421,-329.7545 1165.8252,-337.014 1172.0366,-340.2418"/>
</g>
<!-- Node2079 -->
<g id="node24" class="node">
<title>Node2079</title>
<g id="a_node24"><a xlink:href="dict__util_8c.html#a771e845c7d0610ee46e3d539e2a703b3" target="_top" xlink:title="Decrement the reference count on a previously loaded dictionary. ">
<polygon fill="none" stroke="#ff0000" points="451,-139.5093 451,-158.5093 516,-158.5093 516,-139.5093 451,-139.5093"/>
<text text-anchor="middle" x="483.5" y="-146.5093" font-family="Helvetica,sans-Serif" font-size="10.00" fill="#000000">fr_dict_free</text>
</a>
</g>
</g>
<!-- Node2238&#45;&gt;Node2079 -->
<g id="edge38" class="edge">
<title>Node2238&#45;&gt;Node2079</title>
<path fill="none" stroke="#191970" d="M327.1882,-212.4174C347.9576,-200.7659 384.7535,-181.0544 418,-168.0093 425.3625,-165.1204 433.3422,-162.4456 441.1158,-160.0697"/>
<polygon fill="#191970" stroke="#191970" points="442.1828,-163.4042 450.7902,-157.2266 440.2091,-156.6882 442.1828,-163.4042"/>
</g>
<!-- Node2239&#45;&gt;Node2140 -->
<g id="edge40" class="edge">
<title>Node2239&#45;&gt;Node2140</title>
<path fill="none" stroke="#191970" d="M531.1319,-438.6831C587.852,-425.196 682.1736,-402.7677 740.0895,-388.9962"/>
<polygon fill="#191970" stroke="#191970" points="741.1927,-392.3315 750.1118,-386.613 739.5733,-385.5214 741.1927,-392.3315"/>
</g>
<!-- Node2204&#45;&gt;Node1936 -->
<g id="edge44" class="edge">
<title>Node2204&#45;&gt;Node1936</title>
<path fill="none" stroke="#191970" d="M535.041,-494.0177C607.6896,-492.0292 742.5457,-480.8789 843,-429.0093 847.5655,-426.6519 893.0804,-381.2043 918.3322,-355.8156"/>
<polygon fill="#191970" stroke="#191970" points="920.8858,-358.2113 925.4507,-348.6502 915.9198,-353.2778 920.8858,-358.2113"/>
</g>
</g>
</svg>
