<?xml version="1.0" encoding="UTF-8" standalone="no"?>
<!DOCTYPE svg PUBLIC "-//W3C//DTD SVG 1.1//EN"
 "http://www.w3.org/Graphics/SVG/1.1/DTD/svg11.dtd">
<!-- Generated by graphviz version 2.40.1 (20161225.0304)
 -->
<!-- Title: fr_dhcpv6_encode_option Pages: 1 -->
<!--zoomable 275 -->
<svg id="main" version="1.1" xmlns="http://www.w3.org/2000/svg" xmlns:xlink="http://www.w3.org/1999/xlink" xml:space="preserve" onload="init(evt)">
<style type="text/css"><![CDATA[
.edge:hover path { stroke: red; }
.edge:hover polygon { stroke: red; fill: red; }
]]></style>
<script type="text/javascript"><![CDATA[
var edges = document.getElementsByTagName('g');
if (edges && edges.length) {
  for (var i=0;i<edges.length;i++) {
    if (edges[i].id.substr(0,4)=='edge') {
      edges[i].setAttribute('class','edge');
    }
  }
}
]]></script>
        <defs>
                <circle id="rim" cx="0" cy="0" r="7"/>
                <circle id="rim2" cx="0" cy="0" r="3.5"/>
                <g id="zoomPlus">
                        <use xlink:href="#rim" fill="#404040">
                                <set attributeName="fill" to="#808080" begin="zoomplus.mouseover" end="zoomplus.mouseout"/>
                        </use>
                        <path d="M-4,0h8M0,-4v8" fill="none" stroke="white" stroke-width="1.5" pointer-events="none"/>
                </g>
                <g id="zoomMin">
                        <use xlink:href="#rim" fill="#404040">
                                <set attributeName="fill" to="#808080" begin="zoomminus.mouseover" end="zoomminus.mouseout"/>
                        </use>
                        <path d="M-4,0h8" fill="none" stroke="white" stroke-width="1.5" pointer-events="none"/>
                </g>
                <g id="dirArrow">
                        <path fill="none" stroke="white" stroke-width="1.5" d="M0,-3.0v7 M-2.5,-0.5L0,-3.0L2.5,-0.5"/>
                </g>
               <g id="resetDef">
                       <use xlink:href="#rim2" fill="#404040">
                               <set attributeName="fill" to="#808080" begin="reset.mouseover" end="reset.mouseout"/>
                       </use>
               </g>
        </defs>

<script type="text/javascript">
var viewWidth = 672;
var viewHeight = 275;
var sectionId = 'dynsection-22';
</script>
<script xlink:href="svgpan.js"/>
<svg id="graph" class="graph">
<g id="viewport">
<title>fr_dhcpv6_encode_option</title>
<!-- Node2065 -->
<g id="node1" class="node">
<title>Node2065</title>
<polygon fill="#bfbfbf" stroke="#000000" points="0,-114.5 0,-133.5 128,-133.5 128,-114.5 0,-114.5"/>
<text text-anchor="middle" x="64" y="-121.5" font-family="Helvetica,sans-Serif" font-size="10.00" fill="#000000">fr_dhcpv6_encode_option</text>
</g>
<!-- Node2066 -->
<g id="node2" class="node">
<title>Node2066</title>
<g id="a_node2"><a xlink:href="dhcpv6_8h.html#a0043be4d235d53fbfd3f09f9c2dc9cb6" target="_top" xlink:title="Encode a DHCPv6 packet. ">
<polygon fill="none" stroke="#000000" points="164,-190.5 164,-209.5 260,-209.5 260,-190.5 164,-190.5"/>
<text text-anchor="middle" x="212" y="-197.5" font-family="Helvetica,sans-Serif" font-size="10.00" fill="#000000">fr_dhcpv6_encode</text>
</a>
</g>
</g>
<!-- Node2065&#45;&gt;Node2066 -->
<g id="edge1" class="edge">
<title>Node2065&#45;&gt;Node2066</title>
<path fill="none" stroke="#191970" d="M91.7626,-138.2565C121.4813,-153.5174 167.8014,-177.3034 193.4079,-190.4527"/>
<polygon fill="#191970" stroke="#191970" points="93.2388,-135.0801 82.7443,-133.6255 90.0411,-141.307 93.2388,-135.0801"/>
</g>
<!-- Node2070 -->
<g id="node6" class="node">
<title>Node2070</title>
<g id="a_node6"><a xlink:href="protocols_2dhcpv6_2encode_8c.html#aa91de6bbe02c21d71bf5252d9838d139" target="_top" xlink:title="encode_value">
<polygon fill="none" stroke="#000000" points="173.5,-114.5 173.5,-133.5 250.5,-133.5 250.5,-114.5 173.5,-114.5"/>
<text text-anchor="middle" x="212" y="-121.5" font-family="Helvetica,sans-Serif" font-size="10.00" fill="#000000">encode_value</text>
</a>
</g>
</g>
<!-- Node2065&#45;&gt;Node2070 -->
<g id="edge6" class="edge">
<title>Node2065&#45;&gt;Node2070</title>
<path fill="none" stroke="#191970" d="M138.261,-124C150.4438,-124 162.6173,-124 173.4604,-124"/>
<polygon fill="#191970" stroke="#191970" points="138.0542,-120.5001 128.0542,-124 138.0541,-127.5001 138.0542,-120.5001"/>
</g>
<!-- Node2067 -->
<g id="node3" class="node">
<title>Node2067</title>
<g id="a_node3"><a xlink:href="protocols_2dhcpv6_2encode_8c.html#a4df904377c48d5e07fe073ebef94d34d" target="_top" xlink:title="Encode a Relay&#45;Message. ">
<polygon fill="none" stroke="#000000" points="298,-247.5 298,-266.5 417,-266.5 417,-247.5 298,-247.5"/>
<text text-anchor="middle" x="357.5" y="-254.5" font-family="Helvetica,sans-Serif" font-size="10.00" fill="#000000">encode_relay_message</text>
</a>
</g>
</g>
<!-- Node2066&#45;&gt;Node2067 -->
<g id="edge2" class="edge">
<title>Node2066&#45;&gt;Node2067</title>
<path fill="none" stroke="#191970" d="M240.7608,-214.0896C256.8097,-221.6769 277.2837,-230.9073 296,-238 304.9869,-241.4056 314.8762,-244.6673 324.0474,-247.4975"/>
<polygon fill="#191970" stroke="#191970" points="241.9268,-210.7676 231.3952,-209.6115 238.9072,-217.0829 241.9268,-210.7676"/>
</g>
<!-- Node2068 -->
<g id="node4" class="node">
<title>Node2068</title>
<g id="a_node4"><a xlink:href="protocols_2dhcpv6_2encode_8c.html#a2c076865b6c116361c88a30dbe69dfdd" target="_top" xlink:title="fr_dhcpv6_encode_proto">
<polygon fill="none" stroke="#000000" points="296,-209.5 296,-228.5 419,-228.5 419,-209.5 296,-209.5"/>
<text text-anchor="middle" x="357.5" y="-216.5" font-family="Helvetica,sans-Serif" font-size="10.00" fill="#000000">fr_dhcpv6_encode_proto</text>
</a>
</g>
</g>
<!-- Node2066&#45;&gt;Node2068 -->
<g id="edge4" class="edge">
<title>Node2066&#45;&gt;Node2068</title>
<path fill="none" stroke="#191970" d="M270.1503,-207.5935C278.5715,-208.6932 287.2649,-209.8284 295.7537,-210.9369"/>
<polygon fill="#191970" stroke="#191970" points="270.4144,-204.0984 260.0454,-206.274 269.508,-211.0394 270.4144,-204.0984"/>
</g>
<!-- Node2069 -->
<g id="node5" class="node">
<title>Node2069</title>
<g id="a_node5"><a xlink:href="proto__dhcpv6_8c.html#a73de03e9d89143b1337647cdefb8edaf" target="_top" xlink:title="mod_encode">
<polygon fill="none" stroke="#000000" points="321.5,-171.5 321.5,-190.5 393.5,-190.5 393.5,-171.5 321.5,-171.5"/>
<text text-anchor="middle" x="357.5" y="-178.5" font-family="Helvetica,sans-Serif" font-size="10.00" fill="#000000">mod_encode</text>
</a>
</g>
</g>
<!-- Node2066&#45;&gt;Node2069 -->
<g id="edge5" class="edge">
<title>Node2066&#45;&gt;Node2069</title>
<path fill="none" stroke="#191970" d="M270.1021,-192.4128C287.464,-190.1456 305.9871,-187.7268 321.4914,-185.7022"/>
<polygon fill="#191970" stroke="#191970" points="269.508,-188.9606 260.0454,-193.726 270.4144,-195.9016 269.508,-188.9606"/>
</g>
<!-- Node2067&#45;&gt;Node2065 -->
<g id="edge3" class="edge">
<title>Node2067&#45;&gt;Node2065</title>
<path fill="none" stroke="#191970" d="M287.9138,-252.8454C249.6191,-248.2773 202.2523,-238.7611 164,-219 122.3007,-197.4582 85.8353,-153.215 71.0327,-133.6594"/>
<polygon fill="#191970" stroke="#191970" points="287.6256,-256.3347 297.9498,-253.9552 288.3951,-249.3772 287.6256,-256.3347"/>
</g>
<!-- Node2071 -->
<g id="node7" class="node">
<title>Node2071</title>
<g id="a_node7"><a xlink:href="protocols_2dhcpv6_2encode_8c.html#acdbbda1765f0ce46f4cff908e8ad37d1" target="_top" xlink:title="encode_struct">
<polygon fill="none" stroke="#000000" points="318.5,-133.5 318.5,-152.5 396.5,-152.5 396.5,-133.5 318.5,-133.5"/>
<text text-anchor="middle" x="357.5" y="-140.5" font-family="Helvetica,sans-Serif" font-size="10.00" fill="#000000">encode_struct</text>
</a>
</g>
</g>
<!-- Node2070&#45;&gt;Node2071 -->
<g id="edge7" class="edge">
<title>Node2070&#45;&gt;Node2071</title>
<path fill="none" stroke="#191970" d="M260.8094,-123.9597C282.8813,-126.2009 308.2623,-129.7916 327.4805,-133.4951"/>
<polygon fill="#191970" stroke="#191970" points="260.8929,-120.4522 250.6093,-123.0013 260.238,-127.4215 260.8929,-120.4522"/>
</g>
<!-- Node2072 -->
<g id="node8" class="node">
<title>Node2072</title>
<g id="a_node8"><a xlink:href="protocols_2dhcpv6_2encode_8c.html#a7a9dc7a2591e7053e8a4aede633f18b4" target="_top" xlink:title="encode_array">
<polygon fill="none" stroke="#000000" points="320,-95.5 320,-114.5 395,-114.5 395,-95.5 320,-95.5"/>
<text text-anchor="middle" x="357.5" y="-102.5" font-family="Helvetica,sans-Serif" font-size="10.00" fill="#000000">encode_array</text>
</a>
</g>
</g>
<!-- Node2070&#45;&gt;Node2072 -->
<g id="edge9" class="edge">
<title>Node2070&#45;&gt;Node2072</title>
<path fill="none" stroke="#191970" d="M260.7413,-117.6352C280.0587,-115.1126 301.9197,-112.2579 319.9688,-109.901"/>
<polygon fill="#191970" stroke="#191970" points="260.0719,-114.1928 250.6093,-118.9582 260.9784,-121.1338 260.0719,-114.1928"/>
</g>
<!-- Node2073 -->
<g id="node9" class="node">
<title>Node2073</title>
<g id="a_node9"><a xlink:href="protocols_2dhcpv6_2encode_8c.html#a3d7250c8c84799ac391ad0fb8e639124" target="_top" xlink:title="Encode an RFC format TLV. ">
<polygon fill="none" stroke="#000000" points="455,-47.5 455,-66.5 538,-66.5 538,-47.5 455,-47.5"/>
<text text-anchor="middle" x="496.5" y="-54.5" font-family="Helvetica,sans-Serif" font-size="10.00" fill="#000000">encode_rfc_hdr</text>
</a>
</g>
</g>
<!-- Node2070&#45;&gt;Node2073 -->
<g id="edge15" class="edge">
<title>Node2070&#45;&gt;Node2073</title>
<path fill="none" stroke="#191970" d="M238.8043,-109.533C254.9444,-101.4219 276.1517,-91.7986 296,-86 349.5097,-70.3673 413.618,-62.9756 454.6887,-59.6127"/>
<polygon fill="#191970" stroke="#191970" points="236.7558,-106.651 229.467,-114.3402 239.96,-112.8746 236.7558,-106.651"/>
</g>
<!-- Node2071&#45;&gt;Node2070 -->
<g id="edge8" class="edge">
<title>Node2071&#45;&gt;Node2070</title>
<path fill="none" stroke="#191970" d="M308.1377,-142.984C286.2449,-140.7443 261.19,-137.1934 242.1477,-133.5295"/>
<polygon fill="#191970" stroke="#191970" points="307.979,-146.4845 318.2649,-143.9447 308.6402,-139.5158 307.979,-146.4845"/>
</g>
<!-- Node2072&#45;&gt;Node2073 -->
<g id="edge10" class="edge">
<title>Node2072&#45;&gt;Node2073</title>
<path fill="none" stroke="#191970" d="M394.8474,-92.103C418.1164,-84.0677 447.5532,-73.9025 468.7535,-66.5815"/>
<polygon fill="#191970" stroke="#191970" points="393.6045,-88.8294 385.2946,-95.4018 395.8894,-95.446 393.6045,-88.8294"/>
</g>
<!-- Node2073&#45;&gt;Node2065 -->
<g id="edge14" class="edge">
<title>Node2073&#45;&gt;Node2065</title>
<path fill="none" stroke="#191970" d="M444.5802,-53.7966C403.9342,-52.1837 346.0904,-51.8609 296,-59 219.1839,-69.9482 131.8775,-99.1589 89.6165,-114.4173"/>
<polygon fill="#191970" stroke="#191970" points="444.6439,-57.3026 454.7873,-54.243 444.9498,-50.3093 444.6439,-57.3026"/>
</g>
<!-- Node2074 -->
<g id="node10" class="node">
<title>Node2074</title>
<g id="a_node10"><a xlink:href="protocols_2dhcpv6_2encode_8c.html#a64335a7cbeeee2ccc0b9f965533e4d81" target="_top" xlink:title="encode_tlv">
<polygon fill="none" stroke="#ff0000" points="587,-47.5 587,-66.5 651,-66.5 651,-47.5 587,-47.5"/>
<text text-anchor="middle" x="619" y="-54.5" font-family="Helvetica,sans-Serif" font-size="10.00" fill="#000000">encode_tlv</text>
</a>
</g>
</g>
<!-- Node2073&#45;&gt;Node2074 -->
<g id="edge11" class="edge">
<title>Node2073&#45;&gt;Node2074</title>
<path fill="none" stroke="#191970" d="M548.5268,-57C561.467,-57 574.9694,-57 586.6518,-57"/>
<polygon fill="#191970" stroke="#191970" points="548.315,-53.5001 538.3149,-57 548.3149,-60.5001 548.315,-53.5001"/>
</g>
<!-- Node2076 -->
<g id="node11" class="node">
<title>Node2076</title>
<g id="a_node11"><a xlink:href="protocols_2dhcpv6_2encode_8c.html#aa358e177086e368c144d6541f42558a9" target="_top" xlink:title="Encode a Vendor&#45;Specific Information Option. ">
<polygon fill="none" stroke="#000000" points="574,-.5 574,-19.5 664,-19.5 664,-.5 574,-.5"/>
<text text-anchor="middle" x="619" y="-7.5" font-family="Helvetica,sans-Serif" font-size="10.00" fill="#000000">encode_vsio_hdr</text>
</a>
</g>
</g>
<!-- Node2073&#45;&gt;Node2076 -->
<g id="edge12" class="edge">
<title>Node2073&#45;&gt;Node2076</title>
<path fill="none" stroke="#191970" d="M530.6858,-43.8838C550.7196,-36.1974 575.5886,-26.6558 593.8267,-19.6583"/>
<polygon fill="#191970" stroke="#191970" points="529.3723,-40.6389 521.2897,-47.4888 531.8799,-47.1744 529.3723,-40.6389"/>
</g>
<!-- Node2076&#45;&gt;Node2065 -->
<g id="edge13" class="edge">
<title>Node2076&#45;&gt;Node2065</title>
<path fill="none" stroke="#191970" d="M563.7132,-8.3569C476.2796,-7.4702 301.8696,-12.7101 164,-61 128.7545,-73.345 93.0805,-99.9792 75.4015,-114.3455"/>
<polygon fill="#191970" stroke="#191970" points="563.8907,-11.8595 573.9364,-8.4929 563.9839,-4.8601 563.8907,-11.8595"/>
</g>
</g>
</svg>
        <g id="navigator" transform="translate(0 0)" fill="#404254">
                <rect fill="#f2f5e9" fill-opacity="0.5" stroke="#606060" stroke-width=".5" x="0" y="0" width="60" height="60"/>
                <use id="zoomplus" xlink:href="#zoomPlus" x="17" y="9" onmousedown="handleZoom(evt,'in')"/>
                <use id="zoomminus" xlink:href="#zoomMin" x="42" y="9" onmousedown="handleZoom(evt,'out')"/>
                <use id="reset" xlink:href="#resetDef" x="30" y="36" onmousedown="handleReset()"/>
                <g id="arrowUp" xlink:href="#dirArrow" transform="translate(30 24)" onmousedown="handlePan(0,-1)">
                  <use xlink:href="#rim" fill="#404040">
                        <set attributeName="fill" to="#808080" begin="arrowUp.mouseover" end="arrowUp.mouseout"/>
                  </use>
                  <path fill="none" stroke="white" stroke-width="1.5" d="M0,-3.0v7 M-2.5,-0.5L0,-3.0L2.5,-0.5"/>
                </g>
                <g id="arrowRight" xlink:href="#dirArrow" transform="rotate(90) translate(36 -43)" onmousedown="handlePan(1,0)">
                  <use xlink:href="#rim" fill="#404040">
                        <set attributeName="fill" to="#808080" begin="arrowRight.mouseover" end="arrowRight.mouseout"/>
                  </use>
                  <path fill="none" stroke="white" stroke-width="1.5" d="M0,-3.0v7 M-2.5,-0.5L0,-3.0L2.5,-0.5"/>
                </g>
                <g id="arrowDown" xlink:href="#dirArrow" transform="rotate(180) translate(-30 -48)" onmousedown="handlePan(0,1)">
                  <use xlink:href="#rim" fill="#404040">
                        <set attributeName="fill" to="#808080" begin="arrowDown.mouseover" end="arrowDown.mouseout"/>
                  </use>
                  <path fill="none" stroke="white" stroke-width="1.5" d="M0,-3.0v7 M-2.5,-0.5L0,-3.0L2.5,-0.5"/>
                </g>
                <g id="arrowLeft" xlink:href="#dirArrow" transform="rotate(270) translate(-36 17)" onmousedown="handlePan(-1,0)">
                  <use xlink:href="#rim" fill="#404040">
                        <set attributeName="fill" to="#808080" begin="arrowLeft.mouseover" end="arrowLeft.mouseout"/>
                  </use>
                  <path fill="none" stroke="white" stroke-width="1.5" d="M0,-3.0v7 M-2.5,-0.5L0,-3.0L2.5,-0.5"/>
                </g>
        </g>
        <svg viewBox="0 0 15 15" width="100%" height="30px" preserveAspectRatio="xMaxYMin meet">
         <g id="arrow_out" transform="scale(0.3 0.3)">
          <a xlink:href="protocols_2dhcpv6_2encode_8c_ad1e3640a48d6dd4222149b4051b48800_icgraph_org.svg" target="_base">
           <rect id="button" ry="5" rx="5" y="6" x="6" height="38" width="38"
                fill="#f2f5e9" fill-opacity="0.5" stroke="#606060" stroke-width="1.0"/>
           <path id="arrow"
             d="M 11.500037,31.436501 C 11.940474,20.09759 22.043105,11.32322 32.158766,21.979434 L 37.068811,17.246167 C 37.068811,17.246167 37.088388,32 37.088388,32 L 22.160133,31.978069 C 22.160133,31.978069 26.997745,27.140456 26.997745,27.140456 C 18.528582,18.264221 13.291696,25.230495 11.500037,31.436501 z"
             style="fill:#404040;"/>
          </a>
         </g>
        </svg>
</svg>
