<?xml version="1.0" encoding="UTF-8" standalone="no"?>
<!DOCTYPE svg PUBLIC "-//W3C//DTD SVG 1.1//EN"
 "http://www.w3.org/Graphics/SVG/1.1/DTD/svg11.dtd">
<!-- Generated by graphviz version 2.40.1 (20161225.0304)
 -->
<!-- Title: fr_radius_encode_proto Pages: 1 -->
<!--zoomable 838 -->
<svg id="main" version="1.1" xmlns="http://www.w3.org/2000/svg" xmlns:xlink="http://www.w3.org/1999/xlink" xml:space="preserve" onload="init(evt)">
<style type="text/css"><![CDATA[
.edge:hover path { stroke: red; }
.edge:hover polygon { stroke: red; fill: red; }
]]></style>
<script type="text/javascript"><![CDATA[
var edges = document.getElementsByTagName('g');
if (edges && edges.length) {
  for (var i=0;i<edges.length;i++) {
    if (edges[i].id.substr(0,4)=='edge') {
      edges[i].setAttribute('class','edge');
    }
  }
}
]]></script>
        <defs>
                <circle id="rim" cx="0" cy="0" r="7"/>
                <circle id="rim2" cx="0" cy="0" r="3.5"/>
                <g id="zoomPlus">
                        <use xlink:href="#rim" fill="#404040">
                                <set attributeName="fill" to="#808080" begin="zoomplus.mouseover" end="zoomplus.mouseout"/>
                        </use>
                        <path d="M-4,0h8M0,-4v8" fill="none" stroke="white" stroke-width="1.5" pointer-events="none"/>
                </g>
                <g id="zoomMin">
                        <use xlink:href="#rim" fill="#404040">
                                <set attributeName="fill" to="#808080" begin="zoomminus.mouseover" end="zoomminus.mouseout"/>
                        </use>
                        <path d="M-4,0h8" fill="none" stroke="white" stroke-width="1.5" pointer-events="none"/>
                </g>
                <g id="dirArrow">
                        <path fill="none" stroke="white" stroke-width="1.5" d="M0,-3.0v7 M-2.5,-0.5L0,-3.0L2.5,-0.5"/>
                </g>
               <g id="resetDef">
                       <use xlink:href="#rim2" fill="#404040">
                               <set attributeName="fill" to="#808080" begin="reset.mouseover" end="reset.mouseout"/>
                       </use>
               </g>
        </defs>

<script type="text/javascript">
var viewWidth = 1228;
var viewHeight = 838;
var sectionId = 'dynsection-34';
</script>
<script xlink:href="svgpan.js"/>
<svg id="graph" class="graph">
<g id="viewport">
<title>fr_radius_encode_proto</title>
<!-- Node25832 -->
<g id="node1" class="node">
<title>Node25832</title>
<polygon fill="#bfbfbf" stroke="#000000" points="0,-734.1688 0,-753.1688 118,-753.1688 118,-734.1688 0,-734.1688"/>
<text text-anchor="middle" x="59" y="-741.1688" font-family="Helvetica,sans-Serif" font-size="10.00" fill="#000000">fr_radius_encode_proto</text>
</g>
<!-- Node25833 -->
<g id="node2" class="node">
<title>Node25833</title>
<g id="a_node2"><a xlink:href="pair_8c.html#ac3e6ae214c078ffe6f2648f1c12159ff" target="_top" xlink:title="Find the pair with the matching DAs. ">
<polygon fill="none" stroke="#000000" points="170,-810.1688 170,-829.1688 266,-829.1688 266,-810.1688 170,-810.1688"/>
<text text-anchor="middle" x="218" y="-817.1688" font-family="Helvetica,sans-Serif" font-size="10.00" fill="#000000">fr_pair_find_by_da</text>
</a>
</g>
</g>
<!-- Node25832&#45;&gt;Node25833 -->
<g id="edge1" class="edge">
<title>Node25832&#45;&gt;Node25833</title>
<path fill="none" stroke="#191970" d="M72.568,-753.3182C90.488,-765.7016 123.3669,-787.1903 154,-800.6688 159.3011,-803.0013 164.9712,-805.1471 170.6641,-807.0902"/>
<polygon fill="#191970" stroke="#191970" points="169.6139,-810.429 180.2055,-810.1662 171.7618,-803.7666 169.6139,-810.429"/>
</g>
<!-- Node25834 -->
<g id="node3" class="node">
<title>Node25834</title>
<g id="a_node3"><a xlink:href="rand_8c.html#a65adcee18085e3867d821e8f4d01d568" target="_top" xlink:title="fr_fast_rand">
<polygon fill="none" stroke="#000000" points="184,-772.1688 184,-791.1688 252,-791.1688 252,-772.1688 184,-772.1688"/>
<text text-anchor="middle" x="218" y="-779.1688" font-family="Helvetica,sans-Serif" font-size="10.00" fill="#000000">fr_fast_rand</text>
</a>
</g>
</g>
<!-- Node25832&#45;&gt;Node25834 -->
<g id="edge2" class="edge">
<title>Node25832&#45;&gt;Node25834</title>
<path fill="none" stroke="#191970" d="M99.1224,-753.2578C121.8816,-758.6971 150.4011,-765.5131 173.8007,-771.1054"/>
<polygon fill="#191970" stroke="#191970" points="173.2776,-774.5789 183.8173,-773.4993 174.9048,-767.7707 173.2776,-774.5789"/>
</g>
<!-- Node25835 -->
<g id="node4" class="node">
<title>Node25835</title>
<g id="a_node4"><a xlink:href="protocols_2radius_2base_8c.html#a6bb7136f7594121eac299907792e94d2" target="_top" xlink:title="Encode VPS into a raw RADIUS packet. ">
<polygon fill="none" stroke="#000000" points="172.5,-696.1688 172.5,-715.1688 263.5,-715.1688 263.5,-696.1688 172.5,-696.1688"/>
<text text-anchor="middle" x="218" y="-703.1688" font-family="Helvetica,sans-Serif" font-size="10.00" fill="#000000">fr_radius_encode</text>
</a>
</g>
</g>
<!-- Node25832&#45;&gt;Node25835 -->
<g id="edge3" class="edge">
<title>Node25832&#45;&gt;Node25835</title>
<path fill="none" stroke="#191970" d="M99.1224,-734.0798C120.1042,-729.0653 145.9817,-722.8807 168.2299,-717.5635"/>
<polygon fill="#191970" stroke="#191970" points="169.2536,-720.9175 178.1661,-715.1888 167.6264,-714.1093 169.2536,-720.9175"/>
</g>
<!-- Node26248 -->
<g id="node27" class="node">
<title>Node26248</title>
<g id="a_node27"><a xlink:href="protocols_2radius_2base_8c.html#ac9593081313e907a61f8b286e04511d2" target="_top" xlink:title="Sign a previously encoded packet. ">
<polygon fill="none" stroke="#000000" points="179.5,-734.1688 179.5,-753.1688 256.5,-753.1688 256.5,-734.1688 179.5,-734.1688"/>
<text text-anchor="middle" x="218" y="-741.1688" font-family="Helvetica,sans-Serif" font-size="10.00" fill="#000000">fr_radius_sign</text>
</a>
</g>
</g>
<!-- Node25832&#45;&gt;Node26248 -->
<g id="edge51" class="edge">
<title>Node25832&#45;&gt;Node26248</title>
<path fill="none" stroke="#191970" d="M118.2057,-743.6688C135.009,-743.6688 153.1085,-743.6688 169.2191,-743.6688"/>
<polygon fill="#191970" stroke="#191970" points="169.4852,-747.1689 179.4852,-743.6688 169.4851,-740.1689 169.4852,-747.1689"/>
</g>
<!-- Node26250 -->
<g id="node30" class="node">
<title>Node26250</title>
<g id="a_node30"><a xlink:href="protocols_2radius_2encode_8c.html#ab33fd0900fc5f68365135fc43160e0ff" target="_top" xlink:title="fr_radius_next_encodable">
<polygon fill="none" stroke="#000000" points="154,-658.1688 154,-677.1688 282,-677.1688 282,-658.1688 154,-658.1688"/>
<text text-anchor="middle" x="218" y="-665.1688" font-family="Helvetica,sans-Serif" font-size="10.00" fill="#000000">fr_radius_next_encodable</text>
</a>
</g>
</g>
<!-- Node25832&#45;&gt;Node26250 -->
<g id="edge55" class="edge">
<title>Node25832&#45;&gt;Node26250</title>
<path fill="none" stroke="#191970" d="M72.568,-734.0193C90.488,-721.636 123.3669,-700.1472 154,-686.6688 159.3011,-684.3363 164.9712,-682.1905 170.6641,-680.2474"/>
<polygon fill="#191970" stroke="#191970" points="171.7618,-683.5709 180.2055,-677.1713 169.6139,-676.9086 171.7618,-683.5709"/>
</g>
<!-- Node25836 -->
<g id="node5" class="node">
<title>Node25836</title>
<g id="a_node5"><a xlink:href="protocols_2radius_2base_8c.html#a3f5f24b3c1b659396d03a4490e28add3" target="_top" xlink:title="fr_radius_encode_dbuff">
<polygon fill="none" stroke="#000000" points="318,-481.1688 318,-500.1688 436,-500.1688 436,-481.1688 318,-481.1688"/>
<text text-anchor="middle" x="377" y="-488.1688" font-family="Helvetica,sans-Serif" font-size="10.00" fill="#000000">fr_radius_encode_dbuff</text>
</a>
</g>
</g>
<!-- Node25835&#45;&gt;Node25836 -->
<g id="edge4" class="edge">
<title>Node25835&#45;&gt;Node25836</title>
<path fill="none" stroke="#191970" d="M263.7794,-697.2266C270.3675,-694.6053 276.6992,-691.1702 282,-686.6688 338.261,-638.8921 363.9565,-550.0261 372.9892,-510.5044"/>
<polygon fill="#191970" stroke="#191970" points="376.4523,-511.0493 375.1487,-500.5349 369.6109,-509.5673 376.4523,-511.0493"/>
</g>
<!-- Node25837 -->
<g id="node6" class="node">
<title>Node25837</title>
<g id="a_node6"><a xlink:href="rand_8c.html#ae6966accae06dc7d65d4cc51b5782383" target="_top" xlink:title="Return a 32&#45;bit random number. ">
<polygon fill="none" stroke="#000000" points="504.5,-620.1688 504.5,-639.1688 551.5,-639.1688 551.5,-620.1688 504.5,-620.1688"/>
<text text-anchor="middle" x="528" y="-627.1688" font-family="Helvetica,sans-Serif" font-size="10.00" fill="#000000">fr_rand</text>
</a>
</g>
</g>
<!-- Node25836&#45;&gt;Node25837 -->
<g id="edge5" class="edge">
<title>Node25836&#45;&gt;Node25837</title>
<path fill="none" stroke="#191970" d="M387.3788,-500.2228C412.7013,-523.5329 477.9079,-583.5575 509.838,-612.9501"/>
<polygon fill="#191970" stroke="#191970" points="507.8207,-615.8503 517.5485,-620.0479 512.5616,-610.7001 507.8207,-615.8503"/>
</g>
<!-- Node25845 -->
<g id="node9" class="node">
<title>Node25845</title>
<g id="a_node9"><a xlink:href="strerror_8c.html#ae701765650b8aea79a3037bc4921d7f8" target="_top" xlink:title="Log to thread local error buffer. ">
<polygon fill="none" stroke="#000000" points="915,-570.1688 915,-589.1688 1001,-589.1688 1001,-570.1688 915,-570.1688"/>
<text text-anchor="middle" x="958" y="-577.1688" font-family="Helvetica,sans-Serif" font-size="10.00" fill="#000000">fr_strerror_printf</text>
</a>
</g>
</g>
<!-- Node25836&#45;&gt;Node25845 -->
<g id="edge9" class="edge">
<title>Node25836&#45;&gt;Node25845</title>
<path fill="none" stroke="#191970" d="M379.879,-500.2496C388.704,-527.9156 418.1027,-608.5074 472,-648.6688 526.4557,-689.2462 552.6242,-678.1572 620,-686.6688 734.1089,-701.0841 766.2648,-671.1997 871,-623.6688 891.5475,-614.3439 914.2876,-602.7989 931.3646,-593.8748"/>
<polygon fill="#191970" stroke="#191970" points="932.9982,-596.9702 940.2192,-589.2173 929.7395,-590.7749 932.9982,-596.9702"/>
</g>
<!-- Node25978 -->
<g id="node13" class="node">
<title>Node25978</title>
<g id="a_node13"><a xlink:href="cursor_8c.html#a92733b72ea218ecff0bc7808fae613b7" target="_top" xlink:title="Return the item the cursor current points to. ">
<polygon fill="none" stroke="#000000" points="913,-152.1688 913,-171.1688 1003,-171.1688 1003,-152.1688 913,-152.1688"/>
<text text-anchor="middle" x="958" y="-159.1688" font-family="Helvetica,sans-Serif" font-size="10.00" fill="#000000">fr_cursor_current</text>
</a>
</g>
</g>
<!-- Node25836&#45;&gt;Node25978 -->
<g id="edge14" class="edge">
<title>Node25836&#45;&gt;Node25978</title>
<path fill="none" stroke="#191970" d="M377.7735,-481.0023C381.4829,-439.5558 400.3446,-273.976 472,-163.6688 518.9029,-91.4659 539.8383,-70.0892 620,-38.6688 723.8918,2.0529 772.4758,19.7214 871,-32.6688 914.7587,-55.9375 940.4811,-112.1113 951.544,-142.0744"/>
<polygon fill="#191970" stroke="#191970" points="948.3493,-143.5409 954.9628,-151.8181 954.9545,-141.2232 948.3493,-143.5409"/>
</g>
<!-- Node25867 -->
<g id="node14" class="node">
<title>Node25867</title>
<g id="a_node14"><a xlink:href="cursor_8c.html#af6c2090d1e00319075d6def5aa2666fd" target="_top" xlink:title="Advanced the cursor to the next item. ">
<polygon fill="none" stroke="#ff0000" points="771.5,-152.1688 771.5,-171.1688 850.5,-171.1688 850.5,-152.1688 771.5,-152.1688"/>
<text text-anchor="middle" x="811" y="-159.1688" font-family="Helvetica,sans-Serif" font-size="10.00" fill="#000000">fr_cursor_next</text>
</a>
</g>
</g>
<!-- Node25836&#45;&gt;Node25867 -->
<g id="edge15" class="edge">
<title>Node25836&#45;&gt;Node25867</title>
<path fill="none" stroke="#191970" d="M379.7916,-480.9601C394.468,-432.044 467.8637,-212.2 620,-142.6688 671.4405,-119.1588 738.6271,-135.1742 778.0699,-148.639"/>
<polygon fill="#191970" stroke="#191970" points="777.1161,-152.0146 787.7108,-152.0696 779.4628,-145.4196 777.1161,-152.0146"/>
</g>
<!-- Node25979 -->
<g id="node15" class="node">
<title>Node25979</title>
<g id="a_node15"><a xlink:href="protocols_2radius_2encode_8c.html#af045dda20b01abc00b64ba01ae0dbc06" target="_top" xlink:title="Encode a data structure into a RADIUS attribute. ">
<polygon fill="none" stroke="#000000" points="472,-323.1688 472,-342.1688 584,-342.1688 584,-323.1688 472,-323.1688"/>
<text text-anchor="middle" x="528" y="-330.1688" font-family="Helvetica,sans-Serif" font-size="10.00" fill="#000000">fr_radius_encode_pair</text>
</a>
</g>
</g>
<!-- Node25836&#45;&gt;Node25979 -->
<g id="edge16" class="edge">
<title>Node25836&#45;&gt;Node25979</title>
<path fill="none" stroke="#191970" d="M386.4457,-480.7852C411.4447,-454.6273 479.5856,-383.3276 511.322,-350.1199"/>
<polygon fill="#191970" stroke="#191970" points="514.179,-352.1963 518.5578,-342.5487 509.1184,-347.3599 514.179,-352.1963"/>
</g>
<!-- Node25838 -->
<g id="node7" class="node">
<title>Node25838</title>
<g id="a_node7"><a xlink:href="rand_8c.html#a6fa61f21cc29c57c251db3696037ae1c" target="_top" xlink:title="Seed the random number generator. ">
<polygon fill="none" stroke="#ff0000" points="631,-620.1688 631,-639.1688 704,-639.1688 704,-620.1688 631,-620.1688"/>
<text text-anchor="middle" x="667.5" y="-627.1688" font-family="Helvetica,sans-Serif" font-size="10.00" fill="#000000">fr_rand_seed</text>
</a>
</g>
</g>
<!-- Node25837&#45;&gt;Node25838 -->
<g id="edge6" class="edge">
<title>Node25837&#45;&gt;Node25838</title>
<path fill="none" stroke="#191970" d="M551.6643,-624.4518C570.5564,-622.9487 597.6132,-622.5509 620.8267,-623.2585"/>
<polygon fill="#191970" stroke="#191970" points="620.7132,-626.7566 630.8409,-623.6452 620.9834,-619.7618 620.7132,-626.7566"/>
</g>
<!-- Node25842 -->
<g id="node8" class="node">
<title>Node25842</title>
<g id="a_node8"><a xlink:href="isaac_8c.html#aa59f7e1d100e8c1b3c003e18085e0638" target="_top" xlink:title="fr_isaac">
<polygon fill="none" stroke="#000000" points="642,-658.1688 642,-677.1688 693,-677.1688 693,-658.1688 642,-658.1688"/>
<text text-anchor="middle" x="667.5" y="-665.1688" font-family="Helvetica,sans-Serif" font-size="10.00" fill="#000000">fr_isaac</text>
</a>
</g>
</g>
<!-- Node25837&#45;&gt;Node25842 -->
<g id="edge8" class="edge">
<title>Node25837&#45;&gt;Node25842</title>
<path fill="none" stroke="#191970" d="M551.6643,-636.115C573.6637,-642.1076 606.7343,-651.1161 631.9154,-657.9755"/>
<polygon fill="#191970" stroke="#191970" points="631.2563,-661.4234 641.8247,-660.6748 633.0962,-654.6695 631.2563,-661.4234"/>
</g>
<!-- Node25838&#45;&gt;Node25837 -->
<g id="edge7" class="edge">
<title>Node25838&#45;&gt;Node25837</title>
<path fill="none" stroke="#191970" d="M630.8409,-635.6924C609.4191,-636.7085 582.5768,-636.6586 561.6874,-635.5427"/>
<polygon fill="#191970" stroke="#191970" points="561.8718,-632.0473 551.6643,-634.8858 561.4139,-639.0324 561.8718,-632.0473"/>
</g>
<!-- Node25846 -->
<g id="node10" class="node">
<title>Node25846</title>
<g id="a_node10"><a xlink:href="acutest_8h.html#aecf9a9be8105efb1454cd8c1ef6cb1c5" target="_top" xlink:title="va_start">
<polygon fill="none" stroke="#000000" points="1064.5,-608.1688 1064.5,-627.1688 1116.5,-627.1688 1116.5,-608.1688 1064.5,-608.1688"/>
<text text-anchor="middle" x="1090.5" y="-615.1688" font-family="Helvetica,sans-Serif" font-size="10.00" fill="#000000">va_start</text>
</a>
</g>
</g>
<!-- Node25845&#45;&gt;Node25846 -->
<g id="edge10" class="edge">
<title>Node25845&#45;&gt;Node25846</title>
<path fill="none" stroke="#191970" d="M991.4353,-589.2578C1010.6289,-594.7624 1034.7386,-601.6769 1054.3674,-607.3062"/>
<polygon fill="#191970" stroke="#191970" points="1053.5964,-610.7261 1064.1738,-610.1186 1055.5262,-603.9974 1053.5964,-610.7261"/>
</g>
<!-- Node25847 -->
<g id="node11" class="node">
<title>Node25847</title>
<g id="a_node11"><a xlink:href="strerror_8c.html#a193b1e0b3712e3bbee338812c06af482" target="_top" xlink:title="fr_strerror_vprintf">
<polygon fill="none" stroke="#ff0000" points="1045,-532.1688 1045,-551.1688 1136,-551.1688 1136,-532.1688 1045,-532.1688"/>
<text text-anchor="middle" x="1090.5" y="-539.1688" font-family="Helvetica,sans-Serif" font-size="10.00" fill="#000000">fr_strerror_vprintf</text>
</a>
</g>
</g>
<!-- Node25845&#45;&gt;Node25847 -->
<g id="edge11" class="edge">
<title>Node25845&#45;&gt;Node25847</title>
<path fill="none" stroke="#191970" d="M991.4353,-570.0798C1008.3829,-565.2194 1029.1634,-559.2597 1047.3075,-554.0561"/>
<polygon fill="#191970" stroke="#191970" points="1048.4278,-557.376 1057.0754,-551.2547 1046.4979,-550.6472 1048.4278,-557.376"/>
</g>
<!-- Node25850 -->
<g id="node12" class="node">
<title>Node25850</title>
<g id="a_node12"><a xlink:href="acutest_8h.html#a36af1f79dd6adf0809c21e76535034d5" target="_top" xlink:title="va_end">
<polygon fill="none" stroke="#000000" points="1172,-551.1688 1172,-570.1688 1220,-570.1688 1220,-551.1688 1172,-551.1688"/>
<text text-anchor="middle" x="1196" y="-558.1688" font-family="Helvetica,sans-Serif" font-size="10.00" fill="#000000">va_end</text>
</a>
</g>
</g>
<!-- Node25845&#45;&gt;Node25850 -->
<g id="edge13" class="edge">
<title>Node25845&#45;&gt;Node25850</title>
<path fill="none" stroke="#191970" d="M1001.1,-576.228C1047.1618,-572.5508 1119.2624,-566.7949 1161.6505,-563.411"/>
<polygon fill="#191970" stroke="#191970" points="1162.0632,-566.8893 1171.753,-562.6045 1161.5061,-559.9115 1162.0632,-566.8893"/>
</g>
<!-- Node25847&#45;&gt;Node25850 -->
<g id="edge12" class="edge">
<title>Node25847&#45;&gt;Node25850</title>
<path fill="none" stroke="#191970" d="M1136.1602,-549.892C1144.7746,-551.4434 1153.6458,-553.041 1161.8325,-554.5154"/>
<polygon fill="#191970" stroke="#191970" points="1161.3031,-557.9763 1171.7651,-556.3042 1162.5439,-551.0871 1161.3031,-557.9763"/>
</g>
<!-- Node25979&#45;&gt;Node25845 -->
<g id="edge18" class="edge">
<title>Node25979&#45;&gt;Node25845</title>
<path fill="none" stroke="#191970" d="M530.2576,-342.4142C540.0263,-383.6869 579.9709,-543.3069 620,-572.6688 709.3558,-638.2125 850.7616,-610.883 918.8355,-592.0213"/>
<polygon fill="#191970" stroke="#191970" points="920.0683,-595.3092 928.7224,-589.1971 918.1457,-588.5784 920.0683,-595.3092"/>
</g>
<!-- Node25979&#45;&gt;Node25978 -->
<g id="edge17" class="edge">
<title>Node25979&#45;&gt;Node25978</title>
<path fill="none" stroke="#191970" d="M528.6528,-322.695C531.6077,-286.1335 546.9802,-158.3284 620,-95.6688 705.2217,-22.5385 768.2193,-21.4261 871,-66.6688 906.4623,-82.2788 933.7719,-120.2705 947.7219,-143.2006"/>
<polygon fill="#191970" stroke="#191970" points="944.7969,-145.1321 952.8673,-151.9964 950.839,-141.5975 944.7969,-145.1321"/>
</g>
<!-- Node25979&#45;&gt;Node25867 -->
<g id="edge19" class="edge">
<title>Node25979&#45;&gt;Node25867</title>
<path fill="none" stroke="#191970" d="M533.0364,-323.0875C545.0437,-301.1836 577.5483,-247.1482 620,-218.6688 643.1399,-203.1451 712.7531,-184.5953 761.2111,-172.9702"/>
<polygon fill="#191970" stroke="#191970" points="762.2845,-176.3128 771.2061,-170.5982 760.6681,-169.5019 762.2845,-176.3128"/>
</g>
<!-- Node25980 -->
<g id="node16" class="node">
<title>Node25980</title>
<g id="a_node16"><a xlink:href="protocols_2radius_2encode_8c.html#ab9ed924d858ec4014c358e19d860ceec" target="_top" xlink:title="encode_tags">
<polygon fill="none" stroke="#ff0000" points="631.5,-152.1688 631.5,-171.1688 703.5,-171.1688 703.5,-152.1688 631.5,-152.1688"/>
<text text-anchor="middle" x="667.5" y="-159.1688" font-family="Helvetica,sans-Serif" font-size="10.00" fill="#000000">encode_tags</text>
</a>
</g>
</g>
<!-- Node25979&#45;&gt;Node25980 -->
<g id="edge20" class="edge">
<title>Node25979&#45;&gt;Node25980</title>
<path fill="none" stroke="#191970" d="M530.395,-323.0211C539.1924,-295.7095 571.742,-220.7077 620,-176.6688 620.9597,-175.793 621.9574,-174.9409 622.9858,-174.1142"/>
<polygon fill="#191970" stroke="#191970" points="625.1419,-176.8781 631.3569,-168.2977 621.1475,-171.1296 625.1419,-176.8781"/>
</g>
<!-- Node25982 -->
<g id="node17" class="node">
<title>Node25982</title>
<g id="a_node17"><a xlink:href="protocols_2radius_2base_8c.html#af9cea5611de33e25c91cdbacd88caef7" target="_top" xlink:title="Return the on&#45;the&#45;wire length of an attribute value. ">
<polygon fill="none" stroke="#000000" points="765,-304.1688 765,-323.1688 857,-323.1688 857,-304.1688 765,-304.1688"/>
<text text-anchor="middle" x="811" y="-311.1688" font-family="Helvetica,sans-Serif" font-size="10.00" fill="#000000">fr_radius_attr_len</text>
</a>
</g>
</g>
<!-- Node25979&#45;&gt;Node25982 -->
<g id="edge23" class="edge">
<title>Node25979&#45;&gt;Node25982</title>
<path fill="none" stroke="#191970" d="M529.9468,-342.3808C536.4571,-371.9446 560.5088,-460.9336 620,-495.6688 656.4621,-516.958 679.8977,-519.1325 715,-495.6688 749.7897,-472.414 731.7569,-445.8281 751,-408.6688 765.4269,-380.8098 785.4076,-350.4602 798.2699,-331.7448"/>
<polygon fill="#191970" stroke="#191970" points="801.289,-333.5334 804.1185,-323.3233 795.5395,-329.5404 801.289,-333.5334"/>
</g>
<!-- Node25983 -->
<g id="node18" class="node">
<title>Node25983</title>
<g id="a_node18"><a xlink:href="dict_8h.html#ab4abf3bf9320fe063c8031c515daf937" target="_top" xlink:title="Return true if this attribute is parented directly off the dictionary root. ">
<polygon fill="none" stroke="#ff0000" points="620,-456.6688 620,-486.6688 715,-486.6688 715,-456.6688 620,-456.6688"/>
<text text-anchor="start" x="628" y="-474.6688" font-family="Helvetica,sans-Serif" font-size="10.00" fill="#000000">fr_dict_attr_is_top</text>
<text text-anchor="middle" x="667.5" y="-463.6688" font-family="Helvetica,sans-Serif" font-size="10.00" fill="#000000">_level</text>
</a>
</g>
</g>
<!-- Node25979&#45;&gt;Node25983 -->
<g id="edge24" class="edge">
<title>Node25979&#45;&gt;Node25983</title>
<path fill="none" stroke="#191970" d="M534.5457,-342.2635C548.5633,-362.3528 583.2134,-409.6286 620,-441.6688 623.6683,-444.8638 627.7102,-447.9525 631.8408,-450.8552"/>
<polygon fill="#191970" stroke="#191970" points="630.0902,-453.8945 640.353,-456.5263 633.9714,-448.069 630.0902,-453.8945"/>
</g>
<!-- Node26216 -->
<g id="node19" class="node">
<title>Node26216</title>
<g id="a_node19"><a xlink:href="protocols_2radius_2encode_8c.html#a3d7250c8c84799ac391ad0fb8e639124" target="_top" xlink:title="Encode an RFC standard attribute 1..255. ">
<polygon fill="none" stroke="#ff0000" points="626,-304.1688 626,-323.1688 709,-323.1688 709,-304.1688 626,-304.1688"/>
<text text-anchor="middle" x="667.5" y="-311.1688" font-family="Helvetica,sans-Serif" font-size="10.00" fill="#000000">encode_rfc_hdr</text>
</a>
</g>
</g>
<!-- Node25979&#45;&gt;Node26216 -->
<g id="edge25" class="edge">
<title>Node25979&#45;&gt;Node26216</title>
<path fill="none" stroke="#191970" d="M584.3379,-324.9955C594.7732,-323.5742 605.6247,-322.0963 615.9099,-320.6954"/>
<polygon fill="#191970" stroke="#191970" points="616.5339,-324.1428 625.97,-319.3252 615.5891,-317.2069 616.5339,-324.1428"/>
</g>
<!-- Node25985 -->
<g id="node20" class="node">
<title>Node25985</title>
<g id="a_node20"><a xlink:href="dict__ext_8h.html#affb00364829956930ef20d851f569aab" target="_top" xlink:title="Return the vendor number for an attribute. ">
<polygon fill="none" stroke="#ff0000" points="907,-469.6688 907,-499.6688 1009,-499.6688 1009,-469.6688 907,-469.6688"/>
<text text-anchor="start" x="915" y="-487.6688" font-family="Helvetica,sans-Serif" font-size="10.00" fill="#000000">fr_dict_vendor_num</text>
<text text-anchor="middle" x="958" y="-476.6688" font-family="Helvetica,sans-Serif" font-size="10.00" fill="#000000">_by_da</text>
</a>
</g>
</g>
<!-- Node25979&#45;&gt;Node25985 -->
<g id="edge37" class="edge">
<title>Node25979&#45;&gt;Node25985</title>
<path fill="none" stroke="#191970" d="M546.3239,-342.2359C564.6429,-351.5594 593.7832,-365.7431 620,-375.6688 661.1664,-391.2543 678.1854,-379.5386 715,-403.6688 735.8458,-417.3322 729.4655,-434.1189 751,-446.6688 795.2764,-472.4724 853.1715,-481.408 896.4722,-484.2134"/>
<polygon fill="#191970" stroke="#191970" points="896.4116,-487.7153 906.5904,-484.7754 896.7999,-480.7261 896.4116,-487.7153"/>
</g>
<!-- Node26067 -->
<g id="node21" class="node">
<title>Node26067</title>
<g id="a_node21"><a xlink:href="proto_8c.html#a1097e0481003e69568734523603d298a" target="_top" xlink:title="Build a complete DA stack from the da back to the root. ">
<polygon fill="none" stroke="#ff0000" points="751,-228.1688 751,-247.1688 871,-247.1688 871,-228.1688 751,-228.1688"/>
<text text-anchor="middle" x="811" y="-235.1688" font-family="Helvetica,sans-Serif" font-size="10.00" fill="#000000">fr_proto_da_stack_build</text>
</a>
</g>
</g>
<!-- Node25979&#45;&gt;Node26067 -->
<g id="edge31" class="edge">
<title>Node25979&#45;&gt;Node26067</title>
<path fill="none" stroke="#191970" d="M549.3232,-323.1373C567.8177,-315.0454 595.4068,-303.392 620,-294.6688 668.9496,-277.3063 726.1543,-260.71 765.1093,-249.9495"/>
<polygon fill="#191970" stroke="#191970" points="766.3795,-253.2304 775.0964,-247.2082 764.5266,-246.48 766.3795,-253.2304"/>
</g>
<!-- Node26241 -->
<g id="node22" class="node">
<title>Node26241</title>
<g id="a_node22"><a xlink:href="protocols_2radius_2encode_8c.html#af7a8c553547d010afc822c25a5fa9df9" target="_top" xlink:title="Encode an RFC format attribute, with the &quot;concat&quot; flag set. ">
<polygon fill="none" stroke="#ff0000" points="626,-228.1688 626,-247.1688 709,-247.1688 709,-228.1688 626,-228.1688"/>
<text text-anchor="middle" x="667.5" y="-235.1688" font-family="Helvetica,sans-Serif" font-size="10.00" fill="#000000">encode_concat</text>
</a>
</g>
</g>
<!-- Node25979&#45;&gt;Node26241 -->
<g id="edge32" class="edge">
<title>Node25979&#45;&gt;Node26241</title>
<path fill="none" stroke="#191970" d="M539.1085,-322.9727C555.9102,-308.5734 589.1099,-281.1456 620,-261.6688 625.4367,-258.2409 631.426,-254.9038 637.2662,-251.8613"/>
<polygon fill="#191970" stroke="#191970" points="638.863,-254.976 646.22,-247.352 635.7144,-248.7241 638.863,-254.976"/>
</g>
<!-- Node26242 -->
<g id="node23" class="node">
<title>Node26242</title>
<g id="a_node23"><a xlink:href="protocols_2radius_2encode_8c.html#ab2bdab8c27d45c00608848d01fbe6740" target="_top" xlink:title="Encode a WiMAX attribute. ">
<polygon fill="none" stroke="#ff0000" points="760.5,-494.1688 760.5,-513.1688 861.5,-513.1688 861.5,-494.1688 760.5,-494.1688"/>
<text text-anchor="middle" x="811" y="-501.1688" font-family="Helvetica,sans-Serif" font-size="10.00" fill="#000000">encode_wimax_hdr</text>
</a>
</g>
</g>
<!-- Node25979&#45;&gt;Node26242 -->
<g id="edge38" class="edge">
<title>Node25979&#45;&gt;Node26242</title>
<path fill="none" stroke="#191970" d="M538.7283,-342.2952C555.305,-356.8478 588.5272,-384.7536 620,-403.6688 659.7238,-427.5428 676.3223,-421.1348 715,-446.6688 733.1138,-458.6271 732.6244,-468.1168 751,-479.6688 757.3341,-483.6508 764.4396,-487.1868 771.485,-490.2389"/>
<polygon fill="#191970" stroke="#191970" points="770.3949,-493.5739 780.9768,-494.0975 773.0311,-487.0892 770.3949,-493.5739"/>
</g>
<!-- Node26245 -->
<g id="node24" class="node">
<title>Node26245</title>
<g id="a_node24"><a xlink:href="protocols_2radius_2encode_8c.html#a3235e203468d03791420aa156434cef8" target="_top" xlink:title="Encode a Vendor&#45;Specific attribute. ">
<polygon fill="none" stroke="#ff0000" points="623.5,-544.1688 623.5,-563.1688 711.5,-563.1688 711.5,-544.1688 623.5,-544.1688"/>
<text text-anchor="middle" x="667.5" y="-551.1688" font-family="Helvetica,sans-Serif" font-size="10.00" fill="#000000">encode_vsa_hdr</text>
</a>
</g>
</g>
<!-- Node25979&#45;&gt;Node26245 -->
<g id="edge42" class="edge">
<title>Node25979&#45;&gt;Node26245</title>
<path fill="none" stroke="#191970" d="M530.178,-342.5899C537.5095,-373.8984 564.034,-471.9436 620,-529.6688 623.4368,-533.2136 627.5084,-536.3242 631.8002,-539.0275"/>
<polygon fill="#191970" stroke="#191970" points="630.3435,-542.2219 640.7859,-544.0129 633.7396,-536.1009 630.3435,-542.2219"/>
</g>
<!-- Node26220 -->
<g id="node25" class="node">
<title>Node26220</title>
<g id="a_node25"><a xlink:href="protocols_2radius_2encode_8c.html#aba9f98ae827e7a8e928f443dab807f29" target="_top" xlink:title="encode_tlv_hdr">
<polygon fill="none" stroke="#ff0000" points="769.5,-418.1688 769.5,-437.1688 852.5,-437.1688 852.5,-418.1688 769.5,-418.1688"/>
<text text-anchor="middle" x="811" y="-425.1688" font-family="Helvetica,sans-Serif" font-size="10.00" fill="#000000">encode_tlv_hdr</text>
</a>
</g>
</g>
<!-- Node25979&#45;&gt;Node26220 -->
<g id="edge46" class="edge">
<title>Node25979&#45;&gt;Node26220</title>
<path fill="none" stroke="#191970" d="M584.0988,-339.0801C622.3808,-344.987 673.4768,-355.9411 715,-375.6688 733.3085,-384.3672 733.4173,-393.5835 751,-403.6688 757.9111,-407.6329 765.6051,-411.2446 773.1157,-414.3943"/>
<polygon fill="#191970" stroke="#191970" points="771.8737,-417.6671 782.4585,-418.1287 774.4718,-411.1671 771.8737,-417.6671"/>
</g>
<!-- Node26247 -->
<g id="node26" class="node">
<title>Node26247</title>
<g id="a_node26"><a xlink:href="protocols_2radius_2encode_8c.html#ae016fe0d7d252e56c47db14a2b8fa4c3" target="_top" xlink:title="Encode an &quot;extended&quot; attribute. ">
<polygon fill="none" stroke="#ff0000" points="755,-76.1688 755,-95.1688 867,-95.1688 867,-76.1688 755,-76.1688"/>
<text text-anchor="middle" x="811" y="-83.1688" font-family="Helvetica,sans-Serif" font-size="10.00" fill="#000000">encode_extended_hdr</text>
</a>
</g>
</g>
<!-- Node25979&#45;&gt;Node26247 -->
<g id="edge49" class="edge">
<title>Node25979&#45;&gt;Node26247</title>
<path fill="none" stroke="#191970" d="M529.7927,-323.1083C536.1101,-292.115 560.2635,-193.4905 620,-142.6688 654.8672,-113.005 704.7025,-98.778 744.7255,-91.955"/>
<polygon fill="#191970" stroke="#191970" points="745.3472,-95.4002 754.6744,-90.375 744.2491,-88.4869 745.3472,-95.4002"/>
</g>
<!-- Node25980&#45;&gt;Node25978 -->
<g id="edge21" class="edge">
<title>Node25980&#45;&gt;Node25978</title>
<path fill="none" stroke="#191970" d="M701.3306,-152.1613C716.4021,-148.3967 734.4529,-144.5276 751,-142.6688 804,-136.715 817.9746,-136.9461 871,-142.6688 884.7185,-144.1493 899.446,-146.9069 912.8115,-149.8711"/>
<polygon fill="#191970" stroke="#191970" points="912.1964,-153.3211 922.7274,-152.1604 913.7711,-146.5005 912.1964,-153.3211"/>
</g>
<!-- Node25980&#45;&gt;Node25979 -->
<g id="edge22" class="edge">
<title>Node25980&#45;&gt;Node25979</title>
<path fill="none" stroke="#191970" d="M658.2162,-171.1947C647.9382,-177.3081 631.3291,-184.3302 620,-194.6688 581.4071,-229.8876 552.8606,-284.9087 538.4745,-313.8969"/>
<polygon fill="#191970" stroke="#191970" points="535.2739,-312.4737 533.9833,-322.9896 541.55,-315.5737 535.2739,-312.4737"/>
</g>
<!-- Node26216&#45;&gt;Node25845 -->
<g id="edge27" class="edge">
<title>Node26216&#45;&gt;Node25845</title>
<path fill="none" stroke="#191970" d="M684.0113,-323.2233C693.2594,-328.705 704.9236,-335.8369 715,-342.6688 731.5539,-353.8924 733.2496,-360.4533 751,-369.6688 800.7714,-395.5086 830.7298,-369.6406 871,-408.6688 904.9204,-441.543 885.0099,-466.8627 907,-508.6688 917.2005,-528.0612 932.1164,-548.1624 943.1848,-562.0049"/>
<polygon fill="#191970" stroke="#191970" points="940.7797,-564.5935 949.8144,-570.1274 946.2026,-560.1672 940.7797,-564.5935"/>
</g>
<!-- Node26216&#45;&gt;Node25978 -->
<g id="edge26" class="edge">
<title>Node26216&#45;&gt;Node25978</title>
<path fill="none" stroke="#191970" d="M706.0236,-304.0972C760.9848,-290.2573 856.8569,-265.3636 871,-256.6688 903.3621,-236.7734 931.0813,-201.4547 946.071,-179.9396"/>
<polygon fill="#191970" stroke="#191970" points="949.1521,-181.6318 951.8631,-171.3896 943.3568,-177.7057 949.1521,-181.6318"/>
</g>
<!-- Node26216&#45;&gt;Node25867 -->
<g id="edge29" class="edge">
<title>Node26216&#45;&gt;Node25867</title>
<path fill="none" stroke="#191970" d="M675.5207,-303.9768C690.0903,-286.5018 722.0752,-248.7352 751,-218.6688 764.435,-204.7035 780.368,-189.6317 792.4376,-178.4958"/>
<polygon fill="#191970" stroke="#191970" points="795.0893,-180.8132 800.098,-171.4771 790.3604,-175.652 795.0893,-180.8132"/>
</g>
<!-- Node26216&#45;&gt;Node25985 -->
<g id="edge28" class="edge">
<title>Node26216&#45;&gt;Node25985</title>
<path fill="none" stroke="#191970" d="M709.0229,-323.2284C760.4428,-335.5911 844.4927,-357.6718 871,-375.6688 903.6829,-397.8587 930.0447,-436.0386 944.8672,-460.8134"/>
<polygon fill="#191970" stroke="#191970" points="941.9191,-462.7063 949.9722,-469.591 947.9701,-459.187 941.9191,-462.7063"/>
</g>
<!-- Node26216&#45;&gt;Node26067 -->
<g id="edge30" class="edge">
<title>Node26216&#45;&gt;Node26067</title>
<path fill="none" stroke="#191970" d="M688.7902,-304.0017C697.1594,-299.9232 706.7254,-294.9079 715,-289.6688 732.1256,-278.8255 733.4173,-271.7541 751,-261.6688 757.9111,-257.7046 765.6051,-254.093 773.1157,-250.9432"/>
<polygon fill="#191970" stroke="#191970" points="774.4718,-254.1705 782.4585,-247.2089 771.8737,-247.6705 774.4718,-254.1705"/>
</g>
<!-- Node26241&#45;&gt;Node25978 -->
<g id="edge33" class="edge">
<title>Node26241&#45;&gt;Node25978</title>
<path fill="none" stroke="#191970" d="M703.9979,-228.1203C756.6126,-214.3553 853.7738,-188.9362 911.4746,-173.8407"/>
<polygon fill="#191970" stroke="#191970" points="912.6344,-177.1551 921.4229,-171.238 910.8627,-170.383 912.6344,-177.1551"/>
</g>
<!-- Node26241&#45;&gt;Node25867 -->
<g id="edge35" class="edge">
<title>Node26241&#45;&gt;Node25867</title>
<path fill="none" stroke="#191970" d="M688.7902,-228.0017C697.1594,-223.9232 706.7254,-218.9079 715,-213.6688 732.1256,-202.8255 733.4173,-195.7541 751,-185.6688 757.9111,-181.7046 765.6051,-178.093 773.1157,-174.9432"/>
<polygon fill="#191970" stroke="#191970" points="774.4718,-178.1705 782.4585,-171.2089 771.8737,-171.6705 774.4718,-178.1705"/>
</g>
<!-- Node26241&#45;&gt;Node25982 -->
<g id="edge34" class="edge">
<title>Node26241&#45;&gt;Node25982</title>
<path fill="none" stroke="#191970" d="M685.6744,-247.2942C710.4738,-260.4284 755.1125,-284.0698 783.878,-299.3045"/>
<polygon fill="#191970" stroke="#191970" points="782.4979,-302.5341 792.9732,-304.1215 785.7742,-296.3482 782.4979,-302.5341"/>
</g>
<!-- Node26241&#45;&gt;Node26067 -->
<g id="edge36" class="edge">
<title>Node26241&#45;&gt;Node26067</title>
<path fill="none" stroke="#191970" d="M709.0061,-237.6688C718.9172,-237.6688 729.7707,-237.6688 740.5837,-237.6688"/>
<polygon fill="#191970" stroke="#191970" points="740.9064,-241.1689 750.9064,-237.6688 740.9064,-234.1689 740.9064,-241.1689"/>
</g>
<!-- Node26242&#45;&gt;Node25845 -->
<g id="edge40" class="edge">
<title>Node26242&#45;&gt;Node25845</title>
<path fill="none" stroke="#191970" d="M829.6177,-513.2942C855.1324,-526.4856 901.1474,-550.2756 930.5999,-565.5028"/>
<polygon fill="#191970" stroke="#191970" points="929.0431,-568.6379 939.5335,-570.1215 932.2579,-562.4198 929.0431,-568.6379"/>
</g>
<!-- Node26242&#45;&gt;Node25978 -->
<g id="edge39" class="edge">
<title>Node26242&#45;&gt;Node25978</title>
<path fill="none" stroke="#191970" d="M824.6306,-494.075C838.2414,-483.8172 858.8371,-466.3452 871,-446.6688 926.4015,-357.0437 948.7171,-229.6328 955.5253,-181.2902"/>
<polygon fill="#191970" stroke="#191970" points="959.0117,-181.6249 956.8728,-171.2482 952.0738,-180.6939 959.0117,-181.6249"/>
</g>
<!-- Node26242&#45;&gt;Node25985 -->
<g id="edge41" class="edge">
<title>Node26242&#45;&gt;Node25985</title>
<path fill="none" stroke="#191970" d="M861.5891,-497.1301C872.8943,-495.6688 885.0031,-494.1038 896.689,-492.5933"/>
<polygon fill="#191970" stroke="#191970" points="897.3499,-496.0371 906.8187,-491.2841 896.4525,-489.0949 897.3499,-496.0371"/>
</g>
<!-- Node26245&#45;&gt;Node25845 -->
<g id="edge43" class="edge">
<title>Node26245&#45;&gt;Node25845</title>
<path fill="none" stroke="#191970" d="M711.6207,-557.6176C763.4706,-562.2582 849.4522,-569.9537 904.9051,-574.9167"/>
<polygon fill="#191970" stroke="#191970" points="904.6167,-578.4048 914.889,-575.8103 905.2408,-571.4327 904.6167,-578.4048"/>
</g>
<!-- Node26245&#45;&gt;Node25985 -->
<g id="edge44" class="edge">
<title>Node26245&#45;&gt;Node25985</title>
<path fill="none" stroke="#191970" d="M711.8797,-550.2629C753.5919,-546.2793 817.4438,-538.1555 871,-522.6688 887.2354,-517.974 904.4227,-510.9437 919.1946,-504.2019"/>
<polygon fill="#191970" stroke="#191970" points="920.9435,-507.2479 928.5188,-499.8407 917.9777,-500.9072 920.9435,-507.2479"/>
</g>
<!-- Node26245&#45;&gt;Node26242 -->
<g id="edge45" class="edge">
<title>Node26245&#45;&gt;Node26242</title>
<path fill="none" stroke="#191970" d="M694.829,-544.1465C717.1282,-536.3768 748.8648,-525.3187 773.5333,-516.7234"/>
<polygon fill="#191970" stroke="#191970" points="774.9924,-519.9214 783.2839,-513.326 772.6891,-513.3112 774.9924,-519.9214"/>
</g>
<!-- Node26220&#45;&gt;Node25845 -->
<g id="edge48" class="edge">
<title>Node26220&#45;&gt;Node25845</title>
<path fill="none" stroke="#191970" d="M821.8372,-437.54C834.0225,-448.7358 854.29,-467.6503 871,-484.6688 896.9327,-511.0803 925.698,-543.0492 942.7939,-562.3501"/>
<polygon fill="#191970" stroke="#191970" points="940.3285,-564.8459 949.57,-570.0273 945.5767,-560.2138 940.3285,-564.8459"/>
</g>
<!-- Node26220&#45;&gt;Node25978 -->
<g id="edge47" class="edge">
<title>Node26220&#45;&gt;Node25978</title>
<path fill="none" stroke="#191970" d="M817.4336,-418.1394C828.7581,-401.2258 852.7776,-364.7192 871,-332.6688 901.7507,-278.5833 933.9434,-212.3891 949.1034,-180.5489"/>
<polygon fill="#191970" stroke="#191970" points="952.2829,-182.0126 953.4036,-171.4772 945.9575,-179.0142 952.2829,-182.0126"/>
</g>
<!-- Node26247&#45;&gt;Node25978 -->
<g id="edge50" class="edge">
<title>Node26247&#45;&gt;Node25978</title>
<path fill="none" stroke="#191970" d="M837.3828,-95.1835C847.9944,-99.2772 860.2414,-104.3436 871,-109.6688 893.3545,-120.7336 917.627,-135.488 934.8396,-146.4536"/>
<polygon fill="#191970" stroke="#191970" points="933.3166,-149.6358 943.6189,-152.1083 937.1071,-143.7509 933.3166,-149.6358"/>
</g>
<!-- Node26248&#45;&gt;Node25845 -->
<g id="edge52" class="edge">
<title>Node26248&#45;&gt;Node25845</title>
<path fill="none" stroke="#191970" d="M256.663,-743.6688C315.3216,-743.6688 430.3177,-743.6688 528,-743.6688 528,-743.6688 528,-743.6688 667.5,-743.6688 764.5206,-743.6688 789.425,-717.1903 871,-664.6688 900.2537,-645.834 927.8901,-616.0335 943.8729,-597.1848"/>
<polygon fill="#191970" stroke="#191970" points="946.6635,-599.3029 950.3603,-589.3739 941.2786,-594.8304 946.6635,-599.3029"/>
</g>
<!-- Node26249 -->
<g id="node28" class="node">
<title>Node26249</title>
<g id="a_node28"><a xlink:href="hmac__md5_8c.html#ad2cdd3bcebcf92acb528af5d38e85d9e" target="_top" xlink:title="Calculate HMAC using internal MD5 implementation. ">
<polygon fill="none" stroke="#000000" points="339,-772.1688 339,-791.1688 415,-791.1688 415,-772.1688 339,-772.1688"/>
<text text-anchor="middle" x="377" y="-779.1688" font-family="Helvetica,sans-Serif" font-size="10.00" fill="#000000">fr_hmac_md5</text>
</a>
</g>
</g>
<!-- Node26248&#45;&gt;Node26249 -->
<g id="edge53" class="edge">
<title>Node26248&#45;&gt;Node26249</title>
<path fill="none" stroke="#191970" d="M256.8958,-752.9646C278.599,-758.1516 305.8211,-764.6575 328.8591,-770.1634"/>
<polygon fill="#191970" stroke="#191970" points="328.2407,-773.6141 338.7804,-772.5346 329.8679,-766.8059 328.2407,-773.6141"/>
</g>
<!-- Node25843 -->
<g id="node29" class="node">
<title>Node25843</title>
<g id="a_node29"><a xlink:href="radclient_8c.html#a3c04138a5bfe5d72780bb7e82a18e627" target="_top" xlink:title="main">
<polygon fill="none" stroke="#000000" points="509,-772.1688 509,-791.1688 547,-791.1688 547,-772.1688 509,-772.1688"/>
<text text-anchor="middle" x="528" y="-779.1688" font-family="Helvetica,sans-Serif" font-size="10.00" fill="#000000">main</text>
</a>
</g>
</g>
<!-- Node26249&#45;&gt;Node25843 -->
<g id="edge54" class="edge">
<title>Node26249&#45;&gt;Node25843</title>
<path fill="none" stroke="#191970" d="M415.1037,-781.6688C441.0152,-781.6688 474.7887,-781.6688 498.6218,-781.6688"/>
<polygon fill="#191970" stroke="#191970" points="498.8087,-785.1689 508.8087,-781.6688 498.8087,-778.1689 498.8087,-785.1689"/>
</g>
</g>
</svg>
        <g id="navigator" transform="translate(0 0)" fill="#404254">
                <rect fill="#f2f5e9" fill-opacity="0.5" stroke="#606060" stroke-width=".5" x="0" y="0" width="60" height="60"/>
                <use id="zoomplus" xlink:href="#zoomPlus" x="17" y="9" onmousedown="handleZoom(evt,'in')"/>
                <use id="zoomminus" xlink:href="#zoomMin" x="42" y="9" onmousedown="handleZoom(evt,'out')"/>
                <use id="reset" xlink:href="#resetDef" x="30" y="36" onmousedown="handleReset()"/>
                <g id="arrowUp" xlink:href="#dirArrow" transform="translate(30 24)" onmousedown="handlePan(0,-1)">
                  <use xlink:href="#rim" fill="#404040">
                        <set attributeName="fill" to="#808080" begin="arrowUp.mouseover" end="arrowUp.mouseout"/>
                  </use>
                  <path fill="none" stroke="white" stroke-width="1.5" d="M0,-3.0v7 M-2.5,-0.5L0,-3.0L2.5,-0.5"/>
                </g>
                <g id="arrowRight" xlink:href="#dirArrow" transform="rotate(90) translate(36 -43)" onmousedown="handlePan(1,0)">
                  <use xlink:href="#rim" fill="#404040">
                        <set attributeName="fill" to="#808080" begin="arrowRight.mouseover" end="arrowRight.mouseout"/>
                  </use>
                  <path fill="none" stroke="white" stroke-width="1.5" d="M0,-3.0v7 M-2.5,-0.5L0,-3.0L2.5,-0.5"/>
                </g>
                <g id="arrowDown" xlink:href="#dirArrow" transform="rotate(180) translate(-30 -48)" onmousedown="handlePan(0,1)">
                  <use xlink:href="#rim" fill="#404040">
                        <set attributeName="fill" to="#808080" begin="arrowDown.mouseover" end="arrowDown.mouseout"/>
                  </use>
                  <path fill="none" stroke="white" stroke-width="1.5" d="M0,-3.0v7 M-2.5,-0.5L0,-3.0L2.5,-0.5"/>
                </g>
                <g id="arrowLeft" xlink:href="#dirArrow" transform="rotate(270) translate(-36 17)" onmousedown="handlePan(-1,0)">
                  <use xlink:href="#rim" fill="#404040">
                        <set attributeName="fill" to="#808080" begin="arrowLeft.mouseover" end="arrowLeft.mouseout"/>
                  </use>
                  <path fill="none" stroke="white" stroke-width="1.5" d="M0,-3.0v7 M-2.5,-0.5L0,-3.0L2.5,-0.5"/>
                </g>
        </g>
        <svg viewBox="0 0 15 15" width="100%" height="30px" preserveAspectRatio="xMaxYMin meet">
         <g id="arrow_out" transform="scale(0.3 0.3)">
          <a xlink:href="protocols_2radius_2encode_8c_adad82559db1236a45bad88956ebca15c_cgraph_org.svg" target="_base">
           <rect id="button" ry="5" rx="5" y="6" x="6" height="38" width="38"
                fill="#f2f5e9" fill-opacity="0.5" stroke="#606060" stroke-width="1.0"/>
           <path id="arrow"
             d="M 11.500037,31.436501 C 11.940474,20.09759 22.043105,11.32322 32.158766,21.979434 L 37.068811,17.246167 C 37.068811,17.246167 37.088388,32 37.088388,32 L 22.160133,31.978069 C 22.160133,31.978069 26.997745,27.140456 26.997745,27.140456 C 18.528582,18.264221 13.291696,25.230495 11.500037,31.436501 z"
             style="fill:#404040;"/>
          </a>
         </g>
        </svg>
</svg>
