<?xml version="1.0" encoding="UTF-8" standalone="no"?>
<!DOCTYPE svg PUBLIC "-//W3C//DTD SVG 1.1//EN"
 "http://www.w3.org/Graphics/SVG/1.1/DTD/svg11.dtd">
<!-- Generated by graphviz version 2.40.1 (20161225.0304)
 -->
<!-- Title: dhcpv6_print_hex Pages: 1 -->
<svg width="223pt" height="66pt"
 viewBox="0.00 0.00 223.00 66.00" xmlns="http://www.w3.org/2000/svg" xmlns:xlink="http://www.w3.org/1999/xlink">
<g id="graph0" class="graph" transform="scale(1 1) rotate(0) translate(4 62)">
<title>dhcpv6_print_hex</title>
<!-- Node136 -->
<g id="node1" class="node">
<title>Node136</title>
<polygon fill="#bfbfbf" stroke="#000000" points="0,-19.5 0,-38.5 93,-38.5 93,-19.5 0,-19.5"/>
<text text-anchor="middle" x="46.5" y="-26.5" font-family="Helvetica,sans-Serif" font-size="10.00" fill="#000000">dhcpv6_print_hex</text>
</g>
<!-- Node137 -->
<g id="node2" class="node">
<title>Node137</title>
<g id="a_node2"><a xlink:href="protocols_2dhcpv6_2base_8c.html#a3c6193ca2048badfd6cdcec925ecda81" target="_top" xlink:title="print_hex_data">
<polygon fill="none" stroke="#000000" points="132,-38.5 132,-57.5 212,-57.5 212,-38.5 132,-38.5"/>
<text text-anchor="middle" x="172" y="-45.5" font-family="Helvetica,sans-Serif" font-size="10.00" fill="#000000">print_hex_data</text>
</a>
</g>
</g>
<!-- Node136&#45;&gt;Node137 -->
<g id="edge1" class="edge">
<title>Node136&#45;&gt;Node137</title>
<path fill="none" stroke="#191970" d="M93.2316,-36.0749C102.5461,-37.4851 112.3653,-38.9716 121.7909,-40.3986"/>
<polygon fill="#191970" stroke="#191970" points="121.4105,-43.8808 131.8218,-41.9172 122.4584,-36.9597 121.4105,-43.8808"/>
</g>
<!-- Node138 -->
<g id="node3" class="node">
<title>Node138</title>
<g id="a_node3"><a xlink:href="net_8h.html#a84cd6c761e97dced15b6b85deee3eb3e" target="_top" xlink:title="Read an unsigned 16bit integer from wire format (big endian) ">
<polygon fill="none" stroke="#000000" points="129,-.5 129,-19.5 215,-19.5 215,-.5 129,-.5"/>
<text text-anchor="middle" x="172" y="-7.5" font-family="Helvetica,sans-Serif" font-size="10.00" fill="#000000">fr_net_to_uint16</text>
</a>
</g>
</g>
<!-- Node136&#45;&gt;Node138 -->
<g id="edge2" class="edge">
<title>Node136&#45;&gt;Node138</title>
<path fill="none" stroke="#191970" d="M93.2316,-21.9251C101.6467,-20.6511 110.4737,-19.3147 119.0502,-18.0163"/>
<polygon fill="#191970" stroke="#191970" points="119.6003,-21.473 128.9637,-16.5155 118.5524,-14.5519 119.6003,-21.473"/>
</g>
</g>
</svg>
