<?xml version="1.0" encoding="UTF-8" standalone="no"?>
<!DOCTYPE svg PUBLIC "-//W3C//DTD SVG 1.1//EN"
 "http://www.w3.org/Graphics/SVG/1.1/DTD/svg11.dtd">
<!-- Generated by graphviz version 2.40.1 (20161225.0304)
 -->
<!-- Title: mod_event_list_set Pages: 1 -->
<!--zoomable 540 -->
<svg id="main" version="1.1" xmlns="http://www.w3.org/2000/svg" xmlns:xlink="http://www.w3.org/1999/xlink" xml:space="preserve" onload="init(evt)">
<style type="text/css"><![CDATA[
.edge:hover path { stroke: red; }
.edge:hover polygon { stroke: red; fill: red; }
]]></style>
<script type="text/javascript"><![CDATA[
var edges = document.getElementsByTagName('g');
if (edges && edges.length) {
  for (var i=0;i<edges.length;i++) {
    if (edges[i].id.substr(0,4)=='edge') {
      edges[i].setAttribute('class','edge');
    }
  }
}
]]></script>
        <defs>
                <circle id="rim" cx="0" cy="0" r="7"/>
                <circle id="rim2" cx="0" cy="0" r="3.5"/>
                <g id="zoomPlus">
                        <use xlink:href="#rim" fill="#404040">
                                <set attributeName="fill" to="#808080" begin="zoomplus.mouseover" end="zoomplus.mouseout"/>
                        </use>
                        <path d="M-4,0h8M0,-4v8" fill="none" stroke="white" stroke-width="1.5" pointer-events="none"/>
                </g>
                <g id="zoomMin">
                        <use xlink:href="#rim" fill="#404040">
                                <set attributeName="fill" to="#808080" begin="zoomminus.mouseover" end="zoomminus.mouseout"/>
                        </use>
                        <path d="M-4,0h8" fill="none" stroke="white" stroke-width="1.5" pointer-events="none"/>
                </g>
                <g id="dirArrow">
                        <path fill="none" stroke="white" stroke-width="1.5" d="M0,-3.0v7 M-2.5,-0.5L0,-3.0L2.5,-0.5"/>
                </g>
               <g id="resetDef">
                       <use xlink:href="#rim2" fill="#404040">
                               <set attributeName="fill" to="#808080" begin="reset.mouseover" end="reset.mouseout"/>
                       </use>
               </g>
        </defs>

<script type="text/javascript">
var viewWidth = 1008;
var viewHeight = 540;
var sectionId = 'dynsection-3';
</script>
<script xlink:href="svgpan.js"/>
<svg id="graph" class="graph">
<g id="viewport">
<title>mod_event_list_set</title>
<!-- Node638 -->
<g id="node1" class="node">
<title>Node638</title>
<polygon fill="#bfbfbf" stroke="#000000" points="0,-484.5 0,-503.5 101,-503.5 101,-484.5 0,-484.5"/>
<text text-anchor="middle" x="50.5" y="-491.5" font-family="Helvetica,sans-Serif" font-size="10.00" fill="#000000">mod_event_list_set</text>
</g>
<!-- Node639 -->
<g id="node2" class="node">
<title>Node639</title>
<g id="a_node2"><a xlink:href="proto__detail__file_8c.html#a9bf4da486c734dbbc3c6c08f3d5f0290" target="_top" xlink:title="work_init">
<polygon fill="none" stroke="#000000" points="137,-371.5 137,-390.5 193,-390.5 193,-371.5 137,-371.5"/>
<text text-anchor="middle" x="165" y="-378.5" font-family="Helvetica,sans-Serif" font-size="10.00" fill="#000000">work_init</text>
</a>
</g>
</g>
<!-- Node638&#45;&gt;Node639 -->
<g id="edge1" class="edge">
<title>Node638&#45;&gt;Node639</title>
<path fill="none" stroke="#191970" d="M60.2622,-484.3657C79.7819,-465.1017 123.8314,-421.6293 148.1252,-397.6537"/>
<polygon fill="#191970" stroke="#191970" points="150.6035,-400.1254 155.2625,-390.6099 145.6864,-395.1431 150.6035,-400.1254"/>
</g>
<!-- Node770 -->
<g id="node12" class="node">
<title>Node770</title>
<g id="a_node12"><a xlink:href="time_8h.html#a3f87b408dfcb4d3212d1c8831ed360cd" target="_top" xlink:title="fr_time_delta_from_sec">
<polygon fill="none" stroke="#000000" points="730,-399.5 730,-418.5 849,-418.5 849,-399.5 730,-399.5"/>
<text text-anchor="middle" x="789.5" y="-406.5" font-family="Helvetica,sans-Serif" font-size="10.00" fill="#000000">fr_time_delta_from_sec</text>
</a>
</g>
</g>
<!-- Node638&#45;&gt;Node770 -->
<g id="edge35" class="edge">
<title>Node638&#45;&gt;Node770</title>
<path fill="none" stroke="#191970" d="M83.8526,-503.589C126.016,-514.8462 201.0095,-532 266.5,-532 266.5,-532 266.5,-532 548,-532 640.7363,-532 733.825,-459.0927 771.7547,-425.5404"/>
<polygon fill="#191970" stroke="#191970" points="774.3099,-427.9491 779.3901,-418.6516 769.6207,-422.7517 774.3099,-427.9491"/>
</g>
<!-- Node1267 -->
<g id="node15" class="node">
<title>Node1267</title>
<g id="a_node15"><a xlink:href="proto__detail__file_8c.html#a4600110c6ee7f9d7e4bcb3bad53e1211" target="_top" xlink:title="work_retry_timer">
<polygon fill="none" stroke="#000000" points="353.5,-437.5 353.5,-456.5 442.5,-456.5 442.5,-437.5 353.5,-437.5"/>
<text text-anchor="middle" x="398" y="-444.5" font-family="Helvetica,sans-Serif" font-size="10.00" fill="#000000">work_retry_timer</text>
</a>
</g>
</g>
<!-- Node638&#45;&gt;Node1267 -->
<g id="edge36" class="edge">
<title>Node638&#45;&gt;Node1267</title>
<path fill="none" stroke="#191970" d="M101.0295,-487.1658C165.5329,-478.4416 276.7166,-463.4038 343.2039,-454.4113"/>
<polygon fill="#191970" stroke="#191970" points="344.0364,-457.8306 353.477,-453.0218 343.0981,-450.8938 344.0364,-457.8306"/>
</g>
<!-- Node640 -->
<g id="node3" class="node">
<title>Node640</title>
<g id="a_node3"><a xlink:href="syserror_8c.html#a18747f9d648d0aeecc4a8b27ac0435aa" target="_top" xlink:title="Guaranteed to be thread&#45;safe version of strerror. ">
<polygon fill="none" stroke="#000000" points="366.5,-190.5 366.5,-209.5 429.5,-209.5 429.5,-190.5 366.5,-190.5"/>
<text text-anchor="middle" x="398" y="-197.5" font-family="Helvetica,sans-Serif" font-size="10.00" fill="#000000">fr_syserror</text>
</a>
</g>
</g>
<!-- Node639&#45;&gt;Node640 -->
<g id="edge2" class="edge">
<title>Node639&#45;&gt;Node640</title>
<path fill="none" stroke="#191970" d="M171.6448,-371.2755C182.4381,-355.9454 205.001,-325.771 229,-305 273.6438,-266.3611 334.0136,-232.5095 369.2062,-214.2781"/>
<polygon fill="#191970" stroke="#191970" points="371.122,-217.2295 378.4307,-209.5592 367.9339,-210.9976 371.122,-217.2295"/>
</g>
<!-- Node639&#45;&gt;Node770 -->
<g id="edge20" class="edge">
<title>Node639&#45;&gt;Node770</title>
<path fill="none" stroke="#191970" d="M193.1839,-382.5289C227.7647,-384.3864 288.1872,-387.5727 340,-390 474.3408,-396.2936 631.3121,-402.7163 719.6994,-406.2474"/>
<polygon fill="#191970" stroke="#191970" points="719.7385,-409.7516 729.87,-406.653 720.0175,-402.7572 719.7385,-409.7516"/>
</g>
<!-- Node1266 -->
<g id="node14" class="node">
<title>Node1266</title>
<g id="a_node14"><a xlink:href="proto__detail__file_8c.html#a7fa0bd9b86de8222e256b6dccb154cca" target="_top" xlink:title="work_rename">
<polygon fill="none" stroke="#000000" points="229,-202.5 229,-221.5 304,-221.5 304,-202.5 229,-202.5"/>
<text text-anchor="middle" x="266.5" y="-209.5" font-family="Helvetica,sans-Serif" font-size="10.00" fill="#000000">work_rename</text>
</a>
</g>
</g>
<!-- Node639&#45;&gt;Node1266 -->
<g id="edge18" class="edge">
<title>Node639&#45;&gt;Node1266</title>
<path fill="none" stroke="#191970" d="M169.4272,-371.2626C179.1221,-350.277 203.4161,-299.4906 229,-260 235.8845,-249.3733 244.5324,-238.1868 251.7881,-229.2889"/>
<polygon fill="#191970" stroke="#191970" points="254.5174,-231.4807 258.2151,-221.552 249.1329,-227.0078 254.5174,-231.4807"/>
</g>
<!-- Node639&#45;&gt;Node1267 -->
<g id="edge21" class="edge">
<title>Node639&#45;&gt;Node1267</title>
<path fill="none" stroke="#191970" d="M193.2224,-389.3295C204.1013,-394.6057 216.8372,-400.7733 229,-405 272.2482,-420.0292 324.2374,-428.8869 359.0293,-435.5054"/>
<polygon fill="#191970" stroke="#191970" points="358.7617,-439.0189 369.2459,-437.4919 360.0978,-432.1476 358.7617,-439.0189"/>
</g>
<!-- Node1268 -->
<g id="node16" class="node">
<title>Node1268</title>
<g id="a_node16"><a xlink:href="proto__detail__file_8c.html#afd760afc77481ccc4642d9682e334043" target="_top" xlink:title="work_exists">
<polygon fill="none" stroke="#000000" points="232,-314.5 232,-333.5 301,-333.5 301,-314.5 232,-314.5"/>
<text text-anchor="middle" x="266.5" y="-321.5" font-family="Helvetica,sans-Serif" font-size="10.00" fill="#000000">work_exists</text>
</a>
</g>
</g>
<!-- Node639&#45;&gt;Node1268 -->
<g id="edge23" class="edge">
<title>Node639&#45;&gt;Node1268</title>
<path fill="none" stroke="#191970" d="M182.2181,-371.3307C198.2818,-362.3097 222.4584,-348.7327 240.8042,-338.4302"/>
<polygon fill="#191970" stroke="#191970" points="242.5308,-341.4747 249.5362,-333.5265 239.1032,-335.3713 242.5308,-341.4747"/>
</g>
<!-- Node641 -->
<g id="node4" class="node">
<title>Node641</title>
<g id="a_node4"><a xlink:href="strerror_8c.html#a2c8e65d6d4b73fb705cc023f60acb099" target="_top" xlink:title="Print the current error to stderr with a prefix. ">
<polygon fill="none" stroke="#000000" points="763,-38.5 763,-57.5 816,-57.5 816,-38.5 763,-38.5"/>
<text text-anchor="middle" x="789.5" y="-45.5" font-family="Helvetica,sans-Serif" font-size="10.00" fill="#000000">fr_perror</text>
</a>
</g>
</g>
<!-- Node640&#45;&gt;Node641 -->
<g id="edge3" class="edge">
<title>Node640&#45;&gt;Node641</title>
<path fill="none" stroke="#191970" d="M402.7268,-190.264C414.3331,-167.5386 446.6294,-111.0311 492,-86 576.1221,-39.5895 693.5314,-40.34 752.5419,-44.3779"/>
<polygon fill="#191970" stroke="#191970" points="752.6238,-47.8941 762.8596,-45.1595 753.1526,-40.9141 752.6238,-47.8941"/>
</g>
<!-- Node648 -->
<g id="node8" class="node">
<title>Node648</title>
<g id="a_node8"><a xlink:href="syserror_8c.html#ab1238c031182d57dae9463e447d9401b" target="_top" xlink:title="_fr_logging_free">
<polygon fill="none" stroke="#000000" points="505,-171.5 505,-190.5 591,-190.5 591,-171.5 505,-171.5"/>
<text text-anchor="middle" x="548" y="-178.5" font-family="Helvetica,sans-Serif" font-size="10.00" fill="#000000">_fr_logging_free</text>
</a>
</g>
</g>
<!-- Node640&#45;&gt;Node648 -->
<g id="edge7" class="edge">
<title>Node640&#45;&gt;Node648</title>
<path fill="none" stroke="#191970" d="M429.8111,-195.9706C448.6683,-193.582 473.0511,-190.4935 494.7679,-187.7427"/>
<polygon fill="#191970" stroke="#191970" points="495.3719,-191.1943 504.8527,-186.4653 494.4922,-184.2498 495.3719,-191.1943"/>
</g>
<!-- Node649 -->
<g id="node9" class="node">
<title>Node649</title>
<g id="a_node9"><a xlink:href="snprintf_8c.html#a8da10a1735da7051de5c298ca7448eee" target="_top" xlink:title="snprintf">
<polygon fill="none" stroke="#000000" points="523.5,-95.5 523.5,-114.5 572.5,-114.5 572.5,-95.5 523.5,-95.5"/>
<text text-anchor="middle" x="548" y="-102.5" font-family="Helvetica,sans-Serif" font-size="10.00" fill="#000000">snprintf</text>
</a>
</g>
</g>
<!-- Node640&#45;&gt;Node649 -->
<g id="edge8" class="edge">
<title>Node640&#45;&gt;Node649</title>
<path fill="none" stroke="#191970" d="M408.9526,-190.3158C425.8783,-175.6878 459.8078,-147.6848 492,-129 498.9469,-124.9679 506.6999,-121.2162 514.1695,-117.9332"/>
<polygon fill="#191970" stroke="#191970" points="515.5446,-121.1519 523.3975,-114.0397 512.8234,-114.7024 515.5446,-121.1519"/>
</g>
<!-- Node747 -->
<g id="node13" class="node">
<title>Node747</title>
<g id="a_node13"><a xlink:href="strlcpy_8c.html#a59f9599e77ee687b1daaa179f8b9a2f3" target="_top" xlink:title="strlcpy">
<polygon fill="none" stroke="#000000" points="525,-209.5 525,-228.5 571,-228.5 571,-209.5 525,-209.5"/>
<text text-anchor="middle" x="548" y="-216.5" font-family="Helvetica,sans-Serif" font-size="10.00" fill="#000000">strlcpy</text>
</a>
</g>
</g>
<!-- Node640&#45;&gt;Node747 -->
<g id="edge17" class="edge">
<title>Node640&#45;&gt;Node747</title>
<path fill="none" stroke="#191970" d="M429.8111,-204.0294C454.6432,-207.1748 489.0571,-211.5339 514.3473,-214.7373"/>
<polygon fill="#191970" stroke="#191970" points="514.2122,-218.2481 524.5728,-216.0326 515.0919,-211.3036 514.2122,-218.2481"/>
</g>
<!-- Node642 -->
<g id="node5" class="node">
<title>Node642</title>
<g id="a_node5"><a xlink:href="acutest_8h.html#aecf9a9be8105efb1454cd8c1ef6cb1c5" target="_top" xlink:title="va_start">
<polygon fill="none" stroke="#000000" points="916.5,-76.5 916.5,-95.5 968.5,-95.5 968.5,-76.5 916.5,-76.5"/>
<text text-anchor="middle" x="942.5" y="-83.5" font-family="Helvetica,sans-Serif" font-size="10.00" fill="#000000">va_start</text>
</a>
</g>
</g>
<!-- Node641&#45;&gt;Node642 -->
<g id="edge4" class="edge">
<title>Node641&#45;&gt;Node642</title>
<path fill="none" stroke="#191970" d="M816.1506,-54.6191C841.2375,-60.8498 878.9924,-70.2269 906.6991,-77.1083"/>
<polygon fill="#191970" stroke="#191970" points="905.8614,-80.5065 916.4102,-79.5202 907.5487,-73.7129 905.8614,-80.5065"/>
</g>
<!-- Node643 -->
<g id="node6" class="node">
<title>Node643</title>
<g id="a_node6"><a xlink:href="acutest_8h.html#a36af1f79dd6adf0809c21e76535034d5" target="_top" xlink:title="va_end">
<polygon fill="none" stroke="#000000" points="918.5,-.5 918.5,-19.5 966.5,-19.5 966.5,-.5 918.5,-.5"/>
<text text-anchor="middle" x="942.5" y="-7.5" font-family="Helvetica,sans-Serif" font-size="10.00" fill="#000000">va_end</text>
</a>
</g>
</g>
<!-- Node641&#45;&gt;Node643 -->
<g id="edge5" class="edge">
<title>Node641&#45;&gt;Node643</title>
<path fill="none" stroke="#191970" d="M816.1506,-41.3809C841.7712,-35.0176 880.6048,-25.3727 908.4538,-18.4559"/>
<polygon fill="#191970" stroke="#191970" points="909.3107,-21.8495 918.1722,-16.0422 907.6233,-15.0559 909.3107,-21.8495"/>
</g>
<!-- Node644 -->
<g id="node7" class="node">
<title>Node644</title>
<g id="a_node7"><a xlink:href="strerror_8c.html#a4bdc99630960307e43639975cd3c5f0d" target="_top" xlink:title="Pop the last library error with marker information. ">
<polygon fill="none" stroke="#ff0000" points="885,-38.5 885,-57.5 1000,-57.5 1000,-38.5 885,-38.5"/>
<text text-anchor="middle" x="942.5" y="-45.5" font-family="Helvetica,sans-Serif" font-size="10.00" fill="#000000">fr_strerror_marker_pop</text>
</a>
</g>
</g>
<!-- Node641&#45;&gt;Node644 -->
<g id="edge6" class="edge">
<title>Node641&#45;&gt;Node644</title>
<path fill="none" stroke="#191970" d="M816.1506,-48C832.411,-48 853.9934,-48 874.7122,-48"/>
<polygon fill="#191970" stroke="#191970" points="874.7868,-51.5001 884.7867,-48 874.7867,-44.5001 874.7868,-51.5001"/>
</g>
<!-- Node649&#45;&gt;Node642 -->
<g id="edge9" class="edge">
<title>Node649&#45;&gt;Node642</title>
<path fill="none" stroke="#191970" d="M572.6777,-103.8115C639.9961,-100.5693 827.0577,-91.56 906.2936,-87.7438"/>
<polygon fill="#191970" stroke="#191970" points="906.4735,-91.2393 916.2935,-87.2622 906.1367,-84.2474 906.4735,-91.2393"/>
</g>
<!-- Node649&#45;&gt;Node643 -->
<g id="edge12" class="edge">
<title>Node649&#45;&gt;Node643</title>
<path fill="none" stroke="#191970" d="M565.7112,-95.4319C597.5479,-78.7349 667.009,-44.5735 730,-29 791.4891,-13.7978 865.6513,-10.4275 908.1174,-9.8653"/>
<polygon fill="#191970" stroke="#191970" points="908.2349,-13.3645 918.204,-9.7773 908.1738,-6.3647 908.2349,-13.3645"/>
</g>
<!-- Node650 -->
<g id="node10" class="node">
<title>Node650</title>
<g id="a_node10"><a xlink:href="snprintf_8c.html#a242a1ad85c2e07e0d5d73b6342d97f13" target="_top" xlink:title="vsnprintf">
<polygon fill="none" stroke="#ff0000" points="640,-114.5 640,-133.5 694,-133.5 694,-114.5 640,-114.5"/>
<text text-anchor="middle" x="667" y="-121.5" font-family="Helvetica,sans-Serif" font-size="10.00" fill="#000000">vsnprintf</text>
</a>
</g>
</g>
<!-- Node649&#45;&gt;Node650 -->
<g id="edge10" class="edge">
<title>Node649&#45;&gt;Node650</title>
<path fill="none" stroke="#191970" d="M572.6569,-103.3441C589.9688,-104.7995 613.357,-108.335 632.515,-112.3049"/>
<polygon fill="#191970" stroke="#191970" points="631.8557,-115.7435 642.3747,-114.4779 633.3624,-108.9076 631.8557,-115.7435"/>
</g>
<!-- Node662 -->
<g id="node11" class="node">
<title>Node662</title>
<g id="a_node11"><a xlink:href="radclient_8c.html#a3c04138a5bfe5d72780bb7e82a18e627" target="_top" xlink:title="main">
<polygon fill="none" stroke="#ff0000" points="648,-152.5 648,-171.5 686,-171.5 686,-152.5 648,-152.5"/>
<text text-anchor="middle" x="667" y="-159.5" font-family="Helvetica,sans-Serif" font-size="10.00" fill="#000000">main</text>
</a>
</g>
</g>
<!-- Node649&#45;&gt;Node662 -->
<g id="edge13" class="edge">
<title>Node649&#45;&gt;Node662</title>
<path fill="none" stroke="#191970" d="M571.3394,-114.5256C581.4594,-118.7783 593.3959,-123.9598 604,-129 616.197,-134.7974 629.4718,-141.6647 640.6769,-147.6295"/>
<polygon fill="#191970" stroke="#191970" points="639.0672,-150.7378 649.5333,-152.3844 642.3784,-144.5705 639.0672,-150.7378"/>
</g>
<!-- Node650&#45;&gt;Node649 -->
<g id="edge11" class="edge">
<title>Node650&#45;&gt;Node649</title>
<path fill="none" stroke="#191970" d="M639.8854,-125.4392C622.9019,-123.8739 600.8557,-120.4962 582.6154,-116.7221"/>
<polygon fill="#191970" stroke="#191970" points="583.1756,-113.2617 572.6569,-114.5295 581.6704,-120.098 583.1756,-113.2617"/>
</g>
<!-- Node662&#45;&gt;Node640 -->
<g id="edge15" class="edge">
<title>Node662&#45;&gt;Node640</title>
<path fill="none" stroke="#191970" d="M647.8679,-159.6362C615.4405,-156.1532 547.7693,-151.1538 492,-162 468.4192,-166.586 443.2661,-177.0818 424.9185,-185.883"/>
<polygon fill="#191970" stroke="#191970" points="423.1496,-182.853 415.7341,-190.42 426.25,-189.129 423.1496,-182.853"/>
</g>
<!-- Node662&#45;&gt;Node641 -->
<g id="edge14" class="edge">
<title>Node662&#45;&gt;Node641</title>
<path fill="none" stroke="#191970" d="M681.6294,-152.38C685.7376,-149.4998 690.1356,-146.2417 694,-143 723.9437,-117.8814 755.4921,-85.0713 773.7883,-65.3174"/>
<polygon fill="#191970" stroke="#191970" points="776.5877,-67.4437 780.7749,-57.7113 771.4324,-62.7083 776.5877,-67.4437"/>
</g>
<!-- Node662&#45;&gt;Node770 -->
<g id="edge16" class="edge">
<title>Node662&#45;&gt;Node770</title>
<path fill="none" stroke="#191970" d="M671.8021,-171.6827C690.0971,-208.5713 755.6339,-340.7149 780.1532,-390.1539"/>
<polygon fill="#191970" stroke="#191970" points="777.1523,-391.9806 784.7311,-399.3842 783.4235,-388.8704 777.1523,-391.9806"/>
</g>
<!-- Node1266&#45;&gt;Node640 -->
<g id="edge19" class="edge">
<title>Node1266&#45;&gt;Node640</title>
<path fill="none" stroke="#191970" d="M304.1826,-208.5613C320.398,-207.0816 339.4172,-205.346 356.0764,-203.8257"/>
<polygon fill="#191970" stroke="#191970" points="356.4575,-207.3056 366.098,-202.9112 355.8213,-200.3346 356.4575,-207.3056"/>
</g>
<!-- Node1267&#45;&gt;Node639 -->
<g id="edge22" class="edge">
<title>Node1267&#45;&gt;Node639</title>
<path fill="none" stroke="#191970" d="M353.3284,-449.1576C318.7249,-445.926 269.945,-437.2288 229,-423 211.1359,-416.7921 192.0355,-406.3972 179.3983,-397.0744"/>
<polygon fill="#191970" stroke="#191970" points="181.3995,-394.189 171.4489,-390.5507 176.9588,-399.6001 181.3995,-394.189"/>
</g>
<!-- Node1268&#45;&gt;Node640 -->
<g id="edge29" class="edge">
<title>Node1268&#45;&gt;Node640</title>
<path fill="none" stroke="#191970" d="M277.5191,-314.4009C285.2785,-307.4133 295.7172,-297.5412 304,-288 321.951,-267.3217 320.2159,-256.9319 340,-238 349.216,-229.181 360.7394,-221.1524 371.0813,-214.7706"/>
<polygon fill="#191970" stroke="#191970" points="372.9655,-217.7224 379.7777,-209.608 369.3921,-211.7032 372.9655,-217.7224"/>
</g>
<!-- Node1268&#45;&gt;Node1267 -->
<g id="edge30" class="edge">
<title>Node1268&#45;&gt;Node1267</title>
<path fill="none" stroke="#191970" d="M276.8186,-333.6516C299.192,-354.5788 352.3924,-404.3404 380.2685,-430.4146"/>
<polygon fill="#191970" stroke="#191970" points="378.0353,-433.1182 387.7293,-437.3932 382.8171,-428.006 378.0353,-433.1182"/>
</g>
<!-- Node1269 -->
<g id="node17" class="node">
<title>Node1269</title>
<g id="a_node17"><a xlink:href="proto__detail__file_8c.html#af91bc25c12a449831479c9866c868005" target="_top" xlink:title="mod_vnode_delete">
<polygon fill="none" stroke="#000000" points="349,-323.5 349,-342.5 447,-342.5 447,-323.5 349,-323.5"/>
<text text-anchor="middle" x="398" y="-330.5" font-family="Helvetica,sans-Serif" font-size="10.00" fill="#000000">mod_vnode_delete</text>
</a>
</g>
</g>
<!-- Node1268&#45;&gt;Node1269 -->
<g id="edge24" class="edge">
<title>Node1268&#45;&gt;Node1269</title>
<path fill="none" stroke="#191970" d="M301.0501,-326.3646C312.5786,-327.1537 325.7732,-328.0567 338.6383,-328.9372"/>
<polygon fill="#191970" stroke="#191970" points="338.6316,-332.4449 348.8473,-329.6359 339.1096,-325.4612 338.6316,-332.4449"/>
</g>
<!-- Node1270 -->
<g id="node18" class="node">
<title>Node1270</title>
<g id="a_node18"><a xlink:href="lib_2util_2event_8c.html#ad0f349a648681867b3758de01da84709" target="_top" xlink:title="Remove a file descriptor from the event loop. ">
<polygon fill="none" stroke="#ff0000" points="499.5,-285.5 499.5,-304.5 596.5,-304.5 596.5,-285.5 499.5,-285.5"/>
<text text-anchor="middle" x="548" y="-292.5" font-family="Helvetica,sans-Serif" font-size="10.00" fill="#000000">fr_event_fd_delete</text>
</a>
</g>
</g>
<!-- Node1268&#45;&gt;Node1270 -->
<g id="edge34" class="edge">
<title>Node1268&#45;&gt;Node1270</title>
<path fill="none" stroke="#191970" d="M301.2321,-318.9542C313.4703,-317.2613 327.3323,-315.4396 340,-314 390.2605,-308.2882 447.5074,-303.1596 489.2029,-299.6746"/>
<polygon fill="#191970" stroke="#191970" points="489.5102,-303.1612 499.1867,-298.8467 488.9316,-296.1851 489.5102,-303.1612"/>
</g>
<!-- Node1271 -->
<g id="node19" class="node">
<title>Node1271</title>
<g id="a_node19"><a xlink:href="misc_8c.html#ab4b92250c81cbae122583e8c58e942b5" target="_top" xlink:title="rad_lockfd_nonblock">
<polygon fill="none" stroke="#000000" points="345,-247.5 345,-266.5 451,-266.5 451,-247.5 345,-247.5"/>
<text text-anchor="middle" x="398" y="-254.5" font-family="Helvetica,sans-Serif" font-size="10.00" fill="#000000">rad_lockfd_nonblock</text>
</a>
</g>
</g>
<!-- Node1268&#45;&gt;Node1271 -->
<g id="edge27" class="edge">
<title>Node1268&#45;&gt;Node1271</title>
<path fill="none" stroke="#191970" d="M281.3688,-314.4869C295.9843,-305.3325 319.0785,-291.3875 340,-281 347.4943,-277.2791 355.7106,-273.6312 363.5416,-270.3473"/>
<polygon fill="#191970" stroke="#191970" points="364.9022,-273.5723 372.8282,-266.5417 362.2478,-267.0951 364.9022,-273.5723"/>
</g>
<!-- Node1273 -->
<g id="node21" class="node">
<title>Node1273</title>
<g id="a_node21"><a xlink:href="schedule_8c.html#ad02a58456f81a96735ec001b5f903b65" target="_top" xlink:title="Add a fr_listen_t to a scheduler. ">
<polygon fill="none" stroke="#000000" points="340,-361.5 340,-380.5 456,-380.5 456,-361.5 340,-361.5"/>
<text text-anchor="middle" x="398" y="-368.5" font-family="Helvetica,sans-Serif" font-size="10.00" fill="#000000">fr_schedule_listen_add</text>
</a>
</g>
</g>
<!-- Node1268&#45;&gt;Node1273 -->
<g id="edge31" class="edge">
<title>Node1268&#45;&gt;Node1273</title>
<path fill="none" stroke="#191970" d="M290.8928,-333.625C305.1488,-339.1667 323.5238,-346.1667 340,-352 345.759,-354.0389 351.8658,-356.1232 357.8718,-358.129"/>
<polygon fill="#191970" stroke="#191970" points="357.2118,-361.5968 367.8049,-361.4085 359.4064,-354.9497 357.2118,-361.5968"/>
</g>
<!-- Node1269&#45;&gt;Node639 -->
<g id="edge26" class="edge">
<title>Node1269&#45;&gt;Node639</title>
<path fill="none" stroke="#191970" d="M351.711,-342.5359C308.1862,-351.5024 243.8083,-364.7648 203.1534,-373.1401"/>
<polygon fill="#191970" stroke="#191970" points="202.1933,-369.7643 193.1052,-375.2101 203.6058,-376.6203 202.1933,-369.7643"/>
</g>
<!-- Node1269&#45;&gt;Node1270 -->
<g id="edge25" class="edge">
<title>Node1269&#45;&gt;Node1270</title>
<path fill="none" stroke="#191970" d="M435.8513,-323.411C455.4671,-318.4417 479.6187,-312.3233 500.479,-307.0387"/>
<polygon fill="#191970" stroke="#191970" points="501.5866,-310.3687 510.4209,-304.5201 499.8675,-303.5831 501.5866,-310.3687"/>
</g>
<!-- Node1272 -->
<g id="node20" class="node">
<title>Node1272</title>
<g id="a_node20"><a xlink:href="misc_8c.html#aa4fdca0d66a7ea46c9dcebc94f8f9a70" target="_top" xlink:title="rad_lock">
<polygon fill="none" stroke="#000000" points="521.5,-247.5 521.5,-266.5 574.5,-266.5 574.5,-247.5 521.5,-247.5"/>
<text text-anchor="middle" x="548" y="-254.5" font-family="Helvetica,sans-Serif" font-size="10.00" fill="#000000">rad_lock</text>
</a>
</g>
</g>
<!-- Node1271&#45;&gt;Node1272 -->
<g id="edge28" class="edge">
<title>Node1271&#45;&gt;Node1272</title>
<path fill="none" stroke="#191970" d="M451.3067,-257C471.1574,-257 493.2264,-257 511.2629,-257"/>
<polygon fill="#191970" stroke="#191970" points="511.3694,-260.5001 521.3693,-257 511.3693,-253.5001 511.3694,-260.5001"/>
</g>
<!-- Node667 -->
<g id="node22" class="node">
<title>Node667</title>
<g id="a_node22"><a xlink:href="dlist_8h.html#a90c9ea299e869c463ab8109410112a97" target="_top" xlink:title="Return the HEAD item of a list or NULL if the list is empty. ">
<polygon fill="none" stroke="#000000" points="512,-361.5 512,-380.5 584,-380.5 584,-361.5 512,-361.5"/>
<text text-anchor="middle" x="548" y="-368.5" font-family="Helvetica,sans-Serif" font-size="10.00" fill="#000000">fr_dlist_head</text>
</a>
</g>
</g>
<!-- Node1273&#45;&gt;Node667 -->
<g id="edge32" class="edge">
<title>Node1273&#45;&gt;Node667</title>
<path fill="none" stroke="#191970" d="M456.4234,-371C471.3833,-371 487.2694,-371 501.5364,-371"/>
<polygon fill="#191970" stroke="#191970" points="501.6025,-374.5001 511.6024,-371 501.6024,-367.5001 501.6025,-374.5001"/>
</g>
<!-- Node1274 -->
<g id="node23" class="node">
<title>Node1274</title>
<g id="a_node23"><a xlink:href="network_8c.html#a1f14ab2c1d9492c62e7196634b5232d0" target="_top" xlink:title="Add a fr_listen_t to a network. ">
<polygon fill="none" stroke="#ff0000" points="492,-323.5 492,-342.5 604,-342.5 604,-323.5 492,-323.5"/>
<text text-anchor="middle" x="548" y="-330.5" font-family="Helvetica,sans-Serif" font-size="10.00" fill="#000000">fr_network_listen_add</text>
</a>
</g>
</g>
<!-- Node1273&#45;&gt;Node1274 -->
<g id="edge33" class="edge">
<title>Node1273&#45;&gt;Node1274</title>
<path fill="none" stroke="#191970" d="M435.8513,-361.411C455.4671,-356.4417 479.6187,-350.3233 500.479,-345.0387"/>
<polygon fill="#191970" stroke="#191970" points="501.5866,-348.3687 510.4209,-342.5201 499.8675,-341.5831 501.5866,-348.3687"/>
</g>
</g>
</svg>
        <g id="navigator" transform="translate(0 0)" fill="#404254">
                <rect fill="#f2f5e9" fill-opacity="0.5" stroke="#606060" stroke-width=".5" x="0" y="0" width="60" height="60"/>
                <use id="zoomplus" xlink:href="#zoomPlus" x="17" y="9" onmousedown="handleZoom(evt,'in')"/>
                <use id="zoomminus" xlink:href="#zoomMin" x="42" y="9" onmousedown="handleZoom(evt,'out')"/>
                <use id="reset" xlink:href="#resetDef" x="30" y="36" onmousedown="handleReset()"/>
                <g id="arrowUp" xlink:href="#dirArrow" transform="translate(30 24)" onmousedown="handlePan(0,-1)">
                  <use xlink:href="#rim" fill="#404040">
                        <set attributeName="fill" to="#808080" begin="arrowUp.mouseover" end="arrowUp.mouseout"/>
                  </use>
                  <path fill="none" stroke="white" stroke-width="1.5" d="M0,-3.0v7 M-2.5,-0.5L0,-3.0L2.5,-0.5"/>
                </g>
                <g id="arrowRight" xlink:href="#dirArrow" transform="rotate(90) translate(36 -43)" onmousedown="handlePan(1,0)">
                  <use xlink:href="#rim" fill="#404040">
                        <set attributeName="fill" to="#808080" begin="arrowRight.mouseover" end="arrowRight.mouseout"/>
                  </use>
                  <path fill="none" stroke="white" stroke-width="1.5" d="M0,-3.0v7 M-2.5,-0.5L0,-3.0L2.5,-0.5"/>
                </g>
                <g id="arrowDown" xlink:href="#dirArrow" transform="rotate(180) translate(-30 -48)" onmousedown="handlePan(0,1)">
                  <use xlink:href="#rim" fill="#404040">
                        <set attributeName="fill" to="#808080" begin="arrowDown.mouseover" end="arrowDown.mouseout"/>
                  </use>
                  <path fill="none" stroke="white" stroke-width="1.5" d="M0,-3.0v7 M-2.5,-0.5L0,-3.0L2.5,-0.5"/>
                </g>
                <g id="arrowLeft" xlink:href="#dirArrow" transform="rotate(270) translate(-36 17)" onmousedown="handlePan(-1,0)">
                  <use xlink:href="#rim" fill="#404040">
                        <set attributeName="fill" to="#808080" begin="arrowLeft.mouseover" end="arrowLeft.mouseout"/>
                  </use>
                  <path fill="none" stroke="white" stroke-width="1.5" d="M0,-3.0v7 M-2.5,-0.5L0,-3.0L2.5,-0.5"/>
                </g>
        </g>
        <svg viewBox="0 0 15 15" width="100%" height="30px" preserveAspectRatio="xMaxYMin meet">
         <g id="arrow_out" transform="scale(0.3 0.3)">
          <a xlink:href="proto__detail__file_8c_ac1c53f6c61ea35cbdd8d51887812c0f7_cgraph_org.svg" target="_base">
           <rect id="button" ry="5" rx="5" y="6" x="6" height="38" width="38"
                fill="#f2f5e9" fill-opacity="0.5" stroke="#606060" stroke-width="1.0"/>
           <path id="arrow"
             d="M 11.500037,31.436501 C 11.940474,20.09759 22.043105,11.32322 32.158766,21.979434 L 37.068811,17.246167 C 37.068811,17.246167 37.088388,32 37.088388,32 L 22.160133,31.978069 C 22.160133,31.978069 26.997745,27.140456 26.997745,27.140456 C 18.528582,18.264221 13.291696,25.230495 11.500037,31.436501 z"
             style="fill:#404040;"/>
          </a>
         </g>
        </svg>
</svg>
