<?xml version="1.0" encoding="UTF-8" standalone="no"?>
<!DOCTYPE svg PUBLIC "-//W3C//DTD SVG 1.1//EN"
 "http://www.w3.org/Graphics/SVG/1.1/DTD/svg11.dtd">
<!-- Generated by graphviz version 2.40.1 (20161225.0304)
 -->
<!-- Title: mod_encode Pages: 1 -->
<!--zoomable 265 -->
<svg id="main" version="1.1" xmlns="http://www.w3.org/2000/svg" xmlns:xlink="http://www.w3.org/1999/xlink" xml:space="preserve" onload="init(evt)">
<style type="text/css"><![CDATA[
.edge:hover path { stroke: red; }
.edge:hover polygon { stroke: red; fill: red; }
]]></style>
<script type="text/javascript"><![CDATA[
var edges = document.getElementsByTagName('g');
if (edges && edges.length) {
  for (var i=0;i<edges.length;i++) {
    if (edges[i].id.substr(0,4)=='edge') {
      edges[i].setAttribute('class','edge');
    }
  }
}
]]></script>
        <defs>
                <circle id="rim" cx="0" cy="0" r="7"/>
                <circle id="rim2" cx="0" cy="0" r="3.5"/>
                <g id="zoomPlus">
                        <use xlink:href="#rim" fill="#404040">
                                <set attributeName="fill" to="#808080" begin="zoomplus.mouseover" end="zoomplus.mouseout"/>
                        </use>
                        <path d="M-4,0h8M0,-4v8" fill="none" stroke="white" stroke-width="1.5" pointer-events="none"/>
                </g>
                <g id="zoomMin">
                        <use xlink:href="#rim" fill="#404040">
                                <set attributeName="fill" to="#808080" begin="zoomminus.mouseover" end="zoomminus.mouseout"/>
                        </use>
                        <path d="M-4,0h8" fill="none" stroke="white" stroke-width="1.5" pointer-events="none"/>
                </g>
                <g id="dirArrow">
                        <path fill="none" stroke="white" stroke-width="1.5" d="M0,-3.0v7 M-2.5,-0.5L0,-3.0L2.5,-0.5"/>
                </g>
               <g id="resetDef">
                       <use xlink:href="#rim2" fill="#404040">
                               <set attributeName="fill" to="#808080" begin="reset.mouseover" end="reset.mouseout"/>
                       </use>
               </g>
        </defs>

<script type="text/javascript">
var viewWidth = 959;
var viewHeight = 265;
var sectionId = 'dynsection-3';
</script>
<script xlink:href="svgpan.js"/>
<svg id="graph" class="graph">
<g id="viewport">
<title>mod_encode</title>
<!-- Node1389 -->
<g id="node1" class="node">
<title>Node1389</title>
<polygon fill="#bfbfbf" stroke="#000000" points="0,-47.5 0,-66.5 72,-66.5 72,-47.5 0,-47.5"/>
<text text-anchor="middle" x="36" y="-54.5" font-family="Helvetica,sans-Serif" font-size="10.00" fill="#000000">mod_encode</text>
</g>
<!-- Node1390 -->
<g id="node2" class="node">
<title>Node1390</title>
<g id="a_node2"><a xlink:href="arp_8h.html#afb2bafb7325ef6c57cebbf4d6e063846" target="_top" xlink:title="Encode VPS into a raw ARP packet. ">
<polygon fill="none" stroke="#000000" points="108,-94.5 108,-113.5 186,-113.5 186,-94.5 108,-94.5"/>
<text text-anchor="middle" x="147" y="-101.5" font-family="Helvetica,sans-Serif" font-size="10.00" fill="#000000">fr_arp_encode</text>
</a>
</g>
</g>
<!-- Node1389&#45;&gt;Node1390 -->
<g id="edge1" class="edge">
<title>Node1389&#45;&gt;Node1390</title>
<path fill="none" stroke="#191970" d="M58.4625,-66.5112C74.6045,-73.3461 96.6089,-82.6632 114.6423,-90.299"/>
<polygon fill="#191970" stroke="#191970" points="113.6167,-93.6655 124.1899,-94.3417 116.3461,-87.2195 113.6167,-93.6655"/>
</g>
<!-- Node1879 -->
<g id="node15" class="node">
<title>Node1879</title>
<g id="a_node15"><a xlink:href="lib_2server_2log_8c.html#a6e8a116514560c39703face844973ee6" target="_top" xlink:title="Print a list of fr_pair_ts. ">
<polygon fill="none" stroke="#ff0000" points="222,-.5 222,-19.5 328,-19.5 328,-.5 222,-.5"/>
<text text-anchor="middle" x="275" y="-7.5" font-family="Helvetica,sans-Serif" font-size="10.00" fill="#000000">log_request_pair_list</text>
</a>
</g>
</g>
<!-- Node1389&#45;&gt;Node1879 -->
<g id="edge25" class="edge">
<title>Node1389&#45;&gt;Node1879</title>
<path fill="none" stroke="#191970" d="M72.0395,-49.9127C110.3497,-42.3789 171.5178,-30.35 216.6994,-21.465"/>
<polygon fill="#191970" stroke="#191970" points="217.5228,-24.8702 226.6595,-19.5063 216.1721,-18.0017 217.5228,-24.8702"/>
</g>
<!-- Node1391 -->
<g id="node3" class="node">
<title>Node1391</title>
<g id="a_node3"><a xlink:href="strerror_8c.html#ae701765650b8aea79a3037bc4921d7f8" target="_top" xlink:title="Log to thread local error buffer. ">
<polygon fill="none" stroke="#000000" points="381,-97.5 381,-116.5 467,-116.5 467,-97.5 381,-97.5"/>
<text text-anchor="middle" x="424" y="-104.5" font-family="Helvetica,sans-Serif" font-size="10.00" fill="#000000">fr_strerror_printf</text>
</a>
</g>
</g>
<!-- Node1390&#45;&gt;Node1391 -->
<g id="edge2" class="edge">
<title>Node1390&#45;&gt;Node1391</title>
<path fill="none" stroke="#191970" d="M186.0998,-104.4235C234.2949,-104.9454 316.4301,-105.835 370.4585,-106.4201"/>
<polygon fill="#191970" stroke="#191970" points="370.5006,-109.9207 380.5379,-106.5293 370.5764,-102.9211 370.5006,-109.9207"/>
</g>
<!-- Node1413 -->
<g id="node12" class="node">
<title>Node1413</title>
<g id="a_node12"><a xlink:href="cursor_8c.html#af6c2090d1e00319075d6def5aa2666fd" target="_top" xlink:title="Advanced the cursor to the next item. ">
<polygon fill="none" stroke="#ff0000" points="384.5,-56.5 384.5,-75.5 463.5,-75.5 463.5,-56.5 384.5,-56.5"/>
<text text-anchor="middle" x="424" y="-63.5" font-family="Helvetica,sans-Serif" font-size="10.00" fill="#000000">fr_cursor_next</text>
</a>
</g>
</g>
<!-- Node1390&#45;&gt;Node1413 -->
<g id="edge18" class="edge">
<title>Node1390&#45;&gt;Node1413</title>
<path fill="none" stroke="#191970" d="M186.0998,-98.6361C235.4157,-91.8708 320.2687,-80.2303 374.1816,-72.8343"/>
<polygon fill="#191970" stroke="#191970" points="374.7706,-76.2864 384.2021,-71.4596 373.8192,-69.3513 374.7706,-76.2864"/>
</g>
<!-- Node1611 -->
<g id="node13" class="node">
<title>Node1611</title>
<g id="a_node13"><a xlink:href="proto_8c.html#a1097e0481003e69568734523603d298a" target="_top" xlink:title="Build a complete DA stack from the da back to the root. ">
<polygon fill="none" stroke="#ff0000" points="364,-169.5 364,-188.5 484,-188.5 484,-169.5 364,-169.5"/>
<text text-anchor="middle" x="424" y="-176.5" font-family="Helvetica,sans-Serif" font-size="10.00" fill="#000000">fr_proto_da_stack_build</text>
</a>
</g>
</g>
<!-- Node1390&#45;&gt;Node1611 -->
<g id="edge19" class="edge">
<title>Node1390&#45;&gt;Node1611</title>
<path fill="none" stroke="#191970" d="M151.724,-113.7057C161.6364,-132.8014 186.648,-174.801 222,-191 275.1094,-215.3358 344.4538,-202.9929 386.533,-191.3537"/>
<polygon fill="#191970" stroke="#191970" points="387.728,-194.6515 396.3612,-188.5099 385.7824,-187.9274 387.728,-194.6515"/>
</g>
<!-- Node1961 -->
<g id="node14" class="node">
<title>Node1961</title>
<g id="a_node14"><a xlink:href="struct_8c.html#a543307586700b4da99d0fa76293a119d" target="_top" xlink:title="fr_struct_to_network\l_dbuff">
<polygon fill="none" stroke="#ff0000" points="222,-133 222,-163 328,-163 328,-133 222,-133"/>
<text text-anchor="start" x="230" y="-151" font-family="Helvetica,sans-Serif" font-size="10.00" fill="#000000">fr_struct_to_network</text>
<text text-anchor="middle" x="275" y="-140" font-family="Helvetica,sans-Serif" font-size="10.00" fill="#000000">_dbuff</text>
</a>
</g>
</g>
<!-- Node1390&#45;&gt;Node1961 -->
<g id="edge20" class="edge">
<title>Node1390&#45;&gt;Node1961</title>
<path fill="none" stroke="#191970" d="M174.7741,-113.5473C188.4134,-118.2358 205.3256,-124.0494 221.3488,-129.5574"/>
<polygon fill="#191970" stroke="#191970" points="220.5788,-132.9937 231.1735,-132.9346 222.8544,-126.3739 220.5788,-132.9937"/>
</g>
<!-- Node1392 -->
<g id="node4" class="node">
<title>Node1392</title>
<g id="a_node4"><a xlink:href="acutest_8h.html#aecf9a9be8105efb1454cd8c1ef6cb1c5" target="_top" xlink:title="va_start">
<polygon fill="none" stroke="#000000" points="899,-234.5 899,-253.5 951,-253.5 951,-234.5 899,-234.5"/>
<text text-anchor="middle" x="925" y="-241.5" font-family="Helvetica,sans-Serif" font-size="10.00" fill="#000000">va_start</text>
</a>
</g>
</g>
<!-- Node1391&#45;&gt;Node1392 -->
<g id="edge3" class="edge">
<title>Node1391&#45;&gt;Node1392</title>
<path fill="none" stroke="#191970" d="M435.0459,-116.6667C465.8874,-142.9406 556.6061,-215.4042 647,-241 730.8112,-264.7318 834.6117,-256.4947 888.5673,-249.5683"/>
<polygon fill="#191970" stroke="#191970" points="889.2283,-253.011 898.6731,-248.2103 888.296,-246.0733 889.2283,-253.011"/>
</g>
<!-- Node1393 -->
<g id="node5" class="node">
<title>Node1393</title>
<g id="a_node5"><a xlink:href="strerror_8c.html#a193b1e0b3712e3bbee338812c06af482" target="_top" xlink:title="fr_strerror_vprintf">
<polygon fill="none" stroke="#000000" points="520,-116.5 520,-135.5 611,-135.5 611,-116.5 520,-116.5"/>
<text text-anchor="middle" x="565.5" y="-123.5" font-family="Helvetica,sans-Serif" font-size="10.00" fill="#000000">fr_strerror_vprintf</text>
</a>
</g>
</g>
<!-- Node1391&#45;&gt;Node1393 -->
<g id="edge4" class="edge">
<title>Node1391&#45;&gt;Node1393</title>
<path fill="none" stroke="#191970" d="M467.2235,-112.8039C480.5653,-114.5953 495.4542,-116.5946 509.5267,-118.4842"/>
<polygon fill="#191970" stroke="#191970" points="509.2188,-121.9741 519.5957,-119.8362 510.1504,-115.0364 509.2188,-121.9741"/>
</g>
<!-- Node1396 -->
<g id="node8" class="node">
<title>Node1396</title>
<g id="a_node8"><a xlink:href="acutest_8h.html#a36af1f79dd6adf0809c21e76535034d5" target="_top" xlink:title="va_end">
<polygon fill="none" stroke="#000000" points="901,-59.5 901,-78.5 949,-78.5 949,-59.5 901,-59.5"/>
<text text-anchor="middle" x="925" y="-66.5" font-family="Helvetica,sans-Serif" font-size="10.00" fill="#000000">va_end</text>
</a>
</g>
</g>
<!-- Node1391&#45;&gt;Node1396 -->
<g id="edge17" class="edge">
<title>Node1391&#45;&gt;Node1396</title>
<path fill="none" stroke="#191970" d="M452.7518,-97.484C462.7769,-93.8975 474.0127,-89.5716 484,-85 500.6427,-77.382 503.032,-71.8628 520,-65 612.5351,-27.5738 642.6228,-21.6389 742,-31 794.6315,-35.9578 854.3894,-49.9954 890.8872,-59.5482"/>
<polygon fill="#191970" stroke="#191970" points="890.4229,-63.0462 900.9864,-62.233 892.2213,-56.2812 890.4229,-63.0462"/>
</g>
<!-- Node1394 -->
<g id="node6" class="node">
<title>Node1394</title>
<g id="a_node6"><a xlink:href="strerror_8c.html#a42c2cc9f76fb9dac723a1903c181e1c7" target="_top" xlink:title="Initialise thread local storage. ">
<polygon fill="none" stroke="#ff0000" points="656,-154.5 656,-173.5 733,-173.5 733,-154.5 656,-154.5"/>
<text text-anchor="middle" x="694.5" y="-161.5" font-family="Helvetica,sans-Serif" font-size="10.00" fill="#000000">fr_strerror_init</text>
</a>
</g>
</g>
<!-- Node1393&#45;&gt;Node1394 -->
<g id="edge5" class="edge">
<title>Node1393&#45;&gt;Node1394</title>
<path fill="none" stroke="#191970" d="M598.0521,-135.589C614.3993,-140.4044 634.4092,-146.2988 651.9571,-151.468"/>
<polygon fill="#191970" stroke="#191970" points="651.3768,-154.9457 661.9583,-154.4141 653.3548,-148.2309 651.3768,-154.9457"/>
</g>
<!-- Node1395 -->
<g id="node7" class="node">
<title>Node1395</title>
<g id="a_node7"><a xlink:href="strerror_8c.html#a2c8e65d6d4b73fb705cc023f60acb099" target="_top" xlink:title="Print the current error to stderr with a prefix. ">
<polygon fill="none" stroke="#ff0000" points="794,-201.5 794,-220.5 847,-220.5 847,-201.5 794,-201.5"/>
<text text-anchor="middle" x="820.5" y="-208.5" font-family="Helvetica,sans-Serif" font-size="10.00" fill="#000000">fr_perror</text>
</a>
</g>
</g>
<!-- Node1393&#45;&gt;Node1395 -->
<g id="edge11" class="edge">
<title>Node1393&#45;&gt;Node1395</title>
<path fill="none" stroke="#191970" d="M570.1345,-135.6523C580.5316,-156.0276 607.9057,-203.0294 647,-221 690.8516,-241.1574 747.6424,-232.2198 784.0812,-222.677"/>
<polygon fill="#191970" stroke="#191970" points="785.0854,-226.0308 793.7915,-219.9931 783.2204,-219.2838 785.0854,-226.0308"/>
</g>
<!-- Node1393&#45;&gt;Node1396 -->
<g id="edge15" class="edge">
<title>Node1393&#45;&gt;Node1396</title>
<path fill="none" stroke="#191970" d="M611.0309,-118.7809C684.0526,-107.2031 825.7333,-84.7391 890.8103,-74.4209"/>
<polygon fill="#191970" stroke="#191970" points="891.6131,-77.8374 900.9416,-72.8146 890.5168,-70.9238 891.6131,-77.8374"/>
</g>
<!-- Node1402 -->
<g id="node9" class="node">
<title>Node1402</title>
<g id="a_node9"><a xlink:href="strerror_8c.html#a9d878c1ddb1b385cdaf6523fff68529c" target="_top" xlink:title="Reset cursor state. ">
<polygon fill="none" stroke="#000000" points="778,-135.5 778,-154.5 863,-154.5 863,-135.5 778,-135.5"/>
<text text-anchor="middle" x="820.5" y="-142.5" font-family="Helvetica,sans-Serif" font-size="10.00" fill="#000000">fr_strerror_clear</text>
</a>
</g>
</g>
<!-- Node1393&#45;&gt;Node1402 -->
<g id="edge10" class="edge">
<title>Node1393&#45;&gt;Node1402</title>
<path fill="none" stroke="#191970" d="M611.0889,-129.3968C655.0394,-132.6716 721.5088,-137.6242 767.7291,-141.0681"/>
<polygon fill="#191970" stroke="#191970" points="767.6177,-144.5694 777.8502,-141.8222 768.1379,-137.5887 767.6177,-144.5694"/>
</g>
<!-- Node1403 -->
<g id="node10" class="node">
<title>Node1403</title>
<g id="a_node10"><a xlink:href="print_8c.html#a27ae94b5a4c77de49aa2f387765a4d58" target="_top" xlink:title="Special version of vasprintf which implements custom format specifiers. ">
<polygon fill="none" stroke="#ff0000" points="662,-40.5 662,-59.5 727,-59.5 727,-40.5 662,-40.5"/>
<text text-anchor="middle" x="694.5" y="-47.5" font-family="Helvetica,sans-Serif" font-size="10.00" fill="#000000">fr_vasprintf</text>
</a>
</g>
</g>
<!-- Node1393&#45;&gt;Node1403 -->
<g id="edge12" class="edge">
<title>Node1393&#45;&gt;Node1403</title>
<path fill="none" stroke="#191970" d="M579.6606,-116.3521C595.7104,-105.5624 622.792,-87.7926 647,-74 652.7951,-70.6982 659.0989,-67.3502 665.1637,-64.2445"/>
<polygon fill="#191970" stroke="#191970" points="667.0282,-67.2246 674.3899,-59.6052 663.8834,-60.9707 667.0282,-67.2246"/>
</g>
<!-- Node1555 -->
<g id="node11" class="node">
<title>Node1555</title>
<g id="a_node11"><a xlink:href="cursor_8c.html#a5d942382660657c3b4cb6e9cb2b12b2c" target="_top" xlink:title="Insert a single item at the start of the list. ">
<polygon fill="none" stroke="#000000" points="647,-192.5 647,-211.5 742,-211.5 742,-192.5 647,-192.5"/>
<text text-anchor="middle" x="694.5" y="-199.5" font-family="Helvetica,sans-Serif" font-size="10.00" fill="#000000">fr_cursor_prepend</text>
</a>
</g>
</g>
<!-- Node1393&#45;&gt;Node1555 -->
<g id="edge16" class="edge">
<title>Node1393&#45;&gt;Node1555</title>
<path fill="none" stroke="#191970" d="M577.3587,-135.6117C592.7398,-147.7611 620.7203,-168.7996 647,-183 650.5041,-184.8935 654.2381,-186.7066 658.0139,-188.4094"/>
<polygon fill="#191970" stroke="#191970" points="656.8069,-191.6995 667.3787,-192.3979 659.5498,-185.2593 656.8069,-191.6995"/>
</g>
<!-- Node1394&#45;&gt;Node1395 -->
<g id="edge6" class="edge">
<title>Node1394&#45;&gt;Node1395</title>
<path fill="none" stroke="#191970" d="M719.998,-173.5112C738.7455,-180.5043 764.4593,-190.0959 785.1838,-197.8265"/>
<polygon fill="#191970" stroke="#191970" points="784.0148,-201.126 794.6075,-201.3417 786.4613,-194.5674 784.0148,-201.126"/>
</g>
<!-- Node1394&#45;&gt;Node1402 -->
<g id="edge9" class="edge">
<title>Node1394&#45;&gt;Node1402</title>
<path fill="none" stroke="#191970" d="M733.3323,-158.1443C744.1819,-156.5083 756.1587,-154.7023 767.6701,-152.9664"/>
<polygon fill="#191970" stroke="#191970" points="768.2602,-156.4171 777.6265,-151.4651 767.2164,-149.4953 768.2602,-156.4171"/>
</g>
<!-- Node1395&#45;&gt;Node1392 -->
<g id="edge7" class="edge">
<title>Node1395&#45;&gt;Node1392</title>
<path fill="none" stroke="#191970" d="M847.1401,-219.4127C859.889,-223.4386 875.3403,-228.318 889.1067,-232.6653"/>
<polygon fill="#191970" stroke="#191970" points="888.1806,-236.0431 898.7704,-235.717 890.2885,-229.368 888.1806,-236.0431"/>
</g>
<!-- Node1395&#45;&gt;Node1396 -->
<g id="edge8" class="edge">
<title>Node1395&#45;&gt;Node1396</title>
<path fill="none" stroke="#191970" d="M830.0925,-201.31C839.0328,-192.0719 852.5228,-177.5923 863,-164 882.646,-138.5128 902.4708,-106.8599 914.2428,-87.2947"/>
<polygon fill="#191970" stroke="#191970" points="917.3701,-88.8838 919.4802,-78.5012 911.356,-85.3018 917.3701,-88.8838"/>
</g>
<!-- Node1403&#45;&gt;Node1391 -->
<g id="edge14" class="edge">
<title>Node1403&#45;&gt;Node1391</title>
<path fill="none" stroke="#191970" d="M661.7025,-56.9111C615.8054,-66.5826 531.8976,-84.2637 477.0483,-95.8216"/>
<polygon fill="#191970" stroke="#191970" points="476.224,-92.4184 467.1606,-97.9052 477.6675,-99.2679 476.224,-92.4184"/>
</g>
<!-- Node1403&#45;&gt;Node1396 -->
<g id="edge13" class="edge">
<title>Node1403&#45;&gt;Node1396</title>
<path fill="none" stroke="#191970" d="M727.0361,-52.6819C770.3483,-56.2521 846.6015,-62.5377 890.7588,-66.1775"/>
<polygon fill="#191970" stroke="#191970" points="890.4728,-69.6657 900.7266,-66.9992 891.0479,-62.6894 890.4728,-69.6657"/>
</g>
<!-- Node1961&#45;&gt;Node1391 -->
<g id="edge21" class="edge">
<title>Node1961&#45;&gt;Node1391</title>
<path fill="none" stroke="#191970" d="M328.3716,-133.3139C345.1063,-128.709 363.3915,-123.6775 379.4496,-119.2588"/>
<polygon fill="#191970" stroke="#191970" points="380.4133,-122.6238 389.1264,-116.5961 378.5561,-115.8747 380.4133,-122.6238"/>
</g>
<!-- Node1961&#45;&gt;Node1413 -->
<g id="edge22" class="edge">
<title>Node1961&#45;&gt;Node1413</title>
<path fill="none" stroke="#191970" d="M294.2984,-132.9765C311.779,-119.8691 338.6103,-100.9709 364,-88 370.2399,-84.8122 377.0528,-81.8583 383.7762,-79.2169"/>
<polygon fill="#191970" stroke="#191970" points="385.3487,-82.3654 393.4854,-75.5797 382.8931,-75.8102 385.3487,-82.3654"/>
</g>
<!-- Node1961&#45;&gt;Node1611 -->
<g id="edge23" class="edge">
<title>Node1961&#45;&gt;Node1611</title>
<path fill="none" stroke="#191970" d="M328.3716,-159.1042C341.1542,-161.7636 354.8415,-164.6113 367.7498,-167.2969"/>
<polygon fill="#191970" stroke="#191970" points="367.3996,-170.799 377.9029,-169.4093 368.8255,-163.9457 367.3996,-170.799"/>
</g>
<!-- Node1961&#45;&gt;Node1961 -->
<g id="edge24" class="edge">
<title>Node1961&#45;&gt;Node1961</title>
<path fill="none" stroke="#191970" d="M252.6934,-163.159C247.3145,-172.5566 254.75,-181.5 275,-181.5 287.3398,-181.5 294.9212,-178.179 297.7441,-173.4579"/>
<polygon fill="#191970" stroke="#191970" points="301.2279,-173.0014 297.3066,-163.159 294.2342,-173.2985 301.2279,-173.0014"/>
</g>
<!-- Node1879&#45;&gt;Node1413 -->
<g id="edge26" class="edge">
<title>Node1879&#45;&gt;Node1413</title>
<path fill="none" stroke="#191970" d="M300.614,-19.6267C325.0687,-28.8178 362.1054,-42.7376 389.2209,-52.9287"/>
<polygon fill="#191970" stroke="#191970" points="388.1281,-56.2569 398.7202,-56.4989 390.5909,-49.7044 388.1281,-56.2569"/>
</g>
<!-- Node1879&#45;&gt;Node1879 -->
<g id="edge27" class="edge">
<title>Node1879&#45;&gt;Node1879</title>
<path fill="none" stroke="#191970" d="M255.2715,-19.7571C245.6738,-28.5653 252.25,-38 275,-38 289.5742,-38 297.5107,-34.128 298.8094,-29.0292"/>
<polygon fill="#191970" stroke="#191970" points="301.9604,-27.4998 294.7285,-19.7571 295.5535,-30.3197 301.9604,-27.4998"/>
</g>
</g>
</svg>
        <g id="navigator" transform="translate(0 0)" fill="#404254">
                <rect fill="#f2f5e9" fill-opacity="0.5" stroke="#606060" stroke-width=".5" x="0" y="0" width="60" height="60"/>
                <use id="zoomplus" xlink:href="#zoomPlus" x="17" y="9" onmousedown="handleZoom(evt,'in')"/>
                <use id="zoomminus" xlink:href="#zoomMin" x="42" y="9" onmousedown="handleZoom(evt,'out')"/>
                <use id="reset" xlink:href="#resetDef" x="30" y="36" onmousedown="handleReset()"/>
                <g id="arrowUp" xlink:href="#dirArrow" transform="translate(30 24)" onmousedown="handlePan(0,-1)">
                  <use xlink:href="#rim" fill="#404040">
                        <set attributeName="fill" to="#808080" begin="arrowUp.mouseover" end="arrowUp.mouseout"/>
                  </use>
                  <path fill="none" stroke="white" stroke-width="1.5" d="M0,-3.0v7 M-2.5,-0.5L0,-3.0L2.5,-0.5"/>
                </g>
                <g id="arrowRight" xlink:href="#dirArrow" transform="rotate(90) translate(36 -43)" onmousedown="handlePan(1,0)">
                  <use xlink:href="#rim" fill="#404040">
                        <set attributeName="fill" to="#808080" begin="arrowRight.mouseover" end="arrowRight.mouseout"/>
                  </use>
                  <path fill="none" stroke="white" stroke-width="1.5" d="M0,-3.0v7 M-2.5,-0.5L0,-3.0L2.5,-0.5"/>
                </g>
                <g id="arrowDown" xlink:href="#dirArrow" transform="rotate(180) translate(-30 -48)" onmousedown="handlePan(0,1)">
                  <use xlink:href="#rim" fill="#404040">
                        <set attributeName="fill" to="#808080" begin="arrowDown.mouseover" end="arrowDown.mouseout"/>
                  </use>
                  <path fill="none" stroke="white" stroke-width="1.5" d="M0,-3.0v7 M-2.5,-0.5L0,-3.0L2.5,-0.5"/>
                </g>
                <g id="arrowLeft" xlink:href="#dirArrow" transform="rotate(270) translate(-36 17)" onmousedown="handlePan(-1,0)">
                  <use xlink:href="#rim" fill="#404040">
                        <set attributeName="fill" to="#808080" begin="arrowLeft.mouseover" end="arrowLeft.mouseout"/>
                  </use>
                  <path fill="none" stroke="white" stroke-width="1.5" d="M0,-3.0v7 M-2.5,-0.5L0,-3.0L2.5,-0.5"/>
                </g>
        </g>
        <svg viewBox="0 0 15 15" width="100%" height="30px" preserveAspectRatio="xMaxYMin meet">
         <g id="arrow_out" transform="scale(0.3 0.3)">
          <a xlink:href="proto__arp_8c_a73de03e9d89143b1337647cdefb8edaf_cgraph_org.svg" target="_base">
           <rect id="button" ry="5" rx="5" y="6" x="6" height="38" width="38"
                fill="#f2f5e9" fill-opacity="0.5" stroke="#606060" stroke-width="1.0"/>
           <path id="arrow"
             d="M 11.500037,31.436501 C 11.940474,20.09759 22.043105,11.32322 32.158766,21.979434 L 37.068811,17.246167 C 37.068811,17.246167 37.088388,32 37.088388,32 L 22.160133,31.978069 C 22.160133,31.978069 26.997745,27.140456 26.997745,27.140456 C 18.528582,18.264221 13.291696,25.230495 11.500037,31.436501 z"
             style="fill:#404040;"/>
          </a>
         </g>
        </svg>
</svg>
