<?xml version="1.0" encoding="UTF-8" standalone="no"?>
<!DOCTYPE svg PUBLIC "-//W3C//DTD SVG 1.1//EN"
 "http://www.w3.org/Graphics/SVG/1.1/DTD/svg11.dtd">
<!-- Generated by graphviz version 2.40.1 (20161225.0304)
 -->
<!-- Title: fr_dhcpv4_decode_proto Pages: 1 -->
<svg width="1763pt" height="798pt"
 viewBox="0.00 0.00 1763.00 798.22" xmlns="http://www.w3.org/2000/svg" xmlns:xlink="http://www.w3.org/1999/xlink">
<g id="graph0" class="graph" transform="scale(1 1) rotate(0) translate(4 794.2239)">
<title>fr_dhcpv4_decode_proto</title>
<!-- Node4395 -->
<g id="node1" class="node">
<title>Node4395</title>
<polygon fill="#bfbfbf" stroke="#000000" points="0,-617.5 0,-636.5 123,-636.5 123,-617.5 0,-617.5"/>
<text text-anchor="middle" x="61.5" y="-624.5" font-family="Helvetica,sans-Serif" font-size="10.00" fill="#000000">fr_dhcpv4_decode_proto</text>
</g>
<!-- Node4396 -->
<g id="node2" class="node">
<title>Node4396</title>
<g id="a_node2"><a xlink:href="protocols_2dhcpv4_2base_8c.html#a1db51eb9443d33d68d70c649ceba88c6" target="_top" xlink:title="Check received DHCP request is valid and build fr_radius_packet_t structure if it is...">
<polygon fill="none" stroke="#000000" points="894,-724.5 894,-743.5 969,-743.5 969,-724.5 894,-724.5"/>
<text text-anchor="middle" x="931.5" y="-731.5" font-family="Helvetica,sans-Serif" font-size="10.00" fill="#000000">fr_dhcpv4_ok</text>
</a>
</g>
</g>
<!-- Node4395&#45;&gt;Node4396 -->
<g id="edge1" class="edge">
<title>Node4395&#45;&gt;Node4396</title>
<path fill="none" stroke="#191970" d="M83.4465,-636.5057C123.6917,-653.4264 212.3948,-688.3651 291,-703 509.4604,-743.6736 776.6343,-739.7667 883.7487,-736.0713"/>
<polygon fill="#191970" stroke="#191970" points="884.042,-739.5631 893.9091,-735.7045 883.7893,-732.5677 884.042,-739.5631"/>
</g>
<!-- Node5024 -->
<g id="node14" class="node">
<title>Node5024</title>
<g id="a_node14"><a xlink:href="dhcpv4_8h.html#ad0a23cd10d1d47c153e694d7fd803867" target="_top" xlink:title="fr_dhcpv4_decode">
<polygon fill="none" stroke="#000000" points="159,-484.5 159,-503.5 255,-503.5 255,-484.5 159,-484.5"/>
<text text-anchor="middle" x="207" y="-491.5" font-family="Helvetica,sans-Serif" font-size="10.00" fill="#000000">fr_dhcpv4_decode</text>
</a>
</g>
</g>
<!-- Node4395&#45;&gt;Node5024 -->
<g id="edge22" class="edge">
<title>Node4395&#45;&gt;Node5024</title>
<path fill="none" stroke="#191970" d="M71.964,-617.435C96.488,-595.0178 157.9253,-538.8586 188.7548,-510.6778"/>
<polygon fill="#191970" stroke="#191970" points="191.2186,-513.1675 196.2383,-503.8372 186.4958,-508.0008 191.2186,-513.1675"/>
</g>
<!-- Node4397 -->
<g id="node3" class="node">
<title>Node4397</title>
<g id="a_node3"><a xlink:href="strerror_8c.html#ae701765650b8aea79a3037bc4921d7f8" target="_top" xlink:title="Log to thread local error buffer. ">
<polygon fill="none" stroke="#000000" points="1173.5,-509.5 1173.5,-528.5 1259.5,-528.5 1259.5,-509.5 1173.5,-509.5"/>
<text text-anchor="middle" x="1216.5" y="-516.5" font-family="Helvetica,sans-Serif" font-size="10.00" fill="#000000">fr_strerror_printf</text>
</a>
</g>
</g>
<!-- Node4396&#45;&gt;Node4397 -->
<g id="edge2" class="edge">
<title>Node4396&#45;&gt;Node4397</title>
<path fill="none" stroke="#191970" d="M969.1229,-741.2684C1013.5135,-747.6176 1087.4104,-750.9409 1136,-715 1194.121,-672.0088 1210.4466,-579.5176 1214.8952,-538.8611"/>
<polygon fill="#191970" stroke="#191970" points="1218.3842,-539.1424 1215.8598,-528.8527 1211.4165,-538.4707 1218.3842,-539.1424"/>
</g>
<!-- Node5023 -->
<g id="node13" class="node">
<title>Node5023</title>
<g id="a_node13"><a xlink:href="dhcpv4_8h.html#ac3ff3610a619c3e3d4678c12489548c9" target="_top" xlink:title="Retrieve a DHCP option from a raw packet buffer. ">
<polygon fill="none" stroke="#000000" points="1020.5,-675 1020.5,-705 1133.5,-705 1133.5,-675 1020.5,-675"/>
<text text-anchor="start" x="1028.5" y="-693" font-family="Helvetica,sans-Serif" font-size="10.00" fill="#000000">fr_dhcpv4_packet_get</text>
<text text-anchor="middle" x="1077" y="-682" font-family="Helvetica,sans-Serif" font-size="10.00" fill="#000000">_option</text>
</a>
</g>
</g>
<!-- Node4396&#45;&gt;Node5023 -->
<g id="edge20" class="edge">
<title>Node4396&#45;&gt;Node5023</title>
<path fill="none" stroke="#191970" d="M963.0713,-724.4527C979.0141,-719.6315 998.891,-713.6206 1017.5577,-707.9757"/>
<polygon fill="#191970" stroke="#191970" points="1018.6228,-711.3102 1027.1816,-705.0654 1016.5965,-704.6099 1018.6228,-711.3102"/>
</g>
<!-- Node4398 -->
<g id="node4" class="node">
<title>Node4398</title>
<g id="a_node4"><a xlink:href="acutest_8h.html#aecf9a9be8105efb1454cd8c1ef6cb1c5" target="_top" xlink:title="va_start">
<polygon fill="none" stroke="#000000" points="1703,-724.5 1703,-743.5 1755,-743.5 1755,-724.5 1703,-724.5"/>
<text text-anchor="middle" x="1729" y="-731.5" font-family="Helvetica,sans-Serif" font-size="10.00" fill="#000000">va_start</text>
</a>
</g>
</g>
<!-- Node4397&#45;&gt;Node4398 -->
<g id="edge3" class="edge">
<title>Node4397&#45;&gt;Node4398</title>
<path fill="none" stroke="#191970" d="M1223.4069,-528.5704C1247.025,-560.4023 1328.4137,-662.9104 1424,-702 1515.1622,-739.2804 1633.8335,-739.3919 1692.6568,-736.5851"/>
<polygon fill="#191970" stroke="#191970" points="1693.1253,-740.0651 1702.9238,-736.0353 1692.7509,-733.0751 1693.1253,-740.0651"/>
</g>
<!-- Node4399 -->
<g id="node5" class="node">
<title>Node4399</title>
<g id="a_node5"><a xlink:href="strerror_8c.html#a193b1e0b3712e3bbee338812c06af482" target="_top" xlink:title="fr_strerror_vprintf">
<polygon fill="none" stroke="#000000" points="1297,-572.5 1297,-591.5 1388,-591.5 1388,-572.5 1297,-572.5"/>
<text text-anchor="middle" x="1342.5" y="-579.5" font-family="Helvetica,sans-Serif" font-size="10.00" fill="#000000">fr_strerror_vprintf</text>
</a>
</g>
</g>
<!-- Node4397&#45;&gt;Node4399 -->
<g id="edge4" class="edge">
<title>Node4397&#45;&gt;Node4399</title>
<path fill="none" stroke="#191970" d="M1235.6367,-528.5683C1256.5437,-539.0219 1290.2453,-555.8726 1314.208,-567.854"/>
<polygon fill="#191970" stroke="#191970" points="1312.6737,-570.9999 1323.1832,-572.3416 1315.8042,-564.7389 1312.6737,-570.9999"/>
</g>
<!-- Node4402 -->
<g id="node8" class="node">
<title>Node4402</title>
<g id="a_node8"><a xlink:href="acutest_8h.html#a36af1f79dd6adf0809c21e76535034d5" target="_top" xlink:title="va_end">
<polygon fill="none" stroke="#000000" points="1705,-534.5 1705,-553.5 1753,-553.5 1753,-534.5 1705,-534.5"/>
<text text-anchor="middle" x="1729" y="-541.5" font-family="Helvetica,sans-Serif" font-size="10.00" fill="#000000">va_end</text>
</a>
</g>
</g>
<!-- Node4397&#45;&gt;Node4402 -->
<g id="edge19" class="edge">
<title>Node4397&#45;&gt;Node4402</title>
<path fill="none" stroke="#191970" d="M1259.6868,-520.7564C1339.9376,-524.0774 1517.4881,-531.693 1667,-540 1675.9792,-540.4989 1685.686,-541.0971 1694.694,-541.677"/>
<polygon fill="#191970" stroke="#191970" points="1694.6549,-545.1819 1704.8621,-542.3423 1695.112,-538.1968 1694.6549,-545.1819"/>
</g>
<!-- Node4400 -->
<g id="node6" class="node">
<title>Node4400</title>
<g id="a_node6"><a xlink:href="strerror_8c.html#a42c2cc9f76fb9dac723a1903c181e1c7" target="_top" xlink:title="Initialise thread local storage. ">
<polygon fill="none" stroke="#ff0000" points="1433,-648.5 1433,-667.5 1510,-667.5 1510,-648.5 1433,-648.5"/>
<text text-anchor="middle" x="1471.5" y="-655.5" font-family="Helvetica,sans-Serif" font-size="10.00" fill="#000000">fr_strerror_init</text>
</a>
</g>
</g>
<!-- Node4399&#45;&gt;Node4400 -->
<g id="edge5" class="edge">
<title>Node4399&#45;&gt;Node4400</title>
<path fill="none" stroke="#191970" d="M1356.6606,-591.6479C1372.7104,-602.4376 1399.792,-620.2074 1424,-634 1429.7951,-637.3018 1436.0989,-640.6498 1442.1637,-643.7555"/>
<polygon fill="#191970" stroke="#191970" points="1440.8834,-647.0293 1451.3899,-648.3948 1444.0282,-640.7754 1440.8834,-647.0293"/>
</g>
<!-- Node4401 -->
<g id="node7" class="node">
<title>Node4401</title>
<g id="a_node7"><a xlink:href="strerror_8c.html#a2c8e65d6d4b73fb705cc023f60acb099" target="_top" xlink:title="Print the current error to stderr with a prefix. ">
<polygon fill="none" stroke="#ff0000" points="1584.5,-686.5 1584.5,-705.5 1637.5,-705.5 1637.5,-686.5 1584.5,-686.5"/>
<text text-anchor="middle" x="1611" y="-693.5" font-family="Helvetica,sans-Serif" font-size="10.00" fill="#000000">fr_perror</text>
</a>
</g>
</g>
<!-- Node4399&#45;&gt;Node4401 -->
<g id="edge11" class="edge">
<title>Node4399&#45;&gt;Node4401</title>
<path fill="none" stroke="#191970" d="M1347.4455,-591.653C1358.2485,-611.6048 1386.0578,-657.1747 1424,-677 1471.4228,-701.7791 1534.8113,-702.6109 1574.259,-700.0064"/>
<polygon fill="#191970" stroke="#191970" points="1574.7733,-703.4772 1584.4748,-699.2191 1574.2354,-696.4979 1574.7733,-703.4772"/>
</g>
<!-- Node4399&#45;&gt;Node4402 -->
<g id="edge17" class="edge">
<title>Node4399&#45;&gt;Node4402</title>
<path fill="none" stroke="#191970" d="M1377.5567,-572.4757C1391.8575,-568.9452 1408.6188,-565.2559 1424,-563 1521.3956,-548.7155 1637.8271,-545.1564 1694.5396,-544.2794"/>
<polygon fill="#191970" stroke="#191970" points="1694.7879,-547.7764 1704.7395,-544.141 1694.6929,-540.7771 1694.7879,-547.7764"/>
</g>
<!-- Node4408 -->
<g id="node9" class="node">
<title>Node4408</title>
<g id="a_node9"><a xlink:href="strerror_8c.html#a9d878c1ddb1b385cdaf6523fff68529c" target="_top" xlink:title="Reset cursor state. ">
<polygon fill="none" stroke="#000000" points="1568.5,-629.5 1568.5,-648.5 1653.5,-648.5 1653.5,-629.5 1568.5,-629.5"/>
<text text-anchor="middle" x="1611" y="-636.5" font-family="Helvetica,sans-Serif" font-size="10.00" fill="#000000">fr_strerror_clear</text>
</a>
</g>
</g>
<!-- Node4399&#45;&gt;Node4408 -->
<g id="edge10" class="edge">
<title>Node4399&#45;&gt;Node4408</title>
<path fill="none" stroke="#191970" d="M1382.2436,-591.505C1395.5051,-594.6126 1410.3728,-598.0276 1424,-601 1469.1189,-610.8414 1520.5462,-621.232 1558.0347,-628.6558"/>
<polygon fill="#191970" stroke="#191970" points="1557.7331,-632.1638 1568.2219,-630.6681 1559.0897,-625.2965 1557.7331,-632.1638"/>
</g>
<!-- Node4409 -->
<g id="node10" class="node">
<title>Node4409</title>
<g id="a_node10"><a xlink:href="print_8c.html#a27ae94b5a4c77de49aa2f387765a4d58" target="_top" xlink:title="Special version of vasprintf which implements custom format specifiers. ">
<polygon fill="none" stroke="#ff0000" points="1439,-458.5 1439,-477.5 1504,-477.5 1504,-458.5 1439,-458.5"/>
<text text-anchor="middle" x="1471.5" y="-465.5" font-family="Helvetica,sans-Serif" font-size="10.00" fill="#000000">fr_vasprintf</text>
</a>
</g>
</g>
<!-- Node4399&#45;&gt;Node4409 -->
<g id="edge12" class="edge">
<title>Node4399&#45;&gt;Node4409</title>
<path fill="none" stroke="#191970" d="M1353.4985,-572.2804C1375.5853,-552.7618 1425.5481,-508.6087 1452.8424,-484.4881"/>
<polygon fill="#191970" stroke="#191970" points="1455.3538,-486.9396 1460.5294,-477.695 1450.7184,-481.6943 1455.3538,-486.9396"/>
</g>
<!-- Node4561 -->
<g id="node12" class="node">
<title>Node4561</title>
<g id="a_node12"><a xlink:href="cursor_8c.html#a5d942382660657c3b4cb6e9cb2b12b2c" target="_top" xlink:title="Insert a single item at the start of the list. ">
<polygon fill="none" stroke="#000000" points="1424,-572.5 1424,-591.5 1519,-591.5 1519,-572.5 1424,-572.5"/>
<text text-anchor="middle" x="1471.5" y="-579.5" font-family="Helvetica,sans-Serif" font-size="10.00" fill="#000000">fr_cursor_prepend</text>
</a>
</g>
</g>
<!-- Node4399&#45;&gt;Node4561 -->
<g id="edge18" class="edge">
<title>Node4399&#45;&gt;Node4561</title>
<path fill="none" stroke="#191970" d="M1388.3438,-582C1396.4784,-582 1405.0463,-582 1413.4656,-582"/>
<polygon fill="#191970" stroke="#191970" points="1413.6227,-585.5001 1423.6227,-582 1413.6227,-578.5001 1413.6227,-585.5001"/>
</g>
<!-- Node4400&#45;&gt;Node4401 -->
<g id="edge6" class="edge">
<title>Node4400&#45;&gt;Node4401</title>
<path fill="none" stroke="#191970" d="M1506.7017,-667.589C1527.3722,-673.2197 1553.4583,-680.3255 1574.371,-686.0222"/>
<polygon fill="#191970" stroke="#191970" points="1573.6069,-689.4415 1584.1753,-688.6929 1575.4467,-682.6876 1573.6069,-689.4415"/>
</g>
<!-- Node4400&#45;&gt;Node4408 -->
<g id="edge9" class="edge">
<title>Node4400&#45;&gt;Node4408</title>
<path fill="none" stroke="#191970" d="M1510.3585,-652.7074C1525.1723,-650.6898 1542.3157,-648.3549 1558.2086,-646.1902"/>
<polygon fill="#191970" stroke="#191970" points="1558.9987,-649.615 1568.4349,-644.7974 1558.054,-642.679 1558.9987,-649.615"/>
</g>
<!-- Node4401&#45;&gt;Node4398 -->
<g id="edge7" class="edge">
<title>Node4401&#45;&gt;Node4398</title>
<path fill="none" stroke="#191970" d="M1637.776,-704.6228C1654.0328,-709.858 1674.9981,-716.6096 1692.7299,-722.3198"/>
<polygon fill="#191970" stroke="#191970" points="1692.1449,-725.8084 1702.7364,-725.5422 1694.2907,-719.1453 1692.1449,-725.8084"/>
</g>
<!-- Node4401&#45;&gt;Node4402 -->
<g id="edge8" class="edge">
<title>Node4401&#45;&gt;Node4402</title>
<path fill="none" stroke="#191970" d="M1629.566,-686.4334C1641.357,-679.6769 1656.3475,-669.7521 1667,-658 1693.0967,-629.2094 1712.1719,-587.4664 1721.841,-563.2926"/>
<polygon fill="#191970" stroke="#191970" points="1725.1641,-564.4032 1725.5079,-553.8139 1718.6356,-561.8775 1725.1641,-564.4032"/>
</g>
<!-- Node4409&#45;&gt;Node4397 -->
<g id="edge14" class="edge">
<title>Node4409&#45;&gt;Node4397</title>
<path fill="none" stroke="#191970" d="M1438.6836,-470.6685C1403.3581,-473.968 1345.6805,-480.5943 1297,-492 1281.6398,-495.5988 1265.0532,-500.9075 1250.9503,-505.8674"/>
<polygon fill="#191970" stroke="#191970" points="1249.396,-502.707 1241.1731,-509.3879 1251.7675,-509.2931 1249.396,-502.707"/>
</g>
<!-- Node4409&#45;&gt;Node4402 -->
<g id="edge13" class="edge">
<title>Node4409&#45;&gt;Node4402</title>
<path fill="none" stroke="#191970" d="M1504.1096,-466.4712C1544.1592,-465.8123 1613.3722,-468.69 1667,-492 1685.2149,-499.9173 1702.22,-514.9488 1713.7965,-526.8222"/>
<polygon fill="#191970" stroke="#191970" points="1711.5058,-529.497 1720.8919,-534.4116 1716.6192,-524.7165 1711.5058,-529.497"/>
</g>
<!-- Node4412 -->
<g id="node11" class="node">
<title>Node4412</title>
<g id="a_node11"><a xlink:href="value_8c.html#a3a0550d465b81917f8b0c69a3373163e" target="_top" xlink:title="Convert one type of fr_value_box_t to another. ">
<polygon fill="none" stroke="#ff0000" points="1563,-420.5 1563,-439.5 1659,-439.5 1659,-420.5 1563,-420.5"/>
<text text-anchor="middle" x="1611" y="-427.5" font-family="Helvetica,sans-Serif" font-size="10.00" fill="#000000">fr_value_box_cast</text>
</a>
</g>
</g>
<!-- Node4409&#45;&gt;Node4412 -->
<g id="edge15" class="edge">
<title>Node4409&#45;&gt;Node4412</title>
<path fill="none" stroke="#191970" d="M1504.2066,-459.0907C1522.6696,-454.0613 1546.011,-447.7031 1566.1597,-442.2146"/>
<polygon fill="#191970" stroke="#191970" points="1567.3313,-445.523 1576.0598,-439.5178 1565.4915,-438.7691 1567.3313,-445.523"/>
</g>
<!-- Node4412&#45;&gt;Node4397 -->
<g id="edge16" class="edge">
<title>Node4412&#45;&gt;Node4397</title>
<path fill="none" stroke="#191970" d="M1562.9127,-430.2151C1499.9364,-431.9108 1386.9665,-439.8575 1297,-473 1276.0405,-480.7212 1254.1507,-493.5876 1238.4975,-503.7526"/>
<polygon fill="#191970" stroke="#191970" points="1236.4448,-500.9143 1230.056,-509.3661 1240.321,-506.7432 1236.4448,-500.9143"/>
</g>
<!-- Node5023&#45;&gt;Node4397 -->
<g id="edge21" class="edge">
<title>Node5023&#45;&gt;Node4397</title>
<path fill="none" stroke="#191970" d="M1114.7254,-674.9651C1122.3164,-670.847 1129.8435,-665.8657 1136,-660 1173.2602,-624.4995 1198.319,-567.9172 1209.628,-538.3813"/>
<polygon fill="#191970" stroke="#191970" points="1212.9808,-539.4056 1213.1695,-528.8125 1206.416,-536.9759 1212.9808,-539.4056"/>
</g>
<!-- Node5024&#45;&gt;Node4397 -->
<g id="edge23" class="edge">
<title>Node5024&#45;&gt;Node4397</title>
<path fill="none" stroke="#191970" d="M209.7535,-503.511C217.6164,-528.7511 242.7716,-597.5068 291,-627 370.95,-675.8919 407.2854,-646 501,-646 501,-646 501,-646 931.5,-646 1039.6696,-646 1152.4953,-568.7274 1196.898,-534.732"/>
<polygon fill="#191970" stroke="#191970" points="1199.1038,-537.4504 1204.8446,-528.5456 1194.8037,-531.9268 1199.1038,-537.4504"/>
</g>
<!-- Node5024&#45;&gt;Node4412 -->
<g id="edge69" class="edge">
<title>Node5024&#45;&gt;Node4412</title>
<path fill="none" stroke="#191970" d="M207.9205,-484.1322C214.9979,-414.5078 266.9613,0 501,0 501,0 501,0 1342.5,0 1538.5542,0 1596.7137,-325.5861 1608.5114,-410.1348"/>
<polygon fill="#191970" stroke="#191970" points="1605.0638,-410.7605 1609.8533,-420.2109 1612.0025,-409.8364 1605.0638,-410.7605"/>
</g>
<!-- Node4762 -->
<g id="node15" class="node">
<title>Node4762</title>
<g id="a_node15"><a xlink:href="pair_8c.html#a2897183dcbc65ef1b54619bd293fd735" target="_top" xlink:title="Dynamically allocate a new attribute and fill in the da field. ">
<polygon fill="none" stroke="#ff0000" points="756,-560.5 756,-579.5 845,-579.5 845,-560.5 756,-560.5"/>
<text text-anchor="middle" x="800.5" y="-567.5" font-family="Helvetica,sans-Serif" font-size="10.00" fill="#000000">fr_pair_afrom_da</text>
</a>
</g>
</g>
<!-- Node5024&#45;&gt;Node4762 -->
<g id="edge24" class="edge">
<title>Node5024&#45;&gt;Node4762</title>
<path fill="none" stroke="#191970" d="M223.4188,-503.5245C239.908,-512.5765 266.3391,-525.7125 291,-532 452.3413,-573.1351 651.013,-574.3764 745.5226,-572.1117"/>
<polygon fill="#191970" stroke="#191970" points="745.8002,-575.6057 755.7047,-571.8441 745.6162,-568.6081 745.8002,-575.6057"/>
</g>
<!-- Node4559 -->
<g id="node16" class="node">
<title>Node4559</title>
<g id="a_node16"><a xlink:href="strerror_8c.html#a2f2232a184a763c76b3d87d5bea7a868" target="_top" xlink:title="Add a message to an existing stack of messages. ">
<polygon fill="none" stroke="#ff0000" points="1555,-762.5 1555,-781.5 1667,-781.5 1667,-762.5 1555,-762.5"/>
<text text-anchor="middle" x="1611" y="-769.5" font-family="Helvetica,sans-Serif" font-size="10.00" fill="#000000">fr_strerror_printf_push</text>
</a>
</g>
</g>
<!-- Node5024&#45;&gt;Node4559 -->
<g id="edge26" class="edge">
<title>Node5024&#45;&gt;Node4559</title>
<path fill="none" stroke="#191970" d="M209.5027,-503.6688C219.4184,-541.215 257.0604,-676.5708 291,-703 471.2945,-843.3974 571.9884,-772 800.5,-772 800.5,-772 800.5,-772 1342.5,-772 1411.4727,-772 1490.4118,-772 1544.755,-772"/>
<polygon fill="#191970" stroke="#191970" points="1544.9464,-775.5001 1554.9463,-772 1544.9463,-768.5001 1544.9464,-775.5001"/>
</g>
<!-- Node4404 -->
<g id="node17" class="node">
<title>Node4404</title>
<g id="a_node17"><a xlink:href="cursor_8c.html#ac0e33de2a6f1cb5e82c4d4e4255c2b95" target="_top" xlink:title="Rewind cursor to the start of the list. ">
<polygon fill="none" stroke="#ff0000" points="314.5,-484.5 314.5,-503.5 395.5,-503.5 395.5,-484.5 314.5,-484.5"/>
<text text-anchor="middle" x="355" y="-491.5" font-family="Helvetica,sans-Serif" font-size="10.00" fill="#000000">fr_cursor_head</text>
</a>
</g>
</g>
<!-- Node5024&#45;&gt;Node4404 -->
<g id="edge29" class="edge">
<title>Node5024&#45;&gt;Node4404</title>
<path fill="none" stroke="#191970" d="M255.0514,-494C270.6991,-494 288.1193,-494 303.9768,-494"/>
<polygon fill="#191970" stroke="#191970" points="304.1375,-497.5001 314.1375,-494 304.1374,-490.5001 304.1375,-497.5001"/>
</g>
<!-- Node5025 -->
<g id="node18" class="node">
<title>Node5025</title>
<g id="a_node18"><a xlink:href="cursor_8c.html#a4063f03b77486d37515dc637f18de69d" target="_top" xlink:title="Free the current item and all items after it. ">
<polygon fill="none" stroke="#000000" points="307.5,-446.5 307.5,-465.5 402.5,-465.5 402.5,-446.5 307.5,-446.5"/>
<text text-anchor="middle" x="355" y="-453.5" font-family="Helvetica,sans-Serif" font-size="10.00" fill="#000000">fr_cursor_free_list</text>
</a>
</g>
</g>
<!-- Node5024&#45;&gt;Node5025 -->
<g id="edge30" class="edge">
<title>Node5024&#45;&gt;Node5025</title>
<path fill="none" stroke="#191970" d="M244.3466,-484.411C263.7009,-479.4417 287.5304,-473.3233 308.1126,-468.0387"/>
<polygon fill="#191970" stroke="#191970" points="309.1065,-471.3971 317.9219,-465.5201 307.3656,-464.617 309.1065,-471.3971"/>
</g>
<!-- Node4868 -->
<g id="node20" class="node">
<title>Node4868</title>
<g id="a_node20"><a xlink:href="pair_8c.html#acef35ba3cb2e396515cba5e01ca776ff" target="_top" xlink:title="Mark malformed or unrecognised attributed as unknown. ">
<polygon fill="none" stroke="#000000" points="881,-363.5 881,-382.5 982,-382.5 982,-363.5 881,-363.5"/>
<text text-anchor="middle" x="931.5" y="-370.5" font-family="Helvetica,sans-Serif" font-size="10.00" fill="#000000">fr_pair_to_unknown</text>
</a>
</g>
</g>
<!-- Node5024&#45;&gt;Node4868 -->
<g id="edge32" class="edge">
<title>Node5024&#45;&gt;Node4868</title>
<path fill="none" stroke="#191970" d="M217.4289,-484.3284C232.4182,-471.0744 261.5088,-447.6948 291,-437 493.4284,-363.5903 753.9865,-364.4306 870.4895,-369.3367"/>
<polygon fill="#191970" stroke="#191970" points="870.4926,-372.8403 880.6389,-369.7901 870.8051,-365.8472 870.4926,-372.8403"/>
</g>
<!-- Node4785 -->
<g id="node25" class="node">
<title>Node4785</title>
<g id="a_node25"><a xlink:href="pair_8c.html#a94b766c393971cb82e7208df7d1d5d95" target="_top" xlink:title="Copy data into a &quot;string&quot; type value pair. ">
<polygon fill="none" stroke="#ff0000" points="297.5,-370.5 297.5,-389.5 412.5,-389.5 412.5,-370.5 297.5,-370.5"/>
<text text-anchor="middle" x="355" y="-377.5" font-family="Helvetica,sans-Serif" font-size="10.00" fill="#000000">fr_pair_value_bstrndup</text>
</a>
</g>
</g>
<!-- Node5024&#45;&gt;Node4785 -->
<g id="edge38" class="edge">
<title>Node5024&#45;&gt;Node4785</title>
<path fill="none" stroke="#191970" d="M213.5274,-484.4964C226.3784,-466.438 256.7078,-426.9267 291,-404 297.1718,-399.8737 304.1493,-396.3309 311.1702,-393.3327"/>
<polygon fill="#191970" stroke="#191970" points="312.6784,-396.5004 320.6993,-389.5783 310.1124,-389.9877 312.6784,-396.5004"/>
</g>
<!-- Node4869 -->
<g id="node26" class="node">
<title>Node4869</title>
<g id="a_node26"><a xlink:href="pair_8c.html#ad6a4af5aec8fe8bac9db2211ae354989" target="_top" xlink:title="Copy data into an &quot;octets&quot; data type. ">
<polygon fill="none" stroke="#ff0000" points="297.5,-332.5 297.5,-351.5 412.5,-351.5 412.5,-332.5 297.5,-332.5"/>
<text text-anchor="middle" x="355" y="-339.5" font-family="Helvetica,sans-Serif" font-size="10.00" fill="#000000">fr_pair_value_memdup</text>
</a>
</g>
</g>
<!-- Node5024&#45;&gt;Node4869 -->
<g id="edge39" class="edge">
<title>Node5024&#45;&gt;Node4869</title>
<path fill="none" stroke="#191970" d="M210.3586,-484.2913C219.3504,-459.7511 246.3644,-394.7939 291,-361 293.4618,-359.1362 296.1043,-357.4545 298.8632,-355.9373"/>
<polygon fill="#191970" stroke="#191970" points="300.4423,-359.0623 307.9924,-351.6295 297.455,-352.7317 300.4423,-359.0623"/>
</g>
<!-- Node4864 -->
<g id="node27" class="node">
<title>Node4864</title>
<g id="a_node27"><a xlink:href="value_8c.html#ae02199d4f2a1aa2a8d6d617f1b072f20" target="_top" xlink:title="Decode a fr_value_box_t from serialized binary data. ">
<polygon fill="none" stroke="#ff0000" points="583,-517.5 583,-536.5 720,-536.5 720,-517.5 583,-517.5"/>
<text text-anchor="middle" x="651.5" y="-524.5" font-family="Helvetica,sans-Serif" font-size="10.00" fill="#000000">fr_value_box_from_network</text>
</a>
</g>
</g>
<!-- Node5024&#45;&gt;Node4864 -->
<g id="edge40" class="edge">
<title>Node5024&#45;&gt;Node4864</title>
<path fill="none" stroke="#191970" d="M242.7104,-503.5994C257.5379,-507.1863 274.9897,-510.8966 291,-513 387.3798,-525.6623 499.3971,-528.1171 572.668,-528.0871"/>
<polygon fill="#191970" stroke="#191970" points="572.751,-531.5871 582.744,-528.0672 572.7371,-524.5871 572.751,-531.5871"/>
</g>
<!-- Node4567 -->
<g id="node28" class="node">
<title>Node4567</title>
<g id="a_node28"><a xlink:href="cursor_8c.html#a6e72682a046a3eeac734da6639f1817c" target="_top" xlink:title="Insert a single item at the end of the list. ">
<polygon fill="none" stroke="#ff0000" points="309,-256.5 309,-275.5 401,-275.5 401,-256.5 309,-256.5"/>
<text text-anchor="middle" x="355" y="-263.5" font-family="Helvetica,sans-Serif" font-size="10.00" fill="#000000">fr_cursor_append</text>
</a>
</g>
</g>
<!-- Node5024&#45;&gt;Node4567 -->
<g id="edge42" class="edge">
<title>Node5024&#45;&gt;Node4567</title>
<path fill="none" stroke="#191970" d="M207.9371,-484.4522C211.6817,-451.5617 228.544,-341.8694 291,-285 293.6513,-282.5858 296.5965,-280.4777 299.7259,-278.6368"/>
<polygon fill="#191970" stroke="#191970" points="301.4993,-281.6656 308.9413,-274.1245 298.421,-275.3787 301.4993,-281.6656"/>
</g>
<!-- Node5026 -->
<g id="node29" class="node">
<title>Node5026</title>
<g id="a_node29"><a xlink:href="protocols_2dhcpv4_2decode_8c.html#aa4f678bb92ce10ebee2a79b8de5d2b2a" target="_top" xlink:title="Decode DHCP option. ">
<polygon fill="none" stroke="#000000" points="291,-294.5 291,-313.5 419,-313.5 419,-294.5 291,-294.5"/>
<text text-anchor="middle" x="355" y="-301.5" font-family="Helvetica,sans-Serif" font-size="10.00" fill="#000000">fr_dhcpv4_decode_option</text>
</a>
</g>
</g>
<!-- Node5024&#45;&gt;Node5026 -->
<g id="edge43" class="edge">
<title>Node5024&#45;&gt;Node5026</title>
<path fill="none" stroke="#191970" d="M208.9318,-484.1809C215.1918,-454.9989 237.6839,-368.0343 291,-323 293.0144,-321.2985 295.1762,-319.7494 297.4433,-318.339"/>
<polygon fill="#191970" stroke="#191970" points="299.369,-321.2823 306.6205,-313.5578 296.1347,-315.0742 299.369,-321.2823"/>
</g>
<!-- Node4901 -->
<g id="node36" class="node">
<title>Node4901</title>
<g id="a_node36"><a xlink:href="pair_8c.html#ac3e6ae214c078ffe6f2648f1c12159ff" target="_top" xlink:title="Find the pair with the matching DAs. ">
<polygon fill="none" stroke="#000000" points="307,-674.5 307,-693.5 403,-693.5 403,-674.5 307,-674.5"/>
<text text-anchor="middle" x="355" y="-681.5" font-family="Helvetica,sans-Serif" font-size="10.00" fill="#000000">fr_pair_find_by_da</text>
</a>
</g>
</g>
<!-- Node5024&#45;&gt;Node4901 -->
<g id="edge67" class="edge">
<title>Node5024&#45;&gt;Node4901</title>
<path fill="none" stroke="#191970" d="M209.2684,-503.769C216.3202,-532.031 240.4813,-614.7394 291,-660 295.473,-664.0075 300.6788,-667.3684 306.1527,-670.1819"/>
<polygon fill="#191970" stroke="#191970" points="304.9816,-673.4933 315.5361,-674.4173 307.8615,-667.1131 304.9816,-673.4933"/>
</g>
<!-- Node4904 -->
<g id="node37" class="node">
<title>Node4904</title>
<g id="a_node37"><a xlink:href="pair_8c.html#a5fa73ca22e224c1973cb8d9239ea1ba5" target="_top" xlink:title="Delete matching pairs from the specified list. ">
<polygon fill="none" stroke="#ff0000" points="301.5,-598.5 301.5,-617.5 408.5,-617.5 408.5,-598.5 301.5,-598.5"/>
<text text-anchor="middle" x="355" y="-605.5" font-family="Helvetica,sans-Serif" font-size="10.00" fill="#000000">fr_pair_delete_by_da</text>
</a>
</g>
</g>
<!-- Node5024&#45;&gt;Node4904 -->
<g id="edge68" class="edge">
<title>Node5024&#45;&gt;Node4904</title>
<path fill="none" stroke="#191970" d="M213.5274,-503.5036C226.3784,-521.562 256.7078,-561.0733 291,-584 297.1718,-588.1263 304.1493,-591.6691 311.1702,-594.6673"/>
<polygon fill="#191970" stroke="#191970" points="310.1124,-598.0123 320.6993,-598.4217 312.6784,-591.4996 310.1124,-598.0123"/>
</g>
<!-- Node4762&#45;&gt;Node4397 -->
<g id="edge25" class="edge">
<title>Node4762&#45;&gt;Node4397</title>
<path fill="none" stroke="#191970" d="M845.0096,-568.0344C909.5265,-564.7003 1032.6215,-556.5145 1136,-539 1148.2016,-536.9328 1161.2828,-533.9997 1173.278,-531.015"/>
<polygon fill="#191970" stroke="#191970" points="1174.2349,-534.383 1183.0554,-528.5136 1172.4999,-527.6014 1174.2349,-534.383"/>
</g>
<!-- Node4559&#45;&gt;Node4398 -->
<g id="edge27" class="edge">
<title>Node4559&#45;&gt;Node4398</title>
<path fill="none" stroke="#191970" d="M1640.7764,-762.411C1656.6075,-757.3128 1676.1942,-751.0053 1692.8878,-745.6294"/>
<polygon fill="#191970" stroke="#191970" points="1694.4029,-748.8185 1702.8486,-742.4216 1692.2571,-742.1555 1694.4029,-748.8185"/>
</g>
<!-- Node4559&#45;&gt;Node4402 -->
<g id="edge28" class="edge">
<title>Node4559&#45;&gt;Node4402</title>
<path fill="none" stroke="#191970" d="M1623.2607,-762.2795C1635.7774,-751.7897 1655.0206,-734.0147 1667,-715 1698.4699,-665.0482 1717.0418,-596.855 1724.7705,-563.7052"/>
<polygon fill="#191970" stroke="#191970" points="1728.2796,-564.0523 1727.0553,-553.5284 1721.4496,-562.5188 1728.2796,-564.0523"/>
</g>
<!-- Node4406 -->
<g id="node19" class="node">
<title>Node4406</title>
<g id="a_node19"><a xlink:href="cursor_8c.html#a6194bc92357e84dc8720ffd5ccaaeb42" target="_top" xlink:title="Remove the current item. ">
<polygon fill="none" stroke="#ff0000" points="455,-484.5 455,-503.5 547,-503.5 547,-484.5 455,-484.5"/>
<text text-anchor="middle" x="501" y="-491.5" font-family="Helvetica,sans-Serif" font-size="10.00" fill="#000000">fr_cursor_remove</text>
</a>
</g>
</g>
<!-- Node5025&#45;&gt;Node4406 -->
<g id="edge31" class="edge">
<title>Node5025&#45;&gt;Node4406</title>
<path fill="none" stroke="#191970" d="M391.842,-465.589C410.8479,-470.5358 434.2286,-476.6211 454.4692,-481.8892"/>
<polygon fill="#191970" stroke="#191970" points="453.8638,-485.3482 464.423,-484.4799 455.627,-478.5739 453.8638,-485.3482"/>
</g>
<!-- Node4838 -->
<g id="node21" class="node">
<title>Node4838</title>
<g id="a_node21"><a xlink:href="dict_8h.html#a55644eb5b75ecb783881d0b3a3294192" target="_top" xlink:title="Allocates an unknown attribute. ">
<polygon fill="none" stroke="#ff0000" points="1018,-315 1018,-345 1136,-345 1136,-315 1018,-315"/>
<text text-anchor="start" x="1026" y="-333" font-family="Helvetica,sans-Serif" font-size="10.00" fill="#000000">fr_dict_unknown_afrom</text>
<text text-anchor="middle" x="1077" y="-322" font-family="Helvetica,sans-Serif" font-size="10.00" fill="#000000">_fields</text>
</a>
</g>
</g>
<!-- Node4868&#45;&gt;Node4838 -->
<g id="edge33" class="edge">
<title>Node4868&#45;&gt;Node4838</title>
<path fill="none" stroke="#191970" d="M963.7912,-363.4569C979.333,-358.8638 998.487,-353.2032 1016.5907,-347.8529"/>
<polygon fill="#191970" stroke="#191970" points="1017.6249,-351.197 1026.2229,-345.0063 1015.6409,-344.484 1017.6249,-351.197"/>
</g>
<!-- Node4634 -->
<g id="node23" class="node">
<title>Node4634</title>
<g id="a_node23"><a xlink:href="dict__ext_8h.html#affb00364829956930ef20d851f569aab" target="_top" xlink:title="Return the vendor number for an attribute. ">
<polygon fill="none" stroke="#ff0000" points="1026,-364 1026,-394 1128,-394 1128,-364 1026,-364"/>
<text text-anchor="start" x="1034" y="-382" font-family="Helvetica,sans-Serif" font-size="10.00" fill="#000000">fr_dict_vendor_num</text>
<text text-anchor="middle" x="1077" y="-371" font-family="Helvetica,sans-Serif" font-size="10.00" fill="#000000">_by_da</text>
</a>
</g>
</g>
<!-- Node4868&#45;&gt;Node4634 -->
<g id="edge36" class="edge">
<title>Node4868&#45;&gt;Node4634</title>
<path fill="none" stroke="#191970" d="M982.3888,-375.0985C993.1805,-375.5435 1004.6797,-376.0177 1015.8086,-376.4766"/>
<polygon fill="#191970" stroke="#191970" points="1015.7582,-379.9774 1025.894,-376.8925 1016.0467,-372.9834 1015.7582,-379.9774"/>
</g>
<!-- Node4759 -->
<g id="node24" class="node">
<title>Node4759</title>
<g id="a_node24"><a xlink:href="dict_8h.html#a097b7c156d8149666eec5bdf2a1e0d9d" target="_top" xlink:title="Free dynamically allocated (unknown attributes) ">
<polygon fill="none" stroke="#000000" points="1022,-161.5 1022,-180.5 1132,-180.5 1132,-161.5 1022,-161.5"/>
<text text-anchor="middle" x="1077" y="-168.5" font-family="Helvetica,sans-Serif" font-size="10.00" fill="#000000">fr_dict_unknown_free</text>
</a>
</g>
</g>
<!-- Node4868&#45;&gt;Node4759 -->
<g id="edge37" class="edge">
<title>Node4868&#45;&gt;Node4759</title>
<path fill="none" stroke="#191970" d="M938.5178,-363.2571C961.4219,-331.4589 1034.2284,-230.3805 1064.0614,-188.9629"/>
<polygon fill="#191970" stroke="#191970" points="1067.048,-190.805 1070.0526,-180.6451 1061.368,-186.7137 1067.048,-190.805"/>
</g>
<!-- Node4838&#45;&gt;Node4397 -->
<g id="edge34" class="edge">
<title>Node4838&#45;&gt;Node4397</title>
<path fill="none" stroke="#191970" d="M1123.7626,-345.1112C1128.1841,-347.6574 1132.3645,-350.6022 1136,-354 1179.9345,-395.0619 1202.8346,-465.2214 1211.8412,-499.2851"/>
<polygon fill="#191970" stroke="#191970" points="1208.5412,-500.514 1214.3733,-509.3592 1215.33,-498.8076 1208.5412,-500.514"/>
</g>
<!-- Node4672 -->
<g id="node22" class="node">
<title>Node4672</title>
<g id="a_node22"><a xlink:href="dict_8h.html#ade71dd6bfb60945aa34a7f0d5286d6c1" target="_top" xlink:title="Check if a child attribute exists in a parent using an attribute number. ">
<polygon fill="none" stroke="#ff0000" points="1172,-151 1172,-181 1261,-181 1261,-151 1172,-151"/>
<text text-anchor="start" x="1180" y="-169" font-family="Helvetica,sans-Serif" font-size="10.00" fill="#000000">fr_dict_attr_child</text>
<text text-anchor="middle" x="1216.5" y="-158" font-family="Helvetica,sans-Serif" font-size="10.00" fill="#000000">_by_num</text>
</a>
</g>
</g>
<!-- Node4838&#45;&gt;Node4672 -->
<g id="edge35" class="edge">
<title>Node4838&#45;&gt;Node4672</title>
<path fill="none" stroke="#191970" d="M1089.8738,-314.8652C1114.3729,-286.0634 1167.8386,-223.2076 1196.8429,-189.1094"/>
<polygon fill="#191970" stroke="#191970" points="1199.8441,-190.983 1203.6573,-181.0982 1194.5121,-186.4476 1199.8441,-190.983"/>
</g>
<!-- Node4864&#45;&gt;Node4397 -->
<g id="edge41" class="edge">
<title>Node4864&#45;&gt;Node4397</title>
<path fill="none" stroke="#191970" d="M720.2152,-526.027C834.2292,-524.4127 1060.1253,-521.2142 1163.0998,-519.7561"/>
<polygon fill="#191970" stroke="#191970" points="1163.3154,-523.2535 1173.2649,-519.6122 1163.2163,-516.2542 1163.3154,-523.2535"/>
</g>
<!-- Node5026&#45;&gt;Node4397 -->
<g id="edge45" class="edge">
<title>Node5026&#45;&gt;Node4397</title>
<path fill="none" stroke="#191970" d="M397.4784,-313.5516C404.9074,-316.0684 412.3718,-319.181 419,-323 438.0691,-333.987 435.512,-346.7744 455,-357 580.4815,-422.8421 1011.2794,-489.5076 1163.0595,-511.4757"/>
<polygon fill="#191970" stroke="#191970" points="1162.6759,-514.9565 1173.0729,-512.9186 1163.6743,-508.028 1162.6759,-514.9565"/>
</g>
<!-- Node5026&#45;&gt;Node4838 -->
<g id="edge47" class="edge">
<title>Node5026&#45;&gt;Node4838</title>
<path fill="none" stroke="#191970" d="M419.1958,-312.6361C431.0807,-313.9696 443.4013,-315.1755 455,-316 655.2805,-330.2371 892.661,-331.1799 1007.6614,-330.6285"/>
<polygon fill="#191970" stroke="#191970" points="1007.7539,-334.1282 1017.735,-330.5748 1007.7165,-327.1283 1007.7539,-334.1282"/>
</g>
<!-- Node5026&#45;&gt;Node4672 -->
<g id="edge46" class="edge">
<title>Node5026&#45;&gt;Node4672</title>
<path fill="none" stroke="#191970" d="M406.6442,-294.4489C411.2647,-291.9722 415.5072,-288.8734 419,-285 477.1419,-220.5229 396.3546,-157.0195 455,-93 516.2591,-26.1273 560.8102,-38 651.5,-38 651.5,-38 651.5,-38 931.5,-38 1034.348,-38 1141.195,-108.2225 1189.6932,-144.6421"/>
<polygon fill="#191970" stroke="#191970" points="1187.7107,-147.5319 1197.7844,-150.8141 1191.9562,-141.9663 1187.7107,-147.5319"/>
</g>
<!-- Node5026&#45;&gt;Node4634 -->
<g id="edge48" class="edge">
<title>Node5026&#45;&gt;Node4634</title>
<path fill="none" stroke="#191970" d="M386.9933,-313.5291C413.6139,-321.4159 448.2155,-331.5544 455,-333 641.9438,-372.8339 690.3118,-378.8578 881,-392 925.7827,-395.0864 937.2149,-395.05 982,-392 992.9355,-391.2553 1004.5303,-390.0336 1015.7218,-388.6297"/>
<polygon fill="#191970" stroke="#191970" points="1016.3973,-392.0711 1025.8558,-387.2975 1015.4849,-385.1308 1016.3973,-392.0711"/>
</g>
<!-- Node5026&#45;&gt;Node4759 -->
<g id="edge66" class="edge">
<title>Node5026&#45;&gt;Node4759</title>
<path fill="none" stroke="#191970" d="M405.1307,-294.3685C410.2163,-291.9163 414.9792,-288.8451 419,-285 454.3504,-251.194 423.6457,-218.542 455,-181 518.4735,-105 552.4804,-76 651.5,-76 651.5,-76 651.5,-76 800.5,-76 898.0843,-76 1005.0423,-129.5795 1052.2578,-156.2625"/>
<polygon fill="#191970" stroke="#191970" points="1050.7287,-159.4205 1061.143,-161.3681 1054.2163,-153.3512 1050.7287,-159.4205"/>
</g>
<!-- Node4605 -->
<g id="node30" class="node">
<title>Node4605</title>
<g id="a_node30"><a xlink:href="dict_8h.html#a7c79c676c03022a0e7404ae0232bd902" target="_top" xlink:title="Return the root attribute of a dictionary. ">
<polygon fill="none" stroke="#000000" points="468.5,-190.5 468.5,-209.5 533.5,-209.5 533.5,-190.5 468.5,-190.5"/>
<text text-anchor="middle" x="501" y="-197.5" font-family="Helvetica,sans-Serif" font-size="10.00" fill="#000000">fr_dict_root</text>
</a>
</g>
</g>
<!-- Node5026&#45;&gt;Node4605 -->
<g id="edge44" class="edge">
<title>Node5026&#45;&gt;Node4605</title>
<path fill="none" stroke="#191970" d="M402.896,-294.3925C408.6816,-291.9404 414.2235,-288.8627 419,-285 444.9808,-263.9895 430.1364,-241.3215 455,-219 456.7239,-217.4523 458.5914,-216.0204 460.5533,-214.697"/>
<polygon fill="#191970" stroke="#191970" points="462.633,-217.5415 469.6085,-209.5669 459.1826,-211.451 462.633,-217.5415"/>
</g>
<!-- Node5027 -->
<g id="node31" class="node">
<title>Node5027</title>
<g id="a_node31"><a xlink:href="protocols_2dhcpv4_2decode_8c.html#a34641dcc1f0c2d05d6181ffb4b7a57fe" target="_top" xlink:title="decode_vsa">
<polygon fill="none" stroke="#000000" points="466.5,-228.5 466.5,-247.5 535.5,-247.5 535.5,-228.5 466.5,-228.5"/>
<text text-anchor="middle" x="501" y="-235.5" font-family="Helvetica,sans-Serif" font-size="10.00" fill="#000000">decode_vsa</text>
</a>
</g>
</g>
<!-- Node5026&#45;&gt;Node5027 -->
<g id="edge49" class="edge">
<title>Node5026&#45;&gt;Node5027</title>
<path fill="none" stroke="#191970" d="M392.4058,-294.4797C401.2656,-291.7927 410.5826,-288.6038 419,-285 439.8059,-276.0923 461.9958,-263.1396 478.0386,-253.0865"/>
<polygon fill="#191970" stroke="#191970" points="480.1656,-255.8813 486.7171,-247.5549 476.4031,-249.9784 480.1656,-255.8813"/>
</g>
<!-- Node4858 -->
<g id="node33" class="node">
<title>Node4858</title>
<g id="a_node33"><a xlink:href="protocols_2dhcpv4_2decode_8c.html#ae7fdf80b2344031e56ef67ea94d153d7" target="_top" xlink:title="decode_value">
<polygon fill="none" stroke="#ff0000" points="762,-256.5 762,-275.5 839,-275.5 839,-256.5 762,-256.5"/>
<text text-anchor="middle" x="800.5" y="-263.5" font-family="Helvetica,sans-Serif" font-size="10.00" fill="#000000">decode_value</text>
</a>
</g>
</g>
<!-- Node5026&#45;&gt;Node4858 -->
<g id="edge65" class="edge">
<title>Node5026&#45;&gt;Node4858</title>
<path fill="none" stroke="#191970" d="M419.2635,-303.6811C492.4143,-302.5771 615.3292,-298.4689 720,-284 731.0783,-282.4686 742.8888,-280.1965 753.9539,-277.7781"/>
<polygon fill="#191970" stroke="#191970" points="754.8842,-281.1561 763.8637,-275.533 753.3375,-274.3291 754.8842,-281.1561"/>
</g>
<!-- Node5027&#45;&gt;Node4672 -->
<g id="edge61" class="edge">
<title>Node5027&#45;&gt;Node4672</title>
<path fill="none" stroke="#191970" d="M532.2637,-228.2877C537.5287,-225.7873 542.6791,-222.7217 547,-219 570.5628,-198.7045 557.6391,-176.9983 583,-159 663.5016,-101.8691 701.786,-114 800.5,-114 800.5,-114 800.5,-114 931.5,-114 1012.6347,-114 1104.6827,-134.6476 1161.6741,-149.9213"/>
<polygon fill="#191970" stroke="#191970" points="1160.9825,-153.3603 1171.5506,-152.6087 1162.8204,-146.6059 1160.9825,-153.3603"/>
</g>
<!-- Node4860 -->
<g id="node32" class="node">
<title>Node4860</title>
<g id="a_node32"><a xlink:href="protocols_2dhcpv4_2decode_8c.html#a7776ab201180f73b9fae09cc722324e4" target="_top" xlink:title="decode_raw">
<polygon fill="none" stroke="#ff0000" points="617,-168.5 617,-187.5 686,-187.5 686,-168.5 617,-168.5"/>
<text text-anchor="middle" x="651.5" y="-175.5" font-family="Helvetica,sans-Serif" font-size="10.00" fill="#000000">decode_raw</text>
</a>
</g>
</g>
<!-- Node5027&#45;&gt;Node4860 -->
<g id="edge50" class="edge">
<title>Node5027&#45;&gt;Node4860</title>
<path fill="none" stroke="#191970" d="M524.9703,-228.3618C532.0914,-225.4278 539.8881,-222.1456 547,-219 563.182,-211.8426 566.6283,-208.7122 583,-202 592.3456,-198.1684 602.5545,-194.3833 612.1697,-190.9912"/>
<polygon fill="#191970" stroke="#191970" points="613.612,-194.1956 621.9138,-187.6131 611.319,-187.5818 613.612,-194.1956"/>
</g>
<!-- Node4859 -->
<g id="node34" class="node">
<title>Node4859</title>
<g id="a_node34"><a xlink:href="protocols_2dhcpv4_2decode_8c.html#a0c249744789efd0ae4efb33ed48b1951" target="_top" xlink:title="RFC 4243 Vendor Specific Suboptions. ">
<polygon fill="none" stroke="#000000" points="899.5,-231.5 899.5,-250.5 963.5,-250.5 963.5,-231.5 899.5,-231.5"/>
<text text-anchor="middle" x="931.5" y="-238.5" font-family="Helvetica,sans-Serif" font-size="10.00" fill="#000000">decode_tlv</text>
</a>
</g>
</g>
<!-- Node5027&#45;&gt;Node4859 -->
<g id="edge64" class="edge">
<title>Node5027&#45;&gt;Node4859</title>
<path fill="none" stroke="#191970" d="M535.7047,-236.4493C550.3046,-235.8699 567.4749,-235.2839 583,-235 693.3252,-232.9825 823.2998,-236.8834 888.9556,-239.2949"/>
<polygon fill="#191970" stroke="#191970" points="889.1843,-242.8058 899.3083,-239.6825 889.4463,-235.8107 889.1843,-242.8058"/>
</g>
<!-- Node4852 -->
<g id="node35" class="node">
<title>Node4852</title>
<g id="a_node35"><a xlink:href="dict_8h.html#ab37cbda91e1af968176eb5d23868282a" target="_top" xlink:title="Build an unknown vendor, parented by a VSA attribute. ">
<polygon fill="none" stroke="#ff0000" points="590.5,-245 590.5,-275 712.5,-275 712.5,-245 590.5,-245"/>
<text text-anchor="start" x="598.5" y="-263" font-family="Helvetica,sans-Serif" font-size="10.00" fill="#000000">fr_dict_unknown_vendor</text>
<text text-anchor="middle" x="651.5" y="-252" font-family="Helvetica,sans-Serif" font-size="10.00" fill="#000000">_afrom_num</text>
</a>
</g>
</g>
<!-- Node5027&#45;&gt;Node4852 -->
<g id="edge62" class="edge">
<title>Node5027&#45;&gt;Node4852</title>
<path fill="none" stroke="#191970" d="M535.5277,-243.0472C548.8401,-244.9932 564.5856,-247.2949 580.1114,-249.5645"/>
<polygon fill="#191970" stroke="#191970" points="579.8534,-253.0639 590.2545,-251.0472 580.866,-246.1375 579.8534,-253.0639"/>
</g>
<!-- Node4860&#45;&gt;Node4759 -->
<g id="edge60" class="edge">
<title>Node4860&#45;&gt;Node4759</title>
<path fill="none" stroke="#191970" d="M686.3205,-177.4272C757.4151,-176.2576 920.2485,-173.5788 1011.6631,-172.0749"/>
<polygon fill="#191970" stroke="#191970" points="1011.9637,-175.5705 1021.9048,-171.9064 1011.8485,-168.5714 1011.9637,-175.5705"/>
</g>
<!-- Node4860&#45;&gt;Node4858 -->
<g id="edge51" class="edge">
<title>Node4860&#45;&gt;Node4858</title>
<path fill="none" stroke="#191970" d="M667.7293,-187.5851C693.7037,-202.9257 744.8025,-233.1048 775.4772,-251.2214"/>
<polygon fill="#191970" stroke="#191970" points="773.9004,-254.355 784.2908,-256.4268 777.4602,-248.3277 773.9004,-254.355"/>
</g>
<!-- Node4858&#45;&gt;Node4397 -->
<g id="edge59" class="edge">
<title>Node4858&#45;&gt;Node4397</title>
<path fill="none" stroke="#191970" d="M839.0898,-265.5918C917.2301,-265.5313 1090.6056,-269.5239 1136,-305 1198.3021,-353.6896 1212.3876,-456.1777 1215.571,-499.2604"/>
<polygon fill="#191970" stroke="#191970" points="1212.0815,-499.5405 1216.1898,-509.3063 1219.0682,-499.11 1212.0815,-499.5405"/>
</g>
<!-- Node4858&#45;&gt;Node4859 -->
<g id="edge52" class="edge">
<title>Node4858&#45;&gt;Node4859</title>
<path fill="none" stroke="#191970" d="M823.0197,-256.4603C841.2076,-251.4683 867.3116,-246.1163 889.3548,-242.6898"/>
<polygon fill="#191970" stroke="#191970" points="890.0837,-246.1206 899.4747,-241.2158 889.0747,-239.1937 890.0837,-246.1206"/>
</g>
<!-- Node4859&#45;&gt;Node4838 -->
<g id="edge55" class="edge">
<title>Node4859&#45;&gt;Node4838</title>
<path fill="none" stroke="#191970" d="M947.071,-250.5246C970.0241,-264.5646 1013.4915,-291.1529 1043.8005,-309.6924"/>
<polygon fill="#191970" stroke="#191970" points="1042.0021,-312.6952 1052.3591,-314.9275 1045.6548,-306.7237 1042.0021,-312.6952"/>
</g>
<!-- Node4859&#45;&gt;Node4672 -->
<g id="edge54" class="edge">
<title>Node4859&#45;&gt;Node4672</title>
<path fill="none" stroke="#191970" d="M963.8491,-233.4117C1004.263,-223.8216 1075.4714,-206.5613 1136,-190 1144.4828,-187.679 1153.4361,-185.1197 1162.1675,-182.5632"/>
<polygon fill="#191970" stroke="#191970" points="1163.2951,-185.8797 1171.8944,-179.6908 1161.3126,-179.1663 1163.2951,-185.8797"/>
</g>
<!-- Node4859&#45;&gt;Node4634 -->
<g id="edge56" class="edge">
<title>Node4859&#45;&gt;Node4634</title>
<path fill="none" stroke="#191970" d="M936.4991,-250.5119C948.1151,-271.791 978.9383,-323.7388 1018,-354 1020.2673,-355.7565 1022.6763,-357.4127 1025.1755,-358.9711"/>
<polygon fill="#191970" stroke="#191970" points="1023.5122,-362.0512 1033.9452,-363.8961 1026.9398,-355.9477 1023.5122,-362.0512"/>
</g>
<!-- Node4859&#45;&gt;Node4759 -->
<g id="edge58" class="edge">
<title>Node4859&#45;&gt;Node4759</title>
<path fill="none" stroke="#191970" d="M951.4261,-231.4136C976.3194,-219.4374 1019.1157,-198.8481 1047.7327,-185.0805"/>
<polygon fill="#191970" stroke="#191970" points="1049.3537,-188.1847 1056.8477,-180.6953 1046.3189,-181.8767 1049.3537,-188.1847"/>
</g>
<!-- Node4859&#45;&gt;Node4860 -->
<g id="edge53" class="edge">
<title>Node4859&#45;&gt;Node4860</title>
<path fill="none" stroke="#191970" d="M903.6891,-231.3963C886.8453,-225.8115 864.8494,-218.9259 845,-214 794.4634,-201.4587 735.5298,-191.0922 696.1017,-184.7552"/>
<polygon fill="#191970" stroke="#191970" points="696.444,-181.2657 686.0189,-183.1541 695.3462,-188.1791 696.444,-181.2657"/>
</g>
<!-- Node4859&#45;&gt;Node4858 -->
<g id="edge57" class="edge">
<title>Node4859&#45;&gt;Node4858</title>
<path fill="none" stroke="#191970" d="M909.1199,-250.5013C892.6386,-255.0333 869.6029,-259.8671 848.9842,-263.2906"/>
<polygon fill="#191970" stroke="#191970" points="848.4283,-259.835 839.0958,-264.8505 849.519,-266.7495 848.4283,-259.835"/>
</g>
<!-- Node4852&#45;&gt;Node4397 -->
<g id="edge63" class="edge">
<title>Node4852&#45;&gt;Node4397</title>
<path fill="none" stroke="#191970" d="M674.0938,-275.1984C714.2923,-301.7282 801.4936,-356.9929 881,-392 989.8312,-439.9189 1027.1016,-425.2341 1136,-473 1156.0855,-481.8101 1177.5952,-494.2734 1193.3228,-504.0051"/>
<polygon fill="#191970" stroke="#191970" points="1191.5312,-507.013 1201.8603,-509.3711 1195.2562,-501.0864 1191.5312,-507.013"/>
</g>
</g>
</svg>
