<?xml version="1.0" encoding="UTF-8" standalone="no"?>
<!DOCTYPE svg PUBLIC "-//W3C//DTD SVG 1.1//EN"
 "http://www.w3.org/Graphics/SVG/1.1/DTD/svg11.dtd">
<!-- Generated by graphviz version 2.40.1 (20161225.0304)
 -->
<!-- Title: encode_rfc_hdr Pages: 1 -->
<!--zoomable 85 -->
<svg id="main" version="1.1" xmlns="http://www.w3.org/2000/svg" xmlns:xlink="http://www.w3.org/1999/xlink" xml:space="preserve" onload="init(evt)">
<style type="text/css"><![CDATA[
.edge:hover path { stroke: red; }
.edge:hover polygon { stroke: red; fill: red; }
]]></style>
<script type="text/javascript"><![CDATA[
var edges = document.getElementsByTagName('g');
if (edges && edges.length) {
  for (var i=0;i<edges.length;i++) {
    if (edges[i].id.substr(0,4)=='edge') {
      edges[i].setAttribute('class','edge');
    }
  }
}
]]></script>
        <defs>
                <circle id="rim" cx="0" cy="0" r="7"/>
                <circle id="rim2" cx="0" cy="0" r="3.5"/>
                <g id="zoomPlus">
                        <use xlink:href="#rim" fill="#404040">
                                <set attributeName="fill" to="#808080" begin="zoomplus.mouseover" end="zoomplus.mouseout"/>
                        </use>
                        <path d="M-4,0h8M0,-4v8" fill="none" stroke="white" stroke-width="1.5" pointer-events="none"/>
                </g>
                <g id="zoomMin">
                        <use xlink:href="#rim" fill="#404040">
                                <set attributeName="fill" to="#808080" begin="zoomminus.mouseover" end="zoomminus.mouseout"/>
                        </use>
                        <path d="M-4,0h8" fill="none" stroke="white" stroke-width="1.5" pointer-events="none"/>
                </g>
                <g id="dirArrow">
                        <path fill="none" stroke="white" stroke-width="1.5" d="M0,-3.0v7 M-2.5,-0.5L0,-3.0L2.5,-0.5"/>
                </g>
               <g id="resetDef">
                       <use xlink:href="#rim2" fill="#404040">
                               <set attributeName="fill" to="#808080" begin="reset.mouseover" end="reset.mouseout"/>
                       </use>
               </g>
        </defs>

<script type="text/javascript">
var viewWidth = 659;
var viewHeight = 85;
var sectionId = 'dynsection-4';
</script>
<script xlink:href="svgpan.js"/>
<svg id="graph" class="graph">
<g id="viewport">
<title>encode_rfc_hdr</title>
<!-- Node148 -->
<g id="node1" class="node">
<title>Node148</title>
<polygon fill="#bfbfbf" stroke="#000000" points="0,-19.5 0,-38.5 83,-38.5 83,-19.5 0,-19.5"/>
<text text-anchor="middle" x="41.5" y="-26.5" font-family="Helvetica,sans-Serif" font-size="10.00" fill="#000000">encode_rfc_hdr</text>
</g>
<!-- Node149 -->
<g id="node2" class="node">
<title>Node149</title>
<g id="a_node2"><a xlink:href="protocols_2dhcpv4_2encode_8c.html#a3dc18ab3a7d954e47f83d9f3fc0721f2" target="_top" xlink:title="Write out a TLV header (and any sub TLVs or values) ">
<polygon fill="none" stroke="#000000" points="119,-19.5 119,-38.5 202,-38.5 202,-19.5 119,-19.5"/>
<text text-anchor="middle" x="160.5" y="-26.5" font-family="Helvetica,sans-Serif" font-size="10.00" fill="#000000">encode_tlv_hdr</text>
</a>
</g>
</g>
<!-- Node148&#45;&gt;Node149 -->
<g id="edge1" class="edge">
<title>Node148&#45;&gt;Node149</title>
<path fill="none" stroke="#191970" d="M93.3174,-29C101.8022,-29 110.499,-29 118.7019,-29"/>
<polygon fill="#191970" stroke="#191970" points="93.1205,-25.5001 83.1204,-29 93.1204,-32.5001 93.1205,-25.5001"/>
</g>
<!-- Node150 -->
<g id="node3" class="node">
<title>Node150</title>
<g id="a_node3"><a xlink:href="protocols_2dhcpv4_2encode_8c.html#aa358e177086e368c144d6541f42558a9" target="_top" xlink:title="encode_vsio_hdr">
<polygon fill="none" stroke="#000000" points="238,-57.5 238,-76.5 328,-76.5 328,-57.5 238,-57.5"/>
<text text-anchor="middle" x="283" y="-64.5" font-family="Helvetica,sans-Serif" font-size="10.00" fill="#000000">encode_vsio_hdr</text>
</a>
</g>
</g>
<!-- Node148&#45;&gt;Node150 -->
<g id="edge7" class="edge">
<title>Node148&#45;&gt;Node150</title>
<path fill="none" stroke="#191970" d="M86.353,-41.0048C97,-43.5738 108.3575,-46.0867 119,-48 158.9177,-55.1764 204.8122,-60.2243 237.8808,-63.3042"/>
<polygon fill="#191970" stroke="#191970" points="86.9573,-37.5488 76.4092,-38.5423 85.2746,-44.3436 86.9573,-37.5488"/>
</g>
<!-- Node151 -->
<g id="node4" class="node">
<title>Node151</title>
<g id="a_node4"><a xlink:href="protocols_2dhcpv4_2encode_8c.html#a58146a6e8f5e7d25fe640c83f8a17973" target="_top" xlink:title="Encode a DHCP option and any sub&#45;options. ">
<polygon fill="none" stroke="#000000" points="364,-19.5 364,-38.5 492,-38.5 492,-19.5 364,-19.5"/>
<text text-anchor="middle" x="428" y="-26.5" font-family="Helvetica,sans-Serif" font-size="10.00" fill="#000000">fr_dhcpv4_encode_option</text>
</a>
</g>
</g>
<!-- Node148&#45;&gt;Node151 -->
<g id="edge8" class="edge">
<title>Node148&#45;&gt;Node151</title>
<path fill="none" stroke="#191970" d="M82.7385,-16.9441C94.3614,-14.0798 107.0862,-11.4391 119,-10 207.0428,.6349 309.9579,-10.3323 371.9991,-19.473"/>
<polygon fill="#191970" stroke="#191970" points="81.6645,-13.6065 72.8563,-19.4942 83.4136,-20.3845 81.6645,-13.6065"/>
</g>
<!-- Node149&#45;&gt;Node150 -->
<g id="edge2" class="edge">
<title>Node149&#45;&gt;Node150</title>
<path fill="none" stroke="#191970" d="M201.3777,-41.6804C217.9294,-46.8148 236.7211,-52.6441 252.098,-57.4141"/>
<polygon fill="#191970" stroke="#191970" points="201.9999,-38.209 191.4119,-38.589 199.926,-44.8947 201.9999,-38.209"/>
</g>
<!-- Node149&#45;&gt;Node151 -->
<g id="edge6" class="edge">
<title>Node149&#45;&gt;Node151</title>
<path fill="none" stroke="#191970" d="M212.0401,-29C255.3518,-29 317.4523,-29 363.953,-29"/>
<polygon fill="#191970" stroke="#191970" points="212.0034,-25.5001 202.0034,-29 212.0033,-32.5001 212.0034,-25.5001"/>
</g>
<!-- Node150&#45;&gt;Node151 -->
<g id="edge3" class="edge">
<title>Node150&#45;&gt;Node151</title>
<path fill="none" stroke="#191970" d="M329.4928,-54.8157C349.6237,-49.54 372.8383,-43.4562 391.6735,-38.5201"/>
<polygon fill="#191970" stroke="#191970" points="328.3757,-51.4902 319.5896,-57.411 330.1503,-58.2615 328.3757,-51.4902"/>
</g>
<!-- Node152 -->
<g id="node5" class="node">
<title>Node152</title>
<g id="a_node5"><a xlink:href="dhcpv4_8h.html#a377605100de7a221382d89d0250bc9b3" target="_top" xlink:title="fr_dhcpv4_encode_dbuff">
<polygon fill="none" stroke="#ff0000" points="528,-38.5 528,-57.5 651,-57.5 651,-38.5 528,-38.5"/>
<text text-anchor="middle" x="589.5" y="-45.5" font-family="Helvetica,sans-Serif" font-size="10.00" fill="#000000">fr_dhcpv4_encode_dbuff</text>
</a>
</g>
</g>
<!-- Node151&#45;&gt;Node152 -->
<g id="edge4" class="edge">
<title>Node151&#45;&gt;Node152</title>
<path fill="none" stroke="#191970" d="M502.2553,-37.7359C510.7995,-38.7411 519.4414,-39.7578 527.7948,-40.7406"/>
<polygon fill="#191970" stroke="#191970" points="502.6336,-34.2564 492.2931,-36.5639 501.8157,-41.2084 502.6336,-34.2564"/>
</g>
<!-- Node158 -->
<g id="node6" class="node">
<title>Node158</title>
<g id="a_node6"><a xlink:href="group__xlat__functions.html#ga7296888f8e36edf1a60d23227877d042" target="_top" xlink:title="Encode DHCP option data. ">
<polygon fill="none" stroke="#ff0000" points="536.5,-.5 536.5,-19.5 642.5,-19.5 642.5,-.5 536.5,-.5"/>
<text text-anchor="middle" x="589.5" y="-7.5" font-family="Helvetica,sans-Serif" font-size="10.00" fill="#000000">dhcpv4_encode_xlat</text>
</a>
</g>
</g>
<!-- Node151&#45;&gt;Node158 -->
<g id="edge5" class="edge">
<title>Node151&#45;&gt;Node158</title>
<path fill="none" stroke="#191970" d="M502.3098,-20.2577C513.786,-18.9075 525.4367,-17.5369 536.327,-16.2556"/>
<polygon fill="#191970" stroke="#191970" points="501.8157,-16.7916 492.2931,-21.4361 502.6336,-23.7436 501.8157,-16.7916"/>
</g>
</g>
</svg>
        <g id="navigator" transform="translate(0 0)" fill="#404254">
                <rect fill="#f2f5e9" fill-opacity="0.5" stroke="#606060" stroke-width=".5" x="0" y="0" width="60" height="60"/>
                <use id="zoomplus" xlink:href="#zoomPlus" x="17" y="9" onmousedown="handleZoom(evt,'in')"/>
                <use id="zoomminus" xlink:href="#zoomMin" x="42" y="9" onmousedown="handleZoom(evt,'out')"/>
                <use id="reset" xlink:href="#resetDef" x="30" y="36" onmousedown="handleReset()"/>
                <g id="arrowUp" xlink:href="#dirArrow" transform="translate(30 24)" onmousedown="handlePan(0,-1)">
                  <use xlink:href="#rim" fill="#404040">
                        <set attributeName="fill" to="#808080" begin="arrowUp.mouseover" end="arrowUp.mouseout"/>
                  </use>
                  <path fill="none" stroke="white" stroke-width="1.5" d="M0,-3.0v7 M-2.5,-0.5L0,-3.0L2.5,-0.5"/>
                </g>
                <g id="arrowRight" xlink:href="#dirArrow" transform="rotate(90) translate(36 -43)" onmousedown="handlePan(1,0)">
                  <use xlink:href="#rim" fill="#404040">
                        <set attributeName="fill" to="#808080" begin="arrowRight.mouseover" end="arrowRight.mouseout"/>
                  </use>
                  <path fill="none" stroke="white" stroke-width="1.5" d="M0,-3.0v7 M-2.5,-0.5L0,-3.0L2.5,-0.5"/>
                </g>
                <g id="arrowDown" xlink:href="#dirArrow" transform="rotate(180) translate(-30 -48)" onmousedown="handlePan(0,1)">
                  <use xlink:href="#rim" fill="#404040">
                        <set attributeName="fill" to="#808080" begin="arrowDown.mouseover" end="arrowDown.mouseout"/>
                  </use>
                  <path fill="none" stroke="white" stroke-width="1.5" d="M0,-3.0v7 M-2.5,-0.5L0,-3.0L2.5,-0.5"/>
                </g>
                <g id="arrowLeft" xlink:href="#dirArrow" transform="rotate(270) translate(-36 17)" onmousedown="handlePan(-1,0)">
                  <use xlink:href="#rim" fill="#404040">
                        <set attributeName="fill" to="#808080" begin="arrowLeft.mouseover" end="arrowLeft.mouseout"/>
                  </use>
                  <path fill="none" stroke="white" stroke-width="1.5" d="M0,-3.0v7 M-2.5,-0.5L0,-3.0L2.5,-0.5"/>
                </g>
        </g>
        <svg viewBox="0 0 15 15" width="100%" height="30px" preserveAspectRatio="xMaxYMin meet">
         <g id="arrow_out" transform="scale(0.3 0.3)">
          <a xlink:href="protocols_2dhcpv4_2encode_8c_a3d522d36c7f40b2f73e0f46998c22334_icgraph_org.svg" target="_base">
           <rect id="button" ry="5" rx="5" y="6" x="6" height="38" width="38"
                fill="#f2f5e9" fill-opacity="0.5" stroke="#606060" stroke-width="1.0"/>
           <path id="arrow"
             d="M 11.500037,31.436501 C 11.940474,20.09759 22.043105,11.32322 32.158766,21.979434 L 37.068811,17.246167 C 37.068811,17.246167 37.088388,32 37.088388,32 L 22.160133,31.978069 C 22.160133,31.978069 26.997745,27.140456 26.997745,27.140456 C 18.528582,18.264221 13.291696,25.230495 11.500037,31.436501 z"
             style="fill:#404040;"/>
          </a>
         </g>
        </svg>
</svg>
