<?xml version="1.0" encoding="UTF-8" standalone="no"?>
<!DOCTYPE svg PUBLIC "-//W3C//DTD SVG 1.1//EN"
 "http://www.w3.org/Graphics/SVG/1.1/DTD/svg11.dtd">
<!-- Generated by graphviz version 2.40.1 (20161225.0304)
 -->
<!-- Title: tacacs_decode_args Pages: 1 -->
<svg width="402pt" height="66pt"
 viewBox="0.00 0.00 402.00 66.00" xmlns="http://www.w3.org/2000/svg" xmlns:xlink="http://www.w3.org/1999/xlink">
<g id="graph0" class="graph" transform="scale(1 1) rotate(0) translate(4 62)">
<title>tacacs_decode_args</title>
<!-- Node947 -->
<g id="node1" class="node">
<title>Node947</title>
<polygon fill="#bfbfbf" stroke="#000000" points="0,-19.5 0,-38.5 107,-38.5 107,-19.5 0,-19.5"/>
<text text-anchor="middle" x="53.5" y="-26.5" font-family="Helvetica,sans-Serif" font-size="10.00" fill="#000000">tacacs_decode_args</text>
</g>
<!-- Node948 -->
<g id="node2" class="node">
<title>Node948</title>
<g id="a_node2"><a xlink:href="tacacs_8h.html#a79512fe1c0884e107111ca7375c43424" target="_top" xlink:title="Decode a TACACS+ packet. ">
<polygon fill="none" stroke="#000000" points="143,-19.5 143,-38.5 237,-38.5 237,-19.5 143,-19.5"/>
<text text-anchor="middle" x="190" y="-26.5" font-family="Helvetica,sans-Serif" font-size="10.00" fill="#000000">fr_tacacs_decode</text>
</a>
</g>
</g>
<!-- Node947&#45;&gt;Node948 -->
<g id="edge1" class="edge">
<title>Node947&#45;&gt;Node948</title>
<path fill="none" stroke="#191970" d="M117.1263,-29C125.7715,-29 134.5162,-29 142.8019,-29"/>
<polygon fill="#191970" stroke="#191970" points="117.0567,-25.5001 107.0566,-29 117.0566,-32.5001 117.0567,-25.5001"/>
</g>
<!-- Node949 -->
<g id="node3" class="node">
<title>Node949</title>
<g id="a_node3"><a xlink:href="protocols_2tacacs_2decode_8c.html#a0ad358dc4b815d06b098acdd45b2b6eb" target="_top" xlink:title="fr_tacacs_decode_proto">
<polygon fill="none" stroke="#000000" points="273,-38.5 273,-57.5 394,-57.5 394,-38.5 273,-38.5"/>
<text text-anchor="middle" x="333.5" y="-45.5" font-family="Helvetica,sans-Serif" font-size="10.00" fill="#000000">fr_tacacs_decode_proto</text>
</a>
</g>
</g>
<!-- Node948&#45;&gt;Node949 -->
<g id="edge2" class="edge">
<title>Node948&#45;&gt;Node949</title>
<path fill="none" stroke="#191970" d="M247.4244,-36.6032C255.7917,-37.7111 264.4298,-38.8548 272.8584,-39.9708"/>
<polygon fill="#191970" stroke="#191970" points="247.7579,-33.1169 237.385,-35.274 246.839,-40.0564 247.7579,-33.1169"/>
</g>
<!-- Node950 -->
<g id="node4" class="node">
<title>Node950</title>
<g id="a_node4"><a xlink:href="proto__tacacs_8c.html#a68b809266984e26d9ccb521a15956ef9" target="_top" xlink:title="Decode the packet. ">
<polygon fill="none" stroke="#000000" points="297.5,-.5 297.5,-19.5 369.5,-19.5 369.5,-.5 297.5,-.5"/>
<text text-anchor="middle" x="333.5" y="-7.5" font-family="Helvetica,sans-Serif" font-size="10.00" fill="#000000">mod_decode</text>
</a>
</g>
</g>
<!-- Node948&#45;&gt;Node950 -->
<g id="edge3" class="edge">
<title>Node948&#45;&gt;Node950</title>
<path fill="none" stroke="#191970" d="M247.609,-21.3723C264.3051,-19.1617 282.0648,-16.8102 297.0758,-14.8227"/>
<polygon fill="#191970" stroke="#191970" points="246.839,-17.9436 237.385,-22.726 247.7579,-24.8831 246.839,-17.9436"/>
</g>
</g>
</svg>
