<?xml version="1.0" encoding="UTF-8" standalone="no"?>
<!DOCTYPE svg PUBLIC "-//W3C//DTD SVG 1.1//EN"
 "http://www.w3.org/Graphics/SVG/1.1/DTD/svg11.dtd">
<!-- Generated by graphviz version 2.40.1 (20161225.0304)
 -->
<!-- Title: encode_concat Pages: 1 -->
<svg width="509pt" height="180pt"
 viewBox="0.00 0.00 509.00 180.00" xmlns="http://www.w3.org/2000/svg" xmlns:xlink="http://www.w3.org/1999/xlink">
<g id="graph0" class="graph" transform="scale(1 1) rotate(0) translate(4 176)">
<title>encode_concat</title>
<!-- Node8 -->
<g id="node1" class="node">
<title>Node8</title>
<polygon fill="#bfbfbf" stroke="#000000" points="0,-76.5 0,-95.5 83,-95.5 83,-76.5 0,-76.5"/>
<text text-anchor="middle" x="41.5" y="-83.5" font-family="Helvetica,sans-Serif" font-size="10.00" fill="#000000">encode_concat</text>
</g>
<!-- Node9 -->
<g id="node2" class="node">
<title>Node9</title>
<g id="a_node2"><a xlink:href="cursor_8c.html#a92733b72ea218ecff0bc7808fae613b7" target="_top" xlink:title="Return the item the cursor current points to. ">
<polygon fill="none" stroke="#000000" points="134,-152.5 134,-171.5 224,-171.5 224,-152.5 134,-152.5"/>
<text text-anchor="middle" x="179" y="-159.5" font-family="Helvetica,sans-Serif" font-size="10.00" fill="#000000">fr_cursor_current</text>
</a>
</g>
</g>
<!-- Node8&#45;&gt;Node9 -->
<g id="edge1" class="edge">
<title>Node8&#45;&gt;Node9</title>
<path fill="none" stroke="#191970" d="M52.287,-95.7437C66.6015,-108.2289 93.0949,-129.8277 119,-143 123.2794,-145.176 127.8572,-147.1647 132.505,-148.9664"/>
<polygon fill="#191970" stroke="#191970" points="131.4759,-152.3156 142.0704,-152.4019 133.8421,-145.7276 131.4759,-152.3156"/>
</g>
<!-- Node10 -->
<g id="node3" class="node">
<title>Node10</title>
<g id="a_node3"><a xlink:href="protocols_2radius_2base_8c.html#af9cea5611de33e25c91cdbacd88caef7" target="_top" xlink:title="Return the on&#45;the&#45;wire length of an attribute value. ">
<polygon fill="none" stroke="#000000" points="133,-114.5 133,-133.5 225,-133.5 225,-114.5 133,-114.5"/>
<text text-anchor="middle" x="179" y="-121.5" font-family="Helvetica,sans-Serif" font-size="10.00" fill="#000000">fr_radius_attr_len</text>
</a>
</g>
</g>
<!-- Node8&#45;&gt;Node10 -->
<g id="edge2" class="edge">
<title>Node8&#45;&gt;Node10</title>
<path fill="none" stroke="#191970" d="M76.1971,-95.589C93.8656,-100.4719 115.5485,-106.4643 134.439,-111.685"/>
<polygon fill="#191970" stroke="#191970" points="133.743,-115.1238 144.314,-114.4141 135.6077,-108.3767 133.743,-115.1238"/>
</g>
<!-- Node11 -->
<g id="node4" class="node">
<title>Node11</title>
<g id="a_node4"><a xlink:href="dbuff_8h.html#acd105ff335478c3daf2ecfa994f95e44" target="_top" xlink:title="Adds a new pointer to the beginning of the list of pointers to update. ">
<polygon fill="none" stroke="#000000" points="136.5,-76.5 136.5,-95.5 221.5,-95.5 221.5,-76.5 136.5,-76.5"/>
<text text-anchor="middle" x="179" y="-83.5" font-family="Helvetica,sans-Serif" font-size="10.00" fill="#000000">fr_dbuff_marker</text>
</a>
</g>
</g>
<!-- Node8&#45;&gt;Node11 -->
<g id="edge3" class="edge">
<title>Node8&#45;&gt;Node11</title>
<path fill="none" stroke="#191970" d="M83.1277,-86C96.6118,-86 111.7538,-86 125.9518,-86"/>
<polygon fill="#191970" stroke="#191970" points="126.0862,-89.5001 136.0862,-86 126.0862,-82.5001 126.0862,-89.5001"/>
</g>
<!-- Node12 -->
<g id="node5" class="node">
<title>Node12</title>
<g id="a_node5"><a xlink:href="cursor_8c.html#af6c2090d1e00319075d6def5aa2666fd" target="_top" xlink:title="Advanced the cursor to the next item. ">
<polygon fill="none" stroke="#000000" points="139.5,-38.5 139.5,-57.5 218.5,-57.5 218.5,-38.5 139.5,-38.5"/>
<text text-anchor="middle" x="179" y="-45.5" font-family="Helvetica,sans-Serif" font-size="10.00" fill="#000000">fr_cursor_next</text>
</a>
</g>
</g>
<!-- Node8&#45;&gt;Node12 -->
<g id="edge4" class="edge">
<title>Node8&#45;&gt;Node12</title>
<path fill="none" stroke="#191970" d="M76.1971,-76.411C93.8656,-71.5281 115.5485,-65.5357 134.439,-60.315"/>
<polygon fill="#191970" stroke="#191970" points="135.6077,-63.6233 144.314,-57.5859 133.743,-56.8762 135.6077,-63.6233"/>
</g>
<!-- Node14 -->
<g id="node7" class="node">
<title>Node14</title>
<g id="a_node7"><a xlink:href="proto_8c.html#a1097e0481003e69568734523603d298a" target="_top" xlink:title="Build a complete DA stack from the da back to the root. ">
<polygon fill="none" stroke="#000000" points="119,-.5 119,-19.5 239,-19.5 239,-.5 119,-.5"/>
<text text-anchor="middle" x="179" y="-7.5" font-family="Helvetica,sans-Serif" font-size="10.00" fill="#000000">fr_proto_da_stack_build</text>
</a>
</g>
</g>
<!-- Node8&#45;&gt;Node14 -->
<g id="edge6" class="edge">
<title>Node8&#45;&gt;Node14</title>
<path fill="none" stroke="#191970" d="M52.287,-76.2563C66.6015,-63.7711 93.0949,-42.1723 119,-29 123.2794,-26.824 127.8572,-24.8353 132.505,-23.0336"/>
<polygon fill="#191970" stroke="#191970" points="133.8421,-26.2724 142.0704,-19.5981 131.4759,-19.6844 133.8421,-26.2724"/>
</g>
<!-- Node13 -->
<g id="node6" class="node">
<title>Node13</title>
<g id="a_node6"><a xlink:href="cursor_8c.html#a45a517ea8503ebd7ee4dd286ffb59b90" target="_top" xlink:title="Internal function to get the next item. ">
<polygon fill="none" stroke="#000000" points="295,-38.5 295,-57.5 363,-57.5 363,-38.5 295,-38.5"/>
<text text-anchor="middle" x="329" y="-45.5" font-family="Helvetica,sans-Serif" font-size="10.00" fill="#000000">cursor_next</text>
</a>
</g>
</g>
<!-- Node12&#45;&gt;Node13 -->
<g id="edge5" class="edge">
<title>Node12&#45;&gt;Node13</title>
<path fill="none" stroke="#191970" d="M218.8034,-48C238.9992,-48 263.5984,-48 284.4274,-48"/>
<polygon fill="#191970" stroke="#191970" points="284.6223,-51.5001 294.6222,-48 284.6222,-44.5001 284.6223,-51.5001"/>
</g>
<!-- Node15 -->
<g id="node8" class="node">
<title>Node15</title>
<g id="a_node8"><a xlink:href="dict__ext_8h.html#a44e5494b59c30e9797abde6532fa9788" target="_top" xlink:title="Return the cached da stack (if any) associated with an attribute. ">
<polygon fill="none" stroke="#000000" points="275,-.5 275,-19.5 383,-19.5 383,-.5 275,-.5"/>
<text text-anchor="middle" x="329" y="-7.5" font-family="Helvetica,sans-Serif" font-size="10.00" fill="#000000">fr_dict_attr_da_stack</text>
</a>
</g>
</g>
<!-- Node14&#45;&gt;Node15 -->
<g id="edge7" class="edge">
<title>Node14&#45;&gt;Node15</title>
<path fill="none" stroke="#191970" d="M239.1464,-10C247.4906,-10 256.0904,-10 264.5098,-10"/>
<polygon fill="#191970" stroke="#191970" points="264.661,-13.5001 274.661,-10 264.661,-6.5001 264.661,-13.5001"/>
</g>
<!-- Node16 -->
<g id="node9" class="node">
<title>Node16</title>
<g id="a_node9"><a xlink:href="dict__ext_8h.html#a34a6d539e648b685d19cf23c2d0e7d3f" target="_top" xlink:title="fr_dict_attr_ext">
<polygon fill="none" stroke="#000000" points="419,-.5 419,-19.5 501,-19.5 501,-.5 419,-.5"/>
<text text-anchor="middle" x="460" y="-7.5" font-family="Helvetica,sans-Serif" font-size="10.00" fill="#000000">fr_dict_attr_ext</text>
</a>
</g>
</g>
<!-- Node15&#45;&gt;Node16 -->
<g id="edge8" class="edge">
<title>Node15&#45;&gt;Node16</title>
<path fill="none" stroke="#191970" d="M383.039,-10C391.5571,-10 400.3421,-10 408.7934,-10"/>
<polygon fill="#191970" stroke="#191970" points="408.8962,-13.5001 418.8962,-10 408.8961,-6.5001 408.8962,-13.5001"/>
</g>
</g>
</svg>
