<?xml version="1.0" encoding="UTF-8" standalone="no"?>
<!DOCTYPE svg PUBLIC "-//W3C//DTD SVG 1.1//EN"
 "http://www.w3.org/Graphics/SVG/1.1/DTD/svg11.dtd">
<!-- Generated by graphviz version 2.40.1 (20161225.0304)
 -->
<!-- Title: fr_radius_encode_dbuff Pages: 1 -->
<svg width="694pt" height="180pt"
 viewBox="0.00 0.00 694.00 180.00" xmlns="http://www.w3.org/2000/svg" xmlns:xlink="http://www.w3.org/1999/xlink">
<g id="graph0" class="graph" transform="scale(1 1) rotate(0) translate(4 176)">
<title>fr_radius_encode_dbuff</title>
<!-- Node7007 -->
<g id="node1" class="node">
<title>Node7007</title>
<polygon fill="#bfbfbf" stroke="#000000" points="0,-76.5 0,-95.5 118,-95.5 118,-76.5 0,-76.5"/>
<text text-anchor="middle" x="59" y="-83.5" font-family="Helvetica,sans-Serif" font-size="10.00" fill="#000000">fr_radius_encode_dbuff</text>
</g>
<!-- Node7008 -->
<g id="node2" class="node">
<title>Node7008</title>
<g id="a_node2"><a xlink:href="radius_8h.html#a6bb7136f7594121eac299907792e94d2" target="_top" xlink:title="Encode VPS into a raw RADIUS packet. ">
<polygon fill="none" stroke="#000000" points="154,-76.5 154,-95.5 245,-95.5 245,-76.5 154,-76.5"/>
<text text-anchor="middle" x="199.5" y="-83.5" font-family="Helvetica,sans-Serif" font-size="10.00" fill="#000000">fr_radius_encode</text>
</a>
</g>
</g>
<!-- Node7007&#45;&gt;Node7008 -->
<g id="edge1" class="edge">
<title>Node7007&#45;&gt;Node7008</title>
<path fill="none" stroke="#191970" d="M128.2466,-86C136.8582,-86 145.49,-86 153.6242,-86"/>
<polygon fill="#191970" stroke="#191970" points="128.1775,-82.5001 118.1774,-86 128.1774,-89.5001 128.1775,-82.5001"/>
</g>
<!-- Node7009 -->
<g id="node3" class="node">
<title>Node7009</title>
<g id="a_node3"><a xlink:href="protocols_2radius_2encode_8c.html#adad82559db1236a45bad88956ebca15c" target="_top" xlink:title="fr_radius_encode_proto">
<polygon fill="none" stroke="#000000" points="284.5,-152.5 284.5,-171.5 402.5,-171.5 402.5,-152.5 284.5,-152.5"/>
<text text-anchor="middle" x="343.5" y="-159.5" font-family="Helvetica,sans-Serif" font-size="10.00" fill="#000000">fr_radius_encode_proto</text>
</a>
</g>
</g>
<!-- Node7008&#45;&gt;Node7009 -->
<g id="edge2" class="edge">
<title>Node7008&#45;&gt;Node7009</title>
<path fill="none" stroke="#191970" d="M218.6177,-101.9944C234.4808,-114.5981 258.0733,-131.8482 281,-143 288.5469,-146.6709 296.9531,-149.8072 305.0912,-152.4111"/>
<polygon fill="#191970" stroke="#191970" points="220.6258,-99.1167 210.6535,-95.5386 216.2179,-104.5546 220.6258,-99.1167"/>
</g>
<!-- Node7010 -->
<g id="node4" class="node">
<title>Node7010</title>
<g id="a_node4"><a xlink:href="radius_8h.html#a7da666f5bab7f68d219a771e6b08d36d" target="_top" xlink:title="Encode a packet. ">
<polygon fill="none" stroke="#000000" points="281,-114.5 281,-133.5 406,-133.5 406,-114.5 281,-114.5"/>
<text text-anchor="middle" x="343.5" y="-121.5" font-family="Helvetica,sans-Serif" font-size="10.00" fill="#000000">fr_radius_packet_encode</text>
</a>
</g>
</g>
<!-- Node7008&#45;&gt;Node7010 -->
<g id="edge3" class="edge">
<title>Node7008&#45;&gt;Node7010</title>
<path fill="none" stroke="#191970" d="M245.6722,-98.1843C265.6642,-103.46 288.7187,-109.5438 307.424,-114.4799"/>
<polygon fill="#191970" stroke="#191970" points="246.3994,-94.7565 235.8373,-95.589 244.6132,-101.5248 246.3994,-94.7565"/>
</g>
<!-- Node7110 -->
<g id="node9" class="node">
<title>Node7110</title>
<g id="a_node9"><a xlink:href="proto__radius_8c.html#a73de03e9d89143b1337647cdefb8edaf" target="_top" xlink:title="mod_encode">
<polygon fill="none" stroke="#000000" points="307.5,-76.5 307.5,-95.5 379.5,-95.5 379.5,-76.5 307.5,-76.5"/>
<text text-anchor="middle" x="343.5" y="-83.5" font-family="Helvetica,sans-Serif" font-size="10.00" fill="#000000">mod_encode</text>
</a>
</g>
</g>
<!-- Node7008&#45;&gt;Node7110 -->
<g id="edge8" class="edge">
<title>Node7008&#45;&gt;Node7110</title>
<path fill="none" stroke="#191970" d="M255.1822,-86C272.6935,-86 291.5641,-86 307.3486,-86"/>
<polygon fill="#191970" stroke="#191970" points="255.0625,-82.5001 245.0625,-86 255.0625,-89.5001 255.0625,-82.5001"/>
</g>
<!-- Node8007 -->
<g id="node10" class="node">
<title>Node8007</title>
<g id="a_node10"><a xlink:href="proto__radius__load_8c.html#a2b3c34fc36c617269bcb389dd1bacf1c" target="_top" xlink:title="mod_instantiate">
<polygon fill="none" stroke="#000000" points="300.5,-38.5 300.5,-57.5 386.5,-57.5 386.5,-38.5 300.5,-38.5"/>
<text text-anchor="middle" x="343.5" y="-45.5" font-family="Helvetica,sans-Serif" font-size="10.00" fill="#000000">mod_instantiate</text>
</a>
</g>
</g>
<!-- Node7008&#45;&gt;Node8007 -->
<g id="edge9" class="edge">
<title>Node7008&#45;&gt;Node8007</title>
<path fill="none" stroke="#191970" d="M245.6722,-73.8157C265.6642,-68.54 288.7187,-62.4562 307.424,-57.5201"/>
<polygon fill="#191970" stroke="#191970" points="244.6132,-70.4752 235.8373,-76.411 246.3994,-77.2435 244.6132,-70.4752"/>
</g>
<!-- Node7111 -->
<g id="node11" class="node">
<title>Node7111</title>
<g id="a_node11"><a xlink:href="rlm__radius__udp_8c.html#a2e4884ba4c15f3bb04471f78e01d582e" target="_top" xlink:title="encode">
<polygon fill="none" stroke="#ff0000" points="319.5,-.5 319.5,-19.5 367.5,-19.5 367.5,-.5 319.5,-.5"/>
<text text-anchor="middle" x="343.5" y="-7.5" font-family="Helvetica,sans-Serif" font-size="10.00" fill="#000000">encode</text>
</a>
</g>
</g>
<!-- Node7008&#45;&gt;Node7111 -->
<g id="edge10" class="edge">
<title>Node7008&#45;&gt;Node7111</title>
<path fill="none" stroke="#191970" d="M218.6177,-70.0056C234.4808,-57.4019 258.0733,-40.1518 281,-29 293.1362,-23.0968 307.4946,-18.5762 319.3867,-15.4284"/>
<polygon fill="#191970" stroke="#191970" points="216.2179,-67.4454 210.6535,-76.4614 220.6258,-72.8833 216.2179,-67.4454"/>
</g>
<!-- Node7011 -->
<g id="node5" class="node">
<title>Node7011</title>
<g id="a_node5"><a xlink:href="radsnmp_8c.html#acac187c74c7c8010ac6141caa8285962" target="_top" xlink:title="radsnmp_send_recv">
<polygon fill="none" stroke="#000000" points="447.5,-133.5 447.5,-152.5 551.5,-152.5 551.5,-133.5 447.5,-133.5"/>
<text text-anchor="middle" x="499.5" y="-140.5" font-family="Helvetica,sans-Serif" font-size="10.00" fill="#000000">radsnmp_send_recv</text>
</a>
</g>
</g>
<!-- Node7010&#45;&gt;Node7011 -->
<g id="edge4" class="edge">
<title>Node7010&#45;&gt;Node7011</title>
<path fill="none" stroke="#191970" d="M416.1212,-132.8449C426.692,-134.1324 437.3952,-135.436 447.4492,-136.6605"/>
<polygon fill="#191970" stroke="#191970" points="416.4021,-129.3533 406.0523,-131.6185 415.5558,-136.302 416.4021,-129.3533"/>
</g>
<!-- Node7013 -->
<g id="node7" class="node">
<title>Node7013</title>
<g id="a_node7"><a xlink:href="radius_8h.html#abc1c6df75579594500ffb237b8b33cad" target="_top" xlink:title="Reply to the request. ">
<polygon fill="none" stroke="#000000" points="442,-95.5 442,-114.5 557,-114.5 557,-95.5 442,-95.5"/>
<text text-anchor="middle" x="499.5" y="-102.5" font-family="Helvetica,sans-Serif" font-size="10.00" fill="#000000">fr_radius_packet_send</text>
</a>
</g>
</g>
<!-- Node7010&#45;&gt;Node7013 -->
<g id="edge6" class="edge">
<title>Node7010&#45;&gt;Node7013</title>
<path fill="none" stroke="#191970" d="M416.1575,-115.1507C424.8221,-114.0954 433.5751,-113.0293 441.986,-112.0049"/>
<polygon fill="#191970" stroke="#191970" points="415.5558,-111.698 406.0523,-116.3815 416.4021,-118.6467 415.5558,-111.698"/>
</g>
<!-- Node7012 -->
<g id="node6" class="node">
<title>Node7012</title>
<g id="a_node6"><a xlink:href="radsnmp_8c.html#a3c04138a5bfe5d72780bb7e82a18e627" target="_top" xlink:title="main">
<polygon fill="none" stroke="#000000" points="620.5,-133.5 620.5,-152.5 658.5,-152.5 658.5,-133.5 620.5,-133.5"/>
<text text-anchor="middle" x="639.5" y="-140.5" font-family="Helvetica,sans-Serif" font-size="10.00" fill="#000000">main</text>
</a>
</g>
</g>
<!-- Node7011&#45;&gt;Node7012 -->
<g id="edge5" class="edge">
<title>Node7011&#45;&gt;Node7012</title>
<path fill="none" stroke="#191970" d="M561.8757,-143C582.9673,-143 604.9932,-143 620.1714,-143"/>
<polygon fill="#191970" stroke="#191970" points="561.6309,-139.5001 551.6308,-143 561.6308,-146.5001 561.6309,-139.5001"/>
</g>
<!-- Node7014 -->
<g id="node8" class="node">
<title>Node7014</title>
<g id="a_node8"><a xlink:href="radclient_8c.html#a176efa61331731043767abb77e3db234" target="_top" xlink:title="send_one_packet">
<polygon fill="none" stroke="#ff0000" points="593,-95.5 593,-114.5 686,-114.5 686,-95.5 593,-95.5"/>
<text text-anchor="middle" x="639.5" y="-102.5" font-family="Helvetica,sans-Serif" font-size="10.00" fill="#000000">send_one_packet</text>
</a>
</g>
</g>
<!-- Node7013&#45;&gt;Node7014 -->
<g id="edge7" class="edge">
<title>Node7013&#45;&gt;Node7014</title>
<path fill="none" stroke="#191970" d="M567.3767,-105C576.046,-105 584.7587,-105 592.9823,-105"/>
<polygon fill="#191970" stroke="#191970" points="567.2517,-101.5001 557.2516,-105 567.2516,-108.5001 567.2517,-101.5001"/>
</g>
</g>
</svg>
