<?xml version="1.0" encoding="UTF-8" standalone="no"?>
<!DOCTYPE svg PUBLIC "-//W3C//DTD SVG 1.1//EN"
 "http://www.w3.org/Graphics/SVG/1.1/DTD/svg11.dtd">
<!-- Generated by graphviz version 2.40.1 (20161225.0304)
 -->
<!-- Title: fr_dhcpv6_option_find Pages: 1 -->
<!--zoomable 257 -->
<svg id="main" version="1.1" xmlns="http://www.w3.org/2000/svg" xmlns:xlink="http://www.w3.org/1999/xlink" xml:space="preserve" onload="init(evt)">
<style type="text/css"><![CDATA[
.edge:hover path { stroke: red; }
.edge:hover polygon { stroke: red; fill: red; }
]]></style>
<script type="text/javascript"><![CDATA[
var edges = document.getElementsByTagName('g');
if (edges && edges.length) {
  for (var i=0;i<edges.length;i++) {
    if (edges[i].id.substr(0,4)=='edge') {
      edges[i].setAttribute('class','edge');
    }
  }
}
]]></script>
        <defs>
                <circle id="rim" cx="0" cy="0" r="7"/>
                <circle id="rim2" cx="0" cy="0" r="3.5"/>
                <g id="zoomPlus">
                        <use xlink:href="#rim" fill="#404040">
                                <set attributeName="fill" to="#808080" begin="zoomplus.mouseover" end="zoomplus.mouseout"/>
                        </use>
                        <path d="M-4,0h8M0,-4v8" fill="none" stroke="white" stroke-width="1.5" pointer-events="none"/>
                </g>
                <g id="zoomMin">
                        <use xlink:href="#rim" fill="#404040">
                                <set attributeName="fill" to="#808080" begin="zoomminus.mouseover" end="zoomminus.mouseout"/>
                        </use>
                        <path d="M-4,0h8" fill="none" stroke="white" stroke-width="1.5" pointer-events="none"/>
                </g>
                <g id="dirArrow">
                        <path fill="none" stroke="white" stroke-width="1.5" d="M0,-3.0v7 M-2.5,-0.5L0,-3.0L2.5,-0.5"/>
                </g>
               <g id="resetDef">
                       <use xlink:href="#rim2" fill="#404040">
                               <set attributeName="fill" to="#808080" begin="reset.mouseover" end="reset.mouseout"/>
                       </use>
               </g>
        </defs>

<script type="text/javascript">
var viewWidth = 849;
var viewHeight = 257;
var sectionId = 'dynsection-18';
</script>
<script xlink:href="svgpan.js"/>
<svg id="graph" class="graph">
<g id="viewport">
<title>fr_dhcpv6_option_find</title>
<!-- Node1076 -->
<g id="node1" class="node">
<title>Node1076</title>
<polygon fill="#bfbfbf" stroke="#000000" points="0,-153.2939 0,-172.2939 112,-172.2939 112,-153.2939 0,-153.2939"/>
<text text-anchor="middle" x="56" y="-160.2939" font-family="Helvetica,sans-Serif" font-size="10.00" fill="#000000">fr_dhcpv6_option_find</text>
</g>
<!-- Node1077 -->
<g id="node2" class="node">
<title>Node1077</title>
<g id="a_node2"><a xlink:href="protocols_2dhcpv6_2base_8c.html#adc56c1733e389decc0a514a112257068" target="_top" xlink:title="Verify a reply packet from a server to a client. ">
<polygon fill="none" stroke="#000000" points="166,-191.2939 166,-210.2939 249,-210.2939 249,-191.2939 166,-191.2939"/>
<text text-anchor="middle" x="207.5" y="-198.2939" font-family="Helvetica,sans-Serif" font-size="10.00" fill="#000000">verify_to_client</text>
</a>
</g>
</g>
<!-- Node1076&#45;&gt;Node1077 -->
<g id="edge1" class="edge">
<title>Node1076&#45;&gt;Node1077</title>
<path fill="none" stroke="#191970" d="M104.0016,-174.8339C125.1668,-180.1427 149.6858,-186.2927 169.5451,-191.2739"/>
<polygon fill="#191970" stroke="#191970" points="104.7809,-171.4211 94.2298,-172.3829 103.0779,-178.2107 104.7809,-171.4211"/>
</g>
<!-- Node1079 -->
<g id="node4" class="node">
<title>Node1079</title>
<g id="a_node4"><a xlink:href="protocols_2dhcpv6_2base_8c.html#ae5cb36074ed2e23d01013e9ac94d48b7" target="_top" xlink:title="Verify a packet from a client to a server. ">
<polygon fill="none" stroke="#000000" points="160.5,-229.2939 160.5,-248.2939 254.5,-248.2939 254.5,-229.2939 160.5,-229.2939"/>
<text text-anchor="middle" x="207.5" y="-236.2939" font-family="Helvetica,sans-Serif" font-size="10.00" fill="#000000">verify_from_client</text>
</a>
</g>
</g>
<!-- Node1076&#45;&gt;Node1079 -->
<g id="edge3" class="edge">
<title>Node1076&#45;&gt;Node1079</title>
<path fill="none" stroke="#191970" d="M77.759,-178.4101C95.88,-190.8815 122.7159,-208.1403 148,-219.7939 155.78,-223.3798 164.4244,-226.5618 172.6589,-229.2479"/>
<polygon fill="#191970" stroke="#191970" points="79.333,-175.2401 69.1316,-172.3798 75.3227,-180.9775 79.333,-175.2401"/>
</g>
<!-- Node1080 -->
<g id="node5" class="node">
<title>Node1080</title>
<g id="a_node5"><a xlink:href="protocols_2dhcpv6_2encode_8c.html#a58135b4b5e81ca57a5b84298501a2b3f" target="_top" xlink:title="Encode a Relay&#45;Message. ">
<polygon fill="none" stroke="#000000" points="148,-115.2939 148,-134.2939 267,-134.2939 267,-115.2939 148,-115.2939"/>
<text text-anchor="middle" x="207.5" y="-122.2939" font-family="Helvetica,sans-Serif" font-size="10.00" fill="#000000">encode_relay_message</text>
</a>
</g>
</g>
<!-- Node1076&#45;&gt;Node1080 -->
<g id="edge5" class="edge">
<title>Node1076&#45;&gt;Node1080</title>
<path fill="none" stroke="#191970" d="M104.0016,-150.7539C125.1668,-145.4451 149.6858,-139.2952 169.5451,-134.314"/>
<polygon fill="#191970" stroke="#191970" points="103.0779,-147.3771 94.2298,-153.2049 104.7809,-154.1668 103.0779,-147.3771"/>
</g>
<!-- Node1084 -->
<g id="node9" class="node">
<title>Node1084</title>
<g id="a_node9"><a xlink:href="proto__dhcpv6_8c.html#a73de03e9d89143b1337647cdefb8edaf" target="_top" xlink:title="mod_encode">
<polygon fill="none" stroke="#000000" points="624.5,-153.2939 624.5,-172.2939 696.5,-172.2939 696.5,-153.2939 624.5,-153.2939"/>
<text text-anchor="middle" x="660.5" y="-160.2939" font-family="Helvetica,sans-Serif" font-size="10.00" fill="#000000">mod_encode</text>
</a>
</g>
</g>
<!-- Node1076&#45;&gt;Node1084 -->
<g id="edge18" class="edge">
<title>Node1076&#45;&gt;Node1084</title>
<path fill="none" stroke="#191970" d="M122.0735,-162.7939C249.4665,-162.7939 525.2091,-162.7939 624.2009,-162.7939"/>
<polygon fill="#191970" stroke="#191970" points="122.0565,-159.294 112.0564,-162.7939 122.0564,-166.294 122.0565,-159.294"/>
</g>
<!-- Node1092 -->
<g id="node14" class="node">
<title>Node1092</title>
<g id="a_node14"><a xlink:href="proto__dhcpv6__udp_8c.html#a6a5d79b653e9ddc99e2977cd495b175a" target="_top" xlink:title="mod_track_create">
<polygon fill="none" stroke="#000000" points="160,-77.2939 160,-96.2939 255,-96.2939 255,-77.2939 160,-77.2939"/>
<text text-anchor="middle" x="207.5" y="-84.2939" font-family="Helvetica,sans-Serif" font-size="10.00" fill="#000000">mod_track_create</text>
</a>
</g>
</g>
<!-- Node1076&#45;&gt;Node1092 -->
<g id="edge19" class="edge">
<title>Node1076&#45;&gt;Node1092</title>
<path fill="none" stroke="#191970" d="M77.759,-147.1777C95.88,-134.7063 122.7159,-117.4476 148,-105.7939 155.78,-102.2081 164.4244,-99.026 172.6589,-96.34"/>
<polygon fill="#191970" stroke="#191970" points="75.3227,-144.6103 69.1316,-153.2081 79.333,-150.3477 75.3227,-144.6103"/>
</g>
<!-- Node1078 -->
<g id="node3" class="node">
<title>Node1078</title>
<g id="a_node3"><a xlink:href="dhcpv6_8h.html#adc15bcd639232789e8392e031e1ba3b4" target="_top" xlink:title="Verify the packet under some various circumstances. ">
<polygon fill="none" stroke="#000000" points="322.5,-210.2939 322.5,-229.2939 411.5,-229.2939 411.5,-210.2939 322.5,-210.2939"/>
<text text-anchor="middle" x="367" y="-217.2939" font-family="Helvetica,sans-Serif" font-size="10.00" fill="#000000">fr_dhcpv6_verify</text>
</a>
</g>
</g>
<!-- Node1077&#45;&gt;Node1078 -->
<g id="edge2" class="edge">
<title>Node1077&#45;&gt;Node1078</title>
<path fill="none" stroke="#191970" d="M259.4273,-206.9796C279.7214,-209.3971 302.7637,-212.142 322.3019,-214.4694"/>
<polygon fill="#191970" stroke="#191970" points="259.7506,-203.4935 249.4067,-205.786 258.9225,-210.4443 259.7506,-203.4935"/>
</g>
<!-- Node1079&#45;&gt;Node1078 -->
<g id="edge4" class="edge">
<title>Node1079&#45;&gt;Node1078</title>
<path fill="none" stroke="#191970" d="M264.9346,-231.9522C283.8821,-229.6951 304.6574,-227.2203 322.49,-225.0961"/>
<polygon fill="#191970" stroke="#191970" points="264.4392,-228.4864 254.9234,-233.1447 265.2672,-235.4372 264.4392,-228.4864"/>
</g>
<!-- Node1081 -->
<g id="node6" class="node">
<title>Node1081</title>
<g id="a_node6"><a xlink:href="protocols_2dhcpv6_2encode_8c.html#ad1e3640a48d6dd4222149b4051b48800" target="_top" xlink:title="Encode a DHCPv6 option and any sub&#45;options. ">
<polygon fill="none" stroke="#000000" points="303,-77.2939 303,-96.2939 431,-96.2939 431,-77.2939 303,-77.2939"/>
<text text-anchor="middle" x="367" y="-84.2939" font-family="Helvetica,sans-Serif" font-size="10.00" fill="#000000">fr_dhcpv6_encode_option</text>
</a>
</g>
</g>
<!-- Node1080&#45;&gt;Node1081 -->
<g id="edge6" class="edge">
<title>Node1080&#45;&gt;Node1081</title>
<path fill="none" stroke="#191970" d="M257.734,-112.8259C280.0855,-107.5008 306.0383,-101.3177 327.0408,-96.314"/>
<polygon fill="#191970" stroke="#191970" points="256.6651,-109.4826 247.7486,-115.2049 258.2875,-116.292 256.6651,-109.4826"/>
</g>
<!-- Node1082 -->
<g id="node7" class="node">
<title>Node1082</title>
<g id="a_node7"><a xlink:href="dhcpv6_8h.html#a0043be4d235d53fbfd3f09f9c2dc9cb6" target="_top" xlink:title="Encode a DHCPv6 packet. ">
<polygon fill="none" stroke="#000000" points="467,-115.2939 467,-134.2939 563,-134.2939 563,-115.2939 467,-115.2939"/>
<text text-anchor="middle" x="515" y="-122.2939" font-family="Helvetica,sans-Serif" font-size="10.00" fill="#000000">fr_dhcpv6_encode</text>
</a>
</g>
</g>
<!-- Node1081&#45;&gt;Node1082 -->
<g id="edge7" class="edge">
<title>Node1081&#45;&gt;Node1082</title>
<path fill="none" stroke="#191970" d="M414.1735,-98.906C434.7856,-104.1983 458.6093,-110.3152 477.9219,-115.2739"/>
<polygon fill="#191970" stroke="#191970" points="414.9029,-95.4799 404.3466,-96.3829 413.162,-102.2599 414.9029,-95.4799"/>
</g>
<!-- Node1085 -->
<g id="node10" class="node">
<title>Node1085</title>
<g id="a_node10"><a xlink:href="protocols_2dhcpv6_2encode_8c.html#aa91de6bbe02c21d71bf5252d9838d139" target="_top" xlink:title="encode_value">
<polygon fill="none" stroke="#000000" points="476.5,-77.2939 476.5,-96.2939 553.5,-96.2939 553.5,-77.2939 476.5,-77.2939"/>
<text text-anchor="middle" x="515" y="-84.2939" font-family="Helvetica,sans-Serif" font-size="10.00" fill="#000000">encode_value</text>
</a>
</g>
</g>
<!-- Node1081&#45;&gt;Node1085 -->
<g id="edge11" class="edge">
<title>Node1081&#45;&gt;Node1085</title>
<path fill="none" stroke="#191970" d="M441.261,-86.7939C453.4438,-86.7939 465.6173,-86.7939 476.4604,-86.7939"/>
<polygon fill="#191970" stroke="#191970" points="441.0542,-83.294 431.0542,-86.7939 441.0541,-90.294 441.0542,-83.294"/>
</g>
<!-- Node1082&#45;&gt;Node1080 -->
<g id="edge8" class="edge">
<title>Node1082&#45;&gt;Node1080</title>
<path fill="none" stroke="#191970" d="M456.4717,-124.7939C402.1908,-124.7939 321.792,-124.7939 267.1537,-124.7939"/>
<polygon fill="#191970" stroke="#191970" points="456.6275,-128.294 466.6274,-124.7939 456.6274,-121.294 456.6275,-128.294"/>
</g>
<!-- Node1083 -->
<g id="node8" class="node">
<title>Node1083</title>
<g id="a_node8"><a xlink:href="protocols_2dhcpv6_2encode_8c.html#a2c076865b6c116361c88a30dbe69dfdd" target="_top" xlink:title="fr_dhcpv6_encode_proto">
<polygon fill="none" stroke="#000000" points="599,-115.2939 599,-134.2939 722,-134.2939 722,-115.2939 599,-115.2939"/>
<text text-anchor="middle" x="660.5" y="-122.2939" font-family="Helvetica,sans-Serif" font-size="10.00" fill="#000000">fr_dhcpv6_encode_proto</text>
</a>
</g>
</g>
<!-- Node1082&#45;&gt;Node1083 -->
<g id="edge9" class="edge">
<title>Node1082&#45;&gt;Node1083</title>
<path fill="none" stroke="#191970" d="M573.1503,-124.7939C581.5715,-124.7939 590.2649,-124.7939 598.7537,-124.7939"/>
<polygon fill="#191970" stroke="#191970" points="573.0454,-121.294 563.0454,-124.7939 573.0453,-128.294 573.0454,-121.294"/>
</g>
<!-- Node1082&#45;&gt;Node1084 -->
<g id="edge10" class="edge">
<title>Node1082&#45;&gt;Node1084</title>
<path fill="none" stroke="#191970" d="M561.4145,-136.9159C581.7594,-142.2294 605.2809,-148.3724 624.3,-153.3396"/>
<polygon fill="#191970" stroke="#191970" points="562.2757,-133.5235 551.7158,-134.3829 560.5068,-140.2963 562.2757,-133.5235"/>
</g>
<!-- Node1086 -->
<g id="node11" class="node">
<title>Node1086</title>
<g id="a_node11"><a xlink:href="protocols_2dhcpv6_2encode_8c.html#acdbbda1765f0ce46f4cff908e8ad37d1" target="_top" xlink:title="encode_struct">
<polygon fill="none" stroke="#000000" points="621.5,-77.2939 621.5,-96.2939 699.5,-96.2939 699.5,-77.2939 621.5,-77.2939"/>
<text text-anchor="middle" x="660.5" y="-84.2939" font-family="Helvetica,sans-Serif" font-size="10.00" fill="#000000">encode_struct</text>
</a>
</g>
</g>
<!-- Node1085&#45;&gt;Node1086 -->
<g id="edge12" class="edge">
<title>Node1085&#45;&gt;Node1086</title>
<path fill="none" stroke="#191970" d="M563.757,-80.3814C582.5343,-79.8347 603.713,-79.9523 621.4571,-80.7342"/>
<polygon fill="#191970" stroke="#191970" points="563.4743,-76.8893 553.6093,-80.7535 563.7309,-83.8846 563.4743,-76.8893"/>
</g>
<!-- Node1087 -->
<g id="node12" class="node">
<title>Node1087</title>
<g id="a_node12"><a xlink:href="protocols_2dhcpv6_2encode_8c.html#a7a9dc7a2591e7053e8a4aede633f18b4" target="_top" xlink:title="encode_array">
<polygon fill="none" stroke="#000000" points="623,-39.2939 623,-58.2939 698,-58.2939 698,-39.2939 623,-39.2939"/>
<text text-anchor="middle" x="660.5" y="-46.2939" font-family="Helvetica,sans-Serif" font-size="10.00" fill="#000000">encode_array</text>
</a>
</g>
</g>
<!-- Node1085&#45;&gt;Node1087 -->
<g id="edge14" class="edge">
<title>Node1085&#45;&gt;Node1087</title>
<path fill="none" stroke="#191970" d="M561.6532,-74.6096C581.8534,-69.3339 605.1481,-63.2501 624.0482,-58.314"/>
<polygon fill="#191970" stroke="#191970" points="560.5068,-71.2915 551.7158,-77.2049 562.2757,-78.0643 560.5068,-71.2915"/>
</g>
<!-- Node1088 -->
<g id="node13" class="node">
<title>Node1088</title>
<g id="a_node13"><a xlink:href="protocols_2dhcpv6_2encode_8c.html#a3d7250c8c84799ac391ad0fb8e639124" target="_top" xlink:title="Encode an RFC format TLV. ">
<polygon fill="none" stroke="#ff0000" points="758,-1.2939 758,-20.2939 841,-20.2939 841,-1.2939 758,-1.2939"/>
<text text-anchor="middle" x="799.5" y="-8.2939" font-family="Helvetica,sans-Serif" font-size="10.00" fill="#000000">encode_rfc_hdr</text>
</a>
</g>
</g>
<!-- Node1085&#45;&gt;Node1088 -->
<g id="edge17" class="edge">
<title>Node1085&#45;&gt;Node1088</title>
<path fill="none" stroke="#191970" d="M533.4239,-70.2223C549.4998,-56.8193 574.0938,-38.7541 599,-29.7939 651.4765,-10.9151 716.394,-8.1855 757.879,-8.8102"/>
<polygon fill="#191970" stroke="#191970" points="530.7232,-67.9285 525.4213,-77.1013 535.2863,-73.2368 530.7232,-67.9285"/>
</g>
<!-- Node1086&#45;&gt;Node1085 -->
<g id="edge13" class="edge">
<title>Node1086&#45;&gt;Node1085</title>
<path fill="none" stroke="#191970" d="M611.283,-93.2197C592.4669,-93.7556 571.297,-93.6272 553.6093,-92.8344"/>
<polygon fill="#191970" stroke="#191970" points="611.5895,-96.711 621.4571,-92.8536 611.3377,-89.7156 611.5895,-96.711"/>
</g>
<!-- Node1087&#45;&gt;Node1088 -->
<g id="edge15" class="edge">
<title>Node1087&#45;&gt;Node1088</title>
<path fill="none" stroke="#191970" d="M705.2953,-36.5477C724.4547,-31.3099 746.4938,-25.2848 764.4357,-20.3799"/>
<polygon fill="#191970" stroke="#191970" points="704.2986,-33.1917 695.5756,-39.2049 706.1446,-39.9439 704.2986,-33.1917"/>
</g>
<!-- Node1088&#45;&gt;Node1081 -->
<g id="edge16" class="edge">
<title>Node1088&#45;&gt;Node1081</title>
<path fill="none" stroke="#191970" d="M747.4809,-6.2111C738.9721,-5.6213 730.2448,-5.1126 722,-4.7939 667.3741,-2.6825 652.8798,4.4478 599,-4.7939 517.3168,-18.8046 426.2018,-58.6713 386.8591,-77.1599"/>
<polygon fill="#191970" stroke="#191970" points="747.4746,-9.72 757.7045,-6.9634 747.9883,-2.7389 747.4746,-9.72"/>
</g>
</g>
</svg>
        <g id="navigator" transform="translate(0 0)" fill="#404254">
                <rect fill="#f2f5e9" fill-opacity="0.5" stroke="#606060" stroke-width=".5" x="0" y="0" width="60" height="60"/>
                <use id="zoomplus" xlink:href="#zoomPlus" x="17" y="9" onmousedown="handleZoom(evt,'in')"/>
                <use id="zoomminus" xlink:href="#zoomMin" x="42" y="9" onmousedown="handleZoom(evt,'out')"/>
                <use id="reset" xlink:href="#resetDef" x="30" y="36" onmousedown="handleReset()"/>
                <g id="arrowUp" xlink:href="#dirArrow" transform="translate(30 24)" onmousedown="handlePan(0,-1)">
                  <use xlink:href="#rim" fill="#404040">
                        <set attributeName="fill" to="#808080" begin="arrowUp.mouseover" end="arrowUp.mouseout"/>
                  </use>
                  <path fill="none" stroke="white" stroke-width="1.5" d="M0,-3.0v7 M-2.5,-0.5L0,-3.0L2.5,-0.5"/>
                </g>
                <g id="arrowRight" xlink:href="#dirArrow" transform="rotate(90) translate(36 -43)" onmousedown="handlePan(1,0)">
                  <use xlink:href="#rim" fill="#404040">
                        <set attributeName="fill" to="#808080" begin="arrowRight.mouseover" end="arrowRight.mouseout"/>
                  </use>
                  <path fill="none" stroke="white" stroke-width="1.5" d="M0,-3.0v7 M-2.5,-0.5L0,-3.0L2.5,-0.5"/>
                </g>
                <g id="arrowDown" xlink:href="#dirArrow" transform="rotate(180) translate(-30 -48)" onmousedown="handlePan(0,1)">
                  <use xlink:href="#rim" fill="#404040">
                        <set attributeName="fill" to="#808080" begin="arrowDown.mouseover" end="arrowDown.mouseout"/>
                  </use>
                  <path fill="none" stroke="white" stroke-width="1.5" d="M0,-3.0v7 M-2.5,-0.5L0,-3.0L2.5,-0.5"/>
                </g>
                <g id="arrowLeft" xlink:href="#dirArrow" transform="rotate(270) translate(-36 17)" onmousedown="handlePan(-1,0)">
                  <use xlink:href="#rim" fill="#404040">
                        <set attributeName="fill" to="#808080" begin="arrowLeft.mouseover" end="arrowLeft.mouseout"/>
                  </use>
                  <path fill="none" stroke="white" stroke-width="1.5" d="M0,-3.0v7 M-2.5,-0.5L0,-3.0L2.5,-0.5"/>
                </g>
        </g>
        <svg viewBox="0 0 15 15" width="100%" height="30px" preserveAspectRatio="xMaxYMin meet">
         <g id="arrow_out" transform="scale(0.3 0.3)">
          <a xlink:href="protocols_2dhcpv6_2base_8c_a0f74077c2972d9c3ab4296f14c307321_icgraph_org.svg" target="_base">
           <rect id="button" ry="5" rx="5" y="6" x="6" height="38" width="38"
                fill="#f2f5e9" fill-opacity="0.5" stroke="#606060" stroke-width="1.0"/>
           <path id="arrow"
             d="M 11.500037,31.436501 C 11.940474,20.09759 22.043105,11.32322 32.158766,21.979434 L 37.068811,17.246167 C 37.068811,17.246167 37.088388,32 37.088388,32 L 22.160133,31.978069 C 22.160133,31.978069 26.997745,27.140456 26.997745,27.140456 C 18.528582,18.264221 13.291696,25.230495 11.500037,31.436501 z"
             style="fill:#404040;"/>
          </a>
         </g>
        </svg>
</svg>
