<?xml version="1.0" encoding="UTF-8" standalone="no"?>
<!DOCTYPE svg PUBLIC "-//W3C//DTD SVG 1.1//EN"
 "http://www.w3.org/Graphics/SVG/1.1/DTD/svg11.dtd">
<!-- Generated by graphviz version 2.40.1 (20161225.0304)
 -->
<!-- Title: bfd_pthread_create Pages: 1 -->
<svg width="491pt" height="66pt"
 viewBox="0.00 0.00 491.00 66.00" xmlns="http://www.w3.org/2000/svg" xmlns:xlink="http://www.w3.org/1999/xlink">
<g id="graph0" class="graph" transform="scale(1 1) rotate(0) translate(4 62)">
<title>bfd_pthread_create</title>
<!-- Node5332 -->
<g id="node1" class="node">
<title>Node5332</title>
<polygon fill="#bfbfbf" stroke="#000000" points="0,-19.5 0,-38.5 100,-38.5 100,-19.5 0,-19.5"/>
<text text-anchor="middle" x="50" y="-26.5" font-family="Helvetica,sans-Serif" font-size="10.00" fill="#000000">bfd_pthread_create</text>
</g>
<!-- Node5333 -->
<g id="node2" class="node">
<title>Node5333</title>
<g id="a_node2"><a xlink:href="proto__bfd_8c.html#aba876ceaf4687276a8965d2b2ab5fd43" target="_top" xlink:title="bfd_new_session">
<polygon fill="none" stroke="#000000" points="136,-38.5 136,-57.5 228,-57.5 228,-38.5 136,-38.5"/>
<text text-anchor="middle" x="182" y="-45.5" font-family="Helvetica,sans-Serif" font-size="10.00" fill="#000000">bfd_new_session</text>
</a>
</g>
</g>
<!-- Node5332&#45;&gt;Node5333 -->
<g id="edge1" class="edge">
<title>Node5332&#45;&gt;Node5333</title>
<path fill="none" stroke="#191970" d="M110.2458,-37.6717C118.8158,-38.9053 127.5163,-40.1577 135.7633,-41.3447"/>
<polygon fill="#191970" stroke="#191970" points="110.6768,-34.1978 100.2801,-36.2373 109.6794,-41.1264 110.6768,-34.1978"/>
</g>
<!-- Node5336 -->
<g id="node5" class="node">
<title>Node5336</title>
<g id="a_node5"><a xlink:href="proto__bfd_8c.html#af6ddffd53074f876bb1ad45a60ed255e" target="_top" xlink:title="bfd_socket_recv">
<polygon fill="none" stroke="#000000" points="137.5,-.5 137.5,-19.5 226.5,-19.5 226.5,-.5 137.5,-.5"/>
<text text-anchor="middle" x="182" y="-7.5" font-family="Helvetica,sans-Serif" font-size="10.00" fill="#000000">bfd_socket_recv</text>
</a>
</g>
</g>
<!-- Node5332&#45;&gt;Node5336 -->
<g id="edge4" class="edge">
<title>Node5332&#45;&gt;Node5336</title>
<path fill="none" stroke="#191970" d="M110.4554,-20.2981C119.554,-18.9884 128.7941,-17.6584 137.4776,-16.4085"/>
<polygon fill="#191970" stroke="#191970" points="109.6794,-16.8736 100.2801,-21.7627 110.6768,-23.8022 109.6794,-16.8736"/>
</g>
<!-- Node5334 -->
<g id="node3" class="node">
<title>Node5334</title>
<g id="a_node3"><a xlink:href="proto__bfd_8c.html#afea3770cdbfe74aa93668305900831fa" target="_top" xlink:title="bfd_init_sessions">
<polygon fill="none" stroke="#000000" points="264,-38.5 264,-57.5 356,-57.5 356,-38.5 264,-38.5"/>
<text text-anchor="middle" x="310" y="-45.5" font-family="Helvetica,sans-Serif" font-size="10.00" fill="#000000">bfd_init_sessions</text>
</a>
</g>
</g>
<!-- Node5333&#45;&gt;Node5334 -->
<g id="edge2" class="edge">
<title>Node5333&#45;&gt;Node5334</title>
<path fill="none" stroke="#191970" d="M238.4423,-48C246.937,-48 255.6118,-48 263.8569,-48"/>
<polygon fill="#191970" stroke="#191970" points="238.211,-44.5001 228.2109,-48 238.2109,-51.5001 238.211,-44.5001"/>
</g>
<!-- Node5335 -->
<g id="node4" class="node">
<title>Node5335</title>
<g id="a_node4"><a xlink:href="proto__bfd_8c.html#ae8fb5e4edcd940664ccbc3ddd0f422d4" target="_top" xlink:title="bfd_socket_open">
<polygon fill="none" stroke="#000000" points="392,-38.5 392,-57.5 483,-57.5 483,-38.5 392,-38.5"/>
<text text-anchor="middle" x="437.5" y="-45.5" font-family="Helvetica,sans-Serif" font-size="10.00" fill="#000000">bfd_socket_open</text>
</a>
</g>
</g>
<!-- Node5334&#45;&gt;Node5335 -->
<g id="edge3" class="edge">
<title>Node5334&#45;&gt;Node5335</title>
<path fill="none" stroke="#191970" d="M366.0669,-48C374.7247,-48 383.5744,-48 391.9646,-48"/>
<polygon fill="#191970" stroke="#191970" points="366.0305,-44.5001 356.0304,-48 366.0304,-51.5001 366.0305,-44.5001"/>
</g>
</g>
</svg>
