<?xml version="1.0" encoding="UTF-8" standalone="no"?>
<!DOCTYPE svg PUBLIC "-//W3C//DTD SVG 1.1//EN"
 "http://www.w3.org/Graphics/SVG/1.1/DTD/svg11.dtd">
<!-- Generated by graphviz version 2.40.1 (20161225.0304)
 -->
<!-- Title: fr_radius_decode_tunnel_password Pages: 1 -->
<!--zoomable 522 -->
<svg id="main" version="1.1" xmlns="http://www.w3.org/2000/svg" xmlns:xlink="http://www.w3.org/1999/xlink" xml:space="preserve" onload="init(evt)">
<style type="text/css"><![CDATA[
.edge:hover path { stroke: red; }
.edge:hover polygon { stroke: red; fill: red; }
]]></style>
<script type="text/javascript"><![CDATA[
var edges = document.getElementsByTagName('g');
if (edges && edges.length) {
  for (var i=0;i<edges.length;i++) {
    if (edges[i].id.substr(0,4)=='edge') {
      edges[i].setAttribute('class','edge');
    }
  }
}
]]></script>
        <defs>
                <circle id="rim" cx="0" cy="0" r="7"/>
                <circle id="rim2" cx="0" cy="0" r="3.5"/>
                <g id="zoomPlus">
                        <use xlink:href="#rim" fill="#404040">
                                <set attributeName="fill" to="#808080" begin="zoomplus.mouseover" end="zoomplus.mouseout"/>
                        </use>
                        <path d="M-4,0h8M0,-4v8" fill="none" stroke="white" stroke-width="1.5" pointer-events="none"/>
                </g>
                <g id="zoomMin">
                        <use xlink:href="#rim" fill="#404040">
                                <set attributeName="fill" to="#808080" begin="zoomminus.mouseover" end="zoomminus.mouseout"/>
                        </use>
                        <path d="M-4,0h8" fill="none" stroke="white" stroke-width="1.5" pointer-events="none"/>
                </g>
                <g id="dirArrow">
                        <path fill="none" stroke="white" stroke-width="1.5" d="M0,-3.0v7 M-2.5,-0.5L0,-3.0L2.5,-0.5"/>
                </g>
               <g id="resetDef">
                       <use xlink:href="#rim2" fill="#404040">
                               <set attributeName="fill" to="#808080" begin="reset.mouseover" end="reset.mouseout"/>
                       </use>
               </g>
        </defs>

<script type="text/javascript">
var viewWidth = 802;
var viewHeight = 522;
var sectionId = 'dynsection-20';
</script>
<script xlink:href="svgpan.js"/>
<svg id="graph" class="graph">
<g id="viewport">
<title>fr_radius_decode_tunnel_password</title>
<!-- Node14455 -->
<g id="node1" class="node">
<title>Node14455</title>
<polygon fill="#bfbfbf" stroke="#000000" points="0,-356 0,-386 122,-386 122,-356 0,-356"/>
<text text-anchor="start" x="8" y="-374" font-family="Helvetica,sans-Serif" font-size="10.00" fill="#000000">fr_radius_decode_tunnel</text>
<text text-anchor="middle" x="61" y="-363" font-family="Helvetica,sans-Serif" font-size="10.00" fill="#000000">_password</text>
</g>
<!-- Node14456 -->
<g id="node2" class="node">
<title>Node14456</title>
<g id="a_node2"><a xlink:href="strerror_8c.html#ae701765650b8aea79a3037bc4921d7f8" target="_top" xlink:title="Log to thread local error buffer. ">
<polygon fill="none" stroke="#000000" points="158,-361.5 158,-380.5 244,-380.5 244,-361.5 158,-361.5"/>
<text text-anchor="middle" x="201" y="-368.5" font-family="Helvetica,sans-Serif" font-size="10.00" fill="#000000">fr_strerror_printf</text>
</a>
</g>
</g>
<!-- Node14455&#45;&gt;Node14456 -->
<g id="edge1" class="edge">
<title>Node14455&#45;&gt;Node14456</title>
<path fill="none" stroke="#191970" d="M122.406,-371C130.7746,-371 139.3096,-371 147.5228,-371"/>
<polygon fill="#191970" stroke="#191970" points="147.7172,-374.5001 157.7172,-371 147.7171,-367.5001 147.7172,-374.5001"/>
</g>
<!-- Node14457 -->
<g id="node3" class="node">
<title>Node14457</title>
<g id="a_node3"><a xlink:href="acutest_8h.html#aecf9a9be8105efb1454cd8c1ef6cb1c5" target="_top" xlink:title="va_start">
<polygon fill="none" stroke="#000000" points="717.5,-494.5 717.5,-513.5 769.5,-513.5 769.5,-494.5 717.5,-494.5"/>
<text text-anchor="middle" x="743.5" y="-501.5" font-family="Helvetica,sans-Serif" font-size="10.00" fill="#000000">va_start</text>
</a>
</g>
</g>
<!-- Node14456&#45;&gt;Node14457 -->
<g id="edge2" class="edge">
<title>Node14456&#45;&gt;Node14457</title>
<path fill="none" stroke="#191970" d="M207.9751,-380.6287C220.5713,-397.3763 248.7278,-431.9902 280,-452 330.441,-484.2751 348.4121,-484.613 407,-497 514.2745,-519.6807 645.0785,-512.873 707.2832,-507.6204"/>
<polygon fill="#191970" stroke="#191970" points="707.7187,-511.0957 717.3724,-506.7305 707.1036,-504.1228 707.7187,-511.0957"/>
</g>
<!-- Node14458 -->
<g id="node4" class="node">
<title>Node14458</title>
<g id="a_node4"><a xlink:href="strerror_8c.html#a193b1e0b3712e3bbee338812c06af482" target="_top" xlink:title="fr_strerror_vprintf">
<polygon fill="none" stroke="#000000" points="280,-361.5 280,-380.5 371,-380.5 371,-361.5 280,-361.5"/>
<text text-anchor="middle" x="325.5" y="-368.5" font-family="Helvetica,sans-Serif" font-size="10.00" fill="#000000">fr_strerror_vprintf</text>
</a>
</g>
</g>
<!-- Node14456&#45;&gt;Node14458 -->
<g id="edge3" class="edge">
<title>Node14456&#45;&gt;Node14458</title>
<path fill="none" stroke="#191970" d="M244.1947,-371C252.3832,-371 261.0586,-371 269.5745,-371"/>
<polygon fill="#191970" stroke="#191970" points="269.8395,-374.5001 279.8395,-371 269.8394,-367.5001 269.8395,-374.5001"/>
</g>
<!-- Node14461 -->
<g id="node7" class="node">
<title>Node14461</title>
<g id="a_node7"><a xlink:href="acutest_8h.html#a36af1f79dd6adf0809c21e76535034d5" target="_top" xlink:title="va_end">
<polygon fill="none" stroke="#000000" points="719.5,-418.5 719.5,-437.5 767.5,-437.5 767.5,-418.5 719.5,-418.5"/>
<text text-anchor="middle" x="743.5" y="-425.5" font-family="Helvetica,sans-Serif" font-size="10.00" fill="#000000">va_end</text>
</a>
</g>
</g>
<!-- Node14456&#45;&gt;Node14461 -->
<g id="edge28" class="edge">
<title>Node14456&#45;&gt;Node14461</title>
<path fill="none" stroke="#191970" d="M216.2788,-380.7328C249.4831,-401.35 331.3331,-449.3074 407,-471 513.9759,-501.6685 550.4039,-516.9634 657,-485 683.4056,-477.0821 709.2011,-458.2111 725.6505,-444.342"/>
<polygon fill="#191970" stroke="#191970" points="728.1139,-446.8379 733.3543,-437.6298 723.5154,-441.5601 728.1139,-446.8379"/>
</g>
<!-- Node14459 -->
<g id="node5" class="node">
<title>Node14459</title>
<g id="a_node5"><a xlink:href="strerror_8c.html#a42c2cc9f76fb9dac723a1903c181e1c7" target="_top" xlink:title="Initialise thread local storage. ">
<polygon fill="none" stroke="#000000" points="416,-418.5 416,-437.5 493,-437.5 493,-418.5 416,-418.5"/>
<text text-anchor="middle" x="454.5" y="-425.5" font-family="Helvetica,sans-Serif" font-size="10.00" fill="#000000">fr_strerror_init</text>
</a>
</g>
</g>
<!-- Node14458&#45;&gt;Node14459 -->
<g id="edge4" class="edge">
<title>Node14458&#45;&gt;Node14459</title>
<path fill="none" stroke="#191970" d="M347.0917,-380.5405C368.0208,-389.7883 399.9809,-403.9102 423.6007,-414.3468"/>
<polygon fill="#191970" stroke="#191970" points="422.2764,-417.5881 432.8379,-418.4284 425.1056,-411.1853 422.2764,-417.5881"/>
</g>
<!-- Node14460 -->
<g id="node6" class="node">
<title>Node14460</title>
<g id="a_node6"><a xlink:href="strerror_8c.html#a2c8e65d6d4b73fb705cc023f60acb099" target="_top" xlink:title="Print the current error to stderr with a prefix. ">
<polygon fill="none" stroke="#ff0000" points="571,-456.5 571,-475.5 624,-475.5 624,-456.5 571,-456.5"/>
<text text-anchor="middle" x="597.5" y="-463.5" font-family="Helvetica,sans-Serif" font-size="10.00" fill="#000000">fr_perror</text>
</a>
</g>
</g>
<!-- Node14458&#45;&gt;Node14460 -->
<g id="edge11" class="edge">
<title>Node14458&#45;&gt;Node14460</title>
<path fill="none" stroke="#191970" d="M332.2802,-380.528C344.8384,-397.3218 373.5106,-431.8452 407,-447 456.7565,-469.516 521.1227,-470.9554 560.8449,-469.0985"/>
<polygon fill="#191970" stroke="#191970" points="561.0877,-472.5904 570.8754,-468.5344 560.6946,-465.6015 561.0877,-472.5904"/>
</g>
<!-- Node14458&#45;&gt;Node14461 -->
<g id="edge26" class="edge">
<title>Node14458&#45;&gt;Node14461</title>
<path fill="none" stroke="#191970" d="M371.014,-374.7351C435.0921,-380.3299 555.4327,-392.0693 657,-409 674.4173,-411.9034 693.6156,-416.0255 709.4917,-419.6887"/>
<polygon fill="#191970" stroke="#191970" points="708.8576,-423.1349 719.3928,-422.0121 710.4569,-416.32 708.8576,-423.1349"/>
</g>
<!-- Node14467 -->
<g id="node9" class="node">
<title>Node14467</title>
<g id="a_node9"><a xlink:href="strerror_8c.html#a9d878c1ddb1b385cdaf6523fff68529c" target="_top" xlink:title="Reset cursor state. ">
<polygon fill="none" stroke="#000000" points="701,-304.5 701,-323.5 786,-323.5 786,-304.5 701,-304.5"/>
<text text-anchor="middle" x="743.5" y="-311.5" font-family="Helvetica,sans-Serif" font-size="10.00" fill="#000000">fr_strerror_clear</text>
</a>
</g>
</g>
<!-- Node14458&#45;&gt;Node14467 -->
<g id="edge10" class="edge">
<title>Node14458&#45;&gt;Node14467</title>
<path fill="none" stroke="#191970" d="M341.3671,-361.3746C357.3178,-352.2461 382.9268,-339.0533 407,-333 504.765,-308.4165 623.3441,-308.3163 690.4441,-310.8798"/>
<polygon fill="#191970" stroke="#191970" points="690.6228,-314.3902 700.7602,-311.3107 690.915,-307.3963 690.6228,-314.3902"/>
</g>
<!-- Node14468 -->
<g id="node10" class="node">
<title>Node14468</title>
<g id="a_node10"><a xlink:href="print_8c.html#a27ae94b5a4c77de49aa2f387765a4d58" target="_top" xlink:title="Special version of vasprintf which implements custom format specifiers. ">
<polygon fill="none" stroke="#000000" points="422,-171.5 422,-190.5 487,-190.5 487,-171.5 422,-171.5"/>
<text text-anchor="middle" x="454.5" y="-178.5" font-family="Helvetica,sans-Serif" font-size="10.00" fill="#000000">fr_vasprintf</text>
</a>
</g>
</g>
<!-- Node14458&#45;&gt;Node14468 -->
<g id="edge12" class="edge">
<title>Node14458&#45;&gt;Node14468</title>
<path fill="none" stroke="#191970" d="M332.0745,-361.3167C352.5135,-331.2127 415.1786,-238.9153 442.0513,-199.3353"/>
<polygon fill="#191970" stroke="#191970" points="445.0625,-201.131 447.7841,-190.8917 439.2712,-197.199 445.0625,-201.131"/>
</g>
<!-- Node14589 -->
<g id="node18" class="node">
<title>Node14589</title>
<g id="a_node18"><a xlink:href="cursor_8c.html#a5d942382660657c3b4cb6e9cb2b12b2c" target="_top" xlink:title="Insert a single item at the start of the list. ">
<polygon fill="none" stroke="#000000" points="407,-342.5 407,-361.5 502,-361.5 502,-342.5 407,-342.5"/>
<text text-anchor="middle" x="454.5" y="-349.5" font-family="Helvetica,sans-Serif" font-size="10.00" fill="#000000">fr_cursor_prepend</text>
</a>
</g>
</g>
<!-- Node14458&#45;&gt;Node14589 -->
<g id="edge27" class="edge">
<title>Node14458&#45;&gt;Node14589</title>
<path fill="none" stroke="#191970" d="M371.3438,-364.2478C379.4784,-363.0497 388.0463,-361.7878 396.4656,-360.5477"/>
<polygon fill="#191970" stroke="#191970" points="397.2395,-363.9716 406.6227,-359.0517 396.2194,-357.0463 397.2395,-363.9716"/>
</g>
<!-- Node14459&#45;&gt;Node14460 -->
<g id="edge5" class="edge">
<title>Node14459&#45;&gt;Node14460</title>
<path fill="none" stroke="#191970" d="M490.5849,-437.589C512.156,-443.3212 539.4806,-450.5823 561.1062,-456.3289"/>
<polygon fill="#191970" stroke="#191970" points="560.3431,-459.7475 570.9066,-458.9332 562.1409,-452.9823 560.3431,-459.7475"/>
</g>
<!-- Node14466 -->
<g id="node8" class="node">
<title>Node14466</title>
<g id="a_node8"><a xlink:href="strerror_8c.html#afe66becac3be1b0b82b90889d27fcf99" target="_top" xlink:title="_fr_logging_free">
<polygon fill="none" stroke="#000000" points="554.5,-418.5 554.5,-437.5 640.5,-437.5 640.5,-418.5 554.5,-418.5"/>
<text text-anchor="middle" x="597.5" y="-425.5" font-family="Helvetica,sans-Serif" font-size="10.00" fill="#000000">_fr_logging_free</text>
</a>
</g>
</g>
<!-- Node14459&#45;&gt;Node14466 -->
<g id="edge8" class="edge">
<title>Node14459&#45;&gt;Node14466</title>
<path fill="none" stroke="#191970" d="M493.1979,-428C508.884,-428 527.2593,-428 544.1797,-428"/>
<polygon fill="#191970" stroke="#191970" points="544.4901,-431.5001 554.49,-428 544.49,-424.5001 544.4901,-431.5001"/>
</g>
<!-- Node14459&#45;&gt;Node14467 -->
<g id="edge9" class="edge">
<title>Node14459&#45;&gt;Node14467</title>
<path fill="none" stroke="#191970" d="M478.6429,-418.4765C530.0678,-398.1913 650.5271,-350.6744 709.61,-327.3684"/>
<polygon fill="#191970" stroke="#191970" points="711.2045,-330.5019 719.2226,-323.5766 708.6358,-323.9902 711.2045,-330.5019"/>
</g>
<!-- Node14460&#45;&gt;Node14457 -->
<g id="edge6" class="edge">
<title>Node14460&#45;&gt;Node14457</title>
<path fill="none" stroke="#191970" d="M624.2787,-472.9698C647.68,-479.0606 681.8467,-487.9532 707.6111,-494.6591"/>
<polygon fill="#191970" stroke="#191970" points="706.8231,-498.0705 717.3823,-497.2023 708.5864,-491.2962 706.8231,-498.0705"/>
</g>
<!-- Node14460&#45;&gt;Node14461 -->
<g id="edge7" class="edge">
<title>Node14460&#45;&gt;Node14461</title>
<path fill="none" stroke="#191970" d="M624.2787,-459.0302C648.2614,-452.7881 683.551,-443.6032 709.5156,-436.8452"/>
<polygon fill="#191970" stroke="#191970" points="710.5183,-440.201 719.3143,-434.2949 708.7551,-433.4267 710.5183,-440.201"/>
</g>
<!-- Node14468&#45;&gt;Node14456 -->
<g id="edge16" class="edge">
<title>Node14468&#45;&gt;Node14456</title>
<path fill="none" stroke="#191970" d="M441.6064,-190.6638C400.6202,-221.3833 273.0381,-317.007 222.2096,-355.1033"/>
<polygon fill="#191970" stroke="#191970" points="219.8224,-352.5185 213.9196,-361.3167 224.0207,-358.1198 219.8224,-352.5185"/>
</g>
<!-- Node14468&#45;&gt;Node14461 -->
<g id="edge14" class="edge">
<title>Node14468&#45;&gt;Node14461</title>
<path fill="none" stroke="#191970" d="M464.1272,-190.5947C479.2707,-205.4914 509.8389,-234.7797 538,-257 588.2261,-296.6305 608.1257,-296.714 657,-338 684.2776,-361.0424 712.2745,-391.7056 728.7653,-410.6348"/>
<polygon fill="#191970" stroke="#191970" points="726.3092,-413.1462 735.4885,-418.4367 731.6119,-408.5766 726.3092,-413.1462"/>
</g>
<!-- Node14469 -->
<g id="node11" class="node">
<title>Node14469</title>
<g id="a_node11"><a xlink:href="value_8h.html#a878e0abfce7189a1784cdf15bc9fc3a3" target="_top" xlink:title="fr_value_box_aprint">
<polygon fill="none" stroke="#000000" points="693,-114.5 693,-133.5 794,-133.5 794,-114.5 693,-114.5"/>
<text text-anchor="middle" x="743.5" y="-121.5" font-family="Helvetica,sans-Serif" font-size="10.00" fill="#000000">fr_value_box_aprint</text>
</a>
</g>
</g>
<!-- Node14468&#45;&gt;Node14469 -->
<g id="edge13" class="edge">
<title>Node14468&#45;&gt;Node14469</title>
<path fill="none" stroke="#191970" d="M471.1485,-171.3977C487.5721,-162.4213 513.6786,-149.4606 538,-143 585.5653,-130.3651 641.2501,-125.8189 682.6473,-124.3188"/>
<polygon fill="#191970" stroke="#191970" points="682.9648,-127.8107 692.8505,-124 682.7461,-120.8141 682.9648,-127.8107"/>
</g>
<!-- Node14470 -->
<g id="node12" class="node">
<title>Node14470</title>
<g id="a_node12"><a xlink:href="talloc_8c.html#a3536feb85c89aa239851ef0830b72e64" target="_top" xlink:title="Call talloc_strdup, setting the type on the new chunk correctly. ">
<polygon fill="none" stroke="#000000" points="693,-57.5 693,-76.5 794,-76.5 794,-57.5 693,-57.5"/>
<text text-anchor="middle" x="743.5" y="-64.5" font-family="Helvetica,sans-Serif" font-size="10.00" fill="#000000">talloc_typed_strdup</text>
</a>
</g>
</g>
<!-- Node14468&#45;&gt;Node14470 -->
<g id="edge15" class="edge">
<title>Node14468&#45;&gt;Node14470</title>
<path fill="none" stroke="#191970" d="M458.0436,-171.2607C467.1038,-148.0094 493.5829,-89.5238 538,-67 587.6369,-41.8293 653.0853,-47.3342 696.645,-55.4764"/>
<polygon fill="#191970" stroke="#191970" points="696.1894,-58.9543 706.6799,-57.4711 697.5542,-52.0886 696.1894,-58.9543"/>
</g>
<!-- Node14471 -->
<g id="node13" class="node">
<title>Node14471</title>
<g id="a_node13"><a xlink:href="value_8c.html#a3a0550d465b81917f8b0c69a3373163e" target="_top" xlink:title="Convert one type of fr_value_box_t to another. ">
<polygon fill="none" stroke="#ff0000" points="549.5,-.5 549.5,-19.5 645.5,-19.5 645.5,-.5 549.5,-.5"/>
<text text-anchor="middle" x="597.5" y="-7.5" font-family="Helvetica,sans-Serif" font-size="10.00" fill="#000000">fr_value_box_cast</text>
</a>
</g>
</g>
<!-- Node14468&#45;&gt;Node14471 -->
<g id="edge17" class="edge">
<title>Node14468&#45;&gt;Node14471</title>
<path fill="none" stroke="#191970" d="M458.9771,-171.2808C472.6878,-141.8536 514.5856,-54.4867 538,-34 542.511,-30.0531 547.7546,-26.705 553.2235,-23.8784"/>
<polygon fill="#191970" stroke="#191970" points="554.9202,-26.9508 562.5503,-19.6002 552.0017,-20.5882 554.9202,-26.9508"/>
</g>
<!-- Node14585 -->
<g id="node14" class="node">
<title>Node14585</title>
<g id="a_node14"><a xlink:href="strerror_8c.html#a83ee876ee41b1ae672dc4dcda4f02a2e" target="_top" xlink:title="Get the last library error. ">
<polygon fill="none" stroke="#ff0000" points="568,-152.5 568,-171.5 627,-171.5 627,-152.5 568,-152.5"/>
<text text-anchor="middle" x="597.5" y="-159.5" font-family="Helvetica,sans-Serif" font-size="10.00" fill="#000000">fr_strerror</text>
</a>
</g>
</g>
<!-- Node14468&#45;&gt;Node14585 -->
<g id="edge19" class="edge">
<title>Node14468&#45;&gt;Node14585</title>
<path fill="none" stroke="#191970" d="M487.3071,-176.641C508.2353,-173.8603 535.4926,-170.2388 557.6614,-167.2932"/>
<polygon fill="#191970" stroke="#191970" points="558.314,-170.7374 567.7658,-165.9507 557.3919,-163.7984 558.314,-170.7374"/>
</g>
<!-- Node14481 -->
<g id="node15" class="node">
<title>Node14481</title>
<g id="a_node15"><a xlink:href="value_8c.html#ad5da2574fed047b3ae861999d06c38ac" target="_top" xlink:title="Clear/free any existing value and metadata. ">
<polygon fill="none" stroke="#ff0000" points="548.5,-228.5 548.5,-247.5 646.5,-247.5 646.5,-228.5 548.5,-228.5"/>
<text text-anchor="middle" x="597.5" y="-235.5" font-family="Helvetica,sans-Serif" font-size="10.00" fill="#000000">fr_value_box_clear</text>
</a>
</g>
</g>
<!-- Node14468&#45;&gt;Node14481 -->
<g id="edge21" class="edge">
<title>Node14468&#45;&gt;Node14481</title>
<path fill="none" stroke="#191970" d="M473.7936,-190.5665C490.542,-198.6803 515.561,-210.3461 538,-219 543.5741,-221.1497 549.5047,-223.2541 555.3803,-225.2332"/>
<polygon fill="#191970" stroke="#191970" points="554.5511,-228.6445 565.1438,-228.4313 556.7301,-221.9923 554.5511,-228.6445"/>
</g>
<!-- Node14586 -->
<g id="node16" class="node">
<title>Node14586</title>
<g id="a_node16"><a xlink:href="value_8c.html#a1064a346792dc1e5ecf05d04b4c1af55" target="_top" xlink:title="Concatenate the string representations of a list of value boxes together. ">
<polygon fill="none" stroke="#ff0000" points="538,-76.5 538,-95.5 657,-95.5 657,-76.5 538,-76.5"/>
<text text-anchor="middle" x="597.5" y="-83.5" font-family="Helvetica,sans-Serif" font-size="10.00" fill="#000000">fr_value_box_list_aprint</text>
</a>
</g>
</g>
<!-- Node14468&#45;&gt;Node14586 -->
<g id="edge22" class="edge">
<title>Node14468&#45;&gt;Node14586</title>
<path fill="none" stroke="#191970" d="M463.9695,-171.1255C478.6653,-156.2488 508.3678,-127.9253 538,-110 544.4867,-106.076 551.73,-102.5421 558.869,-99.4682"/>
<polygon fill="#191970" stroke="#191970" points="560.514,-102.5777 568.4587,-95.5683 557.8769,-96.0934 560.514,-102.5777"/>
</g>
<!-- Node14588 -->
<g id="node17" class="node">
<title>Node14588</title>
<g id="a_node17"><a xlink:href="util_2pair_8h.html#acfe6934363fefdc67e14fc08a205952b" target="_top" xlink:title="fr_pair_aprint">
<polygon fill="none" stroke="#000000" points="561,-190.5 561,-209.5 634,-209.5 634,-190.5 561,-190.5"/>
<text text-anchor="middle" x="597.5" y="-197.5" font-family="Helvetica,sans-Serif" font-size="10.00" fill="#000000">fr_pair_aprint</text>
</a>
</g>
</g>
<!-- Node14468&#45;&gt;Node14588 -->
<g id="edge25" class="edge">
<title>Node14468&#45;&gt;Node14588</title>
<path fill="none" stroke="#191970" d="M487.3071,-185.359C506.0708,-187.8521 529.922,-191.0211 550.6322,-193.7728"/>
<polygon fill="#191970" stroke="#191970" points="550.4466,-197.2788 560.8205,-195.1265 551.3686,-190.3398 550.4466,-197.2788"/>
</g>
<!-- Node14471&#45;&gt;Node14456 -->
<g id="edge18" class="edge">
<title>Node14471&#45;&gt;Node14456</title>
<path fill="none" stroke="#191970" d="M579.7718,-19.6193C528.3087,-48.2075 376.4423,-137.3399 280,-244 249.0975,-278.1765 223.0792,-325.9917 210.0214,-352.1182"/>
<polygon fill="#191970" stroke="#191970" points="206.7827,-350.7735 205.5254,-361.2935 213.0686,-353.8537 206.7827,-350.7735"/>
</g>
<!-- Node14585&#45;&gt;Node14467 -->
<g id="edge20" class="edge">
<title>Node14585&#45;&gt;Node14467</title>
<path fill="none" stroke="#191970" d="M627.2511,-167.2411C637.4131,-170.0857 648.3781,-174.4235 657,-181 696.9853,-211.4996 723.934,-266.1451 736.1029,-294.9813"/>
<polygon fill="#191970" stroke="#191970" points="732.9024,-296.4024 739.9143,-304.345 739.3859,-293.7633 732.9024,-296.4024"/>
</g>
<!-- Node14586&#45;&gt;Node14469 -->
<g id="edge23" class="edge">
<title>Node14586&#45;&gt;Node14469</title>
<path fill="none" stroke="#191970" d="M634.342,-95.589C653.3479,-100.5358 676.7286,-106.6211 696.9692,-111.8892"/>
<polygon fill="#191970" stroke="#191970" points="696.3638,-115.3482 706.923,-114.4799 698.127,-108.5739 696.3638,-115.3482"/>
</g>
<!-- Node14586&#45;&gt;Node14470 -->
<g id="edge24" class="edge">
<title>Node14586&#45;&gt;Node14470</title>
<path fill="none" stroke="#191970" d="M657.305,-78.2172C665.703,-77.1243 674.3419,-76 682.7571,-74.9049"/>
<polygon fill="#191970" stroke="#191970" points="683.4149,-78.3489 692.8796,-73.5876 682.5115,-71.4074 683.4149,-78.3489"/>
</g>
</g>
</svg>
        <g id="navigator" transform="translate(0 0)" fill="#404254">
                <rect fill="#f2f5e9" fill-opacity="0.5" stroke="#606060" stroke-width=".5" x="0" y="0" width="60" height="60"/>
                <use id="zoomplus" xlink:href="#zoomPlus" x="17" y="9" onmousedown="handleZoom(evt,'in')"/>
                <use id="zoomminus" xlink:href="#zoomMin" x="42" y="9" onmousedown="handleZoom(evt,'out')"/>
                <use id="reset" xlink:href="#resetDef" x="30" y="36" onmousedown="handleReset()"/>
                <g id="arrowUp" xlink:href="#dirArrow" transform="translate(30 24)" onmousedown="handlePan(0,-1)">
                  <use xlink:href="#rim" fill="#404040">
                        <set attributeName="fill" to="#808080" begin="arrowUp.mouseover" end="arrowUp.mouseout"/>
                  </use>
                  <path fill="none" stroke="white" stroke-width="1.5" d="M0,-3.0v7 M-2.5,-0.5L0,-3.0L2.5,-0.5"/>
                </g>
                <g id="arrowRight" xlink:href="#dirArrow" transform="rotate(90) translate(36 -43)" onmousedown="handlePan(1,0)">
                  <use xlink:href="#rim" fill="#404040">
                        <set attributeName="fill" to="#808080" begin="arrowRight.mouseover" end="arrowRight.mouseout"/>
                  </use>
                  <path fill="none" stroke="white" stroke-width="1.5" d="M0,-3.0v7 M-2.5,-0.5L0,-3.0L2.5,-0.5"/>
                </g>
                <g id="arrowDown" xlink:href="#dirArrow" transform="rotate(180) translate(-30 -48)" onmousedown="handlePan(0,1)">
                  <use xlink:href="#rim" fill="#404040">
                        <set attributeName="fill" to="#808080" begin="arrowDown.mouseover" end="arrowDown.mouseout"/>
                  </use>
                  <path fill="none" stroke="white" stroke-width="1.5" d="M0,-3.0v7 M-2.5,-0.5L0,-3.0L2.5,-0.5"/>
                </g>
                <g id="arrowLeft" xlink:href="#dirArrow" transform="rotate(270) translate(-36 17)" onmousedown="handlePan(-1,0)">
                  <use xlink:href="#rim" fill="#404040">
                        <set attributeName="fill" to="#808080" begin="arrowLeft.mouseover" end="arrowLeft.mouseout"/>
                  </use>
                  <path fill="none" stroke="white" stroke-width="1.5" d="M0,-3.0v7 M-2.5,-0.5L0,-3.0L2.5,-0.5"/>
                </g>
        </g>
        <svg viewBox="0 0 15 15" width="100%" height="30px" preserveAspectRatio="xMaxYMin meet">
         <g id="arrow_out" transform="scale(0.3 0.3)">
          <a xlink:href="radius_8h_a09de74f914e724a5245df66c08d3da41_cgraph_org.svg" target="_base">
           <rect id="button" ry="5" rx="5" y="6" x="6" height="38" width="38"
                fill="#f2f5e9" fill-opacity="0.5" stroke="#606060" stroke-width="1.0"/>
           <path id="arrow"
             d="M 11.500037,31.436501 C 11.940474,20.09759 22.043105,11.32322 32.158766,21.979434 L 37.068811,17.246167 C 37.068811,17.246167 37.088388,32 37.088388,32 L 22.160133,31.978069 C 22.160133,31.978069 26.997745,27.140456 26.997745,27.140456 C 18.528582,18.264221 13.291696,25.230495 11.500037,31.436501 z"
             style="fill:#404040;"/>
          </a>
         </g>
        </svg>
</svg>
