<?xml version="1.0" encoding="UTF-8" standalone="no"?>
<!DOCTYPE svg PUBLIC "-//W3C//DTD SVG 1.1//EN"
 "http://www.w3.org/Graphics/SVG/1.1/DTD/svg11.dtd">
<!-- Generated by graphviz version 2.40.1 (20161225.0304)
 -->
<!-- Title: talloc_config_set Pages: 1 -->
<!--zoomable 522 -->
<svg id="main" version="1.1" xmlns="http://www.w3.org/2000/svg" xmlns:xlink="http://www.w3.org/1999/xlink" xml:space="preserve" onload="init(evt)">
<style type="text/css"><![CDATA[
.edge:hover path { stroke: red; }
.edge:hover polygon { stroke: red; fill: red; }
]]></style>
<script type="text/javascript"><![CDATA[
var edges = document.getElementsByTagName('g');
if (edges && edges.length) {
  for (var i=0;i<edges.length;i++) {
    if (edges[i].id.substr(0,4)=='edge') {
      edges[i].setAttribute('class','edge');
    }
  }
}
]]></script>
        <defs>
                <circle id="rim" cx="0" cy="0" r="7"/>
                <circle id="rim2" cx="0" cy="0" r="3.5"/>
                <g id="zoomPlus">
                        <use xlink:href="#rim" fill="#404040">
                                <set attributeName="fill" to="#808080" begin="zoomplus.mouseover" end="zoomplus.mouseout"/>
                        </use>
                        <path d="M-4,0h8M0,-4v8" fill="none" stroke="white" stroke-width="1.5" pointer-events="none"/>
                </g>
                <g id="zoomMin">
                        <use xlink:href="#rim" fill="#404040">
                                <set attributeName="fill" to="#808080" begin="zoomminus.mouseover" end="zoomminus.mouseout"/>
                        </use>
                        <path d="M-4,0h8" fill="none" stroke="white" stroke-width="1.5" pointer-events="none"/>
                </g>
                <g id="dirArrow">
                        <path fill="none" stroke="white" stroke-width="1.5" d="M0,-3.0v7 M-2.5,-0.5L0,-3.0L2.5,-0.5"/>
                </g>
               <g id="resetDef">
                       <use xlink:href="#rim2" fill="#404040">
                               <set attributeName="fill" to="#808080" begin="reset.mouseover" end="reset.mouseout"/>
                       </use>
               </g>
        </defs>

<script type="text/javascript">
var viewWidth = 770;
var viewHeight = 522;
var sectionId = 'dynsection-5';
</script>
<script xlink:href="svgpan.js"/>
<svg id="graph" class="graph">
<g id="viewport">
<title>talloc_config_set</title>
<!-- Node1572 -->
<g id="node1" class="node">
<title>Node1572</title>
<polygon fill="#bfbfbf" stroke="#000000" points="0,-361.5 0,-380.5 90,-380.5 90,-361.5 0,-361.5"/>
<text text-anchor="middle" x="45" y="-368.5" font-family="Helvetica,sans-Serif" font-size="10.00" fill="#000000">talloc_config_set</text>
</g>
<!-- Node1573 -->
<g id="node2" class="node">
<title>Node1573</title>
<g id="a_node2"><a xlink:href="strerror_8c.html#ae701765650b8aea79a3037bc4921d7f8" target="_top" xlink:title="Log to thread local error buffer. ">
<polygon fill="none" stroke="#000000" points="126,-361.5 126,-380.5 212,-380.5 212,-361.5 126,-361.5"/>
<text text-anchor="middle" x="169" y="-368.5" font-family="Helvetica,sans-Serif" font-size="10.00" fill="#000000">fr_strerror_printf</text>
</a>
</g>
</g>
<!-- Node1572&#45;&gt;Node1573 -->
<g id="edge1" class="edge">
<title>Node1572&#45;&gt;Node1573</title>
<path fill="none" stroke="#191970" d="M90.1176,-371C98.3884,-371 107.093,-371 115.579,-371"/>
<polygon fill="#191970" stroke="#191970" points="115.7777,-374.5001 125.7777,-371 115.7777,-367.5001 115.7777,-374.5001"/>
</g>
<!-- Node1574 -->
<g id="node3" class="node">
<title>Node1574</title>
<g id="a_node3"><a xlink:href="acutest_8h.html#aecf9a9be8105efb1454cd8c1ef6cb1c5" target="_top" xlink:title="va_start">
<polygon fill="none" stroke="#000000" points="685.5,-494.5 685.5,-513.5 737.5,-513.5 737.5,-494.5 685.5,-494.5"/>
<text text-anchor="middle" x="711.5" y="-501.5" font-family="Helvetica,sans-Serif" font-size="10.00" fill="#000000">va_start</text>
</a>
</g>
</g>
<!-- Node1573&#45;&gt;Node1574 -->
<g id="edge2" class="edge">
<title>Node1573&#45;&gt;Node1574</title>
<path fill="none" stroke="#191970" d="M175.9751,-380.6287C188.5713,-397.3763 216.7278,-431.9902 248,-452 298.441,-484.2751 316.4121,-484.613 375,-497 482.2745,-519.6807 613.0785,-512.873 675.2832,-507.6204"/>
<polygon fill="#191970" stroke="#191970" points="675.7187,-511.0957 685.3724,-506.7305 675.1036,-504.1228 675.7187,-511.0957"/>
</g>
<!-- Node1575 -->
<g id="node4" class="node">
<title>Node1575</title>
<g id="a_node4"><a xlink:href="strerror_8c.html#a193b1e0b3712e3bbee338812c06af482" target="_top" xlink:title="fr_strerror_vprintf">
<polygon fill="none" stroke="#000000" points="248,-361.5 248,-380.5 339,-380.5 339,-361.5 248,-361.5"/>
<text text-anchor="middle" x="293.5" y="-368.5" font-family="Helvetica,sans-Serif" font-size="10.00" fill="#000000">fr_strerror_vprintf</text>
</a>
</g>
</g>
<!-- Node1573&#45;&gt;Node1575 -->
<g id="edge3" class="edge">
<title>Node1573&#45;&gt;Node1575</title>
<path fill="none" stroke="#191970" d="M212.1947,-371C220.3832,-371 229.0586,-371 237.5745,-371"/>
<polygon fill="#191970" stroke="#191970" points="237.8395,-374.5001 247.8395,-371 237.8394,-367.5001 237.8395,-374.5001"/>
</g>
<!-- Node1578 -->
<g id="node7" class="node">
<title>Node1578</title>
<g id="a_node7"><a xlink:href="acutest_8h.html#a36af1f79dd6adf0809c21e76535034d5" target="_top" xlink:title="va_end">
<polygon fill="none" stroke="#000000" points="687.5,-418.5 687.5,-437.5 735.5,-437.5 735.5,-418.5 687.5,-418.5"/>
<text text-anchor="middle" x="711.5" y="-425.5" font-family="Helvetica,sans-Serif" font-size="10.00" fill="#000000">va_end</text>
</a>
</g>
</g>
<!-- Node1573&#45;&gt;Node1578 -->
<g id="edge28" class="edge">
<title>Node1573&#45;&gt;Node1578</title>
<path fill="none" stroke="#191970" d="M184.2788,-380.7328C217.4831,-401.35 299.3331,-449.3074 375,-471 481.9759,-501.6685 518.4039,-516.9634 625,-485 651.4056,-477.0821 677.2011,-458.2111 693.6505,-444.342"/>
<polygon fill="#191970" stroke="#191970" points="696.1139,-446.8379 701.3543,-437.6298 691.5154,-441.5601 696.1139,-446.8379"/>
</g>
<!-- Node1576 -->
<g id="node5" class="node">
<title>Node1576</title>
<g id="a_node5"><a xlink:href="strerror_8c.html#a42c2cc9f76fb9dac723a1903c181e1c7" target="_top" xlink:title="Initialise thread local storage. ">
<polygon fill="none" stroke="#000000" points="384,-418.5 384,-437.5 461,-437.5 461,-418.5 384,-418.5"/>
<text text-anchor="middle" x="422.5" y="-425.5" font-family="Helvetica,sans-Serif" font-size="10.00" fill="#000000">fr_strerror_init</text>
</a>
</g>
</g>
<!-- Node1575&#45;&gt;Node1576 -->
<g id="edge4" class="edge">
<title>Node1575&#45;&gt;Node1576</title>
<path fill="none" stroke="#191970" d="M315.0917,-380.5405C336.0208,-389.7883 367.9809,-403.9102 391.6007,-414.3468"/>
<polygon fill="#191970" stroke="#191970" points="390.2764,-417.5881 400.8379,-418.4284 393.1056,-411.1853 390.2764,-417.5881"/>
</g>
<!-- Node1577 -->
<g id="node6" class="node">
<title>Node1577</title>
<g id="a_node6"><a xlink:href="strerror_8c.html#a2c8e65d6d4b73fb705cc023f60acb099" target="_top" xlink:title="Print the current error to stderr with a prefix. ">
<polygon fill="none" stroke="#ff0000" points="539,-456.5 539,-475.5 592,-475.5 592,-456.5 539,-456.5"/>
<text text-anchor="middle" x="565.5" y="-463.5" font-family="Helvetica,sans-Serif" font-size="10.00" fill="#000000">fr_perror</text>
</a>
</g>
</g>
<!-- Node1575&#45;&gt;Node1577 -->
<g id="edge11" class="edge">
<title>Node1575&#45;&gt;Node1577</title>
<path fill="none" stroke="#191970" d="M300.2802,-380.528C312.8384,-397.3218 341.5106,-431.8452 375,-447 424.7565,-469.516 489.1227,-470.9554 528.8449,-469.0985"/>
<polygon fill="#191970" stroke="#191970" points="529.0877,-472.5904 538.8754,-468.5344 528.6946,-465.6015 529.0877,-472.5904"/>
</g>
<!-- Node1575&#45;&gt;Node1578 -->
<g id="edge26" class="edge">
<title>Node1575&#45;&gt;Node1578</title>
<path fill="none" stroke="#191970" d="M339.014,-374.7351C403.0921,-380.3299 523.4327,-392.0693 625,-409 642.4173,-411.9034 661.6156,-416.0255 677.4917,-419.6887"/>
<polygon fill="#191970" stroke="#191970" points="676.8576,-423.1349 687.3928,-422.0121 678.4569,-416.32 676.8576,-423.1349"/>
</g>
<!-- Node1584 -->
<g id="node9" class="node">
<title>Node1584</title>
<g id="a_node9"><a xlink:href="strerror_8c.html#a9d878c1ddb1b385cdaf6523fff68529c" target="_top" xlink:title="Reset cursor state. ">
<polygon fill="none" stroke="#000000" points="669,-304.5 669,-323.5 754,-323.5 754,-304.5 669,-304.5"/>
<text text-anchor="middle" x="711.5" y="-311.5" font-family="Helvetica,sans-Serif" font-size="10.00" fill="#000000">fr_strerror_clear</text>
</a>
</g>
</g>
<!-- Node1575&#45;&gt;Node1584 -->
<g id="edge10" class="edge">
<title>Node1575&#45;&gt;Node1584</title>
<path fill="none" stroke="#191970" d="M309.3671,-361.3746C325.3178,-352.2461 350.9268,-339.0533 375,-333 472.765,-308.4165 591.3441,-308.3163 658.4441,-310.8798"/>
<polygon fill="#191970" stroke="#191970" points="658.6228,-314.3902 668.7602,-311.3107 658.915,-307.3963 658.6228,-314.3902"/>
</g>
<!-- Node1585 -->
<g id="node10" class="node">
<title>Node1585</title>
<g id="a_node10"><a xlink:href="print_8c.html#a27ae94b5a4c77de49aa2f387765a4d58" target="_top" xlink:title="Special version of vasprintf which implements custom format specifiers. ">
<polygon fill="none" stroke="#000000" points="390,-171.5 390,-190.5 455,-190.5 455,-171.5 390,-171.5"/>
<text text-anchor="middle" x="422.5" y="-178.5" font-family="Helvetica,sans-Serif" font-size="10.00" fill="#000000">fr_vasprintf</text>
</a>
</g>
</g>
<!-- Node1575&#45;&gt;Node1585 -->
<g id="edge12" class="edge">
<title>Node1575&#45;&gt;Node1585</title>
<path fill="none" stroke="#191970" d="M300.0745,-361.3167C320.5135,-331.2127 383.1786,-238.9153 410.0513,-199.3353"/>
<polygon fill="#191970" stroke="#191970" points="413.0625,-201.131 415.7841,-190.8917 407.2712,-197.199 413.0625,-201.131"/>
</g>
<!-- Node1737 -->
<g id="node18" class="node">
<title>Node1737</title>
<g id="a_node18"><a xlink:href="cursor_8c.html#a5d942382660657c3b4cb6e9cb2b12b2c" target="_top" xlink:title="Insert a single item at the start of the list. ">
<polygon fill="none" stroke="#000000" points="375,-342.5 375,-361.5 470,-361.5 470,-342.5 375,-342.5"/>
<text text-anchor="middle" x="422.5" y="-349.5" font-family="Helvetica,sans-Serif" font-size="10.00" fill="#000000">fr_cursor_prepend</text>
</a>
</g>
</g>
<!-- Node1575&#45;&gt;Node1737 -->
<g id="edge27" class="edge">
<title>Node1575&#45;&gt;Node1737</title>
<path fill="none" stroke="#191970" d="M339.3438,-364.2478C347.4784,-363.0497 356.0463,-361.7878 364.4656,-360.5477"/>
<polygon fill="#191970" stroke="#191970" points="365.2395,-363.9716 374.6227,-359.0517 364.2194,-357.0463 365.2395,-363.9716"/>
</g>
<!-- Node1576&#45;&gt;Node1577 -->
<g id="edge5" class="edge">
<title>Node1576&#45;&gt;Node1577</title>
<path fill="none" stroke="#191970" d="M458.5849,-437.589C480.156,-443.3212 507.4806,-450.5823 529.1062,-456.3289"/>
<polygon fill="#191970" stroke="#191970" points="528.3431,-459.7475 538.9066,-458.9332 530.1409,-452.9823 528.3431,-459.7475"/>
</g>
<!-- Node1583 -->
<g id="node8" class="node">
<title>Node1583</title>
<g id="a_node8"><a xlink:href="strerror_8c.html#afe66becac3be1b0b82b90889d27fcf99" target="_top" xlink:title="_fr_logging_free">
<polygon fill="none" stroke="#000000" points="522.5,-418.5 522.5,-437.5 608.5,-437.5 608.5,-418.5 522.5,-418.5"/>
<text text-anchor="middle" x="565.5" y="-425.5" font-family="Helvetica,sans-Serif" font-size="10.00" fill="#000000">_fr_logging_free</text>
</a>
</g>
</g>
<!-- Node1576&#45;&gt;Node1583 -->
<g id="edge8" class="edge">
<title>Node1576&#45;&gt;Node1583</title>
<path fill="none" stroke="#191970" d="M461.1979,-428C476.884,-428 495.2593,-428 512.1797,-428"/>
<polygon fill="#191970" stroke="#191970" points="512.4901,-431.5001 522.49,-428 512.49,-424.5001 512.4901,-431.5001"/>
</g>
<!-- Node1576&#45;&gt;Node1584 -->
<g id="edge9" class="edge">
<title>Node1576&#45;&gt;Node1584</title>
<path fill="none" stroke="#191970" d="M446.6429,-418.4765C498.0678,-398.1913 618.5271,-350.6744 677.61,-327.3684"/>
<polygon fill="#191970" stroke="#191970" points="679.2045,-330.5019 687.2226,-323.5766 676.6358,-323.9902 679.2045,-330.5019"/>
</g>
<!-- Node1577&#45;&gt;Node1574 -->
<g id="edge6" class="edge">
<title>Node1577&#45;&gt;Node1574</title>
<path fill="none" stroke="#191970" d="M592.2787,-472.9698C615.68,-479.0606 649.8467,-487.9532 675.6111,-494.6591"/>
<polygon fill="#191970" stroke="#191970" points="674.8231,-498.0705 685.3823,-497.2023 676.5864,-491.2962 674.8231,-498.0705"/>
</g>
<!-- Node1577&#45;&gt;Node1578 -->
<g id="edge7" class="edge">
<title>Node1577&#45;&gt;Node1578</title>
<path fill="none" stroke="#191970" d="M592.2787,-459.0302C616.2614,-452.7881 651.551,-443.6032 677.5156,-436.8452"/>
<polygon fill="#191970" stroke="#191970" points="678.5183,-440.201 687.3143,-434.2949 676.7551,-433.4267 678.5183,-440.201"/>
</g>
<!-- Node1585&#45;&gt;Node1573 -->
<g id="edge16" class="edge">
<title>Node1585&#45;&gt;Node1573</title>
<path fill="none" stroke="#191970" d="M409.6064,-190.6638C368.6202,-221.3833 241.0381,-317.007 190.2096,-355.1033"/>
<polygon fill="#191970" stroke="#191970" points="187.8224,-352.5185 181.9196,-361.3167 192.0207,-358.1198 187.8224,-352.5185"/>
</g>
<!-- Node1585&#45;&gt;Node1578 -->
<g id="edge14" class="edge">
<title>Node1585&#45;&gt;Node1578</title>
<path fill="none" stroke="#191970" d="M432.1272,-190.5947C447.2707,-205.4914 477.8389,-234.7797 506,-257 556.2261,-296.6305 576.1257,-296.714 625,-338 652.2776,-361.0424 680.2745,-391.7056 696.7653,-410.6348"/>
<polygon fill="#191970" stroke="#191970" points="694.3092,-413.1462 703.4885,-418.4367 699.6119,-408.5766 694.3092,-413.1462"/>
</g>
<!-- Node1586 -->
<g id="node11" class="node">
<title>Node1586</title>
<g id="a_node11"><a xlink:href="value_8h.html#a878e0abfce7189a1784cdf15bc9fc3a3" target="_top" xlink:title="fr_value_box_aprint">
<polygon fill="none" stroke="#000000" points="661,-114.5 661,-133.5 762,-133.5 762,-114.5 661,-114.5"/>
<text text-anchor="middle" x="711.5" y="-121.5" font-family="Helvetica,sans-Serif" font-size="10.00" fill="#000000">fr_value_box_aprint</text>
</a>
</g>
</g>
<!-- Node1585&#45;&gt;Node1586 -->
<g id="edge13" class="edge">
<title>Node1585&#45;&gt;Node1586</title>
<path fill="none" stroke="#191970" d="M439.1485,-171.3977C455.5721,-162.4213 481.6786,-149.4606 506,-143 553.5653,-130.3651 609.2501,-125.8189 650.6473,-124.3188"/>
<polygon fill="#191970" stroke="#191970" points="650.9648,-127.8107 660.8505,-124 650.7461,-120.8141 650.9648,-127.8107"/>
</g>
<!-- Node1587 -->
<g id="node12" class="node">
<title>Node1587</title>
<g id="a_node12"><a xlink:href="talloc_8c.html#a3536feb85c89aa239851ef0830b72e64" target="_top" xlink:title="Call talloc_strdup, setting the type on the new chunk correctly. ">
<polygon fill="none" stroke="#000000" points="661,-57.5 661,-76.5 762,-76.5 762,-57.5 661,-57.5"/>
<text text-anchor="middle" x="711.5" y="-64.5" font-family="Helvetica,sans-Serif" font-size="10.00" fill="#000000">talloc_typed_strdup</text>
</a>
</g>
</g>
<!-- Node1585&#45;&gt;Node1587 -->
<g id="edge15" class="edge">
<title>Node1585&#45;&gt;Node1587</title>
<path fill="none" stroke="#191970" d="M426.0436,-171.2607C435.1038,-148.0094 461.5829,-89.5238 506,-67 555.6369,-41.8293 621.0853,-47.3342 664.645,-55.4764"/>
<polygon fill="#191970" stroke="#191970" points="664.1894,-58.9543 674.6799,-57.4711 665.5542,-52.0886 664.1894,-58.9543"/>
</g>
<!-- Node1588 -->
<g id="node13" class="node">
<title>Node1588</title>
<g id="a_node13"><a xlink:href="value_8c.html#a3a0550d465b81917f8b0c69a3373163e" target="_top" xlink:title="Convert one type of fr_value_box_t to another. ">
<polygon fill="none" stroke="#ff0000" points="517.5,-.5 517.5,-19.5 613.5,-19.5 613.5,-.5 517.5,-.5"/>
<text text-anchor="middle" x="565.5" y="-7.5" font-family="Helvetica,sans-Serif" font-size="10.00" fill="#000000">fr_value_box_cast</text>
</a>
</g>
</g>
<!-- Node1585&#45;&gt;Node1588 -->
<g id="edge17" class="edge">
<title>Node1585&#45;&gt;Node1588</title>
<path fill="none" stroke="#191970" d="M426.9771,-171.2808C440.6878,-141.8536 482.5856,-54.4867 506,-34 510.511,-30.0531 515.7546,-26.705 521.2235,-23.8784"/>
<polygon fill="#191970" stroke="#191970" points="522.9202,-26.9508 530.5503,-19.6002 520.0017,-20.5882 522.9202,-26.9508"/>
</g>
<!-- Node1688 -->
<g id="node14" class="node">
<title>Node1688</title>
<g id="a_node14"><a xlink:href="strerror_8c.html#a83ee876ee41b1ae672dc4dcda4f02a2e" target="_top" xlink:title="Get the last library error. ">
<polygon fill="none" stroke="#ff0000" points="536,-152.5 536,-171.5 595,-171.5 595,-152.5 536,-152.5"/>
<text text-anchor="middle" x="565.5" y="-159.5" font-family="Helvetica,sans-Serif" font-size="10.00" fill="#000000">fr_strerror</text>
</a>
</g>
</g>
<!-- Node1585&#45;&gt;Node1688 -->
<g id="edge19" class="edge">
<title>Node1585&#45;&gt;Node1688</title>
<path fill="none" stroke="#191970" d="M455.3071,-176.641C476.2353,-173.8603 503.4926,-170.2388 525.6614,-167.2932"/>
<polygon fill="#191970" stroke="#191970" points="526.314,-170.7374 535.7658,-165.9507 525.3919,-163.7984 526.314,-170.7374"/>
</g>
<!-- Node1598 -->
<g id="node15" class="node">
<title>Node1598</title>
<g id="a_node15"><a xlink:href="value_8c.html#ad5da2574fed047b3ae861999d06c38ac" target="_top" xlink:title="Clear/free any existing value and metadata. ">
<polygon fill="none" stroke="#ff0000" points="516.5,-228.5 516.5,-247.5 614.5,-247.5 614.5,-228.5 516.5,-228.5"/>
<text text-anchor="middle" x="565.5" y="-235.5" font-family="Helvetica,sans-Serif" font-size="10.00" fill="#000000">fr_value_box_clear</text>
</a>
</g>
</g>
<!-- Node1585&#45;&gt;Node1598 -->
<g id="edge21" class="edge">
<title>Node1585&#45;&gt;Node1598</title>
<path fill="none" stroke="#191970" d="M441.7936,-190.5665C458.542,-198.6803 483.561,-210.3461 506,-219 511.5741,-221.1497 517.5047,-223.2541 523.3803,-225.2332"/>
<polygon fill="#191970" stroke="#191970" points="522.5511,-228.6445 533.1438,-228.4313 524.7301,-221.9923 522.5511,-228.6445"/>
</g>
<!-- Node2197 -->
<g id="node16" class="node">
<title>Node2197</title>
<g id="a_node16"><a xlink:href="value_8c.html#a1064a346792dc1e5ecf05d04b4c1af55" target="_top" xlink:title="Concatenate the string representations of a list of value boxes together. ">
<polygon fill="none" stroke="#ff0000" points="506,-76.5 506,-95.5 625,-95.5 625,-76.5 506,-76.5"/>
<text text-anchor="middle" x="565.5" y="-83.5" font-family="Helvetica,sans-Serif" font-size="10.00" fill="#000000">fr_value_box_list_aprint</text>
</a>
</g>
</g>
<!-- Node1585&#45;&gt;Node2197 -->
<g id="edge22" class="edge">
<title>Node1585&#45;&gt;Node2197</title>
<path fill="none" stroke="#191970" d="M431.9695,-171.1255C446.6653,-156.2488 476.3678,-127.9253 506,-110 512.4867,-106.076 519.73,-102.5421 526.869,-99.4682"/>
<polygon fill="#191970" stroke="#191970" points="528.514,-102.5777 536.4587,-95.5683 525.8769,-96.0934 528.514,-102.5777"/>
</g>
<!-- Node2072 -->
<g id="node17" class="node">
<title>Node2072</title>
<g id="a_node17"><a xlink:href="util_2pair_8h.html#acfe6934363fefdc67e14fc08a205952b" target="_top" xlink:title="fr_pair_aprint">
<polygon fill="none" stroke="#000000" points="529,-190.5 529,-209.5 602,-209.5 602,-190.5 529,-190.5"/>
<text text-anchor="middle" x="565.5" y="-197.5" font-family="Helvetica,sans-Serif" font-size="10.00" fill="#000000">fr_pair_aprint</text>
</a>
</g>
</g>
<!-- Node1585&#45;&gt;Node2072 -->
<g id="edge25" class="edge">
<title>Node1585&#45;&gt;Node2072</title>
<path fill="none" stroke="#191970" d="M455.3071,-185.359C474.0708,-187.8521 497.922,-191.0211 518.6322,-193.7728"/>
<polygon fill="#191970" stroke="#191970" points="518.4466,-197.2788 528.8205,-195.1265 519.3686,-190.3398 518.4466,-197.2788"/>
</g>
<!-- Node1588&#45;&gt;Node1573 -->
<g id="edge18" class="edge">
<title>Node1588&#45;&gt;Node1573</title>
<path fill="none" stroke="#191970" d="M547.7718,-19.6193C496.3087,-48.2075 344.4423,-137.3399 248,-244 217.0975,-278.1765 191.0792,-325.9917 178.0214,-352.1182"/>
<polygon fill="#191970" stroke="#191970" points="174.7827,-350.7735 173.5254,-361.2935 181.0686,-353.8537 174.7827,-350.7735"/>
</g>
<!-- Node1688&#45;&gt;Node1584 -->
<g id="edge20" class="edge">
<title>Node1688&#45;&gt;Node1584</title>
<path fill="none" stroke="#191970" d="M595.2511,-167.2411C605.4131,-170.0857 616.3781,-174.4235 625,-181 664.9853,-211.4996 691.934,-266.1451 704.1029,-294.9813"/>
<polygon fill="#191970" stroke="#191970" points="700.9024,-296.4024 707.9143,-304.345 707.3859,-293.7633 700.9024,-296.4024"/>
</g>
<!-- Node2197&#45;&gt;Node1586 -->
<g id="edge23" class="edge">
<title>Node2197&#45;&gt;Node1586</title>
<path fill="none" stroke="#191970" d="M602.342,-95.589C621.3479,-100.5358 644.7286,-106.6211 664.9692,-111.8892"/>
<polygon fill="#191970" stroke="#191970" points="664.3638,-115.3482 674.923,-114.4799 666.127,-108.5739 664.3638,-115.3482"/>
</g>
<!-- Node2197&#45;&gt;Node1587 -->
<g id="edge24" class="edge">
<title>Node2197&#45;&gt;Node1587</title>
<path fill="none" stroke="#191970" d="M625.305,-78.2172C633.703,-77.1243 642.3419,-76 650.7571,-74.9049"/>
<polygon fill="#191970" stroke="#191970" points="651.4149,-78.3489 660.8796,-73.5876 650.5115,-71.4074 651.4149,-78.3489"/>
</g>
</g>
</svg>
        <g id="navigator" transform="translate(0 0)" fill="#404254">
                <rect fill="#f2f5e9" fill-opacity="0.5" stroke="#606060" stroke-width=".5" x="0" y="0" width="60" height="60"/>
                <use id="zoomplus" xlink:href="#zoomPlus" x="17" y="9" onmousedown="handleZoom(evt,'in')"/>
                <use id="zoomminus" xlink:href="#zoomMin" x="42" y="9" onmousedown="handleZoom(evt,'out')"/>
                <use id="reset" xlink:href="#resetDef" x="30" y="36" onmousedown="handleReset()"/>
                <g id="arrowUp" xlink:href="#dirArrow" transform="translate(30 24)" onmousedown="handlePan(0,-1)">
                  <use xlink:href="#rim" fill="#404040">
                        <set attributeName="fill" to="#808080" begin="arrowUp.mouseover" end="arrowUp.mouseout"/>
                  </use>
                  <path fill="none" stroke="white" stroke-width="1.5" d="M0,-3.0v7 M-2.5,-0.5L0,-3.0L2.5,-0.5"/>
                </g>
                <g id="arrowRight" xlink:href="#dirArrow" transform="rotate(90) translate(36 -43)" onmousedown="handlePan(1,0)">
                  <use xlink:href="#rim" fill="#404040">
                        <set attributeName="fill" to="#808080" begin="arrowRight.mouseover" end="arrowRight.mouseout"/>
                  </use>
                  <path fill="none" stroke="white" stroke-width="1.5" d="M0,-3.0v7 M-2.5,-0.5L0,-3.0L2.5,-0.5"/>
                </g>
                <g id="arrowDown" xlink:href="#dirArrow" transform="rotate(180) translate(-30 -48)" onmousedown="handlePan(0,1)">
                  <use xlink:href="#rim" fill="#404040">
                        <set attributeName="fill" to="#808080" begin="arrowDown.mouseover" end="arrowDown.mouseout"/>
                  </use>
                  <path fill="none" stroke="white" stroke-width="1.5" d="M0,-3.0v7 M-2.5,-0.5L0,-3.0L2.5,-0.5"/>
                </g>
                <g id="arrowLeft" xlink:href="#dirArrow" transform="rotate(270) translate(-36 17)" onmousedown="handlePan(-1,0)">
                  <use xlink:href="#rim" fill="#404040">
                        <set attributeName="fill" to="#808080" begin="arrowLeft.mouseover" end="arrowLeft.mouseout"/>
                  </use>
                  <path fill="none" stroke="white" stroke-width="1.5" d="M0,-3.0v7 M-2.5,-0.5L0,-3.0L2.5,-0.5"/>
                </g>
        </g>
        <svg viewBox="0 0 15 15" width="100%" height="30px" preserveAspectRatio="xMaxYMin meet">
         <g id="arrow_out" transform="scale(0.3 0.3)">
          <a xlink:href="radiusd_8c_aa06427b24f49a80667f761bf09318738_cgraph_org.svg" target="_base">
           <rect id="button" ry="5" rx="5" y="6" x="6" height="38" width="38"
                fill="#f2f5e9" fill-opacity="0.5" stroke="#606060" stroke-width="1.0"/>
           <path id="arrow"
             d="M 11.500037,31.436501 C 11.940474,20.09759 22.043105,11.32322 32.158766,21.979434 L 37.068811,17.246167 C 37.068811,17.246167 37.088388,32 37.088388,32 L 22.160133,31.978069 C 22.160133,31.978069 26.997745,27.140456 26.997745,27.140456 C 18.528582,18.264221 13.291696,25.230495 11.500037,31.436501 z"
             style="fill:#404040;"/>
          </a>
         </g>
        </svg>
</svg>
