<?xml version="1.0" encoding="UTF-8" standalone="no"?>
<!DOCTYPE svg PUBLIC "-//W3C//DTD SVG 1.1//EN"
 "http://www.w3.org/Graphics/SVG/1.1/DTD/svg11.dtd">
<!-- Generated by graphviz version 2.40.1 (20161225.0304)
 -->
<!-- Title: hostname Pages: 1 -->
<svg width="877pt" height="1199pt"
 viewBox="0.00 0.00 877.00 1199.00" xmlns="http://www.w3.org/2000/svg" xmlns:xlink="http://www.w3.org/1999/xlink">
<g id="graph0" class="graph" transform="scale(1 1) rotate(0) translate(4 1195)">
<title>hostname</title>
<!-- Node26 -->
<g id="node1" class="node">
<title>Node26</title>
<polygon fill="#bfbfbf" stroke="#000000" points="0,-929 0,-948 59,-948 59,-929 0,-929"/>
<text text-anchor="middle" x="29.5" y="-936" font-family="Helvetica,sans-Serif" font-size="10.00" fill="#000000">hostname</text>
</g>
<!-- Node27 -->
<g id="node2" class="node">
<title>Node27</title>
<g id="a_node2"><a xlink:href="radwho_8c.html#a3c04138a5bfe5d72780bb7e82a18e627" target="_top" xlink:title="main">
<polygon fill="none" stroke="#000000" points="129.5,-1043 129.5,-1062 167.5,-1062 167.5,-1043 129.5,-1043"/>
<text text-anchor="middle" x="148.5" y="-1050" font-family="Helvetica,sans-Serif" font-size="10.00" fill="#000000">main</text>
</a>
</g>
</g>
<!-- Node26&#45;&gt;Node27 -->
<g id="edge1" class="edge">
<title>Node26&#45;&gt;Node27</title>
<path fill="none" stroke="#191970" d="M38.01,-957.3597C48.5303,-978.6797 68.3601,-1013.0708 95,-1033.5 105.0115,-1041.1775 118.3865,-1045.9275 129.2586,-1048.7581"/>
<polygon fill="#191970" stroke="#191970" points="41.0493,-955.6001 33.6043,-948.062 34.7236,-958.5975 41.0493,-955.6001"/>
</g>
<!-- Node28 -->
<g id="node3" class="node">
<title>Node28</title>
<g id="a_node3"><a xlink:href="ldap_2control_8c.html#a27ff26e238a6bb4e16f9bed408dd9528" target="_top" xlink:title="Clear and free any controls associated with a connection. ">
<polygon fill="none" stroke="#000000" points="95,-1005 95,-1024 202,-1024 202,-1005 95,-1005"/>
<text text-anchor="middle" x="148.5" y="-1012" font-family="Helvetica,sans-Serif" font-size="10.00" fill="#000000">fr_ldap_control_clear</text>
</a>
</g>
</g>
<!-- Node26&#45;&gt;Node28 -->
<g id="edge2" class="edge">
<title>Node26&#45;&gt;Node28</title>
<path fill="none" stroke="#191970" d="M53.0758,-953.5568C77.0029,-968.838 113.3184,-992.0311 133.5509,-1004.9527"/>
<polygon fill="#191970" stroke="#191970" points="54.8832,-950.5582 44.5714,-948.1255 51.1154,-956.4577 54.8832,-950.5582"/>
</g>
<!-- Node50 -->
<g id="node15" class="node">
<title>Node50</title>
<g id="a_node15"><a xlink:href="cluster_8h.html#a9b5a2a604f3debf26f9ec7a937cbaf14" target="_top" xlink:title="Get the pool associated with a node in the cluster. ">
<polygon fill="none" stroke="#000000" points="95,-847.5 95,-877.5 202,-877.5 202,-847.5 95,-847.5"/>
<text text-anchor="start" x="103" y="-865.5" font-family="Helvetica,sans-Serif" font-size="10.00" fill="#000000">fr_redis_cluster_pool</text>
<text text-anchor="middle" x="148.5" y="-854.5" font-family="Helvetica,sans-Serif" font-size="10.00" fill="#000000">_by_node_addr</text>
</a>
</g>
</g>
<!-- Node26&#45;&gt;Node50 -->
<g id="edge15" class="edge">
<title>Node26&#45;&gt;Node50</title>
<path fill="none" stroke="#191970" d="M53.1432,-923.4001C73.9716,-910.098 104.1489,-890.8251 124.9494,-877.5407"/>
<polygon fill="#191970" stroke="#191970" points="51.1154,-920.5423 44.5714,-928.8745 54.8832,-926.4418 51.1154,-920.5423"/>
</g>
<!-- Node56 -->
<g id="node21" class="node">
<title>Node56</title>
<g id="a_node21"><a xlink:href="inet_8h.html#a692de3948a6ce6349acb797b86a3fb29" target="_top" xlink:title="Simple wrapper to decide whether an IP value is v4 or v6 and call the appropriate parser...">
<polygon fill="none" stroke="#000000" points="114.5,-550 114.5,-569 182.5,-569 182.5,-550 114.5,-550"/>
<text text-anchor="middle" x="148.5" y="-557" font-family="Helvetica,sans-Serif" font-size="10.00" fill="#000000">fr_inet_pton</text>
</a>
</g>
</g>
<!-- Node26&#45;&gt;Node56 -->
<g id="edge22" class="edge">
<title>Node26&#45;&gt;Node56</title>
<path fill="none" stroke="#191970" d="M35.5701,-919.1675C57.1474,-850.4465 129.6919,-619.4014 145.4591,-569.185"/>
<polygon fill="#191970" stroke="#191970" points="32.2176,-918.1613 32.5612,-928.7505 38.8962,-920.2583 32.2176,-918.1613"/>
</g>
<!-- Node29 -->
<g id="node4" class="node">
<title>Node29</title>
<g id="a_node4"><a xlink:href="ldap_2base_8h.html#a09b17dbd44c20ca295df56d5987d9da6" target="_top" xlink:title="Inline function to copy pointers from a berval to a valuebox. ">
<polygon fill="none" stroke="#000000" points="601,-1160.5 601,-1190.5 720,-1190.5 720,-1160.5 601,-1160.5"/>
<text text-anchor="start" x="609" y="-1178.5" font-family="Helvetica,sans-Serif" font-size="10.00" fill="#000000">fr_ldap_berval_to_value</text>
<text text-anchor="middle" x="660.5" y="-1167.5" font-family="Helvetica,sans-Serif" font-size="10.00" fill="#000000">_shallow</text>
</a>
</g>
</g>
<!-- Node28&#45;&gt;Node29 -->
<g id="edge3" class="edge">
<title>Node28&#45;&gt;Node29</title>
<path fill="none" stroke="#191970" d="M196.4908,-1029.1643C198.4387,-1030.4884 200.2884,-1031.9302 202,-1033.5 230.4356,-1059.5808 209.9204,-1086.0363 238,-1112.5 297.2845,-1168.373 328.9134,-1163.581 409,-1178.5 473.821,-1190.5752 549.6743,-1187.3617 600.9929,-1182.6942"/>
<polygon fill="#191970" stroke="#191970" points="197.8775,-1025.9289 187.445,-1024.0814 194.4484,-1032.0314 197.8775,-1025.9289"/>
</g>
<!-- Node33 -->
<g id="node6" class="node">
<title>Node33</title>
<g id="a_node6"><a xlink:href="ldap_2connection_8c.html#a60f5011014312ae80757a6b779f89946" target="_top" xlink:title="Close and delete a connection. ">
<polygon fill="none" stroke="#000000" points="248.5,-1084 248.5,-1103 362.5,-1103 362.5,-1084 248.5,-1084"/>
<text text-anchor="middle" x="305.5" y="-1091" font-family="Helvetica,sans-Serif" font-size="10.00" fill="#000000">_ldap_connection_free</text>
</a>
</g>
</g>
<!-- Node28&#45;&gt;Node33 -->
<g id="edge5" class="edge">
<title>Node28&#45;&gt;Node33</title>
<path fill="none" stroke="#191970" d="M188.1918,-1027.6692C192.8977,-1029.5021 197.5915,-1031.4605 202,-1033.5 234.988,-1048.7612 271.2408,-1071.1955 290.8795,-1083.8644"/>
<polygon fill="#191970" stroke="#191970" points="189.1956,-1024.3082 178.6029,-1024.0973 186.7521,-1030.8679 189.1956,-1024.3082"/>
</g>
<!-- Node40 -->
<g id="node8" class="node">
<title>Node40</title>
<g id="a_node8"><a xlink:href="rlm__ldap_8h.html#a6f72f92ce5f6ef034713458f500fdb70" target="_top" xlink:title="Releases an LDAP socket back to the connection pool. ">
<polygon fill="none" stroke="#000000" points="244.5,-1005 244.5,-1024 366.5,-1024 366.5,-1005 244.5,-1005"/>
<text text-anchor="middle" x="305.5" y="-1012" font-family="Helvetica,sans-Serif" font-size="10.00" fill="#000000">ldap_mod_conn_release</text>
</a>
</g>
</g>
<!-- Node28&#45;&gt;Node40 -->
<g id="edge8" class="edge">
<title>Node28&#45;&gt;Node40</title>
<path fill="none" stroke="#191970" d="M212.1351,-1014.5C222.7592,-1014.5 233.7603,-1014.5 244.3211,-1014.5"/>
<polygon fill="#191970" stroke="#191970" points="212.0914,-1011.0001 202.0914,-1014.5 212.0913,-1018.0001 212.0914,-1011.0001"/>
</g>
<!-- Node30 -->
<g id="node5" class="node">
<title>Node30</title>
<g id="a_node5"><a xlink:href="sync_8c.html#a1f0346c509a0282581842cc8ebd2ef0e" target="_top" xlink:title="Handle a LDAP_RES_SEARCH_ENTRY (SearchResultEntry) or LDAP_RES_SEARCH_REFRENCE (SearchResultReference...">
<polygon fill="none" stroke="#ff0000" points="756,-1160.5 756,-1190.5 869,-1190.5 869,-1160.5 756,-1160.5"/>
<text text-anchor="start" x="764" y="-1178.5" font-family="Helvetica,sans-Serif" font-size="10.00" fill="#000000">sync_search_entry_or</text>
<text text-anchor="middle" x="812.5" y="-1167.5" font-family="Helvetica,sans-Serif" font-size="10.00" fill="#000000">_reference</text>
</a>
</g>
</g>
<!-- Node29&#45;&gt;Node30 -->
<g id="edge4" class="edge">
<title>Node29&#45;&gt;Node30</title>
<path fill="none" stroke="#191970" d="M730.3424,-1175.5C738.7724,-1175.5 747.3042,-1175.5 755.5191,-1175.5"/>
<polygon fill="#191970" stroke="#191970" points="730.1382,-1172.0001 720.1382,-1175.5 730.1381,-1179.0001 730.1382,-1172.0001"/>
</g>
<!-- Node34 -->
<g id="node7" class="node">
<title>Node34</title>
<g id="a_node7"><a xlink:href="ldap_2connection_8c.html#a4e514efaae45a66ecc1299789935bb8d" target="_top" xlink:title="Allocate our ldap connection handle layer. ">
<polygon fill="none" stroke="#ff0000" points="438,-1138.5 438,-1168.5 536,-1168.5 536,-1138.5 438,-1138.5"/>
<text text-anchor="start" x="446" y="-1156.5" font-family="Helvetica,sans-Serif" font-size="10.00" fill="#000000">fr_ldap_connection</text>
<text text-anchor="middle" x="487" y="-1145.5" font-family="Helvetica,sans-Serif" font-size="10.00" fill="#000000">_alloc</text>
</a>
</g>
</g>
<!-- Node33&#45;&gt;Node34 -->
<g id="edge6" class="edge">
<title>Node33&#45;&gt;Node34</title>
<path fill="none" stroke="#191970" d="M343.0725,-1106.3661C362.6939,-1113.0445 387.1141,-1121.2926 409,-1128.5 418.8599,-1131.747 429.439,-1135.1751 439.5255,-1138.4169"/>
<polygon fill="#191970" stroke="#191970" points="344.1682,-1103.0419 333.5737,-1103.1282 341.9097,-1109.6676 344.1682,-1103.0419"/>
</g>
<!-- Node34&#45;&gt;Node29 -->
<g id="edge7" class="edge">
<title>Node34&#45;&gt;Node29</title>
<path fill="none" stroke="#191970" d="M546.4095,-1161.0332C564.0295,-1163.2674 583.3256,-1165.7142 600.9543,-1167.9495"/>
<polygon fill="#191970" stroke="#191970" points="546.6149,-1157.5313 536.254,-1159.7455 545.7343,-1164.4757 546.6149,-1157.5313"/>
</g>
<!-- Node41 -->
<g id="node9" class="node">
<title>Node41</title>
<g id="a_node9"><a xlink:href="group__xlat__functions.html#ga2512bcfd7ab42b397a4106c65f8429a9" target="_top" xlink:title="Expand an LDAP URL into a query, and return a string result from that query. ">
<polygon fill="none" stroke="#ff0000" points="459,-1024 459,-1043 515,-1043 515,-1024 459,-1024"/>
<text text-anchor="middle" x="487" y="-1031" font-family="Helvetica,sans-Serif" font-size="10.00" fill="#000000">ldap_xlat</text>
</a>
</g>
</g>
<!-- Node40&#45;&gt;Node41 -->
<g id="edge9" class="edge">
<title>Node40&#45;&gt;Node41</title>
<path fill="none" stroke="#191970" d="M376.6818,-1021.9515C405.2946,-1024.9468 436.6325,-1028.2274 458.5713,-1030.524"/>
<polygon fill="#191970" stroke="#191970" points="377.0047,-1018.4663 366.6946,-1020.906 376.2758,-1025.4283 377.0047,-1018.4663"/>
</g>
<!-- Node43 -->
<g id="node10" class="node">
<title>Node43</title>
<g id="a_node10"><a xlink:href="rlm__ldap_8c.html#a7ef5ac50bb6124c8c5498568a569a8c2" target="_top" xlink:title="Perform a search and map the result of the search to server attributes. ">
<polygon fill="none" stroke="#ff0000" points="445.5,-986 445.5,-1005 528.5,-1005 528.5,-986 445.5,-986"/>
<text text-anchor="middle" x="487" y="-993" font-family="Helvetica,sans-Serif" font-size="10.00" fill="#000000">mod_map_proc</text>
</a>
</g>
</g>
<!-- Node40&#45;&gt;Node43 -->
<g id="edge10" class="edge">
<title>Node40&#45;&gt;Node43</title>
<path fill="none" stroke="#191970" d="M376.8419,-1007.0317C400.0079,-1004.6066 424.9441,-1001.9962 445.2227,-999.8734"/>
<polygon fill="#191970" stroke="#191970" points="376.2758,-1003.5717 366.6946,-1008.094 377.0047,-1010.5337 376.2758,-1003.5717"/>
</g>
<!-- Node44 -->
<g id="node11" class="node">
<title>Node44</title>
<g id="a_node11"><a xlink:href="rlm__ldap_8c.html#a23956bbebf49568896b72c969243153d" target="_top" xlink:title="Perform LDAP&#45;Group comparison checking. ">
<polygon fill="none" stroke="#ff0000" points="436.5,-948 436.5,-967 537.5,-967 537.5,-948 436.5,-948"/>
<text text-anchor="middle" x="487" y="-955" font-family="Helvetica,sans-Serif" font-size="10.00" fill="#000000">rlm_ldap_groupcmp</text>
</a>
</g>
</g>
<!-- Node40&#45;&gt;Node44 -->
<g id="edge11" class="edge">
<title>Node40&#45;&gt;Node44</title>
<path fill="none" stroke="#191970" d="M338.4461,-1001.3222C358.6228,-993.5236 385.0794,-983.7792 409,-976.5 420.2005,-973.0916 432.4486,-969.8743 443.8509,-967.0897"/>
<polygon fill="#191970" stroke="#191970" points="337.1281,-998.0794 329.0843,-1004.9749 339.6726,-1004.6006 337.1281,-998.0794"/>
</g>
<!-- Node45 -->
<g id="node12" class="node">
<title>Node45</title>
<g id="a_node12"><a xlink:href="rlm__ldap_8c.html#a6dab4bbc315ece5039fc5c69f93cda26" target="_top" xlink:title="mod_authenticate">
<polygon fill="none" stroke="#000000" points="440,-910 440,-929 534,-929 534,-910 440,-910"/>
<text text-anchor="middle" x="487" y="-917" font-family="Helvetica,sans-Serif" font-size="10.00" fill="#000000">mod_authenticate</text>
</a>
</g>
</g>
<!-- Node40&#45;&gt;Node45 -->
<g id="edge12" class="edge">
<title>Node40&#45;&gt;Node45</title>
<path fill="none" stroke="#191970" d="M323.2888,-997.974C342.8576,-980.6689 375.9383,-953.9099 409,-938.5 418.6009,-934.0251 429.3758,-930.5326 439.7815,-927.8336"/>
<polygon fill="#191970" stroke="#191970" points="320.8543,-995.4564 315.7688,-1004.7509 325.5405,-1000.6563 320.8543,-995.4564"/>
</g>
<!-- Node46 -->
<g id="node13" class="node">
<title>Node46</title>
<g id="a_node13"><a xlink:href="rlm__ldap_8c.html#a9ef7a569b6f2f01a9ba088072c54e516" target="_top" xlink:title="mod_authorize">
<polygon fill="none" stroke="#000000" points="447,-1100 447,-1119 527,-1119 527,-1100 447,-1100"/>
<text text-anchor="middle" x="487" y="-1107" font-family="Helvetica,sans-Serif" font-size="10.00" fill="#000000">mod_authorize</text>
</a>
</g>
</g>
<!-- Node40&#45;&gt;Node46 -->
<g id="edge13" class="edge">
<title>Node40&#45;&gt;Node46</title>
<path fill="none" stroke="#191970" d="M323.2888,-1031.026C342.8576,-1048.3311 375.9383,-1075.0901 409,-1090.5 420.7485,-1095.9759 434.2549,-1099.9807 446.6915,-1102.8606"/>
<polygon fill="#191970" stroke="#191970" points="325.5405,-1028.3437 315.7688,-1024.2491 320.8543,-1033.5436 325.5405,-1028.3437"/>
</g>
<!-- Node47 -->
<g id="node14" class="node">
<title>Node47</title>
<g id="a_node14"><a xlink:href="rlm__ldap_8c.html#ad2f6fbb5bd921601e354e6926b96b45b" target="_top" xlink:title="Modify user&#39;s object in LDAP. ">
<polygon fill="none" stroke="#ff0000" points="452,-1062 452,-1081 522,-1081 522,-1062 452,-1062"/>
<text text-anchor="middle" x="487" y="-1069" font-family="Helvetica,sans-Serif" font-size="10.00" fill="#000000">user_modify</text>
</a>
</g>
</g>
<!-- Node40&#45;&gt;Node47 -->
<g id="edge14" class="edge">
<title>Node40&#45;&gt;Node47</title>
<path fill="none" stroke="#191970" d="M338.4461,-1027.6778C358.6228,-1035.4764 385.0794,-1045.2208 409,-1052.5 422.8673,-1056.7199 438.3404,-1060.6469 451.8261,-1063.8225"/>
<polygon fill="#191970" stroke="#191970" points="339.6726,-1024.3994 329.0843,-1024.0251 337.1281,-1030.9206 339.6726,-1024.3994"/>
</g>
<!-- Node51 -->
<g id="node16" class="node">
<title>Node51</title>
<g id="a_node16"><a xlink:href="group__xlat__functions.html#ga31886fd2b638245eda5da4425cb1fe1a" target="_top" xlink:title="Force a redis cluster remap. ">
<polygon fill="none" stroke="#000000" points="441.5,-872 441.5,-891 532.5,-891 532.5,-872 441.5,-872"/>
<text text-anchor="middle" x="487" y="-879" font-family="Helvetica,sans-Serif" font-size="10.00" fill="#000000">redis_remap_xlat</text>
</a>
</g>
</g>
<!-- Node50&#45;&gt;Node51 -->
<g id="edge16" class="edge">
<title>Node50&#45;&gt;Node51</title>
<path fill="none" stroke="#191970" d="M212.1282,-866.0715C278.9588,-869.8227 382.3901,-875.6282 441.4768,-878.9448"/>
<polygon fill="#191970" stroke="#191970" points="212.3168,-862.5766 202.1363,-865.5106 211.9244,-869.5656 212.3168,-862.5766"/>
</g>
<!-- Node53 -->
<g id="node18" class="node">
<title>Node53</title>
<g id="a_node18"><a xlink:href="group__xlat__functions.html#gad6a230afc88f97f3191f5b1efa47e905" target="_top" xlink:title="Xlat to make calls to redis. ">
<polygon fill="none" stroke="#000000" points="457.5,-834 457.5,-853 516.5,-853 516.5,-834 457.5,-834"/>
<text text-anchor="middle" x="487" y="-841" font-family="Helvetica,sans-Serif" font-size="10.00" fill="#000000">redis_xlat</text>
</a>
</g>
</g>
<!-- Node50&#45;&gt;Node53 -->
<g id="edge18" class="edge">
<title>Node50&#45;&gt;Node53</title>
<path fill="none" stroke="#191970" d="M212.1729,-858.926C285.448,-854.8131 402.6796,-848.2329 457.2536,-845.1697"/>
<polygon fill="#191970" stroke="#191970" points="211.9244,-855.4344 202.1363,-859.4894 212.3168,-862.4234 211.9244,-855.4344"/>
</g>
<!-- Node54 -->
<g id="node19" class="node">
<title>Node54</title>
<g id="a_node19"><a xlink:href="rlm__redis__ippool__tool_8c.html#a732d1903f8c1de87f3632b567032b1e1" target="_top" xlink:title="Return the pools available across the cluster. ">
<polygon fill="none" stroke="#000000" points="261.5,-709 261.5,-728 349.5,-728 349.5,-709 261.5,-709"/>
<text text-anchor="middle" x="305.5" y="-716" font-family="Helvetica,sans-Serif" font-size="10.00" fill="#000000">driver_get_pools</text>
</a>
</g>
</g>
<!-- Node50&#45;&gt;Node54 -->
<g id="edge20" class="edge">
<title>Node50&#45;&gt;Node54</title>
<path fill="none" stroke="#191970" d="M167.1002,-839.2192C184.3175,-818.4141 211.2268,-787.72 238,-764.5 254.2842,-750.3769 275.0273,-736.8082 289.1936,-728.1145"/>
<polygon fill="#191970" stroke="#191970" points="164.1855,-837.2544 160.5614,-847.2101 169.603,-841.6874 164.1855,-837.2544"/>
</g>
<!-- Node52 -->
<g id="node17" class="node">
<title>Node52</title>
<g id="a_node17"><a xlink:href="rlm__redis_8c.html#a9609ab2a4bc7986ec4f346b365737a42" target="_top" xlink:title="mod_bootstrap">
<polygon fill="none" stroke="#000000" points="620,-853 620,-872 701,-872 701,-853 620,-853"/>
<text text-anchor="middle" x="660.5" y="-860" font-family="Helvetica,sans-Serif" font-size="10.00" fill="#000000">mod_bootstrap</text>
</a>
</g>
</g>
<!-- Node51&#45;&gt;Node52 -->
<g id="edge17" class="edge">
<title>Node51&#45;&gt;Node52</title>
<path fill="none" stroke="#191970" d="M542.7136,-875.3988C567.8331,-872.648 596.9517,-869.4592 619.952,-866.9404"/>
<polygon fill="#191970" stroke="#191970" points="542.1446,-871.9401 532.5851,-876.508 542.9067,-878.8985 542.1446,-871.9401"/>
</g>
<!-- Node53&#45;&gt;Node52 -->
<g id="edge19" class="edge">
<title>Node53&#45;&gt;Node52</title>
<path fill="none" stroke="#191970" d="M526.996,-847.88C554.7979,-850.9246 591.736,-854.9697 619.7098,-858.0331"/>
<polygon fill="#191970" stroke="#191970" points="527.1473,-844.3757 516.8257,-846.7662 526.3852,-851.3341 527.1473,-844.3757"/>
</g>
<!-- Node55 -->
<g id="node20" class="node">
<title>Node55</title>
<g id="a_node20"><a xlink:href="rlm__redis__ippool__tool_8c.html#a0ddf1224851353fc92bfbff6f499fa97" target="_top" xlink:title="main">
<polygon fill="none" stroke="#000000" points="468,-670 468,-689 506,-689 506,-670 468,-670"/>
<text text-anchor="middle" x="487" y="-677" font-family="Helvetica,sans-Serif" font-size="10.00" fill="#000000">main</text>
</a>
</g>
</g>
<!-- Node54&#45;&gt;Node55 -->
<g id="edge21" class="edge">
<title>Node54&#45;&gt;Node55</title>
<path fill="none" stroke="#191970" d="M359.94,-706.8022C396.5106,-698.944 442.5017,-689.0616 467.914,-683.6011"/>
<polygon fill="#191970" stroke="#191970" points="358.9414,-703.4367 349.8999,-708.9595 360.412,-710.2805 358.9414,-703.4367"/>
</g>
<!-- Node57 -->
<g id="node22" class="node">
<title>Node57</title>
<g id="a_node22"><a xlink:href="cluster_8c.html#a3138560083c65262afc5b8a682195a23" target="_top" xlink:title="Validate a cluster map node entry. ">
<polygon fill="none" stroke="#000000" points="238,-341 238,-360 373,-360 373,-341 238,-341"/>
<text text-anchor="middle" x="305.5" y="-348" font-family="Helvetica,sans-Serif" font-size="10.00" fill="#000000">cluster_map_node_validate</text>
</a>
</g>
</g>
<!-- Node56&#45;&gt;Node57 -->
<g id="edge23" class="edge">
<title>Node56&#45;&gt;Node57</title>
<path fill="none" stroke="#191970" d="M161.6751,-541.9611C193.5155,-499.5749 273.8222,-392.6698 298.304,-360.0793"/>
<polygon fill="#191970" stroke="#191970" points="158.8617,-539.879 155.6539,-549.9766 164.4585,-544.0833 158.8617,-539.879"/>
</g>
<!-- Node87 -->
<g id="node25" class="node">
<title>Node87</title>
<g id="a_node25"><a xlink:href="cf__parse_8c.html#a1b96fe1ae92715ec179dc97d842777af" target="_top" xlink:title="Parses a CONF_PAIR into a C data type. ">
<polygon fill="none" stroke="#000000" points="253.5,-493 253.5,-512 357.5,-512 357.5,-493 253.5,-493"/>
<text text-anchor="middle" x="305.5" y="-500" font-family="Helvetica,sans-Serif" font-size="10.00" fill="#000000">cf_pair_parse_value</text>
</a>
</g>
</g>
<!-- Node56&#45;&gt;Node87 -->
<g id="edge26" class="edge">
<title>Node56&#45;&gt;Node87</title>
<path fill="none" stroke="#191970" d="M178.3416,-545.7033C195.5675,-538.0249 217.7642,-528.6115 238,-521.5 247.7627,-518.0691 258.4839,-514.8219 268.4508,-512.0146"/>
<polygon fill="#191970" stroke="#191970" points="176.504,-542.6925 168.8261,-549.9932 179.381,-549.0739 176.504,-542.6925"/>
</g>
<!-- Node148 -->
<g id="node35" class="node">
<title>Node148</title>
<g id="a_node35"><a xlink:href="client_8h.html#a134d75f0f017efd63813930c1fb0eb47" target="_top" xlink:title="Add a client from a result set (SQL) ">
<polygon fill="none" stroke="#000000" points="256,-455 256,-474 355,-474 355,-455 256,-455"/>
<text text-anchor="middle" x="305.5" y="-462" font-family="Helvetica,sans-Serif" font-size="10.00" fill="#000000">client_afrom_query</text>
</a>
</g>
</g>
<!-- Node56&#45;&gt;Node148 -->
<g id="edge36" class="edge">
<title>Node56&#45;&gt;Node148</title>
<path fill="none" stroke="#191970" d="M164.4521,-542.1457C181.2027,-524.9097 209.0836,-498.8937 238,-483.5 245.2,-479.6671 253.2548,-476.539 261.2237,-474.0094"/>
<polygon fill="#191970" stroke="#191970" points="161.5157,-540.1552 157.1675,-549.8166 166.5916,-544.9755 161.5157,-540.1552"/>
</g>
<!-- Node149 -->
<g id="node36" class="node">
<title>Node149</title>
<g id="a_node36"><a xlink:href="inet_8h.html#a6b12a3645d11b8b1b2101eac40ca0943" target="_top" xlink:title="Parses IPv4/6 address + port, to fr_ipaddr_t and integer (port) ">
<polygon fill="none" stroke="#000000" points="261,-774 261,-793 350,-793 350,-774 261,-774"/>
<text text-anchor="middle" x="305.5" y="-781" font-family="Helvetica,sans-Serif" font-size="10.00" fill="#000000">fr_inet_pton_port</text>
</a>
</g>
</g>
<!-- Node56&#45;&gt;Node149 -->
<g id="edge37" class="edge">
<title>Node56&#45;&gt;Node149</title>
<path fill="none" stroke="#191970" d="M154.7399,-579.3153C166.5259,-614.3531 194.8183,-688.1913 238,-737.5 251.6406,-753.0761 271.6772,-765.8475 286.3777,-773.9471"/>
<polygon fill="#191970" stroke="#191970" points="157.9276,-577.8019 151.4953,-569.3831 151.2737,-579.9756 157.9276,-577.8019"/>
</g>
<!-- Node1141 -->
<g id="node39" class="node">
<title>Node1141</title>
<g id="a_node39"><a xlink:href="value_8h.html#a4334a9994a5a6dfc982b24f215af1d09" target="_top" xlink:title="Convert string value to a fr_value_box_t type. ">
<polygon fill="none" stroke="#ff0000" points="249,-145 249,-164 362,-164 362,-145 249,-145"/>
<text text-anchor="middle" x="305.5" y="-152" font-family="Helvetica,sans-Serif" font-size="10.00" fill="#000000">fr_value_box_from_str</text>
</a>
</g>
</g>
<!-- Node56&#45;&gt;Node1141 -->
<g id="edge43" class="edge">
<title>Node56&#45;&gt;Node1141</title>
<path fill="none" stroke="#191970" d="M155.9456,-540.2932C183.8032,-468.4312 281.3336,-216.8401 301.7391,-164.2017"/>
<polygon fill="#191970" stroke="#191970" points="152.5772,-539.2991 152.2261,-549.8882 159.104,-541.8293 152.5772,-539.2991"/>
</g>
<!-- Node587 -->
<g id="node47" class="node">
<title>Node587</title>
<g id="a_node47"><a xlink:href="rlm__client_8c.html#a7f351cb74f53d5ac399099bba60f7f26" target="_top" xlink:title="Map multiple attributes from a client into the request. ">
<polygon fill="none" stroke="#ff0000" points="261.5,-645 261.5,-664 349.5,-664 349.5,-645 261.5,-645"/>
<text text-anchor="middle" x="305.5" y="-652" font-family="Helvetica,sans-Serif" font-size="10.00" fill="#000000">map_proc_client</text>
</a>
</g>
</g>
<!-- Node56&#45;&gt;Node587 -->
<g id="edge52" class="edge">
<title>Node56&#45;&gt;Node587</title>
<path fill="none" stroke="#191970" d="M164.4521,-576.8543C181.2027,-594.0903 209.0836,-620.1063 238,-635.5 245.2,-639.3329 253.2548,-642.461 261.2237,-644.9906"/>
<polygon fill="#191970" stroke="#191970" points="166.5916,-574.0245 157.1675,-569.1834 161.5157,-578.8448 166.5916,-574.0245"/>
</g>
<!-- Node1473 -->
<g id="node48" class="node">
<title>Node1473</title>
<g id="a_node48"><a xlink:href="group__xlat__functions.html#ga5b961763b977600b591534bf2db8bbea" target="_top" xlink:title="xlat to get client config data ">
<polygon fill="none" stroke="#ff0000" points="275,-607 275,-626 336,-626 336,-607 275,-607"/>
<text text-anchor="middle" x="305.5" y="-614" font-family="Helvetica,sans-Serif" font-size="10.00" fill="#000000">xlat_client</text>
</a>
</g>
</g>
<!-- Node56&#45;&gt;Node1473 -->
<g id="edge53" class="edge">
<title>Node56&#45;&gt;Node1473</title>
<path fill="none" stroke="#191970" d="M178.3416,-573.2967C195.5675,-580.9751 217.7642,-590.3885 238,-597.5 249.8301,-601.6575 263.0676,-605.5452 274.6649,-608.7072"/>
<polygon fill="#191970" stroke="#191970" points="179.381,-569.9261 168.8261,-569.0068 176.504,-576.3075 179.381,-569.9261"/>
</g>
<!-- Node66 -->
<g id="node49" class="node">
<title>Node66</title>
<g id="a_node49"><a xlink:href="rlm__redis__ippool_8c.html#a0e17beda5942fe3b843a7fa84ba3e0d5" target="_top" xlink:title="mod_action">
<polygon fill="none" stroke="#ff0000" points="272,-569 272,-588 339,-588 339,-569 272,-569"/>
<text text-anchor="middle" x="305.5" y="-576" font-family="Helvetica,sans-Serif" font-size="10.00" fill="#000000">mod_action</text>
</a>
</g>
</g>
<!-- Node56&#45;&gt;Node66 -->
<g id="edge54" class="edge">
<title>Node56&#45;&gt;Node66</title>
<path fill="none" stroke="#191970" d="M192.571,-564.8334C217.6682,-567.8707 248.6205,-571.6165 271.7699,-574.418"/>
<polygon fill="#191970" stroke="#191970" points="192.9148,-561.3496 182.5667,-563.6227 192.0737,-568.2989 192.9148,-561.3496"/>
</g>
<!-- Node1474 -->
<g id="node50" class="node">
<title>Node1474</title>
<g id="a_node50"><a xlink:href="rlm__redis__ippool__tool_8c.html#ac49d6122a6c74ffd74b5ed62304eab05" target="_top" xlink:title="Convert an IP range or CIDR mask to a start and stop address. ">
<polygon fill="none" stroke="#000000" points="264,-531 264,-550 347,-550 347,-531 264,-531"/>
<text text-anchor="middle" x="305.5" y="-538" font-family="Helvetica,sans-Serif" font-size="10.00" fill="#000000">parse_ip_range</text>
</a>
</g>
</g>
<!-- Node56&#45;&gt;Node1474 -->
<g id="edge55" class="edge">
<title>Node56&#45;&gt;Node1474</title>
<path fill="none" stroke="#191970" d="M192.7904,-554.14C215.1159,-551.4382 242.0308,-548.181 263.9596,-545.5272"/>
<polygon fill="#191970" stroke="#191970" points="192.0737,-550.7011 182.5667,-555.3773 192.9148,-557.6504 192.0737,-550.7011"/>
</g>
<!-- Node58 -->
<g id="node23" class="node">
<title>Node58</title>
<g id="a_node23"><a xlink:href="cluster_8c.html#a010b9b97335d882b7becb494a6c9b0cc" target="_top" xlink:title="Learn a new cluster layout by querying the node that issued the &#45;MOVE. ">
<polygon fill="none" stroke="#ff0000" points="442.5,-278 442.5,-297 531.5,-297 531.5,-278 442.5,-278"/>
<text text-anchor="middle" x="487" y="-285" font-family="Helvetica,sans-Serif" font-size="10.00" fill="#000000">cluster_map_get</text>
</a>
</g>
</g>
<!-- Node57&#45;&gt;Node58 -->
<g id="edge24" class="edge">
<title>Node57&#45;&gt;Node58</title>
<path fill="none" stroke="#191970" d="M334.4598,-336.6837C354.9468,-327.2841 383.2439,-315.0483 409,-306.5 419.7148,-302.9438 431.4579,-299.7359 442.5059,-297.0119"/>
<polygon fill="#191970" stroke="#191970" points="332.9516,-333.525 325.3549,-340.9102 335.899,-339.8743 332.9516,-333.525"/>
</g>
<!-- Node84 -->
<g id="node24" class="node">
<title>Node84</title>
<g id="a_node24"><a xlink:href="cluster_8h.html#a8f4e4285d679ffb64c8ef619b182b86a" target="_top" xlink:title="Allocate and initialise a new cluster structure. ">
<polygon fill="none" stroke="#ff0000" points="606,-673 606,-692 715,-692 715,-673 606,-673"/>
<text text-anchor="middle" x="660.5" y="-680" font-family="Helvetica,sans-Serif" font-size="10.00" fill="#000000">fr_redis_cluster_alloc</text>
</a>
</g>
</g>
<!-- Node58&#45;&gt;Node84 -->
<g id="edge25" class="edge">
<title>Node58&#45;&gt;Node84</title>
<path fill="none" stroke="#191970" d="M541.3533,-292.1979C550.2337,-295.1967 558.6052,-299.7279 565,-306.5 625.8079,-370.8952 579.0494,-416.6949 601,-502.5 617.9668,-568.8233 646.6419,-646.1994 656.7985,-672.8837"/>
<polygon fill="#191970" stroke="#191970" points="542.157,-288.7891 531.5869,-289.5119 540.3007,-295.5385 542.157,-288.7891"/>
</g>
<!-- Node88 -->
<g id="node26" class="node">
<title>Node88</title>
<g id="a_node26"><a xlink:href="cf__parse_8c.html#ac9259fd0c3c16ded200a89e0a83b87bd" target="_top" xlink:title="Parses a CONF_PAIR into a C data type, with a default value. ">
<polygon fill="none" stroke="#ff0000" points="431,-354 431,-373 543,-373 543,-354 431,-354"/>
<text text-anchor="middle" x="487" y="-361" font-family="Helvetica,sans-Serif" font-size="10.00" fill="#000000">cf_pair_parse_internal</text>
</a>
</g>
</g>
<!-- Node87&#45;&gt;Node88 -->
<g id="edge27" class="edge">
<title>Node87&#45;&gt;Node88</title>
<path fill="none" stroke="#191970" d="M366.7227,-488.4542C368.9477,-486.964 371.054,-485.318 373,-483.5 407.8235,-450.9679 373.6054,-414.4098 409,-382.5 415.2111,-376.9004 422.7954,-372.882 430.768,-370.011"/>
<polygon fill="#191970" stroke="#191970" points="364.7065,-485.569 357.6404,-493.4633 368.0872,-491.6986 364.7065,-485.569"/>
</g>
<!-- Node140 -->
<g id="node27" class="node">
<title>Node140</title>
<g id="a_node27"><a xlink:href="main__config_8c.html#a51e1c2f42566a873a84ed8b4c24cb586" target="_top" xlink:title="reverse_lookups_parse">
<polygon fill="none" stroke="#000000" points="428.5,-316 428.5,-335 545.5,-335 545.5,-316 428.5,-316"/>
<text text-anchor="middle" x="487" y="-323" font-family="Helvetica,sans-Serif" font-size="10.00" fill="#000000">reverse_lookups_parse</text>
</a>
</g>
</g>
<!-- Node87&#45;&gt;Node140 -->
<g id="edge28" class="edge">
<title>Node87&#45;&gt;Node140</title>
<path fill="none" stroke="#191970" d="M366.8001,-488.7595C369.0175,-487.1876 371.0995,-485.4408 373,-483.5 417.6495,-437.9048 363.5495,-389.2967 409,-344.5 414.4596,-339.1189 421.1736,-335.1731 428.351,-332.294"/>
<polygon fill="#191970" stroke="#191970" points="364.6057,-485.9833 357.6737,-493.9956 368.0893,-492.0549 364.6057,-485.9833"/>
</g>
<!-- Node141 -->
<g id="node28" class="node">
<title>Node141</title>
<g id="a_node28"><a xlink:href="main__config_8c.html#ab162183cc5f2c9a28ab295d081684c3c" target="_top" xlink:title="hostname_lookups_parse">
<polygon fill="none" stroke="#000000" points="423,-632 423,-651 551,-651 551,-632 423,-632"/>
<text text-anchor="middle" x="487" y="-639" font-family="Helvetica,sans-Serif" font-size="10.00" fill="#000000">hostname_lookups_parse</text>
</a>
</g>
</g>
<!-- Node87&#45;&gt;Node141 -->
<g id="edge29" class="edge">
<title>Node87&#45;&gt;Node141</title>
<path fill="none" stroke="#191970" d="M366.7227,-516.5458C368.9477,-518.036 371.054,-519.682 373,-521.5 407.8235,-554.0321 373.6054,-590.5902 409,-622.5 413.2442,-626.3264 418.1297,-629.4145 423.3421,-631.9026"/>
<polygon fill="#191970" stroke="#191970" points="368.0872,-513.3014 357.6404,-511.5367 364.7065,-519.431 368.0872,-513.3014"/>
</g>
<!-- Node142 -->
<g id="node29" class="node">
<title>Node142</title>
<g id="a_node29"><a xlink:href="main__config_8c.html#aea9070204b4552ae868ebc1e7d5f5c14" target="_top" xlink:title="talloc_memory_limit\l_parse">
<polygon fill="none" stroke="#000000" points="435,-582.5 435,-612.5 539,-612.5 539,-582.5 435,-582.5"/>
<text text-anchor="start" x="443" y="-600.5" font-family="Helvetica,sans-Serif" font-size="10.00" fill="#000000">talloc_memory_limit</text>
<text text-anchor="middle" x="487" y="-589.5" font-family="Helvetica,sans-Serif" font-size="10.00" fill="#000000">_parse</text>
</a>
</g>
</g>
<!-- Node87&#45;&gt;Node142 -->
<g id="edge30" class="edge">
<title>Node87&#45;&gt;Node142</title>
<path fill="none" stroke="#191970" d="M364.2962,-516.271C367.3405,-517.8313 370.266,-519.5677 373,-521.5 395.6571,-537.5135 386.633,-556.0837 409,-572.5 416.6808,-578.1373 425.6839,-582.5363 434.7911,-585.959"/>
<polygon fill="#191970" stroke="#191970" points="365.4399,-512.9496 354.8793,-512.0986 362.6042,-519.3496 365.4399,-512.9496"/>
</g>
<!-- Node143 -->
<g id="node30" class="node">
<title>Node143</title>
<g id="a_node30"><a xlink:href="main__config_8c.html#a5ae80d636814443c70f9c55cdc57d085" target="_top" xlink:title="talloc_pool_size_parse">
<polygon fill="none" stroke="#000000" points="429,-544 429,-563 545,-563 545,-544 429,-544"/>
<text text-anchor="middle" x="487" y="-551" font-family="Helvetica,sans-Serif" font-size="10.00" fill="#000000">talloc_pool_size_parse</text>
</a>
</g>
</g>
<!-- Node87&#45;&gt;Node143 -->
<g id="edge31" class="edge">
<title>Node87&#45;&gt;Node143</title>
<path fill="none" stroke="#191970" d="M351.2018,-514.8813C358.5184,-517.0022 365.9868,-519.2499 373,-521.5 389.198,-526.6969 392.7124,-529.591 409,-534.5 420.343,-537.9187 432.7526,-541.1619 444.2701,-543.9691"/>
<polygon fill="#191970" stroke="#191970" points="351.9521,-511.4558 341.3756,-512.0796 350.0326,-518.1875 351.9521,-511.4558"/>
</g>
<!-- Node144 -->
<g id="node31" class="node">
<title>Node144</title>
<g id="a_node31"><a xlink:href="main__config_8c.html#a1509771e1bda8216358f86bcfd774fc8" target="_top" xlink:title="max_request_time_parse">
<polygon fill="none" stroke="#000000" points="424,-506 424,-525 550,-525 550,-506 424,-506"/>
<text text-anchor="middle" x="487" y="-513" font-family="Helvetica,sans-Serif" font-size="10.00" fill="#000000">max_request_time_parse</text>
</a>
</g>
</g>
<!-- Node87&#45;&gt;Node144 -->
<g id="edge32" class="edge">
<title>Node87&#45;&gt;Node144</title>
<path fill="none" stroke="#191970" d="M367.6558,-506.9519C385.7517,-508.2481 405.537,-509.6652 423.7023,-510.9663"/>
<polygon fill="#191970" stroke="#191970" points="367.7351,-503.4487 357.5106,-506.2253 367.235,-510.4308 367.7351,-503.4487"/>
</g>
<!-- Node145 -->
<g id="node32" class="node">
<title>Node145</title>
<g id="a_node32"><a xlink:href="main__config_8c.html#a7c6b404a91d0873a856f30de24db4be9" target="_top" xlink:title="Configured server name takes precedence over default values. ">
<polygon fill="none" stroke="#000000" points="452,-468 452,-487 522,-487 522,-468 452,-468"/>
<text text-anchor="middle" x="487" y="-475" font-family="Helvetica,sans-Serif" font-size="10.00" fill="#000000">name_parse</text>
</a>
</g>
</g>
<!-- Node87&#45;&gt;Node145 -->
<g id="edge33" class="edge">
<title>Node87&#45;&gt;Node145</title>
<path fill="none" stroke="#191970" d="M367.6751,-493.9359C395.8287,-490.058 428.0685,-485.6173 451.9336,-482.3301"/>
<polygon fill="#191970" stroke="#191970" points="366.9395,-490.5041 357.5106,-495.336 367.8947,-497.4387 366.9395,-490.5041"/>
</g>
<!-- Node146 -->
<g id="node33" class="node">
<title>Node146</title>
<g id="a_node33"><a xlink:href="main__config_8c.html#a7e8daa2a58d8e6d8c73f547e668fefab" target="_top" xlink:title="num_networks_parse">
<polygon fill="none" stroke="#000000" points="432,-430 432,-449 542,-449 542,-430 432,-430"/>
<text text-anchor="middle" x="487" y="-437" font-family="Helvetica,sans-Serif" font-size="10.00" fill="#000000">num_networks_parse</text>
</a>
</g>
</g>
<!-- Node87&#45;&gt;Node146 -->
<g id="edge34" class="edge">
<title>Node87&#45;&gt;Node146</title>
<path fill="none" stroke="#191970" d="M357.3779,-489.8174C362.7464,-487.9392 368.045,-485.8368 373,-483.5 390.6186,-475.1908 391.237,-466.4957 409,-458.5 417.5153,-454.667 426.9161,-451.5389 436.1557,-449.0093"/>
<polygon fill="#191970" stroke="#191970" points="356.1302,-486.5425 347.6986,-492.958 358.2906,-493.2008 356.1302,-486.5425"/>
</g>
<!-- Node147 -->
<g id="node34" class="node">
<title>Node147</title>
<g id="a_node34"><a xlink:href="main__config_8c.html#ae4e0b8e3bbf81a56b9509dc1f2174a35" target="_top" xlink:title="num_workers_parse">
<polygon fill="none" stroke="#000000" points="435,-392 435,-411 539,-411 539,-392 435,-392"/>
<text text-anchor="middle" x="487" y="-399" font-family="Helvetica,sans-Serif" font-size="10.00" fill="#000000">num_workers_parse</text>
</a>
</g>
</g>
<!-- Node87&#45;&gt;Node147 -->
<g id="edge35" class="edge">
<title>Node87&#45;&gt;Node147</title>
<path fill="none" stroke="#191970" d="M365.5369,-488.4696C368.1559,-486.9774 370.6612,-485.3265 373,-483.5 398.4167,-463.6508 383.2355,-439.8956 409,-420.5 416.5719,-414.7999 425.6246,-410.7874 434.8372,-407.9681"/>
<polygon fill="#191970" stroke="#191970" points="363.7464,-485.4478 356.2714,-492.9562 366.7972,-491.748 363.7464,-485.4478"/>
</g>
<!-- Node149&#45;&gt;Node51 -->
<g id="edge41" class="edge">
<title>Node149&#45;&gt;Node51</title>
<path fill="none" stroke="#191970" d="M322.5453,-800.1357C341.9236,-818.1287 375.2649,-846.3933 409,-862.5 419.0621,-867.3041 430.4525,-870.9611 441.3585,-873.7188"/>
<polygon fill="#191970" stroke="#191970" points="324.8025,-797.4529 315.1348,-793.1187 319.9896,-802.5358 324.8025,-797.4529"/>
</g>
<!-- Node149&#45;&gt;Node53 -->
<g id="edge42" class="edge">
<title>Node149&#45;&gt;Node53</title>
<path fill="none" stroke="#191970" d="M341.7736,-796.4777C361.581,-803.4731 386.5742,-812.1524 409,-819.5 424.8875,-824.7054 442.7008,-830.2112 457.2891,-834.6345"/>
<polygon fill="#191970" stroke="#191970" points="342.8105,-793.132 332.2157,-793.0909 340.4724,-799.73 342.8105,-793.132"/>
</g>
<!-- Node149&#45;&gt;Node84 -->
<g id="edge40" class="edge">
<title>Node149&#45;&gt;Node84</title>
<path fill="none" stroke="#191970" d="M352.1395,-795.1741C405.93,-806.1808 495.8286,-816.8927 565,-786.5 610.1092,-766.6798 643.2558,-713.8706 655.4163,-692.094"/>
<polygon fill="#191970" stroke="#191970" points="352.7147,-791.7181 342.2044,-793.0532 351.2533,-798.5639 352.7147,-791.7181"/>
</g>
<!-- Node150 -->
<g id="node37" class="node">
<title>Node150</title>
<g id="a_node37"><a xlink:href="radclient_8c.html#a3c04138a5bfe5d72780bb7e82a18e627" target="_top" xlink:title="main">
<polygon fill="none" stroke="#ff0000" points="641.5,-474 641.5,-493 679.5,-493 679.5,-474 641.5,-474"/>
<text text-anchor="middle" x="660.5" y="-481" font-family="Helvetica,sans-Serif" font-size="10.00" fill="#000000">main</text>
</a>
</g>
</g>
<!-- Node149&#45;&gt;Node150 -->
<g id="edge38" class="edge">
<title>Node149&#45;&gt;Node150</title>
<path fill="none" stroke="#191970" d="M333.6475,-769.3962C354.1658,-759.5114 382.8379,-746.508 409,-737.5 476.5738,-714.2333 510.2875,-744.4793 565,-698.5 632.5385,-641.7419 654.0936,-527.7016 659.1806,-493.4497"/>
<polygon fill="#191970" stroke="#191970" points="332.0094,-766.301 324.5549,-773.8298 335.0773,-772.5929 332.0094,-766.301"/>
</g>
<!-- Node1140 -->
<g id="node38" class="node">
<title>Node1140</title>
<g id="a_node38"><a xlink:href="cluster_8c.html#a41047732e0ed1cb4b556eee169110e76" target="_top" xlink:title="Parse a &#45;MOVED or &#45;ASK redirect. ">
<polygon fill="none" stroke="#ff0000" points="426.5,-746.5 426.5,-776.5 547.5,-776.5 547.5,-746.5 426.5,-746.5"/>
<text text-anchor="start" x="434.5" y="-764.5" font-family="Helvetica,sans-Serif" font-size="10.00" fill="#000000">cluster_node_conf_from</text>
<text text-anchor="middle" x="487" y="-753.5" font-family="Helvetica,sans-Serif" font-size="10.00" fill="#000000">_redirect</text>
</a>
</g>
</g>
<!-- Node149&#45;&gt;Node1140 -->
<g id="edge39" class="edge">
<title>Node149&#45;&gt;Node1140</title>
<path fill="none" stroke="#191970" d="M360.309,-776.8565C381.1053,-774.3357 404.9051,-771.4509 426.22,-768.8673"/>
<polygon fill="#191970" stroke="#191970" points="359.8713,-773.3838 350.3652,-778.0618 360.7137,-780.333 359.8713,-773.3838"/>
</g>
<!-- Node744 -->
<g id="node40" class="node">
<title>Node744</title>
<g id="a_node40"><a xlink:href="radclient_8c.html#ab4cca4fd92a993cf7634a98235ede21e" target="_top" xlink:title="radclient_init">
<polygon fill="none" stroke="#ff0000" points="451.5,-240 451.5,-259 522.5,-259 522.5,-240 451.5,-240"/>
<text text-anchor="middle" x="487" y="-247" font-family="Helvetica,sans-Serif" font-size="10.00" fill="#000000">radclient_init</text>
</a>
</g>
</g>
<!-- Node1141&#45;&gt;Node744 -->
<g id="edge44" class="edge">
<title>Node1141&#45;&gt;Node744</title>
<path fill="none" stroke="#191970" d="M323.2888,-171.026C342.8576,-188.3311 375.9383,-215.0901 409,-230.5 422.2645,-236.6825 437.7697,-240.9897 451.4462,-243.92"/>
<polygon fill="#191970" stroke="#191970" points="325.5405,-168.3437 315.7688,-164.2491 320.8543,-173.5436 325.5405,-168.3437"/>
</g>
<!-- Node1142 -->
<g id="node41" class="node">
<title>Node1142</title>
<g id="a_node41"><a xlink:href="bin_2radmin_8c.html#a0884b5fe711b367b51a2e1a48796d3c3" target="_top" xlink:title="cmd_show_debug_level">
<polygon fill="none" stroke="#000000" points="426.5,-88 426.5,-107 547.5,-107 547.5,-88 426.5,-88"/>
<text text-anchor="middle" x="487" y="-95" font-family="Helvetica,sans-Serif" font-size="10.00" fill="#000000">cmd_show_debug_level</text>
</a>
</g>
</g>
<!-- Node1141&#45;&gt;Node1142 -->
<g id="edge46" class="edge">
<title>Node1141&#45;&gt;Node1142</title>
<path fill="none" stroke="#191970" d="M338.4461,-141.3222C358.6228,-133.5236 385.0794,-123.7792 409,-116.5 420.2005,-113.0916 432.4486,-109.8743 443.8509,-107.0897"/>
<polygon fill="#191970" stroke="#191970" points="337.1281,-138.0794 329.0843,-144.9749 339.6726,-144.6006 337.1281,-138.0794"/>
</g>
<!-- Node1143 -->
<g id="node42" class="node">
<title>Node1143</title>
<g id="a_node42"><a xlink:href="radsniff_8c.html#ac570ada5ba3b52e6a171965bff8a0a49" target="_top" xlink:title="rs_build_filter">
<polygon fill="none" stroke="#ff0000" points="450,-50 450,-69 524,-69 524,-50 450,-50"/>
<text text-anchor="middle" x="487" y="-57" font-family="Helvetica,sans-Serif" font-size="10.00" fill="#000000">rs_build_filter</text>
</a>
</g>
</g>
<!-- Node1141&#45;&gt;Node1143 -->
<g id="edge47" class="edge">
<title>Node1141&#45;&gt;Node1143</title>
<path fill="none" stroke="#191970" d="M323.2888,-137.974C342.8576,-120.6689 375.9383,-93.9099 409,-78.5 421.7591,-72.553 436.5916,-68.3412 449.8754,-65.4209"/>
<polygon fill="#191970" stroke="#191970" points="320.8543,-135.4564 315.7688,-144.7509 325.5405,-140.6563 320.8543,-135.4564"/>
</g>
<!-- Node804 -->
<g id="node43" class="node">
<title>Node804</title>
<g id="a_node43"><a xlink:href="unit__test__attribute_8c.html#afd62cf24c7310a90bf764438ab5ff0ea" target="_top" xlink:title="command_encode_dns\l_label">
<polygon fill="none" stroke="#000000" points="428.5,-.5 428.5,-30.5 545.5,-30.5 545.5,-.5 428.5,-.5"/>
<text text-anchor="start" x="436.5" y="-18.5" font-family="Helvetica,sans-Serif" font-size="10.00" fill="#000000">command_encode_dns</text>
<text text-anchor="middle" x="487" y="-7.5" font-family="Helvetica,sans-Serif" font-size="10.00" fill="#000000">_label</text>
</a>
</g>
</g>
<!-- Node1141&#45;&gt;Node804 -->
<g id="edge48" class="edge">
<title>Node1141&#45;&gt;Node804</title>
<path fill="none" stroke="#191970" d="M317.5184,-136.094C334.8341,-110.9758 369.1367,-66.1583 409,-40.5 414.9787,-36.6518 421.5974,-33.3531 428.3781,-30.5361"/>
<polygon fill="#191970" stroke="#191970" points="314.4219,-134.4261 311.7375,-144.6753 320.2274,-138.3372 314.4219,-134.4261"/>
</g>
<!-- Node910 -->
<g id="node44" class="node">
<title>Node910</title>
<g id="a_node44"><a xlink:href="unit__test__attribute_8c.html#a0bf66537d77867ec98d0b783db385aa3" target="_top" xlink:title="command_value_box_normalise">
<polygon fill="none" stroke="#000000" points="409,-202 409,-221 565,-221 565,-202 409,-202"/>
<text text-anchor="middle" x="487" y="-209" font-family="Helvetica,sans-Serif" font-size="10.00" fill="#000000">command_value_box_normalise</text>
</a>
</g>
</g>
<!-- Node1141&#45;&gt;Node910 -->
<g id="edge49" class="edge">
<title>Node1141&#45;&gt;Node910</title>
<path fill="none" stroke="#191970" d="M338.4461,-167.6778C358.6228,-175.4764 385.0794,-185.2208 409,-192.5 420.2005,-195.9084 432.4486,-199.1257 443.8509,-201.9103"/>
<polygon fill="#191970" stroke="#191970" points="339.6726,-164.3994 329.0843,-164.0251 337.1281,-170.9206 339.6726,-164.3994"/>
</g>
<!-- Node1144 -->
<g id="node45" class="node">
<title>Node1144</title>
<g id="a_node45"><a xlink:href="command_8c.html#aa3ede5554a744925e7d5635ecba9b968" target="_top" xlink:title="fr_command_verify_argv">
<polygon fill="none" stroke="#ff0000" points="425,-164 425,-183 549,-183 549,-164 425,-164"/>
<text text-anchor="middle" x="487" y="-171" font-family="Helvetica,sans-Serif" font-size="10.00" fill="#000000">fr_command_verify_argv</text>
</a>
</g>
</g>
<!-- Node1141&#45;&gt;Node1144 -->
<g id="edge50" class="edge">
<title>Node1141&#45;&gt;Node1144</title>
<path fill="none" stroke="#191970" d="M372.3859,-161.5018C389.5717,-163.3009 407.9866,-165.2286 424.9178,-167.001"/>
<polygon fill="#191970" stroke="#191970" points="372.7398,-158.0198 362.4298,-160.4596 372.011,-164.9818 372.7398,-158.0198"/>
</g>
<!-- Node1147 -->
<g id="node46" class="node">
<title>Node1147</title>
<g id="a_node46"><a xlink:href="command_8c.html#a382143509d2b39a27181616000455570" target="_top" xlink:title="Check the syntax of a command, starting at *text ">
<polygon fill="none" stroke="#ff0000" points="437,-126 437,-145 537,-145 537,-126 437,-126"/>
<text text-anchor="middle" x="487" y="-133" font-family="Helvetica,sans-Serif" font-size="10.00" fill="#000000">syntax_str_to_argv</text>
</a>
</g>
</g>
<!-- Node1141&#45;&gt;Node1147 -->
<g id="edge51" class="edge">
<title>Node1141&#45;&gt;Node1147</title>
<path fill="none" stroke="#191970" d="M372.3771,-147.4991C393.6555,-145.2716 416.819,-142.8468 436.718,-140.7637"/>
<polygon fill="#191970" stroke="#191970" points="372.011,-144.0182 362.4298,-148.5404 372.7398,-150.9802 372.011,-144.0182"/>
</g>
<!-- Node744&#45;&gt;Node150 -->
<g id="edge45" class="edge">
<title>Node744&#45;&gt;Node150</title>
<path fill="none" stroke="#191970" d="M532.7105,-253.4337C544.2324,-256.2511 555.8991,-260.8985 565,-268.5 632.7097,-325.0538 654.1471,-439.2346 659.1932,-473.5354"/>
<polygon fill="#191970" stroke="#191970" points="533.1869,-249.9591 522.6906,-251.4007 531.7949,-256.8193 533.1869,-249.9591"/>
</g>
<!-- Node1474&#45;&gt;Node55 -->
<g id="edge56" class="edge">
<title>Node1474&#45;&gt;Node55</title>
<path fill="none" stroke="#191970" d="M356.794,-549.1593C362.7358,-551.7642 368.3295,-555.1369 373,-559.5 407.8235,-592.0321 373.6054,-628.5902 409,-660.5 425.1488,-675.0589 450.5806,-678.9295 467.9851,-679.732"/>
<polygon fill="#191970" stroke="#191970" points="357.8467,-545.8175 347.2529,-545.6658 355.4398,-552.3907 357.8467,-545.8175"/>
</g>
</g>
</svg>
