<?xml version="1.0" encoding="UTF-8" standalone="no"?>
<!DOCTYPE svg PUBLIC "-//W3C//DTD SVG 1.1//EN"
 "http://www.w3.org/Graphics/SVG/1.1/DTD/svg11.dtd">
<!-- Generated by graphviz version 2.40.1 (20161225.0304)
 -->
<!-- Title: rbtree_insert_node Pages: 1 -->
<!--zoomable 541 -->
<svg id="main" version="1.1" xmlns="http://www.w3.org/2000/svg" xmlns:xlink="http://www.w3.org/1999/xlink" xml:space="preserve" onload="init(evt)">
<style type="text/css"><![CDATA[
.edge:hover path { stroke: red; }
.edge:hover polygon { stroke: red; fill: red; }
]]></style>
<script type="text/javascript"><![CDATA[
var edges = document.getElementsByTagName('g');
if (edges && edges.length) {
  for (var i=0;i<edges.length;i++) {
    if (edges[i].id.substr(0,4)=='edge') {
      edges[i].setAttribute('class','edge');
    }
  }
}
]]></script>
        <defs>
                <circle id="rim" cx="0" cy="0" r="7"/>
                <circle id="rim2" cx="0" cy="0" r="3.5"/>
                <g id="zoomPlus">
                        <use xlink:href="#rim" fill="#404040">
                                <set attributeName="fill" to="#808080" begin="zoomplus.mouseover" end="zoomplus.mouseout"/>
                        </use>
                        <path d="M-4,0h8M0,-4v8" fill="none" stroke="white" stroke-width="1.5" pointer-events="none"/>
                </g>
                <g id="zoomMin">
                        <use xlink:href="#rim" fill="#404040">
                                <set attributeName="fill" to="#808080" begin="zoomminus.mouseover" end="zoomminus.mouseout"/>
                        </use>
                        <path d="M-4,0h8" fill="none" stroke="white" stroke-width="1.5" pointer-events="none"/>
                </g>
                <g id="dirArrow">
                        <path fill="none" stroke="white" stroke-width="1.5" d="M0,-3.0v7 M-2.5,-0.5L0,-3.0L2.5,-0.5"/>
                </g>
               <g id="resetDef">
                       <use xlink:href="#rim2" fill="#404040">
                               <set attributeName="fill" to="#808080" begin="reset.mouseover" end="reset.mouseout"/>
                       </use>
               </g>
        </defs>

<script type="text/javascript">
var viewWidth = 778;
var viewHeight = 541;
var sectionId = 'dynsection-26';
</script>
<script xlink:href="svgpan.js"/>
<svg id="graph" class="graph">
<g id="viewport">
<title>rbtree_insert_node</title>
<!-- Node12495 -->
<g id="node1" class="node">
<title>Node12495</title>
<polygon fill="#bfbfbf" stroke="#000000" points="0,-247.5 0,-266.5 97,-266.5 97,-247.5 0,-247.5"/>
<text text-anchor="middle" x="48.5" y="-254.5" font-family="Helvetica,sans-Serif" font-size="10.00" fill="#000000">rbtree_insert_node</text>
</g>
<!-- Node12496 -->
<g id="node2" class="node">
<title>Node12496</title>
<g id="a_node2"><a xlink:href="rbtree_8c.html#afd9a91b95838a37b587f388299138de9" target="_top" xlink:title="rbtree_free_data">
<polygon fill="none" stroke="#000000" points="133,-285.5 133,-304.5 220,-304.5 220,-285.5 133,-285.5"/>
<text text-anchor="middle" x="176.5" y="-292.5" font-family="Helvetica,sans-Serif" font-size="10.00" fill="#000000">rbtree_free_data</text>
</a>
</g>
</g>
<!-- Node12495&#45;&gt;Node12496 -->
<g id="edge1" class="edge">
<title>Node12495&#45;&gt;Node12496</title>
<path fill="none" stroke="#191970" d="M80.7998,-266.589C97.0202,-271.4044 116.8751,-277.2988 134.2869,-282.468"/>
<polygon fill="#191970" stroke="#191970" points="133.6279,-285.9233 144.2105,-285.4141 135.6202,-279.2127 133.6279,-285.9233"/>
</g>
<!-- Node12497 -->
<g id="node3" class="node">
<title>Node12497</title>
<g id="a_node3"><a xlink:href="strerror_8c.html#ae701765650b8aea79a3037bc4921d7f8" target="_top" xlink:title="Log to thread local error buffer. ">
<polygon fill="none" stroke="#000000" points="133.5,-247.5 133.5,-266.5 219.5,-266.5 219.5,-247.5 133.5,-247.5"/>
<text text-anchor="middle" x="176.5" y="-254.5" font-family="Helvetica,sans-Serif" font-size="10.00" fill="#000000">fr_strerror_printf</text>
</a>
</g>
</g>
<!-- Node12495&#45;&gt;Node12497 -->
<g id="edge2" class="edge">
<title>Node12495&#45;&gt;Node12497</title>
<path fill="none" stroke="#191970" d="M97.2565,-257C105.6947,-257 114.5083,-257 123.063,-257"/>
<polygon fill="#191970" stroke="#191970" points="123.3268,-260.5001 133.3268,-257 123.3267,-253.5001 123.3268,-260.5001"/>
</g>
<!-- Node12631 -->
<g id="node20" class="node">
<title>Node12631</title>
<g id="a_node20"><a xlink:href="rbtree_8c.html#ab8724078cceb43e873eb404b200745ea" target="_top" xlink:title="Maintain red&#45;black tree balance after inserting node x. ">
<polygon fill="none" stroke="#000000" points="143,-114.5 143,-133.5 210,-133.5 210,-114.5 143,-114.5"/>
<text text-anchor="middle" x="176.5" y="-121.5" font-family="Helvetica,sans-Serif" font-size="10.00" fill="#000000">insert_fixup</text>
</a>
</g>
</g>
<!-- Node12495&#45;&gt;Node12631 -->
<g id="edge30" class="edge">
<title>Node12495&#45;&gt;Node12631</title>
<path fill="none" stroke="#191970" d="M57.7054,-247.435C79.0962,-225.2086 132.4102,-169.8121 159.7509,-141.4033"/>
<polygon fill="#191970" stroke="#191970" points="162.6201,-143.4695 167.0326,-133.8372 157.5764,-138.6154 162.6201,-143.4695"/>
</g>
<!-- Node12498 -->
<g id="node4" class="node">
<title>Node12498</title>
<g id="a_node4"><a xlink:href="acutest_8h.html#aecf9a9be8105efb1454cd8c1ef6cb1c5" target="_top" xlink:title="va_start">
<polygon fill="none" stroke="#000000" points="693.5,-513.5 693.5,-532.5 745.5,-532.5 745.5,-513.5 693.5,-513.5"/>
<text text-anchor="middle" x="719.5" y="-520.5" font-family="Helvetica,sans-Serif" font-size="10.00" fill="#000000">va_start</text>
</a>
</g>
</g>
<!-- Node12497&#45;&gt;Node12498 -->
<g id="edge3" class="edge">
<title>Node12497&#45;&gt;Node12498</title>
<path fill="none" stroke="#191970" d="M207.6157,-266.7236C212.2003,-269.1912 216.5373,-272.2429 220,-276 253.4337,-312.2763 227.552,-340.695 256,-381 297.5866,-439.9198 319.2863,-448.2131 383,-482 436.8978,-510.5816 453.6931,-513.7831 514,-523 572.7226,-531.9748 641.9915,-529.2749 683.2459,-526.2904"/>
<polygon fill="#191970" stroke="#191970" points="683.6553,-529.7694 693.3571,-525.5121 683.1179,-522.79 683.6553,-529.7694"/>
</g>
<!-- Node12499 -->
<g id="node5" class="node">
<title>Node12499</title>
<g id="a_node5"><a xlink:href="strerror_8c.html#a193b1e0b3712e3bbee338812c06af482" target="_top" xlink:title="fr_strerror_vprintf">
<polygon fill="none" stroke="#000000" points="256,-266.5 256,-285.5 347,-285.5 347,-266.5 256,-266.5"/>
<text text-anchor="middle" x="301.5" y="-273.5" font-family="Helvetica,sans-Serif" font-size="10.00" fill="#000000">fr_strerror_vprintf</text>
</a>
</g>
</g>
<!-- Node12497&#45;&gt;Node12499 -->
<g id="edge4" class="edge">
<title>Node12497&#45;&gt;Node12499</title>
<path fill="none" stroke="#191970" d="M219.5179,-263.5387C228.0355,-264.8334 237.0894,-266.2096 245.9544,-267.5571"/>
<polygon fill="#191970" stroke="#191970" points="245.4319,-271.0178 255.8443,-269.0603 246.4838,-264.0973 245.4319,-271.0178"/>
</g>
<!-- Node12502 -->
<g id="node8" class="node">
<title>Node12502</title>
<g id="a_node8"><a xlink:href="acutest_8h.html#a36af1f79dd6adf0809c21e76535034d5" target="_top" xlink:title="va_end">
<polygon fill="none" stroke="#000000" points="695.5,-437.5 695.5,-456.5 743.5,-456.5 743.5,-437.5 695.5,-437.5"/>
<text text-anchor="middle" x="719.5" y="-444.5" font-family="Helvetica,sans-Serif" font-size="10.00" fill="#000000">va_end</text>
</a>
</g>
</g>
<!-- Node12497&#45;&gt;Node12502 -->
<g id="edge29" class="edge">
<title>Node12497&#45;&gt;Node12502</title>
<path fill="none" stroke="#191970" d="M203.1639,-266.6447C208.9499,-269.2757 214.8685,-272.4091 220,-276 306.0252,-336.1985 286.4842,-405.6611 383,-447 485.7568,-491.012 622.8993,-469.2303 685.6156,-455.4213"/>
<polygon fill="#191970" stroke="#191970" points="686.4037,-458.8316 695.3791,-453.2019 684.8521,-452.0057 686.4037,-458.8316"/>
</g>
<!-- Node12500 -->
<g id="node6" class="node">
<title>Node12500</title>
<g id="a_node6"><a xlink:href="strerror_8c.html#a42c2cc9f76fb9dac723a1903c181e1c7" target="_top" xlink:title="Initialise thread local storage. ">
<polygon fill="none" stroke="#000000" points="392,-418.5 392,-437.5 469,-437.5 469,-418.5 392,-418.5"/>
<text text-anchor="middle" x="430.5" y="-425.5" font-family="Helvetica,sans-Serif" font-size="10.00" fill="#000000">fr_strerror_init</text>
</a>
</g>
</g>
<!-- Node12499&#45;&gt;Node12500 -->
<g id="edge5" class="edge">
<title>Node12499&#45;&gt;Node12500</title>
<path fill="none" stroke="#191970" d="M305.4358,-285.5717C315.3383,-308.6507 343.3573,-368.1045 383,-404 386.9231,-407.5523 391.4688,-410.7165 396.1619,-413.4884"/>
<polygon fill="#191970" stroke="#191970" points="394.7736,-416.7147 405.244,-418.3344 398.069,-410.5389 394.7736,-416.7147"/>
</g>
<!-- Node12501 -->
<g id="node7" class="node">
<title>Node12501</title>
<g id="a_node7"><a xlink:href="strerror_8c.html#a2c8e65d6d4b73fb705cc023f60acb099" target="_top" xlink:title="Print the current error to stderr with a prefix. ">
<polygon fill="none" stroke="#ff0000" points="547,-494.5 547,-513.5 600,-513.5 600,-494.5 547,-494.5"/>
<text text-anchor="middle" x="573.5" y="-501.5" font-family="Helvetica,sans-Serif" font-size="10.00" fill="#000000">fr_perror</text>
</a>
</g>
</g>
<!-- Node12499&#45;&gt;Node12501 -->
<g id="edge12" class="edge">
<title>Node12499&#45;&gt;Node12501</title>
<path fill="none" stroke="#191970" d="M303.2846,-285.8087C309.1079,-314.9616 330.3032,-401.8533 383,-447 426.9859,-484.6838 495.1435,-497.456 536.8949,-501.7837"/>
<polygon fill="#191970" stroke="#191970" points="536.6295,-505.274 546.9099,-502.712 537.2757,-498.3039 536.6295,-505.274"/>
</g>
<!-- Node12499&#45;&gt;Node12502 -->
<g id="edge27" class="edge">
<title>Node12499&#45;&gt;Node12502</title>
<path fill="none" stroke="#191970" d="M326.1475,-285.5734C381.334,-307.0774 518.9444,-361.0822 633,-409 651.709,-416.8602 672.5374,-425.9982 689.067,-433.3432"/>
<polygon fill="#191970" stroke="#191970" points="687.6954,-436.5637 698.2542,-437.4374 690.5448,-430.1699 687.6954,-436.5637"/>
</g>
<!-- Node12508 -->
<g id="node10" class="node">
<title>Node12508</title>
<g id="a_node10"><a xlink:href="strerror_8c.html#a9d878c1ddb1b385cdaf6523fff68529c" target="_top" xlink:title="Reset cursor state. ">
<polygon fill="none" stroke="#000000" points="677,-266.5 677,-285.5 762,-285.5 762,-266.5 677,-266.5"/>
<text text-anchor="middle" x="719.5" y="-273.5" font-family="Helvetica,sans-Serif" font-size="10.00" fill="#000000">fr_strerror_clear</text>
</a>
</g>
</g>
<!-- Node12499&#45;&gt;Node12508 -->
<g id="edge11" class="edge">
<title>Node12499&#45;&gt;Node12508</title>
<path fill="none" stroke="#191970" d="M347.029,-276C425.0502,-276 583.8763,-276 666.6542,-276"/>
<polygon fill="#191970" stroke="#191970" points="666.8458,-279.5001 676.8458,-276 666.8458,-272.5001 666.8458,-279.5001"/>
</g>
<!-- Node12509 -->
<g id="node11" class="node">
<title>Node12509</title>
<g id="a_node11"><a xlink:href="print_8c.html#a27ae94b5a4c77de49aa2f387765a4d58" target="_top" xlink:title="Special version of vasprintf which implements custom format specifiers. ">
<polygon fill="none" stroke="#000000" points="398,-190.5 398,-209.5 463,-209.5 463,-190.5 398,-190.5"/>
<text text-anchor="middle" x="430.5" y="-197.5" font-family="Helvetica,sans-Serif" font-size="10.00" fill="#000000">fr_vasprintf</text>
</a>
</g>
</g>
<!-- Node12499&#45;&gt;Node12509 -->
<g id="edge13" class="edge">
<title>Node12499&#45;&gt;Node12509</title>
<path fill="none" stroke="#191970" d="M313.3587,-266.3883C328.7398,-254.2389 356.7203,-233.2004 383,-219 386.5041,-217.1065 390.2381,-215.2934 394.0139,-213.5906"/>
<polygon fill="#191970" stroke="#191970" points="395.5498,-216.7407 403.3787,-209.6021 392.8069,-210.3005 395.5498,-216.7407"/>
</g>
<!-- Node12630 -->
<g id="node19" class="node">
<title>Node12630</title>
<g id="a_node19"><a xlink:href="cursor_8c.html#a5d942382660657c3b4cb6e9cb2b12b2c" target="_top" xlink:title="Insert a single item at the start of the list. ">
<polygon fill="none" stroke="#000000" points="383,-228.5 383,-247.5 478,-247.5 478,-228.5 383,-228.5"/>
<text text-anchor="middle" x="430.5" y="-235.5" font-family="Helvetica,sans-Serif" font-size="10.00" fill="#000000">fr_cursor_prepend</text>
</a>
</g>
</g>
<!-- Node12499&#45;&gt;Node12630 -->
<g id="edge28" class="edge">
<title>Node12499&#45;&gt;Node12630</title>
<path fill="none" stroke="#191970" d="M334.0521,-266.411C350.3993,-261.5956 370.4092,-255.7012 387.9571,-250.532"/>
<polygon fill="#191970" stroke="#191970" points="389.3548,-253.7691 397.9583,-247.5859 387.3768,-247.0543 389.3548,-253.7691"/>
</g>
<!-- Node12500&#45;&gt;Node12501 -->
<g id="edge6" class="edge">
<title>Node12500&#45;&gt;Node12501</title>
<path fill="none" stroke="#191970" d="M448.611,-437.6255C473.3241,-450.7597 517.8072,-474.401 546.4725,-489.6358"/>
<polygon fill="#191970" stroke="#191970" points="545.063,-492.8502 555.536,-494.4527 548.3482,-486.669 545.063,-492.8502"/>
</g>
<!-- Node12507 -->
<g id="node9" class="node">
<title>Node12507</title>
<g id="a_node9"><a xlink:href="strerror_8c.html#afe66becac3be1b0b82b90889d27fcf99" target="_top" xlink:title="_fr_logging_free">
<polygon fill="none" stroke="#000000" points="530.5,-418.5 530.5,-437.5 616.5,-437.5 616.5,-418.5 530.5,-418.5"/>
<text text-anchor="middle" x="573.5" y="-425.5" font-family="Helvetica,sans-Serif" font-size="10.00" fill="#000000">_fr_logging_free</text>
</a>
</g>
</g>
<!-- Node12500&#45;&gt;Node12507 -->
<g id="edge9" class="edge">
<title>Node12500&#45;&gt;Node12507</title>
<path fill="none" stroke="#191970" d="M469.1979,-428C484.884,-428 503.2593,-428 520.1797,-428"/>
<polygon fill="#191970" stroke="#191970" points="520.4901,-431.5001 530.49,-428 520.49,-424.5001 520.4901,-431.5001"/>
</g>
<!-- Node12500&#45;&gt;Node12508 -->
<g id="edge10" class="edge">
<title>Node12500&#45;&gt;Node12508</title>
<path fill="none" stroke="#191970" d="M448.5782,-418.4917C497.7418,-392.6341 634.0859,-320.9237 692.437,-290.2338"/>
<polygon fill="#191970" stroke="#191970" points="694.2073,-293.2574 701.4286,-285.5047 690.9488,-287.062 694.2073,-293.2574"/>
</g>
<!-- Node12501&#45;&gt;Node12498 -->
<g id="edge7" class="edge">
<title>Node12501&#45;&gt;Node12498</title>
<path fill="none" stroke="#191970" d="M600.2787,-507.4849C623.5765,-510.5168 657.5445,-514.9373 683.2686,-518.285"/>
<polygon fill="#191970" stroke="#191970" points="683.0143,-521.7813 693.3823,-519.6011 683.9177,-514.8398 683.0143,-521.7813"/>
</g>
<!-- Node12501&#45;&gt;Node12502 -->
<g id="edge8" class="edge">
<title>Node12501&#45;&gt;Node12502</title>
<path fill="none" stroke="#191970" d="M597.9371,-494.4595C622.0847,-485.032 659.2071,-470.539 686.0766,-460.0488"/>
<polygon fill="#191970" stroke="#191970" points="687.4267,-463.2791 695.469,-456.382 684.8809,-456.7585 687.4267,-463.2791"/>
</g>
<!-- Node12509&#45;&gt;Node12497 -->
<g id="edge17" class="edge">
<title>Node12509&#45;&gt;Node12497</title>
<path fill="none" stroke="#191970" d="M397.9505,-207.3044C355.2097,-216.8958 279.6517,-233.8518 228.8311,-245.2564"/>
<polygon fill="#191970" stroke="#191970" points="228.0048,-241.8547 219.0139,-247.4595 229.5376,-248.6848 228.0048,-241.8547"/>
</g>
<!-- Node12509&#45;&gt;Node12502 -->
<g id="edge15" class="edge">
<title>Node12509&#45;&gt;Node12502</title>
<path fill="none" stroke="#191970" d="M460.1426,-209.557C466.2994,-212.163 472.5624,-215.3081 478,-219 497.2473,-232.0681 497.4499,-240.6498 514,-257 580.8813,-323.0735 664.0557,-397.8068 700.6879,-430.3647"/>
<polygon fill="#191970" stroke="#191970" points="698.7651,-433.3377 708.5685,-437.3558 703.4105,-428.1012 698.7651,-433.3377"/>
</g>
<!-- Node12510 -->
<g id="node12" class="node">
<title>Node12510</title>
<g id="a_node12"><a xlink:href="value_8h.html#a878e0abfce7189a1784cdf15bc9fc3a3" target="_top" xlink:title="fr_value_box_aprint">
<polygon fill="none" stroke="#000000" points="669,-190.5 669,-209.5 770,-209.5 770,-190.5 669,-190.5"/>
<text text-anchor="middle" x="719.5" y="-197.5" font-family="Helvetica,sans-Serif" font-size="10.00" fill="#000000">fr_value_box_aprint</text>
</a>
</g>
</g>
<!-- Node12509&#45;&gt;Node12510 -->
<g id="edge14" class="edge">
<title>Node12509&#45;&gt;Node12510</title>
<path fill="none" stroke="#191970" d="M463.0902,-200C510.466,-200 599.1947,-200 658.82,-200"/>
<polygon fill="#191970" stroke="#191970" points="658.8623,-203.5001 668.8623,-200 658.8623,-196.5001 658.8623,-203.5001"/>
</g>
<!-- Node12511 -->
<g id="node13" class="node">
<title>Node12511</title>
<g id="a_node13"><a xlink:href="talloc_8c.html#a3536feb85c89aa239851ef0830b72e64" target="_top" xlink:title="Call talloc_strdup, setting the type on the new chunk correctly. ">
<polygon fill="none" stroke="#000000" points="669,-133.5 669,-152.5 770,-152.5 770,-133.5 669,-133.5"/>
<text text-anchor="middle" x="719.5" y="-140.5" font-family="Helvetica,sans-Serif" font-size="10.00" fill="#000000">talloc_typed_strdup</text>
</a>
</g>
</g>
<!-- Node12509&#45;&gt;Node12511 -->
<g id="edge16" class="edge">
<title>Node12509&#45;&gt;Node12511</title>
<path fill="none" stroke="#191970" d="M452.4921,-190.4438C460.7747,-186.4499 470.096,-181.4644 478,-176 495.8537,-163.6568 493.7714,-150.8686 514,-143 561.1512,-124.6589 619.1216,-126.6374 661.4568,-132.0519"/>
<polygon fill="#191970" stroke="#191970" points="661.2102,-135.5509 671.595,-133.4518 662.1677,-128.6167 661.2102,-135.5509"/>
</g>
<!-- Node12512 -->
<g id="node14" class="node">
<title>Node12512</title>
<g id="a_node14"><a xlink:href="value_8c.html#a3a0550d465b81917f8b0c69a3373163e" target="_top" xlink:title="Convert one type of fr_value_box_t to another. ">
<polygon fill="none" stroke="#ff0000" points="525.5,-.5 525.5,-19.5 621.5,-19.5 621.5,-.5 525.5,-.5"/>
<text text-anchor="middle" x="573.5" y="-7.5" font-family="Helvetica,sans-Serif" font-size="10.00" fill="#000000">fr_value_box_cast</text>
</a>
</g>
</g>
<!-- Node12509&#45;&gt;Node12512 -->
<g id="edge18" class="edge">
<title>Node12509&#45;&gt;Node12512</title>
<path fill="none" stroke="#191970" d="M459.4741,-190.2843C466.3969,-186.7483 473.171,-182.0758 478,-176 519.8521,-123.3422 468.1042,-78.1733 514,-29 515.3596,-27.5434 516.8305,-26.1979 518.3898,-24.9553"/>
<polygon fill="#191970" stroke="#191970" points="520.2826,-27.8994 526.8164,-19.5591 516.5076,-22.0045 520.2826,-27.8994"/>
</g>
<!-- Node12626 -->
<g id="node15" class="node">
<title>Node12626</title>
<g id="a_node15"><a xlink:href="strerror_8c.html#a83ee876ee41b1ae672dc4dcda4f02a2e" target="_top" xlink:title="Get the last library error. ">
<polygon fill="none" stroke="#ff0000" points="544,-228.5 544,-247.5 603,-247.5 603,-228.5 544,-228.5"/>
<text text-anchor="middle" x="573.5" y="-235.5" font-family="Helvetica,sans-Serif" font-size="10.00" fill="#000000">fr_strerror</text>
</a>
</g>
</g>
<!-- Node12509&#45;&gt;Node12626 -->
<g id="edge20" class="edge">
<title>Node12509&#45;&gt;Node12626</title>
<path fill="none" stroke="#191970" d="M463.3071,-208.718C484.33,-214.3045 511.7394,-221.5881 533.962,-227.4934"/>
<polygon fill="#191970" stroke="#191970" points="533.2023,-230.9129 543.7658,-230.0986 535.0001,-224.1477 533.2023,-230.9129"/>
</g>
<!-- Node12522 -->
<g id="node16" class="node">
<title>Node12522</title>
<g id="a_node16"><a xlink:href="value_8c.html#ad5da2574fed047b3ae861999d06c38ac" target="_top" xlink:title="Clear/free any existing value and metadata. ">
<polygon fill="none" stroke="#ff0000" points="524.5,-76.5 524.5,-95.5 622.5,-95.5 622.5,-76.5 524.5,-76.5"/>
<text text-anchor="middle" x="573.5" y="-83.5" font-family="Helvetica,sans-Serif" font-size="10.00" fill="#000000">fr_value_box_clear</text>
</a>
</g>
</g>
<!-- Node12509&#45;&gt;Node12522 -->
<g id="edge22" class="edge">
<title>Node12509&#45;&gt;Node12522</title>
<path fill="none" stroke="#191970" d="M456.4895,-190.3538C464.044,-186.6784 471.8955,-181.9152 478,-176 501.9959,-152.7483 489.044,-132.2181 514,-110 518.4768,-106.0143 523.7006,-102.6438 529.1595,-99.806"/>
<polygon fill="#191970" stroke="#191970" points="530.8566,-102.8779 538.4781,-95.5183 527.9306,-96.5187 530.8566,-102.8779"/>
</g>
<!-- Node12627 -->
<g id="node17" class="node">
<title>Node12627</title>
<g id="a_node17"><a xlink:href="value_8c.html#a1064a346792dc1e5ecf05d04b4c1af55" target="_top" xlink:title="Concatenate the string representations of a list of value boxes together. ">
<polygon fill="none" stroke="#ff0000" points="514,-152.5 514,-171.5 633,-171.5 633,-152.5 514,-152.5"/>
<text text-anchor="middle" x="573.5" y="-159.5" font-family="Helvetica,sans-Serif" font-size="10.00" fill="#000000">fr_value_box_list_aprint</text>
</a>
</g>
</g>
<!-- Node12509&#45;&gt;Node12627 -->
<g id="edge23" class="edge">
<title>Node12509&#45;&gt;Node12627</title>
<path fill="none" stroke="#191970" d="M463.3071,-191.282C482.4557,-186.1936 506.9027,-179.6972 527.9027,-174.1168"/>
<polygon fill="#191970" stroke="#191970" points="528.8203,-177.4945 537.586,-171.5436 527.0225,-170.7293 528.8203,-177.4945"/>
</g>
<!-- Node12629 -->
<g id="node18" class="node">
<title>Node12629</title>
<g id="a_node18"><a xlink:href="util_2pair_8h.html#acfe6934363fefdc67e14fc08a205952b" target="_top" xlink:title="fr_pair_aprint">
<polygon fill="none" stroke="#000000" points="537,-38.5 537,-57.5 610,-57.5 610,-38.5 537,-38.5"/>
<text text-anchor="middle" x="573.5" y="-45.5" font-family="Helvetica,sans-Serif" font-size="10.00" fill="#000000">fr_pair_aprint</text>
</a>
</g>
</g>
<!-- Node12509&#45;&gt;Node12629 -->
<g id="edge26" class="edge">
<title>Node12509&#45;&gt;Node12629</title>
<path fill="none" stroke="#191970" d="M458.6602,-190.2709C465.7528,-186.7049 472.8148,-182.0208 478,-176 511.293,-137.342 477.7465,-102.8963 514,-67 517.8034,-63.2341 522.3521,-60.214 527.2173,-57.7922"/>
<polygon fill="#191970" stroke="#191970" points="528.9315,-60.8718 536.8506,-53.8335 526.2708,-54.3972 528.9315,-60.8718"/>
</g>
<!-- Node12512&#45;&gt;Node12497 -->
<g id="edge19" class="edge">
<title>Node12512&#45;&gt;Node12497</title>
<path fill="none" stroke="#191970" d="M537.9165,-19.506C529.8764,-22.1598 521.5037,-25.3379 514,-29 433.238,-68.4151 421.4651,-92.691 347,-143 294.4094,-178.5305 232.3978,-219.8486 199.5788,-241.6707"/>
<polygon fill="#191970" stroke="#191970" points="197.519,-238.8371 191.1283,-247.2876 201.3939,-244.6668 197.519,-238.8371"/>
</g>
<!-- Node12626&#45;&gt;Node12508 -->
<g id="edge21" class="edge">
<title>Node12626&#45;&gt;Node12508</title>
<path fill="none" stroke="#191970" d="M603.0453,-245.6899C623.0781,-250.9039 649.9753,-257.9045 672.8731,-263.8642"/>
<polygon fill="#191970" stroke="#191970" points="672.1813,-267.3007 682.7405,-266.4325 673.9445,-260.5264 672.1813,-267.3007"/>
</g>
<!-- Node12627&#45;&gt;Node12510 -->
<g id="edge24" class="edge">
<title>Node12627&#45;&gt;Node12510</title>
<path fill="none" stroke="#191970" d="M610.342,-171.589C629.3479,-176.5358 652.7286,-182.6211 672.9692,-187.8892"/>
<polygon fill="#191970" stroke="#191970" points="672.3638,-191.3482 682.923,-190.4799 674.127,-184.5739 672.3638,-191.3482"/>
</g>
<!-- Node12627&#45;&gt;Node12511 -->
<g id="edge25" class="edge">
<title>Node12627&#45;&gt;Node12511</title>
<path fill="none" stroke="#191970" d="M633.305,-154.2172C641.703,-153.1243 650.3419,-152 658.7571,-150.9049"/>
<polygon fill="#191970" stroke="#191970" points="659.4149,-154.3489 668.8796,-149.5876 658.5115,-147.4074 659.4149,-154.3489"/>
</g>
<!-- Node12632 -->
<g id="node21" class="node">
<title>Node12632</title>
<g id="a_node21"><a xlink:href="rbtree_8c.html#a358ddc4340012acea7bd5b71a56d8b52" target="_top" xlink:title="Rotate Node x to left. ">
<polygon fill="none" stroke="#000000" points="271.5,-114.5 271.5,-133.5 331.5,-133.5 331.5,-114.5 271.5,-114.5"/>
<text text-anchor="middle" x="301.5" y="-121.5" font-family="Helvetica,sans-Serif" font-size="10.00" fill="#000000">rotate_left</text>
</a>
</g>
</g>
<!-- Node12631&#45;&gt;Node12632 -->
<g id="edge31" class="edge">
<title>Node12631&#45;&gt;Node12632</title>
<path fill="none" stroke="#191970" d="M210.3268,-124C225.985,-124 244.7087,-124 261.1032,-124"/>
<polygon fill="#191970" stroke="#191970" points="261.4849,-127.5001 271.4849,-124 261.4848,-120.5001 261.4849,-127.5001"/>
</g>
<!-- Node12633 -->
<g id="node22" class="node">
<title>Node12633</title>
<g id="a_node22"><a xlink:href="rbtree_8c.html#a6e53191ea07ceee76155e75d0b3a7800" target="_top" xlink:title="Rotate Node x to right. ">
<polygon fill="none" stroke="#000000" points="269,-76.5 269,-95.5 334,-95.5 334,-76.5 269,-76.5"/>
<text text-anchor="middle" x="301.5" y="-83.5" font-family="Helvetica,sans-Serif" font-size="10.00" fill="#000000">rotate_right</text>
</a>
</g>
</g>
<!-- Node12631&#45;&gt;Node12633 -->
<g id="edge32" class="edge">
<title>Node12631&#45;&gt;Node12633</title>
<path fill="none" stroke="#191970" d="M208.0428,-114.411C223.883,-109.5956 243.2725,-103.7012 260.2763,-98.532"/>
<polygon fill="#191970" stroke="#191970" points="261.4177,-101.8433 269.9673,-95.5859 259.3816,-95.1459 261.4177,-101.8433"/>
</g>
</g>
</svg>
        <g id="navigator" transform="translate(0 0)" fill="#404254">
                <rect fill="#f2f5e9" fill-opacity="0.5" stroke="#606060" stroke-width=".5" x="0" y="0" width="60" height="60"/>
                <use id="zoomplus" xlink:href="#zoomPlus" x="17" y="9" onmousedown="handleZoom(evt,'in')"/>
                <use id="zoomminus" xlink:href="#zoomMin" x="42" y="9" onmousedown="handleZoom(evt,'out')"/>
                <use id="reset" xlink:href="#resetDef" x="30" y="36" onmousedown="handleReset()"/>
                <g id="arrowUp" xlink:href="#dirArrow" transform="translate(30 24)" onmousedown="handlePan(0,-1)">
                  <use xlink:href="#rim" fill="#404040">
                        <set attributeName="fill" to="#808080" begin="arrowUp.mouseover" end="arrowUp.mouseout"/>
                  </use>
                  <path fill="none" stroke="white" stroke-width="1.5" d="M0,-3.0v7 M-2.5,-0.5L0,-3.0L2.5,-0.5"/>
                </g>
                <g id="arrowRight" xlink:href="#dirArrow" transform="rotate(90) translate(36 -43)" onmousedown="handlePan(1,0)">
                  <use xlink:href="#rim" fill="#404040">
                        <set attributeName="fill" to="#808080" begin="arrowRight.mouseover" end="arrowRight.mouseout"/>
                  </use>
                  <path fill="none" stroke="white" stroke-width="1.5" d="M0,-3.0v7 M-2.5,-0.5L0,-3.0L2.5,-0.5"/>
                </g>
                <g id="arrowDown" xlink:href="#dirArrow" transform="rotate(180) translate(-30 -48)" onmousedown="handlePan(0,1)">
                  <use xlink:href="#rim" fill="#404040">
                        <set attributeName="fill" to="#808080" begin="arrowDown.mouseover" end="arrowDown.mouseout"/>
                  </use>
                  <path fill="none" stroke="white" stroke-width="1.5" d="M0,-3.0v7 M-2.5,-0.5L0,-3.0L2.5,-0.5"/>
                </g>
                <g id="arrowLeft" xlink:href="#dirArrow" transform="rotate(270) translate(-36 17)" onmousedown="handlePan(-1,0)">
                  <use xlink:href="#rim" fill="#404040">
                        <set attributeName="fill" to="#808080" begin="arrowLeft.mouseover" end="arrowLeft.mouseout"/>
                  </use>
                  <path fill="none" stroke="white" stroke-width="1.5" d="M0,-3.0v7 M-2.5,-0.5L0,-3.0L2.5,-0.5"/>
                </g>
        </g>
        <svg viewBox="0 0 15 15" width="100%" height="30px" preserveAspectRatio="xMaxYMin meet">
         <g id="arrow_out" transform="scale(0.3 0.3)">
          <a xlink:href="rbtree_8c_a4eed40c77b050e68b00cf9d6334db2c4_cgraph_org.svg" target="_base">
           <rect id="button" ry="5" rx="5" y="6" x="6" height="38" width="38"
                fill="#f2f5e9" fill-opacity="0.5" stroke="#606060" stroke-width="1.0"/>
           <path id="arrow"
             d="M 11.500037,31.436501 C 11.940474,20.09759 22.043105,11.32322 32.158766,21.979434 L 37.068811,17.246167 C 37.068811,17.246167 37.088388,32 37.088388,32 L 22.160133,31.978069 C 22.160133,31.978069 26.997745,27.140456 26.997745,27.140456 C 18.528582,18.264221 13.291696,25.230495 11.500037,31.436501 z"
             style="fill:#404040;"/>
          </a>
         </g>
        </svg>
</svg>
