<?xml version="1.0" encoding="UTF-8" standalone="no"?>
<!DOCTYPE svg PUBLIC "-//W3C//DTD SVG 1.1//EN"
 "http://www.w3.org/Graphics/SVG/1.1/DTD/svg11.dtd">
<!-- Generated by graphviz version 2.40.1 (20161225.0304)
 -->
<!-- Title: rbtree_insert Pages: 1 -->
<svg width="802pt" height="360pt"
 viewBox="0.00 0.00 802.00 360.00" xmlns="http://www.w3.org/2000/svg" xmlns:xlink="http://www.w3.org/1999/xlink">
<g id="graph0" class="graph" transform="scale(1 1) rotate(0) translate(4 356)">
<title>rbtree_insert</title>
<!-- Node4618 -->
<g id="node1" class="node">
<title>Node4618</title>
<polygon fill="#bfbfbf" stroke="#000000" points="0,-114.5 0,-133.5 71,-133.5 71,-114.5 0,-114.5"/>
<text text-anchor="middle" x="35.5" y="-121.5" font-family="Helvetica,sans-Serif" font-size="10.00" fill="#000000">rbtree_insert</text>
</g>
<!-- Node4619 -->
<g id="node2" class="node">
<title>Node4619</title>
<g id="a_node2"><a xlink:href="rbtree_8c.html#a4eed40c77b050e68b00cf9d6334db2c4" target="_top" xlink:title="Insert an element into the tree. ">
<polygon fill="none" stroke="#000000" points="107,-114.5 107,-133.5 204,-133.5 204,-114.5 107,-114.5"/>
<text text-anchor="middle" x="155.5" y="-121.5" font-family="Helvetica,sans-Serif" font-size="10.00" fill="#000000">rbtree_insert_node</text>
</a>
</g>
</g>
<!-- Node4618&#45;&gt;Node4619 -->
<g id="edge1" class="edge">
<title>Node4618&#45;&gt;Node4619</title>
<path fill="none" stroke="#191970" d="M71.1791,-124C79.2234,-124 87.9699,-124 96.6831,-124"/>
<polygon fill="#191970" stroke="#191970" points="96.8523,-127.5001 106.8522,-124 96.8522,-120.5001 96.8523,-127.5001"/>
</g>
<!-- Node4620 -->
<g id="node3" class="node">
<title>Node4620</title>
<g id="a_node3"><a xlink:href="rbtree_8c.html#afd9a91b95838a37b587f388299138de9" target="_top" xlink:title="rbtree_free_data">
<polygon fill="none" stroke="#000000" points="240,-152.5 240,-171.5 327,-171.5 327,-152.5 240,-152.5"/>
<text text-anchor="middle" x="283.5" y="-159.5" font-family="Helvetica,sans-Serif" font-size="10.00" fill="#000000">rbtree_free_data</text>
</a>
</g>
</g>
<!-- Node4619&#45;&gt;Node4620 -->
<g id="edge2" class="edge">
<title>Node4619&#45;&gt;Node4620</title>
<path fill="none" stroke="#191970" d="M187.7998,-133.589C204.0202,-138.4044 223.8751,-144.2988 241.2869,-149.468"/>
<polygon fill="#191970" stroke="#191970" points="240.6279,-152.9233 251.2105,-152.4141 242.6202,-146.2127 240.6279,-152.9233"/>
</g>
<!-- Node4621 -->
<g id="node4" class="node">
<title>Node4621</title>
<g id="a_node4"><a xlink:href="strerror_8c.html#ae701765650b8aea79a3037bc4921d7f8" target="_top" xlink:title="Log to thread local error buffer. ">
<polygon fill="none" stroke="#000000" points="240.5,-114.5 240.5,-133.5 326.5,-133.5 326.5,-114.5 240.5,-114.5"/>
<text text-anchor="middle" x="283.5" y="-121.5" font-family="Helvetica,sans-Serif" font-size="10.00" fill="#000000">fr_strerror_printf</text>
</a>
</g>
</g>
<!-- Node4619&#45;&gt;Node4621 -->
<g id="edge3" class="edge">
<title>Node4619&#45;&gt;Node4621</title>
<path fill="none" stroke="#191970" d="M204.2565,-124C212.6947,-124 221.5083,-124 230.063,-124"/>
<polygon fill="#191970" stroke="#191970" points="230.3268,-127.5001 240.3268,-124 230.3267,-120.5001 230.3268,-127.5001"/>
</g>
<!-- Node4755 -->
<g id="node13" class="node">
<title>Node4755</title>
<g id="a_node13"><a xlink:href="rbtree_8c.html#ab8724078cceb43e873eb404b200745ea" target="_top" xlink:title="Maintain red&#45;black tree balance after inserting node x. ">
<polygon fill="none" stroke="#000000" points="250,-38.5 250,-57.5 317,-57.5 317,-38.5 250,-38.5"/>
<text text-anchor="middle" x="283.5" y="-45.5" font-family="Helvetica,sans-Serif" font-size="10.00" fill="#000000">insert_fixup</text>
</a>
</g>
</g>
<!-- Node4619&#45;&gt;Node4755 -->
<g id="edge19" class="edge">
<title>Node4619&#45;&gt;Node4755</title>
<path fill="none" stroke="#191970" d="M171.7113,-114.3745C193.6397,-101.3546 232.958,-78.0093 258.635,-62.7636"/>
<polygon fill="#191970" stroke="#191970" points="260.6087,-65.6622 267.4203,-57.5473 257.0349,-59.6432 260.6087,-65.6622"/>
</g>
<!-- Node4622 -->
<g id="node5" class="node">
<title>Node4622</title>
<g id="a_node5"><a xlink:href="acutest_8h.html#aecf9a9be8105efb1454cd8c1ef6cb1c5" target="_top" xlink:title="va_start">
<polygon fill="none" stroke="#000000" points="742,-332.5 742,-351.5 794,-351.5 794,-332.5 742,-332.5"/>
<text text-anchor="middle" x="768" y="-339.5" font-family="Helvetica,sans-Serif" font-size="10.00" fill="#000000">va_start</text>
</a>
</g>
</g>
<!-- Node4621&#45;&gt;Node4622 -->
<g id="edge4" class="edge">
<title>Node4621&#45;&gt;Node4622</title>
<path fill="none" stroke="#191970" d="M313.3648,-133.6048C318.3132,-136.1161 323.0957,-139.2132 327,-143 353.8294,-169.0216 339.5573,-189.8902 363,-219 407.7179,-274.5281 423.6185,-290.9892 490,-317 571.8479,-349.0712 677.2928,-348.2434 731.7931,-345.0381"/>
<polygon fill="#191970" stroke="#191970" points="732.2403,-348.5165 741.9918,-344.3743 731.7856,-341.5312 732.2403,-348.5165"/>
</g>
<!-- Node4623 -->
<g id="node6" class="node">
<title>Node4623</title>
<g id="a_node6"><a xlink:href="strerror_8c.html#a193b1e0b3712e3bbee338812c06af482" target="_top" xlink:title="fr_strerror_vprintf">
<polygon fill="none" stroke="#000000" points="363,-190.5 363,-209.5 454,-209.5 454,-190.5 363,-190.5"/>
<text text-anchor="middle" x="408.5" y="-197.5" font-family="Helvetica,sans-Serif" font-size="10.00" fill="#000000">fr_strerror_vprintf</text>
</a>
</g>
</g>
<!-- Node4621&#45;&gt;Node4623 -->
<g id="edge5" class="edge">
<title>Node4621&#45;&gt;Node4623</title>
<path fill="none" stroke="#191970" d="M307.8462,-133.6203C314.203,-136.4047 320.962,-139.6142 327,-143 348.8562,-155.2559 372.1237,-171.9343 388.1784,-184.0823"/>
<polygon fill="#191970" stroke="#191970" points="386.235,-187.0025 396.3009,-190.3082 390.4935,-181.4468 386.235,-187.0025"/>
</g>
<!-- Node4626 -->
<g id="node9" class="node">
<title>Node4626</title>
<g id="a_node9"><a xlink:href="acutest_8h.html#a36af1f79dd6adf0809c21e76535034d5" target="_top" xlink:title="va_end">
<polygon fill="none" stroke="#000000" points="744,-152.5 744,-171.5 792,-171.5 792,-152.5 744,-152.5"/>
<text text-anchor="middle" x="768" y="-159.5" font-family="Helvetica,sans-Serif" font-size="10.00" fill="#000000">va_end</text>
</a>
</g>
</g>
<!-- Node4621&#45;&gt;Node4626 -->
<g id="edge18" class="edge">
<title>Node4621&#45;&gt;Node4626</title>
<path fill="none" stroke="#191970" d="M326.5715,-116.4199C385.2004,-107.2105 493.33,-94.1681 585,-105 639.9187,-111.4893 653.678,-116.0952 706,-134 717.4643,-137.9231 729.6974,-143.1988 740.2418,-148.1128"/>
<polygon fill="#191970" stroke="#191970" points="738.8479,-151.3257 749.3803,-152.4749 741.8634,-145.0085 738.8479,-151.3257"/>
</g>
<!-- Node4624 -->
<g id="node7" class="node">
<title>Node4624</title>
<g id="a_node7"><a xlink:href="strerror_8c.html#a42c2cc9f76fb9dac723a1903c181e1c7" target="_top" xlink:title="Initialise thread local storage. ">
<polygon fill="none" stroke="#ff0000" points="499,-266.5 499,-285.5 576,-285.5 576,-266.5 499,-266.5"/>
<text text-anchor="middle" x="537.5" y="-273.5" font-family="Helvetica,sans-Serif" font-size="10.00" fill="#000000">fr_strerror_init</text>
</a>
</g>
</g>
<!-- Node4623&#45;&gt;Node4624 -->
<g id="edge6" class="edge">
<title>Node4623&#45;&gt;Node4624</title>
<path fill="none" stroke="#191970" d="M422.6606,-209.6479C438.7104,-220.4376 465.792,-238.2074 490,-252 495.7951,-255.3018 502.0989,-258.6498 508.1637,-261.7555"/>
<polygon fill="#191970" stroke="#191970" points="506.8834,-265.0293 517.3899,-266.3948 510.0282,-258.7754 506.8834,-265.0293"/>
</g>
<!-- Node4625 -->
<g id="node8" class="node">
<title>Node4625</title>
<g id="a_node8"><a xlink:href="strerror_8c.html#a2c8e65d6d4b73fb705cc023f60acb099" target="_top" xlink:title="Print the current error to stderr with a prefix. ">
<polygon fill="none" stroke="#ff0000" points="637,-294.5 637,-313.5 690,-313.5 690,-294.5 637,-294.5"/>
<text text-anchor="middle" x="663.5" y="-301.5" font-family="Helvetica,sans-Serif" font-size="10.00" fill="#000000">fr_perror</text>
</a>
</g>
</g>
<!-- Node4623&#45;&gt;Node4625 -->
<g id="edge12" class="edge">
<title>Node4623&#45;&gt;Node4625</title>
<path fill="none" stroke="#191970" d="M413.3692,-209.8034C424.028,-230.0398 451.5795,-276.1184 490,-295 533.2391,-316.2497 590.0667,-314.4856 626.6917,-310.1539"/>
<polygon fill="#191970" stroke="#191970" points="627.4535,-313.5841 636.9146,-308.8157 626.5449,-306.6433 627.4535,-313.5841"/>
</g>
<!-- Node4623&#45;&gt;Node4626 -->
<g id="edge16" class="edge">
<title>Node4623&#45;&gt;Node4626</title>
<path fill="none" stroke="#191970" d="M454.0309,-195.1873C527.0526,-187.4687 668.7333,-172.4927 733.8103,-165.6139"/>
<polygon fill="#191970" stroke="#191970" points="734.3649,-169.0749 743.9416,-164.543 733.629,-162.1137 734.3649,-169.0749"/>
</g>
<!-- Node4632 -->
<g id="node10" class="node">
<title>Node4632</title>
<g id="a_node10"><a xlink:href="strerror_8c.html#a9d878c1ddb1b385cdaf6523fff68529c" target="_top" xlink:title="Reset cursor state. ">
<polygon fill="none" stroke="#000000" points="621,-247.5 621,-266.5 706,-266.5 706,-247.5 621,-247.5"/>
<text text-anchor="middle" x="663.5" y="-254.5" font-family="Helvetica,sans-Serif" font-size="10.00" fill="#000000">fr_strerror_clear</text>
</a>
</g>
</g>
<!-- Node4623&#45;&gt;Node4632 -->
<g id="edge11" class="edge">
<title>Node4623&#45;&gt;Node4632</title>
<path fill="none" stroke="#191970" d="M451.1813,-209.5405C495.035,-219.3431 563.3894,-234.6223 610.6378,-245.1837"/>
<polygon fill="#191970" stroke="#191970" points="610.1568,-248.6625 620.6795,-247.4284 611.6839,-241.8311 610.1568,-248.6625"/>
</g>
<!-- Node4633 -->
<g id="node11" class="node">
<title>Node4633</title>
<g id="a_node11"><a xlink:href="print_8c.html#a27ae94b5a4c77de49aa2f387765a4d58" target="_top" xlink:title="Special version of vasprintf which implements custom format specifiers. ">
<polygon fill="none" stroke="#ff0000" points="505,-114.5 505,-133.5 570,-133.5 570,-114.5 505,-114.5"/>
<text text-anchor="middle" x="537.5" y="-121.5" font-family="Helvetica,sans-Serif" font-size="10.00" fill="#000000">fr_vasprintf</text>
</a>
</g>
</g>
<!-- Node4623&#45;&gt;Node4633 -->
<g id="edge13" class="edge">
<title>Node4623&#45;&gt;Node4633</title>
<path fill="none" stroke="#191970" d="M420.3587,-190.3883C435.7398,-178.2389 463.7203,-157.2004 490,-143 493.5041,-141.1065 497.2381,-139.2934 501.0139,-137.5906"/>
<polygon fill="#191970" stroke="#191970" points="502.5498,-140.7407 510.3787,-133.6021 499.8069,-134.3005 502.5498,-140.7407"/>
</g>
<!-- Node4754 -->
<g id="node12" class="node">
<title>Node4754</title>
<g id="a_node12"><a xlink:href="cursor_8c.html#a5d942382660657c3b4cb6e9cb2b12b2c" target="_top" xlink:title="Insert a single item at the start of the list. ">
<polygon fill="none" stroke="#000000" points="490,-152.5 490,-171.5 585,-171.5 585,-152.5 490,-152.5"/>
<text text-anchor="middle" x="537.5" y="-159.5" font-family="Helvetica,sans-Serif" font-size="10.00" fill="#000000">fr_cursor_prepend</text>
</a>
</g>
</g>
<!-- Node4623&#45;&gt;Node4754 -->
<g id="edge17" class="edge">
<title>Node4623&#45;&gt;Node4754</title>
<path fill="none" stroke="#191970" d="M441.0521,-190.411C457.3993,-185.5956 477.4092,-179.7012 494.9571,-174.532"/>
<polygon fill="#191970" stroke="#191970" points="496.3548,-177.7691 504.9583,-171.5859 494.3768,-171.0543 496.3548,-177.7691"/>
</g>
<!-- Node4624&#45;&gt;Node4625 -->
<g id="edge7" class="edge">
<title>Node4624&#45;&gt;Node4625</title>
<path fill="none" stroke="#191970" d="M576.3323,-284.6294C592.466,-288.2147 611.0923,-292.3538 626.9745,-295.8832"/>
<polygon fill="#191970" stroke="#191970" points="626.4403,-299.3498 636.9614,-298.1025 627.9588,-292.5165 626.4403,-299.3498"/>
</g>
<!-- Node4624&#45;&gt;Node4632 -->
<g id="edge10" class="edge">
<title>Node4624&#45;&gt;Node4632</title>
<path fill="none" stroke="#191970" d="M576.3323,-270.1443C587.1819,-268.5083 599.1587,-266.7023 610.6701,-264.9664"/>
<polygon fill="#191970" stroke="#191970" points="611.2602,-268.4171 620.6265,-263.4651 610.2164,-261.4953 611.2602,-268.4171"/>
</g>
<!-- Node4625&#45;&gt;Node4622 -->
<g id="edge8" class="edge">
<title>Node4625&#45;&gt;Node4622</title>
<path fill="none" stroke="#191970" d="M689.8698,-313.589C702.6171,-318.2244 718.114,-323.8596 731.9347,-328.8853"/>
<polygon fill="#191970" stroke="#191970" points="731.0446,-332.2858 741.6387,-332.4141 733.4369,-325.7073 731.0446,-332.2858"/>
</g>
<!-- Node4625&#45;&gt;Node4626 -->
<g id="edge9" class="edge">
<title>Node4625&#45;&gt;Node4626</title>
<path fill="none" stroke="#191970" d="M682.3576,-294.3054C690.3322,-289.557 699.3039,-283.2867 706,-276 732.4253,-247.2437 751.4915,-205.1604 761.0484,-180.9839"/>
<polygon fill="#191970" stroke="#191970" points="764.3613,-182.1191 764.6594,-171.5284 757.822,-179.6216 764.3613,-182.1191"/>
</g>
<!-- Node4633&#45;&gt;Node4621 -->
<g id="edge15" class="edge">
<title>Node4633&#45;&gt;Node4621</title>
<path fill="none" stroke="#191970" d="M504.7248,-124C462.1904,-124 387.4292,-124 336.7096,-124"/>
<polygon fill="#191970" stroke="#191970" points="336.5877,-120.5001 326.5876,-124 336.5876,-127.5001 336.5877,-120.5001"/>
</g>
<!-- Node4633&#45;&gt;Node4626 -->
<g id="edge14" class="edge">
<title>Node4633&#45;&gt;Node4626</title>
<path fill="none" stroke="#191970" d="M570.0361,-129.3639C613.3483,-136.5043 689.6015,-149.0753 733.7588,-156.355"/>
<polygon fill="#191970" stroke="#191970" points="733.2904,-159.825 743.7266,-157.9983 734.4291,-152.9182 733.2904,-159.825"/>
</g>
<!-- Node4756 -->
<g id="node14" class="node">
<title>Node4756</title>
<g id="a_node14"><a xlink:href="rbtree_8c.html#a358ddc4340012acea7bd5b71a56d8b52" target="_top" xlink:title="Rotate Node x to left. ">
<polygon fill="none" stroke="#000000" points="378.5,-38.5 378.5,-57.5 438.5,-57.5 438.5,-38.5 378.5,-38.5"/>
<text text-anchor="middle" x="408.5" y="-45.5" font-family="Helvetica,sans-Serif" font-size="10.00" fill="#000000">rotate_left</text>
</a>
</g>
</g>
<!-- Node4755&#45;&gt;Node4756 -->
<g id="edge20" class="edge">
<title>Node4755&#45;&gt;Node4756</title>
<path fill="none" stroke="#191970" d="M317.3268,-48C332.985,-48 351.7087,-48 368.1032,-48"/>
<polygon fill="#191970" stroke="#191970" points="368.4849,-51.5001 378.4849,-48 368.4848,-44.5001 368.4849,-51.5001"/>
</g>
<!-- Node4757 -->
<g id="node15" class="node">
<title>Node4757</title>
<g id="a_node15"><a xlink:href="rbtree_8c.html#a6e53191ea07ceee76155e75d0b3a7800" target="_top" xlink:title="Rotate Node x to right. ">
<polygon fill="none" stroke="#000000" points="376,-.5 376,-19.5 441,-19.5 441,-.5 376,-.5"/>
<text text-anchor="middle" x="408.5" y="-7.5" font-family="Helvetica,sans-Serif" font-size="10.00" fill="#000000">rotate_right</text>
</a>
</g>
</g>
<!-- Node4755&#45;&gt;Node4757 -->
<g id="edge21" class="edge">
<title>Node4755&#45;&gt;Node4757</title>
<path fill="none" stroke="#191970" d="M315.0428,-38.411C330.883,-33.5956 350.2725,-27.7012 367.2763,-22.532"/>
<polygon fill="#191970" stroke="#191970" points="368.4177,-25.8433 376.9673,-19.5859 366.3816,-19.1459 368.4177,-25.8433"/>
</g>
</g>
</svg>
