<?xml version="1.0" encoding="UTF-8" standalone="no"?>
<!DOCTYPE svg PUBLIC "-//W3C//DTD SVG 1.1//EN"
 "http://www.w3.org/Graphics/SVG/1.1/DTD/svg11.dtd">
<!-- Generated by graphviz version 2.40.1 (20161225.0304)
 -->
<!-- Title: fr_redis_get_version Pages: 1 -->
<svg width="523pt" height="39pt"
 viewBox="0.00 0.00 523.00 39.00" xmlns="http://www.w3.org/2000/svg" xmlns:xlink="http://www.w3.org/1999/xlink">
<g id="graph0" class="graph" transform="scale(1 1) rotate(0) translate(4 35)">
<title>fr_redis_get_version</title>
<!-- Node315 -->
<g id="node1" class="node">
<title>Node315</title>
<polygon fill="#bfbfbf" stroke="#000000" points="0,-6 0,-25 104,-25 104,-6 0,-6"/>
<text text-anchor="middle" x="52" y="-13" font-family="Helvetica,sans-Serif" font-size="10.00" fill="#000000">fr_redis_get_version</text>
</g>
<!-- Node316 -->
<g id="node2" class="node">
<title>Node316</title>
<g id="a_node2"><a xlink:href="cluster_8c.html#a6f95874edd88b0727e16ba84243a63f6" target="_top" xlink:title="Walk all used pools checking their versions. ">
<polygon fill="none" stroke="#000000" points="140,-6 140,-25 253,-25 253,-6 140,-6"/>
<text text-anchor="middle" x="196.5" y="-13" font-family="Helvetica,sans-Serif" font-size="10.00" fill="#000000">_cluster_version_walk</text>
</a>
</g>
</g>
<!-- Node315&#45;&gt;Node316 -->
<g id="edge1" class="edge">
<title>Node315&#45;&gt;Node316</title>
<path fill="none" stroke="#191970" d="M114.2756,-15.5C122.662,-15.5 131.2312,-15.5 139.5194,-15.5"/>
<polygon fill="#191970" stroke="#191970" points="114.1679,-12.0001 104.1678,-15.5 114.1678,-19.0001 114.1679,-12.0001"/>
</g>
<!-- Node317 -->
<g id="node3" class="node">
<title>Node317</title>
<g id="a_node3"><a xlink:href="cluster_8h.html#af8c5c4a9b4dc3226e00bdb9f4fb10b69" target="_top" xlink:title="Check if members of the cluster are above a certain version. ">
<polygon fill="none" stroke="#000000" points="289,-.5 289,-30.5 393,-30.5 393,-.5 289,-.5"/>
<text text-anchor="start" x="297" y="-18.5" font-family="Helvetica,sans-Serif" font-size="10.00" fill="#000000">fr_redis_cluster_min</text>
<text text-anchor="middle" x="341" y="-7.5" font-family="Helvetica,sans-Serif" font-size="10.00" fill="#000000">_version</text>
</a>
</g>
</g>
<!-- Node316&#45;&gt;Node317 -->
<g id="edge2" class="edge">
<title>Node316&#45;&gt;Node317</title>
<path fill="none" stroke="#191970" d="M263.455,-15.5C271.9315,-15.5 280.5058,-15.5 288.7077,-15.5"/>
<polygon fill="#191970" stroke="#191970" points="263.1955,-12.0001 253.1955,-15.5 263.1955,-19.0001 263.1955,-12.0001"/>
</g>
<!-- Node318 -->
<g id="node4" class="node">
<title>Node318</title>
<g id="a_node4"><a xlink:href="rlm__redis__ippool_8c.html#a3c32864d8c9d017bf4625d54f415b2db" target="_top" xlink:title="mod_instantiate">
<polygon fill="none" stroke="#000000" points="429,-6 429,-25 515,-25 515,-6 429,-6"/>
<text text-anchor="middle" x="472" y="-13" font-family="Helvetica,sans-Serif" font-size="10.00" fill="#000000">mod_instantiate</text>
</a>
</g>
</g>
<!-- Node317&#45;&gt;Node318 -->
<g id="edge3" class="edge">
<title>Node317&#45;&gt;Node318</title>
<path fill="none" stroke="#191970" d="M403.2525,-15.5C411.9182,-15.5 420.66,-15.5 428.8689,-15.5"/>
<polygon fill="#191970" stroke="#191970" points="403.1511,-12.0001 393.1511,-15.5 403.151,-19.0001 403.1511,-12.0001"/>
</g>
</g>
</svg>
