<?xml version="1.0" encoding="UTF-8" standalone="no"?>
<!DOCTYPE svg PUBLIC "-//W3C//DTD SVG 1.1//EN"
 "http://www.w3.org/Graphics/SVG/1.1/DTD/svg11.dtd">
<!-- Generated by graphviz version 2.40.1 (20161225.0304)
 -->
<!-- Title: fr_redis_pipeline_free Pages: 1 -->
<svg width="622pt" height="334pt"
 viewBox="0.00 0.00 622.00 334.14" xmlns="http://www.w3.org/2000/svg" xmlns:xlink="http://www.w3.org/1999/xlink">
<g id="graph0" class="graph" transform="scale(1 1) rotate(0) translate(4 330.1408)">
<title>fr_redis_pipeline_free</title>
<!-- Node321 -->
<g id="node1" class="node">
<title>Node321</title>
<polygon fill="#bfbfbf" stroke="#000000" points="0,-154.6408 0,-173.6408 109,-173.6408 109,-154.6408 0,-154.6408"/>
<text text-anchor="middle" x="54.5" y="-161.6408" font-family="Helvetica,sans-Serif" font-size="10.00" fill="#000000">fr_redis_pipeline_free</text>
</g>
<!-- Node322 -->
<g id="node2" class="node">
<title>Node322</title>
<g id="a_node2"><a xlink:href="rlm__cache__redis_8c.html#a0375dd8982e293dc44a5b94089927000" target="_top" xlink:title="Insert a new entry into the data store. ">
<polygon fill="none" stroke="#000000" points="145,-249.6408 145,-268.6408 244,-268.6408 244,-249.6408 145,-249.6408"/>
<text text-anchor="middle" x="194.5" y="-256.6408" font-family="Helvetica,sans-Serif" font-size="10.00" fill="#000000">cache_entry_insert</text>
</a>
</g>
</g>
<!-- Node321&#45;&gt;Node322 -->
<g id="edge1" class="edge">
<title>Node321&#45;&gt;Node322</title>
<path fill="none" stroke="#191970" d="M71.2538,-181.2057C88.4922,-198.0032 116.7456,-223.4905 145,-240.1408 151.1065,-243.7393 158.0178,-246.892 164.6972,-249.5415"/>
<polygon fill="#191970" stroke="#191970" points="73.2882,-178.2937 63.7245,-173.7345 68.3577,-183.2626 73.2882,-178.2937"/>
</g>
<!-- Node323 -->
<g id="node3" class="node">
<title>Node323</title>
<g id="a_node3"><a xlink:href="rlm__redis__ippool_8c.html#a931b38254c7213a17a6b1472df6300ce" target="_top" xlink:title="Execute a script against Redis cluster. ">
<polygon fill="none" stroke="#000000" points="159,-211.6408 159,-230.6408 230,-230.6408 230,-211.6408 159,-211.6408"/>
<text text-anchor="middle" x="194.5" y="-218.6408" font-family="Helvetica,sans-Serif" font-size="10.00" fill="#000000">ippool_script</text>
</a>
</g>
</g>
<!-- Node321&#45;&gt;Node323 -->
<g id="edge2" class="edge">
<title>Node321&#45;&gt;Node323</title>
<path fill="none" stroke="#191970" d="M87.2671,-177.4817C112.9439,-187.9358 148.048,-202.2282 170.9907,-211.5691"/>
<polygon fill="#191970" stroke="#191970" points="88.5145,-174.2106 77.9329,-173.6813 85.8748,-180.6939 88.5145,-174.2106"/>
</g>
<!-- Node332 -->
<g id="node12" class="node">
<title>Node332</title>
<g id="a_node12"><a xlink:href="rlm__redis__ippool__tool_8c.html#a863b1d3d842064242dcb4e22bc816cd7" target="_top" xlink:title="Add a net to the pool. ">
<polygon fill="none" stroke="#000000" points="152,-116.6408 152,-135.6408 237,-135.6408 237,-116.6408 152,-116.6408"/>
<text text-anchor="middle" x="194.5" y="-123.6408" font-family="Helvetica,sans-Serif" font-size="10.00" fill="#000000">driver_do_lease</text>
</a>
</g>
</g>
<!-- Node321&#45;&gt;Node332 -->
<g id="edge13" class="edge">
<title>Node321&#45;&gt;Node332</title>
<path fill="none" stroke="#191970" d="M99.6176,-151.8946C118.9149,-146.6568 141.1124,-140.6317 159.1834,-135.7267"/>
<polygon fill="#191970" stroke="#191970" points="98.5619,-148.5544 89.8279,-154.5518 100.3956,-155.31 98.5619,-148.5544"/>
</g>
<!-- Node339 -->
<g id="node19" class="node">
<title>Node339</title>
<g id="a_node19"><a xlink:href="rlm__redis__ippool__tool_8c.html#a467c4f736477bbd777729d8de64a2551" target="_top" xlink:title="driver_get_stats">
<polygon fill="none" stroke="#000000" points="151.5,-21.6408 151.5,-40.6408 237.5,-40.6408 237.5,-21.6408 151.5,-21.6408"/>
<text text-anchor="middle" x="194.5" y="-28.6408" font-family="Helvetica,sans-Serif" font-size="10.00" fill="#000000">driver_get_stats</text>
</a>
</g>
</g>
<!-- Node321&#45;&gt;Node339 -->
<g id="edge24" class="edge">
<title>Node321&#45;&gt;Node339</title>
<path fill="none" stroke="#191970" d="M72.0762,-147.4434C101.6277,-119.3694 160.365,-63.5691 184.1451,-40.978"/>
<polygon fill="#191970" stroke="#191970" points="69.4078,-145.1507 64.5685,-154.5758 74.2291,-150.2257 69.4078,-145.1507"/>
</g>
<!-- Node324 -->
<g id="node4" class="node">
<title>Node324</title>
<g id="a_node4"><a xlink:href="rlm__redis__ippool_8c.html#ab2c2cf71d32e4dd26d34f3e07e4f30d5" target="_top" xlink:title="Allocate a new IP address from a pool. ">
<polygon fill="none" stroke="#000000" points="280,-287.6408 280,-306.6408 387,-306.6408 387,-287.6408 280,-287.6408"/>
<text text-anchor="middle" x="333.5" y="-294.6408" font-family="Helvetica,sans-Serif" font-size="10.00" fill="#000000">redis_ippool_allocate</text>
</a>
</g>
</g>
<!-- Node323&#45;&gt;Node324 -->
<g id="edge3" class="edge">
<title>Node323&#45;&gt;Node324</title>
<path fill="none" stroke="#191970" d="M234.818,-234.8252C238.0166,-236.4442 241.1199,-238.2146 244,-240.1408 263.3384,-253.0737 260.4999,-265.453 280,-278.1408 285.7832,-281.9036 292.4038,-285.0293 298.9714,-287.5848"/>
<polygon fill="#191970" stroke="#191970" points="236.2094,-231.6131 225.6575,-230.6604 233.3122,-237.9854 236.2094,-231.6131"/>
</g>
<!-- Node330 -->
<g id="node10" class="node">
<title>Node330</title>
<g id="a_node10"><a xlink:href="rlm__redis__ippool_8c.html#a222ac1104a9562b65c8ac5a8416f9ea4" target="_top" xlink:title="Update an existing IP address in a pool. ">
<polygon fill="none" stroke="#000000" points="282,-249.6408 282,-268.6408 385,-268.6408 385,-249.6408 282,-249.6408"/>
<text text-anchor="middle" x="333.5" y="-256.6408" font-family="Helvetica,sans-Serif" font-size="10.00" fill="#000000">redis_ippool_update</text>
</a>
</g>
</g>
<!-- Node323&#45;&gt;Node330 -->
<g id="edge9" class="edge">
<title>Node323&#45;&gt;Node330</title>
<path fill="none" stroke="#191970" d="M239.2953,-233.387C258.4547,-238.6248 280.4938,-244.6499 298.4357,-249.5549"/>
<polygon fill="#191970" stroke="#191970" points="240.1446,-229.9908 229.5756,-230.7298 238.2986,-236.743 240.1446,-229.9908"/>
</g>
<!-- Node331 -->
<g id="node11" class="node">
<title>Node331</title>
<g id="a_node11"><a xlink:href="rlm__redis__ippool_8c.html#a10ed5d9fde557e10f09c3592d3ad54a2" target="_top" xlink:title="Release an existing IP address in a pool. ">
<polygon fill="none" stroke="#000000" points="281,-211.6408 281,-230.6408 386,-230.6408 386,-211.6408 281,-211.6408"/>
<text text-anchor="middle" x="333.5" y="-218.6408" font-family="Helvetica,sans-Serif" font-size="10.00" fill="#000000">redis_ippool_release</text>
</a>
</g>
</g>
<!-- Node323&#45;&gt;Node331 -->
<g id="edge11" class="edge">
<title>Node323&#45;&gt;Node331</title>
<path fill="none" stroke="#191970" d="M240.365,-221.1408C253.3022,-221.1408 267.4797,-221.1408 280.7844,-221.1408"/>
<polygon fill="#191970" stroke="#191970" points="240.296,-217.6409 230.296,-221.1408 240.2959,-224.6409 240.296,-217.6409"/>
</g>
<!-- Node325 -->
<g id="node5" class="node">
<title>Node325</title>
<g id="a_node5"><a xlink:href="rlm__redis__ippool_8c.html#a0e17beda5942fe3b843a7fa84ba3e0d5" target="_top" xlink:title="mod_action">
<polygon fill="none" stroke="#000000" points="423,-249.6408 423,-268.6408 490,-268.6408 490,-249.6408 423,-249.6408"/>
<text text-anchor="middle" x="456.5" y="-256.6408" font-family="Helvetica,sans-Serif" font-size="10.00" fill="#000000">mod_action</text>
</a>
</g>
</g>
<!-- Node324&#45;&gt;Node325 -->
<g id="edge4" class="edge">
<title>Node324&#45;&gt;Node325</title>
<path fill="none" stroke="#191970" d="M374.5445,-284.4604C391.1638,-279.3259 410.0322,-273.4967 425.4718,-268.7267"/>
<polygon fill="#191970" stroke="#191970" points="373.0594,-281.2559 364.5381,-287.5518 375.1257,-287.944 373.0594,-281.2559"/>
</g>
<!-- Node326 -->
<g id="node6" class="node">
<title>Node326</title>
<g id="a_node6"><a xlink:href="rlm__redis__ippool_8c.html#a9746e2f556bcc77ccc75bb356086ed15" target="_top" xlink:title="mod_accounting">
<polygon fill="none" stroke="#000000" points="526,-306.6408 526,-325.6408 614,-325.6408 614,-306.6408 526,-306.6408"/>
<text text-anchor="middle" x="570" y="-313.6408" font-family="Helvetica,sans-Serif" font-size="10.00" fill="#000000">mod_accounting</text>
</a>
</g>
</g>
<!-- Node325&#45;&gt;Node326 -->
<g id="edge5" class="edge">
<title>Node325&#45;&gt;Node326</title>
<path fill="none" stroke="#191970" d="M481.98,-273.8108C494.999,-281.1166 511.182,-289.9098 526,-297.1408 532.5805,-300.352 539.8361,-303.6006 546.5251,-306.4815"/>
<polygon fill="#191970" stroke="#191970" points="483.5506,-270.678 473.124,-268.7974 480.1021,-276.7697 483.5506,-270.678"/>
</g>
<!-- Node327 -->
<g id="node7" class="node">
<title>Node327</title>
<g id="a_node7"><a xlink:href="rlm__redis__ippool_8c.html#a9ef7a569b6f2f01a9ba088072c54e516" target="_top" xlink:title="mod_authorize">
<polygon fill="none" stroke="#000000" points="530,-268.6408 530,-287.6408 610,-287.6408 610,-268.6408 530,-268.6408"/>
<text text-anchor="middle" x="570" y="-275.6408" font-family="Helvetica,sans-Serif" font-size="10.00" fill="#000000">mod_authorize</text>
</a>
</g>
</g>
<!-- Node325&#45;&gt;Node327 -->
<g id="edge6" class="edge">
<title>Node325&#45;&gt;Node327</title>
<path fill="none" stroke="#191970" d="M500.1499,-266.4478C509.8922,-268.0787 520.1793,-269.8008 529.7757,-271.4072"/>
<polygon fill="#191970" stroke="#191970" points="500.6871,-262.9891 490.2464,-264.79 499.5313,-269.8931 500.6871,-262.9891"/>
</g>
<!-- Node328 -->
<g id="node8" class="node">
<title>Node328</title>
<g id="a_node8"><a xlink:href="rlm__redis__ippool_8c.html#afdf6220a949e3c5c9b5cdafc6bb60513" target="_top" xlink:title="mod_post_auth">
<polygon fill="none" stroke="#000000" points="528.5,-230.6408 528.5,-249.6408 611.5,-249.6408 611.5,-230.6408 528.5,-230.6408"/>
<text text-anchor="middle" x="570" y="-237.6408" font-family="Helvetica,sans-Serif" font-size="10.00" fill="#000000">mod_post_auth</text>
</a>
</g>
</g>
<!-- Node325&#45;&gt;Node328 -->
<g id="edge7" class="edge">
<title>Node325&#45;&gt;Node328</title>
<path fill="none" stroke="#191970" d="M500.3119,-251.8066C509.4531,-250.2764 519.0674,-248.6669 528.136,-247.1489"/>
<polygon fill="#191970" stroke="#191970" points="499.5313,-248.3885 490.2464,-253.4916 500.6871,-255.2925 499.5313,-248.3885"/>
</g>
<!-- Node329 -->
<g id="node9" class="node">
<title>Node329</title>
<g id="a_node9"><a xlink:href="rlm__redis__ippool_8c.html#aa12987ade8fb86ee13044678f2fa7d96" target="_top" xlink:title="mod_request">
<polygon fill="none" stroke="#000000" points="533.5,-192.6408 533.5,-211.6408 606.5,-211.6408 606.5,-192.6408 533.5,-192.6408"/>
<text text-anchor="middle" x="570" y="-199.6408" font-family="Helvetica,sans-Serif" font-size="10.00" fill="#000000">mod_request</text>
</a>
</g>
</g>
<!-- Node325&#45;&gt;Node329 -->
<g id="edge8" class="edge">
<title>Node325&#45;&gt;Node329</title>
<path fill="none" stroke="#191970" d="M481.98,-244.4708C494.999,-237.1649 511.182,-228.3718 526,-221.1408 532.5805,-217.9296 539.8361,-214.681 546.5251,-211.8001"/>
<polygon fill="#191970" stroke="#191970" points="480.1021,-241.5119 473.124,-249.4842 483.5506,-247.6035 480.1021,-241.5119"/>
</g>
<!-- Node330&#45;&gt;Node325 -->
<g id="edge10" class="edge">
<title>Node330&#45;&gt;Node325</title>
<path fill="none" stroke="#191970" d="M395.5344,-259.1408C404.993,-259.1408 414.4348,-259.1408 422.9646,-259.1408"/>
<polygon fill="#191970" stroke="#191970" points="395.3066,-255.6409 385.3066,-259.1408 395.3065,-262.6409 395.3066,-255.6409"/>
</g>
<!-- Node331&#45;&gt;Node325 -->
<g id="edge12" class="edge">
<title>Node331&#45;&gt;Node325</title>
<path fill="none" stroke="#191970" d="M374.5445,-233.8212C391.1638,-238.9556 410.0322,-244.7849 425.4718,-249.5549"/>
<polygon fill="#191970" stroke="#191970" points="375.1257,-230.3376 364.5381,-230.7298 373.0594,-237.0257 375.1257,-230.3376"/>
</g>
<!-- Node333 -->
<g id="node13" class="node">
<title>Node333</title>
<g id="a_node13"><a xlink:href="rlm__redis__ippool__tool_8c.html#afbb505a3d1b10416ac51fc039f0d7650" target="_top" xlink:title="Show information about leases. ">
<polygon fill="none" stroke="#000000" points="284.5,-173.6408 284.5,-192.6408 382.5,-192.6408 382.5,-173.6408 284.5,-173.6408"/>
<text text-anchor="middle" x="333.5" y="-180.6408" font-family="Helvetica,sans-Serif" font-size="10.00" fill="#000000">driver_show_lease</text>
</a>
</g>
</g>
<!-- Node332&#45;&gt;Node333 -->
<g id="edge14" class="edge">
<title>Node332&#45;&gt;Node333</title>
<path fill="none" stroke="#191970" d="M223.7848,-139.826C240.1848,-147.3203 261.0828,-156.5908 280,-164.1408 288.1474,-167.3925 297.0961,-170.6796 305.3042,-173.5846"/>
<polygon fill="#191970" stroke="#191970" points="225.245,-136.6452 214.6975,-135.6452 222.3193,-143.0045 225.245,-136.6452"/>
</g>
<!-- Node335 -->
<g id="node15" class="node">
<title>Node335</title>
<g id="a_node15"><a xlink:href="rlm__redis__ippool__tool_8c.html#a9a95077f9b55d9525a7495a1f3efcaa8" target="_top" xlink:title="Release a range of leases. ">
<polygon fill="none" stroke="#000000" points="280.5,-135.6408 280.5,-154.6408 386.5,-154.6408 386.5,-135.6408 280.5,-135.6408"/>
<text text-anchor="middle" x="333.5" y="-142.6408" font-family="Helvetica,sans-Serif" font-size="10.00" fill="#000000">driver_release_lease</text>
</a>
</g>
</g>
<!-- Node332&#45;&gt;Node335 -->
<g id="edge16" class="edge">
<title>Node332&#45;&gt;Node335</title>
<path fill="none" stroke="#191970" d="M247.436,-133.3766C258.1848,-134.8459 269.4948,-136.3919 280.2543,-137.8626"/>
<polygon fill="#191970" stroke="#191970" points="247.7207,-129.8831 237.3388,-131.9964 246.7726,-136.8186 247.7207,-129.8831"/>
</g>
<!-- Node336 -->
<g id="node16" class="node">
<title>Node336</title>
<g id="a_node16"><a xlink:href="rlm__redis__ippool__tool_8c.html#a2d2b003d6eed13f297bbb4aa6644dc56" target="_top" xlink:title="Remove a range of leases. ">
<polygon fill="none" stroke="#000000" points="280,-97.6408 280,-116.6408 387,-116.6408 387,-97.6408 280,-97.6408"/>
<text text-anchor="middle" x="333.5" y="-104.6408" font-family="Helvetica,sans-Serif" font-size="10.00" fill="#000000">driver_remove_lease</text>
</a>
</g>
</g>
<!-- Node332&#45;&gt;Node336 -->
<g id="edge18" class="edge">
<title>Node332&#45;&gt;Node336</title>
<path fill="none" stroke="#191970" d="M247.3148,-118.9215C257.9329,-117.4701 269.1033,-115.9432 279.7528,-114.4875"/>
<polygon fill="#191970" stroke="#191970" points="246.7726,-115.463 237.3388,-120.2851 247.7207,-122.3985 246.7726,-115.463"/>
</g>
<!-- Node337 -->
<g id="node17" class="node">
<title>Node337</title>
<g id="a_node17"><a xlink:href="rlm__redis__ippool__tool_8c.html#a8fbc41fc553e02e6a07e3e787419818b" target="_top" xlink:title="Add a range of prefixes. ">
<polygon fill="none" stroke="#000000" points="288.5,-59.6408 288.5,-78.6408 378.5,-78.6408 378.5,-59.6408 288.5,-59.6408"/>
<text text-anchor="middle" x="333.5" y="-66.6408" font-family="Helvetica,sans-Serif" font-size="10.00" fill="#000000">driver_add_lease</text>
</a>
</g>
</g>
<!-- Node332&#45;&gt;Node337 -->
<g id="edge20" class="edge">
<title>Node332&#45;&gt;Node337</title>
<path fill="none" stroke="#191970" d="M223.7848,-112.4556C240.1848,-104.9613 261.0828,-95.6908 280,-88.1408 288.1474,-84.8891 297.0961,-81.6019 305.3042,-78.6969"/>
<polygon fill="#191970" stroke="#191970" points="222.3193,-109.2771 214.6975,-116.6364 225.245,-115.6364 222.3193,-109.2771"/>
</g>
<!-- Node338 -->
<g id="node18" class="node">
<title>Node338</title>
<g id="a_node18"><a xlink:href="rlm__redis__ippool__tool_8c.html#aae21c42dffc17d5350e011f9d41858c8" target="_top" xlink:title="Remove a range of leases. ">
<polygon fill="none" stroke="#000000" points="281.5,-21.6408 281.5,-40.6408 385.5,-40.6408 385.5,-21.6408 281.5,-21.6408"/>
<text text-anchor="middle" x="333.5" y="-28.6408" font-family="Helvetica,sans-Serif" font-size="10.00" fill="#000000">driver_modify_lease</text>
</a>
</g>
</g>
<!-- Node332&#45;&gt;Node338 -->
<g id="edge22" class="edge">
<title>Node332&#45;&gt;Node338</title>
<path fill="none" stroke="#191970" d="M210.0602,-108.8668C226.1384,-91.9073 252.6734,-66.2971 280,-50.1408 286.2786,-46.4287 293.3977,-43.2751 300.3467,-40.6672"/>
<polygon fill="#191970" stroke="#191970" points="207.2884,-106.7082 203.0495,-116.4181 212.4184,-111.4709 207.2884,-106.7082"/>
</g>
<!-- Node334 -->
<g id="node14" class="node">
<title>Node334</title>
<g id="a_node14"><a xlink:href="rlm__redis__ippool__tool_8c.html#a0ddf1224851353fc92bfbff6f499fa97" target="_top" xlink:title="main">
<polygon fill="none" stroke="#000000" points="437.5,-78.6408 437.5,-97.6408 475.5,-97.6408 475.5,-78.6408 437.5,-78.6408"/>
<text text-anchor="middle" x="456.5" y="-85.6408" font-family="Helvetica,sans-Serif" font-size="10.00" fill="#000000">main</text>
</a>
</g>
</g>
<!-- Node333&#45;&gt;Node334 -->
<g id="edge15" class="edge">
<title>Node333&#45;&gt;Node334</title>
<path fill="none" stroke="#191970" d="M377.6876,-169.4507C380.9342,-167.8456 384.0776,-166.0791 387,-164.1408 414.8632,-145.6601 439.1041,-113.6261 450.1473,-97.7004"/>
<polygon fill="#191970" stroke="#191970" points="376.1053,-166.323 368.3627,-173.5551 378.9254,-172.7299 376.1053,-166.323"/>
</g>
<!-- Node335&#45;&gt;Node334 -->
<g id="edge17" class="edge">
<title>Node335&#45;&gt;Node334</title>
<path fill="none" stroke="#191970" d="M372.4206,-132.1404C377.3755,-130.2457 382.34,-128.2263 387,-126.1408 405.9537,-117.6584 426.7281,-105.9618 440.581,-97.7939"/>
<polygon fill="#191970" stroke="#191970" points="371.1606,-128.8745 362.9863,-135.6148 373.5798,-135.4432 371.1606,-128.8745"/>
</g>
<!-- Node336&#45;&gt;Node334 -->
<g id="edge19" class="edge">
<title>Node336&#45;&gt;Node334</title>
<path fill="none" stroke="#191970" d="M397.1972,-97.3014C411.8145,-95.0434 426.266,-92.8111 437.2432,-91.1154"/>
<polygon fill="#191970" stroke="#191970" points="396.4402,-93.8767 387.0918,-98.8624 397.5089,-100.7947 396.4402,-93.8767"/>
</g>
<!-- Node337&#45;&gt;Node334 -->
<g id="edge21" class="edge">
<title>Node337&#45;&gt;Node334</title>
<path fill="none" stroke="#191970" d="M388.7554,-77.6762C406.2059,-80.3718 424.3339,-83.172 437.4415,-85.1968"/>
<polygon fill="#191970" stroke="#191970" points="389.0194,-74.1755 378.6022,-76.1078 387.9507,-81.0935 389.0194,-74.1755"/>
</g>
<!-- Node338&#45;&gt;Node334 -->
<g id="edge23" class="edge">
<title>Node338&#45;&gt;Node334</title>
<path fill="none" stroke="#191970" d="M372.4206,-44.1412C377.3755,-46.0359 382.34,-48.0553 387,-50.1408 405.9537,-58.6232 426.7281,-70.3198 440.581,-78.4877"/>
<polygon fill="#191970" stroke="#191970" points="373.5798,-40.8384 362.9863,-40.6668 371.1606,-47.4071 373.5798,-40.8384"/>
</g>
<!-- Node339&#45;&gt;Node334 -->
<g id="edge25" class="edge">
<title>Node339&#45;&gt;Node334</title>
<path fill="none" stroke="#191970" d="M227.652,-18.2672C267.3091,-4.9832 334.8715,10.8278 387,-12.1408 418.251,-25.9104 441.5572,-61.439 451.3777,-78.5932"/>
<polygon fill="#191970" stroke="#191970" points="226.4867,-14.9668 218.1973,-21.5649 228.7921,-21.5763 226.4867,-14.9668"/>
</g>
</g>
</svg>
