<?xml version="1.0" encoding="UTF-8" standalone="no"?>
<!DOCTYPE svg PUBLIC "-//W3C//DTD SVG 1.1//EN"
 "http://www.w3.org/Graphics/SVG/1.1/DTD/svg11.dtd">
<!-- Generated by graphviz version 2.40.1 (20161225.0304)
 -->
<!-- Title: fr_ring_buffer_alloc Pages: 1 -->
<svg width="898pt" height="708pt"
 viewBox="0.00 0.00 898.00 708.00" xmlns="http://www.w3.org/2000/svg" xmlns:xlink="http://www.w3.org/1999/xlink">
<g id="graph0" class="graph" transform="scale(1 1) rotate(0) translate(4 704)">
<title>fr_ring_buffer_alloc</title>
<!-- Node135 -->
<g id="node1" class="node">
<title>Node135</title>
<polygon fill="#bfbfbf" stroke="#000000" points="0,-190.5 0,-209.5 99,-209.5 99,-190.5 0,-190.5"/>
<text text-anchor="middle" x="49.5" y="-197.5" font-family="Helvetica,sans-Serif" font-size="10.00" fill="#000000">fr_ring_buffer_alloc</text>
</g>
<!-- Node136 -->
<g id="node2" class="node">
<title>Node136</title>
<g id="a_node2"><a xlink:href="io_2control_8c.html#a42235dc2f40909e5eb3d7edcbd961ac1" target="_top" xlink:title="Allocate a control message. ">
<polygon fill="none" stroke="#000000" points="141,-392 141,-422 243,-422 243,-392 141,-392"/>
<text text-anchor="start" x="149" y="-410" font-family="Helvetica,sans-Serif" font-size="10.00" fill="#000000">fr_control_message</text>
<text text-anchor="middle" x="192" y="-399" font-family="Helvetica,sans-Serif" font-size="10.00" fill="#000000">_alloc</text>
</a>
</g>
</g>
<!-- Node135&#45;&gt;Node136 -->
<g id="edge1" class="edge">
<title>Node135&#45;&gt;Node136</title>
<path fill="none" stroke="#191970" d="M61.8974,-218.0088C89.5195,-258.1336 155.711,-354.2854 181.481,-391.7197"/>
<polygon fill="#191970" stroke="#191970" points="64.7353,-215.9587 56.1819,-209.7064 58.9694,-219.928 64.7353,-215.9587"/>
</g>
<!-- Node216 -->
<g id="node15" class="node">
<title>Node216</title>
<g id="a_node15"><a xlink:href="message_8c.html#a189bcaac58671f1732fd0604a0cf96c1" target="_top" xlink:title="Allocate a message from a message ring. ">
<polygon fill="none" stroke="#000000" points="135,-266.5 135,-285.5 249,-285.5 249,-266.5 135,-266.5"/>
<text text-anchor="middle" x="192" y="-273.5" font-family="Helvetica,sans-Serif" font-size="10.00" fill="#000000">fr_message_ring_alloc</text>
</a>
</g>
</g>
<!-- Node135&#45;&gt;Node216 -->
<g id="edge14" class="edge">
<title>Node135&#45;&gt;Node216</title>
<path fill="none" stroke="#191970" d="M72.285,-215.13C89.2128,-226.0535 113.0711,-240.7926 135,-252 145.2302,-257.2284 156.8664,-262.279 166.946,-266.3869"/>
<polygon fill="#191970" stroke="#191970" points="73.9385,-212.0299 63.65,-209.5006 70.1156,-217.8938 73.9385,-212.0299"/>
</g>
<!-- Node217 -->
<g id="node16" class="node">
<title>Node217</title>
<g id="a_node16"><a xlink:href="message_8c.html#a0418cdb93e0854c61c4b51776b5c5285" target="_top" xlink:title="Allocate a fr_message_t, WITHOUT a ring buffer. ">
<polygon fill="none" stroke="#000000" points="285,-238.5 285,-257.5 416,-257.5 416,-238.5 285,-238.5"/>
<text text-anchor="middle" x="350.5" y="-245.5" font-family="Helvetica,sans-Serif" font-size="10.00" fill="#000000">fr_message_get_message</text>
</a>
</g>
</g>
<!-- Node135&#45;&gt;Node217 -->
<g id="edge32" class="edge">
<title>Node135&#45;&gt;Node217</title>
<path fill="none" stroke="#191970" d="M109.2593,-209.8306C117.8947,-211.238 126.6743,-212.6616 135,-214 187.1672,-222.3862 246.4709,-231.7287 289.6428,-238.4951"/>
<polygon fill="#191970" stroke="#191970" points="109.6575,-206.3494 99.2242,-208.1921 108.5295,-213.2579 109.6575,-206.3494"/>
</g>
<!-- Node219 -->
<g id="node18" class="node">
<title>Node219</title>
<g id="a_node18"><a xlink:href="message_8h.html#a159c24aa0394fd9e7fe1abc3bdaca124" target="_top" xlink:title="Allocate packet data for a message. ">
<polygon fill="none" stroke="#ff0000" points="639.5,-114.5 639.5,-133.5 732.5,-133.5 732.5,-114.5 639.5,-114.5"/>
<text text-anchor="middle" x="686" y="-121.5" font-family="Helvetica,sans-Serif" font-size="10.00" fill="#000000">fr_message_alloc</text>
</a>
</g>
</g>
<!-- Node135&#45;&gt;Node219 -->
<g id="edge33" class="edge">
<title>Node135&#45;&gt;Node219</title>
<path fill="none" stroke="#191970" d="M109.2337,-190.0042C117.8728,-188.6211 126.6603,-187.2482 135,-186 275.613,-164.955 310.648,-158.3144 452,-143 516.8345,-135.9757 592.0321,-130.3099 639.313,-127.0483"/>
<polygon fill="#191970" stroke="#191970" points="108.5097,-186.5757 99.1959,-191.6258 109.6261,-193.4861 108.5097,-186.5757"/>
</g>
<!-- Node222 -->
<g id="node24" class="node">
<title>Node222</title>
<g id="a_node24"><a xlink:href="message_8h.html#aeee3e9ba6cd5c0b87e7ac67c6e06719a" target="_top" xlink:title="Allocate packet data for a message, and reserve a new message. ">
<polygon fill="none" stroke="#000000" points="620.5,-266.5 620.5,-285.5 751.5,-285.5 751.5,-266.5 620.5,-266.5"/>
<text text-anchor="middle" x="686" y="-273.5" font-family="Helvetica,sans-Serif" font-size="10.00" fill="#000000">fr_message_alloc_reserve</text>
</a>
</g>
</g>
<!-- Node135&#45;&gt;Node222 -->
<g id="edge34" class="edge">
<title>Node135&#45;&gt;Node222</title>
<path fill="none" stroke="#191970" d="M109.317,-202.8549C208.0169,-208.2619 410.8981,-222.3178 580,-253 601.5857,-256.9166 625.4772,-262.0316 645.1056,-266.4433"/>
<polygon fill="#191970" stroke="#191970" points="109.4093,-199.3549 99.2358,-202.313 109.0335,-206.3448 109.4093,-199.3549"/>
</g>
<!-- Node223 -->
<g id="node25" class="node">
<title>Node223</title>
<g id="a_node25"><a xlink:href="message_8h.html#a6016519b7ab40877dfbb212e209d84ec" target="_top" xlink:title="Allocate an aligned pointer for packet (or struct data). ">
<polygon fill="none" stroke="#000000" points="621.5,-.5 621.5,-19.5 750.5,-19.5 750.5,-.5 621.5,-.5"/>
<text text-anchor="middle" x="686" y="-7.5" font-family="Helvetica,sans-Serif" font-size="10.00" fill="#000000">fr_message_alloc_aligned</text>
</a>
</g>
</g>
<!-- Node135&#45;&gt;Node223 -->
<g id="edge35" class="edge">
<title>Node135&#45;&gt;Node223</title>
<path fill="none" stroke="#191970" d="M80.4805,-186.3178C96.5749,-179.4661 116.6626,-171.3094 135,-165 323.402,-100.1763 554.6772,-41.8148 646.1017,-19.5563"/>
<polygon fill="#191970" stroke="#191970" points="78.8282,-183.2185 71.0268,-190.3871 81.5958,-189.6481 78.8282,-183.2185"/>
</g>
<!-- Node224 -->
<g id="node26" class="node">
<title>Node224</title>
<g id="a_node26"><a xlink:href="ring__buffer__test_8c.html#af4c0ae9d63d4c9993b4a5eaf386b94df" target="_top" xlink:title="alloc_blocks">
<polygon fill="none" stroke="#000000" points="156.5,-38.5 156.5,-57.5 227.5,-57.5 227.5,-38.5 156.5,-38.5"/>
<text text-anchor="middle" x="192" y="-45.5" font-family="Helvetica,sans-Serif" font-size="10.00" fill="#000000">alloc_blocks</text>
</a>
</g>
</g>
<!-- Node135&#45;&gt;Node224 -->
<g id="edge36" class="edge">
<title>Node135&#45;&gt;Node224</title>
<path fill="none" stroke="#191970" d="M57.824,-180.9542C70.7051,-153.4682 97.9064,-102.6277 135,-72 142.3689,-65.9156 151.5034,-61.161 160.2852,-57.547"/>
<polygon fill="#191970" stroke="#191970" points="54.5486,-179.702 53.5976,-190.2541 60.9214,-182.5982 54.5486,-179.702"/>
</g>
<!-- Node137 -->
<g id="node3" class="node">
<title>Node137</title>
<g id="a_node3"><a xlink:href="control_8h.html#ab19953e7fcc71c592e3cde2ac048841a" target="_top" xlink:title="Push a control&#45;plane message. ">
<polygon fill="none" stroke="#000000" points="286.5,-440.5 286.5,-459.5 414.5,-459.5 414.5,-440.5 286.5,-440.5"/>
<text text-anchor="middle" x="350.5" y="-447.5" font-family="Helvetica,sans-Serif" font-size="10.00" fill="#000000">fr_control_message_push</text>
</a>
</g>
</g>
<!-- Node136&#45;&gt;Node137 -->
<g id="edge2" class="edge">
<title>Node136&#45;&gt;Node137</title>
<path fill="none" stroke="#191970" d="M252.8622,-423.5115C273.9155,-429.2231 296.8013,-435.4319 315.1206,-440.4018"/>
<polygon fill="#191970" stroke="#191970" points="253.5904,-420.0826 243.0229,-420.8422 251.7576,-426.8384 253.5904,-420.0826"/>
</g>
<!-- Node138 -->
<g id="node4" class="node">
<title>Node138</title>
<g id="a_node4"><a xlink:href="control_8h.html#a991b4f6d08aa02cf4ffb69dcf0a09695" target="_top" xlink:title="Send a control&#45;plane message. ">
<polygon fill="none" stroke="#000000" points="452,-484.5 452,-503.5 580,-503.5 580,-484.5 452,-484.5"/>
<text text-anchor="middle" x="516" y="-491.5" font-family="Helvetica,sans-Serif" font-size="10.00" fill="#000000">fr_control_message_send</text>
</a>
</g>
</g>
<!-- Node137&#45;&gt;Node138 -->
<g id="edge3" class="edge">
<title>Node137&#45;&gt;Node138</title>
<path fill="none" stroke="#191970" d="M396.2182,-462.1547C422.7012,-469.1955 455.5595,-477.9312 480.159,-484.4713"/>
<polygon fill="#191970" stroke="#191970" points="396.9746,-458.7343 386.411,-459.5473 395.176,-465.4993 396.9746,-458.7343"/>
</g>
<!-- Node139 -->
<g id="node5" class="node">
<title>Node139</title>
<g id="a_node5"><a xlink:href="channel_8c.html#a6aa2b1dcbfe62563d864652de2dbd34e" target="_top" xlink:title="Send a message via a kq user signal. ">
<polygon fill="none" stroke="#ff0000" points="628.5,-528.5 628.5,-547.5 743.5,-547.5 743.5,-528.5 628.5,-528.5"/>
<text text-anchor="middle" x="686" y="-535.5" font-family="Helvetica,sans-Serif" font-size="10.00" fill="#000000">fr_channel_data_ready</text>
</a>
</g>
</g>
<!-- Node138&#45;&gt;Node139 -->
<g id="edge4" class="edge">
<title>Node138&#45;&gt;Node139</title>
<path fill="none" stroke="#191970" d="M562.6022,-506.0617C589.8669,-513.1185 623.8048,-521.9024 649.1845,-528.4713"/>
<polygon fill="#191970" stroke="#191970" points="563.4455,-502.6647 552.8875,-503.5473 561.6915,-509.4414 563.4455,-502.6647"/>
</g>
<!-- Node185 -->
<g id="node6" class="node">
<title>Node185</title>
<g id="a_node6"><a xlink:href="channel_8h.html#ad2c26a0aad915866b1430ef858c9bd93" target="_top" xlink:title="Signal a channel that the responder is sleeping. ">
<polygon fill="none" stroke="#000000" points="631,-479 631,-509 741,-509 741,-479 631,-479"/>
<text text-anchor="start" x="639" y="-497" font-family="Helvetica,sans-Serif" font-size="10.00" fill="#000000">fr_channel_responder</text>
<text text-anchor="middle" x="686" y="-486" font-family="Helvetica,sans-Serif" font-size="10.00" fill="#000000">_sleeping</text>
</a>
</g>
</g>
<!-- Node138&#45;&gt;Node185 -->
<g id="edge5" class="edge">
<title>Node138&#45;&gt;Node185</title>
<path fill="none" stroke="#191970" d="M590.5278,-494C604.0643,-494 617.9605,-494 630.815,-494"/>
<polygon fill="#191970" stroke="#191970" points="590.2697,-490.5001 580.2697,-494 590.2697,-497.5001 590.2697,-490.5001"/>
</g>
<!-- Node186 -->
<g id="node7" class="node">
<title>Node186</title>
<g id="a_node7"><a xlink:href="channel_8h.html#a52e1218f0e57b211155bf1248967eee4" target="_top" xlink:title="Signal a responder that the channel is closing. ">
<polygon fill="none" stroke="#ff0000" points="616,-430 616,-460 756,-460 756,-430 616,-430"/>
<text text-anchor="start" x="624" y="-448" font-family="Helvetica,sans-Serif" font-size="10.00" fill="#000000">fr_channel_signal_responder</text>
<text text-anchor="middle" x="686" y="-437" font-family="Helvetica,sans-Serif" font-size="10.00" fill="#000000">_close</text>
</a>
</g>
</g>
<!-- Node138&#45;&gt;Node186 -->
<g id="edge6" class="edge">
<title>Node138&#45;&gt;Node186</title>
<path fill="none" stroke="#191970" d="M558.9015,-481.6343C581.6633,-475.0735 609.8132,-466.9597 633.8309,-460.037"/>
<polygon fill="#191970" stroke="#191970" points="557.8207,-478.3032 549.1813,-484.436 559.7595,-485.0294 557.8207,-478.3032"/>
</g>
<!-- Node192 -->
<g id="node8" class="node">
<title>Node192</title>
<g id="a_node8"><a xlink:href="channel_8h.html#aed3861ac1807f11561633edccad0cf3a" target="_top" xlink:title="Acknowledge that the channel is closing. ">
<polygon fill="none" stroke="#ff0000" points="631,-381 631,-411 741,-411 741,-381 631,-381"/>
<text text-anchor="start" x="639" y="-399" font-family="Helvetica,sans-Serif" font-size="10.00" fill="#000000">fr_channel_responder</text>
<text text-anchor="middle" x="686" y="-388" font-family="Helvetica,sans-Serif" font-size="10.00" fill="#000000">_ack_close</text>
</a>
</g>
</g>
<!-- Node138&#45;&gt;Node192 -->
<g id="edge7" class="edge">
<title>Node138&#45;&gt;Node192</title>
<path fill="none" stroke="#191970" d="M534.7153,-477.7745C554.0294,-461.6681 585.55,-437.1168 616,-421 622.9574,-417.3176 630.5736,-413.9706 638.1396,-411.0083"/>
<polygon fill="#191970" stroke="#191970" points="532.3585,-475.1839 526.9858,-484.3154 536.8803,-480.5274 532.3585,-475.1839"/>
</g>
<!-- Node194 -->
<g id="node9" class="node">
<title>Node194</title>
<g id="a_node9"><a xlink:href="channel_8h.html#aee7a670a9bf927bdc824e8610d708b85" target="_top" xlink:title="Send a channel to a responder. ">
<polygon fill="none" stroke="#ff0000" points="626.5,-342.5 626.5,-361.5 745.5,-361.5 745.5,-342.5 626.5,-342.5"/>
<text text-anchor="middle" x="686" y="-349.5" font-family="Helvetica,sans-Serif" font-size="10.00" fill="#000000">fr_channel_signal_open</text>
</a>
</g>
</g>
<!-- Node138&#45;&gt;Node194 -->
<g id="edge8" class="edge">
<title>Node138&#45;&gt;Node194</title>
<path fill="none" stroke="#191970" d="M526.1051,-475.6393C541.8093,-448.8227 574.6169,-399.1861 616,-372 622.655,-367.6281 630.2739,-364.1967 637.9791,-361.5077"/>
<polygon fill="#191970" stroke="#191970" points="523.0212,-473.9819 521.1091,-484.4028 529.1024,-477.4488 523.0212,-473.9819"/>
</g>
<!-- Node195 -->
<g id="node10" class="node">
<title>Node195</title>
<g id="a_node10"><a xlink:href="network_8h.html#a1f14ab2c1d9492c62e7196634b5232d0" target="_top" xlink:title="Add a fr_listen_t to a network. ">
<polygon fill="none" stroke="#ff0000" points="630,-304.5 630,-323.5 742,-323.5 742,-304.5 630,-304.5"/>
<text text-anchor="middle" x="686" y="-311.5" font-family="Helvetica,sans-Serif" font-size="10.00" fill="#000000">fr_network_listen_add</text>
</a>
</g>
</g>
<!-- Node138&#45;&gt;Node195 -->
<g id="edge9" class="edge">
<title>Node138&#45;&gt;Node195</title>
<path fill="none" stroke="#191970" d="M522.615,-474.5863C535.2246,-440.56 565.9892,-370.2366 616,-333 621.2521,-329.0894 627.2588,-325.9836 633.4967,-323.5169"/>
<polygon fill="#191970" stroke="#191970" points="519.2237,-473.6758 519.1575,-484.2704 525.8162,-476.0295 519.2237,-473.6758"/>
</g>
<!-- Node209 -->
<g id="node11" class="node">
<title>Node209</title>
<g id="a_node11"><a xlink:href="network_8h.html#a40894f943a01cc66de707cf8e5d8f66f" target="_top" xlink:title="Add a &quot;watch directory&quot; call to a network. ">
<polygon fill="none" stroke="#ff0000" points="623,-680.5 623,-699.5 749,-699.5 749,-680.5 623,-680.5"/>
<text text-anchor="middle" x="686" y="-687.5" font-family="Helvetica,sans-Serif" font-size="10.00" fill="#000000">fr_network_directory_add</text>
</a>
</g>
</g>
<!-- Node138&#45;&gt;Node209 -->
<g id="edge10" class="edge">
<title>Node138&#45;&gt;Node209</title>
<path fill="none" stroke="#191970" d="M521.5713,-513.7863C532.961,-550.5399 562.464,-629.3829 616,-671 620.9709,-674.8642 626.6704,-677.9438 632.6242,-680.3978"/>
<polygon fill="#191970" stroke="#191970" points="524.8134,-512.409 518.6115,-503.8191 518.103,-514.4017 524.8134,-512.409"/>
</g>
<!-- Node212 -->
<g id="node12" class="node">
<title>Node212</title>
<g id="a_node12"><a xlink:href="network_8h.html#a2815d31ae4124c14f95685fb4353e893" target="_top" xlink:title="Add a worker to a network. ">
<polygon fill="none" stroke="#ff0000" points="627,-642.5 627,-661.5 745,-661.5 745,-642.5 627,-642.5"/>
<text text-anchor="middle" x="686" y="-649.5" font-family="Helvetica,sans-Serif" font-size="10.00" fill="#000000">fr_network_worker_add</text>
</a>
</g>
</g>
<!-- Node138&#45;&gt;Node212 -->
<g id="edge11" class="edge">
<title>Node138&#45;&gt;Node212</title>
<path fill="none" stroke="#191970" d="M524.5484,-513.2714C538.9568,-543.4917 570.9768,-601.7932 616,-633 621.5887,-636.8737 627.9343,-639.9586 634.4688,-642.415"/>
<polygon fill="#191970" stroke="#191970" points="527.5646,-511.4545 520.194,-503.8436 521.2096,-514.3897 527.5646,-511.4545"/>
</g>
<!-- Node213 -->
<g id="node13" class="node">
<title>Node213</title>
<g id="a_node13"><a xlink:href="network_8h.html#a75d3e27d332d829c43e109210f39809b" target="_top" xlink:title="Inject a packet for a listener to read. ">
<polygon fill="none" stroke="#ff0000" points="626.5,-604.5 626.5,-623.5 745.5,-623.5 745.5,-604.5 626.5,-604.5"/>
<text text-anchor="middle" x="686" y="-611.5" font-family="Helvetica,sans-Serif" font-size="10.00" fill="#000000">fr_network_listen_inject</text>
</a>
</g>
</g>
<!-- Node138&#45;&gt;Node213 -->
<g id="edge12" class="edge">
<title>Node138&#45;&gt;Node213</title>
<path fill="none" stroke="#191970" d="M528.8151,-511.8282C546.0713,-534.5285 578.9239,-573.3905 616,-595 622.6365,-598.868 630.0847,-601.9715 637.581,-604.4551"/>
<polygon fill="#191970" stroke="#191970" points="531.5663,-509.6623 522.7942,-503.7208 525.9465,-513.8358 531.5663,-509.6623"/>
</g>
<!-- Node214 -->
<g id="node14" class="node">
<title>Node214</title>
<g id="a_node14"><a xlink:href="control__test_8c.html#a69c3592338f71fbb7a79fcfeda8c7b05" target="_top" xlink:title="control_worker">
<polygon fill="none" stroke="#ff0000" points="646,-566.5 646,-585.5 726,-585.5 726,-566.5 646,-566.5"/>
<text text-anchor="middle" x="686" y="-573.5" font-family="Helvetica,sans-Serif" font-size="10.00" fill="#000000">control_worker</text>
</a>
</g>
</g>
<!-- Node138&#45;&gt;Node214 -->
<g id="edge13" class="edge">
<title>Node138&#45;&gt;Node214</title>
<path fill="none" stroke="#191970" d="M536.7294,-509.65C556.2719,-523.7584 586.8347,-544.1983 616,-557 625.3398,-561.0996 635.7772,-564.507 645.6825,-567.2499"/>
<polygon fill="#191970" stroke="#191970" points="538.7035,-506.7574 528.5705,-503.6634 534.5624,-512.4011 538.7035,-506.7574"/>
</g>
<!-- Node216&#45;&gt;Node217 -->
<g id="edge15" class="edge">
<title>Node216&#45;&gt;Node217</title>
<path fill="none" stroke="#191970" d="M256.2193,-264.6553C269.6347,-262.2854 283.6467,-259.81 296.6404,-257.5146"/>
<polygon fill="#191970" stroke="#191970" points="255.342,-261.256 246.1034,-266.4423 256.5598,-268.1492 255.342,-261.256"/>
</g>
<!-- Node218 -->
<g id="node17" class="node">
<title>Node218</title>
<g id="a_node17"><a xlink:href="message_8h.html#a645a2c7627bc7bb65a417ef13a1d2fe1" target="_top" xlink:title="Reserve a message. ">
<polygon fill="none" stroke="#000000" points="463.5,-152.5 463.5,-171.5 568.5,-171.5 568.5,-152.5 463.5,-152.5"/>
<text text-anchor="middle" x="516" y="-159.5" font-family="Helvetica,sans-Serif" font-size="10.00" fill="#000000">fr_message_reserve</text>
</a>
</g>
</g>
<!-- Node217&#45;&gt;Node218 -->
<g id="edge16" class="edge">
<title>Node217&#45;&gt;Node218</title>
<path fill="none" stroke="#191970" d="M377.7396,-233.8453C411.5914,-216.2546 468.4433,-186.7123 497.5741,-171.5748"/>
<polygon fill="#191970" stroke="#191970" points="376.1034,-230.7511 368.8437,-238.4679 379.3311,-236.9626 376.1034,-230.7511"/>
</g>
<!-- Node217&#45;&gt;Node222 -->
<g id="edge31" class="edge">
<title>Node217&#45;&gt;Node222</title>
<path fill="none" stroke="#191970" d="M426.6538,-254.3556C485.0058,-259.2255 564.683,-265.8752 620.267,-270.5141"/>
<polygon fill="#191970" stroke="#191970" points="426.6402,-250.8424 416.3837,-253.4985 426.0579,-257.8181 426.6402,-250.8424"/>
</g>
<!-- Node218&#45;&gt;Node219 -->
<g id="edge17" class="edge">
<title>Node218&#45;&gt;Node219</title>
<path fill="none" stroke="#191970" d="M568.8981,-150.1757C592.865,-144.8184 620.8235,-138.5689 643.4103,-133.5201"/>
<polygon fill="#191970" stroke="#191970" points="567.8938,-146.8138 558.8982,-152.411 569.4209,-153.6452 567.8938,-146.8138"/>
</g>
<!-- Node142 -->
<g id="node19" class="node">
<title>Node142</title>
<g id="a_node19"><a xlink:href="network_8c.html#ab0f32c3de1c23395f20b242faa32cf5d" target="_top" xlink:title="Read a packet from the network. ">
<polygon fill="none" stroke="#ff0000" points="798,-228.5 798,-247.5 884,-247.5 884,-228.5 798,-228.5"/>
<text text-anchor="middle" x="841" y="-235.5" font-family="Helvetica,sans-Serif" font-size="10.00" fill="#000000">fr_network_read</text>
</a>
</g>
</g>
<!-- Node218&#45;&gt;Node142 -->
<g id="edge26" class="edge">
<title>Node218&#45;&gt;Node142</title>
<path fill="none" stroke="#191970" d="M555.3144,-174.6844C573.6499,-180.3704 595.83,-186.9236 616,-192 678.6368,-207.7646 752.1006,-221.9979 797.6054,-230.325"/>
<polygon fill="#191970" stroke="#191970" points="556.1498,-171.2785 545.5608,-171.6296 554.0576,-177.9585 556.1498,-171.2785"/>
</g>
<!-- Node164 -->
<g id="node20" class="node">
<title>Node164</title>
<g id="a_node20"><a xlink:href="worker_8c.html#a52f1ef4738c4307127a9b1b71e2b9a1c" target="_top" xlink:title="Send a NAK to the network thread. ">
<polygon fill="none" stroke="#ff0000" points="807.5,-181.5 807.5,-200.5 874.5,-200.5 874.5,-181.5 807.5,-181.5"/>
<text text-anchor="middle" x="841" y="-188.5" font-family="Helvetica,sans-Serif" font-size="10.00" fill="#000000">worker_nak</text>
</a>
</g>
</g>
<!-- Node218&#45;&gt;Node164 -->
<g id="edge27" class="edge">
<title>Node218&#45;&gt;Node164</title>
<path fill="none" stroke="#191970" d="M578.7738,-167.6014C647.0221,-173.6912 753.5347,-183.1954 807.3941,-188.0013"/>
<polygon fill="#191970" stroke="#191970" points="578.8496,-164.0943 568.5781,-166.6916 578.2274,-171.0666 578.8496,-164.0943"/>
</g>
<!-- Node169 -->
<g id="node21" class="node">
<title>Node169</title>
<g id="a_node21"><a xlink:href="worker_8c.html#a9a6f5ecd71f625ee95a9a34706b653fa" target="_top" xlink:title="Send a response packet to the network side. ">
<polygon fill="none" stroke="#ff0000" points="792,-124.5 792,-143.5 890,-143.5 890,-124.5 792,-124.5"/>
<text text-anchor="middle" x="841" y="-131.5" font-family="Helvetica,sans-Serif" font-size="10.00" fill="#000000">worker_send_reply</text>
</a>
</g>
</g>
<!-- Node218&#45;&gt;Node169 -->
<g id="edge28" class="edge">
<title>Node218&#45;&gt;Node169</title>
<path fill="none" stroke="#191970" d="M578.961,-157.4735C627.3937,-153.8806 695.9682,-148.5534 756,-143 767.5255,-141.9338 779.9186,-140.6818 791.5807,-139.4562"/>
<polygon fill="#191970" stroke="#191970" points="578.6571,-153.9863 568.9421,-158.2133 579.1727,-160.9673 578.6571,-153.9863"/>
</g>
<!-- Node220 -->
<g id="node22" class="node">
<title>Node220</title>
<g id="a_node22"><a xlink:href="message__set__test_8c.html#af839912c5e2d2e6af82d525c25cc26df" target="_top" xlink:title="alloc_blocks">
<polygon fill="none" stroke="#ff0000" points="805.5,-81.5 805.5,-100.5 876.5,-100.5 876.5,-81.5 805.5,-81.5"/>
<text text-anchor="middle" x="841" y="-88.5" font-family="Helvetica,sans-Serif" font-size="10.00" fill="#000000">alloc_blocks</text>
</a>
</g>
</g>
<!-- Node218&#45;&gt;Node220 -->
<g id="edge29" class="edge">
<title>Node218&#45;&gt;Node220</title>
<path fill="none" stroke="#191970" d="M536.7323,-146.3964C556.1068,-132.7711 586.4106,-113.8333 616,-105 680.692,-85.6877 760.3614,-86.0451 805.4508,-88.3329"/>
<polygon fill="#191970" stroke="#191970" points="534.4591,-143.7206 528.3958,-152.4089 538.5538,-149.398 534.4591,-143.7206"/>
</g>
<!-- Node161 -->
<g id="node23" class="node">
<title>Node161</title>
<g id="a_node23"><a xlink:href="radius1__test_8c.html#ac046ffa2faf3171fac1a83b267bf6e0d" target="_top" xlink:title="master_process">
<polygon fill="none" stroke="#ff0000" points="798,-43.5 798,-62.5 884,-62.5 884,-43.5 798,-43.5"/>
<text text-anchor="middle" x="841" y="-50.5" font-family="Helvetica,sans-Serif" font-size="10.00" fill="#000000">master_process</text>
</a>
</g>
</g>
<!-- Node218&#45;&gt;Node161 -->
<g id="edge30" class="edge">
<title>Node218&#45;&gt;Node161</title>
<path fill="none" stroke="#191970" d="M531.8215,-145.2131C550.1828,-126.8827 582.2802,-98.2434 616,-84 675.5712,-58.8368 751.1569,-53.1915 797.7904,-52.3838"/>
<polygon fill="#191970" stroke="#191970" points="529.3167,-142.7685 524.8286,-152.3658 534.3221,-147.662 529.3167,-142.7685"/>
</g>
<!-- Node218&#45;&gt;Node222 -->
<g id="edge23" class="edge">
<title>Node218&#45;&gt;Node222</title>
<path fill="none" stroke="#191970" d="M564.5201,-175.8467C570.0899,-178.6593 575.4082,-182.0122 580,-186 605.2277,-207.9091 590.463,-230.4523 616,-252 623.4623,-258.2966 632.6633,-262.9698 641.913,-266.4286"/>
<polygon fill="#191970" stroke="#191970" points="565.5519,-172.4751 554.9927,-171.607 562.7059,-178.8704 565.5519,-172.4751"/>
</g>
<!-- Node218&#45;&gt;Node223 -->
<g id="edge25" class="edge">
<title>Node218&#45;&gt;Node223</title>
<path fill="none" stroke="#191970" d="M535.6908,-145.7424C549.2,-133.9523 566.9696,-117.1297 580,-100 600.2294,-73.4065 590.463,-55.5477 616,-34 623.4623,-27.7034 632.6633,-23.0302 641.913,-19.5714"/>
<polygon fill="#191970" stroke="#191970" points="533.2391,-143.2336 527.9104,-152.3909 537.7866,-148.5553 533.2391,-143.2336"/>
</g>
<!-- Node219&#45;&gt;Node142 -->
<g id="edge18" class="edge">
<title>Node219&#45;&gt;Node142</title>
<path fill="none" stroke="#191970" d="M704.3417,-140.4239C724.9296,-158.4856 759.6908,-187.8782 792,-210 801.7014,-216.6424 813.0743,-223.2099 822.4201,-228.3132"/>
<polygon fill="#191970" stroke="#191970" points="706.4928,-137.654 696.6827,-133.6524 701.8562,-142.8982 706.4928,-137.654"/>
</g>
<!-- Node219&#45;&gt;Node164 -->
<g id="edge19" class="edge">
<title>Node219&#45;&gt;Node164</title>
<path fill="none" stroke="#191970" d="M717.4353,-137.5882C747.5615,-150.6105 792.2642,-169.9336 818.8335,-181.4183"/>
<polygon fill="#191970" stroke="#191970" points="718.7756,-134.3546 708.2077,-133.5995 715.9981,-140.78 718.7756,-134.3546"/>
</g>
<!-- Node219&#45;&gt;Node169 -->
<g id="edge20" class="edge">
<title>Node219&#45;&gt;Node169</title>
<path fill="none" stroke="#191970" d="M742.8476,-127.6676C758.9149,-128.7042 776.2596,-129.8232 791.8339,-130.828"/>
<polygon fill="#191970" stroke="#191970" points="742.7097,-124.1515 732.5051,-127.0003 742.259,-131.137 742.7097,-124.1515"/>
</g>
<!-- Node219&#45;&gt;Node220 -->
<g id="edge21" class="edge">
<title>Node219&#45;&gt;Node220</title>
<path fill="none" stroke="#191970" d="M740.7622,-112.341C762.1235,-107.7931 786.0135,-102.7068 805.1113,-98.6408"/>
<polygon fill="#191970" stroke="#191970" points="739.8844,-108.9493 730.8324,-114.455 741.3421,-115.7959 739.8844,-108.9493"/>
</g>
<!-- Node219&#45;&gt;Node161 -->
<g id="edge22" class="edge">
<title>Node219&#45;&gt;Node161</title>
<path fill="none" stroke="#191970" d="M713.2284,-109.8369C734.4613,-98.9896 764.8107,-83.9141 792,-72 799.4377,-68.7409 807.6263,-65.4514 815.1446,-62.5467"/>
<polygon fill="#191970" stroke="#191970" points="711.4537,-106.8137 704.1583,-114.4967 714.6526,-113.0401 711.4537,-106.8137"/>
</g>
<!-- Node222&#45;&gt;Node142 -->
<g id="edge24" class="edge">
<title>Node222&#45;&gt;Node142</title>
<path fill="none" stroke="#191970" d="M735.1105,-263.96C756.7647,-258.6512 781.8502,-252.5012 802.1682,-247.5201"/>
<polygon fill="#191970" stroke="#191970" points="733.992,-260.6305 725.113,-266.411 735.6588,-267.4292 733.992,-260.6305"/>
</g>
<!-- Node225 -->
<g id="node27" class="node">
<title>Node225</title>
<g id="a_node27"><a xlink:href="ring__buffer__test_8c.html#a0ddf1224851353fc92bfbff6f499fa97" target="_top" xlink:title="main">
<polygon fill="none" stroke="#000000" points="331.5,-38.5 331.5,-57.5 369.5,-57.5 369.5,-38.5 331.5,-38.5"/>
<text text-anchor="middle" x="350.5" y="-45.5" font-family="Helvetica,sans-Serif" font-size="10.00" fill="#000000">main</text>
</a>
</g>
</g>
<!-- Node224&#45;&gt;Node225 -->
<g id="edge37" class="edge">
<title>Node224&#45;&gt;Node225</title>
<path fill="none" stroke="#191970" d="M237.7544,-48C268.8426,-48 308.3584,-48 331.4009,-48"/>
<polygon fill="#191970" stroke="#191970" points="237.5705,-44.5001 227.5705,-48 237.5705,-51.5001 237.5705,-44.5001"/>
</g>
</g>
</svg>
