<?xml version="1.0" encoding="UTF-8" standalone="no"?>
<!DOCTYPE svg PUBLIC "-//W3C//DTD SVG 1.1//EN"
 "http://www.w3.org/Graphics/SVG/1.1/DTD/svg11.dtd">
<!-- Generated by graphviz version 2.40.1 (20161225.0304)
 -->
<!-- Title: parse_options Pages: 1 -->
<svg width="442pt" height="123pt"
 viewBox="0.00 0.00 442.00 123.00" xmlns="http://www.w3.org/2000/svg" xmlns:xlink="http://www.w3.org/1999/xlink">
<g id="graph0" class="graph" transform="scale(1 1) rotate(0) translate(4 119)">
<title>parse_options</title>
<!-- Node3376 -->
<g id="node1" class="node">
<title>Node3376</title>
<polygon fill="#bfbfbf" stroke="#000000" points="0,-57.5 0,-76.5 77,-76.5 77,-57.5 0,-57.5"/>
<text text-anchor="middle" x="38.5" y="-64.5" font-family="Helvetica,sans-Serif" font-size="10.00" fill="#000000">parse_options</text>
</g>
<!-- Node3377 -->
<g id="node2" class="node">
<title>Node3377</title>
<g id="a_node2"><a xlink:href="rlm__isc__dhcp_8c.html#a2efa2494f2ce9a7ea924b33ac3f71436" target="_top" xlink:title="match_keyword">
<polygon fill="none" stroke="#000000" points="113,-57.5 113,-76.5 199,-76.5 199,-57.5 113,-57.5"/>
<text text-anchor="middle" x="156" y="-64.5" font-family="Helvetica,sans-Serif" font-size="10.00" fill="#000000">match_keyword</text>
</a>
</g>
</g>
<!-- Node3376&#45;&gt;Node3377 -->
<g id="edge1" class="edge">
<title>Node3376&#45;&gt;Node3377</title>
<path fill="none" stroke="#191970" d="M87.389,-67C95.8134,-67 104.5163,-67 112.7779,-67"/>
<polygon fill="#191970" stroke="#191970" points="87.2996,-63.5001 77.2995,-67 87.2995,-70.5001 87.2996,-63.5001"/>
</g>
<!-- Node3378 -->
<g id="node3" class="node">
<title>Node3378</title>
<g id="a_node3"><a xlink:href="rlm__isc__dhcp_8c.html#a71e481c6759d89332d4336f03e1ea1b1" target="_top" xlink:title="Parse a section { ... ">
<polygon fill="none" stroke="#000000" points="235,-95.5 235,-114.5 312,-114.5 312,-95.5 235,-95.5"/>
<text text-anchor="middle" x="273.5" y="-102.5" font-family="Helvetica,sans-Serif" font-size="10.00" fill="#000000">parse_section</text>
</a>
</g>
</g>
<!-- Node3377&#45;&gt;Node3378 -->
<g id="edge2" class="edge">
<title>Node3377&#45;&gt;Node3378</title>
<path fill="none" stroke="#191970" d="M195.2092,-79.6804C211.0854,-84.8148 229.11,-90.6441 243.8593,-95.4141"/>
<polygon fill="#191970" stroke="#191970" points="196.242,-76.336 185.6502,-76.589 194.088,-82.9964 196.242,-76.336"/>
</g>
<!-- Node3380 -->
<g id="node5" class="node">
<title>Node3380</title>
<g id="a_node5"><a xlink:href="rlm__isc__dhcp_8c.html#aad1cff7dab6f83233afa014028f89f89" target="_top" xlink:title="Open a file and read it into a parent. ">
<polygon fill="none" stroke="#000000" points="247,-19.5 247,-38.5 300,-38.5 300,-19.5 247,-19.5"/>
<text text-anchor="middle" x="273.5" y="-26.5" font-family="Helvetica,sans-Serif" font-size="10.00" fill="#000000">read_file</text>
</a>
</g>
</g>
<!-- Node3377&#45;&gt;Node3380 -->
<g id="edge5" class="edge">
<title>Node3377&#45;&gt;Node3380</title>
<path fill="none" stroke="#191970" d="M195.2641,-54.3018C212.1516,-48.8403 231.4615,-42.5954 246.672,-37.6763"/>
<polygon fill="#191970" stroke="#191970" points="194.088,-51.0036 185.6502,-57.411 196.242,-57.664 194.088,-51.0036"/>
</g>
<!-- Node3379 -->
<g id="node4" class="node">
<title>Node3379</title>
<g id="a_node4"><a xlink:href="rlm__isc__dhcp_8c.html#afb82f7ae5bd2b5ead2142520259976ab" target="_top" xlink:title="Recursively match subwords inside of a command string. ">
<polygon fill="none" stroke="#000000" points="348,-85.5 348,-104.5 434,-104.5 434,-85.5 348,-85.5"/>
<text text-anchor="middle" x="391" y="-92.5" font-family="Helvetica,sans-Serif" font-size="10.00" fill="#000000">match_subword</text>
</a>
</g>
</g>
<!-- Node3378&#45;&gt;Node3379 -->
<g id="edge3" class="edge">
<title>Node3378&#45;&gt;Node3379</title>
<path fill="none" stroke="#191970" d="M322.389,-100.8392C330.8134,-100.1223 339.5163,-99.3816 347.7779,-98.6785"/>
<polygon fill="#191970" stroke="#191970" points="321.9667,-97.3624 312.2995,-101.6979 322.5603,-104.3372 321.9667,-97.3624"/>
</g>
<!-- Node3379&#45;&gt;Node3377 -->
<g id="edge4" class="edge">
<title>Node3379&#45;&gt;Node3377</title>
<path fill="none" stroke="#191970" d="M337.7447,-88.6547C295.8246,-83.6599 238.152,-76.7883 199.1026,-72.1356"/>
<polygon fill="#191970" stroke="#191970" points="337.4295,-92.1418 347.7734,-89.8496 338.2577,-85.191 337.4295,-92.1418"/>
</g>
<!-- Node3381 -->
<g id="node6" class="node">
<title>Node3381</title>
<g id="a_node6"><a xlink:href="rlm__isc__dhcp_8c.html#a32a5ec56b4d51c1d371372883509b186" target="_top" xlink:title="parse_include">
<polygon fill="none" stroke="#000000" points="352.5,-38.5 352.5,-57.5 429.5,-57.5 429.5,-38.5 352.5,-38.5"/>
<text text-anchor="middle" x="391" y="-45.5" font-family="Helvetica,sans-Serif" font-size="10.00" fill="#000000">parse_include</text>
</a>
</g>
</g>
<!-- Node3380&#45;&gt;Node3381 -->
<g id="edge6" class="edge">
<title>Node3380&#45;&gt;Node3381</title>
<path fill="none" stroke="#191970" d="M310.0403,-34.9086C323.4972,-37.0847 338.7771,-39.5554 352.4091,-41.7598"/>
<polygon fill="#191970" stroke="#191970" points="310.5931,-31.4526 300.1626,-33.3114 309.4756,-38.3629 310.5931,-31.4526"/>
</g>
<!-- Node3382 -->
<g id="node7" class="node">
<title>Node3382</title>
<g id="a_node7"><a xlink:href="rlm__isc__dhcp_8c.html#a3c32864d8c9d017bf4625d54f415b2db" target="_top" xlink:title="mod_instantiate">
<polygon fill="none" stroke="#000000" points="348,-.5 348,-19.5 434,-19.5 434,-.5 348,-.5"/>
<text text-anchor="middle" x="391" y="-7.5" font-family="Helvetica,sans-Serif" font-size="10.00" fill="#000000">mod_instantiate</text>
</a>
</g>
</g>
<!-- Node3380&#45;&gt;Node3382 -->
<g id="edge7" class="edge">
<title>Node3380&#45;&gt;Node3382</title>
<path fill="none" stroke="#191970" d="M310.221,-23.0621C322.1507,-21.1331 335.4976,-18.9749 347.8521,-16.9771"/>
<polygon fill="#191970" stroke="#191970" points="309.4756,-19.6371 300.1626,-24.6886 310.5931,-26.5474 309.4756,-19.6371"/>
</g>
</g>
</svg>
