<?xml version="1.0" encoding="UTF-8" standalone="no"?>
<!DOCTYPE svg PUBLIC "-//W3C//DTD SVG 1.1//EN"
 "http://www.w3.org/Graphics/SVG/1.1/DTD/svg11.dtd">
<!-- Generated by graphviz version 2.40.1 (20161225.0304)
 -->
<!-- Title: detail_fr_pair_fprint Pages: 1 -->
<svg width="582pt" height="116pt"
 viewBox="0.00 0.00 582.00 116.00" xmlns="http://www.w3.org/2000/svg" xmlns:xlink="http://www.w3.org/1999/xlink">
<g id="graph0" class="graph" transform="scale(1 1) rotate(0) translate(4 112)">
<title>detail_fr_pair_fprint</title>
<!-- Node694 -->
<g id="node1" class="node">
<title>Node694</title>
<polygon fill="#bfbfbf" stroke="#000000" points="0,-44.5 0,-63.5 99,-63.5 99,-44.5 0,-44.5"/>
<text text-anchor="middle" x="49.5" y="-51.5" font-family="Helvetica,sans-Serif" font-size="10.00" fill="#000000">detail_fr_pair_fprint</text>
</g>
<!-- Node695 -->
<g id="node2" class="node">
<title>Node695</title>
<g id="a_node2"><a xlink:href="util_2pair_8h.html#a963d3fae3d441a2b201031dc0467ea53" target="_top" xlink:title="Print one attribute and value to FP. ">
<polygon fill="none" stroke="#000000" points="135,-44.5 135,-63.5 206,-63.5 206,-44.5 135,-44.5"/>
<text text-anchor="middle" x="170.5" y="-51.5" font-family="Helvetica,sans-Serif" font-size="10.00" fill="#000000">fr_pair_fprint</text>
</a>
</g>
</g>
<!-- Node694&#45;&gt;Node695 -->
<g id="edge1" class="edge">
<title>Node694&#45;&gt;Node695</title>
<path fill="none" stroke="#191970" d="M99.0645,-54C107.602,-54 116.44,-54 124.8677,-54"/>
<polygon fill="#191970" stroke="#191970" points="124.8964,-57.5001 134.8964,-54 124.8963,-50.5001 124.8964,-57.5001"/>
</g>
<!-- Node696 -->
<g id="node3" class="node">
<title>Node696</title>
<g id="a_node3"><a xlink:href="pair__print_8c.html#a748e31d7aded90939877a4cc567a633f" target="_top" xlink:title="Print one attribute and value to a string. ">
<polygon fill="none" stroke="#000000" points="242,-44.5 242,-63.5 310,-63.5 310,-44.5 242,-44.5"/>
<text text-anchor="middle" x="276" y="-51.5" font-family="Helvetica,sans-Serif" font-size="10.00" fill="#000000">fr_pair_print</text>
</a>
</g>
</g>
<!-- Node695&#45;&gt;Node696 -->
<g id="edge2" class="edge">
<title>Node695&#45;&gt;Node696</title>
<path fill="none" stroke="#191970" d="M206.2175,-54C214.3772,-54 223.146,-54 231.6192,-54"/>
<polygon fill="#191970" stroke="#191970" points="231.7472,-57.5001 241.7472,-54 231.7471,-50.5001 231.7472,-57.5001"/>
</g>
<!-- Node697 -->
<g id="node4" class="node">
<title>Node697</title>
<g id="a_node4"><a xlink:href="pair__print_8c.html#ab697da43c2a96b62dd95e6931525c1ba" target="_top" xlink:title="Print the value of an attribute to a string. ">
<polygon fill="none" stroke="#000000" points="346,-39 346,-69 442,-69 442,-39 346,-39"/>
<text text-anchor="start" x="354" y="-57" font-family="Helvetica,sans-Serif" font-size="10.00" fill="#000000">fr_pair_print_value</text>
<text text-anchor="middle" x="394" y="-46" font-family="Helvetica,sans-Serif" font-size="10.00" fill="#000000">_quoted</text>
</a>
</g>
</g>
<!-- Node696&#45;&gt;Node697 -->
<g id="edge3" class="edge">
<title>Node696&#45;&gt;Node697</title>
<path fill="none" stroke="#191970" d="M310.1305,-47.814C318.1538,-47.428 326.9281,-47.2401 335.6824,-47.2504"/>
<polygon fill="#191970" stroke="#191970" points="335.869,-50.7524 345.9038,-47.3535 335.9397,-43.7527 335.869,-50.7524"/>
</g>
<!-- Node697&#45;&gt;Node696 -->
<g id="edge7" class="edge">
<title>Node697&#45;&gt;Node696</title>
<path fill="none" stroke="#191970" d="M345.9038,-60.6465C337.377,-60.8101 328.5353,-60.7798 320.125,-60.5556"/>
<polygon fill="#191970" stroke="#191970" points="320.253,-57.058 310.1305,-60.186 319.9943,-64.0532 320.253,-57.058"/>
</g>
<!-- Node698 -->
<g id="node5" class="node">
<title>Node698</title>
<g id="a_node5"><a xlink:href="sbuff_8c.html#aeeb2fa91afa0f72ebcfadf1c4d14df9b" target="_top" xlink:title="Print using a fmt string to an sbuff. ">
<polygon fill="none" stroke="#ff0000" points="478.5,-88.5 478.5,-107.5 573.5,-107.5 573.5,-88.5 478.5,-88.5"/>
<text text-anchor="middle" x="526" y="-95.5" font-family="Helvetica,sans-Serif" font-size="10.00" fill="#000000">fr_sbuff_in_sprintf</text>
</a>
</g>
</g>
<!-- Node697&#45;&gt;Node698 -->
<g id="edge4" class="edge">
<title>Node697&#45;&gt;Node698</title>
<path fill="none" stroke="#191970" d="M439.0577,-69.0192C454.8644,-74.2881 472.4589,-80.153 487.6624,-85.2208"/>
<polygon fill="#191970" stroke="#191970" points="486.6715,-88.5798 497.2651,-88.4217 488.8851,-81.939 486.6715,-88.5798"/>
</g>
<!-- Node838 -->
<g id="node6" class="node">
<title>Node838</title>
<g id="a_node6"><a xlink:href="value_8c.html#a89adbe4d202175103db8de87cc6e9297" target="_top" xlink:title="Print one boxed value to a string with quotes (where needed) ">
<polygon fill="none" stroke="#ff0000" points="478,-39 478,-69 574,-69 574,-39 478,-39"/>
<text text-anchor="start" x="486" y="-57" font-family="Helvetica,sans-Serif" font-size="10.00" fill="#000000">fr_value_box_print</text>
<text text-anchor="middle" x="526" y="-46" font-family="Helvetica,sans-Serif" font-size="10.00" fill="#000000">_quoted</text>
</a>
</g>
</g>
<!-- Node697&#45;&gt;Node838 -->
<g id="edge5" class="edge">
<title>Node697&#45;&gt;Node838</title>
<path fill="none" stroke="#191970" d="M442.0284,-54C450.3087,-54 458.9975,-54 467.517,-54"/>
<polygon fill="#191970" stroke="#191970" points="467.7862,-57.5001 477.7861,-54 467.7861,-50.5001 467.7862,-57.5001"/>
</g>
<!-- Node723 -->
<g id="node7" class="node">
<title>Node723</title>
<g id="a_node7"><a xlink:href="cursor_8c.html#af6c2090d1e00319075d6def5aa2666fd" target="_top" xlink:title="Advanced the cursor to the next item. ">
<polygon fill="none" stroke="#ff0000" points="486.5,-.5 486.5,-19.5 565.5,-19.5 565.5,-.5 486.5,-.5"/>
<text text-anchor="middle" x="526" y="-7.5" font-family="Helvetica,sans-Serif" font-size="10.00" fill="#000000">fr_cursor_next</text>
</a>
</g>
</g>
<!-- Node697&#45;&gt;Node723 -->
<g id="edge6" class="edge">
<title>Node697&#45;&gt;Node723</title>
<path fill="none" stroke="#191970" d="M439.0577,-38.9808C454.8644,-33.7119 472.4589,-27.847 487.6624,-22.7792"/>
<polygon fill="#191970" stroke="#191970" points="488.8851,-26.061 497.2651,-19.5783 486.6715,-19.4202 488.8851,-26.061"/>
</g>
</g>
</svg>
