<?xml version="1.0" encoding="UTF-8" standalone="no"?>
<!DOCTYPE svg PUBLIC "-//W3C//DTD SVG 1.1//EN"
 "http://www.w3.org/Graphics/SVG/1.1/DTD/svg11.dtd">
<!-- Generated by graphviz version 2.40.1 (20161225.0304)
 -->
<!-- Title: thread_conn_notify Pages: 1 -->
<svg width="998pt" height="429pt"
 viewBox="0.00 0.00 998.00 429.00" xmlns="http://www.w3.org/2000/svg" xmlns:xlink="http://www.w3.org/1999/xlink">
<g id="graph0" class="graph" transform="scale(1 1) rotate(0) translate(4 425)">
<title>thread_conn_notify</title>
<!-- Node19264 -->
<g id="node1" class="node">
<title>Node19264</title>
<polygon fill="#bfbfbf" stroke="#000000" points="0,-164 0,-183 99,-183 99,-164 0,-164"/>
<text text-anchor="middle" x="49.5" y="-171" font-family="Helvetica,sans-Serif" font-size="10.00" fill="#000000">thread_conn_notify</text>
</g>
<!-- Node19265 -->
<g id="node2" class="node">
<title>Node19265</title>
<g id="a_node2"><a xlink:href="rlm__radius__udp_8c.html#a8adab092f77f809aa9e91791df728c78" target="_top" xlink:title="Read and discard data. ">
<polygon fill="none" stroke="#000000" points="138,-202 138,-221 212,-221 212,-202 138,-202"/>
<text text-anchor="middle" x="175" y="-209" font-family="Helvetica,sans-Serif" font-size="10.00" fill="#000000">conn_discard</text>
</a>
</g>
</g>
<!-- Node19264&#45;&gt;Node19265 -->
<g id="edge1" class="edge">
<title>Node19264&#45;&gt;Node19265</title>
<path fill="none" stroke="#191970" d="M81.1689,-183.089C97.0725,-187.9044 116.5396,-193.7988 133.6114,-198.968"/>
<polygon fill="#191970" stroke="#191970" points="132.756,-202.3658 143.3412,-201.9141 134.7846,-195.6662 132.756,-202.3658"/>
</g>
<!-- Node19892 -->
<g id="node13" class="node">
<title>Node19892</title>
<g id="a_node13"><a xlink:href="trunk_8c.html#ae261bef1f663eb4a697804302be97a93" target="_top" xlink:title="Signal a trunk connection is no longer viable. ">
<polygon fill="none" stroke="#000000" points="251,-240.5 251,-270.5 353,-270.5 353,-240.5 251,-240.5"/>
<text text-anchor="start" x="259" y="-258.5" font-family="Helvetica,sans-Serif" font-size="10.00" fill="#000000">fr_trunk_connection</text>
<text text-anchor="middle" x="302" y="-247.5" font-family="Helvetica,sans-Serif" font-size="10.00" fill="#000000">_signal_reconnect</text>
</a>
</g>
</g>
<!-- Node19264&#45;&gt;Node19892 -->
<g id="edge38" class="edge">
<title>Node19264&#45;&gt;Node19892</title>
<path fill="none" stroke="#191970" d="M60.4851,-183.1863C75.9455,-196.235 105.5408,-219.1314 135,-230.5 168.5638,-243.4526 208.3246,-249.7319 240.6281,-252.7594"/>
<polygon fill="#191970" stroke="#191970" points="240.5751,-256.2676 250.837,-253.6325 241.1716,-249.293 240.5751,-256.2676"/>
</g>
<!-- Node19908 -->
<g id="node20" class="node">
<title>Node19908</title>
<g id="a_node20"><a xlink:href="rlm__radius__udp_8c.html#ae1f20d06c7449e7cfa1f06f1ac2a28c3" target="_top" xlink:title="Standard I/O read function. ">
<polygon fill="none" stroke="#000000" points="135,-115 135,-134 215,-134 215,-115 135,-115"/>
<text text-anchor="middle" x="175" y="-122" font-family="Helvetica,sans-Serif" font-size="10.00" fill="#000000">conn_readable</text>
</a>
</g>
</g>
<!-- Node19264&#45;&gt;Node19908 -->
<g id="edge28" class="edge">
<title>Node19264&#45;&gt;Node19908</title>
<path fill="none" stroke="#191970" d="M73.9956,-163.936C93.0857,-156.4825 119.8143,-146.0466 140.9807,-137.7824"/>
<polygon fill="#191970" stroke="#191970" points="142.524,-140.9373 150.5662,-134.0399 139.9781,-134.4166 142.524,-140.9373"/>
</g>
<!-- Node19911 -->
<g id="node23" class="node">
<title>Node19911</title>
<g id="a_node23"><a xlink:href="rlm__radius__udp_8c.html#aa0e37555a27c63df8fb64fd727cc8444" target="_top" xlink:title="Standard I/O write function. ">
<polygon fill="none" stroke="#000000" points="136.5,-72 136.5,-91 213.5,-91 213.5,-72 136.5,-72"/>
<text text-anchor="middle" x="175" y="-79" font-family="Helvetica,sans-Serif" font-size="10.00" fill="#000000">conn_writable</text>
</a>
</g>
</g>
<!-- Node19264&#45;&gt;Node19911 -->
<g id="edge31" class="edge">
<title>Node19264&#45;&gt;Node19911</title>
<path fill="none" stroke="#191970" d="M60.4797,-163.9943C76.4143,-150.3805 107.099,-124.8411 135,-105.5 139.4614,-102.4073 144.3289,-99.2887 149.084,-96.3699"/>
<polygon fill="#191970" stroke="#191970" points="151.1694,-99.2008 157.953,-91.0624 147.5748,-93.1942 151.1694,-99.2008"/>
</g>
<!-- Node19917 -->
<g id="node27" class="node">
<title>Node19917</title>
<g id="a_node27"><a xlink:href="rlm__radius__udp_8c.html#a4778e0321117e80fea4af480935cc084" target="_top" xlink:title="Connection errored. ">
<polygon fill="none" stroke="#000000" points="144,-164 144,-183 206,-183 206,-164 144,-164"/>
<text text-anchor="middle" x="175" y="-171" font-family="Helvetica,sans-Serif" font-size="10.00" fill="#000000">conn_error</text>
</a>
</g>
</g>
<!-- Node19264&#45;&gt;Node19917 -->
<g id="edge35" class="edge">
<title>Node19264&#45;&gt;Node19917</title>
<path fill="none" stroke="#191970" d="M99.1009,-173.5C110.5236,-173.5 122.5549,-173.5 133.5873,-173.5"/>
<polygon fill="#191970" stroke="#191970" points="133.8062,-177.0001 143.8062,-173.5 133.8062,-170.0001 133.8062,-177.0001"/>
</g>
<!-- Node19266 -->
<g id="node3" class="node">
<title>Node19266</title>
<g id="a_node3"><a xlink:href="syserror_8c.html#a18747f9d648d0aeecc4a8b27ac0435aa" target="_top" xlink:title="Guaranteed to be thread&#45;safe version of strerror. ">
<polygon fill="none" stroke="#000000" points="270.5,-164 270.5,-183 333.5,-183 333.5,-164 270.5,-164"/>
<text text-anchor="middle" x="302" y="-171" font-family="Helvetica,sans-Serif" font-size="10.00" fill="#000000">fr_syserror</text>
</a>
</g>
</g>
<!-- Node19265&#45;&gt;Node19266 -->
<g id="edge2" class="edge">
<title>Node19265&#45;&gt;Node19266</title>
<path fill="none" stroke="#191970" d="M207.0475,-201.911C223.264,-197.0588 243.1418,-191.1111 260.5119,-185.9138"/>
<polygon fill="#191970" stroke="#191970" points="261.8257,-189.174 270.4027,-182.9543 259.8191,-182.4678 261.8257,-189.174"/>
</g>
<!-- Node19265&#45;&gt;Node19892 -->
<g id="edge17" class="edge">
<title>Node19265&#45;&gt;Node19892</title>
<path fill="none" stroke="#191970" d="M202.5571,-221.0473C216.0898,-225.7358 232.8699,-231.5494 248.768,-237.0574"/>
<polygon fill="#191970" stroke="#191970" points="247.9211,-240.4681 258.5159,-240.4346 250.2127,-233.8538 247.9211,-240.4681"/>
</g>
<!-- Node19267 -->
<g id="node4" class="node">
<title>Node19267</title>
<g id="a_node4"><a xlink:href="strerror_8c.html#a2c8e65d6d4b73fb705cc023f60acb099" target="_top" xlink:title="Print the current error to stderr with a prefix. ">
<polygon fill="none" stroke="#000000" points="750.5,-164 750.5,-183 803.5,-183 803.5,-164 750.5,-164"/>
<text text-anchor="middle" x="777" y="-171" font-family="Helvetica,sans-Serif" font-size="10.00" fill="#000000">fr_perror</text>
</a>
</g>
</g>
<!-- Node19266&#45;&gt;Node19267 -->
<g id="edge3" class="edge">
<title>Node19266&#45;&gt;Node19267</title>
<path fill="none" stroke="#191970" d="M333.6904,-179.6154C350.1276,-182.5289 370.5715,-185.7521 389,-187.5 518.6593,-199.7978 552.3927,-205.3337 682,-192.5 701.4486,-190.5742 722.8136,-186.4823 740.3486,-182.5874"/>
<polygon fill="#191970" stroke="#191970" points="741.2204,-185.9785 750.1869,-180.3348 739.658,-179.1551 741.2204,-185.9785"/>
</g>
<!-- Node19274 -->
<g id="node8" class="node">
<title>Node19274</title>
<g id="a_node8"><a xlink:href="syserror_8c.html#ab1238c031182d57dae9463e447d9401b" target="_top" xlink:title="_fr_logging_free">
<polygon fill="none" stroke="#000000" points="412.5,-88 412.5,-107 498.5,-107 498.5,-88 412.5,-88"/>
<text text-anchor="middle" x="455.5" y="-95" font-family="Helvetica,sans-Serif" font-size="10.00" fill="#000000">_fr_logging_free</text>
</a>
</g>
</g>
<!-- Node19266&#45;&gt;Node19274 -->
<g id="edge7" class="edge">
<title>Node19266&#45;&gt;Node19274</title>
<path fill="none" stroke="#191970" d="M316.3375,-163.9451C340.0304,-148.1785 385.1414,-118.2657 389,-116.5 394.0497,-114.1893 399.4454,-112.0933 404.8971,-110.21"/>
<polygon fill="#191970" stroke="#191970" points="406.2633,-113.4471 414.7083,-107.0491 404.1167,-106.7843 406.2633,-113.4471"/>
</g>
<!-- Node19275 -->
<g id="node9" class="node">
<title>Node19275</title>
<g id="a_node9"><a xlink:href="snprintf_8c.html#a8da10a1735da7051de5c298ca7448eee" target="_top" xlink:title="snprintf">
<polygon fill="none" stroke="#000000" points="431,-126 431,-145 480,-145 480,-126 431,-126"/>
<text text-anchor="middle" x="455.5" y="-133" font-family="Helvetica,sans-Serif" font-size="10.00" fill="#000000">snprintf</text>
</a>
</g>
</g>
<!-- Node19266&#45;&gt;Node19275 -->
<g id="edge8" class="edge">
<title>Node19266&#45;&gt;Node19275</title>
<path fill="none" stroke="#191970" d="M333.8053,-165.6264C359.2331,-159.3315 394.8234,-150.5209 420.9482,-144.0535"/>
<polygon fill="#191970" stroke="#191970" points="421.9397,-147.4138 430.8056,-141.6133 420.2575,-140.6189 421.9397,-147.4138"/>
</g>
<!-- Node19373 -->
<g id="node12" class="node">
<title>Node19373</title>
<g id="a_node12"><a xlink:href="strlcpy_8c.html#a59f9599e77ee687b1daaa179f8b9a2f3" target="_top" xlink:title="strlcpy">
<polygon fill="none" stroke="#000000" points="432.5,-240 432.5,-259 478.5,-259 478.5,-240 432.5,-240"/>
<text text-anchor="middle" x="455.5" y="-247" font-family="Helvetica,sans-Serif" font-size="10.00" fill="#000000">strlcpy</text>
</a>
</g>
</g>
<!-- Node19266&#45;&gt;Node19373 -->
<g id="edge16" class="edge">
<title>Node19266&#45;&gt;Node19373</title>
<path fill="none" stroke="#191970" d="M325.1588,-183.09C334.0896,-187.1224 344.2428,-192.1256 353,-197.5 370.2758,-208.1024 371.2477,-215.7164 389,-225.5 399.4523,-231.2604 411.5582,-236.1073 422.5536,-239.9036"/>
<polygon fill="#191970" stroke="#191970" points="421.6671,-243.2964 432.26,-243.0908 423.851,-236.6457 421.6671,-243.2964"/>
</g>
<!-- Node19268 -->
<g id="node5" class="node">
<title>Node19268</title>
<g id="a_node5"><a xlink:href="acutest_8h.html#aecf9a9be8105efb1454cd8c1ef6cb1c5" target="_top" xlink:title="va_start">
<polygon fill="none" stroke="#000000" points="905,-69 905,-88 957,-88 957,-69 905,-69"/>
<text text-anchor="middle" x="931" y="-76" font-family="Helvetica,sans-Serif" font-size="10.00" fill="#000000">va_start</text>
</a>
</g>
</g>
<!-- Node19267&#45;&gt;Node19268 -->
<g id="edge4" class="edge">
<title>Node19267&#45;&gt;Node19268</title>
<path fill="none" stroke="#191970" d="M792.6138,-163.8681C819.4784,-147.2958 874.6322,-113.2723 906.604,-93.5495"/>
<polygon fill="#191970" stroke="#191970" points="908.6715,-96.3865 915.3448,-88.1574 904.9964,-90.4289 908.6715,-96.3865"/>
</g>
<!-- Node19269 -->
<g id="node6" class="node">
<title>Node19269</title>
<g id="a_node6"><a xlink:href="acutest_8h.html#a36af1f79dd6adf0809c21e76535034d5" target="_top" xlink:title="va_end">
<polygon fill="none" stroke="#000000" points="907,-126 907,-145 955,-145 955,-126 907,-126"/>
<text text-anchor="middle" x="931" y="-133" font-family="Helvetica,sans-Serif" font-size="10.00" fill="#000000">va_end</text>
</a>
</g>
</g>
<!-- Node19267&#45;&gt;Node19269 -->
<g id="edge5" class="edge">
<title>Node19267&#45;&gt;Node19269</title>
<path fill="none" stroke="#191970" d="M803.8248,-166.8809C829.6129,-160.5176 868.7002,-150.8727 896.7313,-143.9559"/>
<polygon fill="#191970" stroke="#191970" points="897.6429,-147.336 906.5132,-141.5422 895.9658,-140.5399 897.6429,-147.336"/>
</g>
<!-- Node19270 -->
<g id="node7" class="node">
<title>Node19270</title>
<g id="a_node7"><a xlink:href="strerror_8c.html#a4bdc99630960307e43639975cd3c5f0d" target="_top" xlink:title="Pop the last library error with marker information. ">
<polygon fill="none" stroke="#ff0000" points="873.5,-164 873.5,-183 988.5,-183 988.5,-164 873.5,-164"/>
<text text-anchor="middle" x="931" y="-171" font-family="Helvetica,sans-Serif" font-size="10.00" fill="#000000">fr_strerror_marker_pop</text>
</a>
</g>
</g>
<!-- Node19267&#45;&gt;Node19270 -->
<g id="edge6" class="edge">
<title>Node19267&#45;&gt;Node19270</title>
<path fill="none" stroke="#191970" d="M803.8248,-173.5C820.2655,-173.5 842.1116,-173.5 863.0522,-173.5"/>
<polygon fill="#191970" stroke="#191970" points="863.2317,-177.0001 873.2316,-173.5 863.2316,-170.0001 863.2317,-177.0001"/>
</g>
<!-- Node19275&#45;&gt;Node19268 -->
<g id="edge9" class="edge">
<title>Node19275&#45;&gt;Node19268</title>
<path fill="none" stroke="#191970" d="M480.1553,-131.7149C493.271,-128.9223 509.2709,-124.2232 522,-116.5 541.8897,-104.4321 536.6287,-87.6925 558,-78.5 672.58,-29.2155 825.8947,-54.0935 894.7938,-69.4351"/>
<polygon fill="#191970" stroke="#191970" points="894.1913,-72.8877 904.7206,-71.7111 895.7557,-66.0648 894.1913,-72.8877"/>
</g>
<!-- Node19275&#45;&gt;Node19269 -->
<g id="edge12" class="edge">
<title>Node19275&#45;&gt;Node19269</title>
<path fill="none" stroke="#191970" d="M480.0637,-135.5C558.907,-135.5 805.7324,-135.5 896.8021,-135.5"/>
<polygon fill="#191970" stroke="#191970" points="896.8669,-139.0001 906.8669,-135.5 896.8669,-132.0001 896.8669,-139.0001"/>
</g>
<!-- Node19276 -->
<g id="node10" class="node">
<title>Node19276</title>
<g id="a_node10"><a xlink:href="snprintf_8c.html#a242a1ad85c2e07e0d5d73b6342d97f13" target="_top" xlink:title="vsnprintf">
<polygon fill="none" stroke="#ff0000" points="593,-88 593,-107 647,-107 647,-88 593,-88"/>
<text text-anchor="middle" x="620" y="-95" font-family="Helvetica,sans-Serif" font-size="10.00" fill="#000000">vsnprintf</text>
</a>
</g>
</g>
<!-- Node19275&#45;&gt;Node19276 -->
<g id="edge10" class="edge">
<title>Node19275&#45;&gt;Node19276</title>
<path fill="none" stroke="#191970" d="M476.6687,-125.9076C503.4477,-117.4049 550.0164,-106.2965 582.7903,-100.3405"/>
<polygon fill="#191970" stroke="#191970" points="583.6435,-103.7452 592.9039,-98.5977 582.4547,-96.8469 583.6435,-103.7452"/>
</g>
<!-- Node19288 -->
<g id="node11" class="node">
<title>Node19288</title>
<g id="a_node11"><a xlink:href="radclient_8c.html#a3c04138a5bfe5d72780bb7e82a18e627" target="_top" xlink:title="main">
<polygon fill="none" stroke="#ff0000" points="601,-164 601,-183 639,-183 639,-164 601,-164"/>
<text text-anchor="middle" x="620" y="-171" font-family="Helvetica,sans-Serif" font-size="10.00" fill="#000000">main</text>
</a>
</g>
</g>
<!-- Node19275&#45;&gt;Node19288 -->
<g id="edge13" class="edge">
<title>Node19275&#45;&gt;Node19288</title>
<path fill="none" stroke="#191970" d="M480.1273,-141.189C509.7609,-148.0344 559.4489,-159.5125 590.9338,-166.7856"/>
<polygon fill="#191970" stroke="#191970" points="590.3271,-170.2376 600.8583,-169.0782 591.9026,-163.4172 590.3271,-170.2376"/>
</g>
<!-- Node19276&#45;&gt;Node19275 -->
<g id="edge11" class="edge">
<title>Node19276&#45;&gt;Node19275</title>
<path fill="none" stroke="#191970" d="M599.121,-107.0002C571.7141,-115.7298 523.2256,-127.2478 490.2443,-133.1024"/>
<polygon fill="#191970" stroke="#191970" points="489.4134,-129.6926 480.1273,-134.7935 490.5675,-136.5968 489.4134,-129.6926"/>
</g>
<!-- Node19288&#45;&gt;Node19266 -->
<g id="edge15" class="edge">
<title>Node19288&#45;&gt;Node19266</title>
<path fill="none" stroke="#191970" d="M600.8497,-173.5C550.4923,-173.5 413.461,-173.5 343.8243,-173.5"/>
<polygon fill="#191970" stroke="#191970" points="343.6537,-170.0001 333.6536,-173.5 343.6536,-177.0001 343.6537,-170.0001"/>
</g>
<!-- Node19288&#45;&gt;Node19267 -->
<g id="edge14" class="edge">
<title>Node19288&#45;&gt;Node19267</title>
<path fill="none" stroke="#191970" d="M639.2513,-173.5C664.2636,-173.5 708.4625,-173.5 740.0506,-173.5"/>
<polygon fill="#191970" stroke="#191970" points="740.2337,-177.0001 750.2337,-173.5 740.2336,-170.0001 740.2337,-177.0001"/>
</g>
<!-- Node19893 -->
<g id="node14" class="node">
<title>Node19893</title>
<g id="a_node14"><a xlink:href="server_2connection_8c.html#afbcf2ecc866b1f1092fa70d6400fd4f3" target="_top" xlink:title="Asynchronously signal the connection should be reconnected. ">
<polygon fill="none" stroke="#000000" points="402.5,-278.5 402.5,-308.5 508.5,-308.5 508.5,-278.5 402.5,-278.5"/>
<text text-anchor="start" x="410.5" y="-296.5" font-family="Helvetica,sans-Serif" font-size="10.00" fill="#000000">fr_connection_signal</text>
<text text-anchor="middle" x="455.5" y="-285.5" font-family="Helvetica,sans-Serif" font-size="10.00" fill="#000000">_reconnect</text>
</a>
</g>
</g>
<!-- Node19892&#45;&gt;Node19893 -->
<g id="edge18" class="edge">
<title>Node19892&#45;&gt;Node19893</title>
<path fill="none" stroke="#191970" d="M353.1133,-268.1534C365.6924,-271.2675 379.3096,-274.6385 392.3818,-277.8746"/>
<polygon fill="#191970" stroke="#191970" points="391.6976,-281.3108 402.2456,-280.3165 393.3797,-274.516 391.6976,-281.3108"/>
</g>
<!-- Node19894 -->
<g id="node15" class="node">
<title>Node19894</title>
<g id="a_node15"><a xlink:href="server_2connection_8c.html#a615bf4dd630434e4f92022788d483d1c" target="_top" xlink:title="Add a deferred signal to the signal list. ">
<polygon fill="none" stroke="#ff0000" points="725,-294.5 725,-324.5 829,-324.5 829,-294.5 725,-294.5"/>
<text text-anchor="start" x="733" y="-312.5" font-family="Helvetica,sans-Serif" font-size="10.00" fill="#000000">connection_deferred</text>
<text text-anchor="middle" x="777" y="-301.5" font-family="Helvetica,sans-Serif" font-size="10.00" fill="#000000">_signal_add</text>
</a>
</g>
</g>
<!-- Node19893&#45;&gt;Node19894 -->
<g id="edge19" class="edge">
<title>Node19893&#45;&gt;Node19894</title>
<path fill="none" stroke="#191970" d="M508.5874,-301.3867C524.4459,-303.4304 541.8955,-305.372 558,-306.5 610.6744,-310.1894 670.6435,-310.7589 714.4938,-310.5077"/>
<polygon fill="#191970" stroke="#191970" points="714.7432,-314.0061 724.7172,-310.4326 714.6917,-307.0062 714.7432,-314.0061"/>
</g>
<!-- Node19897 -->
<g id="node16" class="node">
<title>Node19897</title>
<g id="a_node16"><a xlink:href="server_2connection_8c.html#a57cdf87c62af02f671cfc702c7039c8b" target="_top" xlink:title="Asynchronously signal a halted connection to start. ">
<polygon fill="none" stroke="#ff0000" points="558,-278 558,-297 682,-297 682,-278 558,-278"/>
<text text-anchor="middle" x="620" y="-285" font-family="Helvetica,sans-Serif" font-size="10.00" fill="#000000">fr_connection_signal_init</text>
</a>
</g>
</g>
<!-- Node19893&#45;&gt;Node19897 -->
<g id="edge20" class="edge">
<title>Node19893&#45;&gt;Node19897</title>
<path fill="none" stroke="#191970" d="M508.9084,-291.552C521.2707,-291.1011 534.6282,-290.6139 547.6498,-290.1389"/>
<polygon fill="#191970" stroke="#191970" points="548.1297,-293.6238 557.9955,-289.7616 547.8745,-286.6285 548.1297,-293.6238"/>
</g>
<!-- Node19902 -->
<g id="node17" class="node">
<title>Node19902</title>
<g id="a_node17"><a xlink:href="server_2connection_8c.html#a38ab8313ca314d2fe34f8ce52c82f283" target="_top" xlink:title="Connection failed. ">
<polygon fill="none" stroke="#ff0000" points="718,-390.5 718,-420.5 836,-420.5 836,-390.5 718,-390.5"/>
<text text-anchor="start" x="726" y="-408.5" font-family="Helvetica,sans-Serif" font-size="10.00" fill="#000000">connection_state_enter</text>
<text text-anchor="middle" x="777" y="-397.5" font-family="Helvetica,sans-Serif" font-size="10.00" fill="#000000">_failed</text>
</a>
</g>
</g>
<!-- Node19893&#45;&gt;Node19902 -->
<g id="edge22" class="edge">
<title>Node19893&#45;&gt;Node19902</title>
<path fill="none" stroke="#191970" d="M465.2766,-308.5846C481.3768,-331.9191 515.9173,-376.0037 558,-394.5 604.8821,-415.1058 662.9646,-417.0933 707.5311,-414.3396"/>
<polygon fill="#191970" stroke="#191970" points="707.9618,-417.8179 717.6879,-413.6164 707.4645,-410.8356 707.9618,-417.8179"/>
</g>
<!-- Node19904 -->
<g id="node18" class="node">
<title>Node19904</title>
<g id="a_node18"><a xlink:href="server_2connection_8c.html#a2500bf7158640de3844357f669196f9b" target="_top" xlink:title="Close the connection, then wait for another state change. ">
<polygon fill="none" stroke="#ff0000" points="872,-346.5 872,-376.5 990,-376.5 990,-346.5 872,-346.5"/>
<text text-anchor="start" x="880" y="-364.5" font-family="Helvetica,sans-Serif" font-size="10.00" fill="#000000">connection_state_enter</text>
<text text-anchor="middle" x="931" y="-353.5" font-family="Helvetica,sans-Serif" font-size="10.00" fill="#000000">_closed</text>
</a>
</g>
</g>
<!-- Node19893&#45;&gt;Node19904 -->
<g id="edge27" class="edge">
<title>Node19893&#45;&gt;Node19904</title>
<path fill="none" stroke="#191970" d="M506.6766,-278.4731C522.9352,-274.3879 541.0871,-270.5328 558,-268.5 680.9018,-253.7285 721.6194,-238.1698 836,-285.5 865.2016,-297.5835 892.7209,-321.5043 910.5489,-339.2974"/>
<polygon fill="#191970" stroke="#191970" points="908.0838,-341.7827 917.5728,-346.4955 913.0939,-336.8939 908.0838,-341.7827"/>
</g>
<!-- Node19907 -->
<g id="node19" class="node">
<title>Node19907</title>
<g id="a_node19"><a xlink:href="server_2connection_8c.html#a9f09116421b7082c0a8a83c41af0aaad" target="_top" xlink:title="Gracefully shutdown the handle. ">
<polygon fill="none" stroke="#ff0000" points="561,-354.5 561,-384.5 679,-384.5 679,-354.5 561,-354.5"/>
<text text-anchor="start" x="569" y="-372.5" font-family="Helvetica,sans-Serif" font-size="10.00" fill="#000000">connection_state_enter</text>
<text text-anchor="middle" x="620" y="-361.5" font-family="Helvetica,sans-Serif" font-size="10.00" fill="#000000">_shutdown</text>
</a>
</g>
</g>
<!-- Node19893&#45;&gt;Node19907 -->
<g id="edge24" class="edge">
<title>Node19893&#45;&gt;Node19907</title>
<path fill="none" stroke="#191970" d="M487.9999,-308.5152C513.8259,-320.4469 550.1342,-337.2216 578.1359,-350.1585"/>
<polygon fill="#191970" stroke="#191970" points="576.7406,-353.3693 587.2865,-354.3862 579.6765,-347.0147 576.7406,-353.3693"/>
</g>
<!-- Node19897&#45;&gt;Node19894 -->
<g id="edge21" class="edge">
<title>Node19897&#45;&gt;Node19894</title>
<path fill="none" stroke="#191970" d="M682.0506,-296.195C692.7029,-297.6877 703.7783,-299.2396 714.4438,-300.7342"/>
<polygon fill="#191970" stroke="#191970" points="714.1277,-304.224 724.5166,-302.1456 715.0991,-297.2917 714.1277,-304.224"/>
</g>
<!-- Node19902&#45;&gt;Node19904 -->
<g id="edge23" class="edge">
<title>Node19902&#45;&gt;Node19904</title>
<path fill="none" stroke="#191970" d="M829.5673,-390.4808C842.1351,-386.89 855.6716,-383.0224 868.6336,-379.319"/>
<polygon fill="#191970" stroke="#191970" points="869.7546,-382.6388 878.4083,-376.5262 867.8315,-375.9082 869.7546,-382.6388"/>
</g>
<!-- Node19907&#45;&gt;Node19902 -->
<g id="edge25" class="edge">
<title>Node19907&#45;&gt;Node19902</title>
<path fill="none" stroke="#191970" d="M679.355,-383.1101C688.6999,-385.2529 698.4304,-387.484 707.9715,-389.6718"/>
<polygon fill="#191970" stroke="#191970" points="707.2923,-393.1068 717.8216,-391.9304 708.8568,-386.2839 707.2923,-393.1068"/>
</g>
<!-- Node19907&#45;&gt;Node19904 -->
<g id="edge26" class="edge">
<title>Node19907&#45;&gt;Node19904</title>
<path fill="none" stroke="#191970" d="M679.2288,-367.9764C731.2169,-366.6391 806.8741,-364.693 861.6692,-363.2834"/>
<polygon fill="#191970" stroke="#191970" points="862.0851,-366.774 871.9918,-363.0179 861.905,-359.7763 862.0851,-366.774"/>
</g>
<!-- Node19909 -->
<g id="node21" class="node">
<title>Node19909</title>
<g id="a_node21"><a xlink:href="trunk_8c.html#aa38296145eead678186a6433af330b35" target="_top" xlink:title="Signal that a trunk connection is readable. ">
<polygon fill="none" stroke="#000000" points="251,-99.5 251,-129.5 353,-129.5 353,-99.5 251,-99.5"/>
<text text-anchor="start" x="259" y="-117.5" font-family="Helvetica,sans-Serif" font-size="10.00" fill="#000000">fr_trunk_connection</text>
<text text-anchor="middle" x="302" y="-106.5" font-family="Helvetica,sans-Serif" font-size="10.00" fill="#000000">_signal_readable</text>
</a>
</g>
</g>
<!-- Node19908&#45;&gt;Node19909 -->
<g id="edge29" class="edge">
<title>Node19908&#45;&gt;Node19909</title>
<path fill="none" stroke="#191970" d="M215.1836,-121.3359C223.3317,-120.6944 232.0746,-120.0059 240.7611,-119.322"/>
<polygon fill="#191970" stroke="#191970" points="241.1988,-122.7984 250.8932,-118.5242 240.6493,-115.82 241.1988,-122.7984"/>
</g>
<!-- Node19910 -->
<g id="node22" class="node">
<title>Node19910</title>
<g id="a_node22"><a xlink:href="trunk_8c.html#aa4ae56041249d9c2d59053d933ff3416" target="_top" xlink:title="A connection is readable. ">
<polygon fill="none" stroke="#000000" points="389,-50 389,-69 522,-69 522,-50 389,-50"/>
<text text-anchor="middle" x="455.5" y="-57" font-family="Helvetica,sans-Serif" font-size="10.00" fill="#000000">trunk_connection_readable</text>
</a>
</g>
</g>
<!-- Node19909&#45;&gt;Node19910 -->
<g id="edge30" class="edge">
<title>Node19909&#45;&gt;Node19910</title>
<path fill="none" stroke="#191970" d="M335.9492,-99.3969C351.8896,-92.5789 371.2488,-84.6859 389,-78.5 395.5515,-76.2169 402.5333,-73.9966 409.4174,-71.9269"/>
<polygon fill="#191970" stroke="#191970" points="410.7583,-75.1813 419.3721,-69.0126 408.7915,-68.4633 410.7583,-75.1813"/>
</g>
<!-- Node19912 -->
<g id="node24" class="node">
<title>Node19912</title>
<g id="a_node24"><a xlink:href="trunk_8c.html#ae4622d45fe16ab018a7ff22f77bfcbcd" target="_top" xlink:title="Signal that a trunk connection is writable. ">
<polygon fill="none" stroke="#000000" points="251,-21.5 251,-51.5 353,-51.5 353,-21.5 251,-21.5"/>
<text text-anchor="start" x="259" y="-39.5" font-family="Helvetica,sans-Serif" font-size="10.00" fill="#000000">fr_trunk_connection</text>
<text text-anchor="middle" x="302" y="-28.5" font-family="Helvetica,sans-Serif" font-size="10.00" fill="#000000">_signal_writable</text>
</a>
</g>
</g>
<!-- Node19911&#45;&gt;Node19912 -->
<g id="edge32" class="edge">
<title>Node19911&#45;&gt;Node19912</title>
<path fill="none" stroke="#191970" d="M201.9334,-71.9567C215.9327,-66.9963 233.5288,-60.7615 250.0463,-54.9088"/>
<polygon fill="#191970" stroke="#191970" points="251.3547,-58.1585 259.6115,-51.5195 249.0168,-51.5604 251.3547,-58.1585"/>
</g>
<!-- Node19913 -->
<g id="node25" class="node">
<title>Node19913</title>
<g id="a_node25"><a xlink:href="trunk_8c.html#a6de2af5b1936dcf0f59ddf66d21fb38c" target="_top" xlink:title="A connection is writable. ">
<polygon fill="none" stroke="#000000" points="390.5,-9 390.5,-28 520.5,-28 520.5,-9 390.5,-9"/>
<text text-anchor="middle" x="455.5" y="-16" font-family="Helvetica,sans-Serif" font-size="10.00" fill="#000000">trunk_connection_writable</text>
</a>
</g>
</g>
<!-- Node19912&#45;&gt;Node19913 -->
<g id="edge33" class="edge">
<title>Node19912&#45;&gt;Node19913</title>
<path fill="none" stroke="#191970" d="M353.1133,-30.5063C361.8878,-29.4773 371.1673,-28.3892 380.4146,-27.3048"/>
<polygon fill="#191970" stroke="#191970" points="380.8866,-30.7735 390.4109,-26.1326 380.0713,-23.8212 380.8866,-30.7735"/>
</g>
<!-- Node19914 -->
<g id="node26" class="node">
<title>Node19914</title>
<g id="a_node26"><a xlink:href="trunk_8c.html#a4a0a08064485793b003756b197ca6622" target="_top" xlink:title="Return the count number of requests associated with a trunk connection. ">
<polygon fill="none" stroke="#ff0000" points="562,-.5 562,-30.5 678,-30.5 678,-.5 562,-.5"/>
<text text-anchor="start" x="570" y="-18.5" font-family="Helvetica,sans-Serif" font-size="10.00" fill="#000000">fr_trunk_request_count</text>
<text text-anchor="middle" x="620" y="-7.5" font-family="Helvetica,sans-Serif" font-size="10.00" fill="#000000">_by_connection</text>
</a>
</g>
</g>
<!-- Node19913&#45;&gt;Node19914 -->
<g id="edge34" class="edge">
<title>Node19913&#45;&gt;Node19914</title>
<path fill="none" stroke="#191970" d="M520.5148,-17.3143C530.7526,-17.1276 541.3635,-16.9341 551.6737,-16.7461"/>
<polygon fill="#191970" stroke="#191970" points="551.9243,-20.2422 561.8588,-16.5603 551.7966,-13.2433 551.9243,-20.2422"/>
</g>
<!-- Node19917&#45;&gt;Node19266 -->
<g id="edge36" class="edge">
<title>Node19917&#45;&gt;Node19266</title>
<path fill="none" stroke="#191970" d="M206.0677,-173.5C222.3964,-173.5 242.6362,-173.5 260.3101,-173.5"/>
<polygon fill="#191970" stroke="#191970" points="260.3709,-177.0001 270.3708,-173.5 260.3708,-170.0001 260.3709,-177.0001"/>
</g>
<!-- Node19917&#45;&gt;Node19893 -->
<g id="edge37" class="edge">
<title>Node19917&#45;&gt;Node19893</title>
<path fill="none" stroke="#191970" d="M206.1842,-181.7113C250.257,-193.6435 328.1705,-216.0352 353,-231.5 372.4752,-243.63 369.8001,-255.9388 389,-268.5 392.0706,-270.5089 395.3256,-272.3885 398.6807,-274.1417"/>
<polygon fill="#191970" stroke="#191970" points="397.2079,-277.3171 407.7376,-278.4895 400.2373,-271.0065 397.2079,-277.3171"/>
</g>
</g>
</svg>
