<?xml version="1.0" encoding="UTF-8" standalone="no"?>
<!DOCTYPE svg PUBLIC "-//W3C//DTD SVG 1.1//EN"
 "http://www.w3.org/Graphics/SVG/1.1/DTD/svg11.dtd">
<!-- Generated by graphviz version 2.40.1 (20161225.0304)
 -->
<!-- Title: sql_set_user Pages: 1 -->
<!--zoomable 338 -->
<svg id="main" version="1.1" xmlns="http://www.w3.org/2000/svg" xmlns:xlink="http://www.w3.org/1999/xlink" xml:space="preserve" onload="init(evt)">
<style type="text/css"><![CDATA[
.edge:hover path { stroke: red; }
.edge:hover polygon { stroke: red; fill: red; }
]]></style>
<script type="text/javascript"><![CDATA[
var edges = document.getElementsByTagName('g');
if (edges && edges.length) {
  for (var i=0;i<edges.length;i++) {
    if (edges[i].id.substr(0,4)=='edge') {
      edges[i].setAttribute('class','edge');
    }
  }
}
]]></script>
        <defs>
                <circle id="rim" cx="0" cy="0" r="7"/>
                <circle id="rim2" cx="0" cy="0" r="3.5"/>
                <g id="zoomPlus">
                        <use xlink:href="#rim" fill="#404040">
                                <set attributeName="fill" to="#808080" begin="zoomplus.mouseover" end="zoomplus.mouseout"/>
                        </use>
                        <path d="M-4,0h8M0,-4v8" fill="none" stroke="white" stroke-width="1.5" pointer-events="none"/>
                </g>
                <g id="zoomMin">
                        <use xlink:href="#rim" fill="#404040">
                                <set attributeName="fill" to="#808080" begin="zoomminus.mouseover" end="zoomminus.mouseout"/>
                        </use>
                        <path d="M-4,0h8" fill="none" stroke="white" stroke-width="1.5" pointer-events="none"/>
                </g>
                <g id="dirArrow">
                        <path fill="none" stroke="white" stroke-width="1.5" d="M0,-3.0v7 M-2.5,-0.5L0,-3.0L2.5,-0.5"/>
                </g>
               <g id="resetDef">
                       <use xlink:href="#rim2" fill="#404040">
                               <set attributeName="fill" to="#808080" begin="reset.mouseover" end="reset.mouseout"/>
                       </use>
               </g>
        </defs>

<script type="text/javascript">
var viewWidth = 842;
var viewHeight = 338;
var sectionId = 'dynsection-25';
</script>
<script xlink:href="svgpan.js"/>
<svg id="graph" class="graph">
<g id="viewport">
<title>sql_set_user</title>
<!-- Node9233 -->
<g id="node1" class="node">
<title>Node9233</title>
<polygon fill="#bfbfbf" stroke="#000000" points="0,-72.4542 0,-91.4542 72,-91.4542 72,-72.4542 0,-72.4542"/>
<text text-anchor="middle" x="36" y="-79.4542" font-family="Helvetica,sans-Serif" font-size="10.00" fill="#000000">sql_set_user</text>
</g>
<!-- Node9234 -->
<g id="node2" class="node">
<title>Node9234</title>
<g id="a_node2"><a xlink:href="xlat_8h.html#af2cbba970c886fb73d6ce5d4500f21dd" target="_top" xlink:title="xlat_aeval">
<polygon fill="none" stroke="#000000" points="132.5,-119.4542 132.5,-138.4542 193.5,-138.4542 193.5,-119.4542 132.5,-119.4542"/>
<text text-anchor="middle" x="163" y="-126.4542" font-family="Helvetica,sans-Serif" font-size="10.00" fill="#000000">xlat_aeval</text>
</a>
</g>
</g>
<!-- Node9233&#45;&gt;Node9234 -->
<g id="edge1" class="edge">
<title>Node9233&#45;&gt;Node9234</title>
<path fill="none" stroke="#191970" d="M61.7003,-91.4653C80.5967,-98.4585 106.5145,-108.0501 127.4036,-115.7807"/>
<polygon fill="#191970" stroke="#191970" points="126.3088,-119.1075 136.902,-119.2959 128.7384,-112.5426 126.3088,-119.1075"/>
</g>
<!-- Node9846 -->
<g id="node13" class="node">
<title>Node9846</title>
<g id="a_node13"><a xlink:href="pair_8c.html#a4eeb292bae07f439669099b7e1913c24" target="_top" xlink:title="Assign a string to to a &quot;string&quot; type value pair. ">
<polygon fill="none" stroke="#000000" points="108,-66.9542 108,-96.9542 218,-96.9542 218,-66.9542 108,-66.9542"/>
<text text-anchor="start" x="116" y="-84.9542" font-family="Helvetica,sans-Serif" font-size="10.00" fill="#000000">fr_pair_value_bstrdup</text>
<text text-anchor="middle" x="163" y="-73.9542" font-family="Helvetica,sans-Serif" font-size="10.00" fill="#000000">_buffer_shallow</text>
</a>
</g>
</g>
<!-- Node9233&#45;&gt;Node9846 -->
<g id="edge15" class="edge">
<title>Node9233&#45;&gt;Node9846</title>
<path fill="none" stroke="#191970" d="M72.0534,-81.9542C80.1522,-81.9542 88.9885,-81.9542 97.8674,-81.9542"/>
<polygon fill="#191970" stroke="#191970" points="97.8731,-85.4543 107.8731,-81.9542 97.8731,-78.4543 97.8731,-85.4543"/>
</g>
<!-- Node9847 -->
<g id="node16" class="node">
<title>Node9847</title>
<g id="a_node16"><a xlink:href="pair_8c.html#a9cdc96a74c812a36e4f40da7ef362008" target="_top" xlink:title="Change the length of a buffer for a &quot;string&quot; type value pair. ">
<polygon fill="none" stroke="#000000" points="116,-12.9542 116,-42.9542 210,-42.9542 210,-12.9542 116,-12.9542"/>
<text text-anchor="start" x="124" y="-30.9542" font-family="Helvetica,sans-Serif" font-size="10.00" fill="#000000">fr_pair_value_bstr</text>
<text text-anchor="middle" x="163" y="-19.9542" font-family="Helvetica,sans-Serif" font-size="10.00" fill="#000000">_realloc</text>
</a>
</g>
</g>
<!-- Node9233&#45;&gt;Node9847 -->
<g id="edge19" class="edge">
<title>Node9233&#45;&gt;Node9847</title>
<path fill="none" stroke="#191970" d="M58.4127,-72.4244C74.8877,-65.4193 97.8291,-55.6647 118.0289,-47.0758"/>
<polygon fill="#191970" stroke="#191970" points="119.5501,-50.2323 127.3832,-43.0983 116.811,-43.7904 119.5501,-50.2323"/>
</g>
<!-- Node9235 -->
<g id="node3" class="node">
<title>Node9235</title>
<g id="a_node3"><a xlink:href="xlat__eval_8c.html#a74d8cf2e6ad59fcfb8b390c1a15d0d79" target="_top" xlink:title="Replace whatever in a string. ">
<polygon fill="none" stroke="#000000" points="287.5,-123.4542 287.5,-142.4542 348.5,-142.4542 348.5,-123.4542 287.5,-123.4542"/>
<text text-anchor="middle" x="318" y="-130.4542" font-family="Helvetica,sans-Serif" font-size="10.00" fill="#000000">_xlat_eval</text>
</a>
</g>
</g>
<!-- Node9234&#45;&gt;Node9235 -->
<g id="edge2" class="edge">
<title>Node9234&#45;&gt;Node9235</title>
<path fill="none" stroke="#191970" d="M193.623,-129.7445C217.6122,-130.3635 251.2,-131.2303 277.4256,-131.9071"/>
<polygon fill="#191970" stroke="#191970" points="277.3536,-135.4063 287.4406,-132.1656 277.5343,-128.4087 277.3536,-135.4063"/>
</g>
<!-- Node9236 -->
<g id="node4" class="node">
<title>Node9236</title>
<g id="a_node4"><a xlink:href="xlat_8h.html#a85829f4364557f22d8e7da7f6f5b826b" target="_top" xlink:title="Tokenize an xlat expansion at runtime. ">
<polygon fill="none" stroke="#000000" points="418,-215.4542 418,-234.4542 543,-234.4542 543,-215.4542 418,-215.4542"/>
<text text-anchor="middle" x="480.5" y="-222.4542" font-family="Helvetica,sans-Serif" font-size="10.00" fill="#000000">xlat_tokenize_ephemeral</text>
</a>
</g>
</g>
<!-- Node9235&#45;&gt;Node9236 -->
<g id="edge3" class="edge">
<title>Node9235&#45;&gt;Node9236</title>
<path fill="none" stroke="#191970" d="M335.0832,-142.6259C363.6851,-158.819 421.4133,-191.502 454.8907,-210.4554"/>
<polygon fill="#191970" stroke="#191970" points="453.2192,-213.531 463.6457,-215.4121 456.6679,-207.4395 453.2192,-213.531"/>
</g>
<!-- Node9237 -->
<g id="node5" class="node">
<title>Node9237</title>
<g id="a_node5"><a xlink:href="strerror_8c.html#a83ee876ee41b1ae672dc4dcda4f02a2e" target="_top" xlink:title="Get the last library error. ">
<polygon fill="none" stroke="#ff0000" points="616,-310.4542 616,-329.4542 675,-329.4542 675,-310.4542 616,-310.4542"/>
<text text-anchor="middle" x="645.5" y="-317.4542" font-family="Helvetica,sans-Serif" font-size="10.00" fill="#000000">fr_strerror</text>
</a>
</g>
</g>
<!-- Node9235&#45;&gt;Node9237 -->
<g id="edge10" class="edge">
<title>Node9235&#45;&gt;Node9237</title>
<path fill="none" stroke="#191970" d="M324.2813,-142.7485C338.4598,-164.1143 375.0776,-215.2851 418,-243.9542 476.8764,-283.2794 557.8979,-303.8923 605.6781,-313.3022"/>
<polygon fill="#191970" stroke="#191970" points="605.1592,-316.7662 615.637,-315.1956 606.4667,-309.8894 605.1592,-316.7662"/>
</g>
<!-- Node9489 -->
<g id="node10" class="node">
<title>Node9489</title>
<g id="a_node10"><a xlink:href="xlat__eval_8c.html#aeb47743ed8c9d8a878691668b31f622d" target="_top" xlink:title="Replace whatever in a string. ">
<polygon fill="none" stroke="#000000" points="428,-121.4542 428,-140.4542 533,-140.4542 533,-121.4542 428,-121.4542"/>
<text text-anchor="middle" x="480.5" y="-128.4542" font-family="Helvetica,sans-Serif" font-size="10.00" fill="#000000">_xlat_eval_compiled</text>
</a>
</g>
</g>
<!-- Node9235&#45;&gt;Node9489 -->
<g id="edge11" class="edge">
<title>Node9235&#45;&gt;Node9489</title>
<path fill="none" stroke="#191970" d="M348.565,-127.1666C368.0329,-125.7291 393.9646,-125.0161 417.6837,-125.1342"/>
<polygon fill="#191970" stroke="#191970" points="417.6531,-128.6339 427.6883,-125.236 417.7244,-121.6343 417.6531,-128.6339"/>
</g>
<!-- Node9236&#45;&gt;Node9237 -->
<g id="edge4" class="edge">
<title>Node9236&#45;&gt;Node9237</title>
<path fill="none" stroke="#191970" d="M490.2525,-234.5726C507.0075,-250.5851 542.9477,-282.7435 579,-300.9542 587.4216,-305.2081 596.9386,-308.6406 606.0851,-311.3553"/>
<polygon fill="#191970" stroke="#191970" points="605.2252,-314.7487 615.7952,-314.0241 607.0804,-307.999 605.2252,-314.7487"/>
</g>
<!-- Node9242 -->
<g id="node6" class="node">
<title>Node9242</title>
<g id="a_node6"><a xlink:href="xlat__tokenize_8c.html#ac85f1dfa82ebb32cf7cc567829386443" target="_top" xlink:title="Parse an xlat literal i.e. ">
<polygon fill="none" stroke="#ff0000" points="594,-272.4542 594,-291.4542 697,-291.4542 697,-272.4542 594,-272.4542"/>
<text text-anchor="middle" x="645.5" y="-279.4542" font-family="Helvetica,sans-Serif" font-size="10.00" fill="#000000">xlat_tokenize_literal</text>
</a>
</g>
</g>
<!-- Node9236&#45;&gt;Node9242 -->
<g id="edge5" class="edge">
<title>Node9236&#45;&gt;Node9242</title>
<path fill="none" stroke="#191970" d="M508.1173,-234.4947C535.482,-243.948 577.5901,-258.4944 607.9756,-268.9912"/>
<polygon fill="#191970" stroke="#191970" points="607.1979,-272.4254 617.7926,-272.3825 609.4835,-265.8091 607.1979,-272.4254"/>
</g>
<!-- Node9257 -->
<g id="node7" class="node">
<title>Node9257</title>
<g id="a_node7"><a xlink:href="strerror_8c.html#ae701765650b8aea79a3037bc4921d7f8" target="_top" xlink:title="Log to thread local error buffer. ">
<polygon fill="none" stroke="#ff0000" points="748,-139.4542 748,-158.4542 834,-158.4542 834,-139.4542 748,-139.4542"/>
<text text-anchor="middle" x="791" y="-146.4542" font-family="Helvetica,sans-Serif" font-size="10.00" fill="#000000">fr_strerror_printf</text>
</a>
</g>
</g>
<!-- Node9236&#45;&gt;Node9257 -->
<g id="edge9" class="edge">
<title>Node9236&#45;&gt;Node9257</title>
<path fill="none" stroke="#191970" d="M525.0179,-234.4985C573.05,-242.6595 650.8629,-249.5877 712,-224.9542 740.975,-213.2795 765.2712,-185.3319 778.9767,-166.7784"/>
<polygon fill="#191970" stroke="#191970" points="781.8925,-168.7175 784.8282,-158.5375 776.1849,-164.6648 781.8925,-168.7175"/>
</g>
<!-- Node9386 -->
<g id="node8" class="node">
<title>Node9386</title>
<g id="a_node8"><a xlink:href="xlat__tokenize_8c.html#aa0f1579ac5fe40368dee0b61c3952777" target="_top" xlink:title="Allocate an xlat node. ">
<polygon fill="none" stroke="#ff0000" points="606,-196.4542 606,-215.4542 685,-215.4542 685,-196.4542 606,-196.4542"/>
<text text-anchor="middle" x="645.5" y="-203.4542" font-family="Helvetica,sans-Serif" font-size="10.00" fill="#000000">xlat_exp_alloc</text>
</a>
</g>
</g>
<!-- Node9236&#45;&gt;Node9386 -->
<g id="edge7" class="edge">
<title>Node9236&#45;&gt;Node9386</title>
<path fill="none" stroke="#191970" d="M543.3501,-217.7169C560.6965,-215.7194 579.2735,-213.5803 595.7649,-211.6813"/>
<polygon fill="#191970" stroke="#191970" points="596.2,-215.1544 605.7339,-210.5333 595.3992,-208.2003 596.2,-215.1544"/>
</g>
<!-- Node9474 -->
<g id="node9" class="node">
<title>Node9474</title>
<g id="a_node9"><a xlink:href="xlat_8h.html#a7db04027b54d2658008979b231afc42c" target="_top" xlink:title="Create instance data for &quot;ephemeral&quot; xlats. ">
<polygon fill="none" stroke="#ff0000" points="579,-158.4542 579,-177.4542 712,-177.4542 712,-158.4542 579,-158.4542"/>
<text text-anchor="middle" x="645.5" y="-165.4542" font-family="Helvetica,sans-Serif" font-size="10.00" fill="#000000">xlat_instantiate_ephemeral</text>
</a>
</g>
</g>
<!-- Node9236&#45;&gt;Node9474 -->
<g id="edge8" class="edge">
<title>Node9236&#45;&gt;Node9474</title>
<path fill="none" stroke="#191970" d="M503.769,-215.2963C523.5937,-207.2327 552.9302,-195.6875 579,-186.9542 585.655,-184.7248 592.738,-182.5229 599.7065,-180.4522"/>
<polygon fill="#191970" stroke="#191970" points="601.1467,-183.6783 609.771,-177.5243 599.1914,-176.957 601.1467,-183.6783"/>
</g>
<!-- Node9242&#45;&gt;Node9257 -->
<g id="edge6" class="edge">
<title>Node9242&#45;&gt;Node9257</title>
<path fill="none" stroke="#191970" d="M684.0618,-272.4046C693.7692,-268.8673 703.7611,-264.1526 712,-257.9542 744.5195,-233.4885 769.3495,-191.8771 781.9057,-167.763"/>
<polygon fill="#191970" stroke="#191970" points="785.1481,-169.106 786.5221,-158.6006 778.8968,-165.9562 785.1481,-169.106"/>
</g>
<!-- Node9489&#45;&gt;Node9235 -->
<g id="edge14" class="edge">
<title>Node9489&#45;&gt;Node9235</title>
<path fill="none" stroke="#191970" d="M427.6883,-137.9724C405.2898,-138.8735 379.5916,-139.0468 358.702,-138.3925"/>
<polygon fill="#191970" stroke="#191970" points="358.6962,-134.8896 348.565,-137.9895 358.418,-141.884 358.6962,-134.8896"/>
</g>
<!-- Node9490 -->
<g id="node11" class="node">
<title>Node9490</title>
<g id="a_node11"><a xlink:href="xlat__eval_8c.html#a975c12ee802f5faf5393f79449aa4f65" target="_top" xlink:title="xlat_process">
<polygon fill="none" stroke="#ff0000" points="609.5,-120.4542 609.5,-139.4542 681.5,-139.4542 681.5,-120.4542 609.5,-120.4542"/>
<text text-anchor="middle" x="645.5" y="-127.4542" font-family="Helvetica,sans-Serif" font-size="10.00" fill="#000000">xlat_process</text>
</a>
</g>
</g>
<!-- Node9489&#45;&gt;Node9490 -->
<g id="edge12" class="edge">
<title>Node9489&#45;&gt;Node9490</title>
<path fill="none" stroke="#191970" d="M533.1607,-130.635C554.4607,-130.5059 578.8277,-130.3583 599.4116,-130.2335"/>
<polygon fill="#191970" stroke="#191970" points="599.509,-133.7331 609.4876,-130.1724 599.4665,-126.7332 599.509,-133.7331"/>
</g>
<!-- Node9351 -->
<g id="node12" class="node">
<title>Node9351</title>
<g id="a_node12"><a xlink:href="strlcpy_8c.html#a59f9599e77ee687b1daaa179f8b9a2f3" target="_top" xlink:title="strlcpy">
<polygon fill="none" stroke="#000000" points="622.5,-82.4542 622.5,-101.4542 668.5,-101.4542 668.5,-82.4542 622.5,-82.4542"/>
<text text-anchor="middle" x="645.5" y="-89.4542" font-family="Helvetica,sans-Serif" font-size="10.00" fill="#000000">strlcpy</text>
</a>
</g>
</g>
<!-- Node9489&#45;&gt;Node9351 -->
<g id="edge13" class="edge">
<title>Node9489&#45;&gt;Node9351</title>
<path fill="none" stroke="#191970" d="M520.8635,-121.4137C548.995,-114.7645 586.0614,-106.0033 612.4416,-99.768"/>
<polygon fill="#191970" stroke="#191970" points="613.4094,-103.1358 622.3361,-97.4293 611.7992,-96.3235 613.4094,-103.1358"/>
</g>
<!-- Node9278 -->
<g id="node14" class="node">
<title>Node9278</title>
<g id="a_node14"><a xlink:href="value_8c.html#ad5da2574fed047b3ae861999d06c38ac" target="_top" xlink:title="Clear/free any existing value and metadata. ">
<polygon fill="none" stroke="#ff0000" points="269,-85.4542 269,-104.4542 367,-104.4542 367,-85.4542 269,-85.4542"/>
<text text-anchor="middle" x="318" y="-92.4542" font-family="Helvetica,sans-Serif" font-size="10.00" fill="#000000">fr_value_box_clear</text>
</a>
</g>
</g>
<!-- Node9846&#45;&gt;Node9278 -->
<g id="edge16" class="edge">
<title>Node9846&#45;&gt;Node9278</title>
<path fill="none" stroke="#191970" d="M218.0836,-86.5741C231.2582,-87.6791 245.3783,-88.8633 258.7328,-89.9834"/>
<polygon fill="#191970" stroke="#191970" points="258.5098,-93.4769 268.7674,-90.825 259.0949,-86.5014 258.5098,-93.4769"/>
</g>
<!-- Node9282 -->
<g id="node15" class="node">
<title>Node9282</title>
<g id="a_node15"><a xlink:href="value_8c.html#aed6c89331ec783228dd9d415433df323" target="_top" xlink:title="Assign a talloced buffer containing a nul terminated string to a box, but don&#39;t copy it...">
<polygon fill="none" stroke="#ff0000" points="425.5,-43.9542 425.5,-73.9542 535.5,-73.9542 535.5,-43.9542 425.5,-43.9542"/>
<text text-anchor="start" x="433.5" y="-61.9542" font-family="Helvetica,sans-Serif" font-size="10.00" fill="#000000">fr_value_box_bstrdup</text>
<text text-anchor="middle" x="480.5" y="-50.9542" font-family="Helvetica,sans-Serif" font-size="10.00" fill="#000000">_buffer_shallow</text>
</a>
</g>
</g>
<!-- Node9846&#45;&gt;Node9282 -->
<g id="edge17" class="edge">
<title>Node9846&#45;&gt;Node9282</title>
<path fill="none" stroke="#191970" d="M218.3043,-77.9479C273.1109,-73.9777 357.0537,-67.8968 415.1287,-63.6898"/>
<polygon fill="#191970" stroke="#191970" points="415.5768,-67.1666 425.2978,-62.9531 415.071,-60.1848 415.5768,-67.1666"/>
</g>
<!-- Node9282&#45;&gt;Node9257 -->
<g id="edge18" class="edge">
<title>Node9282&#45;&gt;Node9257</title>
<path fill="none" stroke="#191970" d="M535.8471,-51.8778C584.3782,-48.0484 655.765,-48.2969 712,-72.9542 740.4595,-85.4328 764.7531,-112.9109 778.6174,-131.1782"/>
<polygon fill="#191970" stroke="#191970" points="775.8293,-133.295 784.5582,-139.2998 781.4792,-129.1622 775.8293,-133.295"/>
</g>
<!-- Node9766 -->
<g id="node17" class="node">
<title>Node9766</title>
<g id="a_node17"><a xlink:href="value_8c.html#ae023cc6dbbe643f27bf6de73314655ee" target="_top" xlink:title="Change the length of a buffer already allocated to a value box. ">
<polygon fill="none" stroke="#000000" points="254,-8.4542 254,-27.4542 382,-27.4542 382,-8.4542 254,-8.4542"/>
<text text-anchor="middle" x="318" y="-15.4542" font-family="Helvetica,sans-Serif" font-size="10.00" fill="#000000">fr_value_box_bstr_realloc</text>
</a>
</g>
</g>
<!-- Node9847&#45;&gt;Node9766 -->
<g id="edge20" class="edge">
<title>Node9847&#45;&gt;Node9766</title>
<path fill="none" stroke="#191970" d="M210.3473,-24.8995C220.8444,-24.2223 232.2157,-23.4887 243.5021,-22.7605"/>
<polygon fill="#191970" stroke="#191970" points="244.0618,-26.2318 253.8157,-22.0951 243.6111,-19.2463 244.0618,-26.2318"/>
</g>
<!-- Node9766&#45;&gt;Node9257 -->
<g id="edge21" class="edge">
<title>Node9766&#45;&gt;Node9257</title>
<path fill="none" stroke="#191970" d="M374.159,-8.4391C454.3553,2.261 603.9225,11.2889 712,-46.9542 746.3333,-65.4565 770.5097,-105.9783 782.4623,-130.0055"/>
<polygon fill="#191970" stroke="#191970" points="779.3717,-131.6562 786.8304,-139.1807 785.692,-128.6472 779.3717,-131.6562"/>
</g>
</g>
</svg>
        <g id="navigator" transform="translate(0 0)" fill="#404254">
                <rect fill="#f2f5e9" fill-opacity="0.5" stroke="#606060" stroke-width=".5" x="0" y="0" width="60" height="60"/>
                <use id="zoomplus" xlink:href="#zoomPlus" x="17" y="9" onmousedown="handleZoom(evt,'in')"/>
                <use id="zoomminus" xlink:href="#zoomMin" x="42" y="9" onmousedown="handleZoom(evt,'out')"/>
                <use id="reset" xlink:href="#resetDef" x="30" y="36" onmousedown="handleReset()"/>
                <g id="arrowUp" xlink:href="#dirArrow" transform="translate(30 24)" onmousedown="handlePan(0,-1)">
                  <use xlink:href="#rim" fill="#404040">
                        <set attributeName="fill" to="#808080" begin="arrowUp.mouseover" end="arrowUp.mouseout"/>
                  </use>
                  <path fill="none" stroke="white" stroke-width="1.5" d="M0,-3.0v7 M-2.5,-0.5L0,-3.0L2.5,-0.5"/>
                </g>
                <g id="arrowRight" xlink:href="#dirArrow" transform="rotate(90) translate(36 -43)" onmousedown="handlePan(1,0)">
                  <use xlink:href="#rim" fill="#404040">
                        <set attributeName="fill" to="#808080" begin="arrowRight.mouseover" end="arrowRight.mouseout"/>
                  </use>
                  <path fill="none" stroke="white" stroke-width="1.5" d="M0,-3.0v7 M-2.5,-0.5L0,-3.0L2.5,-0.5"/>
                </g>
                <g id="arrowDown" xlink:href="#dirArrow" transform="rotate(180) translate(-30 -48)" onmousedown="handlePan(0,1)">
                  <use xlink:href="#rim" fill="#404040">
                        <set attributeName="fill" to="#808080" begin="arrowDown.mouseover" end="arrowDown.mouseout"/>
                  </use>
                  <path fill="none" stroke="white" stroke-width="1.5" d="M0,-3.0v7 M-2.5,-0.5L0,-3.0L2.5,-0.5"/>
                </g>
                <g id="arrowLeft" xlink:href="#dirArrow" transform="rotate(270) translate(-36 17)" onmousedown="handlePan(-1,0)">
                  <use xlink:href="#rim" fill="#404040">
                        <set attributeName="fill" to="#808080" begin="arrowLeft.mouseover" end="arrowLeft.mouseout"/>
                  </use>
                  <path fill="none" stroke="white" stroke-width="1.5" d="M0,-3.0v7 M-2.5,-0.5L0,-3.0L2.5,-0.5"/>
                </g>
        </g>
        <svg viewBox="0 0 15 15" width="100%" height="30px" preserveAspectRatio="xMaxYMin meet">
         <g id="arrow_out" transform="scale(0.3 0.3)">
          <a xlink:href="rlm__sql_8c_a4ed2438dec5dbfea8f5d5d05cdc409d4_cgraph_org.svg" target="_base">
           <rect id="button" ry="5" rx="5" y="6" x="6" height="38" width="38"
                fill="#f2f5e9" fill-opacity="0.5" stroke="#606060" stroke-width="1.0"/>
           <path id="arrow"
             d="M 11.500037,31.436501 C 11.940474,20.09759 22.043105,11.32322 32.158766,21.979434 L 37.068811,17.246167 C 37.068811,17.246167 37.088388,32 37.088388,32 L 22.160133,31.978069 C 22.160133,31.978069 26.997745,27.140456 26.997745,27.140456 C 18.528582,18.264221 13.291696,25.230495 11.500037,31.436501 z"
             style="fill:#404040;"/>
          </a>
         </g>
        </svg>
</svg>
