<?xml version="1.0" encoding="UTF-8" standalone="no"?>
<!DOCTYPE svg PUBLIC "-//W3C//DTD SVG 1.1//EN"
 "http://www.w3.org/Graphics/SVG/1.1/DTD/svg11.dtd">
<!-- Generated by graphviz version 2.40.1 (20161225.0304)
 -->
<!-- Title: mod_unload Pages: 1 -->
<!--zoomable 39 -->
<svg id="main" version="1.1" xmlns="http://www.w3.org/2000/svg" xmlns:xlink="http://www.w3.org/1999/xlink" xml:space="preserve" onload="init(evt)">
<style type="text/css"><![CDATA[
.edge:hover path { stroke: red; }
.edge:hover polygon { stroke: red; fill: red; }
]]></style>
<script type="text/javascript"><![CDATA[
var edges = document.getElementsByTagName('g');
if (edges && edges.length) {
  for (var i=0;i<edges.length;i++) {
    if (edges[i].id.substr(0,4)=='edge') {
      edges[i].setAttribute('class','edge');
    }
  }
}
]]></script>
        <defs>
                <circle id="rim" cx="0" cy="0" r="7"/>
                <circle id="rim2" cx="0" cy="0" r="3.5"/>
                <g id="zoomPlus">
                        <use xlink:href="#rim" fill="#404040">
                                <set attributeName="fill" to="#808080" begin="zoomplus.mouseover" end="zoomplus.mouseout"/>
                        </use>
                        <path d="M-4,0h8M0,-4v8" fill="none" stroke="white" stroke-width="1.5" pointer-events="none"/>
                </g>
                <g id="zoomMin">
                        <use xlink:href="#rim" fill="#404040">
                                <set attributeName="fill" to="#808080" begin="zoomminus.mouseover" end="zoomminus.mouseout"/>
                        </use>
                        <path d="M-4,0h8" fill="none" stroke="white" stroke-width="1.5" pointer-events="none"/>
                </g>
                <g id="dirArrow">
                        <path fill="none" stroke="white" stroke-width="1.5" d="M0,-3.0v7 M-2.5,-0.5L0,-3.0L2.5,-0.5"/>
                </g>
               <g id="resetDef">
                       <use xlink:href="#rim2" fill="#404040">
                               <set attributeName="fill" to="#808080" begin="reset.mouseover" end="reset.mouseout"/>
                       </use>
               </g>
        </defs>

<script type="text/javascript">
var viewWidth = 551;
var viewHeight = 39;
var sectionId = 'dynsection-19';
</script>
<script xlink:href="svgpan.js"/>
<svg id="graph" class="graph">
<g id="viewport">
<title>mod_unload</title>
<!-- Node3440 -->
<g id="node1" class="node">
<title>Node3440</title>
<polygon fill="#bfbfbf" stroke="#000000" points="0,-6 0,-25 69,-25 69,-6 0,-6"/>
<text text-anchor="middle" x="34.5" y="-13" font-family="Helvetica,sans-Serif" font-size="10.00" fill="#000000">mod_unload</text>
</g>
<!-- Node3441 -->
<g id="node2" class="node">
<title>Node3441</title>
<g id="a_node2"><a xlink:href="lib_2eap_2base_8c.html#a70b9c1a62ec44f02780682e42ee50354" target="_top" xlink:title="De&#45;init the lib eap base library. ">
<polygon fill="none" stroke="#000000" points="105,-6 105,-25 185,-25 185,-6 105,-6"/>
<text text-anchor="middle" x="145" y="-13" font-family="Helvetica,sans-Serif" font-size="10.00" fill="#000000">eap_base_free</text>
</a>
</g>
</g>
<!-- Node3440&#45;&gt;Node3441 -->
<g id="edge1" class="edge">
<title>Node3440&#45;&gt;Node3441</title>
<path fill="none" stroke="#191970" d="M69.1597,-15.5C77.2573,-15.5 86.0434,-15.5 94.6684,-15.5"/>
<polygon fill="#191970" stroke="#191970" points="94.6685,-19.0001 104.6685,-15.5 94.6684,-12.0001 94.6685,-19.0001"/>
</g>
<!-- Node3442 -->
<g id="node3" class="node">
<title>Node3442</title>
<g id="a_node3"><a xlink:href="dict_8h.html#af02d9b5797d2d60942a51ed08952afd2" target="_top" xlink:title="Decrement the reference count on a previously loaded dictionary. ">
<polygon fill="none" stroke="#000000" points="221,-6 221,-25 305,-25 305,-6 221,-6"/>
<text text-anchor="middle" x="263" y="-13" font-family="Helvetica,sans-Serif" font-size="10.00" fill="#000000">fr_dict_autofree</text>
</a>
</g>
</g>
<!-- Node3441&#45;&gt;Node3442 -->
<g id="edge2" class="edge">
<title>Node3441&#45;&gt;Node3442</title>
<path fill="none" stroke="#191970" d="M185.2789,-15.5C193.443,-15.5 202.1406,-15.5 210.6513,-15.5"/>
<polygon fill="#191970" stroke="#191970" points="210.8913,-19.0001 220.8912,-15.5 210.8912,-12.0001 210.8913,-19.0001"/>
</g>
<!-- Node3443 -->
<g id="node4" class="node">
<title>Node3443</title>
<g id="a_node4"><a xlink:href="dict__util_8c.html#a771e845c7d0610ee46e3d539e2a703b3" target="_top" xlink:title="Decrement the reference count on a previously loaded dictionary. ">
<polygon fill="none" stroke="#000000" points="341,-6 341,-25 406,-25 406,-6 341,-6"/>
<text text-anchor="middle" x="373.5" y="-13" font-family="Helvetica,sans-Serif" font-size="10.00" fill="#000000">fr_dict_free</text>
</a>
</g>
</g>
<!-- Node3442&#45;&gt;Node3443 -->
<g id="edge3" class="edge">
<title>Node3442&#45;&gt;Node3443</title>
<path fill="none" stroke="#191970" d="M305.0905,-15.5C313.5025,-15.5 322.3466,-15.5 330.7795,-15.5"/>
<polygon fill="#191970" stroke="#191970" points="330.8054,-19.0001 340.8054,-15.5 330.8053,-12.0001 330.8054,-19.0001"/>
</g>
<!-- Node3444 -->
<g id="node5" class="node">
<title>Node3444</title>
<g id="a_node5"><a xlink:href="talloc_8c.html#acd906ed444eee3d5ec85f4f31a034c7e" target="_top" xlink:title="Decrease the reference count on a ptr. ">
<polygon fill="none" stroke="#000000" points="442,-.5 442,-30.5 543,-30.5 543,-.5 442,-.5"/>
<text text-anchor="start" x="450" y="-18.5" font-family="Helvetica,sans-Serif" font-size="10.00" fill="#000000">talloc_decrease_ref</text>
<text text-anchor="middle" x="492.5" y="-7.5" font-family="Helvetica,sans-Serif" font-size="10.00" fill="#000000">_count</text>
</a>
</g>
</g>
<!-- Node3443&#45;&gt;Node3444 -->
<g id="edge4" class="edge">
<title>Node3443&#45;&gt;Node3444</title>
<path fill="none" stroke="#191970" d="M406.0173,-15.5C413.9311,-15.5 422.6529,-15.5 431.4204,-15.5"/>
<polygon fill="#191970" stroke="#191970" points="431.6881,-19.0001 441.6881,-15.5 431.6881,-12.0001 431.6881,-19.0001"/>
</g>
</g>
</svg>
        <g id="navigator" transform="translate(0 0)" fill="#404254">
                <rect fill="#f2f5e9" fill-opacity="0.5" stroke="#606060" stroke-width=".5" x="0" y="0" width="60" height="60"/>
                <use id="zoomplus" xlink:href="#zoomPlus" x="17" y="9" onmousedown="handleZoom(evt,'in')"/>
                <use id="zoomminus" xlink:href="#zoomMin" x="42" y="9" onmousedown="handleZoom(evt,'out')"/>
                <use id="reset" xlink:href="#resetDef" x="30" y="36" onmousedown="handleReset()"/>
                <g id="arrowUp" xlink:href="#dirArrow" transform="translate(30 24)" onmousedown="handlePan(0,-1)">
                  <use xlink:href="#rim" fill="#404040">
                        <set attributeName="fill" to="#808080" begin="arrowUp.mouseover" end="arrowUp.mouseout"/>
                  </use>
                  <path fill="none" stroke="white" stroke-width="1.5" d="M0,-3.0v7 M-2.5,-0.5L0,-3.0L2.5,-0.5"/>
                </g>
                <g id="arrowRight" xlink:href="#dirArrow" transform="rotate(90) translate(36 -43)" onmousedown="handlePan(1,0)">
                  <use xlink:href="#rim" fill="#404040">
                        <set attributeName="fill" to="#808080" begin="arrowRight.mouseover" end="arrowRight.mouseout"/>
                  </use>
                  <path fill="none" stroke="white" stroke-width="1.5" d="M0,-3.0v7 M-2.5,-0.5L0,-3.0L2.5,-0.5"/>
                </g>
                <g id="arrowDown" xlink:href="#dirArrow" transform="rotate(180) translate(-30 -48)" onmousedown="handlePan(0,1)">
                  <use xlink:href="#rim" fill="#404040">
                        <set attributeName="fill" to="#808080" begin="arrowDown.mouseover" end="arrowDown.mouseout"/>
                  </use>
                  <path fill="none" stroke="white" stroke-width="1.5" d="M0,-3.0v7 M-2.5,-0.5L0,-3.0L2.5,-0.5"/>
                </g>
                <g id="arrowLeft" xlink:href="#dirArrow" transform="rotate(270) translate(-36 17)" onmousedown="handlePan(-1,0)">
                  <use xlink:href="#rim" fill="#404040">
                        <set attributeName="fill" to="#808080" begin="arrowLeft.mouseover" end="arrowLeft.mouseout"/>
                  </use>
                  <path fill="none" stroke="white" stroke-width="1.5" d="M0,-3.0v7 M-2.5,-0.5L0,-3.0L2.5,-0.5"/>
                </g>
        </g>
        <svg viewBox="0 0 15 15" width="100%" height="30px" preserveAspectRatio="xMaxYMin meet">
         <g id="arrow_out" transform="scale(0.3 0.3)">
          <a xlink:href="rlm__eap_8c_a850b9e31e44c275b98c89da1d738b9dd_cgraph_org.svg" target="_base">
           <rect id="button" ry="5" rx="5" y="6" x="6" height="38" width="38"
                fill="#f2f5e9" fill-opacity="0.5" stroke="#606060" stroke-width="1.0"/>
           <path id="arrow"
             d="M 11.500037,31.436501 C 11.940474,20.09759 22.043105,11.32322 32.158766,21.979434 L 37.068811,17.246167 C 37.068811,17.246167 37.088388,32 37.088388,32 L 22.160133,31.978069 C 22.160133,31.978069 26.997745,27.140456 26.997745,27.140456 C 18.528582,18.264221 13.291696,25.230495 11.500037,31.436501 z"
             style="fill:#404040;"/>
          </a>
         </g>
        </svg>
</svg>
