<?xml version="1.0" encoding="UTF-8" standalone="no"?>
<!DOCTYPE svg PUBLIC "-//W3C//DTD SVG 1.1//EN"
 "http://www.w3.org/Graphics/SVG/1.1/DTD/svg11.dtd">
<!-- Generated by graphviz version 2.40.1 (20161225.0304)
 -->
<!-- Title: pap_auth_ns_mta_md5 Pages: 1 -->
<svg width="240pt" height="104pt"
 viewBox="0.00 0.00 240.00 104.00" xmlns="http://www.w3.org/2000/svg" xmlns:xlink="http://www.w3.org/1999/xlink">
<g id="graph0" class="graph" transform="scale(1 1) rotate(0) translate(4 100)">
<title>pap_auth_ns_mta_md5</title>
<!-- Node1634 -->
<g id="node1" class="node">
<title>Node1634</title>
<polygon fill="#bfbfbf" stroke="#000000" points="0,-38.5 0,-57.5 118,-57.5 118,-38.5 0,-38.5"/>
<text text-anchor="middle" x="59" y="-45.5" font-family="Helvetica,sans-Serif" font-size="10.00" fill="#000000">pap_auth_ns_mta_md5</text>
</g>
<!-- Node1635 -->
<g id="node2" class="node">
<title>Node1635</title>
<g id="a_node2"><a xlink:href="hex_8c.html#a4b78e4d330d756e11a2ace4bc9b046ed" target="_top" xlink:title="Convert hex strings to binary data. ">
<polygon fill="none" stroke="#000000" points="162,-76.5 162,-95.5 224,-95.5 224,-76.5 162,-76.5"/>
<text text-anchor="middle" x="193" y="-83.5" font-family="Helvetica,sans-Serif" font-size="10.00" fill="#000000">fr_hex2bin</text>
</a>
</g>
</g>
<!-- Node1634&#45;&gt;Node1635 -->
<g id="edge1" class="edge">
<title>Node1634&#45;&gt;Node1635</title>
<path fill="none" stroke="#191970" d="M92.8139,-57.589C110.8213,-62.6956 133.1075,-69.0156 152.0851,-74.3973"/>
<polygon fill="#191970" stroke="#191970" points="151.377,-77.8344 161.9525,-77.1955 153.2868,-71.1 151.377,-77.8344"/>
</g>
<!-- Node1636 -->
<g id="node3" class="node">
<title>Node1636</title>
<g id="a_node3"><a xlink:href="md5_8c.html#a9c69c4f7d4df0948bc0d5ddf5a650982" target="_top" xlink:title="Calculate the MD5 hash of the contents of a buffer. ">
<polygon fill="none" stroke="#000000" points="158,-38.5 158,-57.5 228,-57.5 228,-38.5 158,-38.5"/>
<text text-anchor="middle" x="193" y="-45.5" font-family="Helvetica,sans-Serif" font-size="10.00" fill="#000000">fr_md5_calc</text>
</a>
</g>
</g>
<!-- Node1634&#45;&gt;Node1636 -->
<g id="edge2" class="edge">
<title>Node1634&#45;&gt;Node1636</title>
<path fill="none" stroke="#191970" d="M118.1644,-48C128.153,-48 138.3772,-48 147.9324,-48"/>
<polygon fill="#191970" stroke="#191970" points="147.9955,-51.5001 157.9954,-48 147.9954,-44.5001 147.9955,-51.5001"/>
</g>
<!-- Node1637 -->
<g id="node4" class="node">
<title>Node1637</title>
<g id="a_node4"><a xlink:href="misc_8c.html#aec3461f919647c423076e8c88bdbadb7" target="_top" xlink:title="Do a comparison of two authentication digests by comparing the FULL data. ">
<polygon fill="none" stroke="#000000" points="154,-.5 154,-19.5 232,-19.5 232,-.5 154,-.5"/>
<text text-anchor="middle" x="193" y="-7.5" font-family="Helvetica,sans-Serif" font-size="10.00" fill="#000000">fr_digest_cmp</text>
</a>
</g>
</g>
<!-- Node1634&#45;&gt;Node1637 -->
<g id="edge3" class="edge">
<title>Node1634&#45;&gt;Node1637</title>
<path fill="none" stroke="#191970" d="M92.8139,-38.411C110.0326,-33.5281 131.1637,-27.5357 149.5733,-22.315"/>
<polygon fill="#191970" stroke="#191970" points="150.5312,-25.6815 159.197,-19.5859 148.6214,-18.947 150.5312,-25.6815"/>
</g>
</g>
</svg>
