<?xml version="1.0" encoding="UTF-8" standalone="no"?>
<!DOCTYPE svg PUBLIC "-//W3C//DTD SVG 1.1//EN"
 "http://www.w3.org/Graphics/SVG/1.1/DTD/svg11.dtd">
<!-- Generated by graphviz version 2.40.1 (20161225.0304)
 -->
<!-- Title: mschap_process_cpw_request Pages: 1 -->
<svg width="962pt" height="951pt"
 viewBox="0.00 0.00 962.00 950.98" xmlns="http://www.w3.org/2000/svg" xmlns:xlink="http://www.w3.org/1999/xlink">
<g id="graph0" class="graph" transform="scale(1 1) rotate(0) translate(4 946.9824)">
<title>mschap_process_cpw_request</title>
<!-- Node4682 -->
<g id="node1" class="node">
<title>Node4682</title>
<polygon fill="#bfbfbf" stroke="#000000" points="0,-263 0,-293 114,-293 114,-263 0,-263"/>
<text text-anchor="start" x="8" y="-281" font-family="Helvetica,sans-Serif" font-size="10.00" fill="#000000">mschap_process_cpw</text>
<text text-anchor="middle" x="57" y="-270" font-family="Helvetica,sans-Serif" font-size="10.00" fill="#000000">_request</text>
</g>
<!-- Node4683 -->
<g id="node2" class="node">
<title>Node4683</title>
<g id="a_node2"><a xlink:href="cursor_8c.html#af6c2090d1e00319075d6def5aa2666fd" target="_top" xlink:title="Advanced the cursor to the next item. ">
<polygon fill="none" stroke="#000000" points="771,-691.5 771,-710.5 850,-710.5 850,-691.5 771,-691.5"/>
<text text-anchor="middle" x="810.5" y="-698.5" font-family="Helvetica,sans-Serif" font-size="10.00" fill="#000000">fr_cursor_next</text>
</a>
</g>
</g>
<!-- Node4682&#45;&gt;Node4683 -->
<g id="edge1" class="edge">
<title>Node4682&#45;&gt;Node4683</title>
<path fill="none" stroke="#191970" d="M60.274,-293.1336C81.8423,-390.8784 207.1395,-929 351.5,-929 351.5,-929 351.5,-929 513.5,-929 612.306,-929 656.6334,-970.1772 735,-910 766.1607,-886.0719 795.5281,-767.9274 806.2319,-720.6281"/>
<polygon fill="#191970" stroke="#191970" points="809.6846,-721.2246 808.4376,-710.7034 802.8514,-719.7058 809.6846,-721.2246"/>
</g>
<!-- Node4685 -->
<g id="node4" class="node">
<title>Node4685</title>
<g id="a_node4"><a xlink:href="dict__ext_8h.html#affb00364829956930ef20d851f569aab" target="_top" xlink:title="Return the vendor number for an attribute. ">
<polygon fill="none" stroke="#000000" points="150,-428 150,-458 252,-458 252,-428 150,-428"/>
<text text-anchor="start" x="158" y="-446" font-family="Helvetica,sans-Serif" font-size="10.00" fill="#000000">fr_dict_vendor_num</text>
<text text-anchor="middle" x="201" y="-435" font-family="Helvetica,sans-Serif" font-size="10.00" fill="#000000">_by_da</text>
</a>
</g>
</g>
<!-- Node4682&#45;&gt;Node4685 -->
<g id="edge3" class="edge">
<title>Node4682&#45;&gt;Node4685</title>
<path fill="none" stroke="#191970" d="M70.2891,-293.2271C95.6856,-322.3273 151.2372,-385.9801 181.088,-420.1842"/>
<polygon fill="#191970" stroke="#191970" points="178.5307,-422.5769 187.7431,-427.8098 183.8047,-417.9741 178.5307,-422.5769"/>
</g>
<!-- Node4687 -->
<g id="node6" class="node">
<title>Node4687</title>
<g id="a_node6"><a xlink:href="rlm__mschap_8c.html#abd21ea533821447765334ef53f345ac5" target="_top" xlink:title="do_mschap_cpw">
<polygon fill="none" stroke="#000000" points="156,-268.5 156,-287.5 246,-287.5 246,-268.5 156,-268.5"/>
<text text-anchor="middle" x="201" y="-275.5" font-family="Helvetica,sans-Serif" font-size="10.00" fill="#000000">do_mschap_cpw</text>
</a>
</g>
</g>
<!-- Node4682&#45;&gt;Node4687 -->
<g id="edge5" class="edge">
<title>Node4682&#45;&gt;Node4687</title>
<path fill="none" stroke="#191970" d="M114.3264,-278C124.6793,-278 135.455,-278 145.7473,-278"/>
<polygon fill="#191970" stroke="#191970" points="145.845,-281.5001 155.8449,-278 145.8449,-274.5001 145.845,-281.5001"/>
</g>
<!-- Node4773 -->
<g id="node15" class="node">
<title>Node4773</title>
<g id="a_node15"><a xlink:href="snprintf_8c.html#a8da10a1735da7051de5c298ca7448eee" target="_top" xlink:title="snprintf">
<polygon fill="none" stroke="#ff0000" points="786,-363.5 786,-382.5 835,-382.5 835,-363.5 786,-363.5"/>
<text text-anchor="middle" x="810.5" y="-370.5" font-family="Helvetica,sans-Serif" font-size="10.00" fill="#000000">snprintf</text>
</a>
</g>
</g>
<!-- Node4682&#45;&gt;Node4773 -->
<g id="edge57" class="edge">
<title>Node4682&#45;&gt;Node4773</title>
<path fill="none" stroke="#191970" d="M59.5611,-262.7487C66.7418,-224.6392 90.5672,-124.3527 150,-69 219.2707,-4.4848 256.8393,0 351.5,0 351.5,0 351.5,0 513.5,0 566.297,0 697.0134,-61.3838 735,-116 796.0851,-203.8268 707.4304,-267.9544 771,-354 772.7381,-356.3526 774.8447,-358.4271 777.17,-360.2539"/>
<polygon fill="#191970" stroke="#191970" points="775.3597,-363.2496 785.7007,-365.5551 779.0545,-357.3041 775.3597,-363.2496"/>
</g>
<!-- Node5331 -->
<g id="node45" class="node">
<title>Node5331</title>
<g id="a_node45"><a xlink:href="mschap_8c.html#ab3bea5d8cbf5d3ece7daf89455ba4fa2" target="_top" xlink:title="mschap_add_reply">
<polygon fill="none" stroke="#000000" points="152,-78.5 152,-97.5 250,-97.5 250,-78.5 152,-78.5"/>
<text text-anchor="middle" x="201" y="-85.5" font-family="Helvetica,sans-Serif" font-size="10.00" fill="#000000">mschap_add_reply</text>
</a>
</g>
</g>
<!-- Node4682&#45;&gt;Node5331 -->
<g id="edge58" class="edge">
<title>Node4682&#45;&gt;Node5331</title>
<path fill="none" stroke="#191970" d="M68.5407,-262.7727C94.8736,-228.0278 159.2843,-143.0415 187.4467,-105.8828"/>
<polygon fill="#191970" stroke="#191970" points="190.5296,-107.6096 193.7804,-97.5258 184.9508,-103.3815 190.5296,-107.6096"/>
</g>
<!-- Node4684 -->
<g id="node3" class="node">
<title>Node4684</title>
<g id="a_node3"><a xlink:href="cursor_8c.html#a45a517ea8503ebd7ee4dd286ffb59b90" target="_top" xlink:title="Internal function to get the next item. ">
<polygon fill="none" stroke="#000000" points="886,-691.5 886,-710.5 954,-710.5 954,-691.5 886,-691.5"/>
<text text-anchor="middle" x="920" y="-698.5" font-family="Helvetica,sans-Serif" font-size="10.00" fill="#000000">cursor_next</text>
</a>
</g>
</g>
<!-- Node4683&#45;&gt;Node4684 -->
<g id="edge2" class="edge">
<title>Node4683&#45;&gt;Node4684</title>
<path fill="none" stroke="#191970" d="M850.032,-701C858.394,-701 867.2704,-701 875.7926,-701"/>
<polygon fill="#191970" stroke="#191970" points="875.9538,-704.5001 885.9538,-701 875.9537,-697.5001 875.9538,-704.5001"/>
</g>
<!-- Node4686 -->
<g id="node5" class="node">
<title>Node4686</title>
<g id="a_node5"><a xlink:href="dict__ext_8h.html#a34a6d539e648b685d19cf23c2d0e7d3f" target="_top" xlink:title="fr_dict_attr_ext">
<polygon fill="none" stroke="#000000" points="310.5,-574.5 310.5,-593.5 392.5,-593.5 392.5,-574.5 310.5,-574.5"/>
<text text-anchor="middle" x="351.5" y="-581.5" font-family="Helvetica,sans-Serif" font-size="10.00" fill="#000000">fr_dict_attr_ext</text>
</a>
</g>
</g>
<!-- Node4685&#45;&gt;Node4686 -->
<g id="edge4" class="edge">
<title>Node4685&#45;&gt;Node4686</title>
<path fill="none" stroke="#191970" d="M207.735,-458.2271C219.9497,-484.0864 248.2248,-536.5423 288,-565 291.9452,-567.8227 296.3131,-570.2309 300.8573,-572.2847"/>
<polygon fill="#191970" stroke="#191970" points="299.7668,-575.6168 310.3539,-576.0218 302.3302,-569.103 299.7668,-575.6168"/>
</g>
<!-- Node4688 -->
<g id="node7" class="node">
<title>Node4688</title>
<g id="a_node7"><a xlink:href="exec_8c.html#a2282fd45b038f9f3c6ba6d6223c38ead" target="_top" xlink:title="Start a process. ">
<polygon fill="none" stroke="#000000" points="297.5,-382.5 297.5,-401.5 405.5,-401.5 405.5,-382.5 297.5,-382.5"/>
<text text-anchor="middle" x="351.5" y="-389.5" font-family="Helvetica,sans-Serif" font-size="10.00" fill="#000000">radius_start_program</text>
</a>
</g>
</g>
<!-- Node4687&#45;&gt;Node4688 -->
<g id="edge6" class="edge">
<title>Node4687&#45;&gt;Node4688</title>
<path fill="none" stroke="#191970" d="M208.0576,-287.7629C221.6329,-305.9095 253.1407,-345.069 288,-368 294.2277,-372.0967 301.2543,-375.634 308.3048,-378.6384"/>
<polygon fill="#191970" stroke="#191970" points="307.2746,-381.9944 317.8614,-382.4074 309.8428,-375.4826 307.2746,-381.9944"/>
</g>
<!-- Node4824 -->
<g id="node13" class="node">
<title>Node4824</title>
<g id="a_node13"><a xlink:href="xlat_8h.html#a52207602ebb6b7727bdb69f95e837f7f" target="_top" xlink:title="xlat_eval">
<polygon fill="none" stroke="#ff0000" points="645.5,-211.5 645.5,-230.5 701.5,-230.5 701.5,-211.5 645.5,-211.5"/>
<text text-anchor="middle" x="673.5" y="-218.5" font-family="Helvetica,sans-Serif" font-size="10.00" fill="#000000">xlat_eval</text>
</a>
</g>
</g>
<!-- Node4687&#45;&gt;Node4824 -->
<g id="edge29" class="edge">
<title>Node4687&#45;&gt;Node4824</title>
<path fill="none" stroke="#191970" d="M246.1767,-282.9563C317.9732,-289.2472 461.6868,-295.3232 576,-259 593.2422,-253.5213 595.285,-246.9223 612,-240 619.4773,-236.9034 627.6459,-234.0382 635.5163,-231.5214"/>
<polygon fill="#191970" stroke="#191970" points="636.7214,-234.8126 645.2514,-228.5285 634.6643,-228.1217 636.7214,-234.8126"/>
</g>
<!-- Node4771 -->
<g id="node14" class="node">
<title>Node4771</title>
<g id="a_node14"><a xlink:href="syserror_8c.html#a18747f9d648d0aeecc4a8b27ac0435aa" target="_top" xlink:title="Guaranteed to be thread&#45;safe version of strerror. ">
<polygon fill="none" stroke="#ff0000" points="642,-363.5 642,-382.5 705,-382.5 705,-363.5 642,-363.5"/>
<text text-anchor="middle" x="673.5" y="-370.5" font-family="Helvetica,sans-Serif" font-size="10.00" fill="#000000">fr_syserror</text>
</a>
</g>
</g>
<!-- Node4687&#45;&gt;Node4771 -->
<g id="edge37" class="edge">
<title>Node4687&#45;&gt;Node4771</title>
<path fill="none" stroke="#191970" d="M235.6094,-287.5986C251.5189,-291.8952 270.6671,-296.9042 288,-301 412.0969,-330.3246 560.949,-355.2785 631.9136,-366.5614"/>
<polygon fill="#191970" stroke="#191970" points="631.3824,-370.0208 641.8064,-368.1257 632.4758,-363.1067 631.3824,-370.0208"/>
</g>
<!-- Node5319 -->
<g id="node25" class="node">
<title>Node5319</title>
<g id="a_node25"><a xlink:href="rlm__mschap_8c.html#a24d70c54c4e2d15492a3d5bb12d4843c" target="_top" xlink:title="write_all">
<polygon fill="none" stroke="#000000" points="325,-192.5 325,-211.5 378,-211.5 378,-192.5 325,-192.5"/>
<text text-anchor="middle" x="351.5" y="-199.5" font-family="Helvetica,sans-Serif" font-size="10.00" fill="#000000">write_all</text>
</a>
</g>
</g>
<!-- Node4687&#45;&gt;Node5319 -->
<g id="edge30" class="edge">
<title>Node4687&#45;&gt;Node5319</title>
<path fill="none" stroke="#191970" d="M213.0124,-268.4945C229.2133,-256.0697 259.3477,-234.3272 288,-221 296.4905,-217.0508 305.9994,-213.6925 315.0213,-210.9484"/>
<polygon fill="#191970" stroke="#191970" points="316.2709,-214.2313 324.9203,-208.1125 314.3431,-207.502 316.2709,-214.2313"/>
</g>
<!-- Node5267 -->
<g id="node26" class="node">
<title>Node5267</title>
<g id="a_node26"><a xlink:href="hex_8c.html#a6f5a62977bc0e4b94129f1c2c673f02e" target="_top" xlink:title="Convert binary data to a hex string. ">
<polygon fill="none" stroke="#000000" points="320.5,-154.5 320.5,-173.5 382.5,-173.5 382.5,-154.5 320.5,-154.5"/>
<text text-anchor="middle" x="351.5" y="-161.5" font-family="Helvetica,sans-Serif" font-size="10.00" fill="#000000">fr_bin2hex</text>
</a>
</g>
</g>
<!-- Node4687&#45;&gt;Node5267 -->
<g id="edge31" class="edge">
<title>Node4687&#45;&gt;Node5267</title>
<path fill="none" stroke="#191970" d="M207.1714,-268.3348C219.9131,-249.1606 251.0518,-206.1662 288,-183 294.855,-178.702 302.7347,-175.3316 310.5591,-172.7036"/>
<polygon fill="#191970" stroke="#191970" points="311.79,-175.9883 320.3591,-169.7578 309.7749,-169.2847 311.79,-175.9883"/>
</g>
<!-- Node5320 -->
<g id="node27" class="node">
<title>Node5320</title>
<g id="a_node27"><a xlink:href="exec_8c.html#a5f621bedd81b8da9bdf5dc81f9652844" target="_top" xlink:title="Read from the child process. ">
<polygon fill="none" stroke="#000000" points="288,-230.5 288,-249.5 415,-249.5 415,-230.5 288,-230.5"/>
<text text-anchor="middle" x="351.5" y="-237.5" font-family="Helvetica,sans-Serif" font-size="10.00" fill="#000000">radius_readfrom_program</text>
</a>
</g>
</g>
<!-- Node4687&#45;&gt;Node5320 -->
<g id="edge32" class="edge">
<title>Node4687&#45;&gt;Node5320</title>
<path fill="none" stroke="#191970" d="M238.9775,-268.411C258.6587,-263.4417 282.8907,-257.3233 303.8206,-252.0387"/>
<polygon fill="#191970" stroke="#191970" points="304.9567,-255.3617 313.7956,-249.5201 303.243,-248.5747 304.9567,-255.3617"/>
</g>
<!-- Node4809 -->
<g id="node29" class="node">
<title>Node4809</title>
<g id="a_node29"><a xlink:href="time_8h.html#a3f87b408dfcb4d3212d1c8831ed360cd" target="_top" xlink:title="fr_time_delta_from_sec">
<polygon fill="none" stroke="#000000" points="454,-230.5 454,-249.5 573,-249.5 573,-230.5 454,-230.5"/>
<text text-anchor="middle" x="513.5" y="-237.5" font-family="Helvetica,sans-Serif" font-size="10.00" fill="#000000">fr_time_delta_from_sec</text>
</a>
</g>
</g>
<!-- Node4687&#45;&gt;Node4809 -->
<g id="edge36" class="edge">
<title>Node4687&#45;&gt;Node4809</title>
<path fill="none" stroke="#191970" d="M246.2414,-275.3278C289.66,-272.4463 357.01,-267.1456 415,-259 429.2945,-256.9921 444.6579,-254.2928 458.8996,-251.5602"/>
<polygon fill="#191970" stroke="#191970" points="459.8995,-254.9309 469.0403,-249.574 458.554,-248.0614 459.8995,-254.9309"/>
</g>
<!-- Node5198 -->
<g id="node30" class="node">
<title>Node5198</title>
<g id="a_node30"><a xlink:href="missing_8c.html#af0f65c8f8f7687f337cc8177c7c90d02" target="_top" xlink:title="strsep">
<polygon fill="none" stroke="#000000" points="329.5,-458.5 329.5,-477.5 373.5,-477.5 373.5,-458.5 329.5,-458.5"/>
<text text-anchor="middle" x="351.5" y="-465.5" font-family="Helvetica,sans-Serif" font-size="10.00" fill="#000000">strsep</text>
</a>
</g>
</g>
<!-- Node4687&#45;&gt;Node5198 -->
<g id="edge38" class="edge">
<title>Node4687&#45;&gt;Node5198</title>
<path fill="none" stroke="#191970" d="M203.1176,-287.8194C209.9274,-317.0021 234.0398,-403.9685 288,-449 296.8376,-456.3753 308.4641,-460.8878 319.3506,-463.6487"/>
<polygon fill="#191970" stroke="#191970" points="318.9369,-467.139 329.4462,-465.7954 320.3928,-460.292 318.9369,-467.139"/>
</g>
<!-- Node5322 -->
<g id="node31" class="node">
<title>Node5322</title>
<g id="a_node31"><a xlink:href="pair_8c.html#acca105c05f80853b59f1e27ad051a610" target="_top" xlink:title="Pre&#45;allocate a memory buffer for a &quot;octets&quot; type value pair. ">
<polygon fill="none" stroke="#000000" points="289,-78.5 289,-97.5 414,-97.5 414,-78.5 289,-78.5"/>
<text text-anchor="middle" x="351.5" y="-85.5" font-family="Helvetica,sans-Serif" font-size="10.00" fill="#000000">fr_pair_value_mem_alloc</text>
</a>
</g>
</g>
<!-- Node4687&#45;&gt;Node5322 -->
<g id="edge39" class="edge">
<title>Node4687&#45;&gt;Node5322</title>
<path fill="none" stroke="#191970" d="M203.1176,-268.1806C209.9274,-238.9979 234.0398,-152.0315 288,-107 290.0486,-105.2904 292.247,-103.7346 294.5514,-102.3188"/>
<polygon fill="#191970" stroke="#191970" points="296.5811,-105.2106 303.8713,-97.5226 293.378,-98.9864 296.5811,-105.2106"/>
</g>
<!-- Node5281 -->
<g id="node34" class="node">
<title>Node5281</title>
<g id="a_node34"><a xlink:href="md4_8c.html#a8294c58393636b60189fb299d44ce122" target="_top" xlink:title="Calculate the MD4 hash of the contents of a buffer. ">
<polygon fill="none" stroke="#000000" points="316.5,-420.5 316.5,-439.5 386.5,-439.5 386.5,-420.5 316.5,-420.5"/>
<text text-anchor="middle" x="351.5" y="-427.5" font-family="Helvetica,sans-Serif" font-size="10.00" fill="#000000">fr_md4_calc</text>
</a>
</g>
</g>
<!-- Node4687&#45;&gt;Node5281 -->
<g id="edge43" class="edge">
<title>Node4687&#45;&gt;Node5281</title>
<path fill="none" stroke="#191970" d="M204.5856,-287.7044C214.1498,-312.2345 242.6693,-377.1699 288,-411 293.5765,-415.1617 300.0615,-418.4175 306.7146,-420.9631"/>
<polygon fill="#191970" stroke="#191970" points="305.9029,-424.3813 316.4963,-424.2073 308.1066,-417.7372 305.9029,-424.3813"/>
</g>
<!-- Node5323 -->
<g id="node35" class="node">
<title>Node5323</title>
<g id="a_node35"><a xlink:href="smbdes_8c.html#aa991143fb6d6c9ce098df9e9884bf258" target="_top" xlink:title="smbhash">
<polygon fill="none" stroke="#000000" points="323.5,-536.5 323.5,-555.5 379.5,-555.5 379.5,-536.5 323.5,-536.5"/>
<text text-anchor="middle" x="351.5" y="-543.5" font-family="Helvetica,sans-Serif" font-size="10.00" fill="#000000">smbhash</text>
</a>
</g>
</g>
<!-- Node4687&#45;&gt;Node5323 -->
<g id="edge44" class="edge">
<title>Node4687&#45;&gt;Node5323</title>
<path fill="none" stroke="#191970" d="M204.3855,-287.6223C217.2219,-323.8393 263.4063,-451.6828 288,-487 299.6793,-503.7718 316.8385,-519.3536 330.376,-530.2876"/>
<polygon fill="#191970" stroke="#191970" points="328.2262,-533.0495 338.2557,-536.4641 332.5446,-527.5403 328.2262,-533.0495"/>
</g>
<!-- Node5330 -->
<g id="node42" class="node">
<title>Node5330</title>
<g id="a_node42"><a xlink:href="pair_8c.html#a99bc80903968540d076ddd1f340751e4" target="_top" xlink:title="Pre&#45;allocate a memory buffer for a &quot;string&quot; type value pair. ">
<polygon fill="none" stroke="#000000" points="304.5,-29 304.5,-59 398.5,-59 398.5,-29 304.5,-29"/>
<text text-anchor="start" x="312.5" y="-47" font-family="Helvetica,sans-Serif" font-size="10.00" fill="#000000">fr_pair_value_bstr</text>
<text text-anchor="middle" x="351.5" y="-36" font-family="Helvetica,sans-Serif" font-size="10.00" fill="#000000">_alloc</text>
</a>
</g>
</g>
<!-- Node4687&#45;&gt;Node5330 -->
<g id="edge51" class="edge">
<title>Node4687&#45;&gt;Node5330</title>
<path fill="none" stroke="#191970" d="M202.3376,-268.1877C207.3119,-235.3682 227.6722,-128.1694 288,-69 290.3684,-66.6771 292.9784,-64.5632 295.7487,-62.6405"/>
<polygon fill="#191970" stroke="#191970" points="297.676,-65.566 304.4597,-57.4277 294.0815,-59.5594 297.676,-65.566"/>
</g>
<!-- Node5245 -->
<g id="node44" class="node">
<title>Node5245</title>
<g id="a_node44"><a xlink:href="pair_8c.html#ad6a4af5aec8fe8bac9db2211ae354989" target="_top" xlink:title="Copy data into an &quot;octets&quot; data type. ">
<polygon fill="none" stroke="#ff0000" points="294,-116.5 294,-135.5 409,-135.5 409,-116.5 294,-116.5"/>
<text text-anchor="middle" x="351.5" y="-123.5" font-family="Helvetica,sans-Serif" font-size="10.00" fill="#000000">fr_pair_value_memdup</text>
</a>
</g>
</g>
<!-- Node4687&#45;&gt;Node5245 -->
<g id="edge55" class="edge">
<title>Node4687&#45;&gt;Node5245</title>
<path fill="none" stroke="#191970" d="M204.5856,-268.2956C214.1498,-243.7655 242.6693,-178.8301 288,-145 290.5015,-143.1331 293.1858,-141.4486 295.9861,-139.9286"/>
<polygon fill="#191970" stroke="#191970" points="297.6582,-143.0108 305.2426,-135.613 294.7003,-136.6665 297.6582,-143.0108"/>
</g>
<!-- Node4689 -->
<g id="node8" class="node">
<title>Node4689</title>
<g id="a_node8"><a xlink:href="lib_2server_2util_8c.html#abeffda073f301a8b011de015b698ce7a" target="_top" xlink:title="Split string into words and expand each one. ">
<polygon fill="none" stroke="#000000" points="469.5,-306.5 469.5,-325.5 557.5,-325.5 557.5,-306.5 469.5,-306.5"/>
<text text-anchor="middle" x="513.5" y="-313.5" font-family="Helvetica,sans-Serif" font-size="10.00" fill="#000000">rad_expand_xlat</text>
</a>
</g>
</g>
<!-- Node4688&#45;&gt;Node4689 -->
<g id="edge7" class="edge">
<title>Node4688&#45;&gt;Node4689</title>
<path fill="none" stroke="#191970" d="M372.0174,-382.3745C400.2574,-369.1261 451.2856,-345.187 483.7245,-329.9687"/>
<polygon fill="#191970" stroke="#191970" points="485.5825,-332.9632 493.1492,-325.5473 482.6094,-326.6259 485.5825,-332.9632"/>
</g>
<!-- Node4688&#45;&gt;Node4771 -->
<g id="edge13" class="edge">
<title>Node4688&#45;&gt;Node4771</title>
<path fill="none" stroke="#191970" d="M405.7588,-388.7984C469.3706,-385.0449 573.4437,-378.9039 631.3182,-375.489"/>
<polygon fill="#191970" stroke="#191970" points="631.7904,-378.9673 641.5668,-374.8843 631.378,-371.9795 631.7904,-378.9673"/>
</g>
<!-- Node5304 -->
<g id="node16" class="node">
<title>Node5304</title>
<g id="a_node16"><a xlink:href="exec_8c.html#a78b1412976cd41f5558ef131701a74fc" target="_top" xlink:title="fr_exec_pair_to_env">
<polygon fill="none" stroke="#000000" points="461.5,-537.5 461.5,-556.5 565.5,-556.5 565.5,-537.5 461.5,-537.5"/>
<text text-anchor="middle" x="513.5" y="-544.5" font-family="Helvetica,sans-Serif" font-size="10.00" fill="#000000">fr_exec_pair_to_env</text>
</a>
</g>
</g>
<!-- Node4688&#45;&gt;Node5304 -->
<g id="edge16" class="edge">
<title>Node4688&#45;&gt;Node5304</title>
<path fill="none" stroke="#191970" d="M396.9318,-401.5825C403.3221,-404.0483 409.5578,-407.1365 415,-411 437.7181,-427.128 481.4198,-494.9838 502.1082,-528.3359"/>
<polygon fill="#191970" stroke="#191970" points="499.295,-530.4424 507.5197,-537.1211 505.255,-526.7712 499.295,-530.4424"/>
</g>
<!-- Node5317 -->
<g id="node23" class="node">
<title>Node5317</title>
<g id="a_node23"><a xlink:href="exec_8c.html#a6b2c84354f7bb8cfb3690385d5a07ccb" target="_top" xlink:title="fr_exec_child">
<polygon fill="none" stroke="#000000" points="476.5,-420.5 476.5,-439.5 550.5,-439.5 550.5,-420.5 476.5,-420.5"/>
<text text-anchor="middle" x="513.5" y="-427.5" font-family="Helvetica,sans-Serif" font-size="10.00" fill="#000000">fr_exec_child</text>
</a>
</g>
</g>
<!-- Node4688&#45;&gt;Node5317 -->
<g id="edge26" class="edge">
<title>Node4688&#45;&gt;Node5317</title>
<path fill="none" stroke="#191970" d="M392.3794,-401.589C414.9339,-406.8796 443.0407,-413.4725 466.4993,-418.9751"/>
<polygon fill="#191970" stroke="#191970" points="465.7036,-422.3834 476.2386,-421.2597 467.3022,-415.5684 465.7036,-422.3834"/>
</g>
<!-- Node4690 -->
<g id="node9" class="node">
<title>Node4690</title>
<g id="a_node9"><a xlink:href="strerror_8c.html#ae701765650b8aea79a3037bc4921d7f8" target="_top" xlink:title="Log to thread local error buffer. ">
<polygon fill="none" stroke="#ff0000" points="630.5,-125.5 630.5,-144.5 716.5,-144.5 716.5,-125.5 630.5,-125.5"/>
<text text-anchor="middle" x="673.5" y="-132.5" font-family="Helvetica,sans-Serif" font-size="10.00" fill="#000000">fr_strerror_printf</text>
</a>
</g>
</g>
<!-- Node4689&#45;&gt;Node4690 -->
<g id="edge8" class="edge">
<title>Node4689&#45;&gt;Node4690</title>
<path fill="none" stroke="#191970" d="M525.9214,-306.3594C539.2333,-295.6622 560.5333,-277.4617 576,-259 595.2419,-236.0321 593.7961,-225.7991 612,-202 625.8226,-183.9289 643.5689,-164.9742 656.4427,-151.8559"/>
<polygon fill="#191970" stroke="#191970" points="659.1841,-154.0626 663.7502,-144.5021 654.2188,-149.1285 659.1841,-154.0626"/>
</g>
<!-- Node4786 -->
<g id="node10" class="node">
<title>Node4786</title>
<g id="a_node10"><a xlink:href="strlcpy_8c.html#a59f9599e77ee687b1daaa179f8b9a2f3" target="_top" xlink:title="strlcpy">
<polygon fill="none" stroke="#000000" points="787.5,-325.5 787.5,-344.5 833.5,-344.5 833.5,-325.5 787.5,-325.5"/>
<text text-anchor="middle" x="810.5" y="-332.5" font-family="Helvetica,sans-Serif" font-size="10.00" fill="#000000">strlcpy</text>
</a>
</g>
</g>
<!-- Node4689&#45;&gt;Node4786 -->
<g id="edge9" class="edge">
<title>Node4689&#45;&gt;Node4786</title>
<path fill="none" stroke="#191970" d="M557.6432,-318.824C617.6342,-322.6618 723.5702,-329.4388 777.2807,-332.8749"/>
<polygon fill="#191970" stroke="#191970" points="777.0943,-336.37 787.2974,-333.5157 777.5413,-329.3843 777.0943,-336.37"/>
</g>
<!-- Node4821 -->
<g id="node11" class="node">
<title>Node4821</title>
<g id="a_node11"><a xlink:href="lib_2server_2util_8c.html#ae535d51280f24507774e2eb2002f1082" target="_top" xlink:title="rad_copy_string_bare">
<polygon fill="none" stroke="#000000" points="618.5,-287.5 618.5,-306.5 728.5,-306.5 728.5,-287.5 618.5,-287.5"/>
<text text-anchor="middle" x="673.5" y="-294.5" font-family="Helvetica,sans-Serif" font-size="10.00" fill="#000000">rad_copy_string_bare</text>
</a>
</g>
</g>
<!-- Node4689&#45;&gt;Node4821 -->
<g id="edge10" class="edge">
<title>Node4689&#45;&gt;Node4821</title>
<path fill="none" stroke="#191970" d="M557.6442,-310.7579C573.1941,-308.9113 591.0226,-306.7942 607.9572,-304.7832"/>
<polygon fill="#191970" stroke="#191970" points="608.84,-308.2031 618.3575,-303.5482 608.0145,-301.2519 608.84,-308.2031"/>
</g>
<!-- Node4822 -->
<g id="node12" class="node">
<title>Node4822</title>
<g id="a_node12"><a xlink:href="lib_2server_2util_8c.html#a71c9d079d7b6ffbc39fcdcffb32a89e4" target="_top" xlink:title="rad_copy_variable">
<polygon fill="none" stroke="#ff0000" points="626,-249.5 626,-268.5 721,-268.5 721,-249.5 626,-249.5"/>
<text text-anchor="middle" x="673.5" y="-256.5" font-family="Helvetica,sans-Serif" font-size="10.00" fill="#000000">rad_copy_variable</text>
</a>
</g>
</g>
<!-- Node4689&#45;&gt;Node4822 -->
<g id="edge11" class="edge">
<title>Node4689&#45;&gt;Node4822</title>
<path fill="none" stroke="#191970" d="M538.4481,-306.4478C549.8945,-302.058 563.6403,-296.7763 576,-292 592.0132,-285.8118 595.7885,-283.6484 612,-278 618.1635,-275.8525 624.7158,-273.6959 631.1587,-271.6462"/>
<polygon fill="#191970" stroke="#191970" points="632.6225,-274.8556 641.1216,-268.5298 630.5327,-268.1748 632.6225,-274.8556"/>
</g>
<!-- Node4689&#45;&gt;Node4824 -->
<g id="edge12" class="edge">
<title>Node4689&#45;&gt;Node4824</title>
<path fill="none" stroke="#191970" d="M549.1804,-306.4755C558.5074,-302.9104 568.1399,-298.1755 576,-292 598.1032,-274.6341 589.3276,-256.6159 612,-240 618.9968,-234.8723 627.405,-231.1073 635.7253,-228.3501"/>
<polygon fill="#191970" stroke="#191970" points="636.7332,-231.7021 645.3624,-225.555 634.7833,-224.9791 636.7332,-231.7021"/>
</g>
<!-- Node4771&#45;&gt;Node4786 -->
<g id="edge15" class="edge">
<title>Node4771&#45;&gt;Node4786</title>
<path fill="none" stroke="#191970" d="M705.2749,-364.1865C726.9747,-358.1676 755.6555,-350.2124 777.5927,-344.1276"/>
<polygon fill="#191970" stroke="#191970" points="778.7527,-347.438 787.4534,-341.3925 776.8817,-340.6927 778.7527,-347.438"/>
</g>
<!-- Node4771&#45;&gt;Node4773 -->
<g id="edge14" class="edge">
<title>Node4771&#45;&gt;Node4773</title>
<path fill="none" stroke="#191970" d="M705.2749,-373C726.3331,-373 753.9655,-373 775.6294,-373"/>
<polygon fill="#191970" stroke="#191970" points="775.73,-376.5001 785.73,-373 775.73,-369.5001 775.73,-376.5001"/>
</g>
<!-- Node5304&#45;&gt;Node4683 -->
<g id="edge17" class="edge">
<title>Node5304&#45;&gt;Node4683</title>
<path fill="none" stroke="#191970" d="M562.5868,-556.6454C567.5296,-559.0951 572.1396,-562.1619 576,-566 614.281,-604.0597 570.1158,-647.9458 612,-682 653.2802,-715.5632 716.5327,-715.6767 760.5007,-710.4058"/>
<polygon fill="#191970" stroke="#191970" points="761.2323,-713.8393 770.6821,-709.0487 760.3074,-706.9007 761.2323,-713.8393"/>
</g>
<!-- Node5304&#45;&gt;Node4773 -->
<g id="edge18" class="edge">
<title>Node5304&#45;&gt;Node4773</title>
<path fill="none" stroke="#191970" d="M522.9515,-537.3278C539.5381,-520.8667 575.5949,-487.3157 612,-468 662.5425,-441.1833 684.07,-456.0733 735,-430 756.2642,-419.1139 777.738,-402.1973 792.3186,-389.6172"/>
<polygon fill="#191970" stroke="#191970" points="794.8724,-392.0315 800.0532,-382.7898 790.24,-386.7836 794.8724,-392.0315"/>
</g>
<!-- Node5305 -->
<g id="node17" class="node">
<title>Node5305</title>
<g id="a_node17"><a xlink:href="util_2pair_8h.html#ab697da43c2a96b62dd95e6931525c1ba" target="_top" xlink:title="Print the value of an attribute to a string. ">
<polygon fill="none" stroke="#ff0000" points="625.5,-642 625.5,-672 721.5,-672 721.5,-642 625.5,-642"/>
<text text-anchor="start" x="633.5" y="-660" font-family="Helvetica,sans-Serif" font-size="10.00" fill="#000000">fr_pair_print_value</text>
<text text-anchor="middle" x="673.5" y="-649" font-family="Helvetica,sans-Serif" font-size="10.00" fill="#000000">_quoted</text>
</a>
</g>
</g>
<!-- Node5304&#45;&gt;Node5305 -->
<g id="edge19" class="edge">
<title>Node5304&#45;&gt;Node5305</title>
<path fill="none" stroke="#191970" d="M559.9595,-556.5985C565.7241,-559.0529 571.2507,-562.1336 576,-566 601.912,-587.0953 587.074,-609.7482 612,-632 613.7465,-633.5591 615.603,-635.0282 617.541,-636.4117"/>
<polygon fill="#191970" stroke="#191970" points="616.1283,-639.6536 626.4727,-641.9436 619.8142,-633.7026 616.1283,-639.6536"/>
</g>
<!-- Node4703 -->
<g id="node18" class="node">
<title>Node4703</title>
<g id="a_node18"><a xlink:href="talloc_8c.html#a3536feb85c89aa239851ef0830b72e64" target="_top" xlink:title="Call talloc_strdup, setting the type on the new chunk correctly. ">
<polygon fill="none" stroke="#000000" points="623,-603.5 623,-622.5 724,-622.5 724,-603.5 623,-603.5"/>
<text text-anchor="middle" x="673.5" y="-610.5" font-family="Helvetica,sans-Serif" font-size="10.00" fill="#000000">talloc_typed_strdup</text>
</a>
</g>
</g>
<!-- Node5304&#45;&gt;Node4703 -->
<g id="edge21" class="edge">
<title>Node5304&#45;&gt;Node4703</title>
<path fill="none" stroke="#191970" d="M552.7133,-556.5143C560.6343,-559.0967 568.75,-562.2432 576,-566 593.9971,-575.3257 594.024,-584.6337 612,-594 616.2367,-596.2075 620.7734,-598.2076 625.3918,-600.008"/>
<polygon fill="#191970" stroke="#191970" points="624.3219,-603.3425 634.9164,-603.4254 626.686,-596.7538 624.3219,-603.3425"/>
</g>
<!-- Node4881 -->
<g id="node19" class="node">
<title>Node4881</title>
<g id="a_node19"><a xlink:href="dict_8h.html#ade71dd6bfb60945aa34a7f0d5286d6c1" target="_top" xlink:title="Check if a child attribute exists in a parent using an attribute number. ">
<polygon fill="none" stroke="#ff0000" points="629,-554 629,-584 718,-584 718,-554 629,-554"/>
<text text-anchor="start" x="637" y="-572" font-family="Helvetica,sans-Serif" font-size="10.00" fill="#000000">fr_dict_attr_child</text>
<text text-anchor="middle" x="673.5" y="-561" font-family="Helvetica,sans-Serif" font-size="10.00" fill="#000000">_by_num</text>
</a>
</g>
</g>
<!-- Node5304&#45;&gt;Node4881 -->
<g id="edge22" class="edge">
<title>Node5304&#45;&gt;Node4881</title>
<path fill="none" stroke="#191970" d="M565.89,-554.2036C582.7206,-556.5178 601.4097,-559.0876 618.4269,-561.4274"/>
<polygon fill="#191970" stroke="#191970" points="618.3913,-564.9554 628.7749,-562.8503 619.3449,-558.0207 618.3913,-564.9554"/>
</g>
<!-- Node4879 -->
<g id="node20" class="node">
<title>Node4879</title>
<g id="a_node20"><a xlink:href="dict_8h.html#a7c79c676c03022a0e7404ae0232bd902" target="_top" xlink:title="Return the root attribute of a dictionary. ">
<polygon fill="none" stroke="#000000" points="641,-515.5 641,-534.5 706,-534.5 706,-515.5 641,-515.5"/>
<text text-anchor="middle" x="673.5" y="-522.5" font-family="Helvetica,sans-Serif" font-size="10.00" fill="#000000">fr_dict_root</text>
</a>
</g>
</g>
<!-- Node5304&#45;&gt;Node4879 -->
<g id="edge23" class="edge">
<title>Node5304&#45;&gt;Node4879</title>
<path fill="none" stroke="#191970" d="M565.89,-539.7964C586.8446,-536.9151 610.6799,-533.6378 630.5829,-530.9011"/>
<polygon fill="#191970" stroke="#191970" points="631.1664,-534.3539 640.5964,-529.5242 630.2128,-527.4191 631.1664,-534.3539"/>
</g>
<!-- Node4880 -->
<g id="node21" class="node">
<title>Node4880</title>
<g id="a_node21"><a xlink:href="dict_8h.html#aafea465d1424c7fd3477732877bd6016" target="_top" xlink:title="fr_dict_internal">
<polygon fill="none" stroke="#000000" points="633.5,-477.5 633.5,-496.5 713.5,-496.5 713.5,-477.5 633.5,-477.5"/>
<text text-anchor="middle" x="673.5" y="-484.5" font-family="Helvetica,sans-Serif" font-size="10.00" fill="#000000">fr_dict_internal</text>
</a>
</g>
</g>
<!-- Node5304&#45;&gt;Node4880 -->
<g id="edge24" class="edge">
<title>Node5304&#45;&gt;Node4880</title>
<path fill="none" stroke="#191970" d="M534.7905,-537.45C554.5867,-528.7353 585.001,-515.7648 612,-506 617.9999,-503.83 624.3825,-501.6829 630.6787,-499.6564"/>
<polygon fill="#191970" stroke="#191970" points="631.9467,-502.9266 640.4342,-496.5852 629.8446,-496.2497 631.9467,-502.9266"/>
</g>
<!-- Node5315 -->
<g id="node22" class="node">
<title>Node5315</title>
<g id="a_node22"><a xlink:href="util_2pair_8h.html#a078d7dfa9ea0f6beae478c6c913aa4e2" target="_top" xlink:title="Initialise a cursor that will return only attributes matching the specified fr_dict_attr_t. ">
<polygon fill="none" stroke="#ff0000" points="612,-729.5 612,-748.5 735,-748.5 735,-729.5 612,-729.5"/>
<text text-anchor="middle" x="673.5" y="-736.5" font-family="Helvetica,sans-Serif" font-size="10.00" fill="#000000">fr_cursor_iter_by_da_init</text>
</a>
</g>
</g>
<!-- Node5304&#45;&gt;Node5315 -->
<g id="edge25" class="edge">
<title>Node5304&#45;&gt;Node5315</title>
<path fill="none" stroke="#191970" d="M563.139,-556.5618C567.9204,-559.0294 572.3419,-562.1231 576,-566 622.7551,-615.5514 567.1854,-663.6869 612,-715 615.2678,-718.7417 619.192,-721.9043 623.4567,-724.5767"/>
<polygon fill="#191970" stroke="#191970" points="622.1109,-727.8242 632.5876,-729.4022 625.3817,-721.6353 622.1109,-727.8242"/>
</g>
<!-- Node5305&#45;&gt;Node4683 -->
<g id="edge20" class="edge">
<title>Node5305&#45;&gt;Node4683</title>
<path fill="none" stroke="#191970" d="M720.2645,-672.0192C736.6698,-677.2881 754.9308,-683.153 770.7102,-688.2208"/>
<polygon fill="#191970" stroke="#191970" points="770.0854,-691.6962 780.6767,-691.4217 772.226,-685.0315 770.0854,-691.6962"/>
</g>
<!-- Node5317&#45;&gt;Node4771 -->
<g id="edge27" class="edge">
<title>Node5317&#45;&gt;Node4771</title>
<path fill="none" stroke="#191970" d="M538.4481,-420.4478C549.8945,-416.058 563.6403,-410.7763 576,-406 592.0132,-399.8118 595.7885,-397.6484 612,-392 618.4521,-389.752 625.3302,-387.494 632.0628,-385.359"/>
<polygon fill="#191970" stroke="#191970" points="633.2526,-388.6543 641.7563,-382.3346 631.1677,-381.972 633.2526,-388.6543"/>
</g>
<!-- Node5318 -->
<g id="node24" class="node">
<title>Node5318</title>
<g id="a_node24"><a xlink:href="missing_8c.html#aa7af70ad4d09e42bbfc9dfa536cf9d27" target="_top" xlink:title="closefrom">
<polygon fill="none" stroke="#000000" points="644,-401.5 644,-420.5 703,-420.5 703,-401.5 644,-401.5"/>
<text text-anchor="middle" x="673.5" y="-408.5" font-family="Helvetica,sans-Serif" font-size="10.00" fill="#000000">closefrom</text>
</a>
</g>
</g>
<!-- Node5317&#45;&gt;Node5318 -->
<g id="edge28" class="edge">
<title>Node5317&#45;&gt;Node5318</title>
<path fill="none" stroke="#191970" d="M550.6094,-425.5933C575.5184,-422.6353 608.3036,-418.7421 633.7456,-415.7208"/>
<polygon fill="#191970" stroke="#191970" points="634.2861,-419.1813 643.8036,-414.5264 633.4606,-412.2302 634.2861,-419.1813"/>
</g>
<!-- Node5321 -->
<g id="node28" class="node">
<title>Node5321</title>
<g id="a_node28"><a xlink:href="misc_8c.html#a43446718c7dcd3f63fdeb85e01807621" target="_top" xlink:title="fr_nonblock">
<polygon fill="none" stroke="#000000" points="480,-173.5 480,-192.5 547,-192.5 547,-173.5 480,-173.5"/>
<text text-anchor="middle" x="513.5" y="-180.5" font-family="Helvetica,sans-Serif" font-size="10.00" fill="#000000">fr_nonblock</text>
</a>
</g>
</g>
<!-- Node5320&#45;&gt;Node5321 -->
<g id="edge33" class="edge">
<title>Node5320&#45;&gt;Node5321</title>
<path fill="none" stroke="#191970" d="M385.2688,-230.4247C394.9206,-227.5452 405.4183,-224.2762 415,-221 437.1534,-213.4252 461.7223,-203.9488 480.7808,-196.3544"/>
<polygon fill="#191970" stroke="#191970" points="482.225,-199.5463 490.2029,-192.5746 479.6187,-193.0495 482.225,-199.5463"/>
</g>
<!-- Node5320&#45;&gt;Node4809 -->
<g id="edge35" class="edge">
<title>Node5320&#45;&gt;Node4809</title>
<path fill="none" stroke="#191970" d="M415.0617,-240C424.4357,-240 434.1368,-240 443.63,-240"/>
<polygon fill="#191970" stroke="#191970" points="443.8243,-243.5001 453.8242,-240 443.8242,-236.5001 443.8243,-243.5001"/>
</g>
<!-- Node5321&#45;&gt;Node4690 -->
<g id="edge34" class="edge">
<title>Node5321&#45;&gt;Node4690</title>
<path fill="none" stroke="#191970" d="M545.4938,-173.4018C570.2384,-165.9785 604.7066,-155.638 631.6428,-147.5572"/>
<polygon fill="#191970" stroke="#191970" points="632.9891,-150.8075 641.5616,-144.5815 630.9776,-144.1027 632.9891,-150.8075"/>
</g>
<!-- Node4713 -->
<g id="node32" class="node">
<title>Node4713</title>
<g id="a_node32"><a xlink:href="value_8c.html#ad5da2574fed047b3ae861999d06c38ac" target="_top" xlink:title="Clear/free any existing value and metadata. ">
<polygon fill="none" stroke="#ff0000" points="464.5,-116.5 464.5,-135.5 562.5,-135.5 562.5,-116.5 464.5,-116.5"/>
<text text-anchor="middle" x="513.5" y="-123.5" font-family="Helvetica,sans-Serif" font-size="10.00" fill="#000000">fr_value_box_clear</text>
</a>
</g>
</g>
<!-- Node5322&#45;&gt;Node4713 -->
<g id="edge40" class="edge">
<title>Node5322&#45;&gt;Node4713</title>
<path fill="none" stroke="#191970" d="M392.3794,-97.589C413.8534,-102.6261 440.3605,-108.8438 463.097,-114.1771"/>
<polygon fill="#191970" stroke="#191970" points="462.3795,-117.6037 472.9145,-116.4799 463.9781,-110.7887 462.3795,-117.6037"/>
</g>
<!-- Node4722 -->
<g id="node33" class="node">
<title>Node4722</title>
<g id="a_node33"><a xlink:href="value_8c.html#a30dd21fe8527e786010b4187e95fbd6d" target="_top" xlink:title="Pre&#45;allocate an octets buffer for filling by the caller. ">
<polygon fill="none" stroke="#ff0000" points="451,-78.5 451,-97.5 576,-97.5 576,-78.5 451,-78.5"/>
<text text-anchor="middle" x="513.5" y="-85.5" font-family="Helvetica,sans-Serif" font-size="10.00" fill="#000000">fr_value_box_mem_alloc</text>
</a>
</g>
</g>
<!-- Node5322&#45;&gt;Node4722 -->
<g id="edge41" class="edge">
<title>Node5322&#45;&gt;Node4722</title>
<path fill="none" stroke="#191970" d="M414.1334,-88C422.7728,-88 431.7064,-88 440.5124,-88"/>
<polygon fill="#191970" stroke="#191970" points="440.7661,-91.5001 450.7661,-88 440.766,-84.5001 440.7661,-91.5001"/>
</g>
<!-- Node4722&#45;&gt;Node4690 -->
<g id="edge42" class="edge">
<title>Node4722&#45;&gt;Node4690</title>
<path fill="none" stroke="#191970" d="M545.8784,-97.5112C570.4121,-104.7179 604.3405,-114.6844 631.0479,-122.5297"/>
<polygon fill="#191970" stroke="#191970" points="630.3145,-125.9621 640.8956,-125.4224 632.2874,-119.2458 630.3145,-125.9621"/>
</g>
<!-- Node5324 -->
<g id="node36" class="node">
<title>Node5324</title>
<g id="a_node36"><a xlink:href="smbdes_8c.html#ac043d1bf369649869a821d37e3fdcad8" target="_top" xlink:title="str_to_key">
<polygon fill="none" stroke="#000000" points="482.5,-575.5 482.5,-594.5 544.5,-594.5 544.5,-575.5 482.5,-575.5"/>
<text text-anchor="middle" x="513.5" y="-582.5" font-family="Helvetica,sans-Serif" font-size="10.00" fill="#000000">str_to_key</text>
</a>
</g>
</g>
<!-- Node5323&#45;&gt;Node5324 -->
<g id="edge45" class="edge">
<title>Node5323&#45;&gt;Node5324</title>
<path fill="none" stroke="#191970" d="M379.7182,-552.7933C405.3432,-558.9622 443.451,-568.1364 472.4477,-575.117"/>
<polygon fill="#191970" stroke="#191970" points="471.7473,-578.5484 482.2888,-577.4862 473.3857,-571.7428 471.7473,-578.5484"/>
</g>
<!-- Node5325 -->
<g id="node37" class="node">
<title>Node5325</title>
<g id="a_node37"><a xlink:href="smbdes_8c.html#a7f59a12025334cfdf1b52be3788f506e" target="_top" xlink:title="dohash">
<polygon fill="none" stroke="#000000" points="489.5,-805.5 489.5,-824.5 537.5,-824.5 537.5,-805.5 489.5,-805.5"/>
<text text-anchor="middle" x="513.5" y="-812.5" font-family="Helvetica,sans-Serif" font-size="10.00" fill="#000000">dohash</text>
</a>
</g>
</g>
<!-- Node5323&#45;&gt;Node5325 -->
<g id="edge46" class="edge">
<title>Node5323&#45;&gt;Node5325</title>
<path fill="none" stroke="#191970" d="M379.5218,-548.86C391.6913,-551.386 405.3401,-556.1245 415,-565 484.6588,-629.0023 505.7654,-748.4706 511.5306,-795.3769"/>
<polygon fill="#191970" stroke="#191970" points="508.0653,-795.8823 512.6624,-805.4279 515.0213,-795.099 508.0653,-795.8823"/>
</g>
<!-- Node5326 -->
<g id="node38" class="node">
<title>Node5326</title>
<g id="a_node38"><a xlink:href="smbdes_8c.html#a306a038043614a52d0645f0b07519c90" target="_top" xlink:title="permute">
<polygon fill="none" stroke="#000000" points="647.5,-843.5 647.5,-862.5 699.5,-862.5 699.5,-843.5 647.5,-843.5"/>
<text text-anchor="middle" x="673.5" y="-850.5" font-family="Helvetica,sans-Serif" font-size="10.00" fill="#000000">permute</text>
</a>
</g>
</g>
<!-- Node5325&#45;&gt;Node5326 -->
<g id="edge47" class="edge">
<title>Node5325&#45;&gt;Node5326</title>
<path fill="none" stroke="#191970" d="M537.8006,-820.7714C564.3478,-827.0764 607.1404,-837.2396 637.569,-844.4664"/>
<polygon fill="#191970" stroke="#191970" points="636.8348,-847.8893 647.373,-846.7948 638.4524,-841.0787 636.8348,-847.8893"/>
</g>
<!-- Node5327 -->
<g id="node39" class="node">
<title>Node5327</title>
<g id="a_node39"><a xlink:href="smbdes_8c.html#a737e16de8671b055c9b1b6cad1324d77" target="_top" xlink:title="lshift">
<polygon fill="none" stroke="#000000" points="654.5,-805.5 654.5,-824.5 692.5,-824.5 692.5,-805.5 654.5,-805.5"/>
<text text-anchor="middle" x="673.5" y="-812.5" font-family="Helvetica,sans-Serif" font-size="10.00" fill="#000000">lshift</text>
</a>
</g>
</g>
<!-- Node5325&#45;&gt;Node5327 -->
<g id="edge48" class="edge">
<title>Node5325&#45;&gt;Node5327</title>
<path fill="none" stroke="#191970" d="M537.8006,-815C566.422,-815 613.9265,-815 644.4613,-815"/>
<polygon fill="#191970" stroke="#191970" points="644.4954,-818.5001 654.4953,-815 644.4953,-811.5001 644.4954,-818.5001"/>
</g>
<!-- Node5328 -->
<g id="node40" class="node">
<title>Node5328</title>
<g id="a_node40"><a xlink:href="smbdes_8c.html#ad19be9293bcc90a361dff345977c1f8e" target="_top" xlink:title="concat">
<polygon fill="none" stroke="#000000" points="650.5,-767.5 650.5,-786.5 696.5,-786.5 696.5,-767.5 650.5,-767.5"/>
<text text-anchor="middle" x="673.5" y="-774.5" font-family="Helvetica,sans-Serif" font-size="10.00" fill="#000000">concat</text>
</a>
</g>
</g>
<!-- Node5325&#45;&gt;Node5328 -->
<g id="edge49" class="edge">
<title>Node5325&#45;&gt;Node5328</title>
<path fill="none" stroke="#191970" d="M537.8006,-809.2286C565.2118,-802.7184 609.9429,-792.0948 640.4996,-784.8376"/>
<polygon fill="#191970" stroke="#191970" points="641.3528,-788.2324 650.2734,-782.5163 639.7352,-781.4218 641.3528,-788.2324"/>
</g>
<!-- Node5329 -->
<g id="node41" class="node">
<title>Node5329</title>
<g id="a_node41"><a xlink:href="smbdes_8c.html#a20d8116e25b39be5b9b80435ce395aa5" target="_top" xlink:title="xor">
<polygon fill="none" stroke="#000000" points="658.5,-881.5 658.5,-900.5 688.5,-900.5 688.5,-881.5 658.5,-881.5"/>
<text text-anchor="middle" x="673.5" y="-888.5" font-family="Helvetica,sans-Serif" font-size="10.00" fill="#000000">xor</text>
</a>
</g>
</g>
<!-- Node5325&#45;&gt;Node5329 -->
<g id="edge50" class="edge">
<title>Node5325&#45;&gt;Node5329</title>
<path fill="none" stroke="#191970" d="M527.6484,-824.5596C546.3159,-836.8459 580.5002,-858.2298 612,-872 623.7593,-877.1406 637.3448,-881.4927 648.7514,-884.7292"/>
<polygon fill="#191970" stroke="#191970" points="647.9316,-888.1333 658.4995,-887.3785 649.7675,-881.3783 647.9316,-888.1333"/>
</g>
<!-- Node5330&#45;&gt;Node4713 -->
<g id="edge52" class="edge">
<title>Node5330&#45;&gt;Node4713</title>
<path fill="none" stroke="#191970" d="M397.1441,-59.1377C403.3688,-62.0038 409.5007,-65.288 415,-69 434.2828,-82.0157 431.2125,-94.7653 451,-107 454.3761,-109.0875 457.9973,-110.9593 461.7335,-112.6354"/>
<polygon fill="#191970" stroke="#191970" points="460.5985,-115.9509 471.1834,-116.4101 463.1951,-109.4503 460.5985,-115.9509"/>
</g>
<!-- Node5218 -->
<g id="node43" class="node">
<title>Node5218</title>
<g id="a_node43"><a xlink:href="value_8c.html#ac65d2cafaad39fbe6ee69261e0a09176" target="_top" xlink:title="Alloc and assign an empty 0 terminated string to a fr_value_box_t. ">
<polygon fill="none" stroke="#ff0000" points="454,-37.5 454,-56.5 573,-56.5 573,-37.5 454,-37.5"/>
<text text-anchor="middle" x="513.5" y="-44.5" font-family="Helvetica,sans-Serif" font-size="10.00" fill="#000000">fr_value_box_bstr_alloc</text>
</a>
</g>
</g>
<!-- Node5330&#45;&gt;Node5218 -->
<g id="edge53" class="edge">
<title>Node5330&#45;&gt;Node5218</title>
<path fill="none" stroke="#191970" d="M398.7926,-44.8758C412.7546,-45.1343 428.343,-45.423 443.4174,-45.7022"/>
<polygon fill="#191970" stroke="#191970" points="443.6821,-49.2076 453.7452,-45.8934 443.8118,-42.2088 443.6821,-49.2076"/>
</g>
<!-- Node5218&#45;&gt;Node4690 -->
<g id="edge54" class="edge">
<title>Node5218&#45;&gt;Node4690</title>
<path fill="none" stroke="#191970" d="M545.6284,-56.5442C555.5856,-59.9661 566.4463,-64.1859 576,-69 604.4935,-83.3579 634.4887,-104.7443 653.5608,-119.2501"/>
<polygon fill="#191970" stroke="#191970" points="651.4542,-122.0455 661.5104,-125.3808 655.7291,-116.5023 651.4542,-122.0455"/>
</g>
<!-- Node5245&#45;&gt;Node4713 -->
<g id="edge56" class="edge">
<title>Node5245&#45;&gt;Node4713</title>
<path fill="none" stroke="#191970" d="M409.0713,-126C423.7758,-126 439.6075,-126 454.3879,-126"/>
<polygon fill="#191970" stroke="#191970" points="454.4258,-129.5001 464.4258,-126 454.4258,-122.5001 454.4258,-129.5001"/>
</g>
<!-- Node5331&#45;&gt;Node5322 -->
<g id="edge60" class="edge">
<title>Node5331&#45;&gt;Node5322</title>
<path fill="none" stroke="#191970" d="M250.2793,-88C259.4414,-88 269.1889,-88 278.8782,-88"/>
<polygon fill="#191970" stroke="#191970" points="278.9276,-91.5001 288.9275,-88 278.9275,-84.5001 278.9276,-91.5001"/>
</g>
<!-- Node5331&#45;&gt;Node5330 -->
<g id="edge59" class="edge">
<title>Node5331&#45;&gt;Node5330</title>
<path fill="none" stroke="#191970" d="M233.6563,-78.4527C251.4933,-73.2378 274.0912,-66.6311 294.7164,-60.6012"/>
<polygon fill="#191970" stroke="#191970" points="295.7245,-63.9531 304.3405,-57.7875 293.7601,-57.2343 295.7245,-63.9531"/>
</g>
</g>
</svg>
