<?xml version="1.0" encoding="UTF-8" standalone="no"?>
<!DOCTYPE svg PUBLIC "-//W3C//DTD SVG 1.1//EN"
 "http://www.w3.org/Graphics/SVG/1.1/DTD/svg11.dtd">
<!-- Generated by graphviz version 2.40.1 (20161225.0304)
 -->
<!-- Title: mod_authorize Pages: 1 -->
<!--zoomable 447 -->
<svg id="main" version="1.1" xmlns="http://www.w3.org/2000/svg" xmlns:xlink="http://www.w3.org/1999/xlink" xml:space="preserve" onload="init(evt)">
<style type="text/css"><![CDATA[
.edge:hover path { stroke: red; }
.edge:hover polygon { stroke: red; fill: red; }
]]></style>
<script type="text/javascript"><![CDATA[
var edges = document.getElementsByTagName('g');
if (edges && edges.length) {
  for (var i=0;i<edges.length;i++) {
    if (edges[i].id.substr(0,4)=='edge') {
      edges[i].setAttribute('class','edge');
    }
  }
}
]]></script>
        <defs>
                <circle id="rim" cx="0" cy="0" r="7"/>
                <circle id="rim2" cx="0" cy="0" r="3.5"/>
                <g id="zoomPlus">
                        <use xlink:href="#rim" fill="#404040">
                                <set attributeName="fill" to="#808080" begin="zoomplus.mouseover" end="zoomplus.mouseout"/>
                        </use>
                        <path d="M-4,0h8M0,-4v8" fill="none" stroke="white" stroke-width="1.5" pointer-events="none"/>
                </g>
                <g id="zoomMin">
                        <use xlink:href="#rim" fill="#404040">
                                <set attributeName="fill" to="#808080" begin="zoomminus.mouseover" end="zoomminus.mouseout"/>
                        </use>
                        <path d="M-4,0h8" fill="none" stroke="white" stroke-width="1.5" pointer-events="none"/>
                </g>
                <g id="dirArrow">
                        <path fill="none" stroke="white" stroke-width="1.5" d="M0,-3.0v7 M-2.5,-0.5L0,-3.0L2.5,-0.5"/>
                </g>
               <g id="resetDef">
                       <use xlink:href="#rim2" fill="#404040">
                               <set attributeName="fill" to="#808080" begin="reset.mouseover" end="reset.mouseout"/>
                       </use>
               </g>
        </defs>

<script type="text/javascript">
var viewWidth = 930;
var viewHeight = 447;
var sectionId = 'dynsection-1';
</script>
<script xlink:href="svgpan.js"/>
<svg id="graph" class="graph">
<g id="viewport">
<title>mod_authorize</title>
<!-- Node0 -->
<g id="node1" class="node">
<title>Node0</title>
<polygon fill="#bfbfbf" stroke="#000000" points="0,-159 0,-178 80,-178 80,-159 0,-159"/>
<text text-anchor="middle" x="40" y="-166" font-family="Helvetica,sans-Serif" font-size="10.00" fill="#000000">mod_authorize</text>
</g>
<!-- Node1 -->
<g id="node2" class="node">
<title>Node1</title>
<g id="a_node2"><a xlink:href="src_2modules_2rlm__sigtran_2client_8c.html#a58b0551011537082226548d6cc9cb5b6" target="_top" xlink:title="Create a MAP_SEND_AUTH_INFO request. ">
<polygon fill="none" stroke="#000000" points="116,-153.5 116,-183.5 214,-183.5 214,-153.5 116,-153.5"/>
<text text-anchor="start" x="124" y="-171.5" font-family="Helvetica,sans-Serif" font-size="10.00" fill="#000000">sigtran_client_map</text>
<text text-anchor="middle" x="165" y="-160.5" font-family="Helvetica,sans-Serif" font-size="10.00" fill="#000000">_send_auth_info</text>
</a>
</g>
</g>
<!-- Node0&#45;&gt;Node1 -->
<g id="edge1" class="edge">
<title>Node0&#45;&gt;Node1</title>
<path fill="none" stroke="#191970" d="M80.2388,-168.5C88.3438,-168.5 97.0233,-168.5 105.6237,-168.5"/>
<polygon fill="#191970" stroke="#191970" points="105.6444,-172.0001 115.6444,-168.5 105.6443,-165.0001 105.6444,-172.0001"/>
</g>
<!-- Node2 -->
<g id="node3" class="node">
<title>Node2</title>
<g id="a_node3"><a xlink:href="sigtran_8c.html#abc0b4b0f5ecf30d6c812576012e0a7ef" target="_top" xlink:title="sigtran_ascii_to_tbcd">
<polygon fill="none" stroke="#000000" points="250,-328 250,-347 359,-347 359,-328 250,-328"/>
<text text-anchor="middle" x="304.5" y="-335" font-family="Helvetica,sans-Serif" font-size="10.00" fill="#000000">sigtran_ascii_to_tbcd</text>
</a>
</g>
</g>
<!-- Node1&#45;&gt;Node2 -->
<g id="edge2" class="edge">
<title>Node1&#45;&gt;Node2</title>
<path fill="none" stroke="#191970" d="M169.5446,-183.622C179.3238,-213.6474 205.1834,-281.1065 250,-318.5 252.0196,-320.1851 254.1981,-321.7244 256.4817,-323.1301"/>
<polygon fill="#191970" stroke="#191970" points="255.2083,-326.4126 265.696,-327.9153 258.4344,-320.2004 255.2083,-326.4126"/>
</g>
<!-- Node3 -->
<g id="node4" class="node">
<title>Node3</title>
<g id="a_node4"><a xlink:href="syserror_8c.html#a18747f9d648d0aeecc4a8b27ac0435aa" target="_top" xlink:title="Guaranteed to be thread&#45;safe version of strerror. ">
<polygon fill="none" stroke="#000000" points="273,-290 273,-309 336,-309 336,-290 273,-290"/>
<text text-anchor="middle" x="304.5" y="-297" font-family="Helvetica,sans-Serif" font-size="10.00" fill="#000000">fr_syserror</text>
</a>
</g>
</g>
<!-- Node1&#45;&gt;Node3 -->
<g id="edge3" class="edge">
<title>Node1&#45;&gt;Node3</title>
<path fill="none" stroke="#191970" d="M181.0024,-183.5274C207.3177,-208.2392 259.5314,-257.2715 286.872,-282.9461"/>
<polygon fill="#191970" stroke="#191970" points="284.507,-285.5266 294.1927,-289.8207 289.2989,-280.4238 284.507,-285.5266"/>
</g>
<!-- Node629 -->
<g id="node14" class="node">
<title>Node629</title>
<g id="a_node14"><a xlink:href="src_2lib_2unlang_2module_8c.html#aa828488a36bd5c78545c095a8e04096e" target="_top" xlink:title="Yield a request back to the interpreter from within a module. ">
<polygon fill="none" stroke="#000000" points="251,-159 251,-178 358,-178 358,-159 251,-159"/>
<text text-anchor="middle" x="304.5" y="-166" font-family="Helvetica,sans-Serif" font-size="10.00" fill="#000000">unlang_module_yield</text>
</a>
</g>
</g>
<!-- Node1&#45;&gt;Node629 -->
<g id="edge18" class="edge">
<title>Node1&#45;&gt;Node629</title>
<path fill="none" stroke="#191970" d="M214.1825,-168.5C222.6396,-168.5 231.5398,-168.5 240.3215,-168.5"/>
<polygon fill="#191970" stroke="#191970" points="240.5423,-172.0001 250.5423,-168.5 240.5422,-165.0001 240.5423,-172.0001"/>
</g>
<!-- Node636 -->
<g id="node21" class="node">
<title>Node636</title>
<g id="a_node21"><a xlink:href="src_2modules_2rlm__sigtran_2client_8c.html#ae1ad36f995cc852e666f0a3d659b121d" target="_top" xlink:title="sigtran_client_map\l_resume">
<polygon fill="none" stroke="#000000" points="255.5,-92.5 255.5,-122.5 353.5,-122.5 353.5,-92.5 255.5,-92.5"/>
<text text-anchor="start" x="263.5" y="-110.5" font-family="Helvetica,sans-Serif" font-size="10.00" fill="#000000">sigtran_client_map</text>
<text text-anchor="middle" x="304.5" y="-99.5" font-family="Helvetica,sans-Serif" font-size="10.00" fill="#000000">_resume</text>
</a>
</g>
</g>
<!-- Node1&#45;&gt;Node636 -->
<g id="edge26" class="edge">
<title>Node1&#45;&gt;Node636</title>
<path fill="none" stroke="#191970" d="M199.4832,-153.4213C217.9269,-145.3563 240.8352,-135.3391 260.5449,-126.7205"/>
<polygon fill="#191970" stroke="#191970" points="262.17,-129.8299 269.9301,-122.6166 259.3654,-123.4163 262.17,-129.8299"/>
</g>
<!-- Node639 -->
<g id="node27" class="node">
<title>Node639</title>
<g id="a_node27"><a xlink:href="src_2modules_2rlm__sigtran_2client_8c.html#ae774d254e72bd8a6818819e0d9a4c1f5" target="_top" xlink:title="sigtran_client_signal">
<polygon fill="none" stroke="#000000" points="252,-54 252,-73 357,-73 357,-54 252,-54"/>
<text text-anchor="middle" x="304.5" y="-61" font-family="Helvetica,sans-Serif" font-size="10.00" fill="#000000">sigtran_client_signal</text>
</a>
</g>
</g>
<!-- Node1&#45;&gt;Node639 -->
<g id="edge32" class="edge">
<title>Node1&#45;&gt;Node639</title>
<path fill="none" stroke="#191970" d="M176.6789,-153.2934C191.7791,-134.5535 219.7516,-102.8267 250,-83.5 253.7808,-81.0843 257.8947,-78.904 262.1114,-76.9503"/>
<polygon fill="#191970" stroke="#191970" points="263.5597,-80.1381 271.4177,-73.0317 260.8431,-73.6867 263.5597,-80.1381"/>
</g>
<!-- Node4 -->
<g id="node5" class="node">
<title>Node4</title>
<g id="a_node5"><a xlink:href="strerror_8c.html#a2c8e65d6d4b73fb705cc023f60acb099" target="_top" xlink:title="Print the current error to stderr with a prefix. ">
<polygon fill="none" stroke="#000000" points="718,-404 718,-423 771,-423 771,-404 718,-404"/>
<text text-anchor="middle" x="744.5" y="-411" font-family="Helvetica,sans-Serif" font-size="10.00" fill="#000000">fr_perror</text>
</a>
</g>
</g>
<!-- Node3&#45;&gt;Node4 -->
<g id="edge4" class="edge">
<title>Node3&#45;&gt;Node4</title>
<path fill="none" stroke="#191970" d="M336.1404,-305.9561C344.2756,-308.7743 352.5444,-312.7916 359,-318.5 386.1,-342.4632 366.9994,-368.5956 395,-391.5 450.1558,-436.6172 479.3366,-423.3122 550,-432.5 608.177,-440.0643 623.9709,-441.1255 682,-432.5 691.0469,-431.1552 700.5966,-428.7721 709.4343,-426.1383"/>
<polygon fill="#191970" stroke="#191970" points="710.5652,-429.4516 719.0451,-423.1001 708.4552,-422.7771 710.5652,-429.4516"/>
</g>
<!-- Node11 -->
<g id="node9" class="node">
<title>Node11</title>
<g id="a_node9"><a xlink:href="syserror_8c.html#ab1238c031182d57dae9463e447d9401b" target="_top" xlink:title="_fr_logging_free">
<polygon fill="none" stroke="#000000" points="411.5,-290 411.5,-309 497.5,-309 497.5,-290 411.5,-290"/>
<text text-anchor="middle" x="454.5" y="-297" font-family="Helvetica,sans-Serif" font-size="10.00" fill="#000000">_fr_logging_free</text>
</a>
</g>
</g>
<!-- Node3&#45;&gt;Node11 -->
<g id="edge8" class="edge">
<title>Node3&#45;&gt;Node11</title>
<path fill="none" stroke="#191970" d="M336.3111,-299.5C355.1683,-299.5 379.5511,-299.5 401.2679,-299.5"/>
<polygon fill="#191970" stroke="#191970" points="401.3528,-303.0001 411.3527,-299.5 401.3527,-296.0001 401.3528,-303.0001"/>
</g>
<!-- Node12 -->
<g id="node10" class="node">
<title>Node12</title>
<g id="a_node10"><a xlink:href="snprintf_8c.html#a8da10a1735da7051de5c298ca7448eee" target="_top" xlink:title="snprintf">
<polygon fill="none" stroke="#000000" points="430,-328 430,-347 479,-347 479,-328 430,-328"/>
<text text-anchor="middle" x="454.5" y="-335" font-family="Helvetica,sans-Serif" font-size="10.00" fill="#000000">snprintf</text>
</a>
</g>
</g>
<!-- Node3&#45;&gt;Node12 -->
<g id="edge9" class="edge">
<title>Node3&#45;&gt;Node12</title>
<path fill="none" stroke="#191970" d="M336.3111,-307.5588C360.8005,-313.7628 394.6092,-322.3277 419.7952,-328.7081"/>
<polygon fill="#191970" stroke="#191970" points="419.1141,-332.1461 429.6675,-331.2091 420.8332,-325.3604 419.1141,-332.1461"/>
</g>
<!-- Node110 -->
<g id="node13" class="node">
<title>Node110</title>
<g id="a_node13"><a xlink:href="strlcpy_8c.html#a59f9599e77ee687b1daaa179f8b9a2f3" target="_top" xlink:title="strlcpy">
<polygon fill="none" stroke="#000000" points="431.5,-252 431.5,-271 477.5,-271 477.5,-252 431.5,-252"/>
<text text-anchor="middle" x="454.5" y="-259" font-family="Helvetica,sans-Serif" font-size="10.00" fill="#000000">strlcpy</text>
</a>
</g>
</g>
<!-- Node3&#45;&gt;Node110 -->
<g id="edge17" class="edge">
<title>Node3&#45;&gt;Node110</title>
<path fill="none" stroke="#191970" d="M336.3111,-291.4412C361.254,-285.1223 395.8646,-276.3543 421.1855,-269.9397"/>
<polygon fill="#191970" stroke="#191970" points="422.2386,-273.2835 431.0728,-267.4349 420.5195,-266.4979 422.2386,-273.2835"/>
</g>
<!-- Node5 -->
<g id="node6" class="node">
<title>Node5</title>
<g id="a_node6"><a xlink:href="acutest_8h.html#aecf9a9be8105efb1454cd8c1ef6cb1c5" target="_top" xlink:title="va_start">
<polygon fill="none" stroke="#000000" points="838.5,-366 838.5,-385 890.5,-385 890.5,-366 838.5,-366"/>
<text text-anchor="middle" x="864.5" y="-373" font-family="Helvetica,sans-Serif" font-size="10.00" fill="#000000">va_start</text>
</a>
</g>
</g>
<!-- Node4&#45;&gt;Node5 -->
<g id="edge5" class="edge">
<title>Node4&#45;&gt;Node5</title>
<path fill="none" stroke="#191970" d="M771.1319,-405.0666C788.1055,-399.6916 810.303,-392.6624 828.7956,-386.8064"/>
<polygon fill="#191970" stroke="#191970" points="829.8786,-390.1348 838.3554,-383.7791 827.7654,-383.4614 829.8786,-390.1348"/>
</g>
<!-- Node6 -->
<g id="node7" class="node">
<title>Node6</title>
<g id="a_node7"><a xlink:href="acutest_8h.html#a36af1f79dd6adf0809c21e76535034d5" target="_top" xlink:title="va_end">
<polygon fill="none" stroke="#000000" points="840.5,-328 840.5,-347 888.5,-347 888.5,-328 840.5,-328"/>
<text text-anchor="middle" x="864.5" y="-335" font-family="Helvetica,sans-Serif" font-size="10.00" fill="#000000">va_end</text>
</a>
</g>
</g>
<!-- Node4&#45;&gt;Node6 -->
<g id="edge6" class="edge">
<title>Node4&#45;&gt;Node6</title>
<path fill="none" stroke="#191970" d="M752.8405,-403.6731C763.9966,-391.0978 784.9434,-369.4018 807,-356.5 814.2905,-352.2355 822.6678,-348.7764 830.7318,-346.0372"/>
<polygon fill="#191970" stroke="#191970" points="831.8143,-349.366 840.3187,-343.0473 829.7301,-342.6834 831.8143,-349.366"/>
</g>
<!-- Node7 -->
<g id="node8" class="node">
<title>Node7</title>
<g id="a_node8"><a xlink:href="strerror_8c.html#a4bdc99630960307e43639975cd3c5f0d" target="_top" xlink:title="Pop the last library error with marker information. ">
<polygon fill="none" stroke="#ff0000" points="807,-404 807,-423 922,-423 922,-404 807,-404"/>
<text text-anchor="middle" x="864.5" y="-411" font-family="Helvetica,sans-Serif" font-size="10.00" fill="#000000">fr_strerror_marker_pop</text>
</a>
</g>
</g>
<!-- Node4&#45;&gt;Node7 -->
<g id="edge7" class="edge">
<title>Node4&#45;&gt;Node7</title>
<path fill="none" stroke="#191970" d="M771.1319,-413.5C778.8578,-413.5 787.666,-413.5 796.7145,-413.5"/>
<polygon fill="#191970" stroke="#191970" points="796.9878,-417.0001 806.9878,-413.5 796.9877,-410.0001 796.9878,-417.0001"/>
</g>
<!-- Node12&#45;&gt;Node5 -->
<g id="edge10" class="edge">
<title>Node12&#45;&gt;Node5</title>
<path fill="none" stroke="#191970" d="M479.1732,-341.5975C498.4207,-344.6774 525.8514,-348.8118 550,-351.5 650.4195,-362.6785 769.4645,-370.2109 828.1178,-373.5459"/>
<polygon fill="#191970" stroke="#191970" points="828.1684,-377.0542 838.3487,-374.1197 828.5604,-370.0652 828.1684,-377.0542"/>
</g>
<!-- Node12&#45;&gt;Node6 -->
<g id="edge13" class="edge">
<title>Node12&#45;&gt;Node6</title>
<path fill="none" stroke="#191970" d="M479.224,-337.5C549.3111,-337.5 749.4265,-337.5 830.1348,-337.5"/>
<polygon fill="#191970" stroke="#191970" points="830.2611,-341.0001 840.2611,-337.5 830.261,-334.0001 830.2611,-341.0001"/>
</g>
<!-- Node13 -->
<g id="node11" class="node">
<title>Node13</title>
<g id="a_node11"><a xlink:href="snprintf_8c.html#a242a1ad85c2e07e0d5d73b6342d97f13" target="_top" xlink:title="vsnprintf">
<polygon fill="none" stroke="#ff0000" points="589,-290 589,-309 643,-309 643,-290 589,-290"/>
<text text-anchor="middle" x="616" y="-297" font-family="Helvetica,sans-Serif" font-size="10.00" fill="#000000">vsnprintf</text>
</a>
</g>
</g>
<!-- Node12&#45;&gt;Node13 -->
<g id="edge11" class="edge">
<title>Node12&#45;&gt;Node13</title>
<path fill="none" stroke="#191970" d="M475.2827,-327.9076C501.4195,-319.4546 546.7586,-308.4263 578.903,-302.4456"/>
<polygon fill="#191970" stroke="#191970" points="579.5963,-305.8774 588.8348,-300.6908 578.3783,-298.9841 579.5963,-305.8774"/>
</g>
<!-- Node25 -->
<g id="node12" class="node">
<title>Node25</title>
<g id="a_node12"><a xlink:href="radclient_8c.html#a3c04138a5bfe5d72780bb7e82a18e627" target="_top" xlink:title="main">
<polygon fill="none" stroke="#ff0000" points="597,-404 597,-423 635,-423 635,-404 597,-404"/>
<text text-anchor="middle" x="616" y="-411" font-family="Helvetica,sans-Serif" font-size="10.00" fill="#000000">main</text>
</a>
</g>
</g>
<!-- Node12&#45;&gt;Node25 -->
<g id="edge14" class="edge">
<title>Node12&#45;&gt;Node25</title>
<path fill="none" stroke="#191970" d="M470.347,-347.0869C488.9951,-358.141 521.0887,-376.4608 550,-389.5 561.9488,-394.889 575.5015,-399.9844 587.2037,-404.0824"/>
<polygon fill="#191970" stroke="#191970" points="586.3296,-407.4825 596.9242,-407.4092 588.5963,-400.8596 586.3296,-407.4825"/>
</g>
<!-- Node13&#45;&gt;Node12 -->
<g id="edge12" class="edge">
<title>Node13&#45;&gt;Node12</title>
<path fill="none" stroke="#191970" d="M595.3511,-309.0491C568.5112,-317.7422 521.2613,-329.1786 488.9495,-335.041"/>
<polygon fill="#191970" stroke="#191970" points="488.2951,-331.602 479.0284,-336.738 489.4753,-338.5018 488.2951,-331.602"/>
</g>
<!-- Node25&#45;&gt;Node3 -->
<g id="edge16" class="edge">
<title>Node25&#45;&gt;Node3</title>
<path fill="none" stroke="#191970" d="M596.9117,-412.1267C556.8713,-408.5183 462.2539,-396.124 395,-356.5 374.9558,-344.6905 378.5368,-331.1312 359,-318.5 354.9031,-315.8512 350.3932,-313.5227 345.7756,-311.4884"/>
<polygon fill="#191970" stroke="#191970" points="346.8304,-308.1418 336.244,-307.7178 344.2554,-314.651 346.8304,-308.1418"/>
</g>
<!-- Node25&#45;&gt;Node4 -->
<g id="edge15" class="edge">
<title>Node25&#45;&gt;Node4</title>
<path fill="none" stroke="#191970" d="M635.2377,-413.5C654.3882,-413.5 684.2605,-413.5 707.9333,-413.5"/>
<polygon fill="#191970" stroke="#191970" points="707.9807,-417.0001 717.9807,-413.5 707.9806,-410.0001 707.9807,-417.0001"/>
</g>
<!-- Node630 -->
<g id="node15" class="node">
<title>Node630</title>
<g id="a_node15"><a xlink:href="src_2lib_2unlang_2module_8c.html#a7e539fb86ff1ad93cd142a7443f0fa61" target="_top" xlink:title="Wrapper to call a module&#39;s resumption function. ">
<polygon fill="none" stroke="#000000" points="395,-176 395,-195 514,-195 514,-176 395,-176"/>
<text text-anchor="middle" x="454.5" y="-183" font-family="Helvetica,sans-Serif" font-size="10.00" fill="#000000">unlang_module_resume</text>
</a>
</g>
</g>
<!-- Node629&#45;&gt;Node630 -->
<g id="edge19" class="edge">
<title>Node629&#45;&gt;Node630</title>
<path fill="none" stroke="#191970" d="M358.2298,-174.5894C366.8418,-175.5654 375.8616,-176.5877 384.7814,-177.5986"/>
<polygon fill="#191970" stroke="#191970" points="384.4519,-181.0835 394.7825,-178.732 385.2403,-174.1281 384.4519,-181.0835"/>
</g>
<!-- Node634 -->
<g id="node19" class="node">
<title>Node634</title>
<g id="a_node19"><a xlink:href="unlang__priv_8h.html#aea944f0a695d8ca1840e87b53bca4bad" target="_top" xlink:title="repeatable_set">
<polygon fill="none" stroke="#000000" points="576,-88 576,-107 656,-107 656,-88 576,-88"/>
<text text-anchor="middle" x="616" y="-95" font-family="Helvetica,sans-Serif" font-size="10.00" fill="#000000">repeatable_set</text>
</a>
</g>
</g>
<!-- Node629&#45;&gt;Node634 -->
<g id="edge25" class="edge">
<title>Node629&#45;&gt;Node634</title>
<path fill="none" stroke="#191970" d="M358.1432,-158.9563C400.6216,-151.1079 461.3603,-139.2385 514,-126.5 534.3247,-121.5816 556.6937,-115.3186 575.2917,-109.8725"/>
<polygon fill="#191970" stroke="#191970" points="576.3216,-113.2179 584.92,-107.0278 574.3381,-106.5047 576.3216,-113.2179"/>
</g>
<!-- Node631 -->
<g id="node16" class="node">
<title>Node631</title>
<g id="a_node16"><a xlink:href="module__priv_8h.html#a192551b6e95b085d7f3d825431574ed0" target="_top" xlink:title="unlang_generic_to_module">
<polygon fill="none" stroke="#000000" points="550,-252 550,-271 682,-271 682,-252 550,-252"/>
<text text-anchor="middle" x="616" y="-259" font-family="Helvetica,sans-Serif" font-size="10.00" fill="#000000">unlang_generic_to_module</text>
</a>
</g>
</g>
<!-- Node630&#45;&gt;Node631 -->
<g id="edge20" class="edge">
<title>Node630&#45;&gt;Node631</title>
<path fill="none" stroke="#191970" d="M468.1305,-195.1836C486.1354,-207.6039 519.177,-229.1325 550,-242.5 555.3961,-244.8402 561.1632,-246.984 566.9579,-248.9202"/>
<polygon fill="#191970" stroke="#191970" points="566.086,-252.315 576.6755,-251.9807 568.1888,-245.6383 566.086,-252.315"/>
</g>
<!-- Node632 -->
<g id="node17" class="node">
<title>Node632</title>
<g id="a_node17"><a xlink:href="src_2lib_2unlang_2module_8c.html#a90c3fdc6174caae2812982ce4ff078c8" target="_top" xlink:title="safe_lock">
<polygon fill="none" stroke="#000000" points="586.5,-214 586.5,-233 645.5,-233 645.5,-214 586.5,-214"/>
<text text-anchor="middle" x="616" y="-221" font-family="Helvetica,sans-Serif" font-size="10.00" fill="#000000">safe_lock</text>
</a>
</g>
</g>
<!-- Node630&#45;&gt;Node632 -->
<g id="edge21" class="edge">
<title>Node630&#45;&gt;Node632</title>
<path fill="none" stroke="#191970" d="M495.2533,-195.089C520.2202,-200.9636 552.0118,-208.444 576.706,-214.2544"/>
<polygon fill="#191970" stroke="#191970" points="575.9365,-217.6688 586.4724,-216.5523 577.5398,-210.8549 575.9365,-217.6688"/>
</g>
<!-- Node633 -->
<g id="node18" class="node">
<title>Node633</title>
<g id="a_node18"><a xlink:href="src_2lib_2unlang_2module_8c.html#ab46c0326fe151b89c713241460595761" target="_top" xlink:title="safe_unlock">
<polygon fill="none" stroke="#000000" points="581.5,-176 581.5,-195 650.5,-195 650.5,-176 581.5,-176"/>
<text text-anchor="middle" x="616" y="-183" font-family="Helvetica,sans-Serif" font-size="10.00" fill="#000000">safe_unlock</text>
</a>
</g>
</g>
<!-- Node630&#45;&gt;Node633 -->
<g id="edge22" class="edge">
<title>Node630&#45;&gt;Node633</title>
<path fill="none" stroke="#191970" d="M514.1778,-185.5C533.1061,-185.5 553.6954,-185.5 571.3746,-185.5"/>
<polygon fill="#191970" stroke="#191970" points="571.4131,-189.0001 581.413,-185.5 571.413,-182.0001 571.4131,-189.0001"/>
</g>
<!-- Node630&#45;&gt;Node634 -->
<g id="edge23" class="edge">
<title>Node630&#45;&gt;Node634</title>
<path fill="none" stroke="#191970" d="M485.0315,-175.8951C494.8143,-171.9996 505.3452,-166.8872 514,-160.5 534.0546,-145.6998 529.2064,-131.2426 550,-117.5 554.9911,-114.2013 560.5484,-111.4284 566.2606,-109.1017"/>
<polygon fill="#191970" stroke="#191970" points="567.7371,-112.2894 575.9475,-105.5931 565.3533,-105.7078 567.7371,-112.2894"/>
</g>
<!-- Node635 -->
<g id="node20" class="node">
<title>Node635</title>
<g id="a_node20"><a xlink:href="src_2lib_2unlang_2module_8c.html#a785cafdb7d6144e87f0875e3d394d872" target="_top" xlink:title="Return UNLANG_CALCULATE_RESULT only for async async calls. ">
<polygon fill="none" stroke="#000000" points="556.5,-126.5 556.5,-156.5 675.5,-156.5 675.5,-126.5 556.5,-126.5"/>
<text text-anchor="start" x="564.5" y="-144.5" font-family="Helvetica,sans-Serif" font-size="10.00" fill="#000000">unlang_module_resume</text>
<text text-anchor="middle" x="616" y="-133.5" font-family="Helvetica,sans-Serif" font-size="10.00" fill="#000000">_final</text>
</a>
</g>
</g>
<!-- Node630&#45;&gt;Node635 -->
<g id="edge24" class="edge">
<title>Node630&#45;&gt;Node635</title>
<path fill="none" stroke="#191970" d="M489.5431,-175.9527C507.4826,-171.0651 529.9097,-164.9549 550.8756,-159.2429"/>
<polygon fill="#191970" stroke="#191970" points="551.975,-162.571 560.7033,-156.5654 550.1349,-155.8172 551.975,-162.571"/>
</g>
<!-- Node397 -->
<g id="node22" class="node">
<title>Node397</title>
<g id="a_node22"><a xlink:href="pair_8c.html#a2897183dcbc65ef1b54619bd293fd735" target="_top" xlink:title="Dynamically allocate a new attribute and fill in the da field. ">
<polygon fill="none" stroke="#ff0000" points="410,-98 410,-117 499,-117 499,-98 410,-98"/>
<text text-anchor="middle" x="454.5" y="-105" font-family="Helvetica,sans-Serif" font-size="10.00" fill="#000000">fr_pair_afrom_da</text>
</a>
</g>
</g>
<!-- Node636&#45;&gt;Node397 -->
<g id="edge27" class="edge">
<title>Node636&#45;&gt;Node397</title>
<path fill="none" stroke="#191970" d="M353.6156,-107.5C368.333,-107.5 384.5661,-107.5 399.6293,-107.5"/>
<polygon fill="#191970" stroke="#191970" points="399.8378,-111.0001 409.8378,-107.5 399.8377,-104.0001 399.8378,-111.0001"/>
</g>
<!-- Node637 -->
<g id="node23" class="node">
<title>Node637</title>
<g id="a_node23"><a xlink:href="pair_8c.html#a0f6defb67f67687d284d99d82a10664d" target="_top" xlink:title="Copy data from a talloced buffer into an &quot;octets&quot; data type. ">
<polygon fill="none" stroke="#000000" points="397,-45.5 397,-75.5 512,-75.5 512,-45.5 397,-45.5"/>
<text text-anchor="start" x="405" y="-63.5" font-family="Helvetica,sans-Serif" font-size="10.00" fill="#000000">fr_pair_value_memdup</text>
<text text-anchor="middle" x="454.5" y="-52.5" font-family="Helvetica,sans-Serif" font-size="10.00" fill="#000000">_buffer</text>
</a>
</g>
</g>
<!-- Node636&#45;&gt;Node637 -->
<g id="edge28" class="edge">
<title>Node636&#45;&gt;Node637</title>
<path fill="none" stroke="#191970" d="M352.3734,-92.4997C366.4453,-88.0905 381.9897,-83.2199 396.6166,-78.6368"/>
<polygon fill="#191970" stroke="#191970" points="398.071,-81.849 406.567,-75.519 395.9779,-75.1692 398.071,-81.849"/>
</g>
<!-- Node205 -->
<g id="node26" class="node">
<title>Node205</title>
<g id="a_node26"><a xlink:href="cursor_8c.html#a6e72682a046a3eeac734da6639f1817c" target="_top" xlink:title="Insert a single item at the end of the list. ">
<polygon fill="none" stroke="#ff0000" points="408.5,-7 408.5,-26 500.5,-26 500.5,-7 408.5,-7"/>
<text text-anchor="middle" x="454.5" y="-14" font-family="Helvetica,sans-Serif" font-size="10.00" fill="#000000">fr_cursor_append</text>
</a>
</g>
</g>
<!-- Node636&#45;&gt;Node205 -->
<g id="edge31" class="edge">
<title>Node636&#45;&gt;Node205</title>
<path fill="none" stroke="#191970" d="M343.3715,-92.4834C348.8728,-89.5714 354.2616,-86.2418 359,-82.5 379.3744,-66.4109 373.8034,-51.4892 395,-36.5 398.4034,-34.0933 402.1181,-31.9592 405.9751,-30.0702"/>
<polygon fill="#191970" stroke="#191970" points="407.3689,-33.2807 415.1534,-26.0938 404.5861,-26.8576 407.3689,-33.2807"/>
</g>
<!-- Node54 -->
<g id="node24" class="node">
<title>Node54</title>
<g id="a_node24"><a xlink:href="value_8c.html#ad5da2574fed047b3ae861999d06c38ac" target="_top" xlink:title="Clear/free any existing value and metadata. ">
<polygon fill="none" stroke="#ff0000" points="567,-50 567,-69 665,-69 665,-50 567,-50"/>
<text text-anchor="middle" x="616" y="-57" font-family="Helvetica,sans-Serif" font-size="10.00" fill="#000000">fr_value_box_clear</text>
</a>
</g>
</g>
<!-- Node637&#45;&gt;Node54 -->
<g id="edge29" class="edge">
<title>Node637&#45;&gt;Node54</title>
<path fill="none" stroke="#191970" d="M512.349,-60.1418C526.6969,-60.053 542.0963,-59.9576 556.5206,-59.8683"/>
<polygon fill="#191970" stroke="#191970" points="556.8444,-63.3665 566.8225,-59.8045 556.801,-56.3666 556.8444,-63.3665"/>
</g>
<!-- Node638 -->
<g id="node25" class="node">
<title>Node638</title>
<g id="a_node25"><a xlink:href="value_8c.html#a33088c75996d207fdaa0e98f41d1b2c1" target="_top" xlink:title="Copy a talloced buffer to a fr_value_box_t. ">
<polygon fill="none" stroke="#ff0000" points="558.5,-.5 558.5,-30.5 673.5,-30.5 673.5,-.5 558.5,-.5"/>
<text text-anchor="start" x="566.5" y="-18.5" font-family="Helvetica,sans-Serif" font-size="10.00" fill="#000000">fr_value_box_memdup</text>
<text text-anchor="middle" x="616" y="-7.5" font-family="Helvetica,sans-Serif" font-size="10.00" fill="#000000">_buffer</text>
</a>
</g>
</g>
<!-- Node637&#45;&gt;Node638 -->
<g id="edge30" class="edge">
<title>Node637&#45;&gt;Node638</title>
<path fill="none" stroke="#191970" d="M508.7264,-45.3905C522.6493,-41.511 537.7557,-37.3018 552.117,-33.3002"/>
<polygon fill="#191970" stroke="#191970" points="553.2231,-36.6254 561.9167,-30.5697 551.3442,-29.8823 553.2231,-36.6254"/>
</g>
</g>
</svg>
        <g id="navigator" transform="translate(0 0)" fill="#404254">
                <rect fill="#f2f5e9" fill-opacity="0.5" stroke="#606060" stroke-width=".5" x="0" y="0" width="60" height="60"/>
                <use id="zoomplus" xlink:href="#zoomPlus" x="17" y="9" onmousedown="handleZoom(evt,'in')"/>
                <use id="zoomminus" xlink:href="#zoomMin" x="42" y="9" onmousedown="handleZoom(evt,'out')"/>
                <use id="reset" xlink:href="#resetDef" x="30" y="36" onmousedown="handleReset()"/>
                <g id="arrowUp" xlink:href="#dirArrow" transform="translate(30 24)" onmousedown="handlePan(0,-1)">
                  <use xlink:href="#rim" fill="#404040">
                        <set attributeName="fill" to="#808080" begin="arrowUp.mouseover" end="arrowUp.mouseout"/>
                  </use>
                  <path fill="none" stroke="white" stroke-width="1.5" d="M0,-3.0v7 M-2.5,-0.5L0,-3.0L2.5,-0.5"/>
                </g>
                <g id="arrowRight" xlink:href="#dirArrow" transform="rotate(90) translate(36 -43)" onmousedown="handlePan(1,0)">
                  <use xlink:href="#rim" fill="#404040">
                        <set attributeName="fill" to="#808080" begin="arrowRight.mouseover" end="arrowRight.mouseout"/>
                  </use>
                  <path fill="none" stroke="white" stroke-width="1.5" d="M0,-3.0v7 M-2.5,-0.5L0,-3.0L2.5,-0.5"/>
                </g>
                <g id="arrowDown" xlink:href="#dirArrow" transform="rotate(180) translate(-30 -48)" onmousedown="handlePan(0,1)">
                  <use xlink:href="#rim" fill="#404040">
                        <set attributeName="fill" to="#808080" begin="arrowDown.mouseover" end="arrowDown.mouseout"/>
                  </use>
                  <path fill="none" stroke="white" stroke-width="1.5" d="M0,-3.0v7 M-2.5,-0.5L0,-3.0L2.5,-0.5"/>
                </g>
                <g id="arrowLeft" xlink:href="#dirArrow" transform="rotate(270) translate(-36 17)" onmousedown="handlePan(-1,0)">
                  <use xlink:href="#rim" fill="#404040">
                        <set attributeName="fill" to="#808080" begin="arrowLeft.mouseover" end="arrowLeft.mouseout"/>
                  </use>
                  <path fill="none" stroke="white" stroke-width="1.5" d="M0,-3.0v7 M-2.5,-0.5L0,-3.0L2.5,-0.5"/>
                </g>
        </g>
        <svg viewBox="0 0 15 15" width="100%" height="30px" preserveAspectRatio="xMaxYMin meet">
         <g id="arrow_out" transform="scale(0.3 0.3)">
          <a xlink:href="rlm__sigtran_8c_a9ef7a569b6f2f01a9ba088072c54e516_cgraph_org.svg" target="_base">
           <rect id="button" ry="5" rx="5" y="6" x="6" height="38" width="38"
                fill="#f2f5e9" fill-opacity="0.5" stroke="#606060" stroke-width="1.0"/>
           <path id="arrow"
             d="M 11.500037,31.436501 C 11.940474,20.09759 22.043105,11.32322 32.158766,21.979434 L 37.068811,17.246167 C 37.068811,17.246167 37.088388,32 37.088388,32 L 22.160133,31.978069 C 22.160133,31.978069 26.997745,27.140456 26.997745,27.140456 C 18.528582,18.264221 13.291696,25.230495 11.500037,31.436501 z"
             style="fill:#404040;"/>
          </a>
         </g>
        </svg>
</svg>
