<?xml version="1.0" encoding="UTF-8" standalone="no"?>
<!DOCTYPE svg PUBLIC "-//W3C//DTD SVG 1.1//EN"
 "http://www.w3.org/Graphics/SVG/1.1/DTD/svg11.dtd">
<!-- Generated by graphviz version 2.40.1 (20161225.0304)
 -->
<!-- Title: mod_signal Pages: 1 -->
<svg width="1284pt" height="904pt"
 viewBox="0.00 0.00 1284.00 903.75" xmlns="http://www.w3.org/2000/svg" xmlns:xlink="http://www.w3.org/1999/xlink">
<g id="graph0" class="graph" transform="scale(1 1) rotate(0) translate(4 899.7546)">
<title>mod_signal</title>
<!-- Node4754 -->
<g id="node1" class="node">
<title>Node4754</title>
<polygon fill="#bfbfbf" stroke="#000000" points="0,-554.268 0,-573.268 66,-573.268 66,-554.268 0,-554.268"/>
<text text-anchor="middle" x="33" y="-561.268" font-family="Helvetica,sans-Serif" font-size="10.00" fill="#000000">mod_signal</text>
</g>
<!-- Node4755 -->
<g id="node2" class="node">
<title>Node4755</title>
<g id="a_node2"><a xlink:href="trunk_8c.html#a22df6123e7ec90e1fafbdab2ed388774" target="_top" xlink:title="Cancel a trunk request. ">
<polygon fill="none" stroke="#000000" points="534,-734.768 534,-764.768 652,-764.768 652,-734.768 534,-734.768"/>
<text text-anchor="start" x="542" y="-752.768" font-family="Helvetica,sans-Serif" font-size="10.00" fill="#000000">fr_trunk_request_signal</text>
<text text-anchor="middle" x="593" y="-741.768" font-family="Helvetica,sans-Serif" font-size="10.00" fill="#000000">_cancel</text>
</a>
</g>
</g>
<!-- Node4754&#45;&gt;Node4755 -->
<g id="edge1" class="edge">
<title>Node4754&#45;&gt;Node4755</title>
<path fill="none" stroke="#191970" d="M61.9288,-573.3765C150.8097,-602.8977 420.955,-692.6245 537.978,-731.4929"/>
<polygon fill="#191970" stroke="#191970" points="536.8835,-734.8173 547.477,-734.6479 539.09,-728.1741 536.8835,-734.8173"/>
</g>
<!-- Node4977 -->
<g id="node13" class="node">
<title>Node4977</title>
<g id="a_node13"><a xlink:href="rlm__radius__udp_8c.html#ac47feadd21e5ad8c65d2842d9f3b9976" target="_top" xlink:title="See if the connection is zombied. ">
<polygon fill="none" stroke="#000000" points="102,-275.268 102,-294.268 198,-294.268 198,-275.268 102,-275.268"/>
<text text-anchor="middle" x="150" y="-282.268" font-family="Helvetica,sans-Serif" font-size="10.00" fill="#000000">check_for_zombie</text>
</a>
</g>
</g>
<!-- Node4754&#45;&gt;Node4977 -->
<g id="edge16" class="edge">
<title>Node4754&#45;&gt;Node4977</title>
<path fill="none" stroke="#191970" d="M37.0274,-554.1642C53.9039,-513.9202 119.1131,-358.4214 142.0027,-303.8384"/>
<polygon fill="#191970" stroke="#191970" points="145.3499,-304.907 145.9895,-294.3314 138.8945,-302.1998 145.3499,-304.907"/>
</g>
<!-- Node4986 -->
<g id="node32" class="node">
<title>Node4986</title>
<g id="a_node32"><a xlink:href="trunk_8c.html#a72e34d33ea58c5c62d64d12c1620b819" target="_top" xlink:title="Re&#45;enqueue a request on the same connection. ">
<polygon fill="none" stroke="#000000" points="529.5,-554.268 529.5,-573.268 656.5,-573.268 656.5,-554.268 529.5,-554.268"/>
<text text-anchor="middle" x="593" y="-561.268" font-family="Helvetica,sans-Serif" font-size="10.00" fill="#000000">fr_trunk_request_requeue</text>
</a>
</g>
</g>
<!-- Node4754&#45;&gt;Node4986 -->
<g id="edge53" class="edge">
<title>Node4754&#45;&gt;Node4986</title>
<path fill="none" stroke="#191970" d="M66.3535,-563.768C154.6429,-563.768 396.0697,-563.768 518.9843,-563.768"/>
<polygon fill="#191970" stroke="#191970" points="519.0636,-567.2681 529.0635,-563.768 519.0635,-560.2681 519.0636,-567.2681"/>
</g>
<!-- Node4756 -->
<g id="node3" class="node">
<title>Node4756</title>
<g id="a_node3"><a xlink:href="server_2connection_8c.html#a07cf3e48f209e153fb5dee32cfa0d221" target="_top" xlink:title="Pause processing of deferred signals. ">
<polygon fill="none" stroke="#000000" points="1162.5,-358.768 1162.5,-388.768 1273.5,-388.768 1273.5,-358.768 1162.5,-358.768"/>
<text text-anchor="start" x="1170.5" y="-376.768" font-family="Helvetica,sans-Serif" font-size="10.00" fill="#000000">fr_connection_signals</text>
<text text-anchor="middle" x="1218" y="-365.768" font-family="Helvetica,sans-Serif" font-size="10.00" fill="#000000">_pause</text>
</a>
</g>
</g>
<!-- Node4755&#45;&gt;Node4756 -->
<g id="edge2" class="edge">
<title>Node4755&#45;&gt;Node4756</title>
<path fill="none" stroke="#191970" d="M618.1758,-764.9673C638.3997,-776.2425 667.9576,-790.6723 696,-796.768 884.8655,-837.8226 990.2573,-859.2978 1124,-719.768 1180.4545,-660.8707 1138.4932,-618.4666 1160,-539.768 1173.9424,-488.7492 1195.5776,-430.757 1208.1077,-398.5966"/>
<polygon fill="#191970" stroke="#191970" points="1211.4378,-399.6916 1211.8346,-389.1042 1204.922,-397.1333 1211.4378,-399.6916"/>
</g>
<!-- Node4757 -->
<g id="node4" class="node">
<title>Node4757</title>
<g id="a_node4"><a xlink:href="trunk_8c.html#ac56a1d3856d033bf437fc866c1a1cf77" target="_top" xlink:title="Transition a request to the cancel state, placing it in a connection&#39;s cancellation list...">
<polygon fill="none" stroke="#000000" points="850,-630.768 850,-660.768 953,-660.768 953,-630.768 850,-630.768"/>
<text text-anchor="start" x="858" y="-648.768" font-family="Helvetica,sans-Serif" font-size="10.00" fill="#000000">trunk_request_enter</text>
<text text-anchor="middle" x="901.5" y="-637.768" font-family="Helvetica,sans-Serif" font-size="10.00" fill="#000000">_cancel</text>
</a>
</g>
</g>
<!-- Node4755&#45;&gt;Node4757 -->
<g id="edge3" class="edge">
<title>Node4755&#45;&gt;Node4757</title>
<path fill="none" stroke="#191970" d="M637.5291,-734.7566C693.0089,-716.0535 787.7523,-684.1141 847.3675,-664.0169"/>
<polygon fill="#191970" stroke="#191970" points="848.6265,-667.2861 856.9844,-660.7749 846.3903,-660.6529 848.6265,-667.2861"/>
</g>
<!-- Node4763 -->
<g id="node8" class="node">
<title>Node4763</title>
<g id="a_node8"><a xlink:href="server_2connection_8c.html#a4d82ac070ca65d717d16a833b1bf5032" target="_top" xlink:title="Resume processing of deferred signals. ">
<polygon fill="none" stroke="#ff0000" points="1162.5,-548.768 1162.5,-578.768 1273.5,-578.768 1273.5,-548.768 1162.5,-548.768"/>
<text text-anchor="start" x="1170.5" y="-566.768" font-family="Helvetica,sans-Serif" font-size="10.00" fill="#000000">fr_connection_signals</text>
<text text-anchor="middle" x="1218" y="-555.768" font-family="Helvetica,sans-Serif" font-size="10.00" fill="#000000">_resume</text>
</a>
</g>
</g>
<!-- Node4755&#45;&gt;Node4763 -->
<g id="edge9" class="edge">
<title>Node4755&#45;&gt;Node4763</title>
<path fill="none" stroke="#191970" d="M606.1519,-764.8685C624.1481,-784.2544 658.5167,-816.9213 696,-829.768 875.9468,-891.4416 968.6925,-939.6046 1124,-829.768 1164.7422,-800.9543 1200.18,-649.485 1212.9452,-588.8728"/>
<polygon fill="#191970" stroke="#191970" points="1216.3924,-589.4863 1214.9956,-578.9839 1209.5382,-588.0651 1216.3924,-589.4863"/>
</g>
<!-- Node4789 -->
<g id="node9" class="node">
<title>Node4789</title>
<g id="a_node9"><a xlink:href="trunk_8c.html#a0832cb5699c225cb2dcca015bbdbcf22" target="_top" xlink:title="Transition a request to the unassigned state, in preparation for re&#45;assignment. ">
<polygon fill="none" stroke="#000000" points="701,-756.768 701,-786.768 804,-786.768 804,-756.768 701,-756.768"/>
<text text-anchor="start" x="709" y="-774.768" font-family="Helvetica,sans-Serif" font-size="10.00" fill="#000000">trunk_request_enter</text>
<text text-anchor="middle" x="752.5" y="-763.768" font-family="Helvetica,sans-Serif" font-size="10.00" fill="#000000">_unassigned</text>
</a>
</g>
</g>
<!-- Node4755&#45;&gt;Node4789 -->
<g id="edge10" class="edge">
<title>Node4755&#45;&gt;Node4789</title>
<path fill="none" stroke="#191970" d="M652.3919,-757.96C664.9717,-759.6952 678.2758,-761.5302 690.9342,-763.2762"/>
<polygon fill="#191970" stroke="#191970" points="690.537,-766.7545 700.9214,-764.6537 691.4935,-759.8201 690.537,-766.7545"/>
</g>
<!-- Node4937 -->
<g id="node12" class="node">
<title>Node4937</title>
<g id="a_node12"><a xlink:href="trunk_8c.html#a0ccb4513f4a782e67c8d87c3949f7ff6" target="_top" xlink:title="If the trunk request is freed then update the target requests. ">
<polygon fill="none" stroke="#ff0000" points="847,-592.268 847,-611.268 956,-611.268 956,-592.268 847,-592.268"/>
<text text-anchor="middle" x="901.5" y="-599.268" font-family="Helvetica,sans-Serif" font-size="10.00" fill="#000000">fr_trunk_request_free</text>
</a>
</g>
</g>
<!-- Node4755&#45;&gt;Node4937 -->
<g id="edge14" class="edge">
<title>Node4755&#45;&gt;Node4937</title>
<path fill="none" stroke="#191970" d="M610.5555,-734.5321C630.2628,-718.0347 663.7203,-691.802 696,-674.768 758.1627,-641.9648 778.7598,-645.2729 845,-621.768 851.4569,-619.4768 858.33,-617.0412 864.978,-614.687"/>
<polygon fill="#191970" stroke="#191970" points="866.2237,-617.9589 874.4824,-611.3223 863.8877,-611.3602 866.2237,-617.9589"/>
</g>
<!-- Node4758 -->
<g id="node5" class="node">
<title>Node4758</title>
<g id="a_node5"><a xlink:href="dlist_8h.html#ae4fb05ae0fb121f4255153332d3dc477" target="_top" xlink:title="Insert an item into the tail of a list. ">
<polygon fill="none" stroke="#000000" points="1012.5,-592.268 1012.5,-611.268 1105.5,-611.268 1105.5,-592.268 1012.5,-592.268"/>
<text text-anchor="middle" x="1059" y="-599.268" font-family="Helvetica,sans-Serif" font-size="10.00" fill="#000000">fr_dlist_insert_tail</text>
</a>
</g>
</g>
<!-- Node4757&#45;&gt;Node4758 -->
<g id="edge4" class="edge">
<title>Node4757&#45;&gt;Node4758</title>
<path fill="none" stroke="#191970" d="M953.0714,-631.3608C973.0875,-625.769 995.7736,-619.4313 1015.002,-614.0595"/>
<polygon fill="#191970" stroke="#191970" points="1016.0201,-617.4092 1024.7095,-611.3476 1014.1366,-610.6674 1016.0201,-617.4092"/>
</g>
<!-- Node4759 -->
<g id="node6" class="node">
<title>Node4759</title>
<g id="a_node6"><a xlink:href="trunk_8c.html#aeaad50225e220cc98d1a1cf5a5941298" target="_top" xlink:title="Update the registrations for I/O events we&#39;re interested in. ">
<polygon fill="none" stroke="#000000" points="999,-630.768 999,-660.768 1119,-660.768 1119,-630.768 999,-630.768"/>
<text text-anchor="start" x="1007" y="-648.768" font-family="Helvetica,sans-Serif" font-size="10.00" fill="#000000">trunk_connection_event</text>
<text text-anchor="middle" x="1059" y="-637.768" font-family="Helvetica,sans-Serif" font-size="10.00" fill="#000000">_update</text>
</a>
</g>
</g>
<!-- Node4757&#45;&gt;Node4759 -->
<g id="edge5" class="edge">
<title>Node4757&#45;&gt;Node4759</title>
<path fill="none" stroke="#191970" d="M953.0714,-645.768C964.4959,-645.768 976.7903,-645.768 988.8151,-645.768"/>
<polygon fill="#191970" stroke="#191970" points="988.8276,-649.2681 998.8275,-645.768 988.8275,-642.2681 988.8276,-649.2681"/>
</g>
<!-- Node4759&#45;&gt;Node4756 -->
<g id="edge7" class="edge">
<title>Node4759&#45;&gt;Node4756</title>
<path fill="none" stroke="#191970" d="M1110.854,-630.6684C1115.6609,-627.8936 1120.1596,-624.622 1124,-620.768 1132.2852,-612.4535 1187.401,-459.5689 1209.1743,-398.5825"/>
<polygon fill="#191970" stroke="#191970" points="1212.5411,-399.5612 1212.6029,-388.9665 1205.9477,-397.2103 1212.5411,-399.5612"/>
</g>
<!-- Node4760 -->
<g id="node7" class="node">
<title>Node4760</title>
<g id="a_node7"><a xlink:href="trunk_8c.html#a4a0a08064485793b003756b197ca6622" target="_top" xlink:title="Return the count number of requests associated with a trunk connection. ">
<polygon fill="none" stroke="#ff0000" points="1160,-42.768 1160,-72.768 1276,-72.768 1276,-42.768 1160,-42.768"/>
<text text-anchor="start" x="1168" y="-60.768" font-family="Helvetica,sans-Serif" font-size="10.00" fill="#000000">fr_trunk_request_count</text>
<text text-anchor="middle" x="1218" y="-49.768" font-family="Helvetica,sans-Serif" font-size="10.00" fill="#000000">_by_connection</text>
</a>
</g>
</g>
<!-- Node4759&#45;&gt;Node4760 -->
<g id="edge6" class="edge">
<title>Node4759&#45;&gt;Node4760</title>
<path fill="none" stroke="#191970" d="M1113.0362,-630.7222C1117.1762,-627.9469 1120.9301,-624.6602 1124,-620.768 1161.623,-573.0687 1150.077,-409.7034 1160,-349.768 1176.4378,-250.4826 1201.424,-133.3052 1212.4454,-82.8905"/>
<polygon fill="#191970" stroke="#191970" points="1215.9119,-83.4225 1214.637,-72.9047 1209.0746,-81.9218 1215.9119,-83.4225"/>
</g>
<!-- Node4759&#45;&gt;Node4763 -->
<g id="edge8" class="edge">
<title>Node4759&#45;&gt;Node4763</title>
<path fill="none" stroke="#191970" d="M1101.4279,-630.7048C1109.0456,-627.6472 1116.836,-624.283 1124,-620.768 1145.5943,-610.1728 1168.7091,-596.1949 1186.6135,-584.7328"/>
<polygon fill="#191970" stroke="#191970" points="1188.9751,-587.3733 1195.4658,-578.9994 1185.1697,-581.4979 1188.9751,-587.3733"/>
</g>
<!-- Node4790 -->
<g id="node10" class="node">
<title>Node4790</title>
<g id="a_node10"><a xlink:href="trunk_8c.html#a57c049e07e8913dafb84d76e548fa404" target="_top" xlink:title="Remove a request from all connection lists. ">
<polygon fill="none" stroke="#000000" points="845,-679.768 845,-709.768 958,-709.768 958,-679.768 845,-679.768"/>
<text text-anchor="start" x="853" y="-697.768" font-family="Helvetica,sans-Serif" font-size="10.00" fill="#000000">trunk_request_remove</text>
<text text-anchor="middle" x="901.5" y="-686.768" font-family="Helvetica,sans-Serif" font-size="10.00" fill="#000000">_from_conn</text>
</a>
</g>
</g>
<!-- Node4789&#45;&gt;Node4790 -->
<g id="edge11" class="edge">
<title>Node4789&#45;&gt;Node4790</title>
<path fill="none" stroke="#191970" d="M781.5824,-756.7389C804.8896,-744.6942 837.787,-727.6935 863.2313,-714.5445"/>
<polygon fill="#191970" stroke="#191970" points="864.9597,-717.5911 872.2367,-709.8907 861.746,-711.3724 864.9597,-717.5911"/>
</g>
<!-- Node4790&#45;&gt;Node4759 -->
<g id="edge13" class="edge">
<title>Node4790&#45;&gt;Node4759</title>
<path fill="none" stroke="#191970" d="M950.0403,-679.6666C966.1339,-674.6597 984.2114,-669.0356 1000.9467,-663.8291"/>
<polygon fill="#191970" stroke="#191970" points="1002.1111,-667.1323 1010.6199,-660.8196 1000.0316,-660.4483 1002.1111,-667.1323"/>
</g>
<!-- Node4791 -->
<g id="node11" class="node">
<title>Node4791</title>
<g id="a_node11"><a xlink:href="trunk_8c.html#a3ebef07daa894102a5268a1ce21965b6" target="_top" xlink:title="Automatically mark a connection as active or reconnect it. ">
<polygon fill="none" stroke="#ff0000" points="1001.5,-679.768 1001.5,-709.768 1116.5,-709.768 1116.5,-679.768 1001.5,-679.768"/>
<text text-anchor="start" x="1009.5" y="-697.768" font-family="Helvetica,sans-Serif" font-size="10.00" fill="#000000">trunk_connection_auto</text>
<text text-anchor="middle" x="1059" y="-686.768" font-family="Helvetica,sans-Serif" font-size="10.00" fill="#000000">_unfull</text>
</a>
</g>
</g>
<!-- Node4790&#45;&gt;Node4791 -->
<g id="edge12" class="edge">
<title>Node4790&#45;&gt;Node4791</title>
<path fill="none" stroke="#191970" d="M958.3611,-694.768C969.0875,-694.768 980.4025,-694.768 991.4197,-694.768"/>
<polygon fill="#191970" stroke="#191970" points="991.4285,-698.2681 1001.4285,-694.768 991.4285,-691.2681 991.4285,-698.2681"/>
</g>
<!-- Node4937&#45;&gt;Node4758 -->
<g id="edge15" class="edge">
<title>Node4937&#45;&gt;Node4758</title>
<path fill="none" stroke="#191970" d="M956.1438,-601.768C971.0146,-601.768 987.1546,-601.768 1002.1449,-601.768"/>
<polygon fill="#191970" stroke="#191970" points="1002.3093,-605.2681 1012.3093,-601.768 1002.3092,-598.2681 1002.3093,-605.2681"/>
</g>
<!-- Node4978 -->
<g id="node14" class="node">
<title>Node4978</title>
<g id="a_node14"><a xlink:href="trunk_8c.html#a9c2e24f88f4b711bc17d9723f53892a1" target="_top" xlink:title="Signal a trunk connection cannot accept more requests. ">
<polygon fill="none" stroke="#000000" points="234,-291.768 234,-321.768 336,-321.768 336,-291.768 234,-291.768"/>
<text text-anchor="start" x="242" y="-309.768" font-family="Helvetica,sans-Serif" font-size="10.00" fill="#000000">fr_trunk_connection</text>
<text text-anchor="middle" x="285" y="-298.768" font-family="Helvetica,sans-Serif" font-size="10.00" fill="#000000">_signal_inactive</text>
</a>
</g>
</g>
<!-- Node4977&#45;&gt;Node4978 -->
<g id="edge17" class="edge">
<title>Node4977&#45;&gt;Node4978</title>
<path fill="none" stroke="#191970" d="M198.3568,-292.6484C206.6224,-293.9954 215.3055,-295.4104 223.8516,-296.8031"/>
<polygon fill="#191970" stroke="#191970" points="223.3551,-300.2683 233.7878,-298.4223 224.481,-293.3594 223.3551,-300.2683"/>
</g>
<!-- Node4980 -->
<g id="node23" class="node">
<title>Node4980</title>
<g id="a_node23"><a xlink:href="trunk_8c.html#a67069d7159583ef74d1cd099f2d07f30" target="_top" xlink:title="Move requests off of a connection and requeue elsewhere. ">
<polygon fill="none" stroke="#000000" points="234,-362.768 234,-392.768 336,-392.768 336,-362.768 234,-362.768"/>
<text text-anchor="start" x="242" y="-380.768" font-family="Helvetica,sans-Serif" font-size="10.00" fill="#000000">fr_trunk_connection</text>
<text text-anchor="middle" x="285" y="-369.768" font-family="Helvetica,sans-Serif" font-size="10.00" fill="#000000">_requests_requeue</text>
</a>
</g>
</g>
<!-- Node4977&#45;&gt;Node4980 -->
<g id="edge35" class="edge">
<title>Node4977&#45;&gt;Node4980</title>
<path fill="none" stroke="#191970" d="M163.9389,-294.3704C185.185,-309.0066 226.1897,-337.2543 254.5507,-356.7918"/>
<polygon fill="#191970" stroke="#191970" points="252.6899,-359.76 262.9105,-362.5508 256.661,-353.9955 252.6899,-359.76"/>
</g>
<!-- Node4981 -->
<g id="node24" class="node">
<title>Node4981</title>
<g id="a_node24"><a xlink:href="rlm__radius__udp_8c.html#a89ba9688fda03fcb027b5a9f84ec2fe2" target="_top" xlink:title="Revive a connection after &quot;revive_interval&quot;. ">
<polygon fill="none" stroke="#000000" points="250,-215.268 250,-234.268 320,-234.268 320,-215.268 250,-215.268"/>
<text text-anchor="middle" x="285" y="-222.268" font-family="Helvetica,sans-Serif" font-size="10.00" fill="#000000">revive_timer</text>
</a>
</g>
</g>
<!-- Node4977&#45;&gt;Node4981 -->
<g id="edge37" class="edge">
<title>Node4977&#45;&gt;Node4981</title>
<path fill="none" stroke="#191970" d="M171.3912,-275.2608C193.6742,-265.3573 228.7988,-249.7463 254.0953,-238.5035"/>
<polygon fill="#191970" stroke="#191970" points="255.5453,-241.6892 263.2619,-234.4294 252.7023,-235.2925 255.5453,-241.6892"/>
</g>
<!-- Node4982 -->
<g id="node25" class="node">
<title>Node4982</title>
<g id="a_node25"><a xlink:href="trunk_8c.html#ae261bef1f663eb4a697804302be97a93" target="_top" xlink:title="Signal a trunk connection is no longer viable. ">
<polygon fill="none" stroke="#000000" points="380,-177.768 380,-207.768 482,-207.768 482,-177.768 380,-177.768"/>
<text text-anchor="start" x="388" y="-195.768" font-family="Helvetica,sans-Serif" font-size="10.00" fill="#000000">fr_trunk_connection</text>
<text text-anchor="middle" x="431" y="-184.768" font-family="Helvetica,sans-Serif" font-size="10.00" fill="#000000">_signal_reconnect</text>
</a>
</g>
</g>
<!-- Node4977&#45;&gt;Node4982 -->
<g id="edge40" class="edge">
<title>Node4977&#45;&gt;Node4982</title>
<path fill="none" stroke="#191970" d="M156.7146,-275.0253C169.4352,-257.4894 198.9365,-221.0208 234,-205.768 276.6479,-187.216 329.4304,-184.6782 369.6229,-186.3904"/>
<polygon fill="#191970" stroke="#191970" points="369.6478,-189.8965 379.8178,-186.9264 370.0154,-182.9061 369.6478,-189.8965"/>
</g>
<!-- Node4983 -->
<g id="node27" class="node">
<title>Node4983</title>
<g id="a_node27"><a xlink:href="trunk_8c.html#a2bad9ebfe3f085c0fb3faeee9e8a46b3" target="_top" xlink:title="Enqueue additional requests on a specific connection. ">
<polygon fill="none" stroke="#000000" points="528.5,-232.768 528.5,-262.768 657.5,-262.768 657.5,-232.768 528.5,-232.768"/>
<text text-anchor="start" x="536.5" y="-250.768" font-family="Helvetica,sans-Serif" font-size="10.00" fill="#000000">fr_trunk_request_enqueue</text>
<text text-anchor="middle" x="593" y="-239.768" font-family="Helvetica,sans-Serif" font-size="10.00" fill="#000000">_on_conn</text>
</a>
</g>
</g>
<!-- Node4977&#45;&gt;Node4983 -->
<g id="edge41" class="edge">
<title>Node4977&#45;&gt;Node4983</title>
<path fill="none" stroke="#191970" d="M198.2521,-280.7379C275.4165,-274.2931 427.1607,-261.6192 518.3851,-254"/>
<polygon fill="#191970" stroke="#191970" points="518.7082,-257.4853 528.3822,-253.165 518.1255,-250.5096 518.7082,-257.4853"/>
</g>
<!-- Node4979 -->
<g id="node15" class="node">
<title>Node4979</title>
<g id="a_node15"><a xlink:href="trunk_8c.html#a90f2eebe4614ce352e760bb44fb5e63c" target="_top" xlink:title="Transition a connection to the inactive state. ">
<polygon fill="none" stroke="#000000" points="372,-291.768 372,-321.768 490,-321.768 490,-291.768 372,-291.768"/>
<text text-anchor="start" x="380" y="-309.768" font-family="Helvetica,sans-Serif" font-size="10.00" fill="#000000">trunk_connection_enter</text>
<text text-anchor="middle" x="431" y="-298.768" font-family="Helvetica,sans-Serif" font-size="10.00" fill="#000000">_inactive</text>
</a>
</g>
</g>
<!-- Node4978&#45;&gt;Node4979 -->
<g id="edge18" class="edge">
<title>Node4978&#45;&gt;Node4979</title>
<path fill="none" stroke="#191970" d="M336.0637,-306.768C344.3973,-306.768 353.1513,-306.768 361.8329,-306.768"/>
<polygon fill="#191970" stroke="#191970" points="361.9615,-310.2681 371.9615,-306.768 361.9614,-303.2681 361.9615,-310.2681"/>
</g>
<!-- Node4931 -->
<g id="node19" class="node">
<title>Node4931</title>
<g id="a_node19"><a xlink:href="trunk_8c.html#af52d32b27b789380f99dc5fc1ec73211" target="_top" xlink:title="Transition a connection to the inactive&#45;draining state. ">
<polygon fill="none" stroke="#000000" points="372,-340.768 372,-370.768 490,-370.768 490,-340.768 372,-340.768"/>
<text text-anchor="start" x="380" y="-358.768" font-family="Helvetica,sans-Serif" font-size="10.00" fill="#000000">trunk_connection_enter</text>
<text text-anchor="middle" x="431" y="-347.768" font-family="Helvetica,sans-Serif" font-size="10.00" fill="#000000">_inactive_draining</text>
</a>
</g>
</g>
<!-- Node4978&#45;&gt;Node4931 -->
<g id="edge22" class="edge">
<title>Node4978&#45;&gt;Node4931</title>
<path fill="none" stroke="#191970" d="M329.9961,-321.8695C344.6357,-326.7827 361.0463,-332.2904 376.3143,-337.4146"/>
<polygon fill="#191970" stroke="#191970" points="375.5585,-340.8527 386.1524,-340.7164 377.7858,-334.2165 375.5585,-340.8527"/>
</g>
<!-- Node4794 -->
<g id="node16" class="node">
<title>Node4794</title>
<g id="a_node16"><a xlink:href="trunk_8c.html#af55aeabd0743377eb3f519244d2f10d6" target="_top" xlink:title="Remove a trunk connection from whichever list it&#39;s currently in. ">
<polygon fill="none" stroke="#ff0000" points="529,-297.268 529,-316.268 657,-316.268 657,-297.268 529,-297.268"/>
<text text-anchor="middle" x="593" y="-304.268" font-family="Helvetica,sans-Serif" font-size="10.00" fill="#000000">trunk_connection_remove</text>
</a>
</g>
</g>
<!-- Node4979&#45;&gt;Node4794 -->
<g id="edge19" class="edge">
<title>Node4979&#45;&gt;Node4794</title>
<path fill="none" stroke="#191970" d="M490.4029,-306.768C499.6208,-306.768 509.2413,-306.768 518.7373,-306.768"/>
<polygon fill="#191970" stroke="#191970" points="518.9679,-310.2681 528.9679,-306.768 518.9678,-303.2681 518.9679,-310.2681"/>
</g>
<!-- Node4932 -->
<g id="node18" class="node">
<title>Node4932</title>
<g id="a_node18"><a xlink:href="dlist_8h.html#aca8eed7f7758b61446174a5a4d54e7b4" target="_top" xlink:title="Insert an item into the head of a list. ">
<polygon fill="none" stroke="#000000" points="542.5,-341.268 542.5,-360.268 643.5,-360.268 643.5,-341.268 542.5,-341.268"/>
<text text-anchor="middle" x="593" y="-348.268" font-family="Helvetica,sans-Serif" font-size="10.00" fill="#000000">fr_dlist_insert_head</text>
</a>
</g>
</g>
<!-- Node4979&#45;&gt;Node4932 -->
<g id="edge21" class="edge">
<title>Node4979&#45;&gt;Node4932</title>
<path fill="none" stroke="#191970" d="M486.2981,-321.7873C506.4362,-327.2569 528.9389,-333.3687 548.0687,-338.5645"/>
<polygon fill="#191970" stroke="#191970" points="547.1667,-341.9462 557.7345,-341.1897 549.0015,-335.1909 547.1667,-341.9462"/>
</g>
<!-- Node4767 -->
<g id="node17" class="node">
<title>Node4767</title>
<g id="a_node17"><a xlink:href="dlist_8h.html#abc40bcac47679893e9ad3dbacf1b78ce" target="_top" xlink:title="Remove an item from the list. ">
<polygon fill="none" stroke="#ff0000" points="1017.5,-181.268 1017.5,-200.268 1100.5,-200.268 1100.5,-181.268 1017.5,-181.268"/>
<text text-anchor="middle" x="1059" y="-188.268" font-family="Helvetica,sans-Serif" font-size="10.00" fill="#000000">fr_dlist_remove</text>
</a>
</g>
</g>
<!-- Node4794&#45;&gt;Node4767 -->
<g id="edge20" class="edge">
<title>Node4794&#45;&gt;Node4767</title>
<path fill="none" stroke="#191970" d="M618.5796,-297.215C639.2756,-289.6954 669.2697,-279.2682 696,-271.768 805.6228,-241.0091 936.4478,-214.1945 1007.2603,-200.4833"/>
<polygon fill="#191970" stroke="#191970" points="1008.1056,-203.885 1017.263,-198.5566 1006.7814,-197.0113 1008.1056,-203.885"/>
</g>
<!-- Node4931&#45;&gt;Node4794 -->
<g id="edge23" class="edge">
<title>Node4931&#45;&gt;Node4794</title>
<path fill="none" stroke="#191970" d="M480.9272,-340.6666C503.5598,-333.8209 530.0072,-325.8214 551.5249,-319.313"/>
<polygon fill="#191970" stroke="#191970" points="552.7841,-322.5888 561.3426,-316.3434 550.7575,-315.8885 552.7841,-322.5888"/>
</g>
<!-- Node4931&#45;&gt;Node4932 -->
<g id="edge24" class="edge">
<title>Node4931&#45;&gt;Node4932</title>
<path fill="none" stroke="#191970" d="M490.4029,-353.9346C504.0033,-353.5148 518.48,-353.068 532.1406,-352.6464"/>
<polygon fill="#191970" stroke="#191970" points="532.5127,-356.1367 542.3999,-352.3298 532.2966,-349.14 532.5127,-356.1367"/>
</g>
<!-- Node4933 -->
<g id="node20" class="node">
<title>Node4933</title>
<g id="a_node20"><a xlink:href="trunk_8c.html#ac2fe6b5bbb2452eda599a3fc16472d4d" target="_top" xlink:title="Remove requests in specified states from a connection, attempting to distribute them to new connectio...">
<polygon fill="none" stroke="#ff0000" points="526,-384.768 526,-414.768 660,-414.768 660,-384.768 526,-384.768"/>
<text text-anchor="start" x="534" y="-402.768" font-family="Helvetica,sans-Serif" font-size="10.00" fill="#000000">trunk_connection_requests</text>
<text text-anchor="middle" x="593" y="-391.768" font-family="Helvetica,sans-Serif" font-size="10.00" fill="#000000">_requeue</text>
</a>
</g>
</g>
<!-- Node4931&#45;&gt;Node4933 -->
<g id="edge25" class="edge">
<title>Node4931&#45;&gt;Node4933</title>
<path fill="none" stroke="#191970" d="M486.2981,-370.7873C499.6483,-374.4132 514.0377,-378.3215 527.7947,-382.0579"/>
<polygon fill="#191970" stroke="#191970" points="527.1085,-385.4983 537.6762,-384.7418 528.9433,-378.743 527.1085,-385.4983"/>
</g>
<!-- Node4933&#45;&gt;Node4756 -->
<g id="edge26" class="edge">
<title>Node4933&#45;&gt;Node4756</title>
<path fill="none" stroke="#191970" d="M660.2596,-390.1521C672.1544,-388.5868 684.4318,-387.0581 696,-385.768 885.3988,-364.6463 933.9476,-345.6928 1124,-359.768 1133.1836,-360.4482 1142.8308,-361.4972 1152.303,-362.7219"/>
<polygon fill="#191970" stroke="#191970" points="1152.101,-366.2267 1162.4823,-364.1107 1153.0473,-359.2909 1152.101,-366.2267"/>
</g>
<!-- Node4933&#45;&gt;Node4763 -->
<g id="edge34" class="edge">
<title>Node4933&#45;&gt;Node4763</title>
<path fill="none" stroke="#191970" d="M660.305,-401.7412C703.2556,-404.0435 759.8855,-409.0206 809,-419.768 946.5918,-449.8762 1101.5321,-512.8929 1174.9673,-544.6328"/>
<polygon fill="#191970" stroke="#191970" points="1173.7903,-547.9374 1184.3567,-548.713 1176.5802,-541.5174 1173.7903,-547.9374"/>
</g>
<!-- Node4933&#45;&gt;Node4937 -->
<g id="edge33" class="edge">
<title>Node4933&#45;&gt;Node4937</title>
<path fill="none" stroke="#191970" d="M615.4357,-414.9462C636.2552,-428.9957 668.1369,-450.4203 696,-468.768 761.4405,-511.8602 839.2134,-561.8695 877.6101,-586.4799"/>
<polygon fill="#191970" stroke="#191970" points="876.1837,-589.7228 886.4921,-592.1699 879.9597,-583.8285 876.1837,-589.7228"/>
</g>
<!-- Node4933&#45;&gt;Node4767 -->
<g id="edge27" class="edge">
<title>Node4933&#45;&gt;Node4767</title>
<path fill="none" stroke="#191970" d="M628.8713,-384.7182C639.0588,-380.1726 650.0768,-374.9944 660,-369.768 676.5907,-361.0299 679.3356,-356.3646 696,-347.768 808.545,-289.7099 841.9365,-286.4277 958,-235.768 981.7375,-225.407 1008.5085,-213.4677 1028.522,-204.4917"/>
<polygon fill="#191970" stroke="#191970" points="1030.0722,-207.6323 1037.7611,-200.3432 1027.2048,-201.2465 1030.0722,-207.6323"/>
</g>
<!-- Node4936 -->
<g id="node21" class="node">
<title>Node4936</title>
<g id="a_node21"><a xlink:href="trunk_8c.html#ae8f376618040ed573738a25f97a48fed" target="_top" xlink:title="Request failed, inform the API client and free the request. ">
<polygon fill="none" stroke="#000000" points="701,-592.768 701,-622.768 804,-622.768 804,-592.768 701,-592.768"/>
<text text-anchor="start" x="709" y="-610.768" font-family="Helvetica,sans-Serif" font-size="10.00" fill="#000000">trunk_request_enter</text>
<text text-anchor="middle" x="752.5" y="-599.768" font-family="Helvetica,sans-Serif" font-size="10.00" fill="#000000">_failed</text>
</a>
</g>
</g>
<!-- Node4933&#45;&gt;Node4936 -->
<g id="edge28" class="edge">
<title>Node4933&#45;&gt;Node4936</title>
<path fill="none" stroke="#191970" d="M603.8376,-415.1107C622.3002,-441.1073 661.2348,-495.3226 696,-539.768 707.8687,-554.9416 721.6802,-571.5815 732.6766,-584.6028"/>
<polygon fill="#191970" stroke="#191970" points="730.3099,-587.2233 739.4477,-592.5853 735.6481,-582.6952 730.3099,-587.2233"/>
</g>
<!-- Node4943 -->
<g id="node22" class="node">
<title>Node4943</title>
<g id="a_node22"><a xlink:href="trunk_8c.html#adb084310620200de5d2f1cf1ef8f0ee7" target="_top" xlink:title="Transition a request to the pending state, adding it to the backlog of an active connection. ">
<polygon fill="none" stroke="#ff0000" points="701,-428.768 701,-458.768 804,-458.768 804,-428.768 701,-428.768"/>
<text text-anchor="start" x="709" y="-446.768" font-family="Helvetica,sans-Serif" font-size="10.00" fill="#000000">trunk_request_enter</text>
<text text-anchor="middle" x="752.5" y="-435.768" font-family="Helvetica,sans-Serif" font-size="10.00" fill="#000000">_pending</text>
</a>
</g>
</g>
<!-- Node4933&#45;&gt;Node4943 -->
<g id="edge31" class="edge">
<title>Node4933&#45;&gt;Node4943</title>
<path fill="none" stroke="#191970" d="M647.4447,-414.7873C661.5231,-418.671 676.7752,-422.8784 691.1789,-426.8519"/>
<polygon fill="#191970" stroke="#191970" points="690.4195,-430.273 700.9902,-429.5584 692.2811,-423.5251 690.4195,-430.273"/>
</g>
<!-- Node4936&#45;&gt;Node4790 -->
<g id="edge29" class="edge">
<title>Node4936&#45;&gt;Node4790</title>
<path fill="none" stroke="#191970" d="M772.3446,-622.9728C790.5988,-636.5425 818.738,-656.4279 845,-670.768 847.8996,-672.3514 850.9255,-673.9031 854.0046,-675.4078"/>
<polygon fill="#191970" stroke="#191970" points="852.7866,-678.7019 863.328,-679.7649 855.7503,-672.3603 852.7866,-678.7019"/>
</g>
<!-- Node4936&#45;&gt;Node4937 -->
<g id="edge30" class="edge">
<title>Node4936&#45;&gt;Node4937</title>
<path fill="none" stroke="#191970" d="M804.1948,-605.6864C814.6409,-605.2657 825.7491,-604.8184 836.5823,-604.3822"/>
<polygon fill="#191970" stroke="#191970" points="837.003,-607.8681 846.8541,-603.9685 836.7213,-600.8738 837.003,-607.8681"/>
</g>
<!-- Node4943&#45;&gt;Node4759 -->
<g id="edge32" class="edge">
<title>Node4943&#45;&gt;Node4759</title>
<path fill="none" stroke="#191970" d="M778.438,-458.7906C818.7106,-482.6568 897.895,-531.775 958,-582.768 975.7401,-597.8187 974.666,-607.8285 994,-620.768 996.9013,-622.7098 999.9751,-624.5316 1003.1456,-626.2357"/>
<polygon fill="#191970" stroke="#191970" points="1001.7557,-629.4526 1012.2734,-630.729 1004.8472,-623.1723 1001.7557,-629.4526"/>
</g>
<!-- Node4980&#45;&gt;Node4933 -->
<g id="edge36" class="edge">
<title>Node4980&#45;&gt;Node4933</title>
<path fill="none" stroke="#191970" d="M336.2057,-381.4256C385.0795,-384.9166 459.3743,-390.2233 515.4985,-394.2322"/>
<polygon fill="#191970" stroke="#191970" points="515.5324,-397.7435 525.7564,-394.9649 516.0312,-390.7612 515.5324,-397.7435"/>
</g>
<!-- Node4981&#45;&gt;Node4982 -->
<g id="edge38" class="edge">
<title>Node4981&#45;&gt;Node4982</title>
<path fill="none" stroke="#191970" d="M320.3425,-217.0217C335.2985,-213.7437 353.1585,-209.8292 370.1204,-206.1115"/>
<polygon fill="#191970" stroke="#191970" points="370.956,-209.5115 379.9747,-203.9516 369.4572,-202.6738 370.956,-209.5115"/>
</g>
<!-- Node4784 -->
<g id="node26" class="node">
<title>Node4784</title>
<g id="a_node26"><a xlink:href="server_2connection_8c.html#afbcf2ecc866b1f1092fa70d6400fd4f3" target="_top" xlink:title="Asynchronously signal the connection should be reconnected. ">
<polygon fill="none" stroke="#ff0000" points="540,-177.768 540,-207.768 646,-207.768 646,-177.768 540,-177.768"/>
<text text-anchor="start" x="548" y="-195.768" font-family="Helvetica,sans-Serif" font-size="10.00" fill="#000000">fr_connection_signal</text>
<text text-anchor="middle" x="593" y="-184.768" font-family="Helvetica,sans-Serif" font-size="10.00" fill="#000000">_reconnect</text>
</a>
</g>
</g>
<!-- Node4982&#45;&gt;Node4784 -->
<g id="edge39" class="edge">
<title>Node4982&#45;&gt;Node4784</title>
<path fill="none" stroke="#191970" d="M482.2578,-192.768C497.3139,-192.768 513.962,-192.768 529.6769,-192.768"/>
<polygon fill="#191970" stroke="#191970" points="529.843,-196.2681 539.843,-192.768 529.8429,-189.2681 529.843,-196.2681"/>
</g>
<!-- Node4983&#45;&gt;Node4756 -->
<g id="edge48" class="edge">
<title>Node4983&#45;&gt;Node4756</title>
<path fill="none" stroke="#191970" d="M657.7814,-259.2899C758.0125,-277.3519 956.5962,-314.0743 1124,-350.768 1133.257,-352.7971 1142.9982,-355.0486 1152.5608,-357.326"/>
<polygon fill="#191970" stroke="#191970" points="1151.8925,-360.765 1162.4337,-359.7005 1153.5294,-353.9591 1151.8925,-360.765"/>
</g>
<!-- Node4983&#45;&gt;Node4760 -->
<g id="edge42" class="edge">
<title>Node4983&#45;&gt;Node4760</title>
<path fill="none" stroke="#191970" d="M641.3625,-232.6224C648.3713,-228.7012 654.9204,-223.8207 660,-217.768 702.1316,-167.566 647.6875,-119.0536 696,-74.768 826.1512,44.5349 1060.3106,-7.8154 1164.9587,-39.7149"/>
<polygon fill="#191970" stroke="#191970" points="1164.0856,-43.1086 1174.6738,-42.7317 1166.1616,-36.4235 1164.0856,-43.1086"/>
</g>
<!-- Node4983&#45;&gt;Node4763 -->
<g id="edge52" class="edge">
<title>Node4983&#45;&gt;Node4763</title>
<path fill="none" stroke="#191970" d="M628.8677,-262.7784C747.704,-312.5172 1121.2035,-468.9004 1124,-470.768 1153.4937,-490.4654 1181.6236,-520.2587 1199.2944,-540.7888"/>
<polygon fill="#191970" stroke="#191970" points="1196.6269,-543.0548 1205.7573,-548.4295 1201.9714,-538.5341 1196.6269,-543.0548"/>
</g>
<!-- Node4983&#45;&gt;Node4943 -->
<g id="edge49" class="edge">
<title>Node4983&#45;&gt;Node4943</title>
<path fill="none" stroke="#191970" d="M625.2908,-262.7748C637.1297,-269.3182 650.0525,-277.7906 660,-287.768 680.6478,-308.4779 720.0339,-381.2699 740.0931,-419.6566"/>
<polygon fill="#191970" stroke="#191970" points="737.0357,-421.3634 744.7534,-428.622 743.2467,-418.1349 737.0357,-421.3634"/>
</g>
<!-- Node4984 -->
<g id="node28" class="node">
<title>Node4984</title>
<g id="a_node28"><a xlink:href="trunk_8c.html#a3414dcced7e253ba9d6c4e257b2fd10a" target="_top" xlink:title="(Pre&#45;)Allocate a new trunk request ">
<polygon fill="none" stroke="#000000" points="696,-143.268 696,-162.268 809,-162.268 809,-143.268 696,-143.268"/>
<text text-anchor="middle" x="752.5" y="-150.268" font-family="Helvetica,sans-Serif" font-size="10.00" fill="#000000">fr_trunk_request_alloc</text>
</a>
</g>
</g>
<!-- Node4983&#45;&gt;Node4984 -->
<g id="edge43" class="edge">
<title>Node4983&#45;&gt;Node4984</title>
<path fill="none" stroke="#191970" d="M630.1387,-232.658C640.0311,-228.2257 650.5815,-223.1203 660,-217.768 686.1034,-202.9341 714.0383,-182.6197 732.2958,-168.6707"/>
<polygon fill="#191970" stroke="#191970" points="734.6568,-171.2696 740.4308,-162.3863 730.3774,-165.73 734.6568,-171.2696"/>
</g>
<!-- Node4948 -->
<g id="node31" class="node">
<title>Node4948</title>
<g id="a_node31"><a xlink:href="trunk_8c.html#a6de2af5b1936dcf0f59ddf66d21fb38c" target="_top" xlink:title="A connection is writable. ">
<polygon fill="none" stroke="#000000" points="994,-48.268 994,-67.268 1124,-67.268 1124,-48.268 994,-48.268"/>
<text text-anchor="middle" x="1059" y="-55.268" font-family="Helvetica,sans-Serif" font-size="10.00" fill="#000000">trunk_connection_writable</text>
</a>
</g>
</g>
<!-- Node4983&#45;&gt;Node4948 -->
<g id="edge50" class="edge">
<title>Node4983&#45;&gt;Node4948</title>
<path fill="none" stroke="#191970" d="M639.1868,-232.6297C646.7892,-228.6617 654.1002,-223.7636 660,-217.768 688.4888,-188.8169 664.7239,-159.683 696,-133.768 777.4219,-66.3028 903.7645,-54.1201 983.8861,-54.0556"/>
<polygon fill="#191970" stroke="#191970" points="983.8866,-57.5556 993.9057,-54.1105 983.925,-50.5557 983.8866,-57.5556"/>
</g>
<!-- Node4984&#45;&gt;Node4767 -->
<g id="edge45" class="edge">
<title>Node4984&#45;&gt;Node4767</title>
<path fill="none" stroke="#191970" d="M769.9314,-143.1893C788.0614,-133.8155 817.5774,-120.1813 845,-114.768 894.2714,-105.0418 910.3676,-98.8487 958,-114.768 992.7835,-126.3931 1025.1966,-155.2301 1043.5099,-173.8516"/>
<polygon fill="#191970" stroke="#191970" points="1041.0221,-176.3144 1050.461,-181.1269 1046.0834,-171.4787 1041.0221,-176.3144"/>
</g>
<!-- Node4766 -->
<g id="node29" class="node">
<title>Node4766</title>
<g id="a_node29"><a xlink:href="dlist_8h.html#a90c9ea299e869c463ab8109410112a97" target="_top" xlink:title="Return the HEAD item of a list or NULL if the list is empty. ">
<polygon fill="none" stroke="#000000" points="865.5,-124.268 865.5,-143.268 937.5,-143.268 937.5,-124.268 865.5,-124.268"/>
<text text-anchor="middle" x="901.5" y="-131.268" font-family="Helvetica,sans-Serif" font-size="10.00" fill="#000000">fr_dlist_head</text>
</a>
</g>
</g>
<!-- Node4984&#45;&gt;Node4766 -->
<g id="edge44" class="edge">
<title>Node4984&#45;&gt;Node4766</title>
<path fill="none" stroke="#191970" d="M809.2556,-145.5307C824.3442,-143.6067 840.4639,-141.5512 854.9383,-139.7054"/>
<polygon fill="#191970" stroke="#191970" points="855.6719,-143.1403 865.1488,-138.4034 854.7863,-136.1965 855.6719,-143.1403"/>
</g>
<!-- Node4985 -->
<g id="node30" class="node">
<title>Node4985</title>
<g id="a_node30"><a xlink:href="trunk_8c.html#a45442ee137c45c5b4619c65cd4fa4395" target="_top" xlink:title="Actually free the trunk request. ">
<polygon fill="none" stroke="#000000" points="850,-162.268 850,-181.268 953,-181.268 953,-162.268 850,-162.268"/>
<text text-anchor="middle" x="901.5" y="-169.268" font-family="Helvetica,sans-Serif" font-size="10.00" fill="#000000">_trunk_request_free</text>
</a>
</g>
</g>
<!-- Node4984&#45;&gt;Node4985 -->
<g id="edge46" class="edge">
<title>Node4984&#45;&gt;Node4985</title>
<path fill="none" stroke="#191970" d="M809.2556,-160.0053C819.2478,-161.2795 829.6923,-162.6113 839.8116,-163.9017"/>
<polygon fill="#191970" stroke="#191970" points="839.4313,-167.3815 849.7938,-165.1746 840.3168,-160.4377 839.4313,-167.3815"/>
</g>
<!-- Node4985&#45;&gt;Node4767 -->
<g id="edge47" class="edge">
<title>Node4985&#45;&gt;Node4767</title>
<path fill="none" stroke="#191970" d="M953.0714,-177.9893C970.4703,-180.0883 989.8867,-182.4306 1007.2959,-184.5307"/>
<polygon fill="#191970" stroke="#191970" points="1006.9366,-188.0126 1017.2838,-185.7356 1007.775,-181.063 1006.9366,-188.0126"/>
</g>
<!-- Node4948&#45;&gt;Node4760 -->
<g id="edge51" class="edge">
<title>Node4948&#45;&gt;Node4760</title>
<path fill="none" stroke="#191970" d="M1124.1302,-57.768C1132.5442,-57.768 1141.1804,-57.768 1149.6446,-57.768"/>
<polygon fill="#191970" stroke="#191970" points="1149.8573,-61.2681 1159.8573,-57.768 1149.8573,-54.2681 1149.8573,-61.2681"/>
</g>
<!-- Node4986&#45;&gt;Node4756 -->
<g id="edge55" class="edge">
<title>Node4986&#45;&gt;Node4756</title>
<path fill="none" stroke="#191970" d="M624.4222,-554.2157C723.2151,-524.1826 1028.6577,-431.3281 1158.5562,-391.839"/>
<polygon fill="#191970" stroke="#191970" points="1159.7947,-395.1207 1168.3443,-388.8633 1157.7587,-388.4233 1159.7947,-395.1207"/>
</g>
<!-- Node4986&#45;&gt;Node4757 -->
<g id="edge56" class="edge">
<title>Node4986&#45;&gt;Node4757</title>
<path fill="none" stroke="#191970" d="M603.1064,-573.2887C620.4917,-588.9876 657.8799,-619.851 696,-632.768 742.4485,-648.5071 798.1299,-651.1107 839.8093,-650.1371"/>
<polygon fill="#191970" stroke="#191970" points="839.933,-653.6351 849.8204,-649.8287 839.7174,-646.6384 839.933,-653.6351"/>
</g>
<!-- Node4986&#45;&gt;Node4763 -->
<g id="edge58" class="edge">
<title>Node4986&#45;&gt;Node4763</title>
<path fill="none" stroke="#191970" d="M656.658,-563.768C775.7687,-563.768 1031.1763,-563.768 1152.028,-563.768"/>
<polygon fill="#191970" stroke="#191970" points="1152.2454,-567.2681 1162.2454,-563.768 1152.2453,-560.2681 1152.2454,-567.2681"/>
</g>
<!-- Node4986&#45;&gt;Node4936 -->
<g id="edge54" class="edge">
<title>Node4986&#45;&gt;Node4936</title>
<path fill="none" stroke="#191970" d="M627.6091,-573.3154C646.2011,-578.4442 669.6737,-584.9194 691.2377,-590.8681"/>
<polygon fill="#191970" stroke="#191970" points="690.4161,-594.2721 700.9868,-593.5575 692.2776,-587.5241 690.4161,-594.2721"/>
</g>
<!-- Node4986&#45;&gt;Node4943 -->
<g id="edge57" class="edge">
<title>Node4986&#45;&gt;Node4943</title>
<path fill="none" stroke="#191970" d="M602.599,-554.0095C620.1036,-536.5399 658.8419,-499.3604 696,-473.768 700.9806,-470.3377 706.3986,-467.0093 711.8428,-463.8948"/>
<polygon fill="#191970" stroke="#191970" points="713.8861,-466.7652 720.9567,-458.8748 710.5089,-460.6337 713.8861,-466.7652"/>
</g>
</g>
</svg>
