<?xml version="1.0" encoding="UTF-8" standalone="no"?>
<!DOCTYPE svg PUBLIC "-//W3C//DTD SVG 1.1//EN"
 "http://www.w3.org/Graphics/SVG/1.1/DTD/svg11.dtd">
<!-- Generated by graphviz version 2.40.1 (20161225.0304)
 -->
<!-- Title: mruby_log Pages: 1 -->
<svg width="713pt" height="426pt"
 viewBox="0.00 0.00 713.00 426.00" xmlns="http://www.w3.org/2000/svg" xmlns:xlink="http://www.w3.org/1999/xlink">
<g id="graph0" class="graph" transform="scale(1 1) rotate(0) translate(4 422)">
<title>mruby_log</title>
<!-- Node1426 -->
<g id="node1" class="node">
<title>Node1426</title>
<polygon fill="#bfbfbf" stroke="#000000" points="0,-284.5 0,-303.5 62,-303.5 62,-284.5 0,-284.5"/>
<text text-anchor="middle" x="31" y="-291.5" font-family="Helvetica,sans-Serif" font-size="10.00" fill="#000000">mruby_log</text>
</g>
<!-- Node1427 -->
<g id="node2" class="node">
<title>Node1427</title>
<g id="a_node2"><a xlink:href="lib_2util_2log_8c.html#a62c7f0f8ad8a391b16dc27c44b69af7e" target="_top" xlink:title="Send a server log message to its destination. ">
<polygon fill="none" stroke="#000000" points="98,-284.5 98,-303.5 139,-303.5 139,-284.5 98,-284.5"/>
<text text-anchor="middle" x="118.5" y="-291.5" font-family="Helvetica,sans-Serif" font-size="10.00" fill="#000000">fr_log</text>
</a>
</g>
</g>
<!-- Node1426&#45;&gt;Node1427 -->
<g id="edge1" class="edge">
<title>Node1426&#45;&gt;Node1427</title>
<path fill="none" stroke="#191970" d="M62.0956,-294C70.4539,-294 79.4863,-294 87.8218,-294"/>
<polygon fill="#191970" stroke="#191970" points="87.904,-297.5001 97.9039,-294 87.9039,-290.5001 87.904,-297.5001"/>
</g>
<!-- Node1428 -->
<g id="node3" class="node">
<title>Node1428</title>
<g id="a_node3"><a xlink:href="acutest_8h.html#aecf9a9be8105efb1454cd8c1ef6cb1c5" target="_top" xlink:title="va_start">
<polygon fill="none" stroke="#000000" points="653,-370.5 653,-389.5 705,-389.5 705,-370.5 653,-370.5"/>
<text text-anchor="middle" x="679" y="-377.5" font-family="Helvetica,sans-Serif" font-size="10.00" fill="#000000">va_start</text>
</a>
</g>
</g>
<!-- Node1427&#45;&gt;Node1428 -->
<g id="edge2" class="edge">
<title>Node1427&#45;&gt;Node1428</title>
<path fill="none" stroke="#191970" d="M125.1063,-303.7301C145.8229,-332.9619 212.809,-418 291,-418 291,-418 291,-418 420.5,-418 508.2406,-418 530.9543,-416.1629 617,-399 625.5702,-397.2906 634.6436,-394.8709 643.127,-392.3288"/>
<polygon fill="#191970" stroke="#191970" points="644.2473,-395.6457 652.7493,-389.3237 642.1605,-388.964 644.2473,-395.6457"/>
</g>
<!-- Node1429 -->
<g id="node4" class="node">
<title>Node1429</title>
<g id="a_node4"><a xlink:href="lib_2util_2log_8c.html#a787775b366183a1316a677709b14c7dc" target="_top" xlink:title="Send a server log message to its destination. ">
<polygon fill="none" stroke="#000000" points="175,-284.5 175,-303.5 221,-303.5 221,-284.5 175,-284.5"/>
<text text-anchor="middle" x="198" y="-291.5" font-family="Helvetica,sans-Serif" font-size="10.00" fill="#000000">fr_vlog</text>
</a>
</g>
</g>
<!-- Node1427&#45;&gt;Node1429 -->
<g id="edge3" class="edge">
<title>Node1427&#45;&gt;Node1429</title>
<path fill="none" stroke="#191970" d="M139.3877,-294C147.1064,-294 156.0605,-294 164.6113,-294"/>
<polygon fill="#191970" stroke="#191970" points="164.7314,-297.5001 174.7314,-294 164.7314,-290.5001 164.7314,-297.5001"/>
</g>
<!-- Node1432 -->
<g id="node7" class="node">
<title>Node1432</title>
<g id="a_node7"><a xlink:href="acutest_8h.html#a36af1f79dd6adf0809c21e76535034d5" target="_top" xlink:title="va_end">
<polygon fill="none" stroke="#000000" points="655,-275.5 655,-294.5 703,-294.5 703,-275.5 655,-275.5"/>
<text text-anchor="middle" x="679" y="-282.5" font-family="Helvetica,sans-Serif" font-size="10.00" fill="#000000">va_end</text>
</a>
</g>
</g>
<!-- Node1427&#45;&gt;Node1432 -->
<g id="edge26" class="edge">
<title>Node1427&#45;&gt;Node1432</title>
<path fill="none" stroke="#191970" d="M119.397,-284.2181C124.6554,-233.2046 156.0724,0 291,0 291,0 291,0 420.5,0 564.1595,0 648.8793,-201.1308 672.303,-265.4634"/>
<polygon fill="#191970" stroke="#191970" points="669.1111,-266.9347 675.7524,-275.1897 675.7085,-264.5949 669.1111,-266.9347"/>
</g>
<!-- Node1430 -->
<g id="node5" class="node">
<title>Node1430</title>
<g id="a_node5"><a xlink:href="lib_2util_2log_8c.html#a22867302627d754d8432843e79582205" target="_top" xlink:title="talloc ctx to use when composing log messages ">
<polygon fill="none" stroke="#000000" points="379.5,-370.5 379.5,-389.5 461.5,-389.5 461.5,-370.5 379.5,-370.5"/>
<text text-anchor="middle" x="420.5" y="-377.5" font-family="Helvetica,sans-Serif" font-size="10.00" fill="#000000">fr_log_pool_init</text>
</a>
</g>
</g>
<!-- Node1429&#45;&gt;Node1430 -->
<g id="edge4" class="edge">
<title>Node1429&#45;&gt;Node1430</title>
<path fill="none" stroke="#191970" d="M221.3235,-287.4485C248.2356,-281.2941 292.8981,-275.5188 325,-294 352.6146,-309.8979 336.9203,-335.132 361,-356 365.5836,-359.9722 370.9093,-363.3405 376.454,-366.182"/>
<polygon fill="#191970" stroke="#191970" points="375.3482,-369.5241 385.8998,-370.4803 378.2476,-363.1527 375.3482,-369.5241"/>
</g>
<!-- Node1438 -->
<g id="node9" class="node">
<title>Node1438</title>
<g id="a_node9"><a xlink:href="missing_8c.html#a193959a40169beb14eeca194a55d361d" target="_top" xlink:title="gmtime_r">
<polygon fill="none" stroke="#000000" points="262.5,-341.5 262.5,-360.5 319.5,-360.5 319.5,-341.5 262.5,-341.5"/>
<text text-anchor="middle" x="291" y="-348.5" font-family="Helvetica,sans-Serif" font-size="10.00" fill="#000000">gmtime_r</text>
</a>
</g>
</g>
<!-- Node1429&#45;&gt;Node1438 -->
<g id="edge9" class="edge">
<title>Node1429&#45;&gt;Node1438</title>
<path fill="none" stroke="#191970" d="M212.3887,-303.6257C224.2379,-311.4654 241.5421,-322.7153 257,-332 259.3639,-333.4199 261.8376,-334.8696 264.3259,-336.3035"/>
<polygon fill="#191970" stroke="#191970" points="262.8064,-339.4652 273.2329,-341.3465 266.2553,-333.3738 262.8064,-339.4652"/>
</g>
<!-- Node1439 -->
<g id="node10" class="node">
<title>Node1439</title>
<g id="a_node10"><a xlink:href="print_8c.html#a27ae94b5a4c77de49aa2f387765a4d58" target="_top" xlink:title="Special version of vasprintf which implements custom format specifiers. ">
<polygon fill="none" stroke="#000000" points="258.5,-199.5 258.5,-218.5 323.5,-218.5 323.5,-199.5 258.5,-199.5"/>
<text text-anchor="middle" x="291" y="-206.5" font-family="Helvetica,sans-Serif" font-size="10.00" fill="#000000">fr_vasprintf</text>
</a>
</g>
</g>
<!-- Node1429&#45;&gt;Node1439 -->
<g id="edge10" class="edge">
<title>Node1429&#45;&gt;Node1439</title>
<path fill="none" stroke="#191970" d="M208.6683,-284.2494C224.3652,-269.9027 253.8845,-242.9228 272.9808,-225.4692"/>
<polygon fill="#191970" stroke="#191970" points="275.436,-227.9669 280.4561,-218.6369 270.7134,-222.7998 275.436,-227.9669"/>
</g>
<!-- Node1566 -->
<g id="node19" class="node">
<title>Node1566</title>
<g id="a_node19"><a xlink:href="print_8c.html#a69fbdf99ae311e5900c854a2247c51b8" target="_top" xlink:title="Checks for utf&#45;8, taken from http://www.w3.org/International/questions/qa&#45;forms&#45;utf&#45;8. ">
<polygon fill="none" stroke="#000000" points="257,-303.5 257,-322.5 325,-322.5 325,-303.5 257,-303.5"/>
<text text-anchor="middle" x="291" y="-310.5" font-family="Helvetica,sans-Serif" font-size="10.00" fill="#000000">fr_utf8_char</text>
</a>
</g>
</g>
<!-- Node1429&#45;&gt;Node1566 -->
<g id="edge25" class="edge">
<title>Node1429&#45;&gt;Node1566</title>
<path fill="none" stroke="#191970" d="M221.4678,-298.7945C229.287,-300.392 238.2687,-302.2269 247.1231,-304.0359"/>
<polygon fill="#191970" stroke="#191970" points="246.4989,-307.4806 256.9972,-306.0532 247.9002,-300.6223 246.4989,-307.4806"/>
</g>
<!-- Node1431 -->
<g id="node6" class="node">
<title>Node1431</title>
<g id="a_node6"><a xlink:href="strerror_8c.html#a2c8e65d6d4b73fb705cc023f60acb099" target="_top" xlink:title="Print the current error to stderr with a prefix. ">
<polygon fill="none" stroke="#ff0000" points="540,-370.5 540,-389.5 593,-389.5 593,-370.5 540,-370.5"/>
<text text-anchor="middle" x="566.5" y="-377.5" font-family="Helvetica,sans-Serif" font-size="10.00" fill="#000000">fr_perror</text>
</a>
</g>
</g>
<!-- Node1430&#45;&gt;Node1431 -->
<g id="edge5" class="edge">
<title>Node1430&#45;&gt;Node1431</title>
<path fill="none" stroke="#191970" d="M461.5577,-380C483.059,-380 509.1655,-380 529.9609,-380"/>
<polygon fill="#191970" stroke="#191970" points="529.9984,-383.5001 539.9983,-380 529.9983,-376.5001 529.9984,-383.5001"/>
</g>
<!-- Node1437 -->
<g id="node8" class="node">
<title>Node1437</title>
<g id="a_node8"><a xlink:href="lib_2util_2log_8c.html#a60361fa4563387fffe1b348c1b3d5351" target="_top" xlink:title="Cleanup the memory pool used by vlog_request. ">
<polygon fill="none" stroke="#000000" points="521,-332.5 521,-351.5 612,-351.5 612,-332.5 521,-332.5"/>
<text text-anchor="middle" x="566.5" y="-339.5" font-family="Helvetica,sans-Serif" font-size="10.00" fill="#000000">_fr_log_pool_free</text>
</a>
</g>
</g>
<!-- Node1430&#45;&gt;Node1437 -->
<g id="edge8" class="edge">
<title>Node1430&#45;&gt;Node1437</title>
<path fill="none" stroke="#191970" d="M457.342,-370.411C476.3479,-365.4642 499.7286,-359.3789 519.9692,-354.1108"/>
<polygon fill="#191970" stroke="#191970" points="521.127,-357.4261 529.923,-351.5201 519.3638,-350.6518 521.127,-357.4261"/>
</g>
<!-- Node1431&#45;&gt;Node1428 -->
<g id="edge6" class="edge">
<title>Node1431&#45;&gt;Node1428</title>
<path fill="none" stroke="#191970" d="M593.1609,-380C607.9785,-380 626.6257,-380 642.7513,-380"/>
<polygon fill="#191970" stroke="#191970" points="642.9186,-383.5001 652.9185,-380 642.9185,-376.5001 642.9186,-383.5001"/>
</g>
<!-- Node1431&#45;&gt;Node1432 -->
<g id="edge7" class="edge">
<title>Node1431&#45;&gt;Node1432</title>
<path fill="none" stroke="#191970" d="M593.2446,-372.8843C601.3269,-369.982 609.9259,-366.0843 617,-361 638.8168,-345.3199 657.2925,-320.0983 668.2581,-303.053"/>
<polygon fill="#191970" stroke="#191970" points="671.2448,-304.8779 673.5509,-294.5371 665.2995,-301.1827 671.2448,-304.8779"/>
</g>
<!-- Node1439&#45;&gt;Node1432 -->
<g id="edge12" class="edge">
<title>Node1439&#45;&gt;Node1432</title>
<path fill="none" stroke="#191970" d="M323.7563,-215.5854C335.5005,-217.9374 348.8414,-220.5989 361,-223 464.1183,-243.3641 586.1352,-267.0343 644.5149,-278.3332"/>
<polygon fill="#191970" stroke="#191970" points="644.1734,-281.832 654.6562,-280.2954 645.5032,-274.9594 644.1734,-281.832"/>
</g>
<!-- Node1440 -->
<g id="node11" class="node">
<title>Node1440</title>
<g id="a_node11"><a xlink:href="value_8h.html#a878e0abfce7189a1784cdf15bc9fc3a3" target="_top" xlink:title="fr_value_box_aprint">
<polygon fill="none" stroke="#000000" points="516,-199.5 516,-218.5 617,-218.5 617,-199.5 516,-199.5"/>
<text text-anchor="middle" x="566.5" y="-206.5" font-family="Helvetica,sans-Serif" font-size="10.00" fill="#000000">fr_value_box_aprint</text>
</a>
</g>
</g>
<!-- Node1439&#45;&gt;Node1440 -->
<g id="edge11" class="edge">
<title>Node1439&#45;&gt;Node1440</title>
<path fill="none" stroke="#191970" d="M323.6853,-209C368.435,-209 449.6057,-209 505.704,-209"/>
<polygon fill="#191970" stroke="#191970" points="505.8726,-212.5001 515.8726,-209 505.8725,-205.5001 505.8726,-212.5001"/>
</g>
<!-- Node1441 -->
<g id="node12" class="node">
<title>Node1441</title>
<g id="a_node12"><a xlink:href="talloc_8c.html#a3536feb85c89aa239851ef0830b72e64" target="_top" xlink:title="Call talloc_strdup, setting the type on the new chunk correctly. ">
<polygon fill="none" stroke="#000000" points="516,-161.5 516,-180.5 617,-180.5 617,-161.5 516,-161.5"/>
<text text-anchor="middle" x="566.5" y="-168.5" font-family="Helvetica,sans-Serif" font-size="10.00" fill="#000000">talloc_typed_strdup</text>
</a>
</g>
</g>
<!-- Node1439&#45;&gt;Node1441 -->
<g id="edge13" class="edge">
<title>Node1439&#45;&gt;Node1441</title>
<path fill="none" stroke="#191970" d="M304.1017,-199.2738C317.5731,-189.9277 339.5558,-176.4453 361,-171 408.4984,-158.9389 464.1881,-159.8208 505.6042,-163.2287"/>
<polygon fill="#191970" stroke="#191970" points="505.5401,-166.7368 515.8125,-164.1431 506.1647,-159.7648 505.5401,-166.7368"/>
</g>
<!-- Node1442 -->
<g id="node13" class="node">
<title>Node1442</title>
<g id="a_node13"><a xlink:href="strerror_8c.html#ae701765650b8aea79a3037bc4921d7f8" target="_top" xlink:title="Log to thread local error buffer. ">
<polygon fill="none" stroke="#ff0000" points="523.5,-294.5 523.5,-313.5 609.5,-313.5 609.5,-294.5 523.5,-294.5"/>
<text text-anchor="middle" x="566.5" y="-301.5" font-family="Helvetica,sans-Serif" font-size="10.00" fill="#000000">fr_strerror_printf</text>
</a>
</g>
</g>
<!-- Node1439&#45;&gt;Node1442 -->
<g id="edge14" class="edge">
<title>Node1439&#45;&gt;Node1442</title>
<path fill="none" stroke="#191970" d="M295.4062,-218.6409C307.2016,-243.9714 340.0218,-311.264 361,-323 407.1569,-348.8219 427.4199,-328.7067 480,-323 493.6424,-321.5194 508.2861,-318.7618 521.5747,-315.7975"/>
<polygon fill="#191970" stroke="#191970" points="522.4842,-319.1795 531.4334,-313.5083 520.9008,-312.361 522.4842,-319.1795"/>
</g>
<!-- Node1448 -->
<g id="node14" class="node">
<title>Node1448</title>
<g id="a_node14"><a xlink:href="value_8c.html#a3a0550d465b81917f8b0c69a3373163e" target="_top" xlink:title="Convert one type of fr_value_box_t to another. ">
<polygon fill="none" stroke="#ff0000" points="372.5,-294.5 372.5,-313.5 468.5,-313.5 468.5,-294.5 372.5,-294.5"/>
<text text-anchor="middle" x="420.5" y="-301.5" font-family="Helvetica,sans-Serif" font-size="10.00" fill="#000000">fr_value_box_cast</text>
</a>
</g>
</g>
<!-- Node1439&#45;&gt;Node1448 -->
<g id="edge17" class="edge">
<title>Node1439&#45;&gt;Node1448</title>
<path fill="none" stroke="#191970" d="M298.4,-218.7413C310.1977,-233.6987 334.6422,-262.4303 361,-280 366.9157,-283.9433 373.5803,-287.4122 380.2526,-290.3982"/>
<polygon fill="#191970" stroke="#191970" points="379.3699,-293.8214 389.9475,-294.4263 382.0558,-287.3572 379.3699,-293.8214"/>
</g>
<!-- Node1562 -->
<g id="node15" class="node">
<title>Node1562</title>
<g id="a_node15"><a xlink:href="strerror_8c.html#a83ee876ee41b1ae672dc4dcda4f02a2e" target="_top" xlink:title="Get the last library error. ">
<polygon fill="none" stroke="#ff0000" points="391,-104.5 391,-123.5 450,-123.5 450,-104.5 391,-104.5"/>
<text text-anchor="middle" x="420.5" y="-111.5" font-family="Helvetica,sans-Serif" font-size="10.00" fill="#000000">fr_strerror</text>
</a>
</g>
</g>
<!-- Node1439&#45;&gt;Node1562 -->
<g id="edge19" class="edge">
<title>Node1439&#45;&gt;Node1562</title>
<path fill="none" stroke="#191970" d="M298.4,-199.2587C310.1977,-184.3013 334.6422,-155.5697 361,-138 367.2444,-133.8376 374.3233,-130.2037 381.3649,-127.1085"/>
<polygon fill="#191970" stroke="#191970" points="382.9322,-130.249 390.862,-123.2227 380.2813,-123.7703 382.9322,-130.249"/>
</g>
<!-- Node1458 -->
<g id="node16" class="node">
<title>Node1458</title>
<g id="a_node16"><a xlink:href="value_8c.html#ad5da2574fed047b3ae861999d06c38ac" target="_top" xlink:title="Clear/free any existing value and metadata. ">
<polygon fill="none" stroke="#ff0000" points="371.5,-66.5 371.5,-85.5 469.5,-85.5 469.5,-66.5 371.5,-66.5"/>
<text text-anchor="middle" x="420.5" y="-73.5" font-family="Helvetica,sans-Serif" font-size="10.00" fill="#000000">fr_value_box_clear</text>
</a>
</g>
</g>
<!-- Node1439&#45;&gt;Node1458 -->
<g id="edge20" class="edge">
<title>Node1439&#45;&gt;Node1458</title>
<path fill="none" stroke="#191970" d="M294.2164,-199.4619C302.0576,-177.6489 324.2537,-123.7913 361,-95 363.3207,-93.1817 365.8195,-91.5354 368.4325,-90.0449"/>
<polygon fill="#191970" stroke="#191970" points="370.2017,-93.0765 377.6633,-85.5548 367.1397,-86.7817 370.2017,-93.0765"/>
</g>
<!-- Node1563 -->
<g id="node17" class="node">
<title>Node1563</title>
<g id="a_node17"><a xlink:href="value_8c.html#a1064a346792dc1e5ecf05d04b4c1af55" target="_top" xlink:title="Concatenate the string representations of a list of value boxes together. ">
<polygon fill="none" stroke="#ff0000" points="361,-180.5 361,-199.5 480,-199.5 480,-180.5 361,-180.5"/>
<text text-anchor="middle" x="420.5" y="-187.5" font-family="Helvetica,sans-Serif" font-size="10.00" fill="#000000">fr_value_box_list_aprint</text>
</a>
</g>
</g>
<!-- Node1439&#45;&gt;Node1563 -->
<g id="edge21" class="edge">
<title>Node1439&#45;&gt;Node1563</title>
<path fill="none" stroke="#191970" d="M323.6783,-204.2055C332.0756,-202.9735 341.4356,-201.6002 350.9346,-200.2065"/>
<polygon fill="#191970" stroke="#191970" points="351.4634,-203.6665 360.8493,-198.7518 350.4472,-196.7406 351.4634,-203.6665"/>
</g>
<!-- Node1565 -->
<g id="node18" class="node">
<title>Node1565</title>
<g id="a_node18"><a xlink:href="util_2pair_8h.html#acfe6934363fefdc67e14fc08a205952b" target="_top" xlink:title="fr_pair_aprint">
<polygon fill="none" stroke="#000000" points="384,-28.5 384,-47.5 457,-47.5 457,-28.5 384,-28.5"/>
<text text-anchor="middle" x="420.5" y="-35.5" font-family="Helvetica,sans-Serif" font-size="10.00" fill="#000000">fr_pair_aprint</text>
</a>
</g>
</g>
<!-- Node1439&#45;&gt;Node1565 -->
<g id="edge24" class="edge">
<title>Node1439&#45;&gt;Node1565</title>
<path fill="none" stroke="#191970" d="M292.6859,-199.1951C297.8146,-172.3569 315.7346,-97.035 361,-57 364.9103,-53.5416 369.454,-50.7119 374.2546,-48.397"/>
<polygon fill="#191970" stroke="#191970" points="375.7623,-51.5621 383.704,-44.5494 373.1225,-45.079 375.7623,-51.5621"/>
</g>
<!-- Node1442&#45;&gt;Node1428 -->
<g id="edge15" class="edge">
<title>Node1442&#45;&gt;Node1428</title>
<path fill="none" stroke="#191970" d="M597.5631,-313.5415C604.2046,-316.1628 611.0166,-319.3181 617,-323 634.7743,-333.9374 652.0021,-350.3979 663.7674,-362.8225"/>
<polygon fill="#191970" stroke="#191970" points="661.3113,-365.3222 670.6609,-370.3059 666.4598,-360.5795 661.3113,-365.3222"/>
</g>
<!-- Node1442&#45;&gt;Node1432 -->
<g id="edge16" class="edge">
<title>Node1442&#45;&gt;Node1432</title>
<path fill="none" stroke="#191970" d="M609.6737,-296.7084C621.3191,-294.7417 633.756,-292.6412 644.8344,-290.7702"/>
<polygon fill="#191970" stroke="#191970" points="645.692,-294.175 654.9694,-289.0585 644.5262,-287.2728 645.692,-294.175"/>
</g>
<!-- Node1448&#45;&gt;Node1442 -->
<g id="edge18" class="edge">
<title>Node1448&#45;&gt;Node1442</title>
<path fill="none" stroke="#191970" d="M468.7105,-304C482.88,-304 498.4634,-304 512.9455,-304"/>
<polygon fill="#191970" stroke="#191970" points="513.2601,-307.5001 523.26,-304 513.26,-300.5001 513.2601,-307.5001"/>
</g>
<!-- Node1563&#45;&gt;Node1440 -->
<g id="edge22" class="edge">
<title>Node1563&#45;&gt;Node1440</title>
<path fill="none" stroke="#191970" d="M480.305,-197.7828C488.703,-198.8757 497.3419,-200 505.7571,-201.0951"/>
<polygon fill="#191970" stroke="#191970" points="505.5115,-204.5926 515.8796,-202.4124 506.4149,-197.6511 505.5115,-204.5926"/>
</g>
<!-- Node1563&#45;&gt;Node1441 -->
<g id="edge23" class="edge">
<title>Node1563&#45;&gt;Node1441</title>
<path fill="none" stroke="#191970" d="M480.305,-182.2172C488.703,-181.1243 497.3419,-180 505.7571,-178.9049"/>
<polygon fill="#191970" stroke="#191970" points="506.4149,-182.3489 515.8796,-177.5876 505.5115,-175.4074 506.4149,-182.3489"/>
</g>
</g>
</svg>
