<?xml version="1.0" encoding="UTF-8" standalone="no"?>
<!DOCTYPE svg PUBLIC "-//W3C//DTD SVG 1.1//EN"
 "http://www.w3.org/Graphics/SVG/1.1/DTD/svg11.dtd">
<!-- Generated by graphviz version 2.40.1 (20161225.0304)
 -->
<!-- Title: mod_thread_detach Pages: 1 -->
<!--zoomable 161 -->
<svg id="main" version="1.1" xmlns="http://www.w3.org/2000/svg" xmlns:xlink="http://www.w3.org/1999/xlink" xml:space="preserve" onload="init(evt)">
<style type="text/css"><![CDATA[
.edge:hover path { stroke: red; }
.edge:hover polygon { stroke: red; fill: red; }
]]></style>
<script type="text/javascript"><![CDATA[
var edges = document.getElementsByTagName('g');
if (edges && edges.length) {
  for (var i=0;i<edges.length;i++) {
    if (edges[i].id.substr(0,4)=='edge') {
      edges[i].setAttribute('class','edge');
    }
  }
}
]]></script>
        <defs>
                <circle id="rim" cx="0" cy="0" r="7"/>
                <circle id="rim2" cx="0" cy="0" r="3.5"/>
                <g id="zoomPlus">
                        <use xlink:href="#rim" fill="#404040">
                                <set attributeName="fill" to="#808080" begin="zoomplus.mouseover" end="zoomplus.mouseout"/>
                        </use>
                        <path d="M-4,0h8M0,-4v8" fill="none" stroke="white" stroke-width="1.5" pointer-events="none"/>
                </g>
                <g id="zoomMin">
                        <use xlink:href="#rim" fill="#404040">
                                <set attributeName="fill" to="#808080" begin="zoomminus.mouseover" end="zoomminus.mouseout"/>
                        </use>
                        <path d="M-4,0h8" fill="none" stroke="white" stroke-width="1.5" pointer-events="none"/>
                </g>
                <g id="dirArrow">
                        <path fill="none" stroke="white" stroke-width="1.5" d="M0,-3.0v7 M-2.5,-0.5L0,-3.0L2.5,-0.5"/>
                </g>
               <g id="resetDef">
                       <use xlink:href="#rim2" fill="#404040">
                               <set attributeName="fill" to="#808080" begin="reset.mouseover" end="reset.mouseout"/>
                       </use>
               </g>
        </defs>

<script type="text/javascript">
var viewWidth = 676;
var viewHeight = 161;
var sectionId = 'dynsection-4';
</script>
<script xlink:href="svgpan.js"/>
<svg id="graph" class="graph">
<g id="viewport">
<title>mod_thread_detach</title>
<!-- Node2074 -->
<g id="node1" class="node">
<title>Node2074</title>
<polygon fill="#bfbfbf" stroke="#000000" points="0,-57.5 0,-76.5 102,-76.5 102,-57.5 0,-57.5"/>
<text text-anchor="middle" x="51" y="-64.5" font-family="Helvetica,sans-Serif" font-size="10.00" fill="#000000">mod_thread_detach</text>
</g>
<!-- Node2075 -->
<g id="node2" class="node">
<title>Node2075</title>
<g id="a_node2"><a xlink:href="src_2modules_2rlm__sigtran_2client_8c.html#a831d90af9ab820dcf9997181731df1b1" target="_top" xlink:title="Signal that libosmo should unregister the other side of the pipe. ">
<polygon fill="none" stroke="#000000" points="138,-52 138,-82 245,-82 245,-52 138,-52"/>
<text text-anchor="start" x="146" y="-70" font-family="Helvetica,sans-Serif" font-size="10.00" fill="#000000">sigtran_client_thread</text>
<text text-anchor="middle" x="191.5" y="-59" font-family="Helvetica,sans-Serif" font-size="10.00" fill="#000000">_unregister</text>
</a>
</g>
</g>
<!-- Node2074&#45;&gt;Node2075 -->
<g id="edge1" class="edge">
<title>Node2074&#45;&gt;Node2075</title>
<path fill="none" stroke="#191970" d="M102.1212,-67C110.4675,-67 119.2039,-67 127.8078,-67"/>
<polygon fill="#191970" stroke="#191970" points="127.8161,-70.5001 137.8161,-67 127.816,-63.5001 127.8161,-70.5001"/>
</g>
<!-- Node2076 -->
<g id="node3" class="node">
<title>Node2076</title>
<g id="a_node3"><a xlink:href="src_2modules_2rlm__sigtran_2client_8c.html#acfd249da44db8f9899102a5bdd87cdf4" target="_top" xlink:title="sigtran_client_do_transaction">
<polygon fill="none" stroke="#000000" points="281,-76.5 281,-95.5 424,-95.5 424,-76.5 281,-76.5"/>
<text text-anchor="middle" x="352.5" y="-83.5" font-family="Helvetica,sans-Serif" font-size="10.00" fill="#000000">sigtran_client_do_transaction</text>
</a>
</g>
</g>
<!-- Node2075&#45;&gt;Node2076 -->
<g id="edge2" class="edge">
<title>Node2075&#45;&gt;Node2076</title>
<path fill="none" stroke="#191970" d="M245.1107,-73.3267C253.3291,-74.2966 261.97,-75.3163 270.6319,-76.3386"/>
<polygon fill="#191970" stroke="#191970" points="270.4447,-79.8407 280.786,-77.5369 271.2652,-72.8889 270.4447,-79.8407"/>
</g>
<!-- Node2703 -->
<g id="node9" class="node">
<title>Node2703</title>
<g id="a_node9"><a xlink:href="lib_2util_2event_8c.html#ad0f349a648681867b3758de01da84709" target="_top" xlink:title="Remove a file descriptor from the event loop. ">
<polygon fill="none" stroke="#000000" points="304,-38.5 304,-57.5 401,-57.5 401,-38.5 304,-38.5"/>
<text text-anchor="middle" x="352.5" y="-45.5" font-family="Helvetica,sans-Serif" font-size="10.00" fill="#000000">fr_event_fd_delete</text>
</a>
</g>
</g>
<!-- Node2075&#45;&gt;Node2703 -->
<g id="edge8" class="edge">
<title>Node2075&#45;&gt;Node2703</title>
<path fill="none" stroke="#191970" d="M245.1107,-60.6733C260.6435,-58.8402 277.6853,-56.8291 293.5267,-54.9596"/>
<polygon fill="#191970" stroke="#191970" points="294.2147,-58.4028 303.7356,-53.7548 293.3943,-51.451 294.2147,-58.4028"/>
</g>
<!-- Node2077 -->
<g id="node4" class="node">
<title>Node2077</title>
<g id="a_node4"><a xlink:href="syserror_8c.html#a18747f9d648d0aeecc4a8b27ac0435aa" target="_top" xlink:title="Guaranteed to be thread&#45;safe version of strerror. ">
<polygon fill="none" stroke="#000000" points="471.5,-76.5 471.5,-95.5 534.5,-95.5 534.5,-76.5 471.5,-76.5"/>
<text text-anchor="middle" x="503" y="-83.5" font-family="Helvetica,sans-Serif" font-size="10.00" fill="#000000">fr_syserror</text>
</a>
</g>
</g>
<!-- Node2076&#45;&gt;Node2077 -->
<g id="edge3" class="edge">
<title>Node2076&#45;&gt;Node2077</title>
<path fill="none" stroke="#191970" d="M424.2238,-86C436.8601,-86 449.6292,-86 461.1018,-86"/>
<polygon fill="#191970" stroke="#191970" points="461.2323,-89.5001 471.2323,-86 461.2322,-82.5001 461.2323,-89.5001"/>
</g>
<!-- Node2078 -->
<g id="node5" class="node">
<title>Node2078</title>
<g id="a_node5"><a xlink:href="strerror_8c.html#a2c8e65d6d4b73fb705cc023f60acb099" target="_top" xlink:title="Print the current error to stderr with a prefix. ">
<polygon fill="none" stroke="#ff0000" points="598.5,-133.5 598.5,-152.5 651.5,-152.5 651.5,-133.5 598.5,-133.5"/>
<text text-anchor="middle" x="625" y="-140.5" font-family="Helvetica,sans-Serif" font-size="10.00" fill="#000000">fr_perror</text>
</a>
</g>
</g>
<!-- Node2077&#45;&gt;Node2078 -->
<g id="edge4" class="edge">
<title>Node2077&#45;&gt;Node2078</title>
<path fill="none" stroke="#191970" d="M522.3967,-95.5454C538.3383,-103.3385 561.5465,-114.565 582,-124 585.8352,-125.7692 589.877,-127.5995 593.8852,-129.3939"/>
<polygon fill="#191970" stroke="#191970" points="592.5035,-132.6099 603.0634,-133.4702 595.3449,-126.2125 592.5035,-132.6099"/>
</g>
<!-- Node2085 -->
<g id="node6" class="node">
<title>Node2085</title>
<g id="a_node6"><a xlink:href="syserror_8c.html#ab1238c031182d57dae9463e447d9401b" target="_top" xlink:title="_fr_logging_free">
<polygon fill="none" stroke="#000000" points="582,-95.5 582,-114.5 668,-114.5 668,-95.5 582,-95.5"/>
<text text-anchor="middle" x="625" y="-102.5" font-family="Helvetica,sans-Serif" font-size="10.00" fill="#000000">_fr_logging_free</text>
</a>
</g>
</g>
<!-- Node2077&#45;&gt;Node2085 -->
<g id="edge5" class="edge">
<title>Node2077&#45;&gt;Node2085</title>
<path fill="none" stroke="#191970" d="M534.7356,-90.9424C546.1002,-92.7123 559.2409,-94.7588 571.9176,-96.7331"/>
<polygon fill="#191970" stroke="#191970" points="571.5223,-100.2136 581.9418,-98.2942 572.5995,-93.297 571.5223,-100.2136"/>
</g>
<!-- Node2086 -->
<g id="node7" class="node">
<title>Node2086</title>
<g id="a_node7"><a xlink:href="snprintf_8c.html#a8da10a1735da7051de5c298ca7448eee" target="_top" xlink:title="snprintf">
<polygon fill="none" stroke="#ff0000" points="600.5,-57.5 600.5,-76.5 649.5,-76.5 649.5,-57.5 600.5,-57.5"/>
<text text-anchor="middle" x="625" y="-64.5" font-family="Helvetica,sans-Serif" font-size="10.00" fill="#000000">snprintf</text>
</a>
</g>
</g>
<!-- Node2077&#45;&gt;Node2086 -->
<g id="edge6" class="edge">
<title>Node2077&#45;&gt;Node2086</title>
<path fill="none" stroke="#191970" d="M534.7356,-81.0576C551.691,-78.417 572.5997,-75.1607 590.0226,-72.4473"/>
<polygon fill="#191970" stroke="#191970" points="591.0117,-75.8355 600.3539,-70.8383 589.9344,-68.9189 591.0117,-75.8355"/>
</g>
<!-- Node2184 -->
<g id="node8" class="node">
<title>Node2184</title>
<g id="a_node8"><a xlink:href="strlcpy_8c.html#a59f9599e77ee687b1daaa179f8b9a2f3" target="_top" xlink:title="strlcpy">
<polygon fill="none" stroke="#000000" points="602,-19.5 602,-38.5 648,-38.5 648,-19.5 602,-19.5"/>
<text text-anchor="middle" x="625" y="-26.5" font-family="Helvetica,sans-Serif" font-size="10.00" fill="#000000">strlcpy</text>
</a>
</g>
</g>
<!-- Node2077&#45;&gt;Node2184 -->
<g id="edge7" class="edge">
<title>Node2077&#45;&gt;Node2184</title>
<path fill="none" stroke="#191970" d="M525.4532,-76.4311C532.1111,-73.4991 539.3885,-70.2006 546,-67 562.284,-59.117 565.716,-55.883 582,-48 585.6156,-46.2497 589.4305,-44.4701 593.2342,-42.7372"/>
<polygon fill="#191970" stroke="#191970" points="594.8493,-45.8489 602.5468,-38.5689 591.9895,-39.4597 594.8493,-45.8489"/>
</g>
<!-- Node2415 -->
<g id="node10" class="node">
<title>Node2415</title>
<g id="a_node10"><a xlink:href="rbtree_8c.html#ac6772a18f3e04b23f71ad7994c7587ed" target="_top" xlink:title="Find an element in the tree, returning the data, not the node. ">
<polygon fill="none" stroke="#ff0000" points="462.5,-38.5 462.5,-57.5 543.5,-57.5 543.5,-38.5 462.5,-38.5"/>
<text text-anchor="middle" x="503" y="-45.5" font-family="Helvetica,sans-Serif" font-size="10.00" fill="#000000">rbtree_finddata</text>
</a>
</g>
</g>
<!-- Node2703&#45;&gt;Node2415 -->
<g id="edge9" class="edge">
<title>Node2703&#45;&gt;Node2415</title>
<path fill="none" stroke="#191970" d="M401.363,-48C417.5568,-48 435.6172,-48 451.9696,-48"/>
<polygon fill="#191970" stroke="#191970" points="452.4321,-51.5001 462.4321,-48 452.4321,-44.5001 452.4321,-51.5001"/>
</g>
<!-- Node2110 -->
<g id="node11" class="node">
<title>Node2110</title>
<g id="a_node11"><a xlink:href="strerror_8c.html#ae701765650b8aea79a3037bc4921d7f8" target="_top" xlink:title="Log to thread local error buffer. ">
<polygon fill="none" stroke="#ff0000" points="460,-.5 460,-19.5 546,-19.5 546,-.5 460,-.5"/>
<text text-anchor="middle" x="503" y="-7.5" font-family="Helvetica,sans-Serif" font-size="10.00" fill="#000000">fr_strerror_printf</text>
</a>
</g>
</g>
<!-- Node2703&#45;&gt;Node2110 -->
<g id="edge10" class="edge">
<title>Node2703&#45;&gt;Node2110</title>
<path fill="none" stroke="#191970" d="M390.4775,-38.411C410.1587,-33.4417 434.3907,-27.3233 455.3206,-22.0387"/>
<polygon fill="#191970" stroke="#191970" points="456.4567,-25.3617 465.2956,-19.5201 454.743,-18.5747 456.4567,-25.3617"/>
</g>
</g>
</svg>
        <g id="navigator" transform="translate(0 0)" fill="#404254">
                <rect fill="#f2f5e9" fill-opacity="0.5" stroke="#606060" stroke-width=".5" x="0" y="0" width="60" height="60"/>
                <use id="zoomplus" xlink:href="#zoomPlus" x="17" y="9" onmousedown="handleZoom(evt,'in')"/>
                <use id="zoomminus" xlink:href="#zoomMin" x="42" y="9" onmousedown="handleZoom(evt,'out')"/>
                <use id="reset" xlink:href="#resetDef" x="30" y="36" onmousedown="handleReset()"/>
                <g id="arrowUp" xlink:href="#dirArrow" transform="translate(30 24)" onmousedown="handlePan(0,-1)">
                  <use xlink:href="#rim" fill="#404040">
                        <set attributeName="fill" to="#808080" begin="arrowUp.mouseover" end="arrowUp.mouseout"/>
                  </use>
                  <path fill="none" stroke="white" stroke-width="1.5" d="M0,-3.0v7 M-2.5,-0.5L0,-3.0L2.5,-0.5"/>
                </g>
                <g id="arrowRight" xlink:href="#dirArrow" transform="rotate(90) translate(36 -43)" onmousedown="handlePan(1,0)">
                  <use xlink:href="#rim" fill="#404040">
                        <set attributeName="fill" to="#808080" begin="arrowRight.mouseover" end="arrowRight.mouseout"/>
                  </use>
                  <path fill="none" stroke="white" stroke-width="1.5" d="M0,-3.0v7 M-2.5,-0.5L0,-3.0L2.5,-0.5"/>
                </g>
                <g id="arrowDown" xlink:href="#dirArrow" transform="rotate(180) translate(-30 -48)" onmousedown="handlePan(0,1)">
                  <use xlink:href="#rim" fill="#404040">
                        <set attributeName="fill" to="#808080" begin="arrowDown.mouseover" end="arrowDown.mouseout"/>
                  </use>
                  <path fill="none" stroke="white" stroke-width="1.5" d="M0,-3.0v7 M-2.5,-0.5L0,-3.0L2.5,-0.5"/>
                </g>
                <g id="arrowLeft" xlink:href="#dirArrow" transform="rotate(270) translate(-36 17)" onmousedown="handlePan(-1,0)">
                  <use xlink:href="#rim" fill="#404040">
                        <set attributeName="fill" to="#808080" begin="arrowLeft.mouseover" end="arrowLeft.mouseout"/>
                  </use>
                  <path fill="none" stroke="white" stroke-width="1.5" d="M0,-3.0v7 M-2.5,-0.5L0,-3.0L2.5,-0.5"/>
                </g>
        </g>
        <svg viewBox="0 0 15 15" width="100%" height="30px" preserveAspectRatio="xMaxYMin meet">
         <g id="arrow_out" transform="scale(0.3 0.3)">
          <a xlink:href="rlm__sigtran_8c_a77d2450545c514a4b833a80e0b9486bf_cgraph_org.svg" target="_base">
           <rect id="button" ry="5" rx="5" y="6" x="6" height="38" width="38"
                fill="#f2f5e9" fill-opacity="0.5" stroke="#606060" stroke-width="1.0"/>
           <path id="arrow"
             d="M 11.500037,31.436501 C 11.940474,20.09759 22.043105,11.32322 32.158766,21.979434 L 37.068811,17.246167 C 37.068811,17.246167 37.088388,32 37.088388,32 L 22.160133,31.978069 C 22.160133,31.978069 26.997745,27.140456 26.997745,27.140456 C 18.528582,18.264221 13.291696,25.230495 11.500037,31.436501 z"
             style="fill:#404040;"/>
          </a>
         </g>
        </svg>
</svg>
