<?xml version="1.0" encoding="UTF-8" standalone="no"?>
<!DOCTYPE svg PUBLIC "-//W3C//DTD SVG 1.1//EN"
 "http://www.w3.org/Graphics/SVG/1.1/DTD/svg11.dtd">
<!-- Generated by graphviz version 2.40.1 (20161225.0304)
 -->
<!-- Title: mod_instantiate Pages: 1 -->
<!--zoomable 351 -->
<svg id="main" version="1.1" xmlns="http://www.w3.org/2000/svg" xmlns:xlink="http://www.w3.org/1999/xlink" xml:space="preserve" onload="init(evt)">
<style type="text/css"><![CDATA[
.edge:hover path { stroke: red; }
.edge:hover polygon { stroke: red; fill: red; }
]]></style>
<script type="text/javascript"><![CDATA[
var edges = document.getElementsByTagName('g');
if (edges && edges.length) {
  for (var i=0;i<edges.length;i++) {
    if (edges[i].id.substr(0,4)=='edge') {
      edges[i].setAttribute('class','edge');
    }
  }
}
]]></script>
        <defs>
                <circle id="rim" cx="0" cy="0" r="7"/>
                <circle id="rim2" cx="0" cy="0" r="3.5"/>
                <g id="zoomPlus">
                        <use xlink:href="#rim" fill="#404040">
                                <set attributeName="fill" to="#808080" begin="zoomplus.mouseover" end="zoomplus.mouseout"/>
                        </use>
                        <path d="M-4,0h8M0,-4v8" fill="none" stroke="white" stroke-width="1.5" pointer-events="none"/>
                </g>
                <g id="zoomMin">
                        <use xlink:href="#rim" fill="#404040">
                                <set attributeName="fill" to="#808080" begin="zoomminus.mouseover" end="zoomminus.mouseout"/>
                        </use>
                        <path d="M-4,0h8" fill="none" stroke="white" stroke-width="1.5" pointer-events="none"/>
                </g>
                <g id="dirArrow">
                        <path fill="none" stroke="white" stroke-width="1.5" d="M0,-3.0v7 M-2.5,-0.5L0,-3.0L2.5,-0.5"/>
                </g>
               <g id="resetDef">
                       <use xlink:href="#rim2" fill="#404040">
                               <set attributeName="fill" to="#808080" begin="reset.mouseover" end="reset.mouseout"/>
                       </use>
               </g>
        </defs>

<script type="text/javascript">
var viewWidth = 801;
var viewHeight = 351;
var sectionId = 'dynsection-1';
</script>
<script xlink:href="svgpan.js"/>
<svg id="graph" class="graph">
<g id="viewport">
<title>mod_instantiate</title>
<!-- Node0 -->
<g id="node1" class="node">
<title>Node0</title>
<polygon fill="#bfbfbf" stroke="#000000" points="0,-19.5 0,-38.5 86,-38.5 86,-19.5 0,-19.5"/>
<text text-anchor="middle" x="43" y="-26.5" font-family="Helvetica,sans-Serif" font-size="10.00" fill="#000000">mod_instantiate</text>
</g>
<!-- Node1 -->
<g id="node2" class="node">
<title>Node1</title>
<g id="a_node2"><a xlink:href="rlm__eap__aka__prime_8c.html#a9921d3859fc7aca93fd1033b74ed2aa7" target="_top" xlink:title="Compile virtual server sections. ">
<polygon fill="none" stroke="#000000" points="122,-19.5 122,-38.5 233,-38.5 233,-19.5 122,-19.5"/>
<text text-anchor="middle" x="177.5" y="-26.5" font-family="Helvetica,sans-Serif" font-size="10.00" fill="#000000">mod_section_compile</text>
</a>
</g>
</g>
<!-- Node0&#45;&gt;Node1 -->
<g id="edge1" class="edge">
<title>Node0&#45;&gt;Node1</title>
<path fill="none" stroke="#191970" d="M86.297,-29C94.466,-29 103.1774,-29 111.8532,-29"/>
<polygon fill="#191970" stroke="#191970" points="111.9868,-32.5001 121.9868,-29 111.9868,-25.5001 111.9868,-32.5001"/>
</g>
<!-- Node2 -->
<g id="node3" class="node">
<title>Node2</title>
<g id="a_node3"><a xlink:href="virtual__servers_8c.html#aaff8a0625aab5aaca458f1b995be75da" target="_top" xlink:title="Compile sections for a virtual server. ">
<polygon fill="none" stroke="#000000" points="269,-90 269,-120 383,-120 383,-90 269,-90"/>
<text text-anchor="start" x="277" y="-108" font-family="Helvetica,sans-Serif" font-size="10.00" fill="#000000">virtual_server_compile</text>
<text text-anchor="middle" x="326" y="-97" font-family="Helvetica,sans-Serif" font-size="10.00" fill="#000000">_sections</text>
</a>
</g>
</g>
<!-- Node1&#45;&gt;Node2 -->
<g id="edge2" class="edge">
<title>Node1&#45;&gt;Node2</title>
<path fill="none" stroke="#191970" d="M196.3076,-38.6255C219.1249,-50.303 258.1714,-70.2864 287.4731,-85.2825"/>
<polygon fill="#191970" stroke="#191970" points="286.1148,-88.5191 296.6113,-89.9593 289.3039,-82.2877 286.1148,-88.5191"/>
</g>
<!-- Node18 -->
<g id="node13" class="node">
<title>Node18</title>
<g id="a_node13"><a xlink:href="cf__util_8c.html#a5db99282bb519c1d025b2eff5d602bfc" target="_top" xlink:title="Return the second identifier of a CONF_SECTION. ">
<polygon fill="none" stroke="#000000" points="697,-.5 697,-19.5 793,-19.5 793,-.5 697,-.5"/>
<text text-anchor="middle" x="745" y="-7.5" font-family="Helvetica,sans-Serif" font-size="10.00" fill="#000000">cf_section_name2</text>
</a>
</g>
</g>
<!-- Node1&#45;&gt;Node18 -->
<g id="edge21" class="edge">
<title>Node1&#45;&gt;Node18</title>
<path fill="none" stroke="#191970" d="M233.3092,-23.3507C323.2855,-14.8915 506.0067,-.3912 661,-5 669.2015,-5.2439 677.8474,-5.6214 686.348,-6.0622"/>
<polygon fill="#191970" stroke="#191970" points="686.428,-9.5718 696.6052,-6.6265 686.8126,-2.5824 686.428,-9.5718"/>
</g>
<!-- Node3 -->
<g id="node4" class="node">
<title>Node3</title>
<g id="a_node4"><a xlink:href="cf__util_8c.html#a2c8bfb80ce8fa2752c8f8aa636dee24f" target="_top" xlink:title="Find a CONF_SECTION with name1 and optionally name2. ">
<polygon fill="none" stroke="#000000" points="431,-218.5 431,-237.5 514,-237.5 514,-218.5 431,-218.5"/>
<text text-anchor="middle" x="472.5" y="-225.5" font-family="Helvetica,sans-Serif" font-size="10.00" fill="#000000">cf_section_find</text>
</a>
</g>
</g>
<!-- Node2&#45;&gt;Node3 -->
<g id="edge3" class="edge">
<title>Node2&#45;&gt;Node3</title>
<path fill="none" stroke="#191970" d="M343.9638,-120.0822C371.6608,-143.3364 424.5704,-187.7588 453.1074,-211.7181"/>
<polygon fill="#191970" stroke="#191970" points="451.2171,-214.7011 461.1263,-218.4507 455.7182,-209.3401 451.2171,-214.7011"/>
</g>
<!-- Node11 -->
<g id="node8" class="node">
<title>Node11</title>
<g id="a_node8"><a xlink:href="cf__util_8c.html#abefa673b8798e18b6fa9568fb67d75f5" target="_top" xlink:title="Return the next matching section. ">
<polygon fill="none" stroke="#000000" points="419,-275.5 419,-294.5 526,-294.5 526,-275.5 419,-275.5"/>
<text text-anchor="middle" x="472.5" y="-282.5" font-family="Helvetica,sans-Serif" font-size="10.00" fill="#000000">cf_section_find_next</text>
</a>
</g>
</g>
<!-- Node2&#45;&gt;Node11 -->
<g id="edge7" class="edge">
<title>Node2&#45;&gt;Node11</title>
<path fill="none" stroke="#191970" d="M333.6127,-120.406C347.7459,-147.9839 380.1622,-206.6673 419,-247 427.2641,-255.5822 437.7044,-263.494 447.1637,-269.851"/>
<polygon fill="#191970" stroke="#191970" points="445.5286,-272.9612 455.8293,-275.4405 449.3229,-267.0788 445.5286,-272.9612"/>
</g>
<!-- Node15 -->
<g id="node10" class="node">
<title>Node15</title>
<g id="a_node10"><a xlink:href="compile_8c.html#a6e4f2744bda1495cdb4eb8b96d300d22" target="_top" xlink:title="unlang_compile">
<polygon fill="none" stroke="#000000" points="430.5,-95.5 430.5,-114.5 514.5,-114.5 514.5,-95.5 430.5,-95.5"/>
<text text-anchor="middle" x="472.5" y="-102.5" font-family="Helvetica,sans-Serif" font-size="10.00" fill="#000000">unlang_compile</text>
</a>
</g>
</g>
<!-- Node2&#45;&gt;Node15 -->
<g id="edge12" class="edge">
<title>Node2&#45;&gt;Node15</title>
<path fill="none" stroke="#191970" d="M383.0602,-105C395.2395,-105 408.0473,-105 420.0438,-105"/>
<polygon fill="#191970" stroke="#191970" points="420.3411,-108.5001 430.3411,-105 420.3411,-101.5001 420.3411,-108.5001"/>
</g>
<!-- Node2&#45;&gt;Node18 -->
<g id="edge20" class="edge">
<title>Node2&#45;&gt;Node18</title>
<path fill="none" stroke="#191970" d="M357.1533,-89.9594C401.4674,-69.3985 485.797,-33.3232 562,-18 603.0034,-9.7549 650.1756,-7.87 686.3564,-7.9865"/>
<polygon fill="#191970" stroke="#191970" points="686.7034,-11.4895 696.733,-8.0753 686.7634,-4.4898 686.7034,-11.4895"/>
</g>
<!-- Node4 -->
<g id="node5" class="node">
<title>Node4</title>
<g id="a_node5"><a xlink:href="cf__util_8c.html#aab50ea84d9d2e1a6305416daee9206b8" target="_top" xlink:title="Cast a CONF_ITEM to a CONF_SECTION. ">
<polygon fill="none" stroke="#000000" points="562,-285.5 562,-304.5 661,-304.5 661,-285.5 562,-285.5"/>
<text text-anchor="middle" x="611.5" y="-292.5" font-family="Helvetica,sans-Serif" font-size="10.00" fill="#000000">cf_item_to_section</text>
</a>
</g>
</g>
<!-- Node3&#45;&gt;Node4 -->
<g id="edge4" class="edge">
<title>Node3&#45;&gt;Node4</title>
<path fill="none" stroke="#191970" d="M489.0072,-237.6645C506.73,-247.8472 535.8691,-264.0353 562,-276 566.2096,-277.9275 570.6758,-279.831 575.1353,-281.6455"/>
<polygon fill="#191970" stroke="#191970" points="574.1981,-285.0382 584.785,-285.4506 576.766,-278.5262 574.1981,-285.0382"/>
</g>
<!-- Node5 -->
<g id="node6" class="node">
<title>Node5</title>
<g id="a_node6"><a xlink:href="cf__util_8c.html#aba0182314085bc7d3e26d74b7c6d2e22" target="_top" xlink:title="Return the next child that&#39;s of the specified type with the specified identifiers. ">
<polygon fill="none" stroke="#ff0000" points="722,-266.5 722,-285.5 768,-285.5 768,-266.5 722,-266.5"/>
<text text-anchor="middle" x="745" y="-273.5" font-family="Helvetica,sans-Serif" font-size="10.00" fill="#000000">cf_find</text>
</a>
</g>
</g>
<!-- Node3&#45;&gt;Node5 -->
<g id="edge5" class="edge">
<title>Node3&#45;&gt;Node5</title>
<path fill="none" stroke="#191970" d="M514.3248,-225.8281C552.9545,-224.8488 611.6467,-225.9791 661,-238 681.6701,-243.0346 703.52,-253.0847 719.7526,-261.5852"/>
<polygon fill="#191970" stroke="#191970" points="718.1465,-264.6956 728.6096,-266.3614 721.4691,-258.5343 718.1465,-264.6956"/>
</g>
<!-- Node10 -->
<g id="node7" class="node">
<title>Node10</title>
<g id="a_node7"><a xlink:href="cf__util_8c.html#a11cfb91b7dd7bf343a4031ba7846c2ad" target="_top" xlink:title="Cast a CONF_SECTION to a CONF_ITEM. ">
<polygon fill="none" stroke="#000000" points="562,-247.5 562,-266.5 661,-266.5 661,-247.5 562,-247.5"/>
<text text-anchor="middle" x="611.5" y="-254.5" font-family="Helvetica,sans-Serif" font-size="10.00" fill="#000000">cf_section_to_item</text>
</a>
</g>
</g>
<!-- Node3&#45;&gt;Node10 -->
<g id="edge6" class="edge">
<title>Node3&#45;&gt;Node10</title>
<path fill="none" stroke="#191970" d="M514.2046,-236.701C527.3317,-239.4397 542.0428,-242.5089 555.9728,-245.4152"/>
<polygon fill="#191970" stroke="#191970" points="555.44,-248.8793 565.9441,-247.4955 556.8697,-242.0269 555.44,-248.8793"/>
</g>
<!-- Node11&#45;&gt;Node4 -->
<g id="edge8" class="edge">
<title>Node11&#45;&gt;Node4</title>
<path fill="none" stroke="#191970" d="M526.241,-288.8663C534.6052,-289.468 543.2907,-290.0929 551.7778,-290.7034"/>
<polygon fill="#191970" stroke="#191970" points="551.7714,-294.2119 561.9968,-291.4386 552.2738,-287.23 551.7714,-294.2119"/>
</g>
<!-- Node11&#45;&gt;Node10 -->
<g id="edge11" class="edge">
<title>Node11&#45;&gt;Node10</title>
<path fill="none" stroke="#191970" d="M519.9471,-275.4423C531.0179,-273.2122 542.9216,-270.8144 554.3633,-268.5096"/>
<polygon fill="#191970" stroke="#191970" points="555.1548,-271.9205 564.2667,-266.5146 553.7724,-265.0583 555.1548,-271.9205"/>
</g>
<!-- Node12 -->
<g id="node9" class="node">
<title>Node12</title>
<g id="a_node9"><a xlink:href="cf__util_8c.html#a233d6c49c582235cb6c3fb6f79f40a91" target="_top" xlink:title="Return the next child that&#39;s of the specified type with the specified identifiers. ">
<polygon fill="none" stroke="#ff0000" points="576.5,-323.5 576.5,-342.5 646.5,-342.5 646.5,-323.5 576.5,-323.5"/>
<text text-anchor="middle" x="611.5" y="-330.5" font-family="Helvetica,sans-Serif" font-size="10.00" fill="#000000">cf_find_next</text>
</a>
</g>
</g>
<!-- Node11&#45;&gt;Node12 -->
<g id="edge9" class="edge">
<title>Node11&#45;&gt;Node12</title>
<path fill="none" stroke="#191970" d="M500.2946,-294.5982C521.5074,-301.9234 550.9458,-312.0892 574.2054,-320.1213"/>
<polygon fill="#191970" stroke="#191970" points="573.1588,-323.4626 583.7535,-323.4185 575.4437,-316.846 573.1588,-323.4626"/>
</g>
<!-- Node12&#45;&gt;Node5 -->
<g id="edge10" class="edge">
<title>Node12&#45;&gt;Node5</title>
<path fill="none" stroke="#191970" d="M637.3048,-323.4216C644.968,-320.4893 653.3555,-317.193 661,-314 679.2242,-306.3879 699.3953,-297.2857 715.4026,-289.8982"/>
<polygon fill="#191970" stroke="#191970" points="717.1787,-292.9326 724.7767,-285.5487 714.2325,-286.5828 717.1787,-292.9326"/>
</g>
<!-- Node16 -->
<g id="node11" class="node">
<title>Node16</title>
<g id="a_node11"><a xlink:href="cf__util_8c.html#a85dc699954bc58ee5f24d3a117b6539b" target="_top" xlink:title="Return the user assigned value of CONF_DATA. ">
<polygon fill="none" stroke="#000000" points="573,-95.5 573,-114.5 650,-114.5 650,-95.5 573,-95.5"/>
<text text-anchor="middle" x="611.5" y="-102.5" font-family="Helvetica,sans-Serif" font-size="10.00" fill="#000000">cf_data_value</text>
</a>
</g>
</g>
<!-- Node15&#45;&gt;Node16 -->
<g id="edge13" class="edge">
<title>Node15&#45;&gt;Node16</title>
<path fill="none" stroke="#191970" d="M514.5818,-105C529.7887,-105 547.0813,-105 562.8079,-105"/>
<polygon fill="#191970" stroke="#191970" points="562.8789,-108.5001 572.8788,-105 562.8788,-101.5001 562.8789,-108.5001"/>
</g>
<!-- Node17 -->
<g id="node12" class="node">
<title>Node17</title>
<g id="a_node12"><a xlink:href="cf__util_8c.html#ae802d285e3f5dee90043bc93d0e3731c" target="_top" xlink:title="Return the second identifier of a CONF_SECTION. ">
<polygon fill="none" stroke="#000000" points="697,-152.5 697,-171.5 793,-171.5 793,-152.5 697,-152.5"/>
<text text-anchor="middle" x="745" y="-159.5" font-family="Helvetica,sans-Serif" font-size="10.00" fill="#000000">cf_section_name1</text>
</a>
</g>
</g>
<!-- Node15&#45;&gt;Node17 -->
<g id="edge14" class="edge">
<title>Node15&#45;&gt;Node17</title>
<path fill="none" stroke="#191970" d="M483.0633,-114.6354C498.8504,-128.312 530.1648,-152.7233 562,-162 602.5668,-173.821 650.3745,-173.3596 686.9507,-170.1872"/>
<polygon fill="#191970" stroke="#191970" points="687.3335,-173.6666 696.9539,-169.2284 686.6656,-166.6986 687.3335,-173.6666"/>
</g>
<!-- Node15&#45;&gt;Node18 -->
<g id="edge15" class="edge">
<title>Node15&#45;&gt;Node18</title>
<path fill="none" stroke="#191970" d="M484.4579,-95.3552C500.9236,-82.5689 531.9621,-60.204 562,-48 602.1188,-31.7002 650.1408,-22.0679 686.9236,-16.5811"/>
<polygon fill="#191970" stroke="#191970" points="687.581,-20.0228 696.9843,-15.1414 686.5893,-13.0934 687.581,-20.0228"/>
</g>
<!-- Node19 -->
<g id="node14" class="node">
<title>Node19</title>
<g id="a_node14"><a xlink:href="compile_8c.html#a95e4711dc2211362dbcb64f12c7ba267" target="_top" xlink:title="compile_section">
<polygon fill="none" stroke="#ff0000" points="568,-133.5 568,-152.5 655,-152.5 655,-133.5 568,-133.5"/>
<text text-anchor="middle" x="611.5" y="-140.5" font-family="Helvetica,sans-Serif" font-size="10.00" fill="#000000">compile_section</text>
</a>
</g>
</g>
<!-- Node15&#45;&gt;Node19 -->
<g id="edge16" class="edge">
<title>Node15&#45;&gt;Node19</title>
<path fill="none" stroke="#191970" d="M507.5756,-114.589C525.5191,-119.4944 547.5584,-125.5196 566.7167,-130.7571"/>
<polygon fill="#191970" stroke="#191970" points="565.8666,-134.1531 576.4357,-133.4141 567.7126,-127.4008 565.8666,-134.1531"/>
</g>
<!-- Node972 -->
<g id="node15" class="node">
<title>Node972</title>
<g id="a_node15"><a xlink:href="compile_8c.html#a0edff470d5d43efaccf440690bd8bf61" target="_top" xlink:title="unlang_dump">
<polygon fill="none" stroke="#ff0000" points="574.5,-57.5 574.5,-76.5 648.5,-76.5 648.5,-57.5 574.5,-57.5"/>
<text text-anchor="middle" x="611.5" y="-64.5" font-family="Helvetica,sans-Serif" font-size="10.00" fill="#000000">unlang_dump</text>
</a>
</g>
</g>
<!-- Node15&#45;&gt;Node972 -->
<g id="edge19" class="edge">
<title>Node15&#45;&gt;Node972</title>
<path fill="none" stroke="#191970" d="M507.5756,-95.411C525.5191,-90.5056 547.5584,-84.4804 566.7167,-79.2429"/>
<polygon fill="#191970" stroke="#191970" points="567.7126,-82.5992 576.4357,-76.5859 565.8666,-75.8469 567.7126,-82.5992"/>
</g>
<!-- Node19&#45;&gt;Node17 -->
<g id="edge17" class="edge">
<title>Node19&#45;&gt;Node17</title>
<path fill="none" stroke="#191970" d="M655.2129,-149.2213C665.2399,-150.6484 676.0575,-152.188 686.5933,-153.6874"/>
<polygon fill="#191970" stroke="#191970" points="686.18,-157.1638 696.5734,-155.1078 687.1663,-150.2336 686.18,-157.1638"/>
</g>
<!-- Node19&#45;&gt;Node18 -->
<g id="edge18" class="edge">
<title>Node19&#45;&gt;Node18</title>
<path fill="none" stroke="#191970" d="M644.3225,-133.4476C650.1949,-130.9127 656.0212,-127.7938 661,-124 695.3727,-97.8082 722.1461,-53.8364 735.5502,-28.8507"/>
<polygon fill="#191970" stroke="#191970" points="738.8005,-30.1868 740.3142,-19.7007 732.5916,-26.9542 738.8005,-30.1868"/>
</g>
</g>
</svg>
        <g id="navigator" transform="translate(0 0)" fill="#404254">
                <rect fill="#f2f5e9" fill-opacity="0.5" stroke="#606060" stroke-width=".5" x="0" y="0" width="60" height="60"/>
                <use id="zoomplus" xlink:href="#zoomPlus" x="17" y="9" onmousedown="handleZoom(evt,'in')"/>
                <use id="zoomminus" xlink:href="#zoomMin" x="42" y="9" onmousedown="handleZoom(evt,'out')"/>
                <use id="reset" xlink:href="#resetDef" x="30" y="36" onmousedown="handleReset()"/>
                <g id="arrowUp" xlink:href="#dirArrow" transform="translate(30 24)" onmousedown="handlePan(0,-1)">
                  <use xlink:href="#rim" fill="#404040">
                        <set attributeName="fill" to="#808080" begin="arrowUp.mouseover" end="arrowUp.mouseout"/>
                  </use>
                  <path fill="none" stroke="white" stroke-width="1.5" d="M0,-3.0v7 M-2.5,-0.5L0,-3.0L2.5,-0.5"/>
                </g>
                <g id="arrowRight" xlink:href="#dirArrow" transform="rotate(90) translate(36 -43)" onmousedown="handlePan(1,0)">
                  <use xlink:href="#rim" fill="#404040">
                        <set attributeName="fill" to="#808080" begin="arrowRight.mouseover" end="arrowRight.mouseout"/>
                  </use>
                  <path fill="none" stroke="white" stroke-width="1.5" d="M0,-3.0v7 M-2.5,-0.5L0,-3.0L2.5,-0.5"/>
                </g>
                <g id="arrowDown" xlink:href="#dirArrow" transform="rotate(180) translate(-30 -48)" onmousedown="handlePan(0,1)">
                  <use xlink:href="#rim" fill="#404040">
                        <set attributeName="fill" to="#808080" begin="arrowDown.mouseover" end="arrowDown.mouseout"/>
                  </use>
                  <path fill="none" stroke="white" stroke-width="1.5" d="M0,-3.0v7 M-2.5,-0.5L0,-3.0L2.5,-0.5"/>
                </g>
                <g id="arrowLeft" xlink:href="#dirArrow" transform="rotate(270) translate(-36 17)" onmousedown="handlePan(-1,0)">
                  <use xlink:href="#rim" fill="#404040">
                        <set attributeName="fill" to="#808080" begin="arrowLeft.mouseover" end="arrowLeft.mouseout"/>
                  </use>
                  <path fill="none" stroke="white" stroke-width="1.5" d="M0,-3.0v7 M-2.5,-0.5L0,-3.0L2.5,-0.5"/>
                </g>
        </g>
        <svg viewBox="0 0 15 15" width="100%" height="30px" preserveAspectRatio="xMaxYMin meet">
         <g id="arrow_out" transform="scale(0.3 0.3)">
          <a xlink:href="rlm__eap__aka__prime_8c_a0af0fa030319c2f5835b37c159cbbf28_cgraph_org.svg" target="_base">
           <rect id="button" ry="5" rx="5" y="6" x="6" height="38" width="38"
                fill="#f2f5e9" fill-opacity="0.5" stroke="#606060" stroke-width="1.0"/>
           <path id="arrow"
             d="M 11.500037,31.436501 C 11.940474,20.09759 22.043105,11.32322 32.158766,21.979434 L 37.068811,17.246167 C 37.068811,17.246167 37.088388,32 37.088388,32 L 22.160133,31.978069 C 22.160133,31.978069 26.997745,27.140456 26.997745,27.140456 C 18.528582,18.264221 13.291696,25.230495 11.500037,31.436501 z"
             style="fill:#404040;"/>
          </a>
         </g>
        </svg>
</svg>
