<?xml version="1.0" encoding="UTF-8" standalone="no"?>
<!DOCTYPE svg PUBLIC "-//W3C//DTD SVG 1.1//EN"
 "http://www.w3.org/Graphics/SVG/1.1/DTD/svg11.dtd">
<!-- Generated by graphviz version 2.40.1 (20161225.0304)
 -->
<!-- Title: mod_preacct Pages: 1 -->
<svg width="615pt" height="116pt"
 viewBox="0.00 0.00 615.00 116.00" xmlns="http://www.w3.org/2000/svg" xmlns:xlink="http://www.w3.org/1999/xlink">
<g id="graph0" class="graph" transform="scale(1 1) rotate(0) translate(4 112)">
<title>mod_preacct</title>
<!-- Node281 -->
<g id="node1" class="node">
<title>Node281</title>
<polygon fill="#bfbfbf" stroke="#000000" points="0,-44.5 0,-63.5 73,-63.5 73,-44.5 0,-44.5"/>
<text text-anchor="middle" x="36.5" y="-51.5" font-family="Helvetica,sans-Serif" font-size="10.00" fill="#000000">mod_preacct</text>
</g>
<!-- Node282 -->
<g id="node2" class="node">
<title>Node282</title>
<g id="a_node2"><a xlink:href="rlm__wimax_8c.html#aed020b8107dd3d8d25837c97d945b5d0" target="_top" xlink:title="mod_authorize">
<polygon fill="none" stroke="#000000" points="109,-44.5 109,-63.5 189,-63.5 189,-44.5 109,-44.5"/>
<text text-anchor="middle" x="149" y="-51.5" font-family="Helvetica,sans-Serif" font-size="10.00" fill="#000000">mod_authorize</text>
</a>
</g>
</g>
<!-- Node281&#45;&gt;Node282 -->
<g id="edge1" class="edge">
<title>Node281&#45;&gt;Node282</title>
<path fill="none" stroke="#191970" d="M73.0255,-54C81.2338,-54 90.0838,-54 98.7421,-54"/>
<polygon fill="#191970" stroke="#191970" points="98.7684,-57.5001 108.7684,-54 98.7684,-50.5001 98.7684,-57.5001"/>
</g>
<!-- Node283 -->
<g id="node3" class="node">
<title>Node283</title>
<g id="a_node3"><a xlink:href="pair_8c.html#ac3e6ae214c078ffe6f2648f1c12159ff" target="_top" xlink:title="Find the pair with the matching DAs. ">
<polygon fill="none" stroke="#000000" points="225,-88.5 225,-107.5 321,-107.5 321,-88.5 225,-88.5"/>
<text text-anchor="middle" x="273" y="-95.5" font-family="Helvetica,sans-Serif" font-size="10.00" fill="#000000">fr_pair_find_by_da</text>
</a>
</g>
</g>
<!-- Node282&#45;&gt;Node283 -->
<g id="edge2" class="edge">
<title>Node282&#45;&gt;Node283</title>
<path fill="none" stroke="#191970" d="M175.9062,-63.5473C193.699,-69.8609 217.2415,-78.2147 236.6881,-85.1151"/>
<polygon fill="#191970" stroke="#191970" points="235.5516,-88.4256 246.1464,-88.4713 237.8925,-81.8286 235.5516,-88.4256"/>
</g>
<!-- Node284 -->
<g id="node4" class="node">
<title>Node284</title>
<g id="a_node4"><a xlink:href="pair_8c.html#a9cdc96a74c812a36e4f40da7ef362008" target="_top" xlink:title="Change the length of a buffer for a &quot;string&quot; type value pair. ">
<polygon fill="none" stroke="#000000" points="226,-39 226,-69 320,-69 320,-39 226,-39"/>
<text text-anchor="start" x="234" y="-57" font-family="Helvetica,sans-Serif" font-size="10.00" fill="#000000">fr_pair_value_bstr</text>
<text text-anchor="middle" x="273" y="-46" font-family="Helvetica,sans-Serif" font-size="10.00" fill="#000000">_realloc</text>
</a>
</g>
</g>
<!-- Node282&#45;&gt;Node284 -->
<g id="edge3" class="edge">
<title>Node282&#45;&gt;Node284</title>
<path fill="none" stroke="#191970" d="M189.2592,-54C197.595,-54 206.5312,-54 215.3494,-54"/>
<polygon fill="#191970" stroke="#191970" points="215.604,-57.5001 225.604,-54 215.6039,-50.5001 215.604,-57.5001"/>
</g>
<!-- Node420 -->
<g id="node7" class="node">
<title>Node420</title>
<g id="a_node7"><a xlink:href="hex_8c.html#a6f5a62977bc0e4b94129f1c2c673f02e" target="_top" xlink:title="Convert binary data to a hex string. ">
<polygon fill="none" stroke="#000000" points="242,-.5 242,-19.5 304,-19.5 304,-.5 242,-.5"/>
<text text-anchor="middle" x="273" y="-7.5" font-family="Helvetica,sans-Serif" font-size="10.00" fill="#000000">fr_bin2hex</text>
</a>
</g>
</g>
<!-- Node282&#45;&gt;Node420 -->
<g id="edge6" class="edge">
<title>Node282&#45;&gt;Node420</title>
<path fill="none" stroke="#191970" d="M175.9062,-44.4527C193.699,-38.1391 217.2415,-29.7853 236.6881,-22.8849"/>
<polygon fill="#191970" stroke="#191970" points="237.8925,-26.1714 246.1464,-19.5287 235.5516,-19.5744 237.8925,-26.1714"/>
</g>
<!-- Node285 -->
<g id="node5" class="node">
<title>Node285</title>
<g id="a_node5"><a xlink:href="value_8c.html#ae023cc6dbbe643f27bf6de73314655ee" target="_top" xlink:title="Change the length of a buffer already allocated to a value box. ">
<polygon fill="none" stroke="#000000" points="357,-44.5 357,-63.5 485,-63.5 485,-44.5 357,-44.5"/>
<text text-anchor="middle" x="421" y="-51.5" font-family="Helvetica,sans-Serif" font-size="10.00" fill="#000000">fr_value_box_bstr_realloc</text>
</a>
</g>
</g>
<!-- Node284&#45;&gt;Node285 -->
<g id="edge4" class="edge">
<title>Node284&#45;&gt;Node285</title>
<path fill="none" stroke="#191970" d="M320.235,-54C328.7171,-54 337.7414,-54 346.7703,-54"/>
<polygon fill="#191970" stroke="#191970" points="346.9375,-57.5001 356.9374,-54 346.9374,-50.5001 346.9375,-57.5001"/>
</g>
<!-- Node286 -->
<g id="node6" class="node">
<title>Node286</title>
<g id="a_node6"><a xlink:href="strerror_8c.html#ae701765650b8aea79a3037bc4921d7f8" target="_top" xlink:title="Log to thread local error buffer. ">
<polygon fill="none" stroke="#ff0000" points="521,-44.5 521,-63.5 607,-63.5 607,-44.5 521,-44.5"/>
<text text-anchor="middle" x="564" y="-51.5" font-family="Helvetica,sans-Serif" font-size="10.00" fill="#000000">fr_strerror_printf</text>
</a>
</g>
</g>
<!-- Node285&#45;&gt;Node286 -->
<g id="edge5" class="edge">
<title>Node285&#45;&gt;Node286</title>
<path fill="none" stroke="#191970" d="M485.3884,-54C493.8326,-54 502.4104,-54 510.6444,-54"/>
<polygon fill="#191970" stroke="#191970" points="510.8544,-57.5001 520.8544,-54 510.8543,-50.5001 510.8544,-57.5001"/>
</g>
</g>
</svg>
