<?xml version="1.0" encoding="UTF-8" standalone="no"?>
<!DOCTYPE svg PUBLIC "-//W3C//DTD SVG 1.1//EN"
 "http://www.w3.org/Graphics/SVG/1.1/DTD/svg11.dtd">
<!-- Generated by graphviz version 2.40.1 (20161225.0304)
 -->
<!-- Title: sql_set_last_error_printf Pages: 1 -->
<svg width="190pt" height="66pt"
 viewBox="0.00 0.00 190.00 66.00" xmlns="http://www.w3.org/2000/svg" xmlns:xlink="http://www.w3.org/1999/xlink">
<g id="graph0" class="graph" transform="scale(1 1) rotate(0) translate(4 62)">
<title>sql_set_last_error_printf</title>
<!-- Node1917 -->
<g id="node1" class="node">
<title>Node1917</title>
<polygon fill="#bfbfbf" stroke="#000000" points="0,-14 0,-44 94,-44 94,-14 0,-14"/>
<text text-anchor="start" x="8" y="-32" font-family="Helvetica,sans-Serif" font-size="10.00" fill="#000000">sql_set_last_error</text>
<text text-anchor="middle" x="47" y="-21" font-family="Helvetica,sans-Serif" font-size="10.00" fill="#000000">_printf</text>
</g>
<!-- Node1918 -->
<g id="node2" class="node">
<title>Node1918</title>
<g id="a_node2"><a xlink:href="acutest_8h.html#aecf9a9be8105efb1454cd8c1ef6cb1c5" target="_top" xlink:title="va_start">
<polygon fill="none" stroke="#000000" points="130,-38.5 130,-57.5 182,-57.5 182,-38.5 130,-38.5"/>
<text text-anchor="middle" x="156" y="-45.5" font-family="Helvetica,sans-Serif" font-size="10.00" fill="#000000">va_start</text>
</a>
</g>
</g>
<!-- Node1917&#45;&gt;Node1918 -->
<g id="edge1" class="edge">
<title>Node1917&#45;&gt;Node1918</title>
<path fill="none" stroke="#191970" d="M94.175,-37.2232C102.7515,-38.7182 111.5745,-40.2561 119.7735,-41.6853"/>
<polygon fill="#191970" stroke="#191970" points="119.3071,-45.1567 129.7596,-43.426 120.5092,-38.2607 119.3071,-45.1567"/>
</g>
<!-- Node1919 -->
<g id="node3" class="node">
<title>Node1919</title>
<g id="a_node3"><a xlink:href="acutest_8h.html#a36af1f79dd6adf0809c21e76535034d5" target="_top" xlink:title="va_end">
<polygon fill="none" stroke="#000000" points="132,-.5 132,-19.5 180,-19.5 180,-.5 132,-.5"/>
<text text-anchor="middle" x="156" y="-7.5" font-family="Helvetica,sans-Serif" font-size="10.00" fill="#000000">va_end</text>
</a>
</g>
</g>
<!-- Node1917&#45;&gt;Node1919 -->
<g id="edge2" class="edge">
<title>Node1917&#45;&gt;Node1919</title>
<path fill="none" stroke="#191970" d="M94.175,-20.7768C103.5211,-19.1477 113.1598,-17.4676 121.9648,-15.9327"/>
<polygon fill="#191970" stroke="#191970" points="122.6002,-19.3748 131.8506,-14.2095 121.3981,-12.4788 122.6002,-19.3748"/>
</g>
</g>
</svg>
