<?xml version="1.0" encoding="UTF-8" standalone="no"?>
<!DOCTYPE svg PUBLIC "-//W3C//DTD SVG 1.1//EN"
 "http://www.w3.org/Graphics/SVG/1.1/DTD/svg11.dtd">
<!-- Generated by graphviz version 2.40.1 (20161225.0304)
 -->
<!-- Title: send_local_rlsd_for_con Pages: 1 -->
<!--zoomable 91 -->
<svg id="main" version="1.1" xmlns="http://www.w3.org/2000/svg" xmlns:xlink="http://www.w3.org/1999/xlink" xml:space="preserve" onload="init(evt)">
<style type="text/css"><![CDATA[
.edge:hover path { stroke: red; }
.edge:hover polygon { stroke: red; fill: red; }
]]></style>
<script type="text/javascript"><![CDATA[
var edges = document.getElementsByTagName('g');
if (edges && edges.length) {
  for (var i=0;i<edges.length;i++) {
    if (edges[i].id.substr(0,4)=='edge') {
      edges[i].setAttribute('class','edge');
    }
  }
}
]]></script>
        <defs>
                <circle id="rim" cx="0" cy="0" r="7"/>
                <circle id="rim2" cx="0" cy="0" r="3.5"/>
                <g id="zoomPlus">
                        <use xlink:href="#rim" fill="#404040">
                                <set attributeName="fill" to="#808080" begin="zoomplus.mouseover" end="zoomplus.mouseout"/>
                        </use>
                        <path d="M-4,0h8M0,-4v8" fill="none" stroke="white" stroke-width="1.5" pointer-events="none"/>
                </g>
                <g id="zoomMin">
                        <use xlink:href="#rim" fill="#404040">
                                <set attributeName="fill" to="#808080" begin="zoomminus.mouseover" end="zoomminus.mouseout"/>
                        </use>
                        <path d="M-4,0h8" fill="none" stroke="white" stroke-width="1.5" pointer-events="none"/>
                </g>
                <g id="dirArrow">
                        <path fill="none" stroke="white" stroke-width="1.5" d="M0,-3.0v7 M-2.5,-0.5L0,-3.0L2.5,-0.5"/>
                </g>
               <g id="resetDef">
                       <use xlink:href="#rim2" fill="#404040">
                               <set attributeName="fill" to="#808080" begin="reset.mouseover" end="reset.mouseout"/>
                       </use>
               </g>
        </defs>

<script type="text/javascript">
var viewWidth = 516;
var viewHeight = 91;
var sectionId = 'dynsection-20';
</script>
<script xlink:href="svgpan.js"/>
<svg id="graph" class="graph">
<g id="viewport">
<title>send_local_rlsd_for_con</title>
<!-- Node420 -->
<g id="node1" class="node">
<title>Node420</title>
<polygon fill="#bfbfbf" stroke="#000000" points="0,-41.5 0,-60.5 122,-60.5 122,-41.5 0,-41.5"/>
<text text-anchor="middle" x="61" y="-48.5" font-family="Helvetica,sans-Serif" font-size="10.00" fill="#000000">send_local_rlsd_for_con</text>
</g>
<!-- Node421 -->
<g id="node2" class="node">
<title>Node421</title>
<g id="a_node2"><a xlink:href="bssap__sccp_8c.html#a1d41fe736bf8837da2a2bccead654fe3" target="_top" xlink:title="create_sccp_rlsd">
<polygon fill="none" stroke="#000000" points="166,-63.5 166,-82.5 257,-82.5 257,-63.5 166,-63.5"/>
<text text-anchor="middle" x="211.5" y="-70.5" font-family="Helvetica,sans-Serif" font-size="10.00" fill="#000000">create_sccp_rlsd</text>
</a>
</g>
</g>
<!-- Node420&#45;&gt;Node421 -->
<g id="edge1" class="edge">
<title>Node420&#45;&gt;Node421</title>
<path fill="none" stroke="#191970" d="M122.2141,-59.9482C133.1916,-61.5529 144.5822,-63.218 155.4063,-64.8003"/>
<polygon fill="#191970" stroke="#191970" points="155.1774,-68.3039 165.5785,-66.2872 156.1899,-61.3775 155.1774,-68.3039"/>
</g>
<!-- Node422 -->
<g id="node3" class="node">
<title>Node422</title>
<g id="a_node3"><a xlink:href="mtp__data_8h.html#a6614342054c50a0638197309fc7667a1" target="_top" xlink:title="Send out an SCCP packet on a link set. ">
<polygon fill="none" stroke="#000000" points="158,-14 158,-44 265,-44 265,-14 158,-14"/>
<text text-anchor="start" x="166" y="-32" font-family="Helvetica,sans-Serif" font-size="10.00" fill="#000000">mtp_link_set_submit</text>
<text text-anchor="middle" x="211.5" y="-21" font-family="Helvetica,sans-Serif" font-size="10.00" fill="#000000">_sccp_data</text>
</a>
</g>
</g>
<!-- Node420&#45;&gt;Node422 -->
<g id="edge2" class="edge">
<title>Node420&#45;&gt;Node422</title>
<path fill="none" stroke="#191970" d="M122.2141,-42.0518C130.5454,-40.8339 139.1147,-39.5812 147.4937,-38.3564"/>
<polygon fill="#191970" stroke="#191970" points="148.2026,-41.7901 157.5911,-36.8804 147.19,-34.8637 148.2026,-41.7901"/>
</g>
<!-- Node423 -->
<g id="node4" class="node">
<title>Node423</title>
<g id="a_node4"><a xlink:href="mtp__layer3_8c.html#a3f1285df067389c5d48ee299c0172b33" target="_top" xlink:title="Construct an MTP3 packet. ">
<polygon fill="none" stroke="#000000" points="301,-19.5 301,-38.5 384,-38.5 384,-19.5 301,-19.5"/>
<text text-anchor="middle" x="342.5" y="-26.5" font-family="Helvetica,sans-Serif" font-size="10.00" fill="#000000">mtp_int_submit</text>
</a>
</g>
</g>
<!-- Node422&#45;&gt;Node423 -->
<g id="edge3" class="edge">
<title>Node422&#45;&gt;Node423</title>
<path fill="none" stroke="#191970" d="M265.1607,-29C273.6,-29 282.3106,-29 290.7066,-29"/>
<polygon fill="#191970" stroke="#191970" points="290.7526,-32.5001 300.7526,-29 290.7525,-25.5001 290.7526,-32.5001"/>
</g>
<!-- Node424 -->
<g id="node5" class="node">
<title>Node424</title>
<g id="a_node5"><a xlink:href="mtp__layer3_8c.html#a8106c3d675f459dece18948214e6f26b" target="_top" xlink:title="Allocate the buffer, and fill in header information for an MTP message. ">
<polygon fill="none" stroke="#000000" points="422.5,-38.5 422.5,-57.5 505.5,-57.5 505.5,-38.5 422.5,-38.5"/>
<text text-anchor="middle" x="464" y="-45.5" font-family="Helvetica,sans-Serif" font-size="10.00" fill="#000000">mtp_msg_alloc</text>
</a>
</g>
</g>
<!-- Node423&#45;&gt;Node424 -->
<g id="edge4" class="edge">
<title>Node423&#45;&gt;Node424</title>
<path fill="none" stroke="#191970" d="M384.3134,-35.5387C393.2864,-36.9419 402.8719,-38.4409 412.1721,-39.8952"/>
<polygon fill="#191970" stroke="#191970" points="411.6888,-43.3621 422.1095,-41.4492 412.7704,-36.4462 411.6888,-43.3621"/>
</g>
<!-- Node425 -->
<g id="node6" class="node">
<title>Node425</title>
<g id="a_node6"><a xlink:href="mtp__data_8h.html#a8e5f5804dd9d980fbde40f470ab81fe1" target="_top" xlink:title="mtp_link_submit">
<polygon fill="none" stroke="#000000" points="420,-.5 420,-19.5 508,-19.5 508,-.5 420,-.5"/>
<text text-anchor="middle" x="464" y="-7.5" font-family="Helvetica,sans-Serif" font-size="10.00" fill="#000000">mtp_link_submit</text>
</a>
</g>
</g>
<!-- Node423&#45;&gt;Node425 -->
<g id="edge5" class="edge">
<title>Node423&#45;&gt;Node425</title>
<path fill="none" stroke="#191970" d="M384.3134,-22.4613C392.5035,-21.1805 401.2037,-19.82 409.7317,-18.4864"/>
<polygon fill="#191970" stroke="#191970" points="410.2835,-21.9427 419.6227,-16.9397 409.2019,-15.0268 410.2835,-21.9427"/>
</g>
</g>
</svg>
        <g id="navigator" transform="translate(0 0)" fill="#404254">
                <rect fill="#f2f5e9" fill-opacity="0.5" stroke="#606060" stroke-width=".5" x="0" y="0" width="60" height="60"/>
                <use id="zoomplus" xlink:href="#zoomPlus" x="17" y="9" onmousedown="handleZoom(evt,'in')"/>
                <use id="zoomminus" xlink:href="#zoomMin" x="42" y="9" onmousedown="handleZoom(evt,'out')"/>
                <use id="reset" xlink:href="#resetDef" x="30" y="36" onmousedown="handleReset()"/>
                <g id="arrowUp" xlink:href="#dirArrow" transform="translate(30 24)" onmousedown="handlePan(0,-1)">
                  <use xlink:href="#rim" fill="#404040">
                        <set attributeName="fill" to="#808080" begin="arrowUp.mouseover" end="arrowUp.mouseout"/>
                  </use>
                  <path fill="none" stroke="white" stroke-width="1.5" d="M0,-3.0v7 M-2.5,-0.5L0,-3.0L2.5,-0.5"/>
                </g>
                <g id="arrowRight" xlink:href="#dirArrow" transform="rotate(90) translate(36 -43)" onmousedown="handlePan(1,0)">
                  <use xlink:href="#rim" fill="#404040">
                        <set attributeName="fill" to="#808080" begin="arrowRight.mouseover" end="arrowRight.mouseout"/>
                  </use>
                  <path fill="none" stroke="white" stroke-width="1.5" d="M0,-3.0v7 M-2.5,-0.5L0,-3.0L2.5,-0.5"/>
                </g>
                <g id="arrowDown" xlink:href="#dirArrow" transform="rotate(180) translate(-30 -48)" onmousedown="handlePan(0,1)">
                  <use xlink:href="#rim" fill="#404040">
                        <set attributeName="fill" to="#808080" begin="arrowDown.mouseover" end="arrowDown.mouseout"/>
                  </use>
                  <path fill="none" stroke="white" stroke-width="1.5" d="M0,-3.0v7 M-2.5,-0.5L0,-3.0L2.5,-0.5"/>
                </g>
                <g id="arrowLeft" xlink:href="#dirArrow" transform="rotate(270) translate(-36 17)" onmousedown="handlePan(-1,0)">
                  <use xlink:href="#rim" fill="#404040">
                        <set attributeName="fill" to="#808080" begin="arrowLeft.mouseover" end="arrowLeft.mouseout"/>
                  </use>
                  <path fill="none" stroke="white" stroke-width="1.5" d="M0,-3.0v7 M-2.5,-0.5L0,-3.0L2.5,-0.5"/>
                </g>
        </g>
        <svg viewBox="0 0 15 15" width="100%" height="30px" preserveAspectRatio="xMaxYMin meet">
         <g id="arrow_out" transform="scale(0.3 0.3)">
          <a xlink:href="sccp__state_8c_a2b71287868454b651681cb28eea6a439_cgraph_org.svg" target="_base">
           <rect id="button" ry="5" rx="5" y="6" x="6" height="38" width="38"
                fill="#f2f5e9" fill-opacity="0.5" stroke="#606060" stroke-width="1.0"/>
           <path id="arrow"
             d="M 11.500037,31.436501 C 11.940474,20.09759 22.043105,11.32322 32.158766,21.979434 L 37.068811,17.246167 C 37.068811,17.246167 37.088388,32 37.088388,32 L 22.160133,31.978069 C 22.160133,31.978069 26.997745,27.140456 26.997745,27.140456 C 18.528582,18.264221 13.291696,25.230495 11.500037,31.436501 z"
             style="fill:#404040;"/>
          </a>
         </g>
        </svg>
</svg>
