<?xml version="1.0" encoding="UTF-8" standalone="no"?>
<!DOCTYPE svg PUBLIC "-//W3C//DTD SVG 1.1//EN"
 "http://www.w3.org/Graphics/SVG/1.1/DTD/svg11.dtd">
<!-- Generated by graphviz version 2.40.1 (20161225.0304)
 -->
<!-- Title: m3ua_shutdown Pages: 1 -->
<svg width="479pt" height="85pt"
 viewBox="0.00 0.00 479.00 85.00" xmlns="http://www.w3.org/2000/svg" xmlns:xlink="http://www.w3.org/1999/xlink">
<g id="graph0" class="graph" transform="scale(1 1) rotate(0) translate(4 81)">
<title>m3ua_shutdown</title>
<!-- Node2576 -->
<g id="node1" class="node">
<title>Node2576</title>
<polygon fill="#bfbfbf" stroke="#000000" points="0,-19.5 0,-38.5 88,-38.5 88,-19.5 0,-19.5"/>
<text text-anchor="middle" x="44" y="-26.5" font-family="Helvetica,sans-Serif" font-size="10.00" fill="#000000">m3ua_shutdown</text>
</g>
<!-- Node2577 -->
<g id="node2" class="node">
<title>Node2577</title>
<g id="a_node2"><a xlink:href="sctp__m3ua__client_8c.html#afe34a2540ba9379a2a1e67d21a7607b6" target="_top" xlink:title="m3ua_send_aspdn">
<polygon fill="none" stroke="#000000" points="133,-57.5 133,-76.5 231,-76.5 231,-57.5 133,-57.5"/>
<text text-anchor="middle" x="182" y="-64.5" font-family="Helvetica,sans-Serif" font-size="10.00" fill="#000000">m3ua_send_aspdn</text>
</a>
</g>
</g>
<!-- Node2576&#45;&gt;Node2577 -->
<g id="edge1" class="edge">
<title>Node2576&#45;&gt;Node2577</title>
<path fill="none" stroke="#191970" d="M78.8232,-38.589C96.6377,-43.4944 118.5184,-49.5196 137.5389,-54.7571"/>
<polygon fill="#191970" stroke="#191970" points="136.6175,-58.1336 147.1879,-57.4141 138.476,-51.3848 136.6175,-58.1336"/>
</g>
<!-- Node2579 -->
<g id="node4" class="node">
<title>Node2579</title>
<g id="a_node4"><a xlink:href="sctp__m3ua__client_8c.html#a4c02082eb4e65289d0deefd7e92b6cfa" target="_top" xlink:title="schedule_aspdn_t_ack">
<polygon fill="none" stroke="#000000" points="124,-19.5 124,-38.5 240,-38.5 240,-19.5 124,-19.5"/>
<text text-anchor="middle" x="182" y="-26.5" font-family="Helvetica,sans-Serif" font-size="10.00" fill="#000000">schedule_aspdn_t_ack</text>
</a>
</g>
</g>
<!-- Node2576&#45;&gt;Node2579 -->
<g id="edge3" class="edge">
<title>Node2576&#45;&gt;Node2579</title>
<path fill="none" stroke="#191970" d="M88.0435,-29C96.2076,-29 104.9104,-29 113.6005,-29"/>
<polygon fill="#191970" stroke="#191970" points="113.7631,-32.5001 123.7631,-29 113.763,-25.5001 113.7631,-32.5001"/>
</g>
<!-- Node2581 -->
<g id="node6" class="node">
<title>Node2581</title>
<g id="a_node6"><a xlink:href="sctp__m3ua__client_8c.html#a5cb4be767ca178d7ff9f4c66b1650928" target="_top" xlink:title="clear_link">
<polygon fill="none" stroke="#000000" points="413,-.5 413,-19.5 471,-19.5 471,-.5 413,-.5"/>
<text text-anchor="middle" x="442" y="-7.5" font-family="Helvetica,sans-Serif" font-size="10.00" fill="#000000">clear_link</text>
</a>
</g>
</g>
<!-- Node2576&#45;&gt;Node2581 -->
<g id="edge6" class="edge">
<title>Node2576&#45;&gt;Node2581</title>
<path fill="none" stroke="#191970" d="M76.3876,-19.4934C90.8228,-15.729 108.1203,-11.8598 124,-10 223.8345,1.6927 342.5117,-3.2464 402.7321,-7.0744"/>
<polygon fill="#191970" stroke="#191970" points="402.7213,-10.5812 412.9303,-7.748 403.1828,-3.5964 402.7213,-10.5812"/>
</g>
<!-- Node2578 -->
<g id="node3" class="node">
<title>Node2578</title>
<g id="a_node3"><a xlink:href="sctp__m3ua__client_8c.html#a6b4de97c2f42c70b94cca7f0c5b7ce3c" target="_top" xlink:title="m3ua_conn_send">
<polygon fill="none" stroke="#000000" points="280,-57.5 280,-76.5 373,-76.5 373,-57.5 280,-57.5"/>
<text text-anchor="middle" x="326.5" y="-64.5" font-family="Helvetica,sans-Serif" font-size="10.00" fill="#000000">m3ua_conn_send</text>
</a>
</g>
</g>
<!-- Node2577&#45;&gt;Node2578 -->
<g id="edge2" class="edge">
<title>Node2577&#45;&gt;Node2578</title>
<path fill="none" stroke="#191970" d="M231.3246,-67C243.711,-67 257.1004,-67 269.8146,-67"/>
<polygon fill="#191970" stroke="#191970" points="269.8344,-70.5001 279.8344,-67 269.8344,-63.5001 269.8344,-70.5001"/>
</g>
<!-- Node2580 -->
<g id="node5" class="node">
<title>Node2580</title>
<g id="a_node5"><a xlink:href="sctp__m3ua__client_8c.html#aa552ab66971c607c1a0297e9b99bc6bb" target="_top" xlink:title="aspdn_ack_timeout">
<polygon fill="none" stroke="#000000" points="276,-19.5 276,-38.5 377,-38.5 377,-19.5 276,-19.5"/>
<text text-anchor="middle" x="326.5" y="-26.5" font-family="Helvetica,sans-Serif" font-size="10.00" fill="#000000">aspdn_ack_timeout</text>
</a>
</g>
</g>
<!-- Node2579&#45;&gt;Node2580 -->
<g id="edge4" class="edge">
<title>Node2579&#45;&gt;Node2580</title>
<path fill="none" stroke="#191970" d="M240.3572,-29C248.7101,-29 257.3206,-29 265.7188,-29"/>
<polygon fill="#191970" stroke="#191970" points="265.8261,-32.5001 275.8261,-29 265.8261,-25.5001 265.8261,-32.5001"/>
</g>
<!-- Node2580&#45;&gt;Node2581 -->
<g id="edge5" class="edge">
<title>Node2580&#45;&gt;Node2581</title>
<path fill="none" stroke="#191970" d="M377.16,-20.6663C385.7688,-19.2502 394.591,-17.7989 402.8458,-16.441"/>
<polygon fill="#191970" stroke="#191970" points="403.6403,-19.8574 412.9395,-14.7805 402.504,-12.9502 403.6403,-19.8574"/>
</g>
</g>
</svg>
