<?xml version="1.0" encoding="UTF-8" standalone="no"?>
<!DOCTYPE svg PUBLIC "-//W3C//DTD SVG 1.1//EN"
 "http://www.w3.org/Graphics/SVG/1.1/DTD/svg11.dtd">
<!-- Generated by graphviz version 2.40.1 (20161225.0304)
 -->
<!-- Title: m2ua_conn_read Pages: 1 -->
<svg width="473pt" height="28pt"
 viewBox="0.00 0.00 473.00 28.00" xmlns="http://www.w3.org/2000/svg" xmlns:xlink="http://www.w3.org/1999/xlink">
<g id="graph0" class="graph" transform="scale(1 1) rotate(0) translate(4 24)">
<title>m2ua_conn_read</title>
<!-- Node301 -->
<g id="node1" class="node">
<title>Node301</title>
<polygon fill="#bfbfbf" stroke="#000000" points="0,-.5 0,-19.5 91,-19.5 91,-.5 0,-.5"/>
<text text-anchor="middle" x="45.5" y="-7.5" font-family="Helvetica,sans-Serif" font-size="10.00" fill="#000000">m2ua_conn_read</text>
</g>
<!-- Node302 -->
<g id="node2" class="node">
<title>Node302</title>
<g id="a_node2"><a xlink:href="sctp__m2ua_8c.html#abd0f5b30a1f77f2a401ccf7f9a1dd4f6" target="_top" xlink:title="sctp_trans_accept">
<polygon fill="none" stroke="#000000" points="127,-.5 127,-19.5 224,-19.5 224,-.5 127,-.5"/>
<text text-anchor="middle" x="175.5" y="-7.5" font-family="Helvetica,sans-Serif" font-size="10.00" fill="#000000">sctp_trans_accept</text>
</a>
</g>
</g>
<!-- Node301&#45;&gt;Node302 -->
<g id="edge1" class="edge">
<title>Node301&#45;&gt;Node302</title>
<path fill="none" stroke="#191970" d="M101.5316,-10C110.0095,-10 118.695,-10 126.996,-10"/>
<polygon fill="#191970" stroke="#191970" points="101.3332,-6.5001 91.3331,-10 101.3331,-13.5001 101.3332,-6.5001"/>
</g>
<!-- Node303 -->
<g id="node3" class="node">
<title>Node303</title>
<g id="a_node3"><a xlink:href="sctp__m2ua_8c.html#adca7d07284140a5efc8f3eacfeaf4b58" target="_top" xlink:title="sctp_m2ua_transport_bind">
<polygon fill="none" stroke="#000000" points="260,-.5 260,-19.5 391,-19.5 391,-.5 260,-.5"/>
<text text-anchor="middle" x="325.5" y="-7.5" font-family="Helvetica,sans-Serif" font-size="10.00" fill="#000000">sctp_m2ua_transport_bind</text>
</a>
</g>
</g>
<!-- Node302&#45;&gt;Node303 -->
<g id="edge2" class="edge">
<title>Node302&#45;&gt;Node303</title>
<path fill="none" stroke="#191970" d="M234.2687,-10C242.6633,-10 251.3427,-10 259.8587,-10"/>
<polygon fill="#191970" stroke="#191970" points="234.2007,-6.5001 224.2007,-10 234.2007,-13.5001 234.2007,-6.5001"/>
</g>
<!-- Node304 -->
<g id="node4" class="node">
<title>Node304</title>
<g id="a_node4"><a xlink:href="main__stp_8c.html#a3c04138a5bfe5d72780bb7e82a18e627" target="_top" xlink:title="main">
<polygon fill="none" stroke="#000000" points="427,-.5 427,-19.5 465,-19.5 465,-.5 427,-.5"/>
<text text-anchor="middle" x="446" y="-7.5" font-family="Helvetica,sans-Serif" font-size="10.00" fill="#000000">main</text>
</a>
</g>
</g>
<!-- Node303&#45;&gt;Node304 -->
<g id="edge3" class="edge">
<title>Node303&#45;&gt;Node304</title>
<path fill="none" stroke="#191970" d="M401.0898,-10C410.5865,-10 419.5385,-10 426.9137,-10"/>
<polygon fill="#191970" stroke="#191970" points="401.0394,-6.5001 391.0394,-10 401.0393,-13.5001 401.0394,-6.5001"/>
</g>
</g>
</svg>
