<?xml version="1.0" encoding="UTF-8" standalone="no"?>
<!DOCTYPE svg PUBLIC "-//W3C//DTD SVG 1.1//EN"
 "http://www.w3.org/Graphics/SVG/1.1/DTD/svg11.dtd">
<!-- Generated by graphviz version 2.40.1 (20161225.0304)
 -->
<!-- Title: reg_rsp_timeout Pages: 1 -->
<svg width="779pt" height="66pt"
 viewBox="0.00 0.00 779.00 66.00" xmlns="http://www.w3.org/2000/svg" xmlns:xlink="http://www.w3.org/1999/xlink">
<g id="graph0" class="graph" transform="scale(1 1) rotate(0) translate(4 62)">
<title>reg_rsp_timeout</title>
<!-- Node3022 -->
<g id="node1" class="node">
<title>Node3022</title>
<polygon fill="#bfbfbf" stroke="#000000" points="0,-19.5 0,-38.5 86,-38.5 86,-19.5 0,-19.5"/>
<text text-anchor="middle" x="43" y="-26.5" font-family="Helvetica,sans-Serif" font-size="10.00" fill="#000000">reg_rsp_timeout</text>
</g>
<!-- Node3023 -->
<g id="node2" class="node">
<title>Node3023</title>
<g id="a_node2"><a xlink:href="sctp__m3ua__client_8c.html#a7bc625c09f8377a442fab792c2478ecd" target="_top" xlink:title="m3ua_send_reg_req">
<polygon fill="none" stroke="#000000" points="122,-19.5 122,-38.5 226,-38.5 226,-19.5 122,-19.5"/>
<text text-anchor="middle" x="174" y="-26.5" font-family="Helvetica,sans-Serif" font-size="10.00" fill="#000000">m3ua_send_reg_req</text>
</a>
</g>
</g>
<!-- Node3022&#45;&gt;Node3023 -->
<g id="edge1" class="edge">
<title>Node3022&#45;&gt;Node3023</title>
<path fill="none" stroke="#191970" d="M96.2948,-29C104.6674,-29 113.3158,-29 121.6665,-29"/>
<polygon fill="#191970" stroke="#191970" points="96.2574,-25.5001 86.2574,-29 96.2573,-32.5001 96.2574,-25.5001"/>
</g>
<!-- Node3024 -->
<g id="node3" class="node">
<title>Node3024</title>
<g id="a_node3"><a xlink:href="sctp__m3ua__client_8c.html#ad21af3e249e0242bc1b14baa9bbff5c5" target="_top" xlink:title="xua_from_part">
<polygon fill="none" stroke="#000000" points="407,-38.5 407,-57.5 486,-57.5 486,-38.5 407,-38.5"/>
<text text-anchor="middle" x="446.5" y="-45.5" font-family="Helvetica,sans-Serif" font-size="10.00" fill="#000000">xua_from_part</text>
</a>
</g>
</g>
<!-- Node3023&#45;&gt;Node3024 -->
<g id="edge2" class="edge">
<title>Node3023&#45;&gt;Node3024</title>
<path fill="none" stroke="#191970" d="M236.4071,-33.3513C288.8166,-37.0056 362.1125,-42.1161 406.8335,-45.2343"/>
<polygon fill="#191970" stroke="#191970" points="236.4376,-29.845 226.2183,-32.6409 235.9506,-36.8281 236.4376,-29.845"/>
</g>
<!-- Node3034 -->
<g id="node6" class="node">
<title>Node3034</title>
<g id="a_node6"><a xlink:href="sctp__m3ua__client_8c.html#a47f79c22f938efe4c0cbd40bc0adf142" target="_top" xlink:title="m3ua_handle_aspsm">
<polygon fill="none" stroke="#000000" points="262,-.5 262,-19.5 371,-19.5 371,-.5 262,-.5"/>
<text text-anchor="middle" x="316.5" y="-7.5" font-family="Helvetica,sans-Serif" font-size="10.00" fill="#000000">m3ua_handle_aspsm</text>
</a>
</g>
</g>
<!-- Node3023&#45;&gt;Node3034 -->
<g id="edge6" class="edge">
<title>Node3023&#45;&gt;Node3034</title>
<path fill="none" stroke="#191970" d="M236.1794,-20.7094C244.7306,-19.5693 253.459,-18.4055 261.861,-17.2852"/>
<polygon fill="#191970" stroke="#191970" points="235.7023,-17.242 226.2526,-22.033 236.6275,-24.1806 235.7023,-17.242"/>
</g>
<!-- Node3025 -->
<g id="node4" class="node">
<title>Node3025</title>
<g id="a_node4"><a xlink:href="sctp__m3ua__client_8c.html#ae76c9f21a588f917c6eb763fe925b105" target="_top" xlink:title="m3ua_handle_reg_rsp">
<polygon fill="none" stroke="#000000" points="522,-38.5 522,-57.5 634,-57.5 634,-38.5 522,-38.5"/>
<text text-anchor="middle" x="578" y="-45.5" font-family="Helvetica,sans-Serif" font-size="10.00" fill="#000000">m3ua_handle_reg_rsp</text>
</a>
</g>
</g>
<!-- Node3024&#45;&gt;Node3025 -->
<g id="edge3" class="edge">
<title>Node3024&#45;&gt;Node3025</title>
<path fill="none" stroke="#191970" d="M496.5484,-41.4241C504.8123,-41.2376 513.4277,-41.2009 521.8299,-41.3141"/>
<polygon fill="#191970" stroke="#191970" points="496.1983,-37.9331 486.3112,-41.7404 496.4145,-44.9298 496.1983,-37.9331"/>
</g>
<!-- Node3025&#45;&gt;Node3024 -->
<g id="edge4" class="edge">
<title>Node3025&#45;&gt;Node3024</title>
<path fill="none" stroke="#191970" d="M511.6811,-54.7498C503.0102,-54.7429 494.3524,-54.5795 486.3112,-54.2596"/>
<polygon fill="#191970" stroke="#191970" points="511.8521,-58.2489 521.8299,-54.6859 511.808,-51.249 511.8521,-58.2489"/>
</g>
<!-- Node3026 -->
<g id="node5" class="node">
<title>Node3026</title>
<g id="a_node5"><a xlink:href="sctp__m3ua__client_8c.html#a4ad1e0e1dd47a10d9e4d106a62f0c2c0" target="_top" xlink:title="m3ua_conn_handle">
<polygon fill="none" stroke="#ff0000" points="670,-19.5 670,-38.5 771,-38.5 771,-19.5 670,-19.5"/>
<text text-anchor="middle" x="720.5" y="-26.5" font-family="Helvetica,sans-Serif" font-size="10.00" fill="#000000">m3ua_conn_handle</text>
</a>
</g>
</g>
<!-- Node3025&#45;&gt;Node3026 -->
<g id="edge5" class="edge">
<title>Node3025&#45;&gt;Node3026</title>
<path fill="none" stroke="#191970" d="M644.2689,-39.1641C652.8068,-38.0258 661.4406,-36.8746 669.6766,-35.7765"/>
<polygon fill="#191970" stroke="#191970" points="643.7694,-35.6997 634.3198,-40.4907 644.6947,-42.6383 643.7694,-35.6997"/>
</g>
<!-- Node3034&#45;&gt;Node3024 -->
<g id="edge7" class="edge">
<title>Node3034&#45;&gt;Node3024</title>
<path fill="none" stroke="#191970" d="M359.3839,-22.5353C377.0689,-27.7048 397.2337,-33.5991 413.706,-38.4141"/>
<polygon fill="#191970" stroke="#191970" points="359.8848,-19.0353 349.3045,-19.589 357.9208,-25.7542 359.8848,-19.0353"/>
</g>
<!-- Node3034&#45;&gt;Node3026 -->
<g id="edge8" class="edge">
<title>Node3034&#45;&gt;Node3026</title>
<path fill="none" stroke="#191970" d="M381.4007,-13.0523C461.7107,-16.8292 596.7696,-23.181 669.855,-26.6182"/>
<polygon fill="#191970" stroke="#191970" points="381.5591,-9.5559 371.4057,-12.5822 381.2302,-16.5482 381.5591,-9.5559"/>
</g>
</g>
</svg>
