<?xml version="1.0" encoding="UTF-8" standalone="no"?>
<!DOCTYPE svg PUBLIC "-//W3C//DTD SVG 1.1//EN"
 "http://www.w3.org/Graphics/SVG/1.1/DTD/svg11.dtd">
<!-- Generated by graphviz version 2.40.1 (20161225.0304)
 -->
<!-- Title: sigtran_client_thread_unregister Pages: 1 -->
<!--zoomable 332 -->
<svg id="main" version="1.1" xmlns="http://www.w3.org/2000/svg" xmlns:xlink="http://www.w3.org/1999/xlink" xml:space="preserve" onload="init(evt)">
<style type="text/css"><![CDATA[
.edge:hover path { stroke: red; }
.edge:hover polygon { stroke: red; fill: red; }
]]></style>
<script type="text/javascript"><![CDATA[
var edges = document.getElementsByTagName('g');
if (edges && edges.length) {
  for (var i=0;i<edges.length;i++) {
    if (edges[i].id.substr(0,4)=='edge') {
      edges[i].setAttribute('class','edge');
    }
  }
}
]]></script>
        <defs>
                <circle id="rim" cx="0" cy="0" r="7"/>
                <circle id="rim2" cx="0" cy="0" r="3.5"/>
                <g id="zoomPlus">
                        <use xlink:href="#rim" fill="#404040">
                                <set attributeName="fill" to="#808080" begin="zoomplus.mouseover" end="zoomplus.mouseout"/>
                        </use>
                        <path d="M-4,0h8M0,-4v8" fill="none" stroke="white" stroke-width="1.5" pointer-events="none"/>
                </g>
                <g id="zoomMin">
                        <use xlink:href="#rim" fill="#404040">
                                <set attributeName="fill" to="#808080" begin="zoomminus.mouseover" end="zoomminus.mouseout"/>
                        </use>
                        <path d="M-4,0h8" fill="none" stroke="white" stroke-width="1.5" pointer-events="none"/>
                </g>
                <g id="dirArrow">
                        <path fill="none" stroke="white" stroke-width="1.5" d="M0,-3.0v7 M-2.5,-0.5L0,-3.0L2.5,-0.5"/>
                </g>
               <g id="resetDef">
                       <use xlink:href="#rim2" fill="#404040">
                               <set attributeName="fill" to="#808080" begin="reset.mouseover" end="reset.mouseout"/>
                       </use>
               </g>
        </defs>

<script type="text/javascript">
var viewWidth = 921;
var viewHeight = 332;
var sectionId = 'dynsection-15';
</script>
<script xlink:href="svgpan.js"/>
<svg id="graph" class="graph">
<g id="viewport">
<title>sigtran_client_thread_unregister</title>
<!-- Node3389 -->
<g id="node1" class="node">
<title>Node3389</title>
<polygon fill="#bfbfbf" stroke="#000000" points="0,-109 0,-139 107,-139 107,-109 0,-109"/>
<text text-anchor="start" x="8" y="-127" font-family="Helvetica,sans-Serif" font-size="10.00" fill="#000000">sigtran_client_thread</text>
<text text-anchor="middle" x="53.5" y="-116" font-family="Helvetica,sans-Serif" font-size="10.00" fill="#000000">_unregister</text>
</g>
<!-- Node3390 -->
<g id="node2" class="node">
<title>Node3390</title>
<g id="a_node2"><a xlink:href="src_2modules_2rlm__sigtran_2client_8c.html#acfd249da44db8f9899102a5bdd87cdf4" target="_top" xlink:title="sigtran_client_do_transaction">
<polygon fill="none" stroke="#000000" points="143,-181.5 143,-200.5 286,-200.5 286,-181.5 143,-181.5"/>
<text text-anchor="middle" x="214.5" y="-188.5" font-family="Helvetica,sans-Serif" font-size="10.00" fill="#000000">sigtran_client_do_transaction</text>
</a>
</g>
</g>
<!-- Node3389&#45;&gt;Node3390 -->
<g id="edge1" class="edge">
<title>Node3389&#45;&gt;Node3390</title>
<path fill="none" stroke="#191970" d="M89.6315,-139.0361C117.3754,-150.5817 155.3443,-166.3824 182.1082,-177.5202"/>
<polygon fill="#191970" stroke="#191970" points="180.8447,-180.7853 191.4219,-181.3961 183.5342,-174.3226 180.8447,-180.7853"/>
</g>
<!-- Node4017 -->
<g id="node13" class="node">
<title>Node4017</title>
<g id="a_node13"><a xlink:href="lib_2util_2event_8c.html#ad0f349a648681867b3758de01da84709" target="_top" xlink:title="Remove a file descriptor from the event loop. ">
<polygon fill="none" stroke="#000000" points="543,-38.5 543,-57.5 640,-57.5 640,-38.5 543,-38.5"/>
<text text-anchor="middle" x="591.5" y="-45.5" font-family="Helvetica,sans-Serif" font-size="10.00" fill="#000000">fr_event_fd_delete</text>
</a>
</g>
</g>
<!-- Node3389&#45;&gt;Node4017 -->
<g id="edge17" class="edge">
<title>Node3389&#45;&gt;Node4017</title>
<path fill="none" stroke="#191970" d="M107.0524,-116.435C208.3961,-102.1188 427.4791,-71.1702 532.7251,-56.3028"/>
<polygon fill="#191970" stroke="#191970" points="533.4398,-59.7367 542.8519,-54.8722 532.4606,-52.8055 533.4398,-59.7367"/>
</g>
<!-- Node3391 -->
<g id="node3" class="node">
<title>Node3391</title>
<g id="a_node3"><a xlink:href="syserror_8c.html#a18747f9d648d0aeecc4a8b27ac0435aa" target="_top" xlink:title="Guaranteed to be thread&#45;safe version of strerror. ">
<polygon fill="none" stroke="#000000" points="322,-209.5 322,-228.5 385,-228.5 385,-209.5 322,-209.5"/>
<text text-anchor="middle" x="353.5" y="-216.5" font-family="Helvetica,sans-Serif" font-size="10.00" fill="#000000">fr_syserror</text>
</a>
</g>
</g>
<!-- Node3390&#45;&gt;Node3391 -->
<g id="edge2" class="edge">
<title>Node3390&#45;&gt;Node3391</title>
<path fill="none" stroke="#191970" d="M261.9471,-200.5577C278.2049,-203.8326 296.2589,-207.4694 312.0083,-210.642"/>
<polygon fill="#191970" stroke="#191970" points="311.4889,-214.1076 321.9832,-212.6513 312.8713,-207.2454 311.4889,-214.1076"/>
</g>
<!-- Node3392 -->
<g id="node4" class="node">
<title>Node3392</title>
<g id="a_node4"><a xlink:href="strerror_8c.html#a2c8e65d6d4b73fb705cc023f60acb099" target="_top" xlink:title="Print the current error to stderr with a prefix. ">
<polygon fill="none" stroke="#000000" points="692.5,-190.5 692.5,-209.5 745.5,-209.5 745.5,-190.5 692.5,-190.5"/>
<text text-anchor="middle" x="719" y="-197.5" font-family="Helvetica,sans-Serif" font-size="10.00" fill="#000000">fr_perror</text>
</a>
</g>
</g>
<!-- Node3391&#45;&gt;Node3392 -->
<g id="edge3" class="edge">
<title>Node3391&#45;&gt;Node3392</title>
<path fill="none" stroke="#191970" d="M385.0634,-221.7972C438.0469,-225.8689 548.1023,-231.6506 640,-219 654.0314,-217.0684 669.2088,-213.7293 682.4748,-210.3838"/>
<polygon fill="#191970" stroke="#191970" points="683.4037,-213.7587 692.1962,-207.8475 681.6365,-206.9854 683.4037,-213.7587"/>
</g>
<!-- Node3399 -->
<g id="node8" class="node">
<title>Node3399</title>
<g id="a_node8"><a xlink:href="syserror_8c.html#ab1238c031182d57dae9463e447d9401b" target="_top" xlink:title="_fr_logging_free">
<polygon fill="none" stroke="#000000" points="421,-304.5 421,-323.5 507,-323.5 507,-304.5 421,-304.5"/>
<text text-anchor="middle" x="464" y="-311.5" font-family="Helvetica,sans-Serif" font-size="10.00" fill="#000000">_fr_logging_free</text>
</a>
</g>
</g>
<!-- Node3391&#45;&gt;Node3399 -->
<g id="edge7" class="edge">
<title>Node3391&#45;&gt;Node3399</title>
<path fill="none" stroke="#191970" d="M359.9328,-228.6001C370.8661,-244.3002 394.4836,-275.6538 421,-295 423.3489,-296.7137 425.8767,-298.3184 428.4882,-299.8112"/>
<polygon fill="#191970" stroke="#191970" points="427.0549,-303.0094 437.5511,-304.4517 430.2452,-296.7787 427.0549,-303.0094"/>
</g>
<!-- Node3400 -->
<g id="node9" class="node">
<title>Node3400</title>
<g id="a_node9"><a xlink:href="snprintf_8c.html#a8da10a1735da7051de5c298ca7448eee" target="_top" xlink:title="snprintf">
<polygon fill="none" stroke="#000000" points="439.5,-133.5 439.5,-152.5 488.5,-152.5 488.5,-133.5 439.5,-133.5"/>
<text text-anchor="middle" x="464" y="-140.5" font-family="Helvetica,sans-Serif" font-size="10.00" fill="#000000">snprintf</text>
</a>
</g>
</g>
<!-- Node3391&#45;&gt;Node3400 -->
<g id="edge8" class="edge">
<title>Node3391&#45;&gt;Node3400</title>
<path fill="none" stroke="#191970" d="M367.4949,-209.3745C386.1762,-196.5259 419.4774,-173.6219 441.6535,-158.3695"/>
<polygon fill="#191970" stroke="#191970" points="443.8628,-161.098 450.1187,-152.5473 439.896,-155.3304 443.8628,-161.098"/>
</g>
<!-- Node3498 -->
<g id="node12" class="node">
<title>Node3498</title>
<g id="a_node12"><a xlink:href="strlcpy_8c.html#a59f9599e77ee687b1daaa179f8b9a2f3" target="_top" xlink:title="strlcpy">
<polygon fill="none" stroke="#000000" points="441,-266.5 441,-285.5 487,-285.5 487,-266.5 441,-266.5"/>
<text text-anchor="middle" x="464" y="-273.5" font-family="Helvetica,sans-Serif" font-size="10.00" fill="#000000">strlcpy</text>
</a>
</g>
</g>
<!-- Node3391&#45;&gt;Node3498 -->
<g id="edge16" class="edge">
<title>Node3391&#45;&gt;Node3498</title>
<path fill="none" stroke="#191970" d="M372.2448,-228.6693C389.8926,-237.7727 416.5348,-251.5157 436.5714,-261.8513"/>
<polygon fill="#191970" stroke="#191970" points="435.0402,-264.9996 445.532,-266.4735 438.2493,-258.7785 435.0402,-264.9996"/>
</g>
<!-- Node3393 -->
<g id="node5" class="node">
<title>Node3393</title>
<g id="a_node5"><a xlink:href="acutest_8h.html#aecf9a9be8105efb1454cd8c1ef6cb1c5" target="_top" xlink:title="va_start">
<polygon fill="none" stroke="#000000" points="829.5,-152.5 829.5,-171.5 881.5,-171.5 881.5,-152.5 829.5,-152.5"/>
<text text-anchor="middle" x="855.5" y="-159.5" font-family="Helvetica,sans-Serif" font-size="10.00" fill="#000000">va_start</text>
</a>
</g>
</g>
<!-- Node3392&#45;&gt;Node3393 -->
<g id="edge4" class="edge">
<title>Node3392&#45;&gt;Node3393</title>
<path fill="none" stroke="#191970" d="M745.6426,-192.583C766.729,-186.7128 796.384,-178.4572 819.5691,-172.0027"/>
<polygon fill="#191970" stroke="#191970" points="820.6933,-175.3229 829.3883,-169.2692 818.8159,-168.5794 820.6933,-175.3229"/>
</g>
<!-- Node3394 -->
<g id="node6" class="node">
<title>Node3394</title>
<g id="a_node6"><a xlink:href="acutest_8h.html#a36af1f79dd6adf0809c21e76535034d5" target="_top" xlink:title="va_end">
<polygon fill="none" stroke="#000000" points="831.5,-76.5 831.5,-95.5 879.5,-95.5 879.5,-76.5 831.5,-76.5"/>
<text text-anchor="middle" x="855.5" y="-83.5" font-family="Helvetica,sans-Serif" font-size="10.00" fill="#000000">va_end</text>
</a>
</g>
</g>
<!-- Node3392&#45;&gt;Node3394 -->
<g id="edge5" class="edge">
<title>Node3392&#45;&gt;Node3394</title>
<path fill="none" stroke="#191970" d="M730.6379,-190.2804C754.1096,-170.6777 807.3328,-126.2276 836.1298,-102.1773"/>
<polygon fill="#191970" stroke="#191970" points="838.4598,-104.7915 843.8915,-95.695 833.9727,-99.4188 838.4598,-104.7915"/>
</g>
<!-- Node3395 -->
<g id="node7" class="node">
<title>Node3395</title>
<g id="a_node7"><a xlink:href="strerror_8c.html#a4bdc99630960307e43639975cd3c5f0d" target="_top" xlink:title="Pop the last library error with marker information. ">
<polygon fill="none" stroke="#ff0000" points="798,-190.5 798,-209.5 913,-209.5 913,-190.5 798,-190.5"/>
<text text-anchor="middle" x="855.5" y="-197.5" font-family="Helvetica,sans-Serif" font-size="10.00" fill="#000000">fr_strerror_marker_pop</text>
</a>
</g>
</g>
<!-- Node3392&#45;&gt;Node3395 -->
<g id="edge6" class="edge">
<title>Node3392&#45;&gt;Node3395</title>
<path fill="none" stroke="#191970" d="M745.6426,-200C757.746,-200 772.6725,-200 787.578,-200"/>
<polygon fill="#191970" stroke="#191970" points="787.859,-203.5001 797.859,-200 787.859,-196.5001 787.859,-203.5001"/>
</g>
<!-- Node3400&#45;&gt;Node3393 -->
<g id="edge9" class="edge">
<title>Node3400&#45;&gt;Node3393</title>
<path fill="none" stroke="#191970" d="M488.7871,-144.2029C555.6498,-147.4479 739.9741,-156.3934 818.8803,-160.2228"/>
<polygon fill="#191970" stroke="#191970" points="819.1335,-163.7391 829.2914,-160.7281 819.4729,-156.7473 819.1335,-163.7391"/>
</g>
<!-- Node3400&#45;&gt;Node3394 -->
<g id="edge12" class="edge">
<title>Node3400&#45;&gt;Node3394</title>
<path fill="none" stroke="#191970" d="M479.344,-133.3918C494.7777,-124.2763 519.5807,-111.0932 543,-105 641.5453,-79.3608 763.2122,-81.0719 821.3866,-83.8341"/>
<polygon fill="#191970" stroke="#191970" points="821.3231,-87.3354 831.4903,-84.3558 821.6841,-80.3447 821.3231,-87.3354"/>
</g>
<!-- Node3401 -->
<g id="node10" class="node">
<title>Node3401</title>
<g id="a_node10"><a xlink:href="snprintf_8c.html#a242a1ad85c2e07e0d5d73b6342d97f13" target="_top" xlink:title="vsnprintf">
<polygon fill="none" stroke="#ff0000" points="564.5,-114.5 564.5,-133.5 618.5,-133.5 618.5,-114.5 564.5,-114.5"/>
<text text-anchor="middle" x="591.5" y="-121.5" font-family="Helvetica,sans-Serif" font-size="10.00" fill="#000000">vsnprintf</text>
</a>
</g>
</g>
<!-- Node3400&#45;&gt;Node3401 -->
<g id="edge10" class="edge">
<title>Node3400&#45;&gt;Node3401</title>
<path fill="none" stroke="#191970" d="M488.5833,-133.8786C507.2395,-129.6734 533.2022,-125.5583 554.3828,-123.3346"/>
<polygon fill="#191970" stroke="#191970" points="554.713,-126.8191 564.3435,-122.4028 554.0609,-119.8495 554.713,-126.8191"/>
</g>
<!-- Node3413 -->
<g id="node11" class="node">
<title>Node3413</title>
<g id="a_node11"><a xlink:href="radclient_8c.html#a3c04138a5bfe5d72780bb7e82a18e627" target="_top" xlink:title="main">
<polygon fill="none" stroke="#ff0000" points="572.5,-190.5 572.5,-209.5 610.5,-209.5 610.5,-190.5 572.5,-190.5"/>
<text text-anchor="middle" x="591.5" y="-197.5" font-family="Helvetica,sans-Serif" font-size="10.00" fill="#000000">main</text>
</a>
</g>
</g>
<!-- Node3400&#45;&gt;Node3413 -->
<g id="edge13" class="edge">
<title>Node3400&#45;&gt;Node3413</title>
<path fill="none" stroke="#191970" d="M485.3406,-152.5405C506.6494,-162.0668 539.5276,-176.7653 563.0465,-187.2796"/>
<polygon fill="#191970" stroke="#191970" points="561.6222,-190.4766 572.1799,-191.3628 564.4791,-184.0862 561.6222,-190.4766"/>
</g>
<!-- Node3401&#45;&gt;Node3400 -->
<g id="edge11" class="edge">
<title>Node3401&#45;&gt;Node3400</title>
<path fill="none" stroke="#191970" d="M564.7912,-133.5932C545.5648,-137.7979 519.4557,-141.8445 498.6285,-143.9201"/>
<polygon fill="#191970" stroke="#191970" points="498.242,-140.4404 488.5833,-144.7946 498.8492,-147.414 498.242,-140.4404"/>
</g>
<!-- Node3413&#45;&gt;Node3391 -->
<g id="edge15" class="edge">
<title>Node3413&#45;&gt;Node3391</title>
<path fill="none" stroke="#191970" d="M572.2282,-201.5385C533.9012,-204.5982 447.3342,-211.509 395.333,-215.6604"/>
<polygon fill="#191970" stroke="#191970" points="394.7943,-212.1922 385.1046,-216.4769 395.3514,-219.17 394.7943,-212.1922"/>
</g>
<!-- Node3413&#45;&gt;Node3392 -->
<g id="edge14" class="edge">
<title>Node3413&#45;&gt;Node3392</title>
<path fill="none" stroke="#191970" d="M610.588,-200C629.3838,-200 658.5888,-200 681.9529,-200"/>
<polygon fill="#191970" stroke="#191970" points="682.2184,-203.5001 692.2184,-200 682.2184,-196.5001 682.2184,-203.5001"/>
</g>
<!-- Node3729 -->
<g id="node14" class="node">
<title>Node3729</title>
<g id="a_node14"><a xlink:href="rbtree_8c.html#ac6772a18f3e04b23f71ad7994c7587ed" target="_top" xlink:title="Find an element in the tree, returning the data, not the node. ">
<polygon fill="none" stroke="#ff0000" points="678.5,-.5 678.5,-19.5 759.5,-19.5 759.5,-.5 678.5,-.5"/>
<text text-anchor="middle" x="719" y="-7.5" font-family="Helvetica,sans-Serif" font-size="10.00" fill="#000000">rbtree_finddata</text>
</a>
</g>
</g>
<!-- Node4017&#45;&gt;Node3729 -->
<g id="edge18" class="edge">
<title>Node4017&#45;&gt;Node3729</title>
<path fill="none" stroke="#191970" d="M623.6736,-38.411C639.8307,-33.5956 659.608,-27.7012 676.9518,-22.532"/>
<polygon fill="#191970" stroke="#191970" points="678.2529,-25.7964 686.8367,-19.5859 676.2535,-19.088 678.2529,-25.7964"/>
</g>
<!-- Node3424 -->
<g id="node15" class="node">
<title>Node3424</title>
<g id="a_node15"><a xlink:href="strerror_8c.html#ae701765650b8aea79a3037bc4921d7f8" target="_top" xlink:title="Log to thread local error buffer. ">
<polygon fill="none" stroke="#ff0000" points="676,-38.5 676,-57.5 762,-57.5 762,-38.5 676,-38.5"/>
<text text-anchor="middle" x="719" y="-45.5" font-family="Helvetica,sans-Serif" font-size="10.00" fill="#000000">fr_strerror_printf</text>
</a>
</g>
</g>
<!-- Node4017&#45;&gt;Node3424 -->
<g id="edge19" class="edge">
<title>Node4017&#45;&gt;Node3424</title>
<path fill="none" stroke="#191970" d="M640.066,-48C648.4713,-48 657.2505,-48 665.7717,-48"/>
<polygon fill="#191970" stroke="#191970" points="665.9954,-51.5001 675.9954,-48 665.9954,-44.5001 665.9954,-51.5001"/>
</g>
<!-- Node3424&#45;&gt;Node3393 -->
<g id="edge20" class="edge">
<title>Node3424&#45;&gt;Node3393</title>
<path fill="none" stroke="#191970" d="M730.6379,-57.7196C754.1096,-77.3223 807.3328,-121.7724 836.1298,-145.8227"/>
<polygon fill="#191970" stroke="#191970" points="833.9727,-148.5812 843.8915,-152.305 838.4598,-143.2085 833.9727,-148.5812"/>
</g>
<!-- Node3424&#45;&gt;Node3394 -->
<g id="edge21" class="edge">
<title>Node3424&#45;&gt;Node3394</title>
<path fill="none" stroke="#191970" d="M753.4447,-57.589C774.3493,-63.4086 800.9148,-70.8041 821.7012,-76.5908"/>
<polygon fill="#191970" stroke="#191970" points="820.8188,-79.9782 831.3912,-79.2884 822.6962,-73.2346 820.8188,-79.9782"/>
</g>
</g>
</svg>
        <g id="navigator" transform="translate(0 0)" fill="#404254">
                <rect fill="#f2f5e9" fill-opacity="0.5" stroke="#606060" stroke-width=".5" x="0" y="0" width="60" height="60"/>
                <use id="zoomplus" xlink:href="#zoomPlus" x="17" y="9" onmousedown="handleZoom(evt,'in')"/>
                <use id="zoomminus" xlink:href="#zoomMin" x="42" y="9" onmousedown="handleZoom(evt,'out')"/>
                <use id="reset" xlink:href="#resetDef" x="30" y="36" onmousedown="handleReset()"/>
                <g id="arrowUp" xlink:href="#dirArrow" transform="translate(30 24)" onmousedown="handlePan(0,-1)">
                  <use xlink:href="#rim" fill="#404040">
                        <set attributeName="fill" to="#808080" begin="arrowUp.mouseover" end="arrowUp.mouseout"/>
                  </use>
                  <path fill="none" stroke="white" stroke-width="1.5" d="M0,-3.0v7 M-2.5,-0.5L0,-3.0L2.5,-0.5"/>
                </g>
                <g id="arrowRight" xlink:href="#dirArrow" transform="rotate(90) translate(36 -43)" onmousedown="handlePan(1,0)">
                  <use xlink:href="#rim" fill="#404040">
                        <set attributeName="fill" to="#808080" begin="arrowRight.mouseover" end="arrowRight.mouseout"/>
                  </use>
                  <path fill="none" stroke="white" stroke-width="1.5" d="M0,-3.0v7 M-2.5,-0.5L0,-3.0L2.5,-0.5"/>
                </g>
                <g id="arrowDown" xlink:href="#dirArrow" transform="rotate(180) translate(-30 -48)" onmousedown="handlePan(0,1)">
                  <use xlink:href="#rim" fill="#404040">
                        <set attributeName="fill" to="#808080" begin="arrowDown.mouseover" end="arrowDown.mouseout"/>
                  </use>
                  <path fill="none" stroke="white" stroke-width="1.5" d="M0,-3.0v7 M-2.5,-0.5L0,-3.0L2.5,-0.5"/>
                </g>
                <g id="arrowLeft" xlink:href="#dirArrow" transform="rotate(270) translate(-36 17)" onmousedown="handlePan(-1,0)">
                  <use xlink:href="#rim" fill="#404040">
                        <set attributeName="fill" to="#808080" begin="arrowLeft.mouseover" end="arrowLeft.mouseout"/>
                  </use>
                  <path fill="none" stroke="white" stroke-width="1.5" d="M0,-3.0v7 M-2.5,-0.5L0,-3.0L2.5,-0.5"/>
                </g>
        </g>
        <svg viewBox="0 0 15 15" width="100%" height="30px" preserveAspectRatio="xMaxYMin meet">
         <g id="arrow_out" transform="scale(0.3 0.3)">
          <a xlink:href="sigtran_8h_a831d90af9ab820dcf9997181731df1b1_cgraph_org.svg" target="_base">
           <rect id="button" ry="5" rx="5" y="6" x="6" height="38" width="38"
                fill="#f2f5e9" fill-opacity="0.5" stroke="#606060" stroke-width="1.0"/>
           <path id="arrow"
             d="M 11.500037,31.436501 C 11.940474,20.09759 22.043105,11.32322 32.158766,21.979434 L 37.068811,17.246167 C 37.068811,17.246167 37.088388,32 37.088388,32 L 22.160133,31.978069 C 22.160133,31.978069 26.997745,27.140456 26.997745,27.140456 C 18.528582,18.264221 13.291696,25.230495 11.500037,31.436501 z"
             style="fill:#404040;"/>
          </a>
         </g>
        </svg>
</svg>
