<?xml version="1.0" encoding="UTF-8" standalone="no"?>
<!DOCTYPE svg PUBLIC "-//W3C//DTD SVG 1.1//EN"
 "http://www.w3.org/Graphics/SVG/1.1/DTD/svg11.dtd">
<!-- Generated by graphviz version 2.40.1 (20161225.0304)
 -->
<!-- Title: add_pdu_var Pages: 1 -->
<svg width="801pt" height="94pt"
 viewBox="0.00 0.00 801.00 94.00" xmlns="http://www.w3.org/2000/svg" xmlns:xlink="http://www.w3.org/1999/xlink">
<g id="graph0" class="graph" transform="scale(1 1) rotate(0) translate(4 90)">
<title>add_pdu_var</title>
<!-- Node17 -->
<g id="node1" class="node">
<title>Node17</title>
<polygon fill="#bfbfbf" stroke="#000000" points="0,-9.5 0,-28.5 72,-28.5 72,-9.5 0,-9.5"/>
<text text-anchor="middle" x="36" y="-16.5" font-family="Helvetica,sans-Serif" font-size="10.00" fill="#000000">add_pdu_var</text>
</g>
<!-- Node18 -->
<g id="node2" class="node">
<title>Node18</title>
<g id="a_node2"><a xlink:href="snmp__mtp_8c.html#ac5b92ce0b39a993b0d26027712fffc4e" target="_top" xlink:title="snmp_mtp_start_c7_datalink">
<polygon fill="none" stroke="#000000" points="108,-28.5 108,-47.5 250,-47.5 250,-28.5 108,-28.5"/>
<text text-anchor="middle" x="179" y="-35.5" font-family="Helvetica,sans-Serif" font-size="10.00" fill="#000000">snmp_mtp_start_c7_datalink</text>
</a>
</g>
</g>
<!-- Node17&#45;&gt;Node18 -->
<g id="edge1" class="edge">
<title>Node17&#45;&gt;Node18</title>
<path fill="none" stroke="#191970" d="M82.1631,-25.1336C90.3659,-26.2234 99.0798,-27.3812 107.788,-28.5383"/>
<polygon fill="#191970" stroke="#191970" points="82.4588,-21.6422 72.0849,-23.7945 81.5368,-28.5812 82.4588,-21.6422"/>
</g>
<!-- Node24 -->
<g id="node6" class="node">
<title>Node24</title>
<g id="a_node6"><a xlink:href="snmp__mtp_8c.html#ac5da8f5d6751d71d6e6c3f132dedc029" target="_top" xlink:title="snmp_mtp_stop_c7_datalink">
<polygon fill="none" stroke="#ff0000" points="652,-9.5 652,-28.5 793,-28.5 793,-9.5 652,-9.5"/>
<text text-anchor="middle" x="722.5" y="-16.5" font-family="Helvetica,sans-Serif" font-size="10.00" fill="#000000">snmp_mtp_stop_c7_datalink</text>
</a>
</g>
</g>
<!-- Node17&#45;&gt;Node24 -->
<g id="edge7" class="edge">
<title>Node17&#45;&gt;Node24</title>
<path fill="none" stroke="#191970" d="M82.2125,-14.2677C141.2468,-8.6403 246.6068,0 337,0 337,0 337,0 450,0 518.6461,0 596.7843,-6.0745 651.7334,-11.3541"/>
<polygon fill="#191970" stroke="#191970" points="81.7099,-10.7999 72.0932,-15.2462 82.3837,-17.7674 81.7099,-10.7999"/>
</g>
<!-- Node19 -->
<g id="node3" class="node">
<title>Node19</title>
<g id="a_node3"><a xlink:href="snmp__mtp_8c.html#a49160fba56198982fa37024d00bd9187" target="_top" xlink:title="snmp_mtp_activate">
<polygon fill="none" stroke="#000000" points="286,-66.5 286,-85.5 388,-85.5 388,-66.5 286,-66.5"/>
<text text-anchor="middle" x="337" y="-73.5" font-family="Helvetica,sans-Serif" font-size="10.00" fill="#000000">snmp_mtp_activate</text>
</a>
</g>
</g>
<!-- Node18&#45;&gt;Node19 -->
<g id="edge2" class="edge">
<title>Node18&#45;&gt;Node19</title>
<path fill="none" stroke="#191970" d="M228.7616,-49.968C250.9029,-55.2931 276.6116,-61.4762 297.4166,-66.4799"/>
<polygon fill="#191970" stroke="#191970" points="229.4113,-46.5245 218.8701,-47.589 227.7744,-53.3304 229.4113,-46.5245"/>
</g>
<!-- Node20 -->
<g id="node4" class="node">
<title>Node20</title>
<g id="a_node4"><a xlink:href="link__udp_8c.html#a04a0864187271e0c0d41f1ad32fd50ff" target="_top" xlink:title="do_start">
<polygon fill="none" stroke="#000000" points="424,-66.5 424,-85.5 476,-85.5 476,-66.5 424,-66.5"/>
<text text-anchor="middle" x="450" y="-73.5" font-family="Helvetica,sans-Serif" font-size="10.00" fill="#000000">do_start</text>
</a>
</g>
</g>
<!-- Node19&#45;&gt;Node20 -->
<g id="edge3" class="edge">
<title>Node19&#45;&gt;Node20</title>
<path fill="none" stroke="#191970" d="M398.3928,-76C407.3926,-76 416.2256,-76 423.9691,-76"/>
<polygon fill="#191970" stroke="#191970" points="398.2101,-72.5001 388.21,-76 398.21,-79.5001 398.2101,-72.5001"/>
</g>
<!-- Node21 -->
<g id="node5" class="node">
<title>Node21</title>
<g id="a_node5"><a xlink:href="link__udp_8c.html#aab40684685da6e77cfb4384917b1f6fa" target="_top" xlink:title="snmp_mtp_callback">
<polygon fill="none" stroke="#ff0000" points="512,-28.5 512,-47.5 616,-47.5 616,-28.5 512,-28.5"/>
<text text-anchor="middle" x="564" y="-35.5" font-family="Helvetica,sans-Serif" font-size="10.00" fill="#000000">snmp_mtp_callback</text>
</a>
</g>
</g>
<!-- Node20&#45;&gt;Node21 -->
<g id="edge4" class="edge">
<title>Node20&#45;&gt;Node21</title>
<path fill="none" stroke="#191970" d="M485.6819,-64.106C501.6104,-58.7965 520.1339,-52.622 535.1662,-47.6113"/>
<polygon fill="#191970" stroke="#191970" points="484.5339,-60.7993 476.1539,-67.282 486.7476,-67.4401 484.5339,-60.7993"/>
</g>
<!-- Node21&#45;&gt;Node18 -->
<g id="edge5" class="edge">
<title>Node21&#45;&gt;Node18</title>
<path fill="none" stroke="#191970" d="M501.5993,-38C432.757,-38 322.1892,-38 250.0636,-38"/>
<polygon fill="#191970" stroke="#191970" points="501.8606,-41.5001 511.8606,-38 501.8605,-34.5001 501.8606,-41.5001"/>
</g>
<!-- Node21&#45;&gt;Node24 -->
<g id="edge6" class="edge">
<title>Node21&#45;&gt;Node24</title>
<path fill="none" stroke="#191970" d="M626.374,-30.523C634.7302,-29.5213 643.3488,-28.4882 651.8346,-27.4709"/>
<polygon fill="#191970" stroke="#191970" points="625.8504,-27.0606 616.3381,-31.726 626.6836,-34.0108 625.8504,-27.0606"/>
</g>
</g>
</svg>
