<?xml version="1.0" encoding="UTF-8" standalone="no"?>
<!DOCTYPE svg PUBLIC "-//W3C//DTD SVG 1.1//EN"
 "http://www.w3.org/Graphics/SVG/1.1/DTD/svg11.dtd">
<!-- Generated by graphviz version 2.40.1 (20161225.0304)
 -->
<!-- Title: snmp_mtp_callback Pages: 1 -->
<svg width="797pt" height="356pt"
 viewBox="0.00 0.00 797.00 356.18" xmlns="http://www.w3.org/2000/svg" xmlns:xlink="http://www.w3.org/1999/xlink">
<g id="graph0" class="graph" transform="scale(1 1) rotate(0) translate(4 352.1837)">
<title>snmp_mtp_callback</title>
<!-- Node59 -->
<g id="node1" class="node">
<title>Node59</title>
<polygon fill="#bfbfbf" stroke="#000000" points="0,-62.6837 0,-81.6837 104,-81.6837 104,-62.6837 0,-62.6837"/>
<text text-anchor="middle" x="52" y="-69.6837" font-family="Helvetica,sans-Serif" font-size="10.00" fill="#000000">snmp_mtp_callback</text>
</g>
<!-- Node60 -->
<g id="node2" class="node">
<title>Node60</title>
<g id="a_node2"><a xlink:href="link__udp_8c.html#a4b8f957ca0ed0158988a54fef521ac4f" target="_top" xlink:title="udp_link_reset">
<polygon fill="none" stroke="#000000" points="141,-100.6837 141,-119.6837 221,-119.6837 221,-100.6837 141,-100.6837"/>
<text text-anchor="middle" x="181" y="-107.6837" font-family="Helvetica,sans-Serif" font-size="10.00" fill="#000000">udp_link_reset</text>
</a>
</g>
</g>
<!-- Node59&#45;&gt;Node60 -->
<g id="edge1" class="edge">
<title>Node59&#45;&gt;Node60</title>
<path fill="none" stroke="#191970" d="M84.5521,-81.7727C100.8993,-86.5881 120.9092,-92.4825 138.4571,-97.6517"/>
<polygon fill="#191970" stroke="#191970" points="137.8768,-101.1294 148.4583,-100.5977 139.8548,-94.4146 137.8768,-101.1294"/>
</g>
<!-- Node83 -->
<g id="node8" class="node">
<title>Node83</title>
<g id="a_node8"><a xlink:href="mtp__data_8h.html#aece5097e137527d3ba496d67c711d7a0" target="_top" xlink:title="mtp_link_down">
<polygon fill="none" stroke="#000000" points="140,-176.6837 140,-195.6837 222,-195.6837 222,-176.6837 140,-176.6837"/>
<text text-anchor="middle" x="181" y="-183.6837" font-family="Helvetica,sans-Serif" font-size="10.00" fill="#000000">mtp_link_down</text>
</a>
</g>
</g>
<!-- Node59&#45;&gt;Node83 -->
<g id="edge8" class="edge">
<title>Node59&#45;&gt;Node83</title>
<path fill="none" stroke="#191970" d="M62.9985,-81.9033C85.0853,-101.4219 135.0481,-145.575 162.3424,-169.6956"/>
<polygon fill="#191970" stroke="#191970" points="160.2184,-172.4894 170.0294,-176.4887 164.8538,-167.244 160.2184,-172.4894"/>
</g>
<!-- Node101 -->
<g id="node23" class="node">
<title>Node101</title>
<g id="a_node23"><a xlink:href="link__udp_8c.html#a04a0864187271e0c0d41f1ad32fd50ff" target="_top" xlink:title="do_start">
<polygon fill="none" stroke="#000000" points="155,-24.6837 155,-43.6837 207,-43.6837 207,-24.6837 155,-24.6837"/>
<text text-anchor="middle" x="181" y="-31.6837" font-family="Helvetica,sans-Serif" font-size="10.00" fill="#000000">do_start</text>
</a>
</g>
</g>
<!-- Node59&#45;&gt;Node101 -->
<g id="edge25" class="edge">
<title>Node59&#45;&gt;Node101</title>
<path fill="none" stroke="#191970" d="M84.5521,-62.5947C103.0265,-57.1526 126.179,-50.3325 145.169,-44.7386"/>
<polygon fill="#191970" stroke="#191970" points="146.3497,-48.0395 154.9532,-41.8564 144.3717,-41.3248 146.3497,-48.0395"/>
</g>
<!-- Node61 -->
<g id="node3" class="node">
<title>Node61</title>
<g id="a_node3"><a xlink:href="snmp__mtp_8h.html#ac537c2e4f95c41bc7a25eb8693353026" target="_top" xlink:title="snmp_mtp_deactivate">
<polygon fill="none" stroke="#000000" points="258,-100.6837 258,-119.6837 371,-119.6837 371,-100.6837 258,-100.6837"/>
<text text-anchor="middle" x="314.5" y="-107.6837" font-family="Helvetica,sans-Serif" font-size="10.00" fill="#000000">snmp_mtp_deactivate</text>
</a>
</g>
</g>
<!-- Node60&#45;&gt;Node61 -->
<g id="edge2" class="edge">
<title>Node60&#45;&gt;Node61</title>
<path fill="none" stroke="#191970" d="M221.0544,-110.1837C229.4248,-110.1837 238.4656,-110.1837 247.5124,-110.1837"/>
<polygon fill="#191970" stroke="#191970" points="247.6935,-113.6838 257.6934,-110.1837 247.6934,-106.6838 247.6935,-113.6838"/>
</g>
<!-- Node62 -->
<g id="node4" class="node">
<title>Node62</title>
<g id="a_node4"><a xlink:href="snmp__mtp_8c.html#ac5da8f5d6751d71d6e6c3f132dedc029" target="_top" xlink:title="snmp_mtp_stop_c7_datalink">
<polygon fill="none" stroke="#000000" points="407.5,-62.6837 407.5,-81.6837 548.5,-81.6837 548.5,-62.6837 407.5,-62.6837"/>
<text text-anchor="middle" x="478" y="-69.6837" font-family="Helvetica,sans-Serif" font-size="10.00" fill="#000000">snmp_mtp_stop_c7_datalink</text>
</a>
</g>
</g>
<!-- Node61&#45;&gt;Node62 -->
<g id="edge3" class="edge">
<title>Node61&#45;&gt;Node62</title>
<path fill="none" stroke="#191970" d="M355.758,-100.5947C377.4307,-95.5576 404.1832,-89.3399 427.1303,-84.0066"/>
<polygon fill="#191970" stroke="#191970" points="428.0907,-87.3768 437.0387,-81.7037 426.506,-80.5585 428.0907,-87.3768"/>
</g>
<!-- Node62&#45;&gt;Node59 -->
<g id="edge7" class="edge">
<title>Node62&#45;&gt;Node59</title>
<path fill="none" stroke="#191970" d="M407.2514,-72.1837C325.5428,-72.1837 192.3915,-72.1837 114.398,-72.1837"/>
<polygon fill="#191970" stroke="#191970" points="114.236,-68.6838 104.236,-72.1837 114.2359,-75.6838 114.236,-68.6838"/>
</g>
<!-- Node63 -->
<g id="node5" class="node">
<title>Node63</title>
<g id="a_node5"><a xlink:href="snmp__mtp_8c.html#a90f978047bd53636753cae043a3a7c76" target="_top" xlink:title="add_pdu_var">
<polygon fill="none" stroke="#000000" points="608.5,-24.6837 608.5,-43.6837 680.5,-43.6837 680.5,-24.6837 608.5,-24.6837"/>
<text text-anchor="middle" x="644.5" y="-31.6837" font-family="Helvetica,sans-Serif" font-size="10.00" fill="#000000">add_pdu_var</text>
</a>
</g>
</g>
<!-- Node62&#45;&gt;Node63 -->
<g id="edge4" class="edge">
<title>Node62&#45;&gt;Node63</title>
<path fill="none" stroke="#191970" d="M520.015,-62.5947C543.9768,-57.1259 574.0361,-50.2655 598.6135,-44.6563"/>
<polygon fill="#191970" stroke="#191970" points="599.4592,-48.0534 608.4297,-42.416 597.9016,-41.2288 599.4592,-48.0534"/>
</g>
<!-- Node80 -->
<g id="node7" class="node">
<title>Node80</title>
<g id="a_node7"><a xlink:href="snmp__mtp_8c.html#a6b5ccd650fea34d59c6abf8b245fef2f" target="_top" xlink:title="send_pdu">
<polygon fill="none" stroke="#ff0000" points="615,-62.6837 615,-81.6837 674,-81.6837 674,-62.6837 615,-62.6837"/>
<text text-anchor="middle" x="644.5" y="-69.6837" font-family="Helvetica,sans-Serif" font-size="10.00" fill="#000000">send_pdu</text>
</a>
</g>
</g>
<!-- Node62&#45;&gt;Node80 -->
<g id="edge6" class="edge">
<title>Node62&#45;&gt;Node80</title>
<path fill="none" stroke="#191970" d="M548.611,-72.1837C567.8414,-72.1837 587.9929,-72.1837 604.8316,-72.1837"/>
<polygon fill="#191970" stroke="#191970" points="604.8501,-75.6838 614.8501,-72.1837 604.8501,-68.6838 604.8501,-75.6838"/>
</g>
<!-- Node64 -->
<g id="node6" class="node">
<title>Node64</title>
<g id="a_node6"><a xlink:href="snprintf_8c.html#a8da10a1735da7051de5c298ca7448eee" target="_top" xlink:title="snprintf">
<polygon fill="none" stroke="#ff0000" points="740,-62.6837 740,-81.6837 789,-81.6837 789,-62.6837 740,-62.6837"/>
<text text-anchor="middle" x="764.5" y="-69.6837" font-family="Helvetica,sans-Serif" font-size="10.00" fill="#000000">snprintf</text>
</a>
</g>
</g>
<!-- Node63&#45;&gt;Node64 -->
<g id="edge5" class="edge">
<title>Node63&#45;&gt;Node64</title>
<path fill="none" stroke="#191970" d="M674.7811,-43.7727C691.6128,-49.1027 712.6191,-55.7547 730.0733,-61.2819"/>
<polygon fill="#191970" stroke="#191970" points="729.2912,-64.7055 739.8813,-64.3878 731.4045,-58.0321 729.2912,-64.7055"/>
</g>
<!-- Node84 -->
<g id="node9" class="node">
<title>Node84</title>
<g id="a_node9"><a xlink:href="links_8c.html#a404d50cc6be5fa4295f650197c6d7df4" target="_top" xlink:title="is_one_up">
<polygon fill="none" stroke="#000000" points="284,-176.6837 284,-195.6837 345,-195.6837 345,-176.6837 284,-176.6837"/>
<text text-anchor="middle" x="314.5" y="-183.6837" font-family="Helvetica,sans-Serif" font-size="10.00" fill="#000000">is_one_up</text>
</a>
</g>
</g>
<!-- Node83&#45;&gt;Node84 -->
<g id="edge9" class="edge">
<title>Node83&#45;&gt;Node84</title>
<path fill="none" stroke="#191970" d="M222.1437,-186.1837C238.4837,-186.1837 257.2366,-186.1837 273.5567,-186.1837"/>
<polygon fill="#191970" stroke="#191970" points="273.8803,-189.6838 283.8803,-186.1837 273.8802,-182.6838 273.8803,-189.6838"/>
</g>
<!-- Node85 -->
<g id="node10" class="node">
<title>Node85</title>
<g id="a_node10"><a xlink:href="bsc__data_8h.html#ab84ddda41363f714b4b067a29886b188" target="_top" xlink:title="mtp_linkset_down">
<polygon fill="none" stroke="#000000" points="267,-214.6837 267,-233.6837 362,-233.6837 362,-214.6837 267,-214.6837"/>
<text text-anchor="middle" x="314.5" y="-221.6837" font-family="Helvetica,sans-Serif" font-size="10.00" fill="#000000">mtp_linkset_down</text>
</a>
</g>
</g>
<!-- Node83&#45;&gt;Node85 -->
<g id="edge10" class="edge">
<title>Node83&#45;&gt;Node85</title>
<path fill="none" stroke="#191970" d="M214.6877,-195.7727C231.7632,-200.6331 252.7004,-206.5928 270.9816,-211.7964"/>
<polygon fill="#191970" stroke="#191970" points="270.2469,-215.2263 280.8231,-214.5977 272.1634,-208.4937 270.2469,-215.2263"/>
</g>
<!-- Node87 -->
<g id="node12" class="node">
<title>Node87</title>
<g id="a_node12"><a xlink:href="mtp__data_8h.html#a2114b813c40474a15c4775d1374b6d68" target="_top" xlink:title="mtp_link_stop_link_test">
<polygon fill="none" stroke="#000000" points="585,-328.6837 585,-347.6837 704,-347.6837 704,-328.6837 585,-328.6837"/>
<text text-anchor="middle" x="644.5" y="-335.6837" font-family="Helvetica,sans-Serif" font-size="10.00" fill="#000000">mtp_link_stop_link_test</text>
</a>
</g>
</g>
<!-- Node83&#45;&gt;Node87 -->
<g id="edge22" class="edge">
<title>Node83&#45;&gt;Node87</title>
<path fill="none" stroke="#191970" d="M191.7033,-195.9365C205.9102,-208.4316 232.2162,-230.041 258,-243.1837 361.1667,-295.7704 494.889,-320.2186 574.9527,-330.8335"/>
<polygon fill="#191970" stroke="#191970" points="574.5588,-334.3116 584.9246,-332.1207 575.455,-327.3692 574.5588,-334.3116"/>
</g>
<!-- Node99 -->
<g id="node21" class="node">
<title>Node99</title>
<g id="a_node21"><a xlink:href="mtp__data_8h.html#a195769379aa3479a24bcc6e4106e6b66" target="_top" xlink:title="Initialise the link selection array for a link set. ">
<polygon fill="none" stroke="#000000" points="260.5,-138.6837 260.5,-157.6837 368.5,-157.6837 368.5,-138.6837 260.5,-138.6837"/>
<text text-anchor="middle" x="314.5" y="-145.6837" font-family="Helvetica,sans-Serif" font-size="10.00" fill="#000000">mtp_link_set_init_slc</text>
</a>
</g>
</g>
<!-- Node83&#45;&gt;Node99 -->
<g id="edge23" class="edge">
<title>Node83&#45;&gt;Node99</title>
<path fill="none" stroke="#191970" d="M214.6877,-176.5947C231.7632,-171.7342 252.7004,-165.7746 270.9816,-160.571"/>
<polygon fill="#191970" stroke="#191970" points="272.1634,-163.8737 280.8231,-157.7696 270.2469,-157.1411 272.1634,-163.8737"/>
</g>
<!-- Node86 -->
<g id="node11" class="node">
<title>Node86</title>
<g id="a_node11"><a xlink:href="mtp__data_8h.html#a72690e279ccb3f10ea661ca2d7f71dd6" target="_top" xlink:title="Stop each link in a link set. ">
<polygon fill="none" stroke="#000000" points="430,-261.6837 430,-280.6837 526,-280.6837 526,-261.6837 430,-261.6837"/>
<text text-anchor="middle" x="478" y="-268.6837" font-family="Helvetica,sans-Serif" font-size="10.00" fill="#000000">mtp_link_set_stop</text>
</a>
</g>
</g>
<!-- Node85&#45;&gt;Node86 -->
<g id="edge11" class="edge">
<title>Node85&#45;&gt;Node86</title>
<path fill="none" stroke="#191970" d="M347.5867,-233.6948C372.7675,-240.9334 407.6333,-250.9559 434.9795,-258.8169"/>
<polygon fill="#191970" stroke="#191970" points="434.1046,-262.2071 444.6824,-261.6061 436.0385,-255.4795 434.1046,-262.2071"/>
</g>
<!-- Node88 -->
<g id="node13" class="node">
<title>Node88</title>
<g id="a_node13"><a xlink:href="bsc__sccp_8h.html#a25033c492a9757731a449c194c54f311" target="_top" xlink:title="app_clear_connections">
<polygon fill="none" stroke="#000000" points="420,-176.6837 420,-195.6837 536,-195.6837 536,-176.6837 420,-176.6837"/>
<text text-anchor="middle" x="478" y="-183.6837" font-family="Helvetica,sans-Serif" font-size="10.00" fill="#000000">app_clear_connections</text>
</a>
</g>
</g>
<!-- Node85&#45;&gt;Node88 -->
<g id="edge13" class="edge">
<title>Node85&#45;&gt;Node88</title>
<path fill="none" stroke="#191970" d="M355.758,-214.5947C377.4307,-209.5576 404.1832,-203.3399 427.1303,-198.0066"/>
<polygon fill="#191970" stroke="#191970" points="428.0907,-201.3768 437.0387,-195.7037 426.506,-194.5585 428.0907,-201.3768"/>
</g>
<!-- Node91 -->
<g id="node16" class="node">
<title>Node91</title>
<g id="a_node16"><a xlink:href="msc__connection_8h.html#a524ac3d64c48f8d324c9c0d50aa121af" target="_top" xlink:title="msc_mgcp_reset">
<polygon fill="none" stroke="#000000" points="432,-138.6837 432,-157.6837 524,-157.6837 524,-138.6837 432,-138.6837"/>
<text text-anchor="middle" x="478" y="-145.6837" font-family="Helvetica,sans-Serif" font-size="10.00" fill="#000000">msc_mgcp_reset</text>
</a>
</g>
</g>
<!-- Node85&#45;&gt;Node91 -->
<g id="edge16" class="edge">
<title>Node85&#45;&gt;Node91</title>
<path fill="none" stroke="#191970" d="M351.5631,-214.622C358.3029,-212.088 365.0694,-208.9718 371,-205.1837 390.6063,-192.6606 387.0095,-179.0838 407,-167.1837 411.7284,-164.3689 416.8786,-161.9633 422.1742,-159.9089"/>
<polygon fill="#191970" stroke="#191970" points="423.4976,-163.1547 431.8038,-156.5776 421.209,-156.5393 423.4976,-163.1547"/>
</g>
<!-- Node92 -->
<g id="node17" class="node">
<title>Node92</title>
<g id="a_node17"><a xlink:href="msc__connection_8h.html#a4cdffa56c7972870906f6edc6eb3bff7" target="_top" xlink:title="msc_send_reset">
<polygon fill="none" stroke="#000000" points="433.5,-214.6837 433.5,-233.6837 522.5,-233.6837 522.5,-214.6837 433.5,-214.6837"/>
<text text-anchor="middle" x="478" y="-221.6837" font-family="Helvetica,sans-Serif" font-size="10.00" fill="#000000">msc_send_reset</text>
</a>
</g>
</g>
<!-- Node85&#45;&gt;Node92 -->
<g id="edge18" class="edge">
<title>Node85&#45;&gt;Node92</title>
<path fill="none" stroke="#191970" d="M362.2305,-224.1837C381.3336,-224.1837 403.4532,-224.1837 423.2079,-224.1837"/>
<polygon fill="#191970" stroke="#191970" points="423.2942,-227.6838 433.2942,-224.1837 423.2942,-220.6838 423.2942,-227.6838"/>
</g>
<!-- Node86&#45;&gt;Node87 -->
<g id="edge12" class="edge">
<title>Node86&#45;&gt;Node87</title>
<path fill="none" stroke="#191970" d="M497.4418,-280.703C518.6722,-290.9092 553.814,-307.2529 585,-319.1837 590.6447,-321.3432 596.6518,-323.463 602.5959,-325.4579"/>
<polygon fill="#191970" stroke="#191970" points="601.8724,-328.9036 612.4649,-328.6825 604.0465,-322.2497 601.8724,-328.9036"/>
</g>
<!-- Node89 -->
<g id="node14" class="node">
<title>Node89</title>
<g id="a_node14"><a xlink:href="bsc__sccp_8c.html#aa236cb5598c61f5b54d886dc1623155f" target="_top" xlink:title="free_con">
<polygon fill="none" stroke="#000000" points="617.5,-138.6837 617.5,-157.6837 671.5,-157.6837 671.5,-138.6837 617.5,-138.6837"/>
<text text-anchor="middle" x="644.5" y="-145.6837" font-family="Helvetica,sans-Serif" font-size="10.00" fill="#000000">free_con</text>
</a>
</g>
</g>
<!-- Node88&#45;&gt;Node89 -->
<g id="edge14" class="edge">
<title>Node88&#45;&gt;Node89</title>
<path fill="none" stroke="#191970" d="M520.015,-176.5947C546.8898,-170.4611 581.4349,-162.5769 607.3133,-156.6707"/>
<polygon fill="#191970" stroke="#191970" points="608.152,-160.0694 617.1225,-154.432 606.5944,-153.2449 608.152,-160.0694"/>
</g>
<!-- Node90 -->
<g id="node15" class="node">
<title>Node90</title>
<g id="a_node15"><a xlink:href="bsc__data_8h.html#a82f9277c91f3fcd0816369344569056f" target="_top" xlink:title="link_clear_all">
<polygon fill="none" stroke="#000000" points="608,-176.6837 608,-195.6837 681,-195.6837 681,-176.6837 608,-176.6837"/>
<text text-anchor="middle" x="644.5" y="-183.6837" font-family="Helvetica,sans-Serif" font-size="10.00" fill="#000000">link_clear_all</text>
</a>
</g>
</g>
<!-- Node88&#45;&gt;Node90 -->
<g id="edge15" class="edge">
<title>Node88&#45;&gt;Node90</title>
<path fill="none" stroke="#191970" d="M536.2336,-186.1837C556.3312,-186.1837 578.5731,-186.1837 597.6429,-186.1837"/>
<polygon fill="#191970" stroke="#191970" points="597.8772,-189.6838 607.8772,-186.1837 597.8771,-182.6838 597.8772,-189.6838"/>
</g>
<!-- Node91&#45;&gt;Node64 -->
<g id="edge17" class="edge">
<title>Node91&#45;&gt;Node64</title>
<path fill="none" stroke="#191970" d="M519.0146,-138.5862C564.4402,-127.7832 639.7541,-109.3576 704,-91.1837 712.5278,-88.7713 721.6747,-85.9974 730.2081,-83.3278"/>
<polygon fill="#191970" stroke="#191970" points="731.3922,-86.6242 739.8699,-80.2698 729.2799,-79.9505 731.3922,-86.6242"/>
</g>
<!-- Node93 -->
<g id="node18" class="node">
<title>Node93</title>
<g id="a_node18"><a xlink:href="msc__conn_8c.html#a85be6ec8e12419ca55f0a0c02449a4e4" target="_top" xlink:title="msc_ping_timeout">
<polygon fill="none" stroke="#ff0000" points="596.5,-252.6837 596.5,-271.6837 692.5,-271.6837 692.5,-252.6837 596.5,-252.6837"/>
<text text-anchor="middle" x="644.5" y="-259.6837" font-family="Helvetica,sans-Serif" font-size="10.00" fill="#000000">msc_ping_timeout</text>
</a>
</g>
</g>
<!-- Node92&#45;&gt;Node93 -->
<g id="edge19" class="edge">
<title>Node92&#45;&gt;Node93</title>
<path fill="none" stroke="#191970" d="M520.015,-233.7727C542.1844,-238.8324 569.5732,-245.0833 593.011,-250.4324"/>
<polygon fill="#191970" stroke="#191970" points="592.259,-253.8507 602.7871,-252.6636 593.8166,-247.0262 592.259,-253.8507"/>
</g>
<!-- Node98 -->
<g id="node19" class="node">
<title>Node98</title>
<g id="a_node19"><a xlink:href="bssap__sccp_8c.html#afd5bfe70c32ea5823c31bb3caba522c8" target="_top" xlink:title="create_reset">
<polygon fill="none" stroke="#000000" points="609,-214.6837 609,-233.6837 680,-233.6837 680,-214.6837 609,-214.6837"/>
<text text-anchor="middle" x="644.5" y="-221.6837" font-family="Helvetica,sans-Serif" font-size="10.00" fill="#000000">create_reset</text>
</a>
</g>
</g>
<!-- Node92&#45;&gt;Node98 -->
<g id="edge20" class="edge">
<title>Node92&#45;&gt;Node98</title>
<path fill="none" stroke="#191970" d="M522.6189,-224.1837C546.1976,-224.1837 575.0885,-224.1837 598.8231,-224.1837"/>
<polygon fill="#191970" stroke="#191970" points="598.9874,-227.6838 608.9874,-224.1837 598.9874,-220.6838 598.9874,-227.6838"/>
</g>
<!-- Node95 -->
<g id="node20" class="node">
<title>Node95</title>
<g id="a_node20"><a xlink:href="msc__conn_8c.html#a3625ee2580b4bbd431e58324cb6d15d6" target="_top" xlink:title="msc_send">
<polygon fill="none" stroke="#ff0000" points="613.5,-290.6837 613.5,-309.6837 675.5,-309.6837 675.5,-290.6837 613.5,-290.6837"/>
<text text-anchor="middle" x="644.5" y="-297.6837" font-family="Helvetica,sans-Serif" font-size="10.00" fill="#000000">msc_send</text>
</a>
</g>
</g>
<!-- Node92&#45;&gt;Node95 -->
<g id="edge21" class="edge">
<title>Node92&#45;&gt;Node95</title>
<path fill="none" stroke="#191970" d="M507.9453,-233.7117C520.979,-238.4292 536.1723,-244.7214 549,-252.1837 566.7592,-262.5148 566.9069,-271.4491 585,-281.1837 590.7654,-284.2856 597.1208,-286.9813 603.4672,-289.2897"/>
<polygon fill="#191970" stroke="#191970" points="602.7528,-292.7415 613.3467,-292.6012 604.9775,-286.1044 602.7528,-292.7415"/>
</g>
<!-- Node100 -->
<g id="node22" class="node">
<title>Node100</title>
<g id="a_node22"><a xlink:href="mtp__layer3_8c.html#a7596e082c0c5cfb946c20713c0ad5e6f" target="_top" xlink:title="Find another link within a link set. ">
<polygon fill="none" stroke="#000000" points="439.5,-100.6837 439.5,-119.6837 516.5,-119.6837 516.5,-100.6837 439.5,-100.6837"/>
<text text-anchor="middle" x="478" y="-107.6837" font-family="Helvetica,sans-Serif" font-size="10.00" fill="#000000">find_next_link</text>
</a>
</g>
</g>
<!-- Node99&#45;&gt;Node100 -->
<g id="edge24" class="edge">
<title>Node99&#45;&gt;Node100</title>
<path fill="none" stroke="#191970" d="M355.758,-138.5947C378.1901,-133.3811 406.0642,-126.9027 429.528,-121.4493"/>
<polygon fill="#191970" stroke="#191970" points="430.3371,-124.8547 439.2852,-119.1816 428.7524,-118.0364 430.3371,-124.8547"/>
</g>
<!-- Node102 -->
<g id="node24" class="node">
<title>Node102</title>
<g id="a_node24"><a xlink:href="snmp__mtp_8h.html#aed0c0ba0123c75f0b6b699ba062bdeac" target="_top" xlink:title="snmp_mtp_activate">
<polygon fill="none" stroke="#000000" points="263.5,-24.6837 263.5,-43.6837 365.5,-43.6837 365.5,-24.6837 263.5,-24.6837"/>
<text text-anchor="middle" x="314.5" y="-31.6837" font-family="Helvetica,sans-Serif" font-size="10.00" fill="#000000">snmp_mtp_activate</text>
</a>
</g>
</g>
<!-- Node101&#45;&gt;Node102 -->
<g id="edge26" class="edge">
<title>Node101&#45;&gt;Node102</title>
<path fill="none" stroke="#191970" d="M207.0571,-34.1837C220.316,-34.1837 237.039,-34.1837 253.3172,-34.1837"/>
<polygon fill="#191970" stroke="#191970" points="253.3604,-37.6838 263.3604,-34.1837 253.3603,-30.6838 253.3604,-37.6838"/>
</g>
<!-- Node103 -->
<g id="node25" class="node">
<title>Node103</title>
<g id="a_node25"><a xlink:href="snmp__mtp_8c.html#ac5b92ce0b39a993b0d26027712fffc4e" target="_top" xlink:title="snmp_mtp_start_c7_datalink">
<polygon fill="none" stroke="#000000" points="407,-24.6837 407,-43.6837 549,-43.6837 549,-24.6837 407,-24.6837"/>
<text text-anchor="middle" x="478" y="-31.6837" font-family="Helvetica,sans-Serif" font-size="10.00" fill="#000000">snmp_mtp_start_c7_datalink</text>
</a>
</g>
</g>
<!-- Node102&#45;&gt;Node103 -->
<g id="edge27" class="edge">
<title>Node102&#45;&gt;Node103</title>
<path fill="none" stroke="#191970" d="M365.7838,-34.1837C375.6486,-34.1837 386.2041,-34.1837 396.7485,-34.1837"/>
<polygon fill="#191970" stroke="#191970" points="396.8318,-37.6838 406.8318,-34.1837 396.8318,-30.6838 396.8318,-37.6838"/>
</g>
<!-- Node103&#45;&gt;Node59 -->
<g id="edge30" class="edge">
<title>Node103&#45;&gt;Node59</title>
<path fill="none" stroke="#191970" d="M443.0479,-24.6128C380.6959,-9.1935 246.8074,16.3854 140,-15.1837 113.243,-23.0923 86.9791,-41.9652 70.2104,-55.8372"/>
<polygon fill="#191970" stroke="#191970" points="67.6827,-53.3934 62.3547,-62.551 72.2306,-58.7148 67.6827,-53.3934"/>
</g>
<!-- Node103&#45;&gt;Node63 -->
<g id="edge28" class="edge">
<title>Node103&#45;&gt;Node63</title>
<path fill="none" stroke="#191970" d="M549.0939,-34.1837C565.6113,-34.1837 582.7811,-34.1837 597.9267,-34.1837"/>
<polygon fill="#191970" stroke="#191970" points="598.0558,-37.6838 608.0558,-34.1837 598.0557,-30.6838 598.0558,-37.6838"/>
</g>
<!-- Node103&#45;&gt;Node80 -->
<g id="edge29" class="edge">
<title>Node103&#45;&gt;Node80</title>
<path fill="none" stroke="#191970" d="M520.015,-43.7727C546.1244,-49.7316 579.4733,-57.3428 605.0814,-63.1873"/>
<polygon fill="#191970" stroke="#191970" points="604.307,-66.6004 614.8351,-65.4133 605.8646,-59.7759 604.307,-66.6004"/>
</g>
</g>
</svg>
