<?xml version="1.0" encoding="UTF-8" standalone="no"?>
<!DOCTYPE svg PUBLIC "-//W3C//DTD SVG 1.1//EN"
 "http://www.w3.org/Graphics/SVG/1.1/DTD/svg11.dtd">
<!-- Generated by graphviz version 2.40.1 (20161225.0304)
 -->
<!-- Title: soh_pull_be_32 Pages: 1 -->
<svg width="600pt" height="123pt"
 viewBox="0.00 0.00 600.00 123.34" xmlns="http://www.w3.org/2000/svg" xmlns:xlink="http://www.w3.org/1999/xlink">
<g id="graph0" class="graph" transform="scale(1 1) rotate(0) translate(4 119.3393)">
<title>soh_pull_be_32</title>
<!-- Node477 -->
<g id="node1" class="node">
<title>Node477</title>
<polygon fill="#bfbfbf" stroke="#000000" points="0,-76.5 0,-95.5 84,-95.5 84,-76.5 0,-76.5"/>
<text text-anchor="middle" x="42" y="-83.5" font-family="Helvetica,sans-Serif" font-size="10.00" fill="#000000">soh_pull_be_32</text>
</g>
<!-- Node478 -->
<g id="node2" class="node">
<title>Node478</title>
<g id="a_node2"><a xlink:href="soh_8c.html#a7df9f3590dc4f78f743d4aed6d80c9ab" target="_top" xlink:title="Parses the MS&#45;SOH type/value (note: NOT type/length/value) data and update the sohvp list...">
<polygon fill="none" stroke="#000000" points="120,-76.5 120,-95.5 229,-95.5 229,-76.5 120,-76.5"/>
<text text-anchor="middle" x="174.5" y="-83.5" font-family="Helvetica,sans-Serif" font-size="10.00" fill="#000000">eap_peap_soh_mstlv</text>
</a>
</g>
</g>
<!-- Node477&#45;&gt;Node478 -->
<g id="edge1" class="edge">
<title>Node477&#45;&gt;Node478</title>
<path fill="none" stroke="#191970" d="M94.5103,-86C102.7372,-86 111.2598,-86 119.54,-86"/>
<polygon fill="#191970" stroke="#191970" points="94.2882,-82.5001 84.2881,-86 94.2881,-89.5001 94.2882,-82.5001"/>
</g>
<!-- Node480 -->
<g id="node4" class="node">
<title>Node480</title>
<g id="a_node4"><a xlink:href="soh_8c.html#abb3895f2ec72d6739d4917edd9b7fafc" target="_top" xlink:title="Parse the MS&#45;SOH response in data and update sohvp. ">
<polygon fill="none" stroke="#000000" points="385,-38.5 385,-57.5 447,-57.5 447,-38.5 385,-38.5"/>
<text text-anchor="middle" x="416" y="-45.5" font-family="Helvetica,sans-Serif" font-size="10.00" fill="#000000">soh_verify</text>
</a>
</g>
</g>
<!-- Node477&#45;&gt;Node480 -->
<g id="edge10" class="edge">
<title>Node477&#45;&gt;Node480</title>
<path fill="none" stroke="#191970" d="M87.1384,-73.9583C97.8543,-71.3909 109.2861,-68.8879 120,-67 183.8519,-55.7487 200.3008,-55.2037 265,-51 306.3411,-48.3139 354.1708,-47.8007 384.732,-47.8014"/>
<polygon fill="#191970" stroke="#191970" points="86.0042,-70.633 77.1306,-76.4217 87.6773,-77.4301 86.0042,-70.633"/>
</g>
<!-- Node481 -->
<g id="node5" class="node">
<title>Node481</title>
<g id="a_node5"><a xlink:href="peap_8c.html#a93058619dfbcf70cb346351638e3c396" target="_top" xlink:title="eap_peap_soh_verify">
<polygon fill="none" stroke="#ff0000" points="483,-76.5 483,-95.5 592,-95.5 592,-76.5 483,-76.5"/>
<text text-anchor="middle" x="537.5" y="-83.5" font-family="Helvetica,sans-Serif" font-size="10.00" fill="#000000">eap_peap_soh_verify</text>
</a>
</g>
</g>
<!-- Node477&#45;&gt;Node481 -->
<g id="edge11" class="edge">
<title>Node477&#45;&gt;Node481</title>
<path fill="none" stroke="#191970" d="M83.5089,-98.0561C95.2067,-100.9204 108.0126,-103.561 120,-105 264.3143,-122.3235 302.4085,-114.833 447,-100 458.5455,-98.8156 470.8653,-97.1683 482.5791,-95.4184"/>
<polygon fill="#191970" stroke="#191970" points="84.1185,-94.5993 73.5626,-95.506 82.38,-101.3799 84.1185,-94.5993"/>
</g>
<!-- Node479 -->
<g id="node3" class="node">
<title>Node479</title>
<g id="a_node3"><a xlink:href="soh_8c.html#ad93f59f8cfb8c4cd76a8ea5d8a352ced" target="_top" xlink:title="Read big&#45;endian 4&#45;byte unsigned from p. ">
<polygon fill="none" stroke="#000000" points="265,-76.5 265,-95.5 349,-95.5 349,-76.5 265,-76.5"/>
<text text-anchor="middle" x="307" y="-83.5" font-family="Helvetica,sans-Serif" font-size="10.00" fill="#000000">soh_pull_be_32</text>
</a>
</g>
</g>
<!-- Node478&#45;&gt;Node479 -->
<g id="edge2" class="edge">
<title>Node478&#45;&gt;Node479</title>
<path fill="none" stroke="#191970" d="M239.2282,-79.2516C247.8499,-79.2336 256.5061,-79.3682 264.6121,-79.6553"/>
<polygon fill="#191970" stroke="#191970" points="239.1257,-75.7523 229.1578,-79.3427 239.1891,-82.752 239.1257,-75.7523"/>
</g>
<!-- Node478&#45;&gt;Node480 -->
<g id="edge9" class="edge">
<title>Node478&#45;&gt;Node480</title>
<path fill="none" stroke="#191970" d="M226.194,-74.3868C238.8487,-71.7543 252.3814,-69.1148 265,-67 306.3028,-60.0777 354.3447,-54.4438 384.948,-51.1565"/>
<polygon fill="#191970" stroke="#191970" points="225.3268,-70.9927 216.2676,-76.4863 226.7754,-77.8412 225.3268,-70.9927"/>
</g>
<!-- Node479&#45;&gt;Node478 -->
<g id="edge3" class="edge">
<title>Node479&#45;&gt;Node478</title>
<path fill="none" stroke="#191970" d="M254.6031,-92.6171C246.241,-92.7797 237.5707,-92.7931 229.1578,-92.6573"/>
<polygon fill="#191970" stroke="#191970" points="254.7111,-96.1155 264.6121,-92.3447 254.5206,-89.1181 254.7111,-96.1155"/>
</g>
<!-- Node479&#45;&gt;Node480 -->
<g id="edge4" class="edge">
<title>Node479&#45;&gt;Node480</title>
<path fill="none" stroke="#191970" d="M344.2085,-73.0282C358.7303,-67.9656 375.0794,-62.2659 388.5035,-57.5859"/>
<polygon fill="#191970" stroke="#191970" points="342.7957,-69.8141 334.5053,-76.411 345.1001,-76.4239 342.7957,-69.8141"/>
</g>
<!-- Node479&#45;&gt;Node481 -->
<g id="edge8" class="edge">
<title>Node479&#45;&gt;Node481</title>
<path fill="none" stroke="#191970" d="M359.0559,-86C395.9217,-86 445.2752,-86 482.7337,-86"/>
<polygon fill="#191970" stroke="#191970" points="359.0093,-82.5001 349.0092,-86 359.0092,-89.5001 359.0093,-82.5001"/>
</g>
<!-- Node480&#45;&gt;Node481 -->
<g id="edge5" class="edge">
<title>Node480&#45;&gt;Node481</title>
<path fill="none" stroke="#191970" d="M456.544,-60.6804C472.9606,-65.8148 491.5989,-71.6441 506.8502,-76.4141"/>
<polygon fill="#191970" stroke="#191970" points="457.2485,-57.2336 446.6596,-57.589 455.1589,-63.9145 457.2485,-57.2336"/>
</g>
<!-- Node485 -->
<g id="node6" class="node">
<title>Node485</title>
<g id="a_node6"><a xlink:href="rlm__soh_8c.html#afdf6220a949e3c5c9b5cdafc6bb60513" target="_top" xlink:title="mod_post_auth">
<polygon fill="none" stroke="#000000" points="496,-38.5 496,-57.5 579,-57.5 579,-38.5 496,-38.5"/>
<text text-anchor="middle" x="537.5" y="-45.5" font-family="Helvetica,sans-Serif" font-size="10.00" fill="#000000">mod_post_auth</text>
</a>
</g>
</g>
<!-- Node480&#45;&gt;Node485 -->
<g id="edge6" class="edge">
<title>Node480&#45;&gt;Node485</title>
<path fill="none" stroke="#191970" d="M457.3666,-48C469.7625,-48 483.3611,-48 495.7796,-48"/>
<polygon fill="#191970" stroke="#191970" points="457.2893,-44.5001 447.2893,-48 457.2892,-51.5001 457.2893,-44.5001"/>
</g>
<!-- Node486 -->
<g id="node7" class="node">
<title>Node486</title>
<g id="a_node7"><a xlink:href="rlm__soh_8c.html#aed020b8107dd3d8d25837c97d945b5d0" target="_top" xlink:title="mod_authorize">
<polygon fill="none" stroke="#000000" points="497.5,-.5 497.5,-19.5 577.5,-19.5 577.5,-.5 497.5,-.5"/>
<text text-anchor="middle" x="537.5" y="-7.5" font-family="Helvetica,sans-Serif" font-size="10.00" fill="#000000">mod_authorize</text>
</a>
</g>
</g>
<!-- Node480&#45;&gt;Node486 -->
<g id="edge7" class="edge">
<title>Node480&#45;&gt;Node486</title>
<path fill="none" stroke="#191970" d="M456.544,-35.3196C472.9606,-30.1852 491.5989,-24.3559 506.8502,-19.5859"/>
<polygon fill="#191970" stroke="#191970" points="455.1589,-32.0855 446.6596,-38.411 457.2485,-38.7664 455.1589,-32.0855"/>
</g>
</g>
</svg>
