<?xml version="1.0" encoding="UTF-8" standalone="no"?>
<!DOCTYPE svg PUBLIC "-//W3C//DTD SVG 1.1//EN"
 "http://www.w3.org/Graphics/SVG/1.1/DTD/svg11.dtd">
<!-- Generated by graphviz version 2.40.1 (20161225.0304)
 -->
<!-- Title: rlm_sql_fetch_row Pages: 1 -->
<svg width="505pt" height="180pt"
 viewBox="0.00 0.00 505.00 180.00" xmlns="http://www.w3.org/2000/svg" xmlns:xlink="http://www.w3.org/1999/xlink">
<g id="graph0" class="graph" transform="scale(1 1) rotate(0) translate(4 176)">
<title>rlm_sql_fetch_row</title>
<!-- Node2 -->
<g id="node1" class="node">
<title>Node2</title>
<polygon fill="#bfbfbf" stroke="#000000" points="0,-76.5 0,-95.5 96,-95.5 96,-76.5 0,-76.5"/>
<text text-anchor="middle" x="48" y="-83.5" font-family="Helvetica,sans-Serif" font-size="10.00" fill="#000000">rlm_sql_fetch_row</text>
</g>
<!-- Node3 -->
<g id="node2" class="node">
<title>Node3</title>
<g id="a_node2"><a xlink:href="group__xlat__functions.html#ga66db2a0314e73bfd39a5ae49d3813a49" target="_top" xlink:title="Execute an arbitrary SQL query. ">
<polygon fill="none" stroke="#000000" points="294,-152.5 294,-171.5 344,-171.5 344,-152.5 294,-152.5"/>
<text text-anchor="middle" x="319" y="-159.5" font-family="Helvetica,sans-Serif" font-size="10.00" fill="#000000">sql_xlat</text>
</a>
</g>
</g>
<!-- Node2&#45;&gt;Node3 -->
<g id="edge1" class="edge">
<title>Node2&#45;&gt;Node3</title>
<path fill="none" stroke="#191970" d="M75.2433,-100.2069C91.3874,-108.1448 112.4506,-117.6805 132,-124 188.4257,-142.24 257.3692,-153.551 293.7382,-158.7051"/>
<polygon fill="#191970" stroke="#191970" points="76.3925,-96.8678 65.8845,-95.514 73.2547,-103.1252 76.3925,-96.8678"/>
</g>
<!-- Node5 -->
<g id="node4" class="node">
<title>Node5</title>
<g id="a_node4"><a xlink:href="rlm__sql_8c.html#a921cda676d8044b1b9c21fe4017a8ab8" target="_top" xlink:title="Executes a SELECT query and maps the result to server attributes. ">
<polygon fill="none" stroke="#000000" points="277.5,-114.5 277.5,-133.5 360.5,-133.5 360.5,-114.5 277.5,-114.5"/>
<text text-anchor="middle" x="319" y="-121.5" font-family="Helvetica,sans-Serif" font-size="10.00" fill="#000000">mod_map_proc</text>
</a>
</g>
</g>
<!-- Node2&#45;&gt;Node5 -->
<g id="edge3" class="edge">
<title>Node2&#45;&gt;Node5</title>
<path fill="none" stroke="#191970" d="M95.9269,-97.8933C107.671,-100.5158 120.2445,-103.0806 132,-105 181.5971,-113.0982 239.1938,-118.329 277.2175,-121.2116"/>
<polygon fill="#191970" stroke="#191970" points="96.3902,-94.4088 85.8613,-95.5885 94.8278,-101.2323 96.3902,-94.4088"/>
</g>
<!-- Node6 -->
<g id="node5" class="node">
<title>Node6</title>
<g id="a_node5"><a xlink:href="rlm__sql_8c.html#a8bf55bf877c7e92d16aa68a2a3c8e68c" target="_top" xlink:title="sql_get_grouplist">
<polygon fill="none" stroke="#000000" points="132,-76.5 132,-95.5 222,-95.5 222,-76.5 132,-76.5"/>
<text text-anchor="middle" x="177" y="-83.5" font-family="Helvetica,sans-Serif" font-size="10.00" fill="#000000">sql_get_grouplist</text>
</a>
</g>
</g>
<!-- Node2&#45;&gt;Node6 -->
<g id="edge5" class="edge">
<title>Node2&#45;&gt;Node6</title>
<path fill="none" stroke="#191970" d="M106.0946,-86C114.7572,-86 123.5754,-86 131.916,-86"/>
<polygon fill="#191970" stroke="#191970" points="106.0349,-82.5001 96.0348,-86 106.0348,-89.5001 106.0349,-82.5001"/>
</g>
<!-- Node10 -->
<g id="node9" class="node">
<title>Node10</title>
<g id="a_node9"><a xlink:href="rlm__sql_8c.html#a3c32864d8c9d017bf4625d54f415b2db" target="_top" xlink:title="mod_instantiate">
<polygon fill="none" stroke="#000000" points="134,-38.5 134,-57.5 220,-57.5 220,-38.5 134,-38.5"/>
<text text-anchor="middle" x="177" y="-45.5" font-family="Helvetica,sans-Serif" font-size="10.00" fill="#000000">mod_instantiate</text>
</a>
</g>
</g>
<!-- Node2&#45;&gt;Node10 -->
<g id="edge11" class="edge">
<title>Node2&#45;&gt;Node10</title>
<path fill="none" stroke="#191970" d="M90.554,-73.4647C108.103,-68.2952 128.1127,-62.4009 144.4583,-57.5859"/>
<polygon fill="#191970" stroke="#191970" points="89.1556,-70.2279 80.5521,-76.411 91.1336,-76.9426 89.1556,-70.2279"/>
</g>
<!-- Node11 -->
<g id="node10" class="node">
<title>Node11</title>
<g id="a_node10"><a xlink:href="sql_8c.html#a8fc72d4ef70f1b5e17083ecd699789a7" target="_top" xlink:title="sql_getvpdata">
<polygon fill="none" stroke="#000000" points="138.5,-.5 138.5,-19.5 215.5,-19.5 215.5,-.5 138.5,-.5"/>
<text text-anchor="middle" x="177" y="-7.5" font-family="Helvetica,sans-Serif" font-size="10.00" fill="#000000">sql_getvpdata</text>
</a>
</g>
</g>
<!-- Node2&#45;&gt;Node11 -->
<g id="edge12" class="edge">
<title>Node2&#45;&gt;Node11</title>
<path fill="none" stroke="#191970" d="M68.9757,-70.0587C85.5396,-57.8979 109.5282,-41.214 132,-29 138.2587,-25.5982 145.2552,-22.3832 151.8313,-19.5987"/>
<polygon fill="#191970" stroke="#191970" points="66.5297,-67.516 60.5942,-76.2922 70.7071,-73.1329 66.5297,-67.516"/>
</g>
<!-- Node4 -->
<g id="node3" class="node">
<title>Node4</title>
<g id="a_node3"><a xlink:href="rlm__sql_8c.html#a9609ab2a4bc7986ec4f346b365737a42" target="_top" xlink:title="mod_bootstrap">
<polygon fill="none" stroke="#000000" points="416,-114.5 416,-133.5 497,-133.5 497,-114.5 416,-114.5"/>
<text text-anchor="middle" x="456.5" y="-121.5" font-family="Helvetica,sans-Serif" font-size="10.00" fill="#000000">mod_bootstrap</text>
</a>
</g>
</g>
<!-- Node3&#45;&gt;Node4 -->
<g id="edge2" class="edge">
<title>Node3&#45;&gt;Node4</title>
<path fill="none" stroke="#191970" d="M353.9861,-152.3311C374.887,-146.5549 401.3262,-139.248 422.1189,-133.5017"/>
<polygon fill="#191970" stroke="#191970" points="352.926,-148.9928 344.2196,-155.0302 354.7907,-155.7399 352.926,-148.9928"/>
</g>
<!-- Node5&#45;&gt;Node4 -->
<g id="edge4" class="edge">
<title>Node5&#45;&gt;Node4</title>
<path fill="none" stroke="#191970" d="M370.7564,-124C385.7053,-124 401.7979,-124 415.9587,-124"/>
<polygon fill="#191970" stroke="#191970" points="370.6277,-120.5001 360.6277,-124 370.6276,-127.5001 370.6277,-120.5001"/>
</g>
<!-- Node7 -->
<g id="node6" class="node">
<title>Node7</title>
<g id="a_node6"><a xlink:href="rlm__sql_8c.html#a30d02242f607ec403df36c59b985c087" target="_top" xlink:title="sql_groupcmp">
<polygon fill="none" stroke="#000000" points="280.5,-76.5 280.5,-95.5 357.5,-95.5 357.5,-76.5 280.5,-76.5"/>
<text text-anchor="middle" x="319" y="-83.5" font-family="Helvetica,sans-Serif" font-size="10.00" fill="#000000">sql_groupcmp</text>
</a>
</g>
</g>
<!-- Node6&#45;&gt;Node7 -->
<g id="edge6" class="edge">
<title>Node6&#45;&gt;Node7</title>
<path fill="none" stroke="#191970" d="M232.6125,-79.3929C248.5685,-79.0922 265.6136,-79.266 280.3107,-79.9141"/>
<polygon fill="#191970" stroke="#191970" points="232.2264,-75.9016 222.3201,-79.6588 232.4072,-82.8993 232.2264,-75.9016"/>
</g>
<!-- Node8 -->
<g id="node7" class="node">
<title>Node8</title>
<g id="a_node7"><a xlink:href="rlm__sql_8c.html#a3e6a6dd9d35941a5801b400cefcdb8ca" target="_top" xlink:title="rlm_sql_process_groups">
<polygon fill="none" stroke="#000000" points="258,-38.5 258,-57.5 380,-57.5 380,-38.5 258,-38.5"/>
<text text-anchor="middle" x="319" y="-45.5" font-family="Helvetica,sans-Serif" font-size="10.00" fill="#000000">rlm_sql_process_groups</text>
</a>
</g>
</g>
<!-- Node6&#45;&gt;Node8 -->
<g id="edge9" class="edge">
<title>Node6&#45;&gt;Node8</title>
<path fill="none" stroke="#191970" d="M222.4929,-73.8258C242.1284,-68.5713 264.7657,-62.5134 283.1789,-57.5859"/>
<polygon fill="#191970" stroke="#191970" points="221.5879,-70.4448 212.8326,-76.411 223.3975,-77.2069 221.5879,-70.4448"/>
</g>
<!-- Node7&#45;&gt;Node4 -->
<g id="edge8" class="edge">
<title>Node7&#45;&gt;Node4</title>
<path fill="none" stroke="#191970" d="M363.5729,-98.3183C382.4645,-103.5393 404.1472,-109.5316 421.814,-114.4141"/>
<polygon fill="#191970" stroke="#191970" points="364.2681,-94.8793 353.6971,-95.589 362.4034,-101.6264 364.2681,-94.8793"/>
</g>
<!-- Node7&#45;&gt;Node6 -->
<g id="edge7" class="edge">
<title>Node7&#45;&gt;Node6</title>
<path fill="none" stroke="#191970" d="M269.9057,-92.4559C254.4633,-92.8831 237.4881,-92.8449 222.3201,-92.3412"/>
<polygon fill="#191970" stroke="#191970" points="270.4415,-95.9392 280.3107,-92.0859 270.1926,-88.9436 270.4415,-95.9392"/>
</g>
<!-- Node9 -->
<g id="node8" class="node">
<title>Node9</title>
<g id="a_node8"><a xlink:href="rlm__sql_8c.html#a9ef7a569b6f2f01a9ba088072c54e516" target="_top" xlink:title="mod_authorize">
<polygon fill="none" stroke="#000000" points="416.5,-19.5 416.5,-38.5 496.5,-38.5 496.5,-19.5 416.5,-19.5"/>
<text text-anchor="middle" x="456.5" y="-26.5" font-family="Helvetica,sans-Serif" font-size="10.00" fill="#000000">mod_authorize</text>
</a>
</g>
</g>
<!-- Node8&#45;&gt;Node9 -->
<g id="edge10" class="edge">
<title>Node8&#45;&gt;Node9</title>
<path fill="none" stroke="#191970" d="M390.1533,-38.1679C399.0566,-36.9376 407.9061,-35.7148 416.1036,-34.582"/>
<polygon fill="#191970" stroke="#191970" points="389.537,-34.7197 380.1102,-39.5557 390.4952,-41.6538 389.537,-34.7197"/>
</g>
<!-- Node11&#45;&gt;Node8 -->
<g id="edge13" class="edge">
<title>Node11&#45;&gt;Node8</title>
<path fill="none" stroke="#191970" d="M222.4929,-22.1742C242.1284,-27.4287 264.7657,-33.4866 283.1789,-38.4141"/>
<polygon fill="#191970" stroke="#191970" points="223.3975,-18.7931 212.8326,-19.589 221.5879,-25.5552 223.3975,-18.7931"/>
</g>
<!-- Node11&#45;&gt;Node9 -->
<g id="edge14" class="edge">
<title>Node11&#45;&gt;Node9</title>
<path fill="none" stroke="#191970" d="M225.5818,-13.3025C279.5312,-16.9699 365.6425,-22.8236 416.0636,-26.2512"/>
<polygon fill="#191970" stroke="#191970" points="225.7842,-9.8083 215.5698,-12.6219 225.3094,-16.7922 225.7842,-9.8083"/>
</g>
</g>
</svg>
