<?xml version="1.0" encoding="UTF-8" standalone="no"?>
<!DOCTYPE svg PUBLIC "-//W3C//DTD SVG 1.1//EN"
 "http://www.w3.org/Graphics/SVG/1.1/DTD/svg11.dtd">
<!-- Generated by graphviz version 2.40.1 (20161225.0304)
 -->
<!-- Title: sql_getvpdata Pages: 1 -->
<svg width="1129pt" height="895pt"
 viewBox="0.00 0.00 1129.00 895.00" xmlns="http://www.w3.org/2000/svg" xmlns:xlink="http://www.w3.org/1999/xlink">
<g id="graph0" class="graph" transform="scale(1 1) rotate(0) translate(4 891)">
<title>sql_getvpdata</title>
<!-- Node2352 -->
<g id="node1" class="node">
<title>Node2352</title>
<polygon fill="#bfbfbf" stroke="#000000" points="0,-614.5 0,-633.5 77,-633.5 77,-614.5 0,-614.5"/>
<text text-anchor="middle" x="38.5" y="-621.5" font-family="Helvetica,sans-Serif" font-size="10.00" fill="#000000">sql_getvpdata</text>
</g>
<!-- Node2353 -->
<g id="node2" class="node">
<title>Node2353</title>
<g id="a_node2"><a xlink:href="sql_8c.html#a4af6c0c85e68a016eea0d569dc2b50bd" target="_top" xlink:title="Call the driver&#39;s sql_select_query method, reconnecting if necessary. ">
<polygon fill="none" stroke="#000000" points="113,-655.5 113,-674.5 222,-674.5 222,-655.5 113,-655.5"/>
<text text-anchor="middle" x="167.5" y="-662.5" font-family="Helvetica,sans-Serif" font-size="10.00" fill="#000000">rlm_sql_select_query</text>
</a>
</g>
</g>
<!-- Node2352&#45;&gt;Node2353 -->
<g id="edge1" class="edge">
<title>Node2352&#45;&gt;Node2353</title>
<path fill="none" stroke="#191970" d="M68.4194,-633.5093C86.0395,-639.1094 108.5477,-646.2632 127.6568,-652.3367"/>
<polygon fill="#191970" stroke="#191970" points="126.7056,-655.7068 137.296,-655.4003 128.8259,-649.0356 126.7056,-655.7068"/>
</g>
<!-- Node3051 -->
<g id="node18" class="node">
<title>Node3051</title>
<g id="a_node18"><a xlink:href="sql_8c.html#a5d48a69af545c105cbb7bec125b2985b" target="_top" xlink:title="Call the driver&#39;s sql_fetch_row function. ">
<polygon fill="none" stroke="#000000" points="119.5,-614.5 119.5,-633.5 215.5,-633.5 215.5,-614.5 119.5,-614.5"/>
<text text-anchor="middle" x="167.5" y="-621.5" font-family="Helvetica,sans-Serif" font-size="10.00" fill="#000000">rlm_sql_fetch_row</text>
</a>
</g>
</g>
<!-- Node2352&#45;&gt;Node3051 -->
<g id="edge25" class="edge">
<title>Node2352&#45;&gt;Node3051</title>
<path fill="none" stroke="#191970" d="M77.2043,-624C87.2151,-624 98.2185,-624 108.9966,-624"/>
<polygon fill="#191970" stroke="#191970" points="109.2215,-627.5001 119.2215,-624 109.2215,-620.5001 109.2215,-627.5001"/>
</g>
<!-- Node3052 -->
<g id="node19" class="node">
<title>Node3052</title>
<g id="a_node19"><a xlink:href="sql_8c.html#af3d5cf0827dad35d98c18cc0dc808779" target="_top" xlink:title="sql_fr_pair_list_afrom_str">
<polygon fill="none" stroke="#000000" points="392,-506.5 392,-525.5 518,-525.5 518,-506.5 392,-506.5"/>
<text text-anchor="middle" x="455" y="-513.5" font-family="Helvetica,sans-Serif" font-size="10.00" fill="#000000">sql_fr_pair_list_afrom_str</text>
</a>
</g>
</g>
<!-- Node2352&#45;&gt;Node3052 -->
<g id="edge27" class="edge">
<title>Node2352&#45;&gt;Node3052</title>
<path fill="none" stroke="#191970" d="M75.4616,-614.4157C151.4122,-594.7214 324.8919,-549.7375 408.3964,-528.0845"/>
<polygon fill="#191970" stroke="#191970" points="409.3199,-531.4609 418.1212,-525.5628 407.5628,-524.6849 409.3199,-531.4609"/>
</g>
<!-- Node2354 -->
<g id="node3" class="node">
<title>Node2354</title>
<g id="a_node3"><a xlink:href="pool_8c.html#a6b251d458c1229ed4a5f061ac6c70616" target="_top" xlink:title="Get the number of connections currently in the pool. ">
<polygon fill="none" stroke="#000000" points="270.5,-702.5 270.5,-721.5 343.5,-721.5 343.5,-702.5 270.5,-702.5"/>
<text text-anchor="middle" x="307" y="-709.5" font-family="Helvetica,sans-Serif" font-size="10.00" fill="#000000">fr_pool_state</text>
</a>
</g>
</g>
<!-- Node2353&#45;&gt;Node2354 -->
<g id="edge2" class="edge">
<title>Node2353&#45;&gt;Node2354</title>
<path fill="none" stroke="#191970" d="M195.7299,-674.5112C216.7679,-681.5992 245.7292,-691.3568 268.8313,-699.1403"/>
<polygon fill="#191970" stroke="#191970" points="267.7392,-702.4656 278.3333,-702.3417 269.9742,-695.832 267.7392,-702.4656"/>
</g>
<!-- Node2355 -->
<g id="node4" class="node">
<title>Node2355</title>
<g id="a_node4"><a xlink:href="pool_8c.html#af1511bb1bd5b110243f5e53e9188e3dd" target="_top" xlink:title="Reconnect a suspected inviable connection. ">
<polygon fill="none" stroke="#000000" points="258,-653 258,-683 356,-683 356,-653 258,-653"/>
<text text-anchor="start" x="266" y="-671" font-family="Helvetica,sans-Serif" font-size="10.00" fill="#000000">fr_pool_connection</text>
<text text-anchor="middle" x="307" y="-660" font-family="Helvetica,sans-Serif" font-size="10.00" fill="#000000">_reconnect</text>
</a>
</g>
</g>
<!-- Node2353&#45;&gt;Node2355 -->
<g id="edge3" class="edge">
<title>Node2353&#45;&gt;Node2355</title>
<path fill="none" stroke="#191970" d="M222.2337,-666.1771C230.5908,-666.3568 239.2498,-666.543 247.6995,-666.7247"/>
<polygon fill="#191970" stroke="#191970" points="247.7951,-670.2275 257.8681,-666.9434 247.9457,-663.2291 247.7951,-670.2275"/>
</g>
<!-- Node3050 -->
<g id="node17" class="node">
<title>Node3050</title>
<g id="a_node17"><a xlink:href="sql_8c.html#aeda61730c10ca4d56c6c67b34e7f665b" target="_top" xlink:title="Retrieve any errors from the SQL driver. ">
<polygon fill="none" stroke="#000000" points="258.5,-614.5 258.5,-633.5 355.5,-633.5 355.5,-614.5 258.5,-614.5"/>
<text text-anchor="middle" x="307" y="-621.5" font-family="Helvetica,sans-Serif" font-size="10.00" fill="#000000">rlm_sql_print_error</text>
</a>
</g>
</g>
<!-- Node2353&#45;&gt;Node3050 -->
<g id="edge24" class="edge">
<title>Node2353&#45;&gt;Node3050</title>
<path fill="none" stroke="#191970" d="M199.8547,-655.4907C219.0838,-649.8392 243.6963,-642.6054 264.4816,-636.4964"/>
<polygon fill="#191970" stroke="#191970" points="265.7302,-639.7776 274.3375,-633.5997 263.7563,-633.0616 265.7302,-639.7776"/>
</g>
<!-- Node2356 -->
<g id="node5" class="node">
<title>Node2356</title>
<g id="a_node5"><a xlink:href="pool_8c.html#a14166bb15f94ea500ee77d1e702fb6b5" target="_top" xlink:title="Find a connection handle in the connection list. ">
<polygon fill="none" stroke="#000000" points="412.5,-696.5 412.5,-715.5 497.5,-715.5 497.5,-696.5 412.5,-696.5"/>
<text text-anchor="middle" x="455" y="-703.5" font-family="Helvetica,sans-Serif" font-size="10.00" fill="#000000">connection_find</text>
</a>
</g>
</g>
<!-- Node2355&#45;&gt;Node2356 -->
<g id="edge4" class="edge">
<title>Node2355&#45;&gt;Node2356</title>
<path fill="none" stroke="#191970" d="M356.2819,-680.6534C372.8552,-684.9088 391.2973,-689.6439 407.7136,-693.8589"/>
<polygon fill="#191970" stroke="#191970" points="407.0821,-697.3102 417.6384,-696.4072 408.823,-690.5301 407.0821,-697.3102"/>
</g>
<!-- Node2357 -->
<g id="node6" class="node">
<title>Node2357</title>
<g id="a_node6"><a xlink:href="pool_8c.html#a405d785679ea12b6919284a0cc70e479" target="_top" xlink:title="Close an existing connection. ">
<polygon fill="none" stroke="#000000" points="704,-677.5 704,-696.5 833,-696.5 833,-677.5 704,-677.5"/>
<text text-anchor="middle" x="768.5" y="-684.5" font-family="Helvetica,sans-Serif" font-size="10.00" fill="#000000">connection_close_internal</text>
</a>
</g>
</g>
<!-- Node2355&#45;&gt;Node2357 -->
<g id="edge5" class="edge">
<title>Node2355&#45;&gt;Node2357</title>
<path fill="none" stroke="#191970" d="M356.1326,-655.0939C367.8064,-652.5637 380.2768,-650.2943 392,-649 509.6278,-636.0136 541.1372,-642.3448 658,-661 679.9763,-664.5082 704.0651,-669.9802 724.1267,-675.0011"/>
<polygon fill="#191970" stroke="#191970" points="723.366,-678.419 733.9205,-677.4956 725.0938,-671.6356 723.366,-678.419"/>
</g>
<!-- Node3028 -->
<g id="node11" class="node">
<title>Node3028</title>
<g id="a_node11"><a xlink:href="pool_8c.html#a34653fe49349ad33c89e7a459e24293a" target="_top" xlink:title="Check whether any connections need to be removed from the pool. ">
<polygon fill="none" stroke="#000000" points="407.5,-658.5 407.5,-677.5 502.5,-677.5 502.5,-658.5 407.5,-658.5"/>
<text text-anchor="middle" x="455" y="-665.5" font-family="Helvetica,sans-Serif" font-size="10.00" fill="#000000">connection_check</text>
</a>
</g>
</g>
<!-- Node2355&#45;&gt;Node3028 -->
<g id="edge10" class="edge">
<title>Node2355&#45;&gt;Node3028</title>
<path fill="none" stroke="#191970" d="M356.2819,-668C369.4154,-668 383.7226,-668 397.2652,-668"/>
<polygon fill="#191970" stroke="#191970" points="397.4401,-671.5001 407.4401,-668 397.4401,-664.5001 397.4401,-671.5001"/>
</g>
<!-- Node3049 -->
<g id="node15" class="node">
<title>Node3049</title>
<g id="a_node15"><a xlink:href="pool_8c.html#a11f577ec1c9437bc561bace7b90d6768" target="_top" xlink:title="Get a connection from the connection pool. ">
<polygon fill="none" stroke="#000000" points="395.5,-753.5 395.5,-772.5 514.5,-772.5 514.5,-753.5 395.5,-753.5"/>
<text text-anchor="middle" x="455" y="-760.5" font-family="Helvetica,sans-Serif" font-size="10.00" fill="#000000">connection_get_internal</text>
</a>
</g>
</g>
<!-- Node2355&#45;&gt;Node3049 -->
<g id="edge17" class="edge">
<title>Node2355&#45;&gt;Node3049</title>
<path fill="none" stroke="#191970" d="M339.5668,-683.1367C345.1919,-686.1641 350.8739,-689.499 356,-693 373.6777,-705.0735 374.7618,-712.3069 392,-725 403.4435,-733.4262 416.8396,-741.7057 428.3297,-748.3745"/>
<polygon fill="#191970" stroke="#191970" points="426.6407,-751.4404 437.0621,-753.3494 430.1058,-745.3582 426.6407,-751.4404"/>
</g>
<!-- Node2358 -->
<g id="node7" class="node">
<title>Node2358</title>
<g id="a_node7"><a xlink:href="heap_8c.html#a2071e6c3699b74317dc7968e377fdced" target="_top" xlink:title="Remove a node from the heap. ">
<polygon fill="none" stroke="#ff0000" points="897,-753.5 897,-772.5 981,-772.5 981,-753.5 897,-753.5"/>
<text text-anchor="middle" x="939" y="-760.5" font-family="Helvetica,sans-Serif" font-size="10.00" fill="#000000">fr_heap_extract</text>
</a>
</g>
</g>
<!-- Node2357&#45;&gt;Node2358 -->
<g id="edge6" class="edge">
<title>Node2357&#45;&gt;Node2358</title>
<path fill="none" stroke="#191970" d="M784.929,-696.5968C806.1535,-708.7303 844.4812,-729.752 879,-744 884.3703,-746.2166 890.0982,-748.3322 895.8034,-750.2929"/>
<polygon fill="#191970" stroke="#191970" points="894.7232,-753.622 905.3164,-753.4372 896.92,-746.9757 894.7232,-753.622"/>
</g>
<!-- Node2494 -->
<g id="node9" class="node">
<title>Node2494</title>
<g id="a_node9"><a xlink:href="pool_8c.html#adf8965c10f53aba7de0ad83e031f8568" target="_top" xlink:title="Send a connection pool trigger. ">
<polygon fill="none" stroke="#ff0000" points="887,-715.5 887,-734.5 991,-734.5 991,-715.5 887,-715.5"/>
<text text-anchor="middle" x="939" y="-722.5" font-family="Helvetica,sans-Serif" font-size="10.00" fill="#000000">fr_pool_trigger_exec</text>
</a>
</g>
</g>
<!-- Node2357&#45;&gt;Node2494 -->
<g id="edge8" class="edge">
<title>Node2357&#45;&gt;Node2494</title>
<path fill="none" stroke="#191970" d="M811.5243,-696.589C834.2264,-701.6487 862.2732,-707.8996 886.274,-713.2488"/>
<polygon fill="#191970" stroke="#191970" points="885.7631,-716.7207 896.285,-715.4799 887.2859,-709.8883 885.7631,-716.7207"/>
</g>
<!-- Node3027 -->
<g id="node10" class="node">
<title>Node3027</title>
<g id="a_node10"><a xlink:href="pool_8c.html#a2d50aacfed1e9516241ca7b08a47e872" target="_top" xlink:title="Removes a connection from the connection list. ">
<polygon fill="none" stroke="#000000" points="891.5,-677.5 891.5,-696.5 986.5,-696.5 986.5,-677.5 891.5,-677.5"/>
<text text-anchor="middle" x="939" y="-684.5" font-family="Helvetica,sans-Serif" font-size="10.00" fill="#000000">connection_unlink</text>
</a>
</g>
</g>
<!-- Node2357&#45;&gt;Node3027 -->
<g id="edge9" class="edge">
<title>Node2357&#45;&gt;Node3027</title>
<path fill="none" stroke="#191970" d="M833.4451,-687C849.12,-687 865.7672,-687 881.0953,-687"/>
<polygon fill="#191970" stroke="#191970" points="881.4682,-690.5001 891.4682,-687 881.4681,-683.5001 881.4682,-690.5001"/>
</g>
<!-- Node2359 -->
<g id="node8" class="node">
<title>Node2359</title>
<g id="a_node8"><a xlink:href="strerror_8c.html#ae701765650b8aea79a3037bc4921d7f8" target="_top" xlink:title="Log to thread local error buffer. ">
<polygon fill="none" stroke="#ff0000" points="1035,-392.5 1035,-411.5 1121,-411.5 1121,-392.5 1035,-392.5"/>
<text text-anchor="middle" x="1078" y="-399.5" font-family="Helvetica,sans-Serif" font-size="10.00" fill="#000000">fr_strerror_printf</text>
</a>
</g>
</g>
<!-- Node2358&#45;&gt;Node2359 -->
<g id="edge7" class="edge">
<title>Node2358&#45;&gt;Node2359</title>
<path fill="none" stroke="#191970" d="M981.0078,-755.893C987.7501,-753.1275 994.1078,-749.2983 999,-744 1043.4582,-695.8511 1068.9769,-487.1913 1075.9981,-421.7249"/>
<polygon fill="#191970" stroke="#191970" points="1079.5033,-421.8571 1077.0629,-411.5472 1072.5413,-421.1287 1079.5033,-421.8571"/>
</g>
<!-- Node3028&#45;&gt;Node2357 -->
<g id="edge14" class="edge">
<title>Node3028&#45;&gt;Node2357</title>
<path fill="none" stroke="#191970" d="M502.6765,-665.7161C543.8767,-664.2877 604.9758,-663.4746 658,-668 676.1586,-669.5498 695.8149,-672.5073 713.4446,-675.6356"/>
<polygon fill="#191970" stroke="#191970" points="713.0972,-679.13 723.5639,-677.4878 714.3576,-672.2444 713.0972,-679.13"/>
</g>
<!-- Node3029 -->
<g id="node12" class="node">
<title>Node3029</title>
<g id="a_node12"><a xlink:href="pool_8c.html#a41541ea89745dd51029d73fb008d6021" target="_top" xlink:title="Spawns a new connection. ">
<polygon fill="none" stroke="#ff0000" points="557,-715.5 557,-734.5 655,-734.5 655,-715.5 557,-715.5"/>
<text text-anchor="middle" x="606" y="-722.5" font-family="Helvetica,sans-Serif" font-size="10.00" fill="#000000">connection_spawn</text>
</a>
</g>
</g>
<!-- Node3028&#45;&gt;Node3029 -->
<g id="edge11" class="edge">
<title>Node3028&#45;&gt;Node3029</title>
<path fill="none" stroke="#191970" d="M491.0679,-677.5741C499.9881,-680.2966 509.4388,-683.4882 518,-687 534.7382,-693.866 537.4657,-698.6565 554,-706 558.4854,-707.9921 563.2503,-709.9455 568.0047,-711.7962"/>
<polygon fill="#191970" stroke="#191970" points="567.0644,-715.182 577.6563,-715.4307 569.5313,-708.6311 567.0644,-715.182"/>
</g>
<!-- Node3048 -->
<g id="node14" class="node">
<title>Node3048</title>
<g id="a_node14"><a xlink:href="pool_8c.html#a5c4d51ce852622144646a301d95bd3ec" target="_top" xlink:title="Check whether a connection needs to be removed from the pool. ">
<polygon fill="none" stroke="#000000" points="554,-677.5 554,-696.5 658,-696.5 658,-677.5 554,-677.5"/>
<text text-anchor="middle" x="606" y="-684.5" font-family="Helvetica,sans-Serif" font-size="10.00" fill="#000000">connection_manage</text>
</a>
</g>
</g>
<!-- Node3028&#45;&gt;Node3048 -->
<g id="edge15" class="edge">
<title>Node3028&#45;&gt;Node3048</title>
<path fill="none" stroke="#191970" d="M502.7773,-674.0117C515.7216,-675.6405 529.9283,-677.4281 543.5505,-679.1421"/>
<polygon fill="#191970" stroke="#191970" points="543.4642,-682.6588 553.8229,-680.4347 544.3381,-675.7135 543.4642,-682.6588"/>
</g>
<!-- Node3029&#45;&gt;Node2494 -->
<g id="edge13" class="edge">
<title>Node3029&#45;&gt;Node2494</title>
<path fill="none" stroke="#191970" d="M655.1353,-725C713.9174,-725 812.409,-725 876.5392,-725"/>
<polygon fill="#191970" stroke="#191970" points="876.9173,-728.5001 886.9173,-725 876.9173,-721.5001 876.9173,-728.5001"/>
</g>
<!-- Node3030 -->
<g id="node13" class="node">
<title>Node3030</title>
<g id="a_node13"><a xlink:href="lib_2util_2log_8h.html#a123c2202d725dbc6b308ad9a06bc91d4" target="_top" xlink:title="Whether rate limiting is enabled. ">
<polygon fill="none" stroke="#ff0000" points="715,-753.5 715,-772.5 822,-772.5 822,-753.5 715,-753.5"/>
<text text-anchor="middle" x="768.5" y="-760.5" font-family="Helvetica,sans-Serif" font-size="10.00" fill="#000000">fr_rate_limit_enabled</text>
</a>
</g>
</g>
<!-- Node3029&#45;&gt;Node3030 -->
<g id="edge12" class="edge">
<title>Node3029&#45;&gt;Node3030</title>
<path fill="none" stroke="#191970" d="M647.0056,-734.589C668.5458,-739.6261 695.1347,-745.8438 717.9414,-751.1771"/>
<polygon fill="#191970" stroke="#191970" points="717.255,-754.6109 727.7893,-753.4799 718.8489,-747.7948 717.255,-754.6109"/>
</g>
<!-- Node3048&#45;&gt;Node2357 -->
<g id="edge16" class="edge">
<title>Node3048&#45;&gt;Node2357</title>
<path fill="none" stroke="#191970" d="M658.3105,-687C669.5051,-687 681.5428,-687 693.4046,-687"/>
<polygon fill="#191970" stroke="#191970" points="693.7577,-690.5001 703.7577,-687 693.7576,-683.5001 693.7577,-690.5001"/>
</g>
<!-- Node3049&#45;&gt;Node2358 -->
<g id="edge20" class="edge">
<title>Node3049&#45;&gt;Node2358</title>
<path fill="none" stroke="#191970" d="M468.2423,-772.6633C486.4728,-785.3078 520.8252,-806.8175 554,-815 678.7071,-845.7589 718.4919,-846.555 843,-815 870.7903,-807.9569 899.253,-791.0846 917.8929,-778.4563"/>
<polygon fill="#191970" stroke="#191970" points="920.0065,-781.2495 926.2083,-772.6595 916.0033,-775.507 920.0065,-781.2495"/>
</g>
<!-- Node3049&#45;&gt;Node2494 -->
<g id="edge22" class="edge">
<title>Node3049&#45;&gt;Node2494</title>
<path fill="none" stroke="#191970" d="M483.2942,-772.5177C549.4648,-793.0916 718.1632,-835.6963 843,-782 864.3713,-772.8075 859.2835,-756.3488 879,-744 882.3423,-741.9066 885.9349,-740.0259 889.6407,-738.3394"/>
<polygon fill="#191970" stroke="#191970" points="891.0584,-741.5413 899.0075,-734.5369 888.4254,-735.0554 891.0584,-741.5413"/>
</g>
<!-- Node3049&#45;&gt;Node3029 -->
<g id="edge23" class="edge">
<title>Node3049&#45;&gt;Node3029</title>
<path fill="none" stroke="#191970" d="M493.1037,-753.411C512.94,-748.4191 537.3839,-742.2676 558.4483,-736.9666"/>
<polygon fill="#191970" stroke="#191970" points="559.3269,-740.3548 568.1703,-734.5201 557.6185,-733.5664 559.3269,-740.3548"/>
</g>
<!-- Node3049&#45;&gt;Node3030 -->
<g id="edge21" class="edge">
<title>Node3049&#45;&gt;Node3030</title>
<path fill="none" stroke="#191970" d="M514.7049,-763C569.0595,-763 649.0809,-763 704.6839,-763"/>
<polygon fill="#191970" stroke="#191970" points="704.7704,-766.5001 714.7703,-763 704.7703,-759.5001 704.7704,-766.5001"/>
</g>
<!-- Node3049&#45;&gt;Node3048 -->
<g id="edge19" class="edge">
<title>Node3049&#45;&gt;Node3048</title>
<path fill="none" stroke="#191970" d="M470.934,-753.3773C494.506,-739.2194 537.6433,-713.6278 554,-706 558.3446,-703.974 562.97,-702.0162 567.602,-700.177"/>
<polygon fill="#191970" stroke="#191970" points="568.9325,-703.4156 577.031,-696.5844 566.4402,-696.8743 568.9325,-703.4156"/>
</g>
<!-- Node2762 -->
<g id="node16" class="node">
<title>Node2762</title>
<g id="a_node16"><a xlink:href="heap_8c.html#ab084b77223ee54a38005dfc8113b679a" target="_top" xlink:title="fr_heap_peek">
<polygon fill="none" stroke="#000000" points="568.5,-867.5 568.5,-886.5 643.5,-886.5 643.5,-867.5 568.5,-867.5"/>
<text text-anchor="middle" x="606" y="-874.5" font-family="Helvetica,sans-Serif" font-size="10.00" fill="#000000">fr_heap_peek</text>
</a>
</g>
</g>
<!-- Node3049&#45;&gt;Node2762 -->
<g id="edge18" class="edge">
<title>Node3049&#45;&gt;Node2762</title>
<path fill="none" stroke="#191970" d="M463.7528,-772.7211C480.1093,-790.4581 517.0143,-828.497 554,-853 559.5484,-856.6758 565.7505,-860.0702 571.885,-863.0791"/>
<polygon fill="#191970" stroke="#191970" points="570.8212,-866.4437 581.3658,-867.4749 573.7658,-860.0931 570.8212,-866.4437"/>
</g>
<!-- Node3051&#45;&gt;Node3050 -->
<g id="edge26" class="edge">
<title>Node3051&#45;&gt;Node3050</title>
<path fill="none" stroke="#191970" d="M215.508,-624C226.0197,-624 237.2634,-624 248.1445,-624"/>
<polygon fill="#191970" stroke="#191970" points="248.43,-627.5001 258.43,-624 248.4299,-620.5001 248.43,-627.5001"/>
</g>
<!-- Node3053 -->
<g id="node20" class="node">
<title>Node3053</title>
<g id="a_node20"><a xlink:href="token_8c.html#a63da63327ca77e81fe2789b916d45c7e" target="_top" xlink:title="gettoken">
<polygon fill="none" stroke="#000000" points="579,-563.5 579,-582.5 633,-582.5 633,-563.5 579,-563.5"/>
<text text-anchor="middle" x="606" y="-570.5" font-family="Helvetica,sans-Serif" font-size="10.00" fill="#000000">gettoken</text>
</a>
</g>
</g>
<!-- Node3052&#45;&gt;Node3053 -->
<g id="edge28" class="edge">
<title>Node3052&#45;&gt;Node3053</title>
<path fill="none" stroke="#191970" d="M480.274,-525.5405C505.0991,-534.9116 543.183,-549.2876 570.9317,-559.7623"/>
<polygon fill="#191970" stroke="#191970" points="570.0518,-563.1712 580.6435,-563.4284 572.524,-556.6222 570.0518,-563.1712"/>
</g>
<!-- Node3055 -->
<g id="node22" class="node">
<title>Node3055</title>
<g id="a_node22"><a xlink:href="pair__legacy_8c.html#adb5f7eea621e460b15273d711790fd94" target="_top" xlink:title="Create a fr_pair_t from ASCII strings. ">
<polygon fill="none" stroke="#000000" points="569.5,-316.5 569.5,-335.5 642.5,-335.5 642.5,-316.5 569.5,-316.5"/>
<text text-anchor="middle" x="606" y="-323.5" font-family="Helvetica,sans-Serif" font-size="10.00" fill="#000000">fr_pair_make</text>
</a>
</g>
</g>
<!-- Node3052&#45;&gt;Node3055 -->
<g id="edge31" class="edge">
<title>Node3052&#45;&gt;Node3055</title>
<path fill="none" stroke="#191970" d="M462.6957,-506.3167C486.7214,-476.0857 560.5925,-383.1353 591.8242,-343.8371"/>
<polygon fill="#191970" stroke="#191970" points="594.657,-345.8981 598.1387,-335.8917 589.1768,-341.5428 594.657,-345.8981"/>
</g>
<!-- Node3063 -->
<g id="node30" class="node">
<title>Node3063</title>
<g id="a_node30"><a xlink:href="pair_8c.html#ab9e25c74bb9ef78b83670677679cfcdc" target="_top" xlink:title="Convert string value to native attribute value. ">
<polygon fill="none" stroke="#ff0000" points="882.5,-449.5 882.5,-468.5 995.5,-468.5 995.5,-449.5 882.5,-449.5"/>
<text text-anchor="middle" x="939" y="-456.5" font-family="Helvetica,sans-Serif" font-size="10.00" fill="#000000">fr_pair_value_from_str</text>
</a>
</g>
</g>
<!-- Node3052&#45;&gt;Node3063 -->
<g id="edge64" class="edge">
<title>Node3052&#45;&gt;Node3063</title>
<path fill="none" stroke="#191970" d="M474.5329,-506.3698C494.1049,-497.2375 525.3582,-484.042 554,-478 663.6671,-454.8655 794.623,-453.8691 872.0745,-455.946"/>
<polygon fill="#191970" stroke="#191970" points="872.078,-459.4475 882.1765,-456.2426 872.2835,-452.4505 872.078,-459.4475"/>
</g>
<!-- Node3067 -->
<g id="node37" class="node">
<title>Node3067</title>
<g id="a_node37"><a xlink:href="pair__legacy_8c.html#abd956acfbb07907f6955606e151f488f" target="_top" xlink:title="Mark a valuepair for xlat expansion. ">
<polygon fill="none" stroke="#000000" points="722.5,-506.5 722.5,-525.5 814.5,-525.5 814.5,-506.5 722.5,-506.5"/>
<text text-anchor="middle" x="768.5" y="-513.5" font-family="Helvetica,sans-Serif" font-size="10.00" fill="#000000">fr_pair_mark_xlat</text>
</a>
</g>
</g>
<!-- Node3052&#45;&gt;Node3067 -->
<g id="edge63" class="edge">
<title>Node3052&#45;&gt;Node3067</title>
<path fill="none" stroke="#191970" d="M518.0643,-516C574.8405,-516 657.5183,-516 712.1323,-516"/>
<polygon fill="#191970" stroke="#191970" points="712.3276,-519.5001 722.3276,-516 712.3275,-512.5001 712.3276,-519.5001"/>
</g>
<!-- Node2563 -->
<g id="node39" class="node">
<title>Node2563</title>
<g id="a_node39"><a xlink:href="cursor_8c.html#a6e72682a046a3eeac734da6639f1817c" target="_top" xlink:title="Insert a single item at the end of the list. ">
<polygon fill="none" stroke="#ff0000" points="560,-487.5 560,-506.5 652,-506.5 652,-487.5 560,-487.5"/>
<text text-anchor="middle" x="606" y="-494.5" font-family="Helvetica,sans-Serif" font-size="10.00" fill="#000000">fr_cursor_append</text>
</a>
</g>
</g>
<!-- Node3052&#45;&gt;Node2563 -->
<g id="edge65" class="edge">
<title>Node3052&#45;&gt;Node2563</title>
<path fill="none" stroke="#191970" d="M518.1627,-508.0524C528.588,-506.7406 539.3358,-505.3882 549.5819,-504.099"/>
<polygon fill="#191970" stroke="#191970" points="550.1455,-507.5557 559.6302,-502.8346 549.2715,-500.6105 550.1455,-507.5557"/>
</g>
<!-- Node3054 -->
<g id="node21" class="node">
<title>Node3054</title>
<g id="a_node21"><a xlink:href="token_8c.html#a90a5bb27a8308316e330a32fcf374460" target="_top" xlink:title="getthing">
<polygon fill="none" stroke="#000000" points="743,-563.5 743,-582.5 794,-582.5 794,-563.5 743,-563.5"/>
<text text-anchor="middle" x="768.5" y="-570.5" font-family="Helvetica,sans-Serif" font-size="10.00" fill="#000000">getthing</text>
</a>
</g>
</g>
<!-- Node3053&#45;&gt;Node3054 -->
<g id="edge29" class="edge">
<title>Node3053&#45;&gt;Node3054</title>
<path fill="none" stroke="#191970" d="M633.1988,-573C660.5167,-573 702.7535,-573 732.7627,-573"/>
<polygon fill="#191970" stroke="#191970" points="732.8229,-576.5001 742.8229,-573 732.8228,-569.5001 732.8229,-576.5001"/>
</g>
<!-- Node3054&#45;&gt;Node2359 -->
<g id="edge30" class="edge">
<title>Node3054&#45;&gt;Node2359</title>
<path fill="none" stroke="#191970" d="M794.2539,-576.3433C839.7798,-580.8605 935.6381,-583.9736 999,-541 1041.3512,-512.2764 1063.6747,-452.8352 1072.8524,-421.8159"/>
<polygon fill="#191970" stroke="#191970" points="1076.3353,-422.356 1075.6516,-411.7832 1069.5928,-420.4747 1076.3353,-422.356"/>
</g>
<!-- Node3055&#45;&gt;Node2359 -->
<g id="edge47" class="edge">
<title>Node3055&#45;&gt;Node2359</title>
<path fill="none" stroke="#191970" d="M619.4022,-316.414C672.1271,-279.9753 868.7514,-156.1692 999,-238 1050.1916,-270.162 1068.9896,-345.8332 1075.2217,-382.03"/>
<polygon fill="#191970" stroke="#191970" points="1071.8234,-382.952 1076.8287,-392.29 1078.7391,-381.8688 1071.8234,-382.952"/>
</g>
<!-- Node3055&#45;&gt;Node3055 -->
<g id="edge58" class="edge">
<title>Node3055&#45;&gt;Node3055</title>
<path fill="none" stroke="#191970" d="M582.8806,-335.7571C571.6334,-344.5653 579.3398,-354 606,-354 623.4957,-354 632.8288,-349.9368 633.9991,-344.6539"/>
<polygon fill="#191970" stroke="#191970" points="636.9971,-342.8417 629.1194,-335.7571 630.8597,-346.208 636.9971,-342.8417"/>
</g>
<!-- Node3056 -->
<g id="node23" class="node">
<title>Node3056</title>
<g id="a_node23"><a xlink:href="dict_8h.html#a9b41584ef21da4b8c62d809233f8fcaf" target="_top" xlink:title="Locate a qualified fr_dict_attr_t by its name and a dictionary qualifier. ">
<polygon fill="none" stroke="#000000" points="694,-133.5 694,-152.5 843,-152.5 843,-133.5 694,-133.5"/>
<text text-anchor="middle" x="768.5" y="-140.5" font-family="Helvetica,sans-Serif" font-size="10.00" fill="#000000">fr_dict_attr_by_qualified_name</text>
</a>
</g>
</g>
<!-- Node3055&#45;&gt;Node3056 -->
<g id="edge32" class="edge">
<title>Node3055&#45;&gt;Node3056</title>
<path fill="none" stroke="#191970" d="M608.2243,-316.4741C615.3421,-288.1829 640.3074,-204.0172 694,-162 696.3159,-160.1877 698.785,-158.5466 701.3637,-157.0606"/>
<polygon fill="#191970" stroke="#191970" points="703.0542,-160.1298 710.4904,-152.583 699.971,-153.8454 703.0542,-160.1298"/>
</g>
<!-- Node3058 -->
<g id="node25" class="node">
<title>Node3058</title>
<g id="a_node25"><a xlink:href="pair__legacy_8c.html#aef4b803056679df01b49d62f204ef4c5" target="_top" xlink:title="Create a valuepair from an ASCII attribute and value. ">
<polygon fill="none" stroke="#000000" points="710,-297.5 710,-316.5 827,-316.5 827,-297.5 710,-297.5"/>
<text text-anchor="middle" x="768.5" y="-304.5" font-family="Helvetica,sans-Serif" font-size="10.00" fill="#000000">fr_pair_make_unknown</text>
</a>
</g>
</g>
<!-- Node3055&#45;&gt;Node3058 -->
<g id="edge35" class="edge">
<title>Node3055&#45;&gt;Node3058</title>
<path fill="none" stroke="#191970" d="M642.8738,-321.6886C659.6992,-319.7213 680.187,-317.3258 699.6945,-315.0449"/>
<polygon fill="#191970" stroke="#191970" points="700.2559,-318.5032 709.7817,-313.8655 699.4429,-311.5506 700.2559,-318.5032"/>
</g>
<!-- Node3055&#45;&gt;Node3063 -->
<g id="edge62" class="edge">
<title>Node3055&#45;&gt;Node3063</title>
<path fill="none" stroke="#191970" d="M614.1681,-335.5967C628.57,-351.8733 660.1722,-384.7965 694,-402 725.1119,-417.8223 812.8952,-436.1093 874.4461,-447.6139"/>
<polygon fill="#191970" stroke="#191970" points="873.9972,-451.0903 884.4675,-449.4707 875.2725,-444.2074 873.9972,-451.0903"/>
</g>
<!-- Node3065 -->
<g id="node31" class="node">
<title>Node3065</title>
<g id="a_node31"><a xlink:href="pair_8c.html#a7869a79cbea0f296a61340c95a0644ed" target="_top" xlink:title="Add a VP to the end of the list. ">
<polygon fill="none" stroke="#000000" points="736,-335.5 736,-354.5 801,-354.5 801,-335.5 736,-335.5"/>
<text text-anchor="middle" x="768.5" y="-342.5" font-family="Helvetica,sans-Serif" font-size="10.00" fill="#000000">fr_pair_add</text>
</a>
</g>
</g>
<!-- Node3055&#45;&gt;Node3065 -->
<g id="edge46" class="edge">
<title>Node3055&#45;&gt;Node3065</title>
<path fill="none" stroke="#191970" d="M642.8738,-330.3114C667.482,-333.1887 699.9245,-336.9819 725.6761,-339.9929"/>
<polygon fill="#191970" stroke="#191970" points="725.5623,-343.5034 735.9011,-341.1884 726.3753,-336.5507 725.5623,-343.5034"/>
</g>
<!-- Node2517 -->
<g id="node32" class="node">
<title>Node2517</title>
<g id="a_node32"><a xlink:href="pair_8c.html#a2897183dcbc65ef1b54619bd293fd735" target="_top" xlink:title="Dynamically allocate a new attribute and fill in the da field. ">
<polygon fill="none" stroke="#ff0000" points="724,-373.5 724,-392.5 813,-392.5 813,-373.5 724,-373.5"/>
<text text-anchor="middle" x="768.5" y="-380.5" font-family="Helvetica,sans-Serif" font-size="10.00" fill="#000000">fr_pair_afrom_da</text>
</a>
</g>
</g>
<!-- Node3055&#45;&gt;Node2517 -->
<g id="edge48" class="edge">
<title>Node3055&#45;&gt;Node2517</title>
<path fill="none" stroke="#191970" d="M625.5701,-335.5131C643.1754,-343.8133 669.9017,-355.7815 694,-364 701.2031,-366.4565 708.8931,-368.7613 716.4958,-370.8601"/>
<polygon fill="#191970" stroke="#191970" points="715.8279,-374.3041 726.3919,-373.4959 717.6296,-367.5399 715.8279,-374.3041"/>
</g>
<!-- Node3066 -->
<g id="node33" class="node">
<title>Node3066</title>
<g id="a_node33"><a xlink:href="pair_8c.html#aa310aed6f1b0c48333278b8aaff5d205" target="_top" xlink:title="Free/zero out value (or children) of a given VP. ">
<polygon fill="none" stroke="#000000" points="719.5,-22.5 719.5,-41.5 817.5,-41.5 817.5,-22.5 719.5,-22.5"/>
<text text-anchor="middle" x="768.5" y="-29.5" font-family="Helvetica,sans-Serif" font-size="10.00" fill="#000000">fr_pair_value_clear</text>
</a>
</g>
</g>
<!-- Node3055&#45;&gt;Node3066 -->
<g id="edge51" class="edge">
<title>Node3055&#45;&gt;Node3066</title>
<path fill="none" stroke="#191970" d="M609.1747,-316.2923C619.1804,-286.3569 651.9054,-193.3152 694,-124 711.0524,-95.9206 735.8549,-67.0388 752.0812,-49.3038"/>
<polygon fill="#191970" stroke="#191970" points="755.0461,-51.2546 759.2864,-41.5453 749.9168,-46.4911 755.0461,-51.2546"/>
</g>
<!-- Node2634 -->
<g id="node36" class="node">
<title>Node2634</title>
<g id="a_node36"><a xlink:href="strerror_8c.html#a2f2232a184a763c76b3d87d5bea7a868" target="_top" xlink:title="Add a message to an existing stack of messages. ">
<polygon fill="none" stroke="#ff0000" points="712.5,-171.5 712.5,-190.5 824.5,-190.5 824.5,-171.5 712.5,-171.5"/>
<text text-anchor="middle" x="768.5" y="-178.5" font-family="Helvetica,sans-Serif" font-size="10.00" fill="#000000">fr_strerror_printf_push</text>
</a>
</g>
</g>
<!-- Node3055&#45;&gt;Node2634 -->
<g id="edge57" class="edge">
<title>Node3055&#45;&gt;Node2634</title>
<path fill="none" stroke="#191970" d="M610.4224,-316.228C621.282,-293.3212 651.5052,-235.7774 694,-205 699.9773,-200.6709 706.7716,-197.0984 713.7673,-194.1564"/>
<polygon fill="#191970" stroke="#191970" points="715.2584,-197.3345 723.3738,-190.5235 712.7823,-190.787 715.2584,-197.3345"/>
</g>
<!-- Node3055&#45;&gt;Node3067 -->
<g id="edge59" class="edge">
<title>Node3055&#45;&gt;Node3067</title>
<path fill="none" stroke="#191970" d="M613.564,-335.7947C628.5418,-355.0928 663.1942,-399.2618 694,-435 713.4396,-457.5522 736.8187,-482.6629 752.1375,-498.8604"/>
<polygon fill="#191970" stroke="#191970" points="749.9265,-501.615 759.35,-506.4574 755.0031,-496.7953 749.9265,-501.615"/>
</g>
<!-- Node3056&#45;&gt;Node2359 -->
<g id="edge34" class="edge">
<title>Node3056&#45;&gt;Node2359</title>
<path fill="none" stroke="#191970" d="M843.0901,-146.089C892.7059,-151.8586 956.3549,-166.8984 999,-205 1052.6363,-252.9217 1070.4079,-342.293 1075.8243,-382.0465"/>
<polygon fill="#191970" stroke="#191970" points="1072.3637,-382.5811 1077.067,-392.0748 1079.3106,-381.7202 1072.3637,-382.5811"/>
</g>
<!-- Node3057 -->
<g id="node24" class="node">
<title>Node3057</title>
<g id="a_node24"><a xlink:href="dict__util_8c.html#a1e43e9729099648fdc9c3527c7be84b2" target="_top" xlink:title="Locate a qualified fr_dict_attr_t by its name and a dictionary qualifier. ">
<polygon fill="none" stroke="#ff0000" points="879,-84 879,-114 999,-114 999,-84 879,-84"/>
<text text-anchor="start" x="887" y="-102" font-family="Helvetica,sans-Serif" font-size="10.00" fill="#000000">fr_dict_attr_by_qualified</text>
<text text-anchor="middle" x="939" y="-91" font-family="Helvetica,sans-Serif" font-size="10.00" fill="#000000">_name_substr</text>
</a>
</g>
</g>
<!-- Node3056&#45;&gt;Node3057 -->
<g id="edge33" class="edge">
<title>Node3056&#45;&gt;Node3057</title>
<path fill="none" stroke="#191970" d="M805.496,-133.4527C824.6066,-128.5209 848.541,-122.3442 870.847,-116.5879"/>
<polygon fill="#191970" stroke="#191970" points="871.8135,-119.9532 880.6217,-114.0654 870.0643,-113.1752 871.8135,-119.9532"/>
</g>
<!-- Node3058&#45;&gt;Node2359 -->
<g id="edge43" class="edge">
<title>Node3058&#45;&gt;Node2359</title>
<path fill="none" stroke="#191970" d="M819.7502,-316.5147C867.0604,-326.035 938.878,-342.3677 999,-364 1017.0911,-370.5093 1036.5648,-379.8477 1051.6512,-387.6381"/>
<polygon fill="#191970" stroke="#191970" points="1050.3932,-390.931 1060.8729,-392.4886 1053.6519,-384.7357 1050.3932,-390.931"/>
</g>
<!-- Node2518 -->
<g id="node26" class="node">
<title>Node2518</title>
<g id="a_node26"><a xlink:href="pair_8c.html#ae760eec888755906c0196a13801a53df" target="_top" xlink:title="Dynamically allocate a new attribute. ">
<polygon fill="none" stroke="#ff0000" points="904.5,-373.5 904.5,-392.5 973.5,-392.5 973.5,-373.5 904.5,-373.5"/>
<text text-anchor="middle" x="939" y="-380.5" font-family="Helvetica,sans-Serif" font-size="10.00" fill="#000000">fr_pair_alloc</text>
</a>
</g>
</g>
<!-- Node3058&#45;&gt;Node2518 -->
<g id="edge36" class="edge">
<title>Node3058&#45;&gt;Node2518</title>
<path fill="none" stroke="#191970" d="M819.8599,-316.5349C827.8595,-319.0197 835.8382,-322.1262 843,-326 862.0913,-336.3264 860.6244,-347.448 879,-359 885.3341,-362.982 892.4396,-366.518 899.485,-369.5701"/>
<polygon fill="#191970" stroke="#191970" points="898.3949,-372.9051 908.9768,-373.4287 901.0311,-366.4204 898.3949,-372.9051"/>
</g>
<!-- Node3059 -->
<g id="node27" class="node">
<title>Node3059</title>
<g id="a_node27"><a xlink:href="dict_8h.html#a591d647dfb1dd768232ed29aa4557723" target="_top" xlink:title="Create a fr_dict_attr_t from an ASCII attribute and value. ">
<polygon fill="none" stroke="#ff0000" points="880,-248 880,-278 998,-278 998,-248 880,-248"/>
<text text-anchor="start" x="888" y="-266" font-family="Helvetica,sans-Serif" font-size="10.00" fill="#000000">fr_dict_unknown_afrom</text>
<text text-anchor="middle" x="939" y="-255" font-family="Helvetica,sans-Serif" font-size="10.00" fill="#000000">_oid_str</text>
</a>
</g>
</g>
<!-- Node3058&#45;&gt;Node3059 -->
<g id="edge38" class="edge">
<title>Node3058&#45;&gt;Node3059</title>
<path fill="none" stroke="#191970" d="M805.496,-297.4527C824.6066,-292.5209 848.541,-286.3442 870.847,-280.5879"/>
<polygon fill="#191970" stroke="#191970" points="871.8135,-283.9532 880.6217,-278.0654 870.0643,-277.1752 871.8135,-283.9532"/>
</g>
<!-- Node2412 -->
<g id="node28" class="node">
<title>Node2412</title>
<g id="a_node28"><a xlink:href="missing_8c.html#a3c28b90d7e1fc3e492c1fac0af04d21b" target="_top" xlink:title="strncasecmp">
<polygon fill="none" stroke="#000000" points="1041.5,-193.5 1041.5,-212.5 1114.5,-212.5 1114.5,-193.5 1041.5,-193.5"/>
<text text-anchor="middle" x="1078" y="-200.5" font-family="Helvetica,sans-Serif" font-size="10.00" fill="#000000">strncasecmp</text>
</a>
</g>
</g>
<!-- Node3058&#45;&gt;Node2412 -->
<g id="edge42" class="edge">
<title>Node3058&#45;&gt;Node2412</title>
<path fill="none" stroke="#191970" d="M780.2689,-297.4784C799.6229,-282.3432 839.9321,-252.98 879,-238 928.9724,-218.8388 990.0626,-210.0853 1031.269,-206.1398"/>
<polygon fill="#191970" stroke="#191970" points="1031.6521,-209.6195 1041.298,-205.2369 1031.0244,-202.6477 1031.6521,-209.6195"/>
</g>
<!-- Node2527 -->
<g id="node29" class="node">
<title>Node2527</title>
<g id="a_node29"><a xlink:href="dict_8h.html#a7c79c676c03022a0e7404ae0232bd902" target="_top" xlink:title="Return the root attribute of a dictionary. ">
<polygon fill="none" stroke="#000000" points="906.5,-297.5 906.5,-316.5 971.5,-316.5 971.5,-297.5 906.5,-297.5"/>
<text text-anchor="middle" x="939" y="-304.5" font-family="Helvetica,sans-Serif" font-size="10.00" fill="#000000">fr_dict_root</text>
</a>
</g>
</g>
<!-- Node3058&#45;&gt;Node2527 -->
<g id="edge41" class="edge">
<title>Node3058&#45;&gt;Node2527</title>
<path fill="none" stroke="#191970" d="M827.1764,-307C849.7554,-307 875.0977,-307 895.9408,-307"/>
<polygon fill="#191970" stroke="#191970" points="896.0849,-310.5001 906.0849,-307 896.0848,-303.5001 896.0849,-310.5001"/>
</g>
<!-- Node3058&#45;&gt;Node3063 -->
<g id="edge44" class="edge">
<title>Node3058&#45;&gt;Node3063</title>
<path fill="none" stroke="#191970" d="M827.081,-316.499C832.8194,-318.9816 838.2608,-322.096 843,-326 871.848,-349.7641 857.08,-371.727 879,-402 890.0913,-417.3178 905.6388,-431.9525 918.128,-442.5572"/>
<polygon fill="#191970" stroke="#191970" points="916.2531,-445.5479 926.1935,-449.2139 920.7089,-440.1491 916.2531,-445.5479"/>
</g>
<!-- Node2518&#45;&gt;Node2359 -->
<g id="edge37" class="edge">
<title>Node2518&#45;&gt;Node2359</title>
<path fill="none" stroke="#191970" d="M973.717,-387.7455C989.0329,-389.839 1007.3854,-392.3476 1024.3955,-394.6728"/>
<polygon fill="#191970" stroke="#191970" points="1024.3921,-398.2048 1034.774,-396.0914 1025.3402,-391.2693 1024.3921,-398.2048"/>
</g>
<!-- Node3059&#45;&gt;Node2359 -->
<g id="edge39" class="edge">
<title>Node3059&#45;&gt;Node2359</title>
<path fill="none" stroke="#191970" d="M983.5754,-278.1366C989.0515,-280.9657 994.3486,-284.2402 999,-288 1031.9179,-314.6082 1056.877,-358.4246 1069.2869,-383.272"/>
<polygon fill="#191970" stroke="#191970" points="1066.1823,-384.8914 1073.6896,-392.3674 1072.4829,-381.8415 1066.1823,-384.8914"/>
</g>
<!-- Node3059&#45;&gt;Node2412 -->
<g id="edge40" class="edge">
<title>Node3059&#45;&gt;Node2412</title>
<path fill="none" stroke="#191970" d="M974.0756,-247.8595C996.3935,-238.2258 1025.0475,-225.8572 1046.6134,-216.5482"/>
<polygon fill="#191970" stroke="#191970" points="1048.181,-219.6837 1055.975,-212.5072 1045.4068,-213.2569 1048.181,-219.6837"/>
</g>
<!-- Node3063&#45;&gt;Node2359 -->
<g id="edge45" class="edge">
<title>Node3063&#45;&gt;Node2359</title>
<path fill="none" stroke="#191970" d="M963.2646,-449.3912C974.1997,-445.0359 987.2652,-439.7976 999,-435 1014.4266,-428.6931 1031.4947,-421.5804 1045.8071,-415.5776"/>
<polygon fill="#191970" stroke="#191970" points="1047.3574,-418.7227 1055.2213,-411.6227 1044.6462,-412.269 1047.3574,-418.7227"/>
</g>
<!-- Node2517&#45;&gt;Node2359 -->
<g id="edge49" class="edge">
<title>Node2517&#45;&gt;Node2359</title>
<path fill="none" stroke="#191970" d="M813.1688,-392.4618C833.1987,-396.243 857.1806,-400.1378 879,-402 928.242,-406.2026 984.588,-405.7086 1024.7237,-404.4544"/>
<polygon fill="#191970" stroke="#191970" points="1024.9454,-407.949 1034.8211,-404.1122 1024.7083,-400.953 1024.9454,-407.949"/>
</g>
<!-- Node2517&#45;&gt;Node2518 -->
<g id="edge50" class="edge">
<title>Node2517&#45;&gt;Node2518</title>
<path fill="none" stroke="#191970" d="M813.2969,-383C838.2466,-383 869.2144,-383 894.1696,-383"/>
<polygon fill="#191970" stroke="#191970" points="894.4615,-386.5001 904.4615,-383 894.4615,-379.5001 894.4615,-386.5001"/>
</g>
<!-- Node3066&#45;&gt;Node3066 -->
<g id="edge56" class="edge">
<title>Node3066&#45;&gt;Node3066</title>
<path fill="none" stroke="#191970" d="M743.5311,-41.7571C731.3841,-50.5653 739.707,-60 768.5,-60 787.8453,-60 797.9501,-55.741 798.8144,-50.2746"/>
<polygon fill="#191970" stroke="#191970" points="801.7492,-48.3667 793.4689,-41.7571 795.8201,-52.0877 801.7492,-48.3667"/>
</g>
<!-- Node2385 -->
<g id="node34" class="node">
<title>Node2385</title>
<g id="a_node34"><a xlink:href="value_8c.html#a6ea38f6b901bbcf6206f242e63d4f898" target="_top" xlink:title="Clear/free any existing value. ">
<polygon fill="none" stroke="#ff0000" points="890,-17 890,-47 988,-47 988,-17 890,-17"/>
<text text-anchor="start" x="898" y="-35" font-family="Helvetica,sans-Serif" font-size="10.00" fill="#000000">fr_value_box_clear</text>
<text text-anchor="middle" x="939" y="-24" font-family="Helvetica,sans-Serif" font-size="10.00" fill="#000000">_value</text>
</a>
</g>
</g>
<!-- Node3066&#45;&gt;Node2385 -->
<g id="edge52" class="edge">
<title>Node3066&#45;&gt;Node2385</title>
<path fill="none" stroke="#191970" d="M817.8157,-32C837.1668,-32 859.5415,-32 879.7582,-32"/>
<polygon fill="#191970" stroke="#191970" points="879.7952,-35.5001 889.7952,-32 879.7951,-28.5001 879.7952,-35.5001"/>
</g>
<!-- Node2381 -->
<g id="node35" class="node">
<title>Node2381</title>
<g id="a_node35"><a xlink:href="cursor_8c.html#af6c2090d1e00319075d6def5aa2666fd" target="_top" xlink:title="Advanced the cursor to the next item. ">
<polygon fill="none" stroke="#ff0000" points="1038.5,-.5 1038.5,-19.5 1117.5,-19.5 1117.5,-.5 1038.5,-.5"/>
<text text-anchor="middle" x="1078" y="-7.5" font-family="Helvetica,sans-Serif" font-size="10.00" fill="#000000">fr_cursor_next</text>
</a>
</g>
</g>
<!-- Node3066&#45;&gt;Node2381 -->
<g id="edge55" class="edge">
<title>Node3066&#45;&gt;Node2381</title>
<path fill="none" stroke="#191970" d="M802.0216,-22.3719C823.7589,-16.6386 852.8066,-9.9261 879,-7 932.0036,-1.0789 945.6763,-5.9879 999,-7 1008.3722,-7.1779 1018.3664,-7.4744 1027.9837,-7.8135"/>
<polygon fill="#191970" stroke="#191970" points="1028.101,-11.3202 1038.2243,-8.1947 1028.3614,-4.3251 1028.101,-11.3202"/>
</g>
<!-- Node2385&#45;&gt;Node2385 -->
<g id="edge54" class="edge">
<title>Node2385&#45;&gt;Node2385</title>
<path fill="none" stroke="#191970" d="M914.9507,-47.159C909.1515,-56.5566 917.168,-65.5 939,-65.5 952.3039,-65.5 960.4775,-62.179 963.5209,-57.4579"/>
<polygon fill="#191970" stroke="#191970" points="967.0032,-56.9884 963.0493,-47.159 960.0105,-57.3087 967.0032,-56.9884"/>
</g>
<!-- Node2385&#45;&gt;Node2381 -->
<g id="edge53" class="edge">
<title>Node2385&#45;&gt;Node2381</title>
<path fill="none" stroke="#191970" d="M988.0062,-24.2436C1000.9579,-22.1937 1014.9524,-19.9788 1027.9581,-17.9203"/>
<polygon fill="#191970" stroke="#191970" points="1028.8078,-21.3295 1038.1376,-16.3092 1027.7134,-14.4155 1028.8078,-21.3295"/>
</g>
<!-- Node3067&#45;&gt;Node2359 -->
<g id="edge60" class="edge">
<title>Node3067&#45;&gt;Node2359</title>
<path fill="none" stroke="#191970" d="M803.6814,-525.5722C851.0569,-536.4207 936.6066,-548.6731 999,-516 1037.2286,-495.9811 1060.6486,-448.1236 1071.259,-421.2143"/>
<polygon fill="#191970" stroke="#191970" points="1074.5852,-422.3121 1074.8119,-411.7197 1068.0292,-419.8588 1074.5852,-422.3121"/>
</g>
<!-- Node2373 -->
<g id="node38" class="node">
<title>Node2373</title>
<g id="a_node38"><a xlink:href="talloc_8c.html#a3536feb85c89aa239851ef0830b72e64" target="_top" xlink:title="Call talloc_strdup, setting the type on the new chunk correctly. ">
<polygon fill="none" stroke="#000000" points="888.5,-487.5 888.5,-506.5 989.5,-506.5 989.5,-487.5 888.5,-487.5"/>
<text text-anchor="middle" x="939" y="-494.5" font-family="Helvetica,sans-Serif" font-size="10.00" fill="#000000">talloc_typed_strdup</text>
</a>
</g>
</g>
<!-- Node3067&#45;&gt;Node2373 -->
<g id="edge61" class="edge">
<title>Node3067&#45;&gt;Node2373</title>
<path fill="none" stroke="#191970" d="M814.6398,-510.8583C834.2177,-508.6766 857.3091,-506.1034 878.2463,-503.7702"/>
<polygon fill="#191970" stroke="#191970" points="878.7759,-507.2329 888.3267,-502.6469 878.0006,-500.276 878.7759,-507.2329"/>
</g>
</g>
</svg>
