<?xml version="1.0" encoding="UTF-8" standalone="no"?>
<!DOCTYPE svg PUBLIC "-//W3C//DTD SVG 1.1//EN"
 "http://www.w3.org/Graphics/SVG/1.1/DTD/svg11.dtd">
<!-- Generated by graphviz version 2.40.1 (20161225.0304)
 -->
<!-- Title: modules_thread_instantiate Pages: 1 -->
<svg width="411pt" height="88pt"
 viewBox="0.00 0.00 411.00 88.00" xmlns="http://www.w3.org/2000/svg" xmlns:xlink="http://www.w3.org/1999/xlink">
<g id="graph0" class="graph" transform="scale(1 1) rotate(0) translate(4 84)">
<title>modules_thread_instantiate</title>
<!-- Node4329 -->
<g id="node1" class="node">
<title>Node4329</title>
<polygon fill="#bfbfbf" stroke="#000000" points="0,-19.5 0,-38.5 136,-38.5 136,-19.5 0,-19.5"/>
<text text-anchor="middle" x="68" y="-26.5" font-family="Helvetica,sans-Serif" font-size="10.00" fill="#000000">modules_thread_instantiate</text>
</g>
<!-- Node4330 -->
<g id="node2" class="node">
<title>Node4330</title>
<g id="a_node2"><a xlink:href="radiusd_8c.html#a9912d1214e56db323c29f4dfd5dab8b2" target="_top" xlink:title="Create module and xlat per&#45;thread instances. ">
<polygon fill="none" stroke="#000000" points="172,-38.5 172,-57.5 266,-57.5 266,-38.5 172,-38.5"/>
<text text-anchor="middle" x="219" y="-45.5" font-family="Helvetica,sans-Serif" font-size="10.00" fill="#000000">thread_instantiate</text>
</a>
</g>
</g>
<!-- Node4329&#45;&gt;Node4330 -->
<g id="edge1" class="edge">
<title>Node4329&#45;&gt;Node4330</title>
<path fill="none" stroke="#191970" d="M146.6002,-38.8901C155.2648,-39.9803 163.8749,-41.0637 171.9729,-42.0827"/>
<polygon fill="#191970" stroke="#191970" points="146.7898,-35.3864 136.4311,-37.6105 145.9159,-42.3317 146.7898,-35.3864"/>
</g>
<!-- Node4333 -->
<g id="node5" class="node">
<title>Node4333</title>
<g id="a_node5"><a xlink:href="unit__test__module_8c.html#a0ddf1224851353fc92bfbff6f499fa97" target="_top" xlink:title="main">
<polygon fill="none" stroke="#000000" points="200,-.5 200,-19.5 238,-19.5 238,-.5 200,-.5"/>
<text text-anchor="middle" x="219" y="-7.5" font-family="Helvetica,sans-Serif" font-size="10.00" fill="#000000">main</text>
</a>
</g>
</g>
<!-- Node4329&#45;&gt;Node4333 -->
<g id="edge4" class="edge">
<title>Node4329&#45;&gt;Node4333</title>
<path fill="none" stroke="#191970" d="M146.5433,-19.1171C166.4998,-16.606 186.1722,-14.1307 199.9714,-12.3943"/>
<polygon fill="#191970" stroke="#191970" points="145.9159,-15.6683 136.4311,-20.3895 146.7898,-22.6136 145.9159,-15.6683"/>
</g>
<!-- Node4331 -->
<g id="node3" class="node">
<title>Node4331</title>
<g id="a_node3"><a xlink:href="radiusd_8c.html#a0ddf1224851353fc92bfbff6f499fa97" target="_top" xlink:title="Entry point for the daemon. ">
<polygon fill="none" stroke="#000000" points="333.5,-60.5 333.5,-79.5 371.5,-79.5 371.5,-60.5 333.5,-60.5"/>
<text text-anchor="middle" x="352.5" y="-67.5" font-family="Helvetica,sans-Serif" font-size="10.00" fill="#000000">main</text>
</a>
</g>
</g>
<!-- Node4330&#45;&gt;Node4331 -->
<g id="edge2" class="edge">
<title>Node4330&#45;&gt;Node4331</title>
<path fill="none" stroke="#191970" d="M275.9919,-57.3919C296.4851,-60.7691 318.2326,-64.3529 333.2817,-66.8329"/>
<polygon fill="#191970" stroke="#191970" points="276.5032,-53.929 266.0671,-55.7564 275.3649,-60.8359 276.5032,-53.929"/>
</g>
<!-- Node4332 -->
<g id="node4" class="node">
<title>Node4332</title>
<g id="a_node4"><a xlink:href="xlat__builtin_8c.html#a70090976d3975b25c837826c8b2752cf" target="_top" xlink:title="Register an async xlat. ">
<polygon fill="none" stroke="#000000" points="302,-11 302,-41 403,-41 403,-11 302,-11"/>
<text text-anchor="start" x="310" y="-29" font-family="Helvetica,sans-Serif" font-size="10.00" fill="#000000">_xlat_async_thread</text>
<text text-anchor="middle" x="352.5" y="-18" font-family="Helvetica,sans-Serif" font-size="10.00" fill="#000000">_instantiate_set</text>
</a>
</g>
</g>
<!-- Node4330&#45;&gt;Node4332 -->
<g id="edge3" class="edge">
<title>Node4330&#45;&gt;Node4332</title>
<path fill="none" stroke="#191970" d="M275.9919,-38.6081C284.5618,-37.1958 293.351,-35.7474 301.778,-34.3587"/>
<polygon fill="#191970" stroke="#191970" points="275.3649,-35.1641 266.0671,-40.2436 276.5032,-42.071 275.3649,-35.1641"/>
</g>
</g>
</svg>
