<?xml version="1.0" encoding="UTF-8" standalone="no"?>
<!DOCTYPE svg PUBLIC "-//W3C//DTD SVG 1.1//EN"
 "http://www.w3.org/Graphics/SVG/1.1/DTD/svg11.dtd">
<!-- Generated by graphviz version 2.40.1 (20161225.0304)
 -->
<!-- Title: client_find Pages: 1 -->
<svg width="314pt" height="180pt"
 viewBox="0.00 0.00 314.00 180.00" xmlns="http://www.w3.org/2000/svg" xmlns:xlink="http://www.w3.org/1999/xlink">
<g id="graph0" class="graph" transform="scale(1 1) rotate(0) translate(4 176)">
<title>client_find</title>
<!-- Node1253 -->
<g id="node1" class="node">
<title>Node1253</title>
<polygon fill="#bfbfbf" stroke="#000000" points="0,-76.5 0,-95.5 61,-95.5 61,-76.5 0,-76.5"/>
<text text-anchor="middle" x="30.5" y="-83.5" font-family="Helvetica,sans-Serif" font-size="10.00" fill="#000000">client_find</text>
</g>
<!-- Node1254 -->
<g id="node2" class="node">
<title>Node1254</title>
<g id="a_node2"><a xlink:href="bin_2radmin_8c.html#ab88ee964523c5214671dec045319fb6b" target="_top" xlink:title="cmd_show_client">
<polygon fill="none" stroke="#000000" points="97,-152.5 97,-171.5 189,-171.5 189,-152.5 97,-152.5"/>
<text text-anchor="middle" x="143" y="-159.5" font-family="Helvetica,sans-Serif" font-size="10.00" fill="#000000">cmd_show_client</text>
</a>
</g>
</g>
<!-- Node1253&#45;&gt;Node1254 -->
<g id="edge1" class="edge">
<title>Node1253&#45;&gt;Node1254</title>
<path fill="none" stroke="#191970" d="M46.8051,-102.5863C59.6024,-114.9262 78.3225,-131.5445 97,-143 102.7451,-146.5236 109.2597,-149.6639 115.5415,-152.3273"/>
<polygon fill="#191970" stroke="#191970" points="49.2349,-100.0669 39.6557,-95.5403 44.3213,-105.0525 49.2349,-100.0669"/>
</g>
<!-- Node1255 -->
<g id="node3" class="node">
<title>Node1255</title>
<g id="a_node3"><a xlink:href="unit__test__module_8c.html#a0ddf1224851353fc92bfbff6f499fa97" target="_top" xlink:title="main">
<polygon fill="none" stroke="#000000" points="124,-114.5 124,-133.5 162,-133.5 162,-114.5 124,-114.5"/>
<text text-anchor="middle" x="143" y="-121.5" font-family="Helvetica,sans-Serif" font-size="10.00" fill="#000000">main</text>
</a>
</g>
</g>
<!-- Node1253&#45;&gt;Node1255 -->
<g id="edge2" class="edge">
<title>Node1253&#45;&gt;Node1255</title>
<path fill="none" stroke="#191970" d="M68.567,-98.8582C87.1523,-105.1359 108.7051,-112.4159 123.8203,-117.5215"/>
<polygon fill="#191970" stroke="#191970" points="69.4827,-95.4733 58.8885,-95.589 67.2426,-102.1052 69.4827,-95.4733"/>
</g>
<!-- Node1256 -->
<g id="node4" class="node">
<title>Node1256</title>
<g id="a_node4"><a xlink:href="proto__dhcpv4__udp_8c.html#a12bcd984cffe4b4aad91b661e25ad54f" target="_top" xlink:title="mod_client_find">
<polygon fill="none" stroke="#000000" points="100.5,-76.5 100.5,-95.5 185.5,-95.5 185.5,-76.5 100.5,-76.5"/>
<text text-anchor="middle" x="143" y="-83.5" font-family="Helvetica,sans-Serif" font-size="10.00" fill="#000000">mod_client_find</text>
</a>
</g>
</g>
<!-- Node1253&#45;&gt;Node1256 -->
<g id="edge3" class="edge">
<title>Node1253&#45;&gt;Node1256</title>
<path fill="none" stroke="#191970" d="M71.2496,-86C80.7575,-86 90.9064,-86 100.4886,-86"/>
<polygon fill="#191970" stroke="#191970" points="71.2412,-82.5001 61.2411,-86 71.2411,-89.5001 71.2412,-82.5001"/>
</g>
<!-- Node1257 -->
<g id="node5" class="node">
<title>Node1257</title>
<g id="a_node5"><a xlink:href="rlm__client_8c.html#a7f351cb74f53d5ac399099bba60f7f26" target="_top" xlink:title="Map multiple attributes from a client into the request. ">
<polygon fill="none" stroke="#000000" points="99,-38.5 99,-57.5 187,-57.5 187,-38.5 99,-38.5"/>
<text text-anchor="middle" x="143" y="-45.5" font-family="Helvetica,sans-Serif" font-size="10.00" fill="#000000">map_proc_client</text>
</a>
</g>
</g>
<!-- Node1253&#45;&gt;Node1257 -->
<g id="edge4" class="edge">
<title>Node1253&#45;&gt;Node1257</title>
<path fill="none" stroke="#191970" d="M68.4715,-73.1741C83.5666,-68.0753 100.6322,-62.3109 114.6206,-57.5859"/>
<polygon fill="#191970" stroke="#191970" points="67.2426,-69.8948 58.8885,-76.411 69.4827,-76.5267 67.2426,-69.8948"/>
</g>
<!-- Node1259 -->
<g id="node7" class="node">
<title>Node1259</title>
<g id="a_node7"><a xlink:href="group__xlat__functions.html#ga5b961763b977600b591534bf2db8bbea" target="_top" xlink:title="xlat to get client config data ">
<polygon fill="none" stroke="#000000" points="112.5,-.5 112.5,-19.5 173.5,-19.5 173.5,-.5 112.5,-.5"/>
<text text-anchor="middle" x="143" y="-7.5" font-family="Helvetica,sans-Serif" font-size="10.00" fill="#000000">xlat_client</text>
</a>
</g>
</g>
<!-- Node1253&#45;&gt;Node1259 -->
<g id="edge6" class="edge">
<title>Node1253&#45;&gt;Node1259</title>
<path fill="none" stroke="#191970" d="M46.8051,-69.4137C59.6024,-57.0738 78.3225,-40.4555 97,-29 102.7451,-25.4764 109.2597,-22.3361 115.5415,-19.6727"/>
<polygon fill="#191970" stroke="#191970" points="44.3213,-66.9475 39.6557,-76.4597 49.2349,-71.9331 44.3213,-66.9475"/>
</g>
<!-- Node1258 -->
<g id="node6" class="node">
<title>Node1258</title>
<g id="a_node6"><a xlink:href="rlm__client_8c.html#aaf8ab2f81db37f055630d1ef91f5e5a8" target="_top" xlink:title="mod_bootstrap">
<polygon fill="none" stroke="#000000" points="225,-19.5 225,-38.5 306,-38.5 306,-19.5 225,-19.5"/>
<text text-anchor="middle" x="265.5" y="-26.5" font-family="Helvetica,sans-Serif" font-size="10.00" fill="#000000">mod_bootstrap</text>
</a>
</g>
</g>
<!-- Node1257&#45;&gt;Node1258 -->
<g id="edge5" class="edge">
<title>Node1257&#45;&gt;Node1258</title>
<path fill="none" stroke="#191970" d="M197.113,-39.607C206.3416,-38.1756 215.7894,-36.7102 224.6028,-35.3432"/>
<polygon fill="#191970" stroke="#191970" points="196.5707,-36.1491 187.2253,-41.1406 197.6436,-43.0664 196.5707,-36.1491"/>
</g>
<!-- Node1259&#45;&gt;Node1258 -->
<g id="edge7" class="edge">
<title>Node1259&#45;&gt;Node1258</title>
<path fill="none" stroke="#191970" d="M183.7858,-16.326C196.9398,-18.3662 211.5165,-20.627 224.6734,-22.6677"/>
<polygon fill="#191970" stroke="#191970" points="184.0142,-12.8196 173.5959,-14.7455 182.9413,-19.7369 184.0142,-12.8196"/>
</g>
</g>
</svg>
