<?xml version="1.0" encoding="UTF-8" standalone="no"?>
<!DOCTYPE svg PUBLIC "-//W3C//DTD SVG 1.1//EN"
 "http://www.w3.org/Graphics/SVG/1.1/DTD/svg11.dtd">
<!-- Generated by graphviz version 2.40.1 (20161225.0304)
 -->
<!-- Title: forward_isup_stp Pages: 1 -->
<svg width="678pt" height="28pt"
 viewBox="0.00 0.00 678.00 28.00" xmlns="http://www.w3.org/2000/svg" xmlns:xlink="http://www.w3.org/1999/xlink">
<g id="graph0" class="graph" transform="scale(1 1) rotate(0) translate(4 24)">
<title>forward_isup_stp</title>
<!-- Node27 -->
<g id="node1" class="node">
<title>Node27</title>
<polygon fill="#bfbfbf" stroke="#000000" points="0,-.5 0,-19.5 91,-19.5 91,-.5 0,-.5"/>
<text text-anchor="middle" x="45.5" y="-7.5" font-family="Helvetica,sans-Serif" font-size="10.00" fill="#000000">forward_isup_stp</text>
</g>
<!-- Node28 -->
<g id="node2" class="node">
<title>Node28</title>
<g id="a_node2"><a xlink:href="ss7__application_8c.html#acd533ed27d5a44bb60c9cba264ecd2af" target="_top" xlink:title="mtp_link_set_forward_isup">
<polygon fill="none" stroke="#000000" points="127,-.5 127,-19.5 260,-19.5 260,-.5 127,-.5"/>
<text text-anchor="middle" x="193.5" y="-7.5" font-family="Helvetica,sans-Serif" font-size="10.00" fill="#000000">mtp_link_set_forward_isup</text>
</a>
</g>
</g>
<!-- Node27&#45;&gt;Node28 -->
<g id="edge1" class="edge">
<title>Node27&#45;&gt;Node28</title>
<path fill="none" stroke="#191970" d="M101.1377,-10C109.5187,-10 118.2351,-10 126.8189,-10"/>
<polygon fill="#191970" stroke="#191970" points="101.1125,-6.5001 91.1125,-10 101.1125,-13.5001 101.1125,-6.5001"/>
</g>
<!-- Node29 -->
<g id="node3" class="node">
<title>Node29</title>
<g id="a_node3"><a xlink:href="isup_8c.html#ae983010ae18f87fee519d1698703fc48" target="_top" xlink:title="mtp_link_set_isup">
<polygon fill="none" stroke="#000000" points="296,-.5 296,-19.5 391,-19.5 391,-.5 296,-.5"/>
<text text-anchor="middle" x="343.5" y="-7.5" font-family="Helvetica,sans-Serif" font-size="10.00" fill="#000000">mtp_link_set_isup</text>
</a>
</g>
</g>
<!-- Node28&#45;&gt;Node29 -->
<g id="edge2" class="edge">
<title>Node28&#45;&gt;Node29</title>
<path fill="none" stroke="#191970" d="M270.3735,-10C279.0797,-10 287.7523,-10 295.9215,-10"/>
<polygon fill="#191970" stroke="#191970" points="270.1658,-6.5001 260.1657,-10 270.1657,-13.5001 270.1658,-6.5001"/>
</g>
<!-- Node30 -->
<g id="node4" class="node">
<title>Node30</title>
<g id="a_node4"><a xlink:href="mtp__layer3_8c.html#a09440d719c5098b5546ffccd2a875d40" target="_top" xlink:title="Receive data coming up from lower level (M2UA/M3UA etc...) ">
<polygon fill="none" stroke="#000000" points="427,-.5 427,-19.5 538,-19.5 538,-.5 427,-.5"/>
<text text-anchor="middle" x="482.5" y="-7.5" font-family="Helvetica,sans-Serif" font-size="10.00" fill="#000000">mtp_link_handle_data</text>
</a>
</g>
</g>
<!-- Node29&#45;&gt;Node30 -->
<g id="edge3" class="edge">
<title>Node29&#45;&gt;Node30</title>
<path fill="none" stroke="#191970" d="M401.4632,-10C409.8887,-10 418.5469,-10 426.9237,-10"/>
<polygon fill="#191970" stroke="#191970" points="401.3359,-6.5001 391.3359,-10 401.3359,-13.5001 401.3359,-6.5001"/>
</g>
<!-- Node31 -->
<g id="node5" class="node">
<title>Node31</title>
<g id="a_node5"><a xlink:href="ss7__application_8c.html#a5f083c5e705ab33b7e41fa6a262d813f" target="_top" xlink:title="mtp_link_set_data">
<polygon fill="none" stroke="#ff0000" points="574,-.5 574,-19.5 670,-19.5 670,-.5 574,-.5"/>
<text text-anchor="middle" x="622" y="-7.5" font-family="Helvetica,sans-Serif" font-size="10.00" fill="#000000">mtp_link_set_data</text>
</a>
</g>
</g>
<!-- Node30&#45;&gt;Node31 -->
<g id="edge4" class="edge">
<title>Node30&#45;&gt;Node31</title>
<path fill="none" stroke="#191970" d="M548.1394,-10C556.8075,-10 565.5607,-10 573.8608,-10"/>
<polygon fill="#191970" stroke="#191970" points="548.035,-6.5001 538.0349,-10 548.0349,-13.5001 548.035,-6.5001"/>
</g>
</g>
</svg>
