<?xml version="1.0" encoding="UTF-8" standalone="no"?>
<!DOCTYPE svg PUBLIC "-//W3C//DTD SVG 1.1//EN"
 "http://www.w3.org/Graphics/SVG/1.1/DTD/svg11.dtd">
<!-- Generated by graphviz version 2.40.1 (20161225.0304)
 -->
<!-- Title: sim_challenge_enter_resume Pages: 1 -->
<svg width="726pt" height="88pt"
 viewBox="0.00 0.00 726.00 88.00" xmlns="http://www.w3.org/2000/svg" xmlns:xlink="http://www.w3.org/1999/xlink">
<g id="graph0" class="graph" transform="scale(1 1) rotate(0) translate(4 84)">
<title>sim_challenge_enter_resume</title>
<!-- Node17576 -->
<g id="node1" class="node">
<title>Node17576</title>
<polygon fill="#bfbfbf" stroke="#000000" points="0,-24.5 0,-54.5 106,-54.5 106,-24.5 0,-24.5"/>
<text text-anchor="start" x="8" y="-42.5" font-family="Helvetica,sans-Serif" font-size="10.00" fill="#000000">sim_challenge_enter</text>
<text text-anchor="middle" x="53" y="-31.5" font-family="Helvetica,sans-Serif" font-size="10.00" fill="#000000">_resume</text>
</g>
<!-- Node17577 -->
<g id="node2" class="node">
<title>Node17577</title>
<g id="a_node2"><a xlink:href="state__machine_8c.html#a46cfd445c990f327416e3da88f0e2587" target="_top" xlink:title="Enter the SIM&#45;CHALLENGE state. ">
<polygon fill="none" stroke="#000000" points="142,-30 142,-49 248,-49 248,-30 142,-30"/>
<text text-anchor="middle" x="195" y="-37" font-family="Helvetica,sans-Serif" font-size="10.00" fill="#000000">sim_challenge_enter</text>
</a>
</g>
</g>
<!-- Node17576&#45;&gt;Node17577 -->
<g id="edge1" class="edge">
<title>Node17576&#45;&gt;Node17577</title>
<path fill="none" stroke="#191970" d="M116.5173,-39.5C124.9959,-39.5 133.6185,-39.5 141.8941,-39.5"/>
<polygon fill="#191970" stroke="#191970" points="116.2796,-36.0001 106.2796,-39.5 116.2795,-43.0001 116.2796,-36.0001"/>
</g>
<!-- Node17578 -->
<g id="node3" class="node">
<title>Node17578</title>
<g id="a_node3"><a xlink:href="state__machine_8c.html#a6a7678014eb9d453a26c518612f2899d" target="_top" xlink:title="Enter the SIM&#45;CHALLENGE or AKA&#45;CHALLENGE state. ">
<polygon fill="none" stroke="#000000" points="284,-53 284,-72 412,-72 412,-53 284,-53"/>
<text text-anchor="middle" x="348" y="-60" font-family="Helvetica,sans-Serif" font-size="10.00" fill="#000000">common_challenge_enter</text>
</a>
</g>
</g>
<!-- Node17577&#45;&gt;Node17578 -->
<g id="edge2" class="edge">
<title>Node17577&#45;&gt;Node17578</title>
<path fill="none" stroke="#191970" d="M258.2267,-49.0047C266.9861,-50.3214 275.985,-51.6742 284.7449,-52.9911"/>
<polygon fill="#191970" stroke="#191970" points="258.4918,-45.5053 248.0826,-47.4797 257.4511,-52.4275 258.4918,-45.5053"/>
</g>
<!-- Node17581 -->
<g id="node6" class="node">
<title>Node17581</title>
<g id="a_node6"><a xlink:href="state__machine_8c.html#a52a868ac1416029bdd63ef8ee7885fc7" target="_top" xlink:title="Process a EAP&#45;Response/SIM&#45;Start message i.e. ">
<polygon fill="none" stroke="#000000" points="297,-2.5 297,-32.5 399,-32.5 399,-2.5 297,-2.5"/>
<text text-anchor="start" x="305" y="-20.5" font-family="Helvetica,sans-Serif" font-size="10.00" fill="#000000">sim_start_response</text>
<text text-anchor="middle" x="348" y="-9.5" font-family="Helvetica,sans-Serif" font-size="10.00" fill="#000000">_process</text>
</a>
</g>
</g>
<!-- Node17577&#45;&gt;Node17581 -->
<g id="edge5" class="edge">
<title>Node17577&#45;&gt;Node17581</title>
<path fill="none" stroke="#191970" d="M258.2455,-30.4059C271.0911,-28.5588 284.4511,-26.6378 296.8164,-24.8597"/>
<polygon fill="#191970" stroke="#191970" points="257.4826,-26.9795 248.0826,-31.8672 258.479,-33.9082 257.4826,-26.9795"/>
</g>
<!-- Node17579 -->
<g id="node4" class="node">
<title>Node17579</title>
<g id="a_node4"><a xlink:href="state__machine_8c.html#a7e93ee43b4541b36218276552cf0bb24" target="_top" xlink:title="Resume after &#39;recv Identity&#45;Response { ... ">
<polygon fill="none" stroke="#000000" points="448,-49.5 448,-79.5 560,-79.5 560,-49.5 448,-49.5"/>
<text text-anchor="start" x="456" y="-67.5" font-family="Helvetica,sans-Serif" font-size="10.00" fill="#000000">common_eap_identity</text>
<text text-anchor="middle" x="504" y="-56.5" font-family="Helvetica,sans-Serif" font-size="10.00" fill="#000000">_resume</text>
</a>
</g>
</g>
<!-- Node17578&#45;&gt;Node17579 -->
<g id="edge3" class="edge">
<title>Node17578&#45;&gt;Node17579</title>
<path fill="none" stroke="#191970" d="M422.6215,-63.4567C431.0843,-63.5652 439.6003,-63.6744 447.77,-63.7791"/>
<polygon fill="#191970" stroke="#191970" points="422.3959,-59.9536 412.3518,-63.325 422.3061,-66.953 422.3959,-59.9536"/>
</g>
<!-- Node17580 -->
<g id="node5" class="node">
<title>Node17580</title>
<g id="a_node5"><a xlink:href="state__machine_8h.html#a3f51a97eaa340698f12e228e73149542" target="_top" xlink:title="Enter the EAP&#45;IDENTITY state &#45; State machine entry point. ">
<polygon fill="none" stroke="#000000" points="596,-49.5 596,-79.5 718,-79.5 718,-49.5 596,-49.5"/>
<text text-anchor="start" x="604" y="-67.5" font-family="Helvetica,sans-Serif" font-size="10.00" fill="#000000">aka_sim_state_machine</text>
<text text-anchor="middle" x="657" y="-56.5" font-family="Helvetica,sans-Serif" font-size="10.00" fill="#000000">_start</text>
</a>
</g>
</g>
<!-- Node17579&#45;&gt;Node17580 -->
<g id="edge4" class="edge">
<title>Node17579&#45;&gt;Node17580</title>
<path fill="none" stroke="#191970" d="M570.3019,-64.5C578.7554,-64.5 587.378,-64.5 595.7469,-64.5"/>
<polygon fill="#191970" stroke="#191970" points="570.1028,-61.0001 560.1028,-64.5 570.1027,-68.0001 570.1028,-61.0001"/>
</g>
<!-- Node17582 -->
<g id="node7" class="node">
<title>Node17582</title>
<g id="a_node7"><a xlink:href="state__machine_8c.html#a1926cbfce2ece06ceac8e677c60d6979" target="_top" xlink:title="Resume after &#39;recv Identity&#45;Response { ... ">
<polygon fill="none" stroke="#000000" points="453,-.5 453,-30.5 555,-30.5 555,-.5 453,-.5"/>
<text text-anchor="start" x="461" y="-18.5" font-family="Helvetica,sans-Serif" font-size="10.00" fill="#000000">sim_start_response</text>
<text text-anchor="middle" x="504" y="-7.5" font-family="Helvetica,sans-Serif" font-size="10.00" fill="#000000">_recv_resume</text>
</a>
</g>
</g>
<!-- Node17581&#45;&gt;Node17582 -->
<g id="edge6" class="edge">
<title>Node17581&#45;&gt;Node17582</title>
<path fill="none" stroke="#191970" d="M409.3802,-16.7131C423.7581,-16.5287 438.926,-16.3343 452.805,-16.1563"/>
<polygon fill="#191970" stroke="#191970" points="409.0345,-13.2171 399.0802,-16.8451 409.1243,-20.2165 409.0345,-13.2171"/>
</g>
<!-- Node17583 -->
<g id="node8" class="node">
<title>Node17583</title>
<g id="a_node8"><a xlink:href="state__machine_8c.html#af8d6f2ddb260f9163e8dfbe695b71f90" target="_top" xlink:title="SIM&#45;START state &#45; Continue the state machine after receiving a response to our EAP&#45;Request/SIM&#45;Start...">
<polygon fill="none" stroke="#ff0000" points="628.5,-6 628.5,-25 685.5,-25 685.5,-6 628.5,-6"/>
<text text-anchor="middle" x="657" y="-13" font-family="Helvetica,sans-Serif" font-size="10.00" fill="#000000">sim_start</text>
</a>
</g>
</g>
<!-- Node17582&#45;&gt;Node17583 -->
<g id="edge7" class="edge">
<title>Node17582&#45;&gt;Node17583</title>
<path fill="none" stroke="#191970" d="M565.5266,-15.5C587.2252,-15.5 610.5963,-15.5 628.2836,-15.5"/>
<polygon fill="#191970" stroke="#191970" points="565.3724,-12.0001 555.3724,-15.5 565.3724,-19.0001 565.3724,-12.0001"/>
</g>
</g>
</svg>
