<?xml version="1.0" encoding="UTF-8" standalone="no"?>
<!DOCTYPE svg PUBLIC "-//W3C//DTD SVG 1.1//EN"
 "http://www.w3.org/Graphics/SVG/1.1/DTD/svg11.dtd">
<!-- Generated by graphviz version 2.40.1 (20161225.0304)
 -->
<!-- Title: common_client_error_recv_resume Pages: 1 -->
<svg width="1278pt" height="483pt"
 viewBox="0.00 0.00 1278.00 482.52" xmlns="http://www.w3.org/2000/svg" xmlns:xlink="http://www.w3.org/1999/xlink">
<g id="graph0" class="graph" transform="scale(1 1) rotate(0) translate(4 478.5192)">
<title>common_client_error_recv_resume</title>
<!-- Node6327 -->
<g id="node1" class="node">
<title>Node6327</title>
<polygon fill="#bfbfbf" stroke="#000000" points="0,-250.5192 0,-280.5192 107,-280.5192 107,-250.5192 0,-250.5192"/>
<text text-anchor="start" x="8" y="-268.5192" font-family="Helvetica,sans-Serif" font-size="10.00" fill="#000000">common_client_error</text>
<text text-anchor="middle" x="53.5" y="-257.5192" font-family="Helvetica,sans-Serif" font-size="10.00" fill="#000000">_recv_resume</text>
</g>
<!-- Node6328 -->
<g id="node2" class="node">
<title>Node6328</title>
<g id="a_node2"><a xlink:href="session_8h.html#a92400e545f88c6570a9271f660a2b042" target="_top" xlink:title="eap_session_get">
<polygon fill="none" stroke="#000000" points="790,-215.0192 790,-234.0192 880,-234.0192 880,-215.0192 790,-215.0192"/>
<text text-anchor="middle" x="835" y="-222.0192" font-family="Helvetica,sans-Serif" font-size="10.00" fill="#000000">eap_session_get</text>
</a>
</g>
</g>
<!-- Node6327&#45;&gt;Node6328 -->
<g id="edge1" class="edge">
<title>Node6327&#45;&gt;Node6328</title>
<path fill="none" stroke="#191970" d="M78.837,-250.3447C120.3653,-226.4537 206.2871,-181.0854 286,-164.5192 480.8145,-124.0323 541.8519,-134.2534 733,-189.5192 749.8202,-194.3824 752.548,-199.5275 769,-205.5192 775.3231,-207.8221 782.066,-210.033 788.7363,-212.0806"/>
<polygon fill="#191970" stroke="#191970" points="787.8168,-215.4586 798.3997,-214.9554 789.8129,-208.7492 787.8168,-215.4586"/>
</g>
<!-- Node6332 -->
<g id="node6" class="node">
<title>Node6332</title>
<g id="a_node6"><a xlink:href="state__machine_8c.html#af2e5977617bdd292a0f17b819ef56459" target="_top" xlink:title="Warn the user that the rcode they provided is being ignored in this section. ">
<polygon fill="none" stroke="#000000" points="458.5,-455.0192 458.5,-474.0192 572.5,-474.0192 572.5,-455.0192 458.5,-455.0192"/>
<text text-anchor="middle" x="515.5" y="-462.0192" font-family="Helvetica,sans-Serif" font-size="10.00" fill="#000000">section_rcode_ignored</text>
</a>
</g>
</g>
<!-- Node6327&#45;&gt;Node6332 -->
<g id="edge5" class="edge">
<title>Node6327&#45;&gt;Node6332</title>
<path fill="none" stroke="#191970" d="M68.7619,-280.6947C103.7211,-314.4319 193.7207,-395.5852 286,-432.5192 338.0195,-453.3396 401.3683,-460.9769 448.3207,-463.6131"/>
<polygon fill="#191970" stroke="#191970" points="448.2181,-467.1122 458.3804,-464.1158 448.5676,-460.121 448.2181,-467.1122"/>
</g>
<!-- Node6333 -->
<g id="node7" class="node">
<title>Node6333</title>
<g id="a_node7"><a xlink:href="state__machine_8c.html#ad8f82003b2e5aff1299fcc19aa19e3da" target="_top" xlink:title="Enter EAP&#45;FAILURE state. ">
<polygon fill="none" stroke="#000000" points="143,-250.5192 143,-280.5192 250,-280.5192 250,-250.5192 143,-250.5192"/>
<text text-anchor="start" x="151" y="-268.5192" font-family="Helvetica,sans-Serif" font-size="10.00" fill="#000000">common_eap_failure</text>
<text text-anchor="middle" x="196.5" y="-257.5192" font-family="Helvetica,sans-Serif" font-size="10.00" fill="#000000">_enter</text>
</a>
</g>
</g>
<!-- Node6327&#45;&gt;Node6333 -->
<g id="edge6" class="edge">
<title>Node6327&#45;&gt;Node6333</title>
<path fill="none" stroke="#191970" d="M107.1548,-265.5192C115.3808,-265.5192 123.9436,-265.5192 132.3684,-265.5192"/>
<polygon fill="#191970" stroke="#191970" points="132.5445,-269.0193 142.5445,-265.5192 132.5445,-262.0193 132.5445,-269.0193"/>
</g>
<!-- Node6329 -->
<g id="node3" class="node">
<title>Node6329</title>
<g id="a_node3"><a xlink:href="request__data_8c.html#a54f9656fda4e782fb35b8fbb48f53262" target="_top" xlink:title="Get opaque data from a request without removing it. ">
<polygon fill="none" stroke="#000000" points="937,-215.0192 937,-234.0192 1056,-234.0192 1056,-215.0192 937,-215.0192"/>
<text text-anchor="middle" x="996.5" y="-222.0192" font-family="Helvetica,sans-Serif" font-size="10.00" fill="#000000">request_data_reference</text>
</a>
</g>
</g>
<!-- Node6328&#45;&gt;Node6329 -->
<g id="edge2" class="edge">
<title>Node6328&#45;&gt;Node6329</title>
<path fill="none" stroke="#191970" d="M880.4165,-224.5192C894.8046,-224.5192 911.0569,-224.5192 926.745,-224.5192"/>
<polygon fill="#191970" stroke="#191970" points="926.9476,-228.0193 936.9476,-224.5192 926.9475,-221.0193 926.9476,-228.0193"/>
</g>
<!-- Node6330 -->
<g id="node4" class="node">
<title>Node6330</title>
<g id="a_node4"><a xlink:href="dlist_8h.html#a40536da1ca43d3e72807a3bf8a9b7841" target="_top" xlink:title="Get the next item in a list. ">
<polygon fill="none" stroke="#000000" points="1092,-215.0192 1092,-234.0192 1162,-234.0192 1162,-215.0192 1092,-215.0192"/>
<text text-anchor="middle" x="1127" y="-222.0192" font-family="Helvetica,sans-Serif" font-size="10.00" fill="#000000">fr_dlist_next</text>
</a>
</g>
</g>
<!-- Node6329&#45;&gt;Node6330 -->
<g id="edge3" class="edge">
<title>Node6329&#45;&gt;Node6330</title>
<path fill="none" stroke="#191970" d="M1056.0217,-224.5192C1064.6241,-224.5192 1073.3603,-224.5192 1081.6261,-224.5192"/>
<polygon fill="#191970" stroke="#191970" points="1081.799,-228.0193 1091.799,-224.5192 1081.799,-221.0193 1081.799,-228.0193"/>
</g>
<!-- Node6331 -->
<g id="node5" class="node">
<title>Node6331</title>
<g id="a_node5"><a xlink:href="dlist_8h.html#a90c9ea299e869c463ab8109410112a97" target="_top" xlink:title="Return the HEAD item of a list or NULL if the list is empty. ">
<polygon fill="none" stroke="#000000" points="1198,-215.0192 1198,-234.0192 1270,-234.0192 1270,-215.0192 1198,-215.0192"/>
<text text-anchor="middle" x="1234" y="-222.0192" font-family="Helvetica,sans-Serif" font-size="10.00" fill="#000000">fr_dlist_head</text>
</a>
</g>
</g>
<!-- Node6330&#45;&gt;Node6331 -->
<g id="edge4" class="edge">
<title>Node6330&#45;&gt;Node6331</title>
<path fill="none" stroke="#191970" d="M1162.0358,-224.5192C1170.182,-224.5192 1178.9791,-224.5192 1187.5323,-224.5192"/>
<polygon fill="#191970" stroke="#191970" points="1187.784,-228.0193 1197.784,-224.5192 1187.784,-221.0193 1187.784,-228.0193"/>
</g>
<!-- Node6334 -->
<g id="node8" class="node">
<title>Node6334</title>
<g id="a_node8"><a xlink:href="pair_8c.html#acd64c65e4d56248ce8e4dda20ab95aff" target="_top" xlink:title="Free memory used by a valuepair list. ">
<polygon fill="none" stroke="#000000" points="308,-212.0192 308,-231.0192 391,-231.0192 391,-212.0192 308,-212.0192"/>
<text text-anchor="middle" x="349.5" y="-219.0192" font-family="Helvetica,sans-Serif" font-size="10.00" fill="#000000">fr_pair_list_free</text>
</a>
</g>
</g>
<!-- Node6333&#45;&gt;Node6334 -->
<g id="edge7" class="edge">
<title>Node6333&#45;&gt;Node6334</title>
<path fill="none" stroke="#191970" d="M248.726,-250.5C267.5708,-245.0806 288.608,-239.0306 306.5668,-233.866"/>
<polygon fill="#191970" stroke="#191970" points="307.5506,-237.2251 316.1937,-231.0975 305.6159,-230.4977 307.5506,-237.2251"/>
</g>
<!-- Node6335 -->
<g id="node9" class="node">
<title>Node6335</title>
<g id="a_node9"><a xlink:href="state__machine_8c.html#a7b8ae0da5b4946754775336fa4b1d40b" target="_top" xlink:title="Implements a set of states for clearing out pseudonym and fastauth identities. ">
<polygon fill="none" stroke="#000000" points="286,-250.5192 286,-280.5192 413,-280.5192 413,-250.5192 286,-250.5192"/>
<text text-anchor="start" x="294" y="-268.5192" font-family="Helvetica,sans-Serif" font-size="10.00" fill="#000000">session_and_pseudonym</text>
<text text-anchor="middle" x="349.5" y="-257.5192" font-family="Helvetica,sans-Serif" font-size="10.00" fill="#000000">_clear</text>
</a>
</g>
</g>
<!-- Node6333&#45;&gt;Node6335 -->
<g id="edge8" class="edge">
<title>Node6333&#45;&gt;Node6335</title>
<path fill="none" stroke="#191970" d="M250.012,-265.5192C258.3116,-265.5192 267.0091,-265.5192 275.6612,-265.5192"/>
<polygon fill="#191970" stroke="#191970" points="275.7706,-269.0193 285.7705,-265.5192 275.7705,-262.0193 275.7706,-269.0193"/>
</g>
<!-- Node6469 -->
<g id="node13" class="node">
<title>Node6469</title>
<g id="a_node13"><a xlink:href="src_2lib_2unlang_2module_8c.html#a6af27356eb341612e8aeecbc224d89c4" target="_top" xlink:title="unlang_module_yield\l_to_section">
<polygon fill="none" stroke="#000000" points="622,-89.5192 622,-119.5192 729,-119.5192 729,-89.5192 622,-89.5192"/>
<text text-anchor="start" x="630" y="-107.5192" font-family="Helvetica,sans-Serif" font-size="10.00" fill="#000000">unlang_module_yield</text>
<text text-anchor="middle" x="675.5" y="-96.5192" font-family="Helvetica,sans-Serif" font-size="10.00" fill="#000000">_to_section</text>
</a>
</g>
</g>
<!-- Node6333&#45;&gt;Node6469 -->
<g id="edge32" class="edge">
<title>Node6333&#45;&gt;Node6469</title>
<path fill="none" stroke="#191970" d="M206.1879,-250.2621C220.8847,-228.2905 250.8541,-187.826 286,-164.5192 385.1111,-98.7943 529.1943,-94.6598 611.4904,-98.7789"/>
<polygon fill="#191970" stroke="#191970" points="611.5229,-102.286 621.7023,-99.3485 611.9128,-95.2969 611.5229,-102.286"/>
</g>
<!-- Node6488 -->
<g id="node19" class="node">
<title>Node6488</title>
<g id="a_node19"><a xlink:href="state__machine_8c.html#ae26a554ca82fde9e79f0f7c0f7b34197" target="_top" xlink:title="Cancel a call to a submodule. ">
<polygon fill="none" stroke="#000000" points="642.5,-253.0192 642.5,-272.0192 708.5,-272.0192 708.5,-253.0192 642.5,-253.0192"/>
<text text-anchor="middle" x="675.5" y="-260.0192" font-family="Helvetica,sans-Serif" font-size="10.00" fill="#000000">mod_signal</text>
</a>
</g>
</g>
<!-- Node6333&#45;&gt;Node6488 -->
<g id="edge37" class="edge">
<title>Node6333&#45;&gt;Node6488</title>
<path fill="none" stroke="#191970" d="M211.6969,-280.6119C228.3255,-295.9876 256.5596,-318.8976 286,-328.5192 411.0533,-369.3888 457.0289,-372.6392 582,-331.5192 612.961,-321.3319 642.0831,-296.521 659.3558,-279.602"/>
<polygon fill="#191970" stroke="#191970" points="662.3,-281.602 666.8395,-272.0289 657.321,-276.6818 662.3,-281.602"/>
</g>
<!-- Node6490 -->
<g id="node22" class="node">
<title>Node6490</title>
<g id="a_node22"><a xlink:href="state__machine_8c.html#af52a9e546e8ad2df8a111f8655b2fa1b" target="_top" xlink:title="Print debugging information, and write new state to eap_session&#45;&gt;process. ">
<polygon fill="none" stroke="#000000" points="308,-300.0192 308,-319.0192 391,-319.0192 391,-300.0192 308,-300.0192"/>
<text text-anchor="middle" x="349.5" y="-307.0192" font-family="Helvetica,sans-Serif" font-size="10.00" fill="#000000">state_transition</text>
</a>
</g>
</g>
<!-- Node6333&#45;&gt;Node6490 -->
<g id="edge29" class="edge">
<title>Node6333&#45;&gt;Node6490</title>
<path fill="none" stroke="#191970" d="M248.726,-280.5385C267.5708,-285.9579 288.608,-292.0078 306.5668,-297.1724"/>
<polygon fill="#191970" stroke="#191970" points="305.6159,-300.5407 316.1937,-299.9409 307.5506,-293.8134 305.6159,-300.5407"/>
</g>
<!-- Node6492 -->
<g id="node24" class="node">
<title>Node6492</title>
<g id="a_node24"><a xlink:href="state__machine_8c.html#aeae203a5e92a6f6c3e0dc0aa30f0e393" target="_top" xlink:title="common_eap_failure">
<polygon fill="none" stroke="#000000" points="296,-174.0192 296,-193.0192 403,-193.0192 403,-174.0192 296,-174.0192"/>
<text text-anchor="middle" x="349.5" y="-181.0192" font-family="Helvetica,sans-Serif" font-size="10.00" fill="#000000">common_eap_failure</text>
</a>
</g>
</g>
<!-- Node6333&#45;&gt;Node6492 -->
<g id="edge31" class="edge">
<title>Node6333&#45;&gt;Node6492</title>
<path fill="none" stroke="#191970" d="M214.262,-250.3875C231.5817,-236.293 259.1638,-215.5502 286,-202.5192 290.6678,-200.2527 295.6615,-198.195 300.7214,-196.3431"/>
<polygon fill="#191970" stroke="#191970" points="302.1215,-199.564 310.4651,-193.0344 299.8707,-192.9357 302.1215,-199.564"/>
</g>
<!-- Node6493 -->
<g id="node25" class="node">
<title>Node6493</title>
<g id="a_node25"><a xlink:href="state__machine_8c.html#a94073e89e00325430e70185cd6d81c52" target="_top" xlink:title="Resume after &#39;send EAP&#45;Failure { ... ">
<polygon fill="none" stroke="#000000" points="296,-392.5192 296,-422.5192 403,-422.5192 403,-392.5192 296,-392.5192"/>
<text text-anchor="start" x="304" y="-410.5192" font-family="Helvetica,sans-Serif" font-size="10.00" fill="#000000">common_eap_failure</text>
<text text-anchor="middle" x="349.5" y="-399.5192" font-family="Helvetica,sans-Serif" font-size="10.00" fill="#000000">_enter_resume</text>
</a>
</g>
</g>
<!-- Node6333&#45;&gt;Node6493 -->
<g id="edge33" class="edge">
<title>Node6333&#45;&gt;Node6493</title>
<path fill="none" stroke="#191970" d="M208.2408,-280.6435C224.4605,-301.0071 255.2212,-337.7685 286,-364.5192 295.1714,-372.4903 305.8741,-380.2431 315.8506,-386.9201"/>
<polygon fill="#191970" stroke="#191970" points="314.0883,-389.9495 324.3742,-392.4893 317.9172,-384.0894 314.0883,-389.9495"/>
</g>
<!-- Node6336 -->
<g id="node10" class="node">
<title>Node6336</title>
<g id="a_node10"><a xlink:href="value_8c.html#a3813a7481d580b3b3cb3df7503722055" target="_top" xlink:title="Copy a nul terminated talloced buffer to a fr_value_box_t. ">
<polygon fill="none" stroke="#000000" points="460.5,-7.5192 460.5,-37.5192 570.5,-37.5192 570.5,-7.5192 460.5,-7.5192"/>
<text text-anchor="start" x="468.5" y="-25.5192" font-family="Helvetica,sans-Serif" font-size="10.00" fill="#000000">fr_value_box_bstrdup</text>
<text text-anchor="middle" x="515.5" y="-14.5192" font-family="Helvetica,sans-Serif" font-size="10.00" fill="#000000">_buffer</text>
</a>
</g>
</g>
<!-- Node6335&#45;&gt;Node6336 -->
<g id="edge9" class="edge">
<title>Node6335&#45;&gt;Node6336</title>
<path fill="none" stroke="#191970" d="M401.2477,-250.3504C405.6161,-247.5962 409.6393,-244.3482 413,-240.5192 456.517,-190.9383 418.0389,-154.7722 449,-96.5192 459.3965,-76.9584 476.0662,-58.4242 490.1143,-44.7974"/>
<polygon fill="#191970" stroke="#191970" points="492.7111,-47.1598 497.5927,-37.7565 487.9126,-42.0632 492.7111,-47.1598"/>
</g>
<!-- Node6335&#45;&gt;Node6469 -->
<g id="edge13" class="edge">
<title>Node6335&#45;&gt;Node6469</title>
<path fill="none" stroke="#191970" d="M398.8519,-250.4528C403.9672,-247.6557 408.8151,-244.3701 413,-240.5192 439.62,-216.024 421.1454,-190.6009 449,-167.5192 494.9184,-129.4692 562.2016,-114.3306 611.5052,-108.3451"/>
<polygon fill="#191970" stroke="#191970" points="612.1894,-111.7905 621.739,-107.2018 611.4122,-104.8338 612.1894,-111.7905"/>
</g>
<!-- Node6487 -->
<g id="node18" class="node">
<title>Node6487</title>
<g id="a_node18"><a xlink:href="state__machine_8c.html#a9d6764acdf1aac07de8d975aaa54e864" target="_top" xlink:title="Resume after &#39;clear session { ... ">
<polygon fill="none" stroke="#000000" points="618.5,-215.0192 618.5,-234.0192 732.5,-234.0192 732.5,-215.0192 618.5,-215.0192"/>
<text text-anchor="middle" x="675.5" y="-222.0192" font-family="Helvetica,sans-Serif" font-size="10.00" fill="#000000">session_clear_resume</text>
</a>
</g>
</g>
<!-- Node6335&#45;&gt;Node6487 -->
<g id="edge18" class="edge">
<title>Node6335&#45;&gt;Node6487</title>
<path fill="none" stroke="#191970" d="M413.13,-257.5167C469.3286,-250.4488 551.0114,-240.1758 608.2668,-232.9749"/>
<polygon fill="#191970" stroke="#191970" points="608.8198,-236.4331 618.3049,-231.7125 607.9463,-229.4878 608.8198,-236.4331"/>
</g>
<!-- Node6335&#45;&gt;Node6488 -->
<g id="edge20" class="edge">
<title>Node6335&#45;&gt;Node6488</title>
<path fill="none" stroke="#191970" d="M413.13,-264.9337C477.7128,-264.3394 575.9507,-263.4353 632.0954,-262.9187"/>
<polygon fill="#191970" stroke="#191970" points="632.4386,-266.4157 642.406,-262.8238 632.3742,-259.416 632.4386,-266.4157"/>
</g>
<!-- Node6489 -->
<g id="node20" class="node">
<title>Node6489</title>
<g id="a_node20"><a xlink:href="state__machine_8c.html#a8db0b6a49b13b6ccd4cfb0114bcdb675" target="_top" xlink:title="Resume after &#39;clear pseudonym { ... ">
<polygon fill="none" stroke="#000000" points="450,-177.0192 450,-196.0192 581,-196.0192 581,-177.0192 450,-177.0192"/>
<text text-anchor="middle" x="515.5" y="-184.0192" font-family="Helvetica,sans-Serif" font-size="10.00" fill="#000000">pseudonym_clear_resume</text>
</a>
</g>
</g>
<!-- Node6335&#45;&gt;Node6489 -->
<g id="edge22" class="edge">
<title>Node6335&#45;&gt;Node6489</title>
<path fill="none" stroke="#191970" d="M393.0791,-250.5139C399.9223,-247.5512 406.7823,-244.2034 413,-240.5192 430.9181,-229.9024 430.9313,-220.8778 449,-210.5192 456.2675,-206.3529 464.3865,-202.7022 472.3864,-199.5884"/>
<polygon fill="#191970" stroke="#191970" points="473.8353,-202.7851 482.0203,-196.0579 471.4266,-196.2126 473.8353,-202.7851"/>
</g>
<!-- Node6337 -->
<g id="node11" class="node">
<title>Node6337</title>
<g id="a_node11"><a xlink:href="strerror_8c.html#ae701765650b8aea79a3037bc4921d7f8" target="_top" xlink:title="Log to thread local error buffer. ">
<polygon fill="none" stroke="#ff0000" points="792,-13.0192 792,-32.0192 878,-32.0192 878,-13.0192 792,-13.0192"/>
<text text-anchor="middle" x="835" y="-20.0192" font-family="Helvetica,sans-Serif" font-size="10.00" fill="#000000">fr_strerror_printf</text>
</a>
</g>
</g>
<!-- Node6336&#45;&gt;Node6337 -->
<g id="edge10" class="edge">
<title>Node6336&#45;&gt;Node6337</title>
<path fill="none" stroke="#191970" d="M570.5649,-10.3956C585.8476,-7.5552 602.5008,-4.9436 618,-3.5192 668.8966,1.1582 682.1054,1.1805 733,-3.5192 749.4793,-5.041 767.2677,-7.9177 783.3031,-10.9807"/>
<polygon fill="#191970" stroke="#191970" points="783.0672,-14.5018 793.5562,-13.0081 784.4251,-7.6347 783.0672,-14.5018"/>
</g>
<!-- Node6357 -->
<g id="node12" class="node">
<title>Node6357</title>
<g id="a_node12"><a xlink:href="value_8c.html#ae0b1761c6357b230478529a2293f4bf6" target="_top" xlink:title="Copy a string to to a fr_value_box_t. ">
<polygon fill="none" stroke="#ff0000" points="618,-13.0192 618,-32.0192 733,-32.0192 733,-13.0192 618,-13.0192"/>
<text text-anchor="middle" x="675.5" y="-20.0192" font-family="Helvetica,sans-Serif" font-size="10.00" fill="#000000">fr_value_box_bstrndup</text>
</a>
</g>
</g>
<!-- Node6336&#45;&gt;Node6357 -->
<g id="edge11" class="edge">
<title>Node6336&#45;&gt;Node6357</title>
<path fill="none" stroke="#191970" d="M570.5629,-22.5192C582.4979,-22.5192 595.2556,-22.5192 607.6181,-22.5192"/>
<polygon fill="#191970" stroke="#191970" points="607.883,-26.0193 617.8829,-22.5192 607.8829,-19.0193 607.883,-26.0193"/>
</g>
<!-- Node6357&#45;&gt;Node6337 -->
<g id="edge12" class="edge">
<title>Node6357&#45;&gt;Node6337</title>
<path fill="none" stroke="#191970" d="M733.0832,-22.5192C748.7434,-22.5192 765.6424,-22.5192 781.0909,-22.5192"/>
<polygon fill="#191970" stroke="#191970" points="781.5213,-26.0193 791.5213,-22.5192 781.5213,-19.0193 781.5213,-26.0193"/>
</g>
<!-- Node6470 -->
<g id="node14" class="node">
<title>Node6470</title>
<g id="a_node14"><a xlink:href="module__priv_8h.html#a192551b6e95b085d7f3d825431574ed0" target="_top" xlink:title="unlang_generic_to_module">
<polygon fill="none" stroke="#000000" points="769,-89.0192 769,-108.0192 901,-108.0192 901,-89.0192 769,-89.0192"/>
<text text-anchor="middle" x="835" y="-96.0192" font-family="Helvetica,sans-Serif" font-size="10.00" fill="#000000">unlang_generic_to_module</text>
</a>
</g>
</g>
<!-- Node6469&#45;&gt;Node6470 -->
<g id="edge14" class="edge">
<title>Node6469&#45;&gt;Node6470</title>
<path fill="none" stroke="#191970" d="M729.0549,-102.5046C738.6254,-102.1446 748.762,-101.7633 758.8227,-101.3848"/>
<polygon fill="#191970" stroke="#191970" points="758.973,-104.8818 768.8343,-101.0082 758.7098,-97.8867 758.973,-104.8818"/>
</g>
<!-- Node6471 -->
<g id="node15" class="node">
<title>Node6471</title>
<g id="a_node15"><a xlink:href="src_2lib_2server_2module_8c.html#a36bf69acc392ca1d2f468b9587e82bbb" target="_top" xlink:title="Retrieve module/thread specific instance data for a module. ">
<polygon fill="none" stroke="#000000" points="795,-51.0192 795,-70.0192 875,-70.0192 875,-51.0192 795,-51.0192"/>
<text text-anchor="middle" x="835" y="-58.0192" font-family="Helvetica,sans-Serif" font-size="10.00" fill="#000000">module_thread</text>
</a>
</g>
</g>
<!-- Node6469&#45;&gt;Node6471 -->
<g id="edge15" class="edge">
<title>Node6469&#45;&gt;Node6471</title>
<path fill="none" stroke="#191970" d="M729.0549,-89.7455C749.0924,-84.2179 771.6117,-78.0057 790.7194,-72.7346"/>
<polygon fill="#191970" stroke="#191970" points="791.6602,-76.1058 800.3694,-70.0725 789.7987,-69.3579 791.6602,-76.1058"/>
</g>
<!-- Node6472 -->
<g id="node16" class="node">
<title>Node6472</title>
<g id="a_node16"><a xlink:href="src_2lib_2unlang_2module_8c.html#aa828488a36bd5c78545c095a8e04096e" target="_top" xlink:title="Yield a request back to the interpreter from within a module. ">
<polygon fill="none" stroke="#ff0000" points="781.5,-177.0192 781.5,-196.0192 888.5,-196.0192 888.5,-177.0192 781.5,-177.0192"/>
<text text-anchor="middle" x="835" y="-184.0192" font-family="Helvetica,sans-Serif" font-size="10.00" fill="#000000">unlang_module_yield</text>
</a>
</g>
</g>
<!-- Node6469&#45;&gt;Node6472 -->
<g id="edge16" class="edge">
<title>Node6469&#45;&gt;Node6472</title>
<path fill="none" stroke="#191970" d="M708.0022,-119.5964C716.4024,-123.9937 725.2554,-129.09 733,-134.5192 750.7729,-146.9786 750.0689,-156.902 769,-167.5192 772.9682,-169.7447 777.2196,-171.7289 781.5818,-173.4942"/>
<polygon fill="#191970" stroke="#191970" points="780.6473,-176.8789 791.2413,-177.0181 783.0464,-170.3028 780.6473,-176.8789"/>
</g>
<!-- Node6478 -->
<g id="node17" class="node">
<title>Node6478</title>
<g id="a_node17"><a xlink:href="interpret_8c.html#aba2be13069ae0cf59c885fe00af5d089" target="_top" xlink:title="Push a configuration section onto the request stack for later interpretation. ">
<polygon fill="none" stroke="#ff0000" points="779,-127.5192 779,-157.5192 891,-157.5192 891,-127.5192 779,-127.5192"/>
<text text-anchor="start" x="787" y="-145.5192" font-family="Helvetica,sans-Serif" font-size="10.00" fill="#000000">unlang_interpret_push</text>
<text text-anchor="middle" x="835" y="-134.5192" font-family="Helvetica,sans-Serif" font-size="10.00" fill="#000000">_section</text>
</a>
</g>
</g>
<!-- Node6469&#45;&gt;Node6478 -->
<g id="edge17" class="edge">
<title>Node6469&#45;&gt;Node6478</title>
<path fill="none" stroke="#191970" d="M729.0549,-117.2784C741.8198,-120.3196 755.5919,-123.6007 768.8475,-126.7588"/>
<polygon fill="#191970" stroke="#191970" points="768.3194,-130.2308 778.8583,-129.1438 769.9417,-123.4214 768.3194,-130.2308"/>
</g>
<!-- Node6487&#45;&gt;Node6328 -->
<g id="edge19" class="edge">
<title>Node6487&#45;&gt;Node6328</title>
<path fill="none" stroke="#191970" d="M732.6326,-224.5192C747.8845,-224.5192 764.3396,-224.5192 779.502,-224.5192"/>
<polygon fill="#191970" stroke="#191970" points="779.762,-228.0193 789.7619,-224.5192 779.7619,-221.0193 779.762,-228.0193"/>
</g>
<!-- Node6488&#45;&gt;Node6328 -->
<g id="edge21" class="edge">
<title>Node6488&#45;&gt;Node6328</title>
<path fill="none" stroke="#191970" d="M708.5485,-254.6456C730.6029,-249.3913 760.0145,-242.3841 784.9223,-236.45"/>
<polygon fill="#191970" stroke="#191970" points="786.0134,-239.7881 794.93,-234.0657 784.3911,-232.9786 786.0134,-239.7881"/>
</g>
<!-- Node6489&#45;&gt;Node6328 -->
<g id="edge23" class="edge">
<title>Node6489&#45;&gt;Node6328</title>
<path fill="none" stroke="#191970" d="M581.3578,-190.6028C624.5872,-193.6939 682.2994,-198.5992 733,-205.5192 748.2261,-207.5974 764.6318,-210.4006 779.7398,-213.2147"/>
<polygon fill="#191970" stroke="#191970" points="779.484,-216.7286 789.9615,-215.1559 780.7901,-209.8515 779.484,-216.7286"/>
</g>
<!-- Node6489&#45;&gt;Node6469 -->
<g id="edge26" class="edge">
<title>Node6489&#45;&gt;Node6469</title>
<path fill="none" stroke="#191970" d="M534.1672,-176.9523C559.2265,-164.1094 604.3514,-140.9829 636.8807,-124.3116"/>
<polygon fill="#191970" stroke="#191970" points="638.8112,-127.2552 646.1142,-119.5794 635.6186,-121.0256 638.8112,-127.2552"/>
</g>
<!-- Node6489&#45;&gt;Node6487 -->
<g id="edge27" class="edge">
<title>Node6489&#45;&gt;Node6487</title>
<path fill="none" stroke="#191970" d="M555.8748,-196.1082C576.9885,-201.1227 603.0287,-207.3073 625.4169,-212.6245"/>
<polygon fill="#191970" stroke="#191970" points="624.8774,-216.0937 635.4156,-214.9992 626.495,-209.2831 624.8774,-216.0937"/>
</g>
<!-- Node6489&#45;&gt;Node6488 -->
<g id="edge28" class="edge">
<title>Node6489&#45;&gt;Node6488</title>
<path fill="none" stroke="#191970" d="M530.664,-196.1473C550.2722,-208.314 585.7408,-229.3706 618,-243.5192 622.9946,-245.7098 628.3261,-247.7928 633.6528,-249.7218"/>
<polygon fill="#191970" stroke="#191970" points="632.5672,-253.0498 643.162,-253.0178 634.8597,-246.4358 632.5672,-253.0498"/>
</g>
<!-- Node6366 -->
<g id="node21" class="node">
<title>Node6366</title>
<g id="a_node21"><a xlink:href="value_8c.html#af7e5339e09823aff580c0ac63c5d5c84" target="_top" xlink:title="Copy a buffer to a fr_value_box_t. ">
<polygon fill="none" stroke="#ff0000" points="618,-51.0192 618,-70.0192 733,-70.0192 733,-51.0192 618,-51.0192"/>
<text text-anchor="middle" x="675.5" y="-58.0192" font-family="Helvetica,sans-Serif" font-size="10.00" fill="#000000">fr_value_box_memdup</text>
</a>
</g>
</g>
<!-- Node6489&#45;&gt;Node6366 -->
<g id="edge24" class="edge">
<title>Node6489&#45;&gt;Node6366</title>
<path fill="none" stroke="#191970" d="M522.2672,-176.7172C537.1665,-155.8456 574.9271,-106.7046 618,-79.5192 621.3063,-77.4325 624.8653,-75.5511 628.5339,-73.8594"/>
<polygon fill="#191970" stroke="#191970" points="629.8889,-77.0866 637.7973,-70.0361 627.2183,-70.616 629.8889,-77.0866"/>
</g>
<!-- Node6366&#45;&gt;Node6337 -->
<g id="edge25" class="edge">
<title>Node6366&#45;&gt;Node6337</title>
<path fill="none" stroke="#191970" d="M715.7486,-50.9302C736.7963,-45.9157 762.7552,-39.7312 785.0734,-34.414"/>
<polygon fill="#191970" stroke="#191970" points="786.1243,-37.7616 795.0408,-32.0393 784.5019,-30.9522 786.1243,-37.7616"/>
</g>
<!-- Node6491 -->
<g id="node23" class="node">
<title>Node6491</title>
<g id="a_node23"><a xlink:href="src_2lib_2server_2module_8c.html#a76062cff9320a15002b69197a4adab98" target="_top" xlink:title="module_state_method\l_to_str">
<polygon fill="none" stroke="#000000" points="459,-291.5192 459,-321.5192 572,-321.5192 572,-291.5192 459,-291.5192"/>
<text text-anchor="start" x="467" y="-309.5192" font-family="Helvetica,sans-Serif" font-size="10.00" fill="#000000">module_state_method</text>
<text text-anchor="middle" x="515.5" y="-298.5192" font-family="Helvetica,sans-Serif" font-size="10.00" fill="#000000">_to_str</text>
</a>
</g>
</g>
<!-- Node6490&#45;&gt;Node6491 -->
<g id="edge30" class="edge">
<title>Node6490&#45;&gt;Node6491</title>
<path fill="none" stroke="#191970" d="M391.3888,-308.7622C408.8101,-308.4474 429.4642,-308.0741 448.8742,-307.7233"/>
<polygon fill="#191970" stroke="#191970" points="448.9521,-311.2226 458.8872,-307.5424 448.8256,-304.2237 448.9521,-311.2226"/>
</g>
<!-- Node6493&#45;&gt;Node6328 -->
<g id="edge34" class="edge">
<title>Node6493&#45;&gt;Node6328</title>
<path fill="none" stroke="#191970" d="M403.1208,-416.6976C451.2051,-422.8016 523.0527,-426.6036 582,-407.5192 685.5206,-374.0042 782.2427,-280.5427 819.1859,-241.7435"/>
<polygon fill="#191970" stroke="#191970" points="821.8488,-244.0208 826.1428,-234.3351 816.7459,-239.229 821.8488,-244.0208"/>
</g>
<!-- Node6493&#45;&gt;Node6332 -->
<g id="edge35" class="edge">
<title>Node6493&#45;&gt;Node6332</title>
<path fill="none" stroke="#191970" d="M393.5491,-422.6445C419.8357,-431.6706 452.8633,-443.0114 477.9153,-451.6136"/>
<polygon fill="#191970" stroke="#191970" points="476.8411,-454.9453 487.4357,-454.8827 479.1145,-448.3247 476.8411,-454.9453"/>
</g>
<!-- Node6494 -->
<g id="node26" class="node">
<title>Node6494</title>
<g id="a_node26"><a xlink:href="state__machine_8c.html#af24d1b239dd7354a829fc105584f43de" target="_top" xlink:title="Send a EAP&#45;Failure message to the supplicant. ">
<polygon fill="none" stroke="#000000" points="449,-379.0192 449,-398.0192 582,-398.0192 582,-379.0192 449,-379.0192"/>
<text text-anchor="middle" x="515.5" y="-386.0192" font-family="Helvetica,sans-Serif" font-size="10.00" fill="#000000">common_eap_failure_send</text>
</a>
</g>
</g>
<!-- Node6493&#45;&gt;Node6494 -->
<g id="edge36" class="edge">
<title>Node6493&#45;&gt;Node6494</title>
<path fill="none" stroke="#191970" d="M403.3954,-401.3505C414.7114,-400.0553 426.8539,-398.6655 438.8201,-397.2959"/>
<polygon fill="#191970" stroke="#191970" points="439.2711,-400.7672 448.8082,-396.1526 438.475,-393.8126 439.2711,-400.7672"/>
</g>
</g>
</svg>
