<?xml version="1.0" encoding="UTF-8" standalone="no"?>
<!DOCTYPE svg PUBLIC "-//W3C//DTD SVG 1.1//EN"
 "http://www.w3.org/Graphics/SVG/1.1/DTD/svg11.dtd">
<!-- Generated by graphviz version 2.40.1 (20161225.0304)
 -->
<!-- Title: common_encode Pages: 1 -->
<!--zoomable 972 -->
<svg id="main" version="1.1" xmlns="http://www.w3.org/2000/svg" xmlns:xlink="http://www.w3.org/1999/xlink" xml:space="preserve" onload="init(evt)">
<style type="text/css"><![CDATA[
.edge:hover path { stroke: red; }
.edge:hover polygon { stroke: red; fill: red; }
]]></style>
<script type="text/javascript"><![CDATA[
var edges = document.getElementsByTagName('g');
if (edges && edges.length) {
  for (var i=0;i<edges.length;i++) {
    if (edges[i].id.substr(0,4)=='edge') {
      edges[i].setAttribute('class','edge');
    }
  }
}
]]></script>
        <defs>
                <circle id="rim" cx="0" cy="0" r="7"/>
                <circle id="rim2" cx="0" cy="0" r="3.5"/>
                <g id="zoomPlus">
                        <use xlink:href="#rim" fill="#404040">
                                <set attributeName="fill" to="#808080" begin="zoomplus.mouseover" end="zoomplus.mouseout"/>
                        </use>
                        <path d="M-4,0h8M0,-4v8" fill="none" stroke="white" stroke-width="1.5" pointer-events="none"/>
                </g>
                <g id="zoomMin">
                        <use xlink:href="#rim" fill="#404040">
                                <set attributeName="fill" to="#808080" begin="zoomminus.mouseover" end="zoomminus.mouseout"/>
                        </use>
                        <path d="M-4,0h8" fill="none" stroke="white" stroke-width="1.5" pointer-events="none"/>
                </g>
                <g id="dirArrow">
                        <path fill="none" stroke="white" stroke-width="1.5" d="M0,-3.0v7 M-2.5,-0.5L0,-3.0L2.5,-0.5"/>
                </g>
               <g id="resetDef">
                       <use xlink:href="#rim2" fill="#404040">
                               <set attributeName="fill" to="#808080" begin="reset.mouseover" end="reset.mouseout"/>
                       </use>
               </g>
        </defs>

<script type="text/javascript">
var viewWidth = 1333;
var viewHeight = 972;
var sectionId = 'dynsection-58';
</script>
<script xlink:href="svgpan.js"/>
<svg id="graph" class="graph">
<g id="viewport">
<title>common_encode</title>
<!-- Node8439 -->
<g id="node1" class="node">
<title>Node8439</title>
<polygon fill="#bfbfbf" stroke="#000000" points="0,-114.5 0,-133.5 91,-133.5 91,-114.5 0,-114.5"/>
<text text-anchor="middle" x="45.5" y="-121.5" font-family="Helvetica,sans-Serif" font-size="10.00" fill="#000000">common_encode</text>
</g>
<!-- Node8440 -->
<g id="node2" class="node">
<title>Node8440</title>
<g id="a_node2"><a xlink:href="state__machine_8c.html#a2febd1aa33379cc887bc423ab23a4acc" target="_top" xlink:title="Send a EAP&#45;Request/(AKA|SIM)&#45;Notification (Failure) message to the supplicant. ">
<polygon fill="none" stroke="#000000" points="127,-386.5 127,-405.5 291,-405.5 291,-386.5 127,-386.5"/>
<text text-anchor="middle" x="209" y="-393.5" font-family="Helvetica,sans-Serif" font-size="10.00" fill="#000000">common_failure_notification_send</text>
</a>
</g>
</g>
<!-- Node8439&#45;&gt;Node8440 -->
<g id="edge1" class="edge">
<title>Node8439&#45;&gt;Node8440</title>
<path fill="none" stroke="#191970" d="M56.5389,-142.3644C88.3476,-195.2816 179.4433,-346.8293 203.2507,-386.4354"/>
<polygon fill="#191970" stroke="#191970" points="59.4708,-140.4482 51.3191,-133.6806 53.4712,-144.0546 59.4708,-140.4482"/>
</g>
<!-- Node8443 -->
<g id="node5" class="node">
<title>Node8443</title>
<g id="a_node5"><a xlink:href="state__machine_8c.html#ae1e2c6d790c7cf4f0a011bfa97fd8093" target="_top" xlink:title="Send a EAP&#45;Request/(AKA|SIM)&#45;Notification (Success) message to the supplicant. ">
<polygon fill="none" stroke="#ff0000" points="675,-944.5 675,-963.5 850,-963.5 850,-944.5 675,-944.5"/>
<text text-anchor="middle" x="762.5" y="-951.5" font-family="Helvetica,sans-Serif" font-size="10.00" fill="#000000">common_success_notification_send</text>
</a>
</g>
</g>
<!-- Node8439&#45;&gt;Node8443 -->
<g id="edge41" class="edge">
<title>Node8439&#45;&gt;Node8443</title>
<path fill="none" stroke="#191970" d="M47.7512,-143.7387C56.0705,-214.246 86.6948,-452.8722 127,-517 155.5859,-562.4816 546.267,-875.5985 675,-935 683.3277,-938.8427 692.4645,-941.9233 701.5951,-944.3891"/>
<polygon fill="#191970" stroke="#191970" points="51.2023,-143.1146 46.5713,-133.5855 44.2491,-143.9227 51.2023,-143.1146"/>
</g>
<!-- Node8475 -->
<g id="node6" class="node">
<title>Node8475</title>
<g id="a_node6"><a xlink:href="state__machine_8c.html#a22a57e641b4b8fd2961feaa50f09c811" target="_top" xlink:title="Called after &#39;store session { ... ">
<polygon fill="none" stroke="#000000" points="698.5,-895 698.5,-925 826.5,-925 826.5,-895 698.5,-895"/>
<text text-anchor="start" x="706.5" y="-913" font-family="Helvetica,sans-Serif" font-size="10.00" fill="#000000">common_reauthentication</text>
<text text-anchor="middle" x="762.5" y="-902" font-family="Helvetica,sans-Serif" font-size="10.00" fill="#000000">_request_send</text>
</a>
</g>
</g>
<!-- Node8439&#45;&gt;Node8475 -->
<g id="edge42" class="edge">
<title>Node8439&#45;&gt;Node8475</title>
<path fill="none" stroke="#191970" d="M46.923,-143.65C51.3182,-193.117 68.1665,-325.2378 127,-415 287.8798,-660.454 428.8874,-627.1032 639,-832 656.6016,-849.1647 655.08,-859.5903 675,-874 686.8452,-882.5686 701.03,-889.5305 714.4959,-894.9672"/>
<polygon fill="#191970" stroke="#191970" points="50.4091,-143.3367 46.1086,-133.654 43.4322,-143.9052 50.4091,-143.3367"/>
</g>
<!-- Node8476 -->
<g id="node10" class="node">
<title>Node8476</title>
<g id="a_node10"><a xlink:href="state__machine_8c.html#a45e98a08d703274d3a0fca6ee4d1cc3c" target="_top" xlink:title="Called after &#39;store session { ... ">
<polygon fill="none" stroke="#000000" points="691,-114.5 691,-133.5 834,-133.5 834,-114.5 691,-114.5"/>
<text text-anchor="middle" x="762.5" y="-121.5" font-family="Helvetica,sans-Serif" font-size="10.00" fill="#000000">aka_challenge_request_send</text>
</a>
</g>
</g>
<!-- Node8439&#45;&gt;Node8476 -->
<g id="edge43" class="edge">
<title>Node8439&#45;&gt;Node8476</title>
<path fill="none" stroke="#191970" d="M101.2005,-124C229.8921,-124 547.7658,-124 690.7682,-124"/>
<polygon fill="#191970" stroke="#191970" points="101.1686,-120.5001 91.1685,-124 101.1685,-127.5001 101.1686,-120.5001"/>
</g>
<!-- Node8479 -->
<g id="node12" class="node">
<title>Node8479</title>
<g id="a_node12"><a xlink:href="state__machine_8c.html#a8b30f76e700f4f5239845789c08f8a33" target="_top" xlink:title="Called after &#39;store session { ... ">
<polygon fill="none" stroke="#ff0000" points="691,-76.5 691,-95.5 834,-95.5 834,-76.5 691,-76.5"/>
<text text-anchor="middle" x="762.5" y="-83.5" font-family="Helvetica,sans-Serif" font-size="10.00" fill="#000000">sim_challenge_request_send</text>
</a>
</g>
</g>
<!-- Node8439&#45;&gt;Node8479 -->
<g id="edge44" class="edge">
<title>Node8439&#45;&gt;Node8479</title>
<path fill="none" stroke="#191970" d="M101.2005,-121.048C229.8921,-114.2275 547.7658,-97.3806 690.7682,-89.8017"/>
<polygon fill="#191970" stroke="#191970" points="100.9693,-117.5552 91.1685,-121.5796 101.3398,-124.5454 100.9693,-117.5552"/>
</g>
<!-- Node8482 -->
<g id="node13" class="node">
<title>Node8482</title>
<g id="a_node13"><a xlink:href="state__machine_8c.html#aba500fa7b9a860b59a3fb51fdc17cfa6" target="_top" xlink:title="Send a EAP&#45;Request/AKA&#45;Identity message to the supplicant. ">
<polygon fill="none" stroke="#ff0000" points="696,-38.5 696,-57.5 829,-57.5 829,-38.5 696,-38.5"/>
<text text-anchor="middle" x="762.5" y="-45.5" font-family="Helvetica,sans-Serif" font-size="10.00" fill="#000000">aka_identity_request_send</text>
</a>
</g>
</g>
<!-- Node8439&#45;&gt;Node8482 -->
<g id="edge45" class="edge">
<title>Node8439&#45;&gt;Node8482</title>
<path fill="none" stroke="#191970" d="M99.838,-112.5513C108.8831,-110.8703 118.1871,-109.2779 127,-108 333.4605,-78.0637 579.9204,-59.7103 695.9106,-52.0926"/>
<polygon fill="#191970" stroke="#191970" points="98.9407,-109.1593 89.7756,-114.4746 100.255,-116.0348 98.9407,-109.1593"/>
</g>
<!-- Node8484 -->
<g id="node14" class="node">
<title>Node8484</title>
<g id="a_node14"><a xlink:href="state__machine_8c.html#a70afce34aa5e6baec26de5724bf8a343" target="_top" xlink:title="Send a EAP&#45;Request/SIM&#45;Start message to the supplicant. ">
<polygon fill="none" stroke="#ff0000" points="702,-.5 702,-19.5 823,-19.5 823,-.5 702,-.5"/>
<text text-anchor="middle" x="762.5" y="-7.5" font-family="Helvetica,sans-Serif" font-size="10.00" fill="#000000">sim_start_request_send</text>
</a>
</g>
</g>
<!-- Node8439&#45;&gt;Node8484 -->
<g id="edge46" class="edge">
<title>Node8439&#45;&gt;Node8484</title>
<path fill="none" stroke="#191970" d="M70.4594,-109.4043C86.1697,-100.8981 107.1613,-90.7455 127,-85 331.8842,-25.6634 586.9108,-13.1442 701.6189,-10.5931"/>
<polygon fill="#191970" stroke="#191970" points="68.4553,-106.514 61.4176,-114.4337 71.858,-112.6313 68.4553,-106.514"/>
</g>
<!-- Node8441 -->
<g id="node3" class="node">
<title>Node8441</title>
<g id="a_node3"><a xlink:href="state__machine_8c.html#a51bc97d4a5e122b8b46f4b18f70ca790" target="_top" xlink:title="Resume after &#39;send Failure&#45;Notification { ... ">
<polygon fill="none" stroke="#000000" points="327,-381 327,-411 465,-411 465,-381 327,-381"/>
<text text-anchor="start" x="335" y="-399" font-family="Helvetica,sans-Serif" font-size="10.00" fill="#000000">common_failure_notification</text>
<text text-anchor="middle" x="396" y="-388" font-family="Helvetica,sans-Serif" font-size="10.00" fill="#000000">_enter_resume</text>
</a>
</g>
</g>
<!-- Node8440&#45;&gt;Node8441 -->
<g id="edge2" class="edge">
<title>Node8440&#45;&gt;Node8441</title>
<path fill="none" stroke="#191970" d="M301.1653,-396C309.8279,-396 318.5058,-396 326.9015,-396"/>
<polygon fill="#191970" stroke="#191970" points="301.021,-392.5001 291.0209,-396 301.0209,-399.5001 301.021,-392.5001"/>
</g>
<!-- Node8442 -->
<g id="node4" class="node">
<title>Node8442</title>
<g id="a_node4"><a xlink:href="state__machine_8c.html#a450334ba4c2c4b98d98a652204ab9d2c" target="_top" xlink:title="Enter the FAILURE&#45;NOTIFICATION state. ">
<polygon fill="none" stroke="#000000" points="501,-425 501,-455 639,-455 639,-425 501,-425"/>
<text text-anchor="start" x="509" y="-443" font-family="Helvetica,sans-Serif" font-size="10.00" fill="#000000">common_failure_notification</text>
<text text-anchor="middle" x="570" y="-432" font-family="Helvetica,sans-Serif" font-size="10.00" fill="#000000">_enter</text>
</a>
</g>
</g>
<!-- Node8441&#45;&gt;Node8442 -->
<g id="edge3" class="edge">
<title>Node8441&#45;&gt;Node8442</title>
<path fill="none" stroke="#191970" d="M465.1471,-413.4855C480.1815,-417.2873 495.9592,-421.277 510.5782,-424.9738"/>
<polygon fill="#191970" stroke="#191970" points="465.9472,-410.0777 455.3943,-411.0192 464.231,-416.8641 465.9472,-410.0777"/>
</g>
<!-- Node8442&#45;&gt;Node8440 -->
<g id="edge4" class="edge">
<title>Node8442&#45;&gt;Node8440</title>
<path fill="none" stroke="#191970" d="M490.6446,-435.8507C443.0363,-432.7699 381.3673,-427.7384 327,-420 301.1288,-416.3176 272.3891,-410.5093 249.7503,-405.529"/>
<polygon fill="#191970" stroke="#191970" points="490.6881,-439.3604 500.8888,-436.4977 491.1294,-432.3743 490.6881,-439.3604"/>
</g>
<!-- Node8442&#45;&gt;Node8443 -->
<g id="edge5" class="edge">
<title>Node8442&#45;&gt;Node8443</title>
<path fill="none" stroke="#191970" d="M573.7133,-465.1833C588.0911,-561.2252 640.988,-900.8244 675,-935 678.7283,-938.7462 683.0097,-941.8325 687.6315,-944.3681"/>
<polygon fill="#191970" stroke="#191970" points="577.1608,-464.5711 572.2259,-455.1957 570.2371,-465.6023 577.1608,-464.5711"/>
</g>
<!-- Node8442&#45;&gt;Node8475 -->
<g id="edge6" class="edge">
<title>Node8442&#45;&gt;Node8475</title>
<path fill="none" stroke="#191970" d="M585.0051,-463.6297C601.1684,-490.3059 626.2756,-535.5375 639,-578 658.4007,-642.7419 632.5247,-827.4286 675,-880 681.1564,-887.6197 689.347,-893.3115 698.2527,-897.5615"/>
<polygon fill="#191970" stroke="#191970" points="587.9179,-461.6849 579.6959,-455.0029 581.9564,-465.3537 587.9179,-461.6849"/>
</g>
<!-- Node8455 -->
<g id="node7" class="node">
<title>Node8455</title>
<g id="a_node7"><a xlink:href="state__machine_8c.html#a107ab4de5294de02963f21f31c42db19" target="_top" xlink:title="Send a EAP&#45;Request/(AKA|SIM)&#45;Reauthenticate message to the supplicant. ">
<polygon fill="none" stroke="#000000" points="886,-739 886,-769 1014,-769 1014,-739 886,-739"/>
<text text-anchor="start" x="894" y="-757" font-family="Helvetica,sans-Serif" font-size="10.00" fill="#000000">common_reauthentication</text>
<text text-anchor="middle" x="950" y="-746" font-family="Helvetica,sans-Serif" font-size="10.00" fill="#000000">_request_compose</text>
</a>
</g>
</g>
<!-- Node8442&#45;&gt;Node8455 -->
<g id="edge10" class="edge">
<title>Node8442&#45;&gt;Node8455</title>
<path fill="none" stroke="#191970" d="M582.5331,-464.4871C596.5405,-491.9871 619.7781,-538.0064 639,-578 655.5395,-612.4125 645.6105,-631.6272 675,-656 736.7324,-707.1949 775.2499,-670.9446 850,-700 877.2175,-710.5795 906.3877,-726.9748 926.1558,-738.9254"/>
<polygon fill="#191970" stroke="#191970" points="585.477,-462.5559 577.8146,-455.2389 579.2417,-465.7372 585.477,-462.5559"/>
</g>
<!-- Node8456 -->
<g id="node8" class="node">
<title>Node8456</title>
<g id="a_node8"><a xlink:href="state__machine_8c.html#a137494b7a7a20309534e9c190c5a4bac" target="_top" xlink:title="Resume after &#39;send Reauthentication&#45;Request { ... ">
<polygon fill="none" stroke="#000000" points="1050,-739 1050,-769 1178,-769 1178,-739 1050,-739"/>
<text text-anchor="start" x="1058" y="-757" font-family="Helvetica,sans-Serif" font-size="10.00" fill="#000000">common_reauthentication</text>
<text text-anchor="middle" x="1114" y="-746" font-family="Helvetica,sans-Serif" font-size="10.00" fill="#000000">_send_resume</text>
</a>
</g>
</g>
<!-- Node8442&#45;&gt;Node8456 -->
<g id="edge17" class="edge">
<title>Node8442&#45;&gt;Node8456</title>
<path fill="none" stroke="#191970" d="M579.4928,-464.6093C594.4441,-500.1497 626.8263,-565.5668 675,-602 739.9207,-651.0987 772.9265,-629.8264 850,-656 930.781,-683.4327 1024.0981,-719.001 1075.3275,-738.8677"/>
<polygon fill="#191970" stroke="#191970" points="582.596,-462.9501 575.5763,-455.0144 576.1151,-465.5956 582.596,-462.9501"/>
</g>
<!-- Node8457 -->
<g id="node9" class="node">
<title>Node8457</title>
<g id="a_node9"><a xlink:href="state__machine_8c.html#a2e55934578a6521d5aaf68d97a1af05f" target="_top" xlink:title="Resume after &#39;load session { ... ">
<polygon fill="none" stroke="#ff0000" points="1214,-766.5 1214,-785.5 1325,-785.5 1325,-766.5 1214,-766.5"/>
<text text-anchor="middle" x="1269.5" y="-773.5" font-family="Helvetica,sans-Serif" font-size="10.00" fill="#000000">session_load_resume</text>
</a>
</g>
</g>
<!-- Node8442&#45;&gt;Node8457 -->
<g id="edge18" class="edge">
<title>Node8442&#45;&gt;Node8457</title>
<path fill="none" stroke="#191970" d="M584.8906,-463.6645C600.9525,-490.3715 625.9703,-535.6301 639,-578 656.7275,-635.6465 629.6135,-807.2829 675,-847 759.8724,-921.2707 1128.0204,-818.6144 1238.2207,-785.6125"/>
<polygon fill="#191970" stroke="#191970" points="587.8153,-461.7381 579.6172,-455.0268 581.8407,-465.3857 587.8153,-461.7381"/>
</g>
<!-- Node8442&#45;&gt;Node8476 -->
<g id="edge11" class="edge">
<title>Node8442&#45;&gt;Node8476</title>
<path fill="none" stroke="#191970" d="M571.5114,-414.8324C576.2846,-358.4525 595.8573,-221.2359 675,-148 681.8213,-141.6878 690.146,-137.0104 698.9189,-133.5495"/>
<polygon fill="#191970" stroke="#191970" points="568.0076,-414.7515 570.7408,-424.9876 574.9875,-415.2812 568.0076,-414.7515"/>
</g>
<!-- Node8477 -->
<g id="node11" class="node">
<title>Node8477</title>
<g id="a_node11"><a xlink:href="state__machine_8c.html#ab7562d29ed795365c98a477677f00258" target="_top" xlink:title="Send a EAP&#45;Request/AKA&#45;Challenge message to the supplicant. ">
<polygon fill="none" stroke="#ff0000" points="892,-128 892,-158 1008,-158 1008,-128 892,-128"/>
<text text-anchor="start" x="900" y="-146" font-family="Helvetica,sans-Serif" font-size="10.00" fill="#000000">aka_challenge_request</text>
<text text-anchor="middle" x="950" y="-135" font-family="Helvetica,sans-Serif" font-size="10.00" fill="#000000">_compose</text>
</a>
</g>
</g>
<!-- Node8442&#45;&gt;Node8477 -->
<g id="edge13" class="edge">
<title>Node8442&#45;&gt;Node8477</title>
<path fill="none" stroke="#191970" d="M572.1014,-414.7924C577.9563,-362.0011 599.4016,-239.8513 675,-181 707.8021,-155.4645 821.2604,-147.0884 891.7845,-144.341"/>
<polygon fill="#191970" stroke="#191970" points="568.5974,-414.6559 571.0748,-424.957 575.562,-415.3594 568.5974,-414.6559"/>
</g>
<!-- Node8442&#45;&gt;Node8479 -->
<g id="edge14" class="edge">
<title>Node8442&#45;&gt;Node8479</title>
<path fill="none" stroke="#191970" d="M574.5964,-414.4416C587.8181,-343.7387 628.0229,-147.9325 675,-105 679.7047,-100.7004 685.1468,-97.2906 690.9694,-94.596"/>
<polygon fill="#191970" stroke="#191970" points="571.0814,-414.2032 572.7092,-424.6722 577.9653,-415.4731 571.0814,-414.2032"/>
</g>
<!-- Node8442&#45;&gt;Node8482 -->
<g id="edge15" class="edge">
<title>Node8442&#45;&gt;Node8482</title>
<path fill="none" stroke="#191970" d="M573.7036,-414.6272C585.2872,-338.7436 623.1717,-115.7801 675,-67 680.8863,-61.4599 687.9915,-57.3865 695.5776,-54.4126"/>
<polygon fill="#191970" stroke="#191970" points="570.2123,-414.3085 572.1869,-424.7177 577.1345,-415.3491 570.2123,-414.3085"/>
</g>
<!-- Node8442&#45;&gt;Node8484 -->
<g id="edge16" class="edge">
<title>Node8442&#45;&gt;Node8484</title>
<path fill="none" stroke="#191970" d="M573.0475,-414.2447C583.1928,-332.889 618.4202,-83.5623 675,-29 682.3852,-21.8782 691.7782,-17.1657 701.653,-14.0935"/>
<polygon fill="#191970" stroke="#191970" points="569.5244,-414.2204 571.7828,-424.5718 576.4725,-415.0714 569.5244,-414.2204"/>
</g>
<!-- Node8458 -->
<g id="node15" class="node">
<title>Node8458</title>
<g id="a_node15"><a xlink:href="state__machine_8c.html#a646b50898a1803753b14f64ed3f0608d" target="_top" xlink:title="Resume after &#39;load pseudonym { ... ">
<polygon fill="none" stroke="#ff0000" points="698.5,-228.5 698.5,-247.5 826.5,-247.5 826.5,-228.5 698.5,-228.5"/>
<text text-anchor="middle" x="762.5" y="-235.5" font-family="Helvetica,sans-Serif" font-size="10.00" fill="#000000">pseudonym_load_resume</text>
</a>
</g>
</g>
<!-- Node8442&#45;&gt;Node8458 -->
<g id="edge19" class="edge">
<title>Node8442&#45;&gt;Node8458</title>
<path fill="none" stroke="#191970" d="M577.86,-415.0226C591.3502,-376.2892 622.634,-302.0386 675,-262 683.2589,-255.6853 693.0752,-251.0315 703.0969,-247.6017"/>
<polygon fill="#191970" stroke="#191970" points="574.3925,-414.3536 574.5242,-424.9476 581.0277,-416.5838 574.3925,-414.3536"/>
</g>
<!-- Node8450 -->
<g id="node16" class="node">
<title>Node8450</title>
<g id="a_node16"><a xlink:href="state__machine_8c.html#abe175090aec32b61341864f7a67c3f88" target="_top" xlink:title="Process a EAP&#45;Response/AKA&#45;Identity message i.e. ">
<polygon fill="none" stroke="#ff0000" points="893,-253 893,-283 1007,-283 1007,-253 893,-253"/>
<text text-anchor="start" x="901" y="-271" font-family="Helvetica,sans-Serif" font-size="10.00" fill="#000000">aka_identity_response</text>
<text text-anchor="middle" x="950" y="-260" font-family="Helvetica,sans-Serif" font-size="10.00" fill="#000000">_process</text>
</a>
</g>
</g>
<!-- Node8442&#45;&gt;Node8450 -->
<g id="edge25" class="edge">
<title>Node8442&#45;&gt;Node8450</title>
<path fill="none" stroke="#191970" d="M581.3172,-415.533C597.3297,-383.9588 629.7684,-330.003 675,-304 742.4165,-265.2433 834.2178,-261.0592 892.8065,-263.2514"/>
<polygon fill="#191970" stroke="#191970" points="578.1514,-414.0395 576.8791,-424.5576 584.4329,-417.1286 578.1514,-414.0395"/>
</g>
<!-- Node8459 -->
<g id="node17" class="node">
<title>Node8459</title>
<g id="a_node17"><a xlink:href="state__machine_8c.html#a52a868ac1416029bdd63ef8ee7885fc7" target="_top" xlink:title="Process a EAP&#45;Response/SIM&#45;Start message i.e. ">
<polygon fill="none" stroke="#ff0000" points="899,-190 899,-220 1001,-220 1001,-190 899,-190"/>
<text text-anchor="start" x="907" y="-208" font-family="Helvetica,sans-Serif" font-size="10.00" fill="#000000">sim_start_response</text>
<text text-anchor="middle" x="950" y="-197" font-family="Helvetica,sans-Serif" font-size="10.00" fill="#000000">_process</text>
</a>
</g>
</g>
<!-- Node8442&#45;&gt;Node8459 -->
<g id="edge26" class="edge">
<title>Node8442&#45;&gt;Node8459</title>
<path fill="none" stroke="#191970" d="M573.5664,-414.6872C581.7783,-366.9959 606.845,-264.5409 675,-219 741.876,-174.3137 839.632,-182.3182 898.7908,-193.056"/>
<polygon fill="#191970" stroke="#191970" points="570.0752,-414.3532 571.9418,-424.7823 576.9863,-415.4654 570.0752,-414.3532"/>
</g>
<!-- Node8446 -->
<g id="node18" class="node">
<title>Node8446</title>
<g id="a_node18"><a xlink:href="state__machine_8c.html#a4b480e0b64d97a6a539fc0db668b4222" target="_top" xlink:title="Process a EAP&#45;Response/(AKA|SIM)&#45;Reauthentication message &#45; The response to our EAP&#45;Request/(AKA|SIM)...">
<polygon fill="none" stroke="#ff0000" points="698.5,-807 698.5,-837 826.5,-837 826.5,-807 698.5,-807"/>
<text text-anchor="start" x="706.5" y="-825" font-family="Helvetica,sans-Serif" font-size="10.00" fill="#000000">common_reauthentication</text>
<text text-anchor="middle" x="762.5" y="-814" font-family="Helvetica,sans-Serif" font-size="10.00" fill="#000000">_response_process</text>
</a>
</g>
</g>
<!-- Node8442&#45;&gt;Node8446 -->
<g id="edge22" class="edge">
<title>Node8442&#45;&gt;Node8446</title>
<path fill="none" stroke="#191970" d="M584.6595,-463.7374C600.5167,-490.509 625.354,-535.8246 639,-578 669.5004,-672.2668 608.7326,-724.3446 675,-798 681.3214,-805.0261 689.4861,-810.0771 698.2829,-813.6928"/>
<polygon fill="#191970" stroke="#191970" points="587.6073,-461.8477 579.4582,-455.0769 581.6064,-465.4517 587.6073,-461.8477"/>
</g>
<!-- Node8465 -->
<g id="node19" class="node">
<title>Node8465</title>
<g id="a_node19"><a xlink:href="state__machine_8c.html#afe0b17bdec5bc7469335fa9468715d05" target="_top" xlink:title="Process a EAP&#45;Response/AKA&#45;Challenge message &#45; The response to our EAP&#45;Request/AKA&#45;Challenge message...">
<polygon fill="none" stroke="#ff0000" points="700.5,-758 700.5,-788 824.5,-788 824.5,-758 700.5,-758"/>
<text text-anchor="start" x="708.5" y="-776" font-family="Helvetica,sans-Serif" font-size="10.00" fill="#000000">aka_challenge_response</text>
<text text-anchor="middle" x="762.5" y="-765" font-family="Helvetica,sans-Serif" font-size="10.00" fill="#000000">_process</text>
</a>
</g>
</g>
<!-- Node8442&#45;&gt;Node8465 -->
<g id="edge23" class="edge">
<title>Node8442&#45;&gt;Node8465</title>
<path fill="none" stroke="#191970" d="M584.3026,-463.8574C599.8438,-490.7352 624.4024,-536.1445 639,-578 664.5761,-651.3339 621.7597,-692.4538 675,-749 681.9108,-756.3399 690.8349,-761.5098 700.3338,-765.1361"/>
<polygon fill="#191970" stroke="#191970" points="587.2842,-462.0225 579.2127,-455.1594 581.2426,-465.558 587.2842,-462.0225"/>
</g>
<!-- Node8471 -->
<g id="node20" class="node">
<title>Node8471</title>
<g id="a_node20"><a xlink:href="state__machine_8c.html#ad01e135702ab82706a9ce0bd41779548" target="_top" xlink:title="Process a EAP&#45;Response/SIM&#45;Challenge message &#45; The response to our EAP&#45;Request/SIM&#45;Challenge message...">
<polygon fill="none" stroke="#ff0000" points="700.5,-709 700.5,-739 824.5,-739 824.5,-709 700.5,-709"/>
<text text-anchor="start" x="708.5" y="-727" font-family="Helvetica,sans-Serif" font-size="10.00" fill="#000000">sim_challenge_response</text>
<text text-anchor="middle" x="762.5" y="-716" font-family="Helvetica,sans-Serif" font-size="10.00" fill="#000000">_process</text>
</a>
</g>
</g>
<!-- Node8442&#45;&gt;Node8471 -->
<g id="edge24" class="edge">
<title>Node8442&#45;&gt;Node8471</title>
<path fill="none" stroke="#191970" d="M583.5756,-464.1301C598.473,-491.2494 622.4638,-536.8717 639,-578 659.1372,-628.0846 637.3943,-655.273 675,-694 682.0481,-701.2582 690.9264,-706.7609 700.3072,-710.9325"/>
<polygon fill="#191970" stroke="#191970" points="586.6185,-462.4002 578.7126,-455.3471 580.4946,-465.791 586.6185,-462.4002"/>
</g>
<!-- Node8470 -->
<g id="node21" class="node">
<title>Node8470</title>
<g id="a_node21"><a xlink:href="state__machine_8c.html#aaf3c49c3c4d1c874b811b5af561d9e8d" target="_top" xlink:title="Resume after &#39;recv Synchronization&#45;Failure { ... ">
<polygon fill="none" stroke="#000000" points="707.5,-507 707.5,-537 817.5,-537 817.5,-507 707.5,-507"/>
<text text-anchor="start" x="715.5" y="-525" font-family="Helvetica,sans-Serif" font-size="10.00" fill="#000000">aka_synchronization</text>
<text text-anchor="middle" x="762.5" y="-514" font-family="Helvetica,sans-Serif" font-size="10.00" fill="#000000">_failure_recv_resume</text>
</a>
</g>
</g>
<!-- Node8442&#45;&gt;Node8470 -->
<g id="edge27" class="edge">
<title>Node8442&#45;&gt;Node8470</title>
<path fill="none" stroke="#191970" d="M607.0759,-459.8289C626.9343,-470.0732 651.9842,-482.4027 675,-492 687.7469,-497.3153 701.8043,-502.445 714.853,-506.914"/>
<polygon fill="#191970" stroke="#191970" points="608.5468,-456.6488 598.0603,-455.1376 605.3156,-462.8584 608.5468,-456.6488"/>
</g>
<!-- Node8467 -->
<g id="node22" class="node">
<title>Node8467</title>
<g id="a_node22"><a xlink:href="state__machine_8c.html#a93530a2411188106d89b86a6b691ee80" target="_top" xlink:title="AKA&#45;CHALLENGE state &#45; Continue the state machine after receiving a response to our EAP&#45;Request/SIM&#45;Ch...">
<polygon fill="none" stroke="#ff0000" points="910.5,-468.5 910.5,-487.5 989.5,-487.5 989.5,-468.5 910.5,-468.5"/>
<text text-anchor="middle" x="950" y="-475.5" font-family="Helvetica,sans-Serif" font-size="10.00" fill="#000000">aka_challenge</text>
</a>
</g>
</g>
<!-- Node8442&#45;&gt;Node8467 -->
<g id="edge36" class="edge">
<title>Node8442&#45;&gt;Node8467</title>
<path fill="none" stroke="#191970" d="M648.8989,-455.2399C657.684,-456.6497 666.5187,-457.9429 675,-459 758.3439,-469.3878 856.6585,-474.4625 910.2481,-476.6268"/>
<polygon fill="#191970" stroke="#191970" points="649.46,-451.7852 639.0226,-453.6049 648.3167,-458.6912 649.46,-451.7852"/>
</g>
<!-- Node8486 -->
<g id="node23" class="node">
<title>Node8486</title>
<g id="a_node23"><a xlink:href="state__machine_8c.html#acfd6afcdea10b126b8207008edc60f4e" target="_top" xlink:title="Decode the peer&#39;s response. ">
<polygon fill="none" stroke="#ff0000" points="717,-430.5 717,-449.5 808,-449.5 808,-430.5 717,-430.5"/>
<text text-anchor="middle" x="762.5" y="-437.5" font-family="Helvetica,sans-Serif" font-size="10.00" fill="#000000">common_decode</text>
</a>
</g>
</g>
<!-- Node8442&#45;&gt;Node8486 -->
<g id="edge29" class="edge">
<title>Node8442&#45;&gt;Node8486</title>
<path fill="none" stroke="#191970" d="M649.3525,-440C672.4029,-440 696.7881,-440 716.9945,-440"/>
<polygon fill="#191970" stroke="#191970" points="649.225,-436.5001 639.225,-440 649.2249,-443.5001 649.225,-436.5001"/>
</g>
<!-- Node8448 -->
<g id="node24" class="node">
<title>Node8448</title>
<g id="a_node24"><a xlink:href="state__machine_8c.html#aa699541427791ca3d4de887676eb0cb5" target="_top" xlink:title="REAUTHENTICATION state &#45; Continue the state machine after receiving a response to our EAP&#45;Request/SIM...">
<polygon fill="none" stroke="#ff0000" points="886,-594.5 886,-613.5 1014,-613.5 1014,-594.5 886,-594.5"/>
<text text-anchor="middle" x="950" y="-601.5" font-family="Helvetica,sans-Serif" font-size="10.00" fill="#000000">common_reauthentication</text>
</a>
</g>
</g>
<!-- Node8442&#45;&gt;Node8448 -->
<g id="edge35" class="edge">
<title>Node8442&#45;&gt;Node8448</title>
<path fill="none" stroke="#191970" d="M582.1118,-464.1063C598.6369,-494.2106 631.2666,-544.7037 675,-569 740.211,-605.2283 827.2685,-610.4171 885.8118,-608.8723"/>
<polygon fill="#191970" stroke="#191970" points="585.1091,-462.2883 577.3188,-455.1077 578.9308,-465.5791 585.1091,-462.2883"/>
</g>
<!-- Node8473 -->
<g id="node25" class="node">
<title>Node8473</title>
<g id="a_node25"><a xlink:href="state__machine_8c.html#a8cba0e5a63e2f31f74ad7726aa289afd" target="_top" xlink:title="SIM&#45;CHALLENGE state &#45; Continue the state machine after receiving a response to our EAP&#45;Request/SIM&#45;Ch...">
<polygon fill="none" stroke="#ff0000" points="910.5,-531.5 910.5,-550.5 989.5,-550.5 989.5,-531.5 910.5,-531.5"/>
<text text-anchor="middle" x="950" y="-538.5" font-family="Helvetica,sans-Serif" font-size="10.00" fill="#000000">sim_challenge</text>
</a>
</g>
</g>
<!-- Node8442&#45;&gt;Node8473 -->
<g id="edge37" class="edge">
<title>Node8442&#45;&gt;Node8473</title>
<path fill="none" stroke="#191970" d="M584.9692,-463.7771C602.7965,-489.611 635.2217,-529.4128 675,-546 754.7716,-579.2642 859.2118,-562.9912 913.5604,-550.6013"/>
<polygon fill="#191970" stroke="#191970" points="587.7549,-461.6465 579.2842,-455.2828 581.9376,-465.54 587.7549,-461.6465"/>
</g>
<!-- Node8452 -->
<g id="node26" class="node">
<title>Node8452</title>
<g id="a_node26"><a xlink:href="state__machine_8c.html#a5c4b635b588c3eccfd4d879ea830cd27" target="_top" xlink:title="AKA&#45;IDENTITY state &#45; Continue the state machine after receiving a response to our EAP&#45;Request/AKA&#45;Ide...">
<polygon fill="none" stroke="#ff0000" points="915.5,-411.5 915.5,-430.5 984.5,-430.5 984.5,-411.5 915.5,-411.5"/>
<text text-anchor="middle" x="950" y="-418.5" font-family="Helvetica,sans-Serif" font-size="10.00" fill="#000000">aka_identity</text>
</a>
</g>
</g>
<!-- Node8442&#45;&gt;Node8452 -->
<g id="edge38" class="edge">
<title>Node8442&#45;&gt;Node8452</title>
<path fill="none" stroke="#191970" d="M649.3249,-424.0971C657.9608,-422.8288 666.6451,-421.7498 675,-421 761.069,-413.2755 862.9017,-416.4739 915.1819,-419.011"/>
<polygon fill="#191970" stroke="#191970" points="648.5765,-420.6713 639.2321,-425.6645 649.6508,-427.5884 648.5765,-420.6713"/>
</g>
<!-- Node8461 -->
<g id="node27" class="node">
<title>Node8461</title>
<g id="a_node27"><a xlink:href="state__machine_8c.html#af8d6f2ddb260f9163e8dfbe695b71f90" target="_top" xlink:title="SIM&#45;START state &#45; Continue the state machine after receiving a response to our EAP&#45;Request/SIM&#45;Start...">
<polygon fill="none" stroke="#ff0000" points="921.5,-312.5 921.5,-331.5 978.5,-331.5 978.5,-312.5 921.5,-312.5"/>
<text text-anchor="middle" x="950" y="-319.5" font-family="Helvetica,sans-Serif" font-size="10.00" fill="#000000">sim_start</text>
</a>
</g>
</g>
<!-- Node8442&#45;&gt;Node8461 -->
<g id="edge39" class="edge">
<title>Node8442&#45;&gt;Node8461</title>
<path fill="none" stroke="#191970" d="M585.04,-416.2969C602.9312,-390.489 635.4141,-350.5549 675,-333 757.99,-296.1969 869.2733,-307.9642 921.1377,-316.4778"/>
<polygon fill="#191970" stroke="#191970" points="582.0128,-414.5263 579.3324,-424.7765 587.8199,-418.435 582.0128,-414.5263"/>
</g>
<!-- Node8464 -->
<g id="node28" class="node">
<title>Node8464</title>
<g id="a_node28"><a xlink:href="state__machine_8h.html#a3f51a97eaa340698f12e228e73149542" target="_top" xlink:title="Enter the EAP&#45;IDENTITY state &#45; State machine entry point. ">
<polygon fill="none" stroke="#000000" points="701.5,-343 701.5,-373 823.5,-373 823.5,-343 701.5,-343"/>
<text text-anchor="start" x="709.5" y="-361" font-family="Helvetica,sans-Serif" font-size="10.00" fill="#000000">aka_sim_state_machine</text>
<text text-anchor="middle" x="762.5" y="-350" font-family="Helvetica,sans-Serif" font-size="10.00" fill="#000000">_start</text>
</a>
</g>
</g>
<!-- Node8442&#45;&gt;Node8464 -->
<g id="edge40" class="edge">
<title>Node8442&#45;&gt;Node8464</title>
<path fill="none" stroke="#191970" d="M607.0759,-420.1711C626.9343,-409.9268 651.9842,-397.5973 675,-388 687.7469,-382.6847 701.8043,-377.555 714.853,-373.086"/>
<polygon fill="#191970" stroke="#191970" points="605.3156,-417.1416 598.0603,-424.8624 608.5468,-423.3512 605.3156,-417.1416"/>
</g>
<!-- Node8475&#45;&gt;Node8455 -->
<g id="edge7" class="edge">
<title>Node8475&#45;&gt;Node8455</title>
<path fill="none" stroke="#191970" d="M793.498,-889.0956C810.5562,-877.2445 831.8772,-861.8536 850,-847 881.5389,-821.1504 915.839,-788.0545 934.9528,-769.1185"/>
<polygon fill="#191970" stroke="#191970" points="791.2533,-886.3919 785.0058,-894.9488 795.2258,-892.1556 791.2533,-886.3919"/>
</g>
<!-- Node8455&#45;&gt;Node8456 -->
<g id="edge8" class="edge">
<title>Node8455&#45;&gt;Node8456</title>
<path fill="none" stroke="#191970" d="M1024.5641,-754C1033.0037,-754 1041.5492,-754 1049.8391,-754"/>
<polygon fill="#191970" stroke="#191970" points="1024.3465,-750.5001 1014.3464,-754 1024.3464,-757.5001 1024.3465,-750.5001"/>
</g>
<!-- Node8456&#45;&gt;Node8457 -->
<g id="edge9" class="edge">
<title>Node8456&#45;&gt;Node8457</title>
<path fill="none" stroke="#191970" d="M1188.2472,-764.5044C1196.8969,-765.7282 1205.6045,-766.9601 1213.9407,-768.1395"/>
<polygon fill="#191970" stroke="#191970" points="1188.5373,-761.0107 1178.1456,-763.0753 1187.5566,-767.9417 1188.5373,-761.0107"/>
</g>
<!-- Node8476&#45;&gt;Node8477 -->
<g id="edge12" class="edge">
<title>Node8476&#45;&gt;Node8477</title>
<path fill="none" stroke="#191970" d="M844.5474,-132.3141C860.441,-133.9247 876.7903,-135.5814 891.7297,-137.0953"/>
<polygon fill="#191970" stroke="#191970" points="844.4902,-128.7905 834.1883,-131.2644 843.7844,-135.7548 844.4902,-128.7905"/>
</g>
<!-- Node8458&#45;&gt;Node8450 -->
<g id="edge20" class="edge">
<title>Node8458&#45;&gt;Node8450</title>
<path fill="none" stroke="#191970" d="M832.0678,-249.1308C852.0702,-252.3312 873.6489,-255.7838 892.8112,-258.8498"/>
<polygon fill="#191970" stroke="#191970" points="832.5112,-245.6574 822.0838,-247.5334 831.4052,-252.5694 832.5112,-245.6574"/>
</g>
<!-- Node8458&#45;&gt;Node8459 -->
<g id="edge21" class="edge">
<title>Node8458&#45;&gt;Node8459</title>
<path fill="none" stroke="#191970" d="M826.4318,-226.748C850.1017,-222.5821 876.6022,-217.918 898.9738,-213.9806"/>
<polygon fill="#191970" stroke="#191970" points="825.7231,-223.3188 816.4812,-228.4993 826.9365,-230.2129 825.7231,-223.3188"/>
</g>
<!-- Node8470&#45;&gt;Node8467 -->
<g id="edge28" class="edge">
<title>Node8470&#45;&gt;Node8467</title>
<path fill="none" stroke="#191970" d="M827.6935,-506.7012C855.2044,-500.2454 886.3423,-492.9383 910.3149,-487.3128"/>
<polygon fill="#191970" stroke="#191970" points="826.678,-503.3444 817.7421,-509.0365 828.2772,-510.1593 826.678,-503.3444"/>
</g>
<!-- Node8486&#45;&gt;Node8467 -->
<g id="edge31" class="edge">
<title>Node8486&#45;&gt;Node8467</title>
<path fill="none" stroke="#191970" d="M818.546,-451.3586C848.0977,-457.3478 883.647,-464.5525 910.322,-469.9586"/>
<polygon fill="#191970" stroke="#191970" points="818.8636,-447.8519 808.3677,-449.2958 817.4732,-454.7125 818.8636,-447.8519"/>
</g>
<!-- Node8486&#45;&gt;Node8448 -->
<g id="edge30" class="edge">
<title>Node8486&#45;&gt;Node8448</title>
<path fill="none" stroke="#191970" d="M791.3412,-454.1958C809.7331,-464.283 833.1841,-479.1752 850,-497 872.13,-520.4577 864.1639,-536.2685 886,-560 899.2384,-574.3875 918.0124,-586.5925 931.8041,-594.4717"/>
<polygon fill="#191970" stroke="#191970" points="792.9821,-451.1043 782.5089,-449.5035 789.6979,-457.2861 792.9821,-451.1043"/>
</g>
<!-- Node8486&#45;&gt;Node8473 -->
<g id="edge32" class="edge">
<title>Node8486&#45;&gt;Node8473</title>
<path fill="none" stroke="#191970" d="M789.2936,-454.4328C828.1935,-475.3869 899.2576,-513.6667 932.2707,-531.4498"/>
<polygon fill="#191970" stroke="#191970" points="790.6034,-451.1629 780.1395,-449.5018 787.2837,-457.3257 790.6034,-451.1629"/>
</g>
<!-- Node8486&#45;&gt;Node8452 -->
<g id="edge33" class="edge">
<title>Node8486&#45;&gt;Node8452</title>
<path fill="none" stroke="#191970" d="M818.3431,-434.3412C849.8831,-431.1452 888.3065,-427.2516 915.4825,-424.4978"/>
<polygon fill="#191970" stroke="#191970" points="817.9638,-430.8616 808.3677,-435.3521 818.6696,-437.826 817.9638,-430.8616"/>
</g>
<!-- Node8486&#45;&gt;Node8461 -->
<g id="edge34" class="edge">
<title>Node8486&#45;&gt;Node8461</title>
<path fill="none" stroke="#191970" d="M786.4957,-424.8987C825.6366,-400.266 902.1216,-352.1315 934.707,-331.6244"/>
<polygon fill="#191970" stroke="#191970" points="784.4432,-422.055 777.8439,-430.3436 788.1716,-427.9794 784.4432,-422.055"/>
</g>
</g>
</svg>
        <g id="navigator" transform="translate(0 0)" fill="#404254">
                <rect fill="#f2f5e9" fill-opacity="0.5" stroke="#606060" stroke-width=".5" x="0" y="0" width="60" height="60"/>
                <use id="zoomplus" xlink:href="#zoomPlus" x="17" y="9" onmousedown="handleZoom(evt,'in')"/>
                <use id="zoomminus" xlink:href="#zoomMin" x="42" y="9" onmousedown="handleZoom(evt,'out')"/>
                <use id="reset" xlink:href="#resetDef" x="30" y="36" onmousedown="handleReset()"/>
                <g id="arrowUp" xlink:href="#dirArrow" transform="translate(30 24)" onmousedown="handlePan(0,-1)">
                  <use xlink:href="#rim" fill="#404040">
                        <set attributeName="fill" to="#808080" begin="arrowUp.mouseover" end="arrowUp.mouseout"/>
                  </use>
                  <path fill="none" stroke="white" stroke-width="1.5" d="M0,-3.0v7 M-2.5,-0.5L0,-3.0L2.5,-0.5"/>
                </g>
                <g id="arrowRight" xlink:href="#dirArrow" transform="rotate(90) translate(36 -43)" onmousedown="handlePan(1,0)">
                  <use xlink:href="#rim" fill="#404040">
                        <set attributeName="fill" to="#808080" begin="arrowRight.mouseover" end="arrowRight.mouseout"/>
                  </use>
                  <path fill="none" stroke="white" stroke-width="1.5" d="M0,-3.0v7 M-2.5,-0.5L0,-3.0L2.5,-0.5"/>
                </g>
                <g id="arrowDown" xlink:href="#dirArrow" transform="rotate(180) translate(-30 -48)" onmousedown="handlePan(0,1)">
                  <use xlink:href="#rim" fill="#404040">
                        <set attributeName="fill" to="#808080" begin="arrowDown.mouseover" end="arrowDown.mouseout"/>
                  </use>
                  <path fill="none" stroke="white" stroke-width="1.5" d="M0,-3.0v7 M-2.5,-0.5L0,-3.0L2.5,-0.5"/>
                </g>
                <g id="arrowLeft" xlink:href="#dirArrow" transform="rotate(270) translate(-36 17)" onmousedown="handlePan(-1,0)">
                  <use xlink:href="#rim" fill="#404040">
                        <set attributeName="fill" to="#808080" begin="arrowLeft.mouseover" end="arrowLeft.mouseout"/>
                  </use>
                  <path fill="none" stroke="white" stroke-width="1.5" d="M0,-3.0v7 M-2.5,-0.5L0,-3.0L2.5,-0.5"/>
                </g>
        </g>
        <svg viewBox="0 0 15 15" width="100%" height="30px" preserveAspectRatio="xMaxYMin meet">
         <g id="arrow_out" transform="scale(0.3 0.3)">
          <a xlink:href="state__machine_8c_af606b84ac6700e45736a9853afd2c06a_icgraph_org.svg" target="_base">
           <rect id="button" ry="5" rx="5" y="6" x="6" height="38" width="38"
                fill="#f2f5e9" fill-opacity="0.5" stroke="#606060" stroke-width="1.0"/>
           <path id="arrow"
             d="M 11.500037,31.436501 C 11.940474,20.09759 22.043105,11.32322 32.158766,21.979434 L 37.068811,17.246167 C 37.068811,17.246167 37.088388,32 37.088388,32 L 22.160133,31.978069 C 22.160133,31.978069 26.997745,27.140456 26.997745,27.140456 C 18.528582,18.264221 13.291696,25.230495 11.500037,31.436501 z"
             style="fill:#404040;"/>
          </a>
         </g>
        </svg>
</svg>
