<?xml version="1.0" encoding="UTF-8" standalone="no"?>
<!DOCTYPE svg PUBLIC "-//W3C//DTD SVG 1.1//EN"
 "http://www.w3.org/Graphics/SVG/1.1/DTD/svg11.dtd">
<!-- Generated by graphviz version 2.40.1 (20161225.0304)
 -->
<!-- Title: fr_state_tree_s Pages: 1 -->
<svg width="717pt" height="368pt"
 viewBox="0.00 0.00 717.00 368.00" xmlns="http://www.w3.org/2000/svg" xmlns:xlink="http://www.w3.org/1999/xlink">
<g id="graph0" class="graph" transform="scale(1 1) rotate(0) translate(4 364)">
<title>fr_state_tree_s</title>
<!-- Node69 -->
<g id="node1" class="node">
<title>Node69</title>
<polygon fill="#bfbfbf" stroke="#000000" points="67,-68.5 67,-87.5 149,-87.5 149,-68.5 67,-68.5"/>
<text text-anchor="middle" x="108" y="-75.5" font-family="Helvetica,sans-Serif" font-size="10.00" fill="#000000">fr_state_tree_s</text>
</g>
<!-- Node70 -->
<g id="node2" class="node">
<title>Node70</title>
<g id="a_node2"><a xlink:href="dlist_8h.html#structfr__dlist__head__t" target="_top" xlink:title="Head of a doubly linked list. ">
<polygon fill="none" stroke="#000000" points="9,-187 9,-206 89,-206 89,-187 9,-187"/>
<text text-anchor="middle" x="49" y="-194" font-family="Helvetica,sans-Serif" font-size="10.00" fill="#000000">fr_dlist_head_t</text>
</a>
</g>
</g>
<!-- Node70&#45;&gt;Node69 -->
<g id="edge1" class="edge">
<title>Node70&#45;&gt;Node69</title>
<path fill="none" stroke="#9a32cd" stroke-dasharray="5,2" d="M48.8775,-176.7244C49.6493,-157.469 53.2715,-128.1002 67,-107 72.2303,-98.9612 80.5357,-92.4765 88.3079,-87.6944"/>
<polygon fill="#9a32cd" stroke="#9a32cd" points="45.3776,-176.6929 48.6976,-186.7541 52.3764,-176.8185 45.3776,-176.6929"/>
<text text-anchor="middle" x="88.5" y="-132" font-family="Helvetica,sans-Serif" font-size="10.00" fill="#000000"> to_expire</text>
</g>
<!-- Node71 -->
<g id="node3" class="node">
<title>Node71</title>
<g id="a_node3"><a xlink:href="dlist_8h.html#structfr__dlist__s" target="_top" xlink:title="Entry in a doubly linked list. ">
<polygon fill="none" stroke="#000000" points="0,-272.5 0,-291.5 56,-291.5 56,-272.5 0,-272.5"/>
<text text-anchor="middle" x="28" y="-279.5" font-family="Helvetica,sans-Serif" font-size="10.00" fill="#000000">fr_dlist_s</text>
</a>
</g>
</g>
<!-- Node71&#45;&gt;Node70 -->
<g id="edge2" class="edge">
<title>Node71&#45;&gt;Node70</title>
<path fill="none" stroke="#9a32cd" stroke-dasharray="5,2" d="M32.8175,-262.386C37.1326,-244.8172 43.2802,-219.7877 46.6191,-206.1936"/>
<polygon fill="#9a32cd" stroke="#9a32cd" points="29.3953,-261.6458 30.409,-272.1921 36.1933,-263.3156 29.3953,-261.6458"/>
<text text-anchor="middle" x="53.5" y="-239.5" font-family="Helvetica,sans-Serif" font-size="10.00" fill="#000000"> entry</text>
</g>
<!-- Node71&#45;&gt;Node71 -->
<g id="edge3" class="edge">
<title>Node71&#45;&gt;Node71</title>
<path fill="none" stroke="#9a32cd" stroke-dasharray="5,2" d="M66.5533,-287.4491C71.0634,-286.4467 74,-284.6303 74,-282 74,-277.6836 66.0919,-275.5591 56.2994,-275.6266"/>
<polygon fill="#9a32cd" stroke="#9a32cd" points="65.9447,-283.9897 56.2994,-288.3734 66.5733,-290.9614 65.9447,-283.9897"/>
<text text-anchor="middle" x="85" y="-285" font-family="Helvetica,sans-Serif" font-size="10.00" fill="#000000"> prev</text>
<text text-anchor="middle" x="85" y="-274" font-family="Helvetica,sans-Serif" font-size="10.00" fill="#000000">next</text>
</g>
<!-- Node72 -->
<g id="node4" class="node">
<title>Node72</title>
<g id="a_node4"><a xlink:href="dict_8h.html#structdict__attr__s" target="_top" xlink:title="Dictionary attribute. ">
<polygon fill="none" stroke="#000000" points="290,-187 290,-206 352,-206 352,-187 290,-187"/>
<text text-anchor="middle" x="321" y="-194" font-family="Helvetica,sans-Serif" font-size="10.00" fill="#000000">dict_attr_s</text>
</a>
</g>
</g>
<!-- Node72&#45;&gt;Node69 -->
<g id="edge4" class="edge">
<title>Node72&#45;&gt;Node69</title>
<path fill="none" stroke="#9a32cd" stroke-dasharray="5,2" d="M313.1975,-177.4854C302.519,-151.555 284.4947,-108.1579 283,-107 261.6827,-90.4868 189.5618,-93.6455 163,-89 158.4917,-88.2115 153.7849,-87.3418 149.1045,-86.4472"/>
<polygon fill="#9a32cd" stroke="#9a32cd" points="309.9663,-178.8306 317.0059,-186.7486 316.4405,-176.1689 309.9663,-178.8306"/>
<text text-anchor="middle" x="314" y="-132" font-family="Helvetica,sans-Serif" font-size="10.00" fill="#000000"> da</text>
</g>
<!-- Node72&#45;&gt;Node72 -->
<g id="edge24" class="edge">
<title>Node72&#45;&gt;Node72</title>
<path fill="none" stroke="#9a32cd" stroke-dasharray="5,2" d="M362.1528,-203.5286C366.9088,-202.2267 370,-199.8838 370,-196.5 370,-191.0859 362.0865,-188.3366 352.102,-188.252"/>
<polygon fill="#9a32cd" stroke="#9a32cd" points="361.6077,-200.069 352.102,-204.748 362.4508,-207.0181 361.6077,-200.069"/>
<text text-anchor="middle" x="384" y="-205" font-family="Helvetica,sans-Serif" font-size="10.00" fill="#000000"> next</text>
<text text-anchor="middle" x="384" y="-194" font-family="Helvetica,sans-Serif" font-size="10.00" fill="#000000">fixup</text>
<text text-anchor="middle" x="384" y="-183" font-family="Helvetica,sans-Serif" font-size="10.00" fill="#000000">parent</text>
</g>
<!-- Node74 -->
<g id="node6" class="node">
<title>Node74</title>
<g id="a_node6"><a xlink:href="dict__priv_8h.html#structfr__dict" target="_top" xlink:title="Vendors and attribute names. ">
<polygon fill="none" stroke="#000000" points="347,-68.5 347,-87.5 391,-87.5 391,-68.5 347,-68.5"/>
<text text-anchor="middle" x="369" y="-75.5" font-family="Helvetica,sans-Serif" font-size="10.00" fill="#000000">fr_dict</text>
</a>
</g>
</g>
<!-- Node72&#45;&gt;Node74 -->
<g id="edge18" class="edge">
<title>Node72&#45;&gt;Node74</title>
<path fill="none" stroke="#9a32cd" stroke-dasharray="5,2" d="M346.2329,-180.5778C352.4078,-175.4223 358.2987,-169.1582 362,-162 374.569,-137.6919 372.5106,-104.0753 370.4878,-87.7198"/>
<polygon fill="#9a32cd" stroke="#9a32cd" points="343.7089,-178.0962 337.8155,-186.9007 347.9131,-183.6931 343.7089,-178.0962"/>
<text text-anchor="middle" x="385.5" y="-137.5" font-family="Helvetica,sans-Serif" font-size="10.00" fill="#000000"> root</text>
<text text-anchor="middle" x="385.5" y="-126.5" font-family="Helvetica,sans-Serif" font-size="10.00" fill="#000000">fixups</text>
</g>
<!-- Node73 -->
<g id="node5" class="node">
<title>Node73</title>
<g id="a_node5"><a xlink:href="dict_8h.html#structfr__dict__attr__flags__t" target="_top" xlink:title="Values of the encryption flags. ">
<polygon fill="none" stroke="#000000" points="272,-272.5 272,-291.5 370,-291.5 370,-272.5 272,-272.5"/>
<text text-anchor="middle" x="321" y="-279.5" font-family="Helvetica,sans-Serif" font-size="10.00" fill="#000000">fr_dict_attr_flags_t</text>
</a>
</g>
</g>
<!-- Node73&#45;&gt;Node72 -->
<g id="edge5" class="edge">
<title>Node73&#45;&gt;Node72</title>
<path fill="none" stroke="#9a32cd" stroke-dasharray="5,2" d="M321,-261.8868C321,-244.346 321,-219.6594 321,-206.1936"/>
<polygon fill="#9a32cd" stroke="#9a32cd" points="317.5001,-262.192 321,-272.1921 324.5001,-262.1921 317.5001,-262.192"/>
<text text-anchor="middle" x="333.5" y="-239.5" font-family="Helvetica,sans-Serif" font-size="10.00" fill="#000000"> flags</text>
</g>
<!-- Node74&#45;&gt;Node72 -->
<g id="edge6" class="edge">
<title>Node74&#45;&gt;Node72</title>
<path fill="none" stroke="#9a32cd" stroke-dasharray="5,2" d="M351.3409,-94.9686C348.2013,-98.6882 345.2276,-102.7829 343,-107 328.8753,-133.7401 323.6153,-169.7796 321.8295,-186.8124"/>
<polygon fill="#9a32cd" stroke="#9a32cd" points="354.0146,-97.2329 358.2537,-87.523 348.8847,-92.4701 354.0146,-97.2329"/>
<text text-anchor="middle" x="352.5" y="-132" font-family="Helvetica,sans-Serif" font-size="10.00" fill="#000000"> dict</text>
</g>
<!-- Node74&#45;&gt;Node74 -->
<g id="edge17" class="edge">
<title>Node74&#45;&gt;Node74</title>
<path fill="none" stroke="#9a32cd" stroke-dasharray="5,2" d="M401.4045,-83.7059C405.9533,-82.7751 409,-80.8731 409,-78 409,-73.2852 400.7952,-71.1856 391.2124,-71.7013"/>
<polygon fill="#9a32cd" stroke="#9a32cd" points="400.9922,-80.2239 391.2124,-84.2987 401.3988,-87.212 400.9922,-80.2239"/>
<text text-anchor="middle" x="430.5" y="-75.5" font-family="Helvetica,sans-Serif" font-size="10.00" fill="#000000"> attr_valid</text>
</g>
<!-- Node79 -->
<g id="node11" class="node">
<title>Node79</title>
<g id="a_node11"><a xlink:href="dict__priv_8h.html#structfr__dict__gctx__s" target="_top" xlink:title="fr_dict_gctx_s">
<polygon fill="none" stroke="#000000" points="422,-.5 422,-19.5 500,-19.5 500,-.5 422,-.5"/>
<text text-anchor="middle" x="461" y="-7.5" font-family="Helvetica,sans-Serif" font-size="10.00" fill="#000000">fr_dict_gctx_s</text>
</a>
</g>
</g>
<!-- Node74&#45;&gt;Node79 -->
<g id="edge14" class="edge">
<title>Node74&#45;&gt;Node79</title>
<path fill="none" stroke="#9a32cd" stroke-dasharray="5,2" d="M371.6595,-58.3616C373.5136,-51.181 376.6601,-43.4827 382,-38 392.5588,-27.1589 407.5766,-20.5051 421.688,-16.4256"/>
<polygon fill="#9a32cd" stroke="#9a32cd" points="368.2205,-57.7114 369.763,-68.1933 375.0938,-59.0373 368.2205,-57.7114"/>
<text text-anchor="middle" x="399.5" y="-41" font-family="Helvetica,sans-Serif" font-size="10.00" fill="#000000"> internal</text>
</g>
<!-- Node86 -->
<g id="node15" class="node">
<title>Node86</title>
<g id="a_node15"><a xlink:href="dict_8h.html#structfr__dict__protocol__t" target="_top" xlink:title="Protocol&#45;specific callbacks in libfreeradius&#45;PROTOCOL. ">
<polygon fill="none" stroke="#000000" points="225,-.5 225,-19.5 317,-19.5 317,-.5 225,-.5"/>
<text text-anchor="middle" x="271" y="-7.5" font-family="Helvetica,sans-Serif" font-size="10.00" fill="#000000">fr_dict_protocol_t</text>
</a>
</g>
</g>
<!-- Node74&#45;&gt;Node86 -->
<g id="edge23" class="edge">
<title>Node74&#45;&gt;Node86</title>
<path fill="none" stroke="#9a32cd" stroke-dasharray="5,2" d="M336.5859,-72.9987C310.3144,-68.2049 276.3335,-60.063 268,-49 261.7078,-40.6468 264.0715,-28.2304 266.954,-19.6621"/>
<polygon fill="#9a32cd" stroke="#9a32cd" points="336.1113,-76.4686 346.5625,-74.7298 337.3081,-69.5716 336.1113,-76.4686"/>
<text text-anchor="middle" x="289.5" y="-41" font-family="Helvetica,sans-Serif" font-size="10.00" fill="#000000"> attr_valid</text>
</g>
<!-- Node75 -->
<g id="node7" class="node">
<title>Node75</title>
<g id="a_node7"><a xlink:href="table_8h.html#structfr__table__num__ordered__t" target="_top" xlink:title="An element in an arbitrarily ordered array of name to num mappings. ">
<polygon fill="none" stroke="#000000" points="152.5,-187 152.5,-206 271.5,-206 271.5,-187 152.5,-187"/>
<text text-anchor="middle" x="212" y="-194" font-family="Helvetica,sans-Serif" font-size="10.00" fill="#000000">fr_table_num_ordered_t</text>
</a>
</g>
</g>
<!-- Node75&#45;&gt;Node74 -->
<g id="edge7" class="edge">
<title>Node75&#45;&gt;Node74</title>
<path fill="none" stroke="#9a32cd" stroke-dasharray="5,2" d="M207.3906,-177.0915C203.8642,-156.9922 202.0948,-125.9307 219,-107 235.6953,-88.3044 309.4978,-81.4073 346.9853,-79.0777"/>
<polygon fill="#9a32cd" stroke="#9a32cd" points="203.9819,-177.8923 209.4229,-186.9833 210.8387,-176.4835 203.9819,-177.8923"/>
<text text-anchor="middle" x="251" y="-132" font-family="Helvetica,sans-Serif" font-size="10.00" fill="#000000"> subtype_table</text>
</g>
<!-- Node75&#45;&gt;Node86 -->
<g id="edge22" class="edge">
<title>Node75&#45;&gt;Node86</title>
<path fill="none" stroke="#9a32cd" stroke-dasharray="5,2" d="M205.3354,-177.2437C199.9958,-158.804 194.5243,-130.4064 202,-107 213.6951,-70.383 244.8204,-35.7694 260.9676,-19.5779"/>
<polygon fill="#9a32cd" stroke="#9a32cd" points="202.016,-178.3554 208.3652,-186.8371 208.691,-176.2472 202.016,-178.3554"/>
<text text-anchor="middle" x="254" y="-75.5" font-family="Helvetica,sans-Serif" font-size="10.00" fill="#000000"> subtype_table</text>
</g>
<!-- Node76 -->
<g id="node8" class="node">
<title>Node76</title>
<g id="a_node8"><a xlink:href="table_8h.html#structfr__table__elem__t" target="_top" xlink:title="fr_table_elem_t">
<polygon fill="none" stroke="#000000" points="170.5,-272.5 170.5,-291.5 253.5,-291.5 253.5,-272.5 170.5,-272.5"/>
<text text-anchor="middle" x="212" y="-279.5" font-family="Helvetica,sans-Serif" font-size="10.00" fill="#000000">fr_table_elem_t</text>
</a>
</g>
</g>
<!-- Node76&#45;&gt;Node75 -->
<g id="edge8" class="edge">
<title>Node76&#45;&gt;Node75</title>
<path fill="none" stroke="#9a32cd" stroke-dasharray="5,2" d="M212,-261.8868C212,-244.346 212,-219.6594 212,-206.1936"/>
<polygon fill="#9a32cd" stroke="#9a32cd" points="208.5001,-262.192 212,-272.1921 215.5001,-262.1921 208.5001,-262.192"/>
<text text-anchor="middle" x="226" y="-239.5" font-family="Helvetica,sans-Serif" font-size="10.00" fill="#000000"> name</text>
</g>
<!-- Node77 -->
<g id="node9" class="node">
<title>Node77</title>
<g id="a_node9"><a xlink:href="hash_8c.html#structfr__hash__table__s" target="_top" xlink:title="fr_hash_table_s">
<polygon fill="none" stroke="#000000" points="563,-187 563,-206 649,-206 649,-187 563,-187"/>
<text text-anchor="middle" x="606" y="-194" font-family="Helvetica,sans-Serif" font-size="10.00" fill="#000000">fr_hash_table_s</text>
</a>
</g>
</g>
<!-- Node77&#45;&gt;Node74 -->
<g id="edge9" class="edge">
<title>Node77&#45;&gt;Node74</title>
<path fill="none" stroke="#9a32cd" stroke-dasharray="5,2" d="M577.8372,-181.6255C569.6654,-176.2815 561.2661,-169.6534 555,-162 538.2151,-141.499 552.6789,-123.5653 532,-107 510.5767,-89.8384 430.3861,-82.1421 391.0454,-79.3402"/>
<polygon fill="#9a32cd" stroke="#9a32cd" points="576.143,-184.6918 586.5034,-186.9082 579.7864,-178.7147 576.143,-184.6918"/>
<text text-anchor="middle" x="599.5" y="-154" font-family="Helvetica,sans-Serif" font-size="10.00" fill="#000000"> attributes_by_name</text>
<text text-anchor="middle" x="599.5" y="-143" font-family="Helvetica,sans-Serif" font-size="10.00" fill="#000000">autoref</text>
<text text-anchor="middle" x="599.5" y="-132" font-family="Helvetica,sans-Serif" font-size="10.00" fill="#000000">vendors_by_num</text>
<text text-anchor="middle" x="599.5" y="-121" font-family="Helvetica,sans-Serif" font-size="10.00" fill="#000000">attributes_combo</text>
<text text-anchor="middle" x="599.5" y="-110" font-family="Helvetica,sans-Serif" font-size="10.00" fill="#000000">vendors_by_name</text>
</g>
<!-- Node77&#45;&gt;Node79 -->
<g id="edge13" class="edge">
<title>Node77&#45;&gt;Node79</title>
<path fill="none" stroke="#9a32cd" stroke-dasharray="5,2" d="M629.7877,-180.4461C635.5139,-175.2896 640.875,-169.0579 644,-162 653.8964,-139.6484 656.6033,-127.9448 644,-107 612.9461,-55.3931 544.186,-29.7925 500.3562,-18.2597"/>
<polygon fill="#9a32cd" stroke="#9a32cd" points="627.5132,-177.7841 621.9288,-186.7878 631.9091,-183.2317 627.5132,-177.7841"/>
<text text-anchor="middle" x="669" y="-81" font-family="Helvetica,sans-Serif" font-size="10.00" fill="#000000"> protocol_by_num</text>
<text text-anchor="middle" x="669" y="-70" font-family="Helvetica,sans-Serif" font-size="10.00" fill="#000000">protocol_by_name</text>
</g>
<!-- Node78 -->
<g id="node10" class="node">
<title>Node78</title>
<g id="a_node10"><a xlink:href="hash_8c.html#structfr__hash__entry__s" target="_top" xlink:title="fr_hash_entry_s">
<polygon fill="none" stroke="#000000" points="563,-272.5 563,-291.5 649,-291.5 649,-272.5 563,-272.5"/>
<text text-anchor="middle" x="606" y="-279.5" font-family="Helvetica,sans-Serif" font-size="10.00" fill="#000000">fr_hash_entry_s</text>
</a>
</g>
</g>
<!-- Node78&#45;&gt;Node77 -->
<g id="edge10" class="edge">
<title>Node78&#45;&gt;Node77</title>
<path fill="none" stroke="#9a32cd" stroke-dasharray="5,2" d="M606,-261.8868C606,-244.346 606,-219.6594 606,-206.1936"/>
<polygon fill="#9a32cd" stroke="#9a32cd" points="602.5001,-262.192 606,-272.1921 609.5001,-262.1921 602.5001,-262.192"/>
<text text-anchor="middle" x="623.5" y="-245" font-family="Helvetica,sans-Serif" font-size="10.00" fill="#000000"> null</text>
<text text-anchor="middle" x="623.5" y="-234" font-family="Helvetica,sans-Serif" font-size="10.00" fill="#000000">buckets</text>
</g>
<!-- Node78&#45;&gt;Node78 -->
<g id="edge11" class="edge">
<title>Node78&#45;&gt;Node78</title>
<path fill="none" stroke="#9a32cd" stroke-dasharray="5,2" d="M659.2545,-287.0377C664.0135,-285.9827 667,-284.3035 667,-282 667,-278.3145 659.3545,-276.2269 649.0361,-275.7374"/>
<polygon fill="#9a32cd" stroke="#9a32cd" points="658.5485,-283.5972 649.0361,-288.2626 659.3816,-290.5474 658.5485,-283.5972"/>
<text text-anchor="middle" x="678" y="-279.5" font-family="Helvetica,sans-Serif" font-size="10.00" fill="#000000"> next</text>
</g>
<!-- Node79&#45;&gt;Node74 -->
<g id="edge12" class="edge">
<title>Node79&#45;&gt;Node74</title>
<path fill="none" stroke="#9a32cd" stroke-dasharray="5,2" d="M445.4644,-27.0463C438.3945,-34.2852 429.6791,-42.5281 421,-49 411.0561,-56.415 399.0089,-63.2505 389.0151,-68.4205"/>
<polygon fill="#9a32cd" stroke="#9a32cd" points="448.0724,-29.3825 452.4105,-19.7165 442.9914,-24.5675 448.0724,-29.3825"/>
<text text-anchor="middle" x="444" y="-41" font-family="Helvetica,sans-Serif" font-size="10.00" fill="#000000"> gctx</text>
</g>
<!-- Node80 -->
<g id="node12" class="node">
<title>Node80</title>
<g id="a_node12"><a xlink:href="dl_8c.html#structdl__loader__s" target="_top" xlink:title="A dynamic loader. ">
<polygon fill="none" stroke="#ff0000" points="401,-272.5 401,-291.5 467,-291.5 467,-272.5 401,-272.5"/>
<text text-anchor="middle" x="434" y="-279.5" font-family="Helvetica,sans-Serif" font-size="10.00" fill="#000000">dl_loader_s</text>
</a>
</g>
</g>
<!-- Node80&#45;&gt;Node79 -->
<g id="edge15" class="edge">
<title>Node80&#45;&gt;Node79</title>
<path fill="none" stroke="#9a32cd" stroke-dasharray="5,2" d="M457.1331,-265.5413C460.7371,-261.8529 463.9433,-257.6394 466,-253 484.9391,-210.2772 467.3615,-59.5676 462.2799,-19.7226"/>
<polygon fill="#9a32cd" stroke="#9a32cd" points="454.6043,-263.1047 449.4173,-272.343 459.2332,-268.3557 454.6043,-263.1047"/>
<text text-anchor="middle" x="499.5" y="-132" font-family="Helvetica,sans-Serif" font-size="10.00" fill="#000000"> dict_loader</text>
</g>
<!-- Node82 -->
<g id="node14" class="node">
<title>Node82</title>
<g id="a_node14"><a xlink:href="dl_8h.html#structdl__s" target="_top" xlink:title="Module handle. ">
<polygon fill="none" stroke="#000000" points="416.5,-187 416.5,-206 451.5,-206 451.5,-187 416.5,-187"/>
<text text-anchor="middle" x="434" y="-194" font-family="Helvetica,sans-Serif" font-size="10.00" fill="#000000">dl_s</text>
</a>
</g>
</g>
<!-- Node80&#45;&gt;Node82 -->
<g id="edge20" class="edge">
<title>Node80&#45;&gt;Node82</title>
<path fill="none" stroke="#9a32cd" stroke-dasharray="5,2" d="M434,-261.8868C434,-244.346 434,-219.6594 434,-206.1936"/>
<polygon fill="#9a32cd" stroke="#9a32cd" points="430.5001,-262.192 434,-272.1921 437.5001,-262.1921 430.5001,-262.192"/>
<text text-anchor="middle" x="449" y="-239.5" font-family="Helvetica,sans-Serif" font-size="10.00" fill="#000000"> loader</text>
</g>
<!-- Node84 -->
<g id="node13" class="node">
<title>Node84</title>
<g id="a_node13"><a xlink:href="rbmonkey_8c.html#structrbtree__s" target="_top" xlink:title="rbtree_s">
<polygon fill="none" stroke="#ff0000" points="114,-340.5 114,-359.5 166,-359.5 166,-340.5 114,-340.5"/>
<text text-anchor="middle" x="140" y="-347.5" font-family="Helvetica,sans-Serif" font-size="10.00" fill="#000000">rbtree_s</text>
</a>
</g>
</g>
<!-- Node84&#45;&gt;Node69 -->
<g id="edge25" class="edge">
<title>Node84&#45;&gt;Node69</title>
<path fill="none" stroke="#9a32cd" stroke-dasharray="5,2" d="M137.6821,-330.2979C131.3189,-276.2107 113.7461,-126.842 109.1253,-87.5646"/>
<polygon fill="#9a32cd" stroke="#9a32cd" points="134.2166,-330.7968 138.8611,-340.3194 141.1686,-329.9789 134.2166,-330.7968"/>
<text text-anchor="middle" x="139" y="-239.5" font-family="Helvetica,sans-Serif" font-size="10.00" fill="#000000"> tree</text>
</g>
<!-- Node84&#45;&gt;Node80 -->
<g id="edge16" class="edge">
<title>Node84&#45;&gt;Node80</title>
<path fill="none" stroke="#9a32cd" stroke-dasharray="5,2" d="M176.1831,-341.6311C233.7381,-328.3191 345.302,-302.5152 400.8749,-289.6616"/>
<polygon fill="#9a32cd" stroke="#9a32cd" points="175.0446,-338.302 166.0905,-343.9655 176.6221,-345.1219 175.0446,-338.302"/>
<text text-anchor="middle" x="315" y="-314" font-family="Helvetica,sans-Serif" font-size="10.00" fill="#000000"> tree</text>
</g>
<!-- Node82&#45;&gt;Node74 -->
<g id="edge19" class="edge">
<title>Node82&#45;&gt;Node74</title>
<path fill="none" stroke="#9a32cd" stroke-dasharray="5,2" d="M430.3564,-176.9276C426.1118,-157.8258 417.7258,-128.5702 403,-107 397.8382,-99.4391 390.2112,-92.687 383.4883,-87.6045"/>
<polygon fill="#9a32cd" stroke="#9a32cd" points="426.9568,-177.7727 432.3936,-186.8662 433.8142,-176.367 426.9568,-177.7727"/>
<text text-anchor="middle" x="431.5" y="-132" font-family="Helvetica,sans-Serif" font-size="10.00" fill="#000000"> dl</text>
</g>
<!-- Node86&#45;&gt;Node74 -->
<g id="edge21" class="edge">
<title>Node86&#45;&gt;Node74</title>
<path fill="none" stroke="#9a32cd" stroke-dasharray="5,2" d="M295.1216,-24.9178C301.6347,-29.0627 308.6386,-33.628 315,-38 329.4225,-47.9123 345.483,-59.9415 356.3105,-68.2038"/>
<polygon fill="#9a32cd" stroke="#9a32cd" points="296.9778,-21.9506 286.6507,-19.5838 293.2479,-27.8741 296.9778,-21.9506"/>
<text text-anchor="middle" x="342.5" y="-41" font-family="Helvetica,sans-Serif" font-size="10.00" fill="#000000"> proto</text>
</g>
</g>
</svg>
