<?xml version="1.0" encoding="UTF-8" standalone="no"?>
<!DOCTYPE svg PUBLIC "-//W3C//DTD SVG 1.1//EN"
 "http://www.w3.org/Graphics/SVG/1.1/DTD/svg11.dtd">
<!-- Generated by graphviz version 2.40.1 (20161225.0304)
 -->
<!-- Title: fr_dict_print_t Pages: 1 -->
<!--zoomable 552 -->
<svg id="main" version="1.1" xmlns="http://www.w3.org/2000/svg" xmlns:xlink="http://www.w3.org/1999/xlink" xml:space="preserve" onload="init(evt)">
<style type="text/css"><![CDATA[
.edge:hover path { stroke: red; }
.edge:hover polygon { stroke: red; fill: red; }
]]></style>
<script type="text/javascript"><![CDATA[
var edges = document.getElementsByTagName('g');
if (edges && edges.length) {
  for (var i=0;i<edges.length;i++) {
    if (edges[i].id.substr(0,4)=='edge') {
      edges[i].setAttribute('class','edge');
    }
  }
}
]]></script>
        <defs>
                <circle id="rim" cx="0" cy="0" r="7"/>
                <circle id="rim2" cx="0" cy="0" r="3.5"/>
                <g id="zoomPlus">
                        <use xlink:href="#rim" fill="#404040">
                                <set attributeName="fill" to="#808080" begin="zoomplus.mouseover" end="zoomplus.mouseout"/>
                        </use>
                        <path d="M-4,0h8M0,-4v8" fill="none" stroke="white" stroke-width="1.5" pointer-events="none"/>
                </g>
                <g id="zoomMin">
                        <use xlink:href="#rim" fill="#404040">
                                <set attributeName="fill" to="#808080" begin="zoomminus.mouseover" end="zoomminus.mouseout"/>
                        </use>
                        <path d="M-4,0h8" fill="none" stroke="white" stroke-width="1.5" pointer-events="none"/>
                </g>
                <g id="dirArrow">
                        <path fill="none" stroke="white" stroke-width="1.5" d="M0,-3.0v7 M-2.5,-0.5L0,-3.0L2.5,-0.5"/>
                </g>
               <g id="resetDef">
                       <use xlink:href="#rim2" fill="#404040">
                               <set attributeName="fill" to="#808080" begin="reset.mouseover" end="reset.mouseout"/>
                       </use>
               </g>
        </defs>

<script type="text/javascript">
var viewWidth = 777;
var viewHeight = 552;
var sectionId = 'dynsection-1';
</script>
<script xlink:href="svgpan.js"/>
<svg id="graph" class="graph">
<g id="viewport">
<title>fr_dict_print_t</title>
<!-- Node1 -->
<g id="node1" class="node">
<title>Node1</title>
<polygon fill="#bfbfbf" stroke="#000000" points="685,-138.5 685,-157.5 761,-157.5 761,-138.5 685,-138.5"/>
<text text-anchor="middle" x="723" y="-145.5" font-family="Helvetica,sans-Serif" font-size="10.00" fill="#000000">fr_dict_print_t</text>
</g>
<!-- Node2 -->
<g id="node2" class="node">
<title>Node2</title>
<g id="a_node2"><a xlink:href="dict__priv_8h.html#structfr__dict" target="_top" xlink:title="Vendors and attribute names. ">
<polygon fill="none" stroke="#000000" points="527,-189.5 527,-208.5 571,-208.5 571,-189.5 527,-189.5"/>
<text text-anchor="middle" x="549" y="-196.5" font-family="Helvetica,sans-Serif" font-size="10.00" fill="#000000">fr_dict</text>
</a>
</g>
</g>
<!-- Node2&#45;&gt;Node1 -->
<g id="edge1" class="edge">
<title>Node2&#45;&gt;Node1</title>
<path fill="none" stroke="#9a32cd" stroke-dasharray="5,2" d="M572.6105,-184.1914C585.0752,-177.0232 600.8859,-168.9235 616,-164 638.1454,-156.786 663.9417,-152.8067 684.6564,-150.6209"/>
<polygon fill="#9a32cd" stroke="#9a32cd" points="570.6099,-181.3087 563.7978,-189.4233 574.1834,-187.3279 570.6099,-181.3087"/>
<text text-anchor="middle" x="637.5" y="-167" font-family="Helvetica,sans-Serif" font-size="10.00" fill="#000000"> dict</text>
</g>
<!-- Node2&#45;&gt;Node2 -->
<g id="edge19" class="edge">
<title>Node2&#45;&gt;Node2</title>
<path fill="none" stroke="#9a32cd" stroke-dasharray="5,2" d="M532.7045,-218.4C533.7928,-223.3146 539.2246,-227 549,-227 564.6406,-227 569.1617,-217.5653 562.5634,-208.7571"/>
<polygon fill="#9a32cd" stroke="#9a32cd" points="536.078,-219.3325 535.4366,-208.7571 529.3431,-217.4242 536.078,-219.3325"/>
<text text-anchor="middle" x="549" y="-230" font-family="Helvetica,sans-Serif" font-size="10.00" fill="#000000"> attr_valid</text>
</g>
<!-- Node7 -->
<g id="node7" class="node">
<title>Node7</title>
<g id="a_node7"><a xlink:href="dict__priv_8h.html#structfr__dict__gctx__s" target="_top" xlink:title="fr_dict_gctx_s">
<polygon fill="none" stroke="#000000" points="684,-287.5 684,-306.5 762,-306.5 762,-287.5 684,-287.5"/>
<text text-anchor="middle" x="723" y="-294.5" font-family="Helvetica,sans-Serif" font-size="10.00" fill="#000000">fr_dict_gctx_s</text>
</a>
</g>
</g>
<!-- Node2&#45;&gt;Node7 -->
<g id="edge9" class="edge">
<title>Node2&#45;&gt;Node7</title>
<path fill="none" stroke="#9a32cd" stroke-dasharray="5,2" d="M563.6577,-216.5141C576.2515,-230.565 595.5666,-249.8794 616,-262 636.9285,-274.4143 662.8079,-283.0317 683.8727,-288.6092"/>
<polygon fill="#9a32cd" stroke="#9a32cd" points="566.2698,-214.1842 557.0618,-208.9436 560.992,-218.7825 566.2698,-214.1842"/>
<text text-anchor="middle" x="637.5" y="-283" font-family="Helvetica,sans-Serif" font-size="10.00" fill="#000000"> internal</text>
</g>
<!-- Node14 -->
<g id="node13" class="node">
<title>Node14</title>
<g id="a_node13"><a xlink:href="dict_8h.html#structdict__attr__s" target="_top" xlink:title="Dictionary attribute. ">
<polygon fill="none" stroke="#000000" points="692,-34.5 692,-53.5 754,-53.5 754,-34.5 692,-34.5"/>
<text text-anchor="middle" x="723" y="-41.5" font-family="Helvetica,sans-Serif" font-size="10.00" fill="#000000">dict_attr_s</text>
</a>
</g>
</g>
<!-- Node2&#45;&gt;Node14 -->
<g id="edge22" class="edge">
<title>Node2&#45;&gt;Node14</title>
<path fill="none" stroke="#9a32cd" stroke-dasharray="5,2" d="M567.5286,-182.3689C580.9693,-170.314 599.5931,-153.6297 616,-139 651.0427,-107.7532 692.664,-70.8636 712.0498,-53.6945"/>
<polygon fill="#9a32cd" stroke="#9a32cd" points="565.002,-179.9335 559.8958,-189.2168 569.6766,-185.1439 565.002,-179.9335"/>
<text text-anchor="middle" x="637.5" y="-142" font-family="Helvetica,sans-Serif" font-size="10.00" fill="#000000"> dict</text>
</g>
<!-- Node16 -->
<g id="node15" class="node">
<title>Node16</title>
<g id="a_node15"><a xlink:href="dict_8h.html#structfr__dict__protocol__t" target="_top" xlink:title="Protocol&#45;specific callbacks in libfreeradius&#45;PROTOCOL. ">
<polygon fill="none" stroke="#000000" points="677,-176.5 677,-195.5 769,-195.5 769,-176.5 677,-176.5"/>
<text text-anchor="middle" x="723" y="-183.5" font-family="Helvetica,sans-Serif" font-size="10.00" fill="#000000">fr_dict_protocol_t</text>
</a>
</g>
</g>
<!-- Node2&#45;&gt;Node16 -->
<g id="edge27" class="edge">
<title>Node2&#45;&gt;Node16</title>
<path fill="none" stroke="#9a32cd" stroke-dasharray="5,2" d="M580.6891,-188.6589C591.7368,-185.5443 604.298,-182.5445 616,-181 635.8195,-178.3841 657.8615,-178.8468 676.7646,-180.2638"/>
<polygon fill="#9a32cd" stroke="#9a32cd" points="579.6339,-185.321 571.0368,-191.513 581.6188,-192.0337 579.6339,-185.321"/>
<text text-anchor="middle" x="637.5" y="-184" font-family="Helvetica,sans-Serif" font-size="10.00" fill="#000000"> attr_valid</text>
</g>
<!-- Node3 -->
<g id="node3" class="node">
<title>Node3</title>
<g id="a_node3"><a xlink:href="table_8h.html#structfr__table__num__ordered__t" target="_top" xlink:title="An element in an arbitrarily ordered array of name to num mappings. ">
<polygon fill="none" stroke="#000000" points="265,-147.5 265,-166.5 384,-166.5 384,-147.5 265,-147.5"/>
<text text-anchor="middle" x="324.5" y="-154.5" font-family="Helvetica,sans-Serif" font-size="10.00" fill="#000000">fr_table_num_ordered_t</text>
</a>
</g>
</g>
<!-- Node3&#45;&gt;Node2 -->
<g id="edge2" class="edge">
<title>Node3&#45;&gt;Node2</title>
<path fill="none" stroke="#9a32cd" stroke-dasharray="5,2" d="M385.4858,-168.4094C432.3026,-177.168 494.2713,-188.7612 526.8339,-194.8531"/>
<polygon fill="#9a32cd" stroke="#9a32cd" points="385.9156,-164.9291 375.4425,-166.5305 384.6283,-171.8098 385.9156,-164.9291"/>
<text text-anchor="middle" x="442" y="-188" font-family="Helvetica,sans-Serif" font-size="10.00" fill="#000000"> subtype_table</text>
</g>
<!-- Node3&#45;&gt;Node16 -->
<g id="edge26" class="edge">
<title>Node3&#45;&gt;Node16</title>
<path fill="none" stroke="#9a32cd" stroke-dasharray="5,2" d="M370.4114,-145.1549C436.7771,-130.399 562.1656,-111.5007 659,-150 669.2254,-154.0654 667.7612,-161.0224 677,-167 682.5134,-170.5672 688.8075,-173.691 694.9327,-176.3201"/>
<polygon fill="#9a32cd" stroke="#9a32cd" points="369.245,-141.8314 360.2803,-147.4781 370.8097,-148.6543 369.245,-141.8314"/>
<text text-anchor="middle" x="549" y="-135" font-family="Helvetica,sans-Serif" font-size="10.00" fill="#000000"> subtype_table</text>
</g>
<!-- Node4 -->
<g id="node4" class="node">
<title>Node4</title>
<g id="a_node4"><a xlink:href="table_8h.html#structfr__table__elem__t" target="_top" xlink:title="fr_table_elem_t">
<polygon fill="none" stroke="#000000" points="109.5,-147.5 109.5,-166.5 192.5,-166.5 192.5,-147.5 109.5,-147.5"/>
<text text-anchor="middle" x="151" y="-154.5" font-family="Helvetica,sans-Serif" font-size="10.00" fill="#000000">fr_table_elem_t</text>
</a>
</g>
</g>
<!-- Node4&#45;&gt;Node3 -->
<g id="edge3" class="edge">
<title>Node4&#45;&gt;Node3</title>
<path fill="none" stroke="#9a32cd" stroke-dasharray="5,2" d="M202.7879,-157C222.3271,-157 244.708,-157 264.905,-157"/>
<polygon fill="#9a32cd" stroke="#9a32cd" points="202.5576,-153.5001 192.5576,-157 202.5575,-160.5001 202.5576,-153.5001"/>
<text text-anchor="middle" x="229.5" y="-160" font-family="Helvetica,sans-Serif" font-size="10.00" fill="#000000"> name</text>
</g>
<!-- Node5 -->
<g id="node5" class="node">
<title>Node5</title>
<g id="a_node5"><a xlink:href="hash_8c.html#structfr__hash__table__s" target="_top" xlink:title="fr_hash_table_s">
<polygon fill="none" stroke="#000000" points="281.5,-245.5 281.5,-264.5 367.5,-264.5 367.5,-245.5 281.5,-245.5"/>
<text text-anchor="middle" x="324.5" y="-252.5" font-family="Helvetica,sans-Serif" font-size="10.00" fill="#000000">fr_hash_table_s</text>
</a>
</g>
</g>
<!-- Node5&#45;&gt;Node2 -->
<g id="edge4" class="edge">
<title>Node5&#45;&gt;Node2</title>
<path fill="none" stroke="#9a32cd" stroke-dasharray="5,2" d="M372.638,-242.9923C420.3142,-231.0998 491.2038,-213.4169 526.8448,-204.5265"/>
<polygon fill="#9a32cd" stroke="#9a32cd" points="371.6934,-239.6206 362.8378,-245.4369 373.3877,-246.4125 371.6934,-239.6206"/>
<text text-anchor="middle" x="442" y="-271" font-family="Helvetica,sans-Serif" font-size="10.00" fill="#000000"> autoref</text>
<text text-anchor="middle" x="442" y="-260" font-family="Helvetica,sans-Serif" font-size="10.00" fill="#000000">vendors_by_num</text>
<text text-anchor="middle" x="442" y="-249" font-family="Helvetica,sans-Serif" font-size="10.00" fill="#000000">attributes_combo</text>
<text text-anchor="middle" x="442" y="-238" font-family="Helvetica,sans-Serif" font-size="10.00" fill="#000000">vendors_by_name</text>
</g>
<!-- Node5&#45;&gt;Node7 -->
<g id="edge8" class="edge">
<title>Node5&#45;&gt;Node7</title>
<path fill="none" stroke="#9a32cd" stroke-dasharray="5,2" d="M355.3314,-268.4735C369.3077,-273.9679 386.2089,-279.7767 402,-283 502.0189,-303.4161 623.0735,-301.7976 683.9796,-299.2144"/>
<polygon fill="#9a32cd" stroke="#9a32cd" points="356.311,-265.0936 345.7291,-264.5697 353.6746,-271.5782 356.311,-265.0936"/>
<text text-anchor="middle" x="549" y="-314" font-family="Helvetica,sans-Serif" font-size="10.00" fill="#000000"> protocol_by_num</text>
<text text-anchor="middle" x="549" y="-303" font-family="Helvetica,sans-Serif" font-size="10.00" fill="#000000">protocol_by_name</text>
</g>
<!-- Node6 -->
<g id="node6" class="node">
<title>Node6</title>
<g id="a_node6"><a xlink:href="hash_8c.html#structfr__hash__entry__s" target="_top" xlink:title="fr_hash_entry_s">
<polygon fill="none" stroke="#000000" points="108,-245.5 108,-264.5 194,-264.5 194,-245.5 108,-245.5"/>
<text text-anchor="middle" x="151" y="-252.5" font-family="Helvetica,sans-Serif" font-size="10.00" fill="#000000">fr_hash_entry_s</text>
</a>
</g>
</g>
<!-- Node6&#45;&gt;Node5 -->
<g id="edge5" class="edge">
<title>Node6&#45;&gt;Node5</title>
<path fill="none" stroke="#9a32cd" stroke-dasharray="5,2" d="M204.6233,-255C229.3002,-255 258.1856,-255 281.4182,-255"/>
<polygon fill="#9a32cd" stroke="#9a32cd" points="204.3339,-251.5001 194.3338,-255 204.3338,-258.5001 204.3339,-251.5001"/>
<text text-anchor="middle" x="229.5" y="-269" font-family="Helvetica,sans-Serif" font-size="10.00" fill="#000000"> null</text>
<text text-anchor="middle" x="229.5" y="-258" font-family="Helvetica,sans-Serif" font-size="10.00" fill="#000000">buckets</text>
</g>
<!-- Node6&#45;&gt;Node6 -->
<g id="edge6" class="edge">
<title>Node6&#45;&gt;Node6</title>
<path fill="none" stroke="#9a32cd" stroke-dasharray="5,2" d="M138.1091,-274.7663C139.1215,-279.4965 143.4185,-283 151,-283 163.4414,-283 167.0378,-273.5653 161.789,-264.7571"/>
<polygon fill="#9a32cd" stroke="#9a32cd" points="141.581,-275.2629 140.211,-264.7571 134.7305,-273.8243 141.581,-275.2629"/>
<text text-anchor="middle" x="151" y="-286" font-family="Helvetica,sans-Serif" font-size="10.00" fill="#000000"> next</text>
</g>
<!-- Node7&#45;&gt;Node2 -->
<g id="edge7" class="edge">
<title>Node7&#45;&gt;Node2</title>
<path fill="none" stroke="#9a32cd" stroke-dasharray="5,2" d="M702.9902,-281.1786C690.6807,-271.8153 674.3687,-260.0543 659,-251 629.6981,-233.7371 593.745,-217.6205 571.0962,-208.0362"/>
<polygon fill="#9a32cd" stroke="#9a32cd" points="701.1214,-284.1576 711.1753,-287.4997 705.4,-278.6173 701.1214,-284.1576"/>
<text text-anchor="middle" x="637.5" y="-254" font-family="Helvetica,sans-Serif" font-size="10.00" fill="#000000"> gctx</text>
</g>
<!-- Node8 -->
<g id="node8" class="node">
<title>Node8</title>
<g id="a_node8"><a xlink:href="dl_8c.html#structdl__loader__s" target="_top" xlink:title="A dynamic loader. ">
<polygon fill="none" stroke="#000000" points="118,-450.5 118,-469.5 184,-469.5 184,-450.5 118,-450.5"/>
<text text-anchor="middle" x="151" y="-457.5" font-family="Helvetica,sans-Serif" font-size="10.00" fill="#000000">dl_loader_s</text>
</a>
</g>
</g>
<!-- Node8&#45;&gt;Node7 -->
<g id="edge10" class="edge">
<title>Node8&#45;&gt;Node7</title>
<path fill="none" stroke="#9a32cd" stroke-dasharray="5,2" d="M181.817,-473.6905C258.0314,-505.3273 459.2238,-575.1196 598,-498 675.9458,-454.6846 711.5643,-340.3796 720.6077,-306.5576"/>
<polygon fill="#9a32cd" stroke="#9a32cd" points="182.8978,-470.3475 172.3242,-469.6767 180.1716,-476.7948 182.8978,-470.3475"/>
<text text-anchor="middle" x="442" y="-536" font-family="Helvetica,sans-Serif" font-size="10.00" fill="#000000"> dict_loader</text>
</g>
<!-- Node10 -->
<g id="node10" class="node">
<title>Node10</title>
<g id="a_node10"><a xlink:href="dl_8h.html#structdl__s" target="_top" xlink:title="Module handle. ">
<polygon fill="none" stroke="#000000" points="307,-374.5 307,-393.5 342,-393.5 342,-374.5 307,-374.5"/>
<text text-anchor="middle" x="324.5" y="-381.5" font-family="Helvetica,sans-Serif" font-size="10.00" fill="#000000">dl_s</text>
</a>
</g>
</g>
<!-- Node8&#45;&gt;Node10 -->
<g id="edge14" class="edge">
<title>Node8&#45;&gt;Node10</title>
<path fill="none" stroke="#9a32cd" stroke-dasharray="5,2" d="M168.0019,-443.3719C179.5463,-432.9467 195.6383,-420.0111 212,-412 243.4533,-396.5997 284.122,-389.1989 306.9482,-386.0378"/>
<polygon fill="#9a32cd" stroke="#9a32cd" points="165.3814,-441.0301 160.4606,-450.4129 170.1586,-446.1467 165.3814,-441.0301"/>
<text text-anchor="middle" x="229.5" y="-415" font-family="Helvetica,sans-Serif" font-size="10.00" fill="#000000"> loader</text>
</g>
<!-- Node9 -->
<g id="node9" class="node">
<title>Node9</title>
<g id="a_node9"><a xlink:href="dl_8c.html#structdl__symbol__init__s" target="_top" xlink:title="dl_symbol_init_s">
<polygon fill="none" stroke="#000000" points="504.5,-440.5 504.5,-459.5 593.5,-459.5 593.5,-440.5 504.5,-440.5"/>
<text text-anchor="middle" x="549" y="-447.5" font-family="Helvetica,sans-Serif" font-size="10.00" fill="#000000">dl_symbol_init_s</text>
</a>
</g>
</g>
<!-- Node9&#45;&gt;Node8 -->
<g id="edge11" class="edge">
<title>Node9&#45;&gt;Node8</title>
<path fill="none" stroke="#9a32cd" stroke-dasharray="5,2" d="M494.1018,-451.3794C410.2396,-453.4864 252.759,-457.4432 184.2487,-459.1646"/>
<polygon fill="#9a32cd" stroke="#9a32cd" points="494.2904,-454.8758 504.1993,-451.1256 494.1145,-447.878 494.2904,-454.8758"/>
<text text-anchor="middle" x="324.5" y="-460" font-family="Helvetica,sans-Serif" font-size="10.00" fill="#000000"> sym_init</text>
</g>
<!-- Node9&#45;&gt;Node9 -->
<g id="edge12" class="edge">
<title>Node9&#45;&gt;Node9</title>
<path fill="none" stroke="#9a32cd" stroke-dasharray="5,2" d="M532.7045,-469.4C533.7928,-474.3146 539.2246,-478 549,-478 564.6406,-478 569.1617,-468.5653 562.5634,-459.7571"/>
<polygon fill="#9a32cd" stroke="#9a32cd" points="536.078,-470.3325 535.4366,-459.7571 529.3431,-468.4242 536.078,-470.3325"/>
<text text-anchor="middle" x="549" y="-481" font-family="Helvetica,sans-Serif" font-size="10.00" fill="#000000"> next</text>
</g>
<!-- Node10&#45;&gt;Node2 -->
<g id="edge24" class="edge">
<title>Node10&#45;&gt;Node2</title>
<path fill="none" stroke="#9a32cd" stroke-dasharray="5,2" d="M351.3549,-370.3274C384.2628,-352.8102 440.7255,-320.2253 482,-283 508.0426,-259.5123 531.9687,-225.2204 542.8419,-208.6601"/>
<polygon fill="#9a32cd" stroke="#9a32cd" points="349.5613,-367.316 342.3354,-375.0644 352.8161,-373.5133 349.5613,-367.316"/>
<text text-anchor="middle" x="442" y="-343" font-family="Helvetica,sans-Serif" font-size="10.00" fill="#000000"> dl</text>
</g>
<!-- Node10&#45;&gt;Node9 -->
<g id="edge13" class="edge">
<title>Node10&#45;&gt;Node9</title>
<path fill="none" stroke="#9a32cd" stroke-dasharray="5,2" d="M351.826,-392.0335C393.3523,-404.2416 472.1944,-427.4202 516.5656,-440.4647"/>
<polygon fill="#9a32cd" stroke="#9a32cd" points="352.6973,-388.6416 342.1161,-389.1789 350.7229,-395.3574 352.6973,-388.6416"/>
<text text-anchor="middle" x="442" y="-431" font-family="Helvetica,sans-Serif" font-size="10.00" fill="#000000"> func</text>
</g>
<!-- Node11 -->
<g id="node11" class="node">
<title>Node11</title>
<g id="a_node11"><a xlink:href="dl_8c.html#structdl__symbol__free__s" target="_top" xlink:title="dl_symbol_free_s">
<polygon fill="none" stroke="#000000" points="502.5,-370.5 502.5,-389.5 595.5,-389.5 595.5,-370.5 502.5,-370.5"/>
<text text-anchor="middle" x="549" y="-377.5" font-family="Helvetica,sans-Serif" font-size="10.00" fill="#000000">dl_symbol_free_s</text>
</a>
</g>
</g>
<!-- Node10&#45;&gt;Node11 -->
<g id="edge17" class="edge">
<title>Node10&#45;&gt;Node11</title>
<path fill="none" stroke="#9a32cd" stroke-dasharray="5,2" d="M352.0463,-381.3471C366.8392,-380.0539 385.3976,-378.6417 402,-378 437.529,-376.6267 446.4484,-377.4695 482,-378 488.5161,-378.0972 495.3874,-378.2476 502.1468,-378.4233"/>
<polygon fill="#9a32cd" stroke="#9a32cd" points="351.6655,-377.8672 342.022,-382.255 352.297,-384.8387 351.6655,-377.8672"/>
<text text-anchor="middle" x="442" y="-381" font-family="Helvetica,sans-Serif" font-size="10.00" fill="#000000"> func</text>
</g>
<!-- Node11&#45;&gt;Node8 -->
<g id="edge15" class="edge">
<title>Node11&#45;&gt;Node8</title>
<path fill="none" stroke="#9a32cd" stroke-dasharray="5,2" d="M530.0723,-395.8064C517.3309,-405.4801 499.683,-417.099 482,-423 390.2668,-453.6124 360.9165,-426.6665 265,-439 237.6544,-442.5163 206.9284,-448.2833 184.2717,-452.885"/>
<polygon fill="#9a32cd" stroke="#9a32cd" points="532.3656,-398.4552 538.0495,-389.5141 528.0304,-392.9592 532.3656,-398.4552"/>
<text text-anchor="middle" x="324.5" y="-442" font-family="Helvetica,sans-Serif" font-size="10.00" fill="#000000"> sym_free</text>
</g>
<!-- Node11&#45;&gt;Node11 -->
<g id="edge16" class="edge">
<title>Node11&#45;&gt;Node11</title>
<path fill="none" stroke="#9a32cd" stroke-dasharray="5,2" d="M532.7045,-399.4C533.7928,-404.3146 539.2246,-408 549,-408 564.6406,-408 569.1617,-398.5653 562.5634,-389.7571"/>
<polygon fill="#9a32cd" stroke="#9a32cd" points="536.078,-400.3325 535.4366,-389.7571 529.3431,-398.4242 536.078,-400.3325"/>
<text text-anchor="middle" x="549" y="-411" font-family="Helvetica,sans-Serif" font-size="10.00" fill="#000000"> next</text>
</g>
<!-- Node12 -->
<g id="node12" class="node">
<title>Node12</title>
<g id="a_node12"><a xlink:href="rbmonkey_8c.html#structrbtree__s" target="_top" xlink:title="rbtree_s">
<polygon fill="none" stroke="#ff0000" points="0,-450.5 0,-469.5 52,-469.5 52,-450.5 0,-450.5"/>
<text text-anchor="middle" x="26" y="-457.5" font-family="Helvetica,sans-Serif" font-size="10.00" fill="#000000">rbtree_s</text>
</a>
</g>
</g>
<!-- Node12&#45;&gt;Node8 -->
<g id="edge18" class="edge">
<title>Node12&#45;&gt;Node8</title>
<path fill="none" stroke="#9a32cd" stroke-dasharray="5,2" d="M62.5704,-460C79.998,-460 100.6952,-460 117.6832,-460"/>
<polygon fill="#9a32cd" stroke="#9a32cd" points="62.2041,-456.5001 52.2041,-460 62.2041,-463.5001 62.2041,-456.5001"/>
<text text-anchor="middle" x="80" y="-463" font-family="Helvetica,sans-Serif" font-size="10.00" fill="#000000"> tree</text>
</g>
<!-- Node14&#45;&gt;Node2 -->
<g id="edge20" class="edge">
<title>Node14&#45;&gt;Node2</title>
<path fill="none" stroke="#9a32cd" stroke-dasharray="5,2" d="M681.8302,-32.9797C659.9774,-29.7106 633.9977,-30.2746 616,-45 586.1132,-69.4528 613.5019,-94.6326 598,-130 587.8551,-153.1453 569.223,-176.3368 558.088,-189.0643"/>
<polygon fill="#9a32cd" stroke="#9a32cd" points="681.3927,-36.4571 691.854,-34.7804 682.6304,-29.5674 681.3927,-36.4571"/>
<text text-anchor="middle" x="637.5" y="-59" font-family="Helvetica,sans-Serif" font-size="10.00" fill="#000000"> root</text>
<text text-anchor="middle" x="637.5" y="-48" font-family="Helvetica,sans-Serif" font-size="10.00" fill="#000000">fixups</text>
</g>
<!-- Node14&#45;&gt;Node14 -->
<g id="edge23" class="edge">
<title>Node14&#45;&gt;Node14</title>
<path fill="none" stroke="#9a32cd" stroke-dasharray="5,2" d="M707.5309,-63.7663C708.7459,-68.4965 713.9022,-72 723,-72 737.9297,-72 742.2453,-62.5653 735.9468,-53.7571"/>
<polygon fill="#9a32cd" stroke="#9a32cd" points="711.0034,-64.3092 710.0532,-53.7571 704.2156,-62.5986 711.0034,-64.3092"/>
<text text-anchor="middle" x="723" y="-97" font-family="Helvetica,sans-Serif" font-size="10.00" fill="#000000"> next</text>
<text text-anchor="middle" x="723" y="-86" font-family="Helvetica,sans-Serif" font-size="10.00" fill="#000000">fixup</text>
<text text-anchor="middle" x="723" y="-75" font-family="Helvetica,sans-Serif" font-size="10.00" fill="#000000">parent</text>
</g>
<!-- Node15 -->
<g id="node14" class="node">
<title>Node15</title>
<g id="a_node14"><a xlink:href="dict_8h.html#structfr__dict__attr__flags__t" target="_top" xlink:title="Values of the encryption flags. ">
<polygon fill="none" stroke="#000000" points="500,-.5 500,-19.5 598,-19.5 598,-.5 500,-.5"/>
<text text-anchor="middle" x="549" y="-7.5" font-family="Helvetica,sans-Serif" font-size="10.00" fill="#000000">fr_dict_attr_flags_t</text>
</a>
</g>
</g>
<!-- Node15&#45;&gt;Node14 -->
<g id="edge21" class="edge">
<title>Node15&#45;&gt;Node14</title>
<path fill="none" stroke="#9a32cd" stroke-dasharray="5,2" d="M608.2252,-5.5127C624.8498,-5.6033 642.8031,-6.992 659,-11 677.4455,-15.5644 696.5495,-26.3424 709.0272,-34.3462"/>
<polygon fill="#9a32cd" stroke="#9a32cd" points="608.0386,-2.0143 598.0734,-5.6123 608.1073,-9.014 608.0386,-2.0143"/>
<text text-anchor="middle" x="637.5" y="-14" font-family="Helvetica,sans-Serif" font-size="10.00" fill="#000000"> flags</text>
</g>
<!-- Node16&#45;&gt;Node2 -->
<g id="edge25" class="edge">
<title>Node16&#45;&gt;Node2</title>
<path fill="none" stroke="#9a32cd" stroke-dasharray="5,2" d="M666.748,-193.2838C664.1308,-193.5432 661.5383,-193.784 659,-194 628.7135,-196.5772 593.6152,-197.8818 571.3655,-198.5005"/>
<polygon fill="#9a32cd" stroke="#9a32cd" points="667.3282,-196.7419 676.9017,-192.2034 666.5874,-189.7812 667.3282,-196.7419"/>
<text text-anchor="middle" x="637.5" y="-199" font-family="Helvetica,sans-Serif" font-size="10.00" fill="#000000"> proto</text>
</g>
</g>
</svg>
        <g id="navigator" transform="translate(0 0)" fill="#404254">
                <rect fill="#f2f5e9" fill-opacity="0.5" stroke="#606060" stroke-width=".5" x="0" y="0" width="60" height="60"/>
                <use id="zoomplus" xlink:href="#zoomPlus" x="17" y="9" onmousedown="handleZoom(evt,'in')"/>
                <use id="zoomminus" xlink:href="#zoomMin" x="42" y="9" onmousedown="handleZoom(evt,'out')"/>
                <use id="reset" xlink:href="#resetDef" x="30" y="36" onmousedown="handleReset()"/>
                <g id="arrowUp" xlink:href="#dirArrow" transform="translate(30 24)" onmousedown="handlePan(0,-1)">
                  <use xlink:href="#rim" fill="#404040">
                        <set attributeName="fill" to="#808080" begin="arrowUp.mouseover" end="arrowUp.mouseout"/>
                  </use>
                  <path fill="none" stroke="white" stroke-width="1.5" d="M0,-3.0v7 M-2.5,-0.5L0,-3.0L2.5,-0.5"/>
                </g>
                <g id="arrowRight" xlink:href="#dirArrow" transform="rotate(90) translate(36 -43)" onmousedown="handlePan(1,0)">
                  <use xlink:href="#rim" fill="#404040">
                        <set attributeName="fill" to="#808080" begin="arrowRight.mouseover" end="arrowRight.mouseout"/>
                  </use>
                  <path fill="none" stroke="white" stroke-width="1.5" d="M0,-3.0v7 M-2.5,-0.5L0,-3.0L2.5,-0.5"/>
                </g>
                <g id="arrowDown" xlink:href="#dirArrow" transform="rotate(180) translate(-30 -48)" onmousedown="handlePan(0,1)">
                  <use xlink:href="#rim" fill="#404040">
                        <set attributeName="fill" to="#808080" begin="arrowDown.mouseover" end="arrowDown.mouseout"/>
                  </use>
                  <path fill="none" stroke="white" stroke-width="1.5" d="M0,-3.0v7 M-2.5,-0.5L0,-3.0L2.5,-0.5"/>
                </g>
                <g id="arrowLeft" xlink:href="#dirArrow" transform="rotate(270) translate(-36 17)" onmousedown="handlePan(-1,0)">
                  <use xlink:href="#rim" fill="#404040">
                        <set attributeName="fill" to="#808080" begin="arrowLeft.mouseover" end="arrowLeft.mouseout"/>
                  </use>
                  <path fill="none" stroke="white" stroke-width="1.5" d="M0,-3.0v7 M-2.5,-0.5L0,-3.0L2.5,-0.5"/>
                </g>
        </g>
        <svg viewBox="0 0 15 15" width="100%" height="30px" preserveAspectRatio="xMaxYMin meet">
         <g id="arrow_out" transform="scale(0.3 0.3)">
          <a xlink:href="structfr__dict__print__t__coll__graph_org.svg" target="_base">
           <rect id="button" ry="5" rx="5" y="6" x="6" height="38" width="38"
                fill="#f2f5e9" fill-opacity="0.5" stroke="#606060" stroke-width="1.0"/>
           <path id="arrow"
             d="M 11.500037,31.436501 C 11.940474,20.09759 22.043105,11.32322 32.158766,21.979434 L 37.068811,17.246167 C 37.068811,17.246167 37.088388,32 37.088388,32 L 22.160133,31.978069 C 22.160133,31.978069 26.997745,27.140456 26.997745,27.140456 C 18.528582,18.264221 13.291696,25.230495 11.500037,31.436501 z"
             style="fill:#404040;"/>
          </a>
         </g>
        </svg>
</svg>
