<?xml version="1.0" encoding="UTF-8" standalone="no"?>
<!DOCTYPE svg PUBLIC "-//W3C//DTD SVG 1.1//EN"
 "http://www.w3.org/Graphics/SVG/1.1/DTD/svg11.dtd">
<!-- Generated by graphviz version 2.40.1 (20161225.0304)
 -->
<!-- Title: listen_socket_t Pages: 1 -->
<!--zoomable 344 -->
<svg id="main" version="1.1" xmlns="http://www.w3.org/2000/svg" xmlns:xlink="http://www.w3.org/1999/xlink" xml:space="preserve" onload="init(evt)">
<style type="text/css"><![CDATA[
.edge:hover path { stroke: red; }
.edge:hover polygon { stroke: red; fill: red; }
]]></style>
<script type="text/javascript"><![CDATA[
var edges = document.getElementsByTagName('g');
if (edges && edges.length) {
  for (var i=0;i<edges.length;i++) {
    if (edges[i].id.substr(0,4)=='edge') {
      edges[i].setAttribute('class','edge');
    }
  }
}
]]></script>
        <defs>
                <circle id="rim" cx="0" cy="0" r="7"/>
                <circle id="rim2" cx="0" cy="0" r="3.5"/>
                <g id="zoomPlus">
                        <use xlink:href="#rim" fill="#404040">
                                <set attributeName="fill" to="#808080" begin="zoomplus.mouseover" end="zoomplus.mouseout"/>
                        </use>
                        <path d="M-4,0h8M0,-4v8" fill="none" stroke="white" stroke-width="1.5" pointer-events="none"/>
                </g>
                <g id="zoomMin">
                        <use xlink:href="#rim" fill="#404040">
                                <set attributeName="fill" to="#808080" begin="zoomminus.mouseover" end="zoomminus.mouseout"/>
                        </use>
                        <path d="M-4,0h8" fill="none" stroke="white" stroke-width="1.5" pointer-events="none"/>
                </g>
                <g id="dirArrow">
                        <path fill="none" stroke="white" stroke-width="1.5" d="M0,-3.0v7 M-2.5,-0.5L0,-3.0L2.5,-0.5"/>
                </g>
               <g id="resetDef">
                       <use xlink:href="#rim2" fill="#404040">
                               <set attributeName="fill" to="#808080" begin="reset.mouseover" end="reset.mouseout"/>
                       </use>
               </g>
        </defs>

<script type="text/javascript">
var viewWidth = 844;
var viewHeight = 344;
var sectionId = 'dynsection-1';
</script>
<script xlink:href="svgpan.js"/>
<svg id="graph" class="graph">
<g id="viewport">
<title>listen_socket_t</title>
<!-- Node1 -->
<g id="node1" class="node">
<title>Node1</title>
<polygon fill="#bfbfbf" stroke="#000000" points="327,-.5 327,-19.5 410,-19.5 410,-.5 327,-.5"/>
<text text-anchor="middle" x="368.5" y="-7.5" font-family="Helvetica,sans-Serif" font-size="10.00" fill="#000000">listen_socket_t</text>
</g>
<!-- Node1&#45;&gt;Node1 -->
<g id="edge1" class="edge">
<title>Node1&#45;&gt;Node1</title>
<path fill="none" stroke="#9a32cd" stroke-dasharray="5,2" d="M420.319,-14.7681C425.0342,-13.7769 428,-12.1875 428,-10 428,-6.5 420.4076,-4.5313 410.2052,-4.0938"/>
<polygon fill="#9a32cd" stroke="#9a32cd" points="419.751,-11.3098 410.2052,-15.9063 420.5339,-18.2659 419.751,-11.3098"/>
<text text-anchor="middle" x="443.5" y="-7.5" font-family="Helvetica,sans-Serif" font-size="10.00" fill="#000000"> parent</text>
</g>
<!-- Node2 -->
<g id="node2" class="node">
<title>Node2</title>
<g id="a_node2"><a xlink:href="server_2socket_8h.html#structfr__socket__limit__t" target="_top" xlink:title="fr_socket_limit_t">
<polygon fill="none" stroke="#000000" points="0,-147.5 0,-166.5 89,-166.5 89,-147.5 0,-147.5"/>
<text text-anchor="middle" x="44.5" y="-154.5" font-family="Helvetica,sans-Serif" font-size="10.00" fill="#000000">fr_socket_limit_t</text>
</a>
</g>
</g>
<!-- Node2&#45;&gt;Node1 -->
<g id="edge2" class="edge">
<title>Node2&#45;&gt;Node1</title>
<path fill="none" stroke="#9a32cd" stroke-dasharray="5,2" d="M57.0295,-139.0644C72.7594,-118.0669 101.8032,-84.0038 135.5,-67 197.9605,-35.4816 278.7863,-20.7833 326.9735,-14.4025"/>
<polygon fill="#9a32cd" stroke="#9a32cd" points="53.9972,-137.2833 50.949,-147.4301 59.6596,-141.3988 53.9972,-137.2833"/>
<text text-anchor="middle" x="146.5" y="-75.5" font-family="Helvetica,sans-Serif" font-size="10.00" fill="#000000"> limit</text>
</g>
<!-- Node22 -->
<g id="node10" class="node">
<title>Node22</title>
<g id="a_node10"><a xlink:href="client_8h.html#structrad__client" target="_top" xlink:title="Describes a host allowed to send packets to the server. ">
<polygon fill="none" stroke="#000000" points="167,-68.5 167,-87.5 226,-87.5 226,-68.5 167,-68.5"/>
<text text-anchor="middle" x="196.5" y="-75.5" font-family="Helvetica,sans-Serif" font-size="10.00" fill="#000000">rad_client</text>
</a>
</g>
</g>
<!-- Node2&#45;&gt;Node22 -->
<g id="edge21" class="edge">
<title>Node2&#45;&gt;Node22</title>
<path fill="none" stroke="#9a32cd" stroke-dasharray="5,2" d="M67.8416,-141.9587C84.4386,-131.55 107.4348,-117.7007 128.5,-107 142.5744,-99.8505 158.822,-92.8765 171.9054,-87.5599"/>
<polygon fill="#9a32cd" stroke="#9a32cd" points="65.9095,-139.0394 59.3323,-147.3455 69.6537,-144.9539 65.9095,-139.0394"/>
<text text-anchor="middle" x="139.5" y="-115.5" font-family="Helvetica,sans-Serif" font-size="10.00" fill="#000000"> limit</text>
</g>
<!-- Node3 -->
<g id="node3" class="node">
<title>Node3</title>
<g id="a_node3"><a xlink:href="inet_8h.html#structfr__ipaddr__t" target="_top" xlink:title="IPv4/6 prefix. ">
<polygon fill="none" stroke="#000000" points="321.5,-147.5 321.5,-166.5 383.5,-166.5 383.5,-147.5 321.5,-147.5"/>
<text text-anchor="middle" x="352.5" y="-154.5" font-family="Helvetica,sans-Serif" font-size="10.00" fill="#000000">fr_ipaddr_t</text>
</a>
</g>
</g>
<!-- Node3&#45;&gt;Node1 -->
<g id="edge3" class="edge">
<title>Node3&#45;&gt;Node1</title>
<path fill="none" stroke="#9a32cd" stroke-dasharray="5,2" d="M345.9325,-137.6435C340.6388,-119.2859 334.9195,-91.0174 340.5,-67 344.6422,-49.1729 355.1857,-30.4984 362.0871,-19.5713"/>
<polygon fill="#9a32cd" stroke="#9a32cd" points="342.6679,-138.9314 348.9901,-147.4333 349.3496,-136.8445 342.6679,-138.9314"/>
<text text-anchor="middle" x="369" y="-81" font-family="Helvetica,sans-Serif" font-size="10.00" fill="#000000"> other_ipaddr</text>
<text text-anchor="middle" x="369" y="-70" font-family="Helvetica,sans-Serif" font-size="10.00" fill="#000000">my_ipaddr</text>
</g>
<!-- Node3&#45;&gt;Node22 -->
<g id="edge22" class="edge">
<title>Node3&#45;&gt;Node22</title>
<path fill="none" stroke="#9a32cd" stroke-dasharray="5,2" d="M311.7109,-145.6005C293.5594,-140.1473 274.4961,-133.7819 266.5,-129 254.3597,-121.7397 254.6922,-115.6507 243.5,-107 234.2449,-99.8466 223.1369,-92.925 214.0438,-87.6389"/>
<polygon fill="#9a32cd" stroke="#9a32cd" points="310.7582,-148.9685 321.3397,-148.4379 312.7368,-142.254 310.7582,-148.9685"/>
<text text-anchor="middle" x="289.5" y="-121" font-family="Helvetica,sans-Serif" font-size="10.00" fill="#000000"> ipaddr</text>
<text text-anchor="middle" x="289.5" y="-110" font-family="Helvetica,sans-Serif" font-size="10.00" fill="#000000">src_ipaddr</text>
</g>
<!-- Node4 -->
<g id="node4" class="node">
<title>Node4</title>
<g id="a_node4"><a xlink:href="packet_8h.html#structfr__radius__packet__t" target="_top" xlink:title="fr_radius_packet_t">
<polygon fill="none" stroke="#000000" points="502,-68.5 502,-87.5 599,-87.5 599,-68.5 502,-68.5"/>
<text text-anchor="middle" x="550.5" y="-75.5" font-family="Helvetica,sans-Serif" font-size="10.00" fill="#000000">fr_radius_packet_t</text>
</a>
</g>
</g>
<!-- Node4&#45;&gt;Node1 -->
<g id="edge4" class="edge">
<title>Node4&#45;&gt;Node1</title>
<path fill="none" stroke="#9a32cd" stroke-dasharray="5,2" d="M525.1184,-63.2556C510.163,-55.0106 490.6681,-45.0138 472.5,-38 452.4397,-30.2557 429.4154,-23.8189 410.1381,-19.0776"/>
<polygon fill="#9a32cd" stroke="#9a32cd" points="523.798,-66.5281 534.2312,-68.3718 527.2249,-60.4243 523.798,-66.5281"/>
<text text-anchor="middle" x="514" y="-41" font-family="Helvetica,sans-Serif" font-size="10.00" fill="#000000"> packet</text>
</g>
<!-- Node5 -->
<g id="node5" class="node">
<title>Node5</title>
<g id="a_node5"><a xlink:href="util_2socket_8h.html#structfr__socket__t" target="_top" xlink:title="Holds information necessary for binding or connecting to a socket. ">
<polygon fill="none" stroke="#000000" points="518,-147.5 518,-166.5 583,-166.5 583,-147.5 518,-147.5"/>
<text text-anchor="middle" x="550.5" y="-154.5" font-family="Helvetica,sans-Serif" font-size="10.00" fill="#000000">fr_socket_t</text>
</a>
</g>
</g>
<!-- Node5&#45;&gt;Node4 -->
<g id="edge5" class="edge">
<title>Node5&#45;&gt;Node4</title>
<path fill="none" stroke="#9a32cd" stroke-dasharray="5,2" d="M550.5,-137.0339C550.5,-121.2875 550.5,-100.0062 550.5,-87.7662"/>
<polygon fill="#9a32cd" stroke="#9a32cd" points="547.0001,-137.313 550.5,-147.313 554.0001,-137.3131 547.0001,-137.313"/>
<text text-anchor="middle" x="567" y="-115.5" font-family="Helvetica,sans-Serif" font-size="10.00" fill="#000000"> socket</text>
</g>
<!-- Node6 -->
<g id="node6" class="node">
<title>Node6</title>
<g id="a_node6"><a xlink:href="util_2pair_8h.html#structvalue__pair__s" target="_top" xlink:title="Stores an attribute, a value and various bits of other data. ">
<polygon fill="none" stroke="#000000" points="601,-147.5 601,-166.5 672,-166.5 672,-147.5 601,-147.5"/>
<text text-anchor="middle" x="636.5" y="-154.5" font-family="Helvetica,sans-Serif" font-size="10.00" fill="#000000">value_pair_s</text>
</a>
</g>
</g>
<!-- Node6&#45;&gt;Node4 -->
<g id="edge6" class="edge">
<title>Node6&#45;&gt;Node4</title>
<path fill="none" stroke="#9a32cd" stroke-dasharray="5,2" d="M620.7209,-139.8111C611.3653,-129.9006 599.1027,-117.3863 587.5,-107 579.8379,-100.1411 570.755,-93.0088 563.506,-87.5337"/>
<polygon fill="#9a32cd" stroke="#9a32cd" points="618.4373,-142.4942 627.8176,-147.4197 623.5563,-137.7196 618.4373,-142.4942"/>
<text text-anchor="middle" x="620" y="-115.5" font-family="Helvetica,sans-Serif" font-size="10.00" fill="#000000"> vps</text>
</g>
<!-- Node6&#45;&gt;Node6 -->
<g id="edge7" class="edge">
<title>Node6&#45;&gt;Node6</title>
<path fill="none" stroke="#9a32cd" stroke-dasharray="5,2" d="M682.2805,-162.8745C686.9895,-161.7182 690,-159.76 690,-157 690,-152.584 682.2932,-150.2207 672.2532,-149.9102"/>
<polygon fill="#9a32cd" stroke="#9a32cd" points="681.7594,-159.4119 672.2532,-164.0898 682.6017,-166.3611 681.7594,-159.4119"/>
<text text-anchor="middle" x="701" y="-154.5" font-family="Helvetica,sans-Serif" font-size="10.00" fill="#000000"> next</text>
</g>
<!-- Node7 -->
<g id="node7" class="node">
<title>Node7</title>
<g id="a_node7"><a xlink:href="dict_8h.html#structdict__attr__s" target="_top" xlink:title="Dictionary attribute. ">
<polygon fill="none" stroke="#000000" points="671.5,-232 671.5,-251 733.5,-251 733.5,-232 671.5,-232"/>
<text text-anchor="middle" x="702.5" y="-239" font-family="Helvetica,sans-Serif" font-size="10.00" fill="#000000">dict_attr_s</text>
</a>
</g>
</g>
<!-- Node7&#45;&gt;Node6 -->
<g id="edge8" class="edge">
<title>Node7&#45;&gt;Node6</title>
<path fill="none" stroke="#9a32cd" stroke-dasharray="5,2" d="M688.4967,-223.5715C674.8982,-206.1613 654.7734,-180.3956 643.9827,-166.5802"/>
<polygon fill="#9a32cd" stroke="#9a32cd" points="686.015,-226.0803 694.929,-231.8068 691.5317,-221.7714 686.015,-226.0803"/>
<text text-anchor="middle" x="682.5" y="-193.5" font-family="Helvetica,sans-Serif" font-size="10.00" fill="#000000"> da</text>
</g>
<!-- Node7&#45;&gt;Node7 -->
<g id="edge13" class="edge">
<title>Node7&#45;&gt;Node7</title>
<path fill="none" stroke="#9a32cd" stroke-dasharray="5,2" d="M743.6528,-248.5286C748.4088,-247.2267 751.5,-244.8838 751.5,-241.5 751.5,-236.0859 743.5865,-233.3366 733.602,-233.252"/>
<polygon fill="#9a32cd" stroke="#9a32cd" points="743.1077,-245.069 733.602,-249.748 743.9508,-252.0181 743.1077,-245.069"/>
<text text-anchor="middle" x="765.5" y="-250" font-family="Helvetica,sans-Serif" font-size="10.00" fill="#000000"> next</text>
<text text-anchor="middle" x="765.5" y="-239" font-family="Helvetica,sans-Serif" font-size="10.00" fill="#000000">fixup</text>
<text text-anchor="middle" x="765.5" y="-228" font-family="Helvetica,sans-Serif" font-size="10.00" fill="#000000">parent</text>
</g>
<!-- Node9 -->
<g id="node9" class="node">
<title>Node9</title>
<g id="a_node9"><a xlink:href="dict__priv_8h.html#structfr__dict" target="_top" xlink:title="Vendors and attribute names. ">
<polygon fill="none" stroke="#ff0000" points="730.5,-147.5 730.5,-166.5 774.5,-166.5 774.5,-147.5 730.5,-147.5"/>
<text text-anchor="middle" x="752.5" y="-154.5" font-family="Helvetica,sans-Serif" font-size="10.00" fill="#000000">fr_dict</text>
</a>
</g>
</g>
<!-- Node7&#45;&gt;Node9 -->
<g id="edge12" class="edge">
<title>Node7&#45;&gt;Node9</title>
<path fill="none" stroke="#9a32cd" stroke-dasharray="5,2" d="M696.2644,-221.9518C693.7899,-210.4121 692.8911,-195.9659 699.5,-185 703.099,-179.0283 717.4516,-171.6366 730.314,-165.9476"/>
<polygon fill="#9a32cd" stroke="#9a32cd" points="692.9639,-223.1586 698.9261,-231.9166 699.7268,-221.3521 692.9639,-223.1586"/>
<text text-anchor="middle" x="713" y="-199" font-family="Helvetica,sans-Serif" font-size="10.00" fill="#000000"> root</text>
<text text-anchor="middle" x="713" y="-188" font-family="Helvetica,sans-Serif" font-size="10.00" fill="#000000">fixups</text>
</g>
<!-- Node8 -->
<g id="node8" class="node">
<title>Node8</title>
<g id="a_node8"><a xlink:href="dict_8h.html#structfr__dict__attr__flags__t" target="_top" xlink:title="Values of the encryption flags. ">
<polygon fill="none" stroke="#000000" points="653.5,-316.5 653.5,-335.5 751.5,-335.5 751.5,-316.5 653.5,-316.5"/>
<text text-anchor="middle" x="702.5" y="-323.5" font-family="Helvetica,sans-Serif" font-size="10.00" fill="#000000">fr_dict_attr_flags_t</text>
</a>
</g>
</g>
<!-- Node8&#45;&gt;Node7 -->
<g id="edge9" class="edge">
<title>Node8&#45;&gt;Node7</title>
<path fill="none" stroke="#9a32cd" stroke-dasharray="5,2" d="M702.5,-306.1221C702.5,-288.7864 702.5,-264.3886 702.5,-251.0802"/>
<polygon fill="#9a32cd" stroke="#9a32cd" points="699.0001,-306.3067 702.5,-316.3068 706.0001,-306.3068 699.0001,-306.3067"/>
<text text-anchor="middle" x="715" y="-284.5" font-family="Helvetica,sans-Serif" font-size="10.00" fill="#000000"> flags</text>
</g>
<!-- Node9&#45;&gt;Node7 -->
<g id="edge10" class="edge">
<title>Node9&#45;&gt;Node7</title>
<path fill="none" stroke="#9a32cd" stroke-dasharray="5,2" d="M745.5333,-176.0121C741.6729,-185.6089 736.452,-197.2514 730.5,-207 725.0331,-215.954 717.4725,-225.1312 711.5856,-231.7674"/>
<polygon fill="#9a32cd" stroke="#9a32cd" points="748.8349,-177.1778 749.1585,-166.5879 742.3015,-174.6647 748.8349,-177.1778"/>
<text text-anchor="middle" x="750" y="-193.5" font-family="Helvetica,sans-Serif" font-size="10.00" fill="#000000"> dict</text>
</g>
<!-- Node9&#45;&gt;Node9 -->
<g id="edge11" class="edge">
<title>Node9&#45;&gt;Node9</title>
<path fill="none" stroke="#9a32cd" stroke-dasharray="5,2" d="M784.9045,-163.3772C789.4533,-162.3368 792.5,-160.2111 792.5,-157 792.5,-151.7305 784.2952,-149.3839 774.7124,-149.9602"/>
<polygon fill="#9a32cd" stroke="#9a32cd" points="784.4642,-159.8983 774.7124,-164.0398 784.9184,-166.8836 784.4642,-159.8983"/>
<text text-anchor="middle" x="814" y="-154.5" font-family="Helvetica,sans-Serif" font-size="10.00" fill="#000000"> attr_valid</text>
</g>
<!-- Node22&#45;&gt;Node1 -->
<g id="edge14" class="edge">
<title>Node22&#45;&gt;Node1</title>
<path fill="none" stroke="#9a32cd" stroke-dasharray="5,2" d="M225.9018,-63.9204C243.0997,-55.9035 265.3305,-45.913 285.5,-38 302.63,-31.2794 322.1093,-24.6566 337.8902,-19.5405"/>
<polygon fill="#9a32cd" stroke="#9a32cd" points="223.9719,-60.9601 216.4111,-68.382 226.95,-67.295 223.9719,-60.9601"/>
<text text-anchor="middle" x="299" y="-41" font-family="Helvetica,sans-Serif" font-size="10.00" fill="#000000"> client</text>
</g>
<!-- Node23 -->
<g id="node11" class="node">
<title>Node23</title>
<g id="a_node11"><a xlink:href="cf__priv_8h.html#structcf__section" target="_top" xlink:title="A section grouping multiple CONF_PAIR. ">
<polygon fill="none" stroke="#000000" points="182.5,-147.5 182.5,-166.5 244.5,-166.5 244.5,-147.5 182.5,-147.5"/>
<text text-anchor="middle" x="213.5" y="-154.5" font-family="Helvetica,sans-Serif" font-size="10.00" fill="#000000">cf_section</text>
</a>
</g>
</g>
<!-- Node23&#45;&gt;Node22 -->
<g id="edge15" class="edge">
<title>Node23&#45;&gt;Node22</title>
<path fill="none" stroke="#9a32cd" stroke-dasharray="5,2" d="M201.3745,-138.7421C199.7931,-135.6051 198.4089,-132.2921 197.5,-129 193.6348,-115.0001 194.3115,-98.0072 195.2971,-87.6016"/>
<polygon fill="#9a32cd" stroke="#9a32cd" points="198.3756,-140.5476 206.4321,-147.4283 204.4249,-137.0253 198.3756,-140.5476"/>
<text text-anchor="middle" x="220.5" y="-121" font-family="Helvetica,sans-Serif" font-size="10.00" fill="#000000"> server_cs</text>
<text text-anchor="middle" x="220.5" y="-110" font-family="Helvetica,sans-Serif" font-size="10.00" fill="#000000">cs</text>
</g>
<!-- Node23&#45;&gt;Node23 -->
<g id="edge16" class="edge">
<title>Node23&#45;&gt;Node23</title>
<path fill="none" stroke="#9a32cd" stroke-dasharray="5,2" d="M254.6528,-163.0702C259.4088,-161.9458 262.5,-159.9224 262.5,-157 262.5,-152.3242 254.5865,-149.9498 244.602,-149.8767"/>
<polygon fill="#9a32cd" stroke="#9a32cd" points="254.1828,-159.6002 244.602,-164.1233 254.9123,-166.5621 254.1828,-159.6002"/>
<text text-anchor="middle" x="283" y="-154.5" font-family="Helvetica,sans-Serif" font-size="10.00" fill="#000000"> template</text>
</g>
<!-- Node24 -->
<g id="node12" class="node">
<title>Node24</title>
<g id="a_node12"><a xlink:href="cf__priv_8h.html#structcf__item" target="_top" xlink:title="Common header for all CONF_* types. ">
<polygon fill="none" stroke="#000000" points="242,-232 242,-251 291,-251 291,-232 242,-232"/>
<text text-anchor="middle" x="266.5" y="-239" font-family="Helvetica,sans-Serif" font-size="10.00" fill="#000000">cf_item</text>
</a>
</g>
</g>
<!-- Node24&#45;&gt;Node23 -->
<g id="edge17" class="edge">
<title>Node24&#45;&gt;Node23</title>
<path fill="none" stroke="#9a32cd" stroke-dasharray="5,2" d="M254.9531,-223.0903C244.039,-205.6896 228.0946,-180.2688 219.5089,-166.5802"/>
<polygon fill="#9a32cd" stroke="#9a32cd" points="252.1416,-225.195 260.4202,-231.8068 258.0717,-221.4755 252.1416,-225.195"/>
<text text-anchor="middle" x="256.5" y="-193.5" font-family="Helvetica,sans-Serif" font-size="10.00" fill="#000000"> item</text>
</g>
<!-- Node24&#45;&gt;Node24 -->
<g id="edge19" class="edge">
<title>Node24&#45;&gt;Node24</title>
<path fill="none" stroke="#9a32cd" stroke-dasharray="5,2" d="M301.5338,-248.7247C306.0306,-247.4693 309,-245.061 309,-241.5 309,-235.6563 301.0036,-232.917 291.3829,-233.2822"/>
<polygon fill="#9a32cd" stroke="#9a32cd" points="300.9945,-245.2606 291.3829,-249.7178 301.6762,-252.2274 300.9945,-245.2606"/>
<text text-anchor="middle" x="323" y="-250" font-family="Helvetica,sans-Serif" font-size="10.00" fill="#000000"> next</text>
<text text-anchor="middle" x="323" y="-239" font-family="Helvetica,sans-Serif" font-size="10.00" fill="#000000">child</text>
<text text-anchor="middle" x="323" y="-228" font-family="Helvetica,sans-Serif" font-size="10.00" fill="#000000">parent</text>
</g>
<!-- Node25 -->
<g id="node13" class="node">
<title>Node25</title>
<g id="a_node13"><a xlink:href="cursor_8h.html#structfr__cursor__t" target="_top" xlink:title="fr_cursor_t">
<polygon fill="none" stroke="#000000" points="235,-316.5 235,-335.5 298,-335.5 298,-316.5 235,-316.5"/>
<text text-anchor="middle" x="266.5" y="-323.5" font-family="Helvetica,sans-Serif" font-size="10.00" fill="#000000">fr_cursor_t</text>
</a>
</g>
</g>
<!-- Node25&#45;&gt;Node24 -->
<g id="edge18" class="edge">
<title>Node25&#45;&gt;Node24</title>
<path fill="none" stroke="#9a32cd" stroke-dasharray="5,2" d="M266.5,-306.1221C266.5,-288.7864 266.5,-264.3886 266.5,-251.0802"/>
<polygon fill="#9a32cd" stroke="#9a32cd" points="263.0001,-306.3067 266.5,-316.3068 270.0001,-306.3068 263.0001,-306.3067"/>
<text text-anchor="middle" x="282" y="-284.5" font-family="Helvetica,sans-Serif" font-size="10.00" fill="#000000"> cursor</text>
</g>
<!-- Node19 -->
<g id="node14" class="node">
<title>Node19</title>
<g id="a_node14"><a xlink:href="rbmonkey_8c.html#structrbtree__s" target="_top" xlink:title="rbtree_s">
<polygon fill="none" stroke="#ff0000" points="378.5,-316.5 378.5,-335.5 430.5,-335.5 430.5,-316.5 378.5,-316.5"/>
<text text-anchor="middle" x="404.5" y="-323.5" font-family="Helvetica,sans-Serif" font-size="10.00" fill="#000000">rbtree_s</text>
</a>
</g>
</g>
<!-- Node19&#45;&gt;Node1 -->
<g id="edge26" class="edge">
<title>Node19&#45;&gt;Node1</title>
<path fill="none" stroke="#9a32cd" stroke-dasharray="5,2" d="M423.1783,-309.4257C438.7838,-293.6682 458.5,-268.4309 458.5,-241.5 458.5,-241.5 458.5,-241.5 458.5,-78 458.5,-47.9394 426.1422,-29.4799 400.2306,-19.517"/>
<polygon fill="#9a32cd" stroke="#9a32cd" points="420.7402,-306.9144 415.952,-316.3656 425.5889,-311.9632 420.7402,-306.9144"/>
<text text-anchor="middle" x="479" y="-154.5" font-family="Helvetica,sans-Serif" font-size="10.00" fill="#000000"> dup_tree</text>
</g>
<!-- Node19&#45;&gt;Node24 -->
<g id="edge20" class="edge">
<title>Node19&#45;&gt;Node24</title>
<path fill="none" stroke="#9a32cd" stroke-dasharray="5,2" d="M376.6381,-311.5754C368.7558,-307.3392 360.2226,-302.604 352.5,-298 326.4144,-282.4484 297.0495,-262.636 280.2639,-251.0795"/>
<polygon fill="#9a32cd" stroke="#9a32cd" points="375.031,-314.6848 385.5048,-316.2815 378.3127,-308.5018 375.031,-314.6848"/>
<text text-anchor="middle" x="367.5" y="-290" font-family="Helvetica,sans-Serif" font-size="10.00" fill="#000000"> ident1</text>
<text text-anchor="middle" x="367.5" y="-279" font-family="Helvetica,sans-Serif" font-size="10.00" fill="#000000">ident2</text>
</g>
<!-- Node27 -->
<g id="node16" class="node">
<title>Node27</title>
<g id="a_node16"><a xlink:href="src_2lib_2server_2client_8c.html#structrad__client__list" target="_top" xlink:title="Group of clients. ">
<polygon fill="none" stroke="#000000" points="366,-186.5 366,-205.5 443,-205.5 443,-186.5 366,-186.5"/>
<text text-anchor="middle" x="404.5" y="-193.5" font-family="Helvetica,sans-Serif" font-size="10.00" fill="#000000">rad_client_list</text>
</a>
</g>
</g>
<!-- Node19&#45;&gt;Node27 -->
<g id="edge25" class="edge">
<title>Node19&#45;&gt;Node27</title>
<path fill="none" stroke="#9a32cd" stroke-dasharray="5,2" d="M404.5,-305.8845C404.5,-277.4398 404.5,-226.5851 404.5,-205.5312"/>
<polygon fill="#9a32cd" stroke="#9a32cd" points="401.0001,-306.2288 404.5,-316.2289 408.0001,-306.2289 401.0001,-306.2288"/>
<text text-anchor="middle" x="414.5" y="-284.5" font-family="Helvetica,sans-Serif" font-size="10.00" fill="#000000"> tree</text>
</g>
<!-- Node26 -->
<g id="node15" class="node">
<title>Node26</title>
<g id="a_node15"><a xlink:href="stats_8h.html#structfr__stats__t" target="_top" xlink:title="fr_stats_t">
<polygon fill="none" stroke="#000000" points="106.5,-147.5 106.5,-166.5 164.5,-166.5 164.5,-147.5 106.5,-147.5"/>
<text text-anchor="middle" x="135.5" y="-154.5" font-family="Helvetica,sans-Serif" font-size="10.00" fill="#000000">fr_stats_t</text>
</a>
</g>
</g>
<!-- Node26&#45;&gt;Node22 -->
<g id="edge23" class="edge">
<title>Node26&#45;&gt;Node22</title>
<path fill="none" stroke="#9a32cd" stroke-dasharray="5,2" d="M146.7784,-139.0102C153.1137,-129.2785 161.3633,-117.198 169.5,-107 174.9058,-100.2247 181.5309,-93.0936 186.8656,-87.5983"/>
<polygon fill="#9a32cd" stroke="#9a32cd" points="143.7988,-137.1731 141.3572,-147.4828 149.695,-140.9459 143.7988,-137.1731"/>
<text text-anchor="middle" x="180.5" y="-121" font-family="Helvetica,sans-Serif" font-size="10.00" fill="#000000"> acct</text>
<text text-anchor="middle" x="180.5" y="-110" font-family="Helvetica,sans-Serif" font-size="10.00" fill="#000000">auth</text>
</g>
<!-- Node27&#45;&gt;Node1 -->
<g id="edge24" class="edge">
<title>Node27&#45;&gt;Node1</title>
<path fill="none" stroke="#9a32cd" stroke-dasharray="5,2" d="M405.9343,-176.1244C407.2222,-150.4423 407.5916,-104.5681 397.5,-67 392.7186,-49.2001 381.9444,-30.5176 374.9598,-19.5814"/>
<polygon fill="#9a32cd" stroke="#9a32cd" points="402.4229,-176.2079 405.3122,-186.4011 409.4102,-176.6309 402.4229,-176.2079"/>
<text text-anchor="middle" x="422.5" y="-115.5" font-family="Helvetica,sans-Serif" font-size="10.00" fill="#000000"> clients</text>
</g>
</g>
</svg>
        <g id="navigator" transform="translate(0 0)" fill="#404254">
                <rect fill="#f2f5e9" fill-opacity="0.5" stroke="#606060" stroke-width=".5" x="0" y="0" width="60" height="60"/>
                <use id="zoomplus" xlink:href="#zoomPlus" x="17" y="9" onmousedown="handleZoom(evt,'in')"/>
                <use id="zoomminus" xlink:href="#zoomMin" x="42" y="9" onmousedown="handleZoom(evt,'out')"/>
                <use id="reset" xlink:href="#resetDef" x="30" y="36" onmousedown="handleReset()"/>
                <g id="arrowUp" xlink:href="#dirArrow" transform="translate(30 24)" onmousedown="handlePan(0,-1)">
                  <use xlink:href="#rim" fill="#404040">
                        <set attributeName="fill" to="#808080" begin="arrowUp.mouseover" end="arrowUp.mouseout"/>
                  </use>
                  <path fill="none" stroke="white" stroke-width="1.5" d="M0,-3.0v7 M-2.5,-0.5L0,-3.0L2.5,-0.5"/>
                </g>
                <g id="arrowRight" xlink:href="#dirArrow" transform="rotate(90) translate(36 -43)" onmousedown="handlePan(1,0)">
                  <use xlink:href="#rim" fill="#404040">
                        <set attributeName="fill" to="#808080" begin="arrowRight.mouseover" end="arrowRight.mouseout"/>
                  </use>
                  <path fill="none" stroke="white" stroke-width="1.5" d="M0,-3.0v7 M-2.5,-0.5L0,-3.0L2.5,-0.5"/>
                </g>
                <g id="arrowDown" xlink:href="#dirArrow" transform="rotate(180) translate(-30 -48)" onmousedown="handlePan(0,1)">
                  <use xlink:href="#rim" fill="#404040">
                        <set attributeName="fill" to="#808080" begin="arrowDown.mouseover" end="arrowDown.mouseout"/>
                  </use>
                  <path fill="none" stroke="white" stroke-width="1.5" d="M0,-3.0v7 M-2.5,-0.5L0,-3.0L2.5,-0.5"/>
                </g>
                <g id="arrowLeft" xlink:href="#dirArrow" transform="rotate(270) translate(-36 17)" onmousedown="handlePan(-1,0)">
                  <use xlink:href="#rim" fill="#404040">
                        <set attributeName="fill" to="#808080" begin="arrowLeft.mouseover" end="arrowLeft.mouseout"/>
                  </use>
                  <path fill="none" stroke="white" stroke-width="1.5" d="M0,-3.0v7 M-2.5,-0.5L0,-3.0L2.5,-0.5"/>
                </g>
        </g>
        <svg viewBox="0 0 15 15" width="100%" height="30px" preserveAspectRatio="xMaxYMin meet">
         <g id="arrow_out" transform="scale(0.3 0.3)">
          <a xlink:href="structlisten__socket__t__coll__graph_org.svg" target="_base">
           <rect id="button" ry="5" rx="5" y="6" x="6" height="38" width="38"
                fill="#f2f5e9" fill-opacity="0.5" stroke="#606060" stroke-width="1.0"/>
           <path id="arrow"
             d="M 11.500037,31.436501 C 11.940474,20.09759 22.043105,11.32322 32.158766,21.979434 L 37.068811,17.246167 C 37.068811,17.246167 37.088388,32 37.088388,32 L 22.160133,31.978069 C 22.160133,31.978069 26.997745,27.140456 26.997745,27.140456 C 18.528582,18.264221 13.291696,25.230495 11.500037,31.436501 z"
             style="fill:#404040;"/>
          </a>
         </g>
        </svg>
</svg>
