<?xml version="1.0" encoding="UTF-8" standalone="no"?>
<!DOCTYPE svg PUBLIC "-//W3C//DTD SVG 1.1//EN"
 "http://www.w3.org/Graphics/SVG/1.1/DTD/svg11.dtd">
<!-- Generated by graphviz version 2.40.1 (20161225.0304)
 -->
<!-- Title: fr_trigger_t Pages: 1 -->
<svg width="1364pt" height="436pt"
 viewBox="0.00 0.00 1364.00 436.00" xmlns="http://www.w3.org/2000/svg" xmlns:xlink="http://www.w3.org/1999/xlink">
<g id="graph0" class="graph" transform="scale(1 1) rotate(0) translate(4 432)">
<title>fr_trigger_t</title>
<!-- Node1 -->
<g id="node1" class="node">
<title>Node1</title>
<polygon fill="#bfbfbf" stroke="#000000" points="996.5,-335.5 996.5,-354.5 1059.5,-354.5 1059.5,-335.5 996.5,-335.5"/>
<text text-anchor="middle" x="1028" y="-342.5" font-family="Helvetica,sans-Serif" font-size="10.00" fill="#000000">fr_trigger_t</text>
</g>
<!-- Node2 -->
<g id="node2" class="node">
<title>Node2</title>
<g id="a_node2"><a xlink:href="value_8h.html#structvalue__box__s" target="_top" xlink:title="Union containing all data types supported by the server. ">
<polygon fill="none" stroke="#000000" points="501,-379.5 501,-398.5 572,-398.5 572,-379.5 501,-379.5"/>
<text text-anchor="middle" x="536.5" y="-386.5" font-family="Helvetica,sans-Serif" font-size="10.00" fill="#000000">value_box_s</text>
</a>
</g>
</g>
<!-- Node2&#45;&gt;Node1 -->
<g id="edge1" class="edge">
<title>Node2&#45;&gt;Node1</title>
<path fill="none" stroke="#9a32cd" stroke-dasharray="5,2" d="M582.2892,-390.2079C617.8085,-391.0413 668.2752,-392 712.5,-392 712.5,-392 712.5,-392 897.5,-392 941.3271,-392 988.7964,-368.2447 1012.5776,-354.5112"/>
<polygon fill="#9a32cd" stroke="#9a32cd" points="582.3093,-386.7074 572.2279,-389.9657 582.1408,-393.7054 582.3093,-386.7074"/>
<text text-anchor="middle" x="776.5" y="-395" font-family="Helvetica,sans-Serif" font-size="10.00" fill="#000000"> box</text>
</g>
<!-- Node2&#45;&gt;Node2 -->
<g id="edge2" class="edge">
<title>Node2&#45;&gt;Node2</title>
<path fill="none" stroke="#9a32cd" stroke-dasharray="5,2" d="M519.4638,-408.4C520.6015,-413.3146 526.2803,-417 536.5,-417 552.8516,-417 557.5782,-407.5653 550.6799,-398.7571"/>
<polygon fill="#9a32cd" stroke="#9a32cd" points="522.8358,-409.3393 522.3201,-398.7571 516.1241,-407.3512 522.8358,-409.3393"/>
<text text-anchor="middle" x="536.5" y="-420" font-family="Helvetica,sans-Serif" font-size="10.00" fill="#000000"> next</text>
</g>
<!-- Node3 -->
<g id="node3" class="node">
<title>Node3</title>
<g id="a_node3"><a xlink:href="dict_8h.html#structdict__attr__s" target="_top" xlink:title="Dictionary attribute. ">
<polygon fill="none" stroke="#000000" points="187.5,-265.5 187.5,-284.5 249.5,-284.5 249.5,-265.5 187.5,-265.5"/>
<text text-anchor="middle" x="218.5" y="-272.5" font-family="Helvetica,sans-Serif" font-size="10.00" fill="#000000">dict_attr_s</text>
</a>
</g>
</g>
<!-- Node3&#45;&gt;Node2 -->
<g id="edge3" class="edge">
<title>Node3&#45;&gt;Node2</title>
<path fill="none" stroke="#9a32cd" stroke-dasharray="5,2" d="M243.2359,-289.6915C258.2655,-298.3734 277.9716,-309.3281 296,-318 342.3374,-340.2889 353.7995,-347.0579 403,-362 435.5813,-371.8949 473.7489,-379.201 500.9093,-383.6999"/>
<polygon fill="#9a32cd" stroke="#9a32cd" points="244.9408,-286.634 234.5391,-284.6202 241.4146,-292.6811 244.9408,-286.634"/>
<text text-anchor="middle" x="340.5" y="-359" font-family="Helvetica,sans-Serif" font-size="10.00" fill="#000000"> enumv</text>
</g>
<!-- Node3&#45;&gt;Node3 -->
<g id="edge17" class="edge">
<title>Node3&#45;&gt;Node3</title>
<path fill="none" stroke="#9a32cd" stroke-dasharray="5,2" d="M201.8341,-294.4C202.9472,-299.3146 208.5024,-303 218.5,-303 234.4961,-303 239.12,-293.5653 232.3716,-284.7571"/>
<polygon fill="#9a32cd" stroke="#9a32cd" points="205.2068,-295.3361 204.6284,-284.7571 198.4834,-293.3878 205.2068,-295.3361"/>
<text text-anchor="middle" x="218.5" y="-328" font-family="Helvetica,sans-Serif" font-size="10.00" fill="#000000"> next</text>
<text text-anchor="middle" x="218.5" y="-317" font-family="Helvetica,sans-Serif" font-size="10.00" fill="#000000">fixup</text>
<text text-anchor="middle" x="218.5" y="-306" font-family="Helvetica,sans-Serif" font-size="10.00" fill="#000000">parent</text>
</g>
<!-- Node5 -->
<g id="node5" class="node">
<title>Node5</title>
<g id="a_node5"><a xlink:href="dict__priv_8h.html#structfr__dict" target="_top" xlink:title="Vendors and attribute names. ">
<polygon fill="none" stroke="#000000" points="421,-150.5 421,-169.5 465,-169.5 465,-150.5 421,-150.5"/>
<text text-anchor="middle" x="443" y="-157.5" font-family="Helvetica,sans-Serif" font-size="10.00" fill="#000000">fr_dict</text>
</a>
</g>
</g>
<!-- Node3&#45;&gt;Node5 -->
<g id="edge12" class="edge">
<title>Node3&#45;&gt;Node5</title>
<path fill="none" stroke="#9a32cd" stroke-dasharray="5,2" d="M245.5917,-260.9357C260.2444,-253.7095 278.814,-245.1544 296,-239 334.4632,-225.2261 349.3515,-235.9579 385,-216 406.251,-204.1026 425.4085,-182.5076 435.5009,-169.894"/>
<polygon fill="#9a32cd" stroke="#9a32cd" points="243.9523,-257.8423 236.5823,-265.4538 247.0903,-264.0996 243.9523,-257.8423"/>
<text text-anchor="middle" x="340.5" y="-253" font-family="Helvetica,sans-Serif" font-size="10.00" fill="#000000"> root</text>
<text text-anchor="middle" x="340.5" y="-242" font-family="Helvetica,sans-Serif" font-size="10.00" fill="#000000">fixups</text>
</g>
<!-- Node18 -->
<g id="node11" class="node">
<title>Node18</title>
<g id="a_node11"><a xlink:href="util_2pair_8h.html#structvalue__pair__s" target="_top" xlink:title="Stores an attribute, a value and various bits of other data. ">
<polygon fill="none" stroke="#000000" points="407.5,-304.5 407.5,-323.5 478.5,-323.5 478.5,-304.5 407.5,-304.5"/>
<text text-anchor="middle" x="443" y="-311.5" font-family="Helvetica,sans-Serif" font-size="10.00" fill="#000000">value_pair_s</text>
</a>
</g>
</g>
<!-- Node3&#45;&gt;Node18 -->
<g id="edge20" class="edge">
<title>Node3&#45;&gt;Node18</title>
<path fill="none" stroke="#9a32cd" stroke-dasharray="5,2" d="M259.7529,-282.5332C271.4635,-284.6497 284.2299,-286.9361 296,-289 333.9924,-295.662 377.557,-303.0381 407.3372,-308.0401"/>
<polygon fill="#9a32cd" stroke="#9a32cd" points="260.249,-279.0662 249.7852,-280.7269 259.0008,-285.954 260.249,-279.0662"/>
<text text-anchor="middle" x="340.5" y="-306" font-family="Helvetica,sans-Serif" font-size="10.00" fill="#000000"> da</text>
</g>
<!-- Node74 -->
<g id="node20" class="node">
<title>Node74</title>
<g id="a_node20"><a xlink:href="server_2tmpl_8h.html#structtmpl__rules__s" target="_top" xlink:title="Optional arguments passed to vp_tmpl functions. ">
<polygon fill="none" stroke="#000000" points="600,-185.5 600,-204.5 672,-204.5 672,-185.5 600,-185.5"/>
<text text-anchor="middle" x="636" y="-192.5" font-family="Helvetica,sans-Serif" font-size="10.00" fill="#000000">tmpl_rules_s</text>
</a>
</g>
</g>
<!-- Node3&#45;&gt;Node74 -->
<g id="edge39" class="edge">
<title>Node3&#45;&gt;Node74</title>
<path fill="none" stroke="#9a32cd" stroke-dasharray="5,2" d="M260.056,-275.9917C341.0464,-277.363 516.9062,-277.4267 572,-254 597.0328,-243.3557 618.5038,-218.5112 629.046,-204.698"/>
<polygon fill="#9a32cd" stroke="#9a32cd" points="259.8033,-272.4866 249.7403,-275.8011 259.6739,-279.4854 259.8033,-272.4866"/>
<text text-anchor="middle" x="443" y="-278" font-family="Helvetica,sans-Serif" font-size="10.00" fill="#000000"> attr_parent</text>
</g>
<!-- Node4 -->
<g id="node4" class="node">
<title>Node4</title>
<g id="a_node4"><a xlink:href="dict_8h.html#structfr__dict__attr__flags__t" target="_top" xlink:title="Values of the encryption flags. ">
<polygon fill="none" stroke="#000000" points="0,-265.5 0,-284.5 98,-284.5 98,-265.5 0,-265.5"/>
<text text-anchor="middle" x="49" y="-272.5" font-family="Helvetica,sans-Serif" font-size="10.00" fill="#000000">fr_dict_attr_flags_t</text>
</a>
</g>
</g>
<!-- Node4&#45;&gt;Node3 -->
<g id="edge4" class="edge">
<title>Node4&#45;&gt;Node3</title>
<path fill="none" stroke="#9a32cd" stroke-dasharray="5,2" d="M108.0634,-275C134.799,-275 165.301,-275 187.465,-275"/>
<polygon fill="#9a32cd" stroke="#9a32cd" points="108.0265,-271.5001 98.0264,-275 108.0264,-278.5001 108.0265,-271.5001"/>
<text text-anchor="middle" x="128.5" y="-278" font-family="Helvetica,sans-Serif" font-size="10.00" fill="#000000"> flags</text>
</g>
<!-- Node5&#45;&gt;Node3 -->
<g id="edge5" class="edge">
<title>Node5&#45;&gt;Node3</title>
<path fill="none" stroke="#9a32cd" stroke-dasharray="5,2" d="M411.2829,-172.0277C402.7938,-175.0974 393.589,-178.2923 385,-181 345.9271,-193.3179 331.973,-185.3947 296,-205 266.7073,-220.9645 239.4863,-250.1421 226.4915,-265.2917"/>
<polygon fill="#9a32cd" stroke="#9a32cd" points="412.6594,-175.2509 420.84,-168.5182 410.2464,-168.6799 412.6594,-175.2509"/>
<text text-anchor="middle" x="340.5" y="-208" font-family="Helvetica,sans-Serif" font-size="10.00" fill="#000000"> dict</text>
</g>
<!-- Node5&#45;&gt;Node5 -->
<g id="edge11" class="edge">
<title>Node5&#45;&gt;Node5</title>
<path fill="none" stroke="#9a32cd" stroke-dasharray="5,2" d="M425.9638,-179.4C427.1015,-184.3146 432.7803,-188 443,-188 459.3516,-188 464.0782,-178.5653 457.1799,-169.7571"/>
<polygon fill="#9a32cd" stroke="#9a32cd" points="429.3358,-180.3393 428.8201,-169.7571 422.6241,-178.3512 429.3358,-180.3393"/>
<text text-anchor="middle" x="443" y="-191" font-family="Helvetica,sans-Serif" font-size="10.00" fill="#000000"> attr_valid</text>
</g>
<!-- Node10 -->
<g id="node8" class="node">
<title>Node10</title>
<g id="a_node8"><a xlink:href="dict__priv_8h.html#structfr__dict__gctx__s" target="_top" xlink:title="fr_dict_gctx_s">
<polygon fill="none" stroke="#ff0000" points="597,-116.5 597,-135.5 675,-135.5 675,-116.5 597,-116.5"/>
<text text-anchor="middle" x="636" y="-123.5" font-family="Helvetica,sans-Serif" font-size="10.00" fill="#000000">fr_dict_gctx_s</text>
</a>
</g>
</g>
<!-- Node5&#45;&gt;Node10 -->
<g id="edge10" class="edge">
<title>Node5&#45;&gt;Node10</title>
<path fill="none" stroke="#9a32cd" stroke-dasharray="5,2" d="M475.4834,-154.612C501.5844,-150.246 539.1752,-143.8759 572,-138 580.0121,-136.5658 588.5798,-134.9891 596.757,-133.4635"/>
<polygon fill="#9a32cd" stroke="#9a32cd" points="474.6793,-151.1977 465.3917,-156.2959 475.8314,-158.1022 474.6793,-151.1977"/>
<text text-anchor="middle" x="536.5" y="-154" font-family="Helvetica,sans-Serif" font-size="10.00" fill="#000000"> internal</text>
</g>
<!-- Node17 -->
<g id="node10" class="node">
<title>Node17</title>
<g id="a_node10"><a xlink:href="dict_8h.html#structfr__dict__protocol__t" target="_top" xlink:title="Protocol&#45;specific callbacks in libfreeradius&#45;PROTOCOL. ">
<polygon fill="none" stroke="#000000" points="590,-23.5 590,-42.5 682,-42.5 682,-23.5 590,-23.5"/>
<text text-anchor="middle" x="636" y="-30.5" font-family="Helvetica,sans-Serif" font-size="10.00" fill="#000000">fr_dict_protocol_t</text>
</a>
</g>
</g>
<!-- Node5&#45;&gt;Node17 -->
<g id="edge16" class="edge">
<title>Node5&#45;&gt;Node17</title>
<path fill="none" stroke="#9a32cd" stroke-dasharray="5,2" d="M458.5627,-142.7244C469.6315,-131.1004 485.2721,-115.9557 501,-105 529.868,-84.8911 540.9764,-86.591 572,-70 588.6368,-61.1028 607.2698,-50.2236 620.1209,-42.5722"/>
<polygon fill="#9a32cd" stroke="#9a32cd" points="455.9357,-140.4097 451.6851,-150.1146 461.0599,-145.1786 455.9357,-140.4097"/>
<text text-anchor="middle" x="536.5" y="-108" font-family="Helvetica,sans-Serif" font-size="10.00" fill="#000000"> attr_valid</text>
</g>
<!-- Node23 -->
<g id="node16" class="node">
<title>Node23</title>
<g id="a_node16"><a xlink:href="request_8h.html#structrequest__s" target="_top" xlink:title="request_s">
<polygon fill="none" stroke="#ff0000" points="606.5,-268.5 606.5,-287.5 665.5,-287.5 665.5,-268.5 606.5,-268.5"/>
<text text-anchor="middle" x="636" y="-275.5" font-family="Helvetica,sans-Serif" font-size="10.00" fill="#000000">request_s</text>
</a>
</g>
</g>
<!-- Node5&#45;&gt;Node23 -->
<g id="edge29" class="edge">
<title>Node5&#45;&gt;Node23</title>
<path fill="none" stroke="#9a32cd" stroke-dasharray="5,2" d="M466.3529,-175.1031C476.8949,-181.8678 489.531,-189.9029 501,-197 543.5337,-223.3201 594.2427,-253.4018 619.7041,-268.4176"/>
<polygon fill="#9a32cd" stroke="#9a32cd" points="468.0129,-172.0093 457.7097,-169.5408 464.2248,-177.8957 468.0129,-172.0093"/>
<text text-anchor="middle" x="536.5" y="-242" font-family="Helvetica,sans-Serif" font-size="10.00" fill="#000000"> dict</text>
</g>
<!-- Node5&#45;&gt;Node74 -->
<g id="edge38" class="edge">
<title>Node5&#45;&gt;Node74</title>
<path fill="none" stroke="#9a32cd" stroke-dasharray="5,2" d="M475.1125,-165.8235C509.4548,-172.0514 563.8064,-181.9079 599.684,-188.4142"/>
<polygon fill="#9a32cd" stroke="#9a32cd" points="475.6036,-162.3556 465.1396,-164.0149 474.3545,-169.2432 475.6036,-162.3556"/>
<text text-anchor="middle" x="536.5" y="-185" font-family="Helvetica,sans-Serif" font-size="10.00" fill="#000000"> dict_def</text>
</g>
<!-- Node6 -->
<g id="node6" class="node">
<title>Node6</title>
<g id="a_node6"><a xlink:href="table_8h.html#structfr__table__num__ordered__t" target="_top" xlink:title="An element in an arbitrarily ordered array of name to num mappings. ">
<polygon fill="none" stroke="#ff0000" points="159,-.5 159,-19.5 278,-19.5 278,-.5 159,-.5"/>
<text text-anchor="middle" x="218.5" y="-7.5" font-family="Helvetica,sans-Serif" font-size="10.00" fill="#000000">fr_table_num_ordered_t</text>
</a>
</g>
</g>
<!-- Node6&#45;&gt;Node5 -->
<g id="edge6" class="edge">
<title>Node6&#45;&gt;Node5</title>
<path fill="none" stroke="#9a32cd" stroke-dasharray="5,2" d="M287.8934,-20.9515C320.0293,-28.7512 357.1643,-41.9257 385,-64 400.3334,-76.1597 427.3439,-128.406 438.2422,-150.2944"/>
<polygon fill="#9a32cd" stroke="#9a32cd" points="288.6264,-17.5288 278.0965,-18.6996 287.0582,-24.3509 288.6264,-17.5288"/>
<text text-anchor="middle" x="340.5" y="-67" font-family="Helvetica,sans-Serif" font-size="10.00" fill="#000000"> subtype_table</text>
</g>
<!-- Node6&#45;&gt;Node17 -->
<g id="edge15" class="edge">
<title>Node6&#45;&gt;Node17</title>
<path fill="none" stroke="#9a32cd" stroke-dasharray="5,2" d="M288.4728,-13.8548C374.1321,-18.5737 516.7857,-26.4325 589.8222,-30.4561"/>
<polygon fill="#9a32cd" stroke="#9a32cd" points="288.495,-10.3508 278.3176,-13.2953 288.1099,-17.3402 288.495,-10.3508"/>
<text text-anchor="middle" x="443" y="-28" font-family="Helvetica,sans-Serif" font-size="10.00" fill="#000000"> subtype_table</text>
</g>
<!-- Node8 -->
<g id="node7" class="node">
<title>Node8</title>
<g id="a_node7"><a xlink:href="hash_8c.html#structfr__hash__table__s" target="_top" xlink:title="fr_hash_table_s">
<polygon fill="none" stroke="#ff0000" points="175.5,-65.5 175.5,-84.5 261.5,-84.5 261.5,-65.5 175.5,-65.5"/>
<text text-anchor="middle" x="218.5" y="-72.5" font-family="Helvetica,sans-Serif" font-size="10.00" fill="#000000">fr_hash_table_s</text>
</a>
</g>
</g>
<!-- Node8&#45;&gt;Node5 -->
<g id="edge7" class="edge">
<title>Node8&#45;&gt;Node5</title>
<path fill="none" stroke="#9a32cd" stroke-dasharray="5,2" d="M271.966,-75.85C305.9495,-78.3056 349.9776,-85.1368 385,-103 407.1349,-114.2899 426.2484,-136.9976 436.0327,-150.0874"/>
<polygon fill="#9a32cd" stroke="#9a32cd" points="271.9594,-72.343 261.7629,-75.221 271.5286,-79.3298 271.9594,-72.343"/>
<text text-anchor="middle" x="340.5" y="-150" font-family="Helvetica,sans-Serif" font-size="10.00" fill="#000000"> attributes_by_name</text>
<text text-anchor="middle" x="340.5" y="-139" font-family="Helvetica,sans-Serif" font-size="10.00" fill="#000000">autoref</text>
<text text-anchor="middle" x="340.5" y="-128" font-family="Helvetica,sans-Serif" font-size="10.00" fill="#000000">vendors_by_num</text>
<text text-anchor="middle" x="340.5" y="-117" font-family="Helvetica,sans-Serif" font-size="10.00" fill="#000000">attributes_combo</text>
<text text-anchor="middle" x="340.5" y="-106" font-family="Helvetica,sans-Serif" font-size="10.00" fill="#000000">vendors_by_name</text>
</g>
<!-- Node8&#45;&gt;Node10 -->
<g id="edge9" class="edge">
<title>Node8&#45;&gt;Node10</title>
<path fill="none" stroke="#9a32cd" stroke-dasharray="5,2" d="M271.7612,-63.6214C342.6678,-50.9184 470.8779,-36.5649 572,-73 595.8873,-81.6068 617.1796,-103.43 628.1545,-116.229"/>
<polygon fill="#9a32cd" stroke="#9a32cd" points="270.9222,-60.2172 261.7254,-65.4775 272.1952,-67.1005 270.9222,-60.2172"/>
<text text-anchor="middle" x="443" y="-67" font-family="Helvetica,sans-Serif" font-size="10.00" fill="#000000"> protocol_by_num</text>
<text text-anchor="middle" x="443" y="-56" font-family="Helvetica,sans-Serif" font-size="10.00" fill="#000000">protocol_by_name</text>
</g>
<!-- Node10&#45;&gt;Node5 -->
<g id="edge8" class="edge">
<title>Node10&#45;&gt;Node5</title>
<path fill="none" stroke="#9a32cd" stroke-dasharray="5,2" d="M586.9087,-120.4647C560.9433,-119.0029 528.7771,-119.5408 501,-127 483.993,-131.567 466.7346,-142.3445 455.5189,-150.3474"/>
<polygon fill="#9a32cd" stroke="#9a32cd" points="586.6826,-123.9573 596.8963,-121.1411 587.1557,-116.9733 586.6826,-123.9573"/>
<text text-anchor="middle" x="536.5" y="-130" font-family="Helvetica,sans-Serif" font-size="10.00" fill="#000000"> gctx</text>
</g>
<!-- Node13 -->
<g id="node9" class="node">
<title>Node13</title>
<g id="a_node9"><a xlink:href="dl_8h.html#structdl__s" target="_top" xlink:title="Module handle. ">
<polygon fill="none" stroke="#ff0000" points="201,-160.5 201,-179.5 236,-179.5 236,-160.5 201,-160.5"/>
<text text-anchor="middle" x="218.5" y="-167.5" font-family="Helvetica,sans-Serif" font-size="10.00" fill="#000000">dl_s</text>
</a>
</g>
</g>
<!-- Node13&#45;&gt;Node5 -->
<g id="edge13" class="edge">
<title>Node13&#45;&gt;Node5</title>
<path fill="none" stroke="#9a32cd" stroke-dasharray="5,2" d="M246.3559,-168.7592C291.5111,-166.7478 379.7732,-162.8163 420.9111,-160.9839"/>
<polygon fill="#9a32cd" stroke="#9a32cd" points="245.9505,-165.2737 236.1161,-169.2153 246.262,-172.2668 245.9505,-165.2737"/>
<text text-anchor="middle" x="340.5" y="-169" font-family="Helvetica,sans-Serif" font-size="10.00" fill="#000000"> dl</text>
</g>
<!-- Node17&#45;&gt;Node5 -->
<g id="edge14" class="edge">
<title>Node17&#45;&gt;Node5</title>
<path fill="none" stroke="#9a32cd" stroke-dasharray="5,2" d="M579.6105,-33.3547C553.6403,-36.0064 523.6389,-42.8416 501,-59 492.5652,-65.0203 460.4467,-126.165 447.9843,-150.2884"/>
<polygon fill="#9a32cd" stroke="#9a32cd" points="580.0402,-36.8311 589.7128,-32.5079 579.4554,-29.8555 580.0402,-36.8311"/>
<text text-anchor="middle" x="536.5" y="-62" font-family="Helvetica,sans-Serif" font-size="10.00" fill="#000000"> proto</text>
</g>
<!-- Node18&#45;&gt;Node1 -->
<g id="edge18" class="edge">
<title>Node18&#45;&gt;Node1</title>
<path fill="none" stroke="#9a32cd" stroke-dasharray="5,2" d="M488.6153,-325.5278C527.5159,-334.3445 585.0655,-345 636,-345 636,-345 636,-345 897.5,-345 931.2578,-345 969.9277,-345 996.3558,-345"/>
<polygon fill="#9a32cd" stroke="#9a32cd" points="489.1836,-322.0667 478.6514,-323.2171 487.6021,-328.8858 489.1836,-322.0667"/>
<text text-anchor="middle" x="776.5" y="-348" font-family="Helvetica,sans-Serif" font-size="10.00" fill="#000000"> vps</text>
</g>
<!-- Node18&#45;&gt;Node18 -->
<g id="edge19" class="edge">
<title>Node18&#45;&gt;Node18</title>
<path fill="none" stroke="#9a32cd" stroke-dasharray="5,2" d="M425.9638,-333.4C427.1015,-338.3146 432.7803,-342 443,-342 459.3516,-342 464.0782,-332.5653 457.1799,-323.7571"/>
<polygon fill="#9a32cd" stroke="#9a32cd" points="429.3358,-334.3393 428.8201,-323.7571 422.6241,-332.3512 429.3358,-334.3393"/>
<text text-anchor="middle" x="443" y="-345" font-family="Helvetica,sans-Serif" font-size="10.00" fill="#000000"> next</text>
</g>
<!-- Node18&#45;&gt;Node23 -->
<g id="edge28" class="edge">
<title>Node18&#45;&gt;Node23</title>
<path fill="none" stroke="#9a32cd" stroke-dasharray="5,2" d="M488.7311,-305.4698C525.1268,-298.681 574.9932,-289.3795 606.3482,-283.5309"/>
<polygon fill="#9a32cd" stroke="#9a32cd" points="488.0381,-302.0386 478.8495,-307.313 489.3218,-308.92 488.0381,-302.0386"/>
<text text-anchor="middle" x="536.5" y="-316" font-family="Helvetica,sans-Serif" font-size="10.00" fill="#000000"> state</text>
<text text-anchor="middle" x="536.5" y="-305" font-family="Helvetica,sans-Serif" font-size="10.00" fill="#000000">control</text>
</g>
<!-- Node19 -->
<g id="node12" class="node">
<title>Node19</title>
<g id="a_node12"><a xlink:href="xlat__priv_8h.html#structxlat__exp" target="_top" xlink:title="An xlat expansion node. ">
<polygon fill="none" stroke="#000000" points="871,-189.5 871,-208.5 924,-208.5 924,-189.5 871,-189.5"/>
<text text-anchor="middle" x="897.5" y="-196.5" font-family="Helvetica,sans-Serif" font-size="10.00" fill="#000000">xlat_exp</text>
</a>
</g>
</g>
<!-- Node19&#45;&gt;Node1 -->
<g id="edge21" class="edge">
<title>Node19&#45;&gt;Node1</title>
<path fill="none" stroke="#9a32cd" stroke-dasharray="5,2" d="M913.0249,-216.3688C940.6435,-247.2678 997.454,-310.8259 1019.2349,-335.1938"/>
<polygon fill="#9a32cd" stroke="#9a32cd" points="915.3362,-213.7028 906.0625,-208.5795 910.1172,-218.3677 915.3362,-213.7028"/>
<text text-anchor="middle" x="954.5" y="-279" font-family="Helvetica,sans-Serif" font-size="10.00" fill="#000000"> xlat</text>
</g>
<!-- Node19&#45;&gt;Node19 -->
<g id="edge40" class="edge">
<title>Node19&#45;&gt;Node19</title>
<path fill="none" stroke="#9a32cd" stroke-dasharray="5,2" d="M887.1873,-218.7663C887.9972,-223.4965 891.4348,-227 897.5,-227 907.4531,-227 910.3302,-217.5653 906.1312,-208.7571"/>
<polygon fill="#9a32cd" stroke="#9a32cd" points="890.6636,-219.1988 888.8688,-208.7571 883.7603,-218.039 890.6636,-219.1988"/>
<text text-anchor="middle" x="897.5" y="-252" font-family="Helvetica,sans-Serif" font-size="10.00" fill="#000000"> alternate</text>
<text text-anchor="middle" x="897.5" y="-241" font-family="Helvetica,sans-Serif" font-size="10.00" fill="#000000">next</text>
<text text-anchor="middle" x="897.5" y="-230" font-family="Helvetica,sans-Serif" font-size="10.00" fill="#000000">child</text>
</g>
<!-- Node21 -->
<g id="node14" class="node">
<title>Node21</title>
<g id="a_node14"><a xlink:href="xlat_8h.html#structxlat__inst" target="_top" xlink:title="Instance data for an xlat expansion node. ">
<polygon fill="none" stroke="#000000" points="1001.5,-218.5 1001.5,-237.5 1054.5,-237.5 1054.5,-218.5 1001.5,-218.5"/>
<text text-anchor="middle" x="1028" y="-225.5" font-family="Helvetica,sans-Serif" font-size="10.00" fill="#000000">xlat_inst</text>
</a>
</g>
</g>
<!-- Node19&#45;&gt;Node21 -->
<g id="edge24" class="edge">
<title>Node19&#45;&gt;Node21</title>
<path fill="none" stroke="#9a32cd" stroke-dasharray="5,2" d="M934.237,-207.1638C955.5712,-211.9047 981.9678,-217.7706 1001.3122,-222.0694"/>
<polygon fill="#9a32cd" stroke="#9a32cd" points="934.7447,-203.6913 924.2235,-204.9386 933.2261,-210.5246 934.7447,-203.6913"/>
<text text-anchor="middle" x="954.5" y="-217" font-family="Helvetica,sans-Serif" font-size="10.00" fill="#000000"> node</text>
</g>
<!-- Node71 -->
<g id="node17" class="node">
<title>Node71</title>
<g id="a_node17"><a xlink:href="xlat_8h.html#structxlat__thread__inst" target="_top" xlink:title="Thread specific instance data for xlat expansion node. ">
<polygon fill="none" stroke="#000000" points="985,-180.5 985,-199.5 1071,-199.5 1071,-180.5 985,-180.5"/>
<text text-anchor="middle" x="1028" y="-187.5" font-family="Helvetica,sans-Serif" font-size="10.00" fill="#000000">xlat_thread_inst</text>
</a>
</g>
</g>
<!-- Node19&#45;&gt;Node71 -->
<g id="edge32" class="edge">
<title>Node19&#45;&gt;Node71</title>
<path fill="none" stroke="#9a32cd" stroke-dasharray="5,2" d="M934.3118,-195.6C936.9129,-195.3877 939.4956,-195.1853 942,-195 955.8709,-193.9736 971.0135,-193.0331 984.6731,-192.2515"/>
<polygon fill="#9a32cd" stroke="#9a32cd" points="933.9816,-192.1153 924.3149,-196.4517 934.5759,-199.09 933.9816,-192.1153"/>
<text text-anchor="middle" x="954.5" y="-198" font-family="Helvetica,sans-Serif" font-size="10.00" fill="#000000"> node</text>
</g>
<!-- Node20 -->
<g id="node13" class="node">
<title>Node20</title>
<g id="a_node13"><a xlink:href="xlat__priv_8h.html#structxlat__call__t" target="_top" xlink:title="An xlat function call. ">
<polygon fill="none" stroke="#000000" points="1295,-177.5 1295,-196.5 1356,-196.5 1356,-177.5 1295,-177.5"/>
<text text-anchor="middle" x="1325.5" y="-184.5" font-family="Helvetica,sans-Serif" font-size="10.00" fill="#000000">xlat_call_t</text>
</a>
</g>
</g>
<!-- Node20&#45;&gt;Node19 -->
<g id="edge22" class="edge">
<title>Node20&#45;&gt;Node19</title>
<path fill="none" stroke="#9a32cd" stroke-dasharray="5,2" d="M1284.6021,-179.5642C1220.3412,-169.1148 1092.0104,-153.24 985,-171 962.6569,-174.7082 938.1788,-182.9176 920.8088,-189.4937"/>
<polygon fill="#9a32cd" stroke="#9a32cd" points="1284.2844,-183.0594 1294.7239,-181.2521 1285.4359,-176.1548 1284.2844,-183.0594"/>
<text text-anchor="middle" x="1128" y="-168" font-family="Helvetica,sans-Serif" font-size="10.00" fill="#000000"> call</text>
</g>
<!-- Node21&#45;&gt;Node20 -->
<g id="edge23" class="edge">
<title>Node21&#45;&gt;Node20</title>
<path fill="none" stroke="#9a32cd" stroke-dasharray="5,2" d="M1064.7251,-224.7705C1113.4522,-220.213 1202.0554,-210.978 1277,-198 1282.785,-196.9982 1288.9187,-195.7525 1294.8077,-194.4631"/>
<polygon fill="#9a32cd" stroke="#9a32cd" points="1064.3007,-221.2947 1054.6642,-225.6978 1064.9433,-228.2651 1064.3007,-221.2947"/>
<text text-anchor="middle" x="1211" y="-214" font-family="Helvetica,sans-Serif" font-size="10.00" fill="#000000"> inst</text>
</g>
<!-- Node22 -->
<g id="node15" class="node">
<title>Node22</title>
<g id="a_node15"><a xlink:href="xlat__priv_8h.html#structxlat__s" target="_top" xlink:title="xlat_s">
<polygon fill="none" stroke="#000000" points="1189.5,-246.5 1189.5,-265.5 1232.5,-265.5 1232.5,-246.5 1189.5,-246.5"/>
<text text-anchor="middle" x="1211" y="-253.5" font-family="Helvetica,sans-Serif" font-size="10.00" fill="#000000">xlat_s</text>
</a>
</g>
</g>
<!-- Node21&#45;&gt;Node22 -->
<g id="edge26" class="edge">
<title>Node21&#45;&gt;Node22</title>
<path fill="none" stroke="#9a32cd" stroke-dasharray="5,2" d="M1064.5764,-233.5964C1101.8616,-239.3012 1158.4616,-247.9613 1189.2288,-252.6689"/>
<polygon fill="#9a32cd" stroke="#9a32cd" points="1065.0241,-230.1242 1054.6098,-232.0714 1063.9653,-237.0437 1065.0241,-230.1242"/>
<text text-anchor="middle" x="1128" y="-274" font-family="Helvetica,sans-Serif" font-size="10.00" fill="#000000"> detach</text>
<text text-anchor="middle" x="1128" y="-263" font-family="Helvetica,sans-Serif" font-size="10.00" fill="#000000">instantiate</text>
<text text-anchor="middle" x="1128" y="-252" font-family="Helvetica,sans-Serif" font-size="10.00" fill="#000000">thread_instantiate</text>
</g>
<!-- Node22&#45;&gt;Node20 -->
<g id="edge25" class="edge">
<title>Node22&#45;&gt;Node20</title>
<path fill="none" stroke="#9a32cd" stroke-dasharray="5,2" d="M1242.314,-246.8402C1253.6757,-242.8307 1266.3318,-237.5325 1277,-231 1292.7069,-221.3822 1307.9566,-206.3171 1317.038,-196.5503"/>
<polygon fill="#9a32cd" stroke="#9a32cd" points="1241.1247,-243.5472 1232.7452,-250.0306 1243.3388,-250.1879 1241.1247,-243.5472"/>
<text text-anchor="middle" x="1266" y="-244" font-family="Helvetica,sans-Serif" font-size="10.00" fill="#000000"> func</text>
</g>
<!-- Node23&#45;&gt;Node22 -->
<g id="edge27" class="edge">
<title>Node23&#45;&gt;Node22</title>
<path fill="none" stroke="#9a32cd" stroke-dasharray="5,2" d="M675.525,-286.6696C703.5625,-292.0712 742.1585,-298 776.5,-298 776.5,-298 776.5,-298 1028,-298 1090.0903,-298 1108.3318,-304.3286 1167,-284 1178.8065,-279.909 1190.67,-272.0922 1199.0982,-265.7552"/>
<polygon fill="#9a32cd" stroke="#9a32cd" points="676.1912,-283.2336 665.7005,-284.7153 674.8255,-290.0991 676.1912,-283.2336"/>
<text text-anchor="middle" x="897.5" y="-301" font-family="Helvetica,sans-Serif" font-size="10.00" fill="#000000"> escape</text>
</g>
<!-- Node23&#45;&gt;Node23 -->
<g id="edge30" class="edge">
<title>Node23&#45;&gt;Node23</title>
<path fill="none" stroke="#9a32cd" stroke-dasharray="5,2" d="M622.0041,-297.7663C623.1034,-302.4965 627.7687,-306 636,-306 649.5078,-306 653.4124,-296.5653 647.7138,-287.7571"/>
<polygon fill="#9a32cd" stroke="#9a32cd" points="625.4756,-298.2849 624.2862,-287.7571 618.6508,-296.7288 625.4756,-298.2849"/>
<text text-anchor="middle" x="636" y="-309" font-family="Helvetica,sans-Serif" font-size="10.00" fill="#000000"> parent</text>
</g>
<!-- Node71&#45;&gt;Node20 -->
<g id="edge33" class="edge">
<title>Node71&#45;&gt;Node20</title>
<path fill="none" stroke="#9a32cd" stroke-dasharray="5,2" d="M1081.282,-187.1299C1123.5124,-185.1789 1184.0228,-183.1023 1237,-184 1256.214,-184.3256 1277.7644,-185.0485 1294.7885,-185.703"/>
<polygon fill="#9a32cd" stroke="#9a32cd" points="1081.0458,-183.6371 1071.2234,-187.6082 1081.3784,-190.6292 1081.0458,-183.6371"/>
<text text-anchor="middle" x="1211" y="-187" font-family="Helvetica,sans-Serif" font-size="10.00" fill="#000000"> thread_inst</text>
</g>
<!-- Node71&#45;&gt;Node22 -->
<g id="edge31" class="edge">
<title>Node71&#45;&gt;Node22</title>
<path fill="none" stroke="#9a32cd" stroke-dasharray="5,2" d="M1081.166,-196.7164C1107.8395,-201.4415 1140.1073,-209.271 1167,-222 1179.914,-228.1125 1192.6023,-238.5212 1201.0095,-246.2157"/>
<polygon fill="#9a32cd" stroke="#9a32cd" points="1081.6807,-193.2539 1071.2398,-195.0537 1080.5242,-200.1577 1081.6807,-193.2539"/>
<text text-anchor="middle" x="1128" y="-225" font-family="Helvetica,sans-Serif" font-size="10.00" fill="#000000"> thread_detach</text>
</g>
<!-- Node72 -->
<g id="node18" class="node">
<title>Node72</title>
<g id="a_node18"><a xlink:href="xlat_8h.html#structxlat__flags__t" target="_top" xlink:title="Flags that control resolution and evaluation. ">
<polygon fill="none" stroke="#000000" points="743,-223.5 743,-242.5 810,-242.5 810,-223.5 743,-223.5"/>
<text text-anchor="middle" x="776.5" y="-230.5" font-family="Helvetica,sans-Serif" font-size="10.00" fill="#000000">xlat_flags_t</text>
</a>
</g>
</g>
<!-- Node72&#45;&gt;Node19 -->
<g id="edge34" class="edge">
<title>Node72&#45;&gt;Node19</title>
<path fill="none" stroke="#9a32cd" stroke-dasharray="5,2" d="M819.953,-220.7901C836.9704,-216.0083 855.9473,-210.676 870.8688,-206.4831"/>
<polygon fill="#9a32cd" stroke="#9a32cd" points="818.8856,-217.4544 810.2052,-223.5291 820.7792,-224.1934 818.8856,-217.4544"/>
<text text-anchor="middle" x="840.5" y="-221" font-family="Helvetica,sans-Serif" font-size="10.00" fill="#000000"> flags</text>
</g>
<!-- Node73 -->
<g id="node19" class="node">
<title>Node73</title>
<g id="a_node19"><a xlink:href="server_2tmpl_8h.html#structtmpl__s" target="_top" xlink:title="A source or sink of value data. ">
<polygon fill="none" stroke="#000000" points="753.5,-185.5 753.5,-204.5 799.5,-204.5 799.5,-185.5 753.5,-185.5"/>
<text text-anchor="middle" x="776.5" y="-192.5" font-family="Helvetica,sans-Serif" font-size="10.00" fill="#000000">tmpl_s</text>
</a>
</g>
</g>
<!-- Node73&#45;&gt;Node19 -->
<g id="edge35" class="edge">
<title>Node73&#45;&gt;Node19</title>
<path fill="none" stroke="#9a32cd" stroke-dasharray="5,2" d="M809.6702,-196.0965C828.8794,-196.7315 852.7424,-197.5204 870.7447,-198.1155"/>
<polygon fill="#9a32cd" stroke="#9a32cd" points="809.6542,-192.5942 799.544,-195.7618 809.4229,-199.5904 809.6542,-192.5942"/>
<text text-anchor="middle" x="840.5" y="-200" font-family="Helvetica,sans-Serif" font-size="10.00" fill="#000000"> attr</text>
</g>
<!-- Node74&#45;&gt;Node73 -->
<g id="edge36" class="edge">
<title>Node74&#45;&gt;Node73</title>
<path fill="none" stroke="#9a32cd" stroke-dasharray="5,2" d="M682.4088,-195C706.1474,-195 734.0067,-195 753.218,-195"/>
<polygon fill="#9a32cd" stroke="#9a32cd" points="682.1823,-191.5001 672.1822,-195 682.1822,-198.5001 682.1823,-191.5001"/>
<text text-anchor="middle" x="712.5" y="-198" font-family="Helvetica,sans-Serif" font-size="10.00" fill="#000000"> rules</text>
</g>
<!-- Node74&#45;&gt;Node74 -->
<g id="edge37" class="edge">
<title>Node74&#45;&gt;Node74</title>
<path fill="none" stroke="#9a32cd" stroke-dasharray="5,2" d="M622.0041,-214.7663C623.1034,-219.4965 627.7687,-223 636,-223 649.5078,-223 653.4124,-213.5653 647.7138,-204.7571"/>
<polygon fill="#9a32cd" stroke="#9a32cd" points="625.4756,-215.2849 624.2862,-204.7571 618.6508,-213.7288 625.4756,-215.2849"/>
<text text-anchor="middle" x="636" y="-226" font-family="Helvetica,sans-Serif" font-size="10.00" fill="#000000"> parent</text>
</g>
</g>
</svg>
