<?xml version="1.0" encoding="UTF-8" standalone="no"?>
<!DOCTYPE svg PUBLIC "-//W3C//DTD SVG 1.1//EN"
 "http://www.w3.org/Graphics/SVG/1.1/DTD/svg11.dtd">
<!-- Generated by graphviz version 2.40.1 (20161225.0304)
 -->
<!-- Title: fr_dict_attr_ext_ref_t Pages: 1 -->
<!--zoomable 288 -->
<svg id="main" version="1.1" xmlns="http://www.w3.org/2000/svg" xmlns:xlink="http://www.w3.org/1999/xlink" xml:space="preserve" onload="init(evt)">
<style type="text/css"><![CDATA[
.edge:hover path { stroke: red; }
.edge:hover polygon { stroke: red; fill: red; }
]]></style>
<script type="text/javascript"><![CDATA[
var edges = document.getElementsByTagName('g');
if (edges && edges.length) {
  for (var i=0;i<edges.length;i++) {
    if (edges[i].id.substr(0,4)=='edge') {
      edges[i].setAttribute('class','edge');
    }
  }
}
]]></script>
        <defs>
                <circle id="rim" cx="0" cy="0" r="7"/>
                <circle id="rim2" cx="0" cy="0" r="3.5"/>
                <g id="zoomPlus">
                        <use xlink:href="#rim" fill="#404040">
                                <set attributeName="fill" to="#808080" begin="zoomplus.mouseover" end="zoomplus.mouseout"/>
                        </use>
                        <path d="M-4,0h8M0,-4v8" fill="none" stroke="white" stroke-width="1.5" pointer-events="none"/>
                </g>
                <g id="zoomMin">
                        <use xlink:href="#rim" fill="#404040">
                                <set attributeName="fill" to="#808080" begin="zoomminus.mouseover" end="zoomminus.mouseout"/>
                        </use>
                        <path d="M-4,0h8" fill="none" stroke="white" stroke-width="1.5" pointer-events="none"/>
                </g>
                <g id="dirArrow">
                        <path fill="none" stroke="white" stroke-width="1.5" d="M0,-3.0v7 M-2.5,-0.5L0,-3.0L2.5,-0.5"/>
                </g>
               <g id="resetDef">
                       <use xlink:href="#rim2" fill="#404040">
                               <set attributeName="fill" to="#808080" begin="reset.mouseover" end="reset.mouseout"/>
                       </use>
               </g>
        </defs>

<script type="text/javascript">
var viewWidth = 584;
var viewHeight = 288;
var sectionId = 'dynsection-4';
</script>
<script xlink:href="svgpan.js"/>
<svg id="graph" class="graph">
<g id="viewport">
<title>fr_dict_attr_ext_ref_t</title>
<!-- Node41 -->
<g id="node1" class="node">
<title>Node41</title>
<polygon fill="#bfbfbf" stroke="#000000" points="102,-68.5 102,-87.5 209,-87.5 209,-68.5 102,-68.5"/>
<text text-anchor="middle" x="155.5" y="-75.5" font-family="Helvetica,sans-Serif" font-size="10.00" fill="#000000">fr_dict_attr_ext_ref_t</text>
</g>
<!-- Node42 -->
<g id="node2" class="node">
<title>Node42</title>
<g id="a_node2"><a xlink:href="dict_8h.html#structdict__attr__s" target="_top" xlink:title="Dictionary attribute. ">
<polygon fill="none" stroke="#000000" points="161.5,-176 161.5,-195 223.5,-195 223.5,-176 161.5,-176"/>
<text text-anchor="middle" x="192.5" y="-183" font-family="Helvetica,sans-Serif" font-size="10.00" fill="#000000">dict_attr_s</text>
</a>
</g>
</g>
<!-- Node42&#45;&gt;Node41 -->
<g id="edge1" class="edge">
<title>Node42&#45;&gt;Node41</title>
<path fill="none" stroke="#9a32cd" stroke-dasharray="5,2" d="M151.6426,-174.7522C116.0235,-165.2881 69.8245,-152.7433 68.5,-151 56.6697,-135.4288 57.0657,-122.8643 68.5,-107 73.9925,-99.3796 92.9059,-92.6228 111.7009,-87.5526"/>
<polygon fill="#9a32cd" stroke="#9a32cd" points="150.7994,-178.1495 161.3623,-177.3283 152.5928,-171.3831 150.7994,-178.1495"/>
<text text-anchor="middle" x="76" y="-126.5" font-family="Helvetica,sans-Serif" font-size="10.00" fill="#000000"> ref</text>
</g>
<!-- Node42&#45;&gt;Node42 -->
<g id="edge20" class="edge">
<title>Node42&#45;&gt;Node42</title>
<path fill="none" stroke="#9a32cd" stroke-dasharray="5,2" d="M233.6528,-192.5286C238.4088,-191.2267 241.5,-188.8838 241.5,-185.5 241.5,-180.0859 233.5865,-177.3366 223.602,-177.252"/>
<polygon fill="#9a32cd" stroke="#9a32cd" points="233.1077,-189.069 223.602,-193.748 233.9508,-196.0181 233.1077,-189.069"/>
<text text-anchor="middle" x="255.5" y="-194" font-family="Helvetica,sans-Serif" font-size="10.00" fill="#000000"> next</text>
<text text-anchor="middle" x="255.5" y="-183" font-family="Helvetica,sans-Serif" font-size="10.00" fill="#000000">fixup</text>
<text text-anchor="middle" x="255.5" y="-172" font-family="Helvetica,sans-Serif" font-size="10.00" fill="#000000">parent</text>
</g>
<!-- Node44 -->
<g id="node4" class="node">
<title>Node44</title>
<g id="a_node4"><a xlink:href="dict__priv_8h.html#structfr__dict" target="_top" xlink:title="Vendors and attribute names. ">
<polygon fill="none" stroke="#000000" points="241.5,-68.5 241.5,-87.5 285.5,-87.5 285.5,-68.5 241.5,-68.5"/>
<text text-anchor="middle" x="263.5" y="-75.5" font-family="Helvetica,sans-Serif" font-size="10.00" fill="#000000">fr_dict</text>
</a>
</g>
</g>
<!-- Node42&#45;&gt;Node44 -->
<g id="edge14" class="edge">
<title>Node42&#45;&gt;Node44</title>
<path fill="none" stroke="#9a32cd" stroke-dasharray="5,2" d="M203.2888,-167.2324C206.3157,-162.0153 209.577,-156.306 212.5,-151 223.1471,-131.6725 222.5935,-124.8979 235.5,-107 240.5759,-99.9611 247.3038,-92.9372 252.8925,-87.5652"/>
<polygon fill="#9a32cd" stroke="#9a32cd" points="200.2476,-165.4995 198.2172,-175.898 206.289,-169.0353 200.2476,-165.4995"/>
<text text-anchor="middle" x="249" y="-132" font-family="Helvetica,sans-Serif" font-size="10.00" fill="#000000"> root</text>
<text text-anchor="middle" x="249" y="-121" font-family="Helvetica,sans-Serif" font-size="10.00" fill="#000000">fixups</text>
</g>
<!-- Node43 -->
<g id="node3" class="node">
<title>Node43</title>
<g id="a_node3"><a xlink:href="dict_8h.html#structfr__dict__attr__flags__t" target="_top" xlink:title="Values of the encryption flags. ">
<polygon fill="none" stroke="#000000" points="143.5,-260.5 143.5,-279.5 241.5,-279.5 241.5,-260.5 143.5,-260.5"/>
<text text-anchor="middle" x="192.5" y="-267.5" font-family="Helvetica,sans-Serif" font-size="10.00" fill="#000000">fr_dict_attr_flags_t</text>
</a>
</g>
</g>
<!-- Node43&#45;&gt;Node42 -->
<g id="edge2" class="edge">
<title>Node43&#45;&gt;Node42</title>
<path fill="none" stroke="#9a32cd" stroke-dasharray="5,2" d="M192.5,-250.1221C192.5,-232.7864 192.5,-208.3886 192.5,-195.0802"/>
<polygon fill="#9a32cd" stroke="#9a32cd" points="189.0001,-250.3067 192.5,-260.3068 196.0001,-250.3068 189.0001,-250.3067"/>
<text text-anchor="middle" x="205" y="-228.5" font-family="Helvetica,sans-Serif" font-size="10.00" fill="#000000"> flags</text>
</g>
<!-- Node44&#45;&gt;Node42 -->
<g id="edge3" class="edge">
<title>Node44&#45;&gt;Node42</title>
<path fill="none" stroke="#9a32cd" stroke-dasharray="5,2" d="M231.5447,-87.4403C215.3682,-92.9267 198.1737,-100.1004 193.5,-107 179.2824,-127.9889 185.1969,-159.9179 189.4944,-175.8098"/>
<polygon fill="#9a32cd" stroke="#9a32cd" points="232.9294,-90.6709 241.3643,-84.2598 230.7724,-84.0115 232.9294,-90.6709"/>
<text text-anchor="middle" x="203" y="-126.5" font-family="Helvetica,sans-Serif" font-size="10.00" fill="#000000"> dict</text>
</g>
<!-- Node44&#45;&gt;Node44 -->
<g id="edge13" class="edge">
<title>Node44&#45;&gt;Node44</title>
<path fill="none" stroke="#9a32cd" stroke-dasharray="5,2" d="M295.9045,-83.7059C300.4533,-82.7751 303.5,-80.8731 303.5,-78 303.5,-73.2852 295.2952,-71.1856 285.7124,-71.7013"/>
<polygon fill="#9a32cd" stroke="#9a32cd" points="295.4922,-80.2239 285.7124,-84.2987 295.8988,-87.212 295.4922,-80.2239"/>
<text text-anchor="middle" x="325" y="-75.5" font-family="Helvetica,sans-Serif" font-size="10.00" fill="#000000"> attr_valid</text>
</g>
<!-- Node49 -->
<g id="node9" class="node">
<title>Node49</title>
<g id="a_node9"><a xlink:href="dict__priv_8h.html#structfr__dict__gctx__s" target="_top" xlink:title="fr_dict_gctx_s">
<polygon fill="none" stroke="#000000" points="355.5,-.5 355.5,-19.5 433.5,-19.5 433.5,-.5 355.5,-.5"/>
<text text-anchor="middle" x="394.5" y="-7.5" font-family="Helvetica,sans-Serif" font-size="10.00" fill="#000000">fr_dict_gctx_s</text>
</a>
</g>
</g>
<!-- Node44&#45;&gt;Node49 -->
<g id="edge11" class="edge">
<title>Node44&#45;&gt;Node49</title>
<path fill="none" stroke="#9a32cd" stroke-dasharray="5,2" d="M295.3352,-69.4506C310.977,-64.5832 329.7905,-57.7068 345.5,-49 360.1449,-40.8833 374.9021,-28.4188 384.3369,-19.7747"/>
<polygon fill="#9a32cd" stroke="#9a32cd" points="294.1628,-66.1478 285.5789,-72.3581 296.162,-72.8562 294.1628,-66.1478"/>
<text text-anchor="middle" x="378" y="-41" font-family="Helvetica,sans-Serif" font-size="10.00" fill="#000000"> internal</text>
</g>
<!-- Node56 -->
<g id="node12" class="node">
<title>Node56</title>
<g id="a_node12"><a xlink:href="dict_8h.html#structfr__dict__protocol__t" target="_top" xlink:title="Protocol&#45;specific callbacks in libfreeradius&#45;PROTOCOL. ">
<polygon fill="none" stroke="#000000" points="151.5,-.5 151.5,-19.5 243.5,-19.5 243.5,-.5 151.5,-.5"/>
<text text-anchor="middle" x="197.5" y="-7.5" font-family="Helvetica,sans-Serif" font-size="10.00" fill="#000000">fr_dict_protocol_t</text>
</a>
</g>
</g>
<!-- Node44&#45;&gt;Node56 -->
<g id="edge19" class="edge">
<title>Node44&#45;&gt;Node56</title>
<path fill="none" stroke="#9a32cd" stroke-dasharray="5,2" d="M231.6491,-68.4187C215.7831,-62.936 199.026,-55.8117 194.5,-49 188.7876,-40.4027 190.9163,-28.2657 193.5886,-19.8232"/>
<polygon fill="#9a32cd" stroke="#9a32cd" points="230.7022,-71.7919 241.2954,-71.6029 232.8965,-65.1447 230.7022,-71.7919"/>
<text text-anchor="middle" x="216" y="-41" font-family="Helvetica,sans-Serif" font-size="10.00" fill="#000000"> attr_valid</text>
</g>
<!-- Node45 -->
<g id="node5" class="node">
<title>Node45</title>
<g id="a_node5"><a xlink:href="table_8h.html#structfr__table__num__ordered__t" target="_top" xlink:title="An element in an arbitrarily ordered array of name to num mappings. ">
<polygon fill="none" stroke="#000000" points="0,-176 0,-195 119,-195 119,-176 0,-176"/>
<text text-anchor="middle" x="59.5" y="-183" font-family="Helvetica,sans-Serif" font-size="10.00" fill="#000000">fr_table_num_ordered_t</text>
</a>
</g>
</g>
<!-- Node45&#45;&gt;Node44 -->
<g id="edge4" class="edge">
<title>Node45&#45;&gt;Node44</title>
<path fill="none" stroke="#9a32cd" stroke-dasharray="5,2" d="M72.3267,-167.4466C88.4336,-144.8815 114.3539,-108.9562 117.5,-107 155.8499,-83.1548 173.2999,-98.2551 217.5,-89 225.2155,-87.3845 233.6131,-85.4337 241.0963,-83.6263"/>
<polygon fill="#9a32cd" stroke="#9a32cd" points="69.2643,-165.7133 66.3134,-175.8889 74.9658,-169.7745 69.2643,-165.7133"/>
<text text-anchor="middle" x="149.5" y="-126.5" font-family="Helvetica,sans-Serif" font-size="10.00" fill="#000000"> subtype_table</text>
</g>
<!-- Node45&#45;&gt;Node56 -->
<g id="edge18" class="edge">
<title>Node45&#45;&gt;Node56</title>
<path fill="none" stroke="#9a32cd" stroke-dasharray="5,2" d="M46.2892,-167.4895C29.86,-142.6924 6.5034,-97.6331 28.5,-67 43.0839,-46.6902 106.5262,-29.3206 151.3772,-19.2644"/>
<polygon fill="#9a32cd" stroke="#9a32cd" points="43.5649,-169.7032 52.1377,-175.9289 49.3184,-165.716 43.5649,-169.7032"/>
<text text-anchor="middle" x="60.5" y="-75.5" font-family="Helvetica,sans-Serif" font-size="10.00" fill="#000000"> subtype_table</text>
</g>
<!-- Node46 -->
<g id="node6" class="node">
<title>Node46</title>
<g id="a_node6"><a xlink:href="table_8h.html#structfr__table__elem__t" target="_top" xlink:title="fr_table_elem_t">
<polygon fill="none" stroke="#000000" points="18,-260.5 18,-279.5 101,-279.5 101,-260.5 18,-260.5"/>
<text text-anchor="middle" x="59.5" y="-267.5" font-family="Helvetica,sans-Serif" font-size="10.00" fill="#000000">fr_table_elem_t</text>
</a>
</g>
</g>
<!-- Node46&#45;&gt;Node45 -->
<g id="edge5" class="edge">
<title>Node46&#45;&gt;Node45</title>
<path fill="none" stroke="#9a32cd" stroke-dasharray="5,2" d="M59.5,-250.1221C59.5,-232.7864 59.5,-208.3886 59.5,-195.0802"/>
<polygon fill="#9a32cd" stroke="#9a32cd" points="56.0001,-250.3067 59.5,-260.3068 63.0001,-250.3068 56.0001,-250.3067"/>
<text text-anchor="middle" x="73.5" y="-228.5" font-family="Helvetica,sans-Serif" font-size="10.00" fill="#000000"> name</text>
</g>
<!-- Node47 -->
<g id="node7" class="node">
<title>Node47</title>
<g id="a_node7"><a xlink:href="hash_8c.html#structfr__hash__table__s" target="_top" xlink:title="fr_hash_table_s">
<polygon fill="none" stroke="#000000" points="449.5,-176 449.5,-195 535.5,-195 535.5,-176 449.5,-176"/>
<text text-anchor="middle" x="492.5" y="-183" font-family="Helvetica,sans-Serif" font-size="10.00" fill="#000000">fr_hash_table_s</text>
</a>
</g>
</g>
<!-- Node47&#45;&gt;Node44 -->
<g id="edge6" class="edge">
<title>Node47&#45;&gt;Node44</title>
<path fill="none" stroke="#9a32cd" stroke-dasharray="5,2" d="M439.1179,-179.936C395.4944,-174.4802 338.1068,-164.9401 319.5,-151 301.8403,-137.7694 310.129,-124.3541 296.5,-107 290.7528,-99.682 282.9887,-92.7527 276.4354,-87.5037"/>
<polygon fill="#9a32cd" stroke="#9a32cd" points="438.9692,-183.4435 449.3172,-181.1696 439.8098,-176.4941 438.9692,-183.4435"/>
<text text-anchor="middle" x="359.5" y="-143" font-family="Helvetica,sans-Serif" font-size="10.00" fill="#000000"> autoref</text>
<text text-anchor="middle" x="359.5" y="-132" font-family="Helvetica,sans-Serif" font-size="10.00" fill="#000000">vendors_by_num</text>
<text text-anchor="middle" x="359.5" y="-121" font-family="Helvetica,sans-Serif" font-size="10.00" fill="#000000">attributes_combo</text>
<text text-anchor="middle" x="359.5" y="-110" font-family="Helvetica,sans-Serif" font-size="10.00" fill="#000000">vendors_by_name</text>
</g>
<!-- Node47&#45;&gt;Node49 -->
<g id="edge10" class="edge">
<title>Node47&#45;&gt;Node49</title>
<path fill="none" stroke="#9a32cd" stroke-dasharray="5,2" d="M490.3507,-165.8522C488.1446,-149.6547 483.9515,-126.2914 476.5,-107 463.6468,-73.724 459.9166,-64.0062 435.5,-38 428.7741,-30.8363 419.9081,-24.5002 412.1417,-19.6753"/>
<polygon fill="#9a32cd" stroke="#9a32cd" points="486.8777,-166.2869 491.5761,-175.7829 493.825,-165.4295 486.8777,-166.2869"/>
<text text-anchor="middle" x="508.5" y="-81" font-family="Helvetica,sans-Serif" font-size="10.00" fill="#000000"> protocol_by_num</text>
<text text-anchor="middle" x="508.5" y="-70" font-family="Helvetica,sans-Serif" font-size="10.00" fill="#000000">protocol_by_name</text>
</g>
<!-- Node48 -->
<g id="node8" class="node">
<title>Node48</title>
<g id="a_node8"><a xlink:href="hash_8c.html#structfr__hash__entry__s" target="_top" xlink:title="fr_hash_entry_s">
<polygon fill="none" stroke="#000000" points="449.5,-260.5 449.5,-279.5 535.5,-279.5 535.5,-260.5 449.5,-260.5"/>
<text text-anchor="middle" x="492.5" y="-267.5" font-family="Helvetica,sans-Serif" font-size="10.00" fill="#000000">fr_hash_entry_s</text>
</a>
</g>
</g>
<!-- Node48&#45;&gt;Node47 -->
<g id="edge7" class="edge">
<title>Node48&#45;&gt;Node47</title>
<path fill="none" stroke="#9a32cd" stroke-dasharray="5,2" d="M492.5,-250.1221C492.5,-232.7864 492.5,-208.3886 492.5,-195.0802"/>
<polygon fill="#9a32cd" stroke="#9a32cd" points="489.0001,-250.3067 492.5,-260.3068 496.0001,-250.3068 489.0001,-250.3067"/>
<text text-anchor="middle" x="510" y="-234" font-family="Helvetica,sans-Serif" font-size="10.00" fill="#000000"> null</text>
<text text-anchor="middle" x="510" y="-223" font-family="Helvetica,sans-Serif" font-size="10.00" fill="#000000">buckets</text>
</g>
<!-- Node48&#45;&gt;Node48 -->
<g id="edge8" class="edge">
<title>Node48&#45;&gt;Node48</title>
<path fill="none" stroke="#9a32cd" stroke-dasharray="5,2" d="M545.7545,-275.6304C550.5135,-274.4513 553.5,-272.5745 553.5,-270 553.5,-265.8809 545.8545,-263.5478 535.5361,-263.0007"/>
<polygon fill="#9a32cd" stroke="#9a32cd" points="544.9828,-272.2024 535.5361,-276.9993 545.9123,-279.1404 544.9828,-272.2024"/>
<text text-anchor="middle" x="564.5" y="-267.5" font-family="Helvetica,sans-Serif" font-size="10.00" fill="#000000"> next</text>
</g>
<!-- Node49&#45;&gt;Node44 -->
<g id="edge9" class="edge">
<title>Node49&#45;&gt;Node44</title>
<path fill="none" stroke="#9a32cd" stroke-dasharray="5,2" d="M356.8827,-23.1208C345.9057,-27.4045 334.0346,-32.4912 323.5,-38 306.4153,-46.9341 288.173,-59.5945 276.3484,-68.2649"/>
<polygon fill="#9a32cd" stroke="#9a32cd" points="358.1329,-26.39 366.2429,-19.5725 355.6516,-19.8445 358.1329,-26.39"/>
<text text-anchor="middle" x="334.5" y="-41" font-family="Helvetica,sans-Serif" font-size="10.00" fill="#000000"> gctx</text>
</g>
<!-- Node50 -->
<g id="node10" class="node">
<title>Node50</title>
<g id="a_node10"><a xlink:href="dl_8c.html#structdl__loader__s" target="_top" xlink:title="A dynamic loader. ">
<polygon fill="none" stroke="#ff0000" points="350.5,-260.5 350.5,-279.5 416.5,-279.5 416.5,-260.5 350.5,-260.5"/>
<text text-anchor="middle" x="383.5" y="-267.5" font-family="Helvetica,sans-Serif" font-size="10.00" fill="#000000">dl_loader_s</text>
</a>
</g>
</g>
<!-- Node50&#45;&gt;Node49 -->
<g id="edge12" class="edge">
<title>Node50&#45;&gt;Node49</title>
<path fill="none" stroke="#9a32cd" stroke-dasharray="5,2" d="M397.2789,-251.7437C399.015,-248.6323 400.5229,-245.3268 401.5,-242 404.2554,-232.6185 401.5537,-229.7776 401.5,-220 401.0555,-139.1074 407.0806,-118.5378 399.5,-38 398.9169,-31.8055 397.6966,-24.9257 396.6075,-19.5359"/>
<polygon fill="#9a32cd" stroke="#9a32cd" points="394.2156,-250.0338 391.6881,-260.3227 400.0802,-253.8557 394.2156,-250.0338"/>
<text text-anchor="middle" x="428" y="-126.5" font-family="Helvetica,sans-Serif" font-size="10.00" fill="#000000"> dict_loader</text>
</g>
<!-- Node52 -->
<g id="node11" class="node">
<title>Node52</title>
<g id="a_node11"><a xlink:href="dl_8h.html#structdl__s" target="_top" xlink:title="Module handle. ">
<polygon fill="none" stroke="#000000" points="323,-176 323,-195 358,-195 358,-176 323,-176"/>
<text text-anchor="middle" x="340.5" y="-183" font-family="Helvetica,sans-Serif" font-size="10.00" fill="#000000">dl_s</text>
</a>
</g>
</g>
<!-- Node50&#45;&gt;Node52 -->
<g id="edge16" class="edge">
<title>Node50&#45;&gt;Node52</title>
<path fill="none" stroke="#9a32cd" stroke-dasharray="5,2" d="M373.8847,-251.1049C365.0379,-233.7198 352.2764,-208.6421 345.3751,-195.0802"/>
<polygon fill="#9a32cd" stroke="#9a32cd" points="370.9126,-252.9817 378.5674,-260.3068 377.1513,-249.807 370.9126,-252.9817"/>
<text text-anchor="middle" x="382.5" y="-228.5" font-family="Helvetica,sans-Serif" font-size="10.00" fill="#000000"> loader</text>
</g>
<!-- Node52&#45;&gt;Node44 -->
<g id="edge15" class="edge">
<title>Node52&#45;&gt;Node44</title>
<path fill="none" stroke="#9a32cd" stroke-dasharray="5,2" d="M313.78,-173.8179C303.661,-168.2163 292.8275,-160.6062 285.5,-151 270.809,-131.7405 265.8795,-102.7129 264.2627,-87.7242"/>
<polygon fill="#9a32cd" stroke="#9a32cd" points="312.253,-176.968 322.7511,-178.3971 315.4356,-170.7333 312.253,-176.968"/>
<text text-anchor="middle" x="291" y="-126.5" font-family="Helvetica,sans-Serif" font-size="10.00" fill="#000000"> dl</text>
</g>
<!-- Node56&#45;&gt;Node44 -->
<g id="edge17" class="edge">
<title>Node56&#45;&gt;Node44</title>
<path fill="none" stroke="#9a32cd" stroke-dasharray="5,2" d="M225.7598,-25.0009C231.3813,-28.7716 236.9469,-33.1463 241.5,-38 249.8504,-46.9017 256.1155,-59.5686 259.7824,-68.2494"/>
<polygon fill="#9a32cd" stroke="#9a32cd" points="227.363,-21.8771 217.0178,-19.5908 223.6793,-27.8294 227.363,-21.8771"/>
<text text-anchor="middle" x="262" y="-41" font-family="Helvetica,sans-Serif" font-size="10.00" fill="#000000"> proto</text>
</g>
</g>
</svg>
        <g id="navigator" transform="translate(0 0)" fill="#404254">
                <rect fill="#f2f5e9" fill-opacity="0.5" stroke="#606060" stroke-width=".5" x="0" y="0" width="60" height="60"/>
                <use id="zoomplus" xlink:href="#zoomPlus" x="17" y="9" onmousedown="handleZoom(evt,'in')"/>
                <use id="zoomminus" xlink:href="#zoomMin" x="42" y="9" onmousedown="handleZoom(evt,'out')"/>
                <use id="reset" xlink:href="#resetDef" x="30" y="36" onmousedown="handleReset()"/>
                <g id="arrowUp" xlink:href="#dirArrow" transform="translate(30 24)" onmousedown="handlePan(0,-1)">
                  <use xlink:href="#rim" fill="#404040">
                        <set attributeName="fill" to="#808080" begin="arrowUp.mouseover" end="arrowUp.mouseout"/>
                  </use>
                  <path fill="none" stroke="white" stroke-width="1.5" d="M0,-3.0v7 M-2.5,-0.5L0,-3.0L2.5,-0.5"/>
                </g>
                <g id="arrowRight" xlink:href="#dirArrow" transform="rotate(90) translate(36 -43)" onmousedown="handlePan(1,0)">
                  <use xlink:href="#rim" fill="#404040">
                        <set attributeName="fill" to="#808080" begin="arrowRight.mouseover" end="arrowRight.mouseout"/>
                  </use>
                  <path fill="none" stroke="white" stroke-width="1.5" d="M0,-3.0v7 M-2.5,-0.5L0,-3.0L2.5,-0.5"/>
                </g>
                <g id="arrowDown" xlink:href="#dirArrow" transform="rotate(180) translate(-30 -48)" onmousedown="handlePan(0,1)">
                  <use xlink:href="#rim" fill="#404040">
                        <set attributeName="fill" to="#808080" begin="arrowDown.mouseover" end="arrowDown.mouseout"/>
                  </use>
                  <path fill="none" stroke="white" stroke-width="1.5" d="M0,-3.0v7 M-2.5,-0.5L0,-3.0L2.5,-0.5"/>
                </g>
                <g id="arrowLeft" xlink:href="#dirArrow" transform="rotate(270) translate(-36 17)" onmousedown="handlePan(-1,0)">
                  <use xlink:href="#rim" fill="#404040">
                        <set attributeName="fill" to="#808080" begin="arrowLeft.mouseover" end="arrowLeft.mouseout"/>
                  </use>
                  <path fill="none" stroke="white" stroke-width="1.5" d="M0,-3.0v7 M-2.5,-0.5L0,-3.0L2.5,-0.5"/>
                </g>
        </g>
        <svg viewBox="0 0 15 15" width="100%" height="30px" preserveAspectRatio="xMaxYMin meet">
         <g id="arrow_out" transform="scale(0.3 0.3)">
          <a xlink:href="structfr__dict__attr__ext__ref__t__coll__graph_org.svg" target="_base">
           <rect id="button" ry="5" rx="5" y="6" x="6" height="38" width="38"
                fill="#f2f5e9" fill-opacity="0.5" stroke="#606060" stroke-width="1.0"/>
           <path id="arrow"
             d="M 11.500037,31.436501 C 11.940474,20.09759 22.043105,11.32322 32.158766,21.979434 L 37.068811,17.246167 C 37.068811,17.246167 37.088388,32 37.088388,32 L 22.160133,31.978069 C 22.160133,31.978069 26.997745,27.140456 26.997745,27.140456 C 18.528582,18.264221 13.291696,25.230495 11.500037,31.436501 z"
             style="fill:#404040;"/>
          </a>
         </g>
        </svg>
</svg>
