<?xml version="1.0" encoding="UTF-8" standalone="no"?>
<!DOCTYPE svg PUBLIC "-//W3C//DTD SVG 1.1//EN"
 "http://www.w3.org/Graphics/SVG/1.1/DTD/svg11.dtd">
<!-- Generated by graphviz version 2.40.1 (20161225.0304)
 -->
<!-- Title: unlang_frame_state_map_proc_t Pages: 1 -->
<!--zoomable 288 -->
<svg id="main" version="1.1" xmlns="http://www.w3.org/2000/svg" xmlns:xlink="http://www.w3.org/1999/xlink" xml:space="preserve" onload="init(evt)">
<style type="text/css"><![CDATA[
.edge:hover path { stroke: red; }
.edge:hover polygon { stroke: red; fill: red; }
]]></style>
<script type="text/javascript"><![CDATA[
var edges = document.getElementsByTagName('g');
if (edges && edges.length) {
  for (var i=0;i<edges.length;i++) {
    if (edges[i].id.substr(0,4)=='edge') {
      edges[i].setAttribute('class','edge');
    }
  }
}
]]></script>
        <defs>
                <circle id="rim" cx="0" cy="0" r="7"/>
                <circle id="rim2" cx="0" cy="0" r="3.5"/>
                <g id="zoomPlus">
                        <use xlink:href="#rim" fill="#404040">
                                <set attributeName="fill" to="#808080" begin="zoomplus.mouseover" end="zoomplus.mouseout"/>
                        </use>
                        <path d="M-4,0h8M0,-4v8" fill="none" stroke="white" stroke-width="1.5" pointer-events="none"/>
                </g>
                <g id="zoomMin">
                        <use xlink:href="#rim" fill="#404040">
                                <set attributeName="fill" to="#808080" begin="zoomminus.mouseover" end="zoomminus.mouseout"/>
                        </use>
                        <path d="M-4,0h8" fill="none" stroke="white" stroke-width="1.5" pointer-events="none"/>
                </g>
                <g id="dirArrow">
                        <path fill="none" stroke="white" stroke-width="1.5" d="M0,-3.0v7 M-2.5,-0.5L0,-3.0L2.5,-0.5"/>
                </g>
               <g id="resetDef">
                       <use xlink:href="#rim2" fill="#404040">
                               <set attributeName="fill" to="#808080" begin="reset.mouseover" end="reset.mouseout"/>
                       </use>
               </g>
        </defs>

<script type="text/javascript">
var viewWidth = 583;
var viewHeight = 288;
var sectionId = 'dynsection-1';
</script>
<script xlink:href="svgpan.js"/>
<svg id="graph" class="graph">
<g id="viewport">
<title>unlang_frame_state_map_proc_t</title>
<!-- Node1 -->
<g id="node1" class="node">
<title>Node1</title>
<polygon fill="#bfbfbf" stroke="#000000" points="0,-.5 0,-30.5 102,-30.5 102,-.5 0,-.5"/>
<text text-anchor="start" x="8" y="-18.5" font-family="Helvetica,sans-Serif" font-size="10.00" fill="#000000">unlang_frame_state</text>
<text text-anchor="middle" x="51" y="-7.5" font-family="Helvetica,sans-Serif" font-size="10.00" fill="#000000">_map_proc_t</text>
</g>
<!-- Node2 -->
<g id="node2" class="node">
<title>Node2</title>
<g id="a_node2"><a xlink:href="value_8h.html#structvalue__box__s" target="_top" xlink:title="Union containing all data types supported by the server. ">
<polygon fill="none" stroke="#000000" points="194.5,-79.5 194.5,-98.5 265.5,-98.5 265.5,-79.5 194.5,-79.5"/>
<text text-anchor="middle" x="230" y="-86.5" font-family="Helvetica,sans-Serif" font-size="10.00" fill="#000000">value_box_s</text>
</a>
</g>
</g>
<!-- Node2&#45;&gt;Node1 -->
<g id="edge1" class="edge">
<title>Node2&#45;&gt;Node1</title>
<path fill="none" stroke="#9a32cd" stroke-dasharray="5,2" d="M197.1293,-75.5028C166.1897,-62.7986 119.9268,-43.8023 87.7737,-30.5998"/>
<polygon fill="#9a32cd" stroke="#9a32cd" points="196.0189,-78.8304 206.5989,-79.3912 198.6778,-72.355 196.0189,-78.8304"/>
<text text-anchor="middle" x="180" y="-52" font-family="Helvetica,sans-Serif" font-size="10.00" fill="#000000"> src_result</text>
</g>
<!-- Node2&#45;&gt;Node2 -->
<g id="edge2" class="edge">
<title>Node2&#45;&gt;Node2</title>
<path fill="none" stroke="#9a32cd" stroke-dasharray="5,2" d="M275.7805,-94.2561C280.4895,-93.2215 283.5,-91.4695 283.5,-89 283.5,-85.0488 275.7932,-82.9343 265.7532,-82.6565"/>
<polygon fill="#9a32cd" stroke="#9a32cd" points="275.3175,-90.7857 265.7532,-95.3435 276.0723,-97.7449 275.3175,-90.7857"/>
<text text-anchor="middle" x="294.5" y="-86.5" font-family="Helvetica,sans-Serif" font-size="10.00" fill="#000000"> next</text>
</g>
<!-- Node3 -->
<g id="node3" class="node">
<title>Node3</title>
<g id="a_node3"><a xlink:href="dict_8h.html#structdict__attr__s" target="_top" xlink:title="Dictionary attribute. ">
<polygon fill="none" stroke="#000000" points="244,-187 244,-206 306,-206 306,-187 244,-187"/>
<text text-anchor="middle" x="275" y="-194" font-family="Helvetica,sans-Serif" font-size="10.00" fill="#000000">dict_attr_s</text>
</a>
</g>
</g>
<!-- Node3&#45;&gt;Node2 -->
<g id="edge3" class="edge">
<title>Node3&#45;&gt;Node2</title>
<path fill="none" stroke="#9a32cd" stroke-dasharray="5,2" d="M234.0667,-186.079C199.9585,-177.201 156.5376,-165.3623 154,-162 142.2195,-146.3911 142.9076,-134.1052 154,-118 158.9666,-110.789 176.9528,-103.7597 194.1807,-98.4279"/>
<polygon fill="#9a32cd" stroke="#9a32cd" points="233.2888,-189.4929 243.8469,-188.6105 235.043,-182.7162 233.2888,-189.4929"/>
<text text-anchor="middle" x="170.5" y="-137.5" font-family="Helvetica,sans-Serif" font-size="10.00" fill="#000000"> enumv</text>
</g>
<!-- Node3&#45;&gt;Node3 -->
<g id="edge17" class="edge">
<title>Node3&#45;&gt;Node3</title>
<path fill="none" stroke="#9a32cd" stroke-dasharray="5,2" d="M316.1528,-202.8897C320.9088,-201.7061 324,-199.5762 324,-196.5 324,-191.5781 316.0865,-189.0787 306.102,-189.0018"/>
<polygon fill="#9a32cd" stroke="#9a32cd" points="315.658,-199.4229 306.102,-203.9982 316.4254,-206.3807 315.658,-199.4229"/>
<text text-anchor="middle" x="338" y="-205" font-family="Helvetica,sans-Serif" font-size="10.00" fill="#000000"> next</text>
<text text-anchor="middle" x="338" y="-194" font-family="Helvetica,sans-Serif" font-size="10.00" fill="#000000">fixup</text>
<text text-anchor="middle" x="338" y="-183" font-family="Helvetica,sans-Serif" font-size="10.00" fill="#000000">parent</text>
</g>
<!-- Node5 -->
<g id="node5" class="node">
<title>Node5</title>
<g id="a_node5"><a xlink:href="dict__priv_8h.html#structfr__dict" target="_top" xlink:title="Vendors and attribute names. ">
<polygon fill="none" stroke="#000000" points="324,-79.5 324,-98.5 368,-98.5 368,-79.5 324,-79.5"/>
<text text-anchor="middle" x="346" y="-86.5" font-family="Helvetica,sans-Serif" font-size="10.00" fill="#000000">fr_dict</text>
</a>
</g>
</g>
<!-- Node3&#45;&gt;Node5 -->
<g id="edge12" class="edge">
<title>Node3&#45;&gt;Node5</title>
<path fill="none" stroke="#9a32cd" stroke-dasharray="5,2" d="M297.8338,-180.5713C304.3258,-175.2297 310.9862,-168.8679 316,-162 319.9386,-156.6049 335.2834,-117.0732 342.3726,-98.5402"/>
<polygon fill="#9a32cd" stroke="#9a32cd" points="295.6084,-177.8677 289.8373,-186.7529 299.8896,-183.4059 295.6084,-177.8677"/>
<text text-anchor="middle" x="348.5" y="-143" font-family="Helvetica,sans-Serif" font-size="10.00" fill="#000000"> root</text>
<text text-anchor="middle" x="348.5" y="-132" font-family="Helvetica,sans-Serif" font-size="10.00" fill="#000000">fixups</text>
</g>
<!-- Node4 -->
<g id="node4" class="node">
<title>Node4</title>
<g id="a_node4"><a xlink:href="dict_8h.html#structfr__dict__attr__flags__t" target="_top" xlink:title="Values of the encryption flags. ">
<polygon fill="none" stroke="#000000" points="226,-260.5 226,-279.5 324,-279.5 324,-260.5 226,-260.5"/>
<text text-anchor="middle" x="275" y="-267.5" font-family="Helvetica,sans-Serif" font-size="10.00" fill="#000000">fr_dict_attr_flags_t</text>
</a>
</g>
</g>
<!-- Node4&#45;&gt;Node3 -->
<g id="edge4" class="edge">
<title>Node4&#45;&gt;Node3</title>
<path fill="none" stroke="#9a32cd" stroke-dasharray="5,2" d="M275,-250.1616C275,-235.981 275,-217.504 275,-206.3458"/>
<polygon fill="#9a32cd" stroke="#9a32cd" points="271.5001,-250.3911 275,-260.3912 278.5001,-250.3912 271.5001,-250.3911"/>
<text text-anchor="middle" x="287.5" y="-234" font-family="Helvetica,sans-Serif" font-size="10.00" fill="#000000"> flags</text>
</g>
<!-- Node5&#45;&gt;Node3 -->
<g id="edge5" class="edge">
<title>Node5&#45;&gt;Node3</title>
<path fill="none" stroke="#9a32cd" stroke-dasharray="5,2" d="M314.7807,-102.6349C308.1404,-106.7545 301.7184,-111.855 297,-118 280.9672,-138.8803 276.6184,-170.8585 275.4389,-186.7854"/>
<polygon fill="#9a32cd" stroke="#9a32cd" points="316.7812,-105.5278 323.8314,-97.6192 313.3881,-99.4051 316.7812,-105.5278"/>
<text text-anchor="middle" x="306.5" y="-137.5" font-family="Helvetica,sans-Serif" font-size="10.00" fill="#000000"> dict</text>
</g>
<!-- Node5&#45;&gt;Node5 -->
<g id="edge11" class="edge">
<title>Node5&#45;&gt;Node5</title>
<path fill="none" stroke="#9a32cd" stroke-dasharray="5,2" d="M378.4045,-94.7059C382.9533,-93.7751 386,-91.8731 386,-89 386,-84.2852 377.7952,-82.1856 368.2124,-82.7013"/>
<polygon fill="#9a32cd" stroke="#9a32cd" points="377.9922,-91.2239 368.2124,-95.2987 378.3988,-98.212 377.9922,-91.2239"/>
<text text-anchor="middle" x="407.5" y="-86.5" font-family="Helvetica,sans-Serif" font-size="10.00" fill="#000000"> attr_valid</text>
</g>
<!-- Node10 -->
<g id="node8" class="node">
<title>Node10</title>
<g id="a_node8"><a xlink:href="dict__priv_8h.html#structfr__dict__gctx__s" target="_top" xlink:title="fr_dict_gctx_s">
<polygon fill="none" stroke="#ff0000" points="398,-6 398,-25 476,-25 476,-6 398,-6"/>
<text text-anchor="middle" x="437" y="-13" font-family="Helvetica,sans-Serif" font-size="10.00" fill="#000000">fr_dict_gctx_s</text>
</a>
</g>
</g>
<!-- Node5&#45;&gt;Node10 -->
<g id="edge10" class="edge">
<title>Node5&#45;&gt;Node10</title>
<path fill="none" stroke="#9a32cd" stroke-dasharray="5,2" d="M357.3478,-70.5687C362.4402,-63.266 368.9011,-55.1607 376,-49 387.4064,-39.1012 402.2173,-30.8821 414.3884,-25.0626"/>
<polygon fill="#9a32cd" stroke="#9a32cd" points="354.2534,-68.9042 351.6841,-79.1828 360.1025,-72.7499 354.2534,-68.9042"/>
<text text-anchor="middle" x="393.5" y="-52" font-family="Helvetica,sans-Serif" font-size="10.00" fill="#000000"> internal</text>
</g>
<!-- Node17 -->
<g id="node10" class="node">
<title>Node17</title>
<g id="a_node10"><a xlink:href="dict_8h.html#structfr__dict__protocol__t" target="_top" xlink:title="Protocol&#45;specific callbacks in libfreeradius&#45;PROTOCOL. ">
<polygon fill="none" stroke="#000000" points="219,-6 219,-25 311,-25 311,-6 219,-6"/>
<text text-anchor="middle" x="265" y="-13" font-family="Helvetica,sans-Serif" font-size="10.00" fill="#000000">fr_dict_protocol_t</text>
</a>
</g>
</g>
<!-- Node5&#45;&gt;Node17 -->
<g id="edge16" class="edge">
<title>Node5&#45;&gt;Node17</title>
<path fill="none" stroke="#9a32cd" stroke-dasharray="5,2" d="M327.721,-72.4406C323.2332,-68.3734 318.4423,-64.0301 314,-60 300.7228,-47.9549 285.4317,-34.0652 275.5114,-25.0519"/>
<polygon fill="#9a32cd" stroke="#9a32cd" points="325.5703,-75.215 335.3308,-79.3361 330.2706,-70.0278 325.5703,-75.215"/>
<text text-anchor="middle" x="335.5" y="-52" font-family="Helvetica,sans-Serif" font-size="10.00" fill="#000000"> attr_valid</text>
</g>
<!-- Node6 -->
<g id="node6" class="node">
<title>Node6</title>
<g id="a_node6"><a xlink:href="table_8h.html#structfr__table__num__ordered__t" target="_top" xlink:title="An element in an arbitrarily ordered array of name to num mappings. ">
<polygon fill="none" stroke="#ff0000" points="83.5,-187 83.5,-206 202.5,-206 202.5,-187 83.5,-187"/>
<text text-anchor="middle" x="143" y="-194" font-family="Helvetica,sans-Serif" font-size="10.00" fill="#000000">fr_table_num_ordered_t</text>
</a>
</g>
</g>
<!-- Node6&#45;&gt;Node5 -->
<g id="edge6" class="edge">
<title>Node6&#45;&gt;Node5</title>
<path fill="none" stroke="#9a32cd" stroke-dasharray="5,2" d="M166.2047,-180.9944C173.3889,-175.5206 180.988,-168.9766 187,-162 201.6824,-144.9617 193.6214,-130.9655 212,-118 249.6155,-91.4635 269.4303,-111.5175 314,-100 317.1852,-99.1769 320.5081,-98.1875 323.756,-97.144"/>
<polygon fill="#9a32cd" stroke="#9a32cd" points="164.1187,-178.1837 158.0817,-186.8904 168.2306,-183.8488 164.1187,-178.1837"/>
<text text-anchor="middle" x="244" y="-137.5" font-family="Helvetica,sans-Serif" font-size="10.00" fill="#000000"> subtype_table</text>
</g>
<!-- Node6&#45;&gt;Node17 -->
<g id="edge15" class="edge">
<title>Node6&#45;&gt;Node17</title>
<path fill="none" stroke="#9a32cd" stroke-dasharray="5,2" d="M132.1053,-178.2738C118.8874,-153.5387 100.7332,-108.8897 121,-78 142.5284,-45.1874 185.3998,-29.5136 218.7917,-22.0795"/>
<polygon fill="#9a32cd" stroke="#9a32cd" points="129.0554,-179.9907 137.0068,-186.9926 135.1573,-176.5604 129.0554,-179.9907"/>
<text text-anchor="middle" x="153" y="-86.5" font-family="Helvetica,sans-Serif" font-size="10.00" fill="#000000"> subtype_table</text>
</g>
<!-- Node8 -->
<g id="node7" class="node">
<title>Node8</title>
<g id="a_node7"><a xlink:href="hash_8c.html#structfr__hash__table__s" target="_top" xlink:title="fr_hash_table_s">
<polygon fill="none" stroke="#ff0000" points="449,-187 449,-206 535,-206 535,-187 449,-187"/>
<text text-anchor="middle" x="492" y="-194" font-family="Helvetica,sans-Serif" font-size="10.00" fill="#000000">fr_hash_table_s</text>
</a>
</g>
</g>
<!-- Node8&#45;&gt;Node5 -->
<g id="edge7" class="edge">
<title>Node8&#45;&gt;Node5</title>
<path fill="none" stroke="#9a32cd" stroke-dasharray="5,2" d="M455.4149,-182.8499C444.1808,-177.4973 432.3322,-170.5559 423,-162 406.0881,-146.4949 412.4237,-134.0213 396,-118 387.9548,-110.1519 377.3788,-103.6201 368.0264,-98.755"/>
<polygon fill="#9a32cd" stroke="#9a32cd" points="454.0806,-186.0872 464.6383,-186.973 456.9373,-179.6966 454.0806,-186.0872"/>
<text text-anchor="middle" x="463" y="-154" font-family="Helvetica,sans-Serif" font-size="10.00" fill="#000000"> autoref</text>
<text text-anchor="middle" x="463" y="-143" font-family="Helvetica,sans-Serif" font-size="10.00" fill="#000000">vendors_by_num</text>
<text text-anchor="middle" x="463" y="-132" font-family="Helvetica,sans-Serif" font-size="10.00" fill="#000000">attributes_combo</text>
<text text-anchor="middle" x="463" y="-121" font-family="Helvetica,sans-Serif" font-size="10.00" fill="#000000">vendors_by_name</text>
</g>
<!-- Node8&#45;&gt;Node10 -->
<g id="edge9" class="edge">
<title>Node8&#45;&gt;Node10</title>
<path fill="none" stroke="#9a32cd" stroke-dasharray="5,2" d="M499.2217,-177.031C504.1295,-160.939 508.7734,-137.6304 503,-118 491.7133,-79.6233 461.1182,-42.0436 445.8767,-25.0017"/>
<polygon fill="#9a32cd" stroke="#9a32cd" points="495.7781,-176.2906 495.9066,-186.8847 502.4127,-178.5228 495.7781,-176.2906"/>
<text text-anchor="middle" x="535" y="-92" font-family="Helvetica,sans-Serif" font-size="10.00" fill="#000000"> protocol_by_num</text>
<text text-anchor="middle" x="535" y="-81" font-family="Helvetica,sans-Serif" font-size="10.00" fill="#000000">protocol_by_name</text>
</g>
<!-- Node10&#45;&gt;Node5 -->
<g id="edge8" class="edge">
<title>Node10&#45;&gt;Node5</title>
<path fill="none" stroke="#9a32cd" stroke-dasharray="5,2" d="M430.916,-34.9099C427.4077,-43.5113 422.2303,-53.1997 415,-60 401.9377,-72.2855 382.9076,-79.7528 368.1395,-84.0264"/>
<polygon fill="#9a32cd" stroke="#9a32cd" points="434.3084,-35.8188 434.3933,-25.2243 427.7201,-33.4534 434.3084,-35.8188"/>
<text text-anchor="middle" x="434" y="-52" font-family="Helvetica,sans-Serif" font-size="10.00" fill="#000000"> gctx</text>
</g>
<!-- Node13 -->
<g id="node9" class="node">
<title>Node13</title>
<g id="a_node9"><a xlink:href="dl_8h.html#structdl__s" target="_top" xlink:title="Module handle. ">
<polygon fill="none" stroke="#ff0000" points="370.5,-187 370.5,-206 405.5,-206 405.5,-187 370.5,-187"/>
<text text-anchor="middle" x="388" y="-194" font-family="Helvetica,sans-Serif" font-size="10.00" fill="#000000">dl_s</text>
</a>
</g>
</g>
<!-- Node13&#45;&gt;Node5 -->
<g id="edge13" class="edge">
<title>Node13&#45;&gt;Node5</title>
<path fill="none" stroke="#9a32cd" stroke-dasharray="5,2" d="M384.4099,-176.993C380.9777,-160.7113 374.9839,-137.1577 366,-118 362.7801,-111.1337 357.9871,-104.1152 353.9004,-98.7029"/>
<polygon fill="#9a32cd" stroke="#9a32cd" points="381.0075,-177.8294 386.3821,-186.9597 387.8743,-176.4705 381.0075,-177.8294"/>
<text text-anchor="middle" x="386.5" y="-137.5" font-family="Helvetica,sans-Serif" font-size="10.00" fill="#000000"> dl</text>
</g>
<!-- Node17&#45;&gt;Node5 -->
<g id="edge14" class="edge">
<title>Node17&#45;&gt;Node5</title>
<path fill="none" stroke="#9a32cd" stroke-dasharray="5,2" d="M260.7881,-35.3947C260.1406,-43.6991 260.9856,-53.0168 266,-60 266.894,-61.245 300.2663,-73.0691 323.6207,-81.229"/>
<polygon fill="#9a32cd" stroke="#9a32cd" points="264.2739,-35.7475 262.274,-25.3431 257.3492,-34.7238 264.2739,-35.7475"/>
<text text-anchor="middle" x="278.5" y="-52" font-family="Helvetica,sans-Serif" font-size="10.00" fill="#000000"> proto</text>
</g>
</g>
</svg>
        <g id="navigator" transform="translate(0 0)" fill="#404254">
                <rect fill="#f2f5e9" fill-opacity="0.5" stroke="#606060" stroke-width=".5" x="0" y="0" width="60" height="60"/>
                <use id="zoomplus" xlink:href="#zoomPlus" x="17" y="9" onmousedown="handleZoom(evt,'in')"/>
                <use id="zoomminus" xlink:href="#zoomMin" x="42" y="9" onmousedown="handleZoom(evt,'out')"/>
                <use id="reset" xlink:href="#resetDef" x="30" y="36" onmousedown="handleReset()"/>
                <g id="arrowUp" xlink:href="#dirArrow" transform="translate(30 24)" onmousedown="handlePan(0,-1)">
                  <use xlink:href="#rim" fill="#404040">
                        <set attributeName="fill" to="#808080" begin="arrowUp.mouseover" end="arrowUp.mouseout"/>
                  </use>
                  <path fill="none" stroke="white" stroke-width="1.5" d="M0,-3.0v7 M-2.5,-0.5L0,-3.0L2.5,-0.5"/>
                </g>
                <g id="arrowRight" xlink:href="#dirArrow" transform="rotate(90) translate(36 -43)" onmousedown="handlePan(1,0)">
                  <use xlink:href="#rim" fill="#404040">
                        <set attributeName="fill" to="#808080" begin="arrowRight.mouseover" end="arrowRight.mouseout"/>
                  </use>
                  <path fill="none" stroke="white" stroke-width="1.5" d="M0,-3.0v7 M-2.5,-0.5L0,-3.0L2.5,-0.5"/>
                </g>
                <g id="arrowDown" xlink:href="#dirArrow" transform="rotate(180) translate(-30 -48)" onmousedown="handlePan(0,1)">
                  <use xlink:href="#rim" fill="#404040">
                        <set attributeName="fill" to="#808080" begin="arrowDown.mouseover" end="arrowDown.mouseout"/>
                  </use>
                  <path fill="none" stroke="white" stroke-width="1.5" d="M0,-3.0v7 M-2.5,-0.5L0,-3.0L2.5,-0.5"/>
                </g>
                <g id="arrowLeft" xlink:href="#dirArrow" transform="rotate(270) translate(-36 17)" onmousedown="handlePan(-1,0)">
                  <use xlink:href="#rim" fill="#404040">
                        <set attributeName="fill" to="#808080" begin="arrowLeft.mouseover" end="arrowLeft.mouseout"/>
                  </use>
                  <path fill="none" stroke="white" stroke-width="1.5" d="M0,-3.0v7 M-2.5,-0.5L0,-3.0L2.5,-0.5"/>
                </g>
        </g>
        <svg viewBox="0 0 15 15" width="100%" height="30px" preserveAspectRatio="xMaxYMin meet">
         <g id="arrow_out" transform="scale(0.3 0.3)">
          <a xlink:href="structunlang__frame__state__map__proc__t__coll__graph_org.svg" target="_base">
           <rect id="button" ry="5" rx="5" y="6" x="6" height="38" width="38"
                fill="#f2f5e9" fill-opacity="0.5" stroke="#606060" stroke-width="1.0"/>
           <path id="arrow"
             d="M 11.500037,31.436501 C 11.940474,20.09759 22.043105,11.32322 32.158766,21.979434 L 37.068811,17.246167 C 37.068811,17.246167 37.088388,32 37.088388,32 L 22.160133,31.978069 C 22.160133,31.978069 26.997745,27.140456 26.997745,27.140456 C 18.528582,18.264221 13.291696,25.230495 11.500037,31.436501 z"
             style="fill:#404040;"/>
          </a>
         </g>
        </svg>
</svg>
