<?xml version="1.0" encoding="UTF-8" standalone="no"?>
<!DOCTYPE svg PUBLIC "-//W3C//DTD SVG 1.1//EN"
 "http://www.w3.org/Graphics/SVG/1.1/DTD/svg11.dtd">
<!-- Generated by graphviz version 2.40.1 (20161225.0304)
 -->
<!-- Title: fr_struct_to_network_dbuff Pages: 1 -->
<svg width="1243pt" height="679pt"
 viewBox="0.00 0.00 1243.00 679.07" xmlns="http://www.w3.org/2000/svg" xmlns:xlink="http://www.w3.org/1999/xlink">
<g id="graph0" class="graph" transform="scale(1 1) rotate(0) translate(4 675.0659)">
<title>fr_struct_to_network_dbuff</title>
<!-- Node1821 -->
<g id="node1" class="node">
<title>Node1821</title>
<polygon fill="#bfbfbf" stroke="#000000" points="0,-242 0,-272 106,-272 106,-242 0,-242"/>
<text text-anchor="start" x="8" y="-260" font-family="Helvetica,sans-Serif" font-size="10.00" fill="#000000">fr_struct_to_network</text>
<text text-anchor="middle" x="53" y="-249" font-family="Helvetica,sans-Serif" font-size="10.00" fill="#000000">_dbuff</text>
</g>
<!-- Node1821&#45;&gt;Node1821 -->
<g id="edge60" class="edge">
<title>Node1821&#45;&gt;Node1821</title>
<path fill="none" stroke="#191970" d="M29.9963,-272.159C24.4493,-281.5566 32.1172,-290.5 53,-290.5 65.7255,-290.5 73.5437,-287.179 76.4548,-282.4579"/>
<polygon fill="#191970" stroke="#191970" points="79.938,-281.9962 76.0037,-272.159 72.9447,-282.3026 79.938,-281.9962"/>
</g>
<!-- Node1822 -->
<g id="node2" class="node">
<title>Node1822</title>
<g id="a_node2"><a xlink:href="cursor_8c.html#a92733b72ea218ecff0bc7808fae613b7" target="_top" xlink:title="Return the item the cursor current points to. ">
<polygon fill="none" stroke="#000000" points="294,-456.5 294,-475.5 384,-475.5 384,-456.5 294,-456.5"/>
<text text-anchor="middle" x="339" y="-463.5" font-family="Helvetica,sans-Serif" font-size="10.00" fill="#000000">fr_cursor_current</text>
</a>
</g>
</g>
<!-- Node1821&#45;&gt;Node1822 -->
<g id="edge1" class="edge">
<title>Node1821&#45;&gt;Node1822</title>
<path fill="none" stroke="#191970" d="M65.4526,-272.0065C81.9614,-291.482 112.462,-326.0404 142,-352 193.4211,-397.1917 206.0553,-410.8205 267,-442 275.3559,-446.2749 284.6364,-450.029 293.68,-453.2212"/>
<polygon fill="#191970" stroke="#191970" points="292.7514,-456.6013 303.3453,-456.4625 294.9771,-449.9645 292.7514,-456.6013"/>
</g>
<!-- Node1823 -->
<g id="node3" class="node">
<title>Node1823</title>
<g id="a_node3"><a xlink:href="strerror_8c.html#ae701765650b8aea79a3037bc4921d7f8" target="_top" xlink:title="Log to thread local error buffer. ">
<polygon fill="none" stroke="#000000" points="599,-430.5 599,-449.5 685,-449.5 685,-430.5 599,-430.5"/>
<text text-anchor="middle" x="642" y="-437.5" font-family="Helvetica,sans-Serif" font-size="10.00" fill="#000000">fr_strerror_printf</text>
</a>
</g>
</g>
<!-- Node1821&#45;&gt;Node1823 -->
<g id="edge2" class="edge">
<title>Node1821&#45;&gt;Node1823</title>
<path fill="none" stroke="#191970" d="M59.8172,-272.1842C72.8122,-299.9413 103.3136,-359.7156 142,-400 188.5349,-448.4571 202.7895,-465.2366 267,-485 388.9021,-522.5203 542.0552,-477.0431 608.5911,-453.0336"/>
<polygon fill="#191970" stroke="#191970" points="609.9617,-456.2588 618.1371,-449.5199 607.5437,-449.6897 609.9617,-456.2588"/>
</g>
<!-- Node1957 -->
<g id="node21" class="node">
<title>Node1957</title>
<g id="a_node21"><a xlink:href="dict_8h.html#ade71dd6bfb60945aa34a7f0d5286d6c1" target="_top" xlink:title="Check if a child attribute exists in a parent using an attribute number. ">
<polygon fill="none" stroke="#000000" points="142,-179 142,-209 231,-209 231,-179 142,-179"/>
<text text-anchor="start" x="150" y="-197" font-family="Helvetica,sans-Serif" font-size="10.00" fill="#000000">fr_dict_attr_child</text>
<text text-anchor="middle" x="186.5" y="-186" font-family="Helvetica,sans-Serif" font-size="10.00" fill="#000000">_by_num</text>
</a>
</g>
</g>
<!-- Node1821&#45;&gt;Node1957 -->
<g id="edge31" class="edge">
<title>Node1821&#45;&gt;Node1957</title>
<path fill="none" stroke="#191970" d="M84.9766,-241.9099C103.0076,-233.4009 125.7355,-222.6754 145.1133,-213.5308"/>
<polygon fill="#191970" stroke="#191970" points="146.7718,-216.6184 154.3217,-209.1853 143.7843,-210.2878 146.7718,-216.6184"/>
</g>
<!-- Node1961 -->
<g id="node26" class="node">
<title>Node1961</title>
<g id="a_node26"><a xlink:href="struct_8c.html#ad60fc5e6d828638cc5ae42c4dca84c76" target="_top" xlink:title="Put bits into an output dbuff. ">
<polygon fill="none" stroke="#000000" points="147.5,-102.5 147.5,-121.5 225.5,-121.5 225.5,-102.5 147.5,-102.5"/>
<text text-anchor="middle" x="186.5" y="-109.5" font-family="Helvetica,sans-Serif" font-size="10.00" fill="#000000">put_bits_dbuff</text>
</a>
</g>
</g>
<!-- Node1821&#45;&gt;Node1961 -->
<g id="edge38" class="edge">
<title>Node1821&#45;&gt;Node1961</title>
<path fill="none" stroke="#191970" d="M61.1132,-241.9447C74.9988,-217.2781 105.3943,-167.8227 142,-136 145.956,-132.5609 150.488,-129.4203 155.1118,-126.626"/>
<polygon fill="#191970" stroke="#191970" points="156.9491,-129.6092 163.9897,-121.6921 153.5486,-123.4906 156.9491,-129.6092"/>
</g>
<!-- Node1845 -->
<g id="node27" class="node">
<title>Node1845</title>
<g id="a_node27"><a xlink:href="cursor_8c.html#af6c2090d1e00319075d6def5aa2666fd" target="_top" xlink:title="Advanced the cursor to the next item. ">
<polygon fill="none" stroke="#ff0000" points="465.5,-342.5 465.5,-361.5 544.5,-361.5 544.5,-342.5 465.5,-342.5"/>
<text text-anchor="middle" x="505" y="-349.5" font-family="Helvetica,sans-Serif" font-size="10.00" fill="#000000">fr_cursor_next</text>
</a>
</g>
</g>
<!-- Node1821&#45;&gt;Node1845 -->
<g id="edge39" class="edge">
<title>Node1821&#45;&gt;Node1845</title>
<path fill="none" stroke="#191970" d="M106.3532,-260.8129C199.3602,-267.7327 383.903,-282.7739 411,-295 430.7845,-303.9267 428.6931,-316.3395 447,-328 453.1927,-331.9444 460.1431,-335.475 467.0236,-338.5363"/>
<polygon fill="#191970" stroke="#191970" points="465.709,-341.7803 476.2848,-342.4149 468.413,-335.3236 465.709,-341.7803"/>
</g>
<!-- Node1962 -->
<g id="node28" class="node">
<title>Node1962</title>
<g id="a_node28"><a xlink:href="proto_8c.html#a1097e0481003e69568734523603d298a" target="_top" xlink:title="Build a complete DA stack from the da back to the root. ">
<polygon fill="none" stroke="#000000" points="279,-89.5 279,-108.5 399,-108.5 399,-89.5 279,-89.5"/>
<text text-anchor="middle" x="339" y="-96.5" font-family="Helvetica,sans-Serif" font-size="10.00" fill="#000000">fr_proto_da_stack_build</text>
</a>
</g>
</g>
<!-- Node1821&#45;&gt;Node1962 -->
<g id="edge40" class="edge">
<title>Node1821&#45;&gt;Node1962</title>
<path fill="none" stroke="#191970" d="M65.1073,-241.7791C81.0139,-222.619 110.6298,-189.713 142,-169 154.5179,-160.7347 252.7738,-122.757 267,-118 274.161,-115.6055 281.8022,-113.3146 289.3317,-111.2047"/>
<polygon fill="#191970" stroke="#191970" points="290.3861,-114.5451 299.1159,-108.5417 288.5477,-107.7908 290.3861,-114.5451"/>
</g>
<!-- Node1964 -->
<g id="node30" class="node">
<title>Node1964</title>
<g id="a_node30"><a xlink:href="lib_2eap__aka__sim_2encode_8c.html#a95262349e8b300e3cd5dd666cfac78e5" target="_top" xlink:title="Encodes the data portion of an attribute. ">
<polygon fill="none" stroke="#000000" points="148,-323.5 148,-342.5 225,-342.5 225,-323.5 148,-323.5"/>
<text text-anchor="middle" x="186.5" y="-330.5" font-family="Helvetica,sans-Serif" font-size="10.00" fill="#000000">encode_value</text>
</a>
</g>
</g>
<!-- Node1821&#45;&gt;Node1964 -->
<g id="edge43" class="edge">
<title>Node1821&#45;&gt;Node1964</title>
<path fill="none" stroke="#191970" d="M79.3753,-272.0152C102.8842,-285.3985 137.0956,-304.8746 160.4921,-318.194"/>
<polygon fill="#191970" stroke="#191970" points="159.0684,-321.4109 169.4905,-323.3167 162.5316,-315.3276 159.0684,-321.4109"/>
</g>
<!-- Node1966 -->
<g id="node32" class="node">
<title>Node1966</title>
<g id="a_node32"><a xlink:href="value_8c.html#ad76c83e1153803b7ae42d49c3ee99647" target="_top" xlink:title="Encode a single value box, serializing its contents in generic network format. ">
<polygon fill="none" stroke="#000000" points="276.5,-228.5 276.5,-247.5 401.5,-247.5 401.5,-228.5 276.5,-228.5"/>
<text text-anchor="middle" x="339" y="-235.5" font-family="Helvetica,sans-Serif" font-size="10.00" fill="#000000">fr_value_box_to_network</text>
</a>
</g>
</g>
<!-- Node1821&#45;&gt;Node1966 -->
<g id="edge59" class="edge">
<title>Node1821&#45;&gt;Node1966</title>
<path fill="none" stroke="#191970" d="M106.1241,-253.4708C151.2362,-250.4738 216.4167,-246.1436 266.353,-242.8262"/>
<polygon fill="#191970" stroke="#191970" points="266.6993,-246.311 276.4453,-242.1557 266.2353,-239.3264 266.6993,-246.311"/>
</g>
<!-- Node1824 -->
<g id="node4" class="node">
<title>Node1824</title>
<g id="a_node4"><a xlink:href="acutest_8h.html#aecf9a9be8105efb1454cd8c1ef6cb1c5" target="_top" xlink:title="va_start">
<polygon fill="none" stroke="#000000" points="1158.5,-636.5 1158.5,-655.5 1210.5,-655.5 1210.5,-636.5 1158.5,-636.5"/>
<text text-anchor="middle" x="1184.5" y="-643.5" font-family="Helvetica,sans-Serif" font-size="10.00" fill="#000000">va_start</text>
</a>
</g>
</g>
<!-- Node1823&#45;&gt;Node1824 -->
<g id="edge3" class="edge">
<title>Node1823&#45;&gt;Node1824</title>
<path fill="none" stroke="#191970" d="M645.274,-449.8573C654.0012,-474.8785 679.9898,-541.7823 721,-583 766.6104,-628.8412 785.8804,-636.0312 848,-654 953.6002,-684.5461 1085.7064,-665.8798 1148.3418,-653.8326"/>
<polygon fill="#191970" stroke="#191970" points="1149.3681,-657.1974 1158.4963,-651.8191 1148.0065,-650.3311 1149.3681,-657.1974"/>
</g>
<!-- Node1825 -->
<g id="node5" class="node">
<title>Node1825</title>
<g id="a_node5"><a xlink:href="strerror_8c.html#a193b1e0b3712e3bbee338812c06af482" target="_top" xlink:title="fr_strerror_vprintf">
<polygon fill="none" stroke="#000000" points="721,-456.5 721,-475.5 812,-475.5 812,-456.5 721,-456.5"/>
<text text-anchor="middle" x="766.5" y="-463.5" font-family="Helvetica,sans-Serif" font-size="10.00" fill="#000000">fr_strerror_vprintf</text>
</a>
</g>
</g>
<!-- Node1823&#45;&gt;Node1825 -->
<g id="edge4" class="edge">
<title>Node1823&#45;&gt;Node1825</title>
<path fill="none" stroke="#191970" d="M685.1947,-449.0206C693.4732,-450.7494 702.2494,-452.5822 710.8552,-454.3794"/>
<polygon fill="#191970" stroke="#191970" points="710.3351,-457.8462 720.8395,-456.4645 711.7662,-450.994 710.3351,-457.8462"/>
</g>
<!-- Node1828 -->
<g id="node8" class="node">
<title>Node1828</title>
<g id="a_node8"><a xlink:href="acutest_8h.html#a36af1f79dd6adf0809c21e76535034d5" target="_top" xlink:title="va_end">
<polygon fill="none" stroke="#000000" points="1160.5,-579.5 1160.5,-598.5 1208.5,-598.5 1208.5,-579.5 1160.5,-579.5"/>
<text text-anchor="middle" x="1184.5" y="-586.5" font-family="Helvetica,sans-Serif" font-size="10.00" fill="#000000">va_end</text>
</a>
</g>
</g>
<!-- Node1823&#45;&gt;Node1828 -->
<g id="edge30" class="edge">
<title>Node1823&#45;&gt;Node1828</title>
<path fill="none" stroke="#191970" d="M648.8706,-449.5345C672.3608,-481.2702 753.2809,-583.6581 848,-625 949.951,-669.4985 990.3106,-664.8769 1098,-637 1122.2695,-630.7175 1146.9852,-615.9938 1163.7478,-604.4977"/>
<polygon fill="#191970" stroke="#191970" points="1166.0526,-607.1541 1172.1888,-598.5171 1162.0058,-601.4424 1166.0526,-607.1541"/>
</g>
<!-- Node1826 -->
<g id="node6" class="node">
<title>Node1826</title>
<g id="a_node6"><a xlink:href="strerror_8c.html#a42c2cc9f76fb9dac723a1903c181e1c7" target="_top" xlink:title="Initialise thread local storage. ">
<polygon fill="none" stroke="#000000" points="857,-570.5 857,-589.5 934,-589.5 934,-570.5 857,-570.5"/>
<text text-anchor="middle" x="895.5" y="-577.5" font-family="Helvetica,sans-Serif" font-size="10.00" fill="#000000">fr_strerror_init</text>
</a>
</g>
</g>
<!-- Node1825&#45;&gt;Node1826 -->
<g id="edge5" class="edge">
<title>Node1825&#45;&gt;Node1826</title>
<path fill="none" stroke="#191970" d="M773.4019,-475.739C786.3734,-493.5051 815.982,-531.5898 848,-556 852.5922,-559.5011 857.7734,-562.7232 862.9822,-565.5938"/>
<polygon fill="#191970" stroke="#191970" points="861.7726,-568.9073 872.2666,-570.3657 864.9726,-562.6815 861.7726,-568.9073"/>
</g>
<!-- Node1827 -->
<g id="node7" class="node">
<title>Node1827</title>
<g id="a_node7"><a xlink:href="strerror_8c.html#a2c8e65d6d4b73fb705cc023f60acb099" target="_top" xlink:title="Print the current error to stderr with a prefix. ">
<polygon fill="none" stroke="#ff0000" points="1012,-608.5 1012,-627.5 1065,-627.5 1065,-608.5 1012,-608.5"/>
<text text-anchor="middle" x="1038.5" y="-615.5" font-family="Helvetica,sans-Serif" font-size="10.00" fill="#000000">fr_perror</text>
</a>
</g>
</g>
<!-- Node1825&#45;&gt;Node1827 -->
<g id="edge12" class="edge">
<title>Node1825&#45;&gt;Node1827</title>
<path fill="none" stroke="#191970" d="M769.2042,-475.8464C776.7666,-501.3002 800.7414,-569.3567 848,-599 894.7524,-628.3258 961.0001,-627.6025 1001.7842,-623.4734"/>
<polygon fill="#191970" stroke="#191970" points="1002.2841,-626.9393 1011.8263,-622.3353 1001.4958,-619.9838 1002.2841,-626.9393"/>
</g>
<!-- Node1825&#45;&gt;Node1828 -->
<g id="edge28" class="edge">
<title>Node1825&#45;&gt;Node1828</title>
<path fill="none" stroke="#191970" d="M801.4554,-475.5966C862.0277,-492.3199 990.3441,-528.1605 1098,-561 1115.3388,-566.2891 1134.529,-572.4677 1150.4201,-577.6733"/>
<polygon fill="#191970" stroke="#191970" points="1149.7408,-581.1343 1160.3338,-580.9345 1151.9283,-574.4848 1149.7408,-581.1343"/>
</g>
<!-- Node1834 -->
<g id="node10" class="node">
<title>Node1834</title>
<g id="a_node10"><a xlink:href="strerror_8c.html#a9d878c1ddb1b385cdaf6523fff68529c" target="_top" xlink:title="Reset cursor state. ">
<polygon fill="none" stroke="#000000" points="1142,-456.5 1142,-475.5 1227,-475.5 1227,-456.5 1142,-456.5"/>
<text text-anchor="middle" x="1184.5" y="-463.5" font-family="Helvetica,sans-Serif" font-size="10.00" fill="#000000">fr_strerror_clear</text>
</a>
</g>
</g>
<!-- Node1825&#45;&gt;Node1834 -->
<g id="edge11" class="edge">
<title>Node1825&#45;&gt;Node1834</title>
<path fill="none" stroke="#191970" d="M812.029,-466C890.0502,-466 1048.8763,-466 1131.6542,-466"/>
<polygon fill="#191970" stroke="#191970" points="1131.8458,-469.5001 1141.8458,-466 1131.8458,-462.5001 1131.8458,-469.5001"/>
</g>
<!-- Node1835 -->
<g id="node11" class="node">
<title>Node1835</title>
<g id="a_node11"><a xlink:href="print_8c.html#a27ae94b5a4c77de49aa2f387765a4d58" target="_top" xlink:title="Special version of vasprintf which implements custom format specifiers. ">
<polygon fill="none" stroke="#000000" points="863,-323.5 863,-342.5 928,-342.5 928,-323.5 863,-323.5"/>
<text text-anchor="middle" x="895.5" y="-330.5" font-family="Helvetica,sans-Serif" font-size="10.00" fill="#000000">fr_vasprintf</text>
</a>
</g>
</g>
<!-- Node1825&#45;&gt;Node1835 -->
<g id="edge13" class="edge">
<title>Node1825&#45;&gt;Node1835</title>
<path fill="none" stroke="#191970" d="M775.7774,-456.435C797.4278,-434.1132 851.5275,-378.336 878.9734,-350.039"/>
<polygon fill="#191970" stroke="#191970" points="881.5087,-352.4522 885.9587,-342.8372 876.4839,-347.5786 881.5087,-352.4522"/>
</g>
<!-- Node1956 -->
<g id="node20" class="node">
<title>Node1956</title>
<g id="a_node20"><a xlink:href="cursor_8c.html#a5d942382660657c3b4cb6e9cb2b12b2c" target="_top" xlink:title="Insert a single item at the start of the list. ">
<polygon fill="none" stroke="#000000" points="848,-418.5 848,-437.5 943,-437.5 943,-418.5 848,-418.5"/>
<text text-anchor="middle" x="895.5" y="-425.5" font-family="Helvetica,sans-Serif" font-size="10.00" fill="#000000">fr_cursor_prepend</text>
</a>
</g>
</g>
<!-- Node1825&#45;&gt;Node1956 -->
<g id="edge29" class="edge">
<title>Node1825&#45;&gt;Node1956</title>
<path fill="none" stroke="#191970" d="M799.0521,-456.411C815.3993,-451.5956 835.4092,-445.7012 852.9571,-440.532"/>
<polygon fill="#191970" stroke="#191970" points="854.3548,-443.7691 862.9583,-437.5859 852.3768,-437.0543 854.3548,-443.7691"/>
</g>
<!-- Node1826&#45;&gt;Node1827 -->
<g id="edge6" class="edge">
<title>Node1826&#45;&gt;Node1827</title>
<path fill="none" stroke="#191970" d="M931.5849,-589.589C953.156,-595.3212 980.4806,-602.5823 1002.1062,-608.3289"/>
<polygon fill="#191970" stroke="#191970" points="1001.3431,-611.7475 1011.9066,-610.9332 1003.1409,-604.9823 1001.3431,-611.7475"/>
</g>
<!-- Node1833 -->
<g id="node9" class="node">
<title>Node1833</title>
<g id="a_node9"><a xlink:href="strerror_8c.html#afe66becac3be1b0b82b90889d27fcf99" target="_top" xlink:title="_fr_logging_free">
<polygon fill="none" stroke="#000000" points="995.5,-570.5 995.5,-589.5 1081.5,-589.5 1081.5,-570.5 995.5,-570.5"/>
<text text-anchor="middle" x="1038.5" y="-577.5" font-family="Helvetica,sans-Serif" font-size="10.00" fill="#000000">_fr_logging_free</text>
</a>
</g>
</g>
<!-- Node1826&#45;&gt;Node1833 -->
<g id="edge9" class="edge">
<title>Node1826&#45;&gt;Node1833</title>
<path fill="none" stroke="#191970" d="M934.1979,-580C949.884,-580 968.2593,-580 985.1797,-580"/>
<polygon fill="#191970" stroke="#191970" points="985.4901,-583.5001 995.49,-580 985.49,-576.5001 985.4901,-583.5001"/>
</g>
<!-- Node1826&#45;&gt;Node1834 -->
<g id="edge10" class="edge">
<title>Node1826&#45;&gt;Node1834</title>
<path fill="none" stroke="#191970" d="M919.6429,-570.4765C971.0678,-550.1913 1091.5271,-502.6744 1150.61,-479.3684"/>
<polygon fill="#191970" stroke="#191970" points="1152.2045,-482.5019 1160.2226,-475.5766 1149.6358,-475.9902 1152.2045,-482.5019"/>
</g>
<!-- Node1827&#45;&gt;Node1824 -->
<g id="edge7" class="edge">
<title>Node1827&#45;&gt;Node1824</title>
<path fill="none" stroke="#191970" d="M1065.2787,-623.1356C1088.5765,-627.6037 1122.5445,-634.1181 1148.2686,-639.0515"/>
<polygon fill="#191970" stroke="#191970" points="1147.9021,-642.5449 1158.3823,-640.9911 1149.2206,-635.6702 1147.9021,-642.5449"/>
</g>
<!-- Node1827&#45;&gt;Node1828 -->
<g id="edge8" class="edge">
<title>Node1827&#45;&gt;Node1828</title>
<path fill="none" stroke="#191970" d="M1065.2787,-612.681C1089.1553,-607.9383 1124.239,-600.9697 1150.1704,-595.8189"/>
<polygon fill="#191970" stroke="#191970" points="1151.1878,-599.1853 1160.3143,-593.804 1149.824,-592.3194 1151.1878,-599.1853"/>
</g>
<!-- Node1835&#45;&gt;Node1823 -->
<g id="edge17" class="edge">
<title>Node1835&#45;&gt;Node1823</title>
<path fill="none" stroke="#191970" d="M872.791,-342.5853C827.6429,-361.6419 726.4795,-404.342 674.3778,-426.3336"/>
<polygon fill="#191970" stroke="#191970" points="672.7954,-423.2025 664.9435,-430.3157 675.5175,-429.6515 672.7954,-423.2025"/>
</g>
<!-- Node1835&#45;&gt;Node1828 -->
<g id="edge15" class="edge">
<title>Node1835&#45;&gt;Node1828</title>
<path fill="none" stroke="#191970" d="M905.9867,-342.6625C921.752,-357.162 952.5348,-385.3692 979,-409 1047.124,-469.8279 1129.0347,-540.9908 1165.4468,-572.5243"/>
<polygon fill="#191970" stroke="#191970" points="1163.4447,-575.4203 1173.2964,-579.3184 1168.0258,-570.1275 1163.4447,-575.4203"/>
</g>
<!-- Node1836 -->
<g id="node12" class="node">
<title>Node1836</title>
<g id="a_node12"><a xlink:href="value_8h.html#a878e0abfce7189a1784cdf15bc9fc3a3" target="_top" xlink:title="fr_value_box_aprint">
<polygon fill="none" stroke="#000000" points="1134,-257.5 1134,-276.5 1235,-276.5 1235,-257.5 1134,-257.5"/>
<text text-anchor="middle" x="1184.5" y="-264.5" font-family="Helvetica,sans-Serif" font-size="10.00" fill="#000000">fr_value_box_aprint</text>
</a>
</g>
</g>
<!-- Node1835&#45;&gt;Node1836 -->
<g id="edge14" class="edge">
<title>Node1835&#45;&gt;Node1836</title>
<path fill="none" stroke="#191970" d="M912.5262,-323.4604C929.0141,-314.6603 954.9769,-301.9404 979,-295 1026.5154,-281.2725 1082.2038,-274.2151 1123.6151,-270.6222"/>
<polygon fill="#191970" stroke="#191970" points="1124.1433,-274.0906 1133.8221,-269.7814 1123.5685,-267.1142 1124.1433,-274.0906"/>
</g>
<!-- Node1837 -->
<g id="node13" class="node">
<title>Node1837</title>
<g id="a_node13"><a xlink:href="talloc_8c.html#a3536feb85c89aa239851ef0830b72e64" target="_top" xlink:title="Call talloc_strdup, setting the type on the new chunk correctly. ">
<polygon fill="none" stroke="#000000" points="1134,-200.5 1134,-219.5 1235,-219.5 1235,-200.5 1134,-200.5"/>
<text text-anchor="middle" x="1184.5" y="-207.5" font-family="Helvetica,sans-Serif" font-size="10.00" fill="#000000">talloc_typed_strdup</text>
</a>
</g>
</g>
<!-- Node1835&#45;&gt;Node1837 -->
<g id="edge16" class="edge">
<title>Node1835&#45;&gt;Node1837</title>
<path fill="none" stroke="#191970" d="M899.1083,-323.385C908.3123,-300.4096 935.0864,-242.4903 979,-219 1023.1654,-195.375 1080.6208,-194.9356 1123.5467,-199.3676"/>
<polygon fill="#191970" stroke="#191970" points="1123.2425,-202.8555 1133.5762,-200.518 1124.0402,-195.9011 1123.2425,-202.8555"/>
</g>
<!-- Node1838 -->
<g id="node14" class="node">
<title>Node1838</title>
<g id="a_node14"><a xlink:href="value_8c.html#a3a0550d465b81917f8b0c69a3373163e" target="_top" xlink:title="Convert one type of fr_value_box_t to another. ">
<polygon fill="none" stroke="#ff0000" points="990.5,-152.5 990.5,-171.5 1086.5,-171.5 1086.5,-152.5 990.5,-152.5"/>
<text text-anchor="middle" x="1038.5" y="-159.5" font-family="Helvetica,sans-Serif" font-size="10.00" fill="#000000">fr_value_box_cast</text>
</a>
</g>
</g>
<!-- Node1835&#45;&gt;Node1838 -->
<g id="edge18" class="edge">
<title>Node1835&#45;&gt;Node1838</title>
<path fill="none" stroke="#191970" d="M899.9771,-323.2808C913.6878,-293.8536 955.5856,-206.4867 979,-186 983.511,-182.0531 988.7546,-178.705 994.2235,-175.8784"/>
<polygon fill="#191970" stroke="#191970" points="995.9202,-178.9508 1003.5503,-171.6002 993.0017,-172.5882 995.9202,-178.9508"/>
</g>
<!-- Node1952 -->
<g id="node16" class="node">
<title>Node1952</title>
<g id="a_node16"><a xlink:href="strerror_8c.html#a83ee876ee41b1ae672dc4dcda4f02a2e" target="_top" xlink:title="Get the last library error. ">
<polygon fill="none" stroke="#ff0000" points="1009,-380.5 1009,-399.5 1068,-399.5 1068,-380.5 1009,-380.5"/>
<text text-anchor="middle" x="1038.5" y="-387.5" font-family="Helvetica,sans-Serif" font-size="10.00" fill="#000000">fr_strerror</text>
</a>
</g>
</g>
<!-- Node1835&#45;&gt;Node1952 -->
<g id="edge21" class="edge">
<title>Node1835&#45;&gt;Node1952</title>
<path fill="none" stroke="#191970" d="M914.7936,-342.5665C931.542,-350.6803 956.561,-362.3461 979,-371 985.4578,-373.4905 992.3941,-375.9202 999.169,-378.1647"/>
<polygon fill="#191970" stroke="#191970" points="998.3131,-381.5662 1008.9048,-381.306 1000.4626,-374.9043 998.3131,-381.5662"/>
</g>
<!-- Node1848 -->
<g id="node17" class="node">
<title>Node1848</title>
<g id="a_node17"><a xlink:href="value_8c.html#ad5da2574fed047b3ae861999d06c38ac" target="_top" xlink:title="Clear/free any existing value and metadata. ">
<polygon fill="none" stroke="#ff0000" points="989.5,-342.5 989.5,-361.5 1087.5,-361.5 1087.5,-342.5 989.5,-342.5"/>
<text text-anchor="middle" x="1038.5" y="-349.5" font-family="Helvetica,sans-Serif" font-size="10.00" fill="#000000">fr_value_box_clear</text>
</a>
</g>
</g>
<!-- Node1835&#45;&gt;Node1848 -->
<g id="edge23" class="edge">
<title>Node1835&#45;&gt;Node1848</title>
<path fill="none" stroke="#191970" d="M928.3071,-337.359C943.4027,-339.3647 961.7912,-341.8079 979.1878,-344.1194"/>
<polygon fill="#191970" stroke="#191970" points="978.9097,-347.6131 989.2836,-345.4608 979.8317,-340.6741 978.9097,-347.6131"/>
</g>
<!-- Node1953 -->
<g id="node18" class="node">
<title>Node1953</title>
<g id="a_node18"><a xlink:href="value_8c.html#a1064a346792dc1e5ecf05d04b4c1af55" target="_top" xlink:title="Concatenate the string representations of a list of value boxes together. ">
<polygon fill="none" stroke="#ff0000" points="979,-228.5 979,-247.5 1098,-247.5 1098,-228.5 979,-228.5"/>
<text text-anchor="middle" x="1038.5" y="-235.5" font-family="Helvetica,sans-Serif" font-size="10.00" fill="#000000">fr_value_box_list_aprint</text>
</a>
</g>
</g>
<!-- Node1835&#45;&gt;Node1953 -->
<g id="edge24" class="edge">
<title>Node1835&#45;&gt;Node1953</title>
<path fill="none" stroke="#191970" d="M904.9695,-323.1255C919.6653,-308.2488 949.3678,-279.9253 979,-262 985.4867,-258.076 992.73,-254.5421 999.869,-251.4682"/>
<polygon fill="#191970" stroke="#191970" points="1001.514,-254.5777 1009.4587,-247.5683 998.8769,-248.0934 1001.514,-254.5777"/>
</g>
<!-- Node1955 -->
<g id="node19" class="node">
<title>Node1955</title>
<g id="a_node19"><a xlink:href="util_2pair_8h.html#acfe6934363fefdc67e14fc08a205952b" target="_top" xlink:title="fr_pair_aprint">
<polygon fill="none" stroke="#000000" points="1002,-304.5 1002,-323.5 1075,-323.5 1075,-304.5 1002,-304.5"/>
<text text-anchor="middle" x="1038.5" y="-311.5" font-family="Helvetica,sans-Serif" font-size="10.00" fill="#000000">fr_pair_aprint</text>
</a>
</g>
</g>
<!-- Node1835&#45;&gt;Node1955 -->
<g id="edge27" class="edge">
<title>Node1835&#45;&gt;Node1955</title>
<path fill="none" stroke="#191970" d="M928.3071,-328.641C947.0708,-326.1479 970.922,-322.9789 991.6322,-320.2272"/>
<polygon fill="#191970" stroke="#191970" points="992.3686,-323.6602 1001.8205,-318.8735 991.4466,-316.7212 992.3686,-323.6602"/>
</g>
<!-- Node1838&#45;&gt;Node1823 -->
<g id="edge19" class="edge">
<title>Node1838&#45;&gt;Node1823</title>
<path fill="none" stroke="#191970" d="M1019.7545,-171.5018C1007.9115,-177.6465 992.3741,-185.97 979,-194 860.8484,-264.9395 828.9888,-280.381 721,-366 698.1774,-384.0949 674.0338,-407.4026 658.5336,-422.9792"/>
<polygon fill="#191970" stroke="#191970" points="655.7947,-420.7721 651.2686,-430.3515 660.7806,-425.6854 655.7947,-420.7721"/>
</g>
<!-- Node1858 -->
<g id="node15" class="node">
<title>Node1858</title>
<g id="a_node15"><a xlink:href="value_8c.html#a065070f212d94637ae729855d7cc2237" target="_top" xlink:title="Performs byte order reversal for types that need it. ">
<polygon fill="none" stroke="#ff0000" points="1136.5,-133.5 1136.5,-152.5 1232.5,-152.5 1232.5,-133.5 1136.5,-133.5"/>
<text text-anchor="middle" x="1184.5" y="-140.5" font-family="Helvetica,sans-Serif" font-size="10.00" fill="#000000">fr_value_box_hton</text>
</a>
</g>
</g>
<!-- Node1838&#45;&gt;Node1858 -->
<g id="edge20" class="edge">
<title>Node1838&#45;&gt;Node1858</title>
<path fill="none" stroke="#191970" d="M1086.7105,-155.726C1099.294,-154.0884 1112.9927,-152.3057 1126.0449,-150.6072"/>
<polygon fill="#191970" stroke="#191970" points="1126.8754,-154.0287 1136.3401,-149.2674 1125.972,-147.0872 1126.8754,-154.0287"/>
</g>
<!-- Node1952&#45;&gt;Node1834 -->
<g id="edge22" class="edge">
<title>Node1952&#45;&gt;Node1834</title>
<path fill="none" stroke="#191970" d="M1064.6649,-399.5241C1075.1884,-403.6191 1087.333,-408.684 1098,-414 1120.2299,-425.0785 1144.3625,-439.8314 1161.475,-450.793"/>
<polygon fill="#191970" stroke="#191970" points="1159.907,-453.9473 1170.2031,-456.4453 1163.712,-448.0718 1159.907,-453.9473"/>
</g>
<!-- Node1953&#45;&gt;Node1836 -->
<g id="edge25" class="edge">
<title>Node1953&#45;&gt;Node1836</title>
<path fill="none" stroke="#191970" d="M1086.7105,-247.5761C1099.4186,-250.1003 1113.2641,-252.8504 1126.4323,-255.466"/>
<polygon fill="#191970" stroke="#191970" points="1125.8498,-258.9186 1136.3401,-257.434 1127.2137,-252.0527 1125.8498,-258.9186"/>
</g>
<!-- Node1953&#45;&gt;Node1837 -->
<g id="edge26" class="edge">
<title>Node1953&#45;&gt;Node1837</title>
<path fill="none" stroke="#191970" d="M1088.3366,-228.4423C1100.0823,-226.1897 1112.7207,-223.7659 1124.8499,-221.4397"/>
<polygon fill="#191970" stroke="#191970" points="1125.7263,-224.8355 1134.888,-219.5146 1124.4078,-217.9608 1125.7263,-224.8355"/>
</g>
<!-- Node1958 -->
<g id="node22" class="node">
<title>Node1958</title>
<g id="a_node22"><a xlink:href="dict__util_8c.html#aa8fe667f7efcb013501821d4f1725da4" target="_top" xlink:title="Internal version of fr_dict_attr_child_by_num. ">
<polygon fill="none" stroke="#000000" points="280.5,-127.5 280.5,-146.5 397.5,-146.5 397.5,-127.5 280.5,-127.5"/>
<text text-anchor="middle" x="339" y="-134.5" font-family="Helvetica,sans-Serif" font-size="10.00" fill="#000000">dict_attr_child_by_num</text>
</a>
</g>
</g>
<!-- Node1957&#45;&gt;Node1958 -->
<g id="edge32" class="edge">
<title>Node1957&#45;&gt;Node1958</title>
<path fill="none" stroke="#191970" d="M226.9668,-178.8747C250.7951,-169.9684 280.6528,-158.8085 303.5515,-150.2496"/>
<polygon fill="#191970" stroke="#191970" points="305.0764,-153.4162 313.2181,-146.6365 302.6256,-146.8592 305.0764,-153.4162"/>
</g>
<!-- Node1959 -->
<g id="node23" class="node">
<title>Node1959</title>
<g id="a_node23"><a xlink:href="dict__ext_8h.html#a7a15b65c006118453de17e8309debf4e" target="_top" xlink:title="Return the reference associated with a group type attribute. ">
<polygon fill="none" stroke="#000000" points="465,-38.5 465,-57.5 545,-57.5 545,-38.5 465,-38.5"/>
<text text-anchor="middle" x="505" y="-45.5" font-family="Helvetica,sans-Serif" font-size="10.00" fill="#000000">fr_dict_attr_ref</text>
</a>
</g>
</g>
<!-- Node1958&#45;&gt;Node1959 -->
<g id="edge33" class="edge">
<title>Node1958&#45;&gt;Node1959</title>
<path fill="none" stroke="#191970" d="M392.4039,-127.4793C398.989,-125.0133 405.3725,-121.9087 411,-118 433.7875,-102.1726 424.6857,-83.4878 447,-67 449.6844,-65.0165 452.5864,-63.2335 455.6117,-61.6316"/>
<polygon fill="#191970" stroke="#191970" points="457.3281,-64.6952 464.9635,-57.3501 454.4142,-58.3305 457.3281,-64.6952"/>
</g>
<!-- Node1960 -->
<g id="node25" class="node">
<title>Node1960</title>
<g id="a_node25"><a xlink:href="dict__ext__priv_8h.html#ab9957ca8234bd279f920d24b700893d3" target="_top" xlink:title="dict_attr_children">
<polygon fill="none" stroke="#000000" points="459.5,-76.5 459.5,-95.5 550.5,-95.5 550.5,-76.5 459.5,-76.5"/>
<text text-anchor="middle" x="505" y="-83.5" font-family="Helvetica,sans-Serif" font-size="10.00" fill="#000000">dict_attr_children</text>
</a>
</g>
</g>
<!-- Node1958&#45;&gt;Node1960 -->
<g id="edge35" class="edge">
<title>Node1958&#45;&gt;Node1960</title>
<path fill="none" stroke="#191970" d="M377.2539,-127.438C388.1971,-124.5587 400.1085,-121.2865 411,-118 430.177,-112.2133 451.311,-105.0872 468.6746,-99.0296"/>
<polygon fill="#191970" stroke="#191970" points="470.1454,-102.2227 478.4191,-95.6048 467.8243,-95.6187 470.1454,-102.2227"/>
</g>
<!-- Node1869 -->
<g id="node24" class="node">
<title>Node1869</title>
<g id="a_node24"><a xlink:href="dict__ext_8h.html#a34a6d539e648b685d19cf23c2d0e7d3f" target="_top" xlink:title="fr_dict_attr_ext">
<polygon fill="none" stroke="#000000" points="601,-38.5 601,-57.5 683,-57.5 683,-38.5 601,-38.5"/>
<text text-anchor="middle" x="642" y="-45.5" font-family="Helvetica,sans-Serif" font-size="10.00" fill="#000000">fr_dict_attr_ext</text>
</a>
</g>
</g>
<!-- Node1959&#45;&gt;Node1869 -->
<g id="edge34" class="edge">
<title>Node1959&#45;&gt;Node1869</title>
<path fill="none" stroke="#191970" d="M545.3635,-48C559.6003,-48 575.7998,-48 590.812,-48"/>
<polygon fill="#191970" stroke="#191970" points="590.9767,-51.5001 600.9767,-48 590.9767,-44.5001 590.9767,-51.5001"/>
</g>
<!-- Node1960&#45;&gt;Node1823 -->
<g id="edge37" class="edge">
<title>Node1960&#45;&gt;Node1823</title>
<path fill="none" stroke="#191970" d="M518.5584,-95.7986C531.8225,-106.0916 551.6384,-123.4763 563,-143 617.8977,-237.3358 635.5039,-370.552 640.3626,-420.2746"/>
<polygon fill="#191970" stroke="#191970" points="636.8845,-420.6752 641.2776,-430.3163 643.8556,-420.0399 636.8845,-420.6752"/>
</g>
<!-- Node1960&#45;&gt;Node1869 -->
<g id="edge36" class="edge">
<title>Node1960&#45;&gt;Node1869</title>
<path fill="none" stroke="#191970" d="M539.5709,-76.411C557.1752,-71.5281 578.7793,-65.5357 597.601,-60.315"/>
<polygon fill="#191970" stroke="#191970" points="598.7395,-63.6315 607.4402,-57.5859 596.8685,-56.8862 598.7395,-63.6315"/>
</g>
<!-- Node1963 -->
<g id="node29" class="node">
<title>Node1963</title>
<g id="a_node29"><a xlink:href="dict__ext_8h.html#a44e5494b59c30e9797abde6532fa9788" target="_top" xlink:title="Return the cached da stack (if any) associated with an attribute. ">
<polygon fill="none" stroke="#000000" points="451,-.5 451,-19.5 559,-19.5 559,-.5 451,-.5"/>
<text text-anchor="middle" x="505" y="-7.5" font-family="Helvetica,sans-Serif" font-size="10.00" fill="#000000">fr_dict_attr_da_stack</text>
</a>
</g>
</g>
<!-- Node1962&#45;&gt;Node1963 -->
<g id="edge41" class="edge">
<title>Node1962&#45;&gt;Node1963</title>
<path fill="none" stroke="#191970" d="M351.3376,-89.4713C370.7714,-74.8256 410.1072,-46.6315 447,-29 451.6024,-26.8005 456.5248,-24.7563 461.4842,-22.8868"/>
<polygon fill="#191970" stroke="#191970" points="462.7392,-26.1554 470.9925,-19.5121 460.3978,-19.5586 462.7392,-26.1554"/>
</g>
<!-- Node1963&#45;&gt;Node1869 -->
<g id="edge42" class="edge">
<title>Node1963&#45;&gt;Node1869</title>
<path fill="none" stroke="#191970" d="M539.5709,-19.589C557.1752,-24.4719 578.7793,-30.4643 597.601,-35.685"/>
<polygon fill="#191970" stroke="#191970" points="596.8685,-39.1138 607.4402,-38.4141 598.7395,-32.3685 596.8685,-39.1138"/>
</g>
<!-- Node1964&#45;&gt;Node1822 -->
<g id="edge44" class="edge">
<title>Node1964&#45;&gt;Node1822</title>
<path fill="none" stroke="#191970" d="M192.4888,-342.5671C207.6061,-366.4573 247.4906,-427.8288 267,-442 272.9366,-446.3122 279.6974,-449.884 286.6429,-452.8335"/>
<polygon fill="#191970" stroke="#191970" points="285.5781,-456.1736 296.1685,-456.4809 288.0812,-449.6364 285.5781,-456.1736"/>
</g>
<!-- Node1964&#45;&gt;Node1823 -->
<g id="edge45" class="edge">
<title>Node1964&#45;&gt;Node1823</title>
<path fill="none" stroke="#191970" d="M222.6706,-342.6289C225.6393,-344.1676 228.4671,-345.9459 231,-348 255.4509,-367.8284 240.3291,-392.2765 267,-409 319.2262,-441.7476 498.2549,-443.0592 588.7411,-441.4872"/>
<polygon fill="#191970" stroke="#191970" points="588.8652,-444.9855 598.7962,-441.2942 588.7308,-437.9868 588.8652,-444.9855"/>
</g>
<!-- Node1964&#45;&gt;Node1962 -->
<g id="edge58" class="edge">
<title>Node1964&#45;&gt;Node1962</title>
<path fill="none" stroke="#191970" d="M190.2686,-323.4876C198.0344,-303.8367 216.3215,-257.3083 231,-218 247.5246,-173.7479 232.1689,-149.9078 267,-118 268.704,-116.439 270.521,-115.0034 272.427,-113.6833"/>
<polygon fill="#191970" stroke="#191970" points="274.3475,-116.6166 281.2791,-108.6039 270.8636,-110.5451 274.3475,-116.6166"/>
</g>
<!-- Node1965 -->
<g id="node31" class="node">
<title>Node1965</title>
<g id="a_node31"><a xlink:href="lib_2eap__aka__sim_2base_8c.html#a5abdceed1a7fa542e764bb938856f51d" target="_top" xlink:title="Return the number of bytes before the octets value. ">
<polygon fill="none" stroke="#000000" points="267,-304.5 267,-323.5 411,-323.5 411,-304.5 267,-304.5"/>
<text text-anchor="middle" x="339" y="-311.5" font-family="Helvetica,sans-Serif" font-size="10.00" fill="#000000">fr_aka_sim_octets_prefix_len</text>
</a>
</g>
</g>
<!-- Node1964&#45;&gt;Node1965 -->
<g id="edge46" class="edge">
<title>Node1964&#45;&gt;Node1965</title>
<path fill="none" stroke="#191970" d="M225.3768,-328.1563C235.1059,-326.9442 245.9135,-325.5977 256.884,-324.2308"/>
<polygon fill="#191970" stroke="#191970" points="257.488,-327.6827 266.9785,-322.9732 256.6225,-320.7365 257.488,-327.6827"/>
</g>
<!-- Node1964&#45;&gt;Node1966 -->
<g id="edge47" class="edge">
<title>Node1964&#45;&gt;Node1966</title>
<path fill="none" stroke="#191970" d="M201.9617,-323.3681C228.5646,-306.7958 283.1813,-272.7723 314.8416,-253.0495"/>
<polygon fill="#191970" stroke="#191970" points="316.8602,-255.9157 323.4973,-247.6574 313.1589,-249.9742 316.8602,-255.9157"/>
</g>
<!-- Node1967 -->
<g id="node37" class="node">
<title>Node1967</title>
<g id="a_node37"><a xlink:href="cursor_8c.html#af41d1d4247fb969990f602962ec85525" target="_top" xlink:title="Return the next item, skipping the current item, that satisfies an evaluation function. ">
<polygon fill="none" stroke="#000000" points="287.5,-342.5 287.5,-361.5 390.5,-361.5 390.5,-342.5 287.5,-342.5"/>
<text text-anchor="middle" x="339" y="-349.5" font-family="Helvetica,sans-Serif" font-size="10.00" fill="#000000">fr_cursor_filter_next</text>
</a>
</g>
</g>
<!-- Node1964&#45;&gt;Node1967 -->
<g id="edge54" class="edge">
<title>Node1964&#45;&gt;Node1967</title>
<path fill="none" stroke="#191970" d="M225.3768,-337.8437C241.0894,-339.8013 259.615,-342.1094 277.0967,-344.2875"/>
<polygon fill="#191970" stroke="#191970" points="276.8839,-347.7879 287.24,-345.5512 277.7494,-340.8416 276.8839,-347.7879"/>
</g>
<!-- Node1968 -->
<g id="node38" class="node">
<title>Node1968</title>
<g id="a_node38"><a xlink:href="lib_2eap__aka__sim_2encode_8c.html#a6c31065754acca40b0983e8ffc130997" target="_top" xlink:title="Evaluation function for EAP&#45;AKA&#45;encodability. ">
<polygon fill="none" stroke="#000000" points="281,-380.5 281,-399.5 397,-399.5 397,-380.5 281,-380.5"/>
<text text-anchor="middle" x="339" y="-387.5" font-family="Helvetica,sans-Serif" font-size="10.00" fill="#000000">is_eap_aka_encodable</text>
</a>
</g>
</g>
<!-- Node1964&#45;&gt;Node1968 -->
<g id="edge56" class="edge">
<title>Node1964&#45;&gt;Node1968</title>
<path fill="none" stroke="#191970" d="M204.319,-342.572C220.3692,-350.9108 244.7842,-362.9026 267,-371 273.5286,-373.3796 280.4897,-375.5975 287.4139,-377.6168"/>
<polygon fill="#191970" stroke="#191970" points="286.9046,-381.1085 297.4776,-380.4288 288.7884,-374.3667 286.9046,-381.1085"/>
</g>
<!-- Node1966&#45;&gt;Node1823 -->
<g id="edge49" class="edge">
<title>Node1966&#45;&gt;Node1823</title>
<path fill="none" stroke="#191970" d="M377.668,-247.6009C388.8463,-251.2346 400.7795,-255.9862 411,-262 429.707,-273.0073 428.2646,-284.0412 447,-295 493.8288,-322.3911 519.0261,-301.2273 563,-333 595.5902,-356.5476 620.3947,-397.5646 632.9274,-421.3924"/>
<polygon fill="#191970" stroke="#191970" points="629.8813,-423.1238 637.5341,-430.4509 636.1208,-419.9507 629.8813,-423.1238"/>
</g>
<!-- Node1966&#45;&gt;Node1858 -->
<g id="edge50" class="edge">
<title>Node1966&#45;&gt;Node1858</title>
<path fill="none" stroke="#191970" d="M346.3739,-228.3074C362.2422,-208.2808 401.8691,-162.5771 447,-143 526.8849,-108.3472 554.9229,-124 642,-124 642,-124 642,-124 895.5,-124 975.6633,-124 1068.0654,-131.3689 1126.3723,-136.9285"/>
<polygon fill="#191970" stroke="#191970" points="1126.2054,-140.4286 1136.4961,-137.9083 1126.8798,-133.4612 1126.2054,-140.4286"/>
</g>
<!-- Node1941 -->
<g id="node33" class="node">
<title>Node1941</title>
<g id="a_node33"><a xlink:href="dbuff_8c.html#a6e56446e714b3c7a19bf9537185674ec" target="_top" xlink:title="min">
<polygon fill="none" stroke="#000000" points="489,-228.5 489,-247.5 521,-247.5 521,-228.5 489,-228.5"/>
<text text-anchor="middle" x="505" y="-235.5" font-family="Helvetica,sans-Serif" font-size="10.00" fill="#000000">min</text>
</a>
</g>
</g>
<!-- Node1966&#45;&gt;Node1941 -->
<g id="edge48" class="edge">
<title>Node1966&#45;&gt;Node1941</title>
<path fill="none" stroke="#191970" d="M401.7575,-238C428.3739,-238 457.9482,-238 478.5977,-238"/>
<polygon fill="#191970" stroke="#191970" points="478.7976,-241.5001 488.7976,-238 478.7975,-234.5001 478.7976,-241.5001"/>
</g>
<!-- Node1942 -->
<g id="node34" class="node">
<title>Node1942</title>
<g id="a_node34"><a xlink:href="time_8h.html#a764e37b5ffca11aa97a3fcea90c4aa7b" target="_top" xlink:title="fr_time_delta_to_sec">
<polygon fill="none" stroke="#000000" points="451.5,-190.5 451.5,-209.5 558.5,-209.5 558.5,-190.5 451.5,-190.5"/>
<text text-anchor="middle" x="505" y="-197.5" font-family="Helvetica,sans-Serif" font-size="10.00" fill="#000000">fr_time_delta_to_sec</text>
</a>
</g>
</g>
<!-- Node1966&#45;&gt;Node1942 -->
<g id="edge51" class="edge">
<title>Node1966&#45;&gt;Node1942</title>
<path fill="none" stroke="#191970" d="M380.8888,-228.411C402.893,-223.3739 430.0545,-217.1562 453.3524,-211.8229"/>
<polygon fill="#191970" stroke="#191970" points="454.4456,-215.1633 463.4124,-209.5201 452.8835,-208.3398 454.4456,-215.1633"/>
</g>
<!-- Node1944 -->
<g id="node35" class="node">
<title>Node1944</title>
<g id="a_node35"><a xlink:href="time_8h.html#ae8188323e6975efb29e14339a56d2878" target="_top" xlink:title="fr_time_delta_to_msec">
<polygon fill="none" stroke="#000000" points="447,-152.5 447,-171.5 563,-171.5 563,-152.5 447,-152.5"/>
<text text-anchor="middle" x="505" y="-159.5" font-family="Helvetica,sans-Serif" font-size="10.00" fill="#000000">fr_time_delta_to_msec</text>
</a>
</g>
</g>
<!-- Node1966&#45;&gt;Node1944 -->
<g id="edge52" class="edge">
<title>Node1966&#45;&gt;Node1944</title>
<path fill="none" stroke="#191970" d="M355.0481,-228.426C375.7827,-216.3165 413.233,-195.3201 447,-181 452.0604,-178.854 457.4515,-176.7975 462.8316,-174.8824"/>
<polygon fill="#191970" stroke="#191970" points="464.1009,-178.1474 472.4298,-171.5991 461.8353,-171.5241 464.1009,-178.1474"/>
</g>
<!-- Node1943 -->
<g id="node36" class="node">
<title>Node1943</title>
<g id="a_node36"><a xlink:href="time_8h.html#a8b34ff07c2fd10936feb770b1cdd00ac" target="_top" xlink:title="fr_time_delta_to_usec">
<polygon fill="none" stroke="#000000" points="448.5,-266.5 448.5,-285.5 561.5,-285.5 561.5,-266.5 448.5,-266.5"/>
<text text-anchor="middle" x="505" y="-273.5" font-family="Helvetica,sans-Serif" font-size="10.00" fill="#000000">fr_time_delta_to_usec</text>
</a>
</g>
</g>
<!-- Node1966&#45;&gt;Node1943 -->
<g id="edge53" class="edge">
<title>Node1966&#45;&gt;Node1943</title>
<path fill="none" stroke="#191970" d="M380.8888,-247.589C402.893,-252.6261 430.0545,-258.8438 453.3524,-264.1771"/>
<polygon fill="#191970" stroke="#191970" points="452.8835,-267.6602 463.4124,-266.4799 454.4456,-260.8367 452.8835,-267.6602"/>
</g>
<!-- Node1967&#45;&gt;Node1845 -->
<g id="edge55" class="edge">
<title>Node1967&#45;&gt;Node1845</title>
<path fill="none" stroke="#191970" d="M390.6135,-352C411.2126,-352 434.8365,-352 455.2469,-352"/>
<polygon fill="#191970" stroke="#191970" points="455.2867,-355.5001 465.2867,-352 455.2866,-348.5001 455.2867,-355.5001"/>
</g>
<!-- Node1969 -->
<g id="node39" class="node">
<title>Node1969</title>
<g id="a_node39"><a xlink:href="dict_8h.html#a4ed0e2dd07a0ef75f1fa32225ac4a762" target="_top" xlink:title="Find a common ancestor that two TLV type attributes share. ">
<polygon fill="none" stroke="#000000" points="452,-381 452,-411 558,-411 558,-381 452,-381"/>
<text text-anchor="start" x="460" y="-399" font-family="Helvetica,sans-Serif" font-size="10.00" fill="#000000">fr_dict_attr_common</text>
<text text-anchor="middle" x="505" y="-388" font-family="Helvetica,sans-Serif" font-size="10.00" fill="#000000">_parent</text>
</a>
</g>
</g>
<!-- Node1968&#45;&gt;Node1969 -->
<g id="edge57" class="edge">
<title>Node1968&#45;&gt;Node1969</title>
<path fill="none" stroke="#191970" d="M397.0587,-392.0985C411.568,-392.6229 427.1984,-393.1879 441.9371,-393.7206"/>
<polygon fill="#191970" stroke="#191970" points="441.8538,-397.2198 451.9738,-394.0834 442.1067,-390.2244 441.8538,-397.2198"/>
</g>
</g>
</svg>
