<?xml version="1.0" encoding="UTF-8" standalone="no"?>
<!DOCTYPE svg PUBLIC "-//W3C//DTD SVG 1.1//EN"
 "http://www.w3.org/Graphics/SVG/1.1/DTD/svg11.dtd">
<!-- Generated by graphviz version 2.40.1 (20161225.0304)
 -->
<!-- Title: rbtree_s Pages: 1 -->
<svg width="110pt" height="108pt"
 viewBox="0.00 0.00 110.00 108.00" xmlns="http://www.w3.org/2000/svg" xmlns:xlink="http://www.w3.org/1999/xlink">
<g id="graph0" class="graph" transform="scale(1 1) rotate(0) translate(4 104)">
<title>rbtree_s</title>
<!-- Node3 -->
<g id="node1" class="node">
<title>Node3</title>
<polygon fill="#bfbfbf" stroke="#000000" points="2,-.5 2,-19.5 54,-19.5 54,-.5 2,-.5"/>
<text text-anchor="middle" x="28" y="-7.5" font-family="Helvetica,sans-Serif" font-size="10.00" fill="#000000">rbtree_s</text>
</g>
<!-- Node4 -->
<g id="node2" class="node">
<title>Node4</title>
<g id="a_node2"><a xlink:href="rbmonkey_8c.html#structrbnode__s" target="_top" xlink:title="rbnode_s">
<polygon fill="none" stroke="#000000" points="0,-74 0,-93 56,-93 56,-74 0,-74"/>
<text text-anchor="middle" x="28" y="-81" font-family="Helvetica,sans-Serif" font-size="10.00" fill="#000000">rbnode_s</text>
</a>
</g>
</g>
<!-- Node4&#45;&gt;Node3 -->
<g id="edge1" class="edge">
<title>Node4&#45;&gt;Node3</title>
<path fill="none" stroke="#9a32cd" stroke-dasharray="5,2" d="M28,-63.6616C28,-49.481 28,-31.004 28,-19.8458"/>
<polygon fill="#9a32cd" stroke="#9a32cd" points="24.5001,-63.8911 28,-73.8912 31.5001,-63.8912 24.5001,-63.8911"/>
<text text-anchor="middle" x="38" y="-41" font-family="Helvetica,sans-Serif" font-size="10.00" fill="#000000"> root</text>
</g>
<!-- Node4&#45;&gt;Node4 -->
<g id="edge2" class="edge">
<title>Node4&#45;&gt;Node4</title>
<path fill="none" stroke="#9a32cd" stroke-dasharray="5,2" d="M66.5533,-89.9107C71.0634,-88.7314 74,-86.5945 74,-83.5 74,-78.4219 66.0919,-75.9225 56.2994,-76.0018"/>
<polygon fill="#9a32cd" stroke="#9a32cd" points="65.8745,-86.463 56.2994,-90.9982 66.6128,-93.4239 65.8745,-86.463"/>
<text text-anchor="middle" x="88" y="-92" font-family="Helvetica,sans-Serif" font-size="10.00" fill="#000000"> right</text>
<text text-anchor="middle" x="88" y="-81" font-family="Helvetica,sans-Serif" font-size="10.00" fill="#000000">left</text>
<text text-anchor="middle" x="88" y="-70" font-family="Helvetica,sans-Serif" font-size="10.00" fill="#000000">parent</text>
</g>
</g>
</svg>
