<?xml version="1.0" encoding="UTF-8" standalone="no"?>
<!DOCTYPE svg PUBLIC "-//W3C//DTD SVG 1.1//EN"
 "http://www.w3.org/Graphics/SVG/1.1/DTD/svg11.dtd">
<!-- Generated by graphviz version 2.40.1 (20161225.0304)
 -->
<!-- Title: rlm_rest_t Pages: 1 -->
<svg width="815pt" height="388pt"
 viewBox="0.00 0.00 814.50 388.00" xmlns="http://www.w3.org/2000/svg" xmlns:xlink="http://www.w3.org/1999/xlink">
<g id="graph0" class="graph" transform="scale(1 1) rotate(0) translate(4 384)">
<title>rlm_rest_t</title>
<!-- Node261 -->
<g id="node1" class="node">
<title>Node261</title>
<polygon fill="#bfbfbf" stroke="#000000" points="326.5,-.5 326.5,-19.5 386.5,-19.5 386.5,-.5 326.5,-.5"/>
<text text-anchor="middle" x="356.5" y="-7.5" font-family="Helvetica,sans-Serif" font-size="10.00" fill="#000000">rlm_rest_t</text>
</g>
<!-- Node262 -->
<g id="node2" class="node">
<title>Node262</title>
<g id="a_node2"><a xlink:href="pool_8c.html#structfr__pool__s" target="_top" xlink:title="A connection pool. ">
<polygon fill="none" stroke="#000000" points="249.5,-111.5 249.5,-130.5 305.5,-130.5 305.5,-111.5 249.5,-111.5"/>
<text text-anchor="middle" x="277.5" y="-118.5" font-family="Helvetica,sans-Serif" font-size="10.00" fill="#000000">fr_pool_s</text>
</a>
</g>
</g>
<!-- Node262&#45;&gt;Node261 -->
<g id="edge1" class="edge">
<title>Node262&#45;&gt;Node261</title>
<path fill="none" stroke="#9a32cd" stroke-dasharray="5,2" d="M290.3348,-102.9663C307.247,-79.2035 336.3934,-38.251 349.6178,-19.6699"/>
<polygon fill="#9a32cd" stroke="#9a32cd" points="287.4577,-100.9727 284.5107,-111.1495 293.1608,-105.0317 287.4577,-100.9727"/>
<text text-anchor="middle" x="346.5" y="-63" font-family="Helvetica,sans-Serif" font-size="10.00" fill="#000000"> pool</text>
</g>
<!-- Node262&#45;&gt;Node262 -->
<g id="edge3" class="edge">
<title>Node262&#45;&gt;Node262</title>
<path fill="none" stroke="#9a32cd" stroke-dasharray="5,2" d="M316.0533,-127.0902C320.5634,-125.9698 323.5,-123.9398 323.5,-121 323.5,-116.1758 315.5919,-113.8014 305.7994,-113.8767"/>
<polygon fill="#9a32cd" stroke="#9a32cd" points="315.3981,-123.6384 305.7994,-128.1233 316.0999,-130.6031 315.3981,-123.6384"/>
<text text-anchor="middle" x="346.5" y="-118.5" font-family="Helvetica,sans-Serif" font-size="10.00" fill="#000000"> reconnect</text>
</g>
<!-- Node263 -->
<g id="node3" class="node">
<title>Node263</title>
<g id="a_node3"><a xlink:href="pool_8h.html#structfr__pool__state__s" target="_top" xlink:title="fr_pool_state_s">
<polygon fill="none" stroke="#000000" points="0,-190.5 0,-209.5 83,-209.5 83,-190.5 0,-190.5"/>
<text text-anchor="middle" x="41.5" y="-197.5" font-family="Helvetica,sans-Serif" font-size="10.00" fill="#000000">fr_pool_state_s</text>
</a>
</g>
</g>
<!-- Node263&#45;&gt;Node262 -->
<g id="edge2" class="edge">
<title>Node263&#45;&gt;Node262</title>
<path fill="none" stroke="#9a32cd" stroke-dasharray="5,2" d="M66.3781,-185.281C86.5577,-173.9093 116.0576,-158.5477 143.5,-149 179.0778,-136.6218 221.9672,-128.8379 249.4761,-124.7043"/>
<polygon fill="#9a32cd" stroke="#9a32cd" points="64.4749,-182.3376 57.5369,-190.3448 67.954,-188.4118 64.4749,-182.3376"/>
<text text-anchor="middle" x="156" y="-157.5" font-family="Helvetica,sans-Serif" font-size="10.00" fill="#000000"> state</text>
</g>
<!-- Node264 -->
<g id="node4" class="node">
<title>Node264</title>
<g id="a_node4"><a xlink:href="heap_8c.html#structfr__heap__s" target="_top" xlink:title="fr_heap_s">
<polygon fill="none" stroke="#000000" points="101,-190.5 101,-209.5 160,-209.5 160,-190.5 101,-190.5"/>
<text text-anchor="middle" x="130.5" y="-197.5" font-family="Helvetica,sans-Serif" font-size="10.00" fill="#000000">fr_heap_s</text>
</a>
</g>
</g>
<!-- Node264&#45;&gt;Node262 -->
<g id="edge4" class="edge">
<title>Node264&#45;&gt;Node262</title>
<path fill="none" stroke="#9a32cd" stroke-dasharray="5,2" d="M151.3185,-184.2403C166.1805,-173.4435 186.9255,-159.2739 206.5,-149 220.1097,-141.8568 235.9634,-135.4382 249.2332,-130.554"/>
<polygon fill="#9a32cd" stroke="#9a32cd" points="148.856,-181.7077 142.8882,-190.4619 153.0126,-187.34 148.856,-181.7077"/>
<text text-anchor="middle" x="219" y="-157.5" font-family="Helvetica,sans-Serif" font-size="10.00" fill="#000000"> heap</text>
</g>
<!-- Node265 -->
<g id="node5" class="node">
<title>Node265</title>
<g id="a_node5"><a xlink:href="cf__priv_8h.html#structcf__section" target="_top" xlink:title="A section grouping multiple CONF_PAIR. ">
<polygon fill="none" stroke="#000000" points="178.5,-190.5 178.5,-209.5 240.5,-209.5 240.5,-190.5 178.5,-190.5"/>
<text text-anchor="middle" x="209.5" y="-197.5" font-family="Helvetica,sans-Serif" font-size="10.00" fill="#000000">cf_section</text>
</a>
</g>
</g>
<!-- Node265&#45;&gt;Node262 -->
<g id="edge5" class="edge">
<title>Node265&#45;&gt;Node262</title>
<path fill="none" stroke="#9a32cd" stroke-dasharray="5,2" d="M224.3684,-182.7264C238.0794,-166.7975 257.9442,-143.7192 269.0937,-130.7662"/>
<polygon fill="#9a32cd" stroke="#9a32cd" points="221.7092,-180.4507 217.8381,-190.313 227.0145,-185.0173 221.7092,-180.4507"/>
<text text-anchor="middle" x="259.5" y="-157.5" font-family="Helvetica,sans-Serif" font-size="10.00" fill="#000000"> cs</text>
</g>
<!-- Node265&#45;&gt;Node265 -->
<g id="edge6" class="edge">
<title>Node265&#45;&gt;Node265</title>
<path fill="none" stroke="#9a32cd" stroke-dasharray="5,2" d="M250.6528,-206.3897C255.4088,-205.2061 258.5,-203.0762 258.5,-200 258.5,-195.0781 250.5865,-192.5787 240.602,-192.5018"/>
<polygon fill="#9a32cd" stroke="#9a32cd" points="250.158,-202.9229 240.602,-207.4982 250.9254,-209.8807 250.158,-202.9229"/>
<text text-anchor="middle" x="279" y="-197.5" font-family="Helvetica,sans-Serif" font-size="10.00" fill="#000000"> template</text>
</g>
<!-- Node266 -->
<g id="node6" class="node">
<title>Node266</title>
<g id="a_node6"><a xlink:href="cf__priv_8h.html#structcf__item" target="_top" xlink:title="Common header for all CONF_* types. ">
<polygon fill="none" stroke="#000000" points="185,-276 185,-295 234,-295 234,-276 185,-276"/>
<text text-anchor="middle" x="209.5" y="-283" font-family="Helvetica,sans-Serif" font-size="10.00" fill="#000000">cf_item</text>
</a>
</g>
</g>
<!-- Node266&#45;&gt;Node265 -->
<g id="edge7" class="edge">
<title>Node266&#45;&gt;Node265</title>
<path fill="none" stroke="#9a32cd" stroke-dasharray="5,2" d="M209.5,-265.3868C209.5,-247.846 209.5,-223.1594 209.5,-209.6936"/>
<polygon fill="#9a32cd" stroke="#9a32cd" points="206.0001,-265.692 209.5,-275.6921 213.0001,-265.6921 206.0001,-265.692"/>
<text text-anchor="middle" x="220.5" y="-237.5" font-family="Helvetica,sans-Serif" font-size="10.00" fill="#000000"> item</text>
</g>
<!-- Node266&#45;&gt;Node266 -->
<g id="edge9" class="edge">
<title>Node266&#45;&gt;Node266</title>
<path fill="none" stroke="#9a32cd" stroke-dasharray="5,2" d="M244.5338,-292.7247C249.0306,-291.4693 252,-289.061 252,-285.5 252,-279.6563 244.0036,-276.917 234.3829,-277.2822"/>
<polygon fill="#9a32cd" stroke="#9a32cd" points="243.9945,-289.2606 234.3829,-293.7178 244.6762,-296.2274 243.9945,-289.2606"/>
<text text-anchor="middle" x="266" y="-294" font-family="Helvetica,sans-Serif" font-size="10.00" fill="#000000"> next</text>
<text text-anchor="middle" x="266" y="-283" font-family="Helvetica,sans-Serif" font-size="10.00" fill="#000000">child</text>
<text text-anchor="middle" x="266" y="-272" font-family="Helvetica,sans-Serif" font-size="10.00" fill="#000000">parent</text>
</g>
<!-- Node267 -->
<g id="node7" class="node">
<title>Node267</title>
<g id="a_node7"><a xlink:href="cursor_8h.html#structfr__cursor__t" target="_top" xlink:title="fr_cursor_t">
<polygon fill="none" stroke="#000000" points="140,-360.5 140,-379.5 203,-379.5 203,-360.5 140,-360.5"/>
<text text-anchor="middle" x="171.5" y="-367.5" font-family="Helvetica,sans-Serif" font-size="10.00" fill="#000000">fr_cursor_t</text>
</a>
</g>
</g>
<!-- Node267&#45;&gt;Node266 -->
<g id="edge8" class="edge">
<title>Node267&#45;&gt;Node266</title>
<path fill="none" stroke="#9a32cd" stroke-dasharray="5,2" d="M179.9972,-351.1049C187.8153,-333.7198 199.0929,-308.6421 205.1918,-295.0802"/>
<polygon fill="#9a32cd" stroke="#9a32cd" points="176.7685,-349.751 175.8591,-360.3068 183.1526,-352.6221 176.7685,-349.751"/>
<text text-anchor="middle" x="210" y="-328.5" font-family="Helvetica,sans-Serif" font-size="10.00" fill="#000000"> cursor</text>
</g>
<!-- Node268 -->
<g id="node8" class="node">
<title>Node268</title>
<g id="a_node8"><a xlink:href="rbmonkey_8c.html#structrbtree__s" target="_top" xlink:title="rbtree_s">
<polygon fill="none" stroke="#ff0000" points="221.5,-360.5 221.5,-379.5 273.5,-379.5 273.5,-360.5 221.5,-360.5"/>
<text text-anchor="middle" x="247.5" y="-367.5" font-family="Helvetica,sans-Serif" font-size="10.00" fill="#000000">rbtree_s</text>
</a>
</g>
</g>
<!-- Node268&#45;&gt;Node266 -->
<g id="edge10" class="edge">
<title>Node268&#45;&gt;Node266</title>
<path fill="none" stroke="#9a32cd" stroke-dasharray="5,2" d="M239.331,-351.1964C235.2247,-341.8056 230.1456,-330.2818 225.5,-320 221.6941,-311.5766 217.2657,-302.0483 214.034,-295.1428"/>
<polygon fill="#9a32cd" stroke="#9a32cd" points="236.134,-352.6214 243.3385,-360.3897 242.5508,-349.8242 236.134,-352.6214"/>
<text text-anchor="middle" x="250.5" y="-334" font-family="Helvetica,sans-Serif" font-size="10.00" fill="#000000"> ident1</text>
<text text-anchor="middle" x="250.5" y="-323" font-family="Helvetica,sans-Serif" font-size="10.00" fill="#000000">ident2</text>
</g>
<!-- Node270 -->
<g id="node9" class="node">
<title>Node270</title>
<g id="a_node9"><a xlink:href="util_2pair_8h.html#structvalue__pair__s" target="_top" xlink:title="Stores an attribute, a value and various bits of other data. ">
<polygon fill="none" stroke="#000000" points="318,-190.5 318,-209.5 389,-209.5 389,-190.5 318,-190.5"/>
<text text-anchor="middle" x="353.5" y="-197.5" font-family="Helvetica,sans-Serif" font-size="10.00" fill="#000000">value_pair_s</text>
</a>
</g>
</g>
<!-- Node270&#45;&gt;Node262 -->
<g id="edge11" class="edge">
<title>Node270&#45;&gt;Node262</title>
<path fill="none" stroke="#9a32cd" stroke-dasharray="5,2" d="M336.8824,-182.7264C321.5584,-166.7975 299.3564,-143.7192 286.8953,-130.7662"/>
<polygon fill="#9a32cd" stroke="#9a32cd" points="334.7257,-185.533 344.1809,-190.313 339.7703,-180.6799 334.7257,-185.533"/>
<text text-anchor="middle" x="353" y="-157.5" font-family="Helvetica,sans-Serif" font-size="10.00" fill="#000000"> trigger_args</text>
</g>
<!-- Node270&#45;&gt;Node270 -->
<g id="edge12" class="edge">
<title>Node270&#45;&gt;Node270</title>
<path fill="none" stroke="#9a32cd" stroke-dasharray="5,2" d="M399.2805,-206.1836C403.9895,-204.9665 407,-202.9053 407,-200 407,-195.3516 399.2932,-192.8639 389.2532,-192.5371"/>
<polygon fill="#9a32cd" stroke="#9a32cd" points="398.7298,-202.7254 389.2532,-207.4629 399.6158,-209.6691 398.7298,-202.7254"/>
<text text-anchor="middle" x="418" y="-197.5" font-family="Helvetica,sans-Serif" font-size="10.00" fill="#000000"> next</text>
</g>
<!-- Node271 -->
<g id="node10" class="node">
<title>Node271</title>
<g id="a_node10"><a xlink:href="dict_8h.html#structdict__attr__s" target="_top" xlink:title="Dictionary attribute. ">
<polygon fill="none" stroke="#000000" points="388.5,-276 388.5,-295 450.5,-295 450.5,-276 388.5,-276"/>
<text text-anchor="middle" x="419.5" y="-283" font-family="Helvetica,sans-Serif" font-size="10.00" fill="#000000">dict_attr_s</text>
</a>
</g>
</g>
<!-- Node271&#45;&gt;Node270 -->
<g id="edge13" class="edge">
<title>Node271&#45;&gt;Node270</title>
<path fill="none" stroke="#9a32cd" stroke-dasharray="5,2" d="M405.4967,-267.3594C391.8982,-249.7431 371.7734,-223.6724 360.9827,-209.6936"/>
<polygon fill="#9a32cd" stroke="#9a32cd" points="403.0478,-269.9148 411.929,-275.6921 408.589,-265.6374 403.0478,-269.9148"/>
<text text-anchor="middle" x="399.5" y="-237.5" font-family="Helvetica,sans-Serif" font-size="10.00" fill="#000000"> da</text>
</g>
<!-- Node271&#45;&gt;Node271 -->
<g id="edge18" class="edge">
<title>Node271&#45;&gt;Node271</title>
<path fill="none" stroke="#9a32cd" stroke-dasharray="5,2" d="M460.6528,-292.5286C465.4088,-291.2267 468.5,-288.8838 468.5,-285.5 468.5,-280.0859 460.5865,-277.3366 450.602,-277.252"/>
<polygon fill="#9a32cd" stroke="#9a32cd" points="460.1077,-289.069 450.602,-293.748 460.9508,-296.0181 460.1077,-289.069"/>
<text text-anchor="middle" x="482.5" y="-294" font-family="Helvetica,sans-Serif" font-size="10.00" fill="#000000"> next</text>
<text text-anchor="middle" x="482.5" y="-283" font-family="Helvetica,sans-Serif" font-size="10.00" fill="#000000">fixup</text>
<text text-anchor="middle" x="482.5" y="-272" font-family="Helvetica,sans-Serif" font-size="10.00" fill="#000000">parent</text>
</g>
<!-- Node273 -->
<g id="node12" class="node">
<title>Node273</title>
<g id="a_node12"><a xlink:href="dict__priv_8h.html#structfr__dict" target="_top" xlink:title="Vendors and attribute names. ">
<polygon fill="none" stroke="#ff0000" points="447.5,-190.5 447.5,-209.5 491.5,-209.5 491.5,-190.5 447.5,-190.5"/>
<text text-anchor="middle" x="469.5" y="-197.5" font-family="Helvetica,sans-Serif" font-size="10.00" fill="#000000">fr_dict</text>
</a>
</g>
</g>
<!-- Node271&#45;&gt;Node273 -->
<g id="edge17" class="edge">
<title>Node271&#45;&gt;Node273</title>
<path fill="none" stroke="#9a32cd" stroke-dasharray="5,2" d="M413.3225,-265.9866C410.8688,-254.4593 409.9716,-240.014 416.5,-229 420.0833,-222.9547 434.4366,-215.2925 447.3033,-209.3624"/>
<polygon fill="#9a32cd" stroke="#9a32cd" points="410.0147,-267.1679 415.9604,-275.9371 416.781,-265.3741 410.0147,-267.1679"/>
<text text-anchor="middle" x="430" y="-243" font-family="Helvetica,sans-Serif" font-size="10.00" fill="#000000"> root</text>
<text text-anchor="middle" x="430" y="-232" font-family="Helvetica,sans-Serif" font-size="10.00" fill="#000000">fixups</text>
</g>
<!-- Node272 -->
<g id="node11" class="node">
<title>Node272</title>
<g id="a_node11"><a xlink:href="dict_8h.html#structfr__dict__attr__flags__t" target="_top" xlink:title="Values of the encryption flags. ">
<polygon fill="none" stroke="#000000" points="370.5,-360.5 370.5,-379.5 468.5,-379.5 468.5,-360.5 370.5,-360.5"/>
<text text-anchor="middle" x="419.5" y="-367.5" font-family="Helvetica,sans-Serif" font-size="10.00" fill="#000000">fr_dict_attr_flags_t</text>
</a>
</g>
</g>
<!-- Node272&#45;&gt;Node271 -->
<g id="edge14" class="edge">
<title>Node272&#45;&gt;Node271</title>
<path fill="none" stroke="#9a32cd" stroke-dasharray="5,2" d="M419.5,-350.1221C419.5,-332.7864 419.5,-308.3886 419.5,-295.0802"/>
<polygon fill="#9a32cd" stroke="#9a32cd" points="416.0001,-350.3067 419.5,-360.3068 423.0001,-350.3068 416.0001,-350.3067"/>
<text text-anchor="middle" x="432" y="-328.5" font-family="Helvetica,sans-Serif" font-size="10.00" fill="#000000"> flags</text>
</g>
<!-- Node273&#45;&gt;Node271 -->
<g id="edge15" class="edge">
<title>Node273&#45;&gt;Node271</title>
<path fill="none" stroke="#9a32cd" stroke-dasharray="5,2" d="M462.5871,-219.4003C458.7406,-229.1911 453.5159,-241.066 447.5,-251 442.0656,-259.9738 434.5029,-269.1498 428.607,-275.7804"/>
<polygon fill="#9a32cd" stroke="#9a32cd" points="465.9588,-220.377 466.1922,-209.7847 459.4043,-217.9195 465.9588,-220.377"/>
<text text-anchor="middle" x="468" y="-237.5" font-family="Helvetica,sans-Serif" font-size="10.00" fill="#000000"> dict</text>
</g>
<!-- Node273&#45;&gt;Node273 -->
<g id="edge16" class="edge">
<title>Node273&#45;&gt;Node273</title>
<path fill="none" stroke="#9a32cd" stroke-dasharray="5,2" d="M501.9045,-206.7128C506.4533,-205.6177 509.5,-203.3801 509.5,-200 509.5,-194.4531 501.2952,-191.983 491.7124,-192.5897"/>
<polygon fill="#9a32cd" stroke="#9a32cd" points="501.45,-203.2356 491.7124,-207.4103 501.928,-210.2193 501.45,-203.2356"/>
<text text-anchor="middle" x="531" y="-197.5" font-family="Helvetica,sans-Serif" font-size="10.00" fill="#000000"> attr_valid</text>
</g>
<!-- Node284 -->
<g id="node13" class="node">
<title>Node284</title>
<g id="a_node13"><a xlink:href="pool_8c.html#structfr__pool__connection__s" target="_top" xlink:title="An individual connection within the connection pool. ">
<polygon fill="none" stroke="#000000" points="571,-190.5 571,-209.5 680,-209.5 680,-190.5 571,-190.5"/>
<text text-anchor="middle" x="625.5" y="-197.5" font-family="Helvetica,sans-Serif" font-size="10.00" fill="#000000">fr_pool_connection_s</text>
</a>
</g>
</g>
<!-- Node284&#45;&gt;Node262 -->
<g id="edge19" class="edge">
<title>Node284&#45;&gt;Node262</title>
<path fill="none" stroke="#9a32cd" stroke-dasharray="5,2" d="M573.3988,-188.1724C498.7155,-171.2185 363.8242,-140.5966 305.5573,-127.3693"/>
<polygon fill="#9a32cd" stroke="#9a32cd" points="572.9963,-191.67 583.5231,-190.4708 574.546,-184.8437 572.9963,-191.67"/>
<text text-anchor="middle" x="506" y="-163" font-family="Helvetica,sans-Serif" font-size="10.00" fill="#000000"> head</text>
<text text-anchor="middle" x="506" y="-152" font-family="Helvetica,sans-Serif" font-size="10.00" fill="#000000">tail</text>
</g>
<!-- Node284&#45;&gt;Node284 -->
<g id="edge20" class="edge">
<title>Node284&#45;&gt;Node284</title>
<path fill="none" stroke="#9a32cd" stroke-dasharray="5,2" d="M690.4123,-205.5361C695.1191,-204.2868 698,-202.4414 698,-200 698,-196.0938 690.6249,-193.7134 680.1961,-192.8589"/>
<polygon fill="#9a32cd" stroke="#9a32cd" points="689.5317,-202.1314 680.1961,-207.1411 690.6182,-209.0466 689.5317,-202.1314"/>
<text text-anchor="middle" x="709" y="-203" font-family="Helvetica,sans-Serif" font-size="10.00" fill="#000000"> prev</text>
<text text-anchor="middle" x="709" y="-192" font-family="Helvetica,sans-Serif" font-size="10.00" fill="#000000">next</text>
</g>
<!-- Node285 -->
<g id="node14" class="node">
<title>Node285</title>
<g id="a_node14"><a xlink:href="rest_8h.html#structrlm__rest__section__t" target="_top" xlink:title="rlm_rest_section_t">
<polygon fill="none" stroke="#000000" points="567,-111.5 567,-130.5 664,-130.5 664,-111.5 567,-111.5"/>
<text text-anchor="middle" x="615.5" y="-118.5" font-family="Helvetica,sans-Serif" font-size="10.00" fill="#000000">rlm_rest_section_t</text>
</a>
</g>
</g>
<!-- Node285&#45;&gt;Node261 -->
<g id="edge21" class="edge">
<title>Node285&#45;&gt;Node261</title>
<path fill="none" stroke="#9a32cd" stroke-dasharray="5,2" d="M583.6728,-107.3598C530.479,-84.5624 424.82,-39.28 378.795,-19.555"/>
<polygon fill="#9a32cd" stroke="#9a32cd" points="582.3983,-110.6214 592.9685,-111.3437 585.1558,-104.1874 582.3983,-110.6214"/>
<text text-anchor="middle" x="573.5" y="-85" font-family="Helvetica,sans-Serif" font-size="10.00" fill="#000000"> accounting</text>
<text text-anchor="middle" x="573.5" y="-74" font-family="Helvetica,sans-Serif" font-size="10.00" fill="#000000">authorize</text>
<text text-anchor="middle" x="573.5" y="-63" font-family="Helvetica,sans-Serif" font-size="10.00" fill="#000000">authenticate</text>
<text text-anchor="middle" x="573.5" y="-52" font-family="Helvetica,sans-Serif" font-size="10.00" fill="#000000">xlat</text>
<text text-anchor="middle" x="573.5" y="-41" font-family="Helvetica,sans-Serif" font-size="10.00" fill="#000000">post_auth</text>
</g>
<!-- Node286 -->
<g id="node15" class="node">
<title>Node286</title>
<g id="a_node15"><a xlink:href="curl_2base_8h.html#structfr__curl__tls__t" target="_top" xlink:title="fr_curl_tls_t">
<polygon fill="none" stroke="#000000" points="738.5,-190.5 738.5,-209.5 806.5,-209.5 806.5,-190.5 738.5,-190.5"/>
<text text-anchor="middle" x="772.5" y="-197.5" font-family="Helvetica,sans-Serif" font-size="10.00" fill="#000000">fr_curl_tls_t</text>
</a>
</g>
</g>
<!-- Node286&#45;&gt;Node285 -->
<g id="edge22" class="edge">
<title>Node286&#45;&gt;Node285</title>
<path fill="none" stroke="#9a32cd" stroke-dasharray="5,2" d="M744.3709,-185.8459C712.6368,-169.8777 661.8904,-144.3429 634.505,-130.563"/>
<polygon fill="#9a32cd" stroke="#9a32cd" points="743.056,-189.1023 753.5621,-190.4708 746.2025,-182.8493 743.056,-189.1023"/>
<text text-anchor="middle" x="719.5" y="-157.5" font-family="Helvetica,sans-Serif" font-size="10.00" fill="#000000"> tls</text>
</g>
</g>
</svg>
