<?xml version="1.0" encoding="UTF-8" standalone="no"?>
<!DOCTYPE svg PUBLIC "-//W3C//DTD SVG 1.1//EN"
 "http://www.w3.org/Graphics/SVG/1.1/DTD/svg11.dtd">
<!-- Generated by graphviz version 2.40.1 (20161225.0304)
 -->
<!-- Title: rlm_sqlcounter_t Pages: 1 -->
<svg width="440pt" height="466pt"
 viewBox="0.00 0.00 440.00 466.00" xmlns="http://www.w3.org/2000/svg" xmlns:xlink="http://www.w3.org/1999/xlink">
<g id="graph0" class="graph" transform="scale(1 1) rotate(0) translate(4 462)">
<title>rlm_sqlcounter_t</title>
<!-- Node1 -->
<g id="node1" class="node">
<title>Node1</title>
<polygon fill="#bfbfbf" stroke="#000000" points="121.5,-.5 121.5,-19.5 210.5,-19.5 210.5,-.5 121.5,-.5"/>
<text text-anchor="middle" x="166" y="-7.5" font-family="Helvetica,sans-Serif" font-size="10.00" fill="#000000">rlm_sqlcounter_t</text>
</g>
<!-- Node2 -->
<g id="node2" class="node">
<title>Node2</title>
<g id="a_node2"><a xlink:href="server_2tmpl_8h.html#structtmpl__s" target="_top" xlink:title="A source or sink of value data. ">
<polygon fill="none" stroke="#000000" points="143,-100.5 143,-119.5 189,-119.5 189,-100.5 143,-100.5"/>
<text text-anchor="middle" x="166" y="-107.5" font-family="Helvetica,sans-Serif" font-size="10.00" fill="#000000">tmpl_s</text>
</a>
</g>
</g>
<!-- Node2&#45;&gt;Node1 -->
<g id="edge1" class="edge">
<title>Node2&#45;&gt;Node1</title>
<path fill="none" stroke="#9a32cd" stroke-dasharray="5,2" d="M166,-90.2332C166,-68.9448 166,-35.9485 166,-19.7063"/>
<polygon fill="#9a32cd" stroke="#9a32cd" points="162.5001,-90.4115 166,-100.4116 169.5001,-90.4116 162.5001,-90.4115"/>
<text text-anchor="middle" x="193.5" y="-74" font-family="Helvetica,sans-Serif" font-size="10.00" fill="#000000"> reply_attr</text>
<text text-anchor="middle" x="193.5" y="-63" font-family="Helvetica,sans-Serif" font-size="10.00" fill="#000000">key</text>
<text text-anchor="middle" x="193.5" y="-52" font-family="Helvetica,sans-Serif" font-size="10.00" fill="#000000">paircmp_attr</text>
<text text-anchor="middle" x="193.5" y="-41" font-family="Helvetica,sans-Serif" font-size="10.00" fill="#000000">limit_attr</text>
</g>
<!-- Node3 -->
<g id="node3" class="node">
<title>Node3</title>
<g id="a_node3"><a xlink:href="server_2tmpl_8h.html#structtmpl__rules__s" target="_top" xlink:title="Optional arguments passed to vp_tmpl functions. ">
<polygon fill="none" stroke="#000000" points="130,-167.5 130,-186.5 202,-186.5 202,-167.5 130,-167.5"/>
<text text-anchor="middle" x="166" y="-174.5" font-family="Helvetica,sans-Serif" font-size="10.00" fill="#000000">tmpl_rules_s</text>
</a>
</g>
</g>
<!-- Node3&#45;&gt;Node2 -->
<g id="edge2" class="edge">
<title>Node3&#45;&gt;Node2</title>
<path fill="none" stroke="#9a32cd" stroke-dasharray="5,2" d="M166,-157.1079C166,-144.714 166,-129.3263 166,-119.5817"/>
<polygon fill="#9a32cd" stroke="#9a32cd" points="162.5001,-157.4005 166,-167.4005 169.5001,-157.4006 162.5001,-157.4005"/>
<text text-anchor="middle" x="178.5" y="-141" font-family="Helvetica,sans-Serif" font-size="10.00" fill="#000000"> rules</text>
</g>
<!-- Node3&#45;&gt;Node3 -->
<g id="edge3" class="edge">
<title>Node3&#45;&gt;Node3</title>
<path fill="none" stroke="#9a32cd" stroke-dasharray="5,2" d="M212.2083,-181.9469C216.9614,-180.9732 220,-179.3242 220,-177 220,-173.2813 212.2211,-171.2911 202.0873,-171.0297"/>
<polygon fill="#9a32cd" stroke="#9a32cd" points="211.6844,-178.4819 202.0873,-182.9703 212.3887,-185.4464 211.6844,-178.4819"/>
<text text-anchor="middle" x="235.5" y="-174.5" font-family="Helvetica,sans-Serif" font-size="10.00" fill="#000000"> parent</text>
</g>
<!-- Node4 -->
<g id="node4" class="node">
<title>Node4</title>
<g id="a_node4"><a xlink:href="dict__priv_8h.html#structfr__dict" target="_top" xlink:title="Vendors and attribute names. ">
<polygon fill="none" stroke="#000000" points="161,-326.5 161,-345.5 205,-345.5 205,-326.5 161,-326.5"/>
<text text-anchor="middle" x="183" y="-333.5" font-family="Helvetica,sans-Serif" font-size="10.00" fill="#000000">fr_dict</text>
</a>
</g>
</g>
<!-- Node4&#45;&gt;Node3 -->
<g id="edge4" class="edge">
<title>Node4&#45;&gt;Node3</title>
<path fill="none" stroke="#9a32cd" stroke-dasharray="5,2" d="M174.5348,-317.1948C168.8831,-303.5707 161.9633,-284.5395 159,-267 154.0917,-237.948 160.1676,-203.0285 163.7418,-186.5274"/>
<polygon fill="#9a32cd" stroke="#9a32cd" points="171.3498,-318.6478 178.523,-326.4449 177.7778,-315.8763 171.3498,-318.6478"/>
<text text-anchor="middle" x="178" y="-248" font-family="Helvetica,sans-Serif" font-size="10.00" fill="#000000"> dict_def</text>
</g>
<!-- Node4&#45;&gt;Node4 -->
<g id="edge10" class="edge">
<title>Node4&#45;&gt;Node4</title>
<path fill="none" stroke="#9a32cd" stroke-dasharray="5,2" d="M215.4045,-342.7128C219.9533,-341.6177 223,-339.3801 223,-336 223,-330.4531 214.7952,-327.983 205.2124,-328.5897"/>
<polygon fill="#9a32cd" stroke="#9a32cd" points="214.95,-339.2356 205.2124,-343.4103 215.428,-346.2193 214.95,-339.2356"/>
<text text-anchor="middle" x="244.5" y="-333.5" font-family="Helvetica,sans-Serif" font-size="10.00" fill="#000000"> attr_valid</text>
</g>
<!-- Node9 -->
<g id="node7" class="node">
<title>Node9</title>
<g id="a_node7"><a xlink:href="dict__priv_8h.html#structfr__dict__gctx__s" target="_top" xlink:title="fr_dict_gctx_s">
<polygon fill="none" stroke="#ff0000" points="16,-241 16,-260 94,-260 94,-241 16,-241"/>
<text text-anchor="middle" x="55" y="-248" font-family="Helvetica,sans-Serif" font-size="10.00" fill="#000000">fr_dict_gctx_s</text>
</a>
</g>
</g>
<!-- Node4&#45;&gt;Node9 -->
<g id="edge9" class="edge">
<title>Node4&#45;&gt;Node9</title>
<path fill="none" stroke="#9a32cd" stroke-dasharray="5,2" d="M150.937,-329.0439C134.9421,-324.5282 115.886,-317.4864 101,-307 83.0071,-294.3249 68.2225,-272.7784 60.5971,-260.2757"/>
<polygon fill="#9a32cd" stroke="#9a32cd" points="150.3711,-332.5135 160.9313,-331.6573 152.1421,-325.7412 150.3711,-332.5135"/>
<text text-anchor="middle" x="118.5" y="-293.5" font-family="Helvetica,sans-Serif" font-size="10.00" fill="#000000"> internal</text>
</g>
<!-- Node16 -->
<g id="node8" class="node">
<title>Node16</title>
<g id="a_node8"><a xlink:href="dict_8h.html#structdict__attr__s" target="_top" xlink:title="Dictionary attribute. ">
<polygon fill="none" stroke="#ff0000" points="206,-241 206,-260 268,-260 268,-241 206,-241"/>
<text text-anchor="middle" x="237" y="-248" font-family="Helvetica,sans-Serif" font-size="10.00" fill="#000000">dict_attr_s</text>
</a>
</g>
</g>
<!-- Node4&#45;&gt;Node16 -->
<g id="edge12" class="edge">
<title>Node4&#45;&gt;Node16</title>
<path fill="none" stroke="#9a32cd" stroke-dasharray="5,2" d="M201.1307,-319.1073C204.6557,-315.324 208.1393,-311.1853 211,-307 221.3582,-291.8455 229.4249,-271.9028 233.6757,-260.214"/>
<polygon fill="#9a32cd" stroke="#9a32cd" points="198.5791,-316.7097 194.0235,-326.2751 203.5499,-321.6385 198.5791,-316.7097"/>
<text text-anchor="middle" x="232.5" y="-293.5" font-family="Helvetica,sans-Serif" font-size="10.00" fill="#000000"> dict</text>
</g>
<!-- Node18 -->
<g id="node10" class="node">
<title>Node18</title>
<g id="a_node10"><a xlink:href="dict_8h.html#structfr__dict__protocol__t" target="_top" xlink:title="Protocol&#45;specific callbacks in libfreeradius&#45;PROTOCOL. ">
<polygon fill="none" stroke="#000000" points="332,-241 332,-260 424,-260 424,-241 332,-241"/>
<text text-anchor="middle" x="378" y="-248" font-family="Helvetica,sans-Serif" font-size="10.00" fill="#000000">fr_dict_protocol_t</text>
</a>
</g>
</g>
<!-- Node4&#45;&gt;Node18 -->
<g id="edge17" class="edge">
<title>Node4&#45;&gt;Node18</title>
<path fill="none" stroke="#9a32cd" stroke-dasharray="5,2" d="M214.2418,-323.6267C224.6607,-318.9812 236.1233,-313.2865 246,-307 258.7699,-298.8719 258.7777,-292.3693 272,-285 278.6985,-281.2667 317.7359,-268.9312 346.4998,-260.0766"/>
<polygon fill="#9a32cd" stroke="#9a32cd" points="212.8448,-320.4175 205.0423,-327.5849 215.6114,-326.8476 212.8448,-320.4175"/>
<text text-anchor="middle" x="293.5" y="-293.5" font-family="Helvetica,sans-Serif" font-size="10.00" fill="#000000"> attr_valid</text>
</g>
<!-- Node5 -->
<g id="node5" class="node">
<title>Node5</title>
<g id="a_node5"><a xlink:href="table_8h.html#structfr__table__num__ordered__t" target="_top" xlink:title="An element in an arbitrarily ordered array of name to num mappings. ">
<polygon fill="none" stroke="#ff0000" points="230.5,-438.5 230.5,-457.5 349.5,-457.5 349.5,-438.5 230.5,-438.5"/>
<text text-anchor="middle" x="290" y="-445.5" font-family="Helvetica,sans-Serif" font-size="10.00" fill="#000000">fr_table_num_ordered_t</text>
</a>
</g>
</g>
<!-- Node5&#45;&gt;Node4 -->
<g id="edge5" class="edge">
<title>Node5&#45;&gt;Node4</title>
<path fill="none" stroke="#9a32cd" stroke-dasharray="5,2" d="M273.9057,-431.1536C251.1277,-407.3113 210.2426,-364.5156 192.0997,-345.5249"/>
<polygon fill="#9a32cd" stroke="#9a32cd" points="271.4387,-433.638 280.8772,-438.4509 276.5001,-428.8025 271.4387,-433.638"/>
<text text-anchor="middle" x="293" y="-390" font-family="Helvetica,sans-Serif" font-size="10.00" fill="#000000"> subtype_table</text>
</g>
<!-- Node5&#45;&gt;Node18 -->
<g id="edge16" class="edge">
<title>Node5&#45;&gt;Node18</title>
<path fill="none" stroke="#9a32cd" stroke-dasharray="5,2" d="M316.6074,-432.3713C321.2061,-428.762 325.595,-424.6091 329,-420 367.0409,-368.5066 375.6276,-288.1173 377.4983,-260.335"/>
<polygon fill="#9a32cd" stroke="#9a32cd" points="314.4175,-429.6331 308.2702,-438.2622 318.457,-435.35 314.4175,-429.6331"/>
<text text-anchor="middle" x="400" y="-333.5" font-family="Helvetica,sans-Serif" font-size="10.00" fill="#000000"> subtype_table</text>
</g>
<!-- Node7 -->
<g id="node6" class="node">
<title>Node7</title>
<g id="a_node6"><a xlink:href="hash_8c.html#structfr__hash__table__s" target="_top" xlink:title="fr_hash_table_s">
<polygon fill="none" stroke="#ff0000" points="0,-438.5 0,-457.5 86,-457.5 86,-438.5 0,-438.5"/>
<text text-anchor="middle" x="43" y="-445.5" font-family="Helvetica,sans-Serif" font-size="10.00" fill="#000000">fr_hash_table_s</text>
</a>
</g>
</g>
<!-- Node7&#45;&gt;Node4 -->
<g id="edge6" class="edge">
<title>Node7&#45;&gt;Node4</title>
<path fill="none" stroke="#9a32cd" stroke-dasharray="5,2" d="M49.2285,-428.6052C56.2464,-409.7484 69.4352,-381.593 90,-365 110.5333,-348.4325 140.576,-341.2878 160.9138,-338.2341"/>
<polygon fill="#9a32cd" stroke="#9a32cd" points="45.8589,-427.6391 45.8784,-438.2339 52.4702,-429.9393 45.8589,-427.6391"/>
<text text-anchor="middle" x="134.5" y="-412" font-family="Helvetica,sans-Serif" font-size="10.00" fill="#000000"> attributes_by_name</text>
<text text-anchor="middle" x="134.5" y="-401" font-family="Helvetica,sans-Serif" font-size="10.00" fill="#000000">autoref</text>
<text text-anchor="middle" x="134.5" y="-390" font-family="Helvetica,sans-Serif" font-size="10.00" fill="#000000">vendors_by_num</text>
<text text-anchor="middle" x="134.5" y="-379" font-family="Helvetica,sans-Serif" font-size="10.00" fill="#000000">attributes_combo</text>
<text text-anchor="middle" x="134.5" y="-368" font-family="Helvetica,sans-Serif" font-size="10.00" fill="#000000">vendors_by_name</text>
</g>
<!-- Node7&#45;&gt;Node9 -->
<g id="edge8" class="edge">
<title>Node7&#45;&gt;Node9</title>
<path fill="none" stroke="#9a32cd" stroke-dasharray="5,2" d="M41.5317,-428.1238C39.6378,-397.2856 37.4181,-336.1363 45,-285 46.2805,-276.3638 49.1512,-266.8555 51.4898,-260.0117"/>
<polygon fill="#9a32cd" stroke="#9a32cd" points="38.0579,-428.6319 42.2205,-438.3747 45.0421,-428.1625 38.0579,-428.6319"/>
<text text-anchor="middle" x="81" y="-339" font-family="Helvetica,sans-Serif" font-size="10.00" fill="#000000"> protocol_by_num</text>
<text text-anchor="middle" x="81" y="-328" font-family="Helvetica,sans-Serif" font-size="10.00" fill="#000000">protocol_by_name</text>
</g>
<!-- Node9&#45;&gt;Node4 -->
<g id="edge7" class="edge">
<title>Node9&#45;&gt;Node4</title>
<path fill="none" stroke="#9a32cd" stroke-dasharray="5,2" d="M49.7843,-270.0216C47.8268,-281.9673 47.7617,-296.8539 56,-307 62.6112,-315.1422 126.3238,-326.7113 160.9141,-332.4658"/>
<polygon fill="#9a32cd" stroke="#9a32cd" points="53.2374,-270.612 51.9301,-260.0981 46.3956,-269.1325 53.2374,-270.612"/>
<text text-anchor="middle" x="67" y="-293.5" font-family="Helvetica,sans-Serif" font-size="10.00" fill="#000000"> gctx</text>
</g>
<!-- Node16&#45;&gt;Node3 -->
<g id="edge18" class="edge">
<title>Node16&#45;&gt;Node3</title>
<path fill="none" stroke="#9a32cd" stroke-dasharray="5,2" d="M220.621,-233.5442C206.6461,-219.0773 187.0366,-198.7773 175.5109,-186.8458"/>
<polygon fill="#9a32cd" stroke="#9a32cd" points="218.2529,-236.1305 227.718,-240.8912 223.2876,-231.2671 218.2529,-236.1305"/>
<text text-anchor="middle" x="229" y="-208" font-family="Helvetica,sans-Serif" font-size="10.00" fill="#000000"> attr_parent</text>
</g>
<!-- Node16&#45;&gt;Node4 -->
<g id="edge11" class="edge">
<title>Node16&#45;&gt;Node4</title>
<path fill="none" stroke="#9a32cd" stroke-dasharray="5,2" d="M203.7129,-265.1918C195.8944,-270.2945 188.5292,-276.8395 184,-285 176.866,-297.8537 178.5635,-315.4818 180.6387,-326.2879"/>
<polygon fill="#9a32cd" stroke="#9a32cd" points="205.7111,-268.079 212.6057,-260.0344 202.1993,-262.0236 205.7111,-268.079"/>
<text text-anchor="middle" x="197.5" y="-299" font-family="Helvetica,sans-Serif" font-size="10.00" fill="#000000"> root</text>
<text text-anchor="middle" x="197.5" y="-288" font-family="Helvetica,sans-Serif" font-size="10.00" fill="#000000">fixups</text>
</g>
<!-- Node16&#45;&gt;Node16 -->
<g id="edge13" class="edge">
<title>Node16&#45;&gt;Node16</title>
<path fill="none" stroke="#9a32cd" stroke-dasharray="5,2" d="M278.1528,-256.8897C282.9088,-255.7061 286,-253.5762 286,-250.5 286,-245.5781 278.0865,-243.0787 268.102,-243.0018"/>
<polygon fill="#9a32cd" stroke="#9a32cd" points="277.658,-253.4229 268.102,-257.9982 278.4254,-260.3807 277.658,-253.4229"/>
<text text-anchor="middle" x="300" y="-259" font-family="Helvetica,sans-Serif" font-size="10.00" fill="#000000"> next</text>
<text text-anchor="middle" x="300" y="-248" font-family="Helvetica,sans-Serif" font-size="10.00" fill="#000000">fixup</text>
<text text-anchor="middle" x="300" y="-237" font-family="Helvetica,sans-Serif" font-size="10.00" fill="#000000">parent</text>
</g>
<!-- Node12 -->
<g id="node9" class="node">
<title>Node12</title>
<g id="a_node9"><a xlink:href="dl_8h.html#structdl__s" target="_top" xlink:title="Module handle. ">
<polygon fill="none" stroke="#ff0000" points="165.5,-438.5 165.5,-457.5 200.5,-457.5 200.5,-438.5 165.5,-438.5"/>
<text text-anchor="middle" x="183" y="-445.5" font-family="Helvetica,sans-Serif" font-size="10.00" fill="#000000">dl_s</text>
</a>
</g>
</g>
<!-- Node12&#45;&gt;Node4 -->
<g id="edge14" class="edge">
<title>Node12&#45;&gt;Node4</title>
<path fill="none" stroke="#9a32cd" stroke-dasharray="5,2" d="M183,-428.2702C183,-403.9985 183,-363.7725 183,-345.5249"/>
<polygon fill="#9a32cd" stroke="#9a32cd" points="179.5001,-428.4509 183,-438.4509 186.5001,-428.451 179.5001,-428.4509"/>
<text text-anchor="middle" x="188.5" y="-390" font-family="Helvetica,sans-Serif" font-size="10.00" fill="#000000"> dl</text>
</g>
<!-- Node18&#45;&gt;Node4 -->
<g id="edge15" class="edge">
<title>Node18&#45;&gt;Node4</title>
<path fill="none" stroke="#9a32cd" stroke-dasharray="5,2" d="M360.6471,-267.1443C343.2991,-283.7799 319.1605,-306.915 319,-307 282.3019,-326.4295 233.5243,-332.8417 205.4651,-334.9578"/>
<polygon fill="#9a32cd" stroke="#9a32cd" points="363.2347,-269.5121 368.0295,-260.0643 358.3895,-264.46 363.2347,-269.5121"/>
<text text-anchor="middle" x="353.5" y="-293.5" font-family="Helvetica,sans-Serif" font-size="10.00" fill="#000000"> proto</text>
</g>
</g>
</svg>
