<?xml version="1.0" encoding="UTF-8" standalone="no"?>
<!DOCTYPE svg PUBLIC "-//W3C//DTD SVG 1.1//EN"
 "http://www.w3.org/Graphics/SVG/1.1/DTD/svg11.dtd">
<!-- Generated by graphviz version 2.40.1 (20161225.0304)
 -->
<!-- Title: sync_search_result Pages: 1 -->
<svg width="373pt" height="28pt"
 viewBox="0.00 0.00 373.00 28.00" xmlns="http://www.w3.org/2000/svg" xmlns:xlink="http://www.w3.org/1999/xlink">
<g id="graph0" class="graph" transform="scale(1 1) rotate(0) translate(4 24)">
<title>sync_search_result</title>
<!-- Node1865 -->
<g id="node1" class="node">
<title>Node1865</title>
<polygon fill="#bfbfbf" stroke="#000000" points="0,-.5 0,-19.5 101,-19.5 101,-.5 0,-.5"/>
<text text-anchor="middle" x="50.5" y="-7.5" font-family="Helvetica,sans-Serif" font-size="10.00" fill="#000000">sync_search_result</text>
</g>
<!-- Node1866 -->
<g id="node2" class="node">
<title>Node1866</title>
<g id="a_node2"><a xlink:href="sync_8h.html#a764736db43ab3f25282574c5c672ef2d" target="_top" xlink:title="Function to call when the LDAP handle&#39;s FD is readable. ">
<polygon fill="none" stroke="#000000" points="137,-.5 137,-19.5 209,-19.5 209,-.5 137,-.5"/>
<text text-anchor="middle" x="173" y="-7.5" font-family="Helvetica,sans-Serif" font-size="10.00" fill="#000000">sync_demux</text>
</a>
</g>
</g>
<!-- Node1865&#45;&gt;Node1866 -->
<g id="edge1" class="edge">
<title>Node1865&#45;&gt;Node1866</title>
<path fill="none" stroke="#191970" d="M111.2451,-10C119.9862,-10 128.7411,-10 136.7974,-10"/>
<polygon fill="#191970" stroke="#191970" points="111.0327,-6.5001 101.0327,-10 111.0326,-13.5001 111.0327,-6.5001"/>
</g>
<!-- Node1867 -->
<g id="node3" class="node">
<title>Node1867</title>
<g id="a_node3"><a xlink:href="proto__ldap__sync_8c.html#a780d8f025520975af839da4b487e5863" target="_top" xlink:title="De&#45;multiplex incoming LDAP Messages. ">
<polygon fill="none" stroke="#000000" points="245,-.5 245,-19.5 365,-19.5 365,-.5 245,-.5"/>
<text text-anchor="middle" x="305" y="-7.5" font-family="Helvetica,sans-Serif" font-size="10.00" fill="#000000">proto_ldap_socket_recv</text>
</a>
</g>
</g>
<!-- Node1866&#45;&gt;Node1867 -->
<g id="edge2" class="edge">
<title>Node1866&#45;&gt;Node1867</title>
<path fill="none" stroke="#191970" d="M219.2597,-10C227.532,-10 236.2599,-10 244.8544,-10"/>
<polygon fill="#191970" stroke="#191970" points="219.0696,-6.5001 209.0696,-10 219.0695,-13.5001 219.0696,-6.5001"/>
</g>
</g>
</svg>
