<?xml version="1.0" encoding="UTF-8" standalone="no"?>
<!DOCTYPE svg PUBLIC "-//W3C//DTD SVG 1.1//EN"
 "http://www.w3.org/Graphics/SVG/1.1/DTD/svg11.dtd">
<!-- Generated by graphviz version 2.40.1 (20161225.0304)
 -->
<!-- Title: eap_tls_success Pages: 1 -->
<svg width="891pt" height="166pt"
 viewBox="0.00 0.00 891.00 166.20" xmlns="http://www.w3.org/2000/svg" xmlns:xlink="http://www.w3.org/1999/xlink">
<g id="graph0" class="graph" transform="scale(1 1) rotate(0) translate(4 162.2036)">
<title>eap_tls_success</title>
<!-- Node84 -->
<g id="node1" class="node">
<title>Node84</title>
<polygon fill="#bfbfbf" stroke="#000000" points="0,-43.7036 0,-62.7036 90,-62.7036 90,-43.7036 0,-43.7036"/>
<text text-anchor="middle" x="45" y="-50.7036" font-family="Helvetica,sans-Serif" font-size="10.00" fill="#000000">eap_tls_success</text>
</g>
<!-- Node85 -->
<g id="node2" class="node">
<title>Node85</title>
<g id="a_node2"><a xlink:href="tls_8c.html#a6249e352898859663be29f75b1e829a7" target="_top" xlink:title="Convert the EAP&#45;TLS reply packet into an EAP packet. ">
<polygon fill="none" stroke="#000000" points="145.5,-100.7036 145.5,-119.7036 238.5,-119.7036 238.5,-100.7036 145.5,-100.7036"/>
<text text-anchor="middle" x="192" y="-107.7036" font-family="Helvetica,sans-Serif" font-size="10.00" fill="#000000">eap_tls_compose</text>
</a>
</g>
</g>
<!-- Node84&#45;&gt;Node85 -->
<g id="edge1" class="edge">
<title>Node84&#45;&gt;Node85</title>
<path fill="none" stroke="#191970" d="M63.3002,-62.8102C79.4871,-71.0587 103.8988,-82.8979 126,-91.2036 132.0795,-93.4883 138.5599,-95.661 144.9952,-97.6658"/>
<polygon fill="#191970" stroke="#191970" points="144.4227,-101.1481 155.0068,-100.67 146.4347,-94.4435 144.4227,-101.1481"/>
</g>
<!-- Node86 -->
<g id="node3" class="node">
<title>Node86</title>
<g id="a_node3"><a xlink:href="crypto_8c.html#a584eb5a16a56a0554858c2130965a255" target="_top" xlink:title="Generate keys according to RFC 2716 and add to the reply. ">
<polygon fill="none" stroke="#000000" points="132,-62.7036 132,-81.7036 252,-81.7036 252,-62.7036 132,-62.7036"/>
<text text-anchor="middle" x="192" y="-69.7036" font-family="Helvetica,sans-Serif" font-size="10.00" fill="#000000">eap_crypto_mppe_keys</text>
</a>
</g>
</g>
<!-- Node84&#45;&gt;Node86 -->
<g id="edge2" class="edge">
<title>Node84&#45;&gt;Node86</title>
<path fill="none" stroke="#191970" d="M90.3043,-59.0593C100.2772,-60.3483 111.0664,-61.7428 121.7632,-63.1254"/>
<polygon fill="#191970" stroke="#191970" points="121.5948,-66.6327 131.961,-64.4435 122.4922,-59.6904 121.5948,-66.6327"/>
</g>
<!-- Node226 -->
<g id="node12" class="node">
<title>Node226</title>
<g id="a_node12"><a xlink:href="crypto_8c.html#ab505744fcb0192ea2251b6ebff61c947" target="_top" xlink:title="eap_crypto_tls_session_id">
<polygon fill="none" stroke="#000000" points="126,-24.7036 126,-43.7036 258,-43.7036 258,-24.7036 126,-24.7036"/>
<text text-anchor="middle" x="192" y="-31.7036" font-family="Helvetica,sans-Serif" font-size="10.00" fill="#000000">eap_crypto_tls_session_id</text>
</a>
</g>
</g>
<!-- Node84&#45;&gt;Node226 -->
<g id="edge12" class="edge">
<title>Node84&#45;&gt;Node226</title>
<path fill="none" stroke="#191970" d="M90.3043,-47.348C98.3686,-46.3056 106.9666,-45.1943 115.6179,-44.0761"/>
<polygon fill="#191970" stroke="#191970" points="116.3007,-47.5171 125.7695,-42.764 115.4033,-40.5748 116.3007,-47.5171"/>
</g>
<!-- Node227 -->
<g id="node13" class="node">
<title>Node227</title>
<g id="a_node13"><a xlink:href="pair_8c.html#aec88fdb961ebff5df7335b52c3553ebc" target="_top" xlink:title="Assign a talloced buffer to to a &quot;octets&quot; type value pair. ">
<polygon fill="none" stroke="#000000" points="491,-16.2036 491,-46.2036 606,-46.2036 606,-16.2036 491,-16.2036"/>
<text text-anchor="start" x="499" y="-34.2036" font-family="Helvetica,sans-Serif" font-size="10.00" fill="#000000">fr_pair_value_memdup</text>
<text text-anchor="middle" x="548.5" y="-23.2036" font-family="Helvetica,sans-Serif" font-size="10.00" fill="#000000">_buffer_shallow</text>
</a>
</g>
</g>
<!-- Node84&#45;&gt;Node227 -->
<g id="edge15" class="edge">
<title>Node84&#45;&gt;Node227</title>
<path fill="none" stroke="#191970" d="M60.1007,-43.6364C75.8464,-34.2718 101.5908,-20.6447 126,-15.2036 248.8905,12.1902 396.7772,-4.3083 480.9934,-18.179"/>
<polygon fill="#191970" stroke="#191970" points="480.4997,-21.6451 490.9421,-19.8544 481.6622,-14.7423 480.4997,-21.6451"/>
</g>
<!-- Node87 -->
<g id="node4" class="node">
<title>Node87</title>
<g id="a_node4"><a xlink:href="missing_8h.html#a08fc119558d5c78ced92e8ea07bc727b" target="_top" xlink:title="SSL_SESSION_get_master_key">
<polygon fill="none" stroke="#000000" points="294,-100.7036 294,-119.7036 455,-119.7036 455,-100.7036 294,-100.7036"/>
<text text-anchor="middle" x="374.5" y="-107.7036" font-family="Helvetica,sans-Serif" font-size="10.00" fill="#000000">SSL_SESSION_get_master_key</text>
</a>
</g>
</g>
<!-- Node86&#45;&gt;Node87 -->
<g id="edge3" class="edge">
<title>Node86&#45;&gt;Node87</title>
<path fill="none" stroke="#191970" d="M238.0525,-81.7926C262.5692,-86.8975 292.9096,-93.2149 318.7502,-98.5954"/>
<polygon fill="#191970" stroke="#191970" points="318.2752,-102.0715 328.7787,-100.6836 319.7022,-95.2185 318.2752,-102.0715"/>
</g>
<!-- Node88 -->
<g id="node5" class="node">
<title>Node88</title>
<g id="a_node5"><a xlink:href="missing_8h.html#a21edbc7b2b64af571f4cc73f709ead7d" target="_top" xlink:title="SSL_get_client_random">
<polygon fill="none" stroke="#000000" points="314.5,-24.7036 314.5,-43.7036 434.5,-43.7036 434.5,-24.7036 314.5,-24.7036"/>
<text text-anchor="middle" x="374.5" y="-31.7036" font-family="Helvetica,sans-Serif" font-size="10.00" fill="#000000">SSL_get_client_random</text>
</a>
</g>
</g>
<!-- Node86&#45;&gt;Node88 -->
<g id="edge4" class="edge">
<title>Node86&#45;&gt;Node88</title>
<path fill="none" stroke="#191970" d="M238.0525,-62.6146C262.5692,-57.5097 292.9096,-51.1923 318.7502,-45.8118"/>
<polygon fill="#191970" stroke="#191970" points="319.7022,-49.1887 328.7787,-43.7237 318.2752,-42.3357 319.7022,-49.1887"/>
</g>
<!-- Node89 -->
<g id="node6" class="node">
<title>Node89</title>
<g id="a_node6"><a xlink:href="missing_8h.html#a51e9ea3df22f29a355a30760af6ac947" target="_top" xlink:title="SSL_get_server_random">
<polygon fill="none" stroke="#000000" points="312.5,-62.7036 312.5,-81.7036 436.5,-81.7036 436.5,-62.7036 312.5,-62.7036"/>
<text text-anchor="middle" x="374.5" y="-69.7036" font-family="Helvetica,sans-Serif" font-size="10.00" fill="#000000">SSL_get_server_random</text>
</a>
</g>
</g>
<!-- Node86&#45;&gt;Node89 -->
<g id="edge5" class="edge">
<title>Node86&#45;&gt;Node89</title>
<path fill="none" stroke="#191970" d="M252.0101,-72.2036C268.0124,-72.2036 285.4725,-72.2036 302.0649,-72.2036"/>
<polygon fill="#191970" stroke="#191970" points="302.2631,-75.7037 312.2631,-72.2036 302.263,-68.7037 302.2631,-75.7037"/>
</g>
<!-- Node90 -->
<g id="node7" class="node">
<title>Node90</title>
<g id="a_node7"><a xlink:href="lib_2eap_2base_8c.html#af22050870b975366f83e7b9c33e176e4" target="_top" xlink:title="eap_add_reply">
<polygon fill="none" stroke="#000000" points="334.5,-138.7036 334.5,-157.7036 414.5,-157.7036 414.5,-138.7036 334.5,-138.7036"/>
<text text-anchor="middle" x="374.5" y="-145.7036" font-family="Helvetica,sans-Serif" font-size="10.00" fill="#000000">eap_add_reply</text>
</a>
</g>
</g>
<!-- Node86&#45;&gt;Node90 -->
<g id="edge6" class="edge">
<title>Node86&#45;&gt;Node90</title>
<path fill="none" stroke="#191970" d="M237.3792,-81.7825C244.5554,-84.2675 251.6835,-87.3625 258,-91.2036 277.8777,-103.2913 273.835,-117.6016 294,-129.2036 303.2435,-134.5219 313.8987,-138.3536 324.3686,-141.1135"/>
<polygon fill="#191970" stroke="#191970" points="323.7624,-144.5663 334.2977,-143.4448 325.3625,-137.7516 323.7624,-144.5663"/>
</g>
<!-- Node91 -->
<g id="node8" class="node">
<title>Node91</title>
<g id="a_node8"><a xlink:href="pair_8c.html#ad6a4af5aec8fe8bac9db2211ae354989" target="_top" xlink:title="Copy data into an &quot;octets&quot; data type. ">
<polygon fill="none" stroke="#000000" points="491,-103.7036 491,-122.7036 606,-122.7036 606,-103.7036 491,-103.7036"/>
<text text-anchor="middle" x="548.5" y="-110.7036" font-family="Helvetica,sans-Serif" font-size="10.00" fill="#000000">fr_pair_value_memdup</text>
</a>
</g>
</g>
<!-- Node90&#45;&gt;Node91 -->
<g id="edge7" class="edge">
<title>Node90&#45;&gt;Node91</title>
<path fill="none" stroke="#191970" d="M414.8564,-140.0859C437.5332,-135.5245 466.2125,-129.7557 491.1844,-124.7326"/>
<polygon fill="#191970" stroke="#191970" points="492.1563,-128.1073 501.2697,-122.704 490.7758,-121.2448 492.1563,-128.1073"/>
</g>
<!-- Node92 -->
<g id="node9" class="node">
<title>Node92</title>
<g id="a_node9"><a xlink:href="value_8c.html#ad5da2574fed047b3ae861999d06c38ac" target="_top" xlink:title="Clear/free any existing value and metadata. ">
<polygon fill="none" stroke="#ff0000" points="650.5,-65.7036 650.5,-84.7036 748.5,-84.7036 748.5,-65.7036 650.5,-65.7036"/>
<text text-anchor="middle" x="699.5" y="-72.7036" font-family="Helvetica,sans-Serif" font-size="10.00" fill="#000000">fr_value_box_clear</text>
</a>
</g>
</g>
<!-- Node91&#45;&gt;Node92 -->
<g id="edge8" class="edge">
<title>Node91&#45;&gt;Node92</title>
<path fill="none" stroke="#191970" d="M586.6037,-103.6146C606.44,-98.6227 630.8839,-92.4712 651.9483,-87.1703"/>
<polygon fill="#191970" stroke="#191970" points="652.8269,-90.5584 661.6703,-84.7237 651.1185,-83.77 652.8269,-90.5584"/>
</g>
<!-- Node99 -->
<g id="node11" class="node">
<title>Node99</title>
<g id="a_node11"><a xlink:href="value_8c.html#af7e5339e09823aff580c0ac63c5d5c84" target="_top" xlink:title="Copy a buffer to a fr_value_box_t. ">
<polygon fill="none" stroke="#ff0000" points="642,-103.7036 642,-122.7036 757,-122.7036 757,-103.7036 642,-103.7036"/>
<text text-anchor="middle" x="699.5" y="-110.7036" font-family="Helvetica,sans-Serif" font-size="10.00" fill="#000000">fr_value_box_memdup</text>
</a>
</g>
</g>
<!-- Node91&#45;&gt;Node99 -->
<g id="edge10" class="edge">
<title>Node91&#45;&gt;Node99</title>
<path fill="none" stroke="#191970" d="M606.0174,-113.2036C614.4639,-113.2036 623.2292,-113.2036 631.8561,-113.2036"/>
<polygon fill="#191970" stroke="#191970" points="631.8926,-116.7037 641.8925,-113.2036 631.8925,-109.7037 631.8926,-116.7037"/>
</g>
<!-- Node98 -->
<g id="node10" class="node">
<title>Node98</title>
<g id="a_node10"><a xlink:href="value_8h.html#ab2f9fbd42c467414fa4e5c3793fb3572" target="_top" xlink:title="Initialise a fr_value_box_t. ">
<polygon fill="none" stroke="#000000" points="793,-65.7036 793,-84.7036 883,-84.7036 883,-65.7036 793,-65.7036"/>
<text text-anchor="middle" x="838" y="-72.7036" font-family="Helvetica,sans-Serif" font-size="10.00" fill="#000000">fr_value_box_init</text>
</a>
</g>
</g>
<!-- Node92&#45;&gt;Node98 -->
<g id="edge9" class="edge">
<title>Node92&#45;&gt;Node98</title>
<path fill="none" stroke="#191970" d="M748.7199,-75.2036C759.6732,-75.2036 771.3579,-75.2036 782.5424,-75.2036"/>
<polygon fill="#191970" stroke="#191970" points="782.638,-78.7037 792.6379,-75.2036 782.6379,-71.7037 782.638,-78.7037"/>
</g>
<!-- Node99&#45;&gt;Node98 -->
<g id="edge11" class="edge">
<title>Node99&#45;&gt;Node98</title>
<path fill="none" stroke="#191970" d="M734.4494,-103.6146C752.3284,-98.7092 774.2884,-92.684 793.3778,-87.4465"/>
<polygon fill="#191970" stroke="#191970" points="794.3443,-90.8108 803.0618,-84.7895 792.4921,-84.0603 794.3443,-90.8108"/>
</g>
<!-- Node226&#45;&gt;Node88 -->
<g id="edge13" class="edge">
<title>Node226&#45;&gt;Node88</title>
<path fill="none" stroke="#191970" d="M258.1447,-34.2036C273.0635,-34.2036 288.9531,-34.2036 304.0416,-34.2036"/>
<polygon fill="#191970" stroke="#191970" points="304.3378,-37.7037 314.3377,-34.2036 304.3377,-30.7037 304.3378,-37.7037"/>
</g>
<!-- Node226&#45;&gt;Node89 -->
<g id="edge14" class="edge">
<title>Node226&#45;&gt;Node89</title>
<path fill="none" stroke="#191970" d="M238.0525,-43.7926C262.5692,-48.8975 292.9096,-55.2149 318.7502,-60.5954"/>
<polygon fill="#191970" stroke="#191970" points="318.2752,-64.0715 328.7787,-62.6836 319.7022,-57.2185 318.2752,-64.0715"/>
</g>
<!-- Node227&#45;&gt;Node92 -->
<g id="edge16" class="edge">
<title>Node227&#45;&gt;Node92</title>
<path fill="none" stroke="#191970" d="M600.0433,-46.2229C618.4696,-51.5921 639.0197,-57.5802 656.6349,-62.7131"/>
<polygon fill="#191970" stroke="#191970" points="656.0492,-66.1879 666.6291,-65.6253 658.0075,-59.4674 656.0492,-66.1879"/>
</g>
<!-- Node228 -->
<g id="node14" class="node">
<title>Node228</title>
<g id="a_node14"><a xlink:href="value_8c.html#a0574db7463529867450887fab085ccf2" target="_top" xlink:title="Assign a talloced buffer to a box, but don&#39;t copy it. ">
<polygon fill="none" stroke="#000000" points="642,-16.2036 642,-46.2036 757,-46.2036 757,-16.2036 642,-16.2036"/>
<text text-anchor="start" x="650" y="-34.2036" font-family="Helvetica,sans-Serif" font-size="10.00" fill="#000000">fr_value_box_memdup</text>
<text text-anchor="middle" x="699.5" y="-23.2036" font-family="Helvetica,sans-Serif" font-size="10.00" fill="#000000">_buffer_shallow</text>
</a>
</g>
</g>
<!-- Node227&#45;&gt;Node228 -->
<g id="edge17" class="edge">
<title>Node227&#45;&gt;Node228</title>
<path fill="none" stroke="#191970" d="M606.0174,-31.2036C614.4639,-31.2036 623.2292,-31.2036 631.8561,-31.2036"/>
<polygon fill="#191970" stroke="#191970" points="631.8926,-34.7037 641.8925,-31.2036 631.8925,-27.7037 631.8926,-34.7037"/>
</g>
<!-- Node228&#45;&gt;Node98 -->
<g id="edge18" class="edge">
<title>Node228&#45;&gt;Node98</title>
<path fill="none" stroke="#191970" d="M746.7765,-46.2229C763.5194,-51.5419 782.1742,-57.4683 798.2296,-62.569"/>
<polygon fill="#191970" stroke="#191970" points="797.2598,-65.9332 807.8502,-65.6253 799.3793,-59.2618 797.2598,-65.9332"/>
</g>
</g>
</svg>
