<?xml version="1.0" encoding="UTF-8" standalone="no"?>
<!DOCTYPE svg PUBLIC "-//W3C//DTD SVG 1.1//EN"
 "http://www.w3.org/Graphics/SVG/1.1/DTD/svg11.dtd">
<!-- Generated by graphviz version 2.40.1 (20161225.0304)
 -->
<!-- Title: eap_tls_fail Pages: 1 -->
<!--zoomable 94 -->
<svg id="main" version="1.1" xmlns="http://www.w3.org/2000/svg" xmlns:xlink="http://www.w3.org/1999/xlink" xml:space="preserve" onload="init(evt)">
<style type="text/css"><![CDATA[
.edge:hover path { stroke: red; }
.edge:hover polygon { stroke: red; fill: red; }
]]></style>
<script type="text/javascript"><![CDATA[
var edges = document.getElementsByTagName('g');
if (edges && edges.length) {
  for (var i=0;i<edges.length;i++) {
    if (edges[i].id.substr(0,4)=='edge') {
      edges[i].setAttribute('class','edge');
    }
  }
}
]]></script>
        <defs>
                <circle id="rim" cx="0" cy="0" r="7"/>
                <circle id="rim2" cx="0" cy="0" r="3.5"/>
                <g id="zoomPlus">
                        <use xlink:href="#rim" fill="#404040">
                                <set attributeName="fill" to="#808080" begin="zoomplus.mouseover" end="zoomplus.mouseout"/>
                        </use>
                        <path d="M-4,0h8M0,-4v8" fill="none" stroke="white" stroke-width="1.5" pointer-events="none"/>
                </g>
                <g id="zoomMin">
                        <use xlink:href="#rim" fill="#404040">
                                <set attributeName="fill" to="#808080" begin="zoomminus.mouseover" end="zoomminus.mouseout"/>
                        </use>
                        <path d="M-4,0h8" fill="none" stroke="white" stroke-width="1.5" pointer-events="none"/>
                </g>
                <g id="dirArrow">
                        <path fill="none" stroke="white" stroke-width="1.5" d="M0,-3.0v7 M-2.5,-0.5L0,-3.0L2.5,-0.5"/>
                </g>
               <g id="resetDef">
                       <use xlink:href="#rim2" fill="#404040">
                               <set attributeName="fill" to="#808080" begin="reset.mouseover" end="reset.mouseout"/>
                       </use>
               </g>
        </defs>

<script type="text/javascript">
var viewWidth = 609;
var viewHeight = 94;
var sectionId = 'dynsection-7';
</script>
<script xlink:href="svgpan.js"/>
<svg id="graph" class="graph">
<g id="viewport">
<title>eap_tls_fail</title>
<!-- Node39 -->
<g id="node1" class="node">
<title>Node39</title>
<polygon fill="#bfbfbf" stroke="#000000" points="0,-22.5 0,-41.5 66,-41.5 66,-22.5 0,-22.5"/>
<text text-anchor="middle" x="33" y="-29.5" font-family="Helvetica,sans-Serif" font-size="10.00" fill="#000000">eap_tls_fail</text>
</g>
<!-- Node40 -->
<g id="node2" class="node">
<title>Node40</title>
<g id="a_node2"><a xlink:href="rlm__eap__fast_8c.html#a1ee517a20d1254bcde78063a1e36840c" target="_top" xlink:title="mod_process">
<polygon fill="none" stroke="#000000" points="120.5,-66.5 120.5,-85.5 195.5,-85.5 195.5,-66.5 120.5,-66.5"/>
<text text-anchor="middle" x="158" y="-73.5" font-family="Helvetica,sans-Serif" font-size="10.00" fill="#000000">mod_process</text>
</a>
</g>
</g>
<!-- Node39&#45;&gt;Node40 -->
<g id="edge1" class="edge">
<title>Node39&#45;&gt;Node40</title>
<path fill="none" stroke="#191970" d="M68.3682,-44.9721C79.1491,-48.8838 91.0459,-53.1577 102,-57 110.9129,-60.1263 120.652,-63.4594 129.4725,-66.4469"/>
<polygon fill="#191970" stroke="#191970" points="69.4341,-41.6355 58.8401,-41.5044 67.0401,-48.2134 69.4341,-41.6355"/>
</g>
<!-- Node42 -->
<g id="node4" class="node">
<title>Node42</title>
<g id="a_node4"><a xlink:href="rlm__eap__tls_8c.html#a31ff98da62e660c207698dcb678285a7" target="_top" xlink:title="eap_tls_virtual_server\l_result">
<polygon fill="none" stroke="#000000" points="102,-17 102,-47 214,-47 214,-17 102,-17"/>
<text text-anchor="start" x="110" y="-35" font-family="Helvetica,sans-Serif" font-size="10.00" fill="#000000">eap_tls_virtual_server</text>
<text text-anchor="middle" x="158" y="-24" font-family="Helvetica,sans-Serif" font-size="10.00" fill="#000000">_result</text>
</a>
</g>
</g>
<!-- Node39&#45;&gt;Node42 -->
<g id="edge3" class="edge">
<title>Node39&#45;&gt;Node42</title>
<path fill="none" stroke="#191970" d="M76.3253,-32C84.5914,-32 93.3529,-32 101.95,-32"/>
<polygon fill="#191970" stroke="#191970" points="76.1696,-28.5001 66.1695,-32 76.1695,-35.5001 76.1696,-28.5001"/>
</g>
<!-- Node43 -->
<g id="node5" class="node">
<title>Node43</title>
<g id="a_node5"><a xlink:href="rlm__eap__tls_8c.html#a25c6b3cce506245931b5ac4a8b77b9d2" target="_top" xlink:title="eap_tls_virtual_server">
<polygon fill="none" stroke="#000000" points="250,-.5 250,-19.5 362,-19.5 362,-.5 250,-.5"/>
<text text-anchor="middle" x="306" y="-7.5" font-family="Helvetica,sans-Serif" font-size="10.00" fill="#000000">eap_tls_virtual_server</text>
</a>
</g>
</g>
<!-- Node39&#45;&gt;Node43 -->
<g id="edge7" class="edge">
<title>Node39&#45;&gt;Node43</title>
<path fill="none" stroke="#191970" d="M63.0519,-18.5403C74.931,-13.9074 88.8625,-9.3066 102,-7 151.3649,1.6672 208.4836,-.1634 249.7027,-3.5349"/>
<polygon fill="#191970" stroke="#191970" points="61.555,-15.3709 53.6187,-22.3899 64.1998,-21.8521 61.555,-15.3709"/>
</g>
<!-- Node41 -->
<g id="node3" class="node">
<title>Node41</title>
<g id="a_node3"><a xlink:href="rlm__eap__fast_8c.html#afde9901631f6849be380901f6970a49b" target="_top" xlink:title="mod_session_init">
<polygon fill="none" stroke="#000000" points="260,-66.5 260,-85.5 352,-85.5 352,-66.5 260,-66.5"/>
<text text-anchor="middle" x="306" y="-73.5" font-family="Helvetica,sans-Serif" font-size="10.00" fill="#000000">mod_session_init</text>
</a>
</g>
</g>
<!-- Node40&#45;&gt;Node41 -->
<g id="edge2" class="edge">
<title>Node40&#45;&gt;Node41</title>
<path fill="none" stroke="#191970" d="M206.1547,-76C223.407,-76 242.8027,-76 259.8788,-76"/>
<polygon fill="#191970" stroke="#191970" points="205.7296,-72.5001 195.7296,-76 205.7296,-79.5001 205.7296,-72.5001"/>
</g>
<!-- Node42&#45;&gt;Node43 -->
<g id="edge4" class="edge">
<title>Node42&#45;&gt;Node43</title>
<path fill="none" stroke="#191970" d="M224.2802,-22.1475C232.7955,-20.8817 241.4487,-19.5955 249.7821,-18.3567"/>
<polygon fill="#191970" stroke="#191970" points="223.7513,-18.6876 214.3747,-23.62 224.7806,-25.6115 223.7513,-18.6876"/>
</g>
<!-- Node44 -->
<g id="node6" class="node">
<title>Node44</title>
<g id="a_node6"><a xlink:href="rlm__eap__tls_8c.html#a1ee517a20d1254bcde78063a1e36840c" target="_top" xlink:title="mod_process">
<polygon fill="none" stroke="#000000" points="398,-.5 398,-19.5 473,-19.5 473,-.5 398,-.5"/>
<text text-anchor="middle" x="435.5" y="-7.5" font-family="Helvetica,sans-Serif" font-size="10.00" fill="#000000">mod_process</text>
</a>
</g>
</g>
<!-- Node43&#45;&gt;Node44 -->
<g id="edge5" class="edge">
<title>Node43&#45;&gt;Node44</title>
<path fill="none" stroke="#191970" d="M372.2575,-10C380.9729,-10 389.6519,-10 397.6624,-10"/>
<polygon fill="#191970" stroke="#191970" points="372.0474,-6.5001 362.0474,-10 372.0474,-13.5001 372.0474,-6.5001"/>
</g>
<!-- Node45 -->
<g id="node7" class="node">
<title>Node45</title>
<g id="a_node7"><a xlink:href="rlm__eap__tls_8c.html#afde9901631f6849be380901f6970a49b" target="_top" xlink:title="mod_session_init">
<polygon fill="none" stroke="#000000" points="509,-.5 509,-19.5 601,-19.5 601,-.5 509,-.5"/>
<text text-anchor="middle" x="555" y="-7.5" font-family="Helvetica,sans-Serif" font-size="10.00" fill="#000000">mod_session_init</text>
</a>
</g>
</g>
<!-- Node44&#45;&gt;Node45 -->
<g id="edge6" class="edge">
<title>Node44&#45;&gt;Node45</title>
<path fill="none" stroke="#191970" d="M483.5645,-10C491.8304,-10 500.4068,-10 508.6271,-10"/>
<polygon fill="#191970" stroke="#191970" points="483.3106,-6.5001 473.3105,-10 483.3105,-13.5001 483.3106,-6.5001"/>
</g>
</g>
</svg>
        <g id="navigator" transform="translate(0 0)" fill="#404254">
                <rect fill="#f2f5e9" fill-opacity="0.5" stroke="#606060" stroke-width=".5" x="0" y="0" width="60" height="60"/>
                <use id="zoomplus" xlink:href="#zoomPlus" x="17" y="9" onmousedown="handleZoom(evt,'in')"/>
                <use id="zoomminus" xlink:href="#zoomMin" x="42" y="9" onmousedown="handleZoom(evt,'out')"/>
                <use id="reset" xlink:href="#resetDef" x="30" y="36" onmousedown="handleReset()"/>
                <g id="arrowUp" xlink:href="#dirArrow" transform="translate(30 24)" onmousedown="handlePan(0,-1)">
                  <use xlink:href="#rim" fill="#404040">
                        <set attributeName="fill" to="#808080" begin="arrowUp.mouseover" end="arrowUp.mouseout"/>
                  </use>
                  <path fill="none" stroke="white" stroke-width="1.5" d="M0,-3.0v7 M-2.5,-0.5L0,-3.0L2.5,-0.5"/>
                </g>
                <g id="arrowRight" xlink:href="#dirArrow" transform="rotate(90) translate(36 -43)" onmousedown="handlePan(1,0)">
                  <use xlink:href="#rim" fill="#404040">
                        <set attributeName="fill" to="#808080" begin="arrowRight.mouseover" end="arrowRight.mouseout"/>
                  </use>
                  <path fill="none" stroke="white" stroke-width="1.5" d="M0,-3.0v7 M-2.5,-0.5L0,-3.0L2.5,-0.5"/>
                </g>
                <g id="arrowDown" xlink:href="#dirArrow" transform="rotate(180) translate(-30 -48)" onmousedown="handlePan(0,1)">
                  <use xlink:href="#rim" fill="#404040">
                        <set attributeName="fill" to="#808080" begin="arrowDown.mouseover" end="arrowDown.mouseout"/>
                  </use>
                  <path fill="none" stroke="white" stroke-width="1.5" d="M0,-3.0v7 M-2.5,-0.5L0,-3.0L2.5,-0.5"/>
                </g>
                <g id="arrowLeft" xlink:href="#dirArrow" transform="rotate(270) translate(-36 17)" onmousedown="handlePan(-1,0)">
                  <use xlink:href="#rim" fill="#404040">
                        <set attributeName="fill" to="#808080" begin="arrowLeft.mouseover" end="arrowLeft.mouseout"/>
                  </use>
                  <path fill="none" stroke="white" stroke-width="1.5" d="M0,-3.0v7 M-2.5,-0.5L0,-3.0L2.5,-0.5"/>
                </g>
        </g>
        <svg viewBox="0 0 15 15" width="100%" height="30px" preserveAspectRatio="xMaxYMin meet">
         <g id="arrow_out" transform="scale(0.3 0.3)">
          <a xlink:href="tls_8c_a97b48775a94a972992a883fd82947290_icgraph_org.svg" target="_base">
           <rect id="button" ry="5" rx="5" y="6" x="6" height="38" width="38"
                fill="#f2f5e9" fill-opacity="0.5" stroke="#606060" stroke-width="1.0"/>
           <path id="arrow"
             d="M 11.500037,31.436501 C 11.940474,20.09759 22.043105,11.32322 32.158766,21.979434 L 37.068811,17.246167 C 37.068811,17.246167 37.088388,32 37.088388,32 L 22.160133,31.978069 C 22.160133,31.978069 26.997745,27.140456 26.997745,27.140456 C 18.528582,18.264221 13.291696,25.230495 11.500037,31.436501 z"
             style="fill:#404040;"/>
          </a>
         </g>
        </svg>
</svg>
