<?xml version="1.0" encoding="UTF-8" standalone="no"?>
<!DOCTYPE svg PUBLIC "-//W3C//DTD SVG 1.1//EN"
 "http://www.w3.org/Graphics/SVG/1.1/DTD/svg11.dtd">
<!-- Generated by graphviz version 2.40.1 (20161225.0304)
 -->
<!-- Title: eap_tls_verify Pages: 1 -->
<svg width="448pt" height="28pt"
 viewBox="0.00 0.00 448.00 28.00" xmlns="http://www.w3.org/2000/svg" xmlns:xlink="http://www.w3.org/1999/xlink">
<g id="graph0" class="graph" transform="scale(1 1) rotate(0) translate(4 24)">
<title>eap_tls_verify</title>
<!-- Node240 -->
<g id="node1" class="node">
<title>Node240</title>
<polygon fill="#bfbfbf" stroke="#000000" points="0,-.5 0,-19.5 77,-19.5 77,-.5 0,-.5"/>
<text text-anchor="middle" x="38.5" y="-7.5" font-family="Helvetica,sans-Serif" font-size="10.00" fill="#000000">eap_tls_verify</text>
</g>
<!-- Node241 -->
<g id="node2" class="node">
<title>Node241</title>
<g id="a_node2"><a xlink:href="tls_8h.html#a27e244d3f33734be5a788ab610528e06" target="_top" xlink:title="Process an EAP TLS request. ">
<polygon fill="none" stroke="#000000" points="113,-.5 113,-19.5 201,-19.5 201,-.5 113,-.5"/>
<text text-anchor="middle" x="157" y="-7.5" font-family="Helvetica,sans-Serif" font-size="10.00" fill="#000000">eap_tls_process</text>
</a>
</g>
</g>
<!-- Node240&#45;&gt;Node241 -->
<g id="edge1" class="edge">
<title>Node240&#45;&gt;Node241</title>
<path fill="none" stroke="#191970" d="M87.3731,-10C95.7863,-10 104.4876,-10 112.7697,-10"/>
<polygon fill="#191970" stroke="#191970" points="87.3014,-6.5001 77.3013,-10 87.3013,-13.5001 87.3014,-6.5001"/>
</g>
<!-- Node242 -->
<g id="node3" class="node">
<title>Node242</title>
<g id="a_node3"><a xlink:href="rlm__eap__fast_8c.html#a1ee517a20d1254bcde78063a1e36840c" target="_top" xlink:title="mod_process">
<polygon fill="none" stroke="#000000" points="237,-.5 237,-19.5 312,-19.5 312,-.5 237,-.5"/>
<text text-anchor="middle" x="274.5" y="-7.5" font-family="Helvetica,sans-Serif" font-size="10.00" fill="#000000">mod_process</text>
</a>
</g>
</g>
<!-- Node241&#45;&gt;Node242 -->
<g id="edge2" class="edge">
<title>Node241&#45;&gt;Node242</title>
<path fill="none" stroke="#191970" d="M211.1291,-10C219.7747,-10 228.5545,-10 236.7135,-10"/>
<polygon fill="#191970" stroke="#191970" points="211.087,-6.5001 201.087,-10 211.0869,-13.5001 211.087,-6.5001"/>
</g>
<!-- Node243 -->
<g id="node4" class="node">
<title>Node243</title>
<g id="a_node4"><a xlink:href="rlm__eap__fast_8c.html#afde9901631f6849be380901f6970a49b" target="_top" xlink:title="mod_session_init">
<polygon fill="none" stroke="#000000" points="348,-.5 348,-19.5 440,-19.5 440,-.5 348,-.5"/>
<text text-anchor="middle" x="394" y="-7.5" font-family="Helvetica,sans-Serif" font-size="10.00" fill="#000000">mod_session_init</text>
</a>
</g>
</g>
<!-- Node242&#45;&gt;Node243 -->
<g id="edge3" class="edge">
<title>Node242&#45;&gt;Node243</title>
<path fill="none" stroke="#191970" d="M322.5645,-10C330.8304,-10 339.4068,-10 347.6271,-10"/>
<polygon fill="#191970" stroke="#191970" points="322.3106,-6.5001 312.3105,-10 322.3105,-13.5001 322.3106,-6.5001"/>
</g>
</g>
</svg>
