<?xml version="1.0" encoding="UTF-8" standalone="no"?>
<!DOCTYPE svg PUBLIC "-//W3C//DTD SVG 1.1//EN"
 "http://www.w3.org/Graphics/SVG/1.1/DTD/svg11.dtd">
<!-- Generated by graphviz version 2.40.1 (20161225.0304)
 -->
<!-- Title: unlang_tmpl_exec_nowait_resume Pages: 1 -->
<svg width="1006pt" height="801pt"
 viewBox="0.00 0.00 1006.00 800.86" xmlns="http://www.w3.org/2000/svg" xmlns:xlink="http://www.w3.org/1999/xlink">
<g id="graph0" class="graph" transform="scale(1 1) rotate(0) translate(4 796.863)">
<title>unlang_tmpl_exec_nowait_resume</title>
<!-- Node861 -->
<g id="node1" class="node">
<title>Node861</title>
<polygon fill="#bfbfbf" stroke="#000000" points="0,-429.5 0,-459.5 129,-459.5 129,-429.5 0,-429.5"/>
<text text-anchor="start" x="8" y="-447.5" font-family="Helvetica,sans-Serif" font-size="10.00" fill="#000000">unlang_tmpl_exec_nowait</text>
<text text-anchor="middle" x="64.5" y="-436.5" font-family="Helvetica,sans-Serif" font-size="10.00" fill="#000000">_resume</text>
</g>
<!-- Node862 -->
<g id="node2" class="node">
<title>Node862</title>
<g id="a_node2"><a xlink:href="exec_8c.html#a18d0830dbc955c4e3a0d42cedf4ccc9e" target="_top" xlink:title="Execute a program without waiting for the program to finish. ">
<polygon fill="none" stroke="#000000" points="165,-435 165,-454 248,-454 248,-435 165,-435"/>
<text text-anchor="middle" x="206.5" y="-442" font-family="Helvetica,sans-Serif" font-size="10.00" fill="#000000">fr_exec_nowait</text>
</a>
</g>
</g>
<!-- Node861&#45;&gt;Node862 -->
<g id="edge1" class="edge">
<title>Node861&#45;&gt;Node862</title>
<path fill="none" stroke="#191970" d="M129.2669,-444.5C137.8045,-444.5 146.4632,-444.5 154.7441,-444.5"/>
<polygon fill="#191970" stroke="#191970" points="154.9938,-448.0001 164.9937,-444.5 154.9937,-441.0001 154.9938,-448.0001"/>
</g>
<!-- Node863 -->
<g id="node3" class="node">
<title>Node863</title>
<g id="a_node3"><a xlink:href="value_8c.html#a695328ed07e16436cac75d6a813e389c" target="_top" xlink:title="Get list member at a given index. ">
<polygon fill="none" stroke="#000000" points="302.5,-549 302.5,-568 411.5,-568 411.5,-549 302.5,-549"/>
<text text-anchor="middle" x="357" y="-556" font-family="Helvetica,sans-Serif" font-size="10.00" fill="#000000">fr_value_box_list_get</text>
</a>
</g>
</g>
<!-- Node862&#45;&gt;Node863 -->
<g id="edge2" class="edge">
<title>Node862&#45;&gt;Node863</title>
<path fill="none" stroke="#191970" d="M211.6539,-454.2927C222.3864,-473.6962 249.0688,-517.0824 284,-539.5 287.315,-541.6275 290.8588,-543.5173 294.5318,-545.196"/>
<polygon fill="#191970" stroke="#191970" points="293.2875,-548.4679 303.8715,-548.9488 295.8975,-541.9727 293.2875,-548.4679"/>
</g>
<!-- Node864 -->
<g id="node4" class="node">
<title>Node864</title>
<g id="a_node4"><a xlink:href="strerror_8c.html#ae701765650b8aea79a3037bc4921d7f8" target="_top" xlink:title="Log to thread local error buffer. ">
<polygon fill="none" stroke="#000000" points="314,-511 314,-530 400,-530 400,-511 314,-511"/>
<text text-anchor="middle" x="357" y="-518" font-family="Helvetica,sans-Serif" font-size="10.00" fill="#000000">fr_strerror_printf</text>
</a>
</g>
</g>
<!-- Node862&#45;&gt;Node864 -->
<g id="edge3" class="edge">
<title>Node862&#45;&gt;Node864</title>
<path fill="none" stroke="#191970" d="M225.5609,-454.1255C251.6832,-467.3168 298.7938,-491.1068 328.9476,-506.334"/>
<polygon fill="#191970" stroke="#191970" points="327.5897,-509.5692 338.0938,-510.9527 330.7451,-503.3207 327.5897,-509.5692"/>
</g>
<!-- Node998 -->
<g id="node15" class="node">
<title>Node998</title>
<g id="a_node15"><a xlink:href="exec_8c.html#a78b1412976cd41f5558ef131701a74fc" target="_top" xlink:title="fr_exec_pair_to_env">
<polygon fill="none" stroke="#000000" points="479.5,-258 479.5,-277 583.5,-277 583.5,-258 479.5,-258"/>
<text text-anchor="middle" x="531.5" y="-265" font-family="Helvetica,sans-Serif" font-size="10.00" fill="#000000">fr_exec_pair_to_env</text>
</a>
</g>
</g>
<!-- Node862&#45;&gt;Node998 -->
<g id="edge21" class="edge">
<title>Node862&#45;&gt;Node998</title>
<path fill="none" stroke="#191970" d="M223.9734,-434.9837C277.6487,-405.7513 440.3906,-317.1196 504.8227,-282.0289"/>
<polygon fill="#191970" stroke="#191970" points="506.8321,-284.92 513.9402,-277.0633 503.4841,-278.7725 506.8321,-284.92"/>
</g>
<!-- Node1025 -->
<g id="node28" class="node">
<title>Node1025</title>
<g id="a_node28"><a xlink:href="value_8c.html#abd78479d54732f8a7c8c7b6a3ef4c1e2" target="_top" xlink:title="Flatten a list into individual &quot;char *&quot; argv&#45;style array. ">
<polygon fill="none" stroke="#000000" points="284,-187 284,-206 430,-206 430,-187 284,-187"/>
<text text-anchor="middle" x="357" y="-194" font-family="Helvetica,sans-Serif" font-size="10.00" fill="#000000">fr_value_box_list_flatten_argv</text>
</a>
</g>
</g>
<!-- Node862&#45;&gt;Node1025 -->
<g id="edge40" class="edge">
<title>Node862&#45;&gt;Node1025</title>
<path fill="none" stroke="#191970" d="M212.3998,-434.7781C234.9705,-397.5852 316.0679,-263.9496 345.8923,-214.8037"/>
<polygon fill="#191970" stroke="#191970" points="348.9451,-216.5195 351.141,-206.1547 342.9608,-212.8879 348.9451,-216.5195"/>
</g>
<!-- Node1028 -->
<g id="node33" class="node">
<title>Node1028</title>
<g id="a_node33"><a xlink:href="exec_8c.html#a6b2c84354f7bb8cfb3690385d5a07ccb" target="_top" xlink:title="fr_exec_child">
<polygon fill="none" stroke="#000000" points="320,-416 320,-435 394,-435 394,-416 320,-416"/>
<text text-anchor="middle" x="357" y="-423" font-family="Helvetica,sans-Serif" font-size="10.00" fill="#000000">fr_exec_child</text>
</a>
</g>
</g>
<!-- Node862&#45;&gt;Node1028 -->
<g id="edge46" class="edge">
<title>Node862&#45;&gt;Node1028</title>
<path fill="none" stroke="#191970" d="M248.0232,-439.2579C267.2128,-436.8353 290.0919,-433.9469 309.9209,-431.4435"/>
<polygon fill="#191970" stroke="#191970" points="310.4936,-434.8991 319.9765,-430.1741 309.6168,-427.9542 310.4936,-434.8991"/>
</g>
<!-- Node948 -->
<g id="node34" class="node">
<title>Node948</title>
<g id="a_node34"><a xlink:href="syserror_8c.html#a18747f9d648d0aeecc4a8b27ac0435aa" target="_top" xlink:title="Guaranteed to be thread&#45;safe version of strerror. ">
<polygon fill="none" stroke="#ff0000" points="500,-454 500,-473 563,-473 563,-454 500,-454"/>
<text text-anchor="middle" x="531.5" y="-461" font-family="Helvetica,sans-Serif" font-size="10.00" fill="#000000">fr_syserror</text>
</a>
</g>
</g>
<!-- Node862&#45;&gt;Node948 -->
<g id="edge51" class="edge">
<title>Node862&#45;&gt;Node948</title>
<path fill="none" stroke="#191970" d="M248.3227,-446.945C310.5555,-450.5832 426.8857,-457.3841 489.323,-461.0343"/>
<polygon fill="#191970" stroke="#191970" points="489.41,-464.5452 499.5972,-461.6349 489.8186,-457.5572 489.41,-464.5452"/>
</g>
<!-- Node865 -->
<g id="node5" class="node">
<title>Node865</title>
<g id="a_node5"><a xlink:href="acutest_8h.html#aecf9a9be8105efb1454cd8c1ef6cb1c5" target="_top" xlink:title="va_start">
<polygon fill="none" stroke="#000000" points="946,-454 946,-473 998,-473 998,-454 946,-454"/>
<text text-anchor="middle" x="972" y="-461" font-family="Helvetica,sans-Serif" font-size="10.00" fill="#000000">va_start</text>
</a>
</g>
</g>
<!-- Node864&#45;&gt;Node865 -->
<g id="edge4" class="edge">
<title>Node864&#45;&gt;Node865</title>
<path fill="none" stroke="#191970" d="M400.0882,-520.8711C493.7177,-520.9522 722.4026,-517.2162 910,-482.5 918.5931,-480.9098 927.6755,-478.537 936.1603,-476.0025"/>
<polygon fill="#191970" stroke="#191970" points="937.284,-479.3183 945.7812,-472.99 935.1922,-472.6381 937.284,-479.3183"/>
</g>
<!-- Node866 -->
<g id="node6" class="node">
<title>Node866</title>
<g id="a_node6"><a xlink:href="strerror_8c.html#a193b1e0b3712e3bbee338812c06af482" target="_top" xlink:title="fr_strerror_vprintf">
<polygon fill="none" stroke="#000000" points="486,-644 486,-663 577,-663 577,-644 486,-644"/>
<text text-anchor="middle" x="531.5" y="-651" font-family="Helvetica,sans-Serif" font-size="10.00" fill="#000000">fr_strerror_vprintf</text>
</a>
</g>
</g>
<!-- Node864&#45;&gt;Node866 -->
<g id="edge5" class="edge">
<title>Node864&#45;&gt;Node866</title>
<path fill="none" stroke="#191970" d="M400.0143,-527.2374C410.3202,-530.0301 420.9511,-533.9647 430,-539.5 470.2902,-564.1457 503.6776,-609.7313 520.2446,-635.1535"/>
<polygon fill="#191970" stroke="#191970" points="517.4349,-637.2579 525.7499,-643.8238 523.3443,-633.5057 517.4349,-637.2579"/>
</g>
<!-- Node869 -->
<g id="node9" class="node">
<title>Node869</title>
<g id="a_node9"><a xlink:href="acutest_8h.html#a36af1f79dd6adf0809c21e76535034d5" target="_top" xlink:title="va_end">
<polygon fill="none" stroke="#000000" points="948,-549 948,-568 996,-568 996,-549 948,-549"/>
<text text-anchor="middle" x="972" y="-556" font-family="Helvetica,sans-Serif" font-size="10.00" fill="#000000">va_end</text>
</a>
</g>
</g>
<!-- Node864&#45;&gt;Node869 -->
<g id="edge20" class="edge">
<title>Node864&#45;&gt;Node869</title>
<path fill="none" stroke="#191970" d="M400.2335,-524.0238C411.1335,-526.8304 421.9977,-531.575 430,-539.5 473.5119,-582.5911 427.2776,-625.0585 466,-672.5 518.5351,-736.8644 552.1628,-737.3148 633,-756.5 752.8221,-784.9375 812.0493,-824.1438 910,-749.5 937.8634,-728.2665 960.1887,-622.6618 968.4994,-578.2402"/>
<polygon fill="#191970" stroke="#191970" points="971.9514,-578.8196 970.3052,-568.3534 965.0653,-577.5618 971.9514,-578.8196"/>
</g>
<!-- Node867 -->
<g id="node7" class="node">
<title>Node867</title>
<g id="a_node7"><a xlink:href="strerror_8c.html#a42c2cc9f76fb9dac723a1903c181e1c7" target="_top" xlink:title="Initialise thread local storage. ">
<polygon fill="none" stroke="#ff0000" points="656,-644 656,-663 733,-663 733,-644 656,-644"/>
<text text-anchor="middle" x="694.5" y="-651" font-family="Helvetica,sans-Serif" font-size="10.00" fill="#000000">fr_strerror_init</text>
</a>
</g>
</g>
<!-- Node866&#45;&gt;Node867 -->
<g id="edge6" class="edge">
<title>Node866&#45;&gt;Node867</title>
<path fill="none" stroke="#191970" d="M577.3384,-653.5C598.7174,-653.5 624.1745,-653.5 645.8889,-653.5"/>
<polygon fill="#191970" stroke="#191970" points="645.8931,-657.0001 655.8931,-653.5 645.893,-650.0001 645.8931,-657.0001"/>
</g>
<!-- Node868 -->
<g id="node8" class="node">
<title>Node868</title>
<g id="a_node8"><a xlink:href="strerror_8c.html#a2c8e65d6d4b73fb705cc023f60acb099" target="_top" xlink:title="Print the current error to stderr with a prefix. ">
<polygon fill="none" stroke="#ff0000" points="824.5,-568 824.5,-587 877.5,-587 877.5,-568 824.5,-568"/>
<text text-anchor="middle" x="851" y="-575" font-family="Helvetica,sans-Serif" font-size="10.00" fill="#000000">fr_perror</text>
</a>
</g>
</g>
<!-- Node866&#45;&gt;Node868 -->
<g id="edge12" class="edge">
<title>Node866&#45;&gt;Node868</title>
<path fill="none" stroke="#191970" d="M571.6414,-643.9515C634.2229,-629.0651 754.1061,-600.5483 814.4263,-586.1999"/>
<polygon fill="#191970" stroke="#191970" points="815.3558,-589.5765 824.2744,-583.8573 813.7359,-582.7665 815.3558,-589.5765"/>
</g>
<!-- Node866&#45;&gt;Node869 -->
<g id="edge18" class="edge">
<title>Node866&#45;&gt;Node869</title>
<path fill="none" stroke="#191970" d="M540.4051,-663.16C556.776,-680.1189 593.6042,-714.6636 633,-727.5 750.2745,-765.7117 811.5648,-784.8232 910,-710.5 952.5226,-678.3935 966.0036,-612.1142 970.1823,-578.6986"/>
<polygon fill="#191970" stroke="#191970" points="973.7049,-578.679 971.3048,-568.3596 966.7458,-577.9234 973.7049,-578.679"/>
</g>
<!-- Node875 -->
<g id="node10" class="node">
<title>Node875</title>
<g id="a_node10"><a xlink:href="strerror_8c.html#a9d878c1ddb1b385cdaf6523fff68529c" target="_top" xlink:title="Reset cursor state. ">
<polygon fill="none" stroke="#000000" points="808.5,-682 808.5,-701 893.5,-701 893.5,-682 808.5,-682"/>
<text text-anchor="middle" x="851" y="-689" font-family="Helvetica,sans-Serif" font-size="10.00" fill="#000000">fr_strerror_clear</text>
</a>
</g>
</g>
<!-- Node866&#45;&gt;Node875 -->
<g id="edge11" class="edge">
<title>Node866&#45;&gt;Node875</title>
<path fill="none" stroke="#191970" d="M543.7201,-663.1542C561.9235,-676.8541 597.806,-701.2941 633,-710.5 692.6716,-726.1087 764.3364,-714.2777 808.7824,-703.5333"/>
<polygon fill="#191970" stroke="#191970" points="809.8075,-706.8847 818.6547,-701.0558 808.1035,-700.0952 809.8075,-706.8847"/>
</g>
<!-- Node876 -->
<g id="node11" class="node">
<title>Node876</title>
<g id="a_node11"><a xlink:href="print_8c.html#a27ae94b5a4c77de49aa2f387765a4d58" target="_top" xlink:title="Special version of vasprintf which implements custom format specifiers. ">
<polygon fill="none" stroke="#ff0000" points="662,-530 662,-549 727,-549 727,-530 662,-530"/>
<text text-anchor="middle" x="694.5" y="-537" font-family="Helvetica,sans-Serif" font-size="10.00" fill="#000000">fr_vasprintf</text>
</a>
</g>
</g>
<!-- Node866&#45;&gt;Node876 -->
<g id="edge13" class="edge">
<title>Node866&#45;&gt;Node876</title>
<path fill="none" stroke="#191970" d="M545.1169,-643.9765C573.2121,-624.3271 637.8407,-579.1267 672.152,-555.1299"/>
<polygon fill="#191970" stroke="#191970" points="674.3876,-557.8375 680.5763,-549.238 670.3757,-552.1012 674.3876,-557.8375"/>
</g>
<!-- Node997 -->
<g id="node14" class="node">
<title>Node997</title>
<g id="a_node14"><a xlink:href="cursor_8c.html#a5d942382660657c3b4cb6e9cb2b12b2c" target="_top" xlink:title="Insert a single item at the start of the list. ">
<polygon fill="none" stroke="#000000" points="647,-682 647,-701 742,-701 742,-682 647,-682"/>
<text text-anchor="middle" x="694.5" y="-689" font-family="Helvetica,sans-Serif" font-size="10.00" fill="#000000">fr_cursor_prepend</text>
</a>
</g>
</g>
<!-- Node866&#45;&gt;Node997 -->
<g id="edge19" class="edge">
<title>Node866&#45;&gt;Node997</title>
<path fill="none" stroke="#191970" d="M572.6318,-663.089C594.2383,-668.1261 620.909,-674.3438 643.7858,-679.6771"/>
<polygon fill="#191970" stroke="#191970" points="643.1305,-683.1181 653.664,-681.9799 644.7198,-676.3009 643.1305,-683.1181"/>
</g>
<!-- Node867&#45;&gt;Node868 -->
<g id="edge7" class="edge">
<title>Node867&#45;&gt;Node868</title>
<path fill="none" stroke="#191970" d="M721.1504,-643.9569C732.0837,-639.8216 744.7821,-634.7325 756,-629.5 780.3434,-618.1452 807.1026,-603.2693 826,-592.3385"/>
<polygon fill="#191970" stroke="#191970" points="827.9816,-595.2346 834.8553,-587.1721 824.4541,-589.1883 827.9816,-595.2346"/>
</g>
<!-- Node867&#45;&gt;Node875 -->
<g id="edge10" class="edge">
<title>Node867&#45;&gt;Node875</title>
<path fill="none" stroke="#191970" d="M733.1854,-662.8933C753.9079,-667.9249 779.6541,-674.1764 801.7881,-679.5508"/>
<polygon fill="#191970" stroke="#191970" points="801.1291,-682.9924 811.6726,-681.9509 802.7808,-676.19 801.1291,-682.9924"/>
</g>
<!-- Node868&#45;&gt;Node865 -->
<g id="edge8" class="edge">
<title>Node868&#45;&gt;Node865</title>
<path fill="none" stroke="#191970" d="M861.3164,-567.7804C881.9442,-548.3459 928.4943,-504.4888 954.1672,-480.3011"/>
<polygon fill="#191970" stroke="#191970" points="956.8313,-482.5999 961.7097,-473.195 952.0311,-477.5049 956.8313,-482.5999"/>
</g>
<!-- Node868&#45;&gt;Node869 -->
<g id="edge9" class="edge">
<title>Node868&#45;&gt;Node869</title>
<path fill="none" stroke="#191970" d="M877.554,-573.3304C895.2805,-570.5469 918.7557,-566.8607 937.867,-563.8597"/>
<polygon fill="#191970" stroke="#191970" points="938.6351,-567.2821 947.9711,-562.2731 937.5492,-560.3668 938.6351,-567.2821"/>
</g>
<!-- Node876&#45;&gt;Node864 -->
<g id="edge17" class="edge">
<title>Node876&#45;&gt;Node864</title>
<path fill="none" stroke="#191970" d="M661.7718,-537.6575C603.3716,-534.3698 480.7236,-527.4652 410.1138,-523.4901"/>
<polygon fill="#191970" stroke="#191970" points="410.2684,-519.9934 400.0874,-522.9257 409.8748,-526.9823 410.2684,-519.9934"/>
</g>
<!-- Node876&#45;&gt;Node869 -->
<g id="edge15" class="edge">
<title>Node876&#45;&gt;Node869</title>
<path fill="none" stroke="#191970" d="M727.1488,-541.7354C780.0696,-545.3588 884.07,-552.4796 937.9051,-556.1656"/>
<polygon fill="#191970" stroke="#191970" points="937.7575,-559.6636 947.9733,-556.8549 938.2357,-552.6799 937.7575,-559.6636"/>
</g>
<!-- Node877 -->
<g id="node12" class="node">
<title>Node877</title>
<g id="a_node12"><a xlink:href="value_8h.html#a878e0abfce7189a1784cdf15bc9fc3a3" target="_top" xlink:title="fr_value_box_aprint">
<polygon fill="none" stroke="#000000" points="800.5,-454 800.5,-473 901.5,-473 901.5,-454 800.5,-454"/>
<text text-anchor="middle" x="851" y="-461" font-family="Helvetica,sans-Serif" font-size="10.00" fill="#000000">fr_value_box_aprint</text>
</a>
</g>
</g>
<!-- Node876&#45;&gt;Node877 -->
<g id="edge14" class="edge">
<title>Node876&#45;&gt;Node877</title>
<path fill="none" stroke="#191970" d="M714.3208,-529.8745C741.6021,-516.6261 790.8978,-492.687 822.2354,-477.4687"/>
<polygon fill="#191970" stroke="#191970" points="823.8736,-480.5641 831.3401,-473.0473 820.8157,-474.2673 823.8736,-480.5641"/>
</g>
<!-- Node878 -->
<g id="node13" class="node">
<title>Node878</title>
<g id="a_node13"><a xlink:href="talloc_8c.html#a3536feb85c89aa239851ef0830b72e64" target="_top" xlink:title="Call talloc_strdup, setting the type on the new chunk correctly. ">
<polygon fill="none" stroke="#000000" points="800.5,-416 800.5,-435 901.5,-435 901.5,-416 800.5,-416"/>
<text text-anchor="middle" x="851" y="-423" font-family="Helvetica,sans-Serif" font-size="10.00" fill="#000000">talloc_typed_strdup</text>
</a>
</g>
</g>
<!-- Node876&#45;&gt;Node878 -->
<g id="edge16" class="edge">
<title>Node876&#45;&gt;Node878</title>
<path fill="none" stroke="#191970" d="M701.7444,-529.9381C716.6138,-510.9495 752.519,-468.2724 792,-444.5 795.4283,-442.4358 799.1055,-440.5703 802.8871,-438.8894"/>
<polygon fill="#191970" stroke="#191970" points="804.4303,-442.042 812.4195,-435.0834 801.8346,-435.5411 804.4303,-442.042"/>
</g>
<!-- Node998&#45;&gt;Node878 -->
<g id="edge33" class="edge">
<title>Node998&#45;&gt;Node878</title>
<path fill="none" stroke="#191970" d="M539.0404,-277.2702C554.5176,-296.6521 591.8921,-340.1091 633,-363.5 682.1227,-391.4514 744.7508,-407.5551 790.2646,-416.3068"/>
<polygon fill="#191970" stroke="#191970" points="789.8132,-419.7827 800.2843,-418.1682 791.0918,-412.9005 789.8132,-419.7827"/>
</g>
<!-- Node886 -->
<g id="node16" class="node">
<title>Node886</title>
<g id="a_node16"><a xlink:href="cursor_8c.html#af6c2090d1e00319075d6def5aa2666fd" target="_top" xlink:title="Advanced the cursor to the next item. ">
<polygon fill="none" stroke="#ff0000" points="811.5,-214 811.5,-233 890.5,-233 890.5,-214 811.5,-214"/>
<text text-anchor="middle" x="851" y="-221" font-family="Helvetica,sans-Serif" font-size="10.00" fill="#000000">fr_cursor_next</text>
</a>
</g>
</g>
<!-- Node998&#45;&gt;Node886 -->
<g id="edge22" class="edge">
<title>Node998&#45;&gt;Node886</title>
<path fill="none" stroke="#191970" d="M564.6027,-257.9723C584.3112,-252.6454 609.9038,-246.3273 633,-242.5 690.2515,-233.0129 756.7975,-228.0827 801.1618,-225.6492"/>
<polygon fill="#191970" stroke="#191970" points="801.5856,-229.1318 811.3878,-225.1109 801.2176,-222.1415 801.5856,-229.1318"/>
</g>
<!-- Node950 -->
<g id="node17" class="node">
<title>Node950</title>
<g id="a_node17"><a xlink:href="snprintf_8c.html#a8da10a1735da7051de5c298ca7448eee" target="_top" xlink:title="snprintf">
<polygon fill="none" stroke="#ff0000" points="826.5,-378 826.5,-397 875.5,-397 875.5,-378 826.5,-378"/>
<text text-anchor="middle" x="851" y="-385" font-family="Helvetica,sans-Serif" font-size="10.00" fill="#000000">snprintf</text>
</a>
</g>
</g>
<!-- Node998&#45;&gt;Node950 -->
<g id="edge23" class="edge">
<title>Node998&#45;&gt;Node950</title>
<path fill="none" stroke="#191970" d="M544.2656,-277.1942C562.8553,-290.8867 598.8878,-315.8511 633,-330.5 695.0626,-357.1516 772.5727,-373.7811 816.4625,-381.784"/>
<polygon fill="#191970" stroke="#191970" points="815.8861,-385.2363 826.3447,-383.5431 817.1129,-378.3447 815.8861,-385.2363"/>
</g>
<!-- Node999 -->
<g id="node18" class="node">
<title>Node999</title>
<g id="a_node18"><a xlink:href="util_2pair_8h.html#ab697da43c2a96b62dd95e6931525c1ba" target="_top" xlink:title="Print the value of an attribute to a string. ">
<polygon fill="none" stroke="#000000" points="646.5,-252.5 646.5,-282.5 742.5,-282.5 742.5,-252.5 646.5,-252.5"/>
<text text-anchor="start" x="654.5" y="-270.5" font-family="Helvetica,sans-Serif" font-size="10.00" fill="#000000">fr_pair_print_value</text>
<text text-anchor="middle" x="694.5" y="-259.5" font-family="Helvetica,sans-Serif" font-size="10.00" fill="#000000">_quoted</text>
</a>
</g>
</g>
<!-- Node998&#45;&gt;Node999 -->
<g id="edge26" class="edge">
<title>Node998&#45;&gt;Node999</title>
<path fill="none" stroke="#191970" d="M583.5224,-267.5C600.1882,-267.5 618.7546,-267.5 635.8594,-267.5"/>
<polygon fill="#191970" stroke="#191970" points="636.2906,-271.0001 646.2906,-267.5 636.2906,-264.0001 636.2906,-271.0001"/>
</g>
<!-- Node1017 -->
<g id="node22" class="node">
<title>Node1017</title>
<g id="a_node22"><a xlink:href="dict_8h.html#ade71dd6bfb60945aa34a7f0d5286d6c1" target="_top" xlink:title="Check if a child attribute exists in a parent using an attribute number. ">
<polygon fill="none" stroke="#000000" points="650,-126.5 650,-156.5 739,-156.5 739,-126.5 650,-126.5"/>
<text text-anchor="start" x="658" y="-144.5" font-family="Helvetica,sans-Serif" font-size="10.00" fill="#000000">fr_dict_attr_child</text>
<text text-anchor="middle" x="694.5" y="-133.5" font-family="Helvetica,sans-Serif" font-size="10.00" fill="#000000">_by_num</text>
</a>
</g>
</g>
<!-- Node998&#45;&gt;Node1017 -->
<g id="edge34" class="edge">
<title>Node998&#45;&gt;Node1017</title>
<path fill="none" stroke="#191970" d="M538.9167,-257.887C554.4549,-238.3071 592.365,-193.3858 633,-166.5 635.8746,-164.598 638.9169,-162.7993 642.0484,-161.1056"/>
<polygon fill="#191970" stroke="#191970" points="643.6628,-164.2116 651.045,-156.612 640.5349,-157.9493 643.6628,-164.2116"/>
</g>
<!-- Node1021 -->
<g id="node24" class="node">
<title>Node1021</title>
<g id="a_node24"><a xlink:href="dict_8h.html#a7c79c676c03022a0e7404ae0232bd902" target="_top" xlink:title="Return the root attribute of a dictionary. ">
<polygon fill="none" stroke="#000000" points="662,-302 662,-321 727,-321 727,-302 662,-302"/>
<text text-anchor="middle" x="694.5" y="-309" font-family="Helvetica,sans-Serif" font-size="10.00" fill="#000000">fr_dict_root</text>
</a>
</g>
</g>
<!-- Node998&#45;&gt;Node1021 -->
<g id="edge36" class="edge">
<title>Node998&#45;&gt;Node1021</title>
<path fill="none" stroke="#191970" d="M566.8686,-277.0473C591.9422,-283.8157 625.7018,-292.9287 652.2024,-300.0823"/>
<polygon fill="#191970" stroke="#191970" points="651.4038,-303.4919 661.9704,-302.719 653.2281,-296.7338 651.4038,-303.4919"/>
</g>
<!-- Node1022 -->
<g id="node25" class="node">
<title>Node1022</title>
<g id="a_node25"><a xlink:href="dict_8h.html#aafea465d1424c7fd3477732877bd6016" target="_top" xlink:title="fr_dict_internal">
<polygon fill="none" stroke="#000000" points="654.5,-176 654.5,-195 734.5,-195 734.5,-176 654.5,-176"/>
<text text-anchor="middle" x="694.5" y="-183" font-family="Helvetica,sans-Serif" font-size="10.00" fill="#000000">fr_dict_internal</text>
</a>
</g>
</g>
<!-- Node998&#45;&gt;Node1022 -->
<g id="edge37" class="edge">
<title>Node998&#45;&gt;Node1022</title>
<path fill="none" stroke="#191970" d="M546.5986,-257.9352C566.1027,-245.8004 601.3172,-224.6332 633,-209.5 640.9537,-205.7009 649.6789,-202.0185 657.9943,-198.7254"/>
<polygon fill="#191970" stroke="#191970" points="659.4296,-201.9231 667.4967,-195.0549 656.9073,-195.3933 659.4296,-201.9231"/>
</g>
<!-- Node1023 -->
<g id="node26" class="node">
<title>Node1023</title>
<g id="a_node26"><a xlink:href="util_2pair_8h.html#a078d7dfa9ea0f6beae478c6c913aa4e2" target="_top" xlink:title="Initialise a cursor that will return only attributes matching the specified fr_dict_attr_t. ">
<polygon fill="none" stroke="#000000" points="633,-88 633,-107 756,-107 756,-88 633,-88"/>
<text text-anchor="middle" x="694.5" y="-95" font-family="Helvetica,sans-Serif" font-size="10.00" fill="#000000">fr_cursor_iter_by_da_init</text>
</a>
</g>
</g>
<!-- Node998&#45;&gt;Node1023 -->
<g id="edge38" class="edge">
<title>Node998&#45;&gt;Node1023</title>
<path fill="none" stroke="#191970" d="M537.4281,-257.9007C557.0439,-226.2507 619.3749,-126.6299 633,-116.5 635.5195,-114.6268 638.2266,-112.936 641.0499,-111.41"/>
<polygon fill="#191970" stroke="#191970" points="642.7815,-114.4648 650.3747,-107.076 639.8311,-108.1169 642.7815,-114.4648"/>
</g>
<!-- Node950&#45;&gt;Node865 -->
<g id="edge24" class="edge">
<title>Node950&#45;&gt;Node865</title>
<path fill="none" stroke="#191970" d="M875.5362,-392.8527C886.5405,-395.8819 899.3998,-400.325 910,-406.5 928.0333,-417.005 945.2313,-433.5152 956.9195,-446.0686"/>
<polygon fill="#191970" stroke="#191970" points="954.459,-448.5663 963.758,-453.6436 959.6549,-443.8755 954.459,-448.5663"/>
</g>
<!-- Node950&#45;&gt;Node869 -->
<g id="edge25" class="edge">
<title>Node950&#45;&gt;Node869</title>
<path fill="none" stroke="#191970" d="M875.5374,-390.5206C887.1996,-393.0767 900.6086,-397.7944 910,-406.5 920.2688,-416.019 951.3092,-500.4993 965.1781,-539.2401"/>
<polygon fill="#191970" stroke="#191970" points="961.95,-540.6083 968.603,-548.8538 968.544,-538.2591 961.95,-540.6083"/>
</g>
<!-- Node999&#45;&gt;Node886 -->
<g id="edge31" class="edge">
<title>Node999&#45;&gt;Node886</title>
<path fill="none" stroke="#191970" d="M742.7322,-253.9395C763.3228,-248.1505 787.182,-241.4424 807.2539,-235.7992"/>
<polygon fill="#191970" stroke="#191970" points="808.3895,-239.1157 817.0689,-233.0397 806.4949,-232.377 808.3895,-239.1157"/>
</g>
<!-- Node1000 -->
<g id="node19" class="node">
<title>Node1000</title>
<g id="a_node19"><a xlink:href="sbuff_8c.html#aeeb2fa91afa0f72ebcfadf1c4d14df9b" target="_top" xlink:title="Print using a fmt string to an sbuff. ">
<polygon fill="none" stroke="#ff0000" points="803.5,-340 803.5,-359 898.5,-359 898.5,-340 803.5,-340"/>
<text text-anchor="middle" x="851" y="-347" font-family="Helvetica,sans-Serif" font-size="10.00" fill="#000000">fr_sbuff_in_sprintf</text>
</a>
</g>
</g>
<!-- Node999&#45;&gt;Node1000 -->
<g id="edge27" class="edge">
<title>Node999&#45;&gt;Node1000</title>
<path fill="none" stroke="#191970" d="M738.3769,-282.6166C744.5172,-285.4998 750.5752,-288.7946 756,-292.5 775.2107,-305.6219 772.3136,-318.1032 792,-330.5 795.1928,-332.5106 798.6178,-334.3268 802.1515,-335.9642"/>
<polygon fill="#191970" stroke="#191970" points="801.0952,-339.3145 811.6743,-339.8916 803.7641,-332.8432 801.0952,-339.3145"/>
</g>
<!-- Node1006 -->
<g id="node20" class="node">
<title>Node1006</title>
<g id="a_node20"><a xlink:href="value_8c.html#a89adbe4d202175103db8de87cc6e9297" target="_top" xlink:title="Print one boxed value to a string with quotes (where needed) ">
<polygon fill="none" stroke="#ff0000" points="803,-290.5 803,-320.5 899,-320.5 899,-290.5 803,-290.5"/>
<text text-anchor="start" x="811" y="-308.5" font-family="Helvetica,sans-Serif" font-size="10.00" fill="#000000">fr_value_box_print</text>
<text text-anchor="middle" x="851" y="-297.5" font-family="Helvetica,sans-Serif" font-size="10.00" fill="#000000">_quoted</text>
</a>
</g>
</g>
<!-- Node999&#45;&gt;Node1006 -->
<g id="edge30" class="edge">
<title>Node999&#45;&gt;Node1006</title>
<path fill="none" stroke="#191970" d="M742.7322,-279.2113C758.574,-283.0579 776.3507,-287.3743 792.8487,-291.3802"/>
<polygon fill="#191970" stroke="#191970" points="792.3836,-294.8689 802.9271,-293.8273 794.0353,-288.0665 792.3836,-294.8689"/>
</g>
<!-- Node1015 -->
<g id="node21" class="node">
<title>Node1015</title>
<g id="a_node21"><a xlink:href="pair__print_8c.html#a748e31d7aded90939877a4cc567a633f" target="_top" xlink:title="Print one attribute and value to a string. ">
<polygon fill="none" stroke="#ff0000" points="817,-252 817,-271 885,-271 885,-252 817,-252"/>
<text text-anchor="middle" x="851" y="-259" font-family="Helvetica,sans-Serif" font-size="10.00" fill="#000000">fr_pair_print</text>
</a>
</g>
</g>
<!-- Node999&#45;&gt;Node1015 -->
<g id="edge32" class="edge">
<title>Node999&#45;&gt;Node1015</title>
<path fill="none" stroke="#191970" d="M742.7322,-265.6508C763.0758,-264.8709 786.6101,-263.9686 806.53,-263.2049"/>
<polygon fill="#191970" stroke="#191970" points="806.7227,-266.7002 816.5813,-262.8196 806.4545,-259.7053 806.7227,-266.7002"/>
</g>
<!-- Node1000&#45;&gt;Node865 -->
<g id="edge28" class="edge">
<title>Node1000&#45;&gt;Node865</title>
<path fill="none" stroke="#191970" d="M893.0778,-359.093C899.0994,-361.5612 904.9536,-364.6472 910,-368.5 936.2328,-388.5277 954.6887,-423.0429 964.3085,-444.4966"/>
<polygon fill="#191970" stroke="#191970" points="961.1632,-446.043 968.3164,-453.8584 967.5983,-443.288 961.1632,-446.043"/>
</g>
<!-- Node1000&#45;&gt;Node869 -->
<g id="edge29" class="edge">
<title>Node1000&#45;&gt;Node869</title>
<path fill="none" stroke="#191970" d="M896.4638,-359.0516C901.4608,-361.5131 906.1303,-364.6083 910,-368.5 947.464,-406.177 929.3996,-432.0269 946,-482.5 952.3107,-501.6876 959.8035,-523.4922 965.1206,-538.8099"/>
<polygon fill="#191970" stroke="#191970" points="961.966,-540.394 968.5596,-548.687 968.5767,-538.0922 961.966,-540.394"/>
</g>
<!-- Node1018 -->
<g id="node23" class="node">
<title>Node1018</title>
<g id="a_node23"><a xlink:href="dict__util_8c.html#aa8fe667f7efcb013501821d4f1725da4" target="_top" xlink:title="Internal version of fr_dict_attr_child_by_num. ">
<polygon fill="none" stroke="#ff0000" points="792.5,-132 792.5,-151 909.5,-151 909.5,-132 792.5,-132"/>
<text text-anchor="middle" x="851" y="-139" font-family="Helvetica,sans-Serif" font-size="10.00" fill="#000000">dict_attr_child_by_num</text>
</a>
</g>
</g>
<!-- Node1017&#45;&gt;Node1018 -->
<g id="edge35" class="edge">
<title>Node1017&#45;&gt;Node1018</title>
<path fill="none" stroke="#191970" d="M739.3466,-141.5C752.7765,-141.5 767.8225,-141.5 782.4134,-141.5"/>
<polygon fill="#191970" stroke="#191970" points="782.4166,-145.0001 792.4165,-141.5 782.4165,-138.0001 782.4166,-145.0001"/>
</g>
<!-- Node1024 -->
<g id="node27" class="node">
<title>Node1024</title>
<g id="a_node27"><a xlink:href="util_2pair_8h.html#ac46f958d24caf9bd32b1bbd930f3a709" target="_top" xlink:title="Iterate over pairs with a specified da. ">
<polygon fill="none" stroke="#000000" points="792,-88 792,-107 910,-107 910,-88 792,-88"/>
<text text-anchor="middle" x="851" y="-95" font-family="Helvetica,sans-Serif" font-size="10.00" fill="#000000">fr_pair_iter_next_by_da</text>
</a>
</g>
</g>
<!-- Node1023&#45;&gt;Node1024 -->
<g id="edge39" class="edge">
<title>Node1023&#45;&gt;Node1024</title>
<path fill="none" stroke="#191970" d="M756.3529,-97.5C764.6745,-97.5 773.2551,-97.5 781.6951,-97.5"/>
<polygon fill="#191970" stroke="#191970" points="781.8933,-101.0001 791.8933,-97.5 781.8933,-94.0001 781.8933,-101.0001"/>
</g>
<!-- Node1025&#45;&gt;Node877 -->
<g id="edge42" class="edge">
<title>Node1025&#45;&gt;Node877</title>
<path fill="none" stroke="#191970" d="M367.8601,-206.056C387.1522,-222.8965 428.8679,-258.7064 466,-286.5 537.745,-340.2016 551.9272,-361.311 633,-399.5 684.9186,-423.956 748.2392,-441.2862 793.2308,-451.6906"/>
<polygon fill="#191970" stroke="#191970" points="792.585,-455.133 803.1116,-453.9325 794.134,-448.3065 792.585,-455.133"/>
</g>
<!-- Node1026 -->
<g id="node29" class="node">
<title>Node1026</title>
<g id="a_node29"><a xlink:href="value_8h.html#a5cfa9a1570c668098f36ec49cdd19189" target="_top" xlink:title="Returns the number of boxes in a list of value boxes. ">
<polygon fill="none" stroke="#000000" points="477.5,-97 477.5,-116 585.5,-116 585.5,-97 477.5,-97"/>
<text text-anchor="middle" x="531.5" y="-104" font-family="Helvetica,sans-Serif" font-size="10.00" fill="#000000">fr_value_box_list_len</text>
</a>
</g>
</g>
<!-- Node1025&#45;&gt;Node1026 -->
<g id="edge41" class="edge">
<title>Node1025&#45;&gt;Node1026</title>
<path fill="none" stroke="#191970" d="M369.0522,-186.9198C388.4421,-171.9194 428.2253,-142.8167 466,-125.5 471.0453,-123.1871 476.439,-121.0843 481.8843,-119.192"/>
<polygon fill="#191970" stroke="#191970" points="483.2466,-122.4297 491.6777,-116.0135 481.0856,-115.7715 483.2466,-122.4297"/>
</g>
<!-- Node1027 -->
<g id="node30" class="node">
<title>Node1027</title>
<g id="a_node30"><a xlink:href="value_8c.html#af0b684cf01510134be3b5d4b38e7a855" target="_top" xlink:title="Convert a string value with escape sequences into its binary form. ">
<polygon fill="none" stroke="#000000" points="466,-135 466,-154 597,-154 597,-135 466,-135"/>
<text text-anchor="middle" x="531.5" y="-142" font-family="Helvetica,sans-Serif" font-size="10.00" fill="#000000">fr_value_substr_unescape</text>
</a>
</g>
</g>
<!-- Node1025&#45;&gt;Node1027 -->
<g id="edge43" class="edge">
<title>Node1025&#45;&gt;Node1027</title>
<path fill="none" stroke="#191970" d="M389.006,-186.9624C417.3279,-178.5226 458.8428,-166.1514 489.7647,-156.9369"/>
<polygon fill="#191970" stroke="#191970" points="490.8179,-160.2752 499.4019,-154.065 488.8188,-153.5667 490.8179,-160.2752"/>
</g>
<!-- Node904 -->
<g id="node31" class="node">
<title>Node904</title>
<g id="a_node31"><a xlink:href="sbuff_8c.html#a31989e502d1d9ebc5461f9e11d21b6e7" target="_top" xlink:title="Copy as many allowed characters as possible from a sbuff to a sbuff. ">
<polygon fill="none" stroke="#ff0000" points="636.5,-.5 636.5,-30.5 752.5,-30.5 752.5,-.5 636.5,-.5"/>
<text text-anchor="start" x="644.5" y="-18.5" font-family="Helvetica,sans-Serif" font-size="10.00" fill="#000000">fr_sbuff_out_unescape</text>
<text text-anchor="middle" x="694.5" y="-7.5" font-family="Helvetica,sans-Serif" font-size="10.00" fill="#000000">_until</text>
</a>
</g>
</g>
<!-- Node1027&#45;&gt;Node904 -->
<g id="edge44" class="edge">
<title>Node1027&#45;&gt;Node904</title>
<path fill="none" stroke="#191970" d="M582.2111,-134.8789C587.5853,-132.4267 592.6622,-129.3528 597,-125.5 627.6742,-98.2556 603.7801,-69.2986 633,-40.5 634.6007,-38.9224 636.3144,-37.44 638.1145,-36.0476"/>
<polygon fill="#191970" stroke="#191970" points="640.0785,-38.945 646.479,-30.5019 636.2103,-33.1108 640.0785,-38.945"/>
</g>
<!-- Node908 -->
<g id="node32" class="node">
<title>Node908</title>
<g id="a_node32"><a xlink:href="sbuff_8c.html#ada6d43d4cb730f03efda8889ce9c43e5" target="_top" xlink:title="Copy as many bytes as possible from a sbuff to a sbuff. ">
<polygon fill="none" stroke="#000000" points="639,-50 639,-69 750,-69 750,-50 639,-50"/>
<text text-anchor="middle" x="694.5" y="-57" font-family="Helvetica,sans-Serif" font-size="10.00" fill="#000000">fr_sbuff_out_bstrncpy</text>
</a>
</g>
</g>
<!-- Node1027&#45;&gt;Node908 -->
<g id="edge45" class="edge">
<title>Node1027&#45;&gt;Node908</title>
<path fill="none" stroke="#191970" d="M578.2636,-134.9401C584.8688,-132.4712 591.3311,-129.3762 597,-125.5 618.7204,-110.6484 611.409,-93.539 633,-78.5 635.8369,-76.524 638.8863,-74.7481 642.0554,-73.1528"/>
<polygon fill="#191970" stroke="#191970" points="643.4821,-76.3489 651.2266,-69.1189 640.6637,-69.9413 643.4821,-76.3489"/>
</g>
<!-- Node1028&#45;&gt;Node948 -->
<g id="edge47" class="edge">
<title>Node1028&#45;&gt;Node948</title>
<path fill="none" stroke="#191970" d="M394.007,-433.5588C422.1078,-439.6782 460.7565,-448.0945 489.9227,-454.4459"/>
<polygon fill="#191970" stroke="#191970" points="489.2951,-457.8912 499.8109,-456.5992 490.7846,-451.0515 489.2951,-457.8912"/>
</g>
<!-- Node1029 -->
<g id="node35" class="node">
<title>Node1029</title>
<g id="a_node35"><a xlink:href="missing_8c.html#aa7af70ad4d09e42bbfc9dfa536cf9d27" target="_top" xlink:title="closefrom">
<polygon fill="none" stroke="#000000" points="502,-416 502,-435 561,-435 561,-416 502,-416"/>
<text text-anchor="middle" x="531.5" y="-423" font-family="Helvetica,sans-Serif" font-size="10.00" fill="#000000">closefrom</text>
</a>
</g>
</g>
<!-- Node1028&#45;&gt;Node1029 -->
<g id="edge50" class="edge">
<title>Node1028&#45;&gt;Node1029</title>
<path fill="none" stroke="#191970" d="M394.007,-425.5C422.6088,-425.5 462.138,-425.5 491.4736,-425.5"/>
<polygon fill="#191970" stroke="#191970" points="491.7811,-429.0001 501.7811,-425.5 491.781,-422.0001 491.7811,-429.0001"/>
</g>
<!-- Node948&#45;&gt;Node868 -->
<g id="edge48" class="edge">
<title>Node948&#45;&gt;Node868</title>
<path fill="none" stroke="#191970" d="M538.2695,-473.2252C552.8789,-493.3137 589.5777,-539.1279 633,-558.5 692.2606,-584.9381 769.4901,-584.5548 814.3291,-581.3717"/>
<polygon fill="#191970" stroke="#191970" points="814.7722,-584.8476 824.4627,-580.5646 814.2164,-577.8697 814.7722,-584.8476"/>
</g>
<!-- Node948&#45;&gt;Node950 -->
<g id="edge49" class="edge">
<title>Node948&#45;&gt;Node950</title>
<path fill="none" stroke="#191970" d="M563.0093,-456.0048C623.2576,-441.6735 754.3364,-410.4935 816.7011,-395.6587"/>
<polygon fill="#191970" stroke="#191970" points="817.5351,-399.0581 826.4537,-393.3389 815.9152,-392.2481 817.5351,-399.0581"/>
</g>
</g>
</svg>
