<?xml version="1.0" encoding="UTF-8" standalone="no"?>
<!DOCTYPE svg PUBLIC "-//W3C//DTD SVG 1.1//EN"
 "http://www.w3.org/Graphics/SVG/1.1/DTD/svg11.dtd">
<!-- Generated by graphviz version 2.40.1 (20161225.0304)
 -->
<!-- Title: fr_trie_user_alloc Pages: 1 -->
<svg width="919pt" height="458pt"
 viewBox="0.00 0.00 919.00 458.00" xmlns="http://www.w3.org/2000/svg" xmlns:xlink="http://www.w3.org/1999/xlink">
<g id="graph0" class="graph" transform="scale(1 1) rotate(0) translate(4 454)">
<title>fr_trie_user_alloc</title>
<!-- Node2852 -->
<g id="node1" class="node">
<title>Node2852</title>
<polygon fill="#bfbfbf" stroke="#000000" points="0,-287.5 0,-306.5 91,-306.5 91,-287.5 0,-287.5"/>
<text text-anchor="middle" x="45.5" y="-294.5" font-family="Helvetica,sans-Serif" font-size="10.00" fill="#000000">fr_trie_user_alloc</text>
</g>
<!-- Node2853 -->
<g id="node2" class="node">
<title>Node2853</title>
<g id="a_node2"><a xlink:href="trie_8c.html#ae06e28d4434dd5c467286bd5841bd200" target="_top" xlink:title="Free a fr_trie_t. ">
<polygon fill="none" stroke="#000000" points="265.5,-316.5 265.5,-335.5 328.5,-335.5 328.5,-316.5 265.5,-316.5"/>
<text text-anchor="middle" x="297" y="-323.5" font-family="Helvetica,sans-Serif" font-size="10.00" fill="#000000">fr_trie_free</text>
</a>
</g>
</g>
<!-- Node2852&#45;&gt;Node2853 -->
<g id="edge1" class="edge">
<title>Node2852&#45;&gt;Node2853</title>
<path fill="none" stroke="#191970" d="M101.1388,-303.4156C151.5866,-309.2326 224.1601,-317.601 265.3265,-322.3478"/>
<polygon fill="#191970" stroke="#191970" points="101.3799,-299.9203 91.0448,-302.2517 100.578,-306.8742 101.3799,-299.9203"/>
</g>
<!-- Node2855 -->
<g id="node4" class="node">
<title>Node2855</title>
<g id="a_node4"><a xlink:href="trie_8h.html#aa5314fda5cddc1ed77b369788deb3e16" target="_top" xlink:title="Allocate a trie. ">
<polygon fill="none" stroke="#000000" points="525,-354.5 525,-373.5 592,-373.5 592,-354.5 525,-354.5"/>
<text text-anchor="middle" x="558.5" y="-361.5" font-family="Helvetica,sans-Serif" font-size="10.00" fill="#000000">fr_trie_alloc</text>
</a>
</g>
</g>
<!-- Node2852&#45;&gt;Node2855 -->
<g id="edge17" class="edge">
<title>Node2852&#45;&gt;Node2855</title>
<path fill="none" stroke="#191970" d="M79.4306,-310.0959C93.9525,-315.4333 111.1781,-321.4135 127,-326 237.2888,-357.9712 264.8802,-370.2546 379,-383 420.9613,-387.6864 432.0357,-387.6597 474,-383 490.8874,-381.1248 509.3303,-377.2031 524.6652,-373.407"/>
<polygon fill="#191970" stroke="#191970" points="80.4522,-306.7415 69.8595,-306.5284 78.0073,-313.3007 80.4522,-306.7415"/>
</g>
<!-- Node2879 -->
<g id="node15" class="node">
<title>Node2879</title>
<g id="a_node15"><a xlink:href="trie_8c.html#a0819562692374ecab3044dbcd24e583a" target="_top" xlink:title="fr_trie_key_alloc">
<polygon fill="none" stroke="#000000" points="127,-249.5 127,-268.5 215,-268.5 215,-249.5 127,-249.5"/>
<text text-anchor="middle" x="171" y="-256.5" font-family="Helvetica,sans-Serif" font-size="10.00" fill="#000000">fr_trie_key_alloc</text>
</a>
</g>
</g>
<!-- Node2852&#45;&gt;Node2879 -->
<g id="edge18" class="edge">
<title>Node2852&#45;&gt;Node2879</title>
<path fill="none" stroke="#191970" d="M86.8995,-284.4647C103.9723,-279.2952 123.4391,-273.4009 139.3412,-268.5859"/>
<polygon fill="#191970" stroke="#191970" points="85.7255,-281.1632 77.1689,-287.411 87.7541,-287.8628 85.7255,-281.1632"/>
</g>
<!-- Node2881 -->
<g id="node17" class="node">
<title>Node2881</title>
<g id="a_node17"><a xlink:href="trie_8c.html#a0a1716db6087e43f56e2719311494195" target="_top" xlink:title="Insert a binary key into the trie. ">
<polygon fill="none" stroke="#000000" points="251,-202.5 251,-221.5 343,-221.5 343,-202.5 251,-202.5"/>
<text text-anchor="middle" x="297" y="-209.5" font-family="Helvetica,sans-Serif" font-size="10.00" fill="#000000">fr_trie_key_insert</text>
</a>
</g>
</g>
<!-- Node2852&#45;&gt;Node2881 -->
<g id="edge38" class="edge">
<title>Node2852&#45;&gt;Node2881</title>
<path fill="none" stroke="#191970" d="M63.9821,-280.4046C79.6326,-267.3028 103.2534,-249.6718 127,-240 166.8908,-223.7528 215.6935,-216.9243 250.7605,-214.0592"/>
<polygon fill="#191970" stroke="#191970" points="61.4542,-277.9624 56.1572,-287.1381 66.0201,-283.2683 61.4542,-277.9624"/>
</g>
<!-- Node2854 -->
<g id="node3" class="node">
<title>Node2854</title>
<g id="a_node3"><a xlink:href="trie_8c.html#ae3513fa7a9f4390c3b5333b7de63eac1" target="_top" xlink:title="Split a node at bits. ">
<polygon fill="none" stroke="#000000" points="381,-354.5 381,-373.5 472,-373.5 472,-354.5 381,-354.5"/>
<text text-anchor="middle" x="426.5" y="-361.5" font-family="Helvetica,sans-Serif" font-size="10.00" fill="#000000">fr_trie_node_split</text>
</a>
</g>
</g>
<!-- Node2853&#45;&gt;Node2854 -->
<g id="edge2" class="edge">
<title>Node2853&#45;&gt;Node2854</title>
<path fill="none" stroke="#191970" d="M338.3152,-338.1234C356.2491,-343.3858 376.9557,-349.4619 393.7955,-354.4033"/>
<polygon fill="#191970" stroke="#191970" points="339.2602,-334.7532 328.6793,-335.2958 337.2892,-341.47 339.2602,-334.7532"/>
</g>
<!-- Node2869 -->
<g id="node9" class="node">
<title>Node2869</title>
<g id="a_node9"><a xlink:href="trie_8h.html#aa11d3bbe61b4e23de7e0a529c10810be" target="_top" xlink:title="fr_trie_walk">
<polygon fill="none" stroke="#ff0000" points="675,-430.5 675,-449.5 742,-449.5 742,-430.5 675,-430.5"/>
<text text-anchor="middle" x="708.5" y="-437.5" font-family="Helvetica,sans-Serif" font-size="10.00" fill="#000000">fr_trie_walk</text>
</a>
</g>
</g>
<!-- Node2853&#45;&gt;Node2869 -->
<g id="edge16" class="edge">
<title>Node2853&#45;&gt;Node2869</title>
<path fill="none" stroke="#191970" d="M315.6341,-342.5417C331.4033,-355.6118 355.1807,-373.2265 379,-383 481.3157,-424.982 613.8159,-436.0464 674.9208,-438.96"/>
<polygon fill="#191970" stroke="#191970" points="317.6309,-339.6449 307.748,-335.8266 313.0927,-344.9746 317.6309,-339.6449"/>
</g>
<!-- Node2877 -->
<g id="node13" class="node">
<title>Node2877</title>
<g id="a_node13"><a xlink:href="trie_8c.html#a4d4cec5f7dd38d09a32bfcb349e3c268" target="_top" xlink:title="fr_trie_node_insert">
<polygon fill="none" stroke="#000000" points="510,-278.5 510,-297.5 607,-297.5 607,-278.5 510,-278.5"/>
<text text-anchor="middle" x="558.5" y="-285.5" font-family="Helvetica,sans-Serif" font-size="10.00" fill="#000000">fr_trie_node_insert</text>
</a>
</g>
</g>
<!-- Node2853&#45;&gt;Node2877 -->
<g id="edge13" class="edge">
<title>Node2853&#45;&gt;Node2877</title>
<path fill="none" stroke="#191970" d="M338.9312,-322.8574C374.9115,-319.837 428.0715,-314.6031 474,-307 489.2796,-304.4706 505.9428,-300.9008 520.4027,-297.5373"/>
<polygon fill="#191970" stroke="#191970" points="338.4826,-319.3823 328.8018,-323.6873 339.0543,-326.359 338.4826,-319.3823"/>
</g>
<!-- Node2878 -->
<g id="node14" class="node">
<title>Node2878</title>
<g id="a_node14"><a xlink:href="trie_8c.html#a74bcdbda77bed82ba7131ff4c18295b0" target="_top" xlink:title="fr_trie_path_insert">
<polygon fill="none" stroke="#000000" points="379,-278.5 379,-297.5 474,-297.5 474,-278.5 379,-278.5"/>
<text text-anchor="middle" x="426.5" y="-285.5" font-family="Helvetica,sans-Serif" font-size="10.00" fill="#000000">fr_trie_path_insert</text>
</a>
</g>
</g>
<!-- Node2853&#45;&gt;Node2878 -->
<g id="edge14" class="edge">
<title>Node2853&#45;&gt;Node2878</title>
<path fill="none" stroke="#191970" d="M338.3152,-313.8766C356.2491,-308.6142 376.9557,-302.5381 393.7955,-297.5967"/>
<polygon fill="#191970" stroke="#191970" points="337.2892,-310.53 328.6793,-316.7042 339.2602,-317.2468 337.2892,-310.53"/>
</g>
<!-- Node2854&#45;&gt;Node2855 -->
<g id="edge3" class="edge">
<title>Node2854&#45;&gt;Node2855</title>
<path fill="none" stroke="#191970" d="M482.6126,-364C496.9905,-364 512.0089,-364 524.8546,-364"/>
<polygon fill="#191970" stroke="#191970" points="482.2968,-360.5001 472.2967,-364 482.2967,-367.5001 482.2968,-360.5001"/>
</g>
<!-- Node2854&#45;&gt;Node2877 -->
<g id="edge12" class="edge">
<title>Node2854&#45;&gt;Node2877</title>
<path fill="none" stroke="#191970" d="M455.7951,-349.6824C461.8629,-346.582 468.1783,-343.2545 474,-340 498.9588,-326.0472 527.079,-308.3249 543.7662,-297.5885"/>
<polygon fill="#191970" stroke="#191970" points="453.9298,-346.7028 446.5705,-354.3246 457.0765,-352.9557 453.9298,-346.7028"/>
</g>
<!-- Node2856 -->
<g id="node5" class="node">
<title>Node2856</title>
<g id="a_node5"><a xlink:href="master_8h.html#a79d4247e695decc1df8178e49d6361e2" target="_top" xlink:title="Create a trie from arrays of allow / deny IP addresses. ">
<polygon fill="none" stroke="#ff0000" points="653.5,-240.5 653.5,-259.5 763.5,-259.5 763.5,-240.5 653.5,-240.5"/>
<text text-anchor="middle" x="708.5" y="-247.5" font-family="Helvetica,sans-Serif" font-size="10.00" fill="#000000">fr_master_io_network</text>
</a>
</g>
</g>
<!-- Node2855&#45;&gt;Node2856 -->
<g id="edge4" class="edge">
<title>Node2855&#45;&gt;Node2856</title>
<path fill="none" stroke="#191970" d="M573.7442,-346.3602C596.8968,-319.6422 638.7051,-271.7111 643,-269 649.1075,-265.1447 656.0234,-262.0478 663.0156,-259.567"/>
<polygon fill="#191970" stroke="#191970" points="570.852,-344.3536 566.9538,-354.2052 576.1447,-348.9348 570.852,-344.3536"/>
</g>
<!-- Node2858 -->
<g id="node6" class="node">
<title>Node2858</title>
<g id="a_node6"><a xlink:href="master_8h.html#a27c87f1fb859a3a0c0a90e4dc6c12816" target="_top" xlink:title="fr_master_io_listen">
<polygon fill="none" stroke="#ff0000" points="659,-354.5 659,-373.5 758,-373.5 758,-354.5 659,-354.5"/>
<text text-anchor="middle" x="708.5" y="-361.5" font-family="Helvetica,sans-Serif" font-size="10.00" fill="#000000">fr_master_io_listen</text>
</a>
</g>
</g>
<!-- Node2855&#45;&gt;Node2858 -->
<g id="edge5" class="edge">
<title>Node2855&#45;&gt;Node2858</title>
<path fill="none" stroke="#191970" d="M602.2177,-364C619.9159,-364 640.4455,-364 658.7158,-364"/>
<polygon fill="#191970" stroke="#191970" points="602.163,-360.5001 592.1629,-364 602.1629,-367.5001 602.163,-360.5001"/>
</g>
<!-- Node2860 -->
<g id="node7" class="node">
<title>Node2860</title>
<g id="a_node7"><a xlink:href="client_8h.html#a2361521f626366bfe5d53d4b41aaf806" target="_top" xlink:title="Return a new client list. ">
<polygon fill="none" stroke="#ff0000" points="670.5,-392.5 670.5,-411.5 746.5,-411.5 746.5,-392.5 670.5,-392.5"/>
<text text-anchor="middle" x="708.5" y="-399.5" font-family="Helvetica,sans-Serif" font-size="10.00" fill="#000000">client_list_init</text>
</a>
</g>
</g>
<!-- Node2855&#45;&gt;Node2860 -->
<g id="edge6" class="edge">
<title>Node2855&#45;&gt;Node2860</title>
<path fill="none" stroke="#191970" d="M601.8683,-374.9866C623.7404,-380.5276 650.0067,-387.1817 670.9971,-392.4993"/>
<polygon fill="#191970" stroke="#191970" points="602.7162,-371.591 592.1629,-372.5279 600.9972,-378.3766 602.7162,-371.591"/>
</g>
<!-- Node2855&#45;&gt;Node2869 -->
<g id="edge8" class="edge">
<title>Node2855&#45;&gt;Node2869</title>
<path fill="none" stroke="#191970" d="M578.3789,-380.0334C594.859,-392.6594 619.3363,-409.9207 643,-421 652.9725,-425.6692 664.3437,-429.4534 674.7811,-432.3794"/>
<polygon fill="#191970" stroke="#191970" points="580.1364,-376.9648 570.1021,-373.5644 575.8258,-382.4801 580.1364,-376.9648"/>
</g>
<!-- Node2873 -->
<g id="node10" class="node">
<title>Node2873</title>
<g id="a_node10"><a xlink:href="proto__radius__tcp_8c.html#ab753523f0291415581707a027a115b73" target="_top" xlink:title="mod_bootstrap">
<polygon fill="none" stroke="#000000" points="668,-278.5 668,-297.5 749,-297.5 749,-278.5 668,-278.5"/>
<text text-anchor="middle" x="708.5" y="-285.5" font-family="Helvetica,sans-Serif" font-size="10.00" fill="#000000">mod_bootstrap</text>
</a>
</g>
</g>
<!-- Node2855&#45;&gt;Node2873 -->
<g id="edge9" class="edge">
<title>Node2855&#45;&gt;Node2873</title>
<path fill="none" stroke="#191970" d="M580.5438,-348.7358C597.2015,-337.6272 620.8983,-322.7155 643,-312 654.3335,-306.5052 667.2686,-301.514 678.6335,-297.524"/>
<polygon fill="#191970" stroke="#191970" points="578.3929,-345.9651 572.0685,-354.4652 582.3133,-351.7643 578.3929,-345.9651"/>
</g>
<!-- Node2874 -->
<g id="node11" class="node">
<title>Node2874</title>
<g id="a_node11"><a xlink:href="rlm__isc__dhcp_8c.html#a51d6ad988b59dd63747d1451f3fee185" target="_top" xlink:title="subnet IPADDR netmask MASK { ... ">
<polygon fill="none" stroke="#000000" points="671,-202.5 671,-221.5 746,-221.5 746,-202.5 671,-202.5"/>
<text text-anchor="middle" x="708.5" y="-209.5" font-family="Helvetica,sans-Serif" font-size="10.00" fill="#000000">parse_subnet</text>
</a>
</g>
</g>
<!-- Node2855&#45;&gt;Node2874 -->
<g id="edge10" class="edge">
<title>Node2855&#45;&gt;Node2874</title>
<path fill="none" stroke="#191970" d="M575.3616,-346.6496C585.338,-335.8173 597.784,-321.2621 607,-307 627.285,-275.608 614.5434,-255.2313 643,-231 650.8429,-224.3216 660.9199,-219.9881 670.8067,-217.1769"/>
<polygon fill="#191970" stroke="#191970" points="572.6151,-344.4608 568.3084,-354.1408 577.7117,-349.2594 572.6151,-344.4608"/>
</g>
<!-- Node2875 -->
<g id="node12" class="node">
<title>Node2875</title>
<g id="a_node12"><a xlink:href="sql__state_8c.html#a752b824261cab83e66f2e2bf1c7ad63b" target="_top" xlink:title="Allocate a sql_state trie, and insert the initial set of entries. ">
<polygon fill="none" stroke="#ff0000" points="810,-219.5 810,-238.5 911,-238.5 911,-219.5 810,-219.5"/>
<text text-anchor="middle" x="860.5" y="-226.5" font-family="Helvetica,sans-Serif" font-size="10.00" fill="#000000">sql_state_trie_alloc</text>
</a>
</g>
</g>
<!-- Node2855&#45;&gt;Node2875 -->
<g id="edge11" class="edge">
<title>Node2855&#45;&gt;Node2875</title>
<path fill="none" stroke="#191970" d="M601.7909,-354.3217C660.5908,-340.9078 760.0227,-317.1701 774,-307 797.9251,-289.5918 787.4683,-270.1776 810,-251 816.0445,-245.8553 823.4779,-241.7341 830.7643,-238.5134"/>
<polygon fill="#191970" stroke="#191970" points="600.9946,-350.9133 592.0183,-356.5415 602.5452,-357.7395 600.9946,-350.9133"/>
</g>
<!-- Node2861 -->
<g id="node8" class="node">
<title>Node2861</title>
<g id="a_node8"><a xlink:href="client_8h.html#a3b43b666fb157f27b91c1d21b9385309" target="_top" xlink:title="Add a client to a RADCLIENT_LIST. ">
<polygon fill="none" stroke="#ff0000" points="830,-260.5 830,-279.5 891,-279.5 891,-260.5 830,-260.5"/>
<text text-anchor="middle" x="860.5" y="-267.5" font-family="Helvetica,sans-Serif" font-size="10.00" fill="#000000">client_add</text>
</a>
</g>
</g>
<!-- Node2860&#45;&gt;Node2861 -->
<g id="edge7" class="edge">
<title>Node2860&#45;&gt;Node2861</title>
<path fill="none" stroke="#191970" d="M756.4693,-391.9837C762.6536,-389.5927 768.6768,-386.641 774,-383 814.9885,-354.9647 844.9369,-301.2924 855.9135,-279.5242"/>
<polygon fill="#191970" stroke="#191970" points="755.0422,-388.7717 746.6959,-395.2978 757.2902,-395.401 755.0422,-388.7717"/>
</g>
<!-- Node2878&#45;&gt;Node2877 -->
<g id="edge15" class="edge">
<title>Node2878&#45;&gt;Node2877</title>
<path fill="none" stroke="#191970" d="M484.3105,-288C492.7407,-288 501.3519,-288 509.5825,-288"/>
<polygon fill="#191970" stroke="#191970" points="484.1551,-284.5001 474.155,-288 484.155,-291.5001 484.1551,-284.5001"/>
</g>
<!-- Node2879&#45;&gt;Node2877 -->
<g id="edge22" class="edge">
<title>Node2879&#45;&gt;Node2877</title>
<path fill="none" stroke="#191970" d="M225.2498,-257.7286C286.0693,-257.013 387.5085,-257.9489 474,-269 490.2575,-271.0772 507.9897,-274.8301 522.9935,-278.4551"/>
<polygon fill="#191970" stroke="#191970" points="225.0639,-254.2307 215.1129,-257.8677 225.16,-261.2301 225.0639,-254.2307"/>
</g>
<!-- Node2880 -->
<g id="node16" class="node">
<title>Node2880</title>
<g id="a_node16"><a xlink:href="trie_8c.html#abfe0d55c1b60896886bb91ee50878d3a" target="_top" xlink:title="fr_trie_path_split">
<polygon fill="none" stroke="#000000" points="252.5,-278.5 252.5,-297.5 341.5,-297.5 341.5,-278.5 252.5,-278.5"/>
<text text-anchor="middle" x="297" y="-285.5" font-family="Helvetica,sans-Serif" font-size="10.00" fill="#000000">fr_trie_path_split</text>
</a>
</g>
</g>
<!-- Node2879&#45;&gt;Node2880 -->
<g id="edge19" class="edge">
<title>Node2879&#45;&gt;Node2880</title>
<path fill="none" stroke="#191970" d="M222.4982,-270.8528C233.46,-273.3757 244.9027,-276.0093 255.4374,-278.434"/>
<polygon fill="#191970" stroke="#191970" points="223.1366,-267.4083 212.6063,-268.5761 221.5665,-274.2299 223.1366,-267.4083"/>
</g>
<!-- Node2879&#45;&gt;Node2881 -->
<g id="edge23" class="edge">
<title>Node2879&#45;&gt;Node2881</title>
<path fill="none" stroke="#191970" d="M205.8819,-245.9885C226.536,-238.2842 252.263,-228.6876 271.1075,-221.6583"/>
<polygon fill="#191970" stroke="#191970" points="204.6441,-242.7146 196.498,-249.4888 207.0906,-249.2731 204.6441,-242.7146"/>
</g>
<!-- Node2880&#45;&gt;Node2854 -->
<g id="edge20" class="edge">
<title>Node2880&#45;&gt;Node2854</title>
<path fill="none" stroke="#191970" d="M332.034,-301.5732C335.7878,-303.2919 339.5078,-305.1133 343,-307 369.7155,-321.4334 398.4561,-342.39 414.2844,-354.4617"/>
<polygon fill="#191970" stroke="#191970" points="333.3107,-298.3118 322.7445,-297.5334 330.5191,-304.731 333.3107,-298.3118"/>
</g>
<!-- Node2880&#45;&gt;Node2878 -->
<g id="edge21" class="edge">
<title>Node2880&#45;&gt;Node2878</title>
<path fill="none" stroke="#191970" d="M351.6012,-288C360.6247,-288 369.9178,-288 378.756,-288"/>
<polygon fill="#191970" stroke="#191970" points="351.5666,-284.5001 341.5666,-288 351.5665,-291.5001 351.5666,-284.5001"/>
</g>
<!-- Node2881&#45;&gt;Node2877 -->
<g id="edge25" class="edge">
<title>Node2881&#45;&gt;Node2877</title>
<path fill="none" stroke="#191970" d="M353.5134,-213.6918C388.9857,-216.1956 435.1958,-222.1331 474,-236 502.0619,-246.0281 530.7859,-266.25 546.4618,-278.3085"/>
<polygon fill="#191970" stroke="#191970" points="353.5416,-210.1867 343.34,-213.0464 353.0983,-217.1726 353.5416,-210.1867"/>
</g>
<!-- Node2881&#45;&gt;Node2878 -->
<g id="edge26" class="edge">
<title>Node2881&#45;&gt;Node2878</title>
<path fill="none" stroke="#191970" d="M322.3127,-226.8553C348.3458,-242.1335 388.1172,-265.4742 410.2319,-278.4527"/>
<polygon fill="#191970" stroke="#191970" points="323.7973,-223.6684 313.4013,-221.6255 320.2542,-229.7055 323.7973,-223.6684"/>
</g>
<!-- Node2882 -->
<g id="node18" class="node">
<title>Node2882</title>
<g id="a_node18"><a xlink:href="trie_8c.html#acfa71b4c5b49273b2440b67dd7eefbc4" target="_top" xlink:title="fr_trie_user_insert">
<polygon fill="none" stroke="#000000" points="379,-164.5 379,-183.5 474,-183.5 474,-164.5 379,-164.5"/>
<text text-anchor="middle" x="426.5" y="-171.5" font-family="Helvetica,sans-Serif" font-size="10.00" fill="#000000">fr_trie_user_insert</text>
</a>
</g>
</g>
<!-- Node2881&#45;&gt;Node2882 -->
<g id="edge24" class="edge">
<title>Node2881&#45;&gt;Node2882</title>
<path fill="none" stroke="#191970" d="M339.719,-199.4647C357.336,-194.2952 377.4232,-188.4009 393.8321,-183.5859"/>
<polygon fill="#191970" stroke="#191970" points="338.2882,-196.2369 329.6783,-202.411 340.2592,-202.9537 338.2882,-196.2369"/>
</g>
<!-- Node2883 -->
<g id="node19" class="node">
<title>Node2883</title>
<g id="a_node19"><a xlink:href="trie_8h.html#a67ff60c4159bc243ff80d7660d43482f" target="_top" xlink:title="Insert a key and user ctx into a trie. ">
<polygon fill="none" stroke="#000000" points="523,-145.5 523,-164.5 594,-164.5 594,-145.5 523,-145.5"/>
<text text-anchor="middle" x="558.5" y="-152.5" font-family="Helvetica,sans-Serif" font-size="10.00" fill="#000000">fr_trie_insert</text>
</a>
</g>
</g>
<!-- Node2881&#45;&gt;Node2883 -->
<g id="edge27" class="edge">
<title>Node2881&#45;&gt;Node2883</title>
<path fill="none" stroke="#191970" d="M314.1914,-195.2899C329.6996,-181.4679 353.8736,-162.8751 379,-155 427.025,-139.948 485.894,-143.8874 522.8118,-148.8468"/>
<polygon fill="#191970" stroke="#191970" points="311.4871,-193.0232 306.5163,-202.3796 316.2369,-198.1652 311.4871,-193.0232"/>
</g>
<!-- Node2883&#45;&gt;Node2856 -->
<g id="edge29" class="edge">
<title>Node2883&#45;&gt;Node2856</title>
<path fill="none" stroke="#191970" d="M573.3896,-172.3486C589.0689,-189.5801 615.2869,-215.5926 643,-231 649.83,-234.7972 657.4919,-237.8994 665.1028,-240.4125"/>
<polygon fill="#191970" stroke="#191970" points="575.8362,-169.8326 566.5787,-164.6799 570.6023,-174.481 575.8362,-169.8326"/>
</g>
<!-- Node2883&#45;&gt;Node2861 -->
<g id="edge30" class="edge">
<title>Node2883&#45;&gt;Node2861</title>
<path fill="none" stroke="#191970" d="M604.1476,-152.9058C650.5957,-152.9592 722.8397,-159.27 774,-193 798.3912,-209.0811 787.6746,-229.1558 810,-248 816.0656,-253.1198 823.5064,-257.2323 830.7932,-260.4525"/>
<polygon fill="#191970" stroke="#191970" points="604.0416,-149.4065 594.0719,-152.9919 604.1015,-156.4062 604.0416,-149.4065"/>
</g>
<!-- Node2883&#45;&gt;Node2869 -->
<g id="edge31" class="edge">
<title>Node2883&#45;&gt;Node2869</title>
<path fill="none" stroke="#191970" d="M567.6908,-173.8463C578.2894,-196.1478 595.6999,-234.6014 607,-269 628.6672,-334.9567 595.1462,-370.7032 643,-421 651.3247,-429.7496 663.4139,-434.5432 674.9462,-437.1442"/>
<polygon fill="#191970" stroke="#191970" points="570.7069,-172.042 563.2192,-164.5462 564.3982,-175.0753 570.7069,-172.042"/>
</g>
<!-- Node2883&#45;&gt;Node2873 -->
<g id="edge32" class="edge">
<title>Node2883&#45;&gt;Node2873</title>
<path fill="none" stroke="#191970" d="M567.3483,-173.5648C580.3758,-198.9117 607.1098,-244.042 643,-269 650.3879,-274.1375 659.1621,-277.8992 667.8483,-280.6492"/>
<polygon fill="#191970" stroke="#191970" points="570.482,-172.0059 562.8955,-164.6102 564.2141,-175.1227 570.482,-172.0059"/>
</g>
<!-- Node2883&#45;&gt;Node2874 -->
<g id="edge34" class="edge">
<title>Node2883&#45;&gt;Node2874</title>
<path fill="none" stroke="#191970" d="M592.1449,-168.3271C607.6072,-174.4035 626.2046,-181.6442 643,-188 655.7994,-192.8436 670.0614,-198.0874 682.0008,-202.4343"/>
<polygon fill="#191970" stroke="#191970" points="593.0742,-164.9314 582.4872,-164.5231 590.5088,-171.4444 593.0742,-164.9314"/>
</g>
<!-- Node2871 -->
<g id="node20" class="node">
<title>Node2871</title>
<g id="a_node20"><a xlink:href="master_8c.html#a476d24efc125b68342506847dd091356" target="_top" xlink:title="Implement 99% of the read routines. ">
<polygon fill="none" stroke="#000000" points="679,-.5 679,-19.5 738,-19.5 738,-.5 679,-.5"/>
<text text-anchor="middle" x="708.5" y="-7.5" font-family="Helvetica,sans-Serif" font-size="10.00" fill="#000000">mod_read</text>
</a>
</g>
</g>
<!-- Node2883&#45;&gt;Node2871 -->
<g id="edge28" class="edge">
<title>Node2883&#45;&gt;Node2871</title>
<path fill="none" stroke="#191970" d="M566.1201,-136.0863C578.2394,-108.4082 604.5355,-57.1152 643,-29 653.4193,-21.3841 666.8404,-16.8092 678.8181,-14.0662"/>
<polygon fill="#191970" stroke="#191970" points="562.8361,-134.8664 562.1736,-145.4405 569.2856,-137.5874 562.8361,-134.8664"/>
</g>
<!-- Node2884 -->
<g id="node21" class="node">
<title>Node2884</title>
<g id="a_node21"><a xlink:href="rlm__csv_8c.html#a998112b5014f72b06dd203c46e61b5c0" target="_top" xlink:title="insert_entry">
<polygon fill="none" stroke="#ff0000" points="674.5,-76.5 674.5,-95.5 742.5,-95.5 742.5,-76.5 674.5,-76.5"/>
<text text-anchor="middle" x="708.5" y="-83.5" font-family="Helvetica,sans-Serif" font-size="10.00" fill="#000000">insert_entry</text>
</a>
</g>
</g>
<!-- Node2883&#45;&gt;Node2884 -->
<g id="edge33" class="edge">
<title>Node2883&#45;&gt;Node2884</title>
<path fill="none" stroke="#191970" d="M580.7175,-139.7455C597.2986,-128.8933 620.8237,-114.5942 643,-105 652.8889,-100.7218 664.0238,-97.0843 674.2694,-94.1726"/>
<polygon fill="#191970" stroke="#191970" points="578.6569,-136.9127 572.2729,-145.3682 582.5364,-142.7393 578.6569,-136.9127"/>
</g>
<!-- Node2888 -->
<g id="node22" class="node">
<title>Node2888</title>
<g id="a_node22"><a xlink:href="sql__state_8c.html#a03d8cc8b1832cdf3a8f62267e132306d" target="_top" xlink:title="Insert the contents of a state table into the state trie. ">
<polygon fill="none" stroke="#ff0000" points="650.5,-115 650.5,-145 766.5,-145 766.5,-115 650.5,-115"/>
<text text-anchor="start" x="658.5" y="-133" font-family="Helvetica,sans-Serif" font-size="10.00" fill="#000000">sql_state_entries_from</text>
<text text-anchor="middle" x="708.5" y="-122" font-family="Helvetica,sans-Serif" font-size="10.00" fill="#000000">_table</text>
</a>
</g>
</g>
<!-- Node2883&#45;&gt;Node2888 -->
<g id="edge35" class="edge">
<title>Node2883&#45;&gt;Node2888</title>
<path fill="none" stroke="#191970" d="M604.2799,-147.37C618.8059,-144.949 635.0653,-142.2391 650.3417,-139.693"/>
<polygon fill="#191970" stroke="#191970" points="603.3364,-143.9789 594.0479,-149.0753 604.4873,-150.8837 603.3364,-143.9789"/>
</g>
<!-- Node2889 -->
<g id="node23" class="node">
<title>Node2889</title>
<g id="a_node23"><a xlink:href="sql__state_8c.html#ac557d28d9944be6875d7d83e4eaf7dbc" target="_top" xlink:title="Insert the contents of a CONF_SECTION into the state trie. ">
<polygon fill="none" stroke="#ff0000" points="643,-38.5 643,-57.5 774,-57.5 774,-38.5 643,-38.5"/>
<text text-anchor="middle" x="708.5" y="-45.5" font-family="Helvetica,sans-Serif" font-size="10.00" fill="#000000">sql_state_entries_from_cs</text>
</a>
</g>
</g>
<!-- Node2883&#45;&gt;Node2889 -->
<g id="edge37" class="edge">
<title>Node2883&#45;&gt;Node2889</title>
<path fill="none" stroke="#191970" d="M570.9655,-137.2566C585.8792,-117.3181 612.6678,-85.3476 643,-67 649.3826,-63.1393 656.5905,-60.028 663.8311,-57.5313"/>
<polygon fill="#191970" stroke="#191970" points="568.0356,-135.3344 564.9788,-145.4787 573.6945,-139.4548 568.0356,-135.3344"/>
</g>
<!-- Node2888&#45;&gt;Node2875 -->
<g id="edge36" class="edge">
<title>Node2888&#45;&gt;Node2875</title>
<path fill="none" stroke="#191970" d="M755.1258,-149.643C761.598,-152.8602 768.0589,-156.3459 774,-160 803.6165,-178.2157 834.5942,-205.1659 850.2032,-219.3936"/>
<polygon fill="#191970" stroke="#191970" points="756.2258,-146.2895 745.6943,-145.1331 753.206,-152.6046 756.2258,-146.2895"/>
</g>
</g>
</svg>
