<?xml version="1.0" encoding="UTF-8" standalone="no"?>
<!DOCTYPE svg PUBLIC "-//W3C//DTD SVG 1.1//EN"
 "http://www.w3.org/Graphics/SVG/1.1/DTD/svg11.dtd">
<!-- Generated by graphviz version 2.40.1 (20161225.0304)
 -->
<!-- Title: _trunk_connection_on_closed Pages: 1 -->
<svg width="1216pt" height="936pt"
 viewBox="0.00 0.00 1216.00 936.36" xmlns="http://www.w3.org/2000/svg" xmlns:xlink="http://www.w3.org/1999/xlink">
<g id="graph0" class="graph" transform="scale(1 1) rotate(0) translate(4 932.3596)">
<title>_trunk_connection_on_closed</title>
<!-- Node588 -->
<g id="node1" class="node">
<title>Node588</title>
<polygon fill="#bfbfbf" stroke="#000000" points="0,-90 0,-120 112,-120 112,-90 0,-90"/>
<text text-anchor="start" x="8" y="-108" font-family="Helvetica,sans-Serif" font-size="10.00" fill="#000000">_trunk_connection_on</text>
<text text-anchor="middle" x="56" y="-97" font-family="Helvetica,sans-Serif" font-size="10.00" fill="#000000">_closed</text>
</g>
<!-- Node589 -->
<g id="node2" class="node">
<title>Node589</title>
<g id="a_node2"><a xlink:href="trunk_8c.html#af55aeabd0743377eb3f519244d2f10d6" target="_top" xlink:title="Remove a trunk connection from whichever list it&#39;s currently in. ">
<polygon fill="none" stroke="#000000" points="151,-853.5 151,-872.5 279,-872.5 279,-853.5 151,-853.5"/>
<text text-anchor="middle" x="215" y="-860.5" font-family="Helvetica,sans-Serif" font-size="10.00" fill="#000000">trunk_connection_remove</text>
</a>
</g>
</g>
<!-- Node588&#45;&gt;Node589 -->
<g id="edge1" class="edge">
<title>Node588&#45;&gt;Node589</title>
<path fill="none" stroke="#191970" d="M57.8527,-120.1763C65.8407,-184.354 99.1568,-439.6037 148,-645 165.6747,-719.326 194.7683,-805.455 208.0265,-843.3702"/>
<polygon fill="#191970" stroke="#191970" points="204.8409,-844.8613 211.4636,-853.1311 211.4435,-842.5363 204.8409,-844.8613"/>
</g>
<!-- Node729 -->
<g id="node13" class="node">
<title>Node729</title>
<g id="a_node13"><a xlink:href="trunk_8c.html#a4a0a08064485793b003756b197ca6622" target="_top" xlink:title="Return the count number of requests associated with a trunk connection. ">
<polygon fill="none" stroke="#000000" points="938,-355 938,-385 1054,-385 1054,-355 938,-355"/>
<text text-anchor="start" x="946" y="-373" font-family="Helvetica,sans-Serif" font-size="10.00" fill="#000000">fr_trunk_request_count</text>
<text text-anchor="middle" x="996" y="-362" font-family="Helvetica,sans-Serif" font-size="10.00" fill="#000000">_by_connection</text>
</a>
</g>
</g>
<!-- Node588&#45;&gt;Node729 -->
<g id="edge13" class="edge">
<title>Node588&#45;&gt;Node729</title>
<path fill="none" stroke="#191970" d="M112.1198,-99.783C177.5625,-94.1583 289.0248,-86 385,-86 385,-86 385,-86 689.5,-86 841.6143,-86 950.1718,-276.5388 984.4713,-345.4789"/>
<polygon fill="#191970" stroke="#191970" points="981.4562,-347.281 988.9894,-354.7309 987.7463,-344.2093 981.4562,-347.281"/>
</g>
<!-- Node732 -->
<g id="node16" class="node">
<title>Node732</title>
<g id="a_node16"><a xlink:href="dlist_8h.html#aca8eed7f7758b61446174a5a4d54e7b4" target="_top" xlink:title="Insert an item into the head of a list. ">
<polygon fill="none" stroke="#000000" points="164.5,-38.5 164.5,-57.5 265.5,-57.5 265.5,-38.5 164.5,-38.5"/>
<text text-anchor="middle" x="215" y="-45.5" font-family="Helvetica,sans-Serif" font-size="10.00" fill="#000000">fr_dlist_insert_head</text>
</a>
</g>
</g>
<!-- Node588&#45;&gt;Node732 -->
<g id="edge16" class="edge">
<title>Node588&#45;&gt;Node732</title>
<path fill="none" stroke="#191970" d="M98.1347,-89.8821C113.7923,-84.2654 131.7071,-77.8402 148,-72 157.9445,-68.4354 168.72,-64.5747 178.6621,-61.0134"/>
<polygon fill="#191970" stroke="#191970" points="180.0306,-64.241 188.2647,-57.5738 177.6701,-57.651 180.0306,-64.241"/>
</g>
<!-- Node733 -->
<g id="node17" class="node">
<title>Node733</title>
<g id="a_node17"><a xlink:href="trunk_8c.html#ac2fe6b5bbb2452eda599a3fc16472d4d" target="_top" xlink:title="Remove requests in specified states from a connection, attempting to distribute them to new connectio...">
<polygon fill="none" stroke="#000000" points="148,-605 148,-635 282,-635 282,-605 148,-605"/>
<text text-anchor="start" x="156" y="-623" font-family="Helvetica,sans-Serif" font-size="10.00" fill="#000000">trunk_connection_requests</text>
<text text-anchor="middle" x="215" y="-612" font-family="Helvetica,sans-Serif" font-size="10.00" fill="#000000">_requeue</text>
</a>
</g>
</g>
<!-- Node588&#45;&gt;Node733 -->
<g id="edge17" class="edge">
<title>Node588&#45;&gt;Node733</title>
<path fill="none" stroke="#191970" d="M60.6725,-120.1341C83.0242,-192.5313 179.1124,-503.7602 207.2377,-594.858"/>
<polygon fill="#191970" stroke="#191970" points="203.9558,-596.0925 210.2501,-604.615 210.6442,-594.0275 203.9558,-596.0925"/>
</g>
<!-- Node757 -->
<g id="node22" class="node">
<title>Node757</title>
<g id="a_node22"><a xlink:href="trunk_8c.html#aeaad50225e220cc98d1a1cf5a5941298" target="_top" xlink:title="Update the registrations for I/O events we&#39;re interested in. ">
<polygon fill="none" stroke="#000000" points="782,-355 782,-385 902,-385 902,-355 782,-355"/>
<text text-anchor="start" x="790" y="-373" font-family="Helvetica,sans-Serif" font-size="10.00" fill="#000000">trunk_connection_event</text>
<text text-anchor="middle" x="842" y="-362" font-family="Helvetica,sans-Serif" font-size="10.00" fill="#000000">_update</text>
</a>
</g>
</g>
<!-- Node588&#45;&gt;Node757 -->
<g id="edge60" class="edge">
<title>Node588&#45;&gt;Node757</title>
<path fill="none" stroke="#191970" d="M112.1749,-104.2968C232.4805,-103.5373 511.0691,-105.9787 597,-143 701.7785,-188.1413 790.2192,-297.983 825.543,-346.4065"/>
<polygon fill="#191970" stroke="#191970" points="822.8313,-348.6305 831.5125,-354.7041 828.5136,-344.5425 822.8313,-348.6305"/>
</g>
<!-- Node770 -->
<g id="node35" class="node">
<title>Node770</title>
<g id="a_node35"><a xlink:href="lib_2util_2event_8c.html#a8faea09b0f0453e51f6768eb5a760e2f" target="_top" xlink:title="Delete a timer event from the event list. ">
<polygon fill="none" stroke="#000000" points="160,-.5 160,-19.5 270,-19.5 270,-.5 160,-.5"/>
<text text-anchor="middle" x="215" y="-7.5" font-family="Helvetica,sans-Serif" font-size="10.00" fill="#000000">fr_event_timer_delete</text>
</a>
</g>
</g>
<!-- Node588&#45;&gt;Node770 -->
<g id="edge59" class="edge">
<title>Node588&#45;&gt;Node770</title>
<path fill="none" stroke="#191970" d="M70.2149,-89.9672C87.192,-72.8519 117.1827,-45.1767 148,-29 152.3223,-26.7311 156.9477,-24.7053 161.6732,-22.9024"/>
<polygon fill="#191970" stroke="#191970" points="163.1498,-26.0947 171.4484,-19.508 160.8536,-19.482 163.1498,-26.0947"/>
</g>
<!-- Node590 -->
<g id="node3" class="node">
<title>Node590</title>
<g id="a_node3"><a xlink:href="heap_8c.html#a2071e6c3699b74317dc7968e377fdced" target="_top" xlink:title="Remove a node from the heap. ">
<polygon fill="none" stroke="#000000" points="647.5,-796.5 647.5,-815.5 731.5,-815.5 731.5,-796.5 647.5,-796.5"/>
<text text-anchor="middle" x="689.5" y="-803.5" font-family="Helvetica,sans-Serif" font-size="10.00" fill="#000000">fr_heap_extract</text>
</a>
</g>
</g>
<!-- Node589&#45;&gt;Node590 -->
<g id="edge2" class="edge">
<title>Node589&#45;&gt;Node590</title>
<path fill="none" stroke="#191970" d="M234.545,-872.5864C254.8405,-881.9662 287.7912,-895.6052 318,-901 440.0688,-922.7994 482.7578,-949.2154 597,-901 633.9075,-885.4234 663.3813,-847.1246 678.473,-824.1937"/>
<polygon fill="#191970" stroke="#191970" points="681.4668,-826.0083 683.8737,-815.6904 675.5579,-822.2553 681.4668,-826.0083"/>
</g>
<!-- Node720 -->
<g id="node9" class="node">
<title>Node720</title>
<g id="a_node9"><a xlink:href="strerror_8c.html#a83ee876ee41b1ae672dc4dcda4f02a2e" target="_top" xlink:title="Get the last library error. ">
<polygon fill="none" stroke="#ff0000" points="355.5,-834.5 355.5,-853.5 414.5,-853.5 414.5,-834.5 355.5,-834.5"/>
<text text-anchor="middle" x="385" y="-841.5" font-family="Helvetica,sans-Serif" font-size="10.00" fill="#000000">fr_strerror</text>
</a>
</g>
</g>
<!-- Node589&#45;&gt;Node720 -->
<g id="edge9" class="edge">
<title>Node589&#45;&gt;Node720</title>
<path fill="none" stroke="#191970" d="M279.2697,-855.8169C301.4267,-853.3405 325.585,-850.6405 345.209,-848.4472"/>
<polygon fill="#191970" stroke="#191970" points="345.763,-851.9072 355.3123,-847.318 344.9854,-844.9505 345.763,-851.9072"/>
</g>
<!-- Node726 -->
<g id="node10" class="node">
<title>Node726</title>
<g id="a_node10"><a xlink:href="dlist_8h.html#abc40bcac47679893e9ad3dbacf1b78ce" target="_top" xlink:title="Remove an item from the list. ">
<polygon fill="none" stroke="#000000" points="343.5,-872.5 343.5,-891.5 426.5,-891.5 426.5,-872.5 343.5,-872.5"/>
<text text-anchor="middle" x="385" y="-879.5" font-family="Helvetica,sans-Serif" font-size="10.00" fill="#000000">fr_dlist_remove</text>
</a>
</g>
</g>
<!-- Node589&#45;&gt;Node726 -->
<g id="edge10" class="edge">
<title>Node589&#45;&gt;Node726</title>
<path fill="none" stroke="#191970" d="M279.2697,-870.1831C297.0229,-872.1673 316.061,-874.2951 333.022,-876.1907"/>
<polygon fill="#191970" stroke="#191970" points="332.9572,-879.7052 343.2841,-877.3376 333.7347,-872.7485 332.9572,-879.7052"/>
</g>
<!-- Node591 -->
<g id="node4" class="node">
<title>Node591</title>
<g id="a_node4"><a xlink:href="strerror_8c.html#ae701765650b8aea79a3037bc4921d7f8" target="_top" xlink:title="Log to thread local error buffer. ">
<polygon fill="none" stroke="#000000" points="799,-796.5 799,-815.5 885,-815.5 885,-796.5 799,-796.5"/>
<text text-anchor="middle" x="842" y="-803.5" font-family="Helvetica,sans-Serif" font-size="10.00" fill="#000000">fr_strerror_printf</text>
</a>
</g>
</g>
<!-- Node590&#45;&gt;Node591 -->
<g id="edge3" class="edge">
<title>Node590&#45;&gt;Node591</title>
<path fill="none" stroke="#191970" d="M731.575,-806C749.2047,-806 769.9076,-806 788.5939,-806"/>
<polygon fill="#191970" stroke="#191970" points="788.7354,-809.5001 798.7354,-806 788.7353,-802.5001 788.7354,-809.5001"/>
</g>
<!-- Node725 -->
<g id="node8" class="node">
<title>Node725</title>
<g id="a_node8"><a xlink:href="heap_8c.html#ae3fc67f3c57bcaa3cf2d56ee4f8552fa" target="_top" xlink:title="fr_heap_bubble">
<polygon fill="none" stroke="#000000" points="800.5,-758.5 800.5,-777.5 883.5,-777.5 883.5,-758.5 800.5,-758.5"/>
<text text-anchor="middle" x="842" y="-765.5" font-family="Helvetica,sans-Serif" font-size="10.00" fill="#000000">fr_heap_bubble</text>
</a>
</g>
</g>
<!-- Node590&#45;&gt;Node725 -->
<g id="edge8" class="edge">
<title>Node590&#45;&gt;Node725</title>
<path fill="none" stroke="#191970" d="M727.9822,-796.411C748.0156,-791.4191 772.7023,-785.2676 793.976,-779.9666"/>
<polygon fill="#191970" stroke="#191970" points="794.9375,-783.3341 803.7945,-777.5201 793.245,-776.5418 794.9375,-783.3341"/>
</g>
<!-- Node592 -->
<g id="node5" class="node">
<title>Node592</title>
<g id="a_node5"><a xlink:href="acutest_8h.html#aecf9a9be8105efb1454cd8c1ef6cb1c5" target="_top" xlink:title="va_start">
<polygon fill="none" stroke="#000000" points="970,-834.5 970,-853.5 1022,-853.5 1022,-834.5 970,-834.5"/>
<text text-anchor="middle" x="996" y="-841.5" font-family="Helvetica,sans-Serif" font-size="10.00" fill="#000000">va_start</text>
</a>
</g>
</g>
<!-- Node591&#45;&gt;Node592 -->
<g id="edge4" class="edge">
<title>Node591&#45;&gt;Node592</title>
<path fill="none" stroke="#191970" d="M880.8607,-815.589C905.0775,-821.5646 936.0278,-829.2017 959.7393,-835.0526"/>
<polygon fill="#191970" stroke="#191970" points="959.1978,-838.5239 969.7451,-837.5215 960.8748,-831.7277 959.1978,-838.5239"/>
</g>
<!-- Node593 -->
<g id="node6" class="node">
<title>Node593</title>
<g id="a_node6"><a xlink:href="strerror_8c.html#a193b1e0b3712e3bbee338812c06af482" target="_top" xlink:title="fr_strerror_vprintf">
<polygon fill="none" stroke="#ff0000" points="950.5,-758.5 950.5,-777.5 1041.5,-777.5 1041.5,-758.5 950.5,-758.5"/>
<text text-anchor="middle" x="996" y="-765.5" font-family="Helvetica,sans-Serif" font-size="10.00" fill="#000000">fr_strerror_vprintf</text>
</a>
</g>
</g>
<!-- Node591&#45;&gt;Node593 -->
<g id="edge5" class="edge">
<title>Node591&#45;&gt;Node593</title>
<path fill="none" stroke="#191970" d="M880.8607,-796.411C901.0911,-791.4191 926.0207,-785.2676 947.5036,-779.9666"/>
<polygon fill="#191970" stroke="#191970" points="948.5485,-783.3139 957.4187,-777.5201 946.8714,-776.5177 948.5485,-783.3139"/>
</g>
<!-- Node596 -->
<g id="node7" class="node">
<title>Node596</title>
<g id="a_node7"><a xlink:href="acutest_8h.html#a36af1f79dd6adf0809c21e76535034d5" target="_top" xlink:title="va_end">
<polygon fill="none" stroke="#000000" points="1125,-777.5 1125,-796.5 1173,-796.5 1173,-777.5 1125,-777.5"/>
<text text-anchor="middle" x="1149" y="-784.5" font-family="Helvetica,sans-Serif" font-size="10.00" fill="#000000">va_end</text>
</a>
</g>
</g>
<!-- Node591&#45;&gt;Node596 -->
<g id="edge7" class="edge">
<title>Node591&#45;&gt;Node596</title>
<path fill="none" stroke="#191970" d="M885.0103,-803.3381C946.557,-799.529 1058.5178,-792.5999 1114.7867,-789.1174"/>
<polygon fill="#191970" stroke="#191970" points="1115.179,-792.5999 1124.9437,-788.4888 1114.7466,-785.6133 1115.179,-792.5999"/>
</g>
<!-- Node593&#45;&gt;Node596 -->
<g id="edge6" class="edge">
<title>Node593&#45;&gt;Node596</title>
<path fill="none" stroke="#191970" d="M1041.905,-773.7006C1065.3546,-776.6127 1093.396,-780.0949 1114.9021,-782.7656"/>
<polygon fill="#191970" stroke="#191970" points="1114.5308,-786.2463 1124.8859,-784.0054 1115.3935,-779.2997 1114.5308,-786.2463"/>
</g>
<!-- Node727 -->
<g id="node11" class="node">
<title>Node727</title>
<g id="a_node11"><a xlink:href="dlist_8h.html#a744cb8537f617b6718254070a02f13a0" target="_top" xlink:title="Check whether a list has any items. ">
<polygon fill="none" stroke="#000000" points="503.5,-872.5 503.5,-891.5 581.5,-891.5 581.5,-872.5 503.5,-872.5"/>
<text text-anchor="middle" x="542.5" y="-879.5" font-family="Helvetica,sans-Serif" font-size="10.00" fill="#000000">fr_dlist_empty</text>
</a>
</g>
</g>
<!-- Node726&#45;&gt;Node727 -->
<g id="edge11" class="edge">
<title>Node726&#45;&gt;Node727</title>
<path fill="none" stroke="#191970" d="M426.7936,-882C447.2345,-882 471.9716,-882 493.3178,-882"/>
<polygon fill="#191970" stroke="#191970" points="493.4908,-885.5001 503.4908,-882 493.4907,-878.5001 493.4908,-885.5001"/>
</g>
<!-- Node728 -->
<g id="node12" class="node">
<title>Node728</title>
<g id="a_node12"><a xlink:href="dlist_8h.html#a50878590aabca4bc6fc4d1f6df0e724f" target="_top" xlink:title="Check if a list entry is part of a list. ">
<polygon fill="none" stroke="#000000" points="490.5,-834.5 490.5,-853.5 594.5,-853.5 594.5,-834.5 490.5,-834.5"/>
<text text-anchor="middle" x="542.5" y="-841.5" font-family="Helvetica,sans-Serif" font-size="10.00" fill="#000000">fr_dlist_entry_in_list</text>
</a>
</g>
</g>
<!-- Node726&#45;&gt;Node728 -->
<g id="edge12" class="edge">
<title>Node726&#45;&gt;Node728</title>
<path fill="none" stroke="#191970" d="M424.7439,-872.411C445.5277,-867.3965 471.1611,-861.2119 493.1995,-855.8947"/>
<polygon fill="#191970" stroke="#191970" points="494.1417,-859.2679 503.0419,-853.5201 492.4999,-852.4632 494.1417,-859.2679"/>
</g>
<!-- Node730 -->
<g id="node14" class="node">
<title>Node730</title>
<g id="a_node14"><a xlink:href="heap_8c.html#a3090137dd1e54a14bf4fc24f373c7627" target="_top" xlink:title="fr_heap_num_elements">
<polygon fill="none" stroke="#000000" points="1090,-360.5 1090,-379.5 1208,-379.5 1208,-360.5 1090,-360.5"/>
<text text-anchor="middle" x="1149" y="-367.5" font-family="Helvetica,sans-Serif" font-size="10.00" fill="#000000">fr_heap_num_elements</text>
</a>
</g>
</g>
<!-- Node729&#45;&gt;Node730 -->
<g id="edge14" class="edge">
<title>Node729&#45;&gt;Node730</title>
<path fill="none" stroke="#191970" d="M1054.2792,-370C1062.5644,-370 1071.1524,-370 1079.6228,-370"/>
<polygon fill="#191970" stroke="#191970" points="1079.8685,-373.5001 1089.8684,-370 1079.8684,-366.5001 1079.8685,-373.5001"/>
</g>
<!-- Node731 -->
<g id="node15" class="node">
<title>Node731</title>
<g id="a_node15"><a xlink:href="dlist_8h.html#ad852b167828d7848ed99ee9cae167218" target="_top" xlink:title="Return the number of elements in the dlist. ">
<polygon fill="none" stroke="#000000" points="1091.5,-534.5 1091.5,-553.5 1206.5,-553.5 1206.5,-534.5 1091.5,-534.5"/>
<text text-anchor="middle" x="1149" y="-541.5" font-family="Helvetica,sans-Serif" font-size="10.00" fill="#000000">fr_dlist_num_elements</text>
</a>
</g>
</g>
<!-- Node729&#45;&gt;Node731 -->
<g id="edge15" class="edge">
<title>Node729&#45;&gt;Node731</title>
<path fill="none" stroke="#191970" d="M1011.5877,-385.4901C1023.4532,-397.432 1040.0626,-414.4759 1054,-430 1083.7806,-463.1709 1116.7039,-503.5815 1134.9164,-526.2912"/>
<polygon fill="#191970" stroke="#191970" points="1132.3725,-528.7143 1141.3498,-534.3408 1137.8407,-524.344 1132.3725,-528.7143"/>
</g>
<!-- Node733&#45;&gt;Node590 -->
<g id="edge34" class="edge">
<title>Node733&#45;&gt;Node590</title>
<path fill="none" stroke="#191970" d="M221.7984,-635.1533C235.4961,-663.7755 269.3168,-725.5521 318,-755 418.1513,-815.5804 560.8691,-816.2231 636.9633,-811.2375"/>
<polygon fill="#191970" stroke="#191970" points="637.522,-814.7066 647.247,-810.5023 637.0228,-807.7244 637.522,-814.7066"/>
</g>
<!-- Node733&#45;&gt;Node720 -->
<g id="edge35" class="edge">
<title>Node733&#45;&gt;Node720</title>
<path fill="none" stroke="#191970" d="M218.6771,-635.175C228.3974,-672.1344 258.2255,-767.6166 318,-820 325.8753,-826.9015 335.8793,-831.8638 345.7395,-835.4145"/>
<polygon fill="#191970" stroke="#191970" points="344.8769,-838.813 355.4675,-838.5141 347.0021,-832.1433 344.8769,-838.813"/>
</g>
<!-- Node733&#45;&gt;Node726 -->
<g id="edge38" class="edge">
<title>Node733&#45;&gt;Node726</title>
<path fill="none" stroke="#191970" d="M216.8801,-635.1567C222.9842,-677.7673 246.1994,-799.6304 318,-863 322.5877,-867.049 327.9801,-870.2397 333.6796,-872.7531"/>
<polygon fill="#191970" stroke="#191970" points="332.8804,-876.1893 343.4736,-876.3757 335.3088,-869.6239 332.8804,-876.1893"/>
</g>
<!-- Node734 -->
<g id="node18" class="node">
<title>Node734</title>
<g id="a_node18"><a xlink:href="server_2connection_8c.html#a07cf3e48f209e153fb5dee32cfa0d221" target="_top" xlink:title="Pause processing of deferred signals. ">
<polygon fill="none" stroke="#000000" points="940.5,-539 940.5,-569 1051.5,-569 1051.5,-539 940.5,-539"/>
<text text-anchor="start" x="948.5" y="-557" font-family="Helvetica,sans-Serif" font-size="10.00" fill="#000000">fr_connection_signals</text>
<text text-anchor="middle" x="996" y="-546" font-family="Helvetica,sans-Serif" font-size="10.00" fill="#000000">_pause</text>
</a>
</g>
</g>
<!-- Node733&#45;&gt;Node734 -->
<g id="edge18" class="edge">
<title>Node733&#45;&gt;Node734</title>
<path fill="none" stroke="#191970" d="M282.025,-627.1428C348.1574,-633.5666 452.1775,-642 542.5,-642 542.5,-642 542.5,-642 689.5,-642 788.3534,-642 898.4201,-599.1877 955.965,-573.286"/>
<polygon fill="#191970" stroke="#191970" points="957.4321,-576.4638 965.0763,-569.1277 954.5257,-570.0957 957.4321,-576.4638"/>
</g>
<!-- Node735 -->
<g id="node19" class="node">
<title>Node735</title>
<g id="a_node19"><a xlink:href="trunk_8c.html#a8b49aca0aebe6b7a37e522a1ac715336" target="_top" xlink:title="Shift requests in the specified states onto new connections. ">
<polygon fill="none" stroke="#000000" points="318,-289 318,-319 452,-319 452,-289 318,-289"/>
<text text-anchor="start" x="326" y="-307" font-family="Helvetica,sans-Serif" font-size="10.00" fill="#000000">trunk_connection_requests</text>
<text text-anchor="middle" x="385" y="-296" font-family="Helvetica,sans-Serif" font-size="10.00" fill="#000000">_dequeue</text>
</a>
</g>
</g>
<!-- Node733&#45;&gt;Node735 -->
<g id="edge19" class="edge">
<title>Node733&#45;&gt;Node735</title>
<path fill="none" stroke="#191970" d="M222.5666,-604.9982C239.3577,-571.8102 281.1649,-489.7413 318,-422 335.883,-389.1124 357.3804,-351.5875 371.1146,-327.8541"/>
<polygon fill="#191970" stroke="#191970" points="374.1588,-329.5815 376.147,-319.1749 368.1031,-326.0702 374.1588,-329.5815"/>
</g>
<!-- Node758 -->
<g id="node23" class="node">
<title>Node758</title>
<g id="a_node23"><a xlink:href="server_2connection_8c.html#a4d82ac070ca65d717d16a833b1bf5032" target="_top" xlink:title="Resume processing of deferred signals. ">
<polygon fill="none" stroke="#ff0000" points="940.5,-439 940.5,-469 1051.5,-469 1051.5,-439 940.5,-439"/>
<text text-anchor="start" x="948.5" y="-457" font-family="Helvetica,sans-Serif" font-size="10.00" fill="#000000">fr_connection_signals</text>
<text text-anchor="middle" x="996" y="-446" font-family="Helvetica,sans-Serif" font-size="10.00" fill="#000000">_resume</text>
</a>
</g>
</g>
<!-- Node733&#45;&gt;Node758 -->
<g id="edge58" class="edge">
<title>Node733&#45;&gt;Node758</title>
<path fill="none" stroke="#191970" d="M229.5107,-604.7339C248.1785,-586.0402 282.4562,-554.7986 318,-538 410.249,-494.4015 440.4671,-490 542.5,-490 542.5,-490 542.5,-490 689.5,-490 772.9874,-490 868.3987,-476.6618 930.2853,-466.2231"/>
<polygon fill="#191970" stroke="#191970" points="931.0349,-469.6458 940.3015,-464.5095 929.8544,-462.746 931.0349,-469.6458"/>
</g>
<!-- Node618 -->
<g id="node28" class="node">
<title>Node618</title>
<g id="a_node28"><a xlink:href="dlist_8h.html#a40536da1ca43d3e72807a3bf8a9b7841" target="_top" xlink:title="Get the next item in a list. ">
<polygon fill="none" stroke="#000000" points="350,-190.5 350,-209.5 420,-209.5 420,-190.5 350,-190.5"/>
<text text-anchor="middle" x="385" y="-197.5" font-family="Helvetica,sans-Serif" font-size="10.00" fill="#000000">fr_dlist_next</text>
</a>
</g>
</g>
<!-- Node733&#45;&gt;Node618 -->
<g id="edge36" class="edge">
<title>Node733&#45;&gt;Node618</title>
<path fill="none" stroke="#191970" d="M217.3383,-604.9234C225.4258,-555.6856 255.2231,-396.1036 318,-280 331.0608,-255.8444 352.1442,-232.2472 367.1708,-217.0157"/>
<polygon fill="#191970" stroke="#191970" points="369.7594,-219.378 374.4021,-209.8545 364.8338,-214.4042 369.7594,-219.378"/>
</g>
<!-- Node802 -->
<g id="node29" class="node">
<title>Node802</title>
<g id="a_node29"><a xlink:href="trunk_8c.html#ae8f376618040ed573738a25f97a48fed" target="_top" xlink:title="Request failed, inform the API client and free the request. ">
<polygon fill="none" stroke="#000000" points="333.5,-431 333.5,-461 436.5,-461 436.5,-431 333.5,-431"/>
<text text-anchor="start" x="341.5" y="-449" font-family="Helvetica,sans-Serif" font-size="10.00" fill="#000000">trunk_request_enter</text>
<text text-anchor="middle" x="385" y="-438" font-family="Helvetica,sans-Serif" font-size="10.00" fill="#000000">_failed</text>
</a>
</g>
</g>
<!-- Node733&#45;&gt;Node802 -->
<g id="edge39" class="edge">
<title>Node733&#45;&gt;Node802</title>
<path fill="none" stroke="#191970" d="M222.2997,-604.9522C236.8542,-576.3285 272.0761,-513.5519 318,-476 322.614,-472.2271 327.7781,-468.8316 333.1374,-465.8014"/>
<polygon fill="#191970" stroke="#191970" points="335.0232,-468.7656 342.2783,-461.0446 331.7918,-462.5561 335.0232,-468.7656"/>
</g>
<!-- Node803 -->
<g id="node30" class="node">
<title>Node803</title>
<g id="a_node30"><a xlink:href="trunk_8c.html#a0ccb4513f4a782e67c8d87c3949f7ff6" target="_top" xlink:title="If the trunk request is freed then update the target requests. ">
<polygon fill="none" stroke="#000000" points="488,-518.5 488,-537.5 597,-537.5 597,-518.5 488,-518.5"/>
<text text-anchor="middle" x="542.5" y="-525.5" font-family="Helvetica,sans-Serif" font-size="10.00" fill="#000000">fr_trunk_request_free</text>
</a>
</g>
</g>
<!-- Node733&#45;&gt;Node803 -->
<g id="edge56" class="edge">
<title>Node733&#45;&gt;Node803</title>
<path fill="none" stroke="#191970" d="M244.0776,-604.9623C264.3503,-594.9928 292.2708,-582.272 318,-574 370.6433,-557.0751 432.2989,-544.9689 477.6635,-537.4378"/>
<polygon fill="#191970" stroke="#191970" points="478.3591,-540.8707 487.6657,-535.8075 477.2329,-533.9619 478.3591,-540.8707"/>
</g>
<!-- Node753 -->
<g id="node31" class="node">
<title>Node753</title>
<g id="a_node31"><a xlink:href="trunk_8c.html#a3da6a65cff3b03e18942d9036c5c3a0a" target="_top" xlink:title="Update timestamps for when we last had a transition from above target to below target or vice versa...">
<polygon fill="none" stroke="#ff0000" points="639.5,-671 639.5,-701 739.5,-701 739.5,-671 639.5,-671"/>
<text text-anchor="start" x="647.5" y="-689" font-family="Helvetica,sans-Serif" font-size="10.00" fill="#000000">trunk_requests_per</text>
<text text-anchor="middle" x="689.5" y="-678" font-family="Helvetica,sans-Serif" font-size="10.00" fill="#000000">_connection</text>
</a>
</g>
</g>
<!-- Node733&#45;&gt;Node753 -->
<g id="edge57" class="edge">
<title>Node733&#45;&gt;Node753</title>
<path fill="none" stroke="#191970" d="M251.0578,-635.1506C270.5366,-642.6803 295.2046,-651.1792 318,-656 426.0767,-678.8562 555.2206,-684.5696 629.2691,-685.8398"/>
<polygon fill="#191970" stroke="#191970" points="629.2927,-689.3404 639.3441,-685.9908 629.3977,-682.3412 629.2927,-689.3404"/>
</g>
<!-- Node752 -->
<g id="node32" class="node">
<title>Node752</title>
<g id="a_node32"><a xlink:href="trunk_8c.html#adb084310620200de5d2f1cf1ef8f0ee7" target="_top" xlink:title="Transition a request to the pending state, adding it to the backlog of an active connection. ">
<polygon fill="none" stroke="#ff0000" points="491,-709 491,-739 594,-739 594,-709 491,-709"/>
<text text-anchor="start" x="499" y="-727" font-family="Helvetica,sans-Serif" font-size="10.00" fill="#000000">trunk_request_enter</text>
<text text-anchor="middle" x="542.5" y="-716" font-family="Helvetica,sans-Serif" font-size="10.00" fill="#000000">_pending</text>
</a>
</g>
</g>
<!-- Node733&#45;&gt;Node752 -->
<g id="edge45" class="edge">
<title>Node733&#45;&gt;Node752</title>
<path fill="none" stroke="#191970" d="M230.6189,-635.0733C249.6047,-652.4178 283.4146,-680.2694 318,-694 370.3255,-714.7735 434.3419,-721.6945 480.6063,-723.76"/>
<polygon fill="#191970" stroke="#191970" points="480.6595,-727.2645 490.7859,-724.1492 480.927,-720.2696 480.6595,-727.2645"/>
</g>
<!-- Node741 -->
<g id="node33" class="node">
<title>Node741</title>
<g id="a_node33"><a xlink:href="heap_8c.html#a09453d7e857bdc6018b0bf3a3502610f" target="_top" xlink:title="Insert a new element into the heap. ">
<polygon fill="none" stroke="#000000" points="650.5,-758.5 650.5,-777.5 728.5,-777.5 728.5,-758.5 650.5,-758.5"/>
<text text-anchor="middle" x="689.5" y="-765.5" font-family="Helvetica,sans-Serif" font-size="10.00" fill="#000000">fr_heap_insert</text>
</a>
</g>
</g>
<!-- Node733&#45;&gt;Node741 -->
<g id="edge55" class="edge">
<title>Node733&#45;&gt;Node741</title>
<path fill="none" stroke="#191970" d="M225.6536,-635.2702C242.4393,-658.0308 277.3493,-700.3806 318,-721 423.3492,-774.4366 566.3059,-775.6948 640.4104,-771.9242"/>
<polygon fill="#191970" stroke="#191970" points="640.6107,-775.4186 650.3989,-771.3637 640.2185,-768.4296 640.6107,-775.4186"/>
</g>
<!-- Node747 -->
<g id="node34" class="node">
<title>Node747</title>
<g id="a_node34"><a xlink:href="trunk_8c.html#a44f207c0dae5e3f74d531c1548305ba4" target="_top" xlink:title="Enqueue a request which has never been assigned to a connection or was previously cancelled...">
<polygon fill="none" stroke="#ff0000" points="326,-583 326,-613 444,-613 444,-583 326,-583"/>
<text text-anchor="start" x="334" y="-601" font-family="Helvetica,sans-Serif" font-size="10.00" fill="#000000">trunk_request_enqueue</text>
<text text-anchor="middle" x="385" y="-590" font-family="Helvetica,sans-Serif" font-size="10.00" fill="#000000">_existing</text>
</a>
</g>
</g>
<!-- Node733&#45;&gt;Node747 -->
<g id="edge51" class="edge">
<title>Node733&#45;&gt;Node747</title>
<path fill="none" stroke="#191970" d="M282.1885,-611.305C293.2023,-609.8797 304.6337,-608.4003 315.6976,-606.9685"/>
<polygon fill="#191970" stroke="#191970" points="316.2644,-610.4245 325.7324,-605.6699 315.3659,-603.4824 316.2644,-610.4245"/>
</g>
<!-- Node735&#45;&gt;Node734 -->
<g id="edge28" class="edge">
<title>Node735&#45;&gt;Node734</title>
<path fill="none" stroke="#191970" d="M398.1723,-319.0624C416.4538,-339.0953 451.4199,-374.3713 488,-395 634.6969,-477.7272 829.9732,-523.2476 930.3216,-542.6109"/>
<polygon fill="#191970" stroke="#191970" points="929.8407,-546.0821 940.3188,-544.5138 931.1497,-539.2056 929.8407,-546.0821"/>
</g>
<!-- Node736 -->
<g id="node20" class="node">
<title>Node736</title>
<g id="a_node20"><a xlink:href="trunk_8c.html#a0832cb5699c225cb2dcca015bbdbcf22" target="_top" xlink:title="Transition a request to the unassigned state, in preparation for re&#45;assignment. ">
<polygon fill="none" stroke="#000000" points="491,-355 491,-385 594,-385 594,-355 491,-355"/>
<text text-anchor="start" x="499" y="-373" font-family="Helvetica,sans-Serif" font-size="10.00" fill="#000000">trunk_request_enter</text>
<text text-anchor="middle" x="542.5" y="-362" font-family="Helvetica,sans-Serif" font-size="10.00" fill="#000000">_unassigned</text>
</a>
</g>
</g>
<!-- Node735&#45;&gt;Node736 -->
<g id="edge20" class="edge">
<title>Node735&#45;&gt;Node736</title>
<path fill="none" stroke="#191970" d="M421.1337,-319.1417C443.7434,-328.6163 473.0599,-340.9013 497.2155,-351.0237"/>
<polygon fill="#191970" stroke="#191970" points="495.9588,-354.2918 506.5345,-354.9287 498.6642,-347.8358 495.9588,-354.2918"/>
</g>
<!-- Node735&#45;&gt;Node758 -->
<g id="edge32" class="edge">
<title>Node735&#45;&gt;Node758</title>
<path fill="none" stroke="#191970" d="M397.3391,-288.6768C414.9263,-268.1986 449.3807,-232.8775 488,-219 533.5903,-202.6175 549.467,-209.6468 597,-219 741.0749,-247.3499 786.7872,-254.9654 902,-346 923.2034,-362.7537 920.4828,-374.4228 938,-395 948.8179,-407.7077 961.7635,-421.0337 972.6771,-431.799"/>
<polygon fill="#191970" stroke="#191970" points="970.2549,-434.3257 979.8568,-438.8038 975.1432,-429.3153 970.2549,-434.3257"/>
</g>
<!-- Node764 -->
<g id="node24" class="node">
<title>Node764</title>
<g id="a_node24"><a xlink:href="dlist_8h.html#ae4fb05ae0fb121f4255153332d3dc477" target="_top" xlink:title="Insert an item into the tail of a list. ">
<polygon fill="none" stroke="#000000" points="643,-316.5 643,-335.5 736,-335.5 736,-316.5 643,-316.5"/>
<text text-anchor="middle" x="689.5" y="-323.5" font-family="Helvetica,sans-Serif" font-size="10.00" fill="#000000">fr_dlist_insert_tail</text>
</a>
</g>
</g>
<!-- Node735&#45;&gt;Node764 -->
<g id="edge26" class="edge">
<title>Node735&#45;&gt;Node764</title>
<path fill="none" stroke="#191970" d="M452.2008,-308.8552C506.272,-312.7619 581.4156,-318.1909 632.5586,-321.886"/>
<polygon fill="#191970" stroke="#191970" points="632.5461,-325.3941 642.7724,-322.6239 633.0506,-318.4123 632.5461,-325.3941"/>
</g>
<!-- Node744 -->
<g id="node25" class="node">
<title>Node744</title>
<g id="a_node25"><a xlink:href="heap_8c.html#ab084b77223ee54a38005dfc8113b679a" target="_top" xlink:title="fr_heap_peek">
<polygon fill="none" stroke="#000000" points="505,-228.5 505,-247.5 580,-247.5 580,-228.5 505,-228.5"/>
<text text-anchor="middle" x="542.5" y="-235.5" font-family="Helvetica,sans-Serif" font-size="10.00" fill="#000000">fr_heap_peek</text>
</a>
</g>
</g>
<!-- Node735&#45;&gt;Node744 -->
<g id="edge27" class="edge">
<title>Node735&#45;&gt;Node744</title>
<path fill="none" stroke="#191970" d="M417.2291,-288.9259C437.4135,-279.6554 464.0496,-267.7295 488,-258 493.6829,-255.6914 499.7439,-253.3502 505.6821,-251.1222"/>
<polygon fill="#191970" stroke="#191970" points="507.304,-254.2543 515.4712,-247.5055 504.878,-247.6881 507.304,-254.2543"/>
</g>
<!-- Node808 -->
<g id="node26" class="node">
<title>Node808</title>
<g id="a_node26"><a xlink:href="trunk_8c.html#ac56a1d3856d033bf437fc866c1a1cf77" target="_top" xlink:title="Transition a request to the cancel state, placing it in a connection&#39;s cancellation list...">
<polygon fill="none" stroke="#000000" points="491,-267 491,-297 594,-297 594,-267 491,-267"/>
<text text-anchor="start" x="499" y="-285" font-family="Helvetica,sans-Serif" font-size="10.00" fill="#000000">trunk_request_enter</text>
<text text-anchor="middle" x="542.5" y="-274" font-family="Helvetica,sans-Serif" font-size="10.00" fill="#000000">_cancel</text>
</a>
</g>
</g>
<!-- Node735&#45;&gt;Node808 -->
<g id="edge29" class="edge">
<title>Node735&#45;&gt;Node808</title>
<path fill="none" stroke="#191970" d="M452.251,-294.6062C461.7067,-293.2854 471.3885,-291.933 480.7351,-290.6275"/>
<polygon fill="#191970" stroke="#191970" points="481.2994,-294.0827 490.719,-289.2329 480.3309,-287.15 481.2994,-294.0827"/>
</g>
<!-- Node619 -->
<g id="node27" class="node">
<title>Node619</title>
<g id="a_node27"><a xlink:href="dlist_8h.html#a90c9ea299e869c463ab8109410112a97" target="_top" xlink:title="Return the HEAD item of a list or NULL if the list is empty. ">
<polygon fill="none" stroke="#000000" points="506.5,-152.5 506.5,-171.5 578.5,-171.5 578.5,-152.5 506.5,-152.5"/>
<text text-anchor="middle" x="542.5" y="-159.5" font-family="Helvetica,sans-Serif" font-size="10.00" fill="#000000">fr_dlist_head</text>
</a>
</g>
</g>
<!-- Node735&#45;&gt;Node619 -->
<g id="edge33" class="edge">
<title>Node735&#45;&gt;Node619</title>
<path fill="none" stroke="#191970" d="M396.8023,-288.9025C419.0518,-260.7189 466.8584,-201.5442 488,-186 493.2476,-182.1417 499.213,-178.729 505.2252,-175.7761"/>
<polygon fill="#191970" stroke="#191970" points="506.954,-178.8352 514.6148,-171.5165 504.0621,-172.4604 506.954,-178.8352"/>
</g>
<!-- Node737 -->
<g id="node21" class="node">
<title>Node737</title>
<g id="a_node21"><a xlink:href="trunk_8c.html#a57c049e07e8913dafb84d76e548fa404" target="_top" xlink:title="Remove a request from all connection lists. ">
<polygon fill="none" stroke="#ff0000" points="633,-355 633,-385 746,-385 746,-355 633,-355"/>
<text text-anchor="start" x="641" y="-373" font-family="Helvetica,sans-Serif" font-size="10.00" fill="#000000">trunk_request_remove</text>
<text text-anchor="middle" x="689.5" y="-362" font-family="Helvetica,sans-Serif" font-size="10.00" fill="#000000">_from_conn</text>
</a>
</g>
</g>
<!-- Node736&#45;&gt;Node737 -->
<g id="edge21" class="edge">
<title>Node736&#45;&gt;Node737</title>
<path fill="none" stroke="#191970" d="M594.3267,-370C603.493,-370 613.1531,-370 622.6633,-370"/>
<polygon fill="#191970" stroke="#191970" points="622.8935,-373.5001 632.8935,-370 622.8934,-366.5001 622.8935,-373.5001"/>
</g>
<!-- Node737&#45;&gt;Node757 -->
<g id="edge22" class="edge">
<title>Node737&#45;&gt;Node757</title>
<path fill="none" stroke="#191970" d="M746.2854,-370C754.5334,-370 763.1071,-370 771.584,-370"/>
<polygon fill="#191970" stroke="#191970" points="771.8477,-373.5001 781.8477,-370 771.8477,-366.5001 771.8477,-373.5001"/>
</g>
<!-- Node757&#45;&gt;Node729 -->
<g id="edge23" class="edge">
<title>Node757&#45;&gt;Node729</title>
<path fill="none" stroke="#191970" d="M902.4229,-370C910.6901,-370 919.225,-370 927.6214,-370"/>
<polygon fill="#191970" stroke="#191970" points="927.7672,-373.5001 937.7672,-370 927.7672,-366.5001 927.7672,-373.5001"/>
</g>
<!-- Node757&#45;&gt;Node734 -->
<g id="edge24" class="edge">
<title>Node757&#45;&gt;Node734</title>
<path fill="none" stroke="#191970" d="M881.7208,-385.0332C889.088,-389.0908 896.2595,-394.0486 902,-400 928.7872,-427.7712 918.0654,-445.9636 938,-479 949.1608,-497.4962 964.122,-516.7396 976.0535,-531.1028"/>
<polygon fill="#191970" stroke="#191970" points="973.5533,-533.567 982.6769,-538.9531 978.9035,-529.0531 973.5533,-533.567"/>
</g>
<!-- Node757&#45;&gt;Node758 -->
<g id="edge25" class="edge">
<title>Node757&#45;&gt;Node758</title>
<path fill="none" stroke="#191970" d="M873.0076,-385.0772C882.3809,-389.7492 892.6617,-394.9885 902,-400 922.053,-410.7616 944.1348,-423.4049 961.8546,-433.7512"/>
<polygon fill="#191970" stroke="#191970" points="960.2924,-436.8925 970.6894,-438.9302 963.8324,-430.8536 960.2924,-436.8925"/>
</g>
<!-- Node808&#45;&gt;Node757 -->
<g id="edge31" class="edge">
<title>Node808&#45;&gt;Node757</title>
<path fill="none" stroke="#191970" d="M594.1878,-281.9094C636.2524,-283.34 696.5397,-288.8616 746,-307 772.131,-316.5829 798.3135,-334.4518 816.719,-348.7184"/>
<polygon fill="#191970" stroke="#191970" points="814.5925,-351.499 824.6002,-354.9771 818.9457,-346.0173 814.5925,-351.499"/>
</g>
<!-- Node808&#45;&gt;Node764 -->
<g id="edge30" class="edge">
<title>Node808&#45;&gt;Node764</title>
<path fill="none" stroke="#191970" d="M592.6779,-297.0192C610.6161,-302.3885 630.6218,-308.3766 647.7704,-313.5095"/>
<polygon fill="#191970" stroke="#191970" points="646.9161,-316.9072 657.4998,-316.4217 648.9234,-310.2011 646.9161,-316.9072"/>
</g>
<!-- Node618&#45;&gt;Node619 -->
<g id="edge37" class="edge">
<title>Node618&#45;&gt;Node619</title>
<path fill="none" stroke="#191970" d="M420.3461,-191.4721C442.9049,-186.0293 472.3742,-178.9192 496.7158,-173.0463"/>
<polygon fill="#191970" stroke="#191970" points="497.5534,-176.4448 506.4535,-170.6969 495.9115,-169.64 497.5534,-176.4448"/>
</g>
<!-- Node802&#45;&gt;Node737 -->
<g id="edge40" class="edge">
<title>Node802&#45;&gt;Node737</title>
<path fill="none" stroke="#191970" d="M436.5059,-434.0333C479.498,-423.9431 542.349,-408.956 597,-395 606.0915,-392.6783 615.6674,-390.1661 625.0728,-387.6599"/>
<polygon fill="#191970" stroke="#191970" points="626.031,-391.0267 634.785,-385.0586 624.2199,-384.265 626.031,-391.0267"/>
</g>
<!-- Node802&#45;&gt;Node803 -->
<g id="edge41" class="edge">
<title>Node802&#45;&gt;Node803</title>
<path fill="none" stroke="#191970" d="M413.8879,-461.0401C442.7708,-476.0775 486.8557,-499.0296 515.1746,-513.7735"/>
<polygon fill="#191970" stroke="#191970" points="513.6432,-516.922 524.1293,-518.4356 516.8758,-510.7131 513.6432,-516.922"/>
</g>
<!-- Node803&#45;&gt;Node731 -->
<g id="edge43" class="edge">
<title>Node803&#45;&gt;Node731</title>
<path fill="none" stroke="#191970" d="M575.6554,-537.5782C657.4521,-559.8516 875.213,-610.8868 1054,-579 1076.8815,-574.9191 1101.4719,-565.7156 1119.9006,-557.7704"/>
<polygon fill="#191970" stroke="#191970" points="1121.4739,-560.9015 1129.1941,-553.6456 1118.6341,-554.5033 1121.4739,-560.9015"/>
</g>
<!-- Node803&#45;&gt;Node764 -->
<g id="edge44" class="edge">
<title>Node803&#45;&gt;Node764</title>
<path fill="none" stroke="#191970" d="M546.1654,-518.3824C559.2404,-484.5049 604.3363,-371.3836 633,-346 635.4538,-343.827 638.1592,-341.8859 641.0172,-340.1526"/>
<polygon fill="#191970" stroke="#191970" points="642.662,-343.2424 649.9493,-335.5518 639.4566,-337.0194 642.662,-343.2424"/>
</g>
<!-- Node803&#45;&gt;Node753 -->
<g id="edge42" class="edge">
<title>Node803&#45;&gt;Node753</title>
<path fill="none" stroke="#191970" d="M551.6955,-537.8836C574.8361,-562.7558 635.9484,-628.4412 668.4603,-663.386"/>
<polygon fill="#191970" stroke="#191970" points="665.9433,-665.8189 675.3174,-670.7561 671.0683,-661.0507 665.9433,-665.8189"/>
</g>
<!-- Node752&#45;&gt;Node757 -->
<g id="edge50" class="edge">
<title>Node752&#45;&gt;Node757</title>
<path fill="none" stroke="#191970" d="M594.3671,-735.922C639.4224,-743.0528 703.8858,-745.0621 746,-711 796.1468,-670.4412 828.5616,-467.4588 838.6403,-395.4139"/>
<polygon fill="#191970" stroke="#191970" points="842.1233,-395.7766 840.0152,-385.3936 835.1882,-394.8249 842.1233,-395.7766"/>
</g>
<!-- Node752&#45;&gt;Node753 -->
<g id="edge49" class="edge">
<title>Node752&#45;&gt;Node753</title>
<path fill="none" stroke="#191970" d="M594.3267,-710.6026C605.5789,-707.6939 617.5753,-704.5928 629.1248,-701.6072"/>
<polygon fill="#191970" stroke="#191970" points="630.3237,-704.9124 639.1294,-699.021 628.5717,-698.1352 630.3237,-704.9124"/>
</g>
<!-- Node752&#45;&gt;Node741 -->
<g id="edge46" class="edge">
<title>Node752&#45;&gt;Node741</title>
<path fill="none" stroke="#191970" d="M592.6779,-739.0192C610.6161,-744.3885 630.6218,-750.3766 647.7704,-755.5095"/>
<polygon fill="#191970" stroke="#191970" points="646.9161,-758.9072 657.4998,-758.4217 648.9234,-752.2011 646.9161,-758.9072"/>
</g>
<!-- Node741&#45;&gt;Node591 -->
<g id="edge47" class="edge">
<title>Node741&#45;&gt;Node591</title>
<path fill="none" stroke="#191970" d="M727.9822,-777.589C748.0156,-782.5809 772.7023,-788.7324 793.976,-794.0334"/>
<polygon fill="#191970" stroke="#191970" points="793.245,-797.4582 803.7945,-796.4799 794.9375,-790.6659 793.245,-797.4582"/>
</g>
<!-- Node741&#45;&gt;Node725 -->
<g id="edge48" class="edge">
<title>Node741&#45;&gt;Node725</title>
<path fill="none" stroke="#191970" d="M728.7725,-768C747.4853,-768 770.1184,-768 790.2153,-768"/>
<polygon fill="#191970" stroke="#191970" points="790.4594,-771.5001 800.4594,-768 790.4593,-764.5001 790.4594,-771.5001"/>
</g>
<!-- Node747&#45;&gt;Node734 -->
<g id="edge52" class="edge">
<title>Node747&#45;&gt;Node734</title>
<path fill="none" stroke="#191970" d="M444.1404,-593.7411C558.7967,-585.4844 810.5386,-567.3556 930.2522,-558.7347"/>
<polygon fill="#191970" stroke="#191970" points="930.6537,-562.2149 940.3765,-558.0056 930.1509,-555.233 930.6537,-562.2149"/>
</g>
<!-- Node747&#45;&gt;Node758 -->
<g id="edge54" class="edge">
<title>Node747&#45;&gt;Node758</title>
<path fill="none" stroke="#191970" d="M444.3394,-587.4573C577.8551,-563.7031 891.1606,-507.7656 902,-504 923.5601,-496.5101 946.1904,-484.6133 963.8427,-474.3032"/>
<polygon fill="#191970" stroke="#191970" points="965.7919,-477.216 972.588,-469.0881 962.2066,-471.2039 965.7919,-477.216"/>
</g>
<!-- Node747&#45;&gt;Node752 -->
<g id="edge53" class="edge">
<title>Node747&#45;&gt;Node752</title>
<path fill="none" stroke="#191970" d="M403.9982,-613.1985C431.7871,-635.4297 483.6572,-676.9258 515.4297,-702.3438"/>
<polygon fill="#191970" stroke="#191970" points="513.4393,-705.2336 523.4344,-708.7476 517.8122,-699.7675 513.4393,-705.2336"/>
</g>
</g>
</svg>
