<?xml version="1.0" encoding="UTF-8" standalone="no"?>
<!DOCTYPE svg PUBLIC "-//W3C//DTD SVG 1.1//EN"
 "http://www.w3.org/Graphics/SVG/1.1/DTD/svg11.dtd">
<!-- Generated by graphviz version 2.40.1 (20161225.0304)
 -->
<!-- Title: trunk_request_check_enqueue Pages: 1 -->
<svg width="1202pt" height="466pt"
 viewBox="0.00 0.00 1202.00 465.87" xmlns="http://www.w3.org/2000/svg" xmlns:xlink="http://www.w3.org/1999/xlink">
<g id="graph0" class="graph" transform="scale(1 1) rotate(0) translate(4 461.873)">
<title>trunk_request_check_enqueue</title>
<!-- Node11478 -->
<g id="node1" class="node">
<title>Node11478</title>
<polygon fill="#bfbfbf" stroke="#000000" points="0,-194.1844 0,-224.1844 107,-224.1844 107,-194.1844 0,-194.1844"/>
<text text-anchor="start" x="8" y="-212.1844" font-family="Helvetica,sans-Serif" font-size="10.00" fill="#000000">trunk_request_check</text>
<text text-anchor="middle" x="53.5" y="-201.1844" font-family="Helvetica,sans-Serif" font-size="10.00" fill="#000000">_enqueue</text>
</g>
<!-- Node11479 -->
<g id="node2" class="node">
<title>Node11479</title>
<g id="a_node2"><a xlink:href="trunk_8c.html#a44f207c0dae5e3f74d531c1548305ba4" target="_top" xlink:title="Enqueue a request which has never been assigned to a connection or was previously cancelled...">
<polygon fill="none" stroke="#000000" points="148.5,-216.1844 148.5,-246.1844 266.5,-246.1844 266.5,-216.1844 148.5,-216.1844"/>
<text text-anchor="start" x="156.5" y="-234.1844" font-family="Helvetica,sans-Serif" font-size="10.00" fill="#000000">trunk_request_enqueue</text>
<text text-anchor="middle" x="207.5" y="-223.1844" font-family="Helvetica,sans-Serif" font-size="10.00" fill="#000000">_existing</text>
</a>
</g>
</g>
<!-- Node11478&#45;&gt;Node11479 -->
<g id="edge1" class="edge">
<title>Node11478&#45;&gt;Node11479</title>
<path fill="none" stroke="#191970" d="M117.4763,-218.3239C127.7246,-219.7879 138.2898,-221.2972 148.4172,-222.744"/>
<polygon fill="#191970" stroke="#191970" points="117.7562,-214.8284 107.3617,-216.8789 116.7662,-221.758 117.7562,-214.8284"/>
</g>
<!-- Node11498 -->
<g id="node22" class="node">
<title>Node11498</title>
<g id="a_node22"><a xlink:href="trunk_8h.html#ac02777d6e72e7f5ee93cf25b18b8d9e6" target="_top" xlink:title="Enqueue a request that needs data written to the trunk. ">
<polygon fill="none" stroke="#ff0000" points="143,-177.6844 143,-196.6844 272,-196.6844 272,-177.6844 143,-177.6844"/>
<text text-anchor="middle" x="207.5" y="-184.6844" font-family="Helvetica,sans-Serif" font-size="10.00" fill="#000000">fr_trunk_request_enqueue</text>
</a>
</g>
</g>
<!-- Node11478&#45;&gt;Node11498 -->
<g id="edge34" class="edge">
<title>Node11478&#45;&gt;Node11498</title>
<path fill="none" stroke="#191970" d="M117.4512,-200.0485C125.8319,-198.8513 134.425,-197.6237 142.8177,-196.4247"/>
<polygon fill="#191970" stroke="#191970" points="116.7662,-196.6107 107.3617,-201.4898 117.7562,-203.5404 116.7662,-196.6107"/>
</g>
<!-- Node11480 -->
<g id="node3" class="node">
<title>Node11480</title>
<g id="a_node3"><a xlink:href="trunk_8c.html#ac2fe6b5bbb2452eda599a3fc16472d4d" target="_top" xlink:title="Remove requests in specified states from a connection, attempting to distribute them to new connectio...">
<polygon fill="none" stroke="#000000" points="308,-182.1844 308,-212.1844 442,-212.1844 442,-182.1844 308,-182.1844"/>
<text text-anchor="start" x="316" y="-200.1844" font-family="Helvetica,sans-Serif" font-size="10.00" fill="#000000">trunk_connection_requests</text>
<text text-anchor="middle" x="375" y="-189.1844" font-family="Helvetica,sans-Serif" font-size="10.00" fill="#000000">_requeue</text>
</a>
</g>
</g>
<!-- Node11479&#45;&gt;Node11480 -->
<g id="edge2" class="edge">
<title>Node11479&#45;&gt;Node11480</title>
<path fill="none" stroke="#191970" d="M276.4123,-217.1962C286.8181,-215.084 297.5395,-212.9077 307.9061,-210.8034"/>
<polygon fill="#191970" stroke="#191970" points="275.6581,-213.7778 266.5542,-219.1973 277.0507,-220.6379 275.6581,-213.7778"/>
</g>
<!-- Node11533 -->
<g id="node21" class="node">
<title>Node11533</title>
<g id="a_node21"><a xlink:href="trunk_8c.html#a53fb27629f37ae75ba241d33cb7f33ca" target="_top" xlink:title="Drain the backlog of as many requests as possible. ">
<polygon fill="none" stroke="#000000" points="485,-280.6844 485,-299.6844 589,-299.6844 589,-280.6844 485,-280.6844"/>
<text text-anchor="middle" x="537" y="-287.6844" font-family="Helvetica,sans-Serif" font-size="10.00" fill="#000000">trunk_backlog_drain</text>
</a>
</g>
</g>
<!-- Node11479&#45;&gt;Node11533 -->
<g id="edge31" class="edge">
<title>Node11479&#45;&gt;Node11533</title>
<path fill="none" stroke="#191970" d="M276.9006,-243.6112C339.048,-254.7393 428.798,-270.8098 484.9677,-280.8675"/>
<polygon fill="#191970" stroke="#191970" points="277.2489,-240.118 266.7885,-241.8005 276.0151,-247.0084 277.2489,-240.118"/>
</g>
<!-- Node11481 -->
<g id="node4" class="node">
<title>Node11481</title>
<g id="a_node4"><a xlink:href="trunk_8h.html#a67069d7159583ef74d1cd099f2d07f30" target="_top" xlink:title="Move requests off of a connection and requeue elsewhere. ">
<polygon fill="none" stroke="#000000" points="486,-182.1844 486,-212.1844 588,-212.1844 588,-182.1844 486,-182.1844"/>
<text text-anchor="start" x="494" y="-200.1844" font-family="Helvetica,sans-Serif" font-size="10.00" fill="#000000">fr_trunk_connection</text>
<text text-anchor="middle" x="537" y="-189.1844" font-family="Helvetica,sans-Serif" font-size="10.00" fill="#000000">_requests_requeue</text>
</a>
</g>
</g>
<!-- Node11480&#45;&gt;Node11481 -->
<g id="edge3" class="edge">
<title>Node11480&#45;&gt;Node11481</title>
<path fill="none" stroke="#191970" d="M452.6395,-197.1844C463.9579,-197.1844 475.3639,-197.1844 485.9715,-197.1844"/>
<polygon fill="#191970" stroke="#191970" points="452.2952,-193.6845 442.2952,-197.1844 452.2952,-200.6845 452.2952,-193.6845"/>
</g>
<!-- Node11487 -->
<g id="node6" class="node">
<title>Node11487</title>
<g id="a_node6"><a xlink:href="trunk_8c.html#af52d32b27b789380f99dc5fc1ec73211" target="_top" xlink:title="Transition a connection to the inactive&#45;draining state. ">
<polygon fill="none" stroke="#000000" points="478,-127.1844 478,-157.1844 596,-157.1844 596,-127.1844 478,-127.1844"/>
<text text-anchor="start" x="486" y="-145.1844" font-family="Helvetica,sans-Serif" font-size="10.00" fill="#000000">trunk_connection_enter</text>
<text text-anchor="middle" x="537" y="-134.1844" font-family="Helvetica,sans-Serif" font-size="10.00" fill="#000000">_inactive_draining</text>
</a>
</g>
</g>
<!-- Node11480&#45;&gt;Node11487 -->
<g id="edge5" class="edge">
<title>Node11480&#45;&gt;Node11487</title>
<path fill="none" stroke="#191970" d="M428.8951,-178.8867C449.6372,-171.8446 473.0597,-163.8925 492.7863,-157.1952"/>
<polygon fill="#191970" stroke="#191970" points="427.6112,-175.6263 419.2672,-182.1554 429.8616,-182.2547 427.6112,-175.6263"/>
</g>
<!-- Node11540 -->
<g id="node11" class="node">
<title>Node11540</title>
<g id="a_node11"><a xlink:href="trunk_8c.html#a7ec4ee0e51060a8296d598b4ee3449d6" target="_top" xlink:title="Transition a connection to the draining state. ">
<polygon fill="none" stroke="#000000" points="639.5,-4.1844 639.5,-34.1844 757.5,-34.1844 757.5,-4.1844 639.5,-4.1844"/>
<text text-anchor="start" x="647.5" y="-22.1844" font-family="Helvetica,sans-Serif" font-size="10.00" fill="#000000">trunk_connection_enter</text>
<text text-anchor="middle" x="698.5" y="-11.1844" font-family="Helvetica,sans-Serif" font-size="10.00" fill="#000000">_draining</text>
</a>
</g>
</g>
<!-- Node11480&#45;&gt;Node11540 -->
<g id="edge12" class="edge">
<title>Node11480&#45;&gt;Node11540</title>
<path fill="none" stroke="#191970" d="M387.3829,-173.2391C403.9295,-143.7402 436.0948,-94.3306 478,-68.1844 526.9072,-37.6693 592.3524,-26.0423 639.2167,-21.6732"/>
<polygon fill="#191970" stroke="#191970" points="384.2859,-171.6079 382.5669,-182.0624 390.4302,-174.9617 384.2859,-171.6079"/>
</g>
<!-- Node11541 -->
<g id="node12" class="node">
<title>Node11541</title>
<g id="a_node12"><a xlink:href="trunk_8c.html#aeb5ec74157948b2fb10874aa5b3fe3d6" target="_top" xlink:title="Transition a connection to the draining&#45;to&#45;reconnect state. ">
<polygon fill="none" stroke="#000000" points="478,-231.1844 478,-261.1844 596,-261.1844 596,-231.1844 478,-231.1844"/>
<text text-anchor="start" x="486" y="-249.1844" font-family="Helvetica,sans-Serif" font-size="10.00" fill="#000000">trunk_connection_enter</text>
<text text-anchor="middle" x="537" y="-238.1844" font-family="Helvetica,sans-Serif" font-size="10.00" fill="#000000">_draining_to_free</text>
</a>
</g>
</g>
<!-- Node11480&#45;&gt;Node11541 -->
<g id="edge15" class="edge">
<title>Node11480&#45;&gt;Node11541</title>
<path fill="none" stroke="#191970" d="M434.8835,-215.2973C452.1061,-220.5066 470.6979,-226.13 487.2376,-231.1328"/>
<polygon fill="#191970" stroke="#191970" points="435.5123,-211.8309 424.9272,-212.2858 433.4856,-218.5311 435.5123,-211.8309"/>
</g>
<!-- Node11547 -->
<g id="node18" class="node">
<title>Node11547</title>
<g id="a_node18"><a xlink:href="trunk_8c.html#a35dbfa78abd25abe57c4e65bf7c82a1e" target="_top" xlink:title="Connection failed after it was connected. ">
<polygon fill="none" stroke="#000000" points="481,-382.1844 481,-412.1844 593,-412.1844 593,-382.1844 481,-382.1844"/>
<text text-anchor="start" x="489" y="-400.1844" font-family="Helvetica,sans-Serif" font-size="10.00" fill="#000000">_trunk_connection_on</text>
<text text-anchor="middle" x="537" y="-389.1844" font-family="Helvetica,sans-Serif" font-size="10.00" fill="#000000">_closed</text>
</a>
</g>
</g>
<!-- Node11480&#45;&gt;Node11547 -->
<g id="edge23" class="edge">
<title>Node11480&#45;&gt;Node11547</title>
<path fill="none" stroke="#191970" d="M393.5455,-220.0801C426.9689,-261.3436 496.4569,-347.1312 524.6824,-381.9774"/>
<polygon fill="#191970" stroke="#191970" points="396.1903,-217.7846 387.1763,-212.2169 390.7509,-222.1905 396.1903,-217.7846"/>
</g>
<!-- Node11548 -->
<g id="node20" class="node">
<title>Node11548</title>
<g id="a_node20"><a xlink:href="trunk_8c.html#a62e72fe5eeeb6fd6ee7184b0db607fd9" target="_top" xlink:title="Rebalance connections across active trunk members when a new connection becomes active. ">
<polygon fill="none" stroke="#000000" points="494,-77.6844 494,-96.6844 580,-96.6844 580,-77.6844 494,-77.6844"/>
<text text-anchor="middle" x="537" y="-84.6844" font-family="Helvetica,sans-Serif" font-size="10.00" fill="#000000">trunk_rebalance</text>
</a>
</g>
</g>
<!-- Node11480&#45;&gt;Node11548 -->
<g id="edge29" class="edge">
<title>Node11480&#45;&gt;Node11548</title>
<path fill="none" stroke="#191970" d="M400.7662,-175.4446C421.0761,-158.8037 450.4682,-135.7938 478,-118.1844 490.4769,-110.2041 505.2269,-102.4541 516.8577,-96.6992"/>
<polygon fill="#191970" stroke="#191970" points="398.3973,-172.8617 392.9174,-181.9293 402.8559,-178.2582 398.3973,-172.8617"/>
</g>
<!-- Node11482 -->
<g id="node5" class="node">
<title>Node11482</title>
<g id="a_node5"><a xlink:href="rlm__radius__udp_8c.html#ac47feadd21e5ad8c65d2842d9f3b9976" target="_top" xlink:title="See if the connection is zombied. ">
<polygon fill="none" stroke="#ff0000" points="812,-168.6844 812,-187.6844 908,-187.6844 908,-168.6844 812,-168.6844"/>
<text text-anchor="middle" x="860" y="-175.6844" font-family="Helvetica,sans-Serif" font-size="10.00" fill="#000000">check_for_zombie</text>
</a>
</g>
</g>
<!-- Node11481&#45;&gt;Node11482 -->
<g id="edge4" class="edge">
<title>Node11481&#45;&gt;Node11482</title>
<path fill="none" stroke="#191970" d="M598.2318,-193.5825C660.3105,-189.9308 755.0947,-184.3553 811.9577,-181.0104"/>
<polygon fill="#191970" stroke="#191970" points="597.9575,-190.0925 588.1803,-194.1738 598.3686,-197.0804 597.9575,-190.0925"/>
</g>
<!-- Node11488 -->
<g id="node7" class="node">
<title>Node11488</title>
<g id="a_node7"><a xlink:href="trunk_8c.html#a77827ab1583f3a13fe628963f6282fb5" target="_top" xlink:title="Transition a connection back to the active state. ">
<polygon fill="none" stroke="#ff0000" points="639.5,-53.1844 639.5,-83.1844 757.5,-83.1844 757.5,-53.1844 639.5,-53.1844"/>
<text text-anchor="start" x="647.5" y="-71.1844" font-family="Helvetica,sans-Serif" font-size="10.00" fill="#000000">trunk_connection_enter</text>
<text text-anchor="middle" x="698.5" y="-60.1844" font-family="Helvetica,sans-Serif" font-size="10.00" fill="#000000">_active</text>
</a>
</g>
</g>
<!-- Node11487&#45;&gt;Node11488 -->
<g id="edge6" class="edge">
<title>Node11487&#45;&gt;Node11488</title>
<path fill="none" stroke="#191970" d="M578.8937,-122.6719C595.4226,-115.0019 614.5884,-106.1437 632,-98.1844 642.7127,-93.2873 654.4182,-87.989 664.9814,-83.2274"/>
<polygon fill="#191970" stroke="#191970" points="577.0949,-119.6482 569.4995,-127.0348 580.0434,-125.9969 577.0949,-119.6482"/>
</g>
<!-- Node11495 -->
<g id="node9" class="node">
<title>Node11495</title>
<g id="a_node9"><a xlink:href="trunk_8c.html#a8fb6d1576f81b578b3090bfa8bb3c366" target="_top" xlink:title="Implements the algorithm we use to manage requests per connection levels. ">
<polygon fill="none" stroke="#ff0000" points="1116,-83.6844 1116,-102.6844 1194,-102.6844 1194,-83.6844 1116,-83.6844"/>
<text text-anchor="middle" x="1155" y="-90.6844" font-family="Helvetica,sans-Serif" font-size="10.00" fill="#000000">trunk_manage</text>
</a>
</g>
</g>
<!-- Node11487&#45;&gt;Node11495 -->
<g id="edge11" class="edge">
<title>Node11487&#45;&gt;Node11495</title>
<path fill="none" stroke="#191970" d="M606.1545,-134.6567C614.8518,-133.7831 623.6302,-132.9368 632,-132.1844 726.0857,-123.7265 1011.2535,-103.3572 1115.9283,-95.9427"/>
<polygon fill="#191970" stroke="#191970" points="605.6046,-131.1946 596.0111,-135.6908 606.3146,-138.1585 605.6046,-131.1946"/>
</g>
<!-- Node11539 -->
<g id="node10" class="node">
<title>Node11539</title>
<g id="a_node10"><a xlink:href="trunk_8h.html#a9c2e24f88f4b711bc17d9723f53892a1" target="_top" xlink:title="Signal a trunk connection cannot accept more requests. ">
<polygon fill="none" stroke="#ff0000" points="647.5,-141.1844 647.5,-171.1844 749.5,-171.1844 749.5,-141.1844 647.5,-141.1844"/>
<text text-anchor="start" x="655.5" y="-159.1844" font-family="Helvetica,sans-Serif" font-size="10.00" fill="#000000">fr_trunk_connection</text>
<text text-anchor="middle" x="698.5" y="-148.1844" font-family="Helvetica,sans-Serif" font-size="10.00" fill="#000000">_signal_inactive</text>
</a>
</g>
</g>
<!-- Node11487&#45;&gt;Node11539 -->
<g id="edge9" class="edge">
<title>Node11487&#45;&gt;Node11539</title>
<path fill="none" stroke="#191970" d="M606.5615,-148.2145C620.2315,-149.3995 634.3378,-150.6223 647.2721,-151.7436"/>
<polygon fill="#191970" stroke="#191970" points="606.4845,-144.6948 596.2196,-147.318 605.8799,-151.6686 606.4845,-144.6948"/>
</g>
<!-- Node11536 -->
<g id="node8" class="node">
<title>Node11536</title>
<g id="a_node8"><a xlink:href="trunk_8h.html#a1fa126ae1972a2089056405f2f7b8b93" target="_top" xlink:title="Signal a trunk connection is no longer full. ">
<polygon fill="none" stroke="#ff0000" points="809,-15.1844 809,-45.1844 911,-45.1844 911,-15.1844 809,-15.1844"/>
<text text-anchor="start" x="817" y="-33.1844" font-family="Helvetica,sans-Serif" font-size="10.00" fill="#000000">fr_trunk_connection</text>
<text text-anchor="middle" x="860" y="-22.1844" font-family="Helvetica,sans-Serif" font-size="10.00" fill="#000000">_signal_active</text>
</a>
</g>
</g>
<!-- Node11488&#45;&gt;Node11536 -->
<g id="edge7" class="edge">
<title>Node11488&#45;&gt;Node11536</title>
<path fill="none" stroke="#191970" d="M767.6596,-51.9115C781.4548,-48.6656 795.711,-45.3112 808.7721,-42.238"/>
<polygon fill="#191970" stroke="#191970" points="766.6521,-48.5529 757.7196,-54.2504 768.2554,-55.3668 766.6521,-48.5529"/>
</g>
<!-- Node11488&#45;&gt;Node11495 -->
<g id="edge8" class="edge">
<title>Node11488&#45;&gt;Node11495</title>
<path fill="none" stroke="#191970" d="M767.7357,-71.976C864.933,-77.299 1038.5938,-86.8094 1115.9565,-91.0462"/>
<polygon fill="#191970" stroke="#191970" points="767.8879,-68.4792 757.7114,-71.4271 767.505,-75.4687 767.8879,-68.4792"/>
</g>
<!-- Node11539&#45;&gt;Node11482 -->
<g id="edge10" class="edge">
<title>Node11539&#45;&gt;Node11482</title>
<path fill="none" stroke="#191970" d="M759.6246,-164.5109C776.9473,-166.8707 795.5526,-169.4052 811.9819,-171.6432"/>
<polygon fill="#191970" stroke="#191970" points="759.9805,-161.0272 749.5996,-163.1453 759.0357,-167.9631 759.9805,-161.0272"/>
</g>
<!-- Node11540&#45;&gt;Node11536 -->
<g id="edge13" class="edge">
<title>Node11540&#45;&gt;Node11536</title>
<path fill="none" stroke="#191970" d="M768.0615,-23.9223C781.7315,-24.8534 795.8378,-25.8142 808.7721,-26.6952"/>
<polygon fill="#191970" stroke="#191970" points="767.9343,-20.4056 757.7196,-23.2179 767.4586,-27.3895 767.9343,-20.4056"/>
</g>
<!-- Node11540&#45;&gt;Node11495 -->
<g id="edge14" class="edge">
<title>Node11540&#45;&gt;Node11495</title>
<path fill="none" stroke="#191970" d="M767.7848,-8.4231C778.868,-7.0765 790.2304,-5.9165 801,-5.1844 853.3237,-1.6276 867.3884,4.125 919,-5.1844 1003.5608,-20.437 1097.3532,-64.122 1136.384,-83.6047"/>
<polygon fill="#191970" stroke="#191970" points="767.1879,-4.9707 757.7098,-9.7053 768.0717,-11.9147 767.1879,-4.9707"/>
</g>
<!-- Node11542 -->
<g id="node13" class="node">
<title>Node11542</title>
<g id="a_node13"><a xlink:href="trunk_8c.html#a25de4b8d6e90f9001b5bc02a0cef5980" target="_top" xlink:title="Transition a request to the sent state, indicating that it&#39;s been sent in its entirety. ">
<polygon fill="none" stroke="#ff0000" points="635,-327.6844 635,-346.6844 762,-346.6844 762,-327.6844 635,-327.6844"/>
<text text-anchor="middle" x="698.5" y="-334.6844" font-family="Helvetica,sans-Serif" font-size="10.00" fill="#000000">trunk_request_enter_sent</text>
</a>
</g>
</g>
<!-- Node11541&#45;&gt;Node11542 -->
<g id="edge16" class="edge">
<title>Node11541&#45;&gt;Node11542</title>
<path fill="none" stroke="#191970" d="M588.8239,-266.2141C591.3232,-267.7722 593.7324,-269.4282 596,-271.1844 616.8031,-287.2957 610.2497,-303.3766 632,-318.1844 637.6574,-322.036 644.0923,-325.1144 650.678,-327.5729"/>
<polygon fill="#191970" stroke="#191970" points="590.4869,-263.1339 580.0538,-261.2897 587.0597,-269.2375 590.4869,-263.1339"/>
</g>
<!-- Node11545 -->
<g id="node14" class="node">
<title>Node11545</title>
<g id="a_node14"><a xlink:href="trunk_8c.html#a3cf8514dfb66111bc5ebb69c1ade7232" target="_top" xlink:title="Connection transitioned to the shutdown state. ">
<polygon fill="none" stroke="#000000" points="642.5,-229.1844 642.5,-259.1844 754.5,-259.1844 754.5,-229.1844 642.5,-229.1844"/>
<text text-anchor="start" x="650.5" y="-247.1844" font-family="Helvetica,sans-Serif" font-size="10.00" fill="#000000">_trunk_connection_on</text>
<text text-anchor="middle" x="698.5" y="-236.1844" font-family="Helvetica,sans-Serif" font-size="10.00" fill="#000000">_shutdown</text>
</a>
</g>
</g>
<!-- Node11541&#45;&gt;Node11545 -->
<g id="edge17" class="edge">
<title>Node11541&#45;&gt;Node11545</title>
<path fill="none" stroke="#191970" d="M606.5766,-245.3227C618.4895,-245.1752 630.7333,-245.0236 642.2436,-244.8811"/>
<polygon fill="#191970" stroke="#191970" points="606.1755,-241.8274 596.2196,-245.451 606.2622,-248.8268 606.1755,-241.8274"/>
</g>
<!-- Node11546 -->
<g id="node17" class="node">
<title>Node11546</title>
<g id="a_node17"><a xlink:href="trunk_8c.html#aa7dc82680fd0d29e86525577b75de5b4" target="_top" xlink:title="Trigger a reconnection of the trunk connection. ">
<polygon fill="none" stroke="#ff0000" points="632,-278.1844 632,-308.1844 765,-308.1844 765,-278.1844 632,-278.1844"/>
<text text-anchor="start" x="640" y="-296.1844" font-family="Helvetica,sans-Serif" font-size="10.00" fill="#000000">_trunk_connection_lifetime</text>
<text text-anchor="middle" x="698.5" y="-285.1844" font-family="Helvetica,sans-Serif" font-size="10.00" fill="#000000">_expire</text>
</a>
</g>
</g>
<!-- Node11541&#45;&gt;Node11546 -->
<g id="edge22" class="edge">
<title>Node11541&#45;&gt;Node11546</title>
<path fill="none" stroke="#191970" d="M598.3471,-264.0377C614.3555,-268.6965 631.4454,-273.67 646.8921,-278.1654"/>
<polygon fill="#191970" stroke="#191970" points="599.1233,-260.6185 588.5436,-261.1847 597.1673,-267.3396 599.1233,-260.6185"/>
</g>
<!-- Node11493 -->
<g id="node15" class="node">
<title>Node11493</title>
<g id="a_node15"><a xlink:href="trunk_8c.html#a213ea6729e8bcd5958923a9bdbc743c9" target="_top" xlink:title="Free a connection. ">
<polygon fill="none" stroke="#000000" points="801,-365.6844 801,-384.6844 919,-384.6844 919,-365.6844 801,-365.6844"/>
<text text-anchor="middle" x="860" y="-372.6844" font-family="Helvetica,sans-Serif" font-size="10.00" fill="#000000">_trunk_connection_free</text>
</a>
</g>
</g>
<!-- Node11545&#45;&gt;Node11493 -->
<g id="edge18" class="edge">
<title>Node11545&#45;&gt;Node11493</title>
<path fill="none" stroke="#191970" d="M756.3381,-263.8959C759.3424,-265.543 762.2512,-267.3045 765,-269.1844 775.505,-276.3686 830.6181,-340.6281 851.7459,-365.4553"/>
<polygon fill="#191970" stroke="#191970" points="757.6141,-260.6213 747.1027,-259.2938 754.492,-266.8865 757.6141,-260.6213"/>
</g>
<!-- Node11494 -->
<g id="node16" class="node">
<title>Node11494</title>
<g id="a_node16"><a xlink:href="trunk_8c.html#a62baa359a34e9d6dd05554c3e20c8caa" target="_top" xlink:title="Attempt to spawn a new connection. ">
<polygon fill="none" stroke="#ff0000" points="955,-365.6844 955,-384.6844 1080,-384.6844 1080,-365.6844 955,-365.6844"/>
<text text-anchor="middle" x="1017.5" y="-372.6844" font-family="Helvetica,sans-Serif" font-size="10.00" fill="#000000">trunk_connection_spawn</text>
</a>
</g>
</g>
<!-- Node11545&#45;&gt;Node11494 -->
<g id="edge21" class="edge">
<title>Node11545&#45;&gt;Node11494</title>
<path fill="none" stroke="#191970" d="M749.0472,-262.9583C754.4436,-265.0307 759.8426,-267.1332 765,-269.1844 850.704,-303.2694 951.5185,-346.568 995.3236,-365.5415"/>
<polygon fill="#191970" stroke="#191970" points="749.9802,-259.5684 739.3894,-259.278 747.4875,-266.1095 749.9802,-259.5684"/>
</g>
<!-- Node11493&#45;&gt;Node11494 -->
<g id="edge19" class="edge">
<title>Node11493&#45;&gt;Node11494</title>
<path fill="none" stroke="#191970" d="M929.3661,-375.1844C937.8688,-375.1844 946.5196,-375.1844 954.9142,-375.1844"/>
<polygon fill="#191970" stroke="#191970" points="929.0953,-371.6845 919.0953,-375.1844 929.0953,-378.6845 929.0953,-371.6845"/>
</g>
<!-- Node11494&#45;&gt;Node11495 -->
<g id="edge20" class="edge">
<title>Node11494&#45;&gt;Node11495</title>
<path fill="none" stroke="#191970" d="M1026.7579,-356.1973C1053.5395,-301.2706 1130.4501,-143.5339 1150.2868,-102.8506"/>
<polygon fill="#191970" stroke="#191970" points="1023.4698,-354.9549 1022.2331,-365.4773 1029.7617,-358.0228 1023.4698,-354.9549"/>
</g>
<!-- Node11547&#45;&gt;Node11493 -->
<g id="edge27" class="edge">
<title>Node11547&#45;&gt;Node11493</title>
<path fill="none" stroke="#191970" d="M603.4348,-392.6594C661.502,-388.7044 745.0282,-383.0153 800.8332,-379.2143"/>
<polygon fill="#191970" stroke="#191970" points="603.0013,-389.1807 593.2623,-393.3523 603.4771,-396.1645 603.0013,-389.1807"/>
</g>
<!-- Node11547&#45;&gt;Node11494 -->
<g id="edge28" class="edge">
<title>Node11547&#45;&gt;Node11494</title>
<path fill="none" stroke="#191970" d="M568.8634,-417.561C586.6772,-427.7402 609.7232,-438.9751 632,-444.1844 756.8373,-473.3766 796.0004,-451.3457 919,-415.1844 946.8008,-407.011 977.5494,-393.8183 997.1739,-384.8368"/>
<polygon fill="#191970" stroke="#191970" points="570.4491,-414.4329 560.0567,-412.3717 566.8954,-420.4638 570.4491,-414.4329"/>
</g>
<!-- Node11534 -->
<g id="node19" class="node">
<title>Node11534</title>
<g id="a_node19"><a xlink:href="trunk_8c.html#a504ef2d489a87b1b99629e7b8d0733b0" target="_top" xlink:title="Connection failed. ">
<polygon fill="none" stroke="#000000" points="642.5,-404.1844 642.5,-434.1844 754.5,-434.1844 754.5,-404.1844 642.5,-404.1844"/>
<text text-anchor="start" x="650.5" y="-422.1844" font-family="Helvetica,sans-Serif" font-size="10.00" fill="#000000">_trunk_connection_on</text>
<text text-anchor="middle" x="698.5" y="-411.1844" font-family="Helvetica,sans-Serif" font-size="10.00" fill="#000000">_failed</text>
</a>
</g>
</g>
<!-- Node11547&#45;&gt;Node11534 -->
<g id="edge24" class="edge">
<title>Node11547&#45;&gt;Node11534</title>
<path fill="none" stroke="#191970" d="M603.2839,-406.2138C616.2381,-407.9784 629.7058,-409.813 642.2941,-411.5278"/>
<polygon fill="#191970" stroke="#191970" points="603.4126,-402.699 593.0316,-404.8172 602.4677,-409.635 603.4126,-402.699"/>
</g>
<!-- Node11534&#45;&gt;Node11493 -->
<g id="edge25" class="edge">
<title>Node11534&#45;&gt;Node11493</title>
<path fill="none" stroke="#191970" d="M763.4557,-401.4875C784.4257,-395.7743 806.8747,-389.6582 824.8433,-384.7627"/>
<polygon fill="#191970" stroke="#191970" points="762.3557,-398.1595 753.6274,-404.1651 764.1958,-404.9133 762.3557,-398.1595"/>
</g>
<!-- Node11534&#45;&gt;Node11494 -->
<g id="edge26" class="edge">
<title>Node11534&#45;&gt;Node11494</title>
<path fill="none" stroke="#191970" d="M764.8203,-413.0213C808.6898,-408.6112 867.4156,-402.0716 919,-394.1844 936.388,-391.5258 955.3878,-388.0075 972.0211,-384.7218"/>
<polygon fill="#191970" stroke="#191970" points="764.4541,-409.5403 754.8495,-414.0127 765.1468,-416.506 764.4541,-409.5403"/>
</g>
<!-- Node11548&#45;&gt;Node11488 -->
<g id="edge30" class="edge">
<title>Node11548&#45;&gt;Node11488</title>
<path fill="none" stroke="#191970" d="M590.3344,-80.9097C606.0238,-79.0639 623.2801,-77.0338 639.3126,-75.1476"/>
<polygon fill="#191970" stroke="#191970" points="589.8016,-77.4482 580.279,-82.0927 590.6195,-84.4003 589.8016,-77.4482"/>
</g>
<!-- Node11533&#45;&gt;Node11488 -->
<g id="edge32" class="edge">
<title>Node11533&#45;&gt;Node11488</title>
<path fill="none" stroke="#191970" d="M591.5291,-275.2567C593.117,-274.0065 594.6153,-272.652 596,-271.1844 639.7945,-224.7674 599.7945,-187.278 632,-132.1844 643.4826,-112.5412 662.6873,-94.9983 677.5144,-83.2694"/>
<polygon fill="#191970" stroke="#191970" points="589.5363,-272.3757 582.9543,-280.678 593.2771,-278.2923 589.5363,-272.3757"/>
</g>
<!-- Node11533&#45;&gt;Node11534 -->
<g id="edge33" class="edge">
<title>Node11533&#45;&gt;Node11534</title>
<path fill="none" stroke="#191970" d="M557.2066,-306.3246C588.695,-331.4764 649.0286,-379.6685 679.6591,-404.135"/>
<polygon fill="#191970" stroke="#191970" points="559.1366,-303.3867 549.1387,-299.8803 554.7678,-308.8561 559.1366,-303.3867"/>
</g>
</g>
</svg>
