<?xml version="1.0" encoding="UTF-8" standalone="no"?>
<!DOCTYPE svg PUBLIC "-//W3C//DTD SVG 1.1//EN"
 "http://www.w3.org/Graphics/SVG/1.1/DTD/svg11.dtd">
<!-- Generated by graphviz version 2.40.1 (20161225.0304)
 -->
<!-- Title: eap_ttls_decode_pair Pages: 1 -->
<svg width="1160pt" height="712pt"
 viewBox="0.00 0.00 1160.00 712.00" xmlns="http://www.w3.org/2000/svg" xmlns:xlink="http://www.w3.org/1999/xlink">
<g id="graph0" class="graph" transform="scale(1 1) rotate(0) translate(4 708)">
<title>eap_ttls_decode_pair</title>
<!-- Node1 -->
<g id="node1" class="node">
<title>Node1</title>
<polygon fill="#bfbfbf" stroke="#000000" points="0,-266.5 0,-285.5 109,-285.5 109,-266.5 0,-266.5"/>
<text text-anchor="middle" x="54.5" y="-273.5" font-family="Helvetica,sans-Serif" font-size="10.00" fill="#000000">eap_ttls_decode_pair</text>
</g>
<!-- Node2 -->
<g id="node2" class="node">
<title>Node2</title>
<g id="a_node2"><a xlink:href="dict_8h.html#a65ec47a80dc261ba4f8b3c18432602d7" target="_top" xlink:title="Lookup a protocol by its name. ">
<polygon fill="none" stroke="#000000" points="145,-608.5 145,-627.5 273,-627.5 273,-608.5 145,-608.5"/>
<text text-anchor="middle" x="209" y="-615.5" font-family="Helvetica,sans-Serif" font-size="10.00" fill="#000000">fr_dict_by_protocol_name</text>
</a>
</g>
</g>
<!-- Node1&#45;&gt;Node2 -->
<g id="edge1" class="edge">
<title>Node1&#45;&gt;Node2</title>
<path fill="none" stroke="#191970" d="M57.1528,-285.7713C66.555,-319.7011 100.1462,-435.1405 145,-523 159.5312,-551.4637 181.0388,-581.6277 195.0377,-600.1407"/>
<polygon fill="#191970" stroke="#191970" points="192.3811,-602.4281 201.2433,-608.2344 197.9363,-598.1689 192.3811,-602.4281"/>
</g>
<!-- Node10 -->
<g id="node6" class="node">
<title>Node10</title>
<g id="a_node6"><a xlink:href="dict_8h.html#a7c79c676c03022a0e7404ae0232bd902" target="_top" xlink:title="Return the root attribute of a dictionary. ">
<polygon fill="none" stroke="#000000" points="176.5,-494.5 176.5,-513.5 241.5,-513.5 241.5,-494.5 176.5,-494.5"/>
<text text-anchor="middle" x="209" y="-501.5" font-family="Helvetica,sans-Serif" font-size="10.00" fill="#000000">fr_dict_root</text>
</a>
</g>
</g>
<!-- Node1&#45;&gt;Node10 -->
<g id="edge5" class="edge">
<title>Node1&#45;&gt;Node10</title>
<path fill="none" stroke="#191970" d="M56.0566,-285.6242C61.7531,-317.806 84.391,-422.8524 145,-480 151.1382,-485.7876 158.803,-490.2116 166.673,-493.5831"/>
<polygon fill="#191970" stroke="#191970" points="165.6937,-496.9539 176.2858,-497.1943 168.1554,-490.4011 165.6937,-496.9539"/>
</g>
<!-- Node11 -->
<g id="node7" class="node">
<title>Node11</title>
<g id="a_node7"><a xlink:href="strerror_8c.html#ae701765650b8aea79a3037bc4921d7f8" target="_top" xlink:title="Log to thread local error buffer. ">
<polygon fill="none" stroke="#000000" points="487,-380.5 487,-399.5 573,-399.5 573,-380.5 487,-380.5"/>
<text text-anchor="middle" x="530" y="-387.5" font-family="Helvetica,sans-Serif" font-size="10.00" fill="#000000">fr_strerror_printf</text>
</a>
</g>
</g>
<!-- Node1&#45;&gt;Node11 -->
<g id="edge6" class="edge">
<title>Node1&#45;&gt;Node11</title>
<path fill="none" stroke="#191970" d="M57.713,-285.7501C66.7961,-311.6693 95.2816,-382.5754 145,-416 256.6087,-491.0322 317.4459,-486.4989 446,-447 471.8227,-439.0658 496.8371,-420.198 512.7535,-406.3341"/>
<polygon fill="#191970" stroke="#191970" points="515.1149,-408.9176 520.2035,-399.6247 510.4305,-403.716 515.1149,-408.9176"/>
</g>
<!-- Node630 -->
<g id="node25" class="node">
<title>Node630</title>
<g id="a_node25"><a xlink:href="cursor_8c.html#a4063f03b77486d37515dc637f18de69d" target="_top" xlink:title="Free the current item and all items after it. ">
<polygon fill="none" stroke="#000000" points="330,-231.5 330,-250.5 425,-250.5 425,-231.5 330,-231.5"/>
<text text-anchor="middle" x="377.5" y="-238.5" font-family="Helvetica,sans-Serif" font-size="10.00" fill="#000000">fr_cursor_free_list</text>
</a>
</g>
</g>
<!-- Node1&#45;&gt;Node630 -->
<g id="edge35" class="edge">
<title>Node1&#45;&gt;Node630</title>
<path fill="none" stroke="#191970" d="M109.2925,-270.0627C167.8221,-263.7205 260.1965,-253.7109 319.8136,-247.2509"/>
<polygon fill="#191970" stroke="#191970" points="320.2538,-250.7237 329.8185,-246.1667 319.4996,-243.7645 320.2538,-250.7237"/>
</g>
<!-- Node626 -->
<g id="node26" class="node">
<title>Node626</title>
<g id="a_node26"><a xlink:href="net_8h.html#a56dc3fdada059f4961924d23b1aef15a" target="_top" xlink:title="Read an unsigned 32bit integer from wire format (big endian) ">
<polygon fill="none" stroke="#ff0000" points="166,-76.5 166,-95.5 252,-95.5 252,-76.5 166,-76.5"/>
<text text-anchor="middle" x="209" y="-83.5" font-family="Helvetica,sans-Serif" font-size="10.00" fill="#000000">fr_net_to_uint32</text>
</a>
</g>
</g>
<!-- Node1&#45;&gt;Node626 -->
<g id="edge37" class="edge">
<title>Node1&#45;&gt;Node626</title>
<path fill="none" stroke="#191970" d="M57.1753,-266.2255C65.3998,-237.9484 92.9607,-155.2033 145,-110 149.5914,-106.0118 154.9094,-102.6585 160.4791,-99.8458"/>
<polygon fill="#191970" stroke="#191970" points="162.2932,-102.8695 170.0063,-95.606 159.4471,-96.4742 162.2932,-102.8695"/>
</g>
<!-- Node631 -->
<g id="node27" class="node">
<title>Node631</title>
<g id="a_node27"><a xlink:href="net_8h.html#a2754cf6a7feefbbfa896a52318b26b68" target="_top" xlink:title="Read an unsigned 64bit integer from wire format (big endian) with a variable length encoding...">
<polygon fill="none" stroke="#000000" points="163,-38.5 163,-57.5 255,-57.5 255,-38.5 163,-38.5"/>
<text text-anchor="middle" x="209" y="-45.5" font-family="Helvetica,sans-Serif" font-size="10.00" fill="#000000">fr_net_to_uint64v</text>
</a>
</g>
</g>
<!-- Node1&#45;&gt;Node631 -->
<g id="edge38" class="edge">
<title>Node1&#45;&gt;Node631</title>
<path fill="none" stroke="#191970" d="M55.7573,-266.4369C60.6011,-233.4964 81.0938,-123.6604 145,-67 147.6384,-64.6608 150.5534,-62.6092 153.6422,-60.81"/>
<polygon fill="#191970" stroke="#191970" points="155.2703,-63.91 162.7215,-56.3781 152.1996,-57.6195 155.2703,-63.91"/>
</g>
<!-- Node370 -->
<g id="node28" class="node">
<title>Node370</title>
<g id="a_node28"><a xlink:href="pair_8c.html#ae760eec888755906c0196a13801a53df" target="_top" xlink:title="Dynamically allocate a new attribute. ">
<polygon fill="none" stroke="#ff0000" points="343,-418.5 343,-437.5 412,-437.5 412,-418.5 343,-418.5"/>
<text text-anchor="middle" x="377.5" y="-425.5" font-family="Helvetica,sans-Serif" font-size="10.00" fill="#000000">fr_pair_alloc</text>
</a>
</g>
</g>
<!-- Node1&#45;&gt;Node370 -->
<g id="edge39" class="edge">
<title>Node1&#45;&gt;Node370</title>
<path fill="none" stroke="#191970" d="M59.57,-285.5892C71.3948,-306.9309 103.0152,-358.4023 145,-383 203.6192,-417.3434 283.4355,-426.0997 332.6594,-427.9919"/>
<polygon fill="#191970" stroke="#191970" points="332.578,-431.491 342.6803,-428.2983 332.7919,-424.4942 332.578,-431.491"/>
</g>
<!-- Node537 -->
<g id="node29" class="node">
<title>Node537</title>
<g id="a_node29"><a xlink:href="dict_8h.html#a5330c24387243f560593a7c3708a22d2" target="_top" xlink:title="Return vendor attribute for the specified dictionary and pen. ">
<polygon fill="none" stroke="#ff0000" points="310.5,-380.5 310.5,-399.5 444.5,-399.5 444.5,-380.5 310.5,-380.5"/>
<text text-anchor="middle" x="377.5" y="-387.5" font-family="Helvetica,sans-Serif" font-size="10.00" fill="#000000">fr_dict_vendor_da_by_num</text>
</a>
</g>
</g>
<!-- Node1&#45;&gt;Node537 -->
<g id="edge41" class="edge">
<title>Node1&#45;&gt;Node537</title>
<path fill="none" stroke="#191970" d="M62.3093,-285.5864C76.6989,-302.5173 109.2185,-337.4821 145,-354 193.6287,-376.4486 253.4412,-385.3452 300.2216,-388.6832"/>
<polygon fill="#191970" stroke="#191970" points="300.095,-392.1823 310.2991,-389.3314 300.5444,-385.1967 300.095,-392.1823"/>
</g>
<!-- Node445 -->
<g id="node30" class="node">
<title>Node445</title>
<g id="a_node30"><a xlink:href="dict_8h.html#a55644eb5b75ecb783881d0b3a3294192" target="_top" xlink:title="Allocates an unknown attribute. ">
<polygon fill="none" stroke="#ff0000" points="318.5,-325 318.5,-355 436.5,-355 436.5,-325 318.5,-325"/>
<text text-anchor="start" x="326.5" y="-343" font-family="Helvetica,sans-Serif" font-size="10.00" fill="#000000">fr_dict_unknown_afrom</text>
<text text-anchor="middle" x="377.5" y="-332" font-family="Helvetica,sans-Serif" font-size="10.00" fill="#000000">_fields</text>
</a>
</g>
</g>
<!-- Node1&#45;&gt;Node445 -->
<g id="edge43" class="edge">
<title>Node1&#45;&gt;Node445</title>
<path fill="none" stroke="#191970" d="M65.24,-285.5097C81.2766,-299.0298 113.0311,-323.2479 145,-333 198.0782,-349.1915 261.1654,-350.0173 308.2223,-347.3081"/>
<polygon fill="#191970" stroke="#191970" points="308.5568,-350.7939 318.3116,-346.6593 308.1076,-343.8083 308.5568,-350.7939"/>
</g>
<!-- Node279 -->
<g id="node31" class="node">
<title>Node279</title>
<g id="a_node31"><a xlink:href="dict_8h.html#ade71dd6bfb60945aa34a7f0d5286d6c1" target="_top" xlink:title="Check if a child attribute exists in a parent using an attribute number. ">
<polygon fill="none" stroke="#ff0000" points="485.5,-103 485.5,-133 574.5,-133 574.5,-103 485.5,-103"/>
<text text-anchor="start" x="493.5" y="-121" font-family="Helvetica,sans-Serif" font-size="10.00" fill="#000000">fr_dict_attr_child</text>
<text text-anchor="middle" x="530" y="-110" font-family="Helvetica,sans-Serif" font-size="10.00" fill="#000000">_by_num</text>
</a>
</g>
</g>
<!-- Node1&#45;&gt;Node279 -->
<g id="edge46" class="edge">
<title>Node1&#45;&gt;Node279</title>
<path fill="none" stroke="#191970" d="M58.4112,-266.2974C68.5814,-242.4913 98.3534,-181.228 145,-155 249.8891,-96.0241 396.5887,-101.4855 475.1648,-110.0695"/>
<polygon fill="#191970" stroke="#191970" points="474.992,-113.5726 485.3266,-111.239 475.7924,-106.6185 474.992,-113.5726"/>
</g>
<!-- Node471 -->
<g id="node32" class="node">
<title>Node471</title>
<g id="a_node32"><a xlink:href="value_8c.html#ae02199d4f2a1aa2a8d6d617f1b072f20" target="_top" xlink:title="Decode a fr_value_box_t from serialized binary data. ">
<polygon fill="none" stroke="#ff0000" points="309,-282.5 309,-301.5 446,-301.5 446,-282.5 309,-282.5"/>
<text text-anchor="middle" x="377.5" y="-289.5" font-family="Helvetica,sans-Serif" font-size="10.00" fill="#000000">fr_value_box_from_network</text>
</a>
</g>
</g>
<!-- Node1&#45;&gt;Node471 -->
<g id="edge47" class="edge">
<title>Node1&#45;&gt;Node471</title>
<path fill="none" stroke="#191970" d="M109.2925,-278.7142C161.249,-281.2879 239.8755,-285.1827 298.583,-288.0908"/>
<polygon fill="#191970" stroke="#191970" points="298.7711,-291.6043 308.9321,-288.6034 299.1175,-284.6129 298.7711,-291.6043"/>
</g>
<!-- Node475 -->
<g id="node33" class="node">
<title>Node475</title>
<g id="a_node33"><a xlink:href="pair_8c.html#acef35ba3cb2e396515cba5e01ca776ff" target="_top" xlink:title="Mark malformed or unrecognised attributed as unknown. ">
<polygon fill="none" stroke="#ff0000" points="158.5,-304.5 158.5,-323.5 259.5,-323.5 259.5,-304.5 158.5,-304.5"/>
<text text-anchor="middle" x="209" y="-311.5" font-family="Helvetica,sans-Serif" font-size="10.00" fill="#000000">fr_pair_to_unknown</text>
</a>
</g>
</g>
<!-- Node1&#45;&gt;Node475 -->
<g id="edge49" class="edge">
<title>Node1&#45;&gt;Node475</title>
<path fill="none" stroke="#191970" d="M93.4869,-285.589C113.783,-290.5809 138.7935,-296.7324 160.3462,-302.0334"/>
<polygon fill="#191970" stroke="#191970" points="159.7469,-305.4902 170.2935,-304.4799 161.4188,-298.6928 159.7469,-305.4902"/>
</g>
<!-- Node476 -->
<g id="node34" class="node">
<title>Node476</title>
<g id="a_node34"><a xlink:href="pair_8c.html#ad6a4af5aec8fe8bac9db2211ae354989" target="_top" xlink:title="Copy data into an &quot;octets&quot; data type. ">
<polygon fill="none" stroke="#ff0000" points="614,-190.5 614,-209.5 729,-209.5 729,-190.5 614,-190.5"/>
<text text-anchor="middle" x="671.5" y="-197.5" font-family="Helvetica,sans-Serif" font-size="10.00" fill="#000000">fr_pair_value_memdup</text>
</a>
</g>
</g>
<!-- Node1&#45;&gt;Node476 -->
<g id="edge51" class="edge">
<title>Node1&#45;&gt;Node476</title>
<path fill="none" stroke="#191970" d="M84.4501,-266.4926C101.9752,-261.1568 124.6002,-254.6568 145,-250 306.8348,-213.0571 502.6756,-203.3565 603.778,-200.8452"/>
<polygon fill="#191970" stroke="#191970" points="603.9382,-204.3425 613.8541,-200.6111 603.7755,-197.3444 603.9382,-204.3425"/>
</g>
<!-- Node175 -->
<g id="node35" class="node">
<title>Node175</title>
<g id="a_node35"><a xlink:href="cursor_8c.html#a6e72682a046a3eeac734da6639f1817c" target="_top" xlink:title="Insert a single item at the end of the list. ">
<polygon fill="none" stroke="#ff0000" points="163,-.5 163,-19.5 255,-19.5 255,-.5 163,-.5"/>
<text text-anchor="middle" x="209" y="-7.5" font-family="Helvetica,sans-Serif" font-size="10.00" fill="#000000">fr_cursor_append</text>
</a>
</g>
</g>
<!-- Node1&#45;&gt;Node175 -->
<g id="edge53" class="edge">
<title>Node1&#45;&gt;Node175</title>
<path fill="none" stroke="#191970" d="M55.0564,-266.3036C57.6965,-229.5544 72.0983,-97.4739 145,-29 147.6137,-26.5451 150.5303,-24.406 153.6385,-22.5424"/>
<polygon fill="#191970" stroke="#191970" points="155.4137,-25.5687 162.8129,-17.9856 152.2998,-19.2994 155.4137,-25.5687"/>
</g>
<!-- Node497 -->
<g id="node36" class="node">
<title>Node497</title>
<g id="a_node36"><a xlink:href="pair_8c.html#a3bc715c52b2a89a8eafe08a6b01ec53e" target="_top" xlink:title="Copy data into an &quot;string&quot; data type. ">
<polygon fill="none" stroke="#ff0000" points="325.5,-152.5 325.5,-171.5 429.5,-171.5 429.5,-152.5 325.5,-152.5"/>
<text text-anchor="middle" x="377.5" y="-159.5" font-family="Helvetica,sans-Serif" font-size="10.00" fill="#000000">fr_pair_value_strdup</text>
</a>
</g>
</g>
<!-- Node1&#45;&gt;Node497 -->
<g id="edge54" class="edge">
<title>Node1&#45;&gt;Node497</title>
<path fill="none" stroke="#191970" d="M60.8161,-266.2584C73.8841,-247.0414 105.9571,-204.5117 145,-186 198.5723,-160.5993 266.7272,-156.375 315.3687,-157.4288"/>
<polygon fill="#191970" stroke="#191970" points="315.3403,-160.9294 325.4399,-157.7281 315.5483,-153.9325 315.3403,-160.9294"/>
</g>
<!-- Node3 -->
<g id="node3" class="node">
<title>Node3</title>
<g id="a_node3"><a xlink:href="dict__util_8c.html#a84c9cd59818c5cd505e2467fe60a9ae6" target="_top" xlink:title="Internal version of fr_dict_by_protocol_name. ">
<polygon fill="none" stroke="#000000" points="319,-646.5 319,-665.5 436,-665.5 436,-646.5 319,-646.5"/>
<text text-anchor="middle" x="377.5" y="-653.5" font-family="Helvetica,sans-Serif" font-size="10.00" fill="#000000">dict_by_protocol_name</text>
</a>
</g>
</g>
<!-- Node2&#45;&gt;Node3 -->
<g id="edge2" class="edge">
<title>Node2&#45;&gt;Node3</title>
<path fill="none" stroke="#191970" d="M251.5197,-627.589C273.9554,-632.6487 301.6732,-638.8996 325.3925,-644.2488"/>
<polygon fill="#191970" stroke="#191970" points="324.7611,-647.6942 335.2861,-646.4799 326.3011,-640.8657 324.7611,-647.6942"/>
</g>
<!-- Node4 -->
<g id="node4" class="node">
<title>Node4</title>
<g id="a_node4"><a xlink:href="hash_8c.html#a5142bb7ae36b65a809eb834314974942" target="_top" xlink:title="Find data from a template. ">
<polygon fill="none" stroke="#000000" points="482,-660 482,-690 578,-690 578,-660 482,-660"/>
<text text-anchor="start" x="490" y="-678" font-family="Helvetica,sans-Serif" font-size="10.00" fill="#000000">fr_hash_table_find</text>
<text text-anchor="middle" x="530" y="-667" font-family="Helvetica,sans-Serif" font-size="10.00" fill="#000000">_by_data</text>
</a>
</g>
</g>
<!-- Node3&#45;&gt;Node4 -->
<g id="edge3" class="edge">
<title>Node3&#45;&gt;Node4</title>
<path fill="none" stroke="#191970" d="M436.0243,-663.2916C447.7181,-664.7485 460.0007,-666.2788 471.6874,-667.7348"/>
<polygon fill="#191970" stroke="#191970" points="471.4182,-671.2283 481.7742,-668.9915 472.2837,-664.282 471.4182,-671.2283"/>
</g>
<!-- Node5 -->
<g id="node5" class="node">
<title>Node5</title>
<g id="a_node5"><a xlink:href="hash_8c.html#a2f0bab7c7a02a720f6d5a401ebb10e41" target="_top" xlink:title="fr_hash_table_find">
<polygon fill="none" stroke="#ff0000" points="623.5,-684.5 623.5,-703.5 719.5,-703.5 719.5,-684.5 623.5,-684.5"/>
<text text-anchor="middle" x="671.5" y="-691.5" font-family="Helvetica,sans-Serif" font-size="10.00" fill="#000000">fr_hash_table_find</text>
</a>
</g>
</g>
<!-- Node4&#45;&gt;Node5 -->
<g id="edge4" class="edge">
<title>Node4&#45;&gt;Node5</title>
<path fill="none" stroke="#191970" d="M578.3005,-681.4856C589.5704,-682.9989 601.6881,-684.626 613.3357,-686.1899"/>
<polygon fill="#191970" stroke="#191970" points="613.0403,-689.6816 623.4172,-687.5436 613.9719,-682.7439 613.0403,-689.6816"/>
</g>
<!-- Node12 -->
<g id="node8" class="node">
<title>Node12</title>
<g id="a_node8"><a xlink:href="acutest_8h.html#aecf9a9be8105efb1454cd8c1ef6cb1c5" target="_top" xlink:title="va_start">
<polygon fill="none" stroke="#000000" points="1075.5,-627.5 1075.5,-646.5 1127.5,-646.5 1127.5,-627.5 1075.5,-627.5"/>
<text text-anchor="middle" x="1101.5" y="-634.5" font-family="Helvetica,sans-Serif" font-size="10.00" fill="#000000">va_start</text>
</a>
</g>
</g>
<!-- Node11&#45;&gt;Node12 -->
<g id="edge7" class="edge">
<title>Node11&#45;&gt;Node12</title>
<path fill="none" stroke="#191970" d="M533.8457,-399.6402C543.7769,-423.469 572.4437,-485.8929 614,-523 714.8373,-613.0411 762.3646,-616.5761 896,-637 954.7226,-645.9748 1023.9915,-643.2749 1065.2459,-640.2904"/>
<polygon fill="#191970" stroke="#191970" points="1065.6553,-643.7694 1075.3571,-639.5121 1065.1179,-636.79 1065.6553,-643.7694"/>
</g>
<!-- Node13 -->
<g id="node9" class="node">
<title>Node13</title>
<g id="a_node9"><a xlink:href="strerror_8c.html#a193b1e0b3712e3bbee338812c06af482" target="_top" xlink:title="fr_strerror_vprintf">
<polygon fill="none" stroke="#000000" points="626,-380.5 626,-399.5 717,-399.5 717,-380.5 626,-380.5"/>
<text text-anchor="middle" x="671.5" y="-387.5" font-family="Helvetica,sans-Serif" font-size="10.00" fill="#000000">fr_strerror_vprintf</text>
</a>
</g>
</g>
<!-- Node11&#45;&gt;Node13 -->
<g id="edge8" class="edge">
<title>Node11&#45;&gt;Node13</title>
<path fill="none" stroke="#191970" d="M573.2235,-390C586.5653,-390 601.4542,-390 615.5267,-390"/>
<polygon fill="#191970" stroke="#191970" points="615.5957,-393.5001 625.5957,-390 615.5956,-386.5001 615.5957,-393.5001"/>
</g>
<!-- Node16 -->
<g id="node12" class="node">
<title>Node16</title>
<g id="a_node12"><a xlink:href="acutest_8h.html#a36af1f79dd6adf0809c21e76535034d5" target="_top" xlink:title="va_end">
<polygon fill="none" stroke="#000000" points="1077.5,-532.5 1077.5,-551.5 1125.5,-551.5 1125.5,-532.5 1077.5,-532.5"/>
<text text-anchor="middle" x="1101.5" y="-539.5" font-family="Helvetica,sans-Serif" font-size="10.00" fill="#000000">va_end</text>
</a>
</g>
</g>
<!-- Node11&#45;&gt;Node16 -->
<g id="edge34" class="edge">
<title>Node11&#45;&gt;Node16</title>
<path fill="none" stroke="#191970" d="M538.6092,-399.6005C567.092,-430.5459 662.3197,-527.5957 765,-561 870.9886,-595.4806 1005.5496,-568.1306 1067.4849,-551.8724"/>
<polygon fill="#191970" stroke="#191970" points="1068.7412,-555.1587 1077.4853,-549.1762 1066.9189,-548.4001 1068.7412,-555.1587"/>
</g>
<!-- Node14 -->
<g id="node10" class="node">
<title>Node14</title>
<g id="a_node10"><a xlink:href="strerror_8c.html#a42c2cc9f76fb9dac723a1903c181e1c7" target="_top" xlink:title="Initialise thread local storage. ">
<polygon fill="none" stroke="#000000" points="774,-532.5 774,-551.5 851,-551.5 851,-532.5 774,-532.5"/>
<text text-anchor="middle" x="812.5" y="-539.5" font-family="Helvetica,sans-Serif" font-size="10.00" fill="#000000">fr_strerror_init</text>
</a>
</g>
</g>
<!-- Node13&#45;&gt;Node14 -->
<g id="edge9" class="edge">
<title>Node13&#45;&gt;Node14</title>
<path fill="none" stroke="#191970" d="M676.3872,-399.5383C688.5733,-422.5434 722.4123,-481.8454 765,-518 769.2261,-521.5877 774.0805,-524.8121 779.0365,-527.6463"/>
<polygon fill="#191970" stroke="#191970" points="777.4714,-530.7776 787.9533,-532.3208 780.7215,-524.5778 777.4714,-530.7776"/>
</g>
<!-- Node15 -->
<g id="node11" class="node">
<title>Node15</title>
<g id="a_node11"><a xlink:href="strerror_8c.html#a2c8e65d6d4b73fb705cc023f60acb099" target="_top" xlink:title="Print the current error to stderr with a prefix. ">
<polygon fill="none" stroke="#ff0000" points="929,-608.5 929,-627.5 982,-627.5 982,-608.5 929,-608.5"/>
<text text-anchor="middle" x="955.5" y="-615.5" font-family="Helvetica,sans-Serif" font-size="10.00" fill="#000000">fr_perror</text>
</a>
</g>
</g>
<!-- Node13&#45;&gt;Node15 -->
<g id="edge16" class="edge">
<title>Node13&#45;&gt;Node15</title>
<path fill="none" stroke="#191970" d="M674.008,-399.8294C681.9748,-429.04 709.5127,-516.0763 765,-561 809.7978,-597.2692 877.195,-610.4747 918.6564,-615.2731"/>
<polygon fill="#191970" stroke="#191970" points="918.5515,-618.7812 928.8623,-616.3447 919.2825,-611.8195 918.5515,-618.7812"/>
</g>
<!-- Node13&#45;&gt;Node16 -->
<g id="edge32" class="edge">
<title>Node13&#45;&gt;Node16</title>
<path fill="none" stroke="#191970" d="M698.3984,-399.5083C773.4112,-426.0244 984.8298,-500.7585 1067.6364,-530.0296"/>
<polygon fill="#191970" stroke="#191970" points="1066.7125,-533.4152 1077.3073,-533.4481 1069.0455,-526.8154 1066.7125,-533.4152"/>
</g>
<!-- Node22 -->
<g id="node14" class="node">
<title>Node22</title>
<g id="a_node14"><a xlink:href="strerror_8c.html#a9d878c1ddb1b385cdaf6523fff68529c" target="_top" xlink:title="Reset cursor state. ">
<polygon fill="none" stroke="#000000" points="1059,-380.5 1059,-399.5 1144,-399.5 1144,-380.5 1059,-380.5"/>
<text text-anchor="middle" x="1101.5" y="-387.5" font-family="Helvetica,sans-Serif" font-size="10.00" fill="#000000">fr_strerror_clear</text>
</a>
</g>
</g>
<!-- Node13&#45;&gt;Node22 -->
<g id="edge15" class="edge">
<title>Node13&#45;&gt;Node22</title>
<path fill="none" stroke="#191970" d="M717.1104,-390C797.409,-390 963.5558,-390 1048.6924,-390"/>
<polygon fill="#191970" stroke="#191970" points="1048.9104,-393.5001 1058.9104,-390 1048.9103,-386.5001 1048.9104,-393.5001"/>
</g>
<!-- Node23 -->
<g id="node15" class="node">
<title>Node23</title>
<g id="a_node15"><a xlink:href="print_8c.html#a27ae94b5a4c77de49aa2f387765a4d58" target="_top" xlink:title="Special version of vasprintf which implements custom format specifiers. ">
<polygon fill="none" stroke="#000000" points="780,-266.5 780,-285.5 845,-285.5 845,-266.5 780,-266.5"/>
<text text-anchor="middle" x="812.5" y="-273.5" font-family="Helvetica,sans-Serif" font-size="10.00" fill="#000000">fr_vasprintf</text>
</a>
</g>
</g>
<!-- Node13&#45;&gt;Node23 -->
<g id="edge17" class="edge">
<title>Node13&#45;&gt;Node23</title>
<path fill="none" stroke="#191970" d="M701.1212,-380.4388C710.4805,-376.7006 720.5718,-371.8797 729,-366 744.4909,-355.1932 778.5548,-316.2121 798.0497,-293.2479"/>
<polygon fill="#191970" stroke="#191970" points="800.735,-295.4928 804.5115,-285.5939 795.3862,-290.9772 800.735,-295.4928"/>
</g>
<!-- Node169 -->
<g id="node24" class="node">
<title>Node169</title>
<g id="a_node24"><a xlink:href="cursor_8c.html#a5d942382660657c3b4cb6e9cb2b12b2c" target="_top" xlink:title="Insert a single item at the start of the list. ">
<polygon fill="none" stroke="#000000" points="765,-342.5 765,-361.5 860,-361.5 860,-342.5 765,-342.5"/>
<text text-anchor="middle" x="812.5" y="-349.5" font-family="Helvetica,sans-Serif" font-size="10.00" fill="#000000">fr_cursor_prepend</text>
</a>
</g>
</g>
<!-- Node13&#45;&gt;Node169 -->
<g id="edge33" class="edge">
<title>Node13&#45;&gt;Node169</title>
<path fill="none" stroke="#191970" d="M707.0803,-380.411C725.282,-375.5056 747.6384,-369.4804 767.0723,-364.2429"/>
<polygon fill="#191970" stroke="#191970" points="768.1864,-367.5676 776.9311,-361.5859 766.3648,-360.8088 768.1864,-367.5676"/>
</g>
<!-- Node14&#45;&gt;Node15 -->
<g id="edge10" class="edge">
<title>Node14&#45;&gt;Node15</title>
<path fill="none" stroke="#191970" d="M830.611,-551.6255C855.3241,-564.7597 899.8072,-588.401 928.4725,-603.6358"/>
<polygon fill="#191970" stroke="#191970" points="927.063,-606.8502 937.536,-608.4527 930.3482,-600.669 927.063,-606.8502"/>
</g>
<!-- Node21 -->
<g id="node13" class="node">
<title>Node21</title>
<g id="a_node13"><a xlink:href="strerror_8c.html#afe66becac3be1b0b82b90889d27fcf99" target="_top" xlink:title="_fr_logging_free">
<polygon fill="none" stroke="#000000" points="912.5,-532.5 912.5,-551.5 998.5,-551.5 998.5,-532.5 912.5,-532.5"/>
<text text-anchor="middle" x="955.5" y="-539.5" font-family="Helvetica,sans-Serif" font-size="10.00" fill="#000000">_fr_logging_free</text>
</a>
</g>
</g>
<!-- Node14&#45;&gt;Node21 -->
<g id="edge13" class="edge">
<title>Node14&#45;&gt;Node21</title>
<path fill="none" stroke="#191970" d="M851.1979,-542C866.884,-542 885.2593,-542 902.1797,-542"/>
<polygon fill="#191970" stroke="#191970" points="902.4901,-545.5001 912.49,-542 902.49,-538.5001 902.4901,-545.5001"/>
</g>
<!-- Node14&#45;&gt;Node22 -->
<g id="edge14" class="edge">
<title>Node14&#45;&gt;Node22</title>
<path fill="none" stroke="#191970" d="M830.5782,-532.4917C879.7418,-506.6341 1016.0859,-434.9237 1074.437,-404.2338"/>
<polygon fill="#191970" stroke="#191970" points="1076.2073,-407.2574 1083.4286,-399.5047 1072.9488,-401.062 1076.2073,-407.2574"/>
</g>
<!-- Node15&#45;&gt;Node12 -->
<g id="edge11" class="edge">
<title>Node15&#45;&gt;Node12</title>
<path fill="none" stroke="#191970" d="M982.2787,-621.4849C1005.5765,-624.5168 1039.5445,-628.9373 1065.2686,-632.285"/>
<polygon fill="#191970" stroke="#191970" points="1065.0143,-635.7813 1075.3823,-633.6011 1065.9177,-628.8398 1065.0143,-635.7813"/>
</g>
<!-- Node15&#45;&gt;Node16 -->
<g id="edge12" class="edge">
<title>Node15&#45;&gt;Node16</title>
<path fill="none" stroke="#191970" d="M981.6649,-608.4759C992.1884,-604.3809 1004.333,-599.316 1015,-594 1037.2299,-582.9215 1061.3625,-568.1686 1078.475,-557.207"/>
<polygon fill="#191970" stroke="#191970" points="1080.712,-559.9282 1087.2031,-551.5547 1076.907,-554.0527 1080.712,-559.9282"/>
</g>
<!-- Node23&#45;&gt;Node11 -->
<g id="edge21" class="edge">
<title>Node23&#45;&gt;Node11</title>
<path fill="none" stroke="#191970" d="M788.7686,-285.5766C738.3829,-305.9092 620.6264,-353.4286 562.977,-376.6925"/>
<polygon fill="#191970" stroke="#191970" points="561.5635,-373.4886 553.5999,-380.4765 564.1831,-379.9799 561.5635,-373.4886"/>
</g>
<!-- Node23&#45;&gt;Node16 -->
<g id="edge19" class="edge">
<title>Node23&#45;&gt;Node16</title>
<path fill="none" stroke="#191970" d="M820.103,-285.6058C834.2571,-303.2628 865.9453,-341.7473 896,-371 959.1224,-432.4382 1041.5957,-496.7633 1080.0365,-525.9287"/>
<polygon fill="#191970" stroke="#191970" points="1078.3109,-529.0115 1088.4,-532.2456 1082.5298,-523.4257 1078.3109,-529.0115"/>
</g>
<!-- Node24 -->
<g id="node16" class="node">
<title>Node24</title>
<g id="a_node16"><a xlink:href="value_8h.html#a878e0abfce7189a1784cdf15bc9fc3a3" target="_top" xlink:title="fr_value_box_aprint">
<polygon fill="none" stroke="#000000" points="1051,-247.5 1051,-266.5 1152,-266.5 1152,-247.5 1051,-247.5"/>
<text text-anchor="middle" x="1101.5" y="-254.5" font-family="Helvetica,sans-Serif" font-size="10.00" fill="#000000">fr_value_box_aprint</text>
</a>
</g>
</g>
<!-- Node23&#45;&gt;Node24 -->
<g id="edge18" class="edge">
<title>Node23&#45;&gt;Node24</title>
<path fill="none" stroke="#191970" d="M845.0902,-273.8574C892.466,-270.7427 981.1947,-264.9093 1040.82,-260.9893"/>
<polygon fill="#191970" stroke="#191970" points="1041.1135,-264.4777 1050.8623,-260.3291 1040.6542,-257.4928 1041.1135,-264.4777"/>
</g>
<!-- Node25 -->
<g id="node17" class="node">
<title>Node25</title>
<g id="a_node17"><a xlink:href="talloc_8c.html#a3536feb85c89aa239851ef0830b72e64" target="_top" xlink:title="Call talloc_strdup, setting the type on the new chunk correctly. ">
<polygon fill="none" stroke="#000000" points="1051,-209.5 1051,-228.5 1152,-228.5 1152,-209.5 1051,-209.5"/>
<text text-anchor="middle" x="1101.5" y="-216.5" font-family="Helvetica,sans-Serif" font-size="10.00" fill="#000000">talloc_typed_strdup</text>
</a>
</g>
</g>
<!-- Node23&#45;&gt;Node25 -->
<g id="edge20" class="edge">
<title>Node23&#45;&gt;Node25</title>
<path fill="none" stroke="#191970" d="M834.4921,-266.4438C842.7747,-262.4499 852.096,-257.4644 860,-252 877.8537,-239.6568 875.7714,-226.8686 896,-219 943.1512,-200.6589 1001.1216,-202.6374 1043.4568,-208.0519"/>
<polygon fill="#191970" stroke="#191970" points="1043.2102,-211.5509 1053.595,-209.4518 1044.1677,-204.6167 1043.2102,-211.5509"/>
</g>
<!-- Node26 -->
<g id="node18" class="node">
<title>Node26</title>
<g id="a_node18"><a xlink:href="value_8c.html#a3a0550d465b81917f8b0c69a3373163e" target="_top" xlink:title="Convert one type of fr_value_box_t to another. ">
<polygon fill="none" stroke="#ff0000" points="907.5,-114.5 907.5,-133.5 1003.5,-133.5 1003.5,-114.5 907.5,-114.5"/>
<text text-anchor="middle" x="955.5" y="-121.5" font-family="Helvetica,sans-Serif" font-size="10.00" fill="#000000">fr_value_box_cast</text>
</a>
</g>
</g>
<!-- Node23&#45;&gt;Node26 -->
<g id="edge22" class="edge">
<title>Node23&#45;&gt;Node26</title>
<path fill="none" stroke="#191970" d="M840.6602,-266.2709C847.7528,-262.7049 854.8148,-258.0208 860,-252 893.293,-213.342 859.7465,-178.8963 896,-143 897.4737,-141.5408 899.0593,-140.1936 900.7318,-138.9498"/>
<polygon fill="#191970" stroke="#191970" points="902.9387,-141.7068 909.7035,-133.5527 899.3303,-135.7085 902.9387,-141.7068"/>
</g>
<!-- Node120 -->
<g id="node19" class="node">
<title>Node120</title>
<g id="a_node19"><a xlink:href="strerror_8c.html#a83ee876ee41b1ae672dc4dcda4f02a2e" target="_top" xlink:title="Get the last library error. ">
<polygon fill="none" stroke="#ff0000" points="926,-342.5 926,-361.5 985,-361.5 985,-342.5 926,-342.5"/>
<text text-anchor="middle" x="955.5" y="-349.5" font-family="Helvetica,sans-Serif" font-size="10.00" fill="#000000">fr_strerror</text>
</a>
</g>
</g>
<!-- Node23&#45;&gt;Node120 -->
<g id="edge24" class="edge">
<title>Node23&#45;&gt;Node120</title>
<path fill="none" stroke="#191970" d="M830.611,-285.6255C855.3241,-298.7597 899.8072,-322.401 928.4725,-337.6358"/>
<polygon fill="#191970" stroke="#191970" points="927.063,-340.8502 937.536,-342.4527 930.3482,-334.669 927.063,-340.8502"/>
</g>
<!-- Node36 -->
<g id="node21" class="node">
<title>Node36</title>
<g id="a_node21"><a xlink:href="value_8c.html#ad5da2574fed047b3ae861999d06c38ac" target="_top" xlink:title="Clear/free any existing value and metadata. ">
<polygon fill="none" stroke="#ff0000" points="906.5,-76.5 906.5,-95.5 1004.5,-95.5 1004.5,-76.5 906.5,-76.5"/>
<text text-anchor="middle" x="955.5" y="-83.5" font-family="Helvetica,sans-Serif" font-size="10.00" fill="#000000">fr_value_box_clear</text>
</a>
</g>
</g>
<!-- Node23&#45;&gt;Node36 -->
<g id="edge27" class="edge">
<title>Node23&#45;&gt;Node36</title>
<path fill="none" stroke="#191970" d="M821.705,-266.1972C832.223,-254.5465 849.352,-234.1386 860,-214 883.847,-168.898 859.7465,-140.8963 896,-105 897.4737,-103.5408 899.0593,-102.1936 900.7318,-100.9498"/>
<polygon fill="#191970" stroke="#191970" points="902.9387,-103.7068 909.7035,-95.5527 899.3303,-97.7085 902.9387,-103.7068"/>
</g>
<!-- Node628 -->
<g id="node22" class="node">
<title>Node628</title>
<g id="a_node22"><a xlink:href="value_8c.html#a1064a346792dc1e5ecf05d04b4c1af55" target="_top" xlink:title="Concatenate the string representations of a list of value boxes together. ">
<polygon fill="none" stroke="#ff0000" points="896,-228.5 896,-247.5 1015,-247.5 1015,-228.5 896,-228.5"/>
<text text-anchor="middle" x="955.5" y="-235.5" font-family="Helvetica,sans-Serif" font-size="10.00" fill="#000000">fr_value_box_list_aprint</text>
</a>
</g>
</g>
<!-- Node23&#45;&gt;Node628 -->
<g id="edge28" class="edge">
<title>Node23&#45;&gt;Node628</title>
<path fill="none" stroke="#191970" d="M845.3071,-267.282C864.4557,-262.1936 888.9027,-255.6972 909.9027,-250.1168"/>
<polygon fill="#191970" stroke="#191970" points="910.8203,-253.4945 919.586,-247.5436 909.0225,-246.7293 910.8203,-253.4945"/>
</g>
<!-- Node503 -->
<g id="node23" class="node">
<title>Node503</title>
<g id="a_node23"><a xlink:href="util_2pair_8h.html#acfe6934363fefdc67e14fc08a205952b" target="_top" xlink:title="fr_pair_aprint">
<polygon fill="none" stroke="#000000" points="919,-152.5 919,-171.5 992,-171.5 992,-152.5 919,-152.5"/>
<text text-anchor="middle" x="955.5" y="-159.5" font-family="Helvetica,sans-Serif" font-size="10.00" fill="#000000">fr_pair_aprint</text>
</a>
</g>
</g>
<!-- Node23&#45;&gt;Node503 -->
<g id="edge31" class="edge">
<title>Node23&#45;&gt;Node503</title>
<path fill="none" stroke="#191970" d="M838.4895,-266.3538C846.044,-262.6784 853.8955,-257.9152 860,-252 883.9959,-228.7483 871.044,-208.2181 896,-186 900.4768,-182.0143 905.7006,-178.6438 911.1595,-175.806"/>
<polygon fill="#191970" stroke="#191970" points="912.8566,-178.8779 920.4781,-171.5183 909.9306,-172.5187 912.8566,-178.8779"/>
</g>
<!-- Node26&#45;&gt;Node11 -->
<g id="edge23" class="edge">
<title>Node26&#45;&gt;Node11</title>
<path fill="none" stroke="#191970" d="M912.2699,-133.5751C906.4404,-136.0388 900.8181,-139.1283 896,-143 871.1617,-162.9592 883.9423,-183.9744 860,-205 770.9373,-283.2127 712.8242,-242.5541 614,-308 586.4018,-326.2768 560.0102,-354.3701 544.4034,-372.4664"/>
<polygon fill="#191970" stroke="#191970" points="541.4301,-370.5624 537.6503,-380.4601 546.7774,-375.0798 541.4301,-370.5624"/>
</g>
<!-- Node120&#45;&gt;Node22 -->
<g id="edge26" class="edge">
<title>Node120&#45;&gt;Node22</title>
<path fill="none" stroke="#191970" d="M985.0453,-359.6899C1005.0781,-364.9039 1031.9753,-371.9045 1054.8731,-377.8642"/>
<polygon fill="#191970" stroke="#191970" points="1054.1813,-381.3007 1064.7405,-380.4325 1055.9445,-374.5264 1054.1813,-381.3007"/>
</g>
<!-- Node20 -->
<g id="node20" class="node">
<title>Node20</title>
<g id="a_node20"><a xlink:href="cursor_8c.html#a6194bc92357e84dc8720ffd5ccaaeb42" target="_top" xlink:title="Remove the current item. ">
<polygon fill="none" stroke="#ff0000" points="1055.5,-323.5 1055.5,-342.5 1147.5,-342.5 1147.5,-323.5 1055.5,-323.5"/>
<text text-anchor="middle" x="1101.5" y="-330.5" font-family="Helvetica,sans-Serif" font-size="10.00" fill="#000000">fr_cursor_remove</text>
</a>
</g>
</g>
<!-- Node120&#45;&gt;Node20 -->
<g id="edge25" class="edge">
<title>Node120&#45;&gt;Node20</title>
<path fill="none" stroke="#191970" d="M985.0453,-348.1551C1002.2952,-345.9102 1024.6349,-343.003 1045.1281,-340.3361"/>
<polygon fill="#191970" stroke="#191970" points="1045.8588,-343.7706 1055.3235,-339.0093 1044.9554,-336.8291 1045.8588,-343.7706"/>
</g>
<!-- Node628&#45;&gt;Node24 -->
<g id="edge29" class="edge">
<title>Node628&#45;&gt;Node24</title>
<path fill="none" stroke="#191970" d="M1015.305,-245.7828C1023.703,-246.8757 1032.3419,-248 1040.7571,-249.0951"/>
<polygon fill="#191970" stroke="#191970" points="1040.5115,-252.5926 1050.8796,-250.4124 1041.4149,-245.6511 1040.5115,-252.5926"/>
</g>
<!-- Node628&#45;&gt;Node25 -->
<g id="edge30" class="edge">
<title>Node628&#45;&gt;Node25</title>
<path fill="none" stroke="#191970" d="M1015.305,-230.2172C1023.703,-229.1243 1032.3419,-228 1040.7571,-226.9049"/>
<polygon fill="#191970" stroke="#191970" points="1041.4149,-230.3489 1050.8796,-225.5876 1040.5115,-223.4074 1041.4149,-230.3489"/>
</g>
<!-- Node630&#45;&gt;Node20 -->
<g id="edge36" class="edge">
<title>Node630&#45;&gt;Node20</title>
<path fill="none" stroke="#191970" d="M399.9,-250.5435C448.4431,-270.331 567.3687,-314 671.5,-314 671.5,-314 671.5,-314 812.5,-314 893.4934,-314 986.9804,-321.5223 1045.1726,-327.1006"/>
<polygon fill="#191970" stroke="#191970" points="1044.9704,-330.5974 1055.2624,-328.0823 1045.6484,-323.6303 1044.9704,-330.5974"/>
</g>
<!-- Node370&#45;&gt;Node11 -->
<g id="edge40" class="edge">
<title>Node370&#45;&gt;Node11</title>
<path fill="none" stroke="#191970" d="M412.1046,-419.3772C432.7733,-414.227 459.3309,-407.6093 482.0057,-401.9592"/>
<polygon fill="#191970" stroke="#191970" points="482.9283,-405.3364 491.7853,-399.5223 481.2357,-398.5441 482.9283,-405.3364"/>
</g>
<!-- Node537&#45;&gt;Node11 -->
<g id="edge42" class="edge">
<title>Node537&#45;&gt;Node11</title>
<path fill="none" stroke="#191970" d="M444.8326,-390C455.4846,-390 466.372,-390 476.6478,-390"/>
<polygon fill="#191970" stroke="#191970" points="476.6885,-393.5001 486.6884,-390 476.6884,-386.5001 476.6885,-393.5001"/>
</g>
<!-- Node445&#45;&gt;Node11 -->
<g id="edge44" class="edge">
<title>Node445&#45;&gt;Node11</title>
<path fill="none" stroke="#191970" d="M423.255,-355.0016C444.8184,-362.0716 470.2775,-370.4188 490.9229,-377.1878"/>
<polygon fill="#191970" stroke="#191970" points="490.0404,-380.5818 500.6331,-380.3715 492.2213,-373.9301 490.0404,-380.5818"/>
</g>
<!-- Node445&#45;&gt;Node279 -->
<g id="edge45" class="edge">
<title>Node445&#45;&gt;Node279</title>
<path fill="none" stroke="#191970" d="M426.0897,-324.9842C433.3583,-321.2388 440.31,-316.6332 446,-311 494.1543,-263.3262 516.6204,-183.4564 525.3474,-143.0446"/>
<polygon fill="#191970" stroke="#191970" points="528.7844,-143.7067 527.3664,-133.2072 521.9273,-142.2994 528.7844,-143.7067"/>
</g>
<!-- Node471&#45;&gt;Node11 -->
<g id="edge48" class="edge">
<title>Node471&#45;&gt;Node11</title>
<path fill="none" stroke="#191970" d="M413.1471,-301.5988C424.0807,-305.2935 435.8863,-310.0797 446,-316 472.5219,-331.5252 498.3279,-356.1041 514.1837,-372.6289"/>
<polygon fill="#191970" stroke="#191970" points="511.7293,-375.1281 521.1276,-380.0191 516.8307,-370.3348 511.7293,-375.1281"/>
</g>
<!-- Node475&#45;&gt;Node445 -->
<g id="edge50" class="edge">
<title>Node475&#45;&gt;Node445</title>
<path fill="none" stroke="#191970" d="M259.5556,-321.8009C274.8886,-324.1668 292.0043,-326.8078 308.3378,-329.3281"/>
<polygon fill="#191970" stroke="#191970" points="307.967,-332.8122 318.3838,-330.8782 309.0345,-325.8941 307.967,-332.8122"/>
</g>
<!-- Node476&#45;&gt;Node36 -->
<g id="edge52" class="edge">
<title>Node476&#45;&gt;Node36</title>
<path fill="none" stroke="#191970" d="M729.2836,-206.0752C769.416,-207.2956 822.2523,-202.6128 860,-176 888.9162,-155.6136 869.0612,-127.9359 896,-105 897.9867,-103.3085 900.1257,-101.7671 902.3706,-100.3625"/>
<polygon fill="#191970" stroke="#191970" points="904.2281,-103.3405 911.4574,-95.5954 900.976,-97.1418 904.2281,-103.3405"/>
</g>
<!-- Node497&#45;&gt;Node36 -->
<g id="edge55" class="edge">
<title>Node497&#45;&gt;Node36</title>
<path fill="none" stroke="#191970" d="M429.5045,-157.5003C470.0237,-153.8282 527.6618,-148.2407 578,-142 690.88,-128.0057 822.1306,-107.5968 896.3493,-95.6701"/>
<polygon fill="#191970" stroke="#191970" points="897.1196,-99.0912 906.4355,-94.045 896.006,-92.1803 897.1196,-99.0912"/>
</g>
</g>
</svg>
