<?xml version="1.0" encoding="UTF-8" standalone="no"?>
<!DOCTYPE svg PUBLIC "-//W3C//DTD SVG 1.1//EN"
 "http://www.w3.org/Graphics/SVG/1.1/DTD/svg11.dtd">
<!-- Generated by graphviz version 2.40.1 (20161225.0304)
 -->
<!-- Title: /home/runner/work/freeradius&#45;server/freeradius&#45;server/src/modules/rlm_sigtran/libosmo&#45;m3ua/include/udp_input.h Pages: 1 -->
<svg width="189pt" height="128pt"
 viewBox="0.00 0.00 189.00 128.00" xmlns="http://www.w3.org/2000/svg" xmlns:xlink="http://www.w3.org/1999/xlink">
<g id="graph0" class="graph" transform="scale(1 1) rotate(0) translate(4 124)">
<title>/home/runner/work/freeradius&#45;server/freeradius&#45;server/src/modules/rlm_sigtran/libosmo&#45;m3ua/include/udp_input.h</title>
<!-- Node0 -->
<g id="node1" class="node">
<title>Node0</title>
<polygon fill="#bfbfbf" stroke="#000000" points="0,-67.5 0,-119.5 161,-119.5 161,-67.5 0,-67.5"/>
<text text-anchor="start" x="8" y="-107.5" font-family="Helvetica,sans-Serif" font-size="10.00" fill="#000000">/home/runner/work/freeradius</text>
<text text-anchor="start" x="8" y="-96.5" font-family="Helvetica,sans-Serif" font-size="10.00" fill="#000000">&#45;server/freeradius&#45;server</text>
<text text-anchor="start" x="8" y="-85.5" font-family="Helvetica,sans-Serif" font-size="10.00" fill="#000000">/src/modules/rlm_sigtran/libosmo</text>
<text text-anchor="middle" x="80.5" y="-74.5" font-family="Helvetica,sans-Serif" font-size="10.00" fill="#000000">&#45;m3ua/include/udp_input.h</text>
</g>
<!-- Node1 -->
<g id="node2" class="node">
<title>Node1</title>
<polygon fill="none" stroke="#bfbfbf" points="9,-6 9,-25 58,-25 58,-6 9,-6"/>
<text text-anchor="middle" x="33.5" y="-13" font-family="Helvetica,sans-Serif" font-size="10.00" fill="#000000">stdint.h</text>
</g>
<!-- Node0&#45;&gt;Node1 -->
<g id="edge1" class="edge">
<title>Node0&#45;&gt;Node1</title>
<path fill="none" stroke="#191970" d="M64.5879,-67.0928C57.9685,-56.1073 50.4492,-43.6285 44.4639,-33.6954"/>
<polygon fill="#191970" stroke="#191970" points="47.4339,-31.8427 39.2749,-25.0839 41.4382,-35.4555 47.4339,-31.8427"/>
</g>
<!-- Node2 -->
<g id="node3" class="node">
<title>Node2</title>
<polygon fill="none" stroke="#bfbfbf" points="76,-.5 76,-30.5 181,-30.5 181,-.5 76,-.5"/>
<text text-anchor="start" x="84" y="-18.5" font-family="Helvetica,sans-Serif" font-size="10.00" fill="#000000">osmocom/core/write</text>
<text text-anchor="middle" x="128.5" y="-7.5" font-family="Helvetica,sans-Serif" font-size="10.00" fill="#000000">_queue.h</text>
</g>
<!-- Node0&#45;&gt;Node2 -->
<g id="edge2" class="edge">
<title>Node0&#45;&gt;Node2</title>
<path fill="none" stroke="#191970" d="M96.7506,-67.0928C102.3219,-58.0395 108.5172,-47.972 113.9455,-39.151"/>
<polygon fill="#191970" stroke="#191970" points="117.0062,-40.8555 119.2664,-30.5046 111.0446,-37.1868 117.0062,-40.8555"/>
</g>
</g>
</svg>
