<?xml version="1.0" encoding="UTF-8" standalone="no"?>
<!DOCTYPE svg PUBLIC "-//W3C//DTD SVG 1.1//EN"
 "http://www.w3.org/Graphics/SVG/1.1/DTD/svg11.dtd">
<!-- Generated by graphviz version 2.40.1 (20161225.0304)
 -->
<!-- Title: sendfromto Pages: 1 -->
<!--zoomable 170 -->
<svg id="main" version="1.1" xmlns="http://www.w3.org/2000/svg" xmlns:xlink="http://www.w3.org/1999/xlink" xml:space="preserve" onload="init(evt)">
<style type="text/css"><![CDATA[
.edge:hover path { stroke: red; }
.edge:hover polygon { stroke: red; fill: red; }
]]></style>
<script type="text/javascript"><![CDATA[
var edges = document.getElementsByTagName('g');
if (edges && edges.length) {
  for (var i=0;i<edges.length;i++) {
    if (edges[i].id.substr(0,4)=='edge') {
      edges[i].setAttribute('class','edge');
    }
  }
}
]]></script>
        <defs>
                <circle id="rim" cx="0" cy="0" r="7"/>
                <circle id="rim2" cx="0" cy="0" r="3.5"/>
                <g id="zoomPlus">
                        <use xlink:href="#rim" fill="#404040">
                                <set attributeName="fill" to="#808080" begin="zoomplus.mouseover" end="zoomplus.mouseout"/>
                        </use>
                        <path d="M-4,0h8M0,-4v8" fill="none" stroke="white" stroke-width="1.5" pointer-events="none"/>
                </g>
                <g id="zoomMin">
                        <use xlink:href="#rim" fill="#404040">
                                <set attributeName="fill" to="#808080" begin="zoomminus.mouseover" end="zoomminus.mouseout"/>
                        </use>
                        <path d="M-4,0h8" fill="none" stroke="white" stroke-width="1.5" pointer-events="none"/>
                </g>
                <g id="dirArrow">
                        <path fill="none" stroke="white" stroke-width="1.5" d="M0,-3.0v7 M-2.5,-0.5L0,-3.0L2.5,-0.5"/>
                </g>
               <g id="resetDef">
                       <use xlink:href="#rim2" fill="#404040">
                               <set attributeName="fill" to="#808080" begin="reset.mouseover" end="reset.mouseout"/>
                       </use>
               </g>
        </defs>

<script type="text/javascript">
var viewWidth = 800;
var viewHeight = 170;
var sectionId = 'dynsection-4';
</script>
<script xlink:href="svgpan.js"/>
<svg id="graph" class="graph">
<g id="viewport">
<title>sendfromto</title>
<!-- Node1598 -->
<g id="node1" class="node">
<title>Node1598</title>
<polygon fill="#bfbfbf" stroke="#000000" points="0,-28.5 0,-47.5 65,-47.5 65,-28.5 0,-28.5"/>
<text text-anchor="middle" x="32.5" y="-35.5" font-family="Helvetica,sans-Serif" font-size="10.00" fill="#000000">sendfromto</text>
</g>
<!-- Node1599 -->
<g id="node2" class="node">
<title>Node1599</title>
<g id="a_node2"><a xlink:href="udp_8h.html#a749827838ddfaba3412bae9a017ce02e" target="_top" xlink:title="Send a packet via a UDP socket. ">
<polygon fill="none" stroke="#000000" points="101,-85.5 101,-104.5 160,-104.5 160,-85.5 101,-85.5"/>
<text text-anchor="middle" x="130.5" y="-92.5" font-family="Helvetica,sans-Serif" font-size="10.00" fill="#000000">udp_send</text>
</a>
</g>
</g>
<!-- Node1598&#45;&gt;Node1599 -->
<g id="edge1" class="edge">
<title>Node1598&#45;&gt;Node1599</title>
<path fill="none" stroke="#191970" d="M57.8352,-52.7358C75.5766,-63.0548 98.765,-76.5419 114.1212,-85.4735"/>
<polygon fill="#191970" stroke="#191970" points="59.5283,-49.6716 49.1244,-47.6693 56.0088,-55.7225 59.5283,-49.6716"/>
</g>
<!-- Node3040 -->
<g id="node6" class="node">
<title>Node3040</title>
<g id="a_node6"><a xlink:href="udpfromto_8h.html#aa0e3ddd0d191087ba4b18d3eaacc63fa" target="_top" xlink:title="Send packet via a file descriptor, setting the src address and outbound interface. ">
<polygon fill="none" stroke="#000000" points="550,-47.5 550,-66.5 615,-66.5 615,-47.5 550,-47.5"/>
<text text-anchor="middle" x="582.5" y="-54.5" font-family="Helvetica,sans-Serif" font-size="10.00" fill="#000000">sendfromto</text>
</a>
</g>
</g>
<!-- Node1598&#45;&gt;Node3040 -->
<g id="edge11" class="edge">
<title>Node1598&#45;&gt;Node3040</title>
<path fill="none" stroke="#191970" d="M75.2395,-38C119.7551,-38 191.5169,-38 253.5,-38 253.5,-38 253.5,-38 393.5,-38 448.5731,-38 512.2224,-46.0855 549.8222,-51.7074"/>
<polygon fill="#191970" stroke="#191970" points="75.0777,-34.5001 65.0776,-38 75.0776,-41.5001 75.0777,-34.5001"/>
</g>
<!-- Node3041 -->
<g id="node7" class="node">
<title>Node3041</title>
<g id="a_node7"><a xlink:href="protocols_2dhcpv4_2udp_8c.html#a6a06d2d162d16e847445df94a967a984" target="_top" xlink:title="Send DHCP packet using a connectionless UDP socket. ">
<polygon fill="none" stroke="#ff0000" points="651,-9.5 651,-28.5 792,-28.5 792,-9.5 651,-9.5"/>
<text text-anchor="middle" x="721.5" y="-16.5" font-family="Helvetica,sans-Serif" font-size="10.00" fill="#000000">fr_dhcpv4_udp_packet_send</text>
</a>
</g>
</g>
<!-- Node1598&#45;&gt;Node3041 -->
<g id="edge10" class="edge">
<title>Node1598&#45;&gt;Node3041</title>
<path fill="none" stroke="#191970" d="M74.9691,-26.2733C119.1928,-15.1095 190.6552,0 253.5,0 253.5,0 253.5,0 495,0 547.3845,0 606.3462,-5.1091 650.9776,-10.0286"/>
<polygon fill="#191970" stroke="#191970" points="73.9594,-22.919 65.1475,-28.8013 75.7043,-29.6981 73.9594,-22.919"/>
</g>
<!-- Node1600 -->
<g id="node3" class="node">
<title>Node1600</title>
<g id="a_node3"><a xlink:href="radius_8h.html#abc1c6df75579594500ffb237b8b33cad" target="_top" xlink:title="Reply to the request. ">
<polygon fill="none" stroke="#000000" points="196,-142.5 196,-161.5 311,-161.5 311,-142.5 196,-142.5"/>
<text text-anchor="middle" x="253.5" y="-149.5" font-family="Helvetica,sans-Serif" font-size="10.00" fill="#000000">fr_radius_packet_send</text>
</a>
</g>
</g>
<!-- Node1599&#45;&gt;Node1600 -->
<g id="edge2" class="edge">
<title>Node1599&#45;&gt;Node1600</title>
<path fill="none" stroke="#191970" d="M153.7913,-110.093C166.0325,-117.6142 181.4758,-126.4717 196,-133 203.8633,-136.5344 212.5887,-139.7539 220.8171,-142.4977"/>
<polygon fill="#191970" stroke="#191970" points="155.4554,-107.0054 145.1228,-104.6627 151.7392,-112.9376 155.4554,-107.0054"/>
</g>
<!-- Node3047 -->
<g id="node8" class="node">
<title>Node3047</title>
<g id="a_node8"><a xlink:href="proto__dhcpv4__udp_8c.html#aead81306a1f9276fd65fb86f13c05bdd" target="_top" xlink:title="mod_write">
<polygon fill="none" stroke="#000000" points="222.5,-104.5 222.5,-123.5 284.5,-123.5 284.5,-104.5 222.5,-104.5"/>
<text text-anchor="middle" x="253.5" y="-111.5" font-family="Helvetica,sans-Serif" font-size="10.00" fill="#000000">mod_write</text>
</a>
</g>
</g>
<!-- Node1599&#45;&gt;Node3047 -->
<g id="edge9" class="edge">
<title>Node1599&#45;&gt;Node3047</title>
<path fill="none" stroke="#191970" d="M170.3805,-101.1604C187.2108,-103.7602 206.5162,-106.7423 222.283,-109.1779"/>
<polygon fill="#191970" stroke="#191970" points="170.692,-97.6671 160.2749,-99.5994 169.6233,-104.585 170.692,-97.6671"/>
</g>
<!-- Node1601 -->
<g id="node4" class="node">
<title>Node1601</title>
<g id="a_node4"><a xlink:href="radclient_8c.html#a176efa61331731043767abb77e3db234" target="_top" xlink:title="send_one_packet">
<polygon fill="none" stroke="#000000" points="347,-132.5 347,-151.5 440,-151.5 440,-132.5 347,-132.5"/>
<text text-anchor="middle" x="393.5" y="-139.5" font-family="Helvetica,sans-Serif" font-size="10.00" fill="#000000">send_one_packet</text>
</a>
</g>
</g>
<!-- Node1600&#45;&gt;Node1601 -->
<g id="edge3" class="edge">
<title>Node1600&#45;&gt;Node1601</title>
<path fill="none" stroke="#191970" d="M321.3767,-147.1517C330.046,-146.5324 338.7587,-145.9101 346.9823,-145.3227"/>
<polygon fill="#191970" stroke="#191970" points="320.9768,-143.6712 311.2516,-147.8749 321.4756,-150.6534 320.9768,-143.6712"/>
</g>
<!-- Node1602 -->
<g id="node5" class="node">
<title>Node1602</title>
<g id="a_node5"><a xlink:href="radclient_8c.html#a3c04138a5bfe5d72780bb7e82a18e627" target="_top" xlink:title="main">
<polygon fill="none" stroke="#ff0000" points="476,-123.5 476,-142.5 514,-142.5 514,-123.5 476,-123.5"/>
<text text-anchor="middle" x="495" y="-130.5" font-family="Helvetica,sans-Serif" font-size="10.00" fill="#000000">main</text>
</a>
</g>
</g>
<!-- Node1601&#45;&gt;Node1602 -->
<g id="edge4" class="edge">
<title>Node1601&#45;&gt;Node1602</title>
<path fill="none" stroke="#191970" d="M450.0723,-136.9837C459.2309,-136.1716 468.1333,-135.3823 475.5649,-134.7233"/>
<polygon fill="#191970" stroke="#191970" points="449.7428,-133.4991 440.0911,-137.8688 450.3611,-140.4718 449.7428,-133.4991"/>
</g>
<!-- Node1602&#45;&gt;Node3040 -->
<g id="edge5" class="edge">
<title>Node1602&#45;&gt;Node3040</title>
<path fill="none" stroke="#191970" d="M513.9881,-116.5075C531.5642,-101.2413 557.09,-79.0704 571.508,-66.5473"/>
<polygon fill="#191970" stroke="#191970" points="511.3366,-114.1746 506.0819,-123.3745 515.9269,-119.4594 511.3366,-114.1746"/>
</g>
<!-- Node3040&#45;&gt;Node1599 -->
<g id="edge6" class="edge">
<title>Node3040&#45;&gt;Node1599</title>
<path fill="none" stroke="#191970" d="M539.7529,-60.5938C448.8017,-68.2401 238.0718,-85.9564 160.157,-92.5067"/>
<polygon fill="#191970" stroke="#191970" points="540.0488,-64.0814 549.7204,-59.7558 539.4623,-57.106 540.0488,-64.0814"/>
</g>
<!-- Node3040&#45;&gt;Node3040 -->
<g id="edge8" class="edge">
<title>Node3040&#45;&gt;Node3040</title>
<path fill="none" stroke="#191970" d="M566.5749,-76.4C567.6384,-81.3146 572.9468,-85 582.5,-85 597.7852,-85 602.2035,-75.5653 595.7551,-66.7571"/>
<polygon fill="#191970" stroke="#191970" points="569.9494,-77.3284 569.2449,-66.7571 563.2032,-75.4604 569.9494,-77.3284"/>
</g>
<!-- Node3040&#45;&gt;Node3041 -->
<g id="edge7" class="edge">
<title>Node3040&#45;&gt;Node3041</title>
<path fill="none" stroke="#191970" d="M624.7912,-45.4384C644.601,-40.0227 667.913,-33.6497 686.6851,-28.5178"/>
<polygon fill="#191970" stroke="#191970" points="623.8124,-42.0775 615.0893,-48.0907 625.6584,-48.8297 623.8124,-42.0775"/>
</g>
</g>
</svg>
        <g id="navigator" transform="translate(0 0)" fill="#404254">
                <rect fill="#f2f5e9" fill-opacity="0.5" stroke="#606060" stroke-width=".5" x="0" y="0" width="60" height="60"/>
                <use id="zoomplus" xlink:href="#zoomPlus" x="17" y="9" onmousedown="handleZoom(evt,'in')"/>
                <use id="zoomminus" xlink:href="#zoomMin" x="42" y="9" onmousedown="handleZoom(evt,'out')"/>
                <use id="reset" xlink:href="#resetDef" x="30" y="36" onmousedown="handleReset()"/>
                <g id="arrowUp" xlink:href="#dirArrow" transform="translate(30 24)" onmousedown="handlePan(0,-1)">
                  <use xlink:href="#rim" fill="#404040">
                        <set attributeName="fill" to="#808080" begin="arrowUp.mouseover" end="arrowUp.mouseout"/>
                  </use>
                  <path fill="none" stroke="white" stroke-width="1.5" d="M0,-3.0v7 M-2.5,-0.5L0,-3.0L2.5,-0.5"/>
                </g>
                <g id="arrowRight" xlink:href="#dirArrow" transform="rotate(90) translate(36 -43)" onmousedown="handlePan(1,0)">
                  <use xlink:href="#rim" fill="#404040">
                        <set attributeName="fill" to="#808080" begin="arrowRight.mouseover" end="arrowRight.mouseout"/>
                  </use>
                  <path fill="none" stroke="white" stroke-width="1.5" d="M0,-3.0v7 M-2.5,-0.5L0,-3.0L2.5,-0.5"/>
                </g>
                <g id="arrowDown" xlink:href="#dirArrow" transform="rotate(180) translate(-30 -48)" onmousedown="handlePan(0,1)">
                  <use xlink:href="#rim" fill="#404040">
                        <set attributeName="fill" to="#808080" begin="arrowDown.mouseover" end="arrowDown.mouseout"/>
                  </use>
                  <path fill="none" stroke="white" stroke-width="1.5" d="M0,-3.0v7 M-2.5,-0.5L0,-3.0L2.5,-0.5"/>
                </g>
                <g id="arrowLeft" xlink:href="#dirArrow" transform="rotate(270) translate(-36 17)" onmousedown="handlePan(-1,0)">
                  <use xlink:href="#rim" fill="#404040">
                        <set attributeName="fill" to="#808080" begin="arrowLeft.mouseover" end="arrowLeft.mouseout"/>
                  </use>
                  <path fill="none" stroke="white" stroke-width="1.5" d="M0,-3.0v7 M-2.5,-0.5L0,-3.0L2.5,-0.5"/>
                </g>
        </g>
        <svg viewBox="0 0 15 15" width="100%" height="30px" preserveAspectRatio="xMaxYMin meet">
         <g id="arrow_out" transform="scale(0.3 0.3)">
          <a xlink:href="udpfromto_8c_a5fffa50bafd209f8c497be945f455dd1_icgraph_org.svg" target="_base">
           <rect id="button" ry="5" rx="5" y="6" x="6" height="38" width="38"
                fill="#f2f5e9" fill-opacity="0.5" stroke="#606060" stroke-width="1.0"/>
           <path id="arrow"
             d="M 11.500037,31.436501 C 11.940474,20.09759 22.043105,11.32322 32.158766,21.979434 L 37.068811,17.246167 C 37.068811,17.246167 37.088388,32 37.088388,32 L 22.160133,31.978069 C 22.160133,31.978069 26.997745,27.140456 26.997745,27.140456 C 18.528582,18.264221 13.291696,25.230495 11.500037,31.436501 z"
             style="fill:#404040;"/>
          </a>
         </g>
        </svg>
</svg>
