<?xml version="1.0" encoding="UTF-8" standalone="no"?>
<!DOCTYPE svg PUBLIC "-//W3C//DTD SVG 1.1//EN"
 "http://www.w3.org/Graphics/SVG/1.1/DTD/svg11.dtd">
<!-- Generated by graphviz version 2.40.1 (20161225.0304)
 -->
<!-- Title: uint128_rshift Pages: 1 -->
<!--zoomable 159 -->
<svg id="main" version="1.1" xmlns="http://www.w3.org/2000/svg" xmlns:xlink="http://www.w3.org/1999/xlink" xml:space="preserve" onload="init(evt)">
<style type="text/css"><![CDATA[
.edge:hover path { stroke: red; }
.edge:hover polygon { stroke: red; fill: red; }
]]></style>
<script type="text/javascript"><![CDATA[
var edges = document.getElementsByTagName('g');
if (edges && edges.length) {
  for (var i=0;i<edges.length;i++) {
    if (edges[i].id.substr(0,4)=='edge') {
      edges[i].setAttribute('class','edge');
    }
  }
}
]]></script>
        <defs>
                <circle id="rim" cx="0" cy="0" r="7"/>
                <circle id="rim2" cx="0" cy="0" r="3.5"/>
                <g id="zoomPlus">
                        <use xlink:href="#rim" fill="#404040">
                                <set attributeName="fill" to="#808080" begin="zoomplus.mouseover" end="zoomplus.mouseout"/>
                        </use>
                        <path d="M-4,0h8M0,-4v8" fill="none" stroke="white" stroke-width="1.5" pointer-events="none"/>
                </g>
                <g id="zoomMin">
                        <use xlink:href="#rim" fill="#404040">
                                <set attributeName="fill" to="#808080" begin="zoomminus.mouseover" end="zoomminus.mouseout"/>
                        </use>
                        <path d="M-4,0h8" fill="none" stroke="white" stroke-width="1.5" pointer-events="none"/>
                </g>
                <g id="dirArrow">
                        <path fill="none" stroke="white" stroke-width="1.5" d="M0,-3.0v7 M-2.5,-0.5L0,-3.0L2.5,-0.5"/>
                </g>
               <g id="resetDef">
                       <use xlink:href="#rim2" fill="#404040">
                               <set attributeName="fill" to="#808080" begin="reset.mouseover" end="reset.mouseout"/>
                       </use>
               </g>
        </defs>

<script type="text/javascript">
var viewWidth = 664;
var viewHeight = 159;
var sectionId = 'dynsection-9';
</script>
<script xlink:href="svgpan.js"/>
<svg id="graph" class="graph">
<g id="viewport">
<title>uint128_rshift</title>
<!-- Node75 -->
<g id="node1" class="node">
<title>Node75</title>
<polygon fill="#bfbfbf" stroke="#000000" points="0,-76.5 0,-95.5 75,-95.5 75,-76.5 0,-76.5"/>
<text text-anchor="middle" x="37.5" y="-83.5" font-family="Helvetica,sans-Serif" font-size="10.00" fill="#000000">uint128_rshift</text>
</g>
<!-- Node76 -->
<g id="node2" class="node">
<title>Node76</title>
<g id="a_node2"><a xlink:href="retry_8h.html#ab554d324f6aca7d3f24ef71581030e2e" target="_top" xlink:title="Initialize a retransmission counter. ">
<polygon fill="none" stroke="#000000" points="114,-104.5 114,-123.5 179,-123.5 179,-104.5 114,-104.5"/>
<text text-anchor="middle" x="146.5" y="-111.5" font-family="Helvetica,sans-Serif" font-size="10.00" fill="#000000">fr_retry_init</text>
</a>
</g>
</g>
<!-- Node75&#45;&gt;Node76 -->
<g id="edge1" class="edge">
<title>Node75&#45;&gt;Node76</title>
<path fill="none" stroke="#191970" d="M84.4477,-98.06C94.3515,-100.6041 104.5946,-103.2353 113.8345,-105.6089"/>
<polygon fill="#191970" stroke="#191970" points="85.2631,-94.6559 74.7068,-95.5577 83.5215,-101.4357 85.2631,-94.6559"/>
</g>
<!-- Node81 -->
<g id="node7" class="node">
<title>Node81</title>
<g id="a_node7"><a xlink:href="retry_8h.html#a032142df3cf21e868bdd2791742618ac" target="_top" xlink:title="Initialize a retransmission counter. ">
<polygon fill="none" stroke="#000000" points="111,-57.5 111,-76.5 182,-76.5 182,-57.5 111,-57.5"/>
<text text-anchor="middle" x="146.5" y="-64.5" font-family="Helvetica,sans-Serif" font-size="10.00" fill="#000000">fr_retry_next</text>
</a>
</g>
</g>
<!-- Node75&#45;&gt;Node81 -->
<g id="edge6" class="edge">
<title>Node75&#45;&gt;Node81</title>
<path fill="none" stroke="#191970" d="M84.9964,-77.7208C93.6409,-76.214 102.5244,-74.6655 110.7574,-73.2304"/>
<polygon fill="#191970" stroke="#191970" points="84.262,-74.296 75.0116,-79.4613 85.4641,-81.192 84.262,-74.296"/>
</g>
<!-- Node77 -->
<g id="node3" class="node">
<title>Node77</title>
<g id="a_node3"><a xlink:href="proto__detail__work_8c.html#aead81306a1f9276fd65fb86f13c05bdd" target="_top" xlink:title="mod_write">
<polygon fill="none" stroke="#000000" points="256.5,-76.5 256.5,-95.5 318.5,-95.5 318.5,-76.5 256.5,-76.5"/>
<text text-anchor="middle" x="287.5" y="-83.5" font-family="Helvetica,sans-Serif" font-size="10.00" fill="#000000">mod_write</text>
</a>
</g>
</g>
<!-- Node76&#45;&gt;Node77 -->
<g id="edge2" class="edge">
<title>Node76&#45;&gt;Node77</title>
<path fill="none" stroke="#191970" d="M189.1422,-105.532C210.8112,-101.229 236.6644,-96.095 256.4261,-92.1707"/>
<polygon fill="#191970" stroke="#191970" points="188.3294,-102.125 179.2026,-107.5059 189.6929,-108.991 188.3294,-102.125"/>
</g>
<!-- Node78 -->
<g id="node4" class="node">
<title>Node78</title>
<g id="a_node4"><a xlink:href="rlm__radius__udp_8c.html#a8c896b0852b3a47d44a8873dc367696f" target="_top" xlink:title="Send our status&#45;check packet as soon as the connection becomes writable. ">
<polygon fill="none" stroke="#000000" points="393,-120 393,-150 502,-150 502,-120 393,-120"/>
<text text-anchor="start" x="401" y="-138" font-family="Helvetica,sans-Serif" font-size="10.00" fill="#000000">conn_writable_status</text>
<text text-anchor="middle" x="447.5" y="-127" font-family="Helvetica,sans-Serif" font-size="10.00" fill="#000000">_check</text>
</a>
</g>
</g>
<!-- Node76&#45;&gt;Node78 -->
<g id="edge3" class="edge">
<title>Node76&#45;&gt;Node78</title>
<path fill="none" stroke="#191970" d="M178.5607,-127.2246C190.6962,-131.5708 204.7746,-135.8396 218,-138 277.1855,-147.6682 346.1005,-144.9318 392.8499,-141.0345"/>
<polygon fill="#191970" stroke="#191970" points="179.4775,-123.8306 168.8852,-123.6003 177.0219,-130.3858 179.4775,-123.8306"/>
</g>
<!-- Node79 -->
<g id="node5" class="node">
<title>Node79</title>
<g id="a_node5"><a xlink:href="rlm__radius__udp_8c.html#a3305dcbb1c5cd85ad338cd3b3f44b3e0" target="_top" xlink:title="request_mux">
<polygon fill="none" stroke="#000000" points="411,-54.5 411,-73.5 484,-73.5 484,-54.5 411,-54.5"/>
<text text-anchor="middle" x="447.5" y="-61.5" font-family="Helvetica,sans-Serif" font-size="10.00" fill="#000000">request_mux</text>
</a>
</g>
</g>
<!-- Node76&#45;&gt;Node79 -->
<g id="edge4" class="edge">
<title>Node76&#45;&gt;Node79</title>
<path fill="none" stroke="#191970" d="M189.2296,-116.8847C232.2271,-118.6954 300.1333,-118.5583 357,-105 384.517,-98.4393 413.9191,-83.4581 431.498,-73.5376"/>
<polygon fill="#191970" stroke="#191970" points="189.2772,-113.3831 179.122,-116.4035 188.9442,-120.3752 189.2772,-113.3831"/>
</g>
<!-- Node80 -->
<g id="node6" class="node">
<title>Node80</title>
<g id="a_node6"><a xlink:href="rlm__radius__udp_8c.html#a1862560a87e2e86c88fe28897495c674" target="_top" xlink:title="Instantiate thread data for the submodule. ">
<polygon fill="none" stroke="#000000" points="538,-54.5 538,-73.5 656,-73.5 656,-54.5 538,-54.5"/>
<text text-anchor="middle" x="597" y="-61.5" font-family="Helvetica,sans-Serif" font-size="10.00" fill="#000000">mod_thread_instantiate</text>
</a>
</g>
</g>
<!-- Node79&#45;&gt;Node80 -->
<g id="edge5" class="edge">
<title>Node79&#45;&gt;Node80</title>
<path fill="none" stroke="#191970" d="M494.2874,-64C508.0739,-64 523.3432,-64 537.8004,-64"/>
<polygon fill="#191970" stroke="#191970" points="494.0718,-60.5001 484.0718,-64 494.0718,-67.5001 494.0718,-60.5001"/>
</g>
<!-- Node81&#45;&gt;Node77 -->
<g id="edge7" class="edge">
<title>Node81&#45;&gt;Node77</title>
<path fill="none" stroke="#191970" d="M192.0665,-73.1402C213.041,-75.9665 237.3954,-79.2483 256.2513,-81.7892"/>
<polygon fill="#191970" stroke="#191970" points="192.4581,-69.6614 182.0803,-71.7945 191.5232,-76.5987 192.4581,-69.6614"/>
</g>
<!-- Node82 -->
<g id="node8" class="node">
<title>Node82</title>
<g id="a_node8"><a xlink:href="rlm__radius__udp_8c.html#a7058e0e746dfb31377270a4608ff62cc" target="_top" xlink:title="Status check timedout. ">
<polygon fill="none" stroke="#000000" points="218,-38.5 218,-57.5 357,-57.5 357,-38.5 218,-38.5"/>
<text text-anchor="middle" x="287.5" y="-45.5" font-family="Helvetica,sans-Serif" font-size="10.00" fill="#000000">conn_status_check_timeout</text>
</a>
</g>
</g>
<!-- Node81&#45;&gt;Node82 -->
<g id="edge8" class="edge">
<title>Node81&#45;&gt;Node82</title>
<path fill="none" stroke="#191970" d="M192.1727,-60.8455C200.3899,-59.7382 209.1231,-58.5614 217.8391,-57.3869"/>
<polygon fill="#191970" stroke="#191970" points="191.5232,-57.4013 182.0803,-62.2055 192.4581,-64.3386 191.5232,-57.4013"/>
</g>
<!-- Node83 -->
<g id="node9" class="node">
<title>Node83</title>
<g id="a_node9"><a xlink:href="rlm__radius__udp_8c.html#a6402c81c6dae4fb1faf035df5330c403" target="_top" xlink:title="Handle retries for a request_t. ">
<polygon fill="none" stroke="#000000" points="244.5,-.5 244.5,-19.5 330.5,-19.5 330.5,-.5 244.5,-.5"/>
<text text-anchor="middle" x="287.5" y="-7.5" font-family="Helvetica,sans-Serif" font-size="10.00" fill="#000000">request_timeout</text>
</a>
</g>
</g>
<!-- Node81&#45;&gt;Node83 -->
<g id="edge10" class="edge">
<title>Node81&#45;&gt;Node83</title>
<path fill="none" stroke="#191970" d="M170.8998,-52.2949C184.4286,-44.5904 201.7565,-35.4443 218,-29 227.0692,-25.402 237.0638,-22.2327 246.578,-19.5648"/>
<polygon fill="#191970" stroke="#191970" points="169.09,-49.2984 162.2006,-57.3474 172.6057,-55.3515 169.09,-49.2984"/>
</g>
<!-- Node82&#45;&gt;Node78 -->
<g id="edge9" class="edge">
<title>Node82&#45;&gt;Node78</title>
<path fill="none" stroke="#191970" d="M341.6992,-60.6402C346.9716,-62.5132 352.1559,-64.6264 357,-67 385.5897,-81.0092 414.2364,-104.5187 431.4192,-119.8947"/>
<polygon fill="#191970" stroke="#191970" points="342.7606,-57.305 332.1681,-57.5238 340.5851,-63.9584 342.7606,-57.305"/>
</g>
<!-- Node83&#45;&gt;Node79 -->
<g id="edge11" class="edge">
<title>Node83&#45;&gt;Node79</title>
<path fill="none" stroke="#191970" d="M334.8753,-22.2538C342.3173,-24.3791 349.895,-26.6617 357,-29 380.3623,-36.6887 406.5127,-46.9914 424.6722,-54.4258"/>
<polygon fill="#191970" stroke="#191970" points="335.7943,-18.8766 325.2215,-19.559 333.9122,-25.6189 335.7943,-18.8766"/>
</g>
</g>
</svg>
        <g id="navigator" transform="translate(0 0)" fill="#404254">
                <rect fill="#f2f5e9" fill-opacity="0.5" stroke="#606060" stroke-width=".5" x="0" y="0" width="60" height="60"/>
                <use id="zoomplus" xlink:href="#zoomPlus" x="17" y="9" onmousedown="handleZoom(evt,'in')"/>
                <use id="zoomminus" xlink:href="#zoomMin" x="42" y="9" onmousedown="handleZoom(evt,'out')"/>
                <use id="reset" xlink:href="#resetDef" x="30" y="36" onmousedown="handleReset()"/>
                <g id="arrowUp" xlink:href="#dirArrow" transform="translate(30 24)" onmousedown="handlePan(0,-1)">
                  <use xlink:href="#rim" fill="#404040">
                        <set attributeName="fill" to="#808080" begin="arrowUp.mouseover" end="arrowUp.mouseout"/>
                  </use>
                  <path fill="none" stroke="white" stroke-width="1.5" d="M0,-3.0v7 M-2.5,-0.5L0,-3.0L2.5,-0.5"/>
                </g>
                <g id="arrowRight" xlink:href="#dirArrow" transform="rotate(90) translate(36 -43)" onmousedown="handlePan(1,0)">
                  <use xlink:href="#rim" fill="#404040">
                        <set attributeName="fill" to="#808080" begin="arrowRight.mouseover" end="arrowRight.mouseout"/>
                  </use>
                  <path fill="none" stroke="white" stroke-width="1.5" d="M0,-3.0v7 M-2.5,-0.5L0,-3.0L2.5,-0.5"/>
                </g>
                <g id="arrowDown" xlink:href="#dirArrow" transform="rotate(180) translate(-30 -48)" onmousedown="handlePan(0,1)">
                  <use xlink:href="#rim" fill="#404040">
                        <set attributeName="fill" to="#808080" begin="arrowDown.mouseover" end="arrowDown.mouseout"/>
                  </use>
                  <path fill="none" stroke="white" stroke-width="1.5" d="M0,-3.0v7 M-2.5,-0.5L0,-3.0L2.5,-0.5"/>
                </g>
                <g id="arrowLeft" xlink:href="#dirArrow" transform="rotate(270) translate(-36 17)" onmousedown="handlePan(-1,0)">
                  <use xlink:href="#rim" fill="#404040">
                        <set attributeName="fill" to="#808080" begin="arrowLeft.mouseover" end="arrowLeft.mouseout"/>
                  </use>
                  <path fill="none" stroke="white" stroke-width="1.5" d="M0,-3.0v7 M-2.5,-0.5L0,-3.0L2.5,-0.5"/>
                </g>
        </g>
        <svg viewBox="0 0 15 15" width="100%" height="30px" preserveAspectRatio="xMaxYMin meet">
         <g id="arrow_out" transform="scale(0.3 0.3)">
          <a xlink:href="uint128_8h_a8e36537627fd93478bc7aab5ebb5cea5_icgraph_org.svg" target="_base">
           <rect id="button" ry="5" rx="5" y="6" x="6" height="38" width="38"
                fill="#f2f5e9" fill-opacity="0.5" stroke="#606060" stroke-width="1.0"/>
           <path id="arrow"
             d="M 11.500037,31.436501 C 11.940474,20.09759 22.043105,11.32322 32.158766,21.979434 L 37.068811,17.246167 C 37.068811,17.246167 37.088388,32 37.088388,32 L 22.160133,31.978069 C 22.160133,31.978069 26.997745,27.140456 26.997745,27.140456 C 18.528582,18.264221 13.291696,25.230495 11.500037,31.436501 z"
             style="fill:#404040;"/>
          </a>
         </g>
        </svg>
</svg>
