<?xml version="1.0" encoding="UTF-8" standalone="no"?>
<!DOCTYPE svg PUBLIC "-//W3C//DTD SVG 1.1//EN"
 "http://www.w3.org/Graphics/SVG/1.1/DTD/svg11.dtd">
<!-- Generated by graphviz version 2.40.1 (20161225.0304)
 -->
<!-- Title: fr_pair_find_by_num Pages: 1 -->
<!--zoomable 545 -->
<svg id="main" version="1.1" xmlns="http://www.w3.org/2000/svg" xmlns:xlink="http://www.w3.org/1999/xlink" xml:space="preserve" onload="init(evt)">
<style type="text/css"><![CDATA[
.edge:hover path { stroke: red; }
.edge:hover polygon { stroke: red; fill: red; }
]]></style>
<script type="text/javascript"><![CDATA[
var edges = document.getElementsByTagName('g');
if (edges && edges.length) {
  for (var i=0;i<edges.length;i++) {
    if (edges[i].id.substr(0,4)=='edge') {
      edges[i].setAttribute('class','edge');
    }
  }
}
]]></script>
        <defs>
                <circle id="rim" cx="0" cy="0" r="7"/>
                <circle id="rim2" cx="0" cy="0" r="3.5"/>
                <g id="zoomPlus">
                        <use xlink:href="#rim" fill="#404040">
                                <set attributeName="fill" to="#808080" begin="zoomplus.mouseover" end="zoomplus.mouseout"/>
                        </use>
                        <path d="M-4,0h8M0,-4v8" fill="none" stroke="white" stroke-width="1.5" pointer-events="none"/>
                </g>
                <g id="zoomMin">
                        <use xlink:href="#rim" fill="#404040">
                                <set attributeName="fill" to="#808080" begin="zoomminus.mouseover" end="zoomminus.mouseout"/>
                        </use>
                        <path d="M-4,0h8" fill="none" stroke="white" stroke-width="1.5" pointer-events="none"/>
                </g>
                <g id="dirArrow">
                        <path fill="none" stroke="white" stroke-width="1.5" d="M0,-3.0v7 M-2.5,-0.5L0,-3.0L2.5,-0.5"/>
                </g>
               <g id="resetDef">
                       <use xlink:href="#rim2" fill="#404040">
                               <set attributeName="fill" to="#808080" begin="reset.mouseover" end="reset.mouseout"/>
                       </use>
               </g>
        </defs>

<script type="text/javascript">
var viewWidth = 773;
var viewHeight = 545;
var sectionId = 'dynsection-41';
</script>
<script xlink:href="svgpan.js"/>
<svg id="graph" class="graph">
<g id="viewport">
<title>fr_pair_find_by_num</title>
<!-- Node13306 -->
<g id="node1" class="node">
<title>Node13306</title>
<polygon fill="#bfbfbf" stroke="#000000" points="0,-266.5 0,-285.5 104,-285.5 104,-266.5 0,-266.5"/>
<text text-anchor="middle" x="52" y="-273.5" font-family="Helvetica,sans-Serif" font-size="10.00" fill="#000000">fr_pair_find_by_num</text>
</g>
<!-- Node13307 -->
<g id="node2" class="node">
<title>Node13307</title>
<g id="a_node2"><a xlink:href="util_2pair_8h.html#a165413d9c815173e48a32243161143c5" target="_top" xlink:title="Initialise a cursor that will return only attributes descended from the specified fr_dict_attr_t...">
<polygon fill="none" stroke="#000000" points="140,-397.5 140,-416.5 290,-416.5 290,-397.5 140,-397.5"/>
<text text-anchor="middle" x="215" y="-404.5" font-family="Helvetica,sans-Serif" font-size="10.00" fill="#000000">fr_cursor_iter_by_ancestor_init</text>
</a>
</g>
</g>
<!-- Node13306&#45;&gt;Node13307 -->
<g id="edge1" class="edge">
<title>Node13306&#45;&gt;Node13307</title>
<path fill="none" stroke="#191970" d="M71.8936,-291.9881C106.1308,-319.5039 175.1906,-375.0059 202.9967,-397.3531"/>
<polygon fill="#191970" stroke="#191970" points="73.973,-289.1691 63.9858,-285.6327 69.5879,-294.6254 73.973,-289.1691"/>
</g>
<!-- Node13319 -->
<g id="node14" class="node">
<title>Node13319</title>
<g id="a_node14"><a xlink:href="auth_8h.html#aa6ec1b9627357ae76bacbf9c624d08c3" target="_top" xlink:title="rad_virtual_server">
<polygon fill="none" stroke="#000000" points="168,-266.5 168,-285.5 262,-285.5 262,-266.5 168,-266.5"/>
<text text-anchor="middle" x="215" y="-273.5" font-family="Helvetica,sans-Serif" font-size="10.00" fill="#000000">rad_virtual_server</text>
</a>
</g>
</g>
<!-- Node13306&#45;&gt;Node13319 -->
<g id="edge13" class="edge">
<title>Node13306&#45;&gt;Node13319</title>
<path fill="none" stroke="#191970" d="M114.3155,-276C132.0979,-276 151.1722,-276 167.8844,-276"/>
<polygon fill="#191970" stroke="#191970" points="114.0224,-272.5001 104.0224,-276 114.0223,-279.5001 114.0224,-272.5001"/>
</g>
<!-- Node13333 -->
<g id="node23" class="node">
<title>Node13333</title>
<g id="a_node23"><a xlink:href="paircmp_8h.html#a1ce534420254a0c196b7d45c3d7405cc" target="_top" xlink:title="Compare two pair lists except for the password information. ">
<polygon fill="none" stroke="#000000" points="189.5,-76.5 189.5,-95.5 240.5,-95.5 240.5,-76.5 189.5,-76.5"/>
<text text-anchor="middle" x="215" y="-83.5" font-family="Helvetica,sans-Serif" font-size="10.00" fill="#000000">paircmp</text>
</a>
</g>
</g>
<!-- Node13306&#45;&gt;Node13333 -->
<g id="edge24" class="edge">
<title>Node13306&#45;&gt;Node13333</title>
<path fill="none" stroke="#191970" d="M67.0718,-258.4316C100.5746,-219.3793 180.3335,-126.4088 206.514,-95.8917"/>
<polygon fill="#191970" stroke="#191970" points="64.1621,-256.448 60.3073,-266.3167 69.4749,-261.0058 64.1621,-256.448"/>
</g>
<!-- Node13308 -->
<g id="node3" class="node">
<title>Node13308</title>
<g id="a_node3"><a xlink:href="password_8h.html#ab632a24a65aecb85f631b203c997d967" target="_top" xlink:title="Find all password attributes in the control list of a request and normalise them. ...">
<polygon fill="none" stroke="#000000" points="334,-343 334,-373 440,-373 440,-343 334,-343"/>
<text text-anchor="start" x="342" y="-361" font-family="Helvetica,sans-Serif" font-size="10.00" fill="#000000">password_normalise</text>
<text text-anchor="middle" x="387" y="-350" font-family="Helvetica,sans-Serif" font-size="10.00" fill="#000000">_and_replace</text>
</a>
</g>
</g>
<!-- Node13307&#45;&gt;Node13308 -->
<g id="edge2" class="edge">
<title>Node13307&#45;&gt;Node13308</title>
<path fill="none" stroke="#191970" d="M258.4062,-394.6343C281.4358,-388.0735 309.9169,-379.9597 334.2172,-373.037"/>
<polygon fill="#191970" stroke="#191970" points="257.23,-391.33 248.5716,-397.436 259.148,-398.0622 257.23,-391.33"/>
</g>
<!-- Node13309 -->
<g id="node4" class="node">
<title>Node13309</title>
<g id="a_node4"><a xlink:href="password_8h.html#a6b44d8c623dd818b6330481f829519b4" target="_top" xlink:title="Find a &quot;known good&quot; password in the control list of a request. ">
<polygon fill="none" stroke="#000000" points="347,-479.5 347,-498.5 427,-498.5 427,-479.5 347,-479.5"/>
<text text-anchor="middle" x="387" y="-486.5" font-family="Helvetica,sans-Serif" font-size="10.00" fill="#000000">password_find</text>
</a>
</g>
</g>
<!-- Node13307&#45;&gt;Node13309 -->
<g id="edge3" class="edge">
<title>Node13307&#45;&gt;Node13309</title>
<path fill="none" stroke="#191970" d="M238.1673,-422.1012C260.1143,-435.9289 294.3361,-456.2721 326,-470 334.1415,-473.5297 343.1515,-476.7089 351.6923,-479.4118"/>
<polygon fill="#191970" stroke="#191970" points="239.8701,-419.0361 229.5562,-416.6123 236.1075,-424.9389 239.8701,-419.0361"/>
</g>
<!-- Node13315 -->
<g id="node10" class="node">
<title>Node13315</title>
<g id="a_node10"><a xlink:href="stats_8h.html#a8855e6bc7b32c541771c3d2459da74d7" target="_top" xlink:title="fr_snmp_process">
<polygon fill="none" stroke="#000000" points="341,-441.5 341,-460.5 433,-460.5 433,-441.5 341,-441.5"/>
<text text-anchor="middle" x="387" y="-448.5" font-family="Helvetica,sans-Serif" font-size="10.00" fill="#000000">fr_snmp_process</text>
</a>
</g>
</g>
<!-- Node13307&#45;&gt;Node13315 -->
<g id="edge9" class="edge">
<title>Node13307&#45;&gt;Node13315</title>
<path fill="none" stroke="#191970" d="M262.1505,-419.0617C289.7359,-426.1185 324.0731,-434.9024 349.7514,-441.4713"/>
<polygon fill="#191970" stroke="#191970" points="262.8769,-415.6349 252.3214,-416.5473 261.142,-422.4166 262.8769,-415.6349"/>
</g>
<!-- Node13316 -->
<g id="node11" class="node">
<title>Node13316</title>
<g id="a_node11"><a xlink:href="util_2pair_8h.html#a0e69efb827c473c92dfe3d696da17254" target="_top" xlink:title="Duplicate pairs in a list where the da is a descendant of parent_da. ">
<polygon fill="none" stroke="#000000" points="335,-392 335,-422 439,-422 439,-392 335,-392"/>
<text text-anchor="start" x="343" y="-410" font-family="Helvetica,sans-Serif" font-size="10.00" fill="#000000">fr_pair_list_copy_by</text>
<text text-anchor="middle" x="387" y="-399" font-family="Helvetica,sans-Serif" font-size="10.00" fill="#000000">_ancestor</text>
</a>
</g>
</g>
<!-- Node13307&#45;&gt;Node13316 -->
<g id="edge10" class="edge">
<title>Node13307&#45;&gt;Node13316</title>
<path fill="none" stroke="#191970" d="M300.4995,-407C312.2581,-407 324.0292,-407 334.9335,-407"/>
<polygon fill="#191970" stroke="#191970" points="300.1915,-403.5001 290.1915,-407 300.1915,-410.5001 300.1915,-403.5001"/>
</g>
<!-- Node13310 -->
<g id="node5" class="node">
<title>Node13310</title>
<g id="a_node5"><a xlink:href="rlm__chap_8c.html#a5064f3414517fe7c948694ed0dbad050" target="_top" xlink:title="mod_authenticate">
<polygon fill="none" stroke="#000000" points="502,-479.5 502,-498.5 596,-498.5 596,-479.5 502,-479.5"/>
<text text-anchor="middle" x="549" y="-486.5" font-family="Helvetica,sans-Serif" font-size="10.00" fill="#000000">mod_authenticate</text>
</a>
</g>
</g>
<!-- Node13309&#45;&gt;Node13310 -->
<g id="edge4" class="edge">
<title>Node13309&#45;&gt;Node13310</title>
<path fill="none" stroke="#191970" d="M437.2088,-489C457.8545,-489 481.6357,-489 501.9423,-489"/>
<polygon fill="#191970" stroke="#191970" points="437.045,-485.5001 427.045,-489 437.0449,-492.5001 437.045,-485.5001"/>
</g>
<!-- Node13311 -->
<g id="node6" class="node">
<title>Node13311</title>
<g id="a_node6"><a xlink:href="rlm__eap__md5_8c.html#ac383fd55ca747af3d93dfbd3fd247708" target="_top" xlink:title="mod_process">
<polygon fill="none" stroke="#000000" points="511.5,-441.5 511.5,-460.5 586.5,-460.5 586.5,-441.5 511.5,-441.5"/>
<text text-anchor="middle" x="549" y="-448.5" font-family="Helvetica,sans-Serif" font-size="10.00" fill="#000000">mod_process</text>
</a>
</g>
</g>
<!-- Node13309&#45;&gt;Node13311 -->
<g id="edge5" class="edge">
<title>Node13309&#45;&gt;Node13311</title>
<path fill="none" stroke="#191970" d="M437.0289,-477.2648C461.0043,-471.641 489.2416,-465.0174 511.3614,-459.8288"/>
<polygon fill="#191970" stroke="#191970" points="435.9814,-473.9155 427.045,-479.6067 437.58,-480.7305 435.9814,-473.9155"/>
</g>
<!-- Node13313 -->
<g id="node8" class="node">
<title>Node13313</title>
<g id="a_node8"><a xlink:href="rlm__mschap_8c.html#a0c5fec0a2e4bbcb4a2bfd5834744338a" target="_top" xlink:title="Find an NT&#45;Password value, or create one from a Cleartext&#45;Password, or Password&#45;With&#45;Header attribute...">
<polygon fill="none" stroke="#000000" points="502.5,-517.5 502.5,-536.5 595.5,-536.5 595.5,-517.5 502.5,-517.5"/>
<text text-anchor="middle" x="549" y="-524.5" font-family="Helvetica,sans-Serif" font-size="10.00" fill="#000000">nt_password_find</text>
</a>
</g>
</g>
<!-- Node13309&#45;&gt;Node13313 -->
<g id="edge7" class="edge">
<title>Node13309&#45;&gt;Node13313</title>
<path fill="none" stroke="#191970" d="M436.9262,-500.7111C459.8281,-506.0831 486.6364,-512.3715 508.2905,-517.4509"/>
<polygon fill="#191970" stroke="#191970" points="437.58,-497.2695 427.045,-498.3933 435.9814,-504.0845 437.58,-497.2695"/>
</g>
<!-- Node13312 -->
<g id="node7" class="node">
<title>Node13312</title>
<g id="a_node7"><a xlink:href="rlm__eap__md5_8c.html#a55f13586b681eface2b8683fb2f0d829" target="_top" xlink:title="mod_session_init">
<polygon fill="none" stroke="#000000" points="661.5,-441.5 661.5,-460.5 753.5,-460.5 753.5,-441.5 661.5,-441.5"/>
<text text-anchor="middle" x="707.5" y="-448.5" font-family="Helvetica,sans-Serif" font-size="10.00" fill="#000000">mod_session_init</text>
</a>
</g>
</g>
<!-- Node13311&#45;&gt;Node13312 -->
<g id="edge6" class="edge">
<title>Node13311&#45;&gt;Node13312</title>
<path fill="none" stroke="#191970" d="M596.6438,-451C617.1722,-451 641.0844,-451 661.434,-451"/>
<polygon fill="#191970" stroke="#191970" points="596.5623,-447.5001 586.5623,-451 596.5623,-454.5001 596.5623,-447.5001"/>
</g>
<!-- Node13314 -->
<g id="node9" class="node">
<title>Node13314</title>
<g id="a_node9"><a xlink:href="rlm__mschap_8c.html#a6dab4bbc315ece5039fc5c69f93cda26" target="_top" xlink:title="mod_authenticate">
<polygon fill="none" stroke="#000000" points="660.5,-517.5 660.5,-536.5 754.5,-536.5 754.5,-517.5 660.5,-517.5"/>
<text text-anchor="middle" x="707.5" y="-524.5" font-family="Helvetica,sans-Serif" font-size="10.00" fill="#000000">mod_authenticate</text>
</a>
</g>
</g>
<!-- Node13313&#45;&gt;Node13314 -->
<g id="edge8" class="edge">
<title>Node13313&#45;&gt;Node13314</title>
<path fill="none" stroke="#191970" d="M605.7207,-527C623.608,-527 643.1654,-527 660.3136,-527"/>
<polygon fill="#191970" stroke="#191970" points="605.698,-523.5001 595.698,-527 605.6979,-530.5001 605.698,-523.5001"/>
</g>
<!-- Node13317 -->
<g id="node12" class="node">
<title>Node13317</title>
<g id="a_node12"><a xlink:href="proto__dhcpv6__process_8c.html#a1e54da13eb8d98b9007496f68c6fc0de" target="_top" xlink:title="Generate a reply using the attributes we received in the request. ">
<polygon fill="none" stroke="#000000" points="491.5,-397.5 491.5,-416.5 606.5,-416.5 606.5,-397.5 491.5,-397.5"/>
<text text-anchor="middle" x="549" y="-404.5" font-family="Helvetica,sans-Serif" font-size="10.00" fill="#000000">dhcpv6_reply_initialise</text>
</a>
</g>
</g>
<!-- Node13316&#45;&gt;Node13317 -->
<g id="edge11" class="edge">
<title>Node13316&#45;&gt;Node13317</title>
<path fill="none" stroke="#191970" d="M449.4984,-407C463.2604,-407 477.7752,-407 491.336,-407"/>
<polygon fill="#191970" stroke="#191970" points="449.1496,-403.5001 439.1495,-407 449.1495,-410.5001 449.1496,-403.5001"/>
</g>
<!-- Node13318 -->
<g id="node13" class="node">
<title>Node13318</title>
<g id="a_node13"><a xlink:href="proto__dhcpv6__process_8c.html#ac383fd55ca747af3d93dfbd3fd247708" target="_top" xlink:title="mod_process">
<polygon fill="none" stroke="#000000" points="670,-397.5 670,-416.5 745,-416.5 745,-397.5 670,-397.5"/>
<text text-anchor="middle" x="707.5" y="-404.5" font-family="Helvetica,sans-Serif" font-size="10.00" fill="#000000">mod_process</text>
</a>
</g>
</g>
<!-- Node13317&#45;&gt;Node13318 -->
<g id="edge12" class="edge">
<title>Node13317&#45;&gt;Node13318</title>
<path fill="none" stroke="#191970" d="M616.6814,-407C634.9008,-407 653.9539,-407 669.8765,-407"/>
<polygon fill="#191970" stroke="#191970" points="616.6705,-403.5001 606.6705,-407 616.6705,-410.5001 616.6705,-403.5001"/>
</g>
<!-- Node13320 -->
<g id="node15" class="node">
<title>Node13320</title>
<g id="a_node15"><a xlink:href="eap_2base_8h.html#a030557871e22033f0a2ba47e4b8017d2" target="_top" xlink:title="Run a subrequest through a virtual server, managing the eap_session_t of the child. ">
<polygon fill="none" stroke="#000000" points="339,-266.5 339,-285.5 435,-285.5 435,-266.5 339,-266.5"/>
<text text-anchor="middle" x="387" y="-273.5" font-family="Helvetica,sans-Serif" font-size="10.00" fill="#000000">eap_virtual_server</text>
</a>
</g>
</g>
<!-- Node13319&#45;&gt;Node13320 -->
<g id="edge14" class="edge">
<title>Node13319&#45;&gt;Node13320</title>
<path fill="none" stroke="#191970" d="M272.4551,-276C293.9816,-276 318.1996,-276 338.8034,-276"/>
<polygon fill="#191970" stroke="#191970" points="272.4551,-272.5001 262.4551,-276 272.455,-279.5001 272.4551,-272.5001"/>
</g>
<!-- Node13326 -->
<g id="node18" class="node">
<title>Node13326</title>
<g id="a_node18"><a xlink:href="peap_8c.html#ac34e64db8670982e511cc76abab718f0" target="_top" xlink:title="eap_peap_process">
<polygon fill="none" stroke="#000000" points="500,-304.5 500,-323.5 598,-323.5 598,-304.5 500,-304.5"/>
<text text-anchor="middle" x="549" y="-311.5" font-family="Helvetica,sans-Serif" font-size="10.00" fill="#000000">eap_peap_process</text>
</a>
</g>
</g>
<!-- Node13319&#45;&gt;Node13326 -->
<g id="edge23" class="edge">
<title>Node13319&#45;&gt;Node13326</title>
<path fill="none" stroke="#191970" d="M272.0725,-286.72C289.3518,-289.7086 308.4107,-292.7494 326,-295 385.5463,-302.6192 454.4419,-307.9622 499.7133,-311.0012"/>
<polygon fill="#191970" stroke="#191970" points="272.5838,-283.2563 262.1289,-284.9728 271.3723,-290.1507 272.5838,-283.2563"/>
</g>
<!-- Node13332 -->
<g id="node22" class="node">
<title>Node13332</title>
<g id="a_node22"><a xlink:href="chbind_8h.html#aad9f68ec81aaa3a71eb1935fea7a5a64" target="_top" xlink:title="chbind_process">
<polygon fill="none" stroke="#000000" points="344.5,-228.5 344.5,-247.5 429.5,-247.5 429.5,-228.5 344.5,-228.5"/>
<text text-anchor="middle" x="387" y="-235.5" font-family="Helvetica,sans-Serif" font-size="10.00" fill="#000000">chbind_process</text>
</a>
</g>
</g>
<!-- Node13319&#45;&gt;Node13332 -->
<g id="edge21" class="edge">
<title>Node13319&#45;&gt;Node13332</title>
<path fill="none" stroke="#191970" d="M268.2341,-264.239C292.6517,-258.8444 321.2128,-252.5344 344.2069,-247.4543"/>
<polygon fill="#191970" stroke="#191970" points="267.4123,-260.836 258.4029,-266.411 268.9225,-267.6712 267.4123,-260.836"/>
</g>
<!-- Node13321 -->
<g id="node16" class="node">
<title>Node13321</title>
<g id="a_node16"><a xlink:href="eap__fast_8c.html#aca7e4bebc6d0022aefb595b51969ec7f" target="_top" xlink:title="eap_fast_eap_payload">
<polygon fill="none" stroke="#000000" points="492,-266.5 492,-285.5 606,-285.5 606,-266.5 492,-266.5"/>
<text text-anchor="middle" x="549" y="-273.5" font-family="Helvetica,sans-Serif" font-size="10.00" fill="#000000">eap_fast_eap_payload</text>
</a>
</g>
</g>
<!-- Node13320&#45;&gt;Node13321 -->
<g id="edge15" class="edge">
<title>Node13320&#45;&gt;Node13321</title>
<path fill="none" stroke="#191970" d="M445.4273,-276C460.5532,-276 476.8205,-276 491.8786,-276"/>
<polygon fill="#191970" stroke="#191970" points="445.1668,-272.5001 435.1667,-276 445.1667,-279.5001 445.1668,-272.5001"/>
</g>
<!-- Node13320&#45;&gt;Node13326 -->
<g id="edge17" class="edge">
<title>Node13320&#45;&gt;Node13326</title>
<path fill="none" stroke="#191970" d="M437.7148,-287.8961C460.4856,-293.2374 486.9867,-299.4537 508.4145,-304.4799"/>
<polygon fill="#191970" stroke="#191970" points="438.4145,-284.4653 427.8794,-285.589 436.8159,-291.2803 438.4145,-284.4653"/>
</g>
<!-- Node13329 -->
<g id="node20" class="node">
<title>Node13329</title>
<g id="a_node20"><a xlink:href="ttls_8c.html#a8df257c515a80b413f685c94ba4e8096" target="_top" xlink:title="eap_ttls_process">
<polygon fill="none" stroke="#000000" points="503.5,-228.5 503.5,-247.5 594.5,-247.5 594.5,-228.5 503.5,-228.5"/>
<text text-anchor="middle" x="549" y="-235.5" font-family="Helvetica,sans-Serif" font-size="10.00" fill="#000000">eap_ttls_process</text>
</a>
</g>
</g>
<!-- Node13320&#45;&gt;Node13329 -->
<g id="edge19" class="edge">
<title>Node13320&#45;&gt;Node13329</title>
<path fill="none" stroke="#191970" d="M437.7148,-264.1039C460.4856,-258.7626 486.9867,-252.5463 508.4145,-247.5201"/>
<polygon fill="#191970" stroke="#191970" points="436.8159,-260.7197 427.8794,-266.411 438.4145,-267.5347 436.8159,-260.7197"/>
</g>
<!-- Node13322 -->
<g id="node17" class="node">
<title>Node13322</title>
<g id="a_node17"><a xlink:href="eap__fast_8c.html#ab47c138f5518687fc862bb1febf80db8" target="_top" xlink:title="eap_fast_process_tlvs">
<polygon fill="none" stroke="#ff0000" points="650,-266.5 650,-285.5 765,-285.5 765,-266.5 650,-266.5"/>
<text text-anchor="middle" x="707.5" y="-273.5" font-family="Helvetica,sans-Serif" font-size="10.00" fill="#000000">eap_fast_process_tlvs</text>
</a>
</g>
</g>
<!-- Node13321&#45;&gt;Node13322 -->
<g id="edge16" class="edge">
<title>Node13321&#45;&gt;Node13322</title>
<path fill="none" stroke="#191970" d="M616.3404,-276C627.4848,-276 638.9508,-276 649.8295,-276"/>
<polygon fill="#191970" stroke="#191970" points="616.2222,-272.5001 606.2221,-276 616.2221,-279.5001 616.2222,-272.5001"/>
</g>
<!-- Node13327 -->
<g id="node19" class="node">
<title>Node13327</title>
<g id="a_node19"><a xlink:href="rlm__eap__peap_8c.html#a1ee517a20d1254bcde78063a1e36840c" target="_top" xlink:title="mod_process">
<polygon fill="none" stroke="#ff0000" points="670,-304.5 670,-323.5 745,-323.5 745,-304.5 670,-304.5"/>
<text text-anchor="middle" x="707.5" y="-311.5" font-family="Helvetica,sans-Serif" font-size="10.00" fill="#000000">mod_process</text>
</a>
</g>
</g>
<!-- Node13326&#45;&gt;Node13327 -->
<g id="edge18" class="edge">
<title>Node13326&#45;&gt;Node13327</title>
<path fill="none" stroke="#191970" d="M608.5101,-314C629.0678,-314 651.5183,-314 669.8341,-314"/>
<polygon fill="#191970" stroke="#191970" points="608.2816,-310.5001 598.2816,-314 608.2815,-317.5001 608.2816,-310.5001"/>
</g>
<!-- Node13330 -->
<g id="node21" class="node">
<title>Node13330</title>
<g id="a_node21"><a xlink:href="rlm__eap__ttls_8c.html#a1ee517a20d1254bcde78063a1e36840c" target="_top" xlink:title="mod_process">
<polygon fill="none" stroke="#ff0000" points="670,-228.5 670,-247.5 745,-247.5 745,-228.5 670,-228.5"/>
<text text-anchor="middle" x="707.5" y="-235.5" font-family="Helvetica,sans-Serif" font-size="10.00" fill="#000000">mod_process</text>
</a>
</g>
</g>
<!-- Node13329&#45;&gt;Node13330 -->
<g id="edge20" class="edge">
<title>Node13329&#45;&gt;Node13330</title>
<path fill="none" stroke="#191970" d="M605.1335,-238C626.5594,-238 650.4556,-238 669.7681,-238"/>
<polygon fill="#191970" stroke="#191970" points="604.8448,-234.5001 594.8448,-238 604.8447,-241.5001 604.8448,-234.5001"/>
</g>
<!-- Node13332&#45;&gt;Node13329 -->
<g id="edge22" class="edge">
<title>Node13332&#45;&gt;Node13329</title>
<path fill="none" stroke="#191970" d="M439.6982,-238C460.2217,-238 483.5179,-238 503.3147,-238"/>
<polygon fill="#191970" stroke="#191970" points="439.5636,-234.5001 429.5636,-238 439.5636,-241.5001 439.5636,-234.5001"/>
</g>
<!-- Node13334 -->
<g id="node24" class="node">
<title>Node13334</title>
<g id="a_node24"><a xlink:href="cond__eval_8c.html#a3f22c6951a59e10793dfe7e752014ee2" target="_top" xlink:title="Call the correct data comparison function for the condition. ">
<polygon fill="none" stroke="#000000" points="339.5,-.5 339.5,-19.5 434.5,-19.5 434.5,-.5 339.5,-.5"/>
<text text-anchor="middle" x="387" y="-7.5" font-family="Helvetica,sans-Serif" font-size="10.00" fill="#000000">cond_cmp_values</text>
</a>
</g>
</g>
<!-- Node13333&#45;&gt;Node13334 -->
<g id="edge25" class="edge">
<title>Node13333&#45;&gt;Node13334</title>
<path fill="none" stroke="#191970" d="M240.2567,-71.4396C262.3794,-59.0752 295.6471,-41.412 326,-29 334.5215,-25.5154 343.9295,-22.293 352.7535,-19.5293"/>
<polygon fill="#191970" stroke="#191970" points="238.4866,-68.4196 231.4989,-76.3834 241.9278,-74.5154 238.4866,-68.4196"/>
</g>
<!-- Node13395 -->
<g id="node27" class="node">
<title>Node13395</title>
<g id="a_node27"><a xlink:href="rlm__files_8c.html#a5513d7eff1d477de518134494cae3265" target="_top" xlink:title="file_common">
<polygon fill="none" stroke="#000000" points="351,-114.5 351,-133.5 423,-133.5 423,-114.5 351,-114.5"/>
<text text-anchor="middle" x="387" y="-121.5" font-family="Helvetica,sans-Serif" font-size="10.00" fill="#000000">file_common</text>
</a>
</g>
</g>
<!-- Node13333&#45;&gt;Node13395 -->
<g id="edge28" class="edge">
<title>Node13333&#45;&gt;Node13395</title>
<path fill="none" stroke="#191970" d="M250.5853,-93.8619C279.9295,-100.3449 321.3786,-109.5023 350.8711,-116.018"/>
<polygon fill="#191970" stroke="#191970" points="251.2698,-90.4288 240.7501,-91.689 249.7596,-97.2639 251.2698,-90.4288"/>
</g>
<!-- Node13400 -->
<g id="node32" class="node">
<title>Node13400</title>
<g id="a_node32"><a xlink:href="rlm__sql_8c.html#a3e6a6dd9d35941a5801b400cefcdb8ca" target="_top" xlink:title="rlm_sql_process_groups">
<polygon fill="none" stroke="#000000" points="326,-38.5 326,-57.5 448,-57.5 448,-38.5 326,-38.5"/>
<text text-anchor="middle" x="387" y="-45.5" font-family="Helvetica,sans-Serif" font-size="10.00" fill="#000000">rlm_sql_process_groups</text>
</a>
</g>
</g>
<!-- Node13333&#45;&gt;Node13400 -->
<g id="edge33" class="edge">
<title>Node13333&#45;&gt;Node13400</title>
<path fill="none" stroke="#191970" d="M250.568,-78.1419C277.6006,-72.1696 314.9132,-63.9262 343.6856,-57.5695"/>
<polygon fill="#191970" stroke="#191970" points="249.7596,-74.7361 240.7501,-80.311 251.2698,-81.5712 249.7596,-74.7361"/>
</g>
<!-- Node13401 -->
<g id="node33" class="node">
<title>Node13401</title>
<g id="a_node33"><a xlink:href="rlm__sql_8c.html#a9ef7a569b6f2f01a9ba088072c54e516" target="_top" xlink:title="mod_authorize">
<polygon fill="none" stroke="#000000" points="509,-38.5 509,-57.5 589,-57.5 589,-38.5 509,-38.5"/>
<text text-anchor="middle" x="549" y="-45.5" font-family="Helvetica,sans-Serif" font-size="10.00" fill="#000000">mod_authorize</text>
</a>
</g>
</g>
<!-- Node13333&#45;&gt;Node13401 -->
<g id="edge35" class="edge">
<title>Node13333&#45;&gt;Node13401</title>
<path fill="none" stroke="#191970" d="M250.6332,-84.2549C296.4494,-81.7454 378.404,-76.3577 448,-67 468.1588,-64.2895 490.3923,-60.2253 508.8552,-56.5505"/>
<polygon fill="#191970" stroke="#191970" points="250.4068,-80.7619 240.6074,-84.7895 250.7796,-87.752 250.4068,-80.7619"/>
</g>
<!-- Node13335 -->
<g id="node25" class="node">
<title>Node13335</title>
<g id="a_node25"><a xlink:href="cond__eval_8c.html#a1f1d11058fc89e985d75668f5ba6356b" target="_top" xlink:title="Convert both operands to the same type. ">
<polygon fill="none" stroke="#000000" points="484,-.5 484,-19.5 614,-19.5 614,-.5 484,-.5"/>
<text text-anchor="middle" x="549" y="-7.5" font-family="Helvetica,sans-Serif" font-size="10.00" fill="#000000">cond_normalise_and_cmp</text>
</a>
</g>
</g>
<!-- Node13334&#45;&gt;Node13335 -->
<g id="edge26" class="edge">
<title>Node13334&#45;&gt;Node13335</title>
<path fill="none" stroke="#191970" d="M445.0842,-10C457.6724,-10 471.0653,-10 483.9034,-10"/>
<polygon fill="#191970" stroke="#191970" points="444.7292,-6.5001 434.7291,-10 444.7291,-13.5001 444.7292,-6.5001"/>
</g>
<!-- Node13336 -->
<g id="node26" class="node">
<title>Node13336</title>
<g id="a_node26"><a xlink:href="cond__eval_8c.html#ab27229c9ec6ad5533f687ec2cddc7818" target="_top" xlink:title="Evaluate a map. ">
<polygon fill="none" stroke="#ff0000" points="665,-.5 665,-19.5 750,-19.5 750,-.5 665,-.5"/>
<text text-anchor="middle" x="707.5" y="-7.5" font-family="Helvetica,sans-Serif" font-size="10.00" fill="#000000">cond_eval_map</text>
</a>
</g>
</g>
<!-- Node13335&#45;&gt;Node13336 -->
<g id="edge27" class="edge">
<title>Node13335&#45;&gt;Node13336</title>
<path fill="none" stroke="#191970" d="M624.4529,-10C638.3537,-10 652.4106,-10 664.9077,-10"/>
<polygon fill="#191970" stroke="#191970" points="624.3831,-6.5001 614.3831,-10 624.3831,-13.5001 624.3831,-6.5001"/>
</g>
<!-- Node13396 -->
<g id="node28" class="node">
<title>Node13396</title>
<g id="a_node28"><a xlink:href="rlm__files_8c.html#a9ef7a569b6f2f01a9ba088072c54e516" target="_top" xlink:title="mod_authorize">
<polygon fill="none" stroke="#000000" points="509,-152.5 509,-171.5 589,-171.5 589,-152.5 509,-152.5"/>
<text text-anchor="middle" x="549" y="-159.5" font-family="Helvetica,sans-Serif" font-size="10.00" fill="#000000">mod_authorize</text>
</a>
</g>
</g>
<!-- Node13395&#45;&gt;Node13396 -->
<g id="edge29" class="edge">
<title>Node13395&#45;&gt;Node13396</title>
<path fill="none" stroke="#191970" d="M433.2381,-134.846C457.0784,-140.4381 485.877,-147.1934 508.786,-152.5671"/>
<polygon fill="#191970" stroke="#191970" points="433.891,-131.4042 423.356,-132.5279 432.2924,-138.2192 433.891,-131.4042"/>
</g>
<!-- Node13397 -->
<g id="node29" class="node">
<title>Node13397</title>
<g id="a_node29"><a xlink:href="rlm__files_8c.html#a73815afba1a2e772075dea2daf0d96f6" target="_top" xlink:title="mod_preacct">
<polygon fill="none" stroke="#000000" points="512.5,-114.5 512.5,-133.5 585.5,-133.5 585.5,-114.5 512.5,-114.5"/>
<text text-anchor="middle" x="549" y="-121.5" font-family="Helvetica,sans-Serif" font-size="10.00" fill="#000000">mod_preacct</text>
</a>
</g>
</g>
<!-- Node13395&#45;&gt;Node13397 -->
<g id="edge30" class="edge">
<title>Node13395&#45;&gt;Node13397</title>
<path fill="none" stroke="#191970" d="M433.3919,-124C458.5056,-124 489.0856,-124 512.4855,-124"/>
<polygon fill="#191970" stroke="#191970" points="433.356,-120.5001 423.356,-124 433.3559,-127.5001 433.356,-120.5001"/>
</g>
<!-- Node13398 -->
<g id="node30" class="node">
<title>Node13398</title>
<g id="a_node30"><a xlink:href="rlm__files_8c.html#a6dab4bbc315ece5039fc5c69f93cda26" target="_top" xlink:title="mod_authenticate">
<polygon fill="none" stroke="#000000" points="502,-76.5 502,-95.5 596,-95.5 596,-76.5 502,-76.5"/>
<text text-anchor="middle" x="549" y="-83.5" font-family="Helvetica,sans-Serif" font-size="10.00" fill="#000000">mod_authenticate</text>
</a>
</g>
</g>
<!-- Node13395&#45;&gt;Node13398 -->
<g id="edge31" class="edge">
<title>Node13395&#45;&gt;Node13398</title>
<path fill="none" stroke="#191970" d="M433.2005,-113.1628C456.948,-107.5924 485.623,-100.8662 508.4969,-95.5007"/>
<polygon fill="#191970" stroke="#191970" points="432.2924,-109.7808 423.356,-115.4721 433.891,-116.5958 432.2924,-109.7808"/>
</g>
<!-- Node13399 -->
<g id="node31" class="node">
<title>Node13399</title>
<g id="a_node31"><a xlink:href="rlm__files_8c.html#afdf6220a949e3c5c9b5cdafc6bb60513" target="_top" xlink:title="mod_post_auth">
<polygon fill="none" stroke="#000000" points="507.5,-190.5 507.5,-209.5 590.5,-209.5 590.5,-190.5 507.5,-190.5"/>
<text text-anchor="middle" x="549" y="-197.5" font-family="Helvetica,sans-Serif" font-size="10.00" fill="#000000">mod_post_auth</text>
</a>
</g>
</g>
<!-- Node13395&#45;&gt;Node13399 -->
<g id="edge32" class="edge">
<title>Node13395&#45;&gt;Node13399</title>
<path fill="none" stroke="#191970" d="M409.2048,-139.1948C428.3438,-151.758 457.0663,-169.3632 484,-181 492.4183,-184.6371 501.7409,-187.8218 510.6353,-190.492"/>
<polygon fill="#191970" stroke="#191970" points="411.141,-136.2792 400.8778,-133.649 407.2608,-142.1054 411.141,-136.2792"/>
</g>
<!-- Node13400&#45;&gt;Node13401 -->
<g id="edge34" class="edge">
<title>Node13400&#45;&gt;Node13401</title>
<path fill="none" stroke="#191970" d="M458.3293,-48C475.6144,-48 493.4955,-48 508.7632,-48"/>
<polygon fill="#191970" stroke="#191970" points="458.2453,-44.5001 448.2453,-48 458.2452,-51.5001 458.2453,-44.5001"/>
</g>
</g>
</svg>
        <g id="navigator" transform="translate(0 0)" fill="#404254">
                <rect fill="#f2f5e9" fill-opacity="0.5" stroke="#606060" stroke-width=".5" x="0" y="0" width="60" height="60"/>
                <use id="zoomplus" xlink:href="#zoomPlus" x="17" y="9" onmousedown="handleZoom(evt,'in')"/>
                <use id="zoomminus" xlink:href="#zoomMin" x="42" y="9" onmousedown="handleZoom(evt,'out')"/>
                <use id="reset" xlink:href="#resetDef" x="30" y="36" onmousedown="handleReset()"/>
                <g id="arrowUp" xlink:href="#dirArrow" transform="translate(30 24)" onmousedown="handlePan(0,-1)">
                  <use xlink:href="#rim" fill="#404040">
                        <set attributeName="fill" to="#808080" begin="arrowUp.mouseover" end="arrowUp.mouseout"/>
                  </use>
                  <path fill="none" stroke="white" stroke-width="1.5" d="M0,-3.0v7 M-2.5,-0.5L0,-3.0L2.5,-0.5"/>
                </g>
                <g id="arrowRight" xlink:href="#dirArrow" transform="rotate(90) translate(36 -43)" onmousedown="handlePan(1,0)">
                  <use xlink:href="#rim" fill="#404040">
                        <set attributeName="fill" to="#808080" begin="arrowRight.mouseover" end="arrowRight.mouseout"/>
                  </use>
                  <path fill="none" stroke="white" stroke-width="1.5" d="M0,-3.0v7 M-2.5,-0.5L0,-3.0L2.5,-0.5"/>
                </g>
                <g id="arrowDown" xlink:href="#dirArrow" transform="rotate(180) translate(-30 -48)" onmousedown="handlePan(0,1)">
                  <use xlink:href="#rim" fill="#404040">
                        <set attributeName="fill" to="#808080" begin="arrowDown.mouseover" end="arrowDown.mouseout"/>
                  </use>
                  <path fill="none" stroke="white" stroke-width="1.5" d="M0,-3.0v7 M-2.5,-0.5L0,-3.0L2.5,-0.5"/>
                </g>
                <g id="arrowLeft" xlink:href="#dirArrow" transform="rotate(270) translate(-36 17)" onmousedown="handlePan(-1,0)">
                  <use xlink:href="#rim" fill="#404040">
                        <set attributeName="fill" to="#808080" begin="arrowLeft.mouseover" end="arrowLeft.mouseout"/>
                  </use>
                  <path fill="none" stroke="white" stroke-width="1.5" d="M0,-3.0v7 M-2.5,-0.5L0,-3.0L2.5,-0.5"/>
                </g>
        </g>
        <svg viewBox="0 0 15 15" width="100%" height="30px" preserveAspectRatio="xMaxYMin meet">
         <g id="arrow_out" transform="scale(0.3 0.3)">
          <a xlink:href="util_2pair_8h_a6a5c8db5c62abedf6eecfa6a817d6745_icgraph_org.svg" target="_base">
           <rect id="button" ry="5" rx="5" y="6" x="6" height="38" width="38"
                fill="#f2f5e9" fill-opacity="0.5" stroke="#606060" stroke-width="1.0"/>
           <path id="arrow"
             d="M 11.500037,31.436501 C 11.940474,20.09759 22.043105,11.32322 32.158766,21.979434 L 37.068811,17.246167 C 37.068811,17.246167 37.088388,32 37.088388,32 L 22.160133,31.978069 C 22.160133,31.978069 26.997745,27.140456 26.997745,27.140456 C 18.528582,18.264221 13.291696,25.230495 11.500037,31.436501 z"
             style="fill:#404040;"/>
          </a>
         </g>
        </svg>
</svg>
