<?xml version="1.0" encoding="UTF-8" standalone="no"?>
<!DOCTYPE svg PUBLIC "-//W3C//DTD SVG 1.1//EN"
 "http://www.w3.org/Graphics/SVG/1.1/DTD/svg11.dtd">
<!-- Generated by graphviz version 2.40.1 (20161225.0304)
 -->
<!-- Title: fr_pair_list_debug Pages: 1 -->
<svg width="643pt" height="156pt"
 viewBox="0.00 0.00 643.00 155.57" xmlns="http://www.w3.org/2000/svg" xmlns:xlink="http://www.w3.org/1999/xlink">
<g id="graph0" class="graph" transform="scale(1 1) rotate(0) translate(4 151.5671)">
<title>fr_pair_list_debug</title>
<!-- Node16587 -->
<g id="node1" class="node">
<title>Node16587</title>
<polygon fill="#bfbfbf" stroke="#000000" points="0,-90.0671 0,-109.0671 93,-109.0671 93,-90.0671 0,-90.0671"/>
<text text-anchor="middle" x="46.5" y="-97.0671" font-family="Helvetica,sans-Serif" font-size="10.00" fill="#000000">fr_pair_list_debug</text>
</g>
<!-- Node16588 -->
<g id="node2" class="node">
<title>Node16588</title>
<g id="a_node2"><a xlink:href="pair__print_8c.html#aac54790ee7f2572c4bae56642f7d15c0" target="_top" xlink:title="Print a list of attributes and enumv. ">
<polygon fill="none" stroke="#000000" points="129,-90.0671 129,-109.0671 214,-109.0671 214,-90.0671 129,-90.0671"/>
<text text-anchor="middle" x="171.5" y="-97.0671" font-family="Helvetica,sans-Serif" font-size="10.00" fill="#000000">_fr_pair_list_log</text>
</a>
</g>
</g>
<!-- Node16587&#45;&gt;Node16588 -->
<g id="edge1" class="edge">
<title>Node16587&#45;&gt;Node16588</title>
<path fill="none" stroke="#191970" d="M93.0454,-99.5671C101.3359,-99.5671 110.0277,-99.5671 118.4826,-99.5671"/>
<polygon fill="#191970" stroke="#191970" points="118.6352,-103.0672 128.6351,-99.5671 118.6351,-96.0672 118.6352,-103.0672"/>
</g>
<!-- Node16589 -->
<g id="node3" class="node">
<title>Node16589</title>
<g id="a_node3"><a xlink:href="cursor_8c.html#af6c2090d1e00319075d6def5aa2666fd" target="_top" xlink:title="Advanced the cursor to the next item. ">
<polygon fill="none" stroke="#000000" points="250,-118.0671 250,-137.0671 329,-137.0671 329,-118.0671 250,-118.0671"/>
<text text-anchor="middle" x="289.5" y="-125.0671" font-family="Helvetica,sans-Serif" font-size="10.00" fill="#000000">fr_cursor_next</text>
</a>
</g>
</g>
<!-- Node16588&#45;&gt;Node16589 -->
<g id="edge2" class="edge">
<title>Node16588&#45;&gt;Node16589</title>
<path fill="none" stroke="#191970" d="M211.7789,-109.1248C220.8005,-111.2655 230.4736,-113.5608 239.826,-115.78"/>
<polygon fill="#191970" stroke="#191970" points="239.2645,-119.2439 249.8024,-118.1473 240.8807,-112.433 239.2645,-119.2439"/>
</g>
<!-- Node16591 -->
<g id="node5" class="node">
<title>Node16591</title>
<g id="a_node5"><a xlink:href="lib_2util_2log_8c.html#a62c7f0f8ad8a391b16dc27c44b69af7e" target="_top" xlink:title="Send a server log message to its destination. ">
<polygon fill="none" stroke="#000000" points="269,-71.0671 269,-90.0671 310,-90.0671 310,-71.0671 269,-71.0671"/>
<text text-anchor="middle" x="289.5" y="-78.0671" font-family="Helvetica,sans-Serif" font-size="10.00" fill="#000000">fr_log</text>
</a>
</g>
</g>
<!-- Node16588&#45;&gt;Node16591 -->
<g id="edge4" class="edge">
<title>Node16588&#45;&gt;Node16591</title>
<path fill="none" stroke="#191970" d="M214.1007,-92.7076C228.7901,-90.3424 244.9527,-87.7399 258.5335,-85.5532"/>
<polygon fill="#191970" stroke="#191970" points="259.4776,-88.9463 268.794,-83.9011 258.3648,-82.0354 259.4776,-88.9463"/>
</g>
<!-- Node16590 -->
<g id="node4" class="node">
<title>Node16590</title>
<g id="a_node4"><a xlink:href="cursor_8c.html#a45a517ea8503ebd7ee4dd286ffb59b90" target="_top" xlink:title="Internal function to get the next item. ">
<polygon fill="none" stroke="#000000" points="365,-128.0671 365,-147.0671 433,-147.0671 433,-128.0671 365,-128.0671"/>
<text text-anchor="middle" x="399" y="-135.0671" font-family="Helvetica,sans-Serif" font-size="10.00" fill="#000000">cursor_next</text>
</a>
</g>
</g>
<!-- Node16589&#45;&gt;Node16590 -->
<g id="edge3" class="edge">
<title>Node16589&#45;&gt;Node16590</title>
<path fill="none" stroke="#191970" d="M329.032,-131.1773C337.394,-131.9409 346.2704,-132.7516 354.7926,-133.5299"/>
<polygon fill="#191970" stroke="#191970" points="354.6769,-137.0338 364.9538,-134.4578 355.3135,-130.0628 354.6769,-137.0338"/>
</g>
<!-- Node16592 -->
<g id="node6" class="node">
<title>Node16592</title>
<g id="a_node6"><a xlink:href="acutest_8h.html#aecf9a9be8105efb1454cd8c1ef6cb1c5" target="_top" xlink:title="va_start">
<polygon fill="none" stroke="#000000" points="373,-90.0671 373,-109.0671 425,-109.0671 425,-90.0671 373,-90.0671"/>
<text text-anchor="middle" x="399" y="-97.0671" font-family="Helvetica,sans-Serif" font-size="10.00" fill="#000000">va_start</text>
</a>
</g>
</g>
<!-- Node16591&#45;&gt;Node16592 -->
<g id="edge5" class="edge">
<title>Node16591&#45;&gt;Node16592</title>
<path fill="none" stroke="#191970" d="M310.0961,-84.1408C324.9075,-86.7108 345.2713,-90.2443 362.7726,-93.281"/>
<polygon fill="#191970" stroke="#191970" points="362.2316,-96.7394 372.6828,-95.0006 363.4284,-89.8424 362.2316,-96.7394"/>
</g>
<!-- Node16593 -->
<g id="node7" class="node">
<title>Node16593</title>
<g id="a_node7"><a xlink:href="lib_2util_2log_8c.html#a787775b366183a1316a677709b14c7dc" target="_top" xlink:title="Send a server log message to its destination. ">
<polygon fill="none" stroke="#000000" points="376,-52.0671 376,-71.0671 422,-71.0671 422,-52.0671 376,-52.0671"/>
<text text-anchor="middle" x="399" y="-59.0671" font-family="Helvetica,sans-Serif" font-size="10.00" fill="#000000">fr_vlog</text>
</a>
</g>
</g>
<!-- Node16591&#45;&gt;Node16593 -->
<g id="edge6" class="edge">
<title>Node16591&#45;&gt;Node16593</title>
<path fill="none" stroke="#191970" d="M310.0961,-76.9933C325.8092,-74.2668 347.7713,-70.4561 365.9353,-67.3043"/>
<polygon fill="#191970" stroke="#191970" points="366.5883,-70.7434 375.8427,-65.5852 365.3915,-63.8465 366.5883,-70.7434"/>
</g>
<!-- Node16596 -->
<g id="node11" class="node">
<title>Node16596</title>
<g id="a_node11"><a xlink:href="acutest_8h.html#a36af1f79dd6adf0809c21e76535034d5" target="_top" xlink:title="va_end">
<polygon fill="none" stroke="#000000" points="587,-14.0671 587,-33.0671 635,-33.0671 635,-14.0671 587,-14.0671"/>
<text text-anchor="middle" x="611" y="-21.0671" font-family="Helvetica,sans-Serif" font-size="10.00" fill="#000000">va_end</text>
</a>
</g>
</g>
<!-- Node16591&#45;&gt;Node16596 -->
<g id="edge12" class="edge">
<title>Node16591&#45;&gt;Node16596</title>
<path fill="none" stroke="#191970" d="M305.5504,-70.8151C336.0406,-52.9785 405.0188,-15.8899 469,-4.5671 504.8868,1.7838 514.9832,.9994 551,-4.5671 559.6926,-5.9105 568.8512,-8.2878 577.3232,-10.9159"/>
<polygon fill="#191970" stroke="#191970" points="576.2911,-14.2609 586.8842,-14.0693 578.4837,-7.6131 576.2911,-14.2609"/>
</g>
<!-- Node16594 -->
<g id="node8" class="node">
<title>Node16594</title>
<g id="a_node8"><a xlink:href="lib_2util_2log_8c.html#a22867302627d754d8432843e79582205" target="_top" xlink:title="talloc ctx to use when composing log messages ">
<polygon fill="none" stroke="#ff0000" points="469,-128.0671 469,-147.0671 551,-147.0671 551,-128.0671 469,-128.0671"/>
<text text-anchor="middle" x="510" y="-135.0671" font-family="Helvetica,sans-Serif" font-size="10.00" fill="#000000">fr_log_pool_init</text>
</a>
</g>
</g>
<!-- Node16593&#45;&gt;Node16594 -->
<g id="edge7" class="edge">
<title>Node16593&#45;&gt;Node16594</title>
<path fill="none" stroke="#191970" d="M418.7035,-71.25C423.5617,-73.9904 428.6231,-77.1631 433,-80.5671 451.3644,-94.8494 450.1087,-104.9893 469,-118.5671 471.3292,-120.2411 473.8294,-121.8246 476.4043,-123.3092"/>
<polygon fill="#191970" stroke="#191970" points="474.8226,-126.4317 485.3061,-127.9636 478.0661,-120.2285 474.8226,-126.4317"/>
</g>
<!-- Node16601 -->
<g id="node9" class="node">
<title>Node16601</title>
<g id="a_node9"><a xlink:href="missing_8c.html#a193959a40169beb14eeca194a55d361d" target="_top" xlink:title="gmtime_r">
<polygon fill="none" stroke="#000000" points="481.5,-90.0671 481.5,-109.0671 538.5,-109.0671 538.5,-90.0671 481.5,-90.0671"/>
<text text-anchor="middle" x="510" y="-97.0671" font-family="Helvetica,sans-Serif" font-size="10.00" fill="#000000">gmtime_r</text>
</a>
</g>
</g>
<!-- Node16593&#45;&gt;Node16601 -->
<g id="edge8" class="edge">
<title>Node16593&#45;&gt;Node16601</title>
<path fill="none" stroke="#191970" d="M422.2692,-69.5331C436.8302,-74.5179 455.9206,-81.0534 472.574,-86.7545"/>
<polygon fill="#191970" stroke="#191970" points="471.4503,-90.0692 482.0449,-89.9968 473.7176,-83.4466 471.4503,-90.0692"/>
</g>
<!-- Node16602 -->
<g id="node10" class="node">
<title>Node16602</title>
<g id="a_node10"><a xlink:href="print_8c.html#a27ae94b5a4c77de49aa2f387765a4d58" target="_top" xlink:title="Special version of vasprintf which implements custom format specifiers. ">
<polygon fill="none" stroke="#ff0000" points="477.5,-52.0671 477.5,-71.0671 542.5,-71.0671 542.5,-52.0671 477.5,-52.0671"/>
<text text-anchor="middle" x="510" y="-59.0671" font-family="Helvetica,sans-Serif" font-size="10.00" fill="#000000">fr_vasprintf</text>
</a>
</g>
</g>
<!-- Node16593&#45;&gt;Node16602 -->
<g id="edge9" class="edge">
<title>Node16593&#45;&gt;Node16602</title>
<path fill="none" stroke="#191970" d="M422.2692,-61.5671C435.1823,-61.5671 451.6576,-61.5671 466.8363,-61.5671"/>
<polygon fill="#191970" stroke="#191970" points="467.0778,-65.0672 477.0778,-61.5671 467.0777,-58.0672 467.0778,-65.0672"/>
</g>
<!-- Node16728 -->
<g id="node12" class="node">
<title>Node16728</title>
<g id="a_node12"><a xlink:href="print_8c.html#a69fbdf99ae311e5900c854a2247c51b8" target="_top" xlink:title="Checks for utf&#45;8, taken from http://www.w3.org/International/questions/qa&#45;forms&#45;utf&#45;8. ">
<polygon fill="none" stroke="#000000" points="476,-14.0671 476,-33.0671 544,-33.0671 544,-14.0671 476,-14.0671"/>
<text text-anchor="middle" x="510" y="-21.0671" font-family="Helvetica,sans-Serif" font-size="10.00" fill="#000000">fr_utf8_char</text>
</a>
</g>
</g>
<!-- Node16593&#45;&gt;Node16728 -->
<g id="edge11" class="edge">
<title>Node16593&#45;&gt;Node16728</title>
<path fill="none" stroke="#191970" d="M422.2692,-53.601C436.8302,-48.6162 455.9206,-42.0807 472.574,-36.3796"/>
<polygon fill="#191970" stroke="#191970" points="473.7176,-39.6876 482.0449,-33.1373 471.4503,-33.0649 473.7176,-39.6876"/>
</g>
<!-- Node16602&#45;&gt;Node16596 -->
<g id="edge10" class="edge">
<title>Node16602&#45;&gt;Node16596</title>
<path fill="none" stroke="#191970" d="M535.4866,-51.9781C548.1832,-47.2011 563.702,-41.3624 577.3615,-36.2231"/>
<polygon fill="#191970" stroke="#191970" points="578.7853,-39.4271 586.9123,-32.6298 576.3203,-32.8754 578.7853,-39.4271"/>
</g>
</g>
</svg>
