<?xml version="1.0" encoding="UTF-8" standalone="no"?>
<!DOCTYPE svg PUBLIC "-//W3C//DTD SVG 1.1//EN"
 "http://www.w3.org/Graphics/SVG/1.1/DTD/svg11.dtd">
<!-- Generated by graphviz version 2.40.1 (20161225.0304)
 -->
<!-- Title: fr_value_box_cast_to_integer Pages: 1 -->
<svg width="1136pt" height="855pt"
 viewBox="0.00 0.00 1136.00 855.36" xmlns="http://www.w3.org/2000/svg" xmlns:xlink="http://www.w3.org/1999/xlink">
<g id="graph0" class="graph" transform="scale(1 1) rotate(0) translate(4 851.3629)">
<title>fr_value_box_cast_to_integer</title>
<!-- Node15154 -->
<g id="node1" class="node">
<title>Node15154</title>
<polygon fill="#bfbfbf" stroke="#000000" points="0,-651 0,-681 110,-681 110,-651 0,-651"/>
<text text-anchor="start" x="8" y="-669" font-family="Helvetica,sans-Serif" font-size="10.00" fill="#000000">fr_value_box_cast_to</text>
<text text-anchor="middle" x="55" y="-658" font-family="Helvetica,sans-Serif" font-size="10.00" fill="#000000">_integer</text>
</g>
<!-- Node15155 -->
<g id="node2" class="node">
<title>Node15155</title>
<g id="a_node2"><a xlink:href="strerror_8c.html#ae701765650b8aea79a3037bc4921d7f8" target="_top" xlink:title="Log to thread local error buffer. ">
<polygon fill="none" stroke="#000000" points="333.5,-542.5 333.5,-561.5 419.5,-561.5 419.5,-542.5 333.5,-542.5"/>
<text text-anchor="middle" x="376.5" y="-549.5" font-family="Helvetica,sans-Serif" font-size="10.00" fill="#000000">fr_strerror_printf</text>
</a>
</g>
</g>
<!-- Node15154&#45;&gt;Node15155 -->
<g id="edge1" class="edge">
<title>Node15154&#45;&gt;Node15155</title>
<path fill="none" stroke="#191970" d="M96.192,-650.964C111.7832,-645.2987 129.6983,-638.8199 146,-633 214.2916,-608.619 294.1655,-580.6789 339.6976,-564.806"/>
<polygon fill="#191970" stroke="#191970" points="340.8562,-568.1088 349.1475,-561.5131 338.5527,-561.4986 340.8562,-568.1088"/>
</g>
<!-- Node15192 -->
<g id="node14" class="node">
<title>Node15192</title>
<g id="a_node14"><a xlink:href="value_8c.html#a4a254ead05a0af32769aee9e3da02238" target="_top" xlink:title="Convert string value to a fr_value_box_t type. ">
<polygon fill="none" stroke="#ff0000" points="889,-608.5 889,-627.5 1002,-627.5 1002,-608.5 889,-608.5"/>
<text text-anchor="middle" x="945.5" y="-615.5" font-family="Helvetica,sans-Serif" font-size="10.00" fill="#000000">fr_value_box_from_str</text>
</a>
</g>
</g>
<!-- Node15154&#45;&gt;Node15192 -->
<g id="edge35" class="edge">
<title>Node15154&#45;&gt;Node15192</title>
<path fill="none" stroke="#191970" d="M110.334,-668.1158C122.1051,-668.4842 134.4623,-668.8099 146,-669 204.2143,-669.9593 218.8002,-670.6154 277,-669 533.296,-661.8862 598.737,-669.9942 853,-637 866.9984,-635.1835 882.0442,-632.4396 895.8493,-629.5977"/>
<polygon fill="#191970" stroke="#191970" points="896.5914,-633.0182 905.6496,-627.5228 895.1415,-626.17 896.5914,-633.0182"/>
</g>
<!-- Node15190 -->
<g id="node15" class="node">
<title>Node15190</title>
<g id="a_node15"><a xlink:href="value_8c.html#a065070f212d94637ae729855d7cc2237" target="_top" xlink:title="Performs byte order reversal for types that need it. ">
<polygon fill="none" stroke="#ff0000" points="897.5,-722.5 897.5,-741.5 993.5,-741.5 993.5,-722.5 897.5,-722.5"/>
<text text-anchor="middle" x="945.5" y="-729.5" font-family="Helvetica,sans-Serif" font-size="10.00" fill="#000000">fr_value_box_hton</text>
</a>
</g>
</g>
<!-- Node15154&#45;&gt;Node15190 -->
<g id="edge52" class="edge">
<title>Node15154&#45;&gt;Node15190</title>
<path fill="none" stroke="#191970" d="M99.4008,-681.059C160.8882,-700.5383 275.7879,-732 376.5,-732 376.5,-732 376.5,-732 650.5,-732 732.6345,-732 827.6323,-732 887.1442,-732"/>
<polygon fill="#191970" stroke="#191970" points="887.4695,-735.5001 897.4695,-732 887.4694,-728.5001 887.4695,-735.5001"/>
</g>
<!-- Node15176 -->
<g id="node16" class="node">
<title>Node15176</title>
<g id="a_node16"><a xlink:href="value_8h.html#ab2f9fbd42c467414fa4e5c3793fb3572" target="_top" xlink:title="Initialise a fr_value_box_t. ">
<polygon fill="none" stroke="#000000" points="1038,-722.5 1038,-741.5 1128,-741.5 1128,-722.5 1038,-722.5"/>
<text text-anchor="middle" x="1083" y="-729.5" font-family="Helvetica,sans-Serif" font-size="10.00" fill="#000000">fr_value_box_init</text>
</a>
</g>
</g>
<!-- Node15154&#45;&gt;Node15176 -->
<g id="edge51" class="edge">
<title>Node15154&#45;&gt;Node15176</title>
<path fill="none" stroke="#191970" d="M60.5591,-681.0286C71.8967,-709.4377 100.527,-770.8656 146,-801 233.0076,-858.6589 272.1215,-846 376.5,-846 376.5,-846 376.5,-846 793.5,-846 888.8986,-846 916.1181,-836.5353 1002,-795 1026.3578,-783.2198 1050.3232,-763.2436 1065.7889,-748.9424"/>
<polygon fill="#191970" stroke="#191970" points="1068.6094,-751.091 1073.4549,-741.6691 1063.7914,-746.0128 1068.6094,-751.091"/>
</g>
<!-- Node15266 -->
<g id="node22" class="node">
<title>Node15266</title>
<g id="a_node22"><a xlink:href="value_8c.html#a9a3a9eef48d5e59bc1c3b43285902971" target="_top" xlink:title="Convert octets to a fixed size value box value. ">
<polygon fill="none" stroke="#000000" points="162.5,-761 162.5,-791 260.5,-791 260.5,-761 162.5,-761"/>
<text text-anchor="start" x="170.5" y="-779" font-family="Helvetica,sans-Serif" font-size="10.00" fill="#000000">fr_value_box_fixed</text>
<text text-anchor="middle" x="211.5" y="-768" font-family="Helvetica,sans-Serif" font-size="10.00" fill="#000000">_size_from_octets</text>
</a>
</g>
</g>
<!-- Node15154&#45;&gt;Node15266 -->
<g id="edge36" class="edge">
<title>Node15154&#45;&gt;Node15266</title>
<path fill="none" stroke="#191970" d="M69.3552,-681.0439C86.4248,-698.3271 116.3494,-726.7712 146,-746 151.7815,-749.7494 158.1082,-753.2744 164.4777,-756.498"/>
<polygon fill="#191970" stroke="#191970" points="163.2552,-759.7946 173.7817,-760.9963 166.3022,-753.4925 163.2552,-759.7946"/>
</g>
<!-- Node15276 -->
<g id="node23" class="node">
<title>Node15276</title>
<g id="a_node23"><a xlink:href="value_8c.html#affa5e516f0b70852ebc180dd2ddd76ea" target="_top" xlink:title="Convert any signed or unsigned integer type to any other signed or unsigned integer type...">
<polygon fill="none" stroke="#000000" points="146,-423 146,-453 277,-453 277,-423 146,-423"/>
<text text-anchor="start" x="154" y="-441" font-family="Helvetica,sans-Serif" font-size="10.00" fill="#000000">fr_value_box_cast_integer</text>
<text text-anchor="middle" x="211.5" y="-430" font-family="Helvetica,sans-Serif" font-size="10.00" fill="#000000">_to_integer</text>
</a>
</g>
</g>
<!-- Node15154&#45;&gt;Node15276 -->
<g id="edge40" class="edge">
<title>Node15154&#45;&gt;Node15276</title>
<path fill="none" stroke="#191970" d="M65.5114,-650.6862C92.2952,-611.6657 163.2487,-508.2958 195.3367,-461.5478"/>
<polygon fill="#191970" stroke="#191970" points="198.2608,-463.4725 201.0343,-453.2471 192.4895,-459.511 198.2608,-463.4725"/>
</g>
<!-- Node15285 -->
<g id="node32" class="node">
<title>Node15285</title>
<g id="a_node32"><a xlink:href="net_8h.html#a9a464cd15e3781a3ff93c26066285528" target="_top" xlink:title="Read an unsigned 64bit integer from wire format (big endian) ">
<polygon fill="none" stroke="#000000" points="168.5,-292.5 168.5,-311.5 254.5,-311.5 254.5,-292.5 168.5,-292.5"/>
<text text-anchor="middle" x="211.5" y="-299.5" font-family="Helvetica,sans-Serif" font-size="10.00" fill="#000000">fr_net_to_uint64</text>
</a>
</g>
</g>
<!-- Node15154&#45;&gt;Node15285 -->
<g id="edge53" class="edge">
<title>Node15154&#45;&gt;Node15285</title>
<path fill="none" stroke="#191970" d="M59.4086,-650.8473C71.205,-611.0745 105.3715,-500.7815 146,-414 162.1403,-379.5248 185.514,-341.7598 199.5378,-320.0714"/>
<polygon fill="#191970" stroke="#191970" points="202.5577,-321.8482 205.0956,-311.5619 196.6969,-318.0204 202.5577,-321.8482"/>
</g>
<!-- Node15156 -->
<g id="node3" class="node">
<title>Node15156</title>
<g id="a_node3"><a xlink:href="acutest_8h.html#aecf9a9be8105efb1454cd8c1ef6cb1c5" target="_top" xlink:title="va_start">
<polygon fill="none" stroke="#000000" points="919.5,-133.5 919.5,-152.5 971.5,-152.5 971.5,-133.5 919.5,-133.5"/>
<text text-anchor="middle" x="945.5" y="-140.5" font-family="Helvetica,sans-Serif" font-size="10.00" fill="#000000">va_start</text>
</a>
</g>
</g>
<!-- Node15155&#45;&gt;Node15156 -->
<g id="edge2" class="edge">
<title>Node15155&#45;&gt;Node15156</title>
<path fill="none" stroke="#191970" d="M419.513,-546.5082C427.3308,-543.6343 434.6809,-539.3523 440,-533 530.1819,-425.3014 394.5439,-333.4406 476,-219 574.4341,-80.7064 817.5408,-115.5124 909.4887,-134.5885"/>
<polygon fill="#191970" stroke="#191970" points="908.9184,-138.0456 919.4291,-136.7132 910.3816,-131.2002 908.9184,-138.0456"/>
</g>
<!-- Node15157 -->
<g id="node4" class="node">
<title>Node15157</title>
<g id="a_node4"><a xlink:href="strerror_8c.html#a193b1e0b3712e3bbee338812c06af482" target="_top" xlink:title="fr_strerror_vprintf">
<polygon fill="none" stroke="#000000" points="476,-228.5 476,-247.5 567,-247.5 567,-228.5 476,-228.5"/>
<text text-anchor="middle" x="521.5" y="-235.5" font-family="Helvetica,sans-Serif" font-size="10.00" fill="#000000">fr_strerror_vprintf</text>
</a>
</g>
</g>
<!-- Node15155&#45;&gt;Node15157 -->
<g id="edge3" class="edge">
<title>Node15155&#45;&gt;Node15157</title>
<path fill="none" stroke="#191970" d="M419.7559,-545.4788C427.2719,-542.669 434.4454,-538.6736 440,-533 479.373,-492.7839 509.3928,-317.1117 518.5768,-257.7103"/>
<polygon fill="#191970" stroke="#191970" points="522.0495,-258.1534 520.0898,-247.7414 515.1288,-257.103 522.0495,-258.1534"/>
</g>
<!-- Node15160 -->
<g id="node7" class="node">
<title>Node15160</title>
<g id="a_node7"><a xlink:href="acutest_8h.html#a36af1f79dd6adf0809c21e76535034d5" target="_top" xlink:title="va_end">
<polygon fill="none" stroke="#000000" points="921.5,-86.5 921.5,-105.5 969.5,-105.5 969.5,-86.5 921.5,-86.5"/>
<text text-anchor="middle" x="945.5" y="-93.5" font-family="Helvetica,sans-Serif" font-size="10.00" fill="#000000">va_end</text>
</a>
</g>
</g>
<!-- Node15155&#45;&gt;Node15160 -->
<g id="edge34" class="edge">
<title>Node15155&#45;&gt;Node15160</title>
<path fill="none" stroke="#191970" d="M419.6211,-546.5977C427.4311,-543.7174 434.7507,-539.4101 440,-533 495.0035,-465.8341 417.8252,-208.4386 476,-144 589.1551,-18.6612 824.3991,-64.0195 911.8247,-86.4698"/>
<polygon fill="#191970" stroke="#191970" points="910.9357,-89.8549 921.4973,-89.0167 912.7182,-83.0856 910.9357,-89.8549"/>
</g>
<!-- Node15158 -->
<g id="node5" class="node">
<title>Node15158</title>
<g id="a_node5"><a xlink:href="strerror_8c.html#a42c2cc9f76fb9dac723a1903c181e1c7" target="_top" xlink:title="Initialise thread local storage. ">
<polygon fill="none" stroke="#000000" points="612,-190.5 612,-209.5 689,-209.5 689,-190.5 612,-190.5"/>
<text text-anchor="middle" x="650.5" y="-197.5" font-family="Helvetica,sans-Serif" font-size="10.00" fill="#000000">fr_strerror_init</text>
</a>
</g>
</g>
<!-- Node15157&#45;&gt;Node15158 -->
<g id="edge4" class="edge">
<title>Node15157&#45;&gt;Node15158</title>
<path fill="none" stroke="#191970" d="M554.0521,-228.411C570.3993,-223.5956 590.4092,-217.7012 607.9571,-212.532"/>
<polygon fill="#191970" stroke="#191970" points="609.3548,-215.7691 617.9583,-209.5859 607.3768,-209.0543 609.3548,-215.7691"/>
</g>
<!-- Node15159 -->
<g id="node6" class="node">
<title>Node15159</title>
<g id="a_node6"><a xlink:href="strerror_8c.html#a2c8e65d6d4b73fb705cc023f60acb099" target="_top" xlink:title="Print the current error to stderr with a prefix. ">
<polygon fill="none" stroke="#ff0000" points="767,-152.5 767,-171.5 820,-171.5 820,-152.5 767,-152.5"/>
<text text-anchor="middle" x="793.5" y="-159.5" font-family="Helvetica,sans-Serif" font-size="10.00" fill="#000000">fr_perror</text>
</a>
</g>
</g>
<!-- Node15157&#45;&gt;Node15159 -->
<g id="edge11" class="edge">
<title>Node15157&#45;&gt;Node15159</title>
<path fill="none" stroke="#191970" d="M531.5612,-228.324C546.0362,-215.0647 574.1806,-191.6789 603,-181 653.9594,-162.1171 717.5363,-159.6045 756.8242,-160.2537"/>
<polygon fill="#191970" stroke="#191970" points="756.9071,-163.7567 766.9896,-160.5019 757.078,-156.7588 756.9071,-163.7567"/>
</g>
<!-- Node15157&#45;&gt;Node15160 -->
<g id="edge32" class="edge">
<title>Node15157&#45;&gt;Node15160</title>
<path fill="none" stroke="#191970" d="M528.2869,-228.2423C540.8557,-210.9956 569.5443,-175.3153 603,-158 705.7314,-104.8304 846.3322,-96.51 910.7269,-95.6954"/>
<polygon fill="#191970" stroke="#191970" points="911.1405,-99.1927 921.1156,-95.6222 911.0911,-92.1929 911.1405,-99.1927"/>
</g>
<!-- Node15166 -->
<g id="node9" class="node">
<title>Node15166</title>
<g id="a_node9"><a xlink:href="strerror_8c.html#a9d878c1ddb1b385cdaf6523fff68529c" target="_top" xlink:title="Reset cursor state. ">
<polygon fill="none" stroke="#000000" points="903,-266.5 903,-285.5 988,-285.5 988,-266.5 903,-266.5"/>
<text text-anchor="middle" x="945.5" y="-273.5" font-family="Helvetica,sans-Serif" font-size="10.00" fill="#000000">fr_strerror_clear</text>
</a>
</g>
</g>
<!-- Node15157&#45;&gt;Node15166 -->
<g id="edge10" class="edge">
<title>Node15157&#45;&gt;Node15166</title>
<path fill="none" stroke="#191970" d="M556.549,-247.5774C570.8486,-251.1156 587.6112,-254.7964 603,-257 704.7041,-271.5635 824.8769,-275.127 892.4368,-275.9024"/>
<polygon fill="#191970" stroke="#191970" points="892.7833,-279.4058 902.8172,-276.0041 892.852,-272.4062 892.7833,-279.4058"/>
</g>
<!-- Node15167 -->
<g id="node10" class="node">
<title>Node15167</title>
<g id="a_node10"><a xlink:href="print_8c.html#a27ae94b5a4c77de49aa2f387765a4d58" target="_top" xlink:title="Special version of vasprintf which implements custom format specifiers. ">
<polygon fill="none" stroke="#000000" points="618,-437.5 618,-456.5 683,-456.5 683,-437.5 618,-437.5"/>
<text text-anchor="middle" x="650.5" y="-444.5" font-family="Helvetica,sans-Serif" font-size="10.00" fill="#000000">fr_vasprintf</text>
</a>
</g>
</g>
<!-- Node15157&#45;&gt;Node15167 -->
<g id="edge12" class="edge">
<title>Node15157&#45;&gt;Node15167</title>
<path fill="none" stroke="#191970" d="M527.3781,-247.5234C547.3572,-279.8927 612.8708,-386.0349 639.2985,-428.8519"/>
<polygon fill="#191970" stroke="#191970" points="636.3567,-430.7494 644.5874,-437.4207 642.3134,-427.0727 636.3567,-430.7494"/>
</g>
<!-- Node15275 -->
<g id="node21" class="node">
<title>Node15275</title>
<g id="a_node21"><a xlink:href="cursor_8c.html#a5d942382660657c3b4cb6e9cb2b12b2c" target="_top" xlink:title="Insert a single item at the start of the list. ">
<polygon fill="none" stroke="#000000" points="603,-228.5 603,-247.5 698,-247.5 698,-228.5 603,-228.5"/>
<text text-anchor="middle" x="650.5" y="-235.5" font-family="Helvetica,sans-Serif" font-size="10.00" fill="#000000">fr_cursor_prepend</text>
</a>
</g>
</g>
<!-- Node15157&#45;&gt;Node15275 -->
<g id="edge33" class="edge">
<title>Node15157&#45;&gt;Node15275</title>
<path fill="none" stroke="#191970" d="M567.3438,-238C575.4784,-238 584.0463,-238 592.4656,-238"/>
<polygon fill="#191970" stroke="#191970" points="592.6227,-241.5001 602.6227,-238 592.6227,-234.5001 592.6227,-241.5001"/>
</g>
<!-- Node15158&#45;&gt;Node15159 -->
<g id="edge5" class="edge">
<title>Node15158&#45;&gt;Node15159</title>
<path fill="none" stroke="#191970" d="M686.5849,-190.411C708.156,-184.6788 735.4806,-177.4177 757.1062,-171.6711"/>
<polygon fill="#191970" stroke="#191970" points="758.1409,-175.0177 766.9066,-169.0668 756.3431,-168.2525 758.1409,-175.0177"/>
</g>
<!-- Node15165 -->
<g id="node8" class="node">
<title>Node15165</title>
<g id="a_node8"><a xlink:href="strerror_8c.html#afe66becac3be1b0b82b90889d27fcf99" target="_top" xlink:title="_fr_logging_free">
<polygon fill="none" stroke="#000000" points="750.5,-190.5 750.5,-209.5 836.5,-209.5 836.5,-190.5 750.5,-190.5"/>
<text text-anchor="middle" x="793.5" y="-197.5" font-family="Helvetica,sans-Serif" font-size="10.00" fill="#000000">_fr_logging_free</text>
</a>
</g>
</g>
<!-- Node15158&#45;&gt;Node15165 -->
<g id="edge8" class="edge">
<title>Node15158&#45;&gt;Node15165</title>
<path fill="none" stroke="#191970" d="M689.1979,-200C704.884,-200 723.2593,-200 740.1797,-200"/>
<polygon fill="#191970" stroke="#191970" points="740.4901,-203.5001 750.49,-200 740.49,-196.5001 740.4901,-203.5001"/>
</g>
<!-- Node15158&#45;&gt;Node15166 -->
<g id="edge9" class="edge">
<title>Node15158&#45;&gt;Node15166</title>
<path fill="none" stroke="#191970" d="M687.5633,-209.5485C741.1036,-223.3419 840.0681,-248.8379 898.6173,-263.9217"/>
<polygon fill="#191970" stroke="#191970" points="897.7993,-267.3252 908.3563,-266.4308 899.5457,-260.5466 897.7993,-267.3252"/>
</g>
<!-- Node15159&#45;&gt;Node15156 -->
<g id="edge6" class="edge">
<title>Node15159&#45;&gt;Node15156</title>
<path fill="none" stroke="#191970" d="M820.3247,-158.6469C845.1124,-155.5485 882.1308,-150.9211 909.486,-147.5018"/>
<polygon fill="#191970" stroke="#191970" points="909.9626,-150.9695 919.4513,-146.2561 909.0943,-144.0236 909.9626,-150.9695"/>
</g>
<!-- Node15159&#45;&gt;Node15160 -->
<g id="edge7" class="edge">
<title>Node15159&#45;&gt;Node15160</title>
<path fill="none" stroke="#191970" d="M815.6021,-152.403C841.4934,-141.1608 884.5791,-122.4525 913.9725,-109.6896"/>
<polygon fill="#191970" stroke="#191970" points="915.5926,-112.8019 923.3712,-105.6085 912.8046,-106.381 915.5926,-112.8019"/>
</g>
<!-- Node15167&#45;&gt;Node15155 -->
<g id="edge16" class="edge">
<title>Node15167&#45;&gt;Node15155</title>
<path fill="none" stroke="#191970" d="M628.9495,-456.6183C591.1338,-473.3119 510.1725,-508.233 440,-533 433.6571,-535.2387 426.9002,-537.4456 420.249,-539.5186"/>
<polygon fill="#191970" stroke="#191970" points="419.1851,-536.1838 410.6404,-542.4479 421.2265,-542.8796 419.1851,-536.1838"/>
</g>
<!-- Node15167&#45;&gt;Node15160 -->
<g id="edge14" class="edge">
<title>Node15167&#45;&gt;Node15160</title>
<path fill="none" stroke="#191970" d="M656.6859,-437.4177C669.8721,-417.2634 702.1497,-369.3499 734,-333 782.2678,-277.9131 812.584,-280.0811 853,-219 877.9157,-181.3447 858.6727,-157.451 889,-124 895.2507,-117.1055 903.5801,-111.7024 911.9185,-107.5604"/>
<polygon fill="#191970" stroke="#191970" points="913.5202,-110.6784 921.2264,-103.4075 910.668,-104.2858 913.5202,-110.6784"/>
</g>
<!-- Node15168 -->
<g id="node11" class="node">
<title>Node15168</title>
<g id="a_node11"><a xlink:href="value_8h.html#a878e0abfce7189a1784cdf15bc9fc3a3" target="_top" xlink:title="fr_value_box_aprint">
<polygon fill="none" stroke="#000000" points="895,-513.5 895,-532.5 996,-532.5 996,-513.5 895,-513.5"/>
<text text-anchor="middle" x="945.5" y="-520.5" font-family="Helvetica,sans-Serif" font-size="10.00" fill="#000000">fr_value_box_aprint</text>
</a>
</g>
</g>
<!-- Node15167&#45;&gt;Node15168 -->
<g id="edge13" class="edge">
<title>Node15167&#45;&gt;Node15168</title>
<path fill="none" stroke="#191970" d="M657.1626,-456.5976C669.7879,-473.833 699.0829,-509.4888 734,-523 783.2979,-542.0758 844.0333,-539.6974 887.7534,-533.9617"/>
<polygon fill="#191970" stroke="#191970" points="888.5125,-537.3894 897.9256,-532.5268 887.5347,-530.458 888.5125,-537.3894"/>
</g>
<!-- Node15169 -->
<g id="node12" class="node">
<title>Node15169</title>
<g id="a_node12"><a xlink:href="talloc_8c.html#a3536feb85c89aa239851ef0830b72e64" target="_top" xlink:title="Call talloc_strdup, setting the type on the new chunk correctly. ">
<polygon fill="none" stroke="#000000" points="895,-475.5 895,-494.5 996,-494.5 996,-475.5 895,-475.5"/>
<text text-anchor="middle" x="945.5" y="-482.5" font-family="Helvetica,sans-Serif" font-size="10.00" fill="#000000">talloc_typed_strdup</text>
</a>
</g>
</g>
<!-- Node15167&#45;&gt;Node15169 -->
<g id="edge15" class="edge">
<title>Node15167&#45;&gt;Node15169</title>
<path fill="none" stroke="#191970" d="M683.1424,-443.1494C723.4823,-439.2686 794.021,-435.3575 853,-447 876.1378,-451.5674 900.7659,-461.9875 918.7876,-470.7629"/>
<polygon fill="#191970" stroke="#191970" points="917.5611,-474.0634 928.0686,-475.4212 920.7013,-467.8072 917.5611,-474.0634"/>
</g>
<!-- Node15170 -->
<g id="node13" class="node">
<title>Node15170</title>
<g id="a_node13"><a xlink:href="value_8c.html#a3a0550d465b81917f8b0c69a3373163e" target="_top" xlink:title="Convert one type of fr_value_box_t to another. ">
<polygon fill="none" stroke="#ff0000" points="745.5,-608.5 745.5,-627.5 841.5,-627.5 841.5,-608.5 745.5,-608.5"/>
<text text-anchor="middle" x="793.5" y="-615.5" font-family="Helvetica,sans-Serif" font-size="10.00" fill="#000000">fr_value_box_cast</text>
</a>
</g>
</g>
<!-- Node15167&#45;&gt;Node15170 -->
<g id="edge17" class="edge">
<title>Node15167&#45;&gt;Node15170</title>
<path fill="none" stroke="#191970" d="M657.3068,-456.6086C671.1246,-475.9461 703.7261,-520.7258 734,-556 747.5495,-571.7874 763.9931,-588.7727 776.1572,-600.966"/>
<polygon fill="#191970" stroke="#191970" points="773.9,-603.6574 783.4593,-608.2261 778.8355,-598.6934 773.9,-603.6574"/>
</g>
<!-- Node15271 -->
<g id="node17" class="node">
<title>Node15271</title>
<g id="a_node17"><a xlink:href="strerror_8c.html#a83ee876ee41b1ae672dc4dcda4f02a2e" target="_top" xlink:title="Get the last library error. ">
<polygon fill="none" stroke="#ff0000" points="764,-342.5 764,-361.5 823,-361.5 823,-342.5 764,-342.5"/>
<text text-anchor="middle" x="793.5" y="-349.5" font-family="Helvetica,sans-Serif" font-size="10.00" fill="#000000">fr_strerror</text>
</a>
</g>
</g>
<!-- Node15167&#45;&gt;Node15271 -->
<g id="edge24" class="edge">
<title>Node15167&#45;&gt;Node15271</title>
<path fill="none" stroke="#191970" d="M658.5102,-437.4082C672.3347,-421.435 702.2578,-389.3328 734,-371 740.1828,-367.4291 747.1213,-364.4382 754.0176,-361.9651"/>
<polygon fill="#191970" stroke="#191970" points="755.5795,-365.137 763.9986,-358.7051 753.4061,-358.4829 755.5795,-365.137"/>
</g>
<!-- Node15180 -->
<g id="node18" class="node">
<title>Node15180</title>
<g id="a_node18"><a xlink:href="value_8c.html#ad5da2574fed047b3ae861999d06c38ac" target="_top" xlink:title="Clear/free any existing value and metadata. ">
<polygon fill="none" stroke="#ff0000" points="744.5,-380.5 744.5,-399.5 842.5,-399.5 842.5,-380.5 744.5,-380.5"/>
<text text-anchor="middle" x="793.5" y="-387.5" font-family="Helvetica,sans-Serif" font-size="10.00" fill="#000000">fr_value_box_clear</text>
</a>
</g>
</g>
<!-- Node15167&#45;&gt;Node15180 -->
<g id="edge26" class="edge">
<title>Node15167&#45;&gt;Node15180</title>
<path fill="none" stroke="#191970" d="M674.435,-437.4595C697.8417,-428.1295 733.6949,-413.8384 759.9432,-403.3758"/>
<polygon fill="#191970" stroke="#191970" points="761.4936,-406.5256 769.4869,-399.5716 758.9017,-400.0232 761.4936,-406.5256"/>
</g>
<!-- Node15272 -->
<g id="node19" class="node">
<title>Node15272</title>
<g id="a_node19"><a xlink:href="value_8c.html#a1064a346792dc1e5ecf05d04b4c1af55" target="_top" xlink:title="Concatenate the string representations of a list of value boxes together. ">
<polygon fill="none" stroke="#ff0000" points="734,-494.5 734,-513.5 853,-513.5 853,-494.5 734,-494.5"/>
<text text-anchor="middle" x="793.5" y="-501.5" font-family="Helvetica,sans-Serif" font-size="10.00" fill="#000000">fr_value_box_list_aprint</text>
</a>
</g>
</g>
<!-- Node15167&#45;&gt;Node15272 -->
<g id="edge28" class="edge">
<title>Node15167&#45;&gt;Node15272</title>
<path fill="none" stroke="#191970" d="M669.7936,-456.5665C686.542,-464.6803 711.561,-476.3461 734,-485 739.5741,-487.1497 745.5047,-489.2541 751.3803,-491.2332"/>
<polygon fill="#191970" stroke="#191970" points="750.5511,-494.6445 761.1438,-494.4313 752.7301,-487.9923 750.5511,-494.6445"/>
</g>
<!-- Node15274 -->
<g id="node20" class="node">
<title>Node15274</title>
<g id="a_node20"><a xlink:href="util_2pair_8h.html#acfe6934363fefdc67e14fc08a205952b" target="_top" xlink:title="fr_pair_aprint">
<polygon fill="none" stroke="#000000" points="757,-456.5 757,-475.5 830,-475.5 830,-456.5 757,-456.5"/>
<text text-anchor="middle" x="793.5" y="-463.5" font-family="Helvetica,sans-Serif" font-size="10.00" fill="#000000">fr_pair_aprint</text>
</a>
</g>
</g>
<!-- Node15167&#45;&gt;Node15274 -->
<g id="edge31" class="edge">
<title>Node15167&#45;&gt;Node15274</title>
<path fill="none" stroke="#191970" d="M683.3071,-451.359C702.0708,-453.8521 725.922,-457.0211 746.6322,-459.7728"/>
<polygon fill="#191970" stroke="#191970" points="746.4466,-463.2788 756.8205,-461.1265 747.3686,-456.3398 746.4466,-463.2788"/>
</g>
<!-- Node15170&#45;&gt;Node15154 -->
<g id="edge19" class="edge">
<title>Node15170&#45;&gt;Node15154</title>
<path fill="none" stroke="#191970" d="M745.1341,-621.1436C616.6094,-629.4973 266.443,-652.2569 120.3646,-661.7515"/>
<polygon fill="#191970" stroke="#191970" points="119.9574,-658.2705 110.2055,-662.4118 120.4115,-665.2558 119.9574,-658.2705"/>
</g>
<!-- Node15170&#45;&gt;Node15155 -->
<g id="edge18" class="edge">
<title>Node15170&#45;&gt;Node15155</title>
<path fill="none" stroke="#191970" d="M745.2526,-610.3637C666.5957,-597.9144 511.3241,-573.3391 429.6232,-560.408"/>
<polygon fill="#191970" stroke="#191970" points="429.9799,-556.921 419.5557,-558.8146 428.8856,-563.8349 429.9799,-556.921"/>
</g>
<!-- Node15170&#45;&gt;Node15192 -->
<g id="edge20" class="edge">
<title>Node15170&#45;&gt;Node15192</title>
<path fill="none" stroke="#191970" d="M841.5938,-618C853.349,-618 866.1386,-618 878.5973,-618"/>
<polygon fill="#191970" stroke="#191970" points="878.9549,-621.5001 888.9548,-618 878.9548,-614.5001 878.9549,-621.5001"/>
</g>
<!-- Node15170&#45;&gt;Node15190 -->
<g id="edge22" class="edge">
<title>Node15170&#45;&gt;Node15190</title>
<path fill="none" stroke="#191970" d="M806.198,-627.5235C832.2857,-647.0892 892.1521,-691.9891 924.2501,-716.0626"/>
<polygon fill="#191970" stroke="#191970" points="922.4159,-719.0619 932.5159,-722.262 926.6159,-713.4619 922.4159,-719.0619"/>
</g>
<!-- Node15192&#45;&gt;Node15155 -->
<g id="edge21" class="edge">
<title>Node15192&#45;&gt;Node15155</title>
<path fill="none" stroke="#191970" d="M902.8047,-608.4792C887.186,-605.1951 869.341,-601.6737 853,-599 726.621,-578.3223 694.5138,-575.8083 567,-564 520.8528,-559.7266 468.273,-556.541 430.061,-554.53"/>
<polygon fill="#191970" stroke="#191970" points="429.8488,-551.0145 419.6815,-553.9941 429.4877,-558.0052 429.8488,-551.0145"/>
</g>
<!-- Node15190&#45;&gt;Node15176 -->
<g id="edge23" class="edge">
<title>Node15190&#45;&gt;Node15176</title>
<path fill="none" stroke="#191970" d="M993.5908,-732C1004.6193,-732 1016.4296,-732 1027.7337,-732"/>
<polygon fill="#191970" stroke="#191970" points="1027.9357,-735.5001 1037.9357,-732 1027.9357,-728.5001 1027.9357,-735.5001"/>
</g>
<!-- Node15271&#45;&gt;Node15166 -->
<g id="edge25" class="edge">
<title>Node15271&#45;&gt;Node15166</title>
<path fill="none" stroke="#191970" d="M819.2931,-342.4326C829.8722,-338.2935 842.1563,-333.2083 853,-328 876.7245,-316.605 902.777,-301.7338 921.1706,-290.815"/>
<polygon fill="#191970" stroke="#191970" points="923.0073,-293.7948 929.7893,-285.6551 919.4116,-287.7888 923.0073,-293.7948"/>
</g>
<!-- Node15180&#45;&gt;Node15176 -->
<g id="edge27" class="edge">
<title>Node15180&#45;&gt;Node15176</title>
<path fill="none" stroke="#191970" d="M842.9172,-395.3846C890.0824,-403.1 959.9999,-421.6706 1002,-466 1036.7894,-502.7188 1068.9004,-657.571 1079.4053,-712.5421"/>
<polygon fill="#191970" stroke="#191970" points="1075.9732,-713.2301 1081.2626,-722.4101 1082.8525,-711.9352 1075.9732,-713.2301"/>
</g>
<!-- Node15272&#45;&gt;Node15168 -->
<g id="edge29" class="edge">
<title>Node15272&#45;&gt;Node15168</title>
<path fill="none" stroke="#191970" d="M853.1382,-511.4548C863.493,-512.7491 874.2732,-514.0967 884.6597,-515.395"/>
<polygon fill="#191970" stroke="#191970" points="884.5276,-518.9056 894.8846,-516.6731 885.3959,-511.9597 884.5276,-518.9056"/>
</g>
<!-- Node15272&#45;&gt;Node15169 -->
<g id="edge30" class="edge">
<title>Node15272&#45;&gt;Node15169</title>
<path fill="none" stroke="#191970" d="M853.1382,-496.5452C863.493,-495.2509 874.2732,-493.9033 884.6597,-492.605"/>
<polygon fill="#191970" stroke="#191970" points="885.3959,-496.0403 894.8846,-491.3269 884.5276,-489.0944 885.3959,-496.0403"/>
</g>
<!-- Node15266&#45;&gt;Node15155 -->
<g id="edge37" class="edge">
<title>Node15266&#45;&gt;Node15155</title>
<path fill="none" stroke="#191970" d="M222.5823,-760.9549C251.9939,-721.0265 331.9234,-612.5161 363.4565,-569.7076"/>
<polygon fill="#191970" stroke="#191970" points="366.3023,-571.7455 369.4151,-561.6183 360.6663,-567.594 366.3023,-571.7455"/>
</g>
<!-- Node15266&#45;&gt;Node15190 -->
<g id="edge39" class="edge">
<title>Node15266&#45;&gt;Node15190</title>
<path fill="none" stroke="#191970" d="M260.6211,-774.4626C321.7435,-772.6849 429.3169,-770 521.5,-770 521.5,-770 521.5,-770 650.5,-770 734.5829,-770 831.0501,-754.6265 890.1303,-743.4363"/>
<polygon fill="#191970" stroke="#191970" points="890.839,-746.8642 899.9988,-741.54 889.518,-739.99 890.839,-746.8642"/>
</g>
<!-- Node15266&#45;&gt;Node15176 -->
<g id="edge38" class="edge">
<title>Node15266&#45;&gt;Node15176</title>
<path fill="none" stroke="#191970" d="M260.7331,-784.2408C321.7443,-793.7222 428.9797,-808 521.5,-808 521.5,-808 521.5,-808 793.5,-808 890.6463,-808 1000.2971,-767.4687 1052.3801,-745.6044"/>
<polygon fill="#191970" stroke="#191970" points="1053.8876,-748.7666 1061.7141,-741.6255 1051.1426,-742.3273 1053.8876,-748.7666"/>
</g>
<!-- Node15276&#45;&gt;Node15155 -->
<g id="edge45" class="edge">
<title>Node15276&#45;&gt;Node15155</title>
<path fill="none" stroke="#191970" d="M223.6518,-453.1225C241.2295,-474.0283 275.7497,-511.596 313,-533 316.7041,-535.1284 320.6693,-537.039 324.742,-538.7503"/>
<polygon fill="#191970" stroke="#191970" points="323.7762,-542.1269 334.3678,-542.3903 326.2522,-535.5794 323.7762,-542.1269"/>
</g>
<!-- Node15276&#45;&gt;Node15176 -->
<g id="edge46" class="edge">
<title>Node15276&#45;&gt;Node15176</title>
<path fill="none" stroke="#191970" d="M218.506,-453.2172C232.2973,-481.35 265.782,-541.3251 313,-571 577.7202,-737.3679 696.6628,-645.7375 1002,-713 1012.0505,-715.214 1022.7809,-717.6674 1033.0343,-720.0554"/>
<polygon fill="#191970" stroke="#191970" points="1032.551,-723.5369 1043.0857,-722.4104 1034.1478,-716.7214 1032.551,-723.5369"/>
</g>
<!-- Node15277 -->
<g id="node24" class="node">
<title>Node15277</title>
<g id="a_node24"><a xlink:href="dbuff_8c.html#a6e56446e714b3c7a19bf9537185674ec" target="_top" xlink:title="min">
<polygon fill="none" stroke="#000000" points="360.5,-504.5 360.5,-523.5 392.5,-523.5 392.5,-504.5 360.5,-504.5"/>
<text text-anchor="middle" x="376.5" y="-511.5" font-family="Helvetica,sans-Serif" font-size="10.00" fill="#000000">min</text>
</a>
</g>
</g>
<!-- Node15276&#45;&gt;Node15277 -->
<g id="edge41" class="edge">
<title>Node15276&#45;&gt;Node15277</title>
<path fill="none" stroke="#191970" d="M234.9407,-453.1354C255.0417,-465.6264 285.0923,-483.161 313,-495 324.9226,-500.0578 338.6352,-504.3407 350.2596,-507.5526"/>
<polygon fill="#191970" stroke="#191970" points="349.6741,-511.018 360.2367,-510.1926 351.4648,-504.2509 349.6741,-511.018"/>
</g>
<!-- Node15278 -->
<g id="node25" class="node">
<title>Node15278</title>
<g id="a_node25"><a xlink:href="time_8h.html#a764e37b5ffca11aa97a3fcea90c4aa7b" target="_top" xlink:title="fr_time_delta_to_sec">
<polygon fill="none" stroke="#000000" points="323,-466.5 323,-485.5 430,-485.5 430,-466.5 323,-466.5"/>
<text text-anchor="middle" x="376.5" y="-473.5" font-family="Helvetica,sans-Serif" font-size="10.00" fill="#000000">fr_time_delta_to_sec</text>
</a>
</g>
</g>
<!-- Node15276&#45;&gt;Node15278 -->
<g id="edge42" class="edge">
<title>Node15276&#45;&gt;Node15278</title>
<path fill="none" stroke="#191970" d="M276.7124,-453.0186C292.821,-456.7285 309.8503,-460.6504 325.192,-464.1836"/>
<polygon fill="#191970" stroke="#191970" points="324.4729,-467.6096 335.0033,-466.4432 326.044,-460.7881 324.4729,-467.6096"/>
</g>
<!-- Node15279 -->
<g id="node26" class="node">
<title>Node15279</title>
<g id="a_node26"><a xlink:href="time_8h.html#a8b34ff07c2fd10936feb770b1cdd00ac" target="_top" xlink:title="fr_time_delta_to_usec">
<polygon fill="none" stroke="#000000" points="320,-428.5 320,-447.5 433,-447.5 433,-428.5 320,-428.5"/>
<text text-anchor="middle" x="376.5" y="-435.5" font-family="Helvetica,sans-Serif" font-size="10.00" fill="#000000">fr_time_delta_to_usec</text>
</a>
</g>
</g>
<!-- Node15276&#45;&gt;Node15279 -->
<g id="edge43" class="edge">
<title>Node15276&#45;&gt;Node15279</title>
<path fill="none" stroke="#191970" d="M277.1865,-438C287.8788,-438 298.9647,-438 309.6838,-438"/>
<polygon fill="#191970" stroke="#191970" points="309.8237,-441.5001 319.8237,-438 309.8237,-434.5001 309.8237,-441.5001"/>
</g>
<!-- Node15280 -->
<g id="node27" class="node">
<title>Node15280</title>
<g id="a_node27"><a xlink:href="time_8h.html#ae8188323e6975efb29e14339a56d2878" target="_top" xlink:title="fr_time_delta_to_msec">
<polygon fill="none" stroke="#000000" points="318.5,-390.5 318.5,-409.5 434.5,-409.5 434.5,-390.5 318.5,-390.5"/>
<text text-anchor="middle" x="376.5" y="-397.5" font-family="Helvetica,sans-Serif" font-size="10.00" fill="#000000">fr_time_delta_to_msec</text>
</a>
</g>
</g>
<!-- Node15276&#45;&gt;Node15280 -->
<g id="edge44" class="edge">
<title>Node15276&#45;&gt;Node15280</title>
<path fill="none" stroke="#191970" d="M276.7124,-422.9814C292.821,-419.2715 309.8503,-415.3496 325.192,-411.8164"/>
<polygon fill="#191970" stroke="#191970" points="326.044,-415.2119 335.0033,-409.5568 324.4729,-408.3904 326.044,-415.2119"/>
</g>
<!-- Node15281 -->
<g id="node28" class="node">
<title>Node15281</title>
<g id="a_node28"><a xlink:href="time_8h.html#a3f87b408dfcb4d3212d1c8831ed360cd" target="_top" xlink:title="fr_time_delta_from_sec">
<polygon fill="none" stroke="#000000" points="317,-352.5 317,-371.5 436,-371.5 436,-352.5 317,-352.5"/>
<text text-anchor="middle" x="376.5" y="-359.5" font-family="Helvetica,sans-Serif" font-size="10.00" fill="#000000">fr_time_delta_from_sec</text>
</a>
</g>
</g>
<!-- Node15276&#45;&gt;Node15281 -->
<g id="edge47" class="edge">
<title>Node15276&#45;&gt;Node15281</title>
<path fill="none" stroke="#191970" d="M234.9407,-422.8646C255.0417,-410.3736 285.0923,-392.839 313,-381 318.3613,-378.7256 324.0845,-376.608 329.8171,-374.6739"/>
<polygon fill="#191970" stroke="#191970" points="330.9576,-377.9838 339.4111,-371.5971 328.8199,-371.3182 330.9576,-377.9838"/>
</g>
<!-- Node15282 -->
<g id="node29" class="node">
<title>Node15282</title>
<g id="a_node29"><a xlink:href="time_8h.html#adc009022f3682ade407df270bfc7c496" target="_top" xlink:title="fr_time_delta_from_usec">
<polygon fill="none" stroke="#000000" points="314.5,-314.5 314.5,-333.5 438.5,-333.5 438.5,-314.5 314.5,-314.5"/>
<text text-anchor="middle" x="376.5" y="-321.5" font-family="Helvetica,sans-Serif" font-size="10.00" fill="#000000">fr_time_delta_from_usec</text>
</a>
</g>
</g>
<!-- Node15276&#45;&gt;Node15282 -->
<g id="edge48" class="edge">
<title>Node15276&#45;&gt;Node15282</title>
<path fill="none" stroke="#191970" d="M223.6518,-422.8775C241.2295,-401.9717 275.7497,-364.404 313,-343 316.7041,-340.8716 320.6693,-338.961 324.742,-337.2497"/>
<polygon fill="#191970" stroke="#191970" points="326.2522,-340.4206 334.3678,-333.6097 323.7762,-333.8731 326.2522,-340.4206"/>
</g>
<!-- Node15283 -->
<g id="node30" class="node">
<title>Node15283</title>
<g id="a_node30"><a xlink:href="time_8h.html#a0dc16647a369e480c265b6354b04bc95" target="_top" xlink:title="fr_time_delta_from_msec">
<polygon fill="none" stroke="#000000" points="313,-276.5 313,-295.5 440,-295.5 440,-276.5 313,-276.5"/>
<text text-anchor="middle" x="376.5" y="-283.5" font-family="Helvetica,sans-Serif" font-size="10.00" fill="#000000">fr_time_delta_from_msec</text>
</a>
</g>
</g>
<!-- Node15276&#45;&gt;Node15283 -->
<g id="edge49" class="edge">
<title>Node15276&#45;&gt;Node15283</title>
<path fill="none" stroke="#191970" d="M218.9814,-422.7324C233.3248,-395.0548 267.3638,-336.5461 313,-305 315.8797,-303.0094 318.9717,-301.2236 322.1849,-299.622"/>
<polygon fill="#191970" stroke="#191970" points="323.7098,-302.7756 331.4855,-295.5792 320.9192,-296.3559 323.7098,-302.7756"/>
</g>
<!-- Node15284 -->
<g id="node31" class="node">
<title>Node15284</title>
<g id="a_node31"><a xlink:href="time_8h.html#abc5f7ab34934ab4a6a146ed729d42663" target="_top" xlink:title="fr_time_delta_from_nsec">
<polygon fill="none" stroke="#000000" points="314.5,-238.5 314.5,-257.5 438.5,-257.5 438.5,-238.5 314.5,-238.5"/>
<text text-anchor="middle" x="376.5" y="-245.5" font-family="Helvetica,sans-Serif" font-size="10.00" fill="#000000">fr_time_delta_from_nsec</text>
</a>
</g>
</g>
<!-- Node15276&#45;&gt;Node15284 -->
<g id="edge50" class="edge">
<title>Node15276&#45;&gt;Node15284</title>
<path fill="none" stroke="#191970" d="M220.1208,-422.8019C243.3411,-381.9583 305.9251,-272.5241 313,-267 315.4163,-265.1134 318.0173,-263.4136 320.7385,-261.8823"/>
<polygon fill="#191970" stroke="#191970" points="322.2654,-265.0318 329.7594,-257.5423 319.2306,-258.7238 322.2654,-265.0318"/>
</g>
<!-- Node15286 -->
<g id="node33" class="node">
<title>Node15286</title>
<g id="a_node33"><a xlink:href="net_8h.html#a56dc3fdada059f4961924d23b1aef15a" target="_top" xlink:title="Read an unsigned 32bit integer from wire format (big endian) ">
<polygon fill="none" stroke="#000000" points="333.5,-86.5 333.5,-105.5 419.5,-105.5 419.5,-86.5 333.5,-86.5"/>
<text text-anchor="middle" x="376.5" y="-93.5" font-family="Helvetica,sans-Serif" font-size="10.00" fill="#000000">fr_net_to_uint32</text>
</a>
</g>
</g>
<!-- Node15285&#45;&gt;Node15286 -->
<g id="edge54" class="edge">
<title>Node15285&#45;&gt;Node15286</title>
<path fill="none" stroke="#191970" d="M219.237,-292.3405C245.0522,-260.1105 328.4965,-155.9316 362.1914,-113.8641"/>
<polygon fill="#191970" stroke="#191970" points="365.0679,-115.8714 368.5878,-105.8783 359.6044,-111.4953 365.0679,-115.8714"/>
</g>
<!-- Node15287 -->
<g id="node34" class="node">
<title>Node15287</title>
<g id="a_node34"><a xlink:href="net_8h.html#a84cd6c761e97dced15b6b85deee3eb3e" target="_top" xlink:title="Read an unsigned 16bit integer from wire format (big endian) ">
<polygon fill="none" stroke="#000000" points="478.5,-.5 478.5,-19.5 564.5,-19.5 564.5,-.5 478.5,-.5"/>
<text text-anchor="middle" x="521.5" y="-7.5" font-family="Helvetica,sans-Serif" font-size="10.00" fill="#000000">fr_net_to_uint16</text>
</a>
</g>
</g>
<!-- Node15286&#45;&gt;Node15287 -->
<g id="edge55" class="edge">
<title>Node15286&#45;&gt;Node15287</title>
<path fill="none" stroke="#191970" d="M391.1334,-86.4203C410.3594,-73.9414 445.2893,-51.6374 476,-34 481.6922,-30.7309 487.8665,-27.3606 493.7768,-24.2167"/>
<polygon fill="#191970" stroke="#191970" points="495.5138,-27.2579 502.74,-19.5098 492.2592,-21.0605 495.5138,-27.2579"/>
</g>
</g>
</svg>
