<?xml version="1.0" encoding="UTF-8" standalone="no"?>
<!DOCTYPE svg PUBLIC "-//W3C//DTD SVG 1.1//EN"
 "http://www.w3.org/Graphics/SVG/1.1/DTD/svg11.dtd">
<!-- Generated by graphviz version 2.40.1 (20161225.0304)
 -->
<!-- Title: fr_value_box_from_str Pages: 1 -->
<svg width="1109pt" height="689pt"
 viewBox="0.00 0.00 1109.00 689.34" xmlns="http://www.w3.org/2000/svg" xmlns:xlink="http://www.w3.org/1999/xlink">
<g id="graph0" class="graph" transform="scale(1 1) rotate(0) translate(4 685.3373)">
<title>fr_value_box_from_str</title>
<!-- Node9431 -->
<g id="node1" class="node">
<title>Node9431</title>
<polygon fill="#bfbfbf" stroke="#000000" points="0,-290.8373 0,-309.8373 113,-309.8373 113,-290.8373 0,-290.8373"/>
<text text-anchor="middle" x="56.5" y="-297.8373" font-family="Helvetica,sans-Serif" font-size="10.00" fill="#000000">fr_value_box_from_str</text>
</g>
<!-- Node9432 -->
<g id="node2" class="node">
<title>Node9432</title>
<g id="a_node2"><a xlink:href="value_8h.html#abccbbff328e7503ef66ae6dd1a0a0c09" target="_top" xlink:title="fr_value_str_aunescape">
<polygon fill="none" stroke="#000000" points="149,-625.8373 149,-644.8373 269,-644.8373 269,-625.8373 149,-625.8373"/>
<text text-anchor="middle" x="209" y="-632.8373" font-family="Helvetica,sans-Serif" font-size="10.00" fill="#000000">fr_value_str_aunescape</text>
</a>
</g>
</g>
<!-- Node9431&#45;&gt;Node9432 -->
<g id="edge1" class="edge">
<title>Node9431&#45;&gt;Node9432</title>
<path fill="none" stroke="#191970" d="M58.0983,-310.1152C66.1563,-358.3044 103.728,-570.0624 149,-616.3373 150.4327,-617.8018 151.9774,-619.1536 153.61,-620.4015"/>
<polygon fill="#191970" stroke="#191970" points="152.0445,-623.5479 162.394,-625.8146 155.7169,-617.5886 152.0445,-623.5479"/>
</g>
<!-- Node9433 -->
<g id="node3" class="node">
<title>Node9433</title>
<g id="a_node3"><a xlink:href="value_8c.html#a6e90cfa3e11cf0731480d08055ee9aef" target="_top" xlink:title="Convert a string value with escape sequences into its binary form. ">
<polygon fill="none" stroke="#000000" points="151.5,-587.8373 151.5,-606.8373 266.5,-606.8373 266.5,-587.8373 151.5,-587.8373"/>
<text text-anchor="middle" x="209" y="-594.8373" font-family="Helvetica,sans-Serif" font-size="10.00" fill="#000000">fr_value_str_unescape</text>
</a>
</g>
</g>
<!-- Node9431&#45;&gt;Node9433 -->
<g id="edge2" class="edge">
<title>Node9431&#45;&gt;Node9433</title>
<path fill="none" stroke="#191970" d="M56.9645,-310.0099C59.3259,-348.5883 73.1027,-493.2413 149,-573.3373 152.6209,-577.1585 156.9301,-580.3852 161.5537,-583.1069"/>
<polygon fill="#191970" stroke="#191970" points="160.23,-586.3594 170.7342,-587.7422 163.385,-580.1107 160.23,-586.3594"/>
</g>
<!-- Node9439 -->
<g id="node9" class="node">
<title>Node9439</title>
<g id="a_node9"><a xlink:href="dict_8h.html#ab55d8dc01594b2f69faf5eb33b425f22" target="_top" xlink:title="fr_dict_enum_by_name">
<polygon fill="none" stroke="#000000" points="150,-464.8373 150,-483.8373 268,-483.8373 268,-464.8373 150,-464.8373"/>
<text text-anchor="middle" x="209" y="-471.8373" font-family="Helvetica,sans-Serif" font-size="10.00" fill="#000000">fr_dict_enum_by_name</text>
</a>
</g>
</g>
<!-- Node9431&#45;&gt;Node9439 -->
<g id="edge10" class="edge">
<title>Node9431&#45;&gt;Node9439</title>
<path fill="none" stroke="#191970" d="M60.1937,-309.9295C70.4948,-335.5419 101.9104,-406.3687 149,-447.3373 155.0594,-452.6091 162.3164,-457.0217 169.6562,-460.6496"/>
<polygon fill="#191970" stroke="#191970" points="168.3593,-463.9042 178.9136,-464.8307 171.2407,-457.5247 168.3593,-463.9042"/>
</g>
<!-- Node9441 -->
<g id="node11" class="node">
<title>Node9441</title>
<g id="a_node11"><a xlink:href="strerror_8c.html#ae701765650b8aea79a3037bc4921d7f8" target="_top" xlink:title="Log to thread local error buffer. ">
<polygon fill="none" stroke="#000000" points="501.5,-233.8373 501.5,-252.8373 587.5,-252.8373 587.5,-233.8373 501.5,-233.8373"/>
<text text-anchor="middle" x="544.5" y="-240.8373" font-family="Helvetica,sans-Serif" font-size="10.00" fill="#000000">fr_strerror_printf</text>
</a>
</g>
</g>
<!-- Node9431&#45;&gt;Node9441 -->
<g id="edge32" class="edge">
<title>Node9431&#45;&gt;Node9441</title>
<path fill="none" stroke="#191970" d="M74.6709,-290.6866C92.8976,-281.5387 122.0542,-268.3317 149,-262.3373 269.0042,-235.641 414.3552,-236.9716 491.0741,-240.1991"/>
<polygon fill="#191970" stroke="#191970" points="491.2872,-243.7121 501.4342,-240.6644 491.6013,-236.7192 491.2872,-243.7121"/>
</g>
<!-- Node9457 -->
<g id="node21" class="node">
<title>Node9457</title>
<g id="a_node21"><a xlink:href="value_8c.html#a4fadbcd199d20611112e21b7f0da11c4" target="_top" xlink:title="Copy value data verbatim duplicating any buffers. ">
<polygon fill="none" stroke="#ff0000" points="330,-119.8373 330,-138.8373 428,-138.8373 428,-119.8373 330,-119.8373"/>
<text text-anchor="middle" x="379" y="-126.8373" font-family="Helvetica,sans-Serif" font-size="10.00" fill="#000000">fr_value_box_copy</text>
</a>
</g>
</g>
<!-- Node9431&#45;&gt;Node9457 -->
<g id="edge29" class="edge">
<title>Node9431&#45;&gt;Node9457</title>
<path fill="none" stroke="#191970" d="M59.3263,-290.7341C67.8023,-263.8257 95.7719,-187.499 149,-154.3373 200.0825,-122.5124 270.1636,-119.378 319.5019,-122.2511"/>
<polygon fill="#191970" stroke="#191970" points="319.4859,-125.758 329.7011,-122.9472 319.9626,-118.7743 319.4859,-125.758"/>
</g>
<!-- Node9479 -->
<g id="node22" class="node">
<title>Node9479</title>
<g id="a_node22"><a xlink:href="missing_8c.html#a3c28b90d7e1fc3e492c1fac0af04d21b" target="_top" xlink:title="strncasecmp">
<polygon fill="none" stroke="#000000" points="342.5,-157.8373 342.5,-176.8373 415.5,-176.8373 415.5,-157.8373 342.5,-157.8373"/>
<text text-anchor="middle" x="379" y="-164.8373" font-family="Helvetica,sans-Serif" font-size="10.00" fill="#000000">strncasecmp</text>
</a>
</g>
</g>
<!-- Node9431&#45;&gt;Node9479 -->
<g id="edge31" class="edge">
<title>Node9431&#45;&gt;Node9479</title>
<path fill="none" stroke="#191970" d="M60.8693,-290.808C71.8912,-268.023 103.2465,-210.4943 149,-186.3373 206.4361,-156.0122 283.3561,-156.4738 332.0544,-160.8919"/>
<polygon fill="#191970" stroke="#191970" points="332.0005,-164.4039 342.2994,-161.9177 332.6979,-157.4387 332.0005,-164.4039"/>
</g>
<!-- Node9480 -->
<g id="node23" class="node">
<title>Node9480</title>
<g id="a_node23"><a xlink:href="hex_8c.html#a4b78e4d330d756e11a2ace4bc9b046ed" target="_top" xlink:title="Convert hex strings to binary data. ">
<polygon fill="none" stroke="#000000" points="178,-347.8373 178,-366.8373 240,-366.8373 240,-347.8373 178,-347.8373"/>
<text text-anchor="middle" x="209" y="-354.8373" font-family="Helvetica,sans-Serif" font-size="10.00" fill="#000000">fr_hex2bin</text>
</a>
</g>
</g>
<!-- Node9431&#45;&gt;Node9480 -->
<g id="edge33" class="edge">
<title>Node9431&#45;&gt;Node9480</title>
<path fill="none" stroke="#191970" d="M82.0251,-309.8778C107.2067,-319.29 145.8966,-333.7511 173.9514,-344.2372"/>
<polygon fill="#191970" stroke="#191970" points="172.7992,-347.5429 183.3917,-347.7657 175.25,-340.986 172.7992,-347.5429"/>
</g>
<!-- Node9481 -->
<g id="node24" class="node">
<title>Node9481</title>
<g id="a_node24"><a xlink:href="inet_8c.html#a5892704117fe15fc29cbf9fef977bad4" target="_top" xlink:title="Parse an IPv4 address or IPv4 prefix in presentation format (and others) ">
<polygon fill="none" stroke="#ff0000" points="342.5,-385.8373 342.5,-404.8373 415.5,-404.8373 415.5,-385.8373 342.5,-385.8373"/>
<text text-anchor="middle" x="379" y="-392.8373" font-family="Helvetica,sans-Serif" font-size="10.00" fill="#000000">fr_inet_pton4</text>
</a>
</g>
</g>
<!-- Node9431&#45;&gt;Node9481 -->
<g id="edge34" class="edge">
<title>Node9431&#45;&gt;Node9481</title>
<path fill="none" stroke="#191970" d="M60.7463,-310.1117C71.4952,-333.4407 102.2901,-392.0858 149,-414.3373 180.308,-429.2517 274.441,-415.3083 332.1195,-404.7148"/>
<polygon fill="#191970" stroke="#191970" points="332.9068,-408.1283 342.0931,-402.8498 331.6201,-401.2476 332.9068,-408.1283"/>
</g>
<!-- Node9482 -->
<g id="node25" class="node">
<title>Node9482</title>
<g id="a_node25"><a xlink:href="misc_8h.html#aa0dcb524deec9f235b4a696b28d7b626" target="_top" xlink:title="Check whether the string is all numbers. ">
<polygon fill="none" stroke="#000000" points="515,-467.8373 515,-486.8373 574,-486.8373 574,-467.8373 515,-467.8373"/>
<text text-anchor="middle" x="544.5" y="-474.8373" font-family="Helvetica,sans-Serif" font-size="10.00" fill="#000000">is_integer</text>
</a>
</g>
</g>
<!-- Node9431&#45;&gt;Node9482 -->
<g id="edge50" class="edge">
<title>Node9431&#45;&gt;Node9482</title>
<path fill="none" stroke="#191970" d="M58.2758,-310.0406C64.5457,-341.4983 88.6082,-441.6124 149,-493.3373 252.8363,-582.272 322.4503,-580.9345 453,-540.3373 482.1215,-531.2814 510.1771,-509.3767 527.373,-493.9511"/>
<polygon fill="#191970" stroke="#191970" points="529.9387,-496.3455 534.8994,-486.9837 525.1834,-491.2086 529.9387,-496.3455"/>
</g>
<!-- Node9498 -->
<g id="node26" class="node">
<title>Node9498</title>
<g id="a_node26"><a xlink:href="inet_8c.html#a30e75e7a6db079b3de362c0fa66c4647" target="_top" xlink:title="Parse an IPv6 address or IPv6 prefix in presentation format (and others) ">
<polygon fill="none" stroke="#ff0000" points="342.5,-309.8373 342.5,-328.8373 415.5,-328.8373 415.5,-309.8373 342.5,-309.8373"/>
<text text-anchor="middle" x="379" y="-316.8373" font-family="Helvetica,sans-Serif" font-size="10.00" fill="#000000">fr_inet_pton6</text>
</a>
</g>
</g>
<!-- Node9431&#45;&gt;Node9498 -->
<g id="edge37" class="edge">
<title>Node9431&#45;&gt;Node9498</title>
<path fill="none" stroke="#191970" d="M113.0443,-303.6686C175.246,-307.3332 274.0693,-313.1554 332.1252,-316.5757"/>
<polygon fill="#191970" stroke="#191970" points="331.9363,-320.0705 342.1249,-317.1648 332.348,-313.0827 331.9363,-320.0705"/>
</g>
<!-- Node9500 -->
<g id="node27" class="node">
<title>Node9500</title>
<g id="a_node27"><a xlink:href="value_8c.html#a3dc24a5a9c57bff3ebba89819b8816e2" target="_top" xlink:title="Convert integer encoded as string to a fr_value_box_t type. ">
<polygon fill="none" stroke="#ff0000" points="305,-43.8373 305,-62.8373 453,-62.8373 453,-43.8373 305,-43.8373"/>
<text text-anchor="middle" x="379" y="-50.8373" font-family="Helvetica,sans-Serif" font-size="10.00" fill="#000000">fr_value_box_from_integer_str</text>
</a>
</g>
</g>
<!-- Node9431&#45;&gt;Node9500 -->
<g id="edge39" class="edge">
<title>Node9431&#45;&gt;Node9500</title>
<path fill="none" stroke="#191970" d="M57.0496,-290.4036C59.648,-254.048 73.9689,-127.4934 149,-72.3373 198.38,-36.0376 270.8636,-36.3333 321.2123,-42.4519"/>
<polygon fill="#191970" stroke="#191970" points="320.9148,-45.943 331.2884,-43.7894 321.8359,-39.0039 320.9148,-45.943"/>
</g>
<!-- Node9503 -->
<g id="node28" class="node">
<title>Node9503</title>
<g id="a_node28"><a xlink:href="misc_8c.html#a665548a244461845955513e1553c4893" target="_top" xlink:title="fr_size_from_str">
<polygon fill="none" stroke="#ff0000" points="165.5,-5.8373 165.5,-24.8373 252.5,-24.8373 252.5,-5.8373 165.5,-5.8373"/>
<text text-anchor="middle" x="209" y="-12.8373" font-family="Helvetica,sans-Serif" font-size="10.00" fill="#000000">fr_size_from_str</text>
</a>
</g>
</g>
<!-- Node9431&#45;&gt;Node9503 -->
<g id="edge41" class="edge">
<title>Node9431&#45;&gt;Node9503</title>
<path fill="none" stroke="#191970" d="M57.1259,-290.8292C60.0768,-253.5414 75.7215,-115.6004 149,-39.3373 152.7894,-35.3935 157.3114,-32.0814 162.1496,-29.3035"/>
<polygon fill="#191970" stroke="#191970" points="163.7066,-32.4382 171.1097,-24.859 160.596,-26.1672 163.7066,-32.4382"/>
</g>
<!-- Node9505 -->
<g id="node29" class="node">
<title>Node9505</title>
<g id="a_node29"><a xlink:href="time_8c.html#a7e9c4d86018ac8fdcb95bffd58b28590" target="_top" xlink:title="Create fr_time_delta_t from a string. ">
<polygon fill="none" stroke="#000000" points="152,-271.8373 152,-290.8373 266,-290.8373 266,-271.8373 152,-271.8373"/>
<text text-anchor="middle" x="209" y="-278.8373" font-family="Helvetica,sans-Serif" font-size="10.00" fill="#000000">fr_time_delta_from_str</text>
</a>
</g>
</g>
<!-- Node9431&#45;&gt;Node9505 -->
<g id="edge43" class="edge">
<title>Node9431&#45;&gt;Node9505</title>
<path fill="none" stroke="#191970" d="M113.2854,-293.2624C122.5516,-292.1079 132.2288,-290.9022 141.7182,-289.72"/>
<polygon fill="#191970" stroke="#191970" points="142.4225,-293.1594 151.913,-288.4498 141.557,-286.2131 142.4225,-293.1594"/>
</g>
<!-- Node9506 -->
<g id="node30" class="node">
<title>Node9506</title>
<g id="a_node30"><a xlink:href="misc_8c.html#a0463e2812c5c40557543a48dae4d02aa" target="_top" xlink:title="Convert string in various formats to a fr_unix_time_t. ">
<polygon fill="none" stroke="#ff0000" points="153.5,-195.8373 153.5,-214.8373 264.5,-214.8373 264.5,-195.8373 153.5,-195.8373"/>
<text text-anchor="middle" x="209" y="-202.8373" font-family="Helvetica,sans-Serif" font-size="10.00" fill="#000000">fr_unix_time_from_str</text>
</a>
</g>
</g>
<!-- Node9431&#45;&gt;Node9506 -->
<g id="edge45" class="edge">
<title>Node9431&#45;&gt;Node9506</title>
<path fill="none" stroke="#191970" d="M66.9214,-290.7815C83.3713,-276.0723 116.8053,-247.6674 149,-229.3373 155.9238,-225.3953 163.6233,-221.7934 171.1355,-218.6464"/>
<polygon fill="#191970" stroke="#191970" points="172.4916,-221.8737 180.4782,-214.912 169.8934,-215.3737 172.4916,-221.8737"/>
</g>
<!-- Node10039 -->
<g id="node31" class="node">
<title>Node10039</title>
<g id="a_node31"><a xlink:href="inet_8c.html#a19da2e7e82c33c8c191adb6a347889a7" target="_top" xlink:title="Convert interface&#45;id in colon notation to 8 byte binary form. ">
<polygon fill="none" stroke="#ff0000" points="166,-81.8373 166,-100.8373 252,-100.8373 252,-81.8373 166,-81.8373"/>
<text text-anchor="middle" x="209" y="-88.8373" font-family="Helvetica,sans-Serif" font-size="10.00" fill="#000000">fr_inet_ifid_pton</text>
</a>
</g>
</g>
<!-- Node9431&#45;&gt;Node10039 -->
<g id="edge48" class="edge">
<title>Node9431&#45;&gt;Node10039</title>
<path fill="none" stroke="#191970" d="M58.6885,-290.8157C66.0562,-260.8065 92.7151,-167.1269 149,-115.3373 153.3369,-111.3467 158.4204,-107.9833 163.7615,-105.1577"/>
<polygon fill="#191970" stroke="#191970" points="165.3221,-108.2919 172.9069,-100.8944 162.3645,-101.9474 165.3221,-108.2919"/>
</g>
<!-- Node9769 -->
<g id="node32" class="node">
<title>Node9769</title>
<g id="a_node32"><a xlink:href="inet_8c.html#a692de3948a6ce6349acb797b86a3fb29" target="_top" xlink:title="Simple wrapper to decide whether an IP value is v4 or v6 and call the appropriate parser...">
<polygon fill="none" stroke="#ff0000" points="175,-385.8373 175,-404.8373 243,-404.8373 243,-385.8373 175,-385.8373"/>
<text text-anchor="middle" x="209" y="-392.8373" font-family="Helvetica,sans-Serif" font-size="10.00" fill="#000000">fr_inet_pton</text>
</a>
</g>
</g>
<!-- Node9431&#45;&gt;Node9769 -->
<g id="edge51" class="edge">
<title>Node9431&#45;&gt;Node9769</title>
<path fill="none" stroke="#191970" d="M65.5923,-309.8841C81.229,-325.7911 114.8399,-357.7982 149,-376.3373 154.1063,-379.1086 159.6798,-381.5483 165.3062,-383.6746"/>
<polygon fill="#191970" stroke="#191970" points="164.1569,-386.9805 174.7518,-386.9605 166.4569,-380.3691 164.1569,-386.9805"/>
</g>
<!-- Node9434 -->
<g id="node4" class="node">
<title>Node9434</title>
<g id="a_node4"><a xlink:href="sbuff_8c.html#a31989e502d1d9ebc5461f9e11d21b6e7" target="_top" xlink:title="Copy as many allowed characters as possible from a sbuff to a sbuff. ">
<polygon fill="none" stroke="#000000" points="321,-626.3373 321,-656.3373 437,-656.3373 437,-626.3373 321,-626.3373"/>
<text text-anchor="start" x="329" y="-644.3373" font-family="Helvetica,sans-Serif" font-size="10.00" fill="#000000">fr_sbuff_out_unescape</text>
<text text-anchor="middle" x="379" y="-633.3373" font-family="Helvetica,sans-Serif" font-size="10.00" fill="#000000">_until</text>
</a>
</g>
</g>
<!-- Node9433&#45;&gt;Node9434 -->
<g id="edge3" class="edge">
<title>Node9433&#45;&gt;Node9434</title>
<path fill="none" stroke="#191970" d="M245.8875,-606.8847C264.942,-611.8164 288.8063,-617.9931 311.0468,-623.7494"/>
<polygon fill="#191970" stroke="#191970" points="310.2349,-627.1546 320.7929,-626.2719 311.9889,-620.3779 310.2349,-627.1546"/>
</g>
<!-- Node9438 -->
<g id="node8" class="node">
<title>Node9438</title>
<g id="a_node8"><a xlink:href="sbuff_8c.html#ada6d43d4cb730f03efda8889ce9c43e5" target="_top" xlink:title="Copy as many bytes as possible from a sbuff to a sbuff. ">
<polygon fill="none" stroke="#000000" points="323.5,-587.8373 323.5,-606.8373 434.5,-606.8373 434.5,-587.8373 323.5,-587.8373"/>
<text text-anchor="middle" x="379" y="-594.8373" font-family="Helvetica,sans-Serif" font-size="10.00" fill="#000000">fr_sbuff_out_bstrncpy</text>
</a>
</g>
</g>
<!-- Node9433&#45;&gt;Node9438 -->
<g id="edge9" class="edge">
<title>Node9433&#45;&gt;Node9438</title>
<path fill="none" stroke="#191970" d="M266.5542,-597.3373C281.4244,-597.3373 297.5499,-597.3373 312.822,-597.3373"/>
<polygon fill="#191970" stroke="#191970" points="313.2327,-600.8374 323.2327,-597.3373 313.2326,-593.8374 313.2327,-600.8374"/>
</g>
<!-- Node9435 -->
<g id="node5" class="node">
<title>Node9435</title>
<g id="a_node5"><a xlink:href="sbuff_8c.html#a9341a3ec24692071eb6f5688825f80c9" target="_top" xlink:title="Copy as many allowed characters as possible from a sbuff to a sbuff. ">
<polygon fill="none" stroke="#000000" points="489,-626.3373 489,-656.3373 600,-656.3373 600,-626.3373 489,-626.3373"/>
<text text-anchor="start" x="497" y="-644.3373" font-family="Helvetica,sans-Serif" font-size="10.00" fill="#000000">fr_sbuff_out_bstrncpy</text>
<text text-anchor="middle" x="544.5" y="-633.3373" font-family="Helvetica,sans-Serif" font-size="10.00" fill="#000000">_until</text>
</a>
</g>
</g>
<!-- Node9434&#45;&gt;Node9435 -->
<g id="edge4" class="edge">
<title>Node9434&#45;&gt;Node9435</title>
<path fill="none" stroke="#191970" d="M437.3491,-641.3373C450.6979,-641.3373 464.977,-641.3373 478.6176,-641.3373"/>
<polygon fill="#191970" stroke="#191970" points="478.8981,-644.8374 488.8981,-641.3373 478.8981,-637.8374 478.8981,-644.8374"/>
</g>
<!-- Node9436 -->
<g id="node6" class="node">
<title>Node9436</title>
<g id="a_node6"><a xlink:href="sbuff_8c.html#ad76c473f94d5cfdfecf9505e76468d24" target="_top" xlink:title="Populate a terminal index. ">
<polygon fill="none" stroke="#000000" points="636,-661.8373 636,-680.8373 761,-680.8373 761,-661.8373 636,-661.8373"/>
<text text-anchor="middle" x="698.5" y="-668.8373" font-family="Helvetica,sans-Serif" font-size="10.00" fill="#000000">fr_sbuff_terminal_idx_init</text>
</a>
</g>
</g>
<!-- Node9434&#45;&gt;Node9436 -->
<g id="edge7" class="edge">
<title>Node9434&#45;&gt;Node9436</title>
<path fill="none" stroke="#191970" d="M435.1426,-656.3665C452.3029,-660.3445 471.3145,-664.1389 489,-666.3373 534.2654,-671.964 585.4426,-673.2786 625.8839,-673.1553"/>
<polygon fill="#191970" stroke="#191970" points="625.9456,-676.6551 635.9242,-673.0947 625.9032,-669.6552 625.9456,-676.6551"/>
</g>
<!-- Node9437 -->
<g id="node7" class="node">
<title>Node9437</title>
<g id="a_node7"><a xlink:href="sbuff_8c.html#a59a15185f2e6a7a42d4233afd4ef5dd0" target="_top" xlink:title="Efficient terminal string search. ">
<polygon fill="none" stroke="#000000" points="636.5,-609.8373 636.5,-628.8373 760.5,-628.8373 760.5,-609.8373 636.5,-609.8373"/>
<text text-anchor="middle" x="698.5" y="-616.8373" font-family="Helvetica,sans-Serif" font-size="10.00" fill="#000000">fr_sbuff_terminal_search</text>
</a>
</g>
</g>
<!-- Node9434&#45;&gt;Node9437 -->
<g id="edge8" class="edge">
<title>Node9434&#45;&gt;Node9437</title>
<path fill="none" stroke="#191970" d="M436.8466,-626.2778C453.5559,-622.5934 471.8982,-619.1813 489,-617.3373 538.049,-612.0487 550.6692,-616.8365 600,-617.3373 608.4207,-617.4228 617.2458,-617.5494 626.0081,-617.6981"/>
<polygon fill="#191970" stroke="#191970" points="626.1764,-621.2016 636.2376,-617.8817 626.302,-614.2027 626.1764,-621.2016"/>
</g>
<!-- Node9435&#45;&gt;Node9436 -->
<g id="edge5" class="edge">
<title>Node9435&#45;&gt;Node9436</title>
<path fill="none" stroke="#191970" d="M600.0975,-652.168C612.8781,-654.6577 626.5132,-657.3139 639.4348,-659.8311"/>
<polygon fill="#191970" stroke="#191970" points="639.13,-663.3375 649.6148,-661.8142 640.4685,-656.4666 639.13,-663.3375"/>
</g>
<!-- Node9435&#45;&gt;Node9437 -->
<g id="edge6" class="edge">
<title>Node9435&#45;&gt;Node9437</title>
<path fill="none" stroke="#191970" d="M600.0975,-633.3948C608.6733,-632.1697 617.6339,-630.8896 626.5055,-629.6222"/>
<polygon fill="#191970" stroke="#191970" points="627.0542,-633.0795 636.4587,-628.2004 626.0642,-626.1498 627.0542,-633.0795"/>
</g>
<!-- Node9440 -->
<g id="node10" class="node">
<title>Node9440</title>
<g id="a_node10"><a xlink:href="dict__ext_8h.html#a34a6d539e648b685d19cf23c2d0e7d3f" target="_top" xlink:title="fr_dict_attr_ext">
<polygon fill="none" stroke="#000000" points="338,-511.8373 338,-530.8373 420,-530.8373 420,-511.8373 338,-511.8373"/>
<text text-anchor="middle" x="379" y="-518.8373" font-family="Helvetica,sans-Serif" font-size="10.00" fill="#000000">fr_dict_attr_ext</text>
</a>
</g>
</g>
<!-- Node9439&#45;&gt;Node9440 -->
<g id="edge11" class="edge">
<title>Node9439&#45;&gt;Node9440</title>
<path fill="none" stroke="#191970" d="M240.9264,-483.931C259.5685,-489.4622 283.5685,-496.4622 305,-502.3373 313.4577,-504.6559 322.4827,-507.0441 331.2178,-509.3115"/>
<polygon fill="#191970" stroke="#191970" points="330.3541,-512.7032 340.9112,-511.8099 332.1013,-505.9247 330.3541,-512.7032"/>
</g>
<!-- Node9439&#45;&gt;Node9441 -->
<g id="edge12" class="edge">
<title>Node9439&#45;&gt;Node9441</title>
<path fill="none" stroke="#191970" d="M251.6833,-464.7894C319.4766,-449.4905 444.9787,-420.5665 453,-414.3373 503.872,-374.8312 529.8079,-298.8829 539.6686,-263.0153"/>
<polygon fill="#191970" stroke="#191970" points="543.1763,-263.4352 542.3165,-252.8753 536.4034,-261.6665 543.1763,-263.4352"/>
</g>
<!-- Node9678 -->
<g id="node20" class="node">
<title>Node9678</title>
<g id="a_node20"><a xlink:href="hash_8c.html#a5142bb7ae36b65a809eb834314974942" target="_top" xlink:title="Find data from a template. ">
<polygon fill="none" stroke="#ff0000" points="331,-462.3373 331,-492.3373 427,-492.3373 427,-462.3373 331,-462.3373"/>
<text text-anchor="start" x="339" y="-480.3373" font-family="Helvetica,sans-Serif" font-size="10.00" fill="#000000">fr_hash_table_find</text>
<text text-anchor="middle" x="379" y="-469.3373" font-family="Helvetica,sans-Serif" font-size="10.00" fill="#000000">_by_data</text>
</a>
</g>
</g>
<!-- Node9439&#45;&gt;Node9678 -->
<g id="edge28" class="edge">
<title>Node9439&#45;&gt;Node9678</title>
<path fill="none" stroke="#191970" d="M268.4578,-475.3866C285.3468,-475.6846 303.7191,-476.0088 320.548,-476.3058"/>
<polygon fill="#191970" stroke="#191970" points="320.7396,-479.8096 330.7999,-476.4867 320.8632,-472.8107 320.7396,-479.8096"/>
</g>
<!-- Node9442 -->
<g id="node12" class="node">
<title>Node9442</title>
<g id="a_node12"><a xlink:href="acutest_8h.html#aecf9a9be8105efb1454cd8c1ef6cb1c5" target="_top" xlink:title="va_start">
<polygon fill="none" stroke="#000000" points="1049,-375.8373 1049,-394.8373 1101,-394.8373 1101,-375.8373 1049,-375.8373"/>
<text text-anchor="middle" x="1075" y="-382.8373" font-family="Helvetica,sans-Serif" font-size="10.00" fill="#000000">va_start</text>
</a>
</g>
</g>
<!-- Node9441&#45;&gt;Node9442 -->
<g id="edge13" class="edge">
<title>Node9441&#45;&gt;Node9442</title>
<path fill="none" stroke="#191970" d="M555.5408,-253.0843C588.974,-281.9 693.1961,-366.6497 797,-398.3373 888.8526,-426.3766 918.0225,-418.5638 1013,-404.3373 1021.9792,-402.9923 1031.4542,-400.6091 1040.2214,-397.9753"/>
<polygon fill="#191970" stroke="#191970" points="1041.2898,-401.3083 1049.7549,-394.9371 1039.1643,-394.6388 1041.2898,-401.3083"/>
</g>
<!-- Node9443 -->
<g id="node13" class="node">
<title>Node9443</title>
<g id="a_node13"><a xlink:href="strerror_8c.html#a193b1e0b3712e3bbee338812c06af482" target="_top" xlink:title="fr_strerror_vprintf">
<polygon fill="none" stroke="#000000" points="653,-271.8373 653,-290.8373 744,-290.8373 744,-271.8373 653,-271.8373"/>
<text text-anchor="middle" x="698.5" y="-278.8373" font-family="Helvetica,sans-Serif" font-size="10.00" fill="#000000">fr_strerror_vprintf</text>
</a>
</g>
</g>
<!-- Node9441&#45;&gt;Node9443 -->
<g id="edge14" class="edge">
<title>Node9441&#45;&gt;Node9443</title>
<path fill="none" stroke="#191970" d="M583.3607,-252.9263C603.5911,-257.9182 628.5207,-264.0697 650.0036,-269.3707"/>
<polygon fill="#191970" stroke="#191970" points="649.3714,-272.8196 659.9187,-271.8173 651.0485,-266.0234 649.3714,-272.8196"/>
</g>
<!-- Node9446 -->
<g id="node16" class="node">
<title>Node9446</title>
<g id="a_node16"><a xlink:href="acutest_8h.html#a36af1f79dd6adf0809c21e76535034d5" target="_top" xlink:title="va_end">
<polygon fill="none" stroke="#000000" points="1051,-214.8373 1051,-233.8373 1099,-233.8373 1099,-214.8373 1051,-214.8373"/>
<text text-anchor="middle" x="1075" y="-221.8373" font-family="Helvetica,sans-Serif" font-size="10.00" fill="#000000">va_end</text>
</a>
</g>
</g>
<!-- Node9441&#45;&gt;Node9446 -->
<g id="edge27" class="edge">
<title>Node9441&#45;&gt;Node9446</title>
<path fill="none" stroke="#191970" d="M587.6238,-241.2385C658.589,-237.852 804.4465,-231.175 928,-227.3373 966.5159,-226.141 1010.724,-225.3124 1040.5176,-224.8338"/>
<polygon fill="#191970" stroke="#191970" points="1040.8607,-228.329 1050.8048,-224.6733 1040.7514,-221.3298 1040.8607,-228.329"/>
</g>
<!-- Node9444 -->
<g id="node14" class="node">
<title>Node9444</title>
<g id="a_node14"><a xlink:href="strerror_8c.html#a42c2cc9f76fb9dac723a1903c181e1c7" target="_top" xlink:title="Initialise thread local storage. ">
<polygon fill="none" stroke="#ff0000" points="806,-347.8373 806,-366.8373 883,-366.8373 883,-347.8373 806,-347.8373"/>
<text text-anchor="middle" x="844.5" y="-354.8373" font-family="Helvetica,sans-Serif" font-size="10.00" fill="#000000">fr_strerror_init</text>
</a>
</g>
</g>
<!-- Node9443&#45;&gt;Node9444 -->
<g id="edge15" class="edge">
<title>Node9443&#45;&gt;Node9444</title>
<path fill="none" stroke="#191970" d="M716.6035,-291.0187C736.3238,-301.5357 768.8236,-318.7831 797,-333.3373 803.0336,-336.4539 809.5181,-339.7592 815.6972,-342.888"/>
<polygon fill="#191970" stroke="#191970" points="814.5428,-346.2259 825.0472,-347.6069 817.6967,-339.9766 814.5428,-346.2259"/>
</g>
<!-- Node9445 -->
<g id="node15" class="node">
<title>Node9445</title>
<g id="a_node15"><a xlink:href="strerror_8c.html#a2c8e65d6d4b73fb705cc023f60acb099" target="_top" xlink:title="Print the current error to stderr with a prefix. ">
<polygon fill="none" stroke="#ff0000" points="944,-318.8373 944,-337.8373 997,-337.8373 997,-318.8373 944,-318.8373"/>
<text text-anchor="middle" x="970.5" y="-325.8373" font-family="Helvetica,sans-Serif" font-size="10.00" fill="#000000">fr_perror</text>
</a>
</g>
</g>
<!-- Node9443&#45;&gt;Node9445 -->
<g id="edge21" class="edge">
<title>Node9443&#45;&gt;Node9445</title>
<path fill="none" stroke="#191970" d="M744.0531,-290.4251C760.6939,-293.6654 779.6794,-297.2699 797,-300.3373 843.9669,-308.6549 898.2709,-317.2554 933.4371,-322.6916"/>
<polygon fill="#191970" stroke="#191970" points="933.2908,-326.2102 943.707,-324.2733 934.3563,-319.2918 933.2908,-326.2102"/>
</g>
<!-- Node9443&#45;&gt;Node9446 -->
<g id="edge25" class="edge">
<title>Node9443&#45;&gt;Node9446</title>
<path fill="none" stroke="#191970" d="M744.0138,-272.0192C760.6505,-268.7556 779.6436,-265.1953 797,-262.3373 884.4617,-247.9354 988.0428,-234.8083 1040.6397,-228.4201"/>
<polygon fill="#191970" stroke="#191970" points="1041.2544,-231.8714 1050.7626,-227.1975 1040.415,-224.9219 1041.2544,-231.8714"/>
</g>
<!-- Node9452 -->
<g id="node17" class="node">
<title>Node9452</title>
<g id="a_node17"><a xlink:href="strerror_8c.html#a9d878c1ddb1b385cdaf6523fff68529c" target="_top" xlink:title="Reset cursor state. ">
<polygon fill="none" stroke="#000000" points="928,-375.8373 928,-394.8373 1013,-394.8373 1013,-375.8373 928,-375.8373"/>
<text text-anchor="middle" x="970.5" y="-382.8373" font-family="Helvetica,sans-Serif" font-size="10.00" fill="#000000">fr_strerror_clear</text>
</a>
</g>
</g>
<!-- Node9443&#45;&gt;Node9452 -->
<g id="edge20" class="edge">
<title>Node9443&#45;&gt;Node9452</title>
<path fill="none" stroke="#191970" d="M704.7323,-290.8722C718.5241,-311.0196 753.8493,-357.6048 797,-376.3373 835.0243,-392.8444 882.226,-394.2217 917.7924,-391.9566"/>
<polygon fill="#191970" stroke="#191970" points="918.2559,-395.4317 927.9648,-391.1904 917.7301,-388.4515 918.2559,-395.4317"/>
</g>
<!-- Node9453 -->
<g id="node18" class="node">
<title>Node9453</title>
<g id="a_node18"><a xlink:href="print_8c.html#a27ae94b5a4c77de49aa2f387765a4d58" target="_top" xlink:title="Special version of vasprintf which implements custom format specifiers. ">
<polygon fill="none" stroke="#ff0000" points="812,-157.8373 812,-176.8373 877,-176.8373 877,-157.8373 812,-157.8373"/>
<text text-anchor="middle" x="844.5" y="-164.8373" font-family="Helvetica,sans-Serif" font-size="10.00" fill="#000000">fr_vasprintf</text>
</a>
</g>
</g>
<!-- Node9443&#45;&gt;Node9453 -->
<g id="edge22" class="edge">
<title>Node9443&#45;&gt;Node9453</title>
<path fill="none" stroke="#191970" d="M710.6968,-271.8138C735.7546,-252.2481 793.2579,-207.3483 824.089,-183.2747"/>
<polygon fill="#191970" stroke="#191970" points="826.3006,-185.9884 832.0285,-177.0754 821.9925,-180.4711 826.3006,-185.9884"/>
</g>
<!-- Node9590 -->
<g id="node19" class="node">
<title>Node9590</title>
<g id="a_node19"><a xlink:href="cursor_8c.html#a5d942382660657c3b4cb6e9cb2b12b2c" target="_top" xlink:title="Insert a single item at the start of the list. ">
<polygon fill="none" stroke="#000000" points="797,-271.8373 797,-290.8373 892,-290.8373 892,-271.8373 797,-271.8373"/>
<text text-anchor="middle" x="844.5" y="-278.8373" font-family="Helvetica,sans-Serif" font-size="10.00" fill="#000000">fr_cursor_prepend</text>
</a>
</g>
</g>
<!-- Node9443&#45;&gt;Node9590 -->
<g id="edge26" class="edge">
<title>Node9443&#45;&gt;Node9590</title>
<path fill="none" stroke="#191970" d="M744.2947,-281.3373C757.7534,-281.3373 772.6519,-281.3373 786.7551,-281.3373"/>
<polygon fill="#191970" stroke="#191970" points="786.852,-284.8374 796.852,-281.3373 786.852,-277.8374 786.852,-284.8374"/>
</g>
<!-- Node9444&#45;&gt;Node9445 -->
<g id="edge16" class="edge">
<title>Node9444&#45;&gt;Node9445</title>
<path fill="none" stroke="#191970" d="M883.3323,-348.3997C899.466,-344.6864 918.0923,-340.3994 933.9745,-336.744"/>
<polygon fill="#191970" stroke="#191970" points="935.0013,-340.0992 943.9614,-334.4454 933.4312,-333.2776 935.0013,-340.0992"/>
</g>
<!-- Node9444&#45;&gt;Node9452 -->
<g id="edge19" class="edge">
<title>Node9444&#45;&gt;Node9452</title>
<path fill="none" stroke="#191970" d="M883.3323,-365.9667C894.1819,-368.3777 906.1587,-371.0392 917.6701,-373.5973"/>
<polygon fill="#191970" stroke="#191970" points="917.1053,-377.0571 927.6265,-375.8099 918.6239,-370.2238 917.1053,-377.0571"/>
</g>
<!-- Node9445&#45;&gt;Node9442 -->
<g id="edge17" class="edge">
<title>Node9445&#45;&gt;Node9442</title>
<path fill="none" stroke="#191970" d="M988.227,-338.0066C1004.7655,-347.0276 1029.6567,-360.6046 1048.5447,-370.9072"/>
<polygon fill="#191970" stroke="#191970" points="1047.0798,-374.0949 1057.5348,-375.8108 1050.4318,-367.9496 1047.0798,-374.0949"/>
</g>
<!-- Node9445&#45;&gt;Node9446 -->
<g id="edge18" class="edge">
<title>Node9445&#45;&gt;Node9446</title>
<path fill="none" stroke="#191970" d="M980.1438,-318.7397C997.8741,-301.0942 1035.8572,-263.2929 1058.0036,-241.2523"/>
<polygon fill="#191970" stroke="#191970" points="1060.7604,-243.4467 1065.3795,-233.9118 1055.8225,-238.4851 1060.7604,-243.4467"/>
</g>
<!-- Node9453&#45;&gt;Node9441 -->
<g id="edge24" class="edge">
<title>Node9453&#45;&gt;Node9441</title>
<path fill="none" stroke="#191970" d="M811.8569,-167.098C770.0727,-167.6862 695.9207,-171.766 636,-191.3373 610.2647,-199.743 583.6675,-215.8386 565.8275,-227.9064"/>
<polygon fill="#191970" stroke="#191970" points="563.5699,-225.2127 557.3475,-233.7878 567.5593,-230.9646 563.5699,-225.2127"/>
</g>
<!-- Node9453&#45;&gt;Node9446 -->
<g id="edge23" class="edge">
<title>Node9453&#45;&gt;Node9446</title>
<path fill="none" stroke="#191970" d="M877.2444,-168.6444C911.7611,-170.7903 967.3504,-176.4472 1013,-191.3373 1026.4039,-195.7094 1040.3475,-202.864 1051.6091,-209.3957"/>
<polygon fill="#191970" stroke="#191970" points="1049.9934,-212.5082 1060.3672,-214.6611 1053.6002,-206.5089 1049.9934,-212.5082"/>
</g>
<!-- Node9457&#45;&gt;Node9441 -->
<g id="edge30" class="edge">
<title>Node9457&#45;&gt;Node9441</title>
<path fill="none" stroke="#191970" d="M428.2821,-137.9147C436.8549,-140.5306 445.4369,-143.9288 453,-148.3373 486.7556,-168.0132 516.1616,-203.6626 532.0208,-225.2521"/>
<polygon fill="#191970" stroke="#191970" points="529.2965,-227.4596 537.9614,-233.5564 534.9898,-223.3868 529.2965,-227.4596"/>
</g>
<!-- Node9481&#45;&gt;Node9441 -->
<g id="edge35" class="edge">
<title>Node9481&#45;&gt;Node9441</title>
<path fill="none" stroke="#191970" d="M415.8063,-388.3499C428.4264,-384.7222 442.1019,-379.315 453,-371.3373 493.0469,-342.0219 522.3382,-289.8444 535.9693,-262.0222"/>
<polygon fill="#191970" stroke="#191970" points="539.1441,-263.4958 540.2736,-252.9613 532.8212,-260.4921 539.1441,-263.4958"/>
</g>
<!-- Node9481&#45;&gt;Node9482 -->
<g id="edge36" class="edge">
<title>Node9481&#45;&gt;Node9482</title>
<path fill="none" stroke="#191970" d="M398.3089,-404.9042C427.3339,-419.2852 482.3833,-446.5604 516.0235,-463.2281"/>
<polygon fill="#191970" stroke="#191970" points="514.7998,-466.5278 525.3141,-467.8313 517.9076,-460.2555 514.7998,-466.5278"/>
</g>
<!-- Node9498&#45;&gt;Node9441 -->
<g id="edge38" class="edge">
<title>Node9498&#45;&gt;Node9441</title>
<path fill="none" stroke="#191970" d="M413.4333,-309.7642C426.0862,-305.8331 440.3944,-300.8943 453,-295.3373 477.061,-284.7304 502.9862,-269.6157 521.0756,-258.4134"/>
<polygon fill="#191970" stroke="#191970" points="523.1603,-261.2373 529.7696,-252.9567 519.439,-255.3084 523.1603,-261.2373"/>
</g>
<!-- Node9500&#45;&gt;Node9441 -->
<g id="edge40" class="edge">
<title>Node9500&#45;&gt;Node9441</title>
<path fill="none" stroke="#191970" d="M426.7261,-62.971C436.1143,-66.4097 445.398,-71.059 453,-77.3373 501.0799,-117.0456 528.1149,-188.9211 538.9171,-223.587"/>
<polygon fill="#191970" stroke="#191970" points="535.646,-224.8655 541.8599,-233.4468 542.3536,-222.8634 535.646,-224.8655"/>
</g>
<!-- Node9503&#45;&gt;Node9441 -->
<g id="edge42" class="edge">
<title>Node9503&#45;&gt;Node9441</title>
<path fill="none" stroke="#191970" d="M252.7115,-6.235C305.3249,2.1254 393.9518,7.6329 453,-34.3373 517.3119,-80.0488 536.9396,-181.1661 542.4835,-223.7871"/>
<polygon fill="#191970" stroke="#191970" points="539.0088,-224.2084 543.6542,-233.7305 545.9608,-223.3899 539.0088,-224.2084"/>
</g>
<!-- Node9505&#45;&gt;Node9441 -->
<g id="edge44" class="edge">
<title>Node9505&#45;&gt;Node9441</title>
<path fill="none" stroke="#191970" d="M266.2859,-276.579C315.7948,-272.2574 389.227,-265.3466 453,-257.3373 465.3325,-255.7885 478.5651,-253.8976 491.0283,-252.0128"/>
<polygon fill="#191970" stroke="#191970" points="491.9268,-255.4159 501.2797,-250.4386 490.8643,-248.497 491.9268,-255.4159"/>
</g>
<!-- Node9506&#45;&gt;Node9441 -->
<g id="edge46" class="edge">
<title>Node9506&#45;&gt;Node9441</title>
<path fill="none" stroke="#191970" d="M264.8175,-209.9676C314.3349,-214.28 388.5935,-221.2485 453,-229.3373 465.3325,-230.8862 478.5651,-232.777 491.0283,-234.6619"/>
<polygon fill="#191970" stroke="#191970" points="490.8643,-238.1776 501.2797,-236.2361 491.9268,-231.2587 490.8643,-238.1776"/>
</g>
<!-- Node9506&#45;&gt;Node9479 -->
<g id="edge47" class="edge">
<title>Node9506&#45;&gt;Node9479</title>
<path fill="none" stroke="#191970" d="M251.8982,-195.7483C276.4501,-190.2602 307.2718,-183.3707 332.4147,-177.7505"/>
<polygon fill="#191970" stroke="#191970" points="333.4568,-181.104 342.4524,-175.5068 331.9297,-174.2726 333.4568,-181.104"/>
</g>
<!-- Node10039&#45;&gt;Node9441 -->
<g id="edge49" class="edge">
<title>Node10039&#45;&gt;Node9441</title>
<path fill="none" stroke="#191970" d="M252.3763,-84.0592C303.8684,-77.7005 390.606,-74.368 453,-110.3373 497.9608,-136.2566 525.7512,-194.2635 537.6878,-224.3787"/>
<polygon fill="#191970" stroke="#191970" points="534.4309,-225.6614 541.2508,-233.7694 540.9756,-223.1781 534.4309,-225.6614"/>
</g>
<!-- Node9769&#45;&gt;Node9441 -->
<g id="edge52" class="edge">
<title>Node9769&#45;&gt;Node9441</title>
<path fill="none" stroke="#191970" d="M243.2307,-388.4654C306.0049,-375.6989 434.7992,-348.6819 453,-338.3373 487.1427,-318.9321 516.6043,-282.8913 532.3336,-261.213"/>
<polygon fill="#191970" stroke="#191970" points="535.2999,-263.08 538.2076,-252.8919 529.5812,-259.043 535.2999,-263.08"/>
</g>
<!-- Node9769&#45;&gt;Node9481 -->
<g id="edge53" class="edge">
<title>Node9769&#45;&gt;Node9481</title>
<path fill="none" stroke="#191970" d="M243.402,-395.3373C268.9791,-395.3373 304.1662,-395.3373 332.2863,-395.3373"/>
<polygon fill="#191970" stroke="#191970" points="332.2957,-398.8374 342.2957,-395.3373 332.2957,-391.8374 332.2957,-398.8374"/>
</g>
<!-- Node9769&#45;&gt;Node9498 -->
<g id="edge54" class="edge">
<title>Node9769&#45;&gt;Node9498</title>
<path fill="none" stroke="#191970" d="M243.0995,-387.3543C251.8635,-384.5572 261.0547,-380.9321 269,-376.3373 287.7894,-365.4714 286.2484,-354.2684 305,-343.3373 313.4868,-338.39 323.1246,-334.3166 332.5743,-331.0198"/>
<polygon fill="#191970" stroke="#191970" points="333.8682,-334.2796 342.2976,-327.8613 331.7055,-327.6221 333.8682,-334.2796"/>
</g>
</g>
</svg>
