<?xml version="1.0" encoding="UTF-8" standalone="no"?>
<!DOCTYPE svg PUBLIC "-//W3C//DTD SVG 1.1//EN"
 "http://www.w3.org/Graphics/SVG/1.1/DTD/svg11.dtd">
<!-- Generated by graphviz version 2.40.1 (20161225.0304)
 -->
<!-- Title: fr_value_box_mem_append Pages: 1 -->
<svg width="816pt" height="522pt"
 viewBox="0.00 0.00 816.00 522.00" xmlns="http://www.w3.org/2000/svg" xmlns:xlink="http://www.w3.org/1999/xlink">
<g id="graph0" class="graph" transform="scale(1 1) rotate(0) translate(4 518)">
<title>fr_value_box_mem_append</title>
<!-- Node50011 -->
<g id="node1" class="node">
<title>Node50011</title>
<polygon fill="#bfbfbf" stroke="#000000" points="0,-361.5 0,-380.5 136,-380.5 136,-361.5 0,-361.5"/>
<text text-anchor="middle" x="68" y="-368.5" font-family="Helvetica,sans-Serif" font-size="10.00" fill="#000000">fr_value_box_mem_append</text>
</g>
<!-- Node50012 -->
<g id="node2" class="node">
<title>Node50012</title>
<g id="a_node2"><a xlink:href="strerror_8c.html#ae701765650b8aea79a3037bc4921d7f8" target="_top" xlink:title="Log to thread local error buffer. ">
<polygon fill="none" stroke="#000000" points="172,-361.5 172,-380.5 258,-380.5 258,-361.5 172,-361.5"/>
<text text-anchor="middle" x="215" y="-368.5" font-family="Helvetica,sans-Serif" font-size="10.00" fill="#000000">fr_strerror_printf</text>
</a>
</g>
</g>
<!-- Node50011&#45;&gt;Node50012 -->
<g id="edge1" class="edge">
<title>Node50011&#45;&gt;Node50012</title>
<path fill="none" stroke="#191970" d="M136.3358,-371C144.7707,-371 153.2967,-371 161.4666,-371"/>
<polygon fill="#191970" stroke="#191970" points="161.5911,-374.5001 171.591,-371 161.591,-367.5001 161.5911,-374.5001"/>
</g>
<!-- Node50013 -->
<g id="node3" class="node">
<title>Node50013</title>
<g id="a_node3"><a xlink:href="acutest_8h.html#aecf9a9be8105efb1454cd8c1ef6cb1c5" target="_top" xlink:title="va_start">
<polygon fill="none" stroke="#000000" points="731.5,-494.5 731.5,-513.5 783.5,-513.5 783.5,-494.5 731.5,-494.5"/>
<text text-anchor="middle" x="757.5" y="-501.5" font-family="Helvetica,sans-Serif" font-size="10.00" fill="#000000">va_start</text>
</a>
</g>
</g>
<!-- Node50012&#45;&gt;Node50013 -->
<g id="edge2" class="edge">
<title>Node50012&#45;&gt;Node50013</title>
<path fill="none" stroke="#191970" d="M221.9751,-380.6287C234.5713,-397.3763 262.7278,-431.9902 294,-452 344.441,-484.2751 362.4121,-484.613 421,-497 528.2745,-519.6807 659.0785,-512.873 721.2832,-507.6204"/>
<polygon fill="#191970" stroke="#191970" points="721.7187,-511.0957 731.3724,-506.7305 721.1036,-504.1228 721.7187,-511.0957"/>
</g>
<!-- Node50014 -->
<g id="node4" class="node">
<title>Node50014</title>
<g id="a_node4"><a xlink:href="strerror_8c.html#a193b1e0b3712e3bbee338812c06af482" target="_top" xlink:title="fr_strerror_vprintf">
<polygon fill="none" stroke="#000000" points="294,-361.5 294,-380.5 385,-380.5 385,-361.5 294,-361.5"/>
<text text-anchor="middle" x="339.5" y="-368.5" font-family="Helvetica,sans-Serif" font-size="10.00" fill="#000000">fr_strerror_vprintf</text>
</a>
</g>
</g>
<!-- Node50012&#45;&gt;Node50014 -->
<g id="edge3" class="edge">
<title>Node50012&#45;&gt;Node50014</title>
<path fill="none" stroke="#191970" d="M258.1947,-371C266.3832,-371 275.0586,-371 283.5745,-371"/>
<polygon fill="#191970" stroke="#191970" points="283.8395,-374.5001 293.8395,-371 283.8394,-367.5001 283.8395,-374.5001"/>
</g>
<!-- Node50017 -->
<g id="node7" class="node">
<title>Node50017</title>
<g id="a_node7"><a xlink:href="acutest_8h.html#a36af1f79dd6adf0809c21e76535034d5" target="_top" xlink:title="va_end">
<polygon fill="none" stroke="#000000" points="733.5,-418.5 733.5,-437.5 781.5,-437.5 781.5,-418.5 733.5,-418.5"/>
<text text-anchor="middle" x="757.5" y="-425.5" font-family="Helvetica,sans-Serif" font-size="10.00" fill="#000000">va_end</text>
</a>
</g>
</g>
<!-- Node50012&#45;&gt;Node50017 -->
<g id="edge28" class="edge">
<title>Node50012&#45;&gt;Node50017</title>
<path fill="none" stroke="#191970" d="M230.2788,-380.7328C263.4831,-401.35 345.3331,-449.3074 421,-471 527.9759,-501.6685 564.4039,-516.9634 671,-485 697.4056,-477.0821 723.2011,-458.2111 739.6505,-444.342"/>
<polygon fill="#191970" stroke="#191970" points="742.1139,-446.8379 747.3543,-437.6298 737.5154,-441.5601 742.1139,-446.8379"/>
</g>
<!-- Node50015 -->
<g id="node5" class="node">
<title>Node50015</title>
<g id="a_node5"><a xlink:href="strerror_8c.html#a42c2cc9f76fb9dac723a1903c181e1c7" target="_top" xlink:title="Initialise thread local storage. ">
<polygon fill="none" stroke="#000000" points="430,-418.5 430,-437.5 507,-437.5 507,-418.5 430,-418.5"/>
<text text-anchor="middle" x="468.5" y="-425.5" font-family="Helvetica,sans-Serif" font-size="10.00" fill="#000000">fr_strerror_init</text>
</a>
</g>
</g>
<!-- Node50014&#45;&gt;Node50015 -->
<g id="edge4" class="edge">
<title>Node50014&#45;&gt;Node50015</title>
<path fill="none" stroke="#191970" d="M361.0917,-380.5405C382.0208,-389.7883 413.9809,-403.9102 437.6007,-414.3468"/>
<polygon fill="#191970" stroke="#191970" points="436.2764,-417.5881 446.8379,-418.4284 439.1056,-411.1853 436.2764,-417.5881"/>
</g>
<!-- Node50016 -->
<g id="node6" class="node">
<title>Node50016</title>
<g id="a_node6"><a xlink:href="strerror_8c.html#a2c8e65d6d4b73fb705cc023f60acb099" target="_top" xlink:title="Print the current error to stderr with a prefix. ">
<polygon fill="none" stroke="#ff0000" points="585,-456.5 585,-475.5 638,-475.5 638,-456.5 585,-456.5"/>
<text text-anchor="middle" x="611.5" y="-463.5" font-family="Helvetica,sans-Serif" font-size="10.00" fill="#000000">fr_perror</text>
</a>
</g>
</g>
<!-- Node50014&#45;&gt;Node50016 -->
<g id="edge11" class="edge">
<title>Node50014&#45;&gt;Node50016</title>
<path fill="none" stroke="#191970" d="M346.2802,-380.528C358.8384,-397.3218 387.5106,-431.8452 421,-447 470.7565,-469.516 535.1227,-470.9554 574.8449,-469.0985"/>
<polygon fill="#191970" stroke="#191970" points="575.0877,-472.5904 584.8754,-468.5344 574.6946,-465.6015 575.0877,-472.5904"/>
</g>
<!-- Node50014&#45;&gt;Node50017 -->
<g id="edge26" class="edge">
<title>Node50014&#45;&gt;Node50017</title>
<path fill="none" stroke="#191970" d="M385.014,-374.7351C449.0921,-380.3299 569.4327,-392.0693 671,-409 688.4173,-411.9034 707.6156,-416.0255 723.4917,-419.6887"/>
<polygon fill="#191970" stroke="#191970" points="722.8576,-423.1349 733.3928,-422.0121 724.4569,-416.32 722.8576,-423.1349"/>
</g>
<!-- Node50023 -->
<g id="node9" class="node">
<title>Node50023</title>
<g id="a_node9"><a xlink:href="strerror_8c.html#a9d878c1ddb1b385cdaf6523fff68529c" target="_top" xlink:title="Reset cursor state. ">
<polygon fill="none" stroke="#000000" points="715,-304.5 715,-323.5 800,-323.5 800,-304.5 715,-304.5"/>
<text text-anchor="middle" x="757.5" y="-311.5" font-family="Helvetica,sans-Serif" font-size="10.00" fill="#000000">fr_strerror_clear</text>
</a>
</g>
</g>
<!-- Node50014&#45;&gt;Node50023 -->
<g id="edge10" class="edge">
<title>Node50014&#45;&gt;Node50023</title>
<path fill="none" stroke="#191970" d="M355.3671,-361.3746C371.3178,-352.2461 396.9268,-339.0533 421,-333 518.765,-308.4165 637.3441,-308.3163 704.4441,-310.8798"/>
<polygon fill="#191970" stroke="#191970" points="704.6228,-314.3902 714.7602,-311.3107 704.915,-307.3963 704.6228,-314.3902"/>
</g>
<!-- Node50024 -->
<g id="node10" class="node">
<title>Node50024</title>
<g id="a_node10"><a xlink:href="print_8c.html#a27ae94b5a4c77de49aa2f387765a4d58" target="_top" xlink:title="Special version of vasprintf which implements custom format specifiers. ">
<polygon fill="none" stroke="#000000" points="436,-171.5 436,-190.5 501,-190.5 501,-171.5 436,-171.5"/>
<text text-anchor="middle" x="468.5" y="-178.5" font-family="Helvetica,sans-Serif" font-size="10.00" fill="#000000">fr_vasprintf</text>
</a>
</g>
</g>
<!-- Node50014&#45;&gt;Node50024 -->
<g id="edge12" class="edge">
<title>Node50014&#45;&gt;Node50024</title>
<path fill="none" stroke="#191970" d="M346.0745,-361.3167C366.5135,-331.2127 429.1786,-238.9153 456.0513,-199.3353"/>
<polygon fill="#191970" stroke="#191970" points="459.0625,-201.131 461.7841,-190.8917 453.2712,-197.199 459.0625,-201.131"/>
</g>
<!-- Node50144 -->
<g id="node18" class="node">
<title>Node50144</title>
<g id="a_node18"><a xlink:href="cursor_8c.html#a5d942382660657c3b4cb6e9cb2b12b2c" target="_top" xlink:title="Insert a single item at the start of the list. ">
<polygon fill="none" stroke="#000000" points="421,-342.5 421,-361.5 516,-361.5 516,-342.5 421,-342.5"/>
<text text-anchor="middle" x="468.5" y="-349.5" font-family="Helvetica,sans-Serif" font-size="10.00" fill="#000000">fr_cursor_prepend</text>
</a>
</g>
</g>
<!-- Node50014&#45;&gt;Node50144 -->
<g id="edge27" class="edge">
<title>Node50014&#45;&gt;Node50144</title>
<path fill="none" stroke="#191970" d="M385.3438,-364.2478C393.4784,-363.0497 402.0463,-361.7878 410.4656,-360.5477"/>
<polygon fill="#191970" stroke="#191970" points="411.2395,-363.9716 420.6227,-359.0517 410.2194,-357.0463 411.2395,-363.9716"/>
</g>
<!-- Node50015&#45;&gt;Node50016 -->
<g id="edge5" class="edge">
<title>Node50015&#45;&gt;Node50016</title>
<path fill="none" stroke="#191970" d="M504.5849,-437.589C526.156,-443.3212 553.4806,-450.5823 575.1062,-456.3289"/>
<polygon fill="#191970" stroke="#191970" points="574.3431,-459.7475 584.9066,-458.9332 576.1409,-452.9823 574.3431,-459.7475"/>
</g>
<!-- Node50022 -->
<g id="node8" class="node">
<title>Node50022</title>
<g id="a_node8"><a xlink:href="strerror_8c.html#afe66becac3be1b0b82b90889d27fcf99" target="_top" xlink:title="_fr_logging_free">
<polygon fill="none" stroke="#000000" points="568.5,-418.5 568.5,-437.5 654.5,-437.5 654.5,-418.5 568.5,-418.5"/>
<text text-anchor="middle" x="611.5" y="-425.5" font-family="Helvetica,sans-Serif" font-size="10.00" fill="#000000">_fr_logging_free</text>
</a>
</g>
</g>
<!-- Node50015&#45;&gt;Node50022 -->
<g id="edge8" class="edge">
<title>Node50015&#45;&gt;Node50022</title>
<path fill="none" stroke="#191970" d="M507.1979,-428C522.884,-428 541.2593,-428 558.1797,-428"/>
<polygon fill="#191970" stroke="#191970" points="558.4901,-431.5001 568.49,-428 558.49,-424.5001 558.4901,-431.5001"/>
</g>
<!-- Node50015&#45;&gt;Node50023 -->
<g id="edge9" class="edge">
<title>Node50015&#45;&gt;Node50023</title>
<path fill="none" stroke="#191970" d="M492.6429,-418.4765C544.0678,-398.1913 664.5271,-350.6744 723.61,-327.3684"/>
<polygon fill="#191970" stroke="#191970" points="725.2045,-330.5019 733.2226,-323.5766 722.6358,-323.9902 725.2045,-330.5019"/>
</g>
<!-- Node50016&#45;&gt;Node50013 -->
<g id="edge6" class="edge">
<title>Node50016&#45;&gt;Node50013</title>
<path fill="none" stroke="#191970" d="M638.2787,-472.9698C661.68,-479.0606 695.8467,-487.9532 721.6111,-494.6591"/>
<polygon fill="#191970" stroke="#191970" points="720.8231,-498.0705 731.3823,-497.2023 722.5864,-491.2962 720.8231,-498.0705"/>
</g>
<!-- Node50016&#45;&gt;Node50017 -->
<g id="edge7" class="edge">
<title>Node50016&#45;&gt;Node50017</title>
<path fill="none" stroke="#191970" d="M638.2787,-459.0302C662.2614,-452.7881 697.551,-443.6032 723.5156,-436.8452"/>
<polygon fill="#191970" stroke="#191970" points="724.5183,-440.201 733.3143,-434.2949 722.7551,-433.4267 724.5183,-440.201"/>
</g>
<!-- Node50024&#45;&gt;Node50012 -->
<g id="edge16" class="edge">
<title>Node50024&#45;&gt;Node50012</title>
<path fill="none" stroke="#191970" d="M455.6064,-190.6638C414.6202,-221.3833 287.0381,-317.007 236.2096,-355.1033"/>
<polygon fill="#191970" stroke="#191970" points="233.8224,-352.5185 227.9196,-361.3167 238.0207,-358.1198 233.8224,-352.5185"/>
</g>
<!-- Node50024&#45;&gt;Node50017 -->
<g id="edge14" class="edge">
<title>Node50024&#45;&gt;Node50017</title>
<path fill="none" stroke="#191970" d="M478.1272,-190.5947C493.2707,-205.4914 523.8389,-234.7797 552,-257 602.2261,-296.6305 622.1257,-296.714 671,-338 698.2776,-361.0424 726.2745,-391.7056 742.7653,-410.6348"/>
<polygon fill="#191970" stroke="#191970" points="740.3092,-413.1462 749.4885,-418.4367 745.6119,-408.5766 740.3092,-413.1462"/>
</g>
<!-- Node50025 -->
<g id="node11" class="node">
<title>Node50025</title>
<g id="a_node11"><a xlink:href="value_8h.html#a878e0abfce7189a1784cdf15bc9fc3a3" target="_top" xlink:title="fr_value_box_aprint">
<polygon fill="none" stroke="#000000" points="707,-114.5 707,-133.5 808,-133.5 808,-114.5 707,-114.5"/>
<text text-anchor="middle" x="757.5" y="-121.5" font-family="Helvetica,sans-Serif" font-size="10.00" fill="#000000">fr_value_box_aprint</text>
</a>
</g>
</g>
<!-- Node50024&#45;&gt;Node50025 -->
<g id="edge13" class="edge">
<title>Node50024&#45;&gt;Node50025</title>
<path fill="none" stroke="#191970" d="M485.1485,-171.3977C501.5721,-162.4213 527.6786,-149.4606 552,-143 599.5653,-130.3651 655.2501,-125.8189 696.6473,-124.3188"/>
<polygon fill="#191970" stroke="#191970" points="696.9648,-127.8107 706.8505,-124 696.7461,-120.8141 696.9648,-127.8107"/>
</g>
<!-- Node50026 -->
<g id="node12" class="node">
<title>Node50026</title>
<g id="a_node12"><a xlink:href="talloc_8c.html#a3536feb85c89aa239851ef0830b72e64" target="_top" xlink:title="Call talloc_strdup, setting the type on the new chunk correctly. ">
<polygon fill="none" stroke="#000000" points="707,-57.5 707,-76.5 808,-76.5 808,-57.5 707,-57.5"/>
<text text-anchor="middle" x="757.5" y="-64.5" font-family="Helvetica,sans-Serif" font-size="10.00" fill="#000000">talloc_typed_strdup</text>
</a>
</g>
</g>
<!-- Node50024&#45;&gt;Node50026 -->
<g id="edge15" class="edge">
<title>Node50024&#45;&gt;Node50026</title>
<path fill="none" stroke="#191970" d="M472.0436,-171.2607C481.1038,-148.0094 507.5829,-89.5238 552,-67 601.6369,-41.8293 667.0853,-47.3342 710.645,-55.4764"/>
<polygon fill="#191970" stroke="#191970" points="710.1894,-58.9543 720.6799,-57.4711 711.5542,-52.0886 710.1894,-58.9543"/>
</g>
<!-- Node50027 -->
<g id="node13" class="node">
<title>Node50027</title>
<g id="a_node13"><a xlink:href="value_8c.html#a3a0550d465b81917f8b0c69a3373163e" target="_top" xlink:title="Convert one type of fr_value_box_t to another. ">
<polygon fill="none" stroke="#ff0000" points="563.5,-.5 563.5,-19.5 659.5,-19.5 659.5,-.5 563.5,-.5"/>
<text text-anchor="middle" x="611.5" y="-7.5" font-family="Helvetica,sans-Serif" font-size="10.00" fill="#000000">fr_value_box_cast</text>
</a>
</g>
</g>
<!-- Node50024&#45;&gt;Node50027 -->
<g id="edge17" class="edge">
<title>Node50024&#45;&gt;Node50027</title>
<path fill="none" stroke="#191970" d="M472.9771,-171.2808C486.6878,-141.8536 528.5856,-54.4867 552,-34 556.511,-30.0531 561.7546,-26.705 567.2235,-23.8784"/>
<polygon fill="#191970" stroke="#191970" points="568.9202,-26.9508 576.5503,-19.6002 566.0017,-20.5882 568.9202,-26.9508"/>
</g>
<!-- Node50140 -->
<g id="node14" class="node">
<title>Node50140</title>
<g id="a_node14"><a xlink:href="strerror_8c.html#a83ee876ee41b1ae672dc4dcda4f02a2e" target="_top" xlink:title="Get the last library error. ">
<polygon fill="none" stroke="#ff0000" points="582,-152.5 582,-171.5 641,-171.5 641,-152.5 582,-152.5"/>
<text text-anchor="middle" x="611.5" y="-159.5" font-family="Helvetica,sans-Serif" font-size="10.00" fill="#000000">fr_strerror</text>
</a>
</g>
</g>
<!-- Node50024&#45;&gt;Node50140 -->
<g id="edge19" class="edge">
<title>Node50024&#45;&gt;Node50140</title>
<path fill="none" stroke="#191970" d="M501.3071,-176.641C522.2353,-173.8603 549.4926,-170.2388 571.6614,-167.2932"/>
<polygon fill="#191970" stroke="#191970" points="572.314,-170.7374 581.7658,-165.9507 571.3919,-163.7984 572.314,-170.7374"/>
</g>
<!-- Node50037 -->
<g id="node15" class="node">
<title>Node50037</title>
<g id="a_node15"><a xlink:href="value_8c.html#ad5da2574fed047b3ae861999d06c38ac" target="_top" xlink:title="Clear/free any existing value and metadata. ">
<polygon fill="none" stroke="#ff0000" points="562.5,-228.5 562.5,-247.5 660.5,-247.5 660.5,-228.5 562.5,-228.5"/>
<text text-anchor="middle" x="611.5" y="-235.5" font-family="Helvetica,sans-Serif" font-size="10.00" fill="#000000">fr_value_box_clear</text>
</a>
</g>
</g>
<!-- Node50024&#45;&gt;Node50037 -->
<g id="edge21" class="edge">
<title>Node50024&#45;&gt;Node50037</title>
<path fill="none" stroke="#191970" d="M487.7936,-190.5665C504.542,-198.6803 529.561,-210.3461 552,-219 557.5741,-221.1497 563.5047,-223.2541 569.3803,-225.2332"/>
<polygon fill="#191970" stroke="#191970" points="568.5511,-228.6445 579.1438,-228.4313 570.7301,-221.9923 568.5511,-228.6445"/>
</g>
<!-- Node50141 -->
<g id="node16" class="node">
<title>Node50141</title>
<g id="a_node16"><a xlink:href="value_8c.html#a1064a346792dc1e5ecf05d04b4c1af55" target="_top" xlink:title="Concatenate the string representations of a list of value boxes together. ">
<polygon fill="none" stroke="#ff0000" points="552,-76.5 552,-95.5 671,-95.5 671,-76.5 552,-76.5"/>
<text text-anchor="middle" x="611.5" y="-83.5" font-family="Helvetica,sans-Serif" font-size="10.00" fill="#000000">fr_value_box_list_aprint</text>
</a>
</g>
</g>
<!-- Node50024&#45;&gt;Node50141 -->
<g id="edge22" class="edge">
<title>Node50024&#45;&gt;Node50141</title>
<path fill="none" stroke="#191970" d="M477.9695,-171.1255C492.6653,-156.2488 522.3678,-127.9253 552,-110 558.4867,-106.076 565.73,-102.5421 572.869,-99.4682"/>
<polygon fill="#191970" stroke="#191970" points="574.514,-102.5777 582.4587,-95.5683 571.8769,-96.0934 574.514,-102.5777"/>
</g>
<!-- Node50143 -->
<g id="node17" class="node">
<title>Node50143</title>
<g id="a_node17"><a xlink:href="util_2pair_8h.html#acfe6934363fefdc67e14fc08a205952b" target="_top" xlink:title="fr_pair_aprint">
<polygon fill="none" stroke="#000000" points="575,-190.5 575,-209.5 648,-209.5 648,-190.5 575,-190.5"/>
<text text-anchor="middle" x="611.5" y="-197.5" font-family="Helvetica,sans-Serif" font-size="10.00" fill="#000000">fr_pair_aprint</text>
</a>
</g>
</g>
<!-- Node50024&#45;&gt;Node50143 -->
<g id="edge25" class="edge">
<title>Node50024&#45;&gt;Node50143</title>
<path fill="none" stroke="#191970" d="M501.3071,-185.359C520.0708,-187.8521 543.922,-191.0211 564.6322,-193.7728"/>
<polygon fill="#191970" stroke="#191970" points="564.4466,-197.2788 574.8205,-195.1265 565.3686,-190.3398 564.4466,-197.2788"/>
</g>
<!-- Node50027&#45;&gt;Node50012 -->
<g id="edge18" class="edge">
<title>Node50027&#45;&gt;Node50012</title>
<path fill="none" stroke="#191970" d="M593.7718,-19.6193C542.3087,-48.2075 390.4423,-137.3399 294,-244 263.0975,-278.1765 237.0792,-325.9917 224.0214,-352.1182"/>
<polygon fill="#191970" stroke="#191970" points="220.7827,-350.7735 219.5254,-361.2935 227.0686,-353.8537 220.7827,-350.7735"/>
</g>
<!-- Node50140&#45;&gt;Node50023 -->
<g id="edge20" class="edge">
<title>Node50140&#45;&gt;Node50023</title>
<path fill="none" stroke="#191970" d="M641.2511,-167.2411C651.4131,-170.0857 662.3781,-174.4235 671,-181 710.9853,-211.4996 737.934,-266.1451 750.1029,-294.9813"/>
<polygon fill="#191970" stroke="#191970" points="746.9024,-296.4024 753.9143,-304.345 753.3859,-293.7633 746.9024,-296.4024"/>
</g>
<!-- Node50141&#45;&gt;Node50025 -->
<g id="edge23" class="edge">
<title>Node50141&#45;&gt;Node50025</title>
<path fill="none" stroke="#191970" d="M648.342,-95.589C667.3479,-100.5358 690.7286,-106.6211 710.9692,-111.8892"/>
<polygon fill="#191970" stroke="#191970" points="710.3638,-115.3482 720.923,-114.4799 712.127,-108.5739 710.3638,-115.3482"/>
</g>
<!-- Node50141&#45;&gt;Node50026 -->
<g id="edge24" class="edge">
<title>Node50141&#45;&gt;Node50026</title>
<path fill="none" stroke="#191970" d="M671.305,-78.2172C679.703,-77.1243 688.3419,-76 696.7571,-74.9049"/>
<polygon fill="#191970" stroke="#191970" points="697.4149,-78.3489 706.8796,-73.5876 696.5115,-71.4074 697.4149,-78.3489"/>
</g>
</g>
</svg>
