<?xml version="1.0" encoding="UTF-8" standalone="no"?>
<!DOCTYPE svg PUBLIC "-//W3C//DTD SVG 1.1//EN"
 "http://www.w3.org/Graphics/SVG/1.1/DTD/svg11.dtd">
<!-- Generated by graphviz version 2.40.1 (20161225.0304)
 -->
<!-- Title: fr_value_box_hash_update Pages: 1 -->
<svg width="918pt" height="279pt"
 viewBox="0.00 0.00 918.00 278.50" xmlns="http://www.w3.org/2000/svg" xmlns:xlink="http://www.w3.org/1999/xlink">
<g id="graph0" class="graph" transform="scale(1 1) rotate(0) translate(4 274.5)">
<title>fr_value_box_hash_update</title>
<!-- Node41276 -->
<g id="node1" class="node">
<title>Node41276</title>
<polygon fill="#bfbfbf" stroke="#000000" points="0,-213 0,-232 133,-232 133,-213 0,-213"/>
<text text-anchor="middle" x="66.5" y="-220" font-family="Helvetica,sans-Serif" font-size="10.00" fill="#000000">fr_value_box_hash_update</text>
</g>
<!-- Node41277 -->
<g id="node2" class="node">
<title>Node41277</title>
<g id="a_node2"><a xlink:href="dict__util_8c.html#aec80b2102f5546a5c81191e0631f1d88" target="_top" xlink:title="Hash a dictionary enum value. ">
<polygon fill="none" stroke="#000000" points="169,-213 169,-232 285,-232 285,-213 169,-213"/>
<text text-anchor="middle" x="227" y="-220" font-family="Helvetica,sans-Serif" font-size="10.00" fill="#000000">dict_enum_value_hash</text>
</a>
</g>
</g>
<!-- Node41276&#45;&gt;Node41277 -->
<g id="edge1" class="edge">
<title>Node41276&#45;&gt;Node41277</title>
<path fill="none" stroke="#191970" d="M143.2735,-222.5C151.9201,-222.5 160.6206,-222.5 168.9725,-222.5"/>
<polygon fill="#191970" stroke="#191970" points="143.1721,-219.0001 133.1721,-222.5 143.1721,-226.0001 143.1721,-219.0001"/>
</g>
<!-- Node41278 -->
<g id="node3" class="node">
<title>Node41278</title>
<g id="a_node3"><a xlink:href="dict__util_8c.html#ad73381b24b5861e692a4bd5bee85f280" target="_top" xlink:title="dict_attr_enum_add_name">
<polygon fill="none" stroke="#000000" points="321,-213 321,-232 452,-232 452,-213 321,-213"/>
<text text-anchor="middle" x="386.5" y="-220" font-family="Helvetica,sans-Serif" font-size="10.00" fill="#000000">dict_attr_enum_add_name</text>
</a>
</g>
</g>
<!-- Node41277&#45;&gt;Node41278 -->
<g id="edge2" class="edge">
<title>Node41277&#45;&gt;Node41278</title>
<path fill="none" stroke="#191970" d="M295.2947,-222.5C303.8004,-222.5 312.4836,-222.5 320.9465,-222.5"/>
<polygon fill="#191970" stroke="#191970" points="295.0344,-219.0001 285.0344,-222.5 295.0343,-226.0001 295.0344,-219.0001"/>
</g>
<!-- Node41279 -->
<g id="node4" class="node">
<title>Node41279</title>
<g id="a_node4"><a xlink:href="dict__ext_8c.html#a0bce7e55f91fbccbb254d20e1ca0dc72" target="_top" xlink:title="Copy all enumeration values from one attribute to another. ">
<polygon fill="none" stroke="#000000" points="488,-251 488,-270 631,-270 631,-251 488,-251"/>
<text text-anchor="middle" x="559.5" y="-258" font-family="Helvetica,sans-Serif" font-size="10.00" fill="#000000">fr_dict_attr_ext_enumv_copy</text>
</a>
</g>
</g>
<!-- Node41278&#45;&gt;Node41279 -->
<g id="edge3" class="edge">
<title>Node41278&#45;&gt;Node41279</title>
<path fill="none" stroke="#191970" d="M440.0051,-234.2526C464.4673,-239.6258 493.0707,-245.9086 516.1587,-250.9799"/>
<polygon fill="#191970" stroke="#191970" points="440.6733,-230.816 430.1552,-232.089 439.1714,-237.653 440.6733,-230.816"/>
</g>
<!-- Node41280 -->
<g id="node5" class="node">
<title>Node41280</title>
<g id="a_node5"><a xlink:href="dict__tokenize_8c.html#a90925697f7c13c866e7e4f74c65243f0" target="_top" xlink:title="Process a STRUCT name attr value. ">
<polygon fill="none" stroke="#000000" points="496.5,-213 496.5,-232 622.5,-232 622.5,-213 496.5,-213"/>
<text text-anchor="middle" x="559.5" y="-220" font-family="Helvetica,sans-Serif" font-size="10.00" fill="#000000">dict_read_process_struct</text>
</a>
</g>
</g>
<!-- Node41278&#45;&gt;Node41280 -->
<g id="edge4" class="edge">
<title>Node41278&#45;&gt;Node41280</title>
<path fill="none" stroke="#191970" d="M462.6468,-222.5C473.9043,-222.5 485.3991,-222.5 496.3537,-222.5"/>
<polygon fill="#191970" stroke="#191970" points="462.3974,-219.0001 452.3974,-222.5 462.3974,-226.0001 462.3974,-219.0001"/>
</g>
<!-- Node42725 -->
<g id="node7" class="node">
<title>Node42725</title>
<g id="a_node7"><a xlink:href="dict__util_8c.html#aac045adbbac4f89565cb36da306a0284" target="_top" xlink:title="Add a value name. ">
<polygon fill="none" stroke="#000000" points="488,-137 488,-156 631,-156 631,-137 488,-137"/>
<text text-anchor="middle" x="559.5" y="-144" font-family="Helvetica,sans-Serif" font-size="10.00" fill="#000000">fr_dict_attr_enum_add_name</text>
</a>
</g>
</g>
<!-- Node41278&#45;&gt;Node42725 -->
<g id="edge6" class="edge">
<title>Node41278&#45;&gt;Node42725</title>
<path fill="none" stroke="#191970" d="M417.6087,-208.8338C452.2806,-193.6022 507.4466,-169.3674 537.7673,-156.0473"/>
<polygon fill="#191970" stroke="#191970" points="416.1583,-205.648 408.4106,-212.8745 418.9738,-212.0568 416.1583,-205.648"/>
</g>
<!-- Node41281 -->
<g id="node6" class="node">
<title>Node41281</title>
<g id="a_node6"><a xlink:href="dict__tokenize_8c.html#a74698cc3d378776c6361c68feb9a1d44" target="_top" xlink:title="Parse a dictionary file. ">
<polygon fill="none" stroke="#ff0000" points="830,-137 830,-156 910,-156 910,-137 830,-137"/>
<text text-anchor="middle" x="870" y="-144" font-family="Helvetica,sans-Serif" font-size="10.00" fill="#000000">_dict_from_file</text>
</a>
</g>
</g>
<!-- Node41280&#45;&gt;Node41281 -->
<g id="edge5" class="edge">
<title>Node41280&#45;&gt;Node41281</title>
<path fill="none" stroke="#191970" d="M617.3928,-233.8071C676.5567,-244.1972 763.8974,-255.968 794,-241.5 831.6929,-223.3839 856.5432,-176.4616 865.8687,-156.1299"/>
<polygon fill="#191970" stroke="#191970" points="617.8844,-230.3396 607.4242,-232.0231 616.6512,-237.2301 617.8844,-230.3396"/>
</g>
<!-- Node42693 -->
<g id="node8" class="node">
<title>Node42693</title>
<g id="a_node8"><a xlink:href="dhcpv4_8h.html#a34ae36402e4a1ace859a30cd844c8963" target="_top" xlink:title="Resolve/cache attributes in the DHCP dictionary. ">
<polygon fill="none" stroke="#ff0000" points="676.5,-213 676.5,-232 784.5,-232 784.5,-213 676.5,-213"/>
<text text-anchor="middle" x="730.5" y="-220" font-family="Helvetica,sans-Serif" font-size="10.00" fill="#000000">fr_dhcpv4_global_init</text>
</a>
</g>
</g>
<!-- Node42725&#45;&gt;Node42693 -->
<g id="edge7" class="edge">
<title>Node42725&#45;&gt;Node42693</title>
<path fill="none" stroke="#191970" d="M583.7822,-161.1526C605.1466,-173.6081 637.3754,-191.3525 667,-203.5 675.624,-207.0362 685.1478,-210.2368 694.1386,-212.9602"/>
<polygon fill="#191970" stroke="#191970" points="585.4466,-158.0709 575.0549,-156.0058 581.8906,-164.1005 585.4466,-158.0709"/>
</g>
<!-- Node42697 -->
<g id="node9" class="node">
<title>Node42697</title>
<g id="a_node9"><a xlink:href="dhcpv6_8h.html#a6570cd67607756861bf6ed07cbd57b88" target="_top" xlink:title="fr_dhcpv6_global_init">
<polygon fill="none" stroke="#ff0000" points="676.5,-175 676.5,-194 784.5,-194 784.5,-175 676.5,-175"/>
<text text-anchor="middle" x="730.5" y="-182" font-family="Helvetica,sans-Serif" font-size="10.00" fill="#000000">fr_dhcpv6_global_init</text>
</a>
</g>
</g>
<!-- Node42725&#45;&gt;Node42697 -->
<g id="edge8" class="edge">
<title>Node42725&#45;&gt;Node42697</title>
<path fill="none" stroke="#191970" d="M612.7092,-158.3243C636.8172,-163.6816 664.9401,-169.9311 687.6598,-174.9799"/>
<polygon fill="#191970" stroke="#191970" points="613.1717,-154.8417 602.6505,-156.089 611.6531,-161.675 613.1717,-154.8417"/>
</g>
<!-- Node42192 -->
<g id="node10" class="node">
<title>Node42192</title>
<g id="a_node10"><a xlink:href="dict__tokenize_8c.html#a7fa465b9c99a09c34a1505cf500075b6" target="_top" xlink:title="Process a value alias. ">
<polygon fill="none" stroke="#ff0000" points="668,-137 668,-156 793,-156 793,-137 668,-137"/>
<text text-anchor="middle" x="730.5" y="-144" font-family="Helvetica,sans-Serif" font-size="10.00" fill="#000000">dict_read_process_value</text>
</a>
</g>
</g>
<!-- Node42725&#45;&gt;Node42192 -->
<g id="edge9" class="edge">
<title>Node42725&#45;&gt;Node42192</title>
<path fill="none" stroke="#191970" d="M641.1557,-146.5C650.1658,-146.5 659.233,-146.5 667.9559,-146.5"/>
<polygon fill="#191970" stroke="#191970" points="641.0286,-143.0001 631.0286,-146.5 641.0286,-150.0001 641.0286,-143.0001"/>
</g>
<!-- Node42195 -->
<g id="node11" class="node">
<title>Node42195</title>
<g id="a_node11"><a xlink:href="dict__tokenize_8c.html#a91c209097239dfc02dd303a31e5508bd" target="_top" xlink:title="fr_dict_finalise">
<polygon fill="none" stroke="#ff0000" points="690.5,-99 690.5,-118 770.5,-118 770.5,-99 690.5,-99"/>
<text text-anchor="middle" x="730.5" y="-106" font-family="Helvetica,sans-Serif" font-size="10.00" fill="#000000">fr_dict_finalise</text>
</a>
</g>
</g>
<!-- Node42725&#45;&gt;Node42195 -->
<g id="edge11" class="edge">
<title>Node42725&#45;&gt;Node42195</title>
<path fill="none" stroke="#191970" d="M612.7289,-134.6714C637.7754,-129.1055 667.1521,-122.5773 690.3001,-117.4333"/>
<polygon fill="#191970" stroke="#191970" points="611.6531,-131.325 602.6505,-136.911 613.1717,-138.1583 611.6531,-131.325"/>
</g>
<!-- Node42538 -->
<g id="node12" class="node">
<title>Node42538</title>
<g id="a_node12"><a xlink:href="dict__util_8c.html#a2485baa56ee82ec625df4de268bcf4b2" target="_top" xlink:title="Add an name to an integer attribute hashing the name for the integer value. ">
<polygon fill="none" stroke="#ff0000" points="674,-49.5 674,-79.5 787,-79.5 787,-49.5 674,-49.5"/>
<text text-anchor="start" x="682" y="-67.5" font-family="Helvetica,sans-Serif" font-size="10.00" fill="#000000">fr_dict_attr_enum_add</text>
<text text-anchor="middle" x="730.5" y="-56.5" font-family="Helvetica,sans-Serif" font-size="10.00" fill="#000000">_name_next</text>
</a>
</g>
</g>
<!-- Node42725&#45;&gt;Node42538 -->
<g id="edge13" class="edge">
<title>Node42725&#45;&gt;Node42538</title>
<path fill="none" stroke="#191970" d="M585.1744,-131.8366C606.6996,-119.7991 638.4153,-102.6546 667,-89.5 674.4264,-86.0824 682.4626,-82.6909 690.2404,-79.5597"/>
<polygon fill="#191970" stroke="#191970" points="583.3277,-128.8597 576.331,-136.8156 586.7619,-134.9593 583.3277,-128.8597"/>
</g>
<!-- Node42726 -->
<g id="node13" class="node">
<title>Node42726</title>
<g id="a_node13"><a xlink:href="proto__ldap__sync_8c.html#ada3f74296e305489a4df645525b685dd" target="_top" xlink:title="Add dict enumv from a fr_table_num_sorted_t table. ">
<polygon fill="none" stroke="#ff0000" points="667,-.5 667,-30.5 794,-30.5 794,-.5 667,-.5"/>
<text text-anchor="start" x="675" y="-18.5" font-family="Helvetica,sans-Serif" font-size="10.00" fill="#000000">fr_dict_enum_from_name</text>
<text text-anchor="middle" x="730.5" y="-7.5" font-family="Helvetica,sans-Serif" font-size="10.00" fill="#000000">_number</text>
</a>
</g>
</g>
<!-- Node42725&#45;&gt;Node42726 -->
<g id="edge14" class="edge">
<title>Node42725&#45;&gt;Node42726</title>
<path fill="none" stroke="#191970" d="M573.243,-129.1158C592.1988,-106.1241 628.4256,-65.5922 667,-40.5 672.7603,-36.753 679.17,-33.4206 685.6391,-30.5072"/>
<polygon fill="#191970" stroke="#191970" points="570.4308,-127.0269 566.8547,-137 575.8696,-131.4337 570.4308,-127.0269"/>
</g>
<!-- Node42192&#45;&gt;Node41281 -->
<g id="edge10" class="edge">
<title>Node42192&#45;&gt;Node41281</title>
<path fill="none" stroke="#191970" d="M803.55,-146.5C812.6185,-146.5 821.6125,-146.5 829.9169,-146.5"/>
<polygon fill="#191970" stroke="#191970" points="803.3125,-143.0001 793.3125,-146.5 803.3124,-150.0001 803.3125,-143.0001"/>
</g>
<!-- Node42195&#45;&gt;Node41281 -->
<g id="edge12" class="edge">
<title>Node42195&#45;&gt;Node41281</title>
<path fill="none" stroke="#191970" d="M775.4564,-120.7462C794.6848,-125.984 816.8031,-132.0091 834.8095,-136.9141"/>
<polygon fill="#191970" stroke="#191970" points="776.2701,-117.3404 765.7017,-118.089 774.4303,-124.0943 776.2701,-117.3404"/>
</g>
</g>
</svg>
