<?xml version="1.0" encoding="UTF-8" standalone="no"?>
<!DOCTYPE svg PUBLIC "-//W3C//DTD SVG 1.1//EN"
 "http://www.w3.org/Graphics/SVG/1.1/DTD/svg11.dtd">
<!-- Generated by graphviz version 2.40.1 (20161225.0304)
 -->
<!-- Title: vector_umts_from_quintuplets Pages: 1 -->
<svg width="288pt" height="104pt"
 viewBox="0.00 0.00 288.00 104.00" xmlns="http://www.w3.org/2000/svg" xmlns:xlink="http://www.w3.org/1999/xlink">
<g id="graph0" class="graph" transform="scale(1 1) rotate(0) translate(4 100)">
<title>vector_umts_from_quintuplets</title>
<!-- Node3834 -->
<g id="node1" class="node">
<title>Node3834</title>
<polygon fill="#bfbfbf" stroke="#000000" points="0,-38.5 0,-57.5 148,-57.5 148,-38.5 0,-38.5"/>
<text text-anchor="middle" x="74" y="-45.5" font-family="Helvetica,sans-Serif" font-size="10.00" fill="#000000">vector_umts_from_quintuplets</text>
</g>
<!-- Node3835 -->
<g id="node2" class="node">
<title>Node3835</title>
<g id="a_node2"><a xlink:href="pair_8c.html#ac3e6ae214c078ffe6f2648f1c12159ff" target="_top" xlink:title="Find the pair with the matching DAs. ">
<polygon fill="none" stroke="#000000" points="184,-76.5 184,-95.5 280,-95.5 280,-76.5 184,-76.5"/>
<text text-anchor="middle" x="232" y="-83.5" font-family="Helvetica,sans-Serif" font-size="10.00" fill="#000000">fr_pair_find_by_da</text>
</a>
</g>
</g>
<!-- Node3834&#45;&gt;Node3835 -->
<g id="edge1" class="edge">
<title>Node3834&#45;&gt;Node3835</title>
<path fill="none" stroke="#191970" d="M113.8701,-57.589C134.7199,-62.6035 160.4346,-68.7881 182.5429,-74.1053"/>
<polygon fill="#191970" stroke="#191970" points="181.8754,-77.5445 192.4166,-76.4799 183.5123,-70.7385 181.8754,-77.5445"/>
</g>
<!-- Node3836 -->
<g id="node3" class="node">
<title>Node3836</title>
<g id="a_node3"><a xlink:href="common_8h.html#a72633a59cfb732e989c8d7141eae8bd4" target="_top" xlink:title="Convert a 48bit big endian value into a unsigned 64bit integer. ">
<polygon fill="none" stroke="#000000" points="187.5,-38.5 187.5,-57.5 276.5,-57.5 276.5,-38.5 187.5,-38.5"/>
<text text-anchor="middle" x="232" y="-45.5" font-family="Helvetica,sans-Serif" font-size="10.00" fill="#000000">uint48_from_buff</text>
</a>
</g>
</g>
<!-- Node3834&#45;&gt;Node3836 -->
<g id="edge2" class="edge">
<title>Node3834&#45;&gt;Node3836</title>
<path fill="none" stroke="#191970" d="M148.3734,-48C158.027,-48 167.773,-48 177.0322,-48"/>
<polygon fill="#191970" stroke="#191970" points="177.2484,-51.5001 187.2484,-48 177.2483,-44.5001 177.2484,-51.5001"/>
</g>
<!-- Node3837 -->
<g id="node4" class="node">
<title>Node3837</title>
<g id="a_node4"><a xlink:href="common_8h.html#a547bc2af85f10d3242b8e1a91d83cf72" target="_top" xlink:title="Copy a 48bit value from a 64bit integer into a uint8_t buff in big endian byte order. ">
<polygon fill="none" stroke="#000000" points="193,-.5 193,-19.5 271,-19.5 271,-.5 193,-.5"/>
<text text-anchor="middle" x="232" y="-7.5" font-family="Helvetica,sans-Serif" font-size="10.00" fill="#000000">uint48_to_buff</text>
</a>
</g>
</g>
<!-- Node3834&#45;&gt;Node3837 -->
<g id="edge3" class="edge">
<title>Node3834&#45;&gt;Node3837</title>
<path fill="none" stroke="#191970" d="M113.8701,-38.411C134.8784,-33.3584 160.826,-27.1178 183.0467,-21.7736"/>
<polygon fill="#191970" stroke="#191970" points="184.0585,-25.1301 192.9628,-19.3887 182.4216,-18.3242 184.0585,-25.1301"/>
</g>
</g>
</svg>
