<?xml version="1.0" encoding="UTF-8" standalone="no"?>
<!DOCTYPE svg PUBLIC "-//W3C//DTD SVG 1.1//EN"
 "http://www.w3.org/Graphics/SVG/1.1/DTD/svg11.dtd">
<!-- Generated by graphviz version 2.40.1 (20161225.0304)
 -->
<!-- Title: _xlat_inst_detach Pages: 1 -->
<!--zoomable 110 -->
<svg id="main" version="1.1" xmlns="http://www.w3.org/2000/svg" xmlns:xlink="http://www.w3.org/1999/xlink" xml:space="preserve" onload="init(evt)">
<style type="text/css"><![CDATA[
.edge:hover path { stroke: red; }
.edge:hover polygon { stroke: red; fill: red; }
]]></style>
<script type="text/javascript"><![CDATA[
var edges = document.getElementsByTagName('g');
if (edges && edges.length) {
  for (var i=0;i<edges.length;i++) {
    if (edges[i].id.substr(0,4)=='edge') {
      edges[i].setAttribute('class','edge');
    }
  }
}
]]></script>
        <defs>
                <circle id="rim" cx="0" cy="0" r="7"/>
                <circle id="rim2" cx="0" cy="0" r="3.5"/>
                <g id="zoomPlus">
                        <use xlink:href="#rim" fill="#404040">
                                <set attributeName="fill" to="#808080" begin="zoomplus.mouseover" end="zoomplus.mouseout"/>
                        </use>
                        <path d="M-4,0h8M0,-4v8" fill="none" stroke="white" stroke-width="1.5" pointer-events="none"/>
                </g>
                <g id="zoomMin">
                        <use xlink:href="#rim" fill="#404040">
                                <set attributeName="fill" to="#808080" begin="zoomminus.mouseover" end="zoomminus.mouseout"/>
                        </use>
                        <path d="M-4,0h8" fill="none" stroke="white" stroke-width="1.5" pointer-events="none"/>
                </g>
                <g id="dirArrow">
                        <path fill="none" stroke="white" stroke-width="1.5" d="M0,-3.0v7 M-2.5,-0.5L0,-3.0L2.5,-0.5"/>
                </g>
               <g id="resetDef">
                       <use xlink:href="#rim2" fill="#404040">
                               <set attributeName="fill" to="#808080" begin="reset.mouseover" end="reset.mouseout"/>
                       </use>
               </g>
        </defs>

<script type="text/javascript">
var viewWidth = 720;
var viewHeight = 110;
var sectionId = 'dynsection-5';
</script>
<script xlink:href="svgpan.js"/>
<svg id="graph" class="graph">
<g id="viewport">
<title>_xlat_inst_detach</title>
<!-- Node529 -->
<g id="node1" class="node">
<title>Node529</title>
<polygon fill="#bfbfbf" stroke="#000000" points="0,-54.5 0,-73.5 93,-73.5 93,-54.5 0,-54.5"/>
<text text-anchor="middle" x="46.5" y="-61.5" font-family="Helvetica,sans-Serif" font-size="10.00" fill="#000000">_xlat_inst_detach</text>
</g>
<!-- Node530 -->
<g id="node2" class="node">
<title>Node530</title>
<g id="a_node2"><a xlink:href="xlat__inst_8c.html#a76cb33eb2429858d6cd558166b8c1eab" target="_top" xlink:title="Allocate instance data for an xlat expansion. ">
<polygon fill="none" stroke="#000000" points="129,-54.5 129,-73.5 208,-73.5 208,-54.5 129,-54.5"/>
<text text-anchor="middle" x="168.5" y="-61.5" font-family="Helvetica,sans-Serif" font-size="10.00" fill="#000000">xlat_inst_alloc</text>
</a>
</g>
</g>
<!-- Node529&#45;&gt;Node530 -->
<g id="edge1" class="edge">
<title>Node529&#45;&gt;Node530</title>
<path fill="none" stroke="#191970" d="M103.5986,-64C112.1035,-64 120.71,-64 128.7531,-64"/>
<polygon fill="#191970" stroke="#191970" points="103.3195,-60.5001 93.3195,-64 103.3194,-67.5001 103.3195,-60.5001"/>
</g>
<!-- Node531 -->
<g id="node3" class="node">
<title>Node531</title>
<g id="a_node3"><a xlink:href="xlat__inst_8c.html#a4a780b9172fe9ef42d4365ebce8b8869" target="_top" xlink:title="Callback for creating &quot;ephemeral&quot; instance data for a xlat_exp_t. ">
<polygon fill="none" stroke="#000000" points="244,-71 244,-101 382,-101 382,-71 244,-71"/>
<text text-anchor="start" x="252" y="-89" font-family="Helvetica,sans-Serif" font-size="10.00" fill="#000000">_xlat_instantiate_ephemeral</text>
<text text-anchor="middle" x="313" y="-78" font-family="Helvetica,sans-Serif" font-size="10.00" fill="#000000">_walker</text>
</a>
</g>
</g>
<!-- Node530&#45;&gt;Node531 -->
<g id="edge2" class="edge">
<title>Node530&#45;&gt;Node531</title>
<path fill="none" stroke="#191970" d="M218.4878,-71.6106C226.6849,-72.8586 235.3057,-74.1711 243.868,-75.4747"/>
<polygon fill="#191970" stroke="#191970" points="218.7807,-68.1149 208.3678,-70.0698 217.727,-75.0352 218.7807,-68.1149"/>
</g>
<!-- Node906 -->
<g id="node6" class="node">
<title>Node906</title>
<g id="a_node6"><a xlink:href="xlat__inst_8c.html#af70ffeab33d621670b72492911cf84f7" target="_top" xlink:title="Callback for creating &quot;permanent&quot; instance data for a xlat_exp_t. ">
<polygon fill="none" stroke="#000000" points="262,-32.5 262,-51.5 364,-51.5 364,-32.5 262,-32.5"/>
<text text-anchor="middle" x="313" y="-39.5" font-family="Helvetica,sans-Serif" font-size="10.00" fill="#000000">xlat_bootstrap_func</text>
</a>
</g>
</g>
<!-- Node530&#45;&gt;Node906 -->
<g id="edge5" class="edge">
<title>Node530&#45;&gt;Node906</title>
<path fill="none" stroke="#191970" d="M218.3513,-56.4102C232.4148,-54.269 247.7349,-51.9366 261.872,-49.7842"/>
<polygon fill="#191970" stroke="#191970" points="217.727,-52.9648 208.3678,-57.9302 218.7807,-59.8851 217.727,-52.9648"/>
</g>
<!-- Node532 -->
<g id="node4" class="node">
<title>Node532</title>
<g id="a_node4"><a xlink:href="xlat__inst_8c.html#a7db04027b54d2658008979b231afc42c" target="_top" xlink:title="Create instance data for &quot;ephemeral&quot; xlats. ">
<polygon fill="none" stroke="#000000" points="418,-76.5 418,-95.5 551,-95.5 551,-76.5 418,-76.5"/>
<text text-anchor="middle" x="484.5" y="-83.5" font-family="Helvetica,sans-Serif" font-size="10.00" fill="#000000">xlat_instantiate_ephemeral</text>
</a>
</g>
</g>
<!-- Node531&#45;&gt;Node532 -->
<g id="edge3" class="edge">
<title>Node531&#45;&gt;Node532</title>
<path fill="none" stroke="#191970" d="M392.5038,-86C400.952,-86 409.4816,-86 417.762,-86"/>
<polygon fill="#191970" stroke="#191970" points="392.2613,-82.5001 382.2613,-86 392.2612,-89.5001 392.2613,-82.5001"/>
</g>
<!-- Node533 -->
<g id="node5" class="node">
<title>Node533</title>
<g id="a_node5"><a xlink:href="xlat__tokenize_8c.html#a85829f4364557f22d8e7da7f6f5b826b" target="_top" xlink:title="Tokenize an xlat expansion at runtime. ">
<polygon fill="none" stroke="#ff0000" points="587,-76.5 587,-95.5 712,-95.5 712,-76.5 587,-76.5"/>
<text text-anchor="middle" x="649.5" y="-83.5" font-family="Helvetica,sans-Serif" font-size="10.00" fill="#000000">xlat_tokenize_ephemeral</text>
</a>
</g>
</g>
<!-- Node532&#45;&gt;Node533 -->
<g id="edge4" class="edge">
<title>Node532&#45;&gt;Node533</title>
<path fill="none" stroke="#191970" d="M561.1819,-86C569.7919,-86 578.4868,-86 586.889,-86"/>
<polygon fill="#191970" stroke="#191970" points="561.1362,-82.5001 551.1362,-86 561.1362,-89.5001 561.1362,-82.5001"/>
</g>
<!-- Node907 -->
<g id="node7" class="node">
<title>Node907</title>
<g id="a_node7"><a xlink:href="xlat__inst_8c.html#acd786e620d35979832de403b8ae7c892" target="_top" xlink:title="_xlat_bootstrap_walker">
<polygon fill="none" stroke="#000000" points="426,-38.5 426,-57.5 543,-57.5 543,-38.5 426,-38.5"/>
<text text-anchor="middle" x="484.5" y="-45.5" font-family="Helvetica,sans-Serif" font-size="10.00" fill="#000000">_xlat_bootstrap_walker</text>
</a>
</g>
</g>
<!-- Node906&#45;&gt;Node907 -->
<g id="edge6" class="edge">
<title>Node906&#45;&gt;Node907</title>
<path fill="none" stroke="#191970" d="M374.6487,-44.1568C391.3348,-44.7406 409.3461,-45.3707 425.8617,-45.9485"/>
<polygon fill="#191970" stroke="#191970" points="374.5719,-40.6521 364.4557,-43.8002 374.3271,-47.6478 374.5719,-40.6521"/>
</g>
<!-- Node915 -->
<g id="node9" class="node">
<title>Node915</title>
<g id="a_node9"><a xlink:href="xlat__tokenize_8c.html#aab7b912cc1e1175d3c50588e7432a0bc" target="_top" xlink:title="Walk over an xlat tree recursively, resolving any unresolved functions or references. ">
<polygon fill="none" stroke="#000000" points="450,-.5 450,-19.5 519,-19.5 519,-.5 450,-.5"/>
<text text-anchor="middle" x="484.5" y="-7.5" font-family="Helvetica,sans-Serif" font-size="10.00" fill="#000000">xlat_resolve</text>
</a>
</g>
</g>
<!-- Node906&#45;&gt;Node915 -->
<g id="edge8" class="edge">
<title>Node906&#45;&gt;Node915</title>
<path fill="none" stroke="#191970" d="M373.9625,-30.6251C399.4864,-25.8626 428.2157,-20.502 449.987,-16.4397"/>
<polygon fill="#191970" stroke="#191970" points="373.1797,-27.2107 363.9913,-32.4856 374.4637,-34.0919 373.1797,-27.2107"/>
</g>
<!-- Node908 -->
<g id="node8" class="node">
<title>Node908</title>
<g id="a_node8"><a xlink:href="xlat__inst_8c.html#aa50ec0c23f346b537d391f12b40e3cbe" target="_top" xlink:title="Create instance data for &quot;permanent&quot; xlats. ">
<polygon fill="none" stroke="#ff0000" points="610.5,-38.5 610.5,-57.5 688.5,-57.5 688.5,-38.5 610.5,-38.5"/>
<text text-anchor="middle" x="649.5" y="-45.5" font-family="Helvetica,sans-Serif" font-size="10.00" fill="#000000">xlat_bootstrap</text>
</a>
</g>
</g>
<!-- Node907&#45;&gt;Node908 -->
<g id="edge7" class="edge">
<title>Node907&#45;&gt;Node908</title>
<path fill="none" stroke="#191970" d="M553.1805,-48C572.6147,-48 593.1021,-48 610.1618,-48"/>
<polygon fill="#191970" stroke="#191970" points="553.1374,-44.5001 543.1374,-48 553.1374,-51.5001 553.1374,-44.5001"/>
</g>
<!-- Node916 -->
<g id="node10" class="node">
<title>Node916</title>
<g id="a_node10"><a xlink:href="tmpl__tokenize_8c.html#a1b61cf929aaf81cbd6ffc25a8040e72a" target="_top" xlink:title="Resolve an unresolved xlat, i.e. ">
<polygon fill="none" stroke="#ff0000" points="603,-.5 603,-19.5 696,-19.5 696,-.5 603,-.5"/>
<text text-anchor="middle" x="649.5" y="-7.5" font-family="Helvetica,sans-Serif" font-size="10.00" fill="#000000">tmpl_xlat_resolve</text>
</a>
</g>
</g>
<!-- Node915&#45;&gt;Node916 -->
<g id="edge9" class="edge">
<title>Node915&#45;&gt;Node916</title>
<path fill="none" stroke="#191970" d="M529.1802,-10C551.9697,-10 579.6728,-10 602.7493,-10"/>
<polygon fill="#191970" stroke="#191970" points="529.0894,-6.5001 519.0894,-10 529.0894,-13.5001 529.0894,-6.5001"/>
</g>
</g>
</svg>
        <g id="navigator" transform="translate(0 0)" fill="#404254">
                <rect fill="#f2f5e9" fill-opacity="0.5" stroke="#606060" stroke-width=".5" x="0" y="0" width="60" height="60"/>
                <use id="zoomplus" xlink:href="#zoomPlus" x="17" y="9" onmousedown="handleZoom(evt,'in')"/>
                <use id="zoomminus" xlink:href="#zoomMin" x="42" y="9" onmousedown="handleZoom(evt,'out')"/>
                <use id="reset" xlink:href="#resetDef" x="30" y="36" onmousedown="handleReset()"/>
                <g id="arrowUp" xlink:href="#dirArrow" transform="translate(30 24)" onmousedown="handlePan(0,-1)">
                  <use xlink:href="#rim" fill="#404040">
                        <set attributeName="fill" to="#808080" begin="arrowUp.mouseover" end="arrowUp.mouseout"/>
                  </use>
                  <path fill="none" stroke="white" stroke-width="1.5" d="M0,-3.0v7 M-2.5,-0.5L0,-3.0L2.5,-0.5"/>
                </g>
                <g id="arrowRight" xlink:href="#dirArrow" transform="rotate(90) translate(36 -43)" onmousedown="handlePan(1,0)">
                  <use xlink:href="#rim" fill="#404040">
                        <set attributeName="fill" to="#808080" begin="arrowRight.mouseover" end="arrowRight.mouseout"/>
                  </use>
                  <path fill="none" stroke="white" stroke-width="1.5" d="M0,-3.0v7 M-2.5,-0.5L0,-3.0L2.5,-0.5"/>
                </g>
                <g id="arrowDown" xlink:href="#dirArrow" transform="rotate(180) translate(-30 -48)" onmousedown="handlePan(0,1)">
                  <use xlink:href="#rim" fill="#404040">
                        <set attributeName="fill" to="#808080" begin="arrowDown.mouseover" end="arrowDown.mouseout"/>
                  </use>
                  <path fill="none" stroke="white" stroke-width="1.5" d="M0,-3.0v7 M-2.5,-0.5L0,-3.0L2.5,-0.5"/>
                </g>
                <g id="arrowLeft" xlink:href="#dirArrow" transform="rotate(270) translate(-36 17)" onmousedown="handlePan(-1,0)">
                  <use xlink:href="#rim" fill="#404040">
                        <set attributeName="fill" to="#808080" begin="arrowLeft.mouseover" end="arrowLeft.mouseout"/>
                  </use>
                  <path fill="none" stroke="white" stroke-width="1.5" d="M0,-3.0v7 M-2.5,-0.5L0,-3.0L2.5,-0.5"/>
                </g>
        </g>
        <svg viewBox="0 0 15 15" width="100%" height="30px" preserveAspectRatio="xMaxYMin meet">
         <g id="arrow_out" transform="scale(0.3 0.3)">
          <a xlink:href="xlat__inst_8c_a234439c4b2ee10efc6626364d003dd6f_icgraph_org.svg" target="_base">
           <rect id="button" ry="5" rx="5" y="6" x="6" height="38" width="38"
                fill="#f2f5e9" fill-opacity="0.5" stroke="#606060" stroke-width="1.0"/>
           <path id="arrow"
             d="M 11.500037,31.436501 C 11.940474,20.09759 22.043105,11.32322 32.158766,21.979434 L 37.068811,17.246167 C 37.068811,17.246167 37.088388,32 37.088388,32 L 22.160133,31.978069 C 22.160133,31.978069 26.997745,27.140456 26.997745,27.140456 C 18.528582,18.264221 13.291696,25.230495 11.500037,31.436501 z"
             style="fill:#404040;"/>
          </a>
         </g>
        </svg>
</svg>
