<?xml version="1.0" encoding="UTF-8" standalone="no"?>
<!DOCTYPE svg PUBLIC "-//W3C//DTD SVG 1.1//EN"
 "http://www.w3.org/Graphics/SVG/1.1/DTD/svg11.dtd">
<!-- Generated by graphviz version 2.40.1 (20161225.0304)
 -->
<!-- Title: xlat_eval_pair Pages: 1 -->
<svg width="694pt" height="403pt"
 viewBox="0.00 0.00 694.00 403.00" xmlns="http://www.w3.org/2000/svg" xmlns:xlink="http://www.w3.org/1999/xlink">
<g id="graph0" class="graph" transform="scale(1 1) rotate(0) translate(4 399)">
<title>xlat_eval_pair</title>
<!-- Node5608 -->
<g id="node1" class="node">
<title>Node5608</title>
<polygon fill="#bfbfbf" stroke="#000000" points="0,-185.5 0,-204.5 77,-204.5 77,-185.5 0,-185.5"/>
<text text-anchor="middle" x="38.5" y="-192.5" font-family="Helvetica,sans-Serif" font-size="10.00" fill="#000000">xlat_eval_pair</text>
</g>
<!-- Node5609 -->
<g id="node2" class="node">
<title>Node5609</title>
<g id="a_node2"><a xlink:href="paircmp_8h.html#a1ce534420254a0c196b7d45c3d7405cc" target="_top" xlink:title="Compare two pair lists except for the password information. ">
<polygon fill="none" stroke="#000000" points="136.5,-223.5 136.5,-242.5 187.5,-242.5 187.5,-223.5 136.5,-223.5"/>
<text text-anchor="middle" x="162" y="-230.5" font-family="Helvetica,sans-Serif" font-size="10.00" fill="#000000">paircmp</text>
</a>
</g>
</g>
<!-- Node5608&#45;&gt;Node5609 -->
<g id="edge1" class="edge">
<title>Node5608&#45;&gt;Node5609</title>
<path fill="none" stroke="#191970" d="M79.4448,-207.5984C98.1929,-213.3671 119.8384,-220.0272 136.2607,-225.0802"/>
<polygon fill="#191970" stroke="#191970" points="80.2514,-204.1847 69.6643,-204.589 78.1927,-210.8752 80.2514,-204.1847"/>
</g>
<!-- Node5670 -->
<g id="node6" class="node">
<title>Node5670</title>
<g id="a_node6"><a xlink:href="rlm__files_8c.html#a5513d7eff1d477de518134494cae3265" target="_top" xlink:title="file_common">
<polygon fill="none" stroke="#000000" points="272,-299.5 272,-318.5 344,-318.5 344,-299.5 272,-299.5"/>
<text text-anchor="middle" x="308" y="-306.5" font-family="Helvetica,sans-Serif" font-size="10.00" fill="#000000">file_common</text>
</a>
</g>
</g>
<!-- Node5608&#45;&gt;Node5670 -->
<g id="edge28" class="edge">
<title>Node5608&#45;&gt;Node5670</title>
<path fill="none" stroke="#191970" d="M56.3566,-211.7206C70.6984,-224.3569 91.8673,-241.2988 113,-252 165.077,-278.3709 231.3188,-294.4677 271.6455,-302.553"/>
<polygon fill="#191970" stroke="#191970" points="58.5216,-208.9599 48.7531,-204.8578 53.8314,-214.1563 58.5216,-208.9599"/>
</g>
<!-- Node5677 -->
<g id="node13" class="node">
<title>Node5677</title>
<g id="a_node13"><a xlink:href="pairmove_8h.html#a76547a8e6fd37676e327ef5f6c4a6841" target="_top" xlink:title="radius_pairmove">
<polygon fill="none" stroke="#000000" points="118,-166.5 118,-185.5 206,-185.5 206,-166.5 118,-166.5"/>
<text text-anchor="middle" x="162" y="-173.5" font-family="Helvetica,sans-Serif" font-size="10.00" fill="#000000">radius_pairmove</text>
</a>
</g>
</g>
<!-- Node5608&#45;&gt;Node5677 -->
<g id="edge13" class="edge">
<title>Node5608&#45;&gt;Node5677</title>
<path fill="none" stroke="#191970" d="M87.1425,-187.5165C97.2543,-185.9609 107.8577,-184.3296 117.7993,-182.8001"/>
<polygon fill="#191970" stroke="#191970" points="86.5888,-184.0605 77.2373,-189.0404 87.6533,-190.9791 86.5888,-184.0605"/>
</g>
<!-- Node5696 -->
<g id="node24" class="node">
<title>Node5696</title>
<g id="a_node24"><a xlink:href="rlm__attr__filter_8c.html#af78e2693a098e22b58858cde5ae32629" target="_top" xlink:title="attr_filter_common">
<polygon fill="none" stroke="#000000" points="113,-128.5 113,-147.5 211,-147.5 211,-128.5 113,-128.5"/>
<text text-anchor="middle" x="162" y="-135.5" font-family="Helvetica,sans-Serif" font-size="10.00" fill="#000000">attr_filter_common</text>
</a>
</g>
</g>
<!-- Node5608&#45;&gt;Node5696 -->
<g id="edge27" class="edge">
<title>Node5608&#45;&gt;Node5696</title>
<path fill="none" stroke="#191970" d="M65.1207,-180.5897C79.1901,-173.1867 96.8481,-164.2282 113,-157 120.3288,-153.7202 128.4091,-150.4502 135.8582,-147.5707"/>
<polygon fill="#191970" stroke="#191970" points="63.2057,-177.6437 56.0163,-185.426 66.4896,-183.8257 63.2057,-177.6437"/>
</g>
<!-- Node5610 -->
<g id="node3" class="node">
<title>Node5610</title>
<g id="a_node3"><a xlink:href="cond__eval_8c.html#a3f22c6951a59e10793dfe7e752014ee2" target="_top" xlink:title="Call the correct data comparison function for the condition. ">
<polygon fill="none" stroke="#000000" points="260.5,-261.5 260.5,-280.5 355.5,-280.5 355.5,-261.5 260.5,-261.5"/>
<text text-anchor="middle" x="308" y="-268.5" font-family="Helvetica,sans-Serif" font-size="10.00" fill="#000000">cond_cmp_values</text>
</a>
</g>
</g>
<!-- Node5609&#45;&gt;Node5610 -->
<g id="edge2" class="edge">
<title>Node5609&#45;&gt;Node5610</title>
<path fill="none" stroke="#191970" d="M197.5397,-242.25C219.8957,-248.0687 248.6812,-255.5609 271.2619,-261.438"/>
<polygon fill="#191970" stroke="#191970" points="198.325,-238.8379 187.7658,-239.7062 196.5618,-245.6122 198.325,-238.8379"/>
</g>
<!-- Node5609&#45;&gt;Node5670 -->
<g id="edge5" class="edge">
<title>Node5609&#45;&gt;Node5670</title>
<path fill="none" stroke="#191970" d="M182.3567,-249.1171C198.973,-261.6484 223.4701,-278.74 247,-290 254.8043,-293.7347 263.5157,-296.9574 271.857,-299.6334"/>
<polygon fill="#191970" stroke="#191970" points="184.0545,-246.0078 173.9924,-242.6905 179.7896,-251.5586 184.0545,-246.0078"/>
</g>
<!-- Node5675 -->
<g id="node11" class="node">
<title>Node5675</title>
<g id="a_node11"><a xlink:href="rlm__sql_8c.html#a3e6a6dd9d35941a5801b400cefcdb8ca" target="_top" xlink:title="rlm_sql_process_groups">
<polygon fill="none" stroke="#000000" points="247,-185.5 247,-204.5 369,-204.5 369,-185.5 247,-185.5"/>
<text text-anchor="middle" x="308" y="-192.5" font-family="Helvetica,sans-Serif" font-size="10.00" fill="#000000">rlm_sql_process_groups</text>
</a>
</g>
</g>
<!-- Node5609&#45;&gt;Node5675 -->
<g id="edge10" class="edge">
<title>Node5609&#45;&gt;Node5675</title>
<path fill="none" stroke="#191970" d="M197.5397,-223.75C219.8957,-217.9313 248.6812,-210.4391 271.2619,-204.562"/>
<polygon fill="#191970" stroke="#191970" points="196.5618,-220.3878 187.7658,-226.2938 198.325,-227.1621 196.5618,-220.3878"/>
</g>
<!-- Node5676 -->
<g id="node12" class="node">
<title>Node5676</title>
<g id="a_node12"><a xlink:href="rlm__sql_8c.html#a9ef7a569b6f2f01a9ba088072c54e516" target="_top" xlink:title="mod_authorize">
<polygon fill="none" stroke="#000000" points="430,-185.5 430,-204.5 510,-204.5 510,-185.5 430,-185.5"/>
<text text-anchor="middle" x="470" y="-192.5" font-family="Helvetica,sans-Serif" font-size="10.00" fill="#000000">mod_authorize</text>
</a>
</g>
</g>
<!-- Node5609&#45;&gt;Node5676 -->
<g id="edge12" class="edge">
<title>Node5609&#45;&gt;Node5676</title>
<path fill="none" stroke="#191970" d="M197.7022,-230.7513C239.0518,-227.909 309.159,-222.3559 369,-214 389.1448,-211.1871 411.3767,-207.1117 429.8422,-203.456"/>
<polygon fill="#191970" stroke="#191970" points="197.3258,-227.2686 187.5833,-231.432 197.7957,-234.2528 197.3258,-227.2686"/>
</g>
<!-- Node5611 -->
<g id="node4" class="node">
<title>Node5611</title>
<g id="a_node4"><a xlink:href="cond__eval_8c.html#a1f1d11058fc89e985d75668f5ba6356b" target="_top" xlink:title="Convert both operands to the same type. ">
<polygon fill="none" stroke="#000000" points="405,-223.5 405,-242.5 535,-242.5 535,-223.5 405,-223.5"/>
<text text-anchor="middle" x="470" y="-230.5" font-family="Helvetica,sans-Serif" font-size="10.00" fill="#000000">cond_normalise_and_cmp</text>
</a>
</g>
</g>
<!-- Node5610&#45;&gt;Node5611 -->
<g id="edge3" class="edge">
<title>Node5610&#45;&gt;Node5611</title>
<path fill="none" stroke="#191970" d="M358.7148,-259.1039C381.4856,-253.7626 407.9867,-247.5463 429.4145,-242.5201"/>
<polygon fill="#191970" stroke="#191970" points="357.8159,-255.7197 348.8794,-261.411 359.4145,-262.5347 357.8159,-255.7197"/>
</g>
<!-- Node5612 -->
<g id="node5" class="node">
<title>Node5612</title>
<g id="a_node5"><a xlink:href="cond__eval_8c.html#ab27229c9ec6ad5533f687ec2cddc7818" target="_top" xlink:title="Evaluate a map. ">
<polygon fill="none" stroke="#ff0000" points="586,-223.5 586,-242.5 671,-242.5 671,-223.5 586,-223.5"/>
<text text-anchor="middle" x="628.5" y="-230.5" font-family="Helvetica,sans-Serif" font-size="10.00" fill="#000000">cond_eval_map</text>
</a>
</g>
</g>
<!-- Node5611&#45;&gt;Node5612 -->
<g id="edge4" class="edge">
<title>Node5611&#45;&gt;Node5612</title>
<path fill="none" stroke="#191970" d="M545.4529,-233C559.3537,-233 573.4106,-233 585.9077,-233"/>
<polygon fill="#191970" stroke="#191970" points="545.3831,-229.5001 535.3831,-233 545.3831,-236.5001 545.3831,-229.5001"/>
</g>
<!-- Node5671 -->
<g id="node7" class="node">
<title>Node5671</title>
<g id="a_node7"><a xlink:href="rlm__files_8c.html#a9ef7a569b6f2f01a9ba088072c54e516" target="_top" xlink:title="mod_authorize">
<polygon fill="none" stroke="#000000" points="430,-299.5 430,-318.5 510,-318.5 510,-299.5 430,-299.5"/>
<text text-anchor="middle" x="470" y="-306.5" font-family="Helvetica,sans-Serif" font-size="10.00" fill="#000000">mod_authorize</text>
</a>
</g>
</g>
<!-- Node5670&#45;&gt;Node5671 -->
<g id="edge6" class="edge">
<title>Node5670&#45;&gt;Node5671</title>
<path fill="none" stroke="#191970" d="M354.5576,-309C378.3354,-309 406.9792,-309 429.786,-309"/>
<polygon fill="#191970" stroke="#191970" points="354.356,-305.5001 344.356,-309 354.3559,-312.5001 354.356,-305.5001"/>
</g>
<!-- Node5672 -->
<g id="node8" class="node">
<title>Node5672</title>
<g id="a_node8"><a xlink:href="rlm__files_8c.html#a73815afba1a2e772075dea2daf0d96f6" target="_top" xlink:title="mod_preacct">
<polygon fill="none" stroke="#000000" points="433.5,-261.5 433.5,-280.5 506.5,-280.5 506.5,-261.5 433.5,-261.5"/>
<text text-anchor="middle" x="470" y="-268.5" font-family="Helvetica,sans-Serif" font-size="10.00" fill="#000000">mod_preacct</text>
</a>
</g>
</g>
<!-- Node5670&#45;&gt;Node5672 -->
<g id="edge7" class="edge">
<title>Node5670&#45;&gt;Node5672</title>
<path fill="none" stroke="#191970" d="M354.3919,-298.1179C379.5056,-292.2271 410.0856,-285.054 433.4855,-279.5651"/>
<polygon fill="#191970" stroke="#191970" points="353.2924,-294.7808 344.356,-300.4721 354.891,-301.5958 353.2924,-294.7808"/>
</g>
<!-- Node5673 -->
<g id="node9" class="node">
<title>Node5673</title>
<g id="a_node9"><a xlink:href="rlm__files_8c.html#a6dab4bbc315ece5039fc5c69f93cda26" target="_top" xlink:title="mod_authenticate">
<polygon fill="none" stroke="#000000" points="423,-375.5 423,-394.5 517,-394.5 517,-375.5 423,-375.5"/>
<text text-anchor="middle" x="470" y="-382.5" font-family="Helvetica,sans-Serif" font-size="10.00" fill="#000000">mod_authenticate</text>
</a>
</g>
</g>
<!-- Node5670&#45;&gt;Node5673 -->
<g id="edge8" class="edge">
<title>Node5670&#45;&gt;Node5673</title>
<path fill="none" stroke="#191970" d="M330.2048,-324.1948C349.3438,-336.758 378.0663,-354.3632 405,-366 413.4183,-369.6371 422.7409,-372.8218 431.6353,-375.492"/>
<polygon fill="#191970" stroke="#191970" points="332.141,-321.2792 321.8778,-318.649 328.2608,-327.1054 332.141,-321.2792"/>
</g>
<!-- Node5674 -->
<g id="node10" class="node">
<title>Node5674</title>
<g id="a_node10"><a xlink:href="rlm__files_8c.html#afdf6220a949e3c5c9b5cdafc6bb60513" target="_top" xlink:title="mod_post_auth">
<polygon fill="none" stroke="#000000" points="428.5,-337.5 428.5,-356.5 511.5,-356.5 511.5,-337.5 428.5,-337.5"/>
<text text-anchor="middle" x="470" y="-344.5" font-family="Helvetica,sans-Serif" font-size="10.00" fill="#000000">mod_post_auth</text>
</a>
</g>
</g>
<!-- Node5670&#45;&gt;Node5674 -->
<g id="edge9" class="edge">
<title>Node5670&#45;&gt;Node5674</title>
<path fill="none" stroke="#191970" d="M354.2005,-319.8372C377.948,-325.4076 406.623,-332.1338 429.4969,-337.4993"/>
<polygon fill="#191970" stroke="#191970" points="354.891,-316.4042 344.356,-317.5279 353.2924,-323.2192 354.891,-316.4042"/>
</g>
<!-- Node5675&#45;&gt;Node5676 -->
<g id="edge11" class="edge">
<title>Node5675&#45;&gt;Node5676</title>
<path fill="none" stroke="#191970" d="M379.3293,-195C396.6144,-195 414.4955,-195 429.7632,-195"/>
<polygon fill="#191970" stroke="#191970" points="379.2453,-191.5001 369.2453,-195 379.2452,-198.5001 379.2453,-191.5001"/>
</g>
<!-- Node5677&#45;&gt;Node5670 -->
<g id="edge14" class="edge">
<title>Node5677&#45;&gt;Node5670</title>
<path fill="none" stroke="#191970" d="M186.3964,-191.4159C194.9473,-197.6681 204.1231,-205.4395 211,-214 234.4076,-243.138 218.7825,-265.4906 247,-290 254.0343,-296.1099 263.02,-300.2559 271.9191,-303.0689"/>
<polygon fill="#191970" stroke="#191970" points="188.372,-188.5267 178.162,-185.6972 184.379,-194.2762 188.372,-188.5267"/>
</g>
<!-- Node5677&#45;&gt;Node5675 -->
<g id="edge25" class="edge">
<title>Node5677&#45;&gt;Node5675</title>
<path fill="none" stroke="#191970" d="M216.381,-183.077C226.3551,-184.375 236.826,-185.7376 246.9792,-187.0589"/>
<polygon fill="#191970" stroke="#191970" points="216.5691,-179.572 206.201,-181.7522 215.6657,-186.5135 216.5691,-179.572"/>
</g>
<!-- Node5677&#45;&gt;Node5676 -->
<g id="edge26" class="edge">
<title>Node5677&#45;&gt;Node5676</title>
<path fill="none" stroke="#191970" d="M216.3693,-173.2495C258.1939,-171.7984 317.3757,-171.1865 369,-176 389.2524,-177.8884 411.4961,-181.8627 429.9415,-185.6906"/>
<polygon fill="#191970" stroke="#191970" points="215.9869,-169.7612 206.1251,-173.6336 216.2493,-176.7563 215.9869,-169.7612"/>
</g>
<!-- Node5678 -->
<g id="node14" class="node">
<title>Node5678</title>
<g id="a_node14"><a xlink:href="rlm__mruby_8c.html#a1ac12adaa7a599ff85496465b8e0bac5" target="_top" xlink:title="add_vp_tuple">
<polygon fill="none" stroke="#000000" points="271,-109.5 271,-128.5 345,-128.5 345,-109.5 271,-109.5"/>
<text text-anchor="middle" x="308" y="-116.5" font-family="Helvetica,sans-Serif" font-size="10.00" fill="#000000">add_vp_tuple</text>
</a>
</g>
</g>
<!-- Node5677&#45;&gt;Node5678 -->
<g id="edge15" class="edge">
<title>Node5677&#45;&gt;Node5678</title>
<path fill="none" stroke="#191970" d="M196.0967,-162.7963C201.0962,-160.8553 206.1822,-158.8777 211,-157 235.772,-147.3451 264.0784,-136.2486 283.6922,-128.5496"/>
<polygon fill="#191970" stroke="#191970" points="194.7399,-159.5685 186.6827,-166.4484 197.2716,-166.0946 194.7399,-159.5685"/>
</g>
<!-- Node5680 -->
<g id="node16" class="node">
<title>Node5680</title>
<g id="a_node16"><a xlink:href="rlm__python_8c.html#a3dd25ad4b30a3a34b4a998ae9f7ac779" target="_top" xlink:title="mod_vptuple">
<polygon fill="none" stroke="#000000" points="272,-71.5 272,-90.5 344,-90.5 344,-71.5 272,-71.5"/>
<text text-anchor="middle" x="308" y="-78.5" font-family="Helvetica,sans-Serif" font-size="10.00" fill="#000000">mod_vptuple</text>
</a>
</g>
</g>
<!-- Node5677&#45;&gt;Node5680 -->
<g id="edge17" class="edge">
<title>Node5677&#45;&gt;Node5680</title>
<path fill="none" stroke="#191970" d="M204.4671,-161.6245C206.7673,-160.2127 208.9659,-158.6744 211,-157 234.1337,-137.9577 223.2328,-118.2454 247,-100 254.2148,-94.4614 263.0662,-90.5216 271.7655,-87.7246"/>
<polygon fill="#191970" stroke="#191970" points="202.462,-158.7235 195.2254,-166.4618 205.7083,-164.9253 202.462,-158.7235"/>
</g>
<!-- Node5685 -->
<g id="node21" class="node">
<title>Node5685</title>
<g id="a_node21"><a xlink:href="rest_8c.html#aa1abc79952c37ba0e360d859f16a2a47" target="_top" xlink:title="Processes JSON response and converts it into multiple fr_pair_ts. ">
<polygon fill="none" stroke="#000000" points="267.5,-28.5 267.5,-47.5 348.5,-47.5 348.5,-28.5 267.5,-28.5"/>
<text text-anchor="middle" x="308" y="-35.5" font-family="Helvetica,sans-Serif" font-size="10.00" fill="#000000">json_pair_alloc</text>
</a>
</g>
</g>
<!-- Node5677&#45;&gt;Node5685 -->
<g id="edge22" class="edge">
<title>Node5677&#45;&gt;Node5685</title>
<path fill="none" stroke="#191970" d="M206.3219,-161.0514C207.9836,-159.805 209.554,-158.4572 211,-157 242.8046,-124.9503 215.2746,-94.1281 247,-62 253.2371,-55.6837 261.3364,-50.9884 269.584,-47.5126"/>
<polygon fill="#191970" stroke="#191970" points="204.1301,-158.288 197.4056,-166.4753 207.768,-164.2684 204.1301,-158.288"/>
</g>
<!-- Node5679 -->
<g id="node15" class="node">
<title>Node5679</title>
<g id="a_node15"><a xlink:href="rlm__mruby_8c.html#a0247341b30ca1c6cb868c5ec8bcd509f" target="_top" xlink:title="do_mruby">
<polygon fill="none" stroke="#000000" points="440.5,-109.5 440.5,-128.5 499.5,-128.5 499.5,-109.5 440.5,-109.5"/>
<text text-anchor="middle" x="470" y="-116.5" font-family="Helvetica,sans-Serif" font-size="10.00" fill="#000000">do_mruby</text>
</a>
</g>
</g>
<!-- Node5678&#45;&gt;Node5679 -->
<g id="edge16" class="edge">
<title>Node5678&#45;&gt;Node5679</title>
<path fill="none" stroke="#191970" d="M355.3508,-119C382.8153,-119 416.557,-119 440.3022,-119"/>
<polygon fill="#191970" stroke="#191970" points="355.1661,-115.5001 345.1661,-119 355.166,-122.5001 355.1661,-115.5001"/>
</g>
<!-- Node5681 -->
<g id="node17" class="node">
<title>Node5681</title>
<g id="a_node17"><a xlink:href="rlm__python_8c.html#ab7a5b07271a3cc1febb9e1db44c14be6" target="_top" xlink:title="do_python_single">
<polygon fill="none" stroke="#000000" points="424,-71.5 424,-90.5 516,-90.5 516,-71.5 424,-71.5"/>
<text text-anchor="middle" x="470" y="-78.5" font-family="Helvetica,sans-Serif" font-size="10.00" fill="#000000">do_python_single</text>
</a>
</g>
</g>
<!-- Node5680&#45;&gt;Node5681 -->
<g id="edge18" class="edge">
<title>Node5680&#45;&gt;Node5681</title>
<path fill="none" stroke="#191970" d="M354.3743,-81C376.1831,-81 402.1172,-81 423.8923,-81"/>
<polygon fill="#191970" stroke="#191970" points="354.356,-77.5001 344.356,-81 354.3559,-84.5001 354.356,-77.5001"/>
</g>
<!-- Node5682 -->
<g id="node18" class="node">
<title>Node5682</title>
<g id="a_node18"><a xlink:href="rlm__python_8c.html#a0f167b8b7db68ae6009c37e2297cd349" target="_top" xlink:title="Thread safe call to a python function. ">
<polygon fill="none" stroke="#000000" points="597.5,-114.5 597.5,-133.5 659.5,-133.5 659.5,-114.5 597.5,-114.5"/>
<text text-anchor="middle" x="628.5" y="-121.5" font-family="Helvetica,sans-Serif" font-size="10.00" fill="#000000">do_python</text>
</a>
</g>
</g>
<!-- Node5681&#45;&gt;Node5682 -->
<g id="edge19" class="edge">
<title>Node5681&#45;&gt;Node5682</title>
<path fill="none" stroke="#191970" d="M514.9391,-93.1917C541.2976,-100.3426 573.9315,-109.1959 597.4425,-115.5743"/>
<polygon fill="#191970" stroke="#191970" points="515.7439,-89.7836 505.1763,-90.5431 513.911,-96.5394 515.7439,-89.7836"/>
</g>
<!-- Node5683 -->
<g id="node19" class="node">
<title>Node5683</title>
<g id="a_node19"><a xlink:href="rlm__python_8c.html#a3c32864d8c9d017bf4625d54f415b2db" target="_top" xlink:title="mod_instantiate">
<polygon fill="none" stroke="#000000" points="585.5,-76.5 585.5,-95.5 671.5,-95.5 671.5,-76.5 585.5,-76.5"/>
<text text-anchor="middle" x="628.5" y="-83.5" font-family="Helvetica,sans-Serif" font-size="10.00" fill="#000000">mod_instantiate</text>
</a>
</g>
</g>
<!-- Node5681&#45;&gt;Node5683 -->
<g id="edge20" class="edge">
<title>Node5681&#45;&gt;Node5683</title>
<path fill="none" stroke="#191970" d="M526.5045,-82.7825C545.8979,-83.3943 567.2767,-84.0687 585.4304,-84.6413"/>
<polygon fill="#191970" stroke="#191970" points="526.3763,-79.2768 516.2708,-82.4596 526.1555,-86.2733 526.3763,-79.2768"/>
</g>
<!-- Node5684 -->
<g id="node20" class="node">
<title>Node5684</title>
<g id="a_node20"><a xlink:href="rlm__python_8c.html#a58558dfc841067f4efe9262f6452ead0" target="_top" xlink:title="mod_detach">
<polygon fill="none" stroke="#000000" points="593.5,-38.5 593.5,-57.5 663.5,-57.5 663.5,-38.5 593.5,-38.5"/>
<text text-anchor="middle" x="628.5" y="-45.5" font-family="Helvetica,sans-Serif" font-size="10.00" fill="#000000">mod_detach</text>
</a>
</g>
</g>
<!-- Node5681&#45;&gt;Node5684 -->
<g id="edge21" class="edge">
<title>Node5681&#45;&gt;Node5684</title>
<path fill="none" stroke="#191970" d="M525.9313,-69.355C548.3671,-64.6838 573.5401,-59.4428 593.3329,-55.3218"/>
<polygon fill="#191970" stroke="#191970" points="524.9214,-65.9901 515.8448,-71.455 526.3483,-72.8432 524.9214,-65.9901"/>
</g>
<!-- Node5686 -->
<g id="node22" class="node">
<title>Node5686</title>
<g id="a_node22"><a xlink:href="rest_8c.html#aabc182fc9595dbdaeec0500edd82137e" target="_top" xlink:title="Converts JSON response into fr_pair_ts and adds them to the request. ">
<polygon fill="none" stroke="#000000" points="423.5,-19.5 423.5,-38.5 516.5,-38.5 516.5,-19.5 423.5,-19.5"/>
<text text-anchor="middle" x="470" y="-26.5" font-family="Helvetica,sans-Serif" font-size="10.00" fill="#000000">rest_decode_json</text>
</a>
</g>
</g>
<!-- Node5685&#45;&gt;Node5686 -->
<g id="edge23" class="edge">
<title>Node5685&#45;&gt;Node5686</title>
<path fill="none" stroke="#191970" d="M359.0354,-35.1647C379.6436,-34.0198 403.2642,-32.7075 423.401,-31.5888"/>
<polygon fill="#191970" stroke="#191970" points="358.6699,-31.6795 348.8794,-35.7289 359.0582,-38.6687 358.6699,-31.6795"/>
</g>
<!-- Node5687 -->
<g id="node23" class="node">
<title>Node5687</title>
<g id="a_node23"><a xlink:href="rest_8c.html#af234e253e19d3fd60dab3911da23b0ba" target="_top" xlink:title="Sends the response to the correct decode function. ">
<polygon fill="none" stroke="#ff0000" points="571,-.5 571,-19.5 686,-19.5 686,-.5 571,-.5"/>
<text text-anchor="middle" x="628.5" y="-7.5" font-family="Helvetica,sans-Serif" font-size="10.00" fill="#000000">rest_response_decode</text>
</a>
</g>
</g>
<!-- Node5686&#45;&gt;Node5687 -->
<g id="edge24" class="edge">
<title>Node5686&#45;&gt;Node5687</title>
<path fill="none" stroke="#191970" d="M526.8965,-22.1796C541.2001,-20.465 556.5618,-18.6235 570.8996,-16.9048"/>
<polygon fill="#191970" stroke="#191970" points="526.2103,-18.7367 516.698,-23.4021 527.0435,-25.687 526.2103,-18.7367"/>
</g>
</g>
</svg>
