<?xml version="1.0" encoding="UTF-8" standalone="no"?>
<!DOCTYPE svg PUBLIC "-//W3C//DTD SVG 1.1//EN"
 "http://www.w3.org/Graphics/SVG/1.1/DTD/svg11.dtd">
<!-- Generated by graphviz version 2.40.1 (20161225.0304)
 -->
<!-- Title: /home/runner/work/freeradius&#45;server/freeradius&#45;server/src/lib/unlang/xlat_builtin.c Pages: 1 -->
<svg width="1547pt" height="117pt"
 viewBox="0.00 0.00 1546.50 117.00" xmlns="http://www.w3.org/2000/svg" xmlns:xlink="http://www.w3.org/1999/xlink">
<g id="graph0" class="graph" transform="scale(1 1) rotate(0) translate(4 113)">
<title>/home/runner/work/freeradius&#45;server/freeradius&#45;server/src/lib/unlang/xlat_builtin.c</title>
<!-- Node0 -->
<g id="node1" class="node">
<title>Node0</title>
<polygon fill="#bfbfbf" stroke="#000000" points="754.5,-67.5 754.5,-108.5 897.5,-108.5 897.5,-67.5 754.5,-67.5"/>
<text text-anchor="start" x="762.5" y="-96.5" font-family="Helvetica,sans-Serif" font-size="10.00" fill="#000000">/home/runner/work/freeradius</text>
<text text-anchor="start" x="762.5" y="-85.5" font-family="Helvetica,sans-Serif" font-size="10.00" fill="#000000">&#45;server/freeradius&#45;server</text>
<text text-anchor="middle" x="826" y="-74.5" font-family="Helvetica,sans-Serif" font-size="10.00" fill="#000000">/src/lib/unlang/xlat_builtin.c</text>
</g>
<!-- Node1 -->
<g id="node2" class="node">
<title>Node1</title>
<polygon fill="none" stroke="#bfbfbf" points="0,-.5 0,-30.5 116,-30.5 116,-.5 0,-.5"/>
<text text-anchor="start" x="8" y="-18.5" font-family="Helvetica,sans-Serif" font-size="10.00" fill="#000000">freeradius&#45;devel/server</text>
<text text-anchor="middle" x="58" y="-7.5" font-family="Helvetica,sans-Serif" font-size="10.00" fill="#000000">/base.h</text>
</g>
<!-- Node0&#45;&gt;Node1 -->
<g id="edge1" class="edge">
<title>Node0&#45;&gt;Node1</title>
<path fill="none" stroke="#191970" d="M754.449,-85.6358C628.9743,-80.7339 361.0625,-66.8996 126.1071,-31.0249"/>
<polygon fill="#191970" stroke="#191970" points="126.4205,-27.5319 116.0036,-29.4653 125.3526,-34.45 126.4205,-27.5319"/>
</g>
<!-- Node2 -->
<g id="node3" class="node">
<title>Node2</title>
<polygon fill="none" stroke="#bfbfbf" points="134,-.5 134,-30.5 250,-30.5 250,-.5 134,-.5"/>
<text text-anchor="start" x="142" y="-18.5" font-family="Helvetica,sans-Serif" font-size="10.00" fill="#000000">freeradius&#45;devel/server</text>
<text text-anchor="middle" x="192" y="-7.5" font-family="Helvetica,sans-Serif" font-size="10.00" fill="#000000">/cond.h</text>
</g>
<!-- Node0&#45;&gt;Node2 -->
<g id="edge2" class="edge">
<title>Node0&#45;&gt;Node2</title>
<path fill="none" stroke="#191970" d="M754.4565,-83.7364C648.49,-76.7738 443.4948,-60.8253 260.1139,-31.0541"/>
<polygon fill="#191970" stroke="#191970" points="260.4494,-27.5624 250.0146,-29.3967 259.3158,-34.47 260.4494,-27.5624"/>
</g>
<!-- Node3 -->
<g id="node4" class="node">
<title>Node3</title>
<polygon fill="none" stroke="#bfbfbf" points="268,-.5 268,-30.5 384,-30.5 384,-.5 268,-.5"/>
<text text-anchor="start" x="276" y="-18.5" font-family="Helvetica,sans-Serif" font-size="10.00" fill="#000000">freeradius&#45;devel/server</text>
<text text-anchor="middle" x="326" y="-7.5" font-family="Helvetica,sans-Serif" font-size="10.00" fill="#000000">/regex.h</text>
</g>
<!-- Node0&#45;&gt;Node3 -->
<g id="edge3" class="edge">
<title>Node0&#45;&gt;Node3</title>
<path fill="none" stroke="#191970" d="M754.4154,-80.7171C670.3862,-71.6873 526.6917,-54.7495 393.9756,-31.0764"/>
<polygon fill="#191970" stroke="#191970" points="394.4956,-27.6138 384.0337,-29.2865 393.2553,-34.503 394.4956,-27.6138"/>
</g>
<!-- Node4 -->
<g id="node5" class="node">
<title>Node4</title>
<polygon fill="none" stroke="#bfbfbf" points="402.5,-.5 402.5,-30.5 519.5,-30.5 519.5,-.5 402.5,-.5"/>
<text text-anchor="start" x="410.5" y="-18.5" font-family="Helvetica,sans-Serif" font-size="10.00" fill="#000000">freeradius&#45;devel/unlang</text>
<text text-anchor="middle" x="461" y="-7.5" font-family="Helvetica,sans-Serif" font-size="10.00" fill="#000000">/xlat_priv.h</text>
</g>
<!-- Node0&#45;&gt;Node4 -->
<g id="edge4" class="edge">
<title>Node0&#45;&gt;Node4</title>
<path fill="none" stroke="#191970" d="M754.4947,-75.1186C696.3937,-64.4689 612.0749,-48.6006 529.8171,-31.3474"/>
<polygon fill="#191970" stroke="#191970" points="530.3045,-27.8734 519.7978,-29.2368 528.8616,-34.723 530.3045,-27.8734"/>
</g>
<!-- Node5 -->
<g id="node6" class="node">
<title>Node5</title>
<polygon fill="none" stroke="#bfbfbf" points="537.5,-.5 537.5,-30.5 638.5,-30.5 638.5,-.5 537.5,-.5"/>
<text text-anchor="start" x="545.5" y="-18.5" font-family="Helvetica,sans-Serif" font-size="10.00" fill="#000000">freeradius&#45;devel/util</text>
<text text-anchor="middle" x="588" y="-7.5" font-family="Helvetica,sans-Serif" font-size="10.00" fill="#000000">/base64.h</text>
</g>
<!-- Node0&#45;&gt;Node5 -->
<g id="edge5" class="edge">
<title>Node0&#45;&gt;Node5</title>
<path fill="none" stroke="#191970" d="M758.4354,-67.4183C723.4127,-56.7497 681.0297,-43.8389 647.2902,-33.5611"/>
<polygon fill="#191970" stroke="#191970" points="648.1527,-30.1651 637.5667,-30.5991 646.1128,-36.8613 648.1527,-30.1651"/>
</g>
<!-- Node6 -->
<g id="node7" class="node">
<title>Node6</title>
<polygon fill="none" stroke="#bfbfbf" points="656.5,-.5 656.5,-30.5 757.5,-30.5 757.5,-.5 656.5,-.5"/>
<text text-anchor="start" x="664.5" y="-18.5" font-family="Helvetica,sans-Serif" font-size="10.00" fill="#000000">freeradius&#45;devel/util</text>
<text text-anchor="middle" x="707" y="-7.5" font-family="Helvetica,sans-Serif" font-size="10.00" fill="#000000">/debug.h</text>
</g>
<!-- Node0&#45;&gt;Node6 -->
<g id="edge6" class="edge">
<title>Node0&#45;&gt;Node6</title>
<path fill="none" stroke="#191970" d="M792.2177,-67.4183C775.984,-57.5281 756.5876,-45.7109 740.4035,-35.8509"/>
<polygon fill="#191970" stroke="#191970" points="742.1443,-32.8131 731.7834,-30.5991 738.5023,-38.791 742.1443,-32.8131"/>
</g>
<!-- Node7 -->
<g id="node8" class="node">
<title>Node7</title>
<polygon fill="none" stroke="#bfbfbf" points="775.5,-.5 775.5,-30.5 876.5,-30.5 876.5,-.5 775.5,-.5"/>
<text text-anchor="start" x="783.5" y="-18.5" font-family="Helvetica,sans-Serif" font-size="10.00" fill="#000000">freeradius&#45;devel/util</text>
<text text-anchor="middle" x="826" y="-7.5" font-family="Helvetica,sans-Serif" font-size="10.00" fill="#000000">/hex.h</text>
</g>
<!-- Node0&#45;&gt;Node7 -->
<g id="edge7" class="edge">
<title>Node0&#45;&gt;Node7</title>
<path fill="none" stroke="#191970" d="M826,-67.4183C826,-59.0849 826,-49.3834 826,-40.6373"/>
<polygon fill="#191970" stroke="#191970" points="829.5001,-40.5991 826,-30.5991 822.5001,-40.5991 829.5001,-40.5991"/>
</g>
<!-- Node8 -->
<g id="node9" class="node">
<title>Node8</title>
<polygon fill="none" stroke="#bfbfbf" points="894.5,-.5 894.5,-30.5 995.5,-30.5 995.5,-.5 894.5,-.5"/>
<text text-anchor="start" x="902.5" y="-18.5" font-family="Helvetica,sans-Serif" font-size="10.00" fill="#000000">freeradius&#45;devel/util</text>
<text text-anchor="middle" x="945" y="-7.5" font-family="Helvetica,sans-Serif" font-size="10.00" fill="#000000">/md5.h</text>
</g>
<!-- Node0&#45;&gt;Node8 -->
<g id="edge8" class="edge">
<title>Node0&#45;&gt;Node8</title>
<path fill="none" stroke="#191970" d="M859.7823,-67.4183C876.016,-57.5281 895.4124,-45.7109 911.5965,-35.8509"/>
<polygon fill="#191970" stroke="#191970" points="913.4977,-38.791 920.2166,-30.5991 909.8557,-32.8131 913.4977,-38.791"/>
</g>
<!-- Node9 -->
<g id="node10" class="node">
<title>Node9</title>
<polygon fill="none" stroke="#bfbfbf" points="1013.5,-.5 1013.5,-30.5 1114.5,-30.5 1114.5,-.5 1013.5,-.5"/>
<text text-anchor="start" x="1021.5" y="-18.5" font-family="Helvetica,sans-Serif" font-size="10.00" fill="#000000">freeradius&#45;devel/util</text>
<text text-anchor="middle" x="1064" y="-7.5" font-family="Helvetica,sans-Serif" font-size="10.00" fill="#000000">/misc.h</text>
</g>
<!-- Node0&#45;&gt;Node9 -->
<g id="edge9" class="edge">
<title>Node0&#45;&gt;Node9</title>
<path fill="none" stroke="#191970" d="M893.5646,-67.4183C928.5873,-56.7497 970.9703,-43.8389 1004.7098,-33.5611"/>
<polygon fill="#191970" stroke="#191970" points="1005.8872,-36.8613 1014.4333,-30.5991 1003.8473,-30.1651 1005.8872,-36.8613"/>
</g>
<!-- Node10 -->
<g id="node11" class="node">
<title>Node10</title>
<polygon fill="none" stroke="#bfbfbf" points="1132.5,-.5 1132.5,-30.5 1233.5,-30.5 1233.5,-.5 1132.5,-.5"/>
<text text-anchor="start" x="1140.5" y="-18.5" font-family="Helvetica,sans-Serif" font-size="10.00" fill="#000000">freeradius&#45;devel/util</text>
<text text-anchor="middle" x="1183" y="-7.5" font-family="Helvetica,sans-Serif" font-size="10.00" fill="#000000">/rand.h</text>
</g>
<!-- Node0&#45;&gt;Node10 -->
<g id="edge10" class="edge">
<title>Node0&#45;&gt;Node10</title>
<path fill="none" stroke="#191970" d="M897.6342,-75.7072C955.8102,-65.4004 1040.1711,-49.7241 1122.2133,-31.3344"/>
<polygon fill="#191970" stroke="#191970" points="1123.2214,-34.695 1132.205,-29.0785 1121.6797,-27.8669 1123.2214,-34.695"/>
</g>
<!-- Node11 -->
<g id="node12" class="node">
<title>Node11</title>
<polygon fill="none" stroke="#bfbfbf" points="1251.5,-.5 1251.5,-30.5 1352.5,-30.5 1352.5,-.5 1251.5,-.5"/>
<text text-anchor="start" x="1259.5" y="-18.5" font-family="Helvetica,sans-Serif" font-size="10.00" fill="#000000">freeradius&#45;devel/util</text>
<text text-anchor="middle" x="1302" y="-7.5" font-family="Helvetica,sans-Serif" font-size="10.00" fill="#000000">/sha1.h</text>
</g>
<!-- Node0&#45;&gt;Node11 -->
<g id="edge11" class="edge">
<title>Node0&#45;&gt;Node11</title>
<path fill="none" stroke="#191970" d="M897.64,-80.8755C978.8633,-72.1989 1115.3496,-55.8096 1241.0542,-31.2639"/>
<polygon fill="#191970" stroke="#191970" points="1242.1096,-34.6232 1251.2419,-29.2518 1240.7532,-27.7558 1242.1096,-34.6232"/>
</g>
<!-- Node12 -->
<g id="node13" class="node">
<title>Node12</title>
<polygon fill="none" stroke="#bfbfbf" points="1370.5,-.5 1370.5,-30.5 1471.5,-30.5 1471.5,-.5 1370.5,-.5"/>
<text text-anchor="start" x="1378.5" y="-18.5" font-family="Helvetica,sans-Serif" font-size="10.00" fill="#000000">freeradius&#45;devel/util</text>
<text text-anchor="middle" x="1421" y="-7.5" font-family="Helvetica,sans-Serif" font-size="10.00" fill="#000000">/value.h</text>
</g>
<!-- Node0&#45;&gt;Node12 -->
<g id="edge12" class="edge">
<title>Node0&#45;&gt;Node12</title>
<path fill="none" stroke="#191970" d="M897.587,-83.8349C998.8667,-77.1785 1189.794,-61.8234 1360.3516,-31.1532"/>
<polygon fill="#191970" stroke="#191970" points="1361.049,-34.5839 1370.2606,-29.3497 1359.7955,-27.697 1361.049,-34.5839"/>
</g>
<!-- Node13 -->
<g id="node14" class="node">
<title>Node13</title>
<polygon fill="none" stroke="#bfbfbf" points="1489.5,-6 1489.5,-25 1538.5,-25 1538.5,-6 1489.5,-6"/>
<text text-anchor="middle" x="1514" y="-13" font-family="Helvetica,sans-Serif" font-size="10.00" fill="#000000">ctype.h</text>
</g>
<!-- Node0&#45;&gt;Node13 -->
<g id="edge13" class="edge">
<title>Node0&#45;&gt;Node13</title>
<path fill="none" stroke="#191970" d="M897.5931,-84.944C1043.9157,-78.1796 1372.5698,-60.1885 1481,-31 1482.9711,-30.4694 1484.9694,-29.8265 1486.9566,-29.108"/>
<polygon fill="#191970" stroke="#191970" points="1488.7547,-32.1494 1496.6242,-25.0556 1486.0486,-25.6936 1488.7547,-32.1494"/>
</g>
</g>
</svg>
