<?xml version="1.0" encoding="UTF-8" standalone="no"?>
<!DOCTYPE svg PUBLIC "-//W3C//DTD SVG 1.1//EN"
 "http://www.w3.org/Graphics/SVG/1.1/DTD/svg11.dtd">
<!-- Generated by graphviz version 2.40.1 (20161225.0304)
 -->
<!-- Title: xlat_signal Pages: 1 -->
<svg width="550pt" height="104pt"
 viewBox="0.00 0.00 550.00 104.00" xmlns="http://www.w3.org/2000/svg" xmlns:xlink="http://www.w3.org/1999/xlink">
<g id="graph0" class="graph" transform="scale(1 1) rotate(0) translate(4 100)">
<title>xlat_signal</title>
<!-- Node3477 -->
<g id="node1" class="node">
<title>Node3477</title>
<polygon fill="#bfbfbf" stroke="#000000" points="0,-38.5 0,-57.5 63,-57.5 63,-38.5 0,-38.5"/>
<text text-anchor="middle" x="31.5" y="-45.5" font-family="Helvetica,sans-Serif" font-size="10.00" fill="#000000">xlat_signal</text>
</g>
<!-- Node3478 -->
<g id="node2" class="node">
<title>Node3478</title>
<g id="a_node2"><a xlink:href="unlang_2xlat_8c.html#aded938cf114817813a0e092e425dee57" target="_top" xlink:title="Send a signal (usually stop) to a request that&#39;s running an xlat expansions. ">
<polygon fill="none" stroke="#000000" points="99,-38.5 99,-57.5 196,-57.5 196,-38.5 99,-38.5"/>
<text text-anchor="middle" x="147.5" y="-45.5" font-family="Helvetica,sans-Serif" font-size="10.00" fill="#000000">unlang_xlat_signal</text>
</a>
</g>
</g>
<!-- Node3477&#45;&gt;Node3478 -->
<g id="edge1" class="edge">
<title>Node3477&#45;&gt;Node3478</title>
<path fill="none" stroke="#191970" d="M73.3627,-48C81.6331,-48 90.3791,-48 98.8517,-48"/>
<polygon fill="#191970" stroke="#191970" points="73.1975,-44.5001 63.1975,-48 73.1975,-51.5001 73.1975,-44.5001"/>
</g>
<!-- Node3479 -->
<g id="node3" class="node">
<title>Node3479</title>
<g id="a_node3"><a xlink:href="xlat__priv_8h.html#af0faf4f7bfe9de93c1a57e71073f482b" target="_top" xlink:title="Register xlat operation with the interpreter. ">
<polygon fill="none" stroke="#000000" points="232,-38.5 232,-57.5 316,-57.5 316,-38.5 232,-38.5"/>
<text text-anchor="middle" x="274" y="-45.5" font-family="Helvetica,sans-Serif" font-size="10.00" fill="#000000">unlang_xlat_init</text>
</a>
</g>
</g>
<!-- Node3478&#45;&gt;Node3479 -->
<g id="edge2" class="edge">
<title>Node3478&#45;&gt;Node3479</title>
<path fill="none" stroke="#191970" d="M206.1735,-48C214.8796,-48 223.702,-48 231.9762,-48"/>
<polygon fill="#191970" stroke="#191970" points="206.0465,-44.5001 196.0464,-48 206.0464,-51.5001 206.0465,-44.5001"/>
</g>
<!-- Node3480 -->
<g id="node4" class="node">
<title>Node3480</title>
<g id="a_node4"><a xlink:href="xlat__builtin_8c.html#a8e796b25cf1aede66c358d6b32cc6a34" target="_top" xlink:title="Global initialisation for xlat. ">
<polygon fill="none" stroke="#000000" points="352,-38.5 352,-57.5 402,-57.5 402,-38.5 352,-38.5"/>
<text text-anchor="middle" x="377" y="-45.5" font-family="Helvetica,sans-Serif" font-size="10.00" fill="#000000">xlat_init</text>
</a>
</g>
</g>
<!-- Node3479&#45;&gt;Node3480 -->
<g id="edge3" class="edge">
<title>Node3479&#45;&gt;Node3480</title>
<path fill="none" stroke="#191970" d="M326.2284,-48C335.1581,-48 344.0587,-48 351.8559,-48"/>
<polygon fill="#191970" stroke="#191970" points="326.1913,-44.5001 316.1912,-48 326.1912,-51.5001 326.1913,-44.5001"/>
</g>
<!-- Node3481 -->
<g id="node5" class="node">
<title>Node3481</title>
<g id="a_node5"><a xlink:href="unlang_2base_8h.html#aad13fe29457de363df11f5dda2fbde89" target="_top" xlink:title="Initialize the unlang compiler / interpreter. ">
<polygon fill="none" stroke="#ff0000" points="458.5,-76.5 458.5,-95.5 521.5,-95.5 521.5,-76.5 458.5,-76.5"/>
<text text-anchor="middle" x="490" y="-83.5" font-family="Helvetica,sans-Serif" font-size="10.00" fill="#000000">unlang_init</text>
</a>
</g>
</g>
<!-- Node3480&#45;&gt;Node3481 -->
<g id="edge4" class="edge">
<title>Node3480&#45;&gt;Node3481</title>
<path fill="none" stroke="#191970" d="M411.5999,-59.6354C427.555,-65.0008 446.2667,-71.2932 461.4078,-76.3849"/>
<polygon fill="#191970" stroke="#191970" points="412.6724,-56.3035 402.0784,-56.4334 410.4412,-62.9384 412.6724,-56.3035"/>
</g>
<!-- Node3483 -->
<g id="node6" class="node">
<title>Node3483</title>
<g id="a_node6"><a xlink:href="xlat__builtin_8c.html#a1ddb137dc14241c9b74b7675075f5161" target="_top" xlink:title="Register an old style xlat function. ">
<polygon fill="none" stroke="#ff0000" points="438,-38.5 438,-57.5 542,-57.5 542,-38.5 438,-38.5"/>
<text text-anchor="middle" x="490" y="-45.5" font-family="Helvetica,sans-Serif" font-size="10.00" fill="#000000">xlat_register_legacy</text>
</a>
</g>
</g>
<!-- Node3480&#45;&gt;Node3483 -->
<g id="edge5" class="edge">
<title>Node3480&#45;&gt;Node3483</title>
<path fill="none" stroke="#191970" d="M412.2335,-41.6943C420.3074,-41.3411 429.0596,-41.1985 437.6813,-41.2665"/>
<polygon fill="#191970" stroke="#191970" points="411.8602,-38.2099 402.0784,-42.28 412.2633,-45.1983 411.8602,-38.2099"/>
</g>
<!-- Node3860 -->
<g id="node7" class="node">
<title>Node3860</title>
<g id="a_node7"><a xlink:href="xlat__builtin_8c.html#a0f89713125e0a5b308fd37f701572835" target="_top" xlink:title="Register an xlat function. ">
<polygon fill="none" stroke="#ff0000" points="455,-.5 455,-19.5 525,-19.5 525,-.5 455,-.5"/>
<text text-anchor="middle" x="490" y="-7.5" font-family="Helvetica,sans-Serif" font-size="10.00" fill="#000000">xlat_register</text>
</a>
</g>
</g>
<!-- Node3480&#45;&gt;Node3860 -->
<g id="edge7" class="edge">
<title>Node3480&#45;&gt;Node3860</title>
<path fill="none" stroke="#191970" d="M401.2324,-34.1944C416.8394,-27.7521 437.3877,-20.6259 454.7834,-15.5378"/>
<polygon fill="#191970" stroke="#191970" points="399.552,-31.1083 391.7728,-38.3009 402.3395,-37.5294 399.552,-31.1083"/>
</g>
<!-- Node3483&#45;&gt;Node3480 -->
<g id="edge6" class="edge">
<title>Node3483&#45;&gt;Node3480</title>
<path fill="none" stroke="#191970" d="M427.4983,-54.716C418.5125,-54.614 409.7315,-54.282 402.0784,-53.72"/>
<polygon fill="#191970" stroke="#191970" points="427.6753,-58.2162 437.6813,-54.7335 427.6874,-51.2163 427.6753,-58.2162"/>
</g>
<!-- Node3860&#45;&gt;Node3480 -->
<g id="edge8" class="edge">
<title>Node3860&#45;&gt;Node3480</title>
<path fill="none" stroke="#191970" d="M466.0156,-23.7031C447.2207,-31.4788 421.1483,-40.274 402.0784,-45.2866"/>
<polygon fill="#191970" stroke="#191970" points="467.5876,-26.8361 475.3611,-19.6374 464.795,-20.4173 467.5876,-26.8361"/>
</g>
</g>
</svg>
