<?xml version="1.0" encoding="UTF-8" standalone="no"?>
<!DOCTYPE svg PUBLIC "-//W3C//DTD SVG 1.1//EN"
 "http://www.w3.org/Graphics/SVG/1.1/DTD/svg11.dtd">
<!-- Generated by graphviz version 2.40.1 (20161225.0304)
 -->
<!-- Title: xlat_instantiate Pages: 1 -->
<!--zoomable 237 -->
<svg id="main" version="1.1" xmlns="http://www.w3.org/2000/svg" xmlns:xlink="http://www.w3.org/1999/xlink" xml:space="preserve" onload="init(evt)">
<style type="text/css"><![CDATA[
.edge:hover path { stroke: red; }
.edge:hover polygon { stroke: red; fill: red; }
]]></style>
<script type="text/javascript"><![CDATA[
var edges = document.getElementsByTagName('g');
if (edges && edges.length) {
  for (var i=0;i<edges.length;i++) {
    if (edges[i].id.substr(0,4)=='edge') {
      edges[i].setAttribute('class','edge');
    }
  }
}
]]></script>
        <defs>
                <circle id="rim" cx="0" cy="0" r="7"/>
                <circle id="rim2" cx="0" cy="0" r="3.5"/>
                <g id="zoomPlus">
                        <use xlink:href="#rim" fill="#404040">
                                <set attributeName="fill" to="#808080" begin="zoomplus.mouseover" end="zoomplus.mouseout"/>
                        </use>
                        <path d="M-4,0h8M0,-4v8" fill="none" stroke="white" stroke-width="1.5" pointer-events="none"/>
                </g>
                <g id="zoomMin">
                        <use xlink:href="#rim" fill="#404040">
                                <set attributeName="fill" to="#808080" begin="zoomminus.mouseover" end="zoomminus.mouseout"/>
                        </use>
                        <path d="M-4,0h8" fill="none" stroke="white" stroke-width="1.5" pointer-events="none"/>
                </g>
                <g id="dirArrow">
                        <path fill="none" stroke="white" stroke-width="1.5" d="M0,-3.0v7 M-2.5,-0.5L0,-3.0L2.5,-0.5"/>
                </g>
               <g id="resetDef">
                       <use xlink:href="#rim2" fill="#404040">
                               <set attributeName="fill" to="#808080" begin="reset.mouseover" end="reset.mouseout"/>
                       </use>
               </g>
        </defs>

<script type="text/javascript">
var viewWidth = 668;
var viewHeight = 237;
var sectionId = 'dynsection-22';
</script>
<script xlink:href="svgpan.js"/>
<svg id="graph" class="graph">
<g id="viewport">
<title>xlat_instantiate</title>
<!-- Node3134 -->
<g id="node1" class="node">
<title>Node3134</title>
<polygon fill="#bfbfbf" stroke="#000000" points="0,-95.5 0,-114.5 83,-114.5 83,-95.5 0,-95.5"/>
<text text-anchor="middle" x="41.5" y="-102.5" font-family="Helvetica,sans-Serif" font-size="10.00" fill="#000000">xlat_instantiate</text>
</g>
<!-- Node3135 -->
<g id="node2" class="node">
<title>Node3135</title>
<g id="a_node2"><a xlink:href="xlat__inst_8c.html#ad12fcf4c84f89ff0f13ef0ff6e40f922" target="_top" xlink:title="Initialise the xlat inst code. ">
<polygon fill="none" stroke="#000000" points="129.5,-171.5 129.5,-190.5 230.5,-190.5 230.5,-171.5 129.5,-171.5"/>
<text text-anchor="middle" x="180" y="-178.5" font-family="Helvetica,sans-Serif" font-size="10.00" fill="#000000">xlat_instantiate_init</text>
</a>
</g>
</g>
<!-- Node3134&#45;&gt;Node3135 -->
<g id="edge1" class="edge">
<title>Node3134&#45;&gt;Node3135</title>
<path fill="none" stroke="#191970" d="M59.0411,-114.6255C82.9765,-127.7597 126.0598,-151.401 153.823,-166.6358"/>
<polygon fill="#191970" stroke="#191970" points="152.1507,-169.7104 162.6013,-171.4527 155.5182,-163.5736 152.1507,-169.7104"/>
</g>
<!-- Node3138 -->
<g id="node5" class="node">
<title>Node3138</title>
<g id="a_node5"><a xlink:href="rbtree_8c.html#a3152a4d0a82814f872f93d5ce1a5186c" target="_top" xlink:title="rbtree_walk">
<polygon fill="none" stroke="#000000" points="146.5,-95.5 146.5,-114.5 213.5,-114.5 213.5,-95.5 146.5,-95.5"/>
<text text-anchor="middle" x="180" y="-102.5" font-family="Helvetica,sans-Serif" font-size="10.00" fill="#000000">rbtree_walk</text>
</a>
</g>
</g>
<!-- Node3134&#45;&gt;Node3138 -->
<g id="edge4" class="edge">
<title>Node3134&#45;&gt;Node3138</title>
<path fill="none" stroke="#191970" d="M83.0546,-105C99.8147,-105 119.1662,-105 136.151,-105"/>
<polygon fill="#191970" stroke="#191970" points="136.3764,-108.5001 146.3763,-105 136.3763,-101.5001 136.3764,-108.5001"/>
</g>
<!-- Node3148 -->
<g id="node13" class="node">
<title>Node3148</title>
<g id="a_node13"><a xlink:href="xlat__inst_8c.html#a35750e82ca5aa40a555de959f4d0310d" target="_top" xlink:title="Walk over xlat_exp_t that require instantiation. ">
<polygon fill="none" stroke="#000000" points="119,-57.5 119,-76.5 241,-76.5 241,-57.5 119,-57.5"/>
<text text-anchor="middle" x="180" y="-64.5" font-family="Helvetica,sans-Serif" font-size="10.00" fill="#000000">_xlat_instantiate_walker</text>
</a>
</g>
</g>
<!-- Node3134&#45;&gt;Node3148 -->
<g id="edge12" class="edge">
<title>Node3134&#45;&gt;Node3148</title>
<path fill="none" stroke="#191970" d="M76.4494,-95.411C94.3284,-90.5056 116.2884,-84.4804 135.3778,-79.2429"/>
<polygon fill="#191970" stroke="#191970" points="136.3443,-82.6072 145.0618,-76.5859 134.4921,-75.8566 136.3443,-82.6072"/>
</g>
<!-- Node3136 -->
<g id="node3" class="node">
<title>Node3136</title>
<g id="a_node3"><a xlink:href="xlat__inst_8c.html#ac9b295623bffe279b7485d5141ed4446" target="_top" xlink:title="Compare two xlat instances based on node pointer. ">
<polygon fill="none" stroke="#000000" points="292.5,-209.5 292.5,-228.5 375.5,-228.5 375.5,-209.5 292.5,-209.5"/>
<text text-anchor="middle" x="334" y="-216.5" font-family="Helvetica,sans-Serif" font-size="10.00" fill="#000000">_xlat_inst_cmp</text>
</a>
</g>
</g>
<!-- Node3135&#45;&gt;Node3136 -->
<g id="edge2" class="edge">
<title>Node3135&#45;&gt;Node3136</title>
<path fill="none" stroke="#191970" d="M218.8607,-190.589C239.0911,-195.5809 264.0207,-201.7324 285.5036,-207.0334"/>
<polygon fill="#191970" stroke="#191970" points="284.8714,-210.4823 295.4187,-209.4799 286.5485,-203.6861 284.8714,-210.4823"/>
</g>
<!-- Node3137 -->
<g id="node4" class="node">
<title>Node3137</title>
<g id="a_node4"><a xlink:href="xlat__inst_8c.html#ac1e1de3cf309c9db2ade04a9f010d0af" target="_top" xlink:title="Destructor for xlat_inst_tree elements. ">
<polygon fill="none" stroke="#000000" points="294,-171.5 294,-190.5 374,-190.5 374,-171.5 294,-171.5"/>
<text text-anchor="middle" x="334" y="-178.5" font-family="Helvetica,sans-Serif" font-size="10.00" fill="#000000">_xlat_inst_free</text>
</a>
</g>
</g>
<!-- Node3135&#45;&gt;Node3137 -->
<g id="edge3" class="edge">
<title>Node3135&#45;&gt;Node3137</title>
<path fill="none" stroke="#191970" d="M230.8522,-181C247.8295,-181 266.7313,-181 283.6688,-181"/>
<polygon fill="#191970" stroke="#191970" points="283.9262,-184.5001 293.9262,-181 283.9262,-177.5001 283.9262,-184.5001"/>
</g>
<!-- Node3139 -->
<g id="node6" class="node">
<title>Node3139</title>
<g id="a_node6"><a xlink:href="rbtree_8c.html#a53c88bd1822067994ece42365515c79c" target="_top" xlink:title="Walk the tree, Pre&#45;order. ">
<polygon fill="none" stroke="#000000" points="279.5,-133.5 279.5,-152.5 388.5,-152.5 388.5,-133.5 279.5,-133.5"/>
<text text-anchor="middle" x="334" y="-140.5" font-family="Helvetica,sans-Serif" font-size="10.00" fill="#000000">walk_node_pre_order</text>
</a>
</g>
</g>
<!-- Node3138&#45;&gt;Node3139 -->
<g id="edge5" class="edge">
<title>Node3138&#45;&gt;Node3139</title>
<path fill="none" stroke="#191970" d="M213.796,-113.3393C234.8684,-118.539 262.3238,-125.3137 285.6745,-131.0755"/>
<polygon fill="#191970" stroke="#191970" points="284.8528,-134.4777 295.4001,-133.4754 286.5298,-127.6815 284.8528,-134.4777"/>
</g>
<!-- Node3140 -->
<g id="node7" class="node">
<title>Node3140</title>
<g id="a_node7"><a xlink:href="rbtree_8c.html#a0b811b62adbe2fb22bf70cc36ad57671" target="_top" xlink:title="rbtree_in_order ">
<polygon fill="none" stroke="#000000" points="282.5,-95.5 282.5,-114.5 385.5,-114.5 385.5,-95.5 282.5,-95.5"/>
<text text-anchor="middle" x="334" y="-102.5" font-family="Helvetica,sans-Serif" font-size="10.00" fill="#000000">walk_node_in_order</text>
</a>
</g>
</g>
<!-- Node3138&#45;&gt;Node3140 -->
<g id="edge6" class="edge">
<title>Node3138&#45;&gt;Node3140</title>
<path fill="none" stroke="#191970" d="M213.796,-105C230.9111,-105 252.2369,-105 272.1542,-105"/>
<polygon fill="#191970" stroke="#191970" points="272.4116,-108.5001 282.4116,-105 272.4115,-101.5001 272.4116,-108.5001"/>
</g>
<!-- Node3141 -->
<g id="node8" class="node">
<title>Node3141</title>
<g id="a_node8"><a xlink:href="rbtree_8c.html#af49802c2feef6ee7d874a06df2ad61d8" target="_top" xlink:title="rbtree_post_order ">
<polygon fill="none" stroke="#000000" points="277,-57.5 277,-76.5 391,-76.5 391,-57.5 277,-57.5"/>
<text text-anchor="middle" x="334" y="-64.5" font-family="Helvetica,sans-Serif" font-size="10.00" fill="#000000">walk_node_post_order</text>
</a>
</g>
</g>
<!-- Node3138&#45;&gt;Node3141 -->
<g id="edge7" class="edge">
<title>Node3138&#45;&gt;Node3141</title>
<path fill="none" stroke="#191970" d="M213.796,-96.6607C234.8684,-91.461 262.3238,-84.6863 285.6745,-78.9245"/>
<polygon fill="#191970" stroke="#191970" points="286.5298,-82.3185 295.4001,-76.5246 284.8528,-75.5223 286.5298,-82.3185"/>
</g>
<!-- Node3142 -->
<g id="node9" class="node">
<title>Node3142</title>
<g id="a_node9"><a xlink:href="rbtree_8c.html#a6bb9d93ba4f73f34a3122669e0e1e17c" target="_top" xlink:title="rbtree_delete_order ">
<polygon fill="none" stroke="#000000" points="286.5,-19.5 286.5,-38.5 381.5,-38.5 381.5,-19.5 286.5,-19.5"/>
<text text-anchor="middle" x="334" y="-26.5" font-family="Helvetica,sans-Serif" font-size="10.00" fill="#000000">walk_delete_order</text>
</a>
</g>
</g>
<!-- Node3138&#45;&gt;Node3142 -->
<g id="edge8" class="edge">
<title>Node3138&#45;&gt;Node3142</title>
<path fill="none" stroke="#191970" d="M213.6278,-97.8606C222.9184,-95.0198 232.7153,-91.1616 241,-86 260.7456,-73.6978 257.3771,-60.4971 277,-48 280.1784,-45.9758 283.5948,-44.1445 287.1188,-42.4921"/>
<polygon fill="#191970" stroke="#191970" points="288.7317,-45.6114 296.6085,-38.5257 286.0322,-39.1528 288.7317,-45.6114"/>
</g>
<!-- Node3143 -->
<g id="node10" class="node">
<title>Node3143</title>
<g id="a_node10"><a xlink:href="rbtree_8c.html#abbf4f6305953449df974e13b55baa1ba" target="_top" xlink:title="Delete an element (z) from the tree. ">
<polygon fill="none" stroke="#000000" points="427,-19.5 427,-38.5 537,-38.5 537,-19.5 427,-19.5"/>
<text text-anchor="middle" x="482" y="-26.5" font-family="Helvetica,sans-Serif" font-size="10.00" fill="#000000">rbtree_delete_internal</text>
</a>
</g>
</g>
<!-- Node3142&#45;&gt;Node3143 -->
<g id="edge9" class="edge">
<title>Node3142&#45;&gt;Node3143</title>
<path fill="none" stroke="#191970" d="M381.6428,-29C392.8189,-29 404.9176,-29 416.7165,-29"/>
<polygon fill="#191970" stroke="#191970" points="416.9774,-32.5001 426.9774,-29 416.9773,-25.5001 416.9774,-32.5001"/>
</g>
<!-- Node3144 -->
<g id="node11" class="node">
<title>Node3144</title>
<g id="a_node11"><a xlink:href="rbtree_8c.html#afd9a91b95838a37b587f388299138de9" target="_top" xlink:title="rbtree_free_data">
<polygon fill="none" stroke="#000000" points="573,-38.5 573,-57.5 660,-57.5 660,-38.5 573,-38.5"/>
<text text-anchor="middle" x="616.5" y="-45.5" font-family="Helvetica,sans-Serif" font-size="10.00" fill="#000000">rbtree_free_data</text>
</a>
</g>
</g>
<!-- Node3143&#45;&gt;Node3144 -->
<g id="edge10" class="edge">
<title>Node3143&#45;&gt;Node3144</title>
<path fill="none" stroke="#191970" d="M537.0944,-36.7828C545.5529,-37.9777 554.2768,-39.2101 562.7066,-40.4009"/>
<polygon fill="#191970" stroke="#191970" points="562.4143,-43.8943 572.8056,-41.8276 563.3935,-36.9631 562.4143,-43.8943"/>
</g>
<!-- Node3145 -->
<g id="node12" class="node">
<title>Node3145</title>
<g id="a_node12"><a xlink:href="rbtree_8c.html#af51789095c4c57a970c41f5ab07c044c" target="_top" xlink:title="Maintain RED&#45;BLACK tree balance after deleting node x. ">
<polygon fill="none" stroke="#ff0000" points="582,-.5 582,-19.5 651,-19.5 651,-.5 582,-.5"/>
<text text-anchor="middle" x="616.5" y="-7.5" font-family="Helvetica,sans-Serif" font-size="10.00" fill="#000000">delete_fixup</text>
</a>
</g>
</g>
<!-- Node3143&#45;&gt;Node3145 -->
<g id="edge11" class="edge">
<title>Node3143&#45;&gt;Node3145</title>
<path fill="none" stroke="#191970" d="M537.0944,-21.2172C548.6475,-19.5851 560.6957,-17.8831 571.8133,-16.3126"/>
<polygon fill="#191970" stroke="#191970" points="572.3087,-19.7775 581.7208,-14.913 571.3295,-12.8463 572.3087,-19.7775"/>
</g>
</g>
</svg>
        <g id="navigator" transform="translate(0 0)" fill="#404254">
                <rect fill="#f2f5e9" fill-opacity="0.5" stroke="#606060" stroke-width=".5" x="0" y="0" width="60" height="60"/>
                <use id="zoomplus" xlink:href="#zoomPlus" x="17" y="9" onmousedown="handleZoom(evt,'in')"/>
                <use id="zoomminus" xlink:href="#zoomMin" x="42" y="9" onmousedown="handleZoom(evt,'out')"/>
                <use id="reset" xlink:href="#resetDef" x="30" y="36" onmousedown="handleReset()"/>
                <g id="arrowUp" xlink:href="#dirArrow" transform="translate(30 24)" onmousedown="handlePan(0,-1)">
                  <use xlink:href="#rim" fill="#404040">
                        <set attributeName="fill" to="#808080" begin="arrowUp.mouseover" end="arrowUp.mouseout"/>
                  </use>
                  <path fill="none" stroke="white" stroke-width="1.5" d="M0,-3.0v7 M-2.5,-0.5L0,-3.0L2.5,-0.5"/>
                </g>
                <g id="arrowRight" xlink:href="#dirArrow" transform="rotate(90) translate(36 -43)" onmousedown="handlePan(1,0)">
                  <use xlink:href="#rim" fill="#404040">
                        <set attributeName="fill" to="#808080" begin="arrowRight.mouseover" end="arrowRight.mouseout"/>
                  </use>
                  <path fill="none" stroke="white" stroke-width="1.5" d="M0,-3.0v7 M-2.5,-0.5L0,-3.0L2.5,-0.5"/>
                </g>
                <g id="arrowDown" xlink:href="#dirArrow" transform="rotate(180) translate(-30 -48)" onmousedown="handlePan(0,1)">
                  <use xlink:href="#rim" fill="#404040">
                        <set attributeName="fill" to="#808080" begin="arrowDown.mouseover" end="arrowDown.mouseout"/>
                  </use>
                  <path fill="none" stroke="white" stroke-width="1.5" d="M0,-3.0v7 M-2.5,-0.5L0,-3.0L2.5,-0.5"/>
                </g>
                <g id="arrowLeft" xlink:href="#dirArrow" transform="rotate(270) translate(-36 17)" onmousedown="handlePan(-1,0)">
                  <use xlink:href="#rim" fill="#404040">
                        <set attributeName="fill" to="#808080" begin="arrowLeft.mouseover" end="arrowLeft.mouseout"/>
                  </use>
                  <path fill="none" stroke="white" stroke-width="1.5" d="M0,-3.0v7 M-2.5,-0.5L0,-3.0L2.5,-0.5"/>
                </g>
        </g>
        <svg viewBox="0 0 15 15" width="100%" height="30px" preserveAspectRatio="xMaxYMin meet">
         <g id="arrow_out" transform="scale(0.3 0.3)">
          <a xlink:href="xlat__inst_8c_a61ba62e1b46d6e51a74d800e32945263_cgraph_org.svg" target="_base">
           <rect id="button" ry="5" rx="5" y="6" x="6" height="38" width="38"
                fill="#f2f5e9" fill-opacity="0.5" stroke="#606060" stroke-width="1.0"/>
           <path id="arrow"
             d="M 11.500037,31.436501 C 11.940474,20.09759 22.043105,11.32322 32.158766,21.979434 L 37.068811,17.246167 C 37.068811,17.246167 37.088388,32 37.088388,32 L 22.160133,31.978069 C 22.160133,31.978069 26.997745,27.140456 26.997745,27.140456 C 18.528582,18.264221 13.291696,25.230495 11.500037,31.436501 z"
             style="fill:#404040;"/>
          </a>
         </g>
        </svg>
</svg>
